<svg width="18" height="20" viewBox="0 0 18 20" fill="none" xmlns="http://www.w3.org/2000/svg">
<path d="M8.20474 9.30212L11.944 5.54482L3.31696 0.526155C2.99645 0.33829 2.59582 0.204102 2.19518 0.204102C1.3672 0.204102 0.672756 0.660344 0.298828 1.33129L8.20474 9.27528V9.30212Z" fill="white"/>
<path d="M0.00488281 2.45801V17.514L7.48344 9.99943L0.00488281 2.45801Z" fill="white"/>
<path d="M8.20474 10.6973L0.298828 18.6413C0.672756 19.3122 1.3672 19.7684 2.19518 19.7684C2.59582 19.7684 2.96974 19.6611 3.29025 19.4732L11.9173 14.4546L8.17803 10.6973H8.20474Z" fill="white"/>
<path d="M16.2975 8.09436L12.8253 6.05469L8.92578 9.99984L12.852 13.945L16.2975 11.9322C16.9919 11.5564 17.446 10.8318 17.446 9.99984C17.446 9.16787 16.9919 8.44325 16.3242 8.06752L16.2975 8.09436Z" fill="white"/>
</svg>
