<svg width="69" height="28" viewBox="0 0 69 28" fill="none" xmlns="http://www.w3.org/2000/svg">
<path d="M17.2173 14.3023C17.1906 11.0817 19.8348 9.52514 19.9683 9.44462C18.4726 7.24392 16.1489 6.94871 15.3209 6.92187C13.3711 6.70717 11.4748 8.10273 10.4866 8.10273C9.49832 8.10273 7.94919 6.94871 6.29323 6.97555C4.15649 7.00238 2.18002 8.23692 1.08494 10.1692C-1.15863 14.0876 0.524049 19.8309 2.66078 22.9977C3.72915 24.5543 5.01119 26.2719 6.64045 26.2183C8.24299 26.1377 8.8573 25.1716 10.8071 25.1716C12.7568 25.1716 13.291 26.2183 14.9737 26.1646C16.7098 26.1377 17.8049 24.608 18.8465 23.0514C20.1019 21.2801 20.5826 19.5356 20.6093 19.4283C20.5559 19.4283 17.244 18.1401 17.2173 14.2754V14.3023Z" fill="white"/>
<path d="M14.039 4.85571C14.8937 3.75536 15.508 2.27928 15.3477 0.776367C14.0924 0.830043 12.5166 1.63518 11.6085 2.70869C10.8072 3.64801 10.086 5.17777 10.273 6.62701C11.6886 6.73436 13.1309 5.90239 14.039 4.82888V4.85571Z" fill="white"/>
<path d="M35.7536 2.2793H35.2461V27.7215H35.7536V2.2793Z" fill="white"/>
<path d="M59.2047 14.3021L62.944 10.5448L54.317 5.52615C53.9965 5.33829 53.5958 5.2041 53.1952 5.2041C52.3672 5.2041 51.6728 5.66034 51.2988 6.33129L59.2047 14.2753V14.3021Z" fill="white"/>
<path d="M51.0049 7.45801V22.514L58.4834 14.9994L51.0049 7.45801Z" fill="white"/>
<path d="M59.2047 15.6973L51.2988 23.6413C51.6728 24.3122 52.3672 24.7684 53.1952 24.7684C53.5958 24.7684 53.9697 24.6611 54.2903 24.4732L62.9173 19.4546L59.178 15.6973H59.2047Z" fill="white"/>
<path d="M67.2975 13.0944L63.8253 11.0547L59.9258 14.9998L63.852 18.945L67.2975 16.9322C67.9919 16.5564 68.446 15.8318 68.446 14.9998C68.446 14.1679 67.9919 13.4433 67.3242 13.0675L67.2975 13.0944Z" fill="white"/>
</svg>
