<svg width="152" height="65" viewBox="0 0 152 65" fill="none" xmlns="http://www.w3.org/2000/svg">
<g clip-path="url(#clip0_123_10165)">
<path d="M32.3404 64.548C50.2015 64.548 64.6808 50.0984 64.6808 32.274C64.6808 14.4496 50.2015 0 32.3404 0C14.4793 0 0 14.4496 0 32.274C0 50.0984 14.4793 64.548 32.3404 64.548Z" fill="#495CE8"/>
<path d="M31.2077 51.5667C36.5457 51.1006 40.1158 42.0861 39.1818 31.4321C38.2477 20.7781 33.1633 12.5192 27.8254 12.9852C22.4874 13.4513 18.9173 22.4658 19.8513 33.1198C20.7854 43.7738 25.8698 52.0327 31.2077 51.5667Z" fill="white"/>
<path d="M13.3333 52.029C16.8513 51.41 18.446 43.7931 16.8952 35.0163C15.3444 26.2395 11.2354 19.6263 7.71748 20.2453C4.19952 20.8644 2.60481 28.4812 4.15558 37.258C5.70636 46.0349 9.81538 52.6481 13.3333 52.029Z" fill="white"/>
<path d="M13.9017 43.4055C15.3089 43.1578 15.8462 39.5419 15.1019 35.329C14.3575 31.1162 12.6133 27.9017 11.2061 28.1493C9.79895 28.3969 9.26164 32.0129 10.006 36.2257C10.7504 40.4386 12.4946 43.6531 13.9017 43.4055Z" fill="black"/>
<path d="M33.1842 41.9209C35.3194 41.7345 36.6717 37.265 36.2047 31.938C35.7377 26.6111 33.6282 22.4438 31.493 22.6302C29.3579 22.8166 28.0055 27.2861 28.4725 32.6131C28.9396 37.9401 31.049 42.1074 33.1842 41.9209Z" fill="black"/>
<path d="M87.3643 46.0097C83.3282 46.0097 80.1523 44.8156 77.8432 42.4208C75.5341 40.0261 74.3828 36.6567 74.3828 32.2997C74.3828 27.9427 75.5341 24.5669 77.8432 22.1528C80.1523 19.7451 83.3088 18.5381 87.3125 18.5381C90.5207 18.5381 93.0756 19.2546 94.9643 20.694C96.8594 22.1334 97.8037 24.3087 97.8037 27.2262C97.8037 27.8007 97.7649 28.3881 97.6938 28.9819C97.6226 29.5758 97.4933 30.0728 97.3122 30.4666L90.6048 30.5182C90.7859 29.976 90.8764 29.3111 90.8764 28.5237C90.8764 26.258 89.6475 25.122 87.1961 25.122C83.9491 25.122 82.3256 27.4457 82.3256 32.0867C82.3256 34.4943 82.8237 36.3211 83.8133 37.5668C84.8029 38.8062 86.2194 39.4258 88.0563 39.4258C89.5699 39.4258 90.7341 39.1289 91.5426 38.535C92.3576 37.9412 93.0626 37.2118 93.6771 36.3469L98.2177 40.4457C97.2798 42.0658 95.8892 43.3955 94.0523 44.4412C92.2153 45.4869 89.9774 46.0032 87.3448 46.0032L87.3643 46.0097Z" fill="black"/>
<path d="M125.17 40.446C123.98 42.3567 122.376 43.7767 120.358 44.7127C118.34 45.6486 116.011 46.0811 113.379 46.0101C109.556 45.9391 106.542 44.7837 104.35 42.5568C102.15 40.3234 101.051 37.1412 101.051 33.0037C101.051 30.7703 101.381 28.7693 102.053 26.9878C102.72 25.2063 103.651 23.6959 104.841 22.4565C106.031 21.2172 107.448 20.2554 109.091 19.5712C110.734 18.887 112.525 18.5449 114.472 18.5449C117.538 18.5449 119.951 19.2614 121.723 20.7008C123.489 22.1402 124.375 24.1735 124.375 26.8006C124.375 28.3498 123.993 29.673 123.236 30.7703C122.48 31.8676 121.425 32.7584 120.073 33.4426C118.722 34.1268 117.137 34.6367 115.313 34.9788C113.489 35.3209 111.497 35.5275 109.336 35.5985C109.983 38.2643 111.749 39.594 114.64 39.594C116.011 39.594 117.169 39.3358 118.127 38.813C119.084 38.2901 119.918 37.5414 120.643 36.5732L125.183 40.459L125.17 40.446ZM114.356 24.9029C112.874 24.9029 111.678 25.4128 110.759 26.4391C109.841 27.4655 109.291 28.9501 109.11 30.893C111.49 30.8219 113.411 30.525 114.873 30.0022C116.335 29.4793 117.066 28.5886 117.066 27.3299C117.066 25.7097 116.16 24.9029 114.362 24.9029H114.356Z" fill="black"/>
<path d="M152 40.446C150.81 42.3567 149.206 43.7767 147.188 44.7127C145.17 45.6486 142.842 46.0811 140.209 46.0101C136.386 45.9391 133.372 44.7837 131.18 42.5568C128.98 40.3234 127.881 37.1412 127.881 33.0037C127.881 30.7703 128.211 28.7693 128.883 26.9878C129.55 25.2063 130.481 23.6959 131.671 22.4565C132.861 21.2172 134.278 20.2554 135.921 19.5712C137.564 18.887 139.355 18.5449 141.302 18.5449C144.368 18.5449 146.781 19.2614 148.553 20.7008C150.319 22.1402 151.205 24.1735 151.205 26.8006C151.205 28.3498 150.823 29.673 150.066 30.7703C149.31 31.8676 148.255 32.7584 146.903 33.4426C145.552 34.1268 143.967 34.6367 142.143 34.9788C140.319 35.3209 138.327 35.5275 136.166 35.5985C136.813 38.2643 138.579 39.594 141.47 39.594C142.842 39.594 143.999 39.3358 144.957 38.813C145.914 38.2901 146.748 37.5414 147.473 36.5732L152.013 40.459L152 40.446ZM141.186 24.9029C139.705 24.9029 138.508 25.4128 137.589 26.4391C136.671 27.4655 136.121 28.9501 135.94 30.893C138.32 30.8219 140.241 30.525 141.703 30.0022C143.165 29.4793 143.896 28.5886 143.896 27.3299C143.896 25.7097 142.99 24.9029 141.192 24.9029H141.186Z" fill="black"/>
</g>
<defs>
<clipPath id="clip0_123_10165">
<rect width="152" height="64.548" fill="white"/>
</clipPath>
</defs>
</svg>
