<svg width="248" height="62" viewBox="0 0 248 62" fill="none" xmlns="http://www.w3.org/2000/svg">
<rect width="248" height="62" rx="31" fill="#171729"/>
<path d="M31.136 25.44C32.7893 25.44 34.0853 25.8987 35.024 26.816C35.9733 27.7227 36.448 29.024 36.448 30.72C36.448 32.416 35.9733 33.7227 35.024 34.64C34.0853 35.5467 32.7893 36 31.136 36H27.728V25.44H31.136ZM31.264 34.8C32.4693 34.8 33.408 34.4427 34.08 33.728C34.7627 33.0027 35.104 32 35.104 30.72C35.104 29.44 34.7627 28.4427 34.08 27.728C33.408 27.0027 32.4693 26.64 31.264 26.64H29.008V34.8H31.264ZM41.2113 27.84C41.9686 27.84 42.6353 28.0053 43.2113 28.336C43.7979 28.6667 44.2566 29.1467 44.5873 29.776C44.9179 30.3947 45.0833 31.136 45.0833 32C45.0833 32.864 44.9179 33.6107 44.5873 34.24C44.2566 34.8587 43.7979 35.3333 43.2113 35.664C42.6353 35.9947 41.9686 36.16 41.2113 36.16C40.4646 36.16 39.7979 35.9947 39.2113 35.664C38.6246 35.3333 38.1659 34.8587 37.8353 34.24C37.5046 33.6107 37.3393 32.864 37.3393 32C37.3393 31.136 37.5046 30.3947 37.8353 29.776C38.1659 29.1467 38.6246 28.6667 39.2113 28.336C39.7979 28.0053 40.4646 27.84 41.2113 27.84ZM41.2113 28.944C40.6673 28.944 40.2033 29.0667 39.8193 29.312C39.4353 29.5573 39.1366 29.9093 38.9233 30.368C38.7206 30.816 38.6193 31.36 38.6193 32C38.6193 32.6293 38.7206 33.1733 38.9233 33.632C39.1366 34.0907 39.4353 34.4427 39.8193 34.688C40.2033 34.9333 40.6673 35.056 41.2113 35.056C41.7553 35.056 42.2193 34.9333 42.6033 34.688C42.9873 34.4427 43.2806 34.0907 43.4833 33.632C43.6966 33.1733 43.8033 32.6293 43.8033 32C43.8033 31.36 43.6966 30.816 43.4833 30.368C43.2806 29.9093 42.9873 29.5573 42.6033 29.312C42.2193 29.0667 41.7553 28.944 41.2113 28.944ZM56.155 28H57.579L54.795 36H53.515L51.259 29.632L49.131 36H47.851L45.067 28H46.491L48.507 34.512L50.683 28H51.963L54.139 34.512L56.155 28ZM58.378 36V28H59.498L59.61 29.792L59.402 29.616C59.5727 29.1893 59.802 28.848 60.09 28.592C60.378 28.3253 60.7087 28.1333 61.082 28.016C61.466 27.8987 61.8607 27.84 62.266 27.84C62.842 27.84 63.3647 27.952 63.834 28.176C64.3033 28.3893 64.6767 28.72 64.954 29.168C65.242 29.616 65.386 30.1867 65.386 30.88V36H64.106V31.328C64.106 30.4427 63.914 29.8293 63.53 29.488C63.1567 29.136 62.6927 28.96 62.138 28.96C61.754 28.96 61.37 29.0507 60.986 29.232C60.602 29.4133 60.282 29.7067 60.026 30.112C59.7807 30.5173 59.658 31.0613 59.658 31.744V36H58.378ZM68.3803 24.32V33.968C68.3803 34.3733 68.4549 34.656 68.6043 34.816C68.7536 34.9653 68.9936 35.04 69.3243 35.04C69.5376 35.04 69.7136 35.024 69.8523 34.992C69.9909 34.96 70.1776 34.9013 70.4123 34.816L70.2043 35.936C70.0336 36.0107 69.8469 36.064 69.6443 36.096C69.4416 36.1387 69.2336 36.16 69.0203 36.16C68.3696 36.16 67.8843 35.984 67.5643 35.632C67.2549 35.28 67.1003 34.7413 67.1003 34.016V24.32H68.3803ZM74.2469 27.84C75.0042 27.84 75.6709 28.0053 76.2469 28.336C76.8335 28.6667 77.2922 29.1467 77.6229 29.776C77.9535 30.3947 78.1189 31.136 78.1189 32C78.1189 32.864 77.9535 33.6107 77.6229 34.24C77.2922 34.8587 76.8335 35.3333 76.2469 35.664C75.6709 35.9947 75.0042 36.16 74.2469 36.16C73.5002 36.16 72.8335 35.9947 72.2469 35.664C71.6602 35.3333 71.2015 34.8587 70.8709 34.24C70.5402 33.6107 70.3749 32.864 70.3749 32C70.3749 31.136 70.5402 30.3947 70.8709 29.776C71.2015 29.1467 71.6602 28.6667 72.2469 28.336C72.8335 28.0053 73.5002 27.84 74.2469 27.84ZM74.2469 28.944C73.7029 28.944 73.2389 29.0667 72.8549 29.312C72.4709 29.5573 72.1722 29.9093 71.9589 30.368C71.7562 30.816 71.6549 31.36 71.6549 32C71.6549 32.6293 71.7562 33.1733 71.9589 33.632C72.1722 34.0907 72.4709 34.4427 72.8549 34.688C73.2389 34.9333 73.7029 35.056 74.2469 35.056C74.7909 35.056 75.2549 34.9333 75.6389 34.688C76.0229 34.4427 76.3162 34.0907 76.5189 33.632C76.7322 33.1733 76.8389 32.6293 76.8389 32C76.8389 31.36 76.7322 30.816 76.5189 30.368C76.3162 29.9093 76.0229 29.5573 75.6389 29.312C75.2549 29.0667 74.7909 28.944 74.2469 28.944ZM84.0806 30.832C84.0806 30.2347 83.9206 29.776 83.6006 29.456C83.2806 29.1253 82.8273 28.96 82.2406 28.96C81.686 28.96 81.2166 29.0827 80.8326 29.328C80.4486 29.5627 80.166 29.9467 79.9846 30.48L78.9446 29.84C79.158 29.2427 79.5526 28.7627 80.1286 28.4C80.7046 28.0267 81.4193 27.84 82.2726 27.84C82.8486 27.84 83.3713 27.9413 83.8406 28.144C84.31 28.336 84.678 28.6347 84.9446 29.04C85.222 29.4347 85.3606 29.9467 85.3606 30.576V34.448C85.3606 34.832 85.5633 35.024 85.9686 35.024C86.1713 35.024 86.3686 34.9973 86.5606 34.944L86.4966 35.952C86.2833 36.0587 86.006 36.112 85.6646 36.112C85.3553 36.112 85.078 36.0533 84.8326 35.936C84.5873 35.8187 84.3953 35.6427 84.2566 35.408C84.118 35.1627 84.0486 34.8587 84.0486 34.496V34.336L84.3686 34.384C84.2406 34.8 84.022 35.1413 83.7126 35.408C83.4033 35.664 83.0566 35.856 82.6726 35.984C82.2886 36.1013 81.91 36.16 81.5366 36.16C81.0673 36.16 80.63 36.08 80.2246 35.92C79.8193 35.76 79.494 35.52 79.2486 35.2C79.014 34.8693 78.8966 34.464 78.8966 33.984C78.8966 33.3867 79.094 32.896 79.4886 32.512C79.894 32.1173 80.454 31.8507 81.1686 31.712L84.3366 31.088V32.144L81.7606 32.672C81.238 32.7787 80.8486 32.928 80.5926 33.12C80.3366 33.312 80.2086 33.5787 80.2086 33.92C80.2086 34.2507 80.3366 34.5227 80.5926 34.736C80.8593 34.9387 81.2326 35.04 81.7126 35.04C82.022 35.04 82.3153 35.0027 82.5926 34.928C82.8806 34.8427 83.1366 34.72 83.3606 34.56C83.5846 34.3893 83.7606 34.1813 83.8886 33.936C84.0166 33.68 84.0806 33.3813 84.0806 33.04V30.832ZM90.4711 36.16C89.8098 36.16 89.2018 35.9947 88.6471 35.664C88.0925 35.3333 87.6498 34.8587 87.3191 34.24C86.9885 33.6107 86.8231 32.864 86.8231 32C86.8231 31.1147 86.9991 30.3627 87.3511 29.744C87.7031 29.1253 88.1671 28.656 88.7431 28.336C89.3191 28.0053 89.9378 27.84 90.5991 27.84C91.2605 27.84 91.8311 28.0107 92.3111 28.352C92.8018 28.6933 93.1271 29.1467 93.2871 29.712L93.1271 29.824V24.32H94.4071V36H93.2871L93.1751 34.064L93.3511 33.968C93.2765 34.4373 93.0951 34.8373 92.8071 35.168C92.5298 35.488 92.1831 35.7333 91.7671 35.904C91.3618 36.0747 90.9298 36.16 90.4711 36.16ZM90.5991 35.04C91.1111 35.04 91.5538 34.912 91.9271 34.656C92.3111 34.4 92.6045 34.0373 92.8071 33.568C93.0205 33.088 93.1271 32.528 93.1271 31.888C93.1271 31.28 93.0205 30.7573 92.8071 30.32C92.6045 29.8827 92.3165 29.5467 91.9431 29.312C91.5805 29.0773 91.1538 28.96 90.6631 28.96C89.8525 28.96 89.2231 29.2373 88.7751 29.792C88.3271 30.3467 88.1031 31.0827 88.1031 32C88.1031 32.9173 88.3218 33.6533 88.7591 34.208C89.1965 34.7627 89.8098 35.04 90.5991 35.04ZM109.123 25.44V36H107.539L103.123 28.928L102.003 26.944H101.987L102.051 28.544V36H100.835V25.44H102.419L106.819 32.48L107.955 34.512H107.971L107.907 32.896V25.44H109.123ZM114.413 27.84C115.17 27.84 115.837 28.0053 116.413 28.336C116.999 28.6667 117.458 29.1467 117.789 29.776C118.119 30.3947 118.285 31.136 118.285 32C118.285 32.864 118.119 33.6107 117.789 34.24C117.458 34.8587 116.999 35.3333 116.413 35.664C115.837 35.9947 115.17 36.16 114.413 36.16C113.666 36.16 112.999 35.9947 112.413 35.664C111.826 35.3333 111.367 34.8587 111.037 34.24C110.706 33.6107 110.541 32.864 110.541 32C110.541 31.136 110.706 30.3947 111.037 29.776C111.367 29.1467 111.826 28.6667 112.413 28.336C112.999 28.0053 113.666 27.84 114.413 27.84ZM114.413 28.944C113.869 28.944 113.405 29.0667 113.021 29.312C112.637 29.5573 112.338 29.9093 112.125 30.368C111.922 30.816 111.821 31.36 111.821 32C111.821 32.6293 111.922 33.1733 112.125 33.632C112.338 34.0907 112.637 34.4427 113.021 34.688C113.405 34.9333 113.869 35.056 114.413 35.056C114.957 35.056 115.421 34.9333 115.805 34.688C116.189 34.4427 116.482 34.0907 116.685 33.632C116.898 33.1733 117.005 32.6293 117.005 32C117.005 31.36 116.898 30.816 116.685 30.368C116.482 29.9093 116.189 29.5573 115.805 29.312C115.421 29.0667 114.957 28.944 114.413 28.944ZM129.356 28H130.78L127.996 36H126.716L124.46 29.632L122.332 36H121.052L118.268 28H119.692L121.708 34.512L123.884 28H125.164L127.34 34.512L129.356 28Z" fill="white"/>
<g clip-path="url(#clip0_129_695)">
<path d="M218.11 8H154.89C142.248 8 132 18.2975 132 31C132 43.7025 142.248 54 154.89 54H218.11C230.752 54 241 43.7025 241 31C241 18.2975 230.752 8 218.11 8Z" fill="#171729"/>
<path d="M168.217 30.3023C168.191 27.0817 170.835 25.5251 170.968 25.4446C169.473 23.2439 167.149 22.9487 166.321 22.9219C164.371 22.7072 162.475 24.1027 161.487 24.1027C160.498 24.1027 158.949 22.9487 157.293 22.9755C155.156 23.0024 153.18 24.2369 152.085 26.1692C149.841 30.0876 151.524 35.8309 153.661 38.9977C154.729 40.5543 156.011 42.2719 157.64 42.2183C159.243 42.1377 159.857 41.1716 161.807 41.1716C163.757 41.1716 164.291 42.2183 165.974 42.1646C167.71 42.1377 168.805 40.608 169.847 39.0514C171.102 37.2801 171.583 35.5356 171.609 35.4283C171.556 35.4283 168.244 34.1401 168.217 30.2754V30.3023Z" fill="white"/>
<path d="M165.039 20.8557C165.894 19.7554 166.508 18.2793 166.348 16.7764C165.092 16.83 163.517 17.6352 162.608 18.7087C161.807 19.648 161.086 21.1778 161.273 22.627C162.689 22.7344 164.131 21.9024 165.039 20.8289V20.8557Z" fill="white"/>
<path d="M186.754 18.2793H186.246V43.7215H186.754V18.2793Z" fill="white"/>
<path d="M210.205 30.3021L213.944 26.5448L205.317 21.5262C204.996 21.3383 204.596 21.2041 204.195 21.2041C203.367 21.2041 202.673 21.6603 202.299 22.3313L210.205 30.2753V30.3021Z" fill="white"/>
<path d="M202.005 23.458V38.514L209.483 30.9994L202.005 23.458Z" fill="white"/>
<path d="M210.205 31.6973L202.299 39.6413C202.673 40.3122 203.367 40.7684 204.195 40.7684C204.596 40.7684 204.97 40.6611 205.29 40.4732L213.917 35.4546L210.178 31.6973H210.205Z" fill="white"/>
<path d="M218.298 29.0944L214.825 27.0547L210.926 30.9998L214.852 34.945L218.298 32.9322C218.992 32.5564 219.446 31.8318 219.446 30.9998C219.446 30.1679 218.992 29.4433 218.324 29.0675L218.298 29.0944Z" fill="white"/>
</g>
<defs>
<clipPath id="clip0_129_695">
<rect width="109" height="46" fill="white" transform="translate(132 8)"/>
</clipPath>
</defs>
</svg>
