<svg width="349" height="258" viewBox="0 0 349 258" fill="none" xmlns="http://www.w3.org/2000/svg">
<g clip-path="url(#clip0_123_699)">
<g opacity="0.48">
<path d="M117.12 197.783H220.473" stroke="black" stroke-width="6.36" stroke-miterlimit="10" stroke-linecap="round"/>
<path d="M225.909 206.557H259.657" stroke="black" stroke-width="6.36" stroke-miterlimit="10" stroke-linecap="round"/>
<path d="M201.268 256.711H232.14" stroke="black" stroke-width="6.36" stroke-miterlimit="10" stroke-linecap="round"/>
<path d="M139.142 255.973H170.014" stroke="black" stroke-width="6.36" stroke-miterlimit="10" stroke-linecap="round"/>
<path d="M263.47 252.963H294.342" stroke="black" stroke-width="6.36" stroke-miterlimit="10" stroke-linecap="round"/>
<path d="M301.088 226.88H331.96" stroke="black" stroke-width="6.36" stroke-miterlimit="10" stroke-linecap="round"/>
<path d="M314.948 185.515H345.82" stroke="black" stroke-width="6.36" stroke-miterlimit="10" stroke-linecap="round"/>
<path d="M300.759 144.027H331.631" stroke="black" stroke-width="6.36" stroke-miterlimit="10" stroke-linecap="round"/>
<path d="M86.248 145.483H117.12" stroke="black" stroke-width="6.36" stroke-miterlimit="10" stroke-linecap="round"/>
<path d="M27.5176 156.09H58.3897" stroke="black" stroke-width="6.36" stroke-miterlimit="10" stroke-linecap="round"/>
<path d="M1.29004 201.944H32.1622" stroke="black" stroke-width="6.36" stroke-miterlimit="10" stroke-linecap="round"/>
<path d="M73.7871 252.363H104.659" stroke="black" stroke-width="6.36" stroke-miterlimit="10" stroke-linecap="round"/>
<path d="M29.7324 230.896H60.6046" stroke="black" stroke-width="6.36" stroke-miterlimit="10" stroke-linecap="round"/>
</g>
<path d="M214.409 84.6534L243.322 59.0732" stroke="black" stroke-width="14.31" stroke-miterlimit="10"/>
<path d="M212.957 54.1293C211.184 53.5371 210.807 51.7647 211.022 50.7426C211.205 49.8666 213.557 34.0691 214.231 29.5387C214.328 28.8776 214.953 28.4274 215.61 28.5369C223.698 29.9078 269.947 37.7234 272.99 37.5774C276.32 37.4152 287.126 38.9726 289.543 43.649C291.961 48.3254 286.963 55.9544 282.879 59.0733C278.794 62.1882 276.377 65.7371 276.109 67.4567C275.841 69.1764 277.561 72.993 274.121 73.1511C270.682 73.3134 262.78 68.3693 250.575 64.7677C242.422 62.3626 212.961 54.1293 212.961 54.1293H212.957Z" fill="black"/>
<path d="M217.982 35.6951C218.888 35.6951 219.621 34.9615 219.621 34.0565C219.621 33.1516 218.888 32.418 217.982 32.418C217.077 32.418 216.344 33.1516 216.344 34.0565C216.344 34.9615 217.077 35.6951 217.982 35.6951Z" fill="white"/>
<path d="M259.986 39.585C259.986 39.585 259.126 44.3141 256.473 47.9684C253.82 51.6227 252.745 54.9201 252.96 59.0733" stroke="white" stroke-width="6.36" stroke-linecap="round" stroke-linejoin="round"/>
<path d="M278.234 54.8924C275.873 59.7351 271.249 61.767 267.59 60.53C262.613 58.8428 262.638 54.1461 264.779 49.202C266.921 44.258 271.135 40.7659 276.117 42.4329C281.098 44.0998 280.449 50.3458 278.23 54.8924H278.234Z" fill="white"/>
<path d="M268.211 48.7883C268.422 47.0119 270.576 45.6085 272.283 45.9127" stroke="black" stroke-width="4.55" stroke-linecap="round" stroke-linejoin="round"/>
<path d="M117.12 107.063L88.207 81.4824" stroke="black" stroke-width="14.31" stroke-miterlimit="10"/>
<path d="M114.245 77.3165C116.017 76.7243 116.394 74.9519 116.179 73.9298C116.001 73.0903 113.823 58.4446 113.056 53.2937C112.91 52.3203 111.993 51.6673 111.028 51.8458C102.242 53.456 63.5536 60.505 60.6047 60.3631C57.2745 60.2008 46.2091 61.1337 43.7915 65.81C41.374 70.4864 44.5663 78.3669 48.6509 81.4859C52.7356 84.6008 54.9178 87.3344 55.1856 89.05C55.4533 90.7697 53.9687 95.4014 57.4084 95.5637C60.8481 95.7259 68.7497 90.7818 80.9549 87.1803C89.108 84.7752 114.245 77.3165 114.245 77.3165Z" fill="black"/>
<path d="M109.219 58.8826C110.124 58.8826 110.858 58.149 110.858 57.244C110.858 56.3391 110.124 55.6055 109.219 55.6055C108.314 55.6055 107.58 56.3391 107.58 57.244C107.58 58.149 108.314 58.8826 109.219 58.8826Z" fill="white"/>
<path d="M68.0889 65.1611C68.0889 65.1611 68.9488 67.4649 71.6016 71.1192C74.2544 74.7735 75.3293 78.0709 75.1143 82.224" stroke="white" stroke-width="6.36" stroke-linecap="round" stroke-linejoin="round"/>
<path d="M51.3893 78.4687C53.4499 82.338 58.3174 85.0027 61.6557 83.8711C66.1987 82.3299 66.1865 78.3308 64.6249 73.6626C63.0632 68.9943 58.4188 65.8226 53.8677 67.3436C49.3166 68.8645 49.0773 74.129 51.3893 78.4728V78.4687Z" fill="white"/>
<path d="M61.0956 73.1472C60.9009 71.5248 58.9376 70.2432 57.376 70.519" stroke="black" stroke-width="4.16" stroke-linecap="round" stroke-linejoin="round"/>
<path d="M109.503 143.764C103.698 144.234 90.5031 144.425 78.6142 136.07C66.8267 127.788 57.254 111.767 61.5658 105.286C63.7399 102.013 69.4998 101.104 73.1747 102.921C80.1069 106.348 80.2691 119.794 77.9043 128.286C73.9779 142.393 60.142 153.38 45.5111 154.771C43.6452 154.95 30.434 156.012 21.4332 147.462C20.1433 146.238 14.2009 140.592 15.9491 136.191C17.4094 132.517 23.8426 130.708 28.3126 132.415C35.7436 135.254 37.1633 147.576 38.076 155.517C38.6723 160.709 39.3415 166.525 37.5568 173.688C33.8859 188.426 21.1898 203.429 12.984 201.369C8.10434 200.144 4.40098 192.782 6.16951 188.301C8.38828 182.679 19.113 181.88 25.8829 183.097C41.4062 185.887 54.159 202.512 53.0355 216.89C52.9503 217.969 52.0538 228.036 46.586 229.573C41.8686 230.899 35.1961 225.472 34.5471 220.115C33.6628 212.822 43.8034 204.65 53.1855 202.873C71.5685 199.385 88.1707 220.228 94.3119 233.012C96.4941 237.559 99.9217 244.689 96.6118 248.871C93.9022 252.298 87.2905 252.967 83.9928 250.205C79.6445 246.563 81.7821 237.535 84.4227 232.578C91.2089 219.843 110.918 215.962 125.415 217.916C145.437 220.614 165.093 235.734 163.747 246.551C163.333 249.881 160.818 253.693 157.447 254.675C153.128 255.932 147.108 252.622 145.688 248.485C142.78 240.009 158.113 224.819 173.997 218.131C175.299 217.584 205.023 205.4 219.788 220.496C225.317 226.15 232.362 237.145 227.957 246.506C227.921 246.579 227.848 246.741 227.738 246.977C225.763 251.077 221.167 256.045 216.348 255.964C212.548 255.899 207.988 252.671 206.954 248.485C204.646 239.137 220.048 225.412 236.338 219.636C236.686 219.514 236.995 219.405 237.307 219.304C242.223 217.669 260.529 212.376 276.535 221.571C280.271 223.716 288.27 228.308 289.434 236.618C290.132 241.586 288.468 248.481 283.414 251.02C277.967 253.758 270.053 250.704 266.861 245.861C260.399 236.058 270.045 213.978 286.424 205.234C300.236 197.86 320.46 199.191 325.121 208.243C328.009 213.853 325.368 223.299 319.957 225.485C314.457 227.707 306.949 222.094 303.408 216.627C295.031 203.68 304.357 184.541 310.502 175.999C311.82 174.17 317.02 167.227 326.119 162.862C331.181 160.437 334.162 160.38 335.793 160.498C339.881 160.79 345.816 162.879 347.329 167.162C349.349 172.876 342.972 181.033 336.3 183.738C324.253 188.625 304.9 178.319 299.753 162.887C293.425 143.906 309.861 120.982 321.961 120.73C326.398 120.637 331.303 123.574 332.215 127.204C333.639 132.874 325.522 141.034 316.951 142.466C308.174 143.934 301.189 137.323 296.313 132.793C288.079 125.139 278.762 110.907 283.374 103.822C285.844 100.025 292.212 98.4396 294.695 100.524C297.875 103.193 294.926 112.071 291.973 117.291C286.063 127.731 271.416 138.929 259.981 133.867C252.907 130.736 247.253 121.461 249.577 114.201C251.155 109.277 256.935 104.467 261.381 105.85C264.131 106.705 266.321 109.922 266.338 112.992C266.374 119.765 255.848 125.314 248.117 127.321C237.595 130.055 228.476 127.212 226.907 126.749C214.637 123.136 184.981 124.158 109.498 143.755L109.503 143.764Z" stroke="black" stroke-width="6.36" stroke-miterlimit="10"/>
<path d="M242.008 128.44C242.008 166.752 210.949 197.807 172.634 197.807C134.318 197.807 103.26 166.752 103.26 128.44C103.26 90.1288 134.318 59.0732 172.634 59.0732C210.949 59.0732 242.008 90.1288 242.008 128.44Z" fill="#495CE8"/>
<path d="M170.188 169.902C181.639 168.9 189.298 149.524 187.294 126.625C185.29 103.726 174.383 85.9746 162.933 86.9763C151.482 87.978 143.823 107.353 145.827 130.253C147.831 153.152 158.738 170.903 170.188 169.902Z" fill="white"/>
<path d="M131.854 170.901C139.401 169.57 142.822 153.198 139.496 134.333C136.169 115.468 127.354 101.253 119.806 102.584C112.259 103.914 108.838 120.286 112.164 139.152C115.491 158.017 124.306 172.232 131.854 170.901Z" fill="white"/>
<path d="M133.078 152.374C136.096 151.842 137.248 144.07 135.651 135.014C134.054 125.959 130.313 119.049 127.295 119.581C124.277 120.114 123.125 127.886 124.721 136.941C126.318 145.997 130.059 152.906 133.078 152.374Z" fill="black"/>
<path d="M174.448 149.172C179.027 148.771 181.928 139.165 180.926 127.715C179.924 116.266 175.399 107.309 170.82 107.709C166.241 108.11 163.34 117.716 164.342 129.166C165.344 140.615 169.869 149.572 174.448 149.172Z" fill="black"/>
<path d="M145.514 122.182C145.716 102.965 152.86 87.8612 162.931 86.977C172.374 86.1496 181.448 98.0819 185.464 115.137L145.514 122.182Z" fill="#495CE8" stroke="#495CE8" stroke-width="3.42" stroke-miterlimit="10"/>
<path d="M110.959 128.282C110.363 114.367 113.762 103.651 119.806 102.585C125.849 101.518 132.704 110.42 136.903 123.695L110.959 128.278V128.282Z" fill="#495CE8" stroke="#495CE8" stroke-width="3.42" stroke-miterlimit="10"/>
<path d="M187.11 142.652C185.305 157.939 178.827 169.145 170.192 169.904C161.556 170.658 153.228 160.745 148.799 146.007L187.11 142.656V142.652Z" fill="#495CE8" stroke="#495CE8" stroke-width="3.42" stroke-miterlimit="10"/>
<path d="M140.748 146.708C141.044 159.885 137.677 169.875 131.852 170.901C125.691 171.988 118.686 162.712 114.512 149.004L140.748 146.708Z" fill="#495CE8" stroke="#495CE8" stroke-width="3.42" stroke-miterlimit="10"/>
<path d="M165.479 137.034C168.398 137.034 170.764 134.271 170.764 130.861C170.764 127.452 168.398 124.688 165.479 124.688C162.56 124.688 160.193 127.452 160.193 130.861C160.193 134.271 162.56 137.034 165.479 137.034Z" fill="white"/>
<path d="M122.442 141.508C124.693 141.508 126.518 139.683 126.518 137.432C126.518 135.18 124.693 133.355 122.442 133.355C120.19 133.355 118.365 135.18 118.365 137.432C118.365 139.683 120.19 141.508 122.442 141.508Z" fill="white"/>
<path d="M193.025 128.996C192.976 128.291 193.179 127.593 193.605 127.029C194.882 125.326 197.779 121.517 198.858 120.41C200.001 119.242 202.082 120.41 204.159 119.765C206.236 119.12 213.76 113.531 216.34 111.309C218.92 109.086 225.511 100.703 227.089 99.701C228.667 98.6992 233.754 97.3365 235.546 97.9814C237.339 98.6262 251.528 103.497 256.615 102.139C260.436 101.117 264.78 99.8511 266.711 99.2833C267.343 99.0967 268.029 99.2387 268.54 99.6605L269.947 100.829C270.657 101.417 271.026 102.325 270.921 103.242C270.515 106.778 269.546 115.945 269.659 121.911C269.801 129.434 266.938 184.464 266.938 184.464C266.938 184.464 250.169 205.96 246.012 206.532C241.854 207.104 213.91 197.791 210.755 194.494C207.7 191.302 193.893 141.866 193.025 128.992V128.996Z" fill="black"/>
<path d="M237.229 123.346L245.188 189.01" stroke="white" stroke-width="6.36" stroke-miterlimit="10" stroke-linecap="round"/>
<path d="M178.804 1.65019C175.226 2.9075 171.718 4.47305 168.213 5.88448C154.609 11.3518 141.186 17.2692 127.699 23.0163C125.107 24.1195 122.122 24.8415 120.236 27.0925C118.277 29.4327 117.774 32.8923 118.958 35.6989C121.157 40.8945 129.362 37.4186 132.818 36.1126C151.08 29.2137 169.097 21.463 187.107 13.9272C188.685 13.2621 190.3 12.5726 191.537 11.3923C194.477 8.58567 194.291 4.17292 191.492 1.73536C188.43 -0.929328 183.935 -0.016764 180.435 1.10265C179.891 1.27705 179.348 1.45956 178.804 1.65019Z" fill="#C5D2F8"/>
<path d="M132.498 25.8556L133.224 27.9971L134.81 26.4883L135.564 27.4577L133.82 28.6866L135.694 29.6965L135.001 30.7388L133.342 29.4734L133.074 31.546L131.853 31.3067L132.441 29.2666L130.34 29.6438L130.178 28.423L132.364 28.35L131.354 26.3302L132.498 25.8516V25.8556Z" fill="white"/>
<path d="M144.533 20.8185L145.259 22.96L146.845 21.4512L147.6 22.4206L145.855 23.6495L147.729 24.6594L147.036 25.7017L145.377 24.4363L145.109 26.5089L143.888 26.2696L144.476 24.2295L142.375 24.6067L142.213 23.3859L144.399 23.3128L143.389 21.293L144.533 20.8145V20.8185Z" fill="white"/>
<path d="M156.567 15.7775L157.293 17.919L158.879 16.4102L159.634 17.3795L157.89 18.6085L159.764 19.6184L159.07 20.6607L157.411 19.3953L157.143 21.4678L155.922 21.2285L156.51 19.1885L154.409 19.5656L154.247 18.3448L156.433 18.2718L155.423 16.252L156.567 15.7734V15.7775Z" fill="white"/>
<path d="M168.602 10.7394L169.328 12.8809L170.914 11.3721L171.669 12.3415L169.925 13.5704L171.799 14.5803L171.105 15.6226L169.446 14.3572L169.178 16.4297L167.957 16.1905L168.546 14.1504L166.444 14.5276L166.282 13.3068L168.469 13.2337L167.459 11.2139L168.602 10.7354V10.7394Z" fill="white"/>
<path d="M180.638 5.69839L181.364 7.83987L182.95 6.3311L183.704 7.30045L181.96 8.52937L183.834 9.53927L183.14 10.5816L181.481 9.3162L181.214 11.3887L179.993 11.1494L180.581 9.10935L178.48 9.48654L178.317 8.26574L180.504 8.19273L179.494 6.17293L180.638 5.69434V5.69839Z" fill="white"/>
</g>
<defs>
<clipPath id="clip0_123_699">
<rect width="349" height="258" fill="white"/>
</clipPath>
</defs>
</svg>
