<svg width="314" height="46" viewBox="0 0 314 46" fill="none" xmlns="http://www.w3.org/2000/svg">
<path d="M150.408 18.44L146.632 24.952V29H144.92V24.952L141.16 18.44H143.064L144.952 21.848L145.784 23.416L146.616 21.848L148.488 18.44H150.408ZM154.019 20.84C154.797 20.84 155.485 21.0053 156.083 21.336C156.68 21.6667 157.144 22.1467 157.475 22.776C157.816 23.3947 157.987 24.136 157.987 25C157.987 25.864 157.816 26.6107 157.475 27.24C157.144 27.8587 156.68 28.3333 156.083 28.664C155.485 28.9947 154.797 29.16 154.019 29.16C153.24 29.16 152.552 28.9947 151.955 28.664C151.357 28.3333 150.888 27.8587 150.547 27.24C150.205 26.6107 150.035 25.864 150.035 25C150.035 24.136 150.205 23.3947 150.547 22.776C150.888 22.1467 151.357 21.6667 151.955 21.336C152.552 21.0053 153.24 20.84 154.019 20.84ZM154.019 22.184C153.539 22.184 153.128 22.296 152.787 22.52C152.456 22.7333 152.2 23.048 152.019 23.464C151.837 23.88 151.747 24.392 151.747 25C151.747 25.5973 151.837 26.1093 152.019 26.536C152.2 26.952 152.456 27.272 152.787 27.496C153.128 27.7093 153.539 27.816 154.019 27.816C154.499 27.816 154.904 27.7093 155.235 27.496C155.565 27.272 155.821 26.952 156.003 26.536C156.184 26.1093 156.275 25.5973 156.275 25C156.275 24.392 156.184 23.88 156.003 23.464C155.821 23.048 155.565 22.7333 155.235 22.52C154.904 22.296 154.499 22.184 154.019 22.184ZM162.989 29.16C162.466 29.16 161.981 29.064 161.533 28.872C161.095 28.68 160.743 28.3707 160.477 27.944C160.21 27.5173 160.077 26.9627 160.077 26.28V21H161.789V25.848C161.789 26.5733 161.943 27.0747 162.253 27.352C162.562 27.6187 162.994 27.752 163.549 27.752C163.815 27.752 164.071 27.7093 164.317 27.624C164.573 27.528 164.802 27.384 165.005 27.192C165.207 26.9893 165.362 26.7333 165.469 26.424C165.586 26.1147 165.645 25.752 165.645 25.336V21H167.357V29H165.853L165.773 27.704C165.495 28.2053 165.122 28.5733 164.653 28.808C164.183 29.0427 163.629 29.16 162.989 29.16ZM170.031 29V21H171.487L171.647 22.44C171.86 21.9173 172.175 21.5227 172.591 21.256C173.018 20.9787 173.54 20.84 174.159 20.84C174.319 20.84 174.479 20.856 174.639 20.888C174.799 20.9093 174.932 20.9467 175.039 21L174.799 22.504C174.682 22.4613 174.548 22.4293 174.399 22.408C174.26 22.376 174.068 22.36 173.823 22.36C173.492 22.36 173.167 22.4507 172.847 22.632C172.527 22.8027 172.26 23.064 172.047 23.416C171.844 23.768 171.743 24.216 171.743 24.76V29H170.031ZM184.588 29.16C183.926 29.16 183.324 28.9947 182.78 28.664C182.246 28.3333 181.825 27.8587 181.516 27.24C181.206 26.6213 181.052 25.88 181.052 25.016C181.052 24.12 181.217 23.3627 181.548 22.744C181.878 22.1253 182.321 21.656 182.876 21.336C183.43 21.0053 184.038 20.84 184.7 20.84C185.382 20.84 185.958 21.0267 186.428 21.4C186.897 21.7733 187.212 22.2587 187.372 22.856L187.18 23.032V17.4H188.892V29H187.372L187.244 26.824L187.468 26.84C187.393 27.32 187.217 27.736 186.94 28.088C186.662 28.4293 186.316 28.696 185.9 28.888C185.494 29.0693 185.057 29.16 184.588 29.16ZM184.956 27.784C185.414 27.784 185.809 27.6667 186.14 27.432C186.47 27.1973 186.726 26.8667 186.908 26.44C187.089 26.0133 187.18 25.5013 187.18 24.904C187.18 24.3493 187.089 23.8747 186.908 23.48C186.726 23.0747 186.47 22.7653 186.14 22.552C185.82 22.3387 185.446 22.232 185.02 22.232C184.305 22.232 183.75 22.4773 183.356 22.968C182.961 23.4587 182.764 24.136 182.764 25C182.764 25.864 182.956 26.5467 183.34 27.048C183.724 27.5387 184.262 27.784 184.956 27.784ZM191.547 29V21H193.003L193.163 22.44C193.376 21.9173 193.691 21.5227 194.107 21.256C194.533 20.9787 195.056 20.84 195.675 20.84C195.835 20.84 195.995 20.856 196.155 20.888C196.315 20.9093 196.448 20.9467 196.555 21L196.315 22.504C196.197 22.4613 196.064 22.4293 195.915 22.408C195.776 22.376 195.584 22.36 195.339 22.36C195.008 22.36 194.683 22.4507 194.363 22.632C194.043 22.8027 193.776 23.064 193.563 23.416C193.36 23.768 193.259 24.216 193.259 24.76V29H191.547ZM199.036 19.656C198.662 19.656 198.374 19.5653 198.172 19.384C197.98 19.192 197.884 18.9253 197.884 18.584C197.884 18.2427 197.98 17.9813 198.172 17.8C198.374 17.6187 198.662 17.528 199.036 17.528C199.398 17.528 199.676 17.6187 199.868 17.8C200.07 17.9813 200.172 18.2427 200.172 18.584C200.172 18.9253 200.07 19.192 199.868 19.384C199.676 19.5653 199.398 19.656 199.036 19.656ZM199.884 21V29H198.172V21H199.884ZM207.826 21H209.618L206.434 29H204.562L201.362 21H203.234L205.506 27.512L207.826 21ZM211.942 19.656C211.569 19.656 211.281 19.5653 211.078 19.384C210.886 19.192 210.79 18.9253 210.79 18.584C210.79 18.2427 210.886 17.9813 211.078 17.8C211.281 17.6187 211.569 17.528 211.942 17.528C212.305 17.528 212.582 17.6187 212.774 17.8C212.977 17.9813 213.078 18.2427 213.078 18.584C213.078 18.9253 212.977 19.192 212.774 19.384C212.582 19.5653 212.305 19.656 211.942 19.656ZM212.79 21V29H211.078V21H212.79ZM215.469 29V21H216.989L217.101 23.08L216.877 22.856C217.026 22.3973 217.239 22.0187 217.517 21.72C217.805 21.4107 218.141 21.1867 218.525 21.048C218.919 20.9093 219.335 20.84 219.773 20.84C220.338 20.84 220.845 20.952 221.293 21.176C221.751 21.3893 222.114 21.7147 222.381 22.152C222.647 22.5893 222.781 23.144 222.781 23.816V29H221.069V24.344C221.069 23.5547 220.903 23.0107 220.573 22.712C220.253 22.4027 219.847 22.248 219.357 22.248C219.005 22.248 218.663 22.3333 218.333 22.504C218.002 22.664 217.725 22.9253 217.501 23.288C217.287 23.6507 217.181 24.136 217.181 24.744V29H215.469ZM232.415 19.32L232.687 20.664C232.655 20.664 232.623 20.664 232.591 20.664C232.559 20.6533 232.527 20.648 232.495 20.648C231.983 20.648 231.594 20.76 231.327 20.984C231.06 21.1973 230.927 21.512 230.927 21.928L230.095 21.544C230.095 21.1173 230.186 20.7387 230.367 20.408C230.548 20.0667 230.804 19.8 231.135 19.608C231.476 19.416 231.86 19.32 232.287 19.32C232.308 19.32 232.33 19.32 232.351 19.32C232.372 19.32 232.394 19.32 232.415 19.32ZM229.887 27.752C230.698 27.752 231.327 27.9333 231.775 28.296C232.223 28.648 232.447 29.1387 232.447 29.768C232.447 30.3227 232.271 30.7973 231.919 31.192C231.567 31.5973 231.087 31.9067 230.479 32.12C229.882 32.3333 229.194 32.44 228.415 32.44C227.103 32.44 226.132 32.2373 225.503 31.832C224.874 31.4267 224.559 30.92 224.559 30.312C224.559 29.8853 224.708 29.512 225.007 29.192C225.316 28.872 225.834 28.6907 226.559 28.648L226.463 28.904C226.015 28.808 225.652 28.6373 225.375 28.392C225.108 28.136 224.975 27.7787 224.975 27.32C224.975 26.8613 225.151 26.472 225.503 26.152C225.855 25.832 226.351 25.6453 226.991 25.592L227.887 26.024H227.695C227.204 26.0667 226.858 26.1787 226.655 26.36C226.452 26.5413 226.351 26.744 226.351 26.968C226.351 27.2347 226.447 27.432 226.639 27.56C226.842 27.688 227.124 27.752 227.487 27.752H229.887ZM228.415 31.16C229.002 31.16 229.482 31.1013 229.855 30.984C230.239 30.8773 230.522 30.7333 230.703 30.552C230.895 30.3813 230.991 30.1893 230.991 29.976C230.991 29.7307 230.89 29.5333 230.687 29.384C230.495 29.2347 230.143 29.16 229.631 29.16H227.055C226.756 29.16 226.506 29.2347 226.303 29.384C226.1 29.544 225.999 29.7573 225.999 30.024C225.999 30.376 226.212 30.6533 226.639 30.856C227.066 31.0587 227.658 31.16 228.415 31.16ZM228.351 20.84C229.055 20.84 229.663 20.952 230.175 21.176C230.698 21.4 231.098 21.7147 231.375 22.12C231.663 22.5253 231.807 23 231.807 23.544C231.807 24.088 231.663 24.5627 231.375 24.968C231.098 25.3733 230.698 25.688 230.175 25.912C229.663 26.136 229.055 26.248 228.351 26.248C227.242 26.248 226.388 26.0027 225.791 25.512C225.204 25.0107 224.911 24.3547 224.911 23.544C224.911 23 225.055 22.5253 225.343 22.12C225.631 21.7147 226.031 21.4 226.543 21.176C227.066 20.952 227.668 20.84 228.351 20.84ZM228.351 22.04C227.86 22.04 227.45 22.1787 227.119 22.456C226.799 22.7227 226.639 23.0853 226.639 23.544C226.639 24.0027 226.799 24.3707 227.119 24.648C227.45 24.9253 227.86 25.064 228.351 25.064C228.852 25.064 229.263 24.9253 229.583 24.648C229.914 24.3707 230.079 24.0027 230.079 23.544C230.079 23.0853 229.914 22.7227 229.583 22.456C229.263 22.1787 228.852 22.04 228.351 22.04ZM243.843 23.864C243.843 23.3307 243.693 22.92 243.395 22.632C243.107 22.3333 242.707 22.184 242.195 22.184C241.715 22.184 241.304 22.296 240.963 22.52C240.621 22.744 240.371 23.1067 240.211 23.608L238.771 23C238.973 22.3493 239.368 21.8267 239.955 21.432C240.552 21.0373 241.32 20.84 242.259 20.84C242.899 20.84 243.464 20.9467 243.955 21.16C244.445 21.3627 244.829 21.672 245.107 22.088C245.395 22.504 245.539 23.0373 245.539 23.688V27.256C245.539 27.6507 245.736 27.848 246.131 27.848C246.323 27.848 246.509 27.8213 246.691 27.768L246.595 28.952C246.349 29.0693 246.04 29.128 245.667 29.128C245.325 29.128 245.016 29.0693 244.739 28.952C244.472 28.824 244.259 28.6373 244.099 28.392C243.949 28.136 243.875 27.8213 243.875 27.448V27.336L244.227 27.32C244.131 27.736 243.933 28.0827 243.635 28.36C243.336 28.6267 242.989 28.8293 242.595 28.968C242.2 29.096 241.8 29.16 241.395 29.16C240.893 29.16 240.44 29.08 240.035 28.92C239.64 28.76 239.325 28.52 239.091 28.2C238.867 27.8693 238.755 27.464 238.755 26.984C238.755 26.3867 238.947 25.896 239.331 25.512C239.725 25.128 240.28 24.8667 240.995 24.728L244.099 24.12L244.083 25.32L241.827 25.784C241.379 25.8693 241.043 25.992 240.819 26.152C240.595 26.312 240.483 26.5467 240.483 26.856C240.483 27.1547 240.595 27.3947 240.819 27.576C241.053 27.7467 241.363 27.832 241.747 27.832C242.013 27.832 242.269 27.8 242.515 27.736C242.771 27.672 243 27.5707 243.203 27.432C243.405 27.2827 243.56 27.096 243.667 26.872C243.784 26.6373 243.843 26.36 243.843 26.04V23.864ZM251.384 29.16C250.584 29.16 249.853 29.0053 249.192 28.696C248.53 28.3867 248.008 27.9493 247.624 27.384L248.808 26.36C249.042 26.7973 249.378 27.1493 249.816 27.416C250.264 27.672 250.797 27.8 251.416 27.8C251.906 27.8 252.296 27.7147 252.584 27.544C252.872 27.3733 253.016 27.1333 253.016 26.824C253.016 26.6213 252.946 26.4453 252.808 26.296C252.68 26.136 252.429 26.0133 252.056 25.928L250.376 25.576C249.522 25.4053 248.914 25.1333 248.552 24.76C248.189 24.376 248.008 23.8907 248.008 23.304C248.008 22.8667 248.136 22.4613 248.392 22.088C248.648 21.7147 249.021 21.416 249.512 21.192C250.013 20.9573 250.61 20.84 251.304 20.84C252.104 20.84 252.786 20.984 253.352 21.272C253.917 21.5493 254.349 21.9493 254.648 22.472L253.464 23.464C253.261 23.0373 252.962 22.7227 252.568 22.52C252.173 22.3067 251.762 22.2 251.336 22.2C250.994 22.2 250.701 22.2427 250.456 22.328C250.21 22.4133 250.024 22.5307 249.896 22.68C249.768 22.8293 249.704 23.0053 249.704 23.208C249.704 23.4213 249.784 23.608 249.944 23.768C250.104 23.928 250.392 24.0507 250.808 24.136L252.632 24.52C253.4 24.6693 253.938 24.9253 254.248 25.288C254.568 25.64 254.728 26.072 254.728 26.584C254.728 27.096 254.594 27.5493 254.328 27.944C254.061 28.328 253.677 28.6267 253.176 28.84C252.674 29.0533 252.077 29.16 251.384 29.16ZM259.852 29.16C259.052 29.16 258.322 29.0053 257.66 28.696C256.999 28.3867 256.476 27.9493 256.092 27.384L257.276 26.36C257.511 26.7973 257.847 27.1493 258.284 27.416C258.732 27.672 259.266 27.8 259.884 27.8C260.375 27.8 260.764 27.7147 261.052 27.544C261.34 27.3733 261.484 27.1333 261.484 26.824C261.484 26.6213 261.415 26.4453 261.276 26.296C261.148 26.136 260.898 26.0133 260.524 25.928L258.844 25.576C257.991 25.4053 257.383 25.1333 257.02 24.76C256.658 24.376 256.476 23.8907 256.476 23.304C256.476 22.8667 256.604 22.4613 256.86 22.088C257.116 21.7147 257.49 21.416 257.98 21.192C258.482 20.9573 259.079 20.84 259.772 20.84C260.572 20.84 261.255 20.984 261.82 21.272C262.386 21.5493 262.818 21.9493 263.116 22.472L261.932 23.464C261.73 23.0373 261.431 22.7227 261.036 22.52C260.642 22.3067 260.231 22.2 259.804 22.2C259.463 22.2 259.17 22.2427 258.924 22.328C258.679 22.4133 258.492 22.5307 258.364 22.68C258.236 22.8293 258.172 23.0053 258.172 23.208C258.172 23.4213 258.252 23.608 258.412 23.768C258.572 23.928 258.86 24.0507 259.276 24.136L261.1 24.52C261.868 24.6693 262.407 24.9253 262.716 25.288C263.036 25.64 263.196 26.072 263.196 26.584C263.196 27.096 263.063 27.5493 262.796 27.944C262.53 28.328 262.146 28.6267 261.644 28.84C261.143 29.0533 260.546 29.16 259.852 29.16ZM266.145 19.656C265.772 19.656 265.484 19.5653 265.281 19.384C265.089 19.192 264.993 18.9253 264.993 18.584C264.993 18.2427 265.089 17.9813 265.281 17.8C265.484 17.6187 265.772 17.528 266.145 17.528C266.508 17.528 266.785 17.6187 266.977 17.8C267.18 17.9813 267.281 18.2427 267.281 18.584C267.281 18.9253 267.18 19.192 266.977 19.384C266.785 19.5653 266.508 19.656 266.145 19.656ZM266.993 21V29H265.281V21H266.993ZM272.712 29.16C271.912 29.16 271.181 29.0053 270.52 28.696C269.858 28.3867 269.336 27.9493 268.952 27.384L270.136 26.36C270.37 26.7973 270.706 27.1493 271.144 27.416C271.592 27.672 272.125 27.8 272.744 27.8C273.234 27.8 273.624 27.7147 273.912 27.544C274.2 27.3733 274.344 27.1333 274.344 26.824C274.344 26.6213 274.274 26.4453 274.136 26.296C274.008 26.136 273.757 26.0133 273.384 25.928L271.704 25.576C270.85 25.4053 270.242 25.1333 269.88 24.76C269.517 24.376 269.336 23.8907 269.336 23.304C269.336 22.8667 269.464 22.4613 269.72 22.088C269.976 21.7147 270.349 21.416 270.84 21.192C271.341 20.9573 271.938 20.84 272.632 20.84C273.432 20.84 274.114 20.984 274.68 21.272C275.245 21.5493 275.677 21.9493 275.976 22.472L274.792 23.464C274.589 23.0373 274.29 22.7227 273.896 22.52C273.501 22.3067 273.09 22.2 272.664 22.2C272.322 22.2 272.029 22.2427 271.784 22.328C271.538 22.4133 271.352 22.5307 271.224 22.68C271.096 22.8293 271.032 23.0053 271.032 23.208C271.032 23.4213 271.112 23.608 271.272 23.768C271.432 23.928 271.72 24.0507 272.136 24.136L273.96 24.52C274.728 24.6693 275.266 24.9253 275.576 25.288C275.896 25.64 276.056 26.072 276.056 26.584C276.056 27.096 275.922 27.5493 275.656 27.944C275.389 28.328 275.005 28.6267 274.504 28.84C274.002 29.0533 273.405 29.16 272.712 29.16ZM280.477 18.648V26.6C280.477 26.9947 280.578 27.2827 280.781 27.464C280.994 27.6453 281.277 27.736 281.629 27.736C281.917 27.736 282.167 27.6933 282.381 27.608C282.594 27.512 282.791 27.384 282.973 27.224L283.357 28.472C283.111 28.6853 282.807 28.856 282.445 28.984C282.093 29.1013 281.698 29.16 281.261 29.16C280.802 29.16 280.381 29.0853 279.997 28.936C279.613 28.7867 279.314 28.5467 279.101 28.216C278.887 27.8747 278.775 27.432 278.765 26.888V19.128L280.477 18.648ZM283.229 21V22.344H277.229V21H283.229ZM289.593 23.864C289.593 23.3307 289.443 22.92 289.145 22.632C288.857 22.3333 288.457 22.184 287.945 22.184C287.465 22.184 287.054 22.296 286.713 22.52C286.371 22.744 286.121 23.1067 285.961 23.608L284.521 23C284.723 22.3493 285.118 21.8267 285.705 21.432C286.302 21.0373 287.07 20.84 288.009 20.84C288.649 20.84 289.214 20.9467 289.705 21.16C290.195 21.3627 290.579 21.672 290.857 22.088C291.145 22.504 291.289 23.0373 291.289 23.688V27.256C291.289 27.6507 291.486 27.848 291.881 27.848C292.073 27.848 292.259 27.8213 292.441 27.768L292.345 28.952C292.099 29.0693 291.79 29.128 291.417 29.128C291.075 29.128 290.766 29.0693 290.489 28.952C290.222 28.824 290.009 28.6373 289.849 28.392C289.699 28.136 289.625 27.8213 289.625 27.448V27.336L289.977 27.32C289.881 27.736 289.683 28.0827 289.385 28.36C289.086 28.6267 288.739 28.8293 288.345 28.968C287.95 29.096 287.55 29.16 287.145 29.16C286.643 29.16 286.19 29.08 285.785 28.92C285.39 28.76 285.075 28.52 284.841 28.2C284.617 27.8693 284.505 27.464 284.505 26.984C284.505 26.3867 284.697 25.896 285.081 25.512C285.475 25.128 286.03 24.8667 286.745 24.728L289.849 24.12L289.833 25.32L287.577 25.784C287.129 25.8693 286.793 25.992 286.569 26.152C286.345 26.312 286.233 26.5467 286.233 26.856C286.233 27.1547 286.345 27.3947 286.569 27.576C286.803 27.7467 287.113 27.832 287.497 27.832C287.763 27.832 288.019 27.8 288.265 27.736C288.521 27.672 288.75 27.5707 288.953 27.432C289.155 27.2827 289.31 27.096 289.417 26.872C289.534 26.6373 289.593 26.36 289.593 26.04V23.864ZM294.094 29V21H295.614L295.726 23.08L295.502 22.856C295.651 22.3973 295.864 22.0187 296.142 21.72C296.43 21.4107 296.766 21.1867 297.15 21.048C297.544 20.9093 297.96 20.84 298.398 20.84C298.963 20.84 299.47 20.952 299.918 21.176C300.376 21.3893 300.739 21.7147 301.006 22.152C301.272 22.5893 301.406 23.144 301.406 23.816V29H299.694V24.344C299.694 23.5547 299.528 23.0107 299.198 22.712C298.878 22.4027 298.472 22.248 297.982 22.248C297.63 22.248 297.288 22.3333 296.958 22.504C296.627 22.664 296.35 22.9253 296.126 23.288C295.912 23.6507 295.806 24.136 295.806 24.744V29H294.094ZM306.242 18.648V26.6C306.242 26.9947 306.343 27.2827 306.546 27.464C306.759 27.6453 307.042 27.736 307.394 27.736C307.682 27.736 307.933 27.6933 308.146 27.608C308.359 27.512 308.557 27.384 308.738 27.224L309.122 28.472C308.877 28.6853 308.573 28.856 308.21 28.984C307.858 29.1013 307.463 29.16 307.026 29.16C306.567 29.16 306.146 29.0853 305.762 28.936C305.378 28.7867 305.079 28.5467 304.866 28.216C304.653 27.8747 304.541 27.432 304.53 26.888V19.128L306.242 18.648ZM308.994 21V22.344H302.994V21H308.994ZM312.495 18.44V22.664L312.271 25.64H310.927L310.703 22.664V18.44H312.495ZM311.599 26.888C311.962 26.888 312.25 26.9947 312.463 27.208C312.687 27.4107 312.799 27.6827 312.799 28.024C312.799 28.3653 312.687 28.6373 312.463 28.84C312.25 29.0427 311.962 29.144 311.599 29.144C311.247 29.144 310.959 29.0427 310.735 28.84C310.522 28.6373 310.415 28.3653 310.415 28.024C310.415 27.6827 310.522 27.4107 310.735 27.208C310.959 26.9947 311.247 26.888 311.599 26.888Z" fill="#374FC4"/>
<line x1="125.5" y1="12" x2="125.5" y2="34" stroke="#374FC4" stroke-opacity="0.3"/>
<g clip-path="url(#clip0_129_694)">
<path d="M23.1915 46C35.9998 46 46.383 35.7025 46.383 23C46.383 10.2975 35.9998 0 23.1915 0C10.3832 0 0 10.2975 0 23C0 35.7025 10.3832 46 23.1915 46Z" fill="#495CE8"/>
<path d="M22.379 36.7491C26.2068 36.4169 28.767 29.9927 28.0972 22.4002C27.4274 14.8077 23.7813 8.92196 19.9534 9.25409C16.1256 9.58622 13.5654 16.0104 14.2352 23.603C14.905 31.1955 18.5511 37.0812 22.379 36.7491Z" fill="white"/>
<path d="M9.56179 37.0784C12.0845 36.6372 13.2281 31.2091 12.116 24.9543C11.004 18.6995 8.05737 13.9866 5.53463 14.4278C3.01188 14.8689 1.86831 20.2971 2.98038 26.5519C4.09245 32.8066 7.03904 37.5195 9.56179 37.0784Z" fill="white"/>
<path d="M9.97013 30.9326C10.9792 30.7562 11.3645 28.1793 10.8307 25.177C10.297 22.1747 9.04619 19.8839 8.03709 20.0604C7.028 20.2368 6.64269 22.8137 7.17648 25.816C7.71027 28.8183 8.96103 31.1091 9.97013 30.9326Z" fill="black"/>
<path d="M23.7967 29.8751C25.3278 29.7422 26.2976 26.5571 25.9627 22.7608C25.6278 18.9645 24.1151 15.9948 22.5839 16.1276C21.0528 16.2605 20.083 19.4456 20.4179 23.2419C20.7528 27.0382 22.2655 30.008 23.7967 29.8751Z" fill="black"/>
<path d="M62.6499 32.7885C59.7556 32.7885 57.4782 31.9375 55.8223 30.2309C54.1664 28.5243 53.3408 26.1231 53.3408 23.0181C53.3408 19.9131 54.1664 17.5073 55.8223 15.7869C57.4782 14.0711 59.7417 13.2109 62.6128 13.2109C64.9134 13.2109 66.7455 13.7215 68.0999 14.7473C69.4589 15.7731 70.1361 17.3233 70.1361 19.4025C70.1361 19.8119 70.1083 20.2305 70.0572 20.6537C70.0062 21.0769 69.9135 21.4311 69.7836 21.7117L64.9737 21.7485C65.1035 21.3621 65.1685 20.8883 65.1685 20.3271C65.1685 18.7125 64.2872 17.9029 62.5293 17.9029C60.2009 17.9029 59.0366 19.5589 59.0366 22.8663C59.0366 24.5821 59.3938 25.8839 60.1035 26.7717C60.8131 27.6549 61.8289 28.0965 63.1462 28.0965C64.2315 28.0965 65.0664 27.8849 65.6462 27.4617C66.2306 27.0385 66.7362 26.5187 67.1769 25.9023L70.433 28.8233C69.7604 29.9779 68.7632 30.9255 67.4459 31.6707C66.1286 32.4159 64.5238 32.7839 62.636 32.7839L62.6499 32.7885Z" fill="black"/>
<path d="M89.7611 28.8236C88.9076 30.1852 87.7573 31.1972 86.3102 31.8642C84.863 32.5312 83.1932 32.8394 81.3054 32.7888C78.5642 32.7382 76.4028 31.9148 74.8304 30.3278C73.2534 28.7362 72.4648 26.4684 72.4648 23.5198C72.4648 21.9282 72.7014 20.5022 73.1838 19.2326C73.6615 17.963 74.3294 16.8866 75.1829 16.0034C76.0363 15.1202 77.0521 14.4348 78.2303 13.9472C79.4084 13.4596 80.6932 13.2158 82.0893 13.2158C84.2879 13.2158 86.018 13.7264 87.2888 14.7522C88.5551 15.778 89.1905 17.227 89.1905 19.0992C89.1905 20.2032 88.9169 21.1462 88.3742 21.9282C87.8315 22.7102 87.0755 23.345 86.1061 23.8326C85.1367 24.3202 84.0003 24.6836 82.6923 24.9274C81.3843 25.1712 79.9557 25.3184 78.4065 25.369C78.8703 27.2688 80.1366 28.2164 82.2099 28.2164C83.1932 28.2164 84.0235 28.0324 84.71 27.6598C85.3964 27.2872 85.9948 26.7536 86.5143 26.0636L89.7703 28.8328L89.7611 28.8236ZM82.0058 17.7468C80.9437 17.7468 80.0856 18.1102 79.4269 18.8416C78.7683 19.573 78.374 20.631 78.2442 22.0156C79.9511 21.965 81.3286 21.7534 82.3769 21.3808C83.4251 21.0082 83.9493 20.3734 83.9493 19.4764C83.9493 18.3218 83.2999 17.7468 82.0105 17.7468H82.0058Z" fill="black"/>
<path d="M109 28.8236C108.147 30.1852 106.997 31.1972 105.549 31.8642C104.102 32.5312 102.432 32.8394 100.545 32.7888C97.8035 32.7382 95.642 31.9148 94.0696 30.3278C92.4926 28.7362 91.7041 26.4684 91.7041 23.5198C91.7041 21.9282 91.9406 20.5022 92.423 19.2326C92.9008 17.963 93.5687 16.8866 94.4221 16.0034C95.2756 15.1202 96.2914 14.4348 97.4695 13.9472C98.6476 13.4596 99.9324 13.2158 101.329 13.2158C103.527 13.2158 105.257 13.7264 106.528 14.7522C107.794 15.778 108.43 17.227 108.43 19.0992C108.43 20.2032 108.156 21.1462 107.613 21.9282C107.071 22.7102 106.315 23.345 105.345 23.8326C104.376 24.3202 103.24 24.6836 101.932 24.9274C100.624 25.1712 99.195 25.3184 97.6458 25.369C98.1096 27.2688 99.3758 28.2164 101.449 28.2164C102.432 28.2164 103.263 28.0324 103.949 27.6598C104.636 27.2872 105.234 26.7536 105.754 26.0636L109.01 28.8328L109 28.8236ZM101.245 17.7468C100.183 17.7468 99.3248 18.1102 98.6662 18.8416C98.0075 19.573 97.6133 20.631 97.4834 22.0156C99.1903 21.965 100.568 21.7534 101.616 21.3808C102.664 21.0082 103.189 20.3734 103.189 19.4764C103.189 18.3218 102.539 17.7468 101.25 17.7468H101.245Z" fill="black"/>
</g>
<defs>
<clipPath id="clip0_129_694">
<rect width="109" height="46" fill="white"/>
</clipPath>
</defs>
</svg>
