<svg width="492" height="220" viewBox="0 0 492 220" fill="none" xmlns="http://www.w3.org/2000/svg">
<line x1="246.5" y1="57" x2="246.5" y2="211" stroke="#374FC4" stroke-opacity="0.3"/>
<path d="M364.39 8.49958L366.772 4.35119C366.906 4.12108 366.823 3.82065 366.594 3.68642C366.364 3.55219 366.065 3.62889 365.938 3.8654L363.524 8.06493C361.683 7.22119 359.606 6.74818 357.37 6.74818C355.134 6.74818 353.064 7.22119 351.217 8.06493L348.809 3.8654C348.676 3.63529 348.382 3.55219 348.147 3.68642C347.917 3.82065 347.835 4.11468 347.968 4.35119L350.351 8.49958C346.249 10.7368 343.459 14.9107 343 19.8006H371.753C371.295 14.9107 368.505 10.7304 364.39 8.49319V8.49958ZM350.771 15.7545C350.102 15.7545 349.567 15.2112 349.567 14.5464C349.567 13.8816 350.109 13.3383 350.771 13.3383C351.434 13.3383 351.975 13.8816 351.975 14.5464C351.975 15.2112 351.434 15.7545 350.771 15.7545ZM363.969 15.7545C363.301 15.7545 362.766 15.2112 362.766 14.5464C362.766 13.8816 363.307 13.3383 363.969 13.3383C364.632 13.3383 365.173 13.8816 365.173 14.5464C365.173 15.2112 364.632 15.7545 363.969 15.7545Z" fill="#3DDB84"/>
<path fill-rule="evenodd" clip-rule="evenodd" d="M450.245 22.1212H452.034V10.2246H450.245V22.1212ZM466.354 14.5099L464.304 19.6678H464.242L462.114 14.5099H460.188L463.379 21.7186L461.56 25.7289H463.426L468.342 14.5099H466.354ZM456.211 20.7698C455.625 20.7698 454.808 20.4796 454.808 19.7601C454.808 18.8418 455.826 18.4897 456.704 18.4897C457.491 18.4897 457.86 18.6581 458.338 18.8875C458.199 19.9895 457.244 20.7698 456.211 20.7698ZM456.427 14.2501C455.132 14.2501 453.791 14.8163 453.236 16.0715L454.824 16.7291C455.163 16.0715 455.794 15.8565 456.458 15.8565C457.383 15.8565 458.323 16.4075 458.338 17.3877V17.5095C458.014 17.3258 457.321 17.0508 456.473 17.0508C454.762 17.0508 453.02 17.9844 453.02 19.7287C453.02 21.3209 454.423 22.3467 455.995 22.3467C457.198 22.3467 457.86 21.811 458.277 21.1829H458.338V22.1012H460.064V17.5409C460.064 15.4282 458.477 14.2501 456.427 14.2501ZM445.374 15.9583H442.831V11.8805H445.374C446.711 11.8805 447.47 12.9796 447.47 13.9189C447.47 14.841 446.711 15.9583 445.374 15.9583ZM445.328 10.2246H441.043V22.1212H442.831V17.6142H445.328C447.31 17.6142 449.259 16.1886 449.259 13.9189C449.259 11.6492 447.31 10.2246 445.328 10.2246ZM421.96 20.7718C420.725 20.7718 419.691 19.7449 419.691 18.3346C419.691 16.909 420.725 15.866 421.96 15.866C423.181 15.866 424.137 16.909 424.137 18.3346C424.137 19.7449 423.181 20.7718 421.96 20.7718ZM424.013 15.176H423.952C423.55 14.7012 422.779 14.272 421.806 14.272C419.768 14.272 417.9 16.0497 417.9 18.3346C417.9 20.6033 419.768 22.3667 421.806 22.3667C422.779 22.3667 423.55 21.9375 423.952 21.4465H424.013V22.0289C424.013 23.5782 423.181 24.4061 421.837 24.4061C420.74 24.4061 420.061 23.6239 419.783 22.9644L418.223 23.6086C418.671 24.6821 419.86 26.0001 421.837 26.0001C423.937 26.0001 425.713 24.7735 425.713 21.7843V14.5165H424.013V15.176ZM426.948 22.1212H428.74V10.2236H426.948V22.1212ZM431.379 18.1966C431.333 16.633 432.599 15.8355 433.51 15.8355C434.221 15.8355 434.823 16.1876 435.023 16.6939L431.379 18.1966ZM436.938 16.8471C436.599 15.9431 435.564 14.272 433.448 14.272C431.348 14.272 429.604 15.9117 429.604 18.3193C429.604 20.5881 431.333 22.3667 433.649 22.3667C435.518 22.3667 436.599 21.2324 437.046 20.5729L435.657 19.6526C435.194 20.3273 434.56 20.7718 433.649 20.7718C432.738 20.7718 432.089 20.3578 431.672 19.546L437.123 17.3077L436.938 16.8471ZM393.513 15.5139V17.2307H397.65C397.527 18.1966 397.203 18.9018 396.709 19.3928C396.106 19.9904 395.164 20.649 393.513 20.649C390.965 20.649 388.973 18.6105 388.973 16.0811C388.973 13.5506 390.965 11.5122 393.513 11.5122C394.887 11.5122 395.891 12.0489 396.632 12.7388L397.852 11.5274C396.817 10.5462 395.443 9.79443 393.513 9.79443C390.023 9.79443 387.089 12.6161 387.089 16.0811C387.089 19.546 390.023 22.3667 393.513 22.3667C395.396 22.3667 396.817 21.7539 397.928 20.6033C399.071 19.4689 399.426 17.8749 399.426 16.5864C399.426 16.1876 399.396 15.8203 399.333 15.5139H393.513ZM404.131 20.7718C402.896 20.7718 401.83 19.7601 401.83 18.3193C401.83 16.8624 402.896 15.866 404.131 15.866C405.366 15.866 406.432 16.8624 406.432 18.3193C406.432 19.7601 405.366 20.7718 404.131 20.7718ZM404.131 14.272C401.876 14.272 400.039 15.9735 400.039 18.3193C400.039 20.649 401.876 22.3667 404.131 22.3667C406.386 22.3667 408.223 20.649 408.223 18.3193C408.223 15.9735 406.386 14.272 404.131 14.272ZM413.057 20.7718C411.822 20.7718 410.756 19.7601 410.756 18.3193C410.756 16.8624 411.822 15.866 413.057 15.866C414.293 15.866 415.358 16.8624 415.358 18.3193C415.358 19.7601 414.293 20.7718 413.057 20.7718ZM413.057 14.272C410.803 14.272 408.966 15.9735 408.966 18.3193C408.966 20.649 410.803 22.3667 413.057 22.3667C415.312 22.3667 417.149 20.649 417.149 18.3193C417.149 15.9735 415.312 14.272 413.057 14.272Z" fill="black"/>
<path d="M392.651 3.39437V5.80343C392.57 5.92395 392.44 6.05955 392.262 6.21021C392.085 6.35785 391.839 6.48742 391.526 6.59891C391.215 6.70739 390.815 6.76162 390.323 6.76162C389.923 6.76162 389.554 6.69232 389.216 6.55371C388.882 6.41209 388.591 6.20719 388.344 5.93902C388.1 5.66783 387.91 5.33939 387.774 4.9537C387.642 4.565 387.575 4.12507 387.575 3.63392V3.12318C387.575 2.63203 387.633 2.19361 387.747 1.80792C387.865 1.42223 388.036 1.0953 388.262 0.827124C388.488 0.555936 388.766 0.351038 389.094 0.212431C389.423 0.0708102 389.799 0 390.224 0C390.727 0 391.148 0.0873828 391.485 0.262149C391.826 0.433901 392.091 0.671944 392.281 0.976277C392.473 1.28061 392.597 1.62713 392.651 2.01583H391.779C391.74 1.77779 391.661 1.56084 391.544 1.36498C391.429 1.16912 391.265 1.01244 391.051 0.894921C390.837 0.774393 390.562 0.714129 390.224 0.714129C389.92 0.714129 389.656 0.769873 389.433 0.881361C389.21 0.99285 389.026 1.15255 388.882 1.36046C388.737 1.56837 388.629 1.81997 388.556 2.11527C388.487 2.41056 388.452 2.74352 388.452 3.11414V3.63392C388.452 4.01358 388.496 4.35257 388.583 4.65088C388.674 4.94918 388.802 5.2038 388.968 5.41472C389.133 5.62263 389.331 5.78083 389.56 5.8893C389.792 5.99778 390.048 6.05201 390.328 6.05201C390.638 6.05201 390.89 6.0264 391.083 5.97518C391.276 5.92094 391.426 5.85766 391.535 5.78535C391.643 5.71002 391.726 5.63921 391.783 5.57292V4.09946H390.26V3.39437H392.651Z" fill="black"/>
<path d="M398.001 5.96162V6.67123H394.516V5.96162H398.001ZM394.692 0.090396V6.67123H393.82V0.090396H394.692ZM397.54 2.91979V3.6294H394.516V2.91979H397.54ZM397.955 0.090396V0.804525H394.516V0.090396H397.955Z" fill="black"/>
<path d="M401.325 0.090396V6.67123H400.466V0.090396H401.325ZM403.44 0.090396V0.804525H398.356V0.090396H403.44Z" fill="black"/>
<path d="M406.912 0.090396V6.67123H406.04V0.090396H406.912Z" fill="black"/>
<path d="M410.517 0.090396V6.67123H409.658V0.090396H410.517ZM412.632 0.090396V0.804525H407.548V0.090396H412.632Z" fill="black"/>
<path d="M420.235 3.1729V3.58872C420.235 4.08289 420.173 4.52583 420.05 4.91754C419.926 5.30926 419.749 5.64222 419.517 5.91642C419.285 6.19062 419.006 6.40004 418.68 6.54467C418.358 6.68931 417.996 6.76162 417.596 6.76162C417.207 6.76162 416.85 6.68931 416.524 6.54467C416.202 6.40004 415.922 6.19062 415.684 5.91642C415.449 5.64222 415.266 5.30926 415.137 4.91754C415.007 4.52583 414.942 4.08289 414.942 3.58872V3.1729C414.942 2.67874 415.006 2.2373 415.132 1.8486C415.262 1.45688 415.444 1.12392 415.679 0.849723C415.914 0.572508 416.193 0.361584 416.515 0.21695C416.841 0.0723168 417.198 0 417.587 0C417.987 0 418.349 0.0723168 418.671 0.21695C418.997 0.361584 419.275 0.572508 419.507 0.849723C419.743 1.12392 419.922 1.45688 420.045 1.8486C420.172 2.2373 420.235 2.67874 420.235 3.1729ZM419.372 3.58872V3.16386C419.372 2.77215 419.331 2.42563 419.25 2.12431C419.172 1.82299 419.055 1.56988 418.902 1.36498C418.748 1.16008 418.56 1.0049 418.337 0.899441C418.117 0.793979 417.867 0.741248 417.587 0.741248C417.315 0.741248 417.07 0.793979 416.85 0.899441C416.633 1.0049 416.446 1.16008 416.289 1.36498C416.136 1.56988 416.017 1.82299 415.932 2.12431C415.848 2.42563 415.806 2.77215 415.806 3.16386V3.58872C415.806 3.98345 415.848 4.33298 415.932 4.63732C416.017 4.93864 416.137 5.19325 416.294 5.40116C416.454 5.60606 416.642 5.76124 416.859 5.8667C417.079 5.97216 417.324 6.0249 417.596 6.0249C417.879 6.0249 418.13 5.97216 418.35 5.8667C418.57 5.76124 418.756 5.60606 418.906 5.40116C419.06 5.19325 419.176 4.93864 419.254 4.63732C419.333 4.33298 419.372 3.98345 419.372 3.58872Z" fill="black"/>
<path d="M426.326 0.090396V6.67123H425.449L422.136 1.59549V6.67123H421.264V0.090396H422.136L425.463 5.17969V0.090396H426.326Z" fill="black"/>
<path d="M366.908 48H361.696V53.2121H366.908V48Z" fill="#171729"/>
<path d="M382.546 48H377.334V53.2121H382.546V48Z" fill="#171729"/>
<path d="M387.759 48H382.547V53.2121H387.759V48Z" fill="#171729"/>
<path d="M392.969 48H387.757V53.2121H392.969V48Z" fill="#171729"/>
<path d="M403.396 48H398.184V53.2121H403.396V48Z" fill="#171729"/>
<path d="M419.03 48H413.817V53.2121H419.03V48Z" fill="#171729"/>
<path d="M445.091 48H439.879V53.2121H445.091V48Z" fill="#171729"/>
<path d="M372.123 53.2124H366.91V58.4245H372.123V53.2124Z" fill="#171729"/>
<path d="M377.333 53.2119H372.121V58.424H377.333V53.2119Z" fill="#171729"/>
<path d="M382.546 53.2119H377.334V58.424H382.546V53.2119Z" fill="#171729"/>
<path d="M387.759 53.2119H382.547V58.424H387.759V53.2119Z" fill="#171729"/>
<path d="M392.969 53.2119H387.757V58.424H392.969V53.2119Z" fill="#171729"/>
<path d="M398.182 53.2119H392.969V58.424H398.182V53.2119Z" fill="#171729"/>
<path d="M419.03 53.2119H413.817V58.424H419.03V53.2119Z" fill="#171729"/>
<path d="M424.243 53.2119H419.031V58.424H424.243V53.2119Z" fill="#171729"/>
<path d="M377.333 58.4243H372.121V63.6364H377.333V58.4243Z" fill="#171729"/>
<path d="M387.759 58.4243H382.547V63.6364H387.759V58.4243Z" fill="#171729"/>
<path d="M398.182 58.4243H392.969V63.6364H398.182V58.4243Z" fill="#171729"/>
<path d="M403.396 58.4243H398.184V63.6364H403.396V58.4243Z" fill="#171729"/>
<path d="M408.606 58.4243H403.394V63.6364H408.606V58.4243Z" fill="#171729"/>
<path d="M413.818 58.4243H408.606V63.6364H413.818V58.4243Z" fill="#171729"/>
<path d="M419.03 58.4243H413.817V63.6364H419.03V58.4243Z" fill="#171729"/>
<path d="M424.243 58.4243H419.031V63.6364H424.243V58.4243Z" fill="#171729"/>
<path d="M434.665 58.4243H429.453V63.6364H434.665V58.4243Z" fill="#171729"/>
<path d="M445.091 58.4243H439.879V63.6364H445.091V58.4243Z" fill="#171729"/>
<path d="M366.908 63.6362H361.696V68.8484H366.908V63.6362Z" fill="#171729"/>
<path d="M372.123 63.6362H366.91V68.8484H372.123V63.6362Z" fill="#171729"/>
<path d="M382.546 63.6362H377.334V68.8484H382.546V63.6362Z" fill="#171729"/>
<path d="M387.759 63.6362H382.547V68.8484H387.759V63.6362Z" fill="#171729"/>
<path d="M408.606 63.6362H403.394V68.8484H408.606V63.6362Z" fill="#171729"/>
<path d="M413.818 63.6362H408.606V68.8484H413.818V63.6362Z" fill="#171729"/>
<path d="M434.665 63.6362H429.453V68.8484H434.665V63.6362Z" fill="#171729"/>
<path d="M439.878 63.6362H434.666V68.8484H439.878V63.6362Z" fill="#171729"/>
<path d="M366.908 68.8486H361.696V74.0608H366.908V68.8486Z" fill="#171729"/>
<path d="M372.123 68.8486H366.91V74.0608H372.123V68.8486Z" fill="#171729"/>
<path d="M408.606 68.8486H403.394V74.0608H408.606V68.8486Z" fill="#171729"/>
<path d="M413.818 68.8486H408.606V74.0608H413.818V68.8486Z" fill="#171729"/>
<path d="M424.243 68.8486H419.031V74.0608H424.243V68.8486Z" fill="#171729"/>
<path d="M434.665 68.8486H429.453V74.0608H434.665V68.8486Z" fill="#171729"/>
<path d="M439.878 68.8486H434.666V74.0608H439.878V68.8486Z" fill="#171729"/>
<path d="M366.908 74.0605H361.696V79.2727H366.908V74.0605Z" fill="#171729"/>
<path d="M372.123 74.0605H366.91V79.2727H372.123V74.0605Z" fill="#171729"/>
<path d="M377.333 74.0605H372.121V79.2727H377.333V74.0605Z" fill="#171729"/>
<path d="M387.759 74.0605H382.547V79.2727H387.759V74.0605Z" fill="#171729"/>
<path d="M403.396 74.0605H398.184V79.2727H403.396V74.0605Z" fill="#171729"/>
<path d="M413.818 74.0605H408.606V79.2727H413.818V74.0605Z" fill="#171729"/>
<path d="M429.455 74.0605H424.243V79.2727H429.455V74.0605Z" fill="#171729"/>
<path d="M434.665 74.0605H429.453V79.2727H434.665V74.0605Z" fill="#171729"/>
<path d="M439.878 74.0605H434.666V79.2727H439.878V74.0605Z" fill="#171729"/>
<path d="M445.091 74.0605H439.879V79.2727H445.091V74.0605Z" fill="#171729"/>
<path d="M450.302 74.0605H445.09V79.2727H450.302V74.0605Z" fill="#171729"/>
<path d="M366.908 79.2729H361.696V84.4851H366.908V79.2729Z" fill="#171729"/>
<path d="M377.333 79.2729H372.121V84.4851H377.333V79.2729Z" fill="#171729"/>
<path d="M387.759 79.2729H382.547V84.4851H387.759V79.2729Z" fill="#171729"/>
<path d="M398.182 79.2729H392.969V84.4851H398.182V79.2729Z" fill="#171729"/>
<path d="M408.606 79.2729H403.394V84.4851H408.606V79.2729Z" fill="#171729"/>
<path d="M419.03 79.2729H413.817V84.4851H419.03V79.2729Z" fill="#171729"/>
<path d="M429.455 79.2729H424.243V84.4851H429.455V79.2729Z" fill="#171729"/>
<path d="M439.878 79.2729H434.666V84.4851H439.878V79.2729Z" fill="#171729"/>
<path d="M450.302 79.2729H445.09V84.4851H450.302V79.2729Z" fill="#171729"/>
<path d="M366.908 84.4849H361.696V89.697H366.908V84.4849Z" fill="#171729"/>
<path d="M382.546 84.4849H377.334V89.697H382.546V84.4849Z" fill="#171729"/>
<path d="M398.182 84.4849H392.969V89.697H398.182V84.4849Z" fill="#171729"/>
<path d="M413.818 84.4849H408.606V89.697H413.818V84.4849Z" fill="#171729"/>
<path d="M419.03 84.4849H413.817V89.697H419.03V84.4849Z" fill="#171729"/>
<path d="M424.243 84.4849H419.031V89.697H424.243V84.4849Z" fill="#171729"/>
<path d="M429.455 84.4849H424.243V89.697H429.455V84.4849Z" fill="#171729"/>
<path d="M434.665 84.4849H429.453V89.697H434.665V84.4849Z" fill="#171729"/>
<path d="M450.302 84.4849H445.09V89.697H450.302V84.4849Z" fill="#171729"/>
<path d="M325.212 89.6968H320V94.9089H325.212V89.6968Z" fill="#171729"/>
<path d="M346.061 89.6968H340.849V94.9089H346.061V89.6968Z" fill="#171729"/>
<path d="M356.483 89.6968H351.271V94.9089H356.483V89.6968Z" fill="#171729"/>
<path d="M361.696 89.6968H356.484V94.9089H361.696V89.6968Z" fill="#171729"/>
<path d="M366.908 89.6968H361.696V94.9089H366.908V89.6968Z" fill="#171729"/>
<path d="M377.333 89.6968H372.121V94.9089H377.333V89.6968Z" fill="#171729"/>
<path d="M387.759 89.6968H382.547V94.9089H387.759V89.6968Z" fill="#171729"/>
<path d="M403.396 89.6968H398.184V94.9089H403.396V89.6968Z" fill="#171729"/>
<path d="M413.818 89.6968H408.606V94.9089H413.818V89.6968Z" fill="#171729"/>
<path d="M429.455 89.6968H424.243V94.9089H429.455V89.6968Z" fill="#171729"/>
<path d="M434.665 89.6968H429.453V94.9089H434.665V89.6968Z" fill="#171729"/>
<path d="M439.878 89.6968H434.666V94.9089H439.878V89.6968Z" fill="#171729"/>
<path d="M445.091 89.6968H439.879V94.9089H445.091V89.6968Z" fill="#171729"/>
<path d="M455.517 89.6968H450.304V94.9089H455.517V89.6968Z" fill="#171729"/>
<path d="M460.728 89.6968H455.516V94.9089H460.728V89.6968Z" fill="#171729"/>
<path d="M465.941 89.6968H460.729V94.9089H465.941V89.6968Z" fill="#171729"/>
<path d="M471.152 89.6968H465.94V94.9089H471.152V89.6968Z" fill="#171729"/>
<path d="M476.363 89.6968H471.15V94.9089H476.363V89.6968Z" fill="#171729"/>
<path d="M492 89.6968H486.788V94.9089H492V89.6968Z" fill="#171729"/>
<path d="M330.424 94.9092H325.212V100.121H330.424V94.9092Z" fill="#171729"/>
<path d="M351.272 94.9092H346.06V100.121H351.272V94.9092Z" fill="#171729"/>
<path d="M361.696 94.9092H356.484V100.121H361.696V94.9092Z" fill="#171729"/>
<path d="M377.333 94.9092H372.121V100.121H377.333V94.9092Z" fill="#171729"/>
<path d="M382.546 94.9092H377.334V100.121H382.546V94.9092Z" fill="#171729"/>
<path d="M403.396 94.9092H398.184V100.121H403.396V94.9092Z" fill="#171729"/>
<path d="M408.606 94.9092H403.394V100.121H408.606V94.9092Z" fill="#171729"/>
<path d="M413.818 94.9092H408.606V100.121H413.818V94.9092Z" fill="#171729"/>
<path d="M419.03 94.9092H413.817V100.121H419.03V94.9092Z" fill="#171729"/>
<path d="M434.665 94.9092H429.453V100.121H434.665V94.9092Z" fill="#171729"/>
<path d="M439.878 94.9092H434.666V100.121H439.878V94.9092Z" fill="#171729"/>
<path d="M445.091 94.9092H439.879V100.121H445.091V94.9092Z" fill="#171729"/>
<path d="M455.517 94.9092H450.304V100.121H455.517V94.9092Z" fill="#171729"/>
<path d="M476.363 94.9092H471.15V100.121H476.363V94.9092Z" fill="#171729"/>
<path d="M481.575 94.9092H476.363V100.121H481.575V94.9092Z" fill="#171729"/>
<path d="M492 94.9092H486.788V100.121H492V94.9092Z" fill="#171729"/>
<path d="M325.212 100.121H320V105.333H325.212V100.121Z" fill="#171729"/>
<path d="M335.635 100.121H330.423V105.333H335.635V100.121Z" fill="#171729"/>
<path d="M346.061 100.121H340.849V105.333H346.061V100.121Z" fill="#171729"/>
<path d="M351.272 100.121H346.06V105.333H351.272V100.121Z" fill="#171729"/>
<path d="M356.483 100.121H351.271V105.333H356.483V100.121Z" fill="#171729"/>
<path d="M361.696 100.121H356.484V105.333H361.696V100.121Z" fill="#171729"/>
<path d="M366.908 100.121H361.696V105.333H366.908V100.121Z" fill="#171729"/>
<path d="M392.969 100.121H387.757V105.333H392.969V100.121Z" fill="#171729"/>
<path d="M398.182 100.121H392.969V105.333H398.182V100.121Z" fill="#171729"/>
<path d="M403.396 100.121H398.184V105.333H403.396V100.121Z" fill="#171729"/>
<path d="M419.03 100.121H413.817V105.333H419.03V100.121Z" fill="#171729"/>
<path d="M445.091 100.121H439.879V105.333H445.091V100.121Z" fill="#171729"/>
<path d="M455.517 100.121H450.304V105.333H455.517V100.121Z" fill="#171729"/>
<path d="M476.363 100.121H471.15V105.333H476.363V100.121Z" fill="#171729"/>
<path d="M486.789 100.121H481.577V105.333H486.789V100.121Z" fill="#171729"/>
<path d="M335.635 105.333H330.423V110.546H335.635V105.333Z" fill="#171729"/>
<path d="M346.061 105.333H340.849V110.546H346.061V105.333Z" fill="#171729"/>
<path d="M361.696 105.333H356.484V110.546H361.696V105.333Z" fill="#171729"/>
<path d="M377.333 105.333H372.121V110.546H377.333V105.333Z" fill="#171729"/>
<path d="M387.759 105.333H382.547V110.546H387.759V105.333Z" fill="#171729"/>
<path d="M392.969 105.333H387.757V110.546H392.969V105.333Z" fill="#171729"/>
<path d="M408.606 105.333H403.394V110.546H408.606V105.333Z" fill="#171729"/>
<path d="M424.243 105.333H419.031V110.546H424.243V105.333Z" fill="#171729"/>
<path d="M429.455 105.333H424.243V110.546H429.455V105.333Z" fill="#171729"/>
<path d="M439.878 105.333H434.666V110.546H439.878V105.333Z" fill="#171729"/>
<path d="M450.302 105.333H445.09V110.546H450.302V105.333Z" fill="#171729"/>
<path d="M455.517 105.333H450.304V110.546H455.517V105.333Z" fill="#171729"/>
<path d="M460.728 105.333H455.516V110.546H460.728V105.333Z" fill="#171729"/>
<path d="M325.212 110.545H320V115.758H325.212V110.545Z" fill="#171729"/>
<path d="M335.635 110.545H330.423V115.758H335.635V110.545Z" fill="#171729"/>
<path d="M340.849 110.545H335.637V115.758H340.849V110.545Z" fill="#171729"/>
<path d="M356.483 110.545H351.271V115.758H356.483V110.545Z" fill="#171729"/>
<path d="M366.908 110.545H361.696V115.758H366.908V110.545Z" fill="#171729"/>
<path d="M377.333 110.545H372.121V115.758H377.333V110.545Z" fill="#171729"/>
<path d="M387.759 110.545H382.547V115.758H387.759V110.545Z" fill="#171729"/>
<path d="M392.969 110.545H387.757V115.758H392.969V110.545Z" fill="#171729"/>
<path d="M408.606 110.545H403.394V115.758H408.606V110.545Z" fill="#171729"/>
<path d="M439.878 110.545H434.666V115.758H439.878V110.545Z" fill="#171729"/>
<path d="M445.091 110.545H439.879V115.758H445.091V110.545Z" fill="#171729"/>
<path d="M450.302 110.545H445.09V115.758H450.302V110.545Z" fill="#171729"/>
<path d="M460.728 110.545H455.516V115.758H460.728V110.545Z" fill="#171729"/>
<path d="M465.941 110.545H460.729V115.758H465.941V110.545Z" fill="#171729"/>
<path d="M476.363 110.545H471.15V115.758H476.363V110.545Z" fill="#171729"/>
<path d="M492 110.545H486.788V115.758H492V110.545Z" fill="#171729"/>
<path d="M325.212 115.757H320V120.969H325.212V115.757Z" fill="#171729"/>
<path d="M335.635 115.758H330.423V120.97H335.635V115.758Z" fill="#171729"/>
<path d="M340.849 115.758H335.637V120.97H340.849V115.758Z" fill="#171729"/>
<path d="M346.061 115.758H340.849V120.97H346.061V115.758Z" fill="#171729"/>
<path d="M351.272 115.758H346.06V120.97H351.272V115.758Z" fill="#171729"/>
<path d="M361.696 115.758H356.484V120.97H361.696V115.758Z" fill="#171729"/>
<path d="M377.333 115.758H372.121V120.97H377.333V115.758Z" fill="#171729"/>
<path d="M382.546 115.758H377.334V120.97H382.546V115.758Z" fill="#171729"/>
<path d="M398.182 115.758H392.969V120.97H398.182V115.758Z" fill="#171729"/>
<path d="M413.818 115.757H408.606V120.969H413.818V115.757Z" fill="#171729"/>
<path d="M419.03 115.757H413.817V120.969H419.03V115.757Z" fill="#171729"/>
<path d="M424.243 115.758H419.031V120.97H424.243V115.758Z" fill="#171729"/>
<path d="M429.455 115.758H424.243V120.97H429.455V115.758Z" fill="#171729"/>
<path d="M450.302 115.758H445.09V120.97H450.302V115.758Z" fill="#171729"/>
<path d="M455.517 115.758H450.304V120.97H455.517V115.758Z" fill="#171729"/>
<path d="M465.941 115.758H460.729V120.97H465.941V115.758Z" fill="#171729"/>
<path d="M481.575 115.758H476.363V120.97H481.575V115.758Z" fill="#171729"/>
<path d="M335.635 120.97H330.423V126.182H335.635V120.97Z" fill="#171729"/>
<path d="M346.061 120.97H340.849V126.182H346.061V120.97Z" fill="#171729"/>
<path d="M351.272 120.97H346.06V126.182H351.272V120.97Z" fill="#171729"/>
<path d="M356.483 120.97H351.271V126.182H356.483V120.97Z" fill="#171729"/>
<path d="M377.333 120.97H372.121V126.182H377.333V120.97Z" fill="#171729"/>
<path d="M382.546 120.97H377.334V126.182H382.546V120.97Z" fill="#171729"/>
<path d="M387.759 120.97H382.547V126.182H387.759V120.97Z" fill="#171729"/>
<path d="M398.182 120.97H392.969V126.182H398.182V120.97Z" fill="#171729"/>
<path d="M403.396 120.97H398.184V126.182H403.396V120.97Z" fill="#171729"/>
<path d="M413.818 120.97H408.606V126.182H413.818V120.97Z" fill="#171729"/>
<path d="M419.03 120.97H413.817V126.182H419.03V120.97Z" fill="#171729"/>
<path d="M429.455 120.97H424.243V126.182H429.455V120.97Z" fill="#171729"/>
<path d="M434.665 120.97H429.453V126.182H434.665V120.97Z" fill="#171729"/>
<path d="M445.091 120.97H439.879V126.182H445.091V120.97Z" fill="#171729"/>
<path d="M450.302 120.97H445.09V126.182H450.302V120.97Z" fill="#171729"/>
<path d="M455.517 120.97H450.304V126.182H455.517V120.97Z" fill="#171729"/>
<path d="M460.728 120.97H455.516V126.182H460.728V120.97Z" fill="#171729"/>
<path d="M471.152 120.97H465.94V126.182H471.152V120.97Z" fill="#171729"/>
<path d="M486.789 120.97H481.577V126.182H486.789V120.97Z" fill="#171729"/>
<path d="M325.212 126.182H320V131.394H325.212V126.182Z" fill="#171729"/>
<path d="M330.424 126.182H325.212V131.394H330.424V126.182Z" fill="#171729"/>
<path d="M335.635 126.182H330.423V131.394H335.635V126.182Z" fill="#171729"/>
<path d="M340.849 126.182H335.637V131.394H340.849V126.182Z" fill="#171729"/>
<path d="M346.061 126.182H340.849V131.394H346.061V126.182Z" fill="#171729"/>
<path d="M361.696 126.182H356.484V131.394H361.696V126.182Z" fill="#171729"/>
<path d="M377.333 126.182H372.121V131.394H377.333V126.182Z" fill="#171729"/>
<path d="M382.546 126.182H377.334V131.394H382.546V126.182Z" fill="#171729"/>
<path d="M392.969 126.182H387.757V131.394H392.969V126.182Z" fill="#171729"/>
<path d="M398.182 126.182H392.969V131.394H398.182V126.182Z" fill="#171729"/>
<path d="M403.396 126.182H398.184V131.394H403.396V126.182Z" fill="#171729"/>
<path d="M408.606 126.182H403.394V131.394H408.606V126.182Z" fill="#171729"/>
<path d="M413.818 126.182H408.606V131.394H413.818V126.182Z" fill="#171729"/>
<path d="M419.03 126.182H413.817V131.394H419.03V126.182Z" fill="#171729"/>
<path d="M434.665 126.182H429.453V131.394H434.665V126.182Z" fill="#171729"/>
<path d="M445.091 126.182H439.879V131.394H445.091V126.182Z" fill="#171729"/>
<path d="M455.517 126.182H450.304V131.394H455.517V126.182Z" fill="#171729"/>
<path d="M460.728 126.182H455.516V131.394H460.728V126.182Z" fill="#171729"/>
<path d="M465.941 126.182H460.729V131.394H465.941V126.182Z" fill="#171729"/>
<path d="M325.212 131.394H320V136.606H325.212V131.394Z" fill="#171729"/>
<path d="M330.424 131.394H325.212V136.606H330.424V131.394Z" fill="#171729"/>
<path d="M340.849 131.394H335.637V136.606H340.849V131.394Z" fill="#171729"/>
<path d="M346.061 131.394H340.849V136.606H346.061V131.394Z" fill="#171729"/>
<path d="M351.272 131.394H346.06V136.606H351.272V131.394Z" fill="#171729"/>
<path d="M356.483 131.394H351.271V136.606H356.483V131.394Z" fill="#171729"/>
<path d="M366.908 131.394H361.696V136.606H366.908V131.394Z" fill="#171729"/>
<path d="M372.123 131.394H366.91V136.606H372.123V131.394Z" fill="#171729"/>
<path d="M387.759 131.394H382.547V136.606H387.759V131.394Z" fill="#171729"/>
<path d="M413.818 131.394H408.606V136.606H413.818V131.394Z" fill="#171729"/>
<path d="M419.03 131.394H413.817V136.606H419.03V131.394Z" fill="#171729"/>
<path d="M424.243 131.394H419.031V136.606H424.243V131.394Z" fill="#171729"/>
<path d="M429.455 131.394H424.243V136.606H429.455V131.394Z" fill="#171729"/>
<path d="M434.665 131.394H429.453V136.606H434.665V131.394Z" fill="#171729"/>
<path d="M439.878 131.394H434.666V136.606H439.878V131.394Z" fill="#171729"/>
<path d="M450.302 131.394H445.09V136.606H450.302V131.394Z" fill="#171729"/>
<path d="M460.728 131.394H455.516V136.606H460.728V131.394Z" fill="#171729"/>
<path d="M471.152 131.394H465.94V136.606H471.152V131.394Z" fill="#171729"/>
<path d="M476.363 131.394H471.15V136.606H476.363V131.394Z" fill="#171729"/>
<path d="M486.789 131.394H481.577V136.606H486.789V131.394Z" fill="#171729"/>
<path d="M325.212 136.606H320V141.818H325.212V136.606Z" fill="#171729"/>
<path d="M330.424 136.606H325.212V141.818H330.424V136.606Z" fill="#171729"/>
<path d="M346.061 136.606H340.849V141.818H346.061V136.606Z" fill="#171729"/>
<path d="M351.272 136.606H346.06V141.818H351.272V136.606Z" fill="#171729"/>
<path d="M361.696 136.606H356.484V141.818H361.696V136.606Z" fill="#171729"/>
<path d="M366.908 136.606H361.696V141.818H366.908V136.606Z" fill="#171729"/>
<path d="M372.123 136.606H366.91V141.818H372.123V136.606Z" fill="#171729"/>
<path d="M377.333 136.606H372.121V141.818H377.333V136.606Z" fill="#171729"/>
<path d="M403.396 136.606H398.184V141.818H403.396V136.606Z" fill="#171729"/>
<path d="M408.606 136.606H403.394V141.818H408.606V136.606Z" fill="#171729"/>
<path d="M419.03 136.606H413.817V141.818H419.03V136.606Z" fill="#171729"/>
<path d="M429.455 136.606H424.243V141.818H429.455V136.606Z" fill="#171729"/>
<path d="M439.878 136.606H434.666V141.818H439.878V136.606Z" fill="#171729"/>
<path d="M445.091 136.606H439.879V141.818H445.091V136.606Z" fill="#171729"/>
<path d="M450.302 136.606H445.09V141.818H450.302V136.606Z" fill="#171729"/>
<path d="M476.363 136.606H471.15V141.818H476.363V136.606Z" fill="#171729"/>
<path d="M481.575 136.606H476.363V141.818H481.575V136.606Z" fill="#171729"/>
<path d="M486.789 136.606H481.577V141.818H486.789V136.606Z" fill="#171729"/>
<path d="M325.212 141.818H320V147.03H325.212V141.818Z" fill="#171729"/>
<path d="M335.635 141.818H330.423V147.03H335.635V141.818Z" fill="#171729"/>
<path d="M340.849 141.818H335.637V147.03H340.849V141.818Z" fill="#171729"/>
<path d="M346.061 141.818H340.849V147.03H346.061V141.818Z" fill="#171729"/>
<path d="M356.483 141.818H351.271V147.03H356.483V141.818Z" fill="#171729"/>
<path d="M361.696 141.818H356.484V147.03H361.696V141.818Z" fill="#171729"/>
<path d="M377.333 141.818H372.121V147.03H377.333V141.818Z" fill="#171729"/>
<path d="M387.759 141.818H382.547V147.03H387.759V141.818Z" fill="#171729"/>
<path d="M392.969 141.818H387.757V147.03H392.969V141.818Z" fill="#171729"/>
<path d="M403.396 141.818H398.184V147.03H403.396V141.818Z" fill="#171729"/>
<path d="M408.606 141.818H403.394V147.03H408.606V141.818Z" fill="#171729"/>
<path d="M413.818 141.818H408.606V147.03H413.818V141.818Z" fill="#171729"/>
<path d="M429.455 141.818H424.243V147.03H429.455V141.818Z" fill="#171729"/>
<path d="M434.665 141.818H429.453V147.03H434.665V141.818Z" fill="#171729"/>
<path d="M439.878 141.818H434.666V147.03H439.878V141.818Z" fill="#171729"/>
<path d="M445.091 141.818H439.879V147.03H445.091V141.818Z" fill="#171729"/>
<path d="M450.302 141.818H445.09V147.03H450.302V141.818Z" fill="#171729"/>
<path d="M455.517 141.818H450.304V147.03H455.517V141.818Z" fill="#171729"/>
<path d="M465.941 141.818H460.729V147.03H465.941V141.818Z" fill="#171729"/>
<path d="M476.363 141.818H471.15V147.03H476.363V141.818Z" fill="#171729"/>
<path d="M486.789 141.818H481.577V147.03H486.789V141.818Z" fill="#171729"/>
<path d="M330.424 147.03H325.212V152.242H330.424V147.03Z" fill="#171729"/>
<path d="M335.635 147.03H330.423V152.242H335.635V147.03Z" fill="#171729"/>
<path d="M346.061 147.03H340.849V152.242H346.061V147.03Z" fill="#171729"/>
<path d="M361.696 147.03H356.484V152.242H361.696V147.03Z" fill="#171729"/>
<path d="M377.333 147.03H372.121V152.242H377.333V147.03Z" fill="#171729"/>
<path d="M387.759 147.03H382.547V152.242H387.759V147.03Z" fill="#171729"/>
<path d="M392.969 147.03H387.757V152.242H392.969V147.03Z" fill="#171729"/>
<path d="M403.396 147.03H398.184V152.242H403.396V147.03Z" fill="#171729"/>
<path d="M413.818 147.03H408.606V152.242H413.818V147.03Z" fill="#171729"/>
<path d="M419.03 147.03H413.817V152.242H419.03V147.03Z" fill="#171729"/>
<path d="M429.455 147.03H424.243V152.242H429.455V147.03Z" fill="#171729"/>
<path d="M434.665 147.03H429.453V152.242H434.665V147.03Z" fill="#171729"/>
<path d="M450.302 147.03H445.09V152.242H450.302V147.03Z" fill="#171729"/>
<path d="M455.517 147.03H450.304V152.242H455.517V147.03Z" fill="#171729"/>
<path d="M460.728 147.03H455.516V152.242H460.728V147.03Z" fill="#171729"/>
<path d="M465.941 147.03H460.729V152.242H465.941V147.03Z" fill="#171729"/>
<path d="M486.789 147.03H481.577V152.242H486.789V147.03Z" fill="#171729"/>
<path d="M325.212 152.242H320V157.454H325.212V152.242Z" fill="#171729"/>
<path d="M335.635 152.242H330.423V157.454H335.635V152.242Z" fill="#171729"/>
<path d="M351.272 152.242H346.06V157.454H351.272V152.242Z" fill="#171729"/>
<path d="M356.483 152.242H351.271V157.454H356.483V152.242Z" fill="#171729"/>
<path d="M361.696 152.242H356.484V157.454H361.696V152.242Z" fill="#171729"/>
<path d="M372.123 152.242H366.91V157.454H372.123V152.242Z" fill="#171729"/>
<path d="M382.546 152.242H377.334V157.454H382.546V152.242Z" fill="#171729"/>
<path d="M392.969 152.242H387.757V157.454H392.969V152.242Z" fill="#171729"/>
<path d="M398.182 152.242H392.969V157.454H398.182V152.242Z" fill="#171729"/>
<path d="M419.03 152.242H413.817V157.454H419.03V152.242Z" fill="#171729"/>
<path d="M424.243 152.242H419.031V157.454H424.243V152.242Z" fill="#171729"/>
<path d="M429.455 152.242H424.243V157.454H429.455V152.242Z" fill="#171729"/>
<path d="M460.728 152.242H455.516V157.454H460.728V152.242Z" fill="#171729"/>
<path d="M465.941 152.242H460.729V157.454H465.941V152.242Z" fill="#171729"/>
<path d="M471.152 152.242H465.94V157.454H471.152V152.242Z" fill="#171729"/>
<path d="M476.363 152.242H471.15V157.454H476.363V152.242Z" fill="#171729"/>
<path d="M325.212 157.455H320V162.667H325.212V157.455Z" fill="#171729"/>
<path d="M340.849 157.455H335.637V162.667H340.849V157.455Z" fill="#171729"/>
<path d="M351.272 157.455H346.06V162.667H351.272V157.455Z" fill="#171729"/>
<path d="M387.759 157.455H382.547V162.667H387.759V157.455Z" fill="#171729"/>
<path d="M408.606 157.455H403.394V162.667H408.606V157.455Z" fill="#171729"/>
<path d="M413.818 157.455H408.606V162.667H413.818V157.455Z" fill="#171729"/>
<path d="M424.243 157.455H419.031V162.667H424.243V157.455Z" fill="#171729"/>
<path d="M439.878 157.455H434.666V162.667H439.878V157.455Z" fill="#171729"/>
<path d="M460.728 157.455H455.516V162.667H460.728V157.455Z" fill="#171729"/>
<path d="M476.363 157.455H471.15V162.667H476.363V157.455Z" fill="#171729"/>
<path d="M481.575 157.455H476.363V162.667H481.575V157.455Z" fill="#171729"/>
<path d="M486.789 157.455H481.577V162.667H486.789V157.455Z" fill="#171729"/>
<path d="M346.061 162.667H340.849V167.879H346.061V162.667Z" fill="#171729"/>
<path d="M351.272 162.667H346.06V167.879H351.272V162.667Z" fill="#171729"/>
<path d="M356.483 162.667H351.271V167.879H356.483V162.667Z" fill="#171729"/>
<path d="M361.696 162.667H356.484V167.879H361.696V162.667Z" fill="#171729"/>
<path d="M382.546 162.667H377.334V167.879H382.546V162.667Z" fill="#171729"/>
<path d="M387.759 162.667H382.547V167.879H387.759V162.667Z" fill="#171729"/>
<path d="M398.182 162.667H392.969V167.879H398.182V162.667Z" fill="#171729"/>
<path d="M408.606 162.667H403.394V167.879H408.606V162.667Z" fill="#171729"/>
<path d="M419.03 162.667H413.817V167.879H419.03V162.667Z" fill="#171729"/>
<path d="M424.243 162.667H419.031V167.879H424.243V162.667Z" fill="#171729"/>
<path d="M434.665 162.667H429.453V167.879H434.665V162.667Z" fill="#171729"/>
<path d="M445.091 162.667H439.879V167.879H445.091V162.667Z" fill="#171729"/>
<path d="M450.302 162.667H445.09V167.879H450.302V162.667Z" fill="#171729"/>
<path d="M455.517 162.667H450.304V167.879H455.517V162.667Z" fill="#171729"/>
<path d="M481.575 162.667H476.363V167.879H481.575V162.667Z" fill="#171729"/>
<path d="M486.789 162.667H481.577V167.879H486.789V162.667Z" fill="#171729"/>
<path d="M340.849 167.879H335.637V173.091H340.849V167.879Z" fill="#171729"/>
<path d="M346.061 167.879H340.849V173.091H346.061V167.879Z" fill="#171729"/>
<path d="M351.272 167.879H346.06V173.091H351.272V167.879Z" fill="#171729"/>
<path d="M361.696 167.879H356.484V173.091H361.696V167.879Z" fill="#171729"/>
<path d="M366.908 167.879H361.696V173.091H366.908V167.879Z" fill="#171729"/>
<path d="M377.333 167.879H372.121V173.091H377.333V167.879Z" fill="#171729"/>
<path d="M392.969 167.879H387.757V173.091H392.969V167.879Z" fill="#171729"/>
<path d="M413.818 167.879H408.606V173.091H413.818V167.879Z" fill="#171729"/>
<path d="M419.03 167.879H413.817V173.091H419.03V167.879Z" fill="#171729"/>
<path d="M424.243 167.879H419.031V173.091H424.243V167.879Z" fill="#171729"/>
<path d="M429.455 167.879H424.243V173.091H429.455V167.879Z" fill="#171729"/>
<path d="M434.665 167.879H429.453V173.091H434.665V167.879Z" fill="#171729"/>
<path d="M439.878 167.879H434.666V173.091H439.878V167.879Z" fill="#171729"/>
<path d="M455.517 167.879H450.304V173.091H455.517V167.879Z" fill="#171729"/>
<path d="M460.728 167.879H455.516V173.091H460.728V167.879Z" fill="#171729"/>
<path d="M471.152 167.879H465.94V173.091H471.152V167.879Z" fill="#171729"/>
<path d="M476.363 167.879H471.15V173.091H476.363V167.879Z" fill="#171729"/>
<path d="M486.789 167.879H481.577V173.091H486.789V167.879Z" fill="#171729"/>
<path d="M492 167.879H486.788V173.091H492V167.879Z" fill="#171729"/>
<path d="M325.212 173.091H320V178.303H325.212V173.091Z" fill="#171729"/>
<path d="M330.424 173.091H325.212V178.303H330.424V173.091Z" fill="#171729"/>
<path d="M335.635 173.091H330.423V178.303H335.635V173.091Z" fill="#171729"/>
<path d="M346.061 173.091H340.849V178.303H346.061V173.091Z" fill="#171729"/>
<path d="M356.483 173.091H351.271V178.303H356.483V173.091Z" fill="#171729"/>
<path d="M361.696 173.091H356.484V178.303H361.696V173.091Z" fill="#171729"/>
<path d="M377.333 173.091H372.121V178.303H377.333V173.091Z" fill="#171729"/>
<path d="M382.546 173.091H377.334V178.303H382.546V173.091Z" fill="#171729"/>
<path d="M392.969 173.091H387.757V178.303H392.969V173.091Z" fill="#171729"/>
<path d="M398.182 173.091H392.969V178.303H398.182V173.091Z" fill="#171729"/>
<path d="M403.396 173.091H398.184V178.303H403.396V173.091Z" fill="#171729"/>
<path d="M408.606 173.091H403.394V178.303H408.606V173.091Z" fill="#171729"/>
<path d="M413.818 173.091H408.606V178.303H413.818V173.091Z" fill="#171729"/>
<path d="M429.455 173.091H424.243V178.303H429.455V173.091Z" fill="#171729"/>
<path d="M434.665 173.091H429.453V178.303H434.665V173.091Z" fill="#171729"/>
<path d="M439.878 173.091H434.666V178.303H439.878V173.091Z" fill="#171729"/>
<path d="M450.302 173.091H445.09V178.303H450.302V173.091Z" fill="#171729"/>
<path d="M455.517 173.091H450.304V178.303H455.517V173.091Z" fill="#171729"/>
<path d="M460.728 173.091H455.516V178.303H460.728V173.091Z" fill="#171729"/>
<path d="M465.941 173.091H460.729V178.303H465.941V173.091Z" fill="#171729"/>
<path d="M471.152 173.091H465.94V178.303H471.152V173.091Z" fill="#171729"/>
<path d="M476.363 173.091H471.15V178.303H476.363V173.091Z" fill="#171729"/>
<path d="M486.789 173.091H481.577V178.303H486.789V173.091Z" fill="#171729"/>
<path d="M366.908 178.303H361.696V183.515H366.908V178.303Z" fill="#171729"/>
<path d="M377.333 178.303H372.121V183.515H377.333V178.303Z" fill="#171729"/>
<path d="M382.546 178.303H377.334V183.515H382.546V178.303Z" fill="#171729"/>
<path d="M392.969 178.303H387.757V183.515H392.969V178.303Z" fill="#171729"/>
<path d="M398.182 178.303H392.969V183.515H398.182V178.303Z" fill="#171729"/>
<path d="M403.396 178.303H398.184V183.515H403.396V178.303Z" fill="#171729"/>
<path d="M408.606 178.303H403.394V183.515H408.606V178.303Z" fill="#171729"/>
<path d="M413.818 178.303H408.606V183.515H413.818V178.303Z" fill="#171729"/>
<path d="M434.665 178.303H429.453V183.515H434.665V178.303Z" fill="#171729"/>
<path d="M439.878 178.303H434.666V183.515H439.878V178.303Z" fill="#171729"/>
<path d="M445.091 178.303H439.879V183.515H445.091V178.303Z" fill="#171729"/>
<path d="M450.302 178.303H445.09V183.515H450.302V178.303Z" fill="#171729"/>
<path d="M471.152 178.303H465.94V183.515H471.152V178.303Z" fill="#171729"/>
<path d="M481.575 178.303H476.363V183.515H481.575V178.303Z" fill="#171729"/>
<path d="M366.908 183.515H361.696V188.727H366.908V183.515Z" fill="#171729"/>
<path d="M372.123 183.515H366.91V188.727H372.123V183.515Z" fill="#171729"/>
<path d="M377.333 183.515H372.121V188.727H377.333V183.515Z" fill="#171729"/>
<path d="M398.182 183.515H392.969V188.727H398.182V183.515Z" fill="#171729"/>
<path d="M403.396 183.515H398.184V188.727H403.396V183.515Z" fill="#171729"/>
<path d="M419.03 183.515H413.817V188.727H419.03V183.515Z" fill="#171729"/>
<path d="M450.302 183.515H445.09V188.727H450.302V183.515Z" fill="#171729"/>
<path d="M460.728 183.515H455.516V188.727H460.728V183.515Z" fill="#171729"/>
<path d="M471.152 183.515H465.94V188.727H471.152V183.515Z" fill="#171729"/>
<path d="M476.363 183.515H471.15V188.727H476.363V183.515Z" fill="#171729"/>
<path d="M382.546 188.727H377.334V193.939H382.546V188.727Z" fill="#171729"/>
<path d="M398.182 188.727H392.969V193.939H398.182V188.727Z" fill="#171729"/>
<path d="M403.396 188.727H398.184V193.939H403.396V188.727Z" fill="#171729"/>
<path d="M408.606 188.727H403.394V193.939H408.606V188.727Z" fill="#171729"/>
<path d="M424.243 188.727H419.031V193.939H424.243V188.727Z" fill="#171729"/>
<path d="M439.878 188.727H434.666V193.939H439.878V188.727Z" fill="#171729"/>
<path d="M450.302 188.727H445.09V193.939H450.302V188.727Z" fill="#171729"/>
<path d="M471.152 188.727H465.94V193.939H471.152V188.727Z" fill="#171729"/>
<path d="M492 188.727H486.788V193.939H492V188.727Z" fill="#171729"/>
<path d="M366.908 193.939H361.696V199.152H366.908V193.939Z" fill="#171729"/>
<path d="M382.546 193.939H377.334V199.152H382.546V193.939Z" fill="#171729"/>
<path d="M387.759 193.939H382.547V199.152H387.759V193.939Z" fill="#171729"/>
<path d="M392.969 193.939H387.757V199.152H392.969V193.939Z" fill="#171729"/>
<path d="M398.182 193.939H392.969V199.152H398.182V193.939Z" fill="#171729"/>
<path d="M408.606 193.939H403.394V199.152H408.606V193.939Z" fill="#171729"/>
<path d="M424.243 193.939H419.031V199.152H424.243V193.939Z" fill="#171729"/>
<path d="M439.878 193.939H434.666V199.152H439.878V193.939Z" fill="#171729"/>
<path d="M450.302 193.939H445.09V199.152H450.302V193.939Z" fill="#171729"/>
<path d="M455.517 193.939H450.304V199.152H455.517V193.939Z" fill="#171729"/>
<path d="M460.728 193.939H455.516V199.152H460.728V193.939Z" fill="#171729"/>
<path d="M465.941 193.939H460.729V199.152H465.941V193.939Z" fill="#171729"/>
<path d="M471.152 193.939H465.94V199.152H471.152V193.939Z" fill="#171729"/>
<path d="M476.363 193.939H471.15V199.152H476.363V193.939Z" fill="#171729"/>
<path d="M492 193.939H486.788V199.152H492V193.939Z" fill="#171729"/>
<path d="M372.123 199.151H366.91V204.363H372.123V199.151Z" fill="#171729"/>
<path d="M377.333 199.151H372.121V204.363H377.333V199.151Z" fill="#171729"/>
<path d="M387.759 199.151H382.547V204.363H387.759V199.151Z" fill="#171729"/>
<path d="M392.969 199.151H387.757V204.363H392.969V199.151Z" fill="#171729"/>
<path d="M419.03 199.151H413.817V204.363H419.03V199.151Z" fill="#171729"/>
<path d="M424.243 199.151H419.031V204.363H424.243V199.151Z" fill="#171729"/>
<path d="M429.455 199.151H424.243V204.363H429.455V199.151Z" fill="#171729"/>
<path d="M445.091 199.151H439.879V204.363H445.091V199.151Z" fill="#171729"/>
<path d="M460.728 199.151H455.516V204.363H460.728V199.151Z" fill="#171729"/>
<path d="M465.941 199.151H460.729V204.363H465.941V199.151Z" fill="#171729"/>
<path d="M471.152 199.151H465.94V204.363H471.152V199.151Z" fill="#171729"/>
<path d="M476.363 199.151H471.15V204.363H476.363V199.151Z" fill="#171729"/>
<path d="M481.575 199.151H476.363V204.363H481.575V199.151Z" fill="#171729"/>
<path d="M486.789 199.151H481.577V204.363H486.789V199.151Z" fill="#171729"/>
<path d="M372.123 204.364H366.91V209.576H372.123V204.364Z" fill="#171729"/>
<path d="M387.759 204.364H382.547V209.576H387.759V204.364Z" fill="#171729"/>
<path d="M398.182 204.364H392.969V209.576H398.182V204.364Z" fill="#171729"/>
<path d="M403.396 204.364H398.184V209.576H403.396V204.364Z" fill="#171729"/>
<path d="M419.03 204.364H413.817V209.576H419.03V204.364Z" fill="#171729"/>
<path d="M429.455 204.364H424.243V209.576H429.455V204.364Z" fill="#171729"/>
<path d="M434.665 204.364H429.453V209.576H434.665V204.364Z" fill="#171729"/>
<path d="M455.517 204.364H450.304V209.576H455.517V204.364Z" fill="#171729"/>
<path d="M460.728 204.364H455.516V209.576H460.728V204.364Z" fill="#171729"/>
<path d="M465.941 204.364H460.729V209.576H465.941V204.364Z" fill="#171729"/>
<path d="M471.152 204.364H465.94V209.576H471.152V204.364Z" fill="#171729"/>
<path d="M476.363 204.364H471.15V209.576H476.363V204.364Z" fill="#171729"/>
<path d="M382.546 209.576H377.334V214.788H382.546V209.576Z" fill="#171729"/>
<path d="M387.759 209.576H382.547V214.788H387.759V209.576Z" fill="#171729"/>
<path d="M392.969 209.576H387.757V214.788H392.969V209.576Z" fill="#171729"/>
<path d="M403.396 209.576H398.184V214.788H403.396V209.576Z" fill="#171729"/>
<path d="M408.606 209.576H403.394V214.788H408.606V209.576Z" fill="#171729"/>
<path d="M413.818 209.576H408.606V214.788H413.818V209.576Z" fill="#171729"/>
<path d="M419.03 209.576H413.817V214.788H419.03V209.576Z" fill="#171729"/>
<path d="M434.665 209.576H429.453V214.788H434.665V209.576Z" fill="#171729"/>
<path d="M445.091 209.576H439.879V214.788H445.091V209.576Z" fill="#171729"/>
<path d="M450.302 209.576H445.09V214.788H450.302V209.576Z" fill="#171729"/>
<path d="M460.728 209.576H455.516V214.788H460.728V209.576Z" fill="#171729"/>
<path d="M366.908 214.788H361.696V220H366.908V214.788Z" fill="#171729"/>
<path d="M377.333 214.788H372.121V220H377.333V214.788Z" fill="#171729"/>
<path d="M413.818 214.788H408.606V220H413.818V214.788Z" fill="#171729"/>
<path d="M424.243 214.788H419.031V220H424.243V214.788Z" fill="#171729"/>
<path d="M429.455 214.788H424.243V220H429.455V214.788Z" fill="#171729"/>
<path d="M434.665 214.788H429.453V220H434.665V214.788Z" fill="#171729"/>
<path d="M439.878 214.788H434.666V220H439.878V214.788Z" fill="#171729"/>
<path d="M445.091 214.788H439.879V220H445.091V214.788Z" fill="#171729"/>
<path d="M450.302 214.788H445.09V220H450.302V214.788Z" fill="#171729"/>
<path d="M455.517 214.788H450.304V220H455.517V214.788Z" fill="#171729"/>
<path d="M460.728 214.788H455.516V220H460.728V214.788Z" fill="#171729"/>
<path d="M476.363 214.788H471.15V220H476.363V214.788Z" fill="#171729"/>
<path d="M492 214.788H486.788V220H492V214.788Z" fill="#171729"/>
<path d="M351.012 48H325.473H320V53.4727V79.0121V84.4848H325.473H351.012H356.485V79.0121V53.4727V48H351.012ZM351.012 79.0121H325.473V53.4727H351.012V79.0121Z" fill="#171729"/>
<path d="M486.528 48H460.989H455.516V53.4727V79.0121V84.4848H460.989H486.528H492.001V79.0121V53.4727V48H486.528ZM486.528 79.0121H460.989V53.4727H486.528V79.0121Z" fill="#171729"/>
<path d="M351.012 183.515H325.473H320V188.988V214.527V220H325.473H351.012H356.485V214.527V188.988V183.515H351.012ZM351.012 214.527H325.473V188.988H351.012V214.527Z" fill="#171729"/>
<path d="M346.06 58.4243H330.423V74.0607H346.06V58.4243Z" fill="#171729"/>
<path d="M481.576 58.4243H465.94V74.0607H481.576V58.4243Z" fill="#171729"/>
<path d="M346.06 193.939H330.423V209.576H346.06V193.939Z" fill="#171729"/>
<path d="M68.0885 7.01105V1.71241H69.6188C70.0397 1.71241 70.3935 1.77299 70.6805 1.89413C70.9674 2.00891 71.2001 2.18106 71.3787 2.41061C71.5636 2.63378 71.6943 2.90795 71.7708 3.23314C71.8537 3.55195 71.8951 3.9154 71.8951 4.32347C71.8951 4.74431 71.8505 5.10456 71.7612 5.40424C71.6784 5.69755 71.57 5.94303 71.4361 6.1407C71.3022 6.33836 71.1491 6.49458 70.977 6.60935C70.8112 6.72412 70.6422 6.81339 70.4701 6.87715C70.2979 6.93454 70.1353 6.9728 69.9823 6.99192C69.8293 7.00468 69.7017 7.01105 69.5997 7.01105H68.0885ZM67.1799 0.947266V7.7762H69.5232C70.0907 7.7762 70.5816 7.6965 70.9961 7.53709C71.4106 7.37768 71.7517 7.14814 72.0195 6.84846C72.2873 6.5424 72.4849 6.16939 72.6125 5.72943C72.74 5.2831 72.8038 4.773 72.8038 4.19914C72.8038 3.10243 72.52 2.28627 71.9525 1.75067C71.385 1.21507 70.5753 0.947266 69.5232 0.947266H67.1799Z" fill="black"/>
<path d="M74.5646 5.3086C74.5646 5.00892 74.6028 4.74431 74.6793 4.51476C74.7622 4.27884 74.8738 4.08118 75.0141 3.92177C75.1544 3.76237 75.317 3.64122 75.5019 3.55833C75.6932 3.47544 75.894 3.43399 76.1044 3.43399C76.3148 3.43399 76.5125 3.47544 76.6974 3.55833C76.8887 3.64122 77.0545 3.76237 77.1948 3.92177C77.335 4.08118 77.4434 4.27884 77.5199 4.51476C77.6028 4.74431 77.6443 5.00892 77.6443 5.3086C77.6443 5.60828 77.6028 5.87609 77.5199 6.11201C77.4434 6.34155 77.335 6.53602 77.1948 6.69543C77.0545 6.84846 76.8887 6.96642 76.6974 7.04931C76.5125 7.1322 76.3148 7.17365 76.1044 7.17365C75.894 7.17365 75.6932 7.1322 75.5019 7.04931C75.317 6.96642 75.1544 6.84846 75.0141 6.69543C74.8738 6.53602 74.7622 6.34155 74.6793 6.11201C74.6028 5.87609 74.5646 5.60828 74.5646 5.3086ZM73.7038 5.3086C73.7038 5.67205 73.7548 6.00999 73.8568 6.32242C73.9588 6.63486 74.1119 6.90903 74.3159 7.14495C74.5199 7.3745 74.7718 7.55622 75.0715 7.69012C75.3712 7.81764 75.7155 7.88141 76.1044 7.88141C76.4997 7.88141 76.8441 7.81764 77.1374 7.69012C77.4371 7.55622 77.6889 7.3745 77.893 7.14495C78.097 6.90903 78.25 6.63486 78.352 6.32242C78.4541 6.00999 78.5051 5.67205 78.5051 5.3086C78.5051 4.94516 78.4541 4.60722 78.352 4.29478C78.25 3.97597 78.097 3.70179 77.893 3.47225C77.6889 3.23633 77.4371 3.05142 77.1374 2.91752C76.8441 2.78362 76.4997 2.71667 76.1044 2.71667C75.7155 2.71667 75.3712 2.78362 75.0715 2.91752C74.7718 3.05142 74.5199 3.23633 74.3159 3.47225C74.1119 3.70179 73.9588 3.97597 73.8568 4.29478C73.7548 4.60722 73.7038 4.94516 73.7038 5.3086Z" fill="black"/>
<path d="M84.5518 7.7762L86.1299 2.83144H85.2883L84.1788 6.87715H84.1597L83.1267 2.83144H82.2373L81.2426 6.87715H81.2234L80.1044 2.83144H79.2054L80.793 7.7762H81.673L82.6676 3.84526H82.6868L83.691 7.7762H84.5518Z" fill="black"/>
<path d="M87.0941 2.83144V7.7762H87.9071V4.98341C87.9071 4.76025 87.9358 4.55621 87.9932 4.3713C88.0569 4.18001 88.1494 4.01423 88.2706 3.87395C88.3917 3.73367 88.5415 3.62528 88.7201 3.54876C88.905 3.47225 89.1218 3.43399 89.3705 3.43399C89.6829 3.43399 89.9284 3.52326 90.1069 3.70179C90.2854 3.88033 90.3747 4.12262 90.3747 4.42868V7.7762H91.1877V4.52433C91.1877 4.25652 91.159 4.01423 91.1016 3.79744C91.0506 3.57427 90.9581 3.38298 90.8242 3.22358C90.6903 3.06417 90.515 2.93983 90.2982 2.85057C90.0814 2.7613 89.8104 2.71667 89.4852 2.71667C88.752 2.71667 88.2164 3.01635 87.8784 3.61571H87.8593V2.83144H87.0941Z" fill="black"/>
<path d="M92.6478 0.947266V7.7762H93.4608V0.947266H92.6478Z" fill="black"/>
<path d="M95.5045 5.3086C95.5045 5.00892 95.5427 4.74431 95.6192 4.51476C95.7021 4.27884 95.8137 4.08118 95.954 3.92177C96.0943 3.76237 96.2569 3.64122 96.4418 3.55833C96.6331 3.47544 96.8339 3.43399 97.0443 3.43399C97.2547 3.43399 97.4524 3.47544 97.6373 3.55833C97.8286 3.64122 97.9944 3.76237 98.1347 3.92177C98.2749 4.08118 98.3833 4.27884 98.4599 4.51476C98.5427 4.74431 98.5842 5.00892 98.5842 5.3086C98.5842 5.60828 98.5427 5.87609 98.4599 6.11201C98.3833 6.34155 98.2749 6.53602 98.1347 6.69543C97.9944 6.84846 97.8286 6.96642 97.6373 7.04931C97.4524 7.1322 97.2547 7.17365 97.0443 7.17365C96.8339 7.17365 96.6331 7.1322 96.4418 7.04931C96.2569 6.96642 96.0943 6.84846 95.954 6.69543C95.8137 6.53602 95.7021 6.34155 95.6192 6.11201C95.5427 5.87609 95.5045 5.60828 95.5045 5.3086ZM94.6437 5.3086C94.6437 5.67205 94.6947 6.00999 94.7967 6.32242C94.8987 6.63486 95.0518 6.90903 95.2558 7.14495C95.4598 7.3745 95.7117 7.55622 96.0114 7.69012C96.3111 7.81764 96.6554 7.88141 97.0443 7.88141C97.4397 7.88141 97.784 7.81764 98.0773 7.69012C98.377 7.55622 98.6288 7.3745 98.8329 7.14495C99.0369 6.90903 99.1899 6.63486 99.2919 6.32242C99.394 6.00999 99.445 5.67205 99.445 5.3086C99.445 4.94516 99.394 4.60722 99.2919 4.29478C99.1899 3.97597 99.0369 3.70179 98.8329 3.47225C98.6288 3.23633 98.377 3.05142 98.0773 2.91752C97.784 2.78362 97.4397 2.71667 97.0443 2.71667C96.6554 2.71667 96.3111 2.78362 96.0114 2.91752C95.7117 3.05142 95.4598 3.23633 95.2558 3.47225C95.0518 3.70179 94.8987 3.97597 94.7967 4.29478C94.6947 4.60722 94.6437 4.94516 94.6437 5.3086Z" fill="black"/>
<path d="M104.975 7.75707C104.835 7.83996 104.64 7.88141 104.392 7.88141C104.181 7.88141 104.012 7.82402 103.885 7.70925C103.764 7.5881 103.703 7.39363 103.703 7.12582C103.48 7.39363 103.219 7.5881 102.919 7.70925C102.626 7.82402 102.307 7.88141 101.962 7.88141C101.739 7.88141 101.526 7.8559 101.322 7.80489C101.124 7.75388 100.952 7.67418 100.805 7.56578C100.659 7.45739 100.541 7.31711 100.451 7.14495C100.368 6.96642 100.327 6.75281 100.327 6.50414C100.327 6.22359 100.375 5.99404 100.47 5.81551C100.566 5.63698 100.69 5.49351 100.843 5.38512C101.003 5.27034 101.181 5.18426 101.379 5.12688C101.583 5.06949 101.79 5.02167 102.001 4.98341C102.224 4.93878 102.434 4.9069 102.632 4.88777C102.836 4.86227 103.015 4.83038 103.168 4.79213C103.321 4.74749 103.442 4.68692 103.531 4.6104C103.62 4.52751 103.665 4.40955 103.665 4.25652C103.665 4.07799 103.63 3.93453 103.56 3.82613C103.496 3.71773 103.41 3.63484 103.301 3.57746C103.199 3.52007 103.082 3.48181 102.948 3.46268C102.82 3.44356 102.693 3.43399 102.565 3.43399C102.221 3.43399 101.934 3.50094 101.704 3.63484C101.475 3.76237 101.35 4.00785 101.331 4.3713H100.518C100.531 4.06524 100.595 3.807 100.71 3.59659C100.824 3.38617 100.977 3.2172 101.169 3.08968C101.36 2.95578 101.577 2.86013 101.819 2.80275C102.068 2.74536 102.332 2.71667 102.613 2.71667C102.836 2.71667 103.056 2.73261 103.273 2.76449C103.496 2.79637 103.697 2.86332 103.875 2.96534C104.054 3.06098 104.197 3.19807 104.306 3.37661C104.414 3.55514 104.468 3.78787 104.468 4.0748V6.61891C104.468 6.8102 104.478 6.95048 104.497 7.03975C104.523 7.12901 104.599 7.17365 104.727 7.17365C104.797 7.17365 104.88 7.1577 104.975 7.12582V7.75707ZM103.655 5.22252C103.553 5.29904 103.419 5.35642 103.254 5.39468C103.088 5.42656 102.913 5.45525 102.728 5.48076C102.549 5.49989 102.367 5.52539 102.182 5.55727C101.998 5.58278 101.832 5.62741 101.685 5.69117C101.538 5.75494 101.417 5.84739 101.322 5.96854C101.232 6.08331 101.188 6.24272 101.188 6.44676C101.188 6.58066 101.213 6.69543 101.264 6.79107C101.322 6.88034 101.392 6.95367 101.475 7.01105C101.564 7.06844 101.666 7.10988 101.781 7.13539C101.896 7.16089 102.017 7.17365 102.144 7.17365C102.412 7.17365 102.642 7.13858 102.833 7.06844C103.024 6.99192 103.18 6.89947 103.301 6.79107C103.423 6.6763 103.512 6.55515 103.569 6.42763C103.627 6.29373 103.655 6.16939 103.655 6.05462V5.22252Z" fill="black"/>
<path d="M106.516 5.34686C106.516 5.10456 106.542 4.86864 106.593 4.6391C106.644 4.40955 106.727 4.20551 106.841 4.02698C106.956 3.84845 107.109 3.70498 107.3 3.59659C107.492 3.48819 107.724 3.43399 107.999 3.43399C108.279 3.43399 108.518 3.48819 108.716 3.59659C108.914 3.69861 109.073 3.83569 109.194 4.00785C109.322 4.18001 109.414 4.38086 109.472 4.6104C109.529 4.83357 109.558 5.0663 109.558 5.3086C109.558 5.53814 109.529 5.7645 109.472 5.98767C109.421 6.21084 109.334 6.41169 109.213 6.59022C109.092 6.76238 108.936 6.90266 108.745 7.01105C108.553 7.11945 108.321 7.17365 108.046 7.17365C107.785 7.17365 107.555 7.12264 107.358 7.02062C107.167 6.9186 107.007 6.78151 106.88 6.60935C106.758 6.43719 106.666 6.24272 106.602 6.02593C106.545 5.80276 106.516 5.5764 106.516 5.34686ZM110.342 7.7762V0.947266H109.529V3.49138H109.51C109.421 3.34472 109.309 3.22358 109.175 3.12793C109.048 3.02591 108.91 2.94621 108.764 2.88882C108.617 2.82506 108.47 2.78043 108.324 2.75492C108.177 2.72942 108.04 2.71667 107.913 2.71667C107.536 2.71667 107.205 2.78681 106.918 2.92708C106.637 3.06098 106.401 3.24589 106.21 3.48181C106.025 3.71136 105.885 3.98235 105.789 4.29478C105.7 4.60722 105.655 4.93878 105.655 5.28947C105.655 5.64016 105.703 5.97173 105.799 6.28416C105.894 6.5966 106.035 6.87078 106.22 7.1067C106.411 7.34262 106.647 7.53071 106.927 7.67099C107.214 7.81127 107.549 7.88141 107.932 7.88141C108.276 7.88141 108.592 7.82083 108.879 7.69968C109.165 7.57854 109.376 7.38087 109.51 7.1067H109.529V7.7762H110.342Z" fill="black"/>
<path d="M115.23 5.3086C115.23 5.00892 115.268 4.74431 115.345 4.51476C115.428 4.27884 115.539 4.08118 115.68 3.92177C115.82 3.76237 115.983 3.64122 116.167 3.55833C116.359 3.47544 116.56 3.43399 116.77 3.43399C116.98 3.43399 117.178 3.47544 117.363 3.55833C117.554 3.64122 117.72 3.76237 117.86 3.92177C118.001 4.08118 118.109 4.27884 118.186 4.51476C118.268 4.74431 118.31 5.00892 118.31 5.3086C118.31 5.60828 118.268 5.87609 118.186 6.11201C118.109 6.34155 118.001 6.53602 117.86 6.69543C117.72 6.84846 117.554 6.96642 117.363 7.04931C117.178 7.1322 116.98 7.17365 116.77 7.17365C116.56 7.17365 116.359 7.1322 116.167 7.04931C115.983 6.96642 115.82 6.84846 115.68 6.69543C115.539 6.53602 115.428 6.34155 115.345 6.11201C115.268 5.87609 115.23 5.60828 115.23 5.3086ZM114.369 5.3086C114.369 5.67205 114.42 6.00999 114.522 6.32242C114.624 6.63486 114.777 6.90903 114.981 7.14495C115.186 7.3745 115.437 7.55622 115.737 7.69012C116.037 7.81764 116.381 7.88141 116.77 7.88141C117.165 7.88141 117.51 7.81764 117.803 7.69012C118.103 7.55622 118.355 7.3745 118.559 7.14495C118.763 6.90903 118.916 6.63486 119.018 6.32242C119.12 6.00999 119.171 5.67205 119.171 5.3086C119.171 4.94516 119.12 4.60722 119.018 4.29478C118.916 3.97597 118.763 3.70179 118.559 3.47225C118.355 3.23633 118.103 3.05142 117.803 2.91752C117.51 2.78362 117.165 2.71667 116.77 2.71667C116.381 2.71667 116.037 2.78362 115.737 2.91752C115.437 3.05142 115.186 3.23633 114.981 3.47225C114.777 3.70179 114.624 3.97597 114.522 4.29478C114.42 4.60722 114.369 4.94516 114.369 5.3086Z" fill="black"/>
<path d="M120.32 2.83144V7.7762H121.133V4.98341C121.133 4.76025 121.162 4.55621 121.22 4.3713C121.283 4.18001 121.376 4.01423 121.497 3.87395C121.618 3.73367 121.768 3.62528 121.946 3.54876C122.131 3.47225 122.348 3.43399 122.597 3.43399C122.909 3.43399 123.155 3.52326 123.333 3.70179C123.512 3.88033 123.601 4.12262 123.601 4.42868V7.7762H124.414V4.52433C124.414 4.25652 124.385 4.01423 124.328 3.79744C124.277 3.57427 124.184 3.38298 124.051 3.22358C123.917 3.06417 123.741 2.93983 123.525 2.85057C123.308 2.7613 123.037 2.71667 122.712 2.71667C121.978 2.71667 121.443 3.01635 121.105 3.61571H121.086V2.83144H120.32Z" fill="black"/>
<path d="M129.808 2.83144V1.34897H128.995V2.83144H128.154V3.54876H128.995V6.69543C128.995 6.92497 129.017 7.10988 129.062 7.25016C129.107 7.39044 129.174 7.49883 129.263 7.57535C129.359 7.65186 129.48 7.70606 129.626 7.73794C129.779 7.76345 129.961 7.7762 130.172 7.7762H130.793V7.05887H130.42C130.293 7.05887 130.188 7.05569 130.105 7.04931C130.028 7.03656 129.968 7.01424 129.923 6.98236C129.878 6.95048 129.846 6.90584 129.827 6.84846C129.815 6.79107 129.808 6.71456 129.808 6.61891V3.54876H130.793V2.83144H129.808Z" fill="black"/>
<path d="M131.888 0.947266V7.7762H132.701V4.98341C132.701 4.76025 132.729 4.55621 132.787 4.3713C132.851 4.18001 132.943 4.01423 133.064 3.87395C133.185 3.73367 133.335 3.62528 133.514 3.54876C133.699 3.47225 133.915 3.43399 134.164 3.43399C134.476 3.43399 134.722 3.52326 134.9 3.70179C135.079 3.88033 135.168 4.12262 135.168 4.42868V7.7762H135.981V4.52433C135.981 4.25652 135.953 4.01423 135.895 3.79744C135.844 3.57427 135.752 3.38298 135.618 3.22358C135.484 3.06417 135.309 2.93983 135.092 2.85057C134.875 2.7613 134.604 2.71667 134.279 2.71667C134.132 2.71667 133.979 2.73261 133.82 2.76449C133.667 2.79637 133.517 2.84738 133.37 2.91752C133.23 2.98128 133.102 3.06736 132.988 3.17575C132.873 3.27777 132.784 3.4053 132.72 3.55833H132.701V0.947266H131.888Z" fill="black"/>
<path d="M140.827 4.83038H137.987C137.999 4.6391 138.041 4.46056 138.111 4.29478C138.181 4.12262 138.277 3.97278 138.398 3.84526C138.519 3.71773 138.662 3.6189 138.828 3.54876C139 3.47225 139.192 3.43399 139.402 3.43399C139.606 3.43399 139.791 3.47225 139.957 3.54876C140.129 3.6189 140.276 3.71773 140.397 3.84526C140.524 3.96641 140.623 4.11306 140.693 4.28522C140.77 4.45738 140.814 4.6391 140.827 4.83038ZM141.611 6.20765H140.808C140.738 6.53284 140.591 6.77513 140.368 6.93454C140.151 7.09394 139.871 7.17365 139.526 7.17365C139.259 7.17365 139.026 7.12901 138.828 7.03975C138.631 6.95048 138.468 6.83252 138.34 6.68587C138.213 6.53284 138.12 6.36068 138.063 6.16939C138.006 5.97173 137.98 5.7645 137.987 5.54771H141.688C141.701 5.24803 141.672 4.9324 141.602 4.60084C141.538 4.26928 141.417 3.96322 141.238 3.68266C141.066 3.40211 140.834 3.17257 140.54 2.99403C140.253 2.80912 139.89 2.71667 139.45 2.71667C139.112 2.71667 138.799 2.78043 138.513 2.90795C138.232 3.03548 137.987 3.21401 137.776 3.44356C137.572 3.6731 137.413 3.94409 137.298 4.25652C137.183 4.56896 137.126 4.91328 137.126 5.28947C137.138 5.66567 137.193 6.01317 137.288 6.33198C137.39 6.6508 137.54 6.92497 137.738 7.15452C137.936 7.38406 138.178 7.5626 138.465 7.69012C138.758 7.81764 139.102 7.88141 139.498 7.88141C140.059 7.88141 140.524 7.74113 140.894 7.46058C141.264 7.18002 141.503 6.76238 141.611 6.20765Z" fill="black"/>
<path d="M82.7099 14.0596C84.9854 14.0597 86.4854 15.8457 86.4854 18.6045C86.4854 21.371 84.9942 23.1484 82.7437 23.1484C81.5805 23.2088 80.4848 22.6039 79.9227 21.5909H79.8801V26.0003H78.0397V14.1528H79.8211V15.6335H79.855C80.442 14.6268 81.5389 14.0222 82.7099 14.0596ZM92.5781 14.0597C94.8538 14.0597 96.3537 15.8457 96.3537 18.6045C96.3537 21.371 94.8625 23.1484 92.612 23.1484C91.4488 23.2088 90.3531 22.6039 89.791 21.5909H89.7484V26.0003H87.908V14.1528H89.6894V15.6335H89.7232C90.3103 14.6268 91.4072 14.0222 92.5781 14.0597ZM105.791 10.6411C108.389 10.6411 110.171 12.0882 110.231 14.195H108.373C108.262 12.9764 107.247 12.2409 105.765 12.2409C104.282 12.2409 103.268 12.9851 103.268 14.0682C103.268 14.9315 103.915 15.4395 105.501 15.8283L106.855 16.1587C109.379 16.7512 110.427 17.7575 110.427 19.5436C110.427 21.828 108.594 23.2588 105.679 23.2588C102.952 23.2588 101.111 21.8616 100.992 19.653L102.876 19.6531C103.012 20.864 104.197 21.659 105.816 21.659C107.367 21.659 108.483 20.8639 108.483 19.7721C108.483 18.8244 107.81 18.2569 106.216 17.868L104.622 17.4867C102.364 16.9452 101.316 15.8966 101.316 14.195C101.316 12.0882 103.165 10.6411 105.791 10.6411ZM121.344 14.0433C123.943 14.0433 125.597 15.8034 125.597 18.6045C125.597 21.4132 123.952 23.1657 121.344 23.1657C118.736 23.1657 117.091 21.4132 117.091 18.6045C117.091 15.8035 118.753 14.0433 121.344 14.0433ZM136.247 14.0433C138.727 14.0433 140.287 15.7353 140.287 18.4345V19.0606H133.955V19.1711C133.896 19.8338 134.126 20.4899 134.588 20.9723C135.049 21.4548 135.697 21.7171 136.367 21.6927C137.26 21.7757 138.102 21.2665 138.437 20.4405L140.185 20.4405C139.937 22.0566 138.352 23.1657 136.324 23.1657C133.716 23.1657 132.097 21.4305 132.097 18.6468C132.097 15.8544 133.724 14.0433 136.247 14.0433ZM114.399 12.046V14.1528H116.104V15.5999H114.399V20.5077C114.399 21.2702 114.74 21.6255 115.49 21.6255C115.692 21.6219 115.894 21.6078 116.095 21.5832V23.0216C115.758 23.0841 115.416 23.1125 115.073 23.1061C113.258 23.1061 112.55 22.4291 112.55 20.7026V15.5999H111.246V14.1528H112.55V12.046H114.399ZM72.4566 10.8447L76.8966 23.0553H74.8773L73.7526 19.7549H69.065L67.9393 23.0553H65.9539L70.3938 10.8447H72.4566ZM131.069 14.0596C131.281 14.0589 131.492 14.0818 131.699 14.1278V15.8371C131.432 15.7558 131.152 15.7185 130.872 15.7266C130.331 15.7048 129.808 15.9189 129.439 16.3127C129.07 16.7065 128.893 17.2406 128.955 17.7748V23.0553H127.114V14.1528H128.87V15.6681H128.912C129.157 14.6926 130.057 14.0213 131.069 14.0596ZM121.344 15.549C119.852 15.549 118.967 16.6917 118.967 18.6045C118.967 20.5337 119.852 21.6591 121.344 21.6591C122.835 21.6591 123.722 20.5337 123.722 18.6045C123.722 16.6831 122.835 15.549 121.344 15.549ZM82.2244 15.6172C80.8182 15.6172 79.8724 16.8271 79.8724 18.6045C79.8724 20.3983 80.8182 21.5995 82.2244 21.5995C83.6557 21.5995 84.5938 20.4232 84.5938 18.6045C84.5938 16.8021 83.6557 15.6172 82.2244 15.6172ZM92.0927 15.6172C90.6865 15.6172 89.7407 16.8271 89.7407 18.6045C89.7407 20.3983 90.6865 21.5995 92.0927 21.5995C93.524 21.5995 94.4621 20.4232 94.4621 18.6045C94.4621 16.8021 93.524 15.6172 92.0927 15.6172ZM71.4345 12.8757H71.3832L69.5505 18.2319H73.2662L71.4345 12.8757ZM136.247 15.524C135.641 15.5204 135.06 15.7571 134.631 16.1814C134.202 16.6057 133.962 17.1824 133.963 17.7835H138.446C138.479 17.1879 138.261 16.6056 137.843 16.1767C137.426 15.7478 136.847 15.5112 136.247 15.524Z" fill="black"/>
<path fill-rule="evenodd" clip-rule="evenodd" d="M46.3282 12.6872C46.3523 10.8285 47.3337 9.11163 48.9286 8.13808C47.9179 6.70487 46.2858 5.82876 44.5245 5.77404C42.6715 5.58093 40.8752 6.87497 39.9309 6.87497C38.9684 6.87497 37.5146 5.79322 35.9491 5.8252C33.8893 5.89127 32.0155 7.0259 31.0134 8.81396C28.8793 12.4826 30.4712 17.8743 32.5154 20.8398C33.5382 22.2919 34.7336 23.9139 36.2977 23.8564C37.8282 23.7934 38.3999 22.8873 40.2474 22.8873C42.0778 22.8873 42.6141 23.8564 44.2099 23.8198C45.8523 23.7934 46.8871 22.3613 47.874 20.8954C48.6088 19.8607 49.1743 18.7172 49.5495 17.5071C47.5988 16.688 46.3305 14.7902 46.3282 12.6872Z" fill="black"/>
<path fill-rule="evenodd" clip-rule="evenodd" d="M43.3143 3.82446C44.2097 2.75708 44.6509 1.38514 44.5441 0C43.176 0.142675 41.9122 0.791906 41.0047 1.81833C40.1085 2.83104 39.6544 4.15594 39.7426 5.50121C41.1291 5.51538 42.4455 4.89738 43.3143 3.82446Z" fill="black"/>
<path d="M46.9076 48H41.6954V53.2121H46.9076V48Z" fill="#171729"/>
<path d="M62.5461 48H57.334V53.2121H62.5461V48Z" fill="#171729"/>
<path d="M67.759 48H62.5469V53.2121H67.759V48Z" fill="#171729"/>
<path d="M72.9688 48H67.7567V53.2121H72.9688V48Z" fill="#171729"/>
<path d="M83.3957 48H78.1836V53.2121H83.3957V48Z" fill="#171729"/>
<path d="M99.0294 48H93.8173V53.2121H99.0294V48Z" fill="#171729"/>
<path d="M125.091 48H119.879V53.2121H125.091V48Z" fill="#171729"/>
<path d="M52.1225 53.2124H46.9104V58.4245H52.1225V53.2124Z" fill="#171729"/>
<path d="M57.3328 53.2119H52.1207V58.424H57.3328V53.2119Z" fill="#171729"/>
<path d="M62.5461 53.2119H57.334V58.424H62.5461V53.2119Z" fill="#171729"/>
<path d="M67.759 53.2119H62.5469V58.424H67.759V53.2119Z" fill="#171729"/>
<path d="M72.9688 53.2119H67.7567V58.424H72.9688V53.2119Z" fill="#171729"/>
<path d="M78.1816 53.2119H72.9695V58.424H78.1816V53.2119Z" fill="#171729"/>
<path d="M99.0294 53.2119H93.8173V58.424H99.0294V53.2119Z" fill="#171729"/>
<path d="M104.243 53.2119H99.0305V58.424H104.243V53.2119Z" fill="#171729"/>
<path d="M57.3328 58.4243H52.1207V63.6364H57.3328V58.4243Z" fill="#171729"/>
<path d="M67.759 58.4243H62.5469V63.6364H67.759V58.4243Z" fill="#171729"/>
<path d="M78.1816 58.4243H72.9695V63.6364H78.1816V58.4243Z" fill="#171729"/>
<path d="M83.3957 58.4243H78.1836V63.6364H83.3957V58.4243Z" fill="#171729"/>
<path d="M88.6058 58.4243H83.3937V63.6364H88.6058V58.4243Z" fill="#171729"/>
<path d="M93.8184 58.4243H88.6063V63.6364H93.8184V58.4243Z" fill="#171729"/>
<path d="M99.0294 58.4243H93.8173V63.6364H99.0294V58.4243Z" fill="#171729"/>
<path d="M104.243 58.4243H99.0305V63.6364H104.243V58.4243Z" fill="#171729"/>
<path d="M114.665 58.4243H109.453V63.6364H114.665V58.4243Z" fill="#171729"/>
<path d="M125.091 58.4243H119.879V63.6364H125.091V58.4243Z" fill="#171729"/>
<path d="M46.9076 63.6362H41.6954V68.8484H46.9076V63.6362Z" fill="#171729"/>
<path d="M52.1225 63.6362H46.9104V68.8484H52.1225V63.6362Z" fill="#171729"/>
<path d="M62.5461 63.6362H57.334V68.8484H62.5461V63.6362Z" fill="#171729"/>
<path d="M67.759 63.6362H62.5469V68.8484H67.759V63.6362Z" fill="#171729"/>
<path d="M88.6058 63.6362H83.3937V68.8484H88.6058V63.6362Z" fill="#171729"/>
<path d="M93.8184 63.6362H88.6063V68.8484H93.8184V63.6362Z" fill="#171729"/>
<path d="M114.665 63.6362H109.453V68.8484H114.665V63.6362Z" fill="#171729"/>
<path d="M119.878 63.6362H114.666V68.8484H119.878V63.6362Z" fill="#171729"/>
<path d="M46.9076 68.8486H41.6954V74.0608H46.9076V68.8486Z" fill="#171729"/>
<path d="M52.1225 68.8486H46.9104V74.0608H52.1225V68.8486Z" fill="#171729"/>
<path d="M88.6058 68.8486H83.3937V74.0608H88.6058V68.8486Z" fill="#171729"/>
<path d="M93.8184 68.8486H88.6063V74.0608H93.8184V68.8486Z" fill="#171729"/>
<path d="M104.243 68.8486H99.0305V74.0608H104.243V68.8486Z" fill="#171729"/>
<path d="M114.665 68.8486H109.453V74.0608H114.665V68.8486Z" fill="#171729"/>
<path d="M119.878 68.8486H114.666V74.0608H119.878V68.8486Z" fill="#171729"/>
<path d="M46.9076 74.0605H41.6954V79.2727H46.9076V74.0605Z" fill="#171729"/>
<path d="M52.1225 74.0605H46.9104V79.2727H52.1225V74.0605Z" fill="#171729"/>
<path d="M57.3328 74.0605H52.1207V79.2727H57.3328V74.0605Z" fill="#171729"/>
<path d="M67.759 74.0605H62.5469V79.2727H67.759V74.0605Z" fill="#171729"/>
<path d="M83.3957 74.0605H78.1836V79.2727H83.3957V74.0605Z" fill="#171729"/>
<path d="M93.8184 74.0605H88.6063V79.2727H93.8184V74.0605Z" fill="#171729"/>
<path d="M109.455 74.0605H104.243V79.2727H109.455V74.0605Z" fill="#171729"/>
<path d="M114.665 74.0605H109.453V79.2727H114.665V74.0605Z" fill="#171729"/>
<path d="M119.878 74.0605H114.666V79.2727H119.878V74.0605Z" fill="#171729"/>
<path d="M125.091 74.0605H119.879V79.2727H125.091V74.0605Z" fill="#171729"/>
<path d="M130.302 74.0605H125.09V79.2727H130.302V74.0605Z" fill="#171729"/>
<path d="M46.9076 79.2729H41.6954V84.4851H46.9076V79.2729Z" fill="#171729"/>
<path d="M57.3328 79.2729H52.1207V84.4851H57.3328V79.2729Z" fill="#171729"/>
<path d="M67.759 79.2729H62.5469V84.4851H67.759V79.2729Z" fill="#171729"/>
<path d="M78.1816 79.2729H72.9695V84.4851H78.1816V79.2729Z" fill="#171729"/>
<path d="M88.6058 79.2729H83.3937V84.4851H88.6058V79.2729Z" fill="#171729"/>
<path d="M99.0294 79.2729H93.8173V84.4851H99.0294V79.2729Z" fill="#171729"/>
<path d="M109.455 79.2729H104.243V84.4851H109.455V79.2729Z" fill="#171729"/>
<path d="M119.878 79.2729H114.666V84.4851H119.878V79.2729Z" fill="#171729"/>
<path d="M130.302 79.2729H125.09V84.4851H130.302V79.2729Z" fill="#171729"/>
<path d="M46.9076 84.4849H41.6954V89.697H46.9076V84.4849Z" fill="#171729"/>
<path d="M62.5461 84.4849H57.334V89.697H62.5461V84.4849Z" fill="#171729"/>
<path d="M78.1816 84.4849H72.9695V89.697H78.1816V84.4849Z" fill="#171729"/>
<path d="M93.8184 84.4849H88.6063V89.697H93.8184V84.4849Z" fill="#171729"/>
<path d="M99.0294 84.4849H93.8173V89.697H99.0294V84.4849Z" fill="#171729"/>
<path d="M104.243 84.4849H99.0305V89.697H104.243V84.4849Z" fill="#171729"/>
<path d="M109.455 84.4849H104.243V89.697H109.455V84.4849Z" fill="#171729"/>
<path d="M114.665 84.4849H109.453V89.697H114.665V84.4849Z" fill="#171729"/>
<path d="M130.302 84.4849H125.09V89.697H130.302V84.4849Z" fill="#171729"/>
<path d="M5.21212 89.6968H0V94.9089H5.21212V89.6968Z" fill="#171729"/>
<path d="M26.0608 89.6968H20.8486V94.9089H26.0608V89.6968Z" fill="#171729"/>
<path d="M36.4834 89.6968H31.2712V94.9089H36.4834V89.6968Z" fill="#171729"/>
<path d="M41.6966 89.6968H36.4845V94.9089H41.6966V89.6968Z" fill="#171729"/>
<path d="M46.9076 89.6968H41.6954V94.9089H46.9076V89.6968Z" fill="#171729"/>
<path d="M57.3328 89.6968H52.1207V94.9089H57.3328V89.6968Z" fill="#171729"/>
<path d="M67.759 89.6968H62.5469V94.9089H67.759V89.6968Z" fill="#171729"/>
<path d="M83.3957 89.6968H78.1836V94.9089H83.3957V89.6968Z" fill="#171729"/>
<path d="M93.8184 89.6968H88.6063V94.9089H93.8184V89.6968Z" fill="#171729"/>
<path d="M109.455 89.6968H104.243V94.9089H109.455V89.6968Z" fill="#171729"/>
<path d="M114.665 89.6968H109.453V94.9089H114.665V89.6968Z" fill="#171729"/>
<path d="M119.878 89.6968H114.666V94.9089H119.878V89.6968Z" fill="#171729"/>
<path d="M125.091 89.6968H119.879V94.9089H125.091V89.6968Z" fill="#171729"/>
<path d="M135.517 89.6968H130.305V94.9089H135.517V89.6968Z" fill="#171729"/>
<path d="M140.728 89.6968H135.516V94.9089H140.728V89.6968Z" fill="#171729"/>
<path d="M145.941 89.6968H140.729V94.9089H145.941V89.6968Z" fill="#171729"/>
<path d="M151.152 89.6968H145.94V94.9089H151.152V89.6968Z" fill="#171729"/>
<path d="M156.363 89.6968H151.15V94.9089H156.363V89.6968Z" fill="#171729"/>
<path d="M172 89.6968H166.788V94.9089H172V89.6968Z" fill="#171729"/>
<path d="M10.4238 94.9092H5.21167V100.121H10.4238V94.9092Z" fill="#171729"/>
<path d="M31.2724 94.9092H26.0603V100.121H31.2724V94.9092Z" fill="#171729"/>
<path d="M41.6966 94.9092H36.4845V100.121H41.6966V94.9092Z" fill="#171729"/>
<path d="M57.3328 94.9092H52.1207V100.121H57.3328V94.9092Z" fill="#171729"/>
<path d="M62.5461 94.9092H57.334V100.121H62.5461V94.9092Z" fill="#171729"/>
<path d="M83.3957 94.9092H78.1836V100.121H83.3957V94.9092Z" fill="#171729"/>
<path d="M88.6058 94.9092H83.3937V100.121H88.6058V94.9092Z" fill="#171729"/>
<path d="M93.8184 94.9092H88.6063V100.121H93.8184V94.9092Z" fill="#171729"/>
<path d="M99.0294 94.9092H93.8173V100.121H99.0294V94.9092Z" fill="#171729"/>
<path d="M114.665 94.9092H109.453V100.121H114.665V94.9092Z" fill="#171729"/>
<path d="M119.878 94.9092H114.666V100.121H119.878V94.9092Z" fill="#171729"/>
<path d="M125.091 94.9092H119.879V100.121H125.091V94.9092Z" fill="#171729"/>
<path d="M135.517 94.9092H130.305V100.121H135.517V94.9092Z" fill="#171729"/>
<path d="M156.363 94.9092H151.15V100.121H156.363V94.9092Z" fill="#171729"/>
<path d="M161.575 94.9092H156.363V100.121H161.575V94.9092Z" fill="#171729"/>
<path d="M172 94.9092H166.788V100.121H172V94.9092Z" fill="#171729"/>
<path d="M5.21212 100.121H0V105.333H5.21212V100.121Z" fill="#171729"/>
<path d="M15.6355 100.121H10.4233V105.333H15.6355V100.121Z" fill="#171729"/>
<path d="M26.0608 100.121H20.8486V105.333H26.0608V100.121Z" fill="#171729"/>
<path d="M31.2724 100.121H26.0603V105.333H31.2724V100.121Z" fill="#171729"/>
<path d="M36.4834 100.121H31.2712V105.333H36.4834V100.121Z" fill="#171729"/>
<path d="M41.6966 100.121H36.4845V105.333H41.6966V100.121Z" fill="#171729"/>
<path d="M46.9076 100.121H41.6954V105.333H46.9076V100.121Z" fill="#171729"/>
<path d="M72.9688 100.121H67.7567V105.333H72.9688V100.121Z" fill="#171729"/>
<path d="M78.1816 100.121H72.9695V105.333H78.1816V100.121Z" fill="#171729"/>
<path d="M83.3957 100.121H78.1836V105.333H83.3957V100.121Z" fill="#171729"/>
<path d="M99.0294 100.121H93.8173V105.333H99.0294V100.121Z" fill="#171729"/>
<path d="M125.091 100.121H119.879V105.333H125.091V100.121Z" fill="#171729"/>
<path d="M135.517 100.121H130.305V105.333H135.517V100.121Z" fill="#171729"/>
<path d="M156.363 100.121H151.15V105.333H156.363V100.121Z" fill="#171729"/>
<path d="M166.789 100.121H161.577V105.333H166.789V100.121Z" fill="#171729"/>
<path d="M15.6355 105.333H10.4233V110.546H15.6355V105.333Z" fill="#171729"/>
<path d="M26.0608 105.333H20.8486V110.546H26.0608V105.333Z" fill="#171729"/>
<path d="M41.6966 105.333H36.4845V110.546H41.6966V105.333Z" fill="#171729"/>
<path d="M57.3328 105.333H52.1207V110.546H57.3328V105.333Z" fill="#171729"/>
<path d="M67.759 105.333H62.5469V110.546H67.759V105.333Z" fill="#171729"/>
<path d="M72.9688 105.333H67.7567V110.546H72.9688V105.333Z" fill="#171729"/>
<path d="M88.6058 105.333H83.3937V110.546H88.6058V105.333Z" fill="#171729"/>
<path d="M104.243 105.333H99.0305V110.546H104.243V105.333Z" fill="#171729"/>
<path d="M109.455 105.333H104.243V110.546H109.455V105.333Z" fill="#171729"/>
<path d="M119.878 105.333H114.666V110.546H119.878V105.333Z" fill="#171729"/>
<path d="M130.302 105.333H125.09V110.546H130.302V105.333Z" fill="#171729"/>
<path d="M135.517 105.333H130.305V110.546H135.517V105.333Z" fill="#171729"/>
<path d="M140.728 105.333H135.516V110.546H140.728V105.333Z" fill="#171729"/>
<path d="M5.21212 110.545H0V115.758H5.21212V110.545Z" fill="#171729"/>
<path d="M15.6355 110.545H10.4233V115.758H15.6355V110.545Z" fill="#171729"/>
<path d="M20.8491 110.545H15.637V115.758H20.8491V110.545Z" fill="#171729"/>
<path d="M36.4834 110.545H31.2712V115.758H36.4834V110.545Z" fill="#171729"/>
<path d="M46.9076 110.545H41.6954V115.758H46.9076V110.545Z" fill="#171729"/>
<path d="M57.3328 110.545H52.1207V115.758H57.3328V110.545Z" fill="#171729"/>
<path d="M67.759 110.545H62.5469V115.758H67.759V110.545Z" fill="#171729"/>
<path d="M72.9688 110.545H67.7567V115.758H72.9688V110.545Z" fill="#171729"/>
<path d="M88.6058 110.545H83.3937V115.758H88.6058V110.545Z" fill="#171729"/>
<path d="M119.878 110.545H114.666V115.758H119.878V110.545Z" fill="#171729"/>
<path d="M125.091 110.545H119.879V115.758H125.091V110.545Z" fill="#171729"/>
<path d="M130.302 110.545H125.09V115.758H130.302V110.545Z" fill="#171729"/>
<path d="M140.728 110.545H135.516V115.758H140.728V110.545Z" fill="#171729"/>
<path d="M145.941 110.545H140.729V115.758H145.941V110.545Z" fill="#171729"/>
<path d="M156.363 110.545H151.15V115.758H156.363V110.545Z" fill="#171729"/>
<path d="M172 110.545H166.788V115.758H172V110.545Z" fill="#171729"/>
<path d="M5.21212 115.757H0V120.969H5.21212V115.757Z" fill="#171729"/>
<path d="M15.6355 115.758H10.4233V120.97H15.6355V115.758Z" fill="#171729"/>
<path d="M20.8491 115.758H15.637V120.97H20.8491V115.758Z" fill="#171729"/>
<path d="M26.0608 115.758H20.8486V120.97H26.0608V115.758Z" fill="#171729"/>
<path d="M31.2724 115.758H26.0603V120.97H31.2724V115.758Z" fill="#171729"/>
<path d="M41.6966 115.758H36.4845V120.97H41.6966V115.758Z" fill="#171729"/>
<path d="M57.3328 115.758H52.1207V120.97H57.3328V115.758Z" fill="#171729"/>
<path d="M62.5461 115.758H57.334V120.97H62.5461V115.758Z" fill="#171729"/>
<path d="M78.1816 115.758H72.9695V120.97H78.1816V115.758Z" fill="#171729"/>
<path d="M93.8184 115.757H88.6063V120.969H93.8184V115.757Z" fill="#171729"/>
<path d="M99.0294 115.757H93.8173V120.969H99.0294V115.757Z" fill="#171729"/>
<path d="M104.243 115.758H99.0305V120.97H104.243V115.758Z" fill="#171729"/>
<path d="M109.455 115.758H104.243V120.97H109.455V115.758Z" fill="#171729"/>
<path d="M130.302 115.758H125.09V120.97H130.302V115.758Z" fill="#171729"/>
<path d="M135.517 115.758H130.305V120.97H135.517V115.758Z" fill="#171729"/>
<path d="M145.941 115.758H140.729V120.97H145.941V115.758Z" fill="#171729"/>
<path d="M161.575 115.758H156.363V120.97H161.575V115.758Z" fill="#171729"/>
<path d="M15.6355 120.97H10.4233V126.182H15.6355V120.97Z" fill="#171729"/>
<path d="M26.0608 120.97H20.8486V126.182H26.0608V120.97Z" fill="#171729"/>
<path d="M31.2724 120.97H26.0603V126.182H31.2724V120.97Z" fill="#171729"/>
<path d="M36.4834 120.97H31.2712V126.182H36.4834V120.97Z" fill="#171729"/>
<path d="M57.3328 120.97H52.1207V126.182H57.3328V120.97Z" fill="#171729"/>
<path d="M62.5461 120.97H57.334V126.182H62.5461V120.97Z" fill="#171729"/>
<path d="M67.759 120.97H62.5469V126.182H67.759V120.97Z" fill="#171729"/>
<path d="M78.1816 120.97H72.9695V126.182H78.1816V120.97Z" fill="#171729"/>
<path d="M83.3957 120.97H78.1836V126.182H83.3957V120.97Z" fill="#171729"/>
<path d="M93.8184 120.97H88.6063V126.182H93.8184V120.97Z" fill="#171729"/>
<path d="M99.0294 120.97H93.8173V126.182H99.0294V120.97Z" fill="#171729"/>
<path d="M109.455 120.97H104.243V126.182H109.455V120.97Z" fill="#171729"/>
<path d="M114.665 120.97H109.453V126.182H114.665V120.97Z" fill="#171729"/>
<path d="M125.091 120.97H119.879V126.182H125.091V120.97Z" fill="#171729"/>
<path d="M130.302 120.97H125.09V126.182H130.302V120.97Z" fill="#171729"/>
<path d="M135.517 120.97H130.305V126.182H135.517V120.97Z" fill="#171729"/>
<path d="M140.728 120.97H135.516V126.182H140.728V120.97Z" fill="#171729"/>
<path d="M151.152 120.97H145.94V126.182H151.152V120.97Z" fill="#171729"/>
<path d="M166.789 120.97H161.577V126.182H166.789V120.97Z" fill="#171729"/>
<path d="M5.21212 126.182H0V131.394H5.21212V126.182Z" fill="#171729"/>
<path d="M10.4238 126.182H5.21167V131.394H10.4238V126.182Z" fill="#171729"/>
<path d="M15.6355 126.182H10.4233V131.394H15.6355V126.182Z" fill="#171729"/>
<path d="M20.8491 126.182H15.637V131.394H20.8491V126.182Z" fill="#171729"/>
<path d="M26.0608 126.182H20.8486V131.394H26.0608V126.182Z" fill="#171729"/>
<path d="M41.6966 126.182H36.4845V131.394H41.6966V126.182Z" fill="#171729"/>
<path d="M57.3328 126.182H52.1207V131.394H57.3328V126.182Z" fill="#171729"/>
<path d="M62.5461 126.182H57.334V131.394H62.5461V126.182Z" fill="#171729"/>
<path d="M72.9688 126.182H67.7567V131.394H72.9688V126.182Z" fill="#171729"/>
<path d="M78.1816 126.182H72.9695V131.394H78.1816V126.182Z" fill="#171729"/>
<path d="M83.3957 126.182H78.1836V131.394H83.3957V126.182Z" fill="#171729"/>
<path d="M88.6058 126.182H83.3937V131.394H88.6058V126.182Z" fill="#171729"/>
<path d="M93.8184 126.182H88.6063V131.394H93.8184V126.182Z" fill="#171729"/>
<path d="M99.0294 126.182H93.8173V131.394H99.0294V126.182Z" fill="#171729"/>
<path d="M114.665 126.182H109.453V131.394H114.665V126.182Z" fill="#171729"/>
<path d="M125.091 126.182H119.879V131.394H125.091V126.182Z" fill="#171729"/>
<path d="M135.517 126.182H130.305V131.394H135.517V126.182Z" fill="#171729"/>
<path d="M140.728 126.182H135.516V131.394H140.728V126.182Z" fill="#171729"/>
<path d="M145.941 126.182H140.729V131.394H145.941V126.182Z" fill="#171729"/>
<path d="M5.21212 131.394H0V136.606H5.21212V131.394Z" fill="#171729"/>
<path d="M10.4238 131.394H5.21167V136.606H10.4238V131.394Z" fill="#171729"/>
<path d="M20.8491 131.394H15.637V136.606H20.8491V131.394Z" fill="#171729"/>
<path d="M26.0608 131.394H20.8486V136.606H26.0608V131.394Z" fill="#171729"/>
<path d="M31.2724 131.394H26.0603V136.606H31.2724V131.394Z" fill="#171729"/>
<path d="M36.4834 131.394H31.2712V136.606H36.4834V131.394Z" fill="#171729"/>
<path d="M46.9076 131.394H41.6954V136.606H46.9076V131.394Z" fill="#171729"/>
<path d="M52.1225 131.394H46.9104V136.606H52.1225V131.394Z" fill="#171729"/>
<path d="M67.759 131.394H62.5469V136.606H67.759V131.394Z" fill="#171729"/>
<path d="M93.8184 131.394H88.6063V136.606H93.8184V131.394Z" fill="#171729"/>
<path d="M99.0294 131.394H93.8173V136.606H99.0294V131.394Z" fill="#171729"/>
<path d="M104.243 131.394H99.0305V136.606H104.243V131.394Z" fill="#171729"/>
<path d="M109.455 131.394H104.243V136.606H109.455V131.394Z" fill="#171729"/>
<path d="M114.665 131.394H109.453V136.606H114.665V131.394Z" fill="#171729"/>
<path d="M119.878 131.394H114.666V136.606H119.878V131.394Z" fill="#171729"/>
<path d="M130.302 131.394H125.09V136.606H130.302V131.394Z" fill="#171729"/>
<path d="M140.728 131.394H135.516V136.606H140.728V131.394Z" fill="#171729"/>
<path d="M151.152 131.394H145.94V136.606H151.152V131.394Z" fill="#171729"/>
<path d="M156.363 131.394H151.15V136.606H156.363V131.394Z" fill="#171729"/>
<path d="M166.789 131.394H161.577V136.606H166.789V131.394Z" fill="#171729"/>
<path d="M5.21212 136.606H0V141.818H5.21212V136.606Z" fill="#171729"/>
<path d="M10.4238 136.606H5.21167V141.818H10.4238V136.606Z" fill="#171729"/>
<path d="M26.0608 136.606H20.8486V141.818H26.0608V136.606Z" fill="#171729"/>
<path d="M31.2724 136.606H26.0603V141.818H31.2724V136.606Z" fill="#171729"/>
<path d="M41.6966 136.606H36.4845V141.818H41.6966V136.606Z" fill="#171729"/>
<path d="M46.9076 136.606H41.6954V141.818H46.9076V136.606Z" fill="#171729"/>
<path d="M52.1225 136.606H46.9104V141.818H52.1225V136.606Z" fill="#171729"/>
<path d="M57.3328 136.606H52.1207V141.818H57.3328V136.606Z" fill="#171729"/>
<path d="M83.3957 136.606H78.1836V141.818H83.3957V136.606Z" fill="#171729"/>
<path d="M88.6058 136.606H83.3937V141.818H88.6058V136.606Z" fill="#171729"/>
<path d="M99.0294 136.606H93.8173V141.818H99.0294V136.606Z" fill="#171729"/>
<path d="M109.455 136.606H104.243V141.818H109.455V136.606Z" fill="#171729"/>
<path d="M119.878 136.606H114.666V141.818H119.878V136.606Z" fill="#171729"/>
<path d="M125.091 136.606H119.879V141.818H125.091V136.606Z" fill="#171729"/>
<path d="M130.302 136.606H125.09V141.818H130.302V136.606Z" fill="#171729"/>
<path d="M156.363 136.606H151.15V141.818H156.363V136.606Z" fill="#171729"/>
<path d="M161.575 136.606H156.363V141.818H161.575V136.606Z" fill="#171729"/>
<path d="M166.789 136.606H161.577V141.818H166.789V136.606Z" fill="#171729"/>
<path d="M5.21212 141.818H0V147.03H5.21212V141.818Z" fill="#171729"/>
<path d="M15.6355 141.818H10.4233V147.03H15.6355V141.818Z" fill="#171729"/>
<path d="M20.8491 141.818H15.637V147.03H20.8491V141.818Z" fill="#171729"/>
<path d="M26.0608 141.818H20.8486V147.03H26.0608V141.818Z" fill="#171729"/>
<path d="M36.4834 141.818H31.2712V147.03H36.4834V141.818Z" fill="#171729"/>
<path d="M41.6966 141.818H36.4845V147.03H41.6966V141.818Z" fill="#171729"/>
<path d="M57.3328 141.818H52.1207V147.03H57.3328V141.818Z" fill="#171729"/>
<path d="M67.759 141.818H62.5469V147.03H67.759V141.818Z" fill="#171729"/>
<path d="M72.9688 141.818H67.7567V147.03H72.9688V141.818Z" fill="#171729"/>
<path d="M83.3957 141.818H78.1836V147.03H83.3957V141.818Z" fill="#171729"/>
<path d="M88.6058 141.818H83.3937V147.03H88.6058V141.818Z" fill="#171729"/>
<path d="M93.8184 141.818H88.6063V147.03H93.8184V141.818Z" fill="#171729"/>
<path d="M109.455 141.818H104.243V147.03H109.455V141.818Z" fill="#171729"/>
<path d="M114.665 141.818H109.453V147.03H114.665V141.818Z" fill="#171729"/>
<path d="M119.878 141.818H114.666V147.03H119.878V141.818Z" fill="#171729"/>
<path d="M125.091 141.818H119.879V147.03H125.091V141.818Z" fill="#171729"/>
<path d="M130.302 141.818H125.09V147.03H130.302V141.818Z" fill="#171729"/>
<path d="M135.517 141.818H130.305V147.03H135.517V141.818Z" fill="#171729"/>
<path d="M145.941 141.818H140.729V147.03H145.941V141.818Z" fill="#171729"/>
<path d="M156.363 141.818H151.15V147.03H156.363V141.818Z" fill="#171729"/>
<path d="M166.789 141.818H161.577V147.03H166.789V141.818Z" fill="#171729"/>
<path d="M10.4238 147.03H5.21167V152.242H10.4238V147.03Z" fill="#171729"/>
<path d="M15.6355 147.03H10.4233V152.242H15.6355V147.03Z" fill="#171729"/>
<path d="M26.0608 147.03H20.8486V152.242H26.0608V147.03Z" fill="#171729"/>
<path d="M41.6966 147.03H36.4845V152.242H41.6966V147.03Z" fill="#171729"/>
<path d="M57.3328 147.03H52.1207V152.242H57.3328V147.03Z" fill="#171729"/>
<path d="M67.759 147.03H62.5469V152.242H67.759V147.03Z" fill="#171729"/>
<path d="M72.9688 147.03H67.7567V152.242H72.9688V147.03Z" fill="#171729"/>
<path d="M83.3957 147.03H78.1836V152.242H83.3957V147.03Z" fill="#171729"/>
<path d="M93.8184 147.03H88.6063V152.242H93.8184V147.03Z" fill="#171729"/>
<path d="M99.0294 147.03H93.8173V152.242H99.0294V147.03Z" fill="#171729"/>
<path d="M109.455 147.03H104.243V152.242H109.455V147.03Z" fill="#171729"/>
<path d="M114.665 147.03H109.453V152.242H114.665V147.03Z" fill="#171729"/>
<path d="M130.302 147.03H125.09V152.242H130.302V147.03Z" fill="#171729"/>
<path d="M135.517 147.03H130.305V152.242H135.517V147.03Z" fill="#171729"/>
<path d="M140.728 147.03H135.516V152.242H140.728V147.03Z" fill="#171729"/>
<path d="M145.941 147.03H140.729V152.242H145.941V147.03Z" fill="#171729"/>
<path d="M166.789 147.03H161.577V152.242H166.789V147.03Z" fill="#171729"/>
<path d="M5.21212 152.242H0V157.454H5.21212V152.242Z" fill="#171729"/>
<path d="M15.6355 152.242H10.4233V157.454H15.6355V152.242Z" fill="#171729"/>
<path d="M31.2724 152.242H26.0603V157.454H31.2724V152.242Z" fill="#171729"/>
<path d="M36.4834 152.242H31.2712V157.454H36.4834V152.242Z" fill="#171729"/>
<path d="M41.6966 152.242H36.4845V157.454H41.6966V152.242Z" fill="#171729"/>
<path d="M52.1225 152.242H46.9104V157.454H52.1225V152.242Z" fill="#171729"/>
<path d="M62.5461 152.242H57.334V157.454H62.5461V152.242Z" fill="#171729"/>
<path d="M72.9688 152.242H67.7567V157.454H72.9688V152.242Z" fill="#171729"/>
<path d="M78.1816 152.242H72.9695V157.454H78.1816V152.242Z" fill="#171729"/>
<path d="M99.0294 152.242H93.8173V157.454H99.0294V152.242Z" fill="#171729"/>
<path d="M104.243 152.242H99.0305V157.454H104.243V152.242Z" fill="#171729"/>
<path d="M109.455 152.242H104.243V157.454H109.455V152.242Z" fill="#171729"/>
<path d="M140.728 152.242H135.516V157.454H140.728V152.242Z" fill="#171729"/>
<path d="M145.941 152.242H140.729V157.454H145.941V152.242Z" fill="#171729"/>
<path d="M151.152 152.242H145.94V157.454H151.152V152.242Z" fill="#171729"/>
<path d="M156.363 152.242H151.15V157.454H156.363V152.242Z" fill="#171729"/>
<path d="M5.21212 157.455H0V162.667H5.21212V157.455Z" fill="#171729"/>
<path d="M20.8491 157.455H15.637V162.667H20.8491V157.455Z" fill="#171729"/>
<path d="M31.2724 157.455H26.0603V162.667H31.2724V157.455Z" fill="#171729"/>
<path d="M67.759 157.455H62.5469V162.667H67.759V157.455Z" fill="#171729"/>
<path d="M88.6058 157.455H83.3937V162.667H88.6058V157.455Z" fill="#171729"/>
<path d="M93.8184 157.455H88.6063V162.667H93.8184V157.455Z" fill="#171729"/>
<path d="M104.243 157.455H99.0305V162.667H104.243V157.455Z" fill="#171729"/>
<path d="M119.878 157.455H114.666V162.667H119.878V157.455Z" fill="#171729"/>
<path d="M140.728 157.455H135.516V162.667H140.728V157.455Z" fill="#171729"/>
<path d="M156.363 157.455H151.15V162.667H156.363V157.455Z" fill="#171729"/>
<path d="M161.575 157.455H156.363V162.667H161.575V157.455Z" fill="#171729"/>
<path d="M166.789 157.455H161.577V162.667H166.789V157.455Z" fill="#171729"/>
<path d="M26.0608 162.667H20.8486V167.879H26.0608V162.667Z" fill="#171729"/>
<path d="M31.2724 162.667H26.0603V167.879H31.2724V162.667Z" fill="#171729"/>
<path d="M36.4834 162.667H31.2712V167.879H36.4834V162.667Z" fill="#171729"/>
<path d="M41.6966 162.667H36.4845V167.879H41.6966V162.667Z" fill="#171729"/>
<path d="M62.5461 162.667H57.334V167.879H62.5461V162.667Z" fill="#171729"/>
<path d="M67.759 162.667H62.5469V167.879H67.759V162.667Z" fill="#171729"/>
<path d="M78.1816 162.667H72.9695V167.879H78.1816V162.667Z" fill="#171729"/>
<path d="M88.6058 162.667H83.3937V167.879H88.6058V162.667Z" fill="#171729"/>
<path d="M99.0294 162.667H93.8173V167.879H99.0294V162.667Z" fill="#171729"/>
<path d="M104.243 162.667H99.0305V167.879H104.243V162.667Z" fill="#171729"/>
<path d="M114.665 162.667H109.453V167.879H114.665V162.667Z" fill="#171729"/>
<path d="M125.091 162.667H119.879V167.879H125.091V162.667Z" fill="#171729"/>
<path d="M130.302 162.667H125.09V167.879H130.302V162.667Z" fill="#171729"/>
<path d="M135.517 162.667H130.305V167.879H135.517V162.667Z" fill="#171729"/>
<path d="M161.575 162.667H156.363V167.879H161.575V162.667Z" fill="#171729"/>
<path d="M166.789 162.667H161.577V167.879H166.789V162.667Z" fill="#171729"/>
<path d="M20.8491 167.879H15.637V173.091H20.8491V167.879Z" fill="#171729"/>
<path d="M26.0608 167.879H20.8486V173.091H26.0608V167.879Z" fill="#171729"/>
<path d="M31.2724 167.879H26.0603V173.091H31.2724V167.879Z" fill="#171729"/>
<path d="M41.6966 167.879H36.4845V173.091H41.6966V167.879Z" fill="#171729"/>
<path d="M46.9076 167.879H41.6954V173.091H46.9076V167.879Z" fill="#171729"/>
<path d="M57.3328 167.879H52.1207V173.091H57.3328V167.879Z" fill="#171729"/>
<path d="M72.9688 167.879H67.7567V173.091H72.9688V167.879Z" fill="#171729"/>
<path d="M93.8184 167.879H88.6063V173.091H93.8184V167.879Z" fill="#171729"/>
<path d="M99.0294 167.879H93.8173V173.091H99.0294V167.879Z" fill="#171729"/>
<path d="M104.243 167.879H99.0305V173.091H104.243V167.879Z" fill="#171729"/>
<path d="M109.455 167.879H104.243V173.091H109.455V167.879Z" fill="#171729"/>
<path d="M114.665 167.879H109.453V173.091H114.665V167.879Z" fill="#171729"/>
<path d="M119.878 167.879H114.666V173.091H119.878V167.879Z" fill="#171729"/>
<path d="M135.517 167.879H130.305V173.091H135.517V167.879Z" fill="#171729"/>
<path d="M140.728 167.879H135.516V173.091H140.728V167.879Z" fill="#171729"/>
<path d="M151.152 167.879H145.94V173.091H151.152V167.879Z" fill="#171729"/>
<path d="M156.363 167.879H151.15V173.091H156.363V167.879Z" fill="#171729"/>
<path d="M166.789 167.879H161.577V173.091H166.789V167.879Z" fill="#171729"/>
<path d="M172 167.879H166.788V173.091H172V167.879Z" fill="#171729"/>
<path d="M5.21212 173.091H0V178.303H5.21212V173.091Z" fill="#171729"/>
<path d="M10.4238 173.091H5.21167V178.303H10.4238V173.091Z" fill="#171729"/>
<path d="M15.6355 173.091H10.4233V178.303H15.6355V173.091Z" fill="#171729"/>
<path d="M26.0608 173.091H20.8486V178.303H26.0608V173.091Z" fill="#171729"/>
<path d="M36.4834 173.091H31.2712V178.303H36.4834V173.091Z" fill="#171729"/>
<path d="M41.6966 173.091H36.4845V178.303H41.6966V173.091Z" fill="#171729"/>
<path d="M57.3328 173.091H52.1207V178.303H57.3328V173.091Z" fill="#171729"/>
<path d="M62.5461 173.091H57.334V178.303H62.5461V173.091Z" fill="#171729"/>
<path d="M72.9688 173.091H67.7567V178.303H72.9688V173.091Z" fill="#171729"/>
<path d="M78.1816 173.091H72.9695V178.303H78.1816V173.091Z" fill="#171729"/>
<path d="M83.3957 173.091H78.1836V178.303H83.3957V173.091Z" fill="#171729"/>
<path d="M88.6058 173.091H83.3937V178.303H88.6058V173.091Z" fill="#171729"/>
<path d="M93.8184 173.091H88.6063V178.303H93.8184V173.091Z" fill="#171729"/>
<path d="M109.455 173.091H104.243V178.303H109.455V173.091Z" fill="#171729"/>
<path d="M114.665 173.091H109.453V178.303H114.665V173.091Z" fill="#171729"/>
<path d="M119.878 173.091H114.666V178.303H119.878V173.091Z" fill="#171729"/>
<path d="M130.302 173.091H125.09V178.303H130.302V173.091Z" fill="#171729"/>
<path d="M135.517 173.091H130.305V178.303H135.517V173.091Z" fill="#171729"/>
<path d="M140.728 173.091H135.516V178.303H140.728V173.091Z" fill="#171729"/>
<path d="M145.941 173.091H140.729V178.303H145.941V173.091Z" fill="#171729"/>
<path d="M151.152 173.091H145.94V178.303H151.152V173.091Z" fill="#171729"/>
<path d="M156.363 173.091H151.15V178.303H156.363V173.091Z" fill="#171729"/>
<path d="M166.789 173.091H161.577V178.303H166.789V173.091Z" fill="#171729"/>
<path d="M46.9076 178.303H41.6954V183.515H46.9076V178.303Z" fill="#171729"/>
<path d="M57.3328 178.303H52.1207V183.515H57.3328V178.303Z" fill="#171729"/>
<path d="M62.5461 178.303H57.334V183.515H62.5461V178.303Z" fill="#171729"/>
<path d="M72.9688 178.303H67.7567V183.515H72.9688V178.303Z" fill="#171729"/>
<path d="M78.1816 178.303H72.9695V183.515H78.1816V178.303Z" fill="#171729"/>
<path d="M83.3957 178.303H78.1836V183.515H83.3957V178.303Z" fill="#171729"/>
<path d="M88.6058 178.303H83.3937V183.515H88.6058V178.303Z" fill="#171729"/>
<path d="M93.8184 178.303H88.6063V183.515H93.8184V178.303Z" fill="#171729"/>
<path d="M114.665 178.303H109.453V183.515H114.665V178.303Z" fill="#171729"/>
<path d="M119.878 178.303H114.666V183.515H119.878V178.303Z" fill="#171729"/>
<path d="M125.091 178.303H119.879V183.515H125.091V178.303Z" fill="#171729"/>
<path d="M130.302 178.303H125.09V183.515H130.302V178.303Z" fill="#171729"/>
<path d="M151.152 178.303H145.94V183.515H151.152V178.303Z" fill="#171729"/>
<path d="M161.575 178.303H156.363V183.515H161.575V178.303Z" fill="#171729"/>
<path d="M46.9076 183.515H41.6954V188.727H46.9076V183.515Z" fill="#171729"/>
<path d="M52.1225 183.515H46.9104V188.727H52.1225V183.515Z" fill="#171729"/>
<path d="M57.3328 183.515H52.1207V188.727H57.3328V183.515Z" fill="#171729"/>
<path d="M78.1816 183.515H72.9695V188.727H78.1816V183.515Z" fill="#171729"/>
<path d="M83.3957 183.515H78.1836V188.727H83.3957V183.515Z" fill="#171729"/>
<path d="M99.0294 183.515H93.8173V188.727H99.0294V183.515Z" fill="#171729"/>
<path d="M130.302 183.515H125.09V188.727H130.302V183.515Z" fill="#171729"/>
<path d="M140.728 183.515H135.516V188.727H140.728V183.515Z" fill="#171729"/>
<path d="M151.152 183.515H145.94V188.727H151.152V183.515Z" fill="#171729"/>
<path d="M156.363 183.515H151.15V188.727H156.363V183.515Z" fill="#171729"/>
<path d="M62.5461 188.727H57.334V193.939H62.5461V188.727Z" fill="#171729"/>
<path d="M78.1816 188.727H72.9695V193.939H78.1816V188.727Z" fill="#171729"/>
<path d="M83.3957 188.727H78.1836V193.939H83.3957V188.727Z" fill="#171729"/>
<path d="M88.6058 188.727H83.3937V193.939H88.6058V188.727Z" fill="#171729"/>
<path d="M104.243 188.727H99.0305V193.939H104.243V188.727Z" fill="#171729"/>
<path d="M119.878 188.727H114.666V193.939H119.878V188.727Z" fill="#171729"/>
<path d="M130.302 188.727H125.09V193.939H130.302V188.727Z" fill="#171729"/>
<path d="M151.152 188.727H145.94V193.939H151.152V188.727Z" fill="#171729"/>
<path d="M172 188.727H166.788V193.939H172V188.727Z" fill="#171729"/>
<path d="M46.9076 193.939H41.6954V199.152H46.9076V193.939Z" fill="#171729"/>
<path d="M62.5461 193.939H57.334V199.152H62.5461V193.939Z" fill="#171729"/>
<path d="M67.759 193.939H62.5469V199.152H67.759V193.939Z" fill="#171729"/>
<path d="M72.9688 193.939H67.7567V199.152H72.9688V193.939Z" fill="#171729"/>
<path d="M78.1816 193.939H72.9695V199.152H78.1816V193.939Z" fill="#171729"/>
<path d="M88.6058 193.939H83.3937V199.152H88.6058V193.939Z" fill="#171729"/>
<path d="M104.243 193.939H99.0305V199.152H104.243V193.939Z" fill="#171729"/>
<path d="M119.878 193.939H114.666V199.152H119.878V193.939Z" fill="#171729"/>
<path d="M130.302 193.939H125.09V199.152H130.302V193.939Z" fill="#171729"/>
<path d="M135.517 193.939H130.305V199.152H135.517V193.939Z" fill="#171729"/>
<path d="M140.728 193.939H135.516V199.152H140.728V193.939Z" fill="#171729"/>
<path d="M145.941 193.939H140.729V199.152H145.941V193.939Z" fill="#171729"/>
<path d="M151.152 193.939H145.94V199.152H151.152V193.939Z" fill="#171729"/>
<path d="M156.363 193.939H151.15V199.152H156.363V193.939Z" fill="#171729"/>
<path d="M172 193.939H166.788V199.152H172V193.939Z" fill="#171729"/>
<path d="M52.1225 199.151H46.9104V204.363H52.1225V199.151Z" fill="#171729"/>
<path d="M57.3328 199.151H52.1207V204.363H57.3328V199.151Z" fill="#171729"/>
<path d="M67.759 199.151H62.5469V204.363H67.759V199.151Z" fill="#171729"/>
<path d="M72.9688 199.151H67.7567V204.363H72.9688V199.151Z" fill="#171729"/>
<path d="M99.0294 199.151H93.8173V204.363H99.0294V199.151Z" fill="#171729"/>
<path d="M104.243 199.151H99.0305V204.363H104.243V199.151Z" fill="#171729"/>
<path d="M109.455 199.151H104.243V204.363H109.455V199.151Z" fill="#171729"/>
<path d="M125.091 199.151H119.879V204.363H125.091V199.151Z" fill="#171729"/>
<path d="M140.728 199.151H135.516V204.363H140.728V199.151Z" fill="#171729"/>
<path d="M145.941 199.151H140.729V204.363H145.941V199.151Z" fill="#171729"/>
<path d="M151.152 199.151H145.94V204.363H151.152V199.151Z" fill="#171729"/>
<path d="M156.363 199.151H151.15V204.363H156.363V199.151Z" fill="#171729"/>
<path d="M161.575 199.151H156.363V204.363H161.575V199.151Z" fill="#171729"/>
<path d="M166.789 199.151H161.577V204.363H166.789V199.151Z" fill="#171729"/>
<path d="M52.1225 204.364H46.9104V209.576H52.1225V204.364Z" fill="#171729"/>
<path d="M67.759 204.364H62.5469V209.576H67.759V204.364Z" fill="#171729"/>
<path d="M78.1816 204.364H72.9695V209.576H78.1816V204.364Z" fill="#171729"/>
<path d="M83.3957 204.364H78.1836V209.576H83.3957V204.364Z" fill="#171729"/>
<path d="M99.0294 204.364H93.8173V209.576H99.0294V204.364Z" fill="#171729"/>
<path d="M109.455 204.364H104.243V209.576H109.455V204.364Z" fill="#171729"/>
<path d="M114.665 204.364H109.453V209.576H114.665V204.364Z" fill="#171729"/>
<path d="M135.517 204.364H130.305V209.576H135.517V204.364Z" fill="#171729"/>
<path d="M140.728 204.364H135.516V209.576H140.728V204.364Z" fill="#171729"/>
<path d="M145.941 204.364H140.729V209.576H145.941V204.364Z" fill="#171729"/>
<path d="M151.152 204.364H145.94V209.576H151.152V204.364Z" fill="#171729"/>
<path d="M156.363 204.364H151.15V209.576H156.363V204.364Z" fill="#171729"/>
<path d="M62.5461 209.576H57.334V214.788H62.5461V209.576Z" fill="#171729"/>
<path d="M67.759 209.576H62.5469V214.788H67.759V209.576Z" fill="#171729"/>
<path d="M72.9688 209.576H67.7567V214.788H72.9688V209.576Z" fill="#171729"/>
<path d="M83.3957 209.576H78.1836V214.788H83.3957V209.576Z" fill="#171729"/>
<path d="M88.6058 209.576H83.3937V214.788H88.6058V209.576Z" fill="#171729"/>
<path d="M93.8184 209.576H88.6063V214.788H93.8184V209.576Z" fill="#171729"/>
<path d="M99.0294 209.576H93.8173V214.788H99.0294V209.576Z" fill="#171729"/>
<path d="M114.665 209.576H109.453V214.788H114.665V209.576Z" fill="#171729"/>
<path d="M125.091 209.576H119.879V214.788H125.091V209.576Z" fill="#171729"/>
<path d="M130.302 209.576H125.09V214.788H130.302V209.576Z" fill="#171729"/>
<path d="M140.728 209.576H135.516V214.788H140.728V209.576Z" fill="#171729"/>
<path d="M46.9076 214.788H41.6954V220H46.9076V214.788Z" fill="#171729"/>
<path d="M57.3328 214.788H52.1207V220H57.3328V214.788Z" fill="#171729"/>
<path d="M93.8184 214.788H88.6063V220H93.8184V214.788Z" fill="#171729"/>
<path d="M104.243 214.788H99.0305V220H104.243V214.788Z" fill="#171729"/>
<path d="M109.455 214.788H104.243V220H109.455V214.788Z" fill="#171729"/>
<path d="M114.665 214.788H109.453V220H114.665V214.788Z" fill="#171729"/>
<path d="M119.878 214.788H114.666V220H119.878V214.788Z" fill="#171729"/>
<path d="M125.091 214.788H119.879V220H125.091V214.788Z" fill="#171729"/>
<path d="M130.302 214.788H125.09V220H130.302V214.788Z" fill="#171729"/>
<path d="M135.517 214.788H130.305V220H135.517V214.788Z" fill="#171729"/>
<path d="M140.728 214.788H135.516V220H140.728V214.788Z" fill="#171729"/>
<path d="M156.363 214.788H151.15V220H156.363V214.788Z" fill="#171729"/>
<path d="M172 214.788H166.788V220H172V214.788Z" fill="#171729"/>
<path d="M31.0121 48H5.47273H0V53.4727V79.0121V84.4848H5.47273H31.0121H36.4848V79.0121V53.4727V48H31.0121ZM31.0121 79.0121H5.47273V53.4727H31.0121V79.0121Z" fill="#171729"/>
<path d="M166.528 48H140.989H135.516V53.4727V79.0121V84.4848H140.989H166.528H172.001V79.0121V53.4727V48H166.528ZM166.528 79.0121H140.989V53.4727H166.528V79.0121Z" fill="#171729"/>
<path d="M31.0121 183.515H5.47273H0V188.988V214.527V220H5.47273H31.0121H36.4848V214.527V188.988V183.515H31.0121ZM31.0121 214.527H5.47273V188.988H31.0121V214.527Z" fill="#171729"/>
<path d="M26.0597 58.4243H10.4233V74.0607H26.0597V58.4243Z" fill="#171729"/>
<path d="M161.576 58.4243H145.94V74.0607H161.576V58.4243Z" fill="#171729"/>
<path d="M26.0597 193.939H10.4233V209.576H26.0597V193.939Z" fill="#171729"/>
</svg>
