<?xml version="1.0" standalone="no"?>
<!DOCTYPE svg PUBLIC "-//W3C//DTD SVG 1.1//EN" "http://www.w3.org/Graphics/SVG/1.1/DTD/svg11.dtd" >
<svg xmlns="http://www.w3.org/2000/svg" xmlns:xlink="http://www.w3.org/1999/xlink" version="1.1">
<metadata>
Created by FontForge 20170731 at Wed Jul  3 11:37:58 2019
 By Aleksey,,,
Copyright (c) 2017 by Daniel Hernandez. All rights reserved.
</metadata>
<defs>
<font id="AndesNeueAlt2-ExtraLightit" horiz-adv-x="0" >
  <font-face 
    font-family="AndesNeue Alt 2 ExtraLight it"
    font-weight="100"
    font-style="italic"
    font-stretch="normal"
    units-per-em="1000"
    panose-1="0 0 3 0 0 0 0 0 0 0"
    ascent="750"
    descent="-250"
    x-height="482"
    cap-height="700"
    bbox="-577 -254 1393 953"
    underline-thickness="50"
    underline-position="-150"
    slope="-6"
    unicode-range="U+000D-FB02"
  />
<missing-glyph horiz-adv-x="530" 
d="M480 730v-730h-430v730h430zM265 408l150 287h-300zM90 657v-584l153 292zM440 73v584l-152 -292zM115 35h300l-150 287z" />
    <glyph glyph-name="fi" unicode="fi" horiz-adv-x="432" 
d="M336 84q-3 -27 4.5 -41t30.5 -14l-3 -29q-2 0 -7 -1t-12 -1q-28 0 -42.5 19.5t-9.5 61.5l40 371h-188l-47 -450h-38l47 450h-67l4 32h67l10 97q7 74 47 111.5t100 37.5q36 0 61 -17l-16 -29q-18 12 -47 12q-43 0 -71.5 -27t-35.5 -84l-10 -101h225zM379 672
q15 0 23.5 -9.5t8.5 -23.5q0 -17 -10 -28.5t-29 -11.5q-14 0 -23 9t-9 24q0 17 10.5 28.5t28.5 11.5z" />
    <glyph glyph-name="fl" unicode="fl" horiz-adv-x="434" 
d="M337 77q-3 -30 5 -39.5t31 -9.5l-2 -30q-5 -1 -10.5 -1.5t-9.5 -0.5q-61 0 -53 74l40 380h-189l-48 -450h-37l47 450h-66l3 32h67l10 94q8 75 47 113.5t97 38.5q49 0 78 -27l-20 -27q-20 20 -60 20q-43 0 -71 -29t-33 -82l-11 -101h189l26 244h39z" />
    <glyph glyph-name=".notdef" horiz-adv-x="530" 
d="M480 730v-730h-430v730h430zM265 408l150 287h-300zM90 657v-584l153 292zM440 73v584l-152 -292zM115 35h300l-150 287z" />
    <glyph glyph-name=".null" 
 />
    <glyph glyph-name=".null" 
 />
    <glyph glyph-name="nonmarkingreturn" unicode="&#xd;" horiz-adv-x="250" 
 />
    <glyph glyph-name="space" unicode=" " horiz-adv-x="219" 
 />
    <glyph glyph-name="exclam" unicode="!" horiz-adv-x="209" 
d="M132 700h43l-59 -516h-33zM80 -6q-14 0 -23.5 8.5t-9.5 24.5t10.5 27t26.5 11q14 0 23 -9t9 -24q0 -17 -9.5 -27.5t-26.5 -10.5z" />
    <glyph glyph-name="quotedbl" unicode="&#x22;" horiz-adv-x="233" 
d="M104 719h37l-18 -142h-32zM194 719h36l-17 -142h-31z" />
    <glyph glyph-name="numbersign" unicode="#" horiz-adv-x="556" 
d="M142 158h-116l9 28h117l49 157h-112l10 27h111l38 120h32l-39 -120h146l39 120h31l-39 -120h118l-10 -27h-117l-49 -157h112l-9 -28h-112l-36 -117h-32l37 117h-146l-36 -117h-32zM329 186l49 157h-146l-50 -157h147z" />
    <glyph glyph-name="dollar" unicode="$" horiz-adv-x="537" 
d="M466 491q11 45 3 75t-27.5 49t-47.5 27.5t-59 10.5l-30 -284q35 -7 69 -18t60.5 -30t42.5 -48.5t16 -75.5q0 -96 -60 -141t-166 -49l-13 -124h-34l14 123q-35 1 -67 7.5t-59 20t-48 36t-34 55.5l34 21q13 -31 32.5 -51.5t43 -32.5t49.5 -16.5t52 -5.5l32 299
q-35 7 -68.5 16.5t-60 27.5t-42.5 47t-16 74q0 42 15.5 75.5t45 57.5t70.5 37.5t92 13.5l12 111h34l-13 -108h1v-3q33 -2 68 -12.5t61 -33t37 -59t-3 -92.5h-36zM122 508q0 -34 11.5 -56t32 -36.5t48 -23t59.5 -16.5l29 278q-83 -2 -131.5 -40.5t-48.5 -105.5zM454 194
q0 34 -12.5 57.5t-33.5 39.5t-48.5 25.5t-58.5 15.5l-30 -292q86 4 134.5 39.5t48.5 114.5z" />
    <glyph glyph-name="percent" unicode="%" horiz-adv-x="547" 
d="M145 423q-39 0 -61.5 28t-22.5 87q0 85 31 125t82 40q40 0 62 -28t22 -86q0 -86 -31 -126t-82 -40zM406 700h32l-275 -700h-33zM147 449q23 0 38 10.5t25 29.5t14 44t4 54q0 41 -13 65t-44 24q-22 0 -37.5 -10.5t-25 -29t-13.5 -44t-4 -54.5q0 -40 13 -64.5t43 -24.5z
M396 -3q-38 0 -60.5 28t-22.5 87q0 85 30.5 125t81.5 40q40 0 62.5 -28t22.5 -86q0 -86 -31.5 -126t-82.5 -40zM399 23q44 0 62.5 40t18.5 98q0 41 -13.5 65t-43.5 24q-44 0 -62.5 -39.5t-18.5 -98.5q0 -40 13.5 -64.5t43.5 -24.5z" />
    <glyph glyph-name="ampersand" unicode="&#x26;" horiz-adv-x="644" 
d="M588 -5q-32 7 -64.5 24t-64.5 40q-76 -75 -195 -75q-48 0 -88 13t-69 37.5t-45 61t-16 83.5q0 41 11 77.5t29.5 66.5t44.5 53t56 37q-17 57 -17 115q0 49 15 87t41.5 64t63.5 39.5t81 13.5q72 0 113 -38t41 -103q0 -28 -8.5 -60t-18.5 -52h-38q10 23 17.5 53t7.5 53
q0 52 -31.5 82.5t-85.5 30.5q-72 0 -115 -42t-43 -125q0 -69 25 -135.5t75 -132.5q23 -30 62.5 -72.5t85.5 -80.5q57 75 72 212h39q-8 -75 -29 -133t-54 -101q29 -21 58 -36.5t57 -22.5zM271 20q98 0 161 60q-44 35 -82 75.5t-67 78.5t-50.5 75t-35.5 75q-51 -31 -81 -81.5
t-30 -115.5q0 -42 14.5 -73.5t39 -52t58.5 -31t73 -10.5z" />
    <glyph glyph-name="quotesingle" unicode="'" horiz-adv-x="144" 
d="M104 719h37l-18 -142h-32z" />
    <glyph glyph-name="parenleft" unicode="(" horiz-adv-x="235" 
d="M139 -244q-7 12 -23 44.5t-32 83t-28.5 119t-12.5 152.5q0 122 25.5 220t59 170t66 117.5t47.5 63.5l27 -20q-11 -15 -41.5 -57.5t-63 -112t-57.5 -164.5t-25 -215q0 -82 12 -148.5t27.5 -114.5t30 -78t20.5 -40z" />
    <glyph glyph-name="parenright" unicode=")" horiz-adv-x="246" 
d="M106 726q7 -12 23 -44.5t32 -83t28.5 -119t12.5 -152.5q0 -122 -25.5 -220t-58.5 -170t-66 -117.5t-48 -63.5l-26 20q11 15 41.5 57.5t63 112t57.5 164.5t25 215q0 83 -12 149t-27.5 114t-30 78t-20.5 40z" />
    <glyph glyph-name="asterisk" unicode="*" horiz-adv-x="383" 
d="M223 577l-90 -107l-23 22l97 102l-126 21l8 32l123 -29l-40 121l31 9l32 -125l93 112l22 -21l-98 -106l130 -22l-6 -29l-129 27l42 -124l-31 -9z" />
    <glyph glyph-name="plus" unicode="+" horiz-adv-x="396" 
d="M181 244h-142l3 32h142l17 162h35l-18 -162h144l-4 -32h-143l-17 -164h-34z" />
    <glyph glyph-name="comma" unicode="," horiz-adv-x="172" 
d="M17 -69q17 8 28.5 23.5t13.5 38.5q-32 3 -32 35q0 17 10.5 27t26.5 10t25.5 -11.5t9.5 -31.5q0 -38 -21.5 -71t-50.5 -43z" />
    <glyph glyph-name="hyphen" unicode="-" horiz-adv-x="367" 
d="M69 290h240l-3 -32h-241z" />
    <glyph glyph-name="period" unicode="." horiz-adv-x="173" 
d="M63 -6q-14 0 -23.5 8.5t-9.5 24.5t10 27t26 11q14 0 23.5 -9t9.5 -24q0 -17 -9.5 -27.5t-26.5 -10.5z" />
    <glyph glyph-name="slash" unicode="/" horiz-adv-x="357" 
d="M343 706h39l-368 -931h-39z" />
    <glyph glyph-name="zero" unicode="0" horiz-adv-x="566" 
d="M257 -6q-100 0 -148 70t-48 207q0 102 16 182.5t49.5 136.5t84.5 86t121 30q100 0 148 -72t48 -209q0 -100 -16 -180t-49.5 -136t-84.5 -85.5t-121 -29.5zM261 29q60 0 103 27.5t70.5 79t40 125t12.5 165.5q0 121 -38.5 183t-120.5 62q-60 0 -102.5 -27.5t-70 -79.5
t-40.5 -126t-13 -166q0 -121 39 -182t120 -61z" />
    <glyph glyph-name="one" unicode="1" horiz-adv-x="413" 
d="M262 617q-10 -15 -25.5 -29.5t-35.5 -26.5t-45.5 -19.5t-54.5 -7.5l4 36q35 0 63.5 11.5t49.5 30t35 42t18 46.5h40l-74 -700h-40z" />
    <glyph glyph-name="two" unicode="2" horiz-adv-x="511" 
d="M24 34q6 57 39 99t79.5 77t99.5 66.5t97.5 67t74 79.5t29.5 103q0 69 -39 107t-110 38q-37 0 -67 -12t-53 -31.5t-37.5 -45.5t-20.5 -54h-39q7 35 24.5 67.5t45 57t65.5 39t86 14.5q89 0 137 -46.5t48 -130.5q0 -65 -29.5 -113.5t-74 -87.5t-97 -70.5t-98.5 -62.5
t-78.5 -65t-37.5 -78l-2 -17h387l-3 -35h-430z" />
    <glyph glyph-name="three" unicode="3" horiz-adv-x="514" 
d="M224 -6q-85 0 -136 34t-67 92l37 16q13 -47 57 -76.5t113 -29.5q91 0 140.5 46t49.5 126q0 63 -42.5 102.5t-117.5 39.5h-40l3 33h37q38 0 70 10.5t55 31.5t36.5 51t13.5 69q0 63 -36 97.5t-105 34.5q-66 0 -112.5 -35.5t-61.5 -107.5h-39q18 87 73.5 132.5t143.5 45.5
q86 0 131.5 -44t45.5 -119q0 -38 -11 -68t-29.5 -52.5t-42.5 -37.5t-51 -21q57 -14 88.5 -55t31.5 -104q0 -100 -62.5 -155.5t-172.5 -55.5z" />
    <glyph glyph-name="four" unicode="4" horiz-adv-x="506" 
d="M344 175h-328l3 34l292 491h43l-292 -491h286l19 183h40l-19 -183h94l-3 -34h-95l-18 -175h-40z" />
    <glyph glyph-name="five" unicode="5" horiz-adv-x="516" 
d="M226 -6q-69 0 -121 29.5t-72 80.5l35 19q17 -43 61 -68.5t102 -25.5q46 0 83 14.5t63.5 42t41 67t14.5 88.5q0 75 -41 117t-113 42q-47 0 -88.5 -15.5t-69.5 -44.5h-39l39 360h375l-4 -37h-338l-30 -285q30 29 72.5 43.5t90.5 14.5q88 0 137.5 -49.5t49.5 -140.5
q0 -58 -18 -104.5t-50.5 -79.5t-78 -50.5t-101.5 -17.5z" />
    <glyph glyph-name="six" unicode="6" horiz-adv-x="550" 
d="M323 410q85 0 133 -47t48 -135q0 -54 -17 -97.5t-46 -73.5t-69 -46.5t-87 -16.5q-105 0 -165 68t-60 209q0 104 21 185t59.5 136.5t92 84.5t118.5 29q78 0 119.5 -37t41.5 -100q0 -23 -3.5 -38.5t-8.5 -30.5h-37q5 20 7.5 33t2.5 27q0 52 -31.5 81.5t-94.5 29.5
q-57 0 -103 -26.5t-78 -77.5t-49 -124.5t-17 -167.5v-3q41 73 102 105.5t121 32.5zM290 29q36 0 67.5 13.5t55 38t37 60t13.5 80.5q0 74 -39 113.5t-109 39.5q-65 0 -121 -39.5t-92 -111.5q11 -103 60.5 -148.5t127.5 -45.5z" />
    <glyph glyph-name="seven" unicode="7" horiz-adv-x="449" 
d="M103 0q9 83 35 152.5t60.5 129t73.5 110.5t72 97t57 89t28 85h-371l4 37h413l-3 -25q-5 -50 -29.5 -96.5t-58 -93.5t-72 -97.5t-73.5 -109t-61.5 -127t-35.5 -151.5h-39z" />
    <glyph glyph-name="eight" unicode="8" horiz-adv-x="540" 
d="M379 352q57 -23 82 -65t25 -96q0 -43 -15.5 -79.5t-45.5 -62.5t-73 -40.5t-97 -14.5q-101 0 -158 44t-57 125q0 40 12.5 73t32.5 59.5t45.5 46.5t52.5 33q-38 22 -57 58t-19 81q0 43 14.5 78.5t41.5 60.5t65 39t84 14q41 0 74.5 -11.5t58.5 -33t38.5 -53t13.5 -71.5
q0 -35 -9.5 -64t-26 -52t-37.5 -40t-45 -29zM147 519q0 -46 24.5 -80.5t72.5 -47.5l96 -27q50 22 83 64t33 102q0 68 -41.5 104t-106.5 36q-72 0 -116.5 -39.5t-44.5 -111.5zM258 30q92 0 139 43t47 115q0 106 -107 137l-106 30q-5 1 -8.5 2t-8.5 3q-23 -12 -46.5 -29.5
t-42.5 -41t-31 -53t-12 -65.5q0 -66 46.5 -103.5t129.5 -37.5z" />
    <glyph glyph-name="nine" unicode="9" horiz-adv-x="542" 
d="M298 706q100 0 153.5 -71.5t53.5 -204.5q0 -208 -71.5 -322t-213.5 -114q-54 0 -99.5 18.5t-69.5 63.5l32 23q23 -39 59.5 -54.5t81.5 -15.5q111 0 171 85.5t69 250.5q-43 -55 -95.5 -77.5t-111.5 -22.5q-85 0 -137.5 49.5t-52.5 143.5q0 55 17 100.5t47.5 78.5t73 51
t93.5 18zM265 301q65 0 116.5 31t84.5 86v8q0 121 -45.5 183t-124.5 62q-41 0 -75.5 -15t-59.5 -42.5t-39 -66t-14 -84.5q0 -78 41.5 -120t115.5 -42z" />
    <glyph glyph-name="colon" unicode=":" horiz-adv-x="195" 
d="M118 412q-14 0 -23.5 8.5t-9.5 24.5t10 27t27 11q14 0 23 -9t9 -24q0 -17 -9.5 -27.5t-26.5 -10.5zM74 -6q-14 0 -23.5 8.5t-9.5 24.5t10 27t27 11q14 0 23 -9t9 -24q0 -17 -9.5 -27.5t-26.5 -10.5z" />
    <glyph glyph-name="semicolon" unicode=";" horiz-adv-x="202" 
d="M118 401q-14 0 -22.5 9t-8.5 23q0 16 10 27t27 11q14 0 22.5 -9.5t8.5 -23.5q0 -15 -10.5 -26t-26.5 -11zM34 -69q17 8 29 23.5t14 38.5q-32 3 -32 35q0 17 10.5 27t25.5 10q35 0 35 -43q0 -19 -6 -37.5t-15.5 -34t-22.5 -26.5t-27 -16z" />
    <glyph glyph-name="less" unicode="&#x3c;" horiz-adv-x="361" 
d="M29 244l3 38l306 200l-4 -40l-267 -180l229 -179l-4 -39z" />
    <glyph glyph-name="equal" unicode="=" horiz-adv-x="475" 
d="M80 369h343l-4 -33h-343zM60 184h343l-3 -33h-343z" />
    <glyph glyph-name="greater" unicode="&#x3e;" horiz-adv-x="361" 
d="M33 83l266 180l-229 178l4 39l264 -200l-5 -38l-305 -200z" />
    <glyph glyph-name="question" unicode="?" horiz-adv-x="408" 
d="M157 178q6 56 24 94t41 66t49 50.5t47 45.5t35 51.5t14 68.5q0 50 -30.5 84t-93.5 34q-60 0 -100.5 -35.5t-48.5 -99.5h-37q9 78 61 123.5t129 45.5q43 0 73.5 -12.5t49.5 -33.5t28 -47.5t9 -54.5q0 -46 -14.5 -78t-36.5 -57t-48 -47t-50 -48.5t-41.5 -62t-23.5 -87.5
h-36zM159 -6q-14 0 -23.5 8.5t-9.5 24.5t10 27t27 11q14 0 23 -9t9 -24q0 -17 -9.5 -27.5t-26.5 -10.5z" />
    <glyph glyph-name="at" unicode="@" horiz-adv-x="783" 
d="M522 47q-63 0 -62 57q0 12 10 42q-34 -51 -70.5 -73t-74.5 -22q-51 0 -79 31t-28 92q0 57 18.5 108.5t50 90.5t73.5 61.5t90 22.5q42 0 69 -18t40 -44l17 48h35q-56 -150 -85.5 -228t-31.5 -101q-6 -36 36 -36q33 0 66 25.5t60 67t43.5 94.5t16.5 108q0 50 -15.5 91.5
t-45.5 71.5t-74.5 46.5t-101.5 16.5q-82 0 -155.5 -34.5t-128.5 -95t-87 -142.5t-32 -176q0 -59 17 -107t50.5 -81.5t82.5 -51.5t112 -18q86 0 152 29t107 73l21 -24q-46 -48 -118.5 -79.5t-165.5 -31.5q-71 0 -126 20t-92.5 57.5t-57 90.5t-19.5 119q0 104 34.5 192.5
t94.5 153.5t141 102t174 37q64 0 113.5 -18.5t83.5 -52t51.5 -80.5t17.5 -104q0 -63 -18.5 -122.5t-50 -105.5t-72.5 -74t-86 -28zM334 84q27 0 53.5 14t52 44.5t50.5 80t49 120.5l-2 -9l9 27q-3 11 -11 22t-20 21t-29 16t-39 6q-40 0 -75.5 -20t-61.5 -53.5t-41 -77.5
t-15 -93q0 -48 21.5 -73t58.5 -25z" />
    <glyph glyph-name="A" unicode="A" horiz-adv-x="583" 
d="M446 220h-311l-102 -220h-40l327 700h41l179 -700h-39zM438 254l-101 401l-186 -401h287z" />
    <glyph glyph-name="B" unicode="B" horiz-adv-x="582" 
d="M141 700h208q89 0 136 -39t47 -116q0 -44 -14 -76t-33.5 -53.5t-40.5 -33.5t-34 -15v-2q15 -2 36 -11t40.5 -27t33 -46.5t13.5 -70.5q0 -58 -21.5 -98t-57 -65t-81 -36t-94.5 -11h-212zM329 376q46 0 77 16t50 40t27.5 53t8.5 54q0 58 -35 92.5t-112 34.5h-169l-30 -290
h183zM282 34q39 0 77 8t68 28t48.5 53.5t18.5 85.5q0 71 -43 102t-111 31h-198l-32 -308h172z" />
    <glyph glyph-name="C" unicode="C" horiz-adv-x="575" 
d="M298 -6q-110 0 -174.5 72t-64.5 225q0 96 22 173t62.5 130.5t98.5 82.5t131 29q88 0 140 -40.5t52 -118.5q0 -34 -4.5 -50.5t-9.5 -33.5h-36q6 22 9 37.5t3 38.5q0 69 -43.5 101t-116.5 32q-60 0 -109 -26t-84 -75t-54 -119t-19 -157q0 -138 54.5 -202.5t145.5 -64.5
q74 0 119.5 28.5t77.5 73.5l25 -21q-39 -54 -90.5 -84.5t-134.5 -30.5z" />
    <glyph glyph-name="D" unicode="D" horiz-adv-x="647" 
d="M141 700h171q66 0 120.5 -18.5t94.5 -56t62 -95t22 -134.5q0 -101 -27.5 -175.5t-76.5 -123.5t-116.5 -73t-146.5 -24h-177zM246 35q71 0 130.5 21t102.5 64.5t67 111t24 160.5q0 72 -20.5 123.5t-55.5 84.5t-83 49t-104 16h-131l-66 -630h136z" />
    <glyph glyph-name="E" unicode="E" horiz-adv-x="519" 
d="M141 700h386l-4 -36h-347l-31 -292h305l-4 -36h-305l-31 -300h347l-4 -36h-386z" />
    <glyph glyph-name="F" unicode="F" horiz-adv-x="495" 
d="M141 700h382l-3 -36h-344l-31 -298h301l-4 -36h-301l-35 -330h-39z" />
    <glyph glyph-name="G" unicode="G" horiz-adv-x="614" 
d="M310 -7q-124 0 -187.5 80t-63.5 222q0 96 23.5 172t66 129.5t101 81.5t127.5 28q98 0 149 -44.5t51 -121.5q0 -33 -10 -62h-39q4 11 6.5 24t2.5 30q0 66 -42 103t-122 37q-59 0 -109 -25.5t-86.5 -73.5t-57 -117t-20.5 -156q0 -62 13.5 -112.5t40.5 -86t67.5 -55
t94.5 -19.5q63 0 111 19.5t75 48.5l21 201h-179l4 36h218l-27 -252q-35 -36 -92 -61.5t-137 -25.5z" />
    <glyph glyph-name="H" unicode="H" horiz-adv-x="613" 
d="M136 700h39l-34 -328h360l34 328h40l-74 -700h-40l36 335h-360l-36 -335h-39z" />
    <glyph glyph-name="I" unicode="I" horiz-adv-x="223" 
d="M141 700h39l-74 -700h-39z" />
    <glyph glyph-name="J" unicode="J" horiz-adv-x="432" 
d="M158 -6q-31 0 -55.5 6.5t-42.5 18t-31.5 25.5t-23.5 29l31 25q17 -26 45.5 -47.5t76.5 -21.5q69 0 102.5 42t41.5 121l53 508h40l-54 -509q-10 -96 -52 -146.5t-131 -50.5z" />
    <glyph glyph-name="K" unicode="K" horiz-adv-x="600" 
d="M578 35l-4 -35q-5 0 -11 -0.5t-11 -0.5q-42 0 -67 24.5t-42 60.5t-31.5 79t-35.5 79t-54.5 60.5t-88.5 24.5h-93l-34 -327h-39l74 700h39l-36 -336h96q45 0 92.5 19t89 59.5t72 104t40.5 153.5h39q-7 -71 -28.5 -130t-54 -105t-74.5 -77.5t-91 -46.5q36 -13 59 -41
t40 -62t29.5 -70t27 -65.5t33.5 -48.5t49 -19h15z" />
    <glyph glyph-name="L" unicode="L" horiz-adv-x="505" 
d="M141 700h39l-70 -665h357l-4 -35h-396z" />
    <glyph glyph-name="M" unicode="M" horiz-adv-x="768" 
d="M141 700h46l188 -551l304 551h47l-74 -700h-39l66 635l-12 -27l-282 -508h-31l-176 513l-7 24l-66 -637h-38z" />
    <glyph glyph-name="N" unicode="N" horiz-adv-x="640" 
d="M141 700h36l306 -616l9 -19l67 635h39l-75 -700h-37l-308 615l-7 18l-66 -633h-38z" />
    <glyph glyph-name="O" unicode="O" horiz-adv-x="670" 
d="M323 -6q-52 0 -99.5 16t-84 51t-58 91.5t-21.5 138.5q0 114 27.5 193t72.5 128.5t102.5 71.5t117.5 22q49 0 94.5 -17t81 -53t57 -93t21.5 -137q0 -114 -26 -192.5t-69.5 -127.5t-99.5 -70.5t-116 -21.5zM327 28q51 0 99 20t85 64.5t59 116t22 174.5q0 72 -18.5 123
t-48.5 83.5t-69 47.5t-80 15q-52 0 -101.5 -20.5t-88 -65.5t-62 -116.5t-23.5 -174.5q0 -74 18.5 -125t50 -82.5t72 -45.5t85.5 -14z" />
    <glyph glyph-name="P" unicode="P" horiz-adv-x="544" 
d="M141 700h197q95 0 147.5 -45.5t52.5 -137.5q0 -118 -66 -176t-178 -58h-158l-30 -283h-39zM296 317q105 0 153.5 52.5t48.5 143.5q0 71 -40 112t-126 41h-156l-36 -349h156z" />
    <glyph glyph-name="Q" unicode="Q" horiz-adv-x="703" 
d="M634 406q0 -112 -25 -189.5t-67 -126.5t-96 -72t-113 -24q9 -50 24.5 -83.5t36.5 -53.5t46.5 -28t55.5 -8l-4 -36q-86 0 -134 50.5t-64 159.5q-47 4 -89.5 22.5t-74.5 53.5t-51 89.5t-19 130.5q0 114 27.5 193t72.5 128.5t102.5 71.5t117.5 22q49 0 94.5 -17t81 -53
t57 -93t21.5 -137zM327 28q51 0 99 20t85 64.5t59 116t22 174.5q0 72 -18.5 123t-48.5 83.5t-69 47.5t-80 15q-52 0 -101.5 -20.5t-88 -65.5t-62 -116.5t-23.5 -174.5q0 -74 18.5 -125t50 -82.5t72 -45.5t85.5 -14z" />
    <glyph glyph-name="R" unicode="R" horiz-adv-x="580" 
d="M512 -2q-31 0 -50.5 23t-33 57.5t-24.5 74.5t-24 74.5t-32 57.5t-49 23h-161l-32 -308h-39l74 700h205q88 0 139 -42t51 -131q0 -88 -47.5 -140t-121.5 -69q21 -10 34.5 -35.5t24 -57t19 -65.5t20 -62t26.5 -46t38 -18h17l-4 -35q-5 0 -13 -0.5t-17 -0.5zM303 341
q39 0 74 11.5t61.5 34.5t41.5 57t15 78q0 66 -39 105t-117 39h-163l-34 -325h161z" />
    <glyph glyph-name="S" unicode="S" horiz-adv-x="542" 
d="M245 -6q-91 0 -143.5 29.5t-76.5 89.5l33 21q20 -53 66 -79.5t125 -26.5q101 0 152.5 43t51.5 122q0 30 -9.5 53.5t-31 41.5t-57 32t-86.5 24q-94 18 -139 55.5t-45 109.5q0 47 16.5 83.5t46.5 61.5t72.5 38.5t94.5 13.5q41 0 76.5 -8t62 -26t42 -46.5t15.5 -68.5
q0 -18 -2.5 -28t-4.5 -21h-37q3 11 4.5 20.5t1.5 21.5q0 65 -45.5 93.5t-116.5 28.5q-88 0 -137.5 -41.5t-49.5 -115.5q0 -29 9 -50.5t29 -37t52.5 -27t79.5 -21.5q55 -12 93 -28t61.5 -37.5t34 -50t10.5 -65.5q0 -100 -65 -152t-183 -52z" />
    <glyph glyph-name="T" unicode="T" horiz-adv-x="492" 
d="M272 664h-211l4 36h460l-4 -36h-211l-70 -664h-38z" />
    <glyph glyph-name="U" unicode="U" horiz-adv-x="640" 
d="M295 -6q-52 0 -94.5 14t-70.5 47.5t-39.5 89.5t-2.5 140l44 415h39l-44 -417q-7 -72 2 -120.5t32 -78t58 -42.5t79 -13t82 12.5t67.5 42t49 78t27.5 121.5l44 417h38l-44 -415q-9 -85 -32.5 -141t-58.5 -89.5t-79.5 -47t-96.5 -13.5z" />
    <glyph glyph-name="V" unicode="V" horiz-adv-x="567" 
d="M69 700h44l150 -655l290 655h43l-317 -700h-40z" />
    <glyph glyph-name="W" unicode="W" horiz-adv-x="862" 
d="M72 700h45l96 -656l248 656h39l109 -656l236 656h43l-261 -700h-45l-107 641l-244 -641h-45z" />
    <glyph glyph-name="X" unicode="X" horiz-adv-x="524" 
d="M298 352l185 -352h-43l-169 324l-236 -324h-48l262 355l-182 345h45l165 -317l231 317h47z" />
    <glyph glyph-name="Y" unicode="Y" horiz-adv-x="547" 
d="M260 295l-187 405h46l165 -365l243 365h45l-272 -405l-31 -295h-40z" />
    <glyph glyph-name="Z" unicode="Z" horiz-adv-x="530" 
d="M544 668l-487 -633h421l-4 -35h-468l3 32l488 633h-421l4 35h468z" />
    <glyph glyph-name="bracketleft" unicode="[" horiz-adv-x="241" 
d="M137 726h133l-3 -34h-96l-95 -902h96l-4 -34h-133z" />
    <glyph glyph-name="backslash" unicode="\" horiz-adv-x="358" 
d="M73 706h40l171 -931h-39z" />
    <glyph glyph-name="bracketright" unicode="]" horiz-adv-x="241" 
d="M-26 -210h96l95 902h-96l3 34h134l-102 -970h-134z" />
    <glyph glyph-name="asciicircum" unicode="^" horiz-adv-x="321" 
d="M188 714h46l75 -185h-37l-64 151l-97 -151h-38z" />
    <glyph glyph-name="underscore" unicode="_" horiz-adv-x="398" 
d="M14 0h320l-3 -31h-320z" />
    <glyph glyph-name="grave" unicode="`" horiz-adv-x="230" 
d="M90 715h46l65 -152h-35z" />
    <glyph glyph-name="a" unicode="a" horiz-adv-x="505" 
d="M208 -11q-78 0 -121.5 55.5t-43.5 153.5q0 65 16 119t45 93t71 60.5t94 21.5q50 0 86 -25t52 -67l8 81h36l-42 -396q-6 -58 35 -54l-3 -31q-10 -2 -19 -2q-28 0 -41 19.5t-10 53.5l3 23q-21 -44 -63.5 -74.5t-102.5 -30.5zM218 22q26 0 51.5 9.5t46.5 27t37.5 42
t24.5 54.5l20 190q-10 51 -44 82.5t-85 31.5q-43 0 -77.5 -19t-59 -53t-37.5 -81t-13 -103q0 -85 36.5 -133t99.5 -48z" />
    <glyph glyph-name="b" unicode="b" horiz-adv-x="498" 
d="M241 -11q-60 0 -98 29t-50 68l-9 -86h-35l76 726h38l-36 -338q10 20 25.5 38.5t36.5 33t46.5 23.5t55.5 9q75 0 120 -55t45 -155q0 -69 -15.5 -123.5t-44 -92t-68 -57.5t-87.5 -20zM240 22q80 0 128.5 67.5t48.5 189.5q0 85 -36.5 132.5t-97.5 47.5q-57 0 -99.5 -37.5
t-62.5 -94.5l-20 -190q5 -21 16 -42t28.5 -37t41.5 -26t53 -10z" />
    <glyph glyph-name="c" unicode="c" horiz-adv-x="442" 
d="M223 -11q-83 0 -131 53t-48 159q0 68 17 122t47 91.5t70.5 57.5t88.5 20q70 0 108 -33t38 -93q0 -18 -3.5 -35.5t-6.5 -25.5h-34q2 9 5.5 24t3.5 30q0 50 -30.5 75t-82.5 25q-39 0 -72 -17.5t-57.5 -50.5t-38.5 -80t-14 -107q0 -90 39.5 -136t104.5 -46q49 0 81 19t54 51
l24 -20q-24 -35 -62 -59t-101 -24z" />
    <glyph glyph-name="d" unicode="d" horiz-adv-x="506" 
d="M210 -11q-78 0 -122.5 55t-44.5 156q0 65 16 118.5t45.5 92t71.5 60t93 21.5q50 0 85.5 -25t49.5 -66l34 325h39l-68 -641q-3 -29 5 -41.5t30 -12.5l-3 -31q-10 -2 -19 -2q-26 0 -39.5 19.5t-10.5 53.5l3 26q-20 -45 -61 -76.5t-104 -31.5zM220 22q55 0 98 36.5t60 96.5
l20 190q-10 51 -44 82.5t-85 31.5q-43 0 -78 -19t-59 -53t-37 -81t-13 -104q0 -85 37 -132.5t101 -47.5z" />
    <glyph glyph-name="e" unicode="e" horiz-adv-x="446" 
d="M219 22q53 0 87 21t57 50l24 -21q-27 -35 -69 -59t-103 -24q-81 0 -126.5 52t-45.5 153q0 64 18.5 118.5t51 94.5t77 62.5t97.5 22.5q62 0 95.5 -31t33.5 -85t-29.5 -87t-76.5 -52t-107 -27t-121 -11q1 -89 37.5 -133t99.5 -44zM282 459q-39 0 -74 -17t-61.5 -47t-43 -72
t-20.5 -93q53 3 105.5 9.5t94.5 21.5t68.5 41.5t26.5 69.5q0 42 -25 64.5t-71 22.5z" />
    <glyph glyph-name="f" unicode="f" horiz-adv-x="289" 
d="M111 449h-67l4 33h68l9 93q8 72 47 112.5t101 40.5q38 0 61 -13.5t37 -36.5l-24 -23q-11 19 -28 29t-49 10q-45 0 -73.5 -29.5t-34.5 -88.5l-10 -94h153l-4 -33h-153l-47 -449h-37z" />
    <glyph glyph-name="g" unicode="g" horiz-adv-x="497" 
d="M196 -239q-65 0 -106 26t-56 68l31 19q12 -35 47.5 -57.5t85.5 -22.5q67 0 108.5 39.5t48.5 108.5l17 152q-18 -42 -57.5 -72t-102.5 -30q-82 0 -125 56t-43 152q0 65 15.5 118t43.5 91.5t68 59.5t89 21q51 0 90.5 -24.5t55.5 -64.5l8 81h35l-57 -539
q-8 -85 -57.5 -133.5t-138.5 -48.5zM222 26q60 0 98.5 36t56.5 93l20 192q-8 46 -45 78t-91 32q-40 0 -73.5 -18.5t-56.5 -52t-36 -80t-13 -103.5q0 -82 35.5 -129.5t104.5 -47.5z" />
    <glyph glyph-name="h" unicode="h" horiz-adv-x="495" 
d="M420 -2q-32 0 -44.5 20.5t-8.5 59.5l25 227q3 32 -1.5 59.5t-18 47.5t-36.5 32t-56 12q-38 0 -67 -17t-49.5 -43t-32.5 -57t-15 -59l-29 -280h-38l76 726h38l-37 -358q9 24 24 46.5t36 39t47 26.5t56 10q43 0 72 -14.5t45.5 -40t22 -59.5t1.5 -72l-23 -218
q-5 -36 3.5 -46.5t31.5 -10.5l-4 -29q-10 -2 -18 -2z" />
    <glyph glyph-name="i" unicode="i" horiz-adv-x="195" 
d="M135 599q-14 0 -23 9t-9 24q0 17 10.5 28.5t28.5 11.5q15 0 23.5 -9.5t8.5 -23.5q0 -17 -10 -28.5t-29 -11.5zM112 -2q-28 0 -42.5 19.5t-9.5 61.5l42 403h39l-42 -398q-3 -27 4.5 -41t30.5 -14l-4 -29q-2 0 -6.5 -1t-11.5 -1z" />
    <glyph glyph-name="j" unicode="j" horiz-adv-x="196" 
d="M138 599q-14 0 -23 9t-9 24q0 17 10.5 28.5t28.5 11.5q15 0 23.5 -9.5t8.5 -23.5q0 -17 -10 -28.5t-29 -11.5zM-62 -247q-20 0 -34 3.5t-24 8.5q-11 5 -18 12l15 29q7 -6 16 -10q8 -4 19.5 -7t26.5 -3q47 0 73.5 29t33.5 97l60 570h38l-60 -571q-8 -78 -43.5 -118
t-102.5 -40z" />
    <glyph glyph-name="k" unicode="k" horiz-adv-x="457" 
d="M433 31l-4 -30q-2 -1 -5 -2q-7 -1 -13 -1q-40 0 -61.5 17.5t-34.5 43.5t-22 56.5t-25 56.5t-43.5 43.5t-77.5 17.5h-36l-24 -233h-38l76 726h38l-49 -460h49q100 0 153 57t65 159h36q-3 -30 -12 -65.5t-28.5 -69t-52.5 -61.5t-84 -42q29 -11 45.5 -31t27.5 -43.5t19 -48
t19 -44.5t28 -33t45 -13h9z" />
    <glyph glyph-name="l" unicode="l" horiz-adv-x="195" 
d="M112 -4q-61 0 -53 74l69 656h38l-68 -649q-3 -30 5 -39.5t31 -9.5l-3 -30q-5 -1 -10 -1.5t-9 -0.5z" />
    <glyph glyph-name="m" unicode="m" horiz-adv-x="806" 
d="M731 -2q-61 0 -53 80l24 225q4 32 -0.5 60t-17.5 48.5t-36 32.5t-56 12q-34 0 -62.5 -15.5t-49.5 -41t-34 -58t-16 -65.5l-29 -276h-38l32 303q3 32 -1.5 60t-18 48.5t-36 32.5t-55.5 12q-37 0 -65.5 -17t-49 -43t-32.5 -57t-15 -60l-29 -279h-38l42 397q4 36 -4.5 46.5
t-30.5 10.5l3 29q2 0 7 1t12 1q29 0 40.5 -18.5t8.5 -54.5l-4 -46q9 24 23.5 46.5t35 39.5t47 27.5t59.5 10.5q35 0 60 -10t41.5 -28t25 -42t11.5 -52q8 24 23 48t36.5 42.5t49 30t59.5 11.5q44 0 73 -14.5t45 -40t21 -59.5t1 -72l-22 -218q-5 -36 3 -46t31 -10l-3 -30
q-5 -1 -9.5 -1.5t-8.5 -0.5z" />
    <glyph glyph-name="n" unicode="n" horiz-adv-x="501" 
d="M426 -2q-32 0 -44 20.5t-8 59.5l24 227q8 73 -20.5 113t-91.5 40q-33 0 -61.5 -14t-50 -38.5t-35 -57t-17.5 -70.5l-29 -278h-38l42 398q4 36 -4.5 46.5t-30.5 10.5l3 29q4 1 9 1h10q29 0 40 -18t9 -55l-4 -43q21 57 65.5 90t101.5 33q76 0 112.5 -49t27.5 -137l-23 -220
q-4 -36 4 -46.5t31 -10.5l-4 -29q-5 -1 -9 -1.5t-9 -0.5z" />
    <glyph glyph-name="o" unicode="o" horiz-adv-x="492" 
d="M228 -11q-87 0 -135.5 54t-48.5 159q0 71 17.5 125t47.5 90.5t71 55.5t89 19q84 0 132 -54.5t48 -158.5q0 -70 -17 -124.5t-46.5 -91t-70 -55.5t-87.5 -19zM231 22q36 0 68.5 15.5t57.5 47t39.5 79t14.5 111.5q0 94 -40 139t-106 45q-36 0 -69 -15.5t-58 -47t-40 -79.5
t-15 -112q0 -93 40.5 -138t107.5 -45z" />
    <glyph glyph-name="p" unicode="p" horiz-adv-x="505" 
d="M97 397q4 36 -4.5 46.5t-30.5 10.5l3 29q2 0 7 1t12 1q29 0 40.5 -19t8.5 -57l-3 -28q23 46 64 78.5t105 32.5q74 0 118.5 -52.5t44.5 -152.5q0 -66 -13.5 -120.5t-40.5 -94t-67.5 -61.5t-93.5 -22q-50 0 -90.5 25t-54.5 67l-33 -310h-38zM248 22q44 0 77 19.5t54.5 54.5
t32.5 82.5t11 104.5q0 85 -37 130.5t-97 45.5q-57 0 -100.5 -37t-61.5 -95l-20 -190q5 -26 18 -47t32 -36t42.5 -23.5t48.5 -8.5z" />
    <glyph glyph-name="q" unicode="q" horiz-adv-x="498" 
d="M371 87q-9 -17 -23 -34.5t-34.5 -31.5t-46.5 -23t-59 -9q-76 0 -120.5 55t-44.5 152q0 68 16.5 123t46 93.5t71 59t91.5 20.5q28 0 51 -8t40.5 -21.5t29.5 -31t18 -35.5l10 86h34l-77 -722h-38zM218 22q58 0 100.5 35.5t59.5 92.5l20 195q-10 51 -44 82.5t-84 31.5
q-43 0 -78 -19t-59.5 -53t-37.5 -81t-13 -103q0 -86 37 -133.5t99 -47.5z" />
    <glyph glyph-name="r" unicode="r" horiz-adv-x="320" 
d="M97 399q3 33 -4.5 44.5t-30.5 11.5l3 29q4 2 9 2h10q57 0 50 -73l-6 -47q20 58 63.5 92t97.5 34q33 0 51 -10l-18 -36q-16 8 -44 8q-31 0 -57.5 -14t-47.5 -39.5t-34.5 -60t-17.5 -76.5l-28 -264h-38z" />
    <glyph glyph-name="s" unicode="s" horiz-adv-x="427" 
d="M193 -11q-27 0 -53 4.5t-49 15.5t-42 30t-31 48l32 20q12 -28 29 -44.5t36.5 -25.5t40.5 -12t40 -3q68 0 103.5 25.5t35.5 77.5q0 26 -10.5 43t-28.5 28t-41 17.5t-48 12.5q-26 6 -51.5 15.5t-46 24.5t-33 37t-12.5 54q0 64 46 99.5t126 35.5q68 0 110 -30t42 -89
q0 -17 -4 -31.5t-9 -25.5h-35q5 8 8 23.5t3 29.5q0 45 -32 67.5t-86 22.5q-62 0 -96 -25.5t-34 -72.5q0 -25 10 -42t27.5 -28.5t41 -19t50.5 -13.5q26 -6 51 -14.5t45 -23t32 -36t12 -53.5q0 -72 -48 -107t-131 -35z" />
    <glyph glyph-name="t" unicode="t" horiz-adv-x="352" 
d="M208 -10q-69 0 -97 37.5t-20 118.5l32 302h-86l3 34h87l14 140h37l-14 -140h192l-4 -34h-192l-31 -301q-7 -63 14.5 -92t72.5 -29q26 0 52 12t43 31l18 -26q-21 -23 -52.5 -38t-68.5 -15z" />
    <glyph glyph-name="u" unicode="u" horiz-adv-x="493" 
d="M192 -11q-67 0 -104.5 38.5t-27.5 126.5l35 328h38l-35 -324q-7 -75 23 -105.5t83 -30.5q36 0 66 17t51.5 42t34 55t15.5 55l30 291h38l-42 -396q-4 -35 4.5 -46t30.5 -11l-3 -29q-3 0 -7.5 -1t-11.5 -1q-59 0 -50 73l5 39q-12 -24 -28 -46t-37 -38.5t-48 -26.5t-60 -10z
" />
    <glyph glyph-name="v" unicode="v" horiz-adv-x="436" 
d="M440 482l-224 -483h-46l-122 483h42l97 -401l10 -46l19 46l184 401h40z" />
    <glyph glyph-name="w" unicode="w" horiz-adv-x="658" 
d="M660 482l-193 -484h-47l-65 381l-5 39l-15 -39l-148 -381h-46l-90 484h40l66 -389l10 -60l22 60l150 389h35l66 -387l8 -62l23 62l150 387h39z" />
    <glyph glyph-name="x" unicode="x" horiz-adv-x="410" 
d="M230 245l139 -245h-45l-121 219l-167 -219h-45l192 247l-132 235h45l113 -207l155 207h43z" />
    <glyph glyph-name="y" unicode="y" horiz-adv-x="487" 
d="M185 -247q-71 0 -109.5 26t-53.5 71l32 17q14 -35 45 -57.5t91 -22.5q66 0 106.5 39t47.5 108l20 182q-20 -57 -65.5 -90.5t-102.5 -33.5q-153 0 -136 167l34 323h38l-33 -320q-15 -137 109 -137q31 0 59 14t50 38t36 57t18 70l30 278h38l-59 -554q-10 -81 -61.5 -128
t-133.5 -47z" />
    <glyph glyph-name="z" unicode="z" horiz-adv-x="450" 
d="M414 447l-253 -203q31 -6 70.5 -21.5t74.5 -45t59 -75.5t24 -112q0 -60 -17 -103t-45.5 -71t-66 -41.5t-78.5 -13.5q-78 0 -125.5 41.5t-47.5 120.5q0 59 22.5 104.5t55 78.5t68 54t60.5 31q-43 17 -101 25l3 34l247 198h-287l4 34h336zM354 -15q0 70 -29 116.5t-78 74.5
q-26 -10 -61 -29.5t-66 -50t-52.5 -71.5t-21.5 -95q0 -67 39 -101.5t102 -34.5q32 0 62.5 11t53.5 34.5t37 59.5t14 86z" />
    <glyph glyph-name="braceleft" unicode="{" horiz-adv-x="255" 
d="M184 -234q-25 -5 -49 -0.5t-41 20.5t-25.5 43.5t-4.5 69.5l27 258q4 36 -14 51.5t-40 15.5h-10l4 34h10q22 0 42.5 15.5t24.5 51.5l28 258q5 42 19 70t34.5 43.5t45 20t49.5 -0.5l-4 -35q-45 10 -73.5 -17t-34.5 -85l-27 -260q-3 -22 -10 -36.5t-15.5 -23.5t-16.5 -13
t-13 -5q4 -1 11 -5.5t14 -13.5t11 -23.5t2 -35.5l-27 -260q-6 -59 17 -85.5t70 -16.5z" />
    <glyph glyph-name="bar" unicode="|" horiz-adv-x="207" 
d="M138 736h36l-104 -990h-36z" />
    <glyph glyph-name="braceright" unicode="}" horiz-adv-x="267" 
d="M83 716q26 5 49.5 0.5t40.5 -20.5t26 -43.5t4 -69.5l-27 -258q-4 -36 13.5 -51.5t39.5 -15.5h10l-3 -34h-10q-22 0 -43 -15.5t-25 -51.5l-27 -258q-4 -42 -18.5 -70t-35 -43.5t-45 -20t-49.5 0.5l4 35q45 -10 73 17t34 85l28 260q2 22 9 36.5t15.5 23.5t17 13t13.5 5
q-4 2 -11.5 6t-14 13t-11 23.5t-2.5 35.5l28 260q6 59 -17.5 85.5t-69.5 16.5z" />
    <glyph glyph-name="asciitilde" unicode="~" horiz-adv-x="383" 
d="M70 203l-2 8t-1.5 9.5t-0.5 11.5q0 29 17 49t51 20q19 0 34 -6t29.5 -13.5t29 -13.5t31.5 -6q12 0 21 6.5t9 22.5q0 9 -2 18q-2 4 -3 7h35q1 -3 2 -7t1.5 -8.5t0.5 -10.5q0 -27 -16 -45.5t-48 -18.5q-22 0 -38.5 6.5t-30.5 14t-27 13.5t-27 6q-16 0 -25.5 -9.5
t-9.5 -27.5q0 -9 3 -18l2 -8h-35z" />
    <glyph glyph-name="exclamdown" unicode="&#xa1;" horiz-adv-x="200" 
d="M129 495q14 0 23.5 -9t9.5 -24q0 -17 -10 -27.5t-27 -10.5q-14 0 -23 9t-9 24q0 17 9.5 27.5t26.5 10.5zM77 -211h-43l59 516h33z" />
    <glyph glyph-name="cent" unicode="&#xa2;" horiz-adv-x="440" 
d="M207 109q-68 7 -108.5 63t-40.5 150q0 129 52.5 205t149.5 84l9 89h33l-10 -89q26 -1 47.5 -9.5t39 -21t29 -28.5t17.5 -33l-34 -17q-6 24 -33.5 48t-69.5 27l-46 -435q28 1 51 10.5t40.5 23t29 29.5t15.5 31l24 -16q-5 -17 -19 -36t-35 -35t-48.5 -27t-60.5 -13
l-11 -109h-33zM256 576q-78 -7 -118.5 -72.5t-40.5 -177.5q0 -78 31 -125.5t83 -55.5z" />
    <glyph glyph-name="sterling" unicode="&#xa3;" horiz-adv-x="530" 
d="M463 500l4 22t2 28q0 36 -15 59.5t-38 36.5t-51 18t-54 5q-88 0 -133.5 -40.5t-45.5 -112.5q0 -25 5 -48.5t12.5 -47.5t15.5 -49t14 -52h231l-3 -35h-222q3 -22 3 -49q0 -35 -9 -65.5t-22.5 -56t-30 -45.5t-31.5 -33h383l-4 -35h-437l3 29q20 15 39 35.5t34 46t24.5 55.5
t9.5 63q0 14 -1 28t-3 27h-93l3 35h82q-12 50 -28 96t-16 96q0 92 57.5 142.5t165.5 50.5q33 0 67 -6t62 -22.5t46 -44.5t18 -73q0 -20 -2.5 -32t-4.5 -26h-37z" />
    <glyph glyph-name="currency" unicode="&#xa4;" horiz-adv-x="520" 
d="M46 188l87 82q-16 32 -16 70q0 29 9.5 56t24.5 47l-69 80l24 22l67 -79q23 23 52.5 37t64.5 14q33 0 59.5 -13.5t44.5 -36.5l85 78l19 -22l-87 -80q9 -16 13 -35t4 -39q0 -57 -34 -101l68 -79l-23 -22l-68 78q-45 -50 -113 -50q-34 -1 -62 13t-46 39l-84 -81zM260 226
q27 0 51.5 11.5t43.5 30.5t30 45t11 54q0 51 -30.5 85t-78.5 34q-27 0 -52 -11.5t-43.5 -31t-30 -45t-11.5 -54.5q0 -49 30.5 -83t79.5 -35z" />
    <glyph glyph-name="yen" unicode="&#xa5;" horiz-adv-x="553" 
d="M258 248h-174l3 32h174l3 26l-35 70h-131l3 32h111l-140 293h46l170 -362l245 362h46l-201 -292h111l-4 -33h-130l-51 -71l-3 -25h174l-3 -32h-174l-26 -248h-40z" />
    <glyph glyph-name="brokenbar" unicode="&#xa6;" horiz-adv-x="207" 
d="M138 736h36l-43 -412h-36zM78 166h36l-44 -420h-36z" />
    <glyph glyph-name="section" unicode="&#xa7;" horiz-adv-x="572" 
d="M230 -245q-84 0 -142.5 30t-84.5 87l30 22q26 -51 77.5 -77.5t123.5 -26.5q113 0 165.5 46t52.5 120q0 53 -29 79t-72.5 39.5t-94.5 21t-94.5 23.5t-72.5 46.5t-29 89.5q0 42 17.5 77t48.5 64q-20 21 -30.5 49.5t-10.5 60.5q0 45 17.5 82t49.5 63.5t77 40.5t101 14
q49 0 87 -12.5t65 -31t42.5 -41t19.5 -42.5l-33 -18q-4 18 -19 37t-38 35.5t-55 27t-71 10.5q-96 0 -149 -43.5t-53 -118.5q0 -52 29 -78.5t72.5 -40.5t94.5 -23t94.5 -26t72.5 -49.5t29 -93.5q0 -48 -19.5 -81.5t-41.5 -53.5q17 -16 26.5 -44t9.5 -60q0 -43 -16 -80.5
t-48.5 -65t-82 -43t-116.5 -15.5zM429 84q20 18 34 45t14 62q0 40 -16.5 64.5t-43 39.5t-60.5 23.5t-70 16t-71 17t-62 26.5q-23 -17 -38 -47.5t-15 -66.5q0 -38 16.5 -61.5t44 -37t62 -21.5t71 -15t71.5 -17t63 -28z" />
    <glyph glyph-name="dieresis" unicode="&#xa8;" horiz-adv-x="309" 
d="M118 598q-31 0 -31 32q0 16 10 27t27 11q15 0 23.5 -9t8.5 -22q0 -17 -10 -28t-28 -11zM268 598q-14 0 -22.5 8.5t-8.5 23.5q0 16 10.5 27t27.5 11q14 0 22.5 -9t8.5 -22q0 -17 -10 -28t-28 -11z" />
    <glyph glyph-name="copyright" unicode="&#xa9;" horiz-adv-x="809" 
d="M387 -11q-76 0 -137 24t-104 68t-65.5 105.5t-22.5 135.5q0 96 30 172.5t82.5 130.5t123.5 83t152 29q77 0 138 -24.5t104 -68.5t66 -105.5t23 -135.5q0 -96 -30 -172.5t-82.5 -130t-124 -82.5t-153.5 -29zM391 23q72 0 136 26.5t111.5 75.5t75 118.5t27.5 155.5
q0 68 -21 124t-59.5 96t-94 62.5t-124.5 22.5q-72 0 -135.5 -26.5t-111 -75.5t-74.5 -119.5t-27 -157.5q0 -67 20.5 -122.5t59 -95.5t93.5 -62t124 -22zM395 109q-82 0 -129.5 55.5t-47.5 154.5q0 68 16 123.5t45.5 94.5t71.5 60.5t94 21.5q67 0 105.5 -32t38.5 -92v-13
t-2 -13h-35q1 5 1 10v10q0 47 -28.5 71.5t-82.5 24.5q-43 0 -77.5 -19t-58.5 -53t-37 -82t-13 -105q0 -88 38 -135.5t106 -47.5q56 0 87.5 20t50.5 47l23 -20q-21 -32 -60.5 -56.5t-105.5 -24.5z" />
    <glyph glyph-name="ordfeminine" unicode="&#xaa;" horiz-adv-x="332" 
d="M150 420q-35 0 -55 16.5t-20 48.5q0 37 27 58t81 21h76l4 39q7 72 -61 72q-32 0 -49.5 -12t-17.5 -44q0 -11 2 -15h-33q0 2 -1 6.5t-1 12.5q0 41 27.5 61t75.5 20q103 0 92 -100l-13 -128q-2 -14 2 -19t17 -5l-3 -28q-2 -1 -4 -1q-5 -1 -12 -1q-15 0 -25 10.5t-8 31.5
l1 13q-16 -26 -41.5 -41.5t-60.5 -15.5zM158 447q23 0 40.5 8.5t30 20.5t19.5 26t8 25l1 11h-75q-40 0 -57 -13.5t-17 -36.5q0 -22 13.5 -31.5t36.5 -9.5z" />
    <glyph glyph-name="guillemotleft" unicode="&#xab;" horiz-adv-x="391" 
d="M39 240l4 35l153 145l20 -26l-144 -137l115 -137l-25 -26zM190 240l3 35l154 145l19 -26l-143 -137l114 -137l-24 -26z" />
    <glyph glyph-name="registered" unicode="&#xae;" horiz-adv-x="809" 
d="M387 -11q-76 0 -137 24t-104 68t-65.5 105.5t-22.5 135.5q0 96 30 172.5t82.5 130.5t123.5 83t152 29q77 0 138 -24.5t104 -68.5t66 -105.5t23 -135.5q0 -96 -30 -172.5t-82.5 -130t-124 -82.5t-153.5 -29zM391 23q72 0 136 26.5t111.5 75.5t75 118.5t27.5 155.5
q0 68 -21 124t-59.5 96t-94 62.5t-124.5 22.5q-72 0 -135.5 -26.5t-111 -75.5t-74.5 -119.5t-27 -157.5q0 -67 20.5 -122.5t59 -95.5t93.5 -62t124 -22zM564 121q-27 0 -42.5 15.5t-25 39.5t-16 51t-15 51t-21.5 39.5t-36 15.5h-118l-23 -211h-35l51 483h160q60 0 94 -28.5
t34 -91.5q0 -46 -15 -73.5t-34 -42.5t-37 -20t-24 -6q23 -12 33.5 -43t19 -64t20.5 -58t38 -25h17l-4 -32h-21zM412 364q123 0 123 118q0 91 -100 91h-120l-23 -209h120z" />
    <glyph glyph-name="macron" unicode="&#xaf;" horiz-adv-x="338" 
d="M103 654h219l-3 -33h-220z" />
    <glyph glyph-name="degree" unicode="&#xb0;" horiz-adv-x="310" 
d="M183 470q-46 0 -75 28.5t-29 78.5q0 26 9 49.5t25.5 41t38.5 27.5t49 10q45 0 74 -28.5t29 -79.5q0 -26 -9.5 -49t-25.5 -40.5t-38 -27.5t-48 -10zM185 495q42 0 68.5 29t26.5 71t-22.5 63.5t-59.5 21.5q-43 0 -68.5 -29.5t-25.5 -71.5q0 -41 22 -62.5t59 -21.5z" />
    <glyph glyph-name="plusminus" unicode="&#xb1;" horiz-adv-x="434" 
d="M206 292h-143l4 33h142l17 162h34l-17 -162h143l-3 -33h-144l-17 -164h-33zM36 44h321l-3 -33h-321z" />
    <glyph glyph-name="acute" unicode="&#xb4;" horiz-adv-x="230" 
d="M184 715h48l-108 -152h-36z" />
    <glyph glyph-name="paragraph" unicode="&#xb6;" horiz-adv-x="525" 
d="M297 289h-67q-87 0 -130 50t-43 129q0 50 14 92t41 73.5t67.5 49t93.5 17.5h209l-74 -700h-28l71 675h-86l-71 -675h-28z" />
    <glyph glyph-name="periodcentered" unicode="&#xb7;" horiz-adv-x="190" 
d="M106 320q-15 0 -24 8.5t-9 23.5q0 17 10 27.5t26 10.5q14 0 23.5 -8.5t9.5 -23.5q0 -17 -9.5 -27.5t-26.5 -10.5z" />
    <glyph glyph-name="cedilla" unicode="&#xb8;" horiz-adv-x="247" 
d="M79 -177q-45 0 -69 27l20 23q19 -20 49 -20q50 0 50 42q0 19 -16 30t-53 11l31 66h29l-20 -42q67 -10 67 -64q0 -38 -25 -55.5t-63 -17.5z" />
    <glyph glyph-name="ordmasculine" unicode="&#xba;" horiz-adv-x="329" 
d="M188 420q-48 0 -78.5 30.5t-30.5 90.5q0 78 37.5 120t95.5 42q47 0 76.5 -30.5t29.5 -90.5q0 -78 -37 -120t-93 -42zM191 450q37 0 64 31.5t27 97.5q0 48 -21.5 71.5t-51.5 23.5q-38 0 -66.5 -31.5t-28.5 -98.5q0 -49 22.5 -71.5t54.5 -22.5z" />
    <glyph glyph-name="guillemotright" unicode="&#xbb;" horiz-adv-x="391" 
d="M28 119l144 138l-115 136l26 26l122 -145l-3 -35l-153 -145zM179 119l144 138l-115 136l26 26l122 -145l-4 -35l-153 -145z" />
    <glyph glyph-name="onequarter" unicode="&#xbc;" horiz-adv-x="661" 
d="M414 726h35l-287 -726h-34zM160 633q-4 -9 -13 -19.5t-22 -19.5t-29.5 -15t-35.5 -6l1 31q21 1 38.5 9.5t31 22t22.5 31t14 35.5h33l-40 -382h-32zM502 91h-190l4 30l164 261h36l-163 -261h153l11 100h33l-11 -100h51l-3 -30h-51l-9 -91h-33z" />
    <glyph glyph-name="onehalf" unicode="&#xbd;" horiz-adv-x="681" 
d="M414 726h35l-287 -726h-34zM160 633q-4 -9 -13 -19.5t-22 -19.5t-29.5 -15t-35.5 -6l1 31q21 1 38.5 9.5t31 22t22.5 31t14 35.5h33l-40 -382h-32zM346 24q3 30 21 51t43 38t53 32.5t52 33.5t40 42t16 58q0 32 -19 54.5t-59 22.5q-25 0 -42 -7.5t-27 -19t-15 -24
t-6 -22.5h-31q2 14 8 32t20.5 33.5t37.5 26.5t57 11q55 0 83 -28.5t28 -74.5q0 -38 -16 -66t-40.5 -49t-53 -36.5t-53.5 -30.5t-42.5 -30.5t-19.5 -35.5l-1 -6h212l-3 -29h-245z" />
    <glyph glyph-name="threequarters" unicode="&#xbe;" horiz-adv-x="728" 
d="M481 726h35l-287 -726h-34zM121 315q-93 0 -116 70l28 15q21 -56 92 -56q96 0 96 89q0 35 -21 53t-58 18h-26l3 29h23q41 0 62.5 22t21.5 57q0 31 -18 48t-52 17q-35 0 -59 -19t-28 -55h-31q5 51 39.5 77.5t80.5 26.5q48 0 75 -23.5t27 -65.5q0 -43 -22 -65t-46 -30
q62 -20 62 -87q0 -57 -34.5 -89t-98.5 -32zM569 91h-190l4 30l164 261h36l-163 -261h153l11 100h33l-11 -100h51l-3 -30h-51l-9 -91h-33z" />
    <glyph glyph-name="questiondown" unicode="&#xbf;" horiz-adv-x="421" 
d="M265 495q14 0 23.5 -9t9.5 -24q0 -17 -10 -27.5t-27 -10.5q-14 0 -23 9t-9 24q0 17 9.5 27.5t26.5 10.5zM267 311q-6 -55 -24 -93.5t-41 -67t-49 -50.5t-47 -45.5t-35 -52t-14 -68.5q0 -49 30.5 -83t93.5 -34q60 0 100.5 35.5t48.5 99.5h37q-9 -78 -61 -124t-129 -46
q-43 0 -73.5 12.5t-49.5 33.5t-28 47.5t-9 55.5q0 46 14.5 78t36.5 57t48 47t50 48.5t41.5 62t23.5 87.5h36z" />
    <glyph glyph-name="Agrave" unicode="&#xc0;" horiz-adv-x="583" 
d="M342 743l-80 111h53l65 -111h-38zM446 220h-311l-102 -220h-40l327 700h41l179 -700h-39zM438 254l-101 401l-186 -401h287z" />
    <glyph glyph-name="Aacute" unicode="&#xc1;" horiz-adv-x="583" 
d="M333 743h-39l90 111h53zM446 220h-311l-102 -220h-40l327 700h41l179 -700h-39zM438 254l-101 401l-186 -401h287z" />
    <glyph glyph-name="Acircumflex" unicode="&#xc2;" horiz-adv-x="583" 
d="M277 743h-38l96 111h44l72 -111h-39l-58 79zM446 220h-311l-102 -220h-40l327 700h41l179 -700h-39zM438 254l-101 401l-186 -401h287z" />
    <glyph glyph-name="Atilde" unicode="&#xc3;" horiz-adv-x="583" 
d="M230 751q-5 10 -5 26q0 27 18 45t47 18q19 0 34 -8.5t28.5 -18t26.5 -18t29 -8.5q31 0 31 37q0 13 -4 18h33q4 -8 4 -24q0 -29 -17 -47t-49 -18q-20 0 -35.5 8.5t-28.5 18t-25 18t-26 8.5t-23 -9.5t-9 -25.5q0 -5 0.5 -10.5t2.5 -9.5h-32zM446 220h-311l-102 -220h-40
l327 700h41l179 -700h-39zM438 254l-101 401l-186 -401h287z" />
    <glyph glyph-name="Adieresis" unicode="&#xc4;" horiz-adv-x="583" 
d="M268 763q-15 0 -24 9.5t-9 23.5q0 18 11 28.5t26 10.5t24 -9.5t9 -23.5q0 -18 -10 -28.5t-27 -10.5zM427 763q-14 0 -23.5 9t-9.5 24q0 18 11 28.5t26 10.5q16 0 24.5 -9.5t8.5 -23.5q0 -18 -10 -28.5t-27 -10.5zM446 220h-311l-102 -220h-40l327 700h41l179 -700h-39z
M438 254l-101 401l-186 -401h287z" />
    <glyph glyph-name="Aring" unicode="&#xc5;" horiz-adv-x="583" 
d="M341 706q-37 0 -58.5 22.5t-21.5 60.5q0 45 27.5 74.5t71.5 29.5q37 0 59 -22.5t22 -60.5q0 -45 -28 -74.5t-72 -29.5zM357 862q-29 0 -46.5 -19t-17.5 -51q0 -26 13.5 -41t37.5 -15q31 0 48 19.5t17 51.5q0 26 -13.5 40.5t-38.5 14.5zM446 220h-311l-102 -220h-40
l327 700h41l179 -700h-39zM438 254l-101 401l-186 -401h287z" />
    <glyph glyph-name="AE" unicode="&#xc6;" horiz-adv-x="752" 
d="M322 700h440l-4 -35h-388l74 -290h231l-4 -35h-218l77 -305h162l-4 -35h-189l-54 219h-313l-100 -219h-39zM436 253l-100 397l-187 -397h287z" />
    <glyph glyph-name="Ccedilla" unicode="&#xc7;" horiz-adv-x="575" 
d="M515 463q6 22 9 37.5t3 38.5q0 69 -43.5 101t-116.5 32q-60 0 -109 -26t-84 -75t-54 -119t-19 -157q0 -138 54.5 -202.5t145.5 -64.5q74 0 119.5 28.5t77.5 73.5l25 -21q-37 -51 -85.5 -81.5t-123.5 -33.5l-16 -34q67 -10 67 -64q0 -38 -25 -55.5t-63 -17.5q-45 0 -69 27
l20 23q19 -20 49 -20q50 0 50 42q0 19 -16 30t-53 11l27 58q-104 4 -165 76.5t-61 220.5q0 96 22 173t62.5 130.5t98.5 82.5t131 29q88 0 140 -40.5t52 -118.5q0 -34 -4.5 -50.5t-9.5 -33.5h-36z" />
    <glyph glyph-name="Egrave" unicode="&#xc8;" horiz-adv-x="519" 
d="M262 854h53l65 -111h-38zM141 700h386l-4 -36h-347l-31 -292h305l-4 -36h-305l-31 -300h347l-4 -36h-386z" />
    <glyph glyph-name="Eacute" unicode="&#xc9;" horiz-adv-x="519" 
d="M384 854h53l-104 -111h-39zM141 700h386l-4 -36h-347l-31 -292h305l-4 -36h-305l-31 -300h347l-4 -36h-386z" />
    <glyph glyph-name="Ecircumflex" unicode="&#xca;" horiz-adv-x="519" 
d="M335 854h44l72 -111h-39l-58 79l-77 -79h-38zM141 700h386l-4 -36h-347l-31 -292h305l-4 -36h-305l-31 -300h347l-4 -36h-386z" />
    <glyph glyph-name="Edieresis" unicode="&#xcb;" horiz-adv-x="519" 
d="M268 763q-15 0 -24 9.5t-9 23.5q0 18 11 28.5t26 10.5t24 -9.5t9 -23.5q0 -18 -10 -28.5t-27 -10.5zM427 763q-14 0 -23.5 9t-9.5 24q0 18 11 28.5t26 10.5q16 0 24.5 -9.5t8.5 -23.5q0 -18 -10 -28.5t-27 -10.5zM141 700h386l-4 -36h-347l-31 -292h305l-4 -36h-305
l-31 -300h347l-4 -36h-386z" />
    <glyph glyph-name="Igrave" unicode="&#xcc;" horiz-adv-x="223" 
d="M82 854h53l65 -111h-38zM141 700h39l-74 -700h-39z" />
    <glyph glyph-name="Iacute" unicode="&#xcd;" horiz-adv-x="223" 
d="M203 854h53l-104 -111h-39zM141 700h39l-74 -700h-39z" />
    <glyph glyph-name="Icircumflex" unicode="&#xce;" horiz-adv-x="223" 
d="M154 854h44l72 -111h-39l-58 79l-77 -79h-38zM141 700h39l-74 -700h-39z" />
    <glyph glyph-name="Idieresis" unicode="&#xcf;" horiz-adv-x="223" 
d="M87 763q-15 0 -24 9.5t-9 23.5q0 18 11 28.5t26 10.5t24 -9.5t9 -23.5q0 -18 -10 -28.5t-27 -10.5zM246 763q-14 0 -23.5 9t-9.5 24q0 18 11 28.5t26 10.5q16 0 24.5 -9.5t8.5 -23.5q0 -18 -10 -28.5t-27 -10.5zM141 700h39l-74 -700h-39z" />
    <glyph glyph-name="Eth" unicode="&#xd0;" horiz-adv-x="660" 
d="M316 700q66 0 121 -18.5t94.5 -56t62 -95t22.5 -134.5q0 -101 -27.5 -175.5t-76.5 -123.5t-116.5 -73t-146.5 -24h-178l35 334h-93l4 34h93l35 332h171zM251 35q71 0 130 21t102 64.5t67 111t24 160.5q0 72 -20 123.5t-55.5 84.5t-83 49t-103.5 16h-131l-31 -297h95
l-3 -34h-96l-31 -299h136z" />
    <glyph glyph-name="Ntilde" unicode="&#xd1;" horiz-adv-x="640" 
d="M267 751q-5 10 -5 26q0 27 18 45t47 18q19 0 34 -8.5t28.5 -18t26.5 -18t29 -8.5q31 0 31 37q0 13 -4 18h33q4 -8 4 -24q0 -29 -17 -47t-49 -18q-20 0 -35.5 8.5t-28.5 18t-25 18t-26 8.5t-23 -9.5t-9 -25.5q0 -5 0.5 -10.5t2.5 -9.5h-32zM141 700h36l306 -616l9 -19
l67 635h39l-75 -700h-37l-308 615l-7 18l-66 -633h-38z" />
    <glyph glyph-name="Ograve" unicode="&#xd2;" horiz-adv-x="670" 
d="M306 854h53l65 -111h-38zM323 -6q-52 0 -99.5 16t-84 51t-58 91.5t-21.5 138.5q0 114 27.5 193t72.5 128.5t102.5 71.5t117.5 22q49 0 94.5 -17t81 -53t57 -93t21.5 -137q0 -114 -26 -192.5t-69.5 -127.5t-99.5 -70.5t-116 -21.5zM327 28q51 0 99 20t85 64.5t59 116
t22 174.5q0 72 -18.5 123t-48.5 83.5t-69 47.5t-80 15q-52 0 -101.5 -20.5t-88 -65.5t-62 -116.5t-23.5 -174.5q0 -74 18.5 -125t50 -82.5t72 -45.5t85.5 -14z" />
    <glyph glyph-name="Oacute" unicode="&#xd3;" horiz-adv-x="670" 
d="M428 854h53l-104 -111h-39zM323 -6q-52 0 -99.5 16t-84 51t-58 91.5t-21.5 138.5q0 114 27.5 193t72.5 128.5t102.5 71.5t117.5 22q49 0 94.5 -17t81 -53t57 -93t21.5 -137q0 -114 -26 -192.5t-69.5 -127.5t-99.5 -70.5t-116 -21.5zM327 28q51 0 99 20t85 64.5t59 116
t22 174.5q0 72 -18.5 123t-48.5 83.5t-69 47.5t-80 15q-52 0 -101.5 -20.5t-88 -65.5t-62 -116.5t-23.5 -174.5q0 -74 18.5 -125t50 -82.5t72 -45.5t85.5 -14z" />
    <glyph glyph-name="Ocircumflex" unicode="&#xd4;" horiz-adv-x="670" 
d="M378 854h44l72 -111h-39l-58 79l-77 -79h-38zM323 -6q-52 0 -99.5 16t-84 51t-58 91.5t-21.5 138.5q0 114 27.5 193t72.5 128.5t102.5 71.5t117.5 22q49 0 94.5 -17t81 -53t57 -93t21.5 -137q0 -114 -26 -192.5t-69.5 -127.5t-99.5 -70.5t-116 -21.5zM327 28q51 0 99 20
t85 64.5t59 116t22 174.5q0 72 -18.5 123t-48.5 83.5t-69 47.5t-80 15q-52 0 -101.5 -20.5t-88 -65.5t-62 -116.5t-23.5 -174.5q0 -74 18.5 -125t50 -82.5t72 -45.5t85.5 -14z" />
    <glyph glyph-name="Otilde" unicode="&#xd5;" horiz-adv-x="670" 
d="M273 751q-5 10 -5 26q0 27 18 45t47 18q19 0 34 -8.5t28.5 -18t26.5 -18t29 -8.5q31 0 31 37q0 13 -4 18h33q4 -8 4 -24q0 -29 -17 -47t-49 -18q-20 0 -35.5 8.5t-28.5 18t-25 18t-26 8.5t-23 -9.5t-9 -25.5q0 -5 0.5 -10.5t2.5 -9.5h-32zM323 -6q-52 0 -99.5 16t-84 51
t-58 91.5t-21.5 138.5q0 114 27.5 193t72.5 128.5t102.5 71.5t117.5 22q49 0 94.5 -17t81 -53t57 -93t21.5 -137q0 -114 -26 -192.5t-69.5 -127.5t-99.5 -70.5t-116 -21.5zM327 28q51 0 99 20t85 64.5t59 116t22 174.5q0 72 -18.5 123t-48.5 83.5t-69 47.5t-80 15
q-52 0 -101.5 -20.5t-88 -65.5t-62 -116.5t-23.5 -174.5q0 -74 18.5 -125t50 -82.5t72 -45.5t85.5 -14z" />
    <glyph glyph-name="Odieresis" unicode="&#xd6;" horiz-adv-x="670" 
d="M312 763q-15 0 -24 9.5t-9 23.5q0 18 11 28.5t26 10.5t24 -9.5t9 -23.5q0 -18 -10 -28.5t-27 -10.5zM471 763q-14 0 -23.5 9t-9.5 24q0 18 11 28.5t26 10.5q16 0 24.5 -9.5t8.5 -23.5q0 -18 -10 -28.5t-27 -10.5zM323 -6q-52 0 -99.5 16t-84 51t-58 91.5t-21.5 138.5
q0 114 27.5 193t72.5 128.5t102.5 71.5t117.5 22q49 0 94.5 -17t81 -53t57 -93t21.5 -137q0 -114 -26 -192.5t-69.5 -127.5t-99.5 -70.5t-116 -21.5zM327 28q51 0 99 20t85 64.5t59 116t22 174.5q0 72 -18.5 123t-48.5 83.5t-69 47.5t-80 15q-52 0 -101.5 -20.5t-88 -65.5
t-62 -116.5t-23.5 -174.5q0 -74 18.5 -125t50 -82.5t72 -45.5t85.5 -14z" />
    <glyph glyph-name="multiply" unicode="&#xd7;" horiz-adv-x="404" 
d="M49 136l130 123l-102 121l26 23l101 -121l128 121l23 -26l-127 -121l104 -122l-26 -23l-104 123l-130 -123z" />
    <glyph glyph-name="Oslash" unicode="&#xd8;" horiz-adv-x="670" 
d="M570 620q29 -36 46.5 -89t17.5 -125q0 -114 -26 -192.5t-69.5 -127.5t-99.5 -70.5t-116 -21.5q-50 0 -95.5 14t-80.5 46l-53 -70h-41l71 94q-30 35 -47 88t-17 125q0 114 27.5 193t72.5 128.5t102.5 71.5t117.5 22q46 0 89 -15t78 -47l54 72h40zM101 295q0 -61 12.5 -106
t35.5 -77l374 500q-30 31 -68 45.5t-79 14.5q-52 0 -101.5 -20.5t-88 -65.5t-62 -116.5t-23.5 -174.5zM592 403q0 60 -12.5 105.5t-35.5 77.5l-373 -500q31 -31 71 -44.5t85 -13.5q51 0 99 20t85 64.5t59 116t22 174.5z" />
    <glyph glyph-name="Ugrave" unicode="&#xd9;" horiz-adv-x="640" 
d="M291 854h53l65 -111h-38zM295 -6q-52 0 -94.5 14t-70.5 47.5t-39.5 89.5t-2.5 140l44 415h39l-44 -417q-7 -72 2 -120.5t32 -78t58 -42.5t79 -13t82 12.5t67.5 42t49 78t27.5 121.5l44 417h38l-44 -415q-9 -85 -32.5 -141t-58.5 -89.5t-79.5 -47t-96.5 -13.5z" />
    <glyph glyph-name="Uacute" unicode="&#xda;" horiz-adv-x="640" 
d="M412 854h53l-104 -111h-39zM295 -6q-52 0 -94.5 14t-70.5 47.5t-39.5 89.5t-2.5 140l44 415h39l-44 -417q-7 -72 2 -120.5t32 -78t58 -42.5t79 -13t82 12.5t67.5 42t49 78t27.5 121.5l44 417h38l-44 -415q-9 -85 -32.5 -141t-58.5 -89.5t-79.5 -47t-96.5 -13.5z" />
    <glyph glyph-name="Ucircumflex" unicode="&#xdb;" horiz-adv-x="640" 
d="M363 854h44l72 -111h-39l-58 79l-77 -79h-38zM295 -6q-52 0 -94.5 14t-70.5 47.5t-39.5 89.5t-2.5 140l44 415h39l-44 -417q-7 -72 2 -120.5t32 -78t58 -42.5t79 -13t82 12.5t67.5 42t49 78t27.5 121.5l44 417h38l-44 -415q-9 -85 -32.5 -141t-58.5 -89.5t-79.5 -47
t-96.5 -13.5z" />
    <glyph glyph-name="Udieresis" unicode="&#xdc;" horiz-adv-x="640" 
d="M296 763q-15 0 -24 9.5t-9 23.5q0 18 11 28.5t26 10.5t24 -9.5t9 -23.5q0 -18 -10 -28.5t-27 -10.5zM455 763q-14 0 -23.5 9t-9.5 24q0 18 11 28.5t26 10.5q16 0 24.5 -9.5t8.5 -23.5q0 -18 -10 -28.5t-27 -10.5zM295 -6q-52 0 -94.5 14t-70.5 47.5t-39.5 89.5t-2.5 140
l44 415h39l-44 -417q-7 -72 2 -120.5t32 -78t58 -42.5t79 -13t82 12.5t67.5 42t49 78t27.5 121.5l44 417h38l-44 -415q-9 -85 -32.5 -141t-58.5 -89.5t-79.5 -47t-96.5 -13.5z" />
    <glyph glyph-name="Yacute" unicode="&#xdd;" horiz-adv-x="547" 
d="M367 854h53l-104 -111h-39zM260 295l-187 405h46l165 -365l243 365h45l-272 -405l-31 -295h-40z" />
    <glyph glyph-name="Thorn" unicode="&#xde;" horiz-adv-x="555" 
d="M141 700h39l-14 -135h158q95 0 147.5 -45.5t52.5 -137.5q0 -60 -18 -104t-51 -73t-78.5 -43.5t-99.5 -14.5h-156l-15 -147h-39zM277 182q103 0 154.5 52t51.5 144q0 70 -39.5 111.5t-125.5 41.5h-156l-37 -349h152z" />
    <glyph glyph-name="germandbls" unicode="&#xdf;" horiz-adv-x="507" 
d="M298 -11q-42 0 -77.5 11.5t-61.5 42.5l23 28q20 -26 48 -37.5t71 -11.5q66 0 97.5 28.5t31.5 76.5q0 33 -14 52.5t-35 32t-46 21.5t-46 22t-35 33t-14 54q0 31 13 53t32 39.5t42 33.5t42 34.5t32 42t13 56.5q0 49 -30.5 73t-78.5 24q-63 0 -100.5 -40t-46.5 -119
l-56 -539h-38l47 450h-67l4 32h66l7 59q10 92 59.5 141.5t129.5 49.5q63 0 102.5 -33.5t39.5 -94.5q0 -39 -13 -66.5t-32 -48t-41.5 -36.5t-41.5 -31t-32 -32t-13 -40q0 -27 14 -43.5t35 -27.5t45 -21t45 -25t35 -38.5t14 -62.5q0 -65 -43 -104t-126 -39z" />
    <glyph glyph-name="agrave" unicode="&#xe0;" horiz-adv-x="505" 
d="M195 715h46l65 -152h-35zM208 -11q-78 0 -121.5 55.5t-43.5 153.5q0 65 16 119t45 93t71 60.5t94 21.5q50 0 86 -25t52 -67l8 81h36l-42 -396q-6 -58 35 -54l-3 -31q-10 -2 -19 -2q-28 0 -41 19.5t-10 53.5l3 23q-21 -44 -63.5 -74.5t-102.5 -30.5zM218 22q26 0 51.5 9.5
t46.5 27t37.5 42t24.5 54.5l20 190q-10 51 -44 82.5t-85 31.5q-43 0 -77.5 -19t-59 -53t-37.5 -81t-13 -103q0 -85 36.5 -133t99.5 -48z" />
    <glyph glyph-name="aacute" unicode="&#xe1;" horiz-adv-x="505" 
d="M345 715h48l-108 -152h-36zM208 -11q-78 0 -121.5 55.5t-43.5 153.5q0 65 16 119t45 93t71 60.5t94 21.5q50 0 86 -25t52 -67l8 81h36l-42 -396q-6 -58 35 -54l-3 -31q-10 -2 -19 -2q-28 0 -41 19.5t-10 53.5l3 23q-21 -44 -63.5 -74.5t-102.5 -30.5zM218 22
q26 0 51.5 9.5t46.5 27t37.5 42t24.5 54.5l20 190q-10 51 -44 82.5t-85 31.5q-43 0 -77.5 -19t-59 -53t-37.5 -81t-13 -103q0 -85 36.5 -133t99.5 -48z" />
    <glyph glyph-name="acircumflex" unicode="&#xe2;" horiz-adv-x="505" 
d="M280 715h42l68 -152h-37l-55 121l-81 -121h-37zM208 -11q-78 0 -121.5 55.5t-43.5 153.5q0 65 16 119t45 93t71 60.5t94 21.5q50 0 86 -25t52 -67l8 81h36l-42 -396q-6 -58 35 -54l-3 -31q-10 -2 -19 -2q-28 0 -41 19.5t-10 53.5l3 23q-21 -44 -63.5 -74.5t-102.5 -30.5z
M218 22q26 0 51.5 9.5t46.5 27t37.5 42t24.5 54.5l20 190q-10 51 -44 82.5t-85 31.5q-43 0 -77.5 -19t-59 -53t-37.5 -81t-13 -103q0 -85 36.5 -133t99.5 -48z" />
    <glyph glyph-name="atilde" unicode="&#xe3;" horiz-adv-x="505" 
d="M175 594q-5 10 -5 26q0 27 17.5 45t48.5 18q18 0 32.5 -8.5t27.5 -18.5t26.5 -18.5t29.5 -8.5q31 0 31 37q0 14 -4 19h34q3 -9 3 -24q0 -29 -16.5 -47t-46.5 -18q-21 0 -37 8.5t-28.5 18.5t-24 18.5t-25.5 8.5q-16 0 -25.5 -9.5t-9.5 -26.5q0 -5 1 -10t3 -10h-32z
M208 -11q-78 0 -121.5 55.5t-43.5 153.5q0 65 16 119t45 93t71 60.5t94 21.5q50 0 86 -25t52 -67l8 81h36l-42 -396q-6 -58 35 -54l-3 -31q-10 -2 -19 -2q-28 0 -41 19.5t-10 53.5l3 23q-21 -44 -63.5 -74.5t-102.5 -30.5zM218 22q26 0 51.5 9.5t46.5 27t37.5 42t24.5 54.5
l20 190q-10 51 -44 82.5t-85 31.5q-43 0 -77.5 -19t-59 -53t-37.5 -81t-13 -103q0 -85 36.5 -133t99.5 -48z" />
    <glyph glyph-name="adieresis" unicode="&#xe4;" horiz-adv-x="505" 
d="M215 599q-31 0 -31 32q0 16 10 27t27 11q15 0 23.5 -9t8.5 -22q0 -17 -10 -28t-28 -11zM365 599q-14 0 -22.5 8.5t-8.5 23.5q0 16 10.5 27t27.5 11q14 0 22.5 -9t8.5 -22q0 -17 -10 -28t-28 -11zM208 -11q-78 0 -121.5 55.5t-43.5 153.5q0 65 16 119t45 93t71 60.5
t94 21.5q50 0 86 -25t52 -67l8 81h36l-42 -396q-6 -58 35 -54l-3 -31q-10 -2 -19 -2q-28 0 -41 19.5t-10 53.5l3 23q-21 -44 -63.5 -74.5t-102.5 -30.5zM218 22q26 0 51.5 9.5t46.5 27t37.5 42t24.5 54.5l20 190q-10 51 -44 82.5t-85 31.5q-43 0 -77.5 -19t-59 -53
t-37.5 -81t-13 -103q0 -85 36.5 -133t99.5 -48z" />
    <glyph glyph-name="aring" unicode="&#xe5;" horiz-adv-x="505" 
d="M285 532q-38 0 -60 23.5t-22 59.5q0 44 28 73.5t71 29.5q36 0 58.5 -24t22.5 -60q0 -45 -28.5 -73.5t-69.5 -28.5zM288 562q29 0 46 19t17 51q0 25 -13.5 40t-38.5 15q-29 0 -46.5 -19.5t-17.5 -50.5q0 -25 13.5 -40t39.5 -15zM208 -11q-78 0 -121.5 55.5t-43.5 153.5
q0 65 16 119t45 93t71 60.5t94 21.5q50 0 86 -25t52 -67l8 81h36l-42 -396q-6 -58 35 -54l-3 -31q-10 -2 -19 -2q-28 0 -41 19.5t-10 53.5l3 23q-21 -44 -63.5 -74.5t-102.5 -30.5zM218 22q26 0 51.5 9.5t46.5 27t37.5 42t24.5 54.5l20 190q-10 51 -44 82.5t-85 31.5
q-43 0 -77.5 -19t-59 -53t-37.5 -81t-13 -103q0 -85 36.5 -133t99.5 -48z" />
    <glyph glyph-name="ae" unicode="&#xe6;" horiz-adv-x="759" 
d="M572 492q81 0 116 -50.5t33 -139.5q-1 -24 -2 -33t-2 -15h-325q-3 -22 -3 -47q0 -90 36 -137.5t106 -47.5q51 0 83.5 19t55.5 51l24 -20q-27 -36 -67.5 -59.5t-100.5 -23.5q-72 0 -114 38t-55 108q-39 -80 -92 -111.5t-115 -31.5q-59 0 -92 29.5t-33 80.5
q0 65 46.5 100.5t131.5 35.5h148l9 88q14 132 -113 132q-65 0 -101.5 -31.5t-36.5 -86.5q0 -22 5 -37h-35q-2 7 -4 17.5t-2 23.5q0 33 13 60t37 46.5t57 30.5t72 11q65 0 101 -28t44 -79q30 51 75 79t100 28zM683 285q3 36 -0.5 67.5t-16.5 55t-37 37.5t-62 14
q-34 0 -62.5 -13.5t-50 -36.5t-36 -55t-22.5 -69h287zM158 24q127 0 186 149l4 35h-145q-69 0 -103.5 -26.5t-34.5 -74.5q0 -38 25 -60.5t68 -22.5z" />
    <glyph glyph-name="ccedilla" unicode="&#xe7;" horiz-adv-x="442" 
d="M369 305q2 9 5.5 24t3.5 30q0 50 -30.5 75t-82.5 25q-39 0 -72 -17.5t-57.5 -50.5t-38.5 -80t-14 -107q0 -90 39.5 -136t104.5 -46q49 0 81 19t54 51l24 -20q-23 -34 -59.5 -57.5t-96.5 -25.5l-14 -29q67 -10 67 -64q0 -38 -25 -55.5t-63 -17.5q-45 0 -69 27l20 23
q19 -20 49 -20q50 0 50 42q0 19 -16 30t-53 11l25 54q-73 7 -115 59t-42 152q0 68 17 122t47 91.5t70.5 57.5t88.5 20q70 0 108 -33t38 -93q0 -18 -3.5 -35.5t-6.5 -25.5h-34z" />
    <glyph glyph-name="egrave" unicode="&#xe8;" horiz-adv-x="446" 
d="M244 563l-76 152h46l65 -152h-35zM219 22q53 0 87 21t57 50l24 -21q-27 -35 -69 -59t-103 -24q-81 0 -126.5 52t-45.5 153q0 64 18.5 118.5t51 94.5t77 62.5t97.5 22.5q62 0 95.5 -31t33.5 -85t-29.5 -87t-76.5 -52t-107 -27t-121 -11q1 -89 37.5 -133t99.5 -44zM282 459
q-39 0 -74 -17t-61.5 -47t-43 -72t-20.5 -93q53 3 105.5 9.5t94.5 21.5t68.5 41.5t26.5 69.5q0 42 -25 64.5t-71 22.5z" />
    <glyph glyph-name="eacute" unicode="&#xe9;" horiz-adv-x="446" 
d="M258 563h-36l96 152h48zM219 22q53 0 87 21t57 50l24 -21q-27 -35 -69 -59t-103 -24q-81 0 -126.5 52t-45.5 153q0 64 18.5 118.5t51 94.5t77 62.5t97.5 22.5q62 0 95.5 -31t33.5 -85t-29.5 -87t-76.5 -52t-107 -27t-121 -11q1 -89 37.5 -133t99.5 -44zM282 459
q-39 0 -74 -17t-61.5 -47t-43 -72t-20.5 -93q53 3 105.5 9.5t94.5 21.5t68.5 41.5t26.5 69.5q0 42 -25 64.5t-71 22.5z" />
    <glyph glyph-name="ecircumflex" unicode="&#xea;" horiz-adv-x="446" 
d="M190 563h-37l100 152h42l68 -152h-37l-55 121zM219 22q53 0 87 21t57 50l24 -21q-27 -35 -69 -59t-103 -24q-81 0 -126.5 52t-45.5 153q0 64 18.5 118.5t51 94.5t77 62.5t97.5 22.5q62 0 95.5 -31t33.5 -85t-29.5 -87t-76.5 -52t-107 -27t-121 -11q1 -89 37.5 -133
t99.5 -44zM282 459q-39 0 -74 -17t-61.5 -47t-43 -72t-20.5 -93q53 3 105.5 9.5t94.5 21.5t68.5 41.5t26.5 69.5q0 42 -25 64.5t-71 22.5z" />
    <glyph glyph-name="edieresis" unicode="&#xeb;" horiz-adv-x="446" 
d="M189 599q-31 0 -31 32q0 16 10 27t27 11q15 0 23.5 -9t8.5 -22q0 -17 -10 -28t-28 -11zM339 599q-14 0 -22.5 8.5t-8.5 23.5q0 16 10.5 27t27.5 11q14 0 22.5 -9t8.5 -22q0 -17 -10 -28t-28 -11zM219 22q53 0 87 21t57 50l24 -21q-27 -35 -69 -59t-103 -24
q-81 0 -126.5 52t-45.5 153q0 64 18.5 118.5t51 94.5t77 62.5t97.5 22.5q62 0 95.5 -31t33.5 -85t-29.5 -87t-76.5 -52t-107 -27t-121 -11q1 -89 37.5 -133t99.5 -44zM282 459q-39 0 -74 -17t-61.5 -47t-43 -72t-20.5 -93q53 3 105.5 9.5t94.5 21.5t68.5 41.5t26.5 69.5
q0 42 -25 64.5t-71 22.5z" />
    <glyph glyph-name="igrave" unicode="&#xec;" horiz-adv-x="195" 
d="M39 715h46l65 -152h-35zM112 -2q-28 0 -42.5 19.5t-9.5 61.5l42 403h39l-42 -398q-3 -27 4.5 -41t30.5 -14l-4 -29q-2 0 -6.5 -1t-11.5 -1z" />
    <glyph glyph-name="iacute" unicode="&#xed;" horiz-adv-x="195" 
d="M189 715h48l-108 -152h-36zM112 -2q-28 0 -42.5 19.5t-9.5 61.5l42 403h39l-42 -398q-3 -27 4.5 -41t30.5 -14l-4 -29q-2 0 -6.5 -1t-11.5 -1z" />
    <glyph glyph-name="icircumflex" unicode="&#xee;" horiz-adv-x="195" 
d="M124 715h42l68 -152h-37l-55 121l-81 -121h-37zM112 -2q-28 0 -42.5 19.5t-9.5 61.5l42 403h39l-42 -398q-3 -27 4.5 -41t30.5 -14l-4 -29q-2 0 -6.5 -1t-11.5 -1z" />
    <glyph glyph-name="idieresis" unicode="&#xef;" horiz-adv-x="195" 
d="M59 599q-31 0 -31 32q0 16 10 27t27 11q15 0 23.5 -9t8.5 -22q0 -17 -10 -28t-28 -11zM209 599q-14 0 -22.5 8.5t-8.5 23.5q0 16 10.5 27t27.5 11q14 0 22.5 -9t8.5 -22q0 -17 -10 -28t-28 -11zM112 -2q-28 0 -42.5 19.5t-9.5 61.5l42 403h39l-42 -398q-3 -27 4.5 -41
t30.5 -14l-4 -29q-2 0 -6.5 -1t-11.5 -1z" />
    <glyph glyph-name="eth" unicode="&#xf0;" horiz-adv-x="503" 
d="M391 624q33 -44 51 -104.5t18 -137.5q0 -192 -63.5 -293t-181.5 -101q-81 0 -127.5 53.5t-46.5 148.5q0 59 17 107t47 82.5t71 53.5t89 19q57 0 98.5 -27.5t60.5 -73.5q3 81 -13.5 145t-50.5 109l-135 -83l-13 27l128 78q-65 67 -168 68l3 34q122 -2 197 -83l100 61
l12 -26zM220 21q88 0 138.5 75t61.5 212q-24 53 -63 81.5t-93 28.5q-40 0 -73.5 -16t-58 -45.5t-38.5 -70.5t-14 -91q0 -81 38 -127.5t102 -46.5z" />
    <glyph glyph-name="ntilde" unicode="&#xf1;" horiz-adv-x="501" 
d="M173 594q-5 10 -5 26q0 27 17.5 45t48.5 18q18 0 32.5 -8.5t27.5 -18.5t26.5 -18.5t29.5 -8.5q31 0 31 37q0 14 -4 19h34q3 -9 3 -24q0 -29 -16.5 -47t-46.5 -18q-21 0 -37 8.5t-28.5 18.5t-24 18.5t-25.5 8.5q-16 0 -25.5 -9.5t-9.5 -26.5q0 -5 1 -10t3 -10h-32zM426 -2
q-32 0 -44 20.5t-8 59.5l24 227q8 73 -20.5 113t-91.5 40q-33 0 -61.5 -14t-50 -38.5t-35 -57t-17.5 -70.5l-29 -278h-38l42 398q4 36 -4.5 46.5t-30.5 10.5l3 29q4 1 9 1h10q29 0 40 -18t9 -55l-4 -43q21 57 65.5 90t101.5 33q76 0 112.5 -49t27.5 -137l-23 -220
q-4 -36 4 -46.5t31 -10.5l-4 -29q-5 -1 -9 -1.5t-9 -0.5z" />
    <glyph glyph-name="ograve" unicode="&#xf2;" horiz-adv-x="492" 
d="M188 715h46l65 -152h-35zM228 -11q-87 0 -135.5 54t-48.5 159q0 71 17.5 125t47.5 90.5t71 55.5t89 19q84 0 132 -54.5t48 -158.5q0 -70 -17 -124.5t-46.5 -91t-70 -55.5t-87.5 -19zM231 22q36 0 68.5 15.5t57.5 47t39.5 79t14.5 111.5q0 94 -40 139t-106 45
q-36 0 -69 -15.5t-58 -47t-40 -79.5t-15 -112q0 -93 40.5 -138t107.5 -45z" />
    <glyph glyph-name="oacute" unicode="&#xf3;" horiz-adv-x="492" 
d="M338 715h48l-108 -152h-36zM228 -11q-87 0 -135.5 54t-48.5 159q0 71 17.5 125t47.5 90.5t71 55.5t89 19q84 0 132 -54.5t48 -158.5q0 -70 -17 -124.5t-46.5 -91t-70 -55.5t-87.5 -19zM231 22q36 0 68.5 15.5t57.5 47t39.5 79t14.5 111.5q0 94 -40 139t-106 45
q-36 0 -69 -15.5t-58 -47t-40 -79.5t-15 -112q0 -93 40.5 -138t107.5 -45z" />
    <glyph glyph-name="ocircumflex" unicode="&#xf4;" horiz-adv-x="492" 
d="M273 715h42l68 -152h-37l-55 121l-81 -121h-37zM228 -11q-87 0 -135.5 54t-48.5 159q0 71 17.5 125t47.5 90.5t71 55.5t89 19q84 0 132 -54.5t48 -158.5q0 -70 -17 -124.5t-46.5 -91t-70 -55.5t-87.5 -19zM231 22q36 0 68.5 15.5t57.5 47t39.5 79t14.5 111.5
q0 94 -40 139t-106 45q-36 0 -69 -15.5t-58 -47t-40 -79.5t-15 -112q0 -93 40.5 -138t107.5 -45z" />
    <glyph glyph-name="otilde" unicode="&#xf5;" horiz-adv-x="492" 
d="M168 594q-5 10 -5 26q0 27 17.5 45t48.5 18q18 0 32.5 -8.5t27.5 -18.5t26.5 -18.5t29.5 -8.5q31 0 31 37q0 14 -4 19h34q3 -9 3 -24q0 -29 -16.5 -47t-46.5 -18q-21 0 -37 8.5t-28.5 18.5t-24 18.5t-25.5 8.5q-16 0 -25.5 -9.5t-9.5 -26.5q0 -5 1 -10t3 -10h-32z
M228 -11q-87 0 -135.5 54t-48.5 159q0 71 17.5 125t47.5 90.5t71 55.5t89 19q84 0 132 -54.5t48 -158.5q0 -70 -17 -124.5t-46.5 -91t-70 -55.5t-87.5 -19zM231 22q36 0 68.5 15.5t57.5 47t39.5 79t14.5 111.5q0 94 -40 139t-106 45q-36 0 -69 -15.5t-58 -47t-40 -79.5
t-15 -112q0 -93 40.5 -138t107.5 -45z" />
    <glyph glyph-name="odieresis" unicode="&#xf6;" horiz-adv-x="492" 
d="M209 599q-31 0 -31 32q0 16 10 27t27 11q15 0 23.5 -9t8.5 -22q0 -17 -10 -28t-28 -11zM359 599q-14 0 -22.5 8.5t-8.5 23.5q0 16 10.5 27t27.5 11q14 0 22.5 -9t8.5 -22q0 -17 -10 -28t-28 -11zM228 -11q-87 0 -135.5 54t-48.5 159q0 71 17.5 125t47.5 90.5t71 55.5
t89 19q84 0 132 -54.5t48 -158.5q0 -70 -17 -124.5t-46.5 -91t-70 -55.5t-87.5 -19zM231 22q36 0 68.5 15.5t57.5 47t39.5 79t14.5 111.5q0 94 -40 139t-106 45q-36 0 -69 -15.5t-58 -47t-40 -79.5t-15 -112q0 -93 40.5 -138t107.5 -45z" />
    <glyph glyph-name="divide" unicode="&#xf7;" horiz-adv-x="438" 
d="M232 347q-14 0 -24.5 9.5t-10.5 26.5t12.5 30t30.5 13q14 0 24 -10t10 -27t-12.5 -29.5t-29.5 -12.5zM64 278h318l-3 -32h-318zM209 93q-15 0 -25.5 10.5t-10.5 27.5t12.5 29.5t30.5 12.5q14 0 24.5 -10t10.5 -27t-12.5 -30t-29.5 -13z" />
    <glyph glyph-name="oslash" unicode="&#xf8;" horiz-adv-x="492" 
d="M404 434q45 -56 45 -155q0 -70 -17 -124.5t-46.5 -91t-70 -55.5t-87.5 -19q-70 0 -118 37l-33 -46h-36l49 67q-46 55 -46 155q0 71 17.5 125t47.5 90.5t71 55.5t89 19q68 0 114 -37l34 47h36zM83 205q0 -77 31 -124l247 343q-38 35 -96 35q-36 0 -69 -15.5t-58 -47
t-40 -79.5t-15 -112zM411 275q0 80 -31 126l-247 -343q38 -36 98 -36q36 0 68.5 15.5t57.5 47t39.5 79t14.5 111.5z" />
    <glyph glyph-name="ugrave" unicode="&#xf9;" horiz-adv-x="493" 
d="M189 715h46l65 -152h-35zM192 -11q-67 0 -104.5 38.5t-27.5 126.5l35 328h38l-35 -324q-7 -75 23 -105.5t83 -30.5q36 0 66 17t51.5 42t34 55t15.5 55l30 291h38l-42 -396q-4 -35 4.5 -46t30.5 -11l-3 -29q-3 0 -7.5 -1t-11.5 -1q-59 0 -50 73l5 39q-12 -24 -28 -46
t-37 -38.5t-48 -26.5t-60 -10z" />
    <glyph glyph-name="uacute" unicode="&#xfa;" horiz-adv-x="493" 
d="M339 715h48l-108 -152h-36zM192 -11q-67 0 -104.5 38.5t-27.5 126.5l35 328h38l-35 -324q-7 -75 23 -105.5t83 -30.5q36 0 66 17t51.5 42t34 55t15.5 55l30 291h38l-42 -396q-4 -35 4.5 -46t30.5 -11l-3 -29q-3 0 -7.5 -1t-11.5 -1q-59 0 -50 73l5 39q-12 -24 -28 -46
t-37 -38.5t-48 -26.5t-60 -10z" />
    <glyph glyph-name="ucircumflex" unicode="&#xfb;" horiz-adv-x="493" 
d="M273 715h42l68 -152h-37l-55 121l-81 -121h-37zM192 -11q-67 0 -104.5 38.5t-27.5 126.5l35 328h38l-35 -324q-7 -75 23 -105.5t83 -30.5q36 0 66 17t51.5 42t34 55t15.5 55l30 291h38l-42 -396q-4 -35 4.5 -46t30.5 -11l-3 -29q-3 0 -7.5 -1t-11.5 -1q-59 0 -50 73l5 39
q-12 -24 -28 -46t-37 -38.5t-48 -26.5t-60 -10z" />
    <glyph glyph-name="udieresis" unicode="&#xfc;" horiz-adv-x="493" 
d="M209 599q-31 0 -31 32q0 16 10 27t27 11q15 0 23.5 -9t8.5 -22q0 -17 -10 -28t-28 -11zM359 599q-14 0 -22.5 8.5t-8.5 23.5q0 16 10.5 27t27.5 11q14 0 22.5 -9t8.5 -22q0 -17 -10 -28t-28 -11zM192 -11q-67 0 -104.5 38.5t-27.5 126.5l35 328h38l-35 -324
q-7 -75 23 -105.5t83 -30.5q36 0 66 17t51.5 42t34 55t15.5 55l30 291h38l-42 -396q-4 -35 4.5 -46t30.5 -11l-3 -29q-3 0 -7.5 -1t-11.5 -1q-59 0 -50 73l5 39q-12 -24 -28 -46t-37 -38.5t-48 -26.5t-60 -10z" />
    <glyph glyph-name="yacute" unicode="&#xfd;" horiz-adv-x="487" 
d="M335 715h48l-108 -152h-36zM185 -247q-71 0 -109.5 26t-53.5 71l32 17q14 -35 45 -57.5t91 -22.5q66 0 106.5 39t47.5 108l20 182q-20 -57 -65.5 -90.5t-102.5 -33.5q-153 0 -136 167l34 323h38l-33 -320q-15 -137 109 -137q31 0 59 14t50 38t36 57t18 70l30 278h38
l-59 -554q-10 -81 -61.5 -128t-133.5 -47z" />
    <glyph glyph-name="thorn" unicode="&#xfe;" horiz-adv-x="497" 
d="M125 726h38l-36 -339q23 45 65.5 74t99.5 29q75 0 118.5 -53.5t43.5 -150.5q0 -65 -16 -119t-44.5 -93t-67.5 -60.5t-86 -21.5q-55 0 -92.5 24t-52.5 65l-34 -321h-38zM239 25q39 0 71.5 18.5t56 52.5t36.5 81.5t13 104.5q0 83 -36 128.5t-98 45.5q-57 0 -100.5 -36
t-60.5 -93l-20 -190q11 -51 46.5 -81.5t91.5 -30.5z" />
    <glyph glyph-name="ydieresis" unicode="&#xff;" horiz-adv-x="487" 
d="M205 599q-31 0 -31 32q0 16 10 27t27 11q15 0 23.5 -9t8.5 -22q0 -17 -10 -28t-28 -11zM355 599q-14 0 -22.5 8.5t-8.5 23.5q0 16 10.5 27t27.5 11q14 0 22.5 -9t8.5 -22q0 -17 -10 -28t-28 -11zM185 -247q-71 0 -109.5 26t-53.5 71l32 17q14 -35 45 -57.5t91 -22.5
q66 0 106.5 39t47.5 108l20 182q-20 -57 -65.5 -90.5t-102.5 -33.5q-153 0 -136 167l34 323h38l-33 -320q-15 -137 109 -137q31 0 59 14t50 38t36 57t18 70l30 278h38l-59 -554q-10 -81 -61.5 -128t-133.5 -47z" />
    <glyph glyph-name="Amacron" unicode="&#x100;" horiz-adv-x="583" 
d="M460 775h-223l3 34h224zM446 220h-311l-102 -220h-40l327 700h41l179 -700h-39zM438 254l-101 401l-186 -401h287z" />
    <glyph glyph-name="amacron" unicode="&#x101;" horiz-adv-x="505" 
d="M187 654h219l-3 -33h-220zM208 -11q-78 0 -121.5 55.5t-43.5 153.5q0 65 16 119t45 93t71 60.5t94 21.5q50 0 86 -25t52 -67l8 81h36l-42 -396q-6 -58 35 -54l-3 -31q-10 -2 -19 -2q-28 0 -41 19.5t-10 53.5l3 23q-21 -44 -63.5 -74.5t-102.5 -30.5zM218 22
q26 0 51.5 9.5t46.5 27t37.5 42t24.5 54.5l20 190q-10 51 -44 82.5t-85 31.5q-43 0 -77.5 -19t-59 -53t-37.5 -81t-13 -103q0 -85 36.5 -133t99.5 -48z" />
    <glyph glyph-name="Abreve" unicode="&#x102;" horiz-adv-x="583" 
d="M345 747q-42 0 -65 26.5t-18 73.5h34q-3 -29 10.5 -47.5t42.5 -18.5q30 0 47.5 18.5t20.5 47.5h33q-5 -46 -33 -73t-72 -27zM446 220h-311l-102 -220h-40l327 700h41l179 -700h-39zM438 254l-101 401l-186 -401h287z" />
    <glyph glyph-name="abreve" unicode="&#x103;" horiz-adv-x="505" 
d="M288 575q-50 0 -72 29.5t-16 86.5h33q-4 -44 11 -63t47 -19q67 -2 76 82h33q-6 -56 -35 -86t-77 -30zM208 -11q-78 0 -121.5 55.5t-43.5 153.5q0 65 16 119t45 93t71 60.5t94 21.5q50 0 86 -25t52 -67l8 81h36l-42 -396q-6 -58 35 -54l-3 -31q-10 -2 -19 -2
q-28 0 -41 19.5t-10 53.5l3 23q-21 -44 -63.5 -74.5t-102.5 -30.5zM218 22q26 0 51.5 9.5t46.5 27t37.5 42t24.5 54.5l20 190q-10 51 -44 82.5t-85 31.5q-43 0 -77.5 -19t-59 -53t-37.5 -81t-13 -103q0 -85 36.5 -133t99.5 -48z" />
    <glyph glyph-name="Aogonek" unicode="&#x104;" horiz-adv-x="583" 
d="M484 -138q12 0 20 3.5t16 9.5l13 -22q-9 -8 -23.5 -14.5t-33.5 -6.5q-32 0 -50 16.5t-18 48.5q0 34 24 65t66 49l-52 209h-311l-102 -220h-40l327 700h41l179 -700h-8q-38 -10 -63 -36.5t-25 -57.5q0 -44 40 -44zM438 254l-101 401l-186 -401h287z" />
    <glyph glyph-name="aogonek" unicode="&#x105;" horiz-adv-x="505" 
d="M409 85q-6 -58 35 -54l-3 -31q-2 0 -2.5 -0.5t-2.5 -0.5q-37 -11 -61 -37t-24 -56q0 -44 40 -44q12 0 20 3.5t16 9.5l13 -22q-9 -8 -23.5 -14.5t-33.5 -6.5q-32 0 -50 16.5t-18 48.5t20.5 61t57.5 48q-27 17 -22 65l3 23q-21 -44 -63.5 -74.5t-102.5 -30.5
q-78 0 -121.5 55.5t-43.5 153.5q0 65 16 119t45 93t71 60.5t94 21.5q50 0 86 -25t52 -67l8 81h36zM398 345q-10 51 -44 82.5t-85 31.5q-43 0 -77.5 -19t-59 -53t-37.5 -81t-13 -103q0 -85 36.5 -133t99.5 -48q26 0 51.5 9.5t46.5 27t37.5 42t24.5 54.5z" />
    <glyph glyph-name="Cacute" unicode="&#x106;" horiz-adv-x="575" 
d="M412 854h53l-104 -111h-39zM298 -6q-110 0 -174.5 72t-64.5 225q0 96 22 173t62.5 130.5t98.5 82.5t131 29q88 0 140 -40.5t52 -118.5q0 -34 -4.5 -50.5t-9.5 -33.5h-36q6 22 9 37.5t3 38.5q0 69 -43.5 101t-116.5 32q-60 0 -109 -26t-84 -75t-54 -119t-19 -157
q0 -138 54.5 -202.5t145.5 -64.5q74 0 119.5 28.5t77.5 73.5l25 -21q-39 -54 -90.5 -84.5t-134.5 -30.5z" />
    <glyph glyph-name="cacute" unicode="&#x107;" horiz-adv-x="442" 
d="M331 715h48l-108 -152h-36zM223 -11q-83 0 -131 53t-48 159q0 68 17 122t47 91.5t70.5 57.5t88.5 20q70 0 108 -33t38 -93q0 -18 -3.5 -35.5t-6.5 -25.5h-34q2 9 5.5 24t3.5 30q0 50 -30.5 75t-82.5 25q-39 0 -72 -17.5t-57.5 -50.5t-38.5 -80t-14 -107q0 -90 39.5 -136
t104.5 -46q49 0 81 19t54 51l24 -20q-24 -35 -62 -59t-101 -24z" />
    <glyph glyph-name="Ccircumflex" unicode="&#x108;" horiz-adv-x="575" 
d="M363 854h44l72 -111h-39l-58 79l-77 -79h-38zM298 -6q-110 0 -174.5 72t-64.5 225q0 96 22 173t62.5 130.5t98.5 82.5t131 29q88 0 140 -40.5t52 -118.5q0 -34 -4.5 -50.5t-9.5 -33.5h-36q6 22 9 37.5t3 38.5q0 69 -43.5 101t-116.5 32q-60 0 -109 -26t-84 -75t-54 -119
t-19 -157q0 -138 54.5 -202.5t145.5 -64.5q74 0 119.5 28.5t77.5 73.5l25 -21q-39 -54 -90.5 -84.5t-134.5 -30.5z" />
    <glyph glyph-name="ccircumflex" unicode="&#x109;" horiz-adv-x="442" 
d="M266 715h42l68 -152h-37l-55 121l-81 -121h-37zM223 -11q-83 0 -131 53t-48 159q0 68 17 122t47 91.5t70.5 57.5t88.5 20q70 0 108 -33t38 -93q0 -18 -3.5 -35.5t-6.5 -25.5h-34q2 9 5.5 24t3.5 30q0 50 -30.5 75t-82.5 25q-39 0 -72 -17.5t-57.5 -50.5t-38.5 -80
t-14 -107q0 -90 39.5 -136t104.5 -46q49 0 81 19t54 51l24 -20q-24 -35 -62 -59t-101 -24z" />
    <glyph glyph-name="Cdotaccent" unicode="&#x10a;" horiz-adv-x="575" 
d="M375 762q-14 0 -23 10t-9 24q0 16 12.5 28t26.5 12t23.5 -10t9.5 -24q0 -16 -12 -28t-28 -12zM298 -6q-110 0 -174.5 72t-64.5 225q0 96 22 173t62.5 130.5t98.5 82.5t131 29q88 0 140 -40.5t52 -118.5q0 -34 -4.5 -50.5t-9.5 -33.5h-36q6 22 9 37.5t3 38.5
q0 69 -43.5 101t-116.5 32q-60 0 -109 -26t-84 -75t-54 -119t-19 -157q0 -138 54.5 -202.5t145.5 -64.5q74 0 119.5 28.5t77.5 73.5l25 -21q-39 -54 -90.5 -84.5t-134.5 -30.5z" />
    <glyph glyph-name="cdotaccent" unicode="&#x10b;" horiz-adv-x="442" 
d="M277 599q-14 0 -23 9t-9 24q0 17 10.5 28.5t28.5 11.5q15 0 23.5 -9.5t8.5 -23.5q0 -17 -10 -28.5t-29 -11.5zM223 -11q-83 0 -131 53t-48 159q0 68 17 122t47 91.5t70.5 57.5t88.5 20q70 0 108 -33t38 -93q0 -18 -3.5 -35.5t-6.5 -25.5h-34q2 9 5.5 24t3.5 30
q0 50 -30.5 75t-82.5 25q-39 0 -72 -17.5t-57.5 -50.5t-38.5 -80t-14 -107q0 -90 39.5 -136t104.5 -46q49 0 81 19t54 51l24 -20q-24 -35 -62 -59t-101 -24z" />
    <glyph glyph-name="Ccaron" unicode="&#x10c;" horiz-adv-x="575" 
d="M279 854h38l60 -80l76 80h38l-95 -111h-45zM298 -6q-110 0 -174.5 72t-64.5 225q0 96 22 173t62.5 130.5t98.5 82.5t131 29q88 0 140 -40.5t52 -118.5q0 -34 -4.5 -50.5t-9.5 -33.5h-36q6 22 9 37.5t3 38.5q0 69 -43.5 101t-116.5 32q-60 0 -109 -26t-84 -75t-54 -119
t-19 -157q0 -138 54.5 -202.5t145.5 -64.5q74 0 119.5 28.5t77.5 73.5l25 -21q-39 -54 -90.5 -84.5t-134.5 -30.5z" />
    <glyph glyph-name="ccaron" unicode="&#x10d;" horiz-adv-x="442" 
d="M183 715h35l57 -121l80 121h37l-100 -152h-41zM223 -11q-83 0 -131 53t-48 159q0 68 17 122t47 91.5t70.5 57.5t88.5 20q70 0 108 -33t38 -93q0 -18 -3.5 -35.5t-6.5 -25.5h-34q2 9 5.5 24t3.5 30q0 50 -30.5 75t-82.5 25q-39 0 -72 -17.5t-57.5 -50.5t-38.5 -80
t-14 -107q0 -90 39.5 -136t104.5 -46q49 0 81 19t54 51l24 -20q-24 -35 -62 -59t-101 -24z" />
    <glyph glyph-name="Dcaron" unicode="&#x10e;" horiz-adv-x="647" 
d="M273 854h38l60 -80l76 80h38l-95 -111h-45zM141 700h171q66 0 120.5 -18.5t94.5 -56t62 -95t22 -134.5q0 -101 -27.5 -175.5t-76.5 -123.5t-116.5 -73t-146.5 -24h-177zM246 35q71 0 130.5 21t102.5 64.5t67 111t24 160.5q0 72 -20.5 123.5t-55.5 84.5t-83 49t-104 16
h-131l-66 -630h136z" />
    <glyph glyph-name="dcaron" unicode="&#x10f;" horiz-adv-x="531" 
d="M531 602q41 21 45 56q-16 1 -23.5 10t-7.5 23q0 16 11 28t28 12q15 0 24 -10t9 -28q0 -40 -23 -70.5t-52 -41.5zM210 -11q-78 0 -122.5 55t-44.5 156q0 65 16 118.5t45.5 92t71.5 60t93 21.5q50 0 85.5 -25t49.5 -66l34 325h39l-68 -641q-3 -29 5 -41.5t30 -12.5l-3 -31
q-10 -2 -19 -2q-26 0 -39.5 19.5t-10.5 53.5l3 26q-20 -45 -61 -76.5t-104 -31.5zM220 22q55 0 98 36.5t60 96.5l20 190q-10 51 -44 82.5t-85 31.5q-43 0 -78 -19t-59 -53t-37 -81t-13 -104q0 -85 37 -132.5t101 -47.5z" />
    <glyph glyph-name="Dcroat" unicode="&#x110;" horiz-adv-x="660" 
d="M316 700q66 0 121 -18.5t94.5 -56t62 -95t22.5 -134.5q0 -101 -27.5 -175.5t-76.5 -123.5t-116.5 -73t-146.5 -24h-178l35 334h-93l4 34h93l35 332h171zM251 35q71 0 130 21t102 64.5t67 111t24 160.5q0 72 -20 123.5t-55.5 84.5t-83 49t-103.5 16h-131l-31 -297h95
l-3 -34h-96l-31 -299h136z" />
    <glyph glyph-name="dcroat" unicode="&#x111;" horiz-adv-x="506" 
d="M409 85q-3 -29 5 -41.5t30 -12.5l-3 -31q-10 -2 -19 -2q-26 0 -39.5 19.5t-10.5 53.5l3 26q-20 -45 -61 -76.5t-104 -31.5q-78 0 -122.5 55t-44.5 156q0 65 16 118.5t45.5 92t71.5 60t93 21.5q50 0 85.5 -25t49.5 -66l21 197h-116l4 34h115l10 94h39l-10 -94h74l-3 -34
h-75zM398 345q-10 51 -44 82.5t-85 31.5q-43 0 -78 -19t-59 -53t-37 -81t-13 -104q0 -85 37 -132.5t101 -47.5q55 0 98 36.5t60 96.5z" />
    <glyph glyph-name="Emacron" unicode="&#x112;" horiz-adv-x="519" 
d="M240 809h224l-4 -34h-223zM141 700h386l-4 -36h-347l-31 -292h305l-4 -36h-305l-31 -300h347l-4 -36h-386z" />
    <glyph glyph-name="emacron" unicode="&#x113;" horiz-adv-x="446" 
d="M376 621h-220l4 33h219zM219 22q53 0 87 21t57 50l24 -21q-27 -35 -69 -59t-103 -24q-81 0 -126.5 52t-45.5 153q0 64 18.5 118.5t51 94.5t77 62.5t97.5 22.5q62 0 95.5 -31t33.5 -85t-29.5 -87t-76.5 -52t-107 -27t-121 -11q1 -89 37.5 -133t99.5 -44zM282 459
q-39 0 -74 -17t-61.5 -47t-43 -72t-20.5 -93q53 3 105.5 9.5t94.5 21.5t68.5 41.5t26.5 69.5q0 42 -25 64.5t-71 22.5z" />
    <glyph glyph-name="Ebreve" unicode="&#x114;" horiz-adv-x="519" 
d="M345 747q-42 0 -65 26.5t-18 73.5h34q-3 -29 10.5 -47.5t42.5 -18.5q30 0 47.5 18.5t20.5 47.5h33q-5 -46 -33 -73t-72 -27zM141 700h386l-4 -36h-347l-31 -292h305l-4 -36h-305l-31 -300h347l-4 -36h-386z" />
    <glyph glyph-name="ebreve" unicode="&#x115;" horiz-adv-x="446" 
d="M261 575q-50 0 -72 29.5t-16 86.5h33q-4 -44 11 -63t47 -19q67 -2 76 82h33q-6 -56 -35 -86t-77 -30zM219 22q53 0 87 21t57 50l24 -21q-27 -35 -69 -59t-103 -24q-81 0 -126.5 52t-45.5 153q0 64 18.5 118.5t51 94.5t77 62.5t97.5 22.5q62 0 95.5 -31t33.5 -85
t-29.5 -87t-76.5 -52t-107 -27t-121 -11q1 -89 37.5 -133t99.5 -44zM282 459q-39 0 -74 -17t-61.5 -47t-43 -72t-20.5 -93q53 3 105.5 9.5t94.5 21.5t68.5 41.5t26.5 69.5q0 42 -25 64.5t-71 22.5z" />
    <glyph glyph-name="Edotaccent" unicode="&#x116;" horiz-adv-x="519" 
d="M347 762q-14 0 -23 10t-9 24q0 16 12.5 28t26.5 12t23.5 -10t9.5 -24q0 -16 -12 -28t-28 -12zM141 700h386l-4 -36h-347l-31 -292h305l-4 -36h-305l-31 -300h347l-4 -36h-386z" />
    <glyph glyph-name="edotaccent" unicode="&#x117;" horiz-adv-x="446" 
d="M264 599q-14 0 -23 9t-9 24q0 17 10.5 28.5t28.5 11.5q15 0 23.5 -9.5t8.5 -23.5q0 -17 -10 -28.5t-29 -11.5zM219 22q53 0 87 21t57 50l24 -21q-27 -35 -69 -59t-103 -24q-81 0 -126.5 52t-45.5 153q0 64 18.5 118.5t51 94.5t77 62.5t97.5 22.5q62 0 95.5 -31t33.5 -85
t-29.5 -87t-76.5 -52t-107 -27t-121 -11q1 -89 37.5 -133t99.5 -44zM282 459q-39 0 -74 -17t-61.5 -47t-43 -72t-20.5 -93q53 3 105.5 9.5t94.5 21.5t68.5 41.5t26.5 69.5q0 42 -25 64.5t-71 22.5z" />
    <glyph glyph-name="Eogonek" unicode="&#x118;" horiz-adv-x="519" 
d="M176 664l-31 -292h305l-4 -36h-305l-31 -300h347l-4 -36q-38 -10 -63 -36.5t-25 -57.5q0 -44 40 -44q12 0 20 3.5t16 9.5l13 -22q-9 -8 -23.5 -14.5t-33.5 -6.5q-32 0 -50 16.5t-18 48.5q0 29 18 56.5t50 46.5h-330l74 700h386l-4 -36h-347z" />
    <glyph glyph-name="eogonek" unicode="&#x119;" horiz-adv-x="446" 
d="M219 22q53 0 87 21t57 50l24 -21q-20 -26 -48.5 -46.5t-66.5 -29.5q-32 -12 -53 -37t-21 -53q0 -44 40 -44q12 0 20 3.5t16 9.5l13 -22q-9 -8 -23.5 -14.5t-33.5 -6.5q-32 0 -50 16.5t-18 48.5q0 26 13.5 49.5t38.5 42.5q-80 1 -125.5 52.5t-45.5 152.5q0 64 18.5 118.5
t51 94.5t77 62.5t97.5 22.5q62 0 95.5 -31t33.5 -85t-29.5 -87t-76.5 -52t-107 -27t-121 -11q1 -89 37.5 -133t99.5 -44zM282 459q-39 0 -74 -17t-61.5 -47t-43 -72t-20.5 -93q53 3 105.5 9.5t94.5 21.5t68.5 41.5t26.5 69.5q0 42 -25 64.5t-71 22.5z" />
    <glyph glyph-name="Ecaron" unicode="&#x11a;" horiz-adv-x="519" 
d="M251 854h38l60 -80l76 80h38l-95 -111h-45zM141 700h386l-4 -36h-347l-31 -292h305l-4 -36h-305l-31 -300h347l-4 -36h-386z" />
    <glyph glyph-name="ecaron" unicode="&#x11b;" horiz-adv-x="446" 
d="M238 563l-68 152h35l57 -121l80 121h37l-100 -152h-41zM219 22q53 0 87 21t57 50l24 -21q-27 -35 -69 -59t-103 -24q-81 0 -126.5 52t-45.5 153q0 64 18.5 118.5t51 94.5t77 62.5t97.5 22.5q62 0 95.5 -31t33.5 -85t-29.5 -87t-76.5 -52t-107 -27t-121 -11
q1 -89 37.5 -133t99.5 -44zM282 459q-39 0 -74 -17t-61.5 -47t-43 -72t-20.5 -93q53 3 105.5 9.5t94.5 21.5t68.5 41.5t26.5 69.5q0 42 -25 64.5t-71 22.5z" />
    <glyph glyph-name="Gcircumflex" unicode="&#x11c;" horiz-adv-x="614" 
d="M362 854h44l72 -111h-39l-58 79l-77 -79h-38zM310 -7q-124 0 -187.5 80t-63.5 222q0 96 23.5 172t66 129.5t101 81.5t127.5 28q98 0 149 -44.5t51 -121.5q0 -33 -10 -62h-39q4 11 6.5 24t2.5 30q0 66 -42 103t-122 37q-59 0 -109 -25.5t-86.5 -73.5t-57 -117t-20.5 -156
q0 -62 13.5 -112.5t40.5 -86t67.5 -55t94.5 -19.5q63 0 111 19.5t75 48.5l21 201h-179l4 36h218l-27 -252q-35 -36 -92 -61.5t-137 -25.5z" />
    <glyph glyph-name="gcircumflex" unicode="&#x11d;" horiz-adv-x="497" 
d="M273 715h42l68 -152h-37l-55 121l-81 -121h-37zM196 -239q-65 0 -106 26t-56 68l31 19q12 -35 47.5 -57.5t85.5 -22.5q67 0 108.5 39.5t48.5 108.5l17 152q-18 -42 -57.5 -72t-102.5 -30q-82 0 -125 56t-43 152q0 65 15.5 118t43.5 91.5t68 59.5t89 21q51 0 90.5 -24.5
t55.5 -64.5l8 81h35l-57 -539q-8 -85 -57.5 -133.5t-138.5 -48.5zM222 26q60 0 98.5 36t56.5 93l20 192q-8 46 -45 78t-91 32q-40 0 -73.5 -18.5t-56.5 -52t-36 -80t-13 -103.5q0 -82 35.5 -129.5t104.5 -47.5z" />
    <glyph glyph-name="Gbreve" unicode="&#x11e;" horiz-adv-x="614" 
d="M372 747q-42 0 -65 26.5t-18 73.5h34q-3 -29 10.5 -47.5t42.5 -18.5q30 0 47.5 18.5t20.5 47.5h33q-5 -46 -33 -73t-72 -27zM310 -7q-124 0 -187.5 80t-63.5 222q0 96 23.5 172t66 129.5t101 81.5t127.5 28q98 0 149 -44.5t51 -121.5q0 -33 -10 -62h-39q4 11 6.5 24
t2.5 30q0 66 -42 103t-122 37q-59 0 -109 -25.5t-86.5 -73.5t-57 -117t-20.5 -156q0 -62 13.5 -112.5t40.5 -86t67.5 -55t94.5 -19.5q63 0 111 19.5t75 48.5l21 201h-179l4 36h218l-27 -252q-35 -36 -92 -61.5t-137 -25.5z" />
    <glyph glyph-name="gbreve" unicode="&#x11f;" horiz-adv-x="497" 
d="M282 575q-50 0 -72 29.5t-16 86.5h33q-4 -44 11 -63t47 -19q67 -2 76 82h33q-6 -56 -35 -86t-77 -30zM196 -239q-65 0 -106 26t-56 68l31 19q12 -35 47.5 -57.5t85.5 -22.5q67 0 108.5 39.5t48.5 108.5l17 152q-18 -42 -57.5 -72t-102.5 -30q-82 0 -125 56t-43 152
q0 65 15.5 118t43.5 91.5t68 59.5t89 21q51 0 90.5 -24.5t55.5 -64.5l8 81h35l-57 -539q-8 -85 -57.5 -133.5t-138.5 -48.5zM222 26q60 0 98.5 36t56.5 93l20 192q-8 46 -45 78t-91 32q-40 0 -73.5 -18.5t-56.5 -52t-36 -80t-13 -103.5q0 -82 35.5 -129.5t104.5 -47.5z" />
    <glyph glyph-name="Gdotaccent" unicode="&#x120;" horiz-adv-x="614" 
d="M374 762q-14 0 -23 10t-9 24q0 16 12.5 28t26.5 12t23.5 -10t9.5 -24q0 -16 -12 -28t-28 -12zM310 -7q-124 0 -187.5 80t-63.5 222q0 96 23.5 172t66 129.5t101 81.5t127.5 28q98 0 149 -44.5t51 -121.5q0 -33 -10 -62h-39q4 11 6.5 24t2.5 30q0 66 -42 103t-122 37
q-59 0 -109 -25.5t-86.5 -73.5t-57 -117t-20.5 -156q0 -62 13.5 -112.5t40.5 -86t67.5 -55t94.5 -19.5q63 0 111 19.5t75 48.5l21 201h-179l4 36h218l-27 -252q-35 -36 -92 -61.5t-137 -25.5z" />
    <glyph glyph-name="gdotaccent" unicode="&#x121;" horiz-adv-x="497" 
d="M285 599q-14 0 -23 9t-9 24q0 17 10.5 28.5t28.5 11.5q15 0 23.5 -9.5t8.5 -23.5q0 -17 -10 -28.5t-29 -11.5zM196 -239q-65 0 -106 26t-56 68l31 19q12 -35 47.5 -57.5t85.5 -22.5q67 0 108.5 39.5t48.5 108.5l17 152q-18 -42 -57.5 -72t-102.5 -30q-82 0 -125 56
t-43 152q0 65 15.5 118t43.5 91.5t68 59.5t89 21q51 0 90.5 -24.5t55.5 -64.5l8 81h35l-57 -539q-8 -85 -57.5 -133.5t-138.5 -48.5zM222 26q60 0 98.5 36t56.5 93l20 192q-8 46 -45 78t-91 32q-40 0 -73.5 -18.5t-56.5 -52t-36 -80t-13 -103.5q0 -82 35.5 -129.5
t104.5 -47.5z" />
    <glyph glyph-name="uni0122" unicode="&#x122;" horiz-adv-x="614" 
d="M310 -7q-124 0 -187.5 80t-63.5 222q0 96 23.5 172t66 129.5t101 81.5t127.5 28q98 0 149 -44.5t51 -121.5q0 -33 -10 -62h-39q4 11 6.5 24t2.5 30q0 66 -42 103t-122 37q-59 0 -109 -25.5t-86.5 -73.5t-57 -117t-20.5 -156q0 -62 13.5 -112.5t40.5 -86t67.5 -55
t94.5 -19.5q63 0 111 19.5t75 48.5l21 201h-179l4 36h218l-27 -252q-35 -36 -92 -61.5t-137 -25.5zM240 -176q19 11 31 26t16 37q-17 2 -25.5 11.5t-8.5 23.5q0 17 10.5 27t25.5 10q17 0 26.5 -10t9.5 -30t-6.5 -38t-17 -33t-24 -26t-26.5 -17z" />
    <glyph glyph-name="uni0123" unicode="&#x123;" horiz-adv-x="497" 
d="M281 567q-15 0 -23.5 10.5t-8.5 27.5q0 37 20 64t45 38l13 -20q-17 -9 -29 -21t-15 -28q20 2 28.5 -8t8.5 -24q0 -16 -11 -27.5t-28 -11.5zM196 -239q-65 0 -106 26t-56 68l31 19q12 -35 47.5 -57.5t85.5 -22.5q67 0 108.5 39.5t48.5 108.5l17 152q-18 -42 -57.5 -72
t-102.5 -30q-82 0 -125 56t-43 152q0 65 15.5 118t43.5 91.5t68 59.5t89 21q51 0 90.5 -24.5t55.5 -64.5l8 81h35l-57 -539q-8 -85 -57.5 -133.5t-138.5 -48.5zM222 26q60 0 98.5 36t56.5 93l20 192q-8 46 -45 78t-91 32q-40 0 -73.5 -18.5t-56.5 -52t-36 -80t-13 -103.5
q0 -82 35.5 -129.5t104.5 -47.5z" />
    <glyph glyph-name="Hcircumflex" unicode="&#x124;" horiz-adv-x="613" 
d="M350 854h44l72 -111h-39l-58 79l-77 -79h-38zM136 700h39l-34 -328h360l34 328h40l-74 -700h-40l36 335h-360l-36 -335h-39z" />
    <glyph glyph-name="hcircumflex" unicode="&#x125;" horiz-adv-x="495" 
d="M137 854h44l72 -111h-39l-58 79l-77 -79h-38zM420 -2q-32 0 -44.5 20.5t-8.5 59.5l25 227q3 32 -1.5 59.5t-18 47.5t-36.5 32t-56 12q-38 0 -67 -17t-49.5 -43t-32.5 -57t-15 -59l-29 -280h-38l76 726h38l-37 -358q9 24 24 46.5t36 39t47 26.5t56 10q43 0 72 -14.5
t45.5 -40t22 -59.5t1.5 -72l-23 -218q-5 -36 3.5 -46.5t31.5 -10.5l-4 -29q-10 -2 -18 -2z" />
    <glyph glyph-name="Hbar" unicode="&#x126;" horiz-adv-x="669" 
d="M654 535h-59l-57 -535h-40l35 335h-360l-35 -335h-39l57 535h-64l3 30h64l14 135h39l-14 -135h360l14 135h40l-14 -135h59zM554 535h-360l-17 -163h360z" />
    <glyph glyph-name="hbar" unicode="&#x127;" horiz-adv-x="495" 
d="M407 86q-5 -36 3.5 -46.5t31.5 -10.5l-4 -29q-10 -2 -18 -2q-32 0 -44.5 20.5t-8.5 59.5l25 227q3 32 -1.5 59.5t-18 47.5t-36.5 32t-56 12q-38 0 -67 -17t-49.5 -43t-32.5 -57t-15 -59l-29 -280h-38l63 598h-76l4 34h75l10 94h38l-10 -94h115l-3 -34h-115l-24 -230
q9 24 24 46.5t36 39t47 26.5t56 10q43 0 72 -14.5t45.5 -40t22 -59.5t1.5 -72z" />
    <glyph glyph-name="Itilde" unicode="&#x128;" horiz-adv-x="223" 
d="M49 751q-5 10 -5 26q0 27 18 45t47 18q19 0 34 -8.5t28.5 -18t26.5 -18t29 -8.5q31 0 31 37q0 13 -4 18h33q4 -8 4 -24q0 -29 -17 -47t-49 -18q-20 0 -35.5 8.5t-28.5 18t-25 18t-26 8.5t-23 -9.5t-9 -25.5q0 -5 0.5 -10.5t2.5 -9.5h-32zM141 700h39l-74 -700h-39z" />
    <glyph glyph-name="itilde" unicode="&#x129;" horiz-adv-x="195" 
d="M19 594q-5 10 -5 26q0 27 17.5 45t48.5 18q18 0 32.5 -8.5t27.5 -18.5t26.5 -18.5t29.5 -8.5q31 0 31 37q0 14 -4 19h34q3 -9 3 -24q0 -29 -16.5 -47t-46.5 -18q-21 0 -37 8.5t-28.5 18.5t-24 18.5t-25.5 8.5q-16 0 -25.5 -9.5t-9.5 -26.5q0 -5 1 -10t3 -10h-32zM112 -2
q-28 0 -42.5 19.5t-9.5 61.5l42 403h39l-42 -398q-3 -27 4.5 -41t30.5 -14l-4 -29q-2 0 -6.5 -1t-11.5 -1z" />
    <glyph glyph-name="Imacron" unicode="&#x12a;" horiz-adv-x="223" 
d="M59 809h224l-4 -34h-223zM141 700h39l-74 -700h-39z" />
    <glyph glyph-name="imacron" unicode="&#x12b;" horiz-adv-x="195" 
d="M31 654h219l-3 -33h-220zM112 -2q-28 0 -42.5 19.5t-9.5 61.5l42 403h39l-42 -398q-3 -27 4.5 -41t30.5 -14l-4 -29q-2 0 -6.5 -1t-11.5 -1z" />
    <glyph glyph-name="Ibreve" unicode="&#x12c;" horiz-adv-x="223" 
d="M164 747q-42 0 -65 26.5t-18 73.5h34q-3 -29 10.5 -47.5t42.5 -18.5q30 0 47.5 18.5t20.5 47.5h33q-5 -46 -33 -73t-72 -27zM141 700h39l-74 -700h-39z" />
    <glyph glyph-name="ibreve" unicode="&#x12d;" horiz-adv-x="195" 
d="M132 575q-50 0 -72 29.5t-16 86.5h33q-4 -44 11 -63t47 -19q67 -2 76 82h33q-6 -56 -35 -86t-77 -30zM112 -2q-28 0 -42.5 19.5t-9.5 61.5l42 403h39l-42 -398q-3 -27 4.5 -41t30.5 -14l-4 -29q-2 0 -6.5 -1t-11.5 -1z" />
    <glyph glyph-name="Iogonek" unicode="&#x12e;" horiz-adv-x="223" 
d="M58 -138q12 0 20 3.5t16 9.5l13 -22q-9 -8 -23.5 -14.5t-33.5 -6.5q-32 0 -50 16.5t-18 48.5q0 33 22.5 63.5t63.5 48.5l73 691h39l-74 -700q-38 -10 -63 -36.5t-25 -57.5q0 -44 40 -44z" />
    <glyph glyph-name="iogonek" unicode="&#x12f;" horiz-adv-x="195" 
d="M142 672q15 0 23.5 -9.5t8.5 -23.5q0 -17 -10 -28.5t-29 -11.5q-14 0 -23 9t-9 24q0 17 10.5 28.5t28.5 11.5zM99 84q-3 -27 4.5 -41t30.5 -14l-4 -29q-38 -10 -63 -36.5t-25 -57.5q0 -44 40 -44q12 0 20 3.5t16 9.5l13 -22q-9 -8 -23.5 -14.5t-33.5 -6.5q-32 0 -50 16.5
t-18 48.5t20.5 60.5t56.5 47.5q-29 18 -23 74l42 403h39z" />
    <glyph glyph-name="Idotaccent" unicode="&#x130;" horiz-adv-x="223" 
d="M167 762q-14 0 -23 10t-9 24q0 16 12.5 28t26.5 12t23.5 -10t9.5 -24q0 -16 -12 -28t-28 -12zM141 700h39l-74 -700h-39z" />
    <glyph glyph-name="dotlessi" unicode="&#x131;" horiz-adv-x="195" 
d="M112 -2q-28 0 -42.5 19.5t-9.5 61.5l42 403h39l-42 -398q-3 -27 4.5 -41t30.5 -14l-4 -29q-2 0 -6.5 -1t-11.5 -1z" />
    <glyph glyph-name="IJ" unicode="&#x132;" horiz-adv-x="654" 
d="M141 700h39l-74 -700h-39zM381 -6q-31 0 -55.5 6.5t-42.5 18t-31.5 25.5t-23.5 29l31 25q17 -26 45.5 -47.5t76.5 -21.5q69 0 102.5 42t41.5 121l53 508h40l-54 -509q-10 -96 -52 -146.5t-131 -50.5z" />
    <glyph glyph-name="ij" unicode="&#x133;" horiz-adv-x="391" 
d="M135 599q-14 0 -23 9t-9 24q0 17 10.5 28.5t28.5 11.5q15 0 23.5 -9.5t8.5 -23.5q0 -17 -10 -28.5t-29 -11.5zM333 599q-14 0 -23 9t-9 24q0 17 10.5 28.5t28.5 11.5q15 0 23.5 -9.5t8.5 -23.5q0 -17 -10 -28.5t-29 -11.5zM112 -2q-28 0 -42.5 19.5t-9.5 61.5l42 403h39
l-42 -398q-3 -27 4.5 -41t30.5 -14l-4 -29q-2 0 -6.5 -1t-11.5 -1zM133 -247q-20 0 -34 3.5t-23 8.5q-11 5 -19 12l15 29q7 -6 16 -10q8 -4 19.5 -7t26.5 -3q47 0 73.5 29t33.5 97l60 570h38l-60 -571q-8 -78 -43.5 -118t-102.5 -40z" />
    <glyph glyph-name="Jcircumflex" unicode="&#x134;" horiz-adv-x="432" 
d="M362 854h44l72 -111h-39l-58 79l-77 -79h-38zM158 -6q-31 0 -55.5 6.5t-42.5 18t-31.5 25.5t-23.5 29l31 25q17 -26 45.5 -47.5t76.5 -21.5q69 0 102.5 42t41.5 121l53 508h40l-54 -509q-10 -96 -52 -146.5t-131 -50.5z" />
    <glyph glyph-name="jcircumflex" unicode="&#x135;" horiz-adv-x="196" 
d="M126 715h42l68 -152h-37l-55 121l-81 -121h-37zM-62 -247q-20 0 -34 3.5t-24 8.5q-11 5 -18 12l15 29q7 -6 16 -10q8 -4 19.5 -7t26.5 -3q47 0 73.5 29t33.5 97l60 570h38l-60 -571q-8 -78 -43.5 -118t-102.5 -40z" />
    <glyph glyph-name="uni0136" unicode="&#x136;" horiz-adv-x="600" 
d="M578 35l-4 -35q-5 0 -11 -0.5t-11 -0.5q-42 0 -67 24.5t-42 60.5t-31.5 79t-35.5 79t-54.5 60.5t-88.5 24.5h-93l-34 -327h-39l74 700h39l-36 -336h96q45 0 92.5 19t89 59.5t72 104t40.5 153.5h39q-7 -71 -28.5 -130t-54 -105t-74.5 -77.5t-91 -46.5q36 -13 59 -41
t40 -62t29.5 -70t27 -65.5t33.5 -48.5t49 -19h15zM285 -41q17 0 26.5 -10t9.5 -30t-6.5 -38t-17 -33t-24 -26t-26.5 -17l-11 19q19 11 31 26t16 37q-17 2 -25.5 11.5t-8.5 23.5q0 17 10.5 27t25.5 10z" />
    <glyph glyph-name="uni0137" unicode="&#x137;" horiz-adv-x="457" 
d="M433 31l-4 -30q-2 -1 -5 -2q-7 -1 -13 -1q-40 0 -61.5 17.5t-34.5 43.5t-22 56.5t-25 56.5t-43.5 43.5t-77.5 17.5h-36l-24 -233h-38l76 726h38l-49 -460h49q100 0 153 57t65 159h36q-3 -30 -12 -65.5t-28.5 -69t-52.5 -61.5t-84 -42q29 -11 45.5 -31t27.5 -43.5t19 -48
t19 -44.5t28 -33t45 -13h9zM215 -41q17 0 26.5 -10t9.5 -30t-6.5 -38t-17 -33t-24 -26t-26.5 -17l-11 19q19 11 31 26t16 37q-17 2 -25.5 11.5t-8.5 23.5q0 17 10.5 27t25.5 10z" />
    <glyph glyph-name="kgreenlandic" unicode="&#x138;" horiz-adv-x="466" 
d="M440 31l-4 -30q-2 -1 -5 -2q-7 -1 -13 -1q-40 0 -61.5 17t-34 42t-22 55t-25.5 55t-43.5 42t-77.5 17h-44l-23 -226h-38l51 482h38l-25 -223h54q103 0 156 61t65 162h36q-4 -31 -13 -68t-28.5 -71.5t-52.5 -63t-84 -42.5q29 -11 46 -30.5t28.5 -42t19.5 -46.5t18.5 -43
t27.5 -31.5t45 -12.5h9z" />
    <glyph glyph-name="Lacute" unicode="&#x139;" horiz-adv-x="505" 
d="M208 854h53l-104 -111h-39zM141 700h39l-70 -665h357l-4 -35h-396z" />
    <glyph glyph-name="lacute" unicode="&#x13a;" horiz-adv-x="195" 
d="M202 866h53l-104 -111h-39zM112 -4q-61 0 -53 74l69 656h38l-68 -649q-3 -30 5 -39.5t31 -9.5l-3 -30q-5 -1 -10 -1.5t-9 -0.5z" />
    <glyph glyph-name="uni013B" unicode="&#x13b;" horiz-adv-x="505" 
d="M141 700h39l-70 -665h357l-4 -35h-396zM226 -176q19 11 31 26t16 37q-17 2 -25.5 11.5t-8.5 23.5q0 17 10.5 27t25.5 10q17 0 26.5 -10t9.5 -30t-6.5 -38t-17 -33t-24 -26t-26.5 -17z" />
    <glyph glyph-name="uni013C" unicode="&#x13c;" horiz-adv-x="195" 
d="M112 -4q-61 0 -53 74l69 656h38l-68 -649q-3 -30 5 -39.5t31 -9.5l-3 -30q-5 -1 -10 -1.5t-9 -0.5zM30 -176q19 11 31 26t16 37q-17 2 -25.5 11.5t-8.5 23.5q0 17 10.5 27t25.5 10q17 0 26.5 -10t9.5 -30t-6.5 -38t-17 -33t-24 -26t-26.5 -17z" />
    <glyph glyph-name="Lcaron" unicode="&#x13d;" horiz-adv-x="531" 
d="M367 577q40 21 44 55q-16 1 -23.5 10t-7.5 23q0 16 11 27.5t28 11.5q15 0 24 -9.5t9 -28.5q0 -39 -23 -69.5t-52 -41.5zM141 700h39l-70 -665h357l-4 -35h-396z" />
    <glyph glyph-name="lcaron" unicode="&#x13e;" horiz-adv-x="195" 
d="M197 602q41 22 45 56q-32 6 -32 35q0 17 10.5 27t26.5 10q15 0 25 -10t10 -31q0 -37 -22.5 -67.5t-51.5 -41.5zM112 -4q-61 0 -53 74l69 656h38l-68 -649q-3 -30 5 -39.5t31 -9.5l-3 -30q-5 -1 -10 -1.5t-9 -0.5z" />
    <glyph glyph-name="Ldot" unicode="&#x13f;" horiz-adv-x="530" 
d="M141 700h39l-70 -665h357l-4 -35h-396zM387 345q-14 0 -23.5 8.5t-9.5 23.5q0 17 10.5 27.5t25.5 10.5q14 0 23.5 -9t9.5 -24q0 -17 -9.5 -27t-26.5 -10z" />
    <glyph glyph-name="ldot" unicode="&#x140;" horiz-adv-x="239" 
d="M112 -4q-61 0 -53 74l69 656h38l-68 -649q-3 -30 5 -39.5t31 -9.5l-3 -30q-5 -1 -10 -1.5t-9 -0.5zM224 337q-14 0 -23.5 8.5t-9.5 23.5q0 17 10 27.5t27 10.5q14 0 23 -8.5t9 -23.5q0 -17 -9.5 -27.5t-26.5 -10.5z" />
    <glyph glyph-name="Lslash" unicode="&#x141;" horiz-adv-x="547" 
d="M485 35l-4 -35h-397l33 315l-99 -56l-13 29l116 66l37 346h40l-34 -322l108 61l13 -30l-125 -70l-32 -304h357z" />
    <glyph glyph-name="lslash" unicode="&#x142;" horiz-adv-x="250" 
d="M121 77q-3 -30 5 -39.5t31 -9.5l-3 -30q-5 -1 -10 -1.5t-10 -0.5q-61 0 -53 74l28 269l-64 -37l-13 28l81 46l37 350h39l-34 -326l69 39l14 -27l-87 -50z" />
    <glyph glyph-name="Nacute" unicode="&#x143;" horiz-adv-x="640" 
d="M422 854h53l-104 -111h-39zM141 700h36l306 -616l9 -19l67 635h39l-75 -700h-37l-308 615l-7 18l-66 -633h-38z" />
    <glyph glyph-name="nacute" unicode="&#x144;" horiz-adv-x="501" 
d="M343 715h48l-108 -152h-36zM426 -2q-32 0 -44 20.5t-8 59.5l24 227q8 73 -20.5 113t-91.5 40q-33 0 -61.5 -14t-50 -38.5t-35 -57t-17.5 -70.5l-29 -278h-38l42 398q4 36 -4.5 46.5t-30.5 10.5l3 29q4 1 9 1h10q29 0 40 -18t9 -55l-4 -43q21 57 65.5 90t101.5 33
q76 0 112.5 -49t27.5 -137l-23 -220q-4 -36 4 -46.5t31 -10.5l-4 -29q-5 -1 -9 -1.5t-9 -0.5z" />
    <glyph glyph-name="uni0145" unicode="&#x145;" horiz-adv-x="640" 
d="M141 700h36l306 -616l9 -19l67 635h39l-75 -700h-37l-308 615l-7 18l-66 -633h-38zM240 -176q19 11 31 26t16 37q-17 2 -25.5 11.5t-8.5 23.5q0 17 10.5 27t25.5 10q17 0 26.5 -10t9.5 -30t-6.5 -38t-17 -33t-24 -26t-26.5 -17z" />
    <glyph glyph-name="uni0146" unicode="&#x146;" horiz-adv-x="501" 
d="M426 -2q-32 0 -44 20.5t-8 59.5l24 227q8 73 -20.5 113t-91.5 40q-33 0 -61.5 -14t-50 -38.5t-35 -57t-17.5 -70.5l-29 -278h-38l42 398q4 36 -4.5 46.5t-30.5 10.5l3 29q4 1 9 1h10q29 0 40 -18t9 -55l-4 -43q21 57 65.5 90t101.5 33q76 0 112.5 -49t27.5 -137l-23 -220
q-4 -36 4 -46.5t31 -10.5l-4 -29q-5 -1 -9 -1.5t-9 -0.5zM191 -176q19 11 31 26t16 37q-17 2 -25.5 11.5t-8.5 23.5q0 17 10.5 27t25.5 10q17 0 26.5 -10t9.5 -30t-6.5 -38t-17 -33t-24 -26t-26.5 -17z" />
    <glyph glyph-name="Ncaron" unicode="&#x147;" horiz-adv-x="640" 
d="M289 854h38l60 -80l76 80h38l-95 -111h-45zM141 700h36l306 -616l9 -19l67 635h39l-75 -700h-37l-308 615l-7 18l-66 -633h-38z" />
    <glyph glyph-name="ncaron" unicode="&#x148;" horiz-adv-x="501" 
d="M195 715h35l57 -121l80 121h37l-100 -152h-41zM426 -2q-32 0 -44 20.5t-8 59.5l24 227q8 73 -20.5 113t-91.5 40q-33 0 -61.5 -14t-50 -38.5t-35 -57t-17.5 -70.5l-29 -278h-38l42 398q4 36 -4.5 46.5t-30.5 10.5l3 29q4 1 9 1h10q29 0 40 -18t9 -55l-4 -43
q21 57 65.5 90t101.5 33q76 0 112.5 -49t27.5 -137l-23 -220q-4 -36 4 -46.5t31 -10.5l-4 -29q-5 -1 -9 -1.5t-9 -0.5z" />
    <glyph glyph-name="napostrophe" unicode="&#x149;" horiz-adv-x="598" 
d="M26 583q15 11 27 24.5t12 32.5q-17 0 -27.5 9.5t-10.5 26.5q0 15 10.5 25t24.5 10q17 0 28 -12t11 -33q0 -44 -20.5 -69t-40.5 -36zM499 -2q-32 0 -44.5 20.5t-8.5 59.5l25 227q8 73 -21 113t-92 40q-33 0 -61.5 -14t-50 -38.5t-35 -57t-17.5 -70.5l-29 -278h-38l42 398
q5 36 -4 46.5t-31 10.5l4 29q5 1 18 1q29 0 40.5 -18t8.5 -55l-4 -43q22 57 66 90t102 33q75 0 112 -49t28 -137l-23 -220q-5 -36 3.5 -46.5t30.5 -10.5l-3 -29q-5 -1 -9 -1.5t-9 -0.5z" />
    <glyph glyph-name="Eng" unicode="&#x14a;" horiz-adv-x="640" 
d="M598 700l-75 -700l-7 -67q-8 -71 -43 -108t-93 -37q-33 0 -56 12t-34 30l29 29q12 -19 29.5 -26.5t37.5 -7.5q38 0 62 27t30 80l7 69l-307 614l-7 18l-66 -633h-38l74 700h36l306 -616l9 -19l67 635h39z" />
    <glyph glyph-name="eng" unicode="&#x14b;" horiz-adv-x="498" 
d="M297 492q76 0 112 -49t27 -137l-39 -373q-8 -71 -42 -108t-94 -37q-33 0 -56 12t-34 30l29 29q12 -19 30.5 -26.5t35.5 -7.5q79 0 93 107l7 68l32 305q8 72 -20.5 112.5t-91.5 40.5q-33 0 -61.5 -14t-50 -38t-35 -56.5t-17.5 -69.5l-29 -280h-38l42 398q4 36 -4.5 46.5
t-30.5 10.5l3 29q4 1 9 1h10q29 0 40.5 -18.5t8.5 -56.5l-5 -43q22 59 66.5 92t102.5 33z" />
    <glyph glyph-name="Omacron" unicode="&#x14c;" horiz-adv-x="670" 
d="M284 809h224l-4 -34h-223zM323 -6q-52 0 -99.5 16t-84 51t-58 91.5t-21.5 138.5q0 114 27.5 193t72.5 128.5t102.5 71.5t117.5 22q49 0 94.5 -17t81 -53t57 -93t21.5 -137q0 -114 -26 -192.5t-69.5 -127.5t-99.5 -70.5t-116 -21.5zM327 28q51 0 99 20t85 64.5t59 116
t22 174.5q0 72 -18.5 123t-48.5 83.5t-69 47.5t-80 15q-52 0 -101.5 -20.5t-88 -65.5t-62 -116.5t-23.5 -174.5q0 -74 18.5 -125t50 -82.5t72 -45.5t85.5 -14z" />
    <glyph glyph-name="omacron" unicode="&#x14d;" horiz-adv-x="492" 
d="M180 654h219l-3 -33h-220zM228 -11q-87 0 -135.5 54t-48.5 159q0 71 17.5 125t47.5 90.5t71 55.5t89 19q84 0 132 -54.5t48 -158.5q0 -70 -17 -124.5t-46.5 -91t-70 -55.5t-87.5 -19zM231 22q36 0 68.5 15.5t57.5 47t39.5 79t14.5 111.5q0 94 -40 139t-106 45
q-36 0 -69 -15.5t-58 -47t-40 -79.5t-15 -112q0 -93 40.5 -138t107.5 -45z" />
    <glyph glyph-name="Obreve" unicode="&#x14e;" horiz-adv-x="670" 
d="M389 747q-42 0 -65 26.5t-18 73.5h34q-3 -29 10.5 -47.5t42.5 -18.5q30 0 47.5 18.5t20.5 47.5h33q-5 -46 -33 -73t-72 -27zM323 -6q-52 0 -99.5 16t-84 51t-58 91.5t-21.5 138.5q0 114 27.5 193t72.5 128.5t102.5 71.5t117.5 22q49 0 94.5 -17t81 -53t57 -93t21.5 -137
q0 -114 -26 -192.5t-69.5 -127.5t-99.5 -70.5t-116 -21.5zM327 28q51 0 99 20t85 64.5t59 116t22 174.5q0 72 -18.5 123t-48.5 83.5t-69 47.5t-80 15q-52 0 -101.5 -20.5t-88 -65.5t-62 -116.5t-23.5 -174.5q0 -74 18.5 -125t50 -82.5t72 -45.5t85.5 -14z" />
    <glyph glyph-name="obreve" unicode="&#x14f;" horiz-adv-x="492" 
d="M281 575q-50 0 -72 29.5t-16 86.5h33q-4 -44 11 -63t47 -19q67 -2 76 82h33q-6 -56 -35 -86t-77 -30zM228 -11q-87 0 -135.5 54t-48.5 159q0 71 17.5 125t47.5 90.5t71 55.5t89 19q84 0 132 -54.5t48 -158.5q0 -70 -17 -124.5t-46.5 -91t-70 -55.5t-87.5 -19zM231 22
q36 0 68.5 15.5t57.5 47t39.5 79t14.5 111.5q0 94 -40 139t-106 45q-36 0 -69 -15.5t-58 -47t-40 -79.5t-15 -112q0 -93 40.5 -138t107.5 -45z" />
    <glyph glyph-name="Ohungarumlaut" unicode="&#x150;" horiz-adv-x="670" 
d="M359 854h50l-88 -111h-36zM482 854h51l-89 -111h-36zM323 -6q-52 0 -99.5 16t-84 51t-58 91.5t-21.5 138.5q0 114 27.5 193t72.5 128.5t102.5 71.5t117.5 22q49 0 94.5 -17t81 -53t57 -93t21.5 -137q0 -114 -26 -192.5t-69.5 -127.5t-99.5 -70.5t-116 -21.5zM327 28
q51 0 99 20t85 64.5t59 116t22 174.5q0 72 -18.5 123t-48.5 83.5t-69 47.5t-80 15q-52 0 -101.5 -20.5t-88 -65.5t-62 -116.5t-23.5 -174.5q0 -74 18.5 -125t50 -82.5t72 -45.5t85.5 -14z" />
    <glyph glyph-name="ohungarumlaut" unicode="&#x151;" horiz-adv-x="492" 
d="M264 715h47l-90 -152h-34zM387 715h47l-91 -152h-33zM228 -11q-87 0 -135.5 54t-48.5 159q0 71 17.5 125t47.5 90.5t71 55.5t89 19q84 0 132 -54.5t48 -158.5q0 -70 -17 -124.5t-46.5 -91t-70 -55.5t-87.5 -19zM231 22q36 0 68.5 15.5t57.5 47t39.5 79t14.5 111.5
q0 94 -40 139t-106 45q-36 0 -69 -15.5t-58 -47t-40 -79.5t-15 -112q0 -93 40.5 -138t107.5 -45z" />
    <glyph glyph-name="OE" unicode="&#x152;" horiz-adv-x="980" 
d="M307 -6q-117 0 -182 78.5t-65 220.5q0 94 22 170.5t62.5 130.5t98 83t128.5 29q50 0 87 -16t63.5 -42t43 -59t23.5 -67l19 178h380l-4 -36h-340l-31 -292h298l-4 -36h-298l-31 -300h340l-4 -36h-380l17 164q-11 -36 -33 -67.5t-53.5 -54t-71 -35.5t-85.5 -13zM311 29
q53 0 101.5 21.5t84.5 67.5t57 118t20 172q-1 72 -17.5 122t-44.5 81.5t-65 45.5t-78 14q-52 0 -100 -21.5t-85.5 -67t-60 -117t-22.5 -170.5q0 -70 16 -120.5t44.5 -83t67 -47.5t82.5 -15z" />
    <glyph glyph-name="oe" unicode="&#x153;" horiz-adv-x="795" 
d="M220 -11q-86 0 -132 56.5t-46 157.5q0 65 15.5 118.5t44 91.5t69 58.5t90.5 20.5q48 0 78 -18.5t47.5 -43.5t26 -50t12.5 -38q24 71 68 110t114 39q72 0 110.5 -48t38.5 -136q0 -11 -0.5 -26.5t-3.5 -29.5h-315q-2 -17 -3 -28.5t-1 -23.5q0 -84 36.5 -130.5t99.5 -46.5
q49 0 83.5 21.5t55.5 51.5l24 -20q-26 -38 -68.5 -62t-98.5 -24q-35 0 -63 12.5t-48.5 33.5t-32.5 48t-15 56q-9 -31 -26.5 -58.5t-41.5 -48t-53.5 -32t-64.5 -11.5zM226 22q34 0 65 15.5t55 47t38 79.5t14 112q0 93 -39.5 138t-99.5 45q-34 0 -66.5 -15.5t-57 -47
t-39.5 -79t-15 -111.5q0 -94 40.5 -139t104.5 -45zM718 283q5 80 -21.5 127.5t-94.5 47.5q-60 0 -102 -41.5t-59 -133.5h277z" />
    <glyph glyph-name="Racute" unicode="&#x154;" horiz-adv-x="580" 
d="M382 854h53l-104 -111h-39zM512 -2q-31 0 -50.5 23t-33 57.5t-24.5 74.5t-24 74.5t-32 57.5t-49 23h-161l-32 -308h-39l74 700h205q88 0 139 -42t51 -131q0 -88 -47.5 -140t-121.5 -69q21 -10 34.5 -35.5t24 -57t19 -65.5t20 -62t26.5 -46t38 -18h17l-4 -35
q-5 0 -13 -0.5t-17 -0.5zM303 341q39 0 74 11.5t61.5 34.5t41.5 57t15 78q0 66 -39 105t-117 39h-163l-34 -325h161z" />
    <glyph glyph-name="racute" unicode="&#x155;" horiz-adv-x="320" 
d="M281 715h48l-108 -152h-36zM97 399q3 33 -4.5 44.5t-30.5 11.5l3 29q4 2 9 2h10q57 0 50 -73l-6 -47q20 58 63.5 92t97.5 34q33 0 51 -10l-18 -36q-16 8 -44 8q-31 0 -57.5 -14t-47.5 -39.5t-34.5 -60t-17.5 -76.5l-28 -264h-38z" />
    <glyph glyph-name="uni0156" unicode="&#x156;" horiz-adv-x="580" 
d="M512 -2q-31 0 -50.5 23t-33 57.5t-24.5 74.5t-24 74.5t-32 57.5t-49 23h-161l-32 -308h-39l74 700h205q88 0 139 -42t51 -131q0 -88 -47.5 -140t-121.5 -69q21 -10 34.5 -35.5t24 -57t19 -65.5t20 -62t26.5 -46t38 -18h17l-4 -35q-5 0 -13 -0.5t-17 -0.5zM303 341
q39 0 74 11.5t61.5 34.5t41.5 57t15 78q0 66 -39 105t-117 39h-163l-34 -325h161zM236 -176q19 11 31 26t16 37q-17 2 -25.5 11.5t-8.5 23.5q0 17 10.5 27t25.5 10q17 0 26.5 -10t9.5 -30t-6.5 -38t-17 -33t-24 -26t-26.5 -17z" />
    <glyph glyph-name="uni0157" unicode="&#x157;" horiz-adv-x="320" 
d="M97 399q3 33 -4.5 44.5t-30.5 11.5l3 29q4 2 9 2h10q57 0 50 -73l-6 -47q20 58 63.5 92t97.5 34q33 0 51 -10l-18 -36q-16 8 -44 8q-31 0 -57.5 -14t-47.5 -39.5t-34.5 -60t-17.5 -76.5l-28 -264h-38zM19 -176q19 11 31 26t16 37q-17 2 -25.5 11.5t-8.5 23.5
q0 17 10.5 27t25.5 10q17 0 26.5 -10t9.5 -30t-6.5 -38t-17 -33t-24 -26t-26.5 -17z" />
    <glyph glyph-name="Rcaron" unicode="&#x158;" horiz-adv-x="580" 
d="M249 854h38l60 -80l76 80h38l-95 -111h-45zM512 -2q-31 0 -50.5 23t-33 57.5t-24.5 74.5t-24 74.5t-32 57.5t-49 23h-161l-32 -308h-39l74 700h205q88 0 139 -42t51 -131q0 -88 -47.5 -140t-121.5 -69q21 -10 34.5 -35.5t24 -57t19 -65.5t20 -62t26.5 -46t38 -18h17
l-4 -35q-5 0 -13 -0.5t-17 -0.5zM303 341q39 0 74 11.5t61.5 34.5t41.5 57t15 78q0 66 -39 105t-117 39h-163l-34 -325h161z" />
    <glyph glyph-name="rcaron" unicode="&#x159;" horiz-adv-x="320" 
d="M133 715h35l57 -121l80 121h37l-100 -152h-41zM97 399q3 33 -4.5 44.5t-30.5 11.5l3 29q4 2 9 2h10q57 0 50 -73l-6 -47q20 58 63.5 92t97.5 34q33 0 51 -10l-18 -36q-16 8 -44 8q-31 0 -57.5 -14t-47.5 -39.5t-34.5 -60t-17.5 -76.5l-28 -264h-38z" />
    <glyph glyph-name="Sacute" unicode="&#x15a;" horiz-adv-x="542" 
d="M354 854h53l-104 -111h-39zM245 -6q-91 0 -143.5 29.5t-76.5 89.5l33 21q20 -53 66 -79.5t125 -26.5q101 0 152.5 43t51.5 122q0 30 -9.5 53.5t-31 41.5t-57 32t-86.5 24q-94 18 -139 55.5t-45 109.5q0 47 16.5 83.5t46.5 61.5t72.5 38.5t94.5 13.5q41 0 76.5 -8t62 -26
t42 -46.5t15.5 -68.5q0 -18 -2.5 -28t-4.5 -21h-37q3 11 4.5 20.5t1.5 21.5q0 65 -45.5 93.5t-116.5 28.5q-88 0 -137.5 -41.5t-49.5 -115.5q0 -29 9 -50.5t29 -37t52.5 -27t79.5 -21.5q55 -12 93 -28t61.5 -37.5t34 -50t10.5 -65.5q0 -100 -65 -152t-183 -52z" />
    <glyph glyph-name="sacute" unicode="&#x15b;" horiz-adv-x="427" 
d="M307 715h48l-108 -152h-36zM193 -11q-27 0 -53 4.5t-49 15.5t-42 30t-31 48l32 20q12 -28 29 -44.5t36.5 -25.5t40.5 -12t40 -3q68 0 103.5 25.5t35.5 77.5q0 26 -10.5 43t-28.5 28t-41 17.5t-48 12.5q-26 6 -51.5 15.5t-46 24.5t-33 37t-12.5 54q0 64 46 99.5t126 35.5
q68 0 110 -30t42 -89q0 -17 -4 -31.5t-9 -25.5h-35q5 8 8 23.5t3 29.5q0 45 -32 67.5t-86 22.5q-62 0 -96 -25.5t-34 -72.5q0 -25 10 -42t27.5 -28.5t41 -19t50.5 -13.5q26 -6 51 -14.5t45 -23t32 -36t12 -53.5q0 -72 -48 -107t-131 -35z" />
    <glyph glyph-name="Scircumflex" unicode="&#x15c;" horiz-adv-x="542" 
d="M305 854h44l72 -111h-39l-58 79l-77 -79h-38zM245 -6q-91 0 -143.5 29.5t-76.5 89.5l33 21q20 -53 66 -79.5t125 -26.5q101 0 152.5 43t51.5 122q0 30 -9.5 53.5t-31 41.5t-57 32t-86.5 24q-94 18 -139 55.5t-45 109.5q0 47 16.5 83.5t46.5 61.5t72.5 38.5t94.5 13.5
q41 0 76.5 -8t62 -26t42 -46.5t15.5 -68.5q0 -18 -2.5 -28t-4.5 -21h-37q3 11 4.5 20.5t1.5 21.5q0 65 -45.5 93.5t-116.5 28.5q-88 0 -137.5 -41.5t-49.5 -115.5q0 -29 9 -50.5t29 -37t52.5 -27t79.5 -21.5q55 -12 93 -28t61.5 -37.5t34 -50t10.5 -65.5q0 -100 -65 -152
t-183 -52z" />
    <glyph glyph-name="scircumflex" unicode="&#x15d;" horiz-adv-x="427" 
d="M242 715h42l68 -152h-37l-55 121l-81 -121h-37zM193 -11q-27 0 -53 4.5t-49 15.5t-42 30t-31 48l32 20q12 -28 29 -44.5t36.5 -25.5t40.5 -12t40 -3q68 0 103.5 25.5t35.5 77.5q0 26 -10.5 43t-28.5 28t-41 17.5t-48 12.5q-26 6 -51.5 15.5t-46 24.5t-33 37t-12.5 54
q0 64 46 99.5t126 35.5q68 0 110 -30t42 -89q0 -17 -4 -31.5t-9 -25.5h-35q5 8 8 23.5t3 29.5q0 45 -32 67.5t-86 22.5q-62 0 -96 -25.5t-34 -72.5q0 -25 10 -42t27.5 -28.5t41 -19t50.5 -13.5q26 -6 51 -14.5t45 -23t32 -36t12 -53.5q0 -72 -48 -107t-131 -35z" />
    <glyph glyph-name="Scedilla" unicode="&#x15e;" horiz-adv-x="542" 
d="M467 508q3 11 4.5 20.5t1.5 21.5q0 65 -45.5 93.5t-116.5 28.5q-88 0 -137.5 -41.5t-49.5 -115.5q0 -29 9 -50.5t29 -37t52.5 -27t79.5 -21.5q55 -12 93 -28t61.5 -37.5t34 -50t10.5 -65.5q0 -97 -60.5 -148.5t-172.5 -55.5l-16 -34q67 -10 67 -64q0 -38 -25 -55.5
t-63 -17.5q-45 0 -69 27l20 23q19 -20 49 -20q50 0 50 42q0 19 -16 30t-53 11l27 58q-84 2 -133.5 31.5t-72.5 87.5l33 21q20 -53 66 -79.5t125 -26.5q101 0 152.5 43t51.5 122q0 30 -9.5 53.5t-31 41.5t-57 32t-86.5 24q-94 18 -139 55.5t-45 109.5q0 47 16.5 83.5
t46.5 61.5t72.5 38.5t94.5 13.5q41 0 76.5 -8t62 -26t42 -46.5t15.5 -68.5q0 -18 -2.5 -28t-4.5 -21h-37z" />
    <glyph glyph-name="scedilla" unicode="&#x15f;" horiz-adv-x="427" 
d="M340 316q5 8 8 23.5t3 29.5q0 45 -32 67.5t-86 22.5q-62 0 -96 -25.5t-34 -72.5q0 -25 10 -42t27.5 -28.5t41 -19t50.5 -13.5q26 -6 51 -14.5t45 -23t32 -36t12 -53.5q0 -69 -44 -104t-121 -38l-14 -29q67 -10 67 -64q0 -38 -25 -55.5t-63 -17.5q-45 0 -69 27l20 23
q19 -20 49 -20q50 0 50 42q0 19 -16 30t-53 11l25 53q-25 1 -48.5 6.5t-44.5 16.5t-38.5 29.5t-28.5 45.5l32 20q12 -28 29 -44.5t36.5 -25.5t40.5 -12t40 -3q68 0 103.5 25.5t35.5 77.5q0 26 -10.5 43t-28.5 28t-41 17.5t-48 12.5q-26 6 -51.5 15.5t-46 24.5t-33 37
t-12.5 54q0 64 46 99.5t126 35.5q68 0 110 -30t42 -89q0 -17 -4 -31.5t-9 -25.5h-35z" />
    <glyph glyph-name="Scaron" unicode="&#x160;" horiz-adv-x="542" 
d="M221 854h38l60 -80l76 80h38l-95 -111h-45zM245 -6q-91 0 -143.5 29.5t-76.5 89.5l33 21q20 -53 66 -79.5t125 -26.5q101 0 152.5 43t51.5 122q0 30 -9.5 53.5t-31 41.5t-57 32t-86.5 24q-94 18 -139 55.5t-45 109.5q0 47 16.5 83.5t46.5 61.5t72.5 38.5t94.5 13.5
q41 0 76.5 -8t62 -26t42 -46.5t15.5 -68.5q0 -18 -2.5 -28t-4.5 -21h-37q3 11 4.5 20.5t1.5 21.5q0 65 -45.5 93.5t-116.5 28.5q-88 0 -137.5 -41.5t-49.5 -115.5q0 -29 9 -50.5t29 -37t52.5 -27t79.5 -21.5q55 -12 93 -28t61.5 -37.5t34 -50t10.5 -65.5q0 -100 -65 -152
t-183 -52z" />
    <glyph glyph-name="scaron" unicode="&#x161;" horiz-adv-x="427" 
d="M159 715h35l57 -121l80 121h37l-100 -152h-41zM193 -11q-27 0 -53 4.5t-49 15.5t-42 30t-31 48l32 20q12 -28 29 -44.5t36.5 -25.5t40.5 -12t40 -3q68 0 103.5 25.5t35.5 77.5q0 26 -10.5 43t-28.5 28t-41 17.5t-48 12.5q-26 6 -51.5 15.5t-46 24.5t-33 37t-12.5 54
q0 64 46 99.5t126 35.5q68 0 110 -30t42 -89q0 -17 -4 -31.5t-9 -25.5h-35q5 8 8 23.5t3 29.5q0 45 -32 67.5t-86 22.5q-62 0 -96 -25.5t-34 -72.5q0 -25 10 -42t27.5 -28.5t41 -19t50.5 -13.5q26 -6 51 -14.5t45 -23t32 -36t12 -53.5q0 -72 -48 -107t-131 -35z" />
    <glyph glyph-name="uni0162" unicode="&#x162;" horiz-adv-x="492" 
d="M525 700l-4 -36h-211l-70 -664h-3l-19 -40q67 -10 67 -64q0 -38 -25 -55.5t-63 -17.5q-45 0 -69 27l20 23q19 -20 49 -20q50 0 50 42q0 19 -16 30t-53 11l30 64h-6l70 664h-211l4 36h460z" />
    <glyph glyph-name="uni0163" unicode="&#x163;" horiz-adv-x="352" 
d="M129 147q-7 -63 14.5 -92t72.5 -29q26 0 52 12t43 31l18 -26q-20 -22 -51 -37t-67 -16l-14 -30q67 -10 67 -64q0 -38 -25 -55.5t-63 -17.5q-45 0 -69 27l20 23q19 -20 49 -20q50 0 50 42q0 19 -16 30t-53 11l26 55q-55 7 -77.5 44.5t-14.5 110.5l32 302h-86l3 34h87
l14 140h37l-14 -140h192l-4 -34h-192z" />
    <glyph glyph-name="Tcaron" unicode="&#x164;" horiz-adv-x="492" 
d="M200 854h38l60 -80l76 80h38l-95 -111h-45zM272 664h-211l4 36h460l-4 -36h-211l-70 -664h-38z" />
    <glyph glyph-name="tcaron" unicode="&#x165;" horiz-adv-x="352" 
d="M274 602q41 22 45 56q-32 6 -32 35q0 17 10.5 27t26.5 10q15 0 25 -10t10 -31q0 -37 -22.5 -67.5t-51.5 -41.5zM208 -10q-69 0 -97 37.5t-20 118.5l32 302h-86l3 34h87l14 140h37l-14 -140h192l-4 -34h-192l-31 -301q-7 -63 14.5 -92t72.5 -29q26 0 52 12t43 31l18 -26
q-21 -23 -52.5 -38t-68.5 -15z" />
    <glyph glyph-name="Tbar" unicode="&#x166;" horiz-adv-x="521" 
d="M313 664l-32 -302h100l-4 -33h-99l-35 -329h-39l35 329h-89l3 33h89l32 302h-210l4 36h459l-4 -36h-210z" />
    <glyph glyph-name="tbar" unicode="&#x167;" horiz-adv-x="371" 
d="M163 448l-19 -176h126l-4 -34h-125l-10 -91q-6 -63 15 -92t73 -29q26 0 51.5 12t42.5 31l19 -26q-22 -23 -53.5 -38t-67.5 -15q-69 0 -97.5 37.5t-20.5 118.5l10 92h-65l4 34h64l19 176h-86l4 34h87l14 140h37l-14 -140h191l-3 -34h-192z" />
    <glyph glyph-name="Utilde" unicode="&#x168;" horiz-adv-x="640" 
d="M258 751q-5 10 -5 26q0 27 18 45t47 18q19 0 34 -8.5t28.5 -18t26.5 -18t29 -8.5q31 0 31 37q0 13 -4 18h33q4 -8 4 -24q0 -29 -17 -47t-49 -18q-20 0 -35.5 8.5t-28.5 18t-25 18t-26 8.5t-23 -9.5t-9 -25.5q0 -5 0.5 -10.5t2.5 -9.5h-32zM295 -6q-52 0 -94.5 14
t-70.5 47.5t-39.5 89.5t-2.5 140l44 415h39l-44 -417q-7 -72 2 -120.5t32 -78t58 -42.5t79 -13t82 12.5t67.5 42t49 78t27.5 121.5l44 417h38l-44 -415q-9 -85 -32.5 -141t-58.5 -89.5t-79.5 -47t-96.5 -13.5z" />
    <glyph glyph-name="utilde" unicode="&#x169;" horiz-adv-x="493" 
d="M169 594q-5 10 -5 26q0 27 17.5 45t48.5 18q18 0 32.5 -8.5t27.5 -18.5t26.5 -18.5t29.5 -8.5q31 0 31 37q0 14 -4 19h34q3 -9 3 -24q0 -29 -16.5 -47t-46.5 -18q-21 0 -37 8.5t-28.5 18.5t-24 18.5t-25.5 8.5q-16 0 -25.5 -9.5t-9.5 -26.5q0 -5 1 -10t3 -10h-32z
M192 -11q-67 0 -104.5 38.5t-27.5 126.5l35 328h38l-35 -324q-7 -75 23 -105.5t83 -30.5q36 0 66 17t51.5 42t34 55t15.5 55l30 291h38l-42 -396q-4 -35 4.5 -46t30.5 -11l-3 -29q-3 0 -7.5 -1t-11.5 -1q-59 0 -50 73l5 39q-12 -24 -28 -46t-37 -38.5t-48 -26.5t-60 -10z
" />
    <glyph glyph-name="Umacron" unicode="&#x16a;" horiz-adv-x="640" 
d="M269 809h224l-4 -34h-223zM295 -6q-52 0 -94.5 14t-70.5 47.5t-39.5 89.5t-2.5 140l44 415h39l-44 -417q-7 -72 2 -120.5t32 -78t58 -42.5t79 -13t82 12.5t67.5 42t49 78t27.5 121.5l44 417h38l-44 -415q-9 -85 -32.5 -141t-58.5 -89.5t-79.5 -47t-96.5 -13.5z" />
    <glyph glyph-name="umacron" unicode="&#x16b;" horiz-adv-x="493" 
d="M181 654h219l-3 -33h-220zM192 -11q-67 0 -104.5 38.5t-27.5 126.5l35 328h38l-35 -324q-7 -75 23 -105.5t83 -30.5q36 0 66 17t51.5 42t34 55t15.5 55l30 291h38l-42 -396q-4 -35 4.5 -46t30.5 -11l-3 -29q-3 0 -7.5 -1t-11.5 -1q-59 0 -50 73l5 39q-12 -24 -28 -46
t-37 -38.5t-48 -26.5t-60 -10z" />
    <glyph glyph-name="Ubreve" unicode="&#x16c;" horiz-adv-x="640" 
d="M374 747q-42 0 -65 26.5t-18 73.5h34q-3 -29 10.5 -47.5t42.5 -18.5q30 0 47.5 18.5t20.5 47.5h33q-5 -46 -33 -73t-72 -27zM295 -6q-52 0 -94.5 14t-70.5 47.5t-39.5 89.5t-2.5 140l44 415h39l-44 -417q-7 -72 2 -120.5t32 -78t58 -42.5t79 -13t82 12.5t67.5 42t49 78
t27.5 121.5l44 417h38l-44 -415q-9 -85 -32.5 -141t-58.5 -89.5t-79.5 -47t-96.5 -13.5z" />
    <glyph glyph-name="ubreve" unicode="&#x16d;" horiz-adv-x="493" 
d="M282 575q-50 0 -72 29.5t-16 86.5h33q-4 -44 11 -63t47 -19q67 -2 76 82h33q-6 -56 -35 -86t-77 -30zM192 -11q-67 0 -104.5 38.5t-27.5 126.5l35 328h38l-35 -324q-7 -75 23 -105.5t83 -30.5q36 0 66 17t51.5 42t34 55t15.5 55l30 291h38l-42 -396q-4 -35 4.5 -46
t30.5 -11l-3 -29q-3 0 -7.5 -1t-11.5 -1q-59 0 -50 73l5 39q-12 -24 -28 -46t-37 -38.5t-48 -26.5t-60 -10z" />
    <glyph glyph-name="Uring" unicode="&#x16e;" horiz-adv-x="640" 
d="M369 706q-37 0 -58.5 22.5t-21.5 60.5q0 45 27.5 74.5t71.5 29.5q37 0 59 -22.5t22 -60.5q0 -45 -28 -74.5t-72 -29.5zM372 736q31 0 48 19.5t17 51.5q0 26 -13.5 40.5t-38.5 14.5q-29 0 -46.5 -19t-17.5 -51q0 -26 13.5 -41t37.5 -15zM295 -6q-52 0 -94.5 14t-70.5 47.5
t-39.5 89.5t-2.5 140l44 415h39l-44 -417q-7 -72 2 -120.5t32 -78t58 -42.5t79 -13t82 12.5t67.5 42t49 78t27.5 121.5l44 417h38l-44 -415q-9 -85 -32.5 -141t-58.5 -89.5t-79.5 -47t-96.5 -13.5z" />
    <glyph glyph-name="uring" unicode="&#x16f;" horiz-adv-x="493" 
d="M279 532q-38 0 -60 23.5t-22 59.5q0 44 28 73.5t71 29.5q36 0 58.5 -24t22.5 -60q0 -45 -28.5 -73.5t-69.5 -28.5zM282 562q29 0 46 19t17 51q0 25 -13.5 40t-38.5 15q-29 0 -46.5 -19.5t-17.5 -50.5q0 -25 13.5 -40t39.5 -15zM192 -11q-67 0 -104.5 38.5t-27.5 126.5
l35 328h38l-35 -324q-7 -75 23 -105.5t83 -30.5q36 0 66 17t51.5 42t34 55t15.5 55l30 291h38l-42 -396q-4 -35 4.5 -46t30.5 -11l-3 -29q-3 0 -7.5 -1t-11.5 -1q-59 0 -50 73l5 39q-12 -24 -28 -46t-37 -38.5t-48 -26.5t-60 -10z" />
    <glyph glyph-name="Uhungarumlaut" unicode="&#x170;" horiz-adv-x="640" 
d="M344 854h50l-88 -111h-36zM467 854h51l-89 -111h-36zM295 -6q-52 0 -94.5 14t-70.5 47.5t-39.5 89.5t-2.5 140l44 415h39l-44 -417q-7 -72 2 -120.5t32 -78t58 -42.5t79 -13t82 12.5t67.5 42t49 78t27.5 121.5l44 417h38l-44 -415q-9 -85 -32.5 -141t-58.5 -89.5
t-79.5 -47t-96.5 -13.5z" />
    <glyph glyph-name="uhungarumlaut" unicode="&#x171;" horiz-adv-x="493" 
d="M265 715h47l-90 -152h-34zM388 715h47l-91 -152h-33zM192 -11q-67 0 -104.5 38.5t-27.5 126.5l35 328h38l-35 -324q-7 -75 23 -105.5t83 -30.5q36 0 66 17t51.5 42t34 55t15.5 55l30 291h38l-42 -396q-4 -35 4.5 -46t30.5 -11l-3 -29q-3 0 -7.5 -1t-11.5 -1q-59 0 -50 73
l5 39q-12 -24 -28 -46t-37 -38.5t-48 -26.5t-60 -10z" />
    <glyph glyph-name="Uogonek" unicode="&#x172;" horiz-adv-x="640" 
d="M606 700l-44 -415q-8 -75 -27.5 -127.5t-48 -86.5t-65.5 -51.5t-80 -22.5q-35 -11 -57.5 -37t-22.5 -55q0 -44 40 -44q12 0 20 3.5t16 9.5l13 -22q-9 -8 -23.5 -14.5t-33.5 -6.5q-32 0 -50 16.5t-18 48.5q0 28 15.5 53.5t44.5 44.5q-50 1 -90 16t-67 48.5t-38 89
t-2 137.5l44 415h39l-44 -417q-7 -72 2 -120.5t32 -78t58 -42.5t79 -13t82 12.5t67.5 42t49 78t27.5 121.5l44 417h38z" />
    <glyph glyph-name="uogonek" unicode="&#x173;" horiz-adv-x="493" 
d="M429 0q-38 -10 -63 -36.5t-25 -57.5q0 -44 40 -44q12 0 20 3.5t16 9.5l13 -22q-9 -8 -23.5 -14.5t-33.5 -6.5q-32 0 -50 16.5t-18 48.5q0 31 20 59.5t56 47.5q-27 15 -21 67l5 39q-12 -24 -28 -46t-37 -38.5t-48 -26.5t-60 -10q-67 0 -104.5 38.5t-27.5 126.5l35 328h38
l-35 -324q-7 -75 23 -105.5t83 -30.5q36 0 66 17t51.5 42t34 55t15.5 55l30 291h38l-42 -396q-4 -35 4.5 -46t30.5 -11z" />
    <glyph glyph-name="Wcircumflex" unicode="&#x174;" horiz-adv-x="862" 
d="M474 854h44l72 -111h-39l-58 79l-77 -79h-38zM72 700h45l96 -656l248 656h39l109 -656l236 656h43l-261 -700h-45l-107 641l-244 -641h-45z" />
    <glyph glyph-name="wcircumflex" unicode="&#x175;" horiz-adv-x="658" 
d="M293 563h-37l100 152h42l68 -152h-37l-55 121zM660 482l-193 -484h-47l-65 381l-5 39l-15 -39l-148 -381h-46l-90 484h40l66 -389l10 -60l22 60l150 389h35l66 -387l8 -62l23 62l150 387h39z" />
    <glyph glyph-name="Ycircumflex" unicode="&#x176;" horiz-adv-x="547" 
d="M317 854h44l72 -111h-39l-58 79l-77 -79h-38zM260 295l-187 405h46l165 -365l243 365h45l-272 -405l-31 -295h-40z" />
    <glyph glyph-name="ycircumflex" unicode="&#x177;" horiz-adv-x="487" 
d="M270 715h42l68 -152h-37l-55 121l-81 -121h-37zM185 -247q-71 0 -109.5 26t-53.5 71l32 17q14 -35 45 -57.5t91 -22.5q66 0 106.5 39t47.5 108l20 182q-20 -57 -65.5 -90.5t-102.5 -33.5q-153 0 -136 167l34 323h38l-33 -320q-15 -137 109 -137q31 0 59 14t50 38t36 57
t18 70l30 278h38l-59 -554q-10 -81 -61.5 -128t-133.5 -47z" />
    <glyph glyph-name="Ydieresis" unicode="&#x178;" horiz-adv-x="547" 
d="M251 763q-15 0 -24 9.5t-9 23.5q0 18 11 28.5t26 10.5t24 -9.5t9 -23.5q0 -18 -10 -28.5t-27 -10.5zM410 763q-14 0 -23.5 9t-9.5 24q0 18 11 28.5t26 10.5q16 0 24.5 -9.5t8.5 -23.5q0 -18 -10 -28.5t-27 -10.5zM260 295l-187 405h46l165 -365l243 365h45l-272 -405
l-31 -295h-40z" />
    <glyph glyph-name="Zacute" unicode="&#x179;" horiz-adv-x="530" 
d="M312 743h-39l90 111h53zM544 668l-487 -633h421l-4 -35h-468l3 32l488 633h-421l4 35h468z" />
    <glyph glyph-name="zacute" unicode="&#x17a;" horiz-adv-x="450" 
d="M256 563h-36l96 152h48zM414 447l-253 -203q31 -6 70.5 -21.5t74.5 -45t59 -75.5t24 -112q0 -60 -17 -103t-45.5 -71t-66 -41.5t-78.5 -13.5q-78 0 -125.5 41.5t-47.5 120.5q0 59 22.5 104.5t55 78.5t68 54t60.5 31q-43 17 -101 25l3 34l247 198h-287l4 34h336zM354 -15
q0 70 -29 116.5t-78 74.5q-26 -10 -61 -29.5t-66 -50t-52.5 -71.5t-21.5 -95q0 -67 39 -101.5t102 -34.5q32 0 62.5 11t53.5 34.5t37 59.5t14 86z" />
    <glyph glyph-name="Zdotaccent" unicode="&#x17b;" horiz-adv-x="530" 
d="M326 762q-14 0 -23 10t-9 24q0 16 12.5 28t26.5 12t23.5 -10t9.5 -24q0 -16 -12 -28t-28 -12zM544 668l-487 -633h421l-4 -35h-468l3 32l488 633h-421l4 35h468z" />
    <glyph glyph-name="zdotaccent" unicode="&#x17c;" horiz-adv-x="450" 
d="M262 599q-14 0 -23 9t-9 24q0 17 10.5 28.5t28.5 11.5q15 0 23.5 -9.5t8.5 -23.5q0 -17 -10 -28.5t-29 -11.5zM414 447l-253 -203q31 -6 70.5 -21.5t74.5 -45t59 -75.5t24 -112q0 -60 -17 -103t-45.5 -71t-66 -41.5t-78.5 -13.5q-78 0 -125.5 41.5t-47.5 120.5
q0 59 22.5 104.5t55 78.5t68 54t60.5 31q-43 17 -101 25l3 34l247 198h-287l4 34h336zM354 -15q0 70 -29 116.5t-78 74.5q-26 -10 -61 -29.5t-66 -50t-52.5 -71.5t-21.5 -95q0 -67 39 -101.5t102 -34.5q32 0 62.5 11t53.5 34.5t37 59.5t14 86z" />
    <glyph glyph-name="Zcaron" unicode="&#x17d;" horiz-adv-x="530" 
d="M302 743l-72 111h38l60 -80l76 80h38l-95 -111h-45zM544 668l-487 -633h421l-4 -35h-468l3 32l488 633h-421l4 35h468z" />
    <glyph glyph-name="zcaron" unicode="&#x17e;" horiz-adv-x="450" 
d="M236 563l-68 152h35l57 -121l80 121h37l-100 -152h-41zM414 447l-253 -203q31 -6 70.5 -21.5t74.5 -45t59 -75.5t24 -112q0 -60 -17 -103t-45.5 -71t-66 -41.5t-78.5 -13.5q-78 0 -125.5 41.5t-47.5 120.5q0 59 22.5 104.5t55 78.5t68 54t60.5 31q-43 17 -101 25l3 34
l247 198h-287l4 34h336zM354 -15q0 70 -29 116.5t-78 74.5q-26 -10 -61 -29.5t-66 -50t-52.5 -71.5t-21.5 -95q0 -67 39 -101.5t102 -34.5q32 0 62.5 11t53.5 34.5t37 59.5t14 86z" />
    <glyph glyph-name="uni018F" unicode="&#x18f;" horiz-adv-x="615" 
d="M341 706q114 0 176 -77t62 -219q0 -98 -22.5 -175.5t-62.5 -131t-95.5 -81.5t-121.5 -28q-113 0 -172.5 69t-59.5 193q0 30 3 48t5 28h480q2 17 3 35.5t1 38.5q0 127 -52 196t-147 69q-64 0 -115.5 -28.5t-88.5 -81.5l-29 18q42 60 100 93.5t136 33.5zM283 28
q94 0 160 70.5t86 200.5h-442q-11 -131 38 -201t158 -70z" />
    <glyph glyph-name="florin" unicode="&#x192;" horiz-adv-x="373" 
d="M-23 -171q-34 0 -58.5 13.5t-33.5 35.5l26 22q8 -18 26.5 -28t41.5 -10q44 0 73 30.5t35 84.5l48 464h-66l3 33h67l10 99q8 69 47 107.5t101 38.5q36 0 62.5 -13t43.5 -43l-25 -22q-16 24 -34 34.5t-49 10.5q-45 0 -73.5 -30.5t-34.5 -84.5l-10 -97h175l-4 -33h-175
l-48 -466q-8 -69 -47 -107.5t-101 -38.5z" />
    <glyph glyph-name="uni019D" unicode="&#x19d;" horiz-adv-x="640" 
d="M598 700l-75 -700h-37l-308 615l-7 18l-66 -633l-7 -70q-8 -72 -44 -107t-92 -35q-32 0 -56 11.5t-35 30.5l29 29q13 -20 30.5 -27t36.5 -7q79 0 91 96l9 79l74 700h36l306 -616l9 -19l67 635h39z" />
    <glyph glyph-name="Gcaron" unicode="&#x1e6;" horiz-adv-x="614" 
d="M278 854h38l60 -80l76 80h38l-95 -111h-45zM310 -7q-124 0 -187.5 80t-63.5 222q0 96 23.5 172t66 129.5t101 81.5t127.5 28q98 0 149 -44.5t51 -121.5q0 -33 -10 -62h-39q4 11 6.5 24t2.5 30q0 66 -42 103t-122 37q-59 0 -109 -25.5t-86.5 -73.5t-57 -117t-20.5 -156
q0 -62 13.5 -112.5t40.5 -86t67.5 -55t94.5 -19.5q63 0 111 19.5t75 48.5l21 201h-179l4 36h218l-27 -252q-35 -36 -92 -61.5t-137 -25.5z" />
    <glyph glyph-name="gcaron" unicode="&#x1e7;" horiz-adv-x="497" 
d="M191 715h35l57 -121l80 121h37l-100 -152h-41zM196 -239q-65 0 -106 26t-56 68l31 19q12 -35 47.5 -57.5t85.5 -22.5q67 0 108.5 39.5t48.5 108.5l17 152q-18 -42 -57.5 -72t-102.5 -30q-82 0 -125 56t-43 152q0 65 15.5 118t43.5 91.5t68 59.5t89 21q51 0 90.5 -24.5
t55.5 -64.5l8 81h35l-57 -539q-8 -85 -57.5 -133.5t-138.5 -48.5zM222 26q60 0 98.5 36t56.5 93l20 192q-8 46 -45 78t-91 32q-40 0 -73.5 -18.5t-56.5 -52t-36 -80t-13 -103.5q0 -82 35.5 -129.5t104.5 -47.5z" />
    <glyph glyph-name="uni01EA" unicode="&#x1ea;" horiz-adv-x="670" 
d="M348 -5q-32 -13 -52 -37t-20 -52q0 -44 40 -44q12 0 20 3.5t16 9.5l13 -22q-9 -8 -23.5 -14.5t-33.5 -6.5q-32 0 -50 16.5t-18 48.5q0 28 15.5 53.5t44.5 44.5q-48 3 -91.5 20.5t-76.5 53t-52.5 90.5t-19.5 132q0 114 27.5 193t72.5 128.5t102.5 71.5t117.5 22
q49 0 94.5 -17t81 -53t57 -93t21.5 -137q0 -108 -23.5 -184t-63 -125t-91 -73.5t-108.5 -28.5zM101 295q0 -74 18.5 -125t50 -82.5t72 -45.5t85.5 -14q51 0 99 20t85 64.5t59 116t22 174.5q0 72 -18.5 123t-48.5 83.5t-69 47.5t-80 15q-52 0 -101.5 -20.5t-88 -65.5
t-62 -116.5t-23.5 -174.5z" />
    <glyph glyph-name="uni01EB" unicode="&#x1eb;" horiz-adv-x="492" 
d="M261 -9q-28 -13 -46 -36t-18 -49q0 -44 40 -44q12 0 20 3.5t16 9.5l13 -22q-9 -8 -23.5 -14.5t-33.5 -6.5q-32 0 -50 16.5t-18 48.5q0 26 13.5 50t38.5 42q-80 5 -124.5 59t-44.5 154q0 71 17.5 125t47.5 90.5t71 55.5t89 19q84 0 132 -54.5t48 -158.5q0 -64 -14 -114.5
t-39 -87t-59.5 -58.5t-75.5 -28zM83 205q0 -93 40.5 -138t107.5 -45q36 0 68.5 15.5t57.5 47t39.5 79t14.5 111.5q0 94 -40 139t-106 45q-36 0 -69 -15.5t-58 -47t-40 -79.5t-15 -112z" />
    <glyph glyph-name="Aringacute" unicode="&#x1fa;" horiz-adv-x="583" 
d="M446 220h-311l-102 -220h-40l318 682q-23 8 -37 28.5t-14 49.5q0 42 23.5 70t61.5 33l73 90h53l-87 -92q26 -8 41 -28.5t15 -51.5q0 -38 -20.5 -65.5t-53.5 -35.5l174 -680h-39zM292 763q0 -26 13.5 -41t37.5 -15q31 0 48 19.5t17 52.5q0 25 -13.5 40t-38.5 15
q-29 0 -46.5 -19.5t-17.5 -51.5zM438 254l-101 401l-186 -401h287z" />
    <glyph glyph-name="aringacute" unicode="&#x1fb;" horiz-adv-x="505" 
d="M285 532q-38 0 -60 23.5t-22 59.5q0 44 28 73.5t71 29.5h4l80 126h48l-96 -134q21 -10 33 -30t12 -46q0 -45 -28.5 -73.5t-69.5 -28.5zM299 687q-29 0 -46.5 -19.5t-17.5 -50.5q0 -25 13.5 -40t39.5 -15q29 0 46 19t17 51q0 25 -13.5 40t-38.5 15zM409 85q-6 -58 35 -54
l-3 -31q-10 -2 -19 -2q-28 0 -41 19.5t-10 53.5l3 23q-21 -44 -63.5 -74.5t-102.5 -30.5q-78 0 -121.5 55.5t-43.5 153.5q0 65 16 119t45 93t71 60.5t94 21.5q50 0 86 -25t52 -67l8 81h36zM398 345q-10 51 -44 82.5t-85 31.5q-43 0 -77.5 -19t-59 -53t-37.5 -81t-13 -103
q0 -85 36.5 -133t99.5 -48q26 0 51.5 9.5t46.5 27t37.5 42t24.5 54.5z" />
    <glyph glyph-name="AEacute" unicode="&#x1fc;" horiz-adv-x="752" 
d="M498 854h53l-104 -111h-39zM322 700h440l-4 -35h-388l74 -290h231l-4 -35h-218l77 -305h162l-4 -35h-189l-54 219h-313l-100 -219h-39zM436 253l-100 397l-187 -397h287z" />
    <glyph glyph-name="aeacute" unicode="&#x1fd;" horiz-adv-x="759" 
d="M409 563h-36l96 152h48zM572 492q81 0 116 -50.5t33 -139.5q-1 -24 -2 -33t-2 -15h-325q-3 -22 -3 -47q0 -90 36 -137.5t106 -47.5q51 0 83.5 19t55.5 51l24 -20q-27 -36 -67.5 -59.5t-100.5 -23.5q-72 0 -114 38t-55 108q-39 -80 -92 -111.5t-115 -31.5q-59 0 -92 29.5
t-33 80.5q0 65 46.5 100.5t131.5 35.5h148l9 88q14 132 -113 132q-65 0 -101.5 -31.5t-36.5 -86.5q0 -22 5 -37h-35q-2 7 -4 17.5t-2 23.5q0 33 13 60t37 46.5t57 30.5t72 11q65 0 101 -28t44 -79q30 51 75 79t100 28zM683 285q3 36 -0.5 67.5t-16.5 55t-37 37.5t-62 14
q-34 0 -62.5 -13.5t-50 -36.5t-36 -55t-22.5 -69h287zM158 24q127 0 186 149l4 35h-145q-69 0 -103.5 -26.5t-34.5 -74.5q0 -38 25 -60.5t68 -22.5z" />
    <glyph glyph-name="Oslashacute" unicode="&#x1fe;" horiz-adv-x="670" 
d="M343 743h-39l90 111h53zM570 620q29 -36 46.5 -89t17.5 -125q0 -114 -26 -192.5t-69.5 -127.5t-99.5 -70.5t-116 -21.5q-50 0 -95.5 14t-80.5 46l-53 -70h-41l71 94q-30 35 -47 88t-17 125q0 114 27.5 193t72.5 128.5t102.5 71.5t117.5 22q46 0 89 -15t78 -47l54 72h40z
M101 295q0 -61 12.5 -106t35.5 -77l374 500q-30 31 -68 45.5t-79 14.5q-52 0 -101.5 -20.5t-88 -65.5t-62 -116.5t-23.5 -174.5zM592 403q0 60 -12.5 105.5t-35.5 77.5l-373 -500q31 -31 71 -44.5t85 -13.5q51 0 99 20t85 64.5t59 116t22 174.5z" />
    <glyph glyph-name="oslashacute" unicode="&#x1ff;" horiz-adv-x="492" 
d="M265 563h-36l96 152h48zM404 434q45 -56 45 -155q0 -70 -17 -124.5t-46.5 -91t-70 -55.5t-87.5 -19q-70 0 -118 37l-33 -46h-36l49 67q-46 55 -46 155q0 71 17.5 125t47.5 90.5t71 55.5t89 19q68 0 114 -37l34 47h36zM83 205q0 -77 31 -124l247 343q-38 35 -96 35
q-36 0 -69 -15.5t-58 -47t-40 -79.5t-15 -112zM411 275q0 80 -31 126l-247 -343q38 -36 98 -36q36 0 68.5 15.5t57.5 47t39.5 79t14.5 111.5z" />
    <glyph glyph-name="uni0218" unicode="&#x218;" horiz-adv-x="542" 
d="M245 -6q-91 0 -143.5 29.5t-76.5 89.5l33 21q20 -53 66 -79.5t125 -26.5q101 0 152.5 43t51.5 122q0 30 -9.5 53.5t-31 41.5t-57 32t-86.5 24q-94 18 -139 55.5t-45 109.5q0 47 16.5 83.5t46.5 61.5t72.5 38.5t94.5 13.5q41 0 76.5 -8t62 -26t42 -46.5t15.5 -68.5
q0 -18 -2.5 -28t-4.5 -21h-37q3 11 4.5 20.5t1.5 21.5q0 65 -45.5 93.5t-116.5 28.5q-88 0 -137.5 -41.5t-49.5 -115.5q0 -29 9 -50.5t29 -37t52.5 -27t79.5 -21.5q55 -12 93 -28t61.5 -37.5t34 -50t10.5 -65.5q0 -100 -65 -152t-183 -52zM191 -176q19 11 31 26t16 37
q-17 2 -25.5 11.5t-8.5 23.5q0 17 10.5 27t25.5 10q17 0 26.5 -10t9.5 -30t-6.5 -38t-17 -33t-24 -26t-26.5 -17z" />
    <glyph glyph-name="uni0219" unicode="&#x219;" horiz-adv-x="427" 
d="M193 -11q-27 0 -53 4.5t-49 15.5t-42 30t-31 48l32 20q12 -28 29 -44.5t36.5 -25.5t40.5 -12t40 -3q68 0 103.5 25.5t35.5 77.5q0 26 -10.5 43t-28.5 28t-41 17.5t-48 12.5q-26 6 -51.5 15.5t-46 24.5t-33 37t-12.5 54q0 64 46 99.5t126 35.5q68 0 110 -30t42 -89
q0 -17 -4 -31.5t-9 -25.5h-35q5 8 8 23.5t3 29.5q0 45 -32 67.5t-86 22.5q-62 0 -96 -25.5t-34 -72.5q0 -25 10 -42t27.5 -28.5t41 -19t50.5 -13.5q26 -6 51 -14.5t45 -23t32 -36t12 -53.5q0 -72 -48 -107t-131 -35zM140 -176q19 11 31 26t16 37q-17 2 -25.5 11.5t-8.5 23.5
q0 17 10.5 27t25.5 10q17 0 26.5 -10t9.5 -30t-6.5 -38t-17 -33t-24 -26t-26.5 -17z" />
    <glyph glyph-name="uni021A" unicode="&#x21a;" horiz-adv-x="492" 
d="M272 664h-211l4 36h460l-4 -36h-211l-70 -664h-38zM165 -176q19 11 31 26t16 37q-17 2 -25.5 11.5t-8.5 23.5q0 17 10.5 27t25.5 10q17 0 26.5 -10t9.5 -30t-6.5 -38t-17 -33t-24 -26t-26.5 -17z" />
    <glyph glyph-name="uni021B" unicode="&#x21b;" horiz-adv-x="352" 
d="M208 -10q-69 0 -97 37.5t-20 118.5l32 302h-86l3 34h87l14 140h37l-14 -140h192l-4 -34h-192l-31 -301q-7 -63 14.5 -92t72.5 -29q26 0 52 12t43 31l18 -26q-21 -23 -52.5 -38t-68.5 -15zM144 -176q19 11 31 26t16 37q-17 2 -25.5 11.5t-8.5 23.5q0 17 10.5 27t25.5 10
q17 0 26.5 -10t9.5 -30t-6.5 -38t-17 -33t-24 -26t-26.5 -17z" />
    <glyph glyph-name="uni0232" unicode="&#x232;" horiz-adv-x="547" 
d="M223 809h224l-4 -34h-223zM260 295l-187 405h46l165 -365l243 365h45l-272 -405l-31 -295h-40z" />
    <glyph glyph-name="uni0233" unicode="&#x233;" horiz-adv-x="487" 
d="M177 654h219l-3 -33h-220zM185 -247q-71 0 -109.5 26t-53.5 71l32 17q14 -35 45 -57.5t91 -22.5q66 0 106.5 39t47.5 108l20 182q-20 -57 -65.5 -90.5t-102.5 -33.5q-153 0 -136 167l34 323h38l-33 -320q-15 -137 109 -137q31 0 59 14t50 38t36 57t18 70l30 278h38
l-59 -554q-10 -81 -61.5 -128t-133.5 -47z" />
    <glyph glyph-name="uni0237" unicode="&#x237;" horiz-adv-x="196" 
d="M-62 -247q-20 0 -34 3.5t-24 8.5q-11 5 -18 12l15 29q7 -6 16 -10q8 -4 19.5 -7t26.5 -3q47 0 73.5 29t33.5 97l60 570h38l-60 -571q-8 -78 -43.5 -118t-102.5 -40z" />
    <glyph glyph-name="uni0259" unicode="&#x259;" horiz-adv-x="450" 
d="M243 493q76 0 120 -50.5t44 -156.5q0 -67 -15.5 -121.5t-44 -93.5t-68 -60t-87.5 -21q-80 0 -123.5 53t-32.5 152q1 13 2 20t2 15h326q3 26 3 52q0 94 -36 136t-94 42q-48 0 -83 -21.5t-58 -56.5l-28 16q27 42 71 68.5t102 26.5zM196 23q66 0 108.5 47.5t57.5 128.5h-288
q-4 -36 1 -68t19.5 -56t39.5 -38t62 -14z" />
    <glyph glyph-name="uni0272" unicode="&#x272;" horiz-adv-x="501" 
d="M413 86q-4 -36 4 -46.5t31 -10.5l-4 -29q-5 -1 -9 -1.5t-9 -0.5q-32 0 -44 20.5t-8 59.5l24 227q8 73 -20.5 113t-91.5 40q-33 0 -61.5 -14t-50 -38.5t-35 -57t-17.5 -70.5l-29 -278l-8 -71q-8 -70 -43 -105.5t-92 -35.5q-32 0 -55.5 11.5t-35.5 30.5l29 29
q13 -19 31 -26.5t35 -7.5q41 0 64 26.5t29 76.5l8 72l42 398q4 36 -4.5 46.5t-30.5 10.5l3 29q4 1 9 1h10q29 0 40 -18t9 -55l-4 -43q21 57 65.5 90t101.5 33q76 0 112.5 -49t27.5 -137z" />
    <glyph glyph-name="circumflex" unicode="&#x2c6;" horiz-adv-x="306" 
d="M177 715h42l68 -152h-37l-55 121l-81 -121h-37z" />
    <glyph glyph-name="caron" unicode="&#x2c7;" horiz-adv-x="302" 
d="M96 715h35l57 -121l80 121h37l-100 -152h-41z" />
    <glyph glyph-name="breve" unicode="&#x2d8;" horiz-adv-x="283" 
d="M178 575q-50 0 -72 29.5t-16 86.5h33q-4 -44 11 -63t47 -19q67 -2 76 82h33q-6 -56 -35 -86t-77 -30z" />
    <glyph glyph-name="dotaccent" unicode="&#x2d9;" horiz-adv-x="161" 
d="M116 599q-14 0 -23 9t-9 24q0 17 10.5 28.5t28.5 11.5q15 0 23.5 -9.5t8.5 -23.5q0 -17 -10 -28.5t-29 -11.5z" />
    <glyph glyph-name="ring" unicode="&#x2da;" horiz-adv-x="232" 
d="M147 532q-38 0 -60 23.5t-22 59.5q0 44 28 73.5t71 29.5q36 0 58.5 -24t22.5 -60q0 -45 -28.5 -73.5t-69.5 -28.5zM150 562q29 0 46 19t17 51q0 25 -13.5 40t-38.5 15q-29 0 -46.5 -19.5t-17.5 -50.5q0 -25 13.5 -40t39.5 -15z" />
    <glyph glyph-name="ogonek" unicode="&#x2db;" horiz-adv-x="233" 
d="M76 -167q-32 0 -50 16.5t-18 48.5q0 38 30 72t82 50l12 -19q-38 -10 -63 -36.5t-25 -57.5q0 -44 40 -44q12 0 20 3.5t16 9.5l13 -22q-9 -8 -23.5 -14.5t-33.5 -6.5z" />
    <glyph glyph-name="tilde" unicode="&#x2dc;" horiz-adv-x="353" 
d="M101 594q-5 10 -5 26q0 27 17.5 45t48.5 18q18 0 32.5 -8.5t27.5 -18.5t26.5 -18.5t29.5 -8.5q31 0 31 37q0 14 -4 19h34q3 -9 3 -24q0 -29 -16.5 -47t-46.5 -18q-21 0 -37 8.5t-28.5 18.5t-24 18.5t-25.5 8.5q-16 0 -25.5 -9.5t-9.5 -26.5q0 -5 1 -10t3 -10h-32z" />
    <glyph glyph-name="hungarumlaut" unicode="&#x2dd;" horiz-adv-x="336" 
d="M160 715h47l-90 -152h-34zM283 715h47l-91 -152h-33z" />
    <glyph glyph-name="gravecomb" unicode="&#x300;" 
d="M-140 715h46l65 -152h-35z" />
    <glyph glyph-name="acutecomb" unicode="&#x301;" 
d="M-46 715h48l-108 -152h-36z" />
    <glyph glyph-name="uni0302" unicode="&#x302;" 
d="M-128 715h42l68 -152h-37l-55 121l-81 -121h-37z" />
    <glyph glyph-name="tildecomb" unicode="&#x303;" 
d="M-252 594q-5 10 -5 26q0 27 17.5 45t48.5 18q18 0 32.5 -8.5t27.5 -18.5t26.5 -18.5t29.5 -8.5q31 0 31 37q0 14 -4 19h34q3 -9 3 -24q0 -29 -16.5 -47t-46.5 -18q-21 0 -37 8.5t-28.5 18.5t-24.5 18.5t-25 8.5q-16 0 -25.5 -9.5t-9.5 -26.5q0 -5 1 -10t3 -10h-32z" />
    <glyph glyph-name="uni0304" unicode="&#x304;" 
d="M-234 654h219l-3 -33h-220z" />
    <glyph glyph-name="uni0306" unicode="&#x306;" 
d="M-106 575q-50 0 -72 29.5t-16 86.5h33q-4 -44 11 -63t47 -19q67 -2 76 82h33q-6 -56 -35 -86t-77 -30z" />
    <glyph glyph-name="uni0307" unicode="&#x307;" 
d="M-39 599q-14 0 -23 9t-9 24q0 17 10.5 28.5t28.5 11.5q15 0 23.5 -9.5t8.5 -23.5q0 -17 -10 -28.5t-29 -11.5z" />
    <glyph glyph-name="uni0308" unicode="&#x308;" 
d="M-192 598q-31 0 -31 32q0 16 10 27t27 11q15 0 23.5 -9t8.5 -22q0 -17 -10 -28t-28 -11zM-42 598q-14 0 -22.5 8.5t-8.5 23.5q0 16 10.5 27t27.5 11q14 0 22.5 -9t8.5 -22q0 -17 -10 -28t-28 -11z" />
    <glyph glyph-name="uni030A" unicode="&#x30a;" 
d="M-85 532q-38 0 -60 23.5t-22 59.5q0 44 28 73.5t71 29.5q36 0 58.5 -24t22.5 -60q0 -45 -28.5 -73.5t-69.5 -28.5zM-82 562q29 0 46 19t17 51q0 25 -13.5 40t-38.5 15q-29 0 -46.5 -19.5t-17.5 -50.5q0 -25 13.5 -40t39.5 -15z" />
    <glyph glyph-name="uni030B" unicode="&#x30b;" 
d="M-176 715h47l-90 -152h-34zM-53 715h47l-91 -152h-33z" />
    <glyph glyph-name="uni030C" unicode="&#x30c;" 
d="M-205 715h35l57 -121l80 121h37l-100 -152h-41z" />
    <glyph glyph-name="uni0312" unicode="&#x312;" 
d="M-22 567q-15 0 -23.5 10.5t-8.5 27.5q0 37 20 64t45 38l13 -20q-17 -9 -29 -21t-15 -28q20 2 28.5 -8t8.5 -24q0 -16 -11 -27.5t-28 -11.5z" />
    <glyph glyph-name="dotbelowcomb" unicode="&#x323;" 
d="M-124 -155q-14 0 -23 9.5t-9 23.5q0 17 10.5 28.5t27.5 11.5q15 0 24 -9.5t9 -23.5q0 -17 -10.5 -28.5t-28.5 -11.5z" />
    <glyph glyph-name="uni0326" unicode="&#x326;" 
d="M-164 -176q19 11 31 26t16 37q-17 2 -25.5 11.5t-8.5 23.5q0 17 10.5 27t25.5 10q17 0 26.5 -10t9.5 -30t-6.5 -38t-17 -33t-24 -26t-26.5 -17z" />
    <glyph glyph-name="uni0327" unicode="&#x327;" 
d="M-168 -177q-45 0 -69 27l20 23q19 -20 49 -20q50 0 50 42q0 19 -16 30t-53 11l31 66h29l-20 -42q67 -10 67 -64q0 -38 -25 -55.5t-63 -17.5z" />
    <glyph glyph-name="uni0328" unicode="&#x328;" 
d="M-157 -167q-32 0 -50 16.5t-18 48.5q0 38 30 72t82 50l12 -19q-38 -10 -63 -36.5t-25 -57.5q0 -44 40 -44q12 0 20 3.5t16 9.5l13 -22q-9 -8 -23.5 -14.5t-33.5 -6.5z" />
    <glyph glyph-name="uni0335" unicode="&#x335;" 
d="M-242 370h228l-3 -34h-229z" />
    <glyph glyph-name="uni0336" unicode="&#x336;" 
d="M-574 569h563l-3 -31h-563z" />
    <glyph glyph-name="uni0337" unicode="&#x337;" 
d="M-204 340l191 109l14 -28l-193 -109z" />
    <glyph glyph-name="uni0338" unicode="&#x338;" 
d="M-21 502h36l-376 -522h-36z" />
    <glyph glyph-name="Wgrave" unicode="&#x1e80;" horiz-adv-x="862" 
d="M402 854h53l65 -111h-38zM72 700h45l96 -656l248 656h39l109 -656l236 656h43l-261 -700h-45l-107 641l-244 -641h-45z" />
    <glyph glyph-name="wgrave" unicode="&#x1e81;" horiz-adv-x="658" 
d="M348 563l-76 152h46l65 -152h-35zM660 482l-193 -484h-47l-65 381l-5 39l-15 -39l-148 -381h-46l-90 484h40l66 -389l10 -60l22 60l150 389h35l66 -387l8 -62l23 62l150 387h39z" />
    <glyph glyph-name="Wacute" unicode="&#x1e82;" horiz-adv-x="862" 
d="M523 854h53l-104 -111h-39zM72 700h45l96 -656l248 656h39l109 -656l236 656h43l-261 -700h-45l-107 641l-244 -641h-45z" />
    <glyph glyph-name="wacute" unicode="&#x1e83;" horiz-adv-x="658" 
d="M362 563h-36l96 152h48zM660 482l-193 -484h-47l-65 381l-5 39l-15 -39l-148 -381h-46l-90 484h40l66 -389l10 -60l22 60l150 389h35l66 -387l8 -62l23 62l150 387h39z" />
    <glyph glyph-name="Wdieresis" unicode="&#x1e84;" horiz-adv-x="862" 
d="M407 763q-15 0 -24 9.5t-9 23.5q0 18 11 28.5t26 10.5t24 -9.5t9 -23.5q0 -18 -10 -28.5t-27 -10.5zM566 763q-14 0 -23.5 9t-9.5 24q0 18 11 28.5t26 10.5q16 0 24.5 -9.5t8.5 -23.5q0 -18 -10 -28.5t-27 -10.5zM72 700h45l96 -656l248 656h39l109 -656l236 656h43
l-261 -700h-45l-107 641l-244 -641h-45z" />
    <glyph glyph-name="wdieresis" unicode="&#x1e85;" horiz-adv-x="658" 
d="M292 599q-31 0 -31 32q0 16 10 27t27 11q15 0 23.5 -9t8.5 -22q0 -17 -10 -28t-28 -11zM442 599q-14 0 -22.5 8.5t-8.5 23.5q0 16 10.5 27t27.5 11q14 0 22.5 -9t8.5 -22q0 -17 -10 -28t-28 -11zM660 482l-193 -484h-47l-65 381l-5 39l-15 -39l-148 -381h-46l-90 484h40
l66 -389l10 -60l22 60l150 389h35l66 -387l8 -62l23 62l150 387h39z" />
    <glyph glyph-name="uni1E9E" unicode="&#x1e9e;" horiz-adv-x="588" 
d="M550 605l-209 -219q57 -8 96 -25t63 -41t34.5 -54.5t10.5 -66.5q0 -48 -16.5 -86t-45.5 -64.5t-69 -40.5t-87 -14q-57 0 -100 17t-67 49l28 26q23 -29 60 -43.5t83 -14.5q38 0 70 11t55 32.5t36 52.5t13 71q0 68 -46.5 109t-161.5 53l3 33l217 228q-27 19 -68 35t-107 16
q-38 0 -71.5 -12t-59 -34.5t-41.5 -54.5t-20 -72l-52 -496h-39l53 496q5 47 25 85.5t50.5 65.5t71 42t87.5 15q76 0 125 -21t82 -47z" />
    <glyph glyph-name="uni1EA0" unicode="&#x1ea0;" horiz-adv-x="583" 
d="M501 0l-55 220h-311l-102 -220h-40l327 700h41l179 -700h-39zM438 254l-101 401l-186 -401h287zM256 -82q15 0 24 -9.5t9 -23.5q0 -17 -10.5 -28.5t-28.5 -11.5q-14 0 -23 9.5t-9 23.5q0 17 10.5 28.5t27.5 11.5z" />
    <glyph glyph-name="uni1EA1" unicode="&#x1ea1;" horiz-adv-x="505" 
d="M208 -11q-78 0 -121.5 55.5t-43.5 153.5q0 65 16 119t45 93t71 60.5t94 21.5q50 0 86 -25t52 -67l8 81h36l-42 -396q-6 -58 35 -54l-3 -31q-10 -2 -19 -2q-28 0 -41 19.5t-10 53.5l3 23q-21 -44 -63.5 -74.5t-102.5 -30.5zM218 22q26 0 51.5 9.5t46.5 27t37.5 42
t24.5 54.5l20 190q-10 51 -44 82.5t-85 31.5q-43 0 -77.5 -19t-59 -53t-37.5 -81t-13 -103q0 -85 36.5 -133t99.5 -48zM211 -155q-14 0 -23 9.5t-9 23.5q0 17 10.5 28.5t27.5 11.5q15 0 24 -9.5t9 -23.5q0 -17 -10.5 -28.5t-28.5 -11.5z" />
    <glyph glyph-name="uni1EB8" unicode="&#x1eb8;" horiz-adv-x="519" 
d="M141 700h386l-4 -36h-347l-31 -292h305l-4 -36h-305l-31 -300h347l-4 -36h-386zM265 -155q-14 0 -23 9.5t-9 23.5q0 17 10.5 28.5t27.5 11.5q15 0 24 -9.5t9 -23.5q0 -17 -10.5 -28.5t-28.5 -11.5z" />
    <glyph glyph-name="uni1EB9" unicode="&#x1eb9;" horiz-adv-x="446" 
d="M219 22q53 0 87 21t57 50l24 -21q-27 -35 -69 -59t-103 -24q-81 0 -126.5 52t-45.5 153q0 64 18.5 118.5t51 94.5t77 62.5t97.5 22.5q62 0 95.5 -31t33.5 -85t-29.5 -87t-76.5 -52t-107 -27t-121 -11q1 -89 37.5 -133t99.5 -44zM282 459q-39 0 -74 -17t-61.5 -47t-43 -72
t-20.5 -93q53 3 105.5 9.5t94.5 21.5t68.5 41.5t26.5 69.5q0 42 -25 64.5t-71 22.5zM186 -82q15 0 24 -9.5t9 -23.5q0 -17 -10.5 -28.5t-28.5 -11.5q-14 0 -23 9.5t-9 23.5q0 17 10.5 28.5t27.5 11.5z" />
    <glyph glyph-name="uni1EBC" unicode="&#x1ebc;" horiz-adv-x="519" 
d="M230 751q-5 10 -5 26q0 27 18 45t47 18q19 0 34 -8.5t28.5 -18t26.5 -18t29 -8.5q31 0 31 37q0 13 -4 18h33q4 -8 4 -24q0 -29 -17 -47t-49 -18q-20 0 -35.5 8.5t-28.5 18t-25 18t-26 8.5t-23 -9.5t-9 -25.5q0 -5 0.5 -10.5t2.5 -9.5h-32zM141 700h386l-4 -36h-347
l-31 -292h305l-4 -36h-305l-31 -300h347l-4 -36h-386z" />
    <glyph glyph-name="uni1EBD" unicode="&#x1ebd;" horiz-adv-x="446" 
d="M148 594q-5 10 -5 26q0 27 17.5 45t48.5 18q18 0 32.5 -8.5t27.5 -18.5t26.5 -18.5t29.5 -8.5q31 0 31 37q0 14 -4 19h34q3 -9 3 -24q0 -29 -16.5 -47t-46.5 -18q-21 0 -37 8.5t-28.5 18.5t-24 18.5t-25.5 8.5q-16 0 -25.5 -9.5t-9.5 -26.5q0 -5 1 -10t3 -10h-32zM219 22
q53 0 87 21t57 50l24 -21q-27 -35 -69 -59t-103 -24q-81 0 -126.5 52t-45.5 153q0 64 18.5 118.5t51 94.5t77 62.5t97.5 22.5q62 0 95.5 -31t33.5 -85t-29.5 -87t-76.5 -52t-107 -27t-121 -11q1 -89 37.5 -133t99.5 -44zM282 459q-39 0 -74 -17t-61.5 -47t-43 -72t-20.5 -93
q53 3 105.5 9.5t94.5 21.5t68.5 41.5t26.5 69.5q0 42 -25 64.5t-71 22.5z" />
    <glyph glyph-name="uni1ECA" unicode="&#x1eca;" horiz-adv-x="223" 
d="M141 700h39l-74 -700h-39zM70 -155q-14 0 -23 9.5t-9 23.5q0 17 10.5 28.5t27.5 11.5q15 0 24 -9.5t9 -23.5q0 -17 -10.5 -28.5t-28.5 -11.5z" />
    <glyph glyph-name="uni1ECB" unicode="&#x1ecb;" horiz-adv-x="195" 
d="M135 599q-14 0 -23 9t-9 24q0 17 10.5 28.5t28.5 11.5q15 0 23.5 -9.5t8.5 -23.5q0 -17 -10 -28.5t-29 -11.5zM112 -2q-28 0 -42.5 19.5t-9.5 61.5l42 403h39l-42 -398q-3 -27 4.5 -41t30.5 -14l-4 -29q-2 0 -6.5 -1t-11.5 -1zM59 -155q-14 0 -23 9.5t-9 23.5
q0 17 10.5 28.5t27.5 11.5q15 0 24 -9.5t9 -23.5q0 -17 -10.5 -28.5t-28.5 -11.5z" />
    <glyph glyph-name="uni1ECC" unicode="&#x1ecc;" horiz-adv-x="670" 
d="M323 -6q-52 0 -99.5 16t-84 51t-58 91.5t-21.5 138.5q0 114 27.5 193t72.5 128.5t102.5 71.5t117.5 22q49 0 94.5 -17t81 -53t57 -93t21.5 -137q0 -114 -26 -192.5t-69.5 -127.5t-99.5 -70.5t-116 -21.5zM327 28q51 0 99 20t85 64.5t59 116t22 174.5q0 72 -18.5 123
t-48.5 83.5t-69 47.5t-80 15q-52 0 -101.5 -20.5t-88 -65.5t-62 -116.5t-23.5 -174.5q0 -74 18.5 -125t50 -82.5t72 -45.5t85.5 -14zM294 -155q-14 0 -23 9.5t-9 23.5q0 17 10.5 28.5t27.5 11.5q15 0 24 -9.5t9 -23.5q0 -17 -10.5 -28.5t-28.5 -11.5z" />
    <glyph glyph-name="uni1ECD" unicode="&#x1ecd;" horiz-adv-x="492" 
d="M228 -11q-87 0 -135.5 54t-48.5 159q0 71 17.5 125t47.5 90.5t71 55.5t89 19q84 0 132 -54.5t48 -158.5q0 -70 -17 -124.5t-46.5 -91t-70 -55.5t-87.5 -19zM231 22q36 0 68.5 15.5t57.5 47t39.5 79t14.5 111.5q0 94 -40 139t-106 45q-36 0 -69 -15.5t-58 -47t-40 -79.5
t-15 -112q0 -93 40.5 -138t107.5 -45zM205 -155q-14 0 -23 9.5t-9 23.5q0 17 10.5 28.5t27.5 11.5q15 0 24 -9.5t9 -23.5q0 -17 -10.5 -28.5t-28.5 -11.5z" />
    <glyph glyph-name="uni1EE4" unicode="&#x1ee4;" horiz-adv-x="640" 
d="M295 -6q-52 0 -94.5 14t-70.5 47.5t-39.5 89.5t-2.5 140l44 415h39l-44 -417q-7 -72 2 -120.5t32 -78t58 -42.5t79 -13t82 12.5t67.5 42t49 78t27.5 121.5l44 417h38l-44 -415q-9 -85 -32.5 -141t-58.5 -89.5t-79.5 -47t-96.5 -13.5zM279 -155q-14 0 -23 9.5t-9 23.5
q0 17 10.5 28.5t27.5 11.5q15 0 24 -9.5t9 -23.5q0 -17 -10.5 -28.5t-28.5 -11.5z" />
    <glyph glyph-name="uni1EE5" unicode="&#x1ee5;" horiz-adv-x="493" 
d="M192 -11q-67 0 -104.5 38.5t-27.5 126.5l35 328h38l-35 -324q-7 -75 23 -105.5t83 -30.5q36 0 66 17t51.5 42t34 55t15.5 55l30 291h38l-42 -396q-4 -35 4.5 -46t30.5 -11l-3 -29q-3 0 -7.5 -1t-11.5 -1q-59 0 -50 73l5 39q-12 -24 -28 -46t-37 -38.5t-48 -26.5t-60 -10z
M205 -155q-14 0 -23 9.5t-9 23.5q0 17 10.5 28.5t27.5 11.5q15 0 24 -9.5t9 -23.5q0 -17 -10.5 -28.5t-28.5 -11.5z" />
    <glyph glyph-name="Ygrave" unicode="&#x1ef2;" horiz-adv-x="547" 
d="M245 854h53l65 -111h-38zM260 295l-187 405h46l165 -365l243 365h45l-272 -405l-31 -295h-40z" />
    <glyph glyph-name="ygrave" unicode="&#x1ef3;" horiz-adv-x="487" 
d="M185 715h46l65 -152h-35zM185 -247q-71 0 -109.5 26t-53.5 71l32 17q14 -35 45 -57.5t91 -22.5q66 0 106.5 39t47.5 108l20 182q-20 -57 -65.5 -90.5t-102.5 -33.5q-153 0 -136 167l34 323h38l-33 -320q-15 -137 109 -137q31 0 59 14t50 38t36 57t18 70l30 278h38
l-59 -554q-10 -81 -61.5 -128t-133.5 -47z" />
    <glyph glyph-name="uni1EF8" unicode="&#x1ef8;" horiz-adv-x="547" 
d="M212 751q-5 10 -5 26q0 27 18 45t47 18q19 0 34 -8.5t28.5 -18t26.5 -18t29 -8.5q31 0 31 37q0 13 -4 18h33q4 -8 4 -24q0 -29 -17 -47t-49 -18q-20 0 -35.5 8.5t-28.5 18t-25 18t-26 8.5t-23 -9.5t-9 -25.5q0 -5 0.5 -10.5t2.5 -9.5h-32zM260 295l-187 405h46l165 -365
l243 365h45l-272 -405l-31 -295h-40z" />
    <glyph glyph-name="uni1EF9" unicode="&#x1ef9;" horiz-adv-x="487" 
d="M165 594q-5 10 -5 26q0 27 17.5 45t48.5 18q18 0 32.5 -8.5t27.5 -18.5t26.5 -18.5t29.5 -8.5q31 0 31 37q0 14 -4 19h34q3 -9 3 -24q0 -29 -16.5 -47t-46.5 -18q-21 0 -37 8.5t-28.5 18.5t-24 18.5t-25.5 8.5q-16 0 -25.5 -9.5t-9.5 -26.5q0 -5 1 -10t3 -10h-32z
M185 -247q-71 0 -109.5 26t-53.5 71l32 17q14 -35 45 -57.5t91 -22.5q66 0 106.5 39t47.5 108l20 182q-20 -57 -65.5 -90.5t-102.5 -33.5q-153 0 -136 167l34 323h38l-33 -320q-15 -137 109 -137q31 0 59 14t50 38t36 57t18 70l30 278h38l-59 -554q-10 -81 -61.5 -128
t-133.5 -47z" />
    <glyph glyph-name="endash" unicode="&#x2013;" horiz-adv-x="501" 
d="M69 290h375l-4 -32h-375z" />
    <glyph glyph-name="emdash" unicode="&#x2014;" horiz-adv-x="840" 
d="M69 290h713l-3 -32h-714z" />
    <glyph glyph-name="quoteleft" unicode="&#x2018;" horiz-adv-x="175" 
d="M169 692q-18 -8 -30 -23t-14 -36q16 0 25 -9t9 -23q0 -18 -11 -29t-26 -11q-35 0 -35 40q0 36 18 67t53 45z" />
    <glyph glyph-name="quoteright" unicode="&#x2019;" horiz-adv-x="167" 
d="M81 573q18 8 30 23t14 36q-16 0 -25 9t-9 23q0 18 11 29t26 11q16 0 25.5 -10t9.5 -30q0 -36 -18 -67.5t-53 -45.5z" />
    <glyph glyph-name="quotesinglbase" unicode="&#x201a;" horiz-adv-x="181" 
d="M29 -66q17 8 29.5 22.5t14.5 36.5q-17 0 -26 9t-9 23q0 17 11 28.5t26 11.5q35 0 35 -40q0 -36 -18 -67.5t-53 -45.5z" />
    <glyph glyph-name="quotedblleft" unicode="&#x201c;" horiz-adv-x="281" 
d="M163 692q-18 -8 -30 -23t-14 -36q17 0 26 -9t9 -23q0 -18 -11 -29t-27 -11q-34 0 -34 40q0 36 18 67t53 45zM269 692q-18 -8 -30 -23t-14 -36q16 0 25 -9t9 -23q0 -18 -11 -29t-26 -11q-35 0 -35 40q0 36 18 67t53 45z" />
    <glyph glyph-name="quotedblright" unicode="&#x201d;" horiz-adv-x="280" 
d="M81 573q18 8 30 23t14 36q-16 0 -25 9t-9 23q0 18 11 29t26 11q16 0 25.5 -10t9.5 -30q0 -36 -18 -67.5t-53 -45.5zM187 573q18 8 30 23t14 36q-17 0 -26 9t-9 23q0 18 11 29t27 11q34 0 34 -40q0 -36 -18 -67.5t-53 -45.5z" />
    <glyph glyph-name="quotedblbase" unicode="&#x201e;" horiz-adv-x="286" 
d="M39 -66q17 8 29.5 22.5t14.5 36.5q-17 0 -26 9t-9 23q0 17 11 28.5t26 11.5q35 0 35 -40q0 -36 -18 -67.5t-53 -45.5zM144 -66q18 8 30 22.5t14 36.5q-16 0 -25 9t-9 23q0 17 11 28.5t26 11.5q16 0 25.5 -10.5t9.5 -29.5q0 -36 -18 -67.5t-53 -45.5z" />
    <glyph glyph-name="dagger" unicode="&#x2020;" horiz-adv-x="363" 
d="M191 513h-120l4 31h119l17 161h38l-17 -161h120l-3 -31h-120l-47 -398h-27z" />
    <glyph glyph-name="daggerdbl" unicode="&#x2021;" horiz-adv-x="363" 
d="M172 313h-114l4 31h113l16 169h-120l4 31h119l17 161h38l-17 -161h120l-3 -31h-120l-19 -169h113l-3 -31h-114l-24 -198h-27z" />
    <glyph glyph-name="bullet" unicode="&#x2022;" horiz-adv-x="298" 
d="M150 220q-29 0 -46.5 17.5t-17.5 46.5q0 32 20.5 53t52.5 21q28 0 45.5 -17.5t17.5 -46.5q0 -32 -20 -53t-52 -21z" />
    <glyph glyph-name="ellipsis" unicode="&#x2026;" horiz-adv-x="448" 
d="M61 -6q-14 0 -22.5 8.5t-8.5 22.5q0 16 9.5 26t24.5 10q14 0 22.5 -8.5t8.5 -22.5q0 -17 -9 -26.5t-25 -9.5zM201 -6q-31 0 -31 31q0 16 9.5 26t24.5 10q13 0 22 -8.5t9 -22.5q0 -17 -9.5 -26.5t-24.5 -9.5zM340 -6q-31 0 -31 31q0 16 9.5 26t24.5 10q13 0 22 -8.5
t9 -22.5q0 -17 -9.5 -26.5t-24.5 -9.5z" />
    <glyph glyph-name="perthousand" unicode="&#x2030;" horiz-adv-x="796" 
d="M145 423q-39 0 -61.5 28.5t-22.5 86.5q0 85 31 125t82 40q40 0 62 -28.5t22 -86.5q0 -85 -31 -125t-82 -40zM406 700h32l-275 -700h-33zM147 449q23 0 38 10.5t25 29.5t14 44t4 53q0 41 -13 65.5t-44 24.5q-22 0 -37.5 -10.5t-25 -29t-13.5 -44t-4 -54.5q0 -40 13 -64.5
t43 -24.5zM396 -3q-38 0 -60.5 28.5t-22.5 86.5q0 85 30.5 125t81.5 40q40 0 62.5 -28.5t22.5 -86.5q0 -85 -31.5 -125t-82.5 -40zM647 -3q-39 0 -61.5 28.5t-22.5 86.5q0 85 31 125t82 40q39 0 61.5 -28.5t22.5 -86.5q0 -85 -31 -125t-82 -40zM399 23q44 0 62.5 39.5
t18.5 97.5q0 41 -13.5 65.5t-43.5 24.5q-44 0 -62.5 -39t-18.5 -98q0 -40 13.5 -65t43.5 -25zM649 23q22 0 37.5 10.5t25 29t14 43.5t4.5 54q0 41 -13.5 65.5t-43.5 24.5q-43 0 -62 -39.5t-19 -97.5q0 -41 14 -65.5t43 -24.5z" />
    <glyph glyph-name="guilsinglleft" unicode="&#x2039;" horiz-adv-x="255" 
d="M39 239l4 35l153 145l20 -25l-143 -138l114 -137l-25 -25z" />
    <glyph glyph-name="guilsinglright" unicode="&#x203a;" horiz-adv-x="255" 
d="M43 119l143 138l-114 136l25 26l123 -145l-4 -35l-153 -145z" />
    <glyph glyph-name="fraction" unicode="&#x2044;" horiz-adv-x="68" 
d="M140 726h35l-287 -726h-34z" />
    <glyph glyph-name="Euro" unicode="&#x20ac;" horiz-adv-x="589" 
d="M423 691q63 0 103 -19.5t63 -47.5l-33 -24q-20 23 -53 39t-84 16q-90 0 -155 -62t-88 -177h270l-4 -35h-272q-6 -40 -6 -87h269l-4 -36h-264q8 -108 62 -163.5t139 -55.5q52 0 89.5 20t62.5 41l22 -26q-27 -25 -70 -47.5t-109 -22.5q-103 0 -166.5 64.5t-71.5 189.5h-87
l3 36h83q0 45 6 87h-79l4 35h81q12 63 37.5 113.5t62 86.5t84.5 55.5t105 19.5z" />
    <glyph glyph-name="trademark" unicode="&#x2122;" horiz-adv-x="703" 
d="M192 675h-120l3 28h273l-4 -28h-119l-34 -328h-33zM375 703h41l84 -264l138 264h39l-37 -356h-30l32 307l-134 -252h-26l-81 255l-33 -310h-30z" />
    <glyph glyph-name="minus" unicode="&#x2212;" horiz-adv-x="450" 
d="M70 276h318l-4 -33h-318z" />
    <glyph glyph-name="uni2215" unicode="&#x2215;" horiz-adv-x="340" 
d="M355 726h39l-381 -726h-39z" />
    <glyph glyph-name="uni2219" unicode="&#x2219;" horiz-adv-x="264" 
d="M133 246q-25 0 -25 25q0 14 9 22.5t22 8.5q11 0 18 -7.5t7 -18.5q0 -13 -9 -21.5t-22 -8.5z" />
    <glyph glyph-name="approxequal" unicode="&#x2248;" horiz-adv-x="474" 
d="M78 268q-2 5 -3 10q-1 6 -2 12.5t-1 15.5q0 38 23.5 64t67.5 26q27 0 48.5 -10t41.5 -22t40.5 -22t44.5 -10q26 0 40.5 15t14.5 42q0 12 -2 23l-2 8h32q1 -4 3 -10q1 -5 1.5 -11t0.5 -14q0 -35 -21.5 -61.5t-66.5 -25.5q-30 0 -53 9.5t-43 21.5t-38 21.5t-39 9.5
q-31 0 -45.5 -15t-14.5 -38q0 -9 1 -16t2 -12q1 -6 3 -11h-33zM59 95q-2 5 -3 10q-1 6 -2 12.5t-1 15.5q0 38 23.5 63.5t67.5 25.5q26 0 47.5 -10t42 -21.5t41 -21.5t44.5 -10q26 0 40.5 15t14.5 41q0 13 -2 23q-1 5 -2 8h32q1 -4 3 -9q1 -5 1.5 -11t0.5 -14
q0 -35 -21.5 -62t-66.5 -26q-30 0 -53 10t-43 21.5t-38 21t-39 9.5q-31 0 -45.5 -15t-14.5 -38q0 -9 1 -16t2 -12t3 -10h-33z" />
    <glyph glyph-name="notequal" unicode="&#x2260;" horiz-adv-x="475" 
d="M179 151h-122l3 33h132l61 152h-177l4 33h186l42 104h36l-41 -104h120l-4 -33h-130l-60 -152h174l-3 -33h-185l-40 -101h-37z" />
    <glyph glyph-name="lessequal" unicode="&#x2264;" horiz-adv-x="399" 
d="M60 288l3 34l306 201l-4 -38l-266 -180l228 -179l-4 -38zM15 25h320l-3 -33h-321z" />
    <glyph glyph-name="greaterequal" unicode="&#x2265;" horiz-adv-x="399" 
d="M48 126l266 179l-229 179l5 40l263 -200l-4 -38l-305 -200zM19 24h320l-3 -32h-321z" />
    <glyph glyph-name="uniF8FF" unicode="&#xf8ff;" horiz-adv-x="1493" 
d="M794 522q-26 0 -43.5 17.5t-17.5 43.5t17.5 44t43.5 18t44 -18t18 -44t-18 -43.5t-44 -17.5zM142 270q0 57 1 108t2.5 91.5t3 70t2.5 44.5h100q2 -30 6 -114t4 -200h-119zM646 264q-82 0 -82 66q0 8 0.5 21.5t1.5 27.5t1.5 25t0.5 13h-22v79l119 30l1 -17h178
q3 -17 4.5 -45t3 -61t2 -68t0.5 -65h-118q0 92 3 147h-61l3 -65q4 -4 15 -4q5 0 10 1t8 4v-74q-8 -8 -27 -11.5t-41 -3.5zM370 265q-43 0 -67.5 27.5t-24.5 86.5q0 64 32.5 99.5t101.5 35.5q64 0 94 -30.5t30 -86.5v-127h-83l-8 61q-6 -31 -22.5 -48.5t-52.5 -17.5zM876 270
q0 30 0.5 65t2 68t3 61t4.5 45h80q2 -17 4 -39t2 -37q1 6 4 19.5t12 27t24 24t40 10.5q45 0 60 -26t17 -80l3 -138h-114q0 35 1 56.5t1 36.5t-2.5 22t-12.5 7q-12 0 -15 -8t-3 -21q0 -15 1.5 -36.5t1.5 -56.5h-114zM1270 265q-64 0 -93 33.5t-29 90.5q0 24 5.5 46.5t19.5 40
t38 28t61 10.5q36 0 59.5 -10.5t37 -27.5t19 -39t5.5 -46q0 -60 -29.5 -93t-93.5 -33zM408 345q24 0 24 30q0 26 -24 26q-22 0 -22 -26q0 -30 22 -30zM1270 345q23 0 23 30q0 26 -23 26q-21 0 -21 -26q0 -30 21 -30zM432 -50q-45 0 -63.5 6.5t-24.5 10.5v83q5 -3 21.5 -9.5
t48.5 -6.5q17 0 27.5 3.5t16.5 8t8 9.5t2 7q-5 -3 -15.5 -7t-33.5 -4q-90 0 -90 83v13h-55l3 -65q2 -2 5.5 -3t9.5 -1q8 0 12 1.5t6 3.5v-73q-4 -3 -17 -9t-51 -6q-46 0 -63.5 17.5t-17.5 53.5q0 6 0.5 17t1 23.5t1 24t0.5 16.5h-18v80l117 29l-1 -18h177v-119
q0 -16 3 -21.5t12 -5.5t12.5 6t3.5 21v119h104q2 -8 3.5 -23t3 -34t2.5 -40t1 -41q0 -79 -33 -114.5t-119 -35.5zM600 -44q0 128 4.5 194.5t5.5 87.5h78q1 -4 2 -14t2 -21.5t2 -22.5t1 -18q1 5 5 18.5t12.5 27.5t23.5 24.5t39 10.5q37 0 58.5 -28.5t21.5 -84.5
q0 -135 -137 -135q1 -11 1 -22.5v-16.5h-119zM1012 -5q-72 0 -106.5 31t-34.5 91q0 59 32.5 92.5t92.5 33.5q55 0 85.5 -29.5t30.5 -86.5q0 -8 -0.5 -18t-2.5 -17h-124q4 -6 15.5 -12t34.5 -6q14 0 29 3t26 9v-75q-8 -5 -27 -10.5t-51 -5.5zM1020 109q3 27 -17 27
q-23 0 -23 -27h40zM712 72q3 0 9 1.5t12 5.5t11 11t5 19q0 23 -20 23q-22 0 -22 -31q0 -12 2 -19.5t3 -9.5zM1140 -10q-11 0 -17.5 6t-6.5 17t6.5 17t17.5 6t17.5 -6t6.5 -17t-6.5 -17t-17.5 -6zM1140 -5q18 0 18 18t-18 18t-18 -18t18 -18zM1130 25h11q10 0 10 -7t-7 -7
l6 -9h-6l-4 9h-5v-9h-5v23zM1142 15q4 0 4 3t-4 3h-7v-6h7z" />
    <glyph glyph-name="Euro.osf" horiz-adv-x="491" 
d="M334 455q-64 0 -110 -37t-66 -110h195l-3 -29h-198q-2 -16 -3.5 -32.5t-1.5 -34.5v-7h195l-3 -30h-190q9 -68 48 -102.5t100 -34.5q38 0 69.5 13.5t51.5 29.5l21 -26q-22 -20 -59.5 -36.5t-88.5 -16.5q-78 0 -126.5 45t-56.5 128h-76l4 30h70v5q0 18 1.5 35t3.5 34h-68
l4 29h70q22 89 80.5 136t138.5 47q52 0 84.5 -14t51.5 -37l-32 -24q-14 17 -40 28t-66 11z" />
    <glyph glyph-name="Euro.sc" horiz-adv-x="485" 
d="M327 455q-66 0 -114 -41t-67 -115h202l-2 -29h-206q-2 -14 -3 -28.5t-1 -30.5v-1h203l-3 -30h-198q7 -70 46.5 -106t103.5 -36q38 0 69.5 13.5t50.5 29.5l20 -26q-20 -20 -57 -36.5t-88 -16.5q-80 0 -129.5 46t-57.5 132h-67l3 30h63q0 16 1 31t3 29h-60l2 29h64
q21 90 80.5 141t143.5 51q49 0 82 -14.5t52 -36.5l-32 -24q-16 17 -41 28t-63 11z" />
    <glyph glyph-name="IJacute" horiz-adv-x="673" 
d="M223 854h54l-105 -111h-39zM654 854h54l-104 -111h-39zM141 700h39l-74 -700h-39zM381 -6q-31 0 -55.5 6.5t-42.5 18t-31.5 25.5t-23.5 29l31 25q17 -26 45.5 -47.5t76.5 -21.5q69 0 102.5 42t41.5 121l53 508h40l-54 -509q-10 -96 -52 -146.5t-131 -50.5z" />
    <glyph glyph-name="a.sc" horiz-adv-x="488" 
d="M357 149h-244l-76 -149h-40l254 497h41l150 -497h-41zM347 182l-80 272l-138 -272h218z" />
    <glyph glyph-name="a.ss01" horiz-adv-x="462" 
d="M373 87q-4 -36 4 -46.5t31 -10.5l-4 -29q-5 -1 -9.5 -1.5t-8.5 -0.5q-29 0 -42 18t-8 58l4 42q-30 -59 -79 -92t-112 -33q-58 0 -91 28.5t-33 79.5q0 64 46.5 101t131.5 37h148l9 88q14 132 -113 132q-65 0 -101.5 -31.5t-36.5 -86.5q0 -22 5 -37h-35q-2 7 -4 17.5
t-2 23.5q0 33 13 60t37 46.5t57 30.5t72 11q163 0 146 -167zM348 208l-145 -1q-69 0 -103.5 -27.5t-34.5 -75.5q0 -38 25 -59t67 -21q63 0 111 41t76 108z" />
    <glyph glyph-name="aacute.sc" horiz-adv-x="488" 
d="M278 578h-36l96 152h48zM357 149h-244l-76 -149h-40l254 497h41l150 -497h-41zM347 182l-80 272l-138 -272h218z" />
    <glyph glyph-name="aacute.ss01" horiz-adv-x="462" 
d="M262 563h-36l96 152h48zM373 87q-4 -36 4 -46.5t31 -10.5l-4 -29q-5 -1 -9.5 -1.5t-8.5 -0.5q-29 0 -42 18t-8 58l4 42q-30 -59 -79 -92t-112 -33q-58 0 -91 28.5t-33 79.5q0 64 46.5 101t131.5 37h148l9 88q14 132 -113 132q-65 0 -101.5 -31.5t-36.5 -86.5q0 -22 5 -37
h-35q-2 7 -4 17.5t-2 23.5q0 33 13 60t37 46.5t57 30.5t72 11q163 0 146 -167zM348 208l-145 -1q-69 0 -103.5 -27.5t-34.5 -75.5q0 -38 25 -59t67 -21q63 0 111 41t76 108z" />
    <glyph glyph-name="abreve.sc" horiz-adv-x="488" 
d="M281 590q-50 0 -72 29.5t-16 86.5h33q-4 -44 11 -63t47 -19q67 -2 76 82h33q-6 -56 -35 -86t-77 -30zM357 149h-244l-76 -149h-40l254 497h41l150 -497h-41zM347 182l-80 272l-138 -272h218z" />
    <glyph glyph-name="abreve.ss01" horiz-adv-x="462" 
d="M265 575q-50 0 -72 29.5t-16 86.5h33q-4 -44 11 -63t47 -19q67 -2 76 82h33q-6 -56 -35 -86t-77 -30zM373 87q-4 -36 4 -46.5t31 -10.5l-4 -29q-5 -1 -9.5 -1.5t-8.5 -0.5q-29 0 -42 18t-8 58l4 42q-30 -59 -79 -92t-112 -33q-58 0 -91 28.5t-33 79.5q0 64 46.5 101
t131.5 37h148l9 88q14 132 -113 132q-65 0 -101.5 -31.5t-36.5 -86.5q0 -22 5 -37h-35q-2 7 -4 17.5t-2 23.5q0 33 13 60t37 46.5t57 30.5t72 11q163 0 146 -167zM348 208l-145 -1q-69 0 -103.5 -27.5t-34.5 -75.5q0 -38 25 -59t67 -21q63 0 111 41t76 108z" />
    <glyph glyph-name="acircumflex.sc" horiz-adv-x="488" 
d="M209 578h-37l100 152h42l68 -152h-37l-55 121zM357 149h-244l-76 -149h-40l254 497h41l150 -497h-41zM347 182l-80 272l-138 -272h218z" />
    <glyph glyph-name="acircumflex.ss01" horiz-adv-x="462" 
d="M194 563h-37l100 152h42l68 -152h-37l-55 121zM373 87q-4 -36 4 -46.5t31 -10.5l-4 -29q-5 -1 -9.5 -1.5t-8.5 -0.5q-29 0 -42 18t-8 58l4 42q-30 -59 -79 -92t-112 -33q-58 0 -91 28.5t-33 79.5q0 64 46.5 101t131.5 37h148l9 88q14 132 -113 132q-65 0 -101.5 -31.5
t-36.5 -86.5q0 -22 5 -37h-35q-2 7 -4 17.5t-2 23.5q0 33 13 60t37 46.5t57 30.5t72 11q163 0 146 -167zM348 208l-145 -1q-69 0 -103.5 -27.5t-34.5 -75.5q0 -38 25 -59t67 -21q63 0 111 41t76 108z" />
    <glyph glyph-name="acute.case" horiz-adv-x="230" 
d="M197 854h53l-104 -111h-39z" />
    <glyph glyph-name="acutecomb.case" 
d="M-33 854h53l-104 -111h-39z" />
    <glyph glyph-name="adieresis.sc" horiz-adv-x="488" 
d="M208 614q-31 0 -31 32q0 16 10 27t27 11q15 0 23.5 -9t8.5 -22q0 -17 -10 -28t-28 -11zM358 614q-14 0 -22.5 8.5t-8.5 23.5q0 16 10.5 27t27.5 11q14 0 22.5 -9t8.5 -22q0 -17 -10 -28t-28 -11zM357 149h-244l-76 -149h-40l254 497h41l150 -497h-41zM347 182l-80 272
l-138 -272h218z" />
    <glyph glyph-name="adieresis.ss01" horiz-adv-x="462" 
d="M193 599q-31 0 -31 32q0 16 10 27t27 11q15 0 23.5 -9t8.5 -22q0 -17 -10 -28t-28 -11zM343 599q-14 0 -22.5 8.5t-8.5 23.5q0 16 10.5 27t27.5 11q14 0 22.5 -9t8.5 -22q0 -17 -10 -28t-28 -11zM373 87q-4 -36 4 -46.5t31 -10.5l-4 -29q-5 -1 -9.5 -1.5t-8.5 -0.5
q-29 0 -42 18t-8 58l4 42q-30 -59 -79 -92t-112 -33q-58 0 -91 28.5t-33 79.5q0 64 46.5 101t131.5 37h148l9 88q14 132 -113 132q-65 0 -101.5 -31.5t-36.5 -86.5q0 -22 5 -37h-35q-2 7 -4 17.5t-2 23.5q0 33 13 60t37 46.5t57 30.5t72 11q163 0 146 -167zM348 208l-145 -1
q-69 0 -103.5 -27.5t-34.5 -75.5q0 -38 25 -59t67 -21q63 0 111 41t76 108z" />
    <glyph glyph-name="ae.sc" horiz-adv-x="626" 
d="M253 497h359l-3 -34h-306l57 -193h186l-4 -34h-172l61 -202h133l-4 -34h-158l-44 150h-245l-76 -150h-40zM349 182l-81 272l-140 -272h221z" />
    <glyph glyph-name="aeacute.sc" horiz-adv-x="626" 
d="M433 730h48l-108 -152h-36zM253 497h359l-3 -34h-306l57 -193h186l-4 -34h-172l61 -202h133l-4 -34h-158l-44 150h-245l-76 -150h-40zM349 182l-81 272l-140 -272h221z" />
    <glyph glyph-name="agrave.sc" horiz-adv-x="488" 
d="M264 578l-76 152h46l65 -152h-35zM357 149h-244l-76 -149h-40l254 497h41l150 -497h-41zM347 182l-80 272l-138 -272h218z" />
    <glyph glyph-name="agrave.ss01" horiz-adv-x="462" 
d="M248 563l-76 152h46l65 -152h-35zM373 87q-4 -36 4 -46.5t31 -10.5l-4 -29q-5 -1 -9.5 -1.5t-8.5 -0.5q-29 0 -42 18t-8 58l4 42q-30 -59 -79 -92t-112 -33q-58 0 -91 28.5t-33 79.5q0 64 46.5 101t131.5 37h148l9 88q14 132 -113 132q-65 0 -101.5 -31.5t-36.5 -86.5
q0 -22 5 -37h-35q-2 7 -4 17.5t-2 23.5q0 33 13 60t37 46.5t57 30.5t72 11q163 0 146 -167zM348 208l-145 -1q-69 0 -103.5 -27.5t-34.5 -75.5q0 -38 25 -59t67 -21q63 0 111 41t76 108z" />
    <glyph glyph-name="amacron.sc" horiz-adv-x="488" 
d="M395 636h-220l4 33h219zM357 149h-244l-76 -149h-40l254 497h41l150 -497h-41zM347 182l-80 272l-138 -272h218z" />
    <glyph glyph-name="amacron.ss01" horiz-adv-x="462" 
d="M380 621h-220l4 33h219zM373 87q-4 -36 4 -46.5t31 -10.5l-4 -29q-5 -1 -9.5 -1.5t-8.5 -0.5q-29 0 -42 18t-8 58l4 42q-30 -59 -79 -92t-112 -33q-58 0 -91 28.5t-33 79.5q0 64 46.5 101t131.5 37h148l9 88q14 132 -113 132q-65 0 -101.5 -31.5t-36.5 -86.5q0 -22 5 -37
h-35q-2 7 -4 17.5t-2 23.5q0 33 13 60t37 46.5t57 30.5t72 11q163 0 146 -167zM348 208l-145 -1q-69 0 -103.5 -27.5t-34.5 -75.5q0 -38 25 -59t67 -21q63 0 111 41t76 108z" />
    <glyph glyph-name="ampersand.sc" horiz-adv-x="523" 
d="M465 -3q-25 12 -47.5 24t-42.5 25q-63 -57 -167 -57q-85 0 -128 39.5t-43 101.5q0 57 29.5 98.5t76.5 62.5q-6 18 -9.5 36t-3.5 38q0 76 43.5 115.5t117.5 39.5q58 0 91 -25.5t33 -73.5q0 -21 -5 -39.5t-12 -29.5h-33q6 13 10.5 29t4.5 32q0 37 -25 56t-68 19
q-55 0 -88 -29.5t-33 -90.5q0 -48 21 -89t63 -86q23 -25 53 -51.5t68 -52.5q39 51 48 140h34q-11 -98 -56 -157q36 -23 82 -46zM215 20q84 0 133 43q-37 26 -67 52t-55 53q-23 26 -41 50t-31 49q-36 -20 -58 -54t-22 -78q0 -49 36 -82t105 -33z" />
    <glyph glyph-name="aogonek.sc" horiz-adv-x="488" 
d="M393 -138q12 0 20 3.5t16 9.5l13 -22q-9 -8 -23.5 -14.5t-33.5 -6.5q-32 0 -50 16.5t-18 48.5t22 61.5t60 48.5l-42 142h-244l-76 -149h-40l254 497h41l150 -497h-1q-38 -10 -63 -36.5t-25 -57.5q0 -44 40 -44zM347 182l-80 272l-138 -272h218z" />
    <glyph glyph-name="aogonek.ss01" horiz-adv-x="462" 
d="M356 -137q12 0 20 3.5t16 9.5l13 -22q-9 -8 -23.5 -14.5t-33.5 -6.5q-32 0 -50 16.5t-18 48.5t20.5 60.5t56.5 47.5q-27 15 -21 69l4 42q-30 -59 -79 -92t-112 -33q-58 0 -91 28.5t-33 79.5q0 64 46.5 101t131.5 37h148l9 88q14 132 -113 132q-65 0 -101.5 -31.5
t-36.5 -86.5q0 -22 5 -37h-35q-2 7 -4 17.5t-2 23.5q0 33 13 60t37 46.5t57 30.5t72 11q163 0 146 -167l-25 -238q-4 -36 4 -46.5t31 -10.5l-4 -29q-38 -10 -63 -36.5t-25 -57.5q0 -44 40 -44zM348 208l-145 -1q-69 0 -103.5 -27.5t-34.5 -75.5q0 -38 25 -59t67 -21
q63 0 111 41t76 108z" />
    <glyph glyph-name="aring.sc" horiz-adv-x="488" 
d="M278 547q-38 0 -60 23.5t-22 59.5q0 44 28 73.5t71 29.5q36 0 58.5 -24t22.5 -60q0 -45 -28.5 -73.5t-69.5 -28.5zM292 702q-29 0 -46.5 -19.5t-17.5 -50.5q0 -25 13.5 -40t39.5 -15q29 0 46 19t17 51q0 25 -13.5 40t-38.5 15zM357 149h-244l-76 -149h-40l254 497h41
l150 -497h-41zM347 182l-80 272l-138 -272h218z" />
    <glyph glyph-name="aring.ss01" horiz-adv-x="462" 
d="M262 532q-38 0 -60 23.5t-22 59.5q0 44 28 73.5t71 29.5q36 0 58.5 -24t22.5 -60q0 -45 -28.5 -73.5t-69.5 -28.5zM276 687q-29 0 -46.5 -19.5t-17.5 -50.5q0 -25 13.5 -40t39.5 -15q29 0 46 19t17 51q0 25 -13.5 40t-38.5 15zM373 87q-4 -36 4 -46.5t31 -10.5l-4 -29
q-5 -1 -9.5 -1.5t-8.5 -0.5q-29 0 -42 18t-8 58l4 42q-30 -59 -79 -92t-112 -33q-58 0 -91 28.5t-33 79.5q0 64 46.5 101t131.5 37h148l9 88q14 132 -113 132q-65 0 -101.5 -31.5t-36.5 -86.5q0 -22 5 -37h-35q-2 7 -4 17.5t-2 23.5q0 33 13 60t37 46.5t57 30.5t72 11
q163 0 146 -167zM348 208l-145 -1q-69 0 -103.5 -27.5t-34.5 -75.5q0 -38 25 -59t67 -21q63 0 111 41t76 108z" />
    <glyph glyph-name="aringacute.sc" horiz-adv-x="505" 
d="M357 149h-244l-76 -149h-40l249 488q-23 9 -35.5 29.5t-12.5 47.5q0 42 26 70.5t66 31.5l80 99h53l-97 -104q25 -8 39 -28.5t14 -49.5q0 -40 -23.5 -68t-59.5 -34l146 -482h-41zM230 567q0 -25 13.5 -40t39.5 -15q29 0 46.5 19t17.5 51q0 25 -13.5 40t-38.5 15
q-30 0 -47.5 -19.5t-17.5 -50.5zM347 182l-80 272l-138 -272h218z" />
    <glyph glyph-name="aringacute.ss01" horiz-adv-x="462" 
d="M262 532q-38 0 -60 23.5t-22 59.5q0 44 28 73.5t71 29.5h4l80 126h49l-97 -134q21 -10 33 -30t12 -46q0 -45 -28.5 -73.5t-69.5 -28.5zM276 687q-29 0 -46.5 -19.5t-17.5 -50.5q0 -25 13.5 -40t39.5 -15q29 0 46 19t17 51q0 25 -13.5 40t-38.5 15zM373 87q-4 -36 4 -46.5
t31 -10.5l-4 -29q-5 -1 -9.5 -1.5t-8.5 -0.5q-29 0 -42 18t-8 58l4 42q-30 -59 -79 -92t-112 -33q-58 0 -91 28.5t-33 79.5q0 64 46.5 101t131.5 37h148l9 88q14 132 -113 132q-65 0 -101.5 -31.5t-36.5 -86.5q0 -22 5 -37h-35q-2 7 -4 17.5t-2 23.5q0 33 13 60t37 46.5
t57 30.5t72 11q163 0 146 -167zM348 208l-145 -1q-69 0 -103.5 -27.5t-34.5 -75.5q0 -38 25 -59t67 -21q63 0 111 41t76 108z" />
    <glyph glyph-name="atilde.sc" horiz-adv-x="488" 
d="M160 548q-5 10 -5 26q0 27 18 45t47 18q19 0 34 -8.5t28.5 -18t26.5 -18t29 -8.5q31 0 31 37q0 13 -4 18h33q4 -8 4 -24q0 -29 -17 -47t-49 -18q-20 0 -35.5 8.5t-28.5 18t-25 18t-26 8.5t-23 -9.5t-9 -25.5q0 -5 0.5 -10.5t2.5 -9.5h-32zM357 149h-244l-76 -149h-40
l254 497h41l150 -497h-41zM347 182l-80 272l-138 -272h218z" />
    <glyph glyph-name="atilde.ss01" horiz-adv-x="462" 
d="M152 594q-5 10 -5 26q0 27 17.5 45t48.5 18q18 0 32.5 -8.5t27.5 -18.5t26.5 -18.5t29.5 -8.5q31 0 31 37q0 14 -4 19h34q3 -9 3 -24q0 -29 -16.5 -47t-46.5 -18q-21 0 -37 8.5t-28.5 18.5t-24 18.5t-25.5 8.5q-16 0 -25.5 -9.5t-9.5 -26.5q0 -5 1 -10t3 -10h-32zM373 87
q-4 -36 4 -46.5t31 -10.5l-4 -29q-5 -1 -9.5 -1.5t-8.5 -0.5q-29 0 -42 18t-8 58l4 42q-30 -59 -79 -92t-112 -33q-58 0 -91 28.5t-33 79.5q0 64 46.5 101t131.5 37h148l9 88q14 132 -113 132q-65 0 -101.5 -31.5t-36.5 -86.5q0 -22 5 -37h-35q-2 7 -4 17.5t-2 23.5
q0 33 13 60t37 46.5t57 30.5t72 11q163 0 146 -167zM348 208l-145 -1q-69 0 -103.5 -27.5t-34.5 -75.5q0 -38 25 -59t67 -21q63 0 111 41t76 108z" />
    <glyph glyph-name="b.sc" horiz-adv-x="485" 
d="M108 497h173q146 0 146 -112q0 -33 -11.5 -56t-27 -37t-32.5 -21.5t-29 -9.5v-1q14 -1 31.5 -6.5t34 -18.5t27.5 -33.5t11 -52.5q0 -41 -15 -69.5t-41.5 -46t-61 -25.5t-73.5 -8h-184zM266 270q33 0 56 9t37.5 24t21 35t6.5 42q0 38 -24.5 61.5t-83.5 23.5h-135l-21 -195
h143zM242 32q30 0 57 5t47.5 18.5t33 36t12.5 56.5q0 50 -33 70.5t-87 20.5h-152l-22 -207h144z" />
    <glyph glyph-name="braceleft.sc" horiz-adv-x="239" 
d="M166 -86q-21 -4 -40.5 -0.5t-33.5 15.5t-21 32.5t-4 52.5l19 174q2 26 -12 36.5t-31 10.5h-8l3 31h8q17 0 33 11t19 37l19 173q3 32 15 53t28.5 33t36.5 15t40 0l-4 -33q-35 7 -56.5 -12t-26.5 -60l-18 -176q-1 -16 -6.5 -26.5t-12.5 -16.5t-13.5 -9t-10.5 -4
q3 -1 9 -4.5t11 -10t9 -17t2 -25.5l-19 -175q-5 -42 13.5 -61t54.5 -12z" />
    <glyph glyph-name="braceright.sc" horiz-adv-x="250" 
d="M84 588q21 4 40.5 0.5t33.5 -15.5t21 -32.5t4 -52.5l-19 -174q-2 -26 12 -37t30 -11h8l-2 -30h-8q-17 0 -33.5 -11t-19.5 -37l-18 -174q-3 -32 -15 -52.5t-28.5 -32.5t-36.5 -15.5t-40 0.5l3 33q35 -8 57 11.5t27 60.5l18 176q2 16 7.5 26.5t12 16.5t13 9t10.5 4
q-3 1 -9 4.5t-11.5 10t-9 16.5t-2.5 25l19 175q5 42 -13.5 61.5t-54.5 11.5z" />
    <glyph glyph-name="bracketleft.sc" horiz-adv-x="238" 
d="M125 595h113l-4 -31h-77l-66 -626h78l-4 -31h-113z" />
    <glyph glyph-name="bracketright.sc" horiz-adv-x="238" 
d="M6 -62h78l66 626h-78l4 31h113l-73 -688h-113z" />
    <glyph glyph-name="breve.case" horiz-adv-x="283" 
d="M195 747q-42 0 -65 26.5t-18 73.5h34q-3 -29 10.5 -47.5t42.5 -18.5q30 0 47.5 18.5t20.5 47.5h33q-5 -46 -33 -73t-72 -27z" />
    <glyph glyph-name="c.sc" horiz-adv-x="481" 
d="M248 -11q-45 0 -82.5 13t-64.5 40t-42 68.5t-15 99.5q0 67 18 122t51 94t79.5 60.5t104.5 21.5q71 0 115 -31.5t44 -91.5q0 -29 -10 -55h-37q5 14 7 24.5t2 24.5q0 45 -33 70.5t-91 25.5q-48 0 -86.5 -19.5t-65.5 -54.5t-41.5 -83t-14.5 -106q0 -49 12.5 -85t35 -59
t52.5 -34.5t64 -11.5q54 0 89 21.5t60 56.5l25 -20q-30 -45 -71.5 -68t-104.5 -23z" />
    <glyph glyph-name="cacute.sc" horiz-adv-x="481" 
d="M358 730h48l-108 -152h-36zM248 -11q-45 0 -82.5 13t-64.5 40t-42 68.5t-15 99.5q0 67 18 122t51 94t79.5 60.5t104.5 21.5q71 0 115 -31.5t44 -91.5q0 -29 -10 -55h-37q5 14 7 24.5t2 24.5q0 45 -33 70.5t-91 25.5q-48 0 -86.5 -19.5t-65.5 -54.5t-41.5 -83t-14.5 -106
q0 -49 12.5 -85t35 -59t52.5 -34.5t64 -11.5q54 0 89 21.5t60 56.5l25 -20q-30 -45 -71.5 -68t-104.5 -23z" />
    <glyph glyph-name="caron.alt" horiz-adv-x="249" 
d="M70 588q41 22 45 56q-32 6 -32 35q0 17 10.5 27t26.5 10q15 0 25 -10t10 -31q0 -37 -22.5 -67.5t-51.5 -41.5z" />
    <glyph glyph-name="caron.case" horiz-adv-x="302" 
d="M111 854h38l60 -80l76 80h38l-95 -111h-45z" />
    <glyph glyph-name="caroncomb.alt" 
d="M-40 588q41 22 45 56q-32 6 -32 35q0 17 10.5 27t26.5 10q15 0 25 -10t10 -31q0 -37 -22.5 -67.5t-51.5 -41.5z" />
    <glyph glyph-name="ccaron.sc" horiz-adv-x="481" 
d="M210 730h35l57 -121l80 121h37l-100 -152h-41zM248 -11q-45 0 -82.5 13t-64.5 40t-42 68.5t-15 99.5q0 67 18 122t51 94t79.5 60.5t104.5 21.5q71 0 115 -31.5t44 -91.5q0 -29 -10 -55h-37q5 14 7 24.5t2 24.5q0 45 -33 70.5t-91 25.5q-48 0 -86.5 -19.5t-65.5 -54.5
t-41.5 -83t-14.5 -106q0 -49 12.5 -85t35 -59t52.5 -34.5t64 -11.5q54 0 89 21.5t60 56.5l25 -20q-30 -45 -71.5 -68t-104.5 -23z" />
    <glyph glyph-name="ccedilla.sc" horiz-adv-x="481" 
d="M409 330q5 14 7 24.5t2 24.5q0 45 -33 70.5t-91 25.5q-48 0 -86.5 -19.5t-65.5 -54.5t-41.5 -83t-14.5 -106q0 -49 12.5 -85t35 -59t52.5 -34.5t64 -11.5q54 0 89 21.5t60 56.5l25 -20q-29 -44 -69.5 -66.5t-100.5 -24.5l-14 -29q67 -10 67 -64q0 -38 -25 -55.5
t-63 -17.5q-45 0 -69 27l20 23q19 -20 49 -20q50 0 50 42q0 19 -16 30t-53 11l25 54q-80 6 -130.5 59t-50.5 161q0 67 18 122t51 94t79.5 60.5t104.5 21.5q71 0 115 -31.5t44 -91.5q0 -29 -10 -55h-37z" />
    <glyph glyph-name="ccircumflex.sc" horiz-adv-x="481" 
d="M293 730h42l68 -152h-37l-55 121l-81 -121h-37zM248 -11q-45 0 -82.5 13t-64.5 40t-42 68.5t-15 99.5q0 67 18 122t51 94t79.5 60.5t104.5 21.5q71 0 115 -31.5t44 -91.5q0 -29 -10 -55h-37q5 14 7 24.5t2 24.5q0 45 -33 70.5t-91 25.5q-48 0 -86.5 -19.5t-65.5 -54.5
t-41.5 -83t-14.5 -106q0 -49 12.5 -85t35 -59t52.5 -34.5t64 -11.5q54 0 89 21.5t60 56.5l25 -20q-30 -45 -71.5 -68t-104.5 -23z" />
    <glyph glyph-name="cdotaccent.sc" horiz-adv-x="481" 
d="M304 614q-14 0 -23 9t-9 24q0 17 10.5 28.5t28.5 11.5q15 0 23.5 -9.5t8.5 -23.5q0 -17 -10 -28.5t-29 -11.5zM248 -11q-45 0 -82.5 13t-64.5 40t-42 68.5t-15 99.5q0 67 18 122t51 94t79.5 60.5t104.5 21.5q71 0 115 -31.5t44 -91.5q0 -29 -10 -55h-37q5 14 7 24.5
t2 24.5q0 45 -33 70.5t-91 25.5q-48 0 -86.5 -19.5t-65.5 -54.5t-41.5 -83t-14.5 -106q0 -49 12.5 -85t35 -59t52.5 -34.5t64 -11.5q54 0 89 21.5t60 56.5l25 -20q-30 -45 -71.5 -68t-104.5 -23z" />
    <glyph glyph-name="cent.osf" horiz-adv-x="433" 
d="M379 412q-14 17 -38 27.5t-60 11.5l-45 -417h3q38 0 68 14t49 29l22 -25q-21 -20 -57.5 -37t-87.5 -17l-7 -68h-33l7 70q-72 10 -113.5 63t-41.5 144q0 58 14.5 106.5t41 85.5t64.5 59.5t86 27.5l8 69h33l-7 -68q47 -1 78 -15.5t49 -35.5zM86 204q0 -72 31.5 -114.5
t87.5 -52.5l44 412q-73 -9 -118 -71t-45 -174z" />
    <glyph glyph-name="cent.sc" horiz-adv-x="425" 
d="M375 412q-14 17 -38.5 27.5t-59.5 11.5l-44 -417h2q39 0 68.5 14t49.5 29l21 -25q-21 -20 -57 -37t-87 -17l-7 -68h-34l7 70q-72 10 -113 63t-41 144q0 57 14 106t41 85.5t65 59.5t86 28l7 69h33l-7 -68q48 -1 78.5 -15.5t48.5 -35.5zM82 208q0 -75 31.5 -118t87.5 -53
l44 412q-73 -11 -118 -74.5t-45 -166.5z" />
    <glyph glyph-name="circumflex.case" horiz-adv-x="306" 
d="M196 854h44l72 -111h-39l-58 79l-77 -79h-38z" />
    <glyph glyph-name="currency.osf" horiz-adv-x="514" 
d="M33 87l86 82q-8 15 -12 33.5t-4 37.5q0 29 9 55t24 48l-68 80l25 23l66 -79q48 51 115 51q33 0 60.5 -14.5t46.5 -37.5l84 80l21 -23l-86 -81q7 -16 11 -34.5t4 -38.5q0 -54 -33 -103l67 -77l-24 -23l-66 76q-24 -23 -50 -35t-64 -13q-34 -1 -62.5 13t-45.5 38l-85 -80z
M249 127q27 0 51 10.5t42 29.5t29 44.5t11 55.5q0 50 -30.5 84t-80.5 34q-26 0 -50.5 -11t-43 -29.5t-29.5 -44t-11 -55.5q0 -49 29.5 -83t82.5 -35z" />
    <glyph glyph-name="currency.sc" horiz-adv-x="514" 
d="M33 88l86 82q-15 30 -15 70q0 57 30 102l-67 81l23 22l66 -79q49 51 119 51q32 0 60 -14.5t46 -37.5l84 80l20 -22l-86 -82q7 -15 11 -33.5t4 -38.5q0 -27 -8.5 -53t-23.5 -49l66 -78l-23 -22l-66 77q-48 -49 -116 -49q-35 -1 -62 13t-44 39l-85 -81zM246 126
q28 0 53 11.5t43.5 30.5t29.5 45t11 54q0 51 -30 85t-80 34q-29 0 -54 -11.5t-43.5 -31t-29 -45t-10.5 -54.5q0 -49 28.5 -83t81.5 -35z" />
    <glyph glyph-name="d.sc" horiz-adv-x="524" 
d="M108 497h138q51 0 94 -13t74 -40t48.5 -68t17.5 -97q0 -72 -22 -125t-60 -87t-89 -50.5t-109 -16.5h-144zM201 34q51 0 94.5 14t75 43.5t49.5 75t18 108.5q0 49 -15 84.5t-41 58.5t-62.5 34t-78.5 11h-97l-46 -429h103z" />
    <glyph glyph-name="dcaron.sc" horiz-adv-x="524" 
d="M206 730h35l57 -121l80 121h37l-100 -152h-41zM108 497h138q51 0 94 -13t74 -40t48.5 -68t17.5 -97q0 -72 -22 -125t-60 -87t-89 -50.5t-109 -16.5h-144zM201 34q51 0 94.5 14t75 43.5t49.5 75t18 108.5q0 49 -15 84.5t-41 58.5t-62.5 34t-78.5 11h-97l-46 -429h103z" />
    <glyph glyph-name="dcroat.sc" horiz-adv-x="560" 
d="M275 497q51 0 93.5 -13t74 -40t49 -68t17.5 -97q0 -72 -22 -125t-60 -87t-89 -50.5t-109 -16.5h-144l24 232h-83l4 35h83l24 230h138zM230 34q52 0 95.5 14t75 43.5t49 75t17.5 107.5q0 49 -15 84.5t-41 59t-62 34.5t-78 11h-98l-21 -196h107l-4 -35h-106l-21 -198h102z
" />
    <glyph glyph-name="dieresis.case" horiz-adv-x="309" 
d="M131 763q-15 0 -24 9.5t-9 23.5q0 18 11 28.5t26 10.5t24 -9.5t9 -23.5q0 -18 -10 -28.5t-27 -10.5zM290 763q-14 0 -23.5 9t-9.5 24q0 18 11 28.5t26 10.5q16 0 24.5 -9.5t8.5 -23.5q0 -18 -10 -28.5t-27 -10.5z" />
    <glyph glyph-name="dollar.osf" horiz-adv-x="439" 
d="M359 340q8 30 2 50.5t-20.5 33t-36 18.5t-44.5 7l-20 -189q31 -6 58 -13.5t47.5 -20.5t32 -33.5t11.5 -52.5q0 -64 -41 -100.5t-135 -39.5l-9 -88h-30l9 87q-59 2 -101.5 20t-61.5 63l30 23q19 -42 55 -57t81 -17l21 199q-28 5 -54.5 12.5t-47 21t-32.5 34t-12 51.5
q0 61 45.5 96.5t127.5 37.5v1l8 77h30l-8 -79q26 -1 53.5 -8.5t48 -24t29.5 -43t-2 -66.5h-34zM98 354q0 -23 9 -38t24 -25t35.5 -15.5t44.5 -10.5l19 185q-63 -2 -97.5 -27t-34.5 -69zM351 135q0 44 -30.5 62t-83.5 28l-21 -194q75 2 105 29t30 75z" />
    <glyph glyph-name="dollar.sc" horiz-adv-x="438" 
d="M358 340q8 32 2 52.5t-20.5 33t-35.5 18t-44 6.5l-20 -190q29 -5 55.5 -12.5t47 -21t33 -34.5t12.5 -54q0 -60 -42.5 -98t-132.5 -40l-9 -88h-31l9 87q-58 2 -101 20t-62 63l31 23q18 -42 54 -57t81 -17l21 199q-27 5 -53.5 12t-46.5 20t-32.5 33t-12.5 51q0 60 43.5 97
t128.5 40l8 78h31l-8 -79q26 -1 53.5 -7.5t48 -22.5t29.5 -43t-2 -69h-35zM98 352q0 -23 9 -37.5t24.5 -24t36 -15t42.5 -9.5l19 185q-64 -2 -97.5 -28t-33.5 -71zM351 132q0 24 -9 40t-24.5 26t-36.5 16.5t-45 10.5l-20 -194q70 3 102.5 30t32.5 71z" />
    <glyph glyph-name="dotaccent.case" horiz-adv-x="161" 
d="M136 762q-14 0 -23 10t-9 24q0 16 12.5 28t26.5 12t23.5 -10t9.5 -24q0 -16 -12 -28t-28 -12z" />
    <glyph glyph-name="dotlessi.sc" horiz-adv-x="201" 
d="M108 497h39l-52 -497h-39z" />
    <glyph glyph-name="dotlessi.ss01" horiz-adv-x="192" 
d="M103 482h38l-51 -482h-38z" />
    <glyph glyph-name="e.sc" horiz-adv-x="436" 
d="M108 497h311l-4 -35h-272l-21 -192h241l-4 -36h-240l-21 -199h273l-4 -35h-311z" />
    <glyph glyph-name="e.ss01" horiz-adv-x="453" 
d="M264 492q81 0 117 -49.5t34 -141.5q-1 -17 -2 -29t-3 -20h-325q-1 -11 -1.5 -22.5t-0.5 -22.5q0 -90 36.5 -137.5t103.5 -47.5q52 0 84 19t57 52l23 -21q-27 -36 -64.5 -59.5t-103.5 -23.5q-85 0 -130 55.5t-45 158.5q0 66 16 119.5t45 91t69.5 58t89.5 20.5zM376 284
q3 38 -0.5 70t-16.5 55.5t-37 36.5t-61 13q-35 0 -63.5 -13.5t-50 -36.5t-36 -55t-21.5 -70h286z" />
    <glyph glyph-name="eacute.sc" horiz-adv-x="436" 
d="M333 730h48l-108 -152h-36zM108 497h311l-4 -35h-272l-21 -192h241l-4 -36h-240l-21 -199h273l-4 -35h-311z" />
    <glyph glyph-name="eacute.ss01" horiz-adv-x="453" 
d="M269 563h-36l96 152h48zM264 492q81 0 117 -49.5t34 -141.5q-1 -17 -2 -29t-3 -20h-325q-1 -11 -1.5 -22.5t-0.5 -22.5q0 -90 36.5 -137.5t103.5 -47.5q52 0 84 19t57 52l23 -21q-27 -36 -64.5 -59.5t-103.5 -23.5q-85 0 -130 55.5t-45 158.5q0 66 16 119.5t45 91
t69.5 58t89.5 20.5zM376 284q3 38 -0.5 70t-16.5 55.5t-37 36.5t-61 13q-35 0 -63.5 -13.5t-50 -36.5t-36 -55t-21.5 -70h286z" />
    <glyph glyph-name="ebreve.sc" horiz-adv-x="436" 
d="M276 590q-50 0 -72 29.5t-16 86.5h33q-4 -44 11 -63t47 -19q67 -2 76 82h33q-6 -56 -35 -86t-77 -30zM108 497h311l-4 -35h-272l-21 -192h241l-4 -36h-240l-21 -199h273l-4 -35h-311z" />
    <glyph glyph-name="ebreve.ss01" horiz-adv-x="453" 
d="M272 575q-50 0 -72 29.5t-16 86.5h33q-4 -44 11 -63t47 -19q67 -2 76 82h33q-6 -56 -35 -86t-77 -30zM264 492q81 0 117 -49.5t34 -141.5q-1 -17 -2 -29t-3 -20h-325q-1 -11 -1.5 -22.5t-0.5 -22.5q0 -90 36.5 -137.5t103.5 -47.5q52 0 84 19t57 52l23 -21
q-27 -36 -64.5 -59.5t-103.5 -23.5q-85 0 -130 55.5t-45 158.5q0 66 16 119.5t45 91t69.5 58t89.5 20.5zM376 284q3 38 -0.5 70t-16.5 55.5t-37 36.5t-61 13q-35 0 -63.5 -13.5t-50 -36.5t-36 -55t-21.5 -70h286z" />
    <glyph glyph-name="ecaron.sc" horiz-adv-x="436" 
d="M185 730h35l57 -121l80 121h37l-100 -152h-41zM108 497h311l-4 -35h-272l-21 -192h241l-4 -36h-240l-21 -199h273l-4 -35h-311z" />
    <glyph glyph-name="ecaron.ss01" horiz-adv-x="453" 
d="M249 563l-68 152h35l57 -121l80 121h37l-100 -152h-41zM264 492q81 0 117 -49.5t34 -141.5q-1 -17 -2 -29t-3 -20h-325q-1 -11 -1.5 -22.5t-0.5 -22.5q0 -90 36.5 -137.5t103.5 -47.5q52 0 84 19t57 52l23 -21q-27 -36 -64.5 -59.5t-103.5 -23.5q-85 0 -130 55.5
t-45 158.5q0 66 16 119.5t45 91t69.5 58t89.5 20.5zM376 284q3 38 -0.5 70t-16.5 55.5t-37 36.5t-61 13q-35 0 -63.5 -13.5t-50 -36.5t-36 -55t-21.5 -70h286z" />
    <glyph glyph-name="ecircumflex.sc" horiz-adv-x="436" 
d="M267 730h42l68 -152h-37l-55 121l-81 -121h-37zM108 497h311l-4 -35h-272l-21 -192h241l-4 -36h-240l-21 -199h273l-4 -35h-311z" />
    <glyph glyph-name="ecircumflex.ss01" horiz-adv-x="453" 
d="M200 563h-37l100 152h42l68 -152h-37l-55 121zM264 492q81 0 117 -49.5t34 -141.5q-1 -17 -2 -29t-3 -20h-325q-1 -11 -1.5 -22.5t-0.5 -22.5q0 -90 36.5 -137.5t103.5 -47.5q52 0 84 19t57 52l23 -21q-27 -36 -64.5 -59.5t-103.5 -23.5q-85 0 -130 55.5t-45 158.5
q0 66 16 119.5t45 91t69.5 58t89.5 20.5zM376 284q3 38 -0.5 70t-16.5 55.5t-37 36.5t-61 13q-35 0 -63.5 -13.5t-50 -36.5t-36 -55t-21.5 -70h286z" />
    <glyph glyph-name="edieresis.sc" horiz-adv-x="436" 
d="M203 614q-31 0 -31 32q0 16 10 27t27 11q15 0 23.5 -9t8.5 -22q0 -17 -10 -28t-28 -11zM353 614q-14 0 -22.5 8.5t-8.5 23.5q0 16 10.5 27t27.5 11q14 0 22.5 -9t8.5 -22q0 -17 -10 -28t-28 -11zM108 497h311l-4 -35h-272l-21 -192h241l-4 -36h-240l-21 -199h273l-4 -35
h-311z" />
    <glyph glyph-name="edieresis.ss01" horiz-adv-x="453" 
d="M199 599q-31 0 -31 32q0 16 10 27t27 11q15 0 23.5 -9t8.5 -22q0 -17 -10 -28t-28 -11zM349 599q-14 0 -22.5 8.5t-8.5 23.5q0 16 10.5 27t27.5 11q14 0 22.5 -9t8.5 -22q0 -17 -10 -28t-28 -11zM264 492q81 0 117 -49.5t34 -141.5q-1 -17 -2 -29t-3 -20h-325
q-1 -11 -1.5 -22.5t-0.5 -22.5q0 -90 36.5 -137.5t103.5 -47.5q52 0 84 19t57 52l23 -21q-27 -36 -64.5 -59.5t-103.5 -23.5q-85 0 -130 55.5t-45 158.5q0 66 16 119.5t45 91t69.5 58t89.5 20.5zM376 284q3 38 -0.5 70t-16.5 55.5t-37 36.5t-61 13q-35 0 -63.5 -13.5
t-50 -36.5t-36 -55t-21.5 -70h286z" />
    <glyph glyph-name="edotaccent.sc" horiz-adv-x="436" 
d="M279 614q-14 0 -23 9t-9 24q0 17 10.5 28.5t28.5 11.5q15 0 23.5 -9.5t8.5 -23.5q0 -17 -10 -28.5t-29 -11.5zM108 497h311l-4 -35h-272l-21 -192h241l-4 -36h-240l-21 -199h273l-4 -35h-311z" />
    <glyph glyph-name="edotaccent.ss01" horiz-adv-x="453" 
d="M275 599q-14 0 -23 9t-9 24q0 17 10.5 28.5t28.5 11.5q15 0 23.5 -9.5t8.5 -23.5q0 -17 -10 -28.5t-29 -11.5zM264 492q81 0 117 -49.5t34 -141.5q-1 -17 -2 -29t-3 -20h-325q-1 -11 -1.5 -22.5t-0.5 -22.5q0 -90 36.5 -137.5t103.5 -47.5q52 0 84 19t57 52l23 -21
q-27 -36 -64.5 -59.5t-103.5 -23.5q-85 0 -130 55.5t-45 158.5q0 66 16 119.5t45 91t69.5 58t89.5 20.5zM376 284q3 38 -0.5 70t-16.5 55.5t-37 36.5t-61 13q-35 0 -63.5 -13.5t-50 -36.5t-36 -55t-21.5 -70h286z" />
    <glyph glyph-name="egrave.sc" horiz-adv-x="436" 
d="M183 730h46l65 -152h-35zM108 497h311l-4 -35h-272l-21 -192h241l-4 -36h-240l-21 -199h273l-4 -35h-311z" />
    <glyph glyph-name="egrave.ss01" horiz-adv-x="453" 
d="M255 563l-76 152h46l65 -152h-35zM264 492q81 0 117 -49.5t34 -141.5q-1 -17 -2 -29t-3 -20h-325q-1 -11 -1.5 -22.5t-0.5 -22.5q0 -90 36.5 -137.5t103.5 -47.5q52 0 84 19t57 52l23 -21q-27 -36 -64.5 -59.5t-103.5 -23.5q-85 0 -130 55.5t-45 158.5q0 66 16 119.5
t45 91t69.5 58t89.5 20.5zM376 284q3 38 -0.5 70t-16.5 55.5t-37 36.5t-61 13q-35 0 -63.5 -13.5t-50 -36.5t-36 -55t-21.5 -70h286z" />
    <glyph glyph-name="eight.dnom" horiz-adv-x="366" 
d="M138 -5q-62 0 -94 26t-32 69q0 39 21.5 68.5t58.5 48.5q-44 24 -44 75q0 48 33.5 76.5t90.5 28.5q48 0 80.5 -23.5t32.5 -71.5q0 -35 -20 -60t-43 -35q57 -25 57 -88q0 -55 -38 -84.5t-103 -29.5zM196 207q5 3 14.5 8.5t19 15.5t16.5 24t7 34q0 36 -24 53t-59 17
q-42 0 -66 -18.5t-24 -53.5q0 -50 56 -64zM141 22q47 0 76.5 20t29.5 62q0 31 -16 48.5t-45 25.5l-68 19q-29 -14 -51 -38.5t-22 -62.5q0 -33 25 -53.5t71 -20.5z" />
    <glyph glyph-name="eight.numr" horiz-adv-x="366" 
d="M138 314q-62 0 -94 25.5t-32 69.5q0 39 21.5 68.5t58.5 48.5q-44 24 -44 75q0 48 33.5 76.5t90.5 28.5q48 0 80.5 -23.5t32.5 -71.5q0 -35 -20 -60t-43 -35q57 -25 57 -89q0 -54 -38 -83.5t-103 -29.5zM196 526q5 2 14.5 8t19 15.5t16.5 24t7 33.5q0 37 -24 54t-59 17
q-42 0 -66 -18.5t-24 -53.5q0 -50 56 -64zM141 341q47 0 76.5 20t29.5 62q0 31 -16 48.5t-45 25.5l-68 18q-29 -14 -51 -38.5t-22 -62.5q0 -33 25 -53t71 -20z" />
    <glyph glyph-name="eight.osf" horiz-adv-x="517" 
d="M361 346q57 -28 79 -68.5t22 -91.5q0 -42 -15 -77.5t-43.5 -61t-68.5 -39.5t-90 -14q-98 0 -151 45.5t-53 123.5q0 41 11.5 74t31 60t44 47.5t51.5 36.5q-40 23 -61 57.5t-21 81.5q0 42 14.5 76t41 58.5t63 38t80.5 13.5q85 0 135.5 -44.5t50.5 -122.5q0 -31 -10 -60
t-26.5 -53.5t-38.5 -45t-46 -34.5zM134 524q0 -51 28 -83t82 -51l71 -25l16 -6q48 28 81 74.5t33 100.5q0 66 -41 102t-111 36q-69 0 -114 -38t-45 -110zM248 27q81 0 129 42.5t48 111.5q0 54 -27.5 91.5t-92.5 59.5l-71 24q-8 2 -14.5 5t-13.5 6q-24 -15 -47 -33.5
t-40.5 -42.5t-28.5 -53t-11 -65q0 -65 44 -105.5t125 -40.5z" />
    <glyph glyph-name="eight.sc" horiz-adv-x="448" 
d="M310 250q44 -17 63 -45.5t19 -65.5q0 -69 -50.5 -109.5t-138.5 -40.5q-81 0 -125.5 32.5t-44.5 91.5q0 28 9 51.5t24.5 42.5t35 33.5t40.5 24.5q-59 33 -59 103q0 61 45 100.5t120 39.5q69 0 109 -33t40 -90q0 -43 -26 -79.5t-61 -55.5zM245 476q-55 0 -89.5 -28
t-34.5 -78q0 -33 19 -56.5t57 -33.5l79 -19q35 16 59.5 48.5t24.5 69.5q0 46 -32 71.5t-83 25.5zM206 20q72 0 110 31t38 85q0 71 -85 92l-83 20q-4 1 -7.5 2t-7.5 2q-18 -9 -36 -21.5t-32 -29t-22.5 -36.5t-8.5 -45q0 -46 34.5 -73t99.5 -27z" />
    <glyph glyph-name="eight.sinf" horiz-adv-x="350" 
d="M138 -141q-62 0 -94 25.5t-32 69.5q0 39 21.5 68.5t58.5 48.5q-44 24 -44 75q0 48 33.5 76.5t90.5 28.5q48 0 80.5 -23.5t32.5 -71.5q0 -35 -20 -60t-43 -35q57 -25 57 -89q0 -54 -38 -83.5t-103 -29.5zM196 71q5 2 14.5 8t19 15.5t16.5 24t7 33.5q0 37 -24 54t-59 17
q-42 0 -66 -18.5t-24 -53.5q0 -50 56 -64zM141 -114q47 0 76.5 20t29.5 62q0 31 -16 48.5t-45 25.5l-68 18q-29 -14 -51 -38.5t-22 -62.5q0 -33 25 -53t71 -20z" />
    <glyph glyph-name="eight.sups" horiz-adv-x="366" 
d="M138 379q-62 0 -94 25.5t-32 69.5q0 39 21.5 68.5t58.5 48.5q-44 24 -44 75q0 48 33.5 76.5t90.5 28.5q48 0 80.5 -23.5t32.5 -71.5q0 -35 -20 -60t-43 -35q57 -25 57 -89q0 -54 -38 -83.5t-103 -29.5zM196 591q5 2 14.5 8t19 15.5t16.5 24t7 33.5q0 37 -24 54t-59 17
q-42 0 -66 -18.5t-24 -53.5q0 -50 56 -64zM141 406q47 0 76.5 20t29.5 62q0 31 -16 48.5t-45 25.5l-68 18q-29 -14 -51 -38.5t-22 -62.5q0 -33 25 -53t71 -20z" />
    <glyph glyph-name="emacron.sc" horiz-adv-x="436" 
d="M174 669h219l-3 -33h-220zM108 497h311l-4 -35h-272l-21 -192h241l-4 -36h-240l-21 -199h273l-4 -35h-311z" />
    <glyph glyph-name="emacron.ss01" horiz-adv-x="453" 
d="M386 621h-220l4 33h219zM264 492q81 0 117 -49.5t34 -141.5q-1 -17 -2 -29t-3 -20h-325q-1 -11 -1.5 -22.5t-0.5 -22.5q0 -90 36.5 -137.5t103.5 -47.5q52 0 84 19t57 52l23 -21q-27 -36 -64.5 -59.5t-103.5 -23.5q-85 0 -130 55.5t-45 158.5q0 66 16 119.5t45 91
t69.5 58t89.5 20.5zM376 284q3 38 -0.5 70t-16.5 55.5t-37 36.5t-61 13q-35 0 -63.5 -13.5t-50 -36.5t-36 -55t-21.5 -70h286z" />
    <glyph glyph-name="eng.sc" horiz-adv-x="533" 
d="M479 497l-52 -497l-7 -67q-8 -70 -43 -107.5t-93 -37.5q-35 0 -57 11.5t-34 29.5l29 30q12 -20 29.5 -27t36.5 -7q82 0 94 107l7 71l-243 421l-7 14l-46 -438h-37l52 497h38l242 -420l8 -14l45 434h38z" />
    <glyph glyph-name="eng.ss01" horiz-adv-x="498" 
d="M297 492q76 0 112 -49t27 -137l-39 -373q-8 -71 -42 -108t-94 -37q-33 0 -56 12t-34 30l29 29q12 -19 30.5 -26.5t35.5 -7.5q79 0 93 107l7 68l32 305q8 72 -20.5 112.5t-91.5 40.5q-33 0 -61.5 -14t-50 -38t-35 -56.5t-17.5 -69.5l-29 -280h-38l42 398q4 36 -4.5 46.5
t-30.5 10.5l3 29q4 1 9 1h10q29 0 40.5 -18.5t8.5 -56.5l-5 -43q22 59 66.5 92t102.5 33z" />
    <glyph glyph-name="eogonek.sc" horiz-adv-x="436" 
d="M143 462l-21 -192h241l-4 -36h-240l-21 -199h273l-4 -35q-38 -10 -63 -36.5t-25 -57.5q0 -44 40 -44q12 0 20 3.5t16 9.5l13 -22q-9 -8 -23.5 -14.5t-33.5 -6.5q-32 0 -50 16.5t-18 48.5q0 29 18 56.5t50 46.5h-255l52 497h311l-4 -35h-272z" />
    <glyph glyph-name="eogonek.ss01" horiz-adv-x="453" 
d="M264 492q81 0 117 -49.5t34 -141.5q-1 -17 -2 -29t-3 -20h-325q-1 -11 -1.5 -22.5t-0.5 -22.5q0 -90 36.5 -137.5t103.5 -47.5q52 0 84 19t57 52l23 -21q-22 -29 -49.5 -50t-71.5 -29q-27 -14 -44 -36.5t-17 -47.5q0 -44 40 -44q12 0 20 3.5t16 9.5l13 -22
q-9 -8 -23.5 -14.5t-33.5 -6.5q-32 0 -50 16.5t-18 48.5q0 24 12.5 47.5t35.5 41.5q-84 1 -128.5 56.5t-44.5 157.5q0 66 16 119.5t45 91t69.5 58t89.5 20.5zM376 284q3 38 -0.5 70t-16.5 55.5t-37 36.5t-61 13q-35 0 -63.5 -13.5t-50 -36.5t-36 -55t-21.5 -70h286z" />
    <glyph glyph-name="eth.sc" horiz-adv-x="560" 
d="M275 497q51 0 93.5 -13t74 -40t49 -68t17.5 -97q0 -72 -22 -125t-60 -87t-89 -50.5t-109 -16.5h-144l24 232h-83l4 35h83l24 230h138zM230 34q52 0 95.5 14t75 43.5t49 75t17.5 107.5q0 49 -15 84.5t-41 59t-62 34.5t-78 11h-98l-21 -196h107l-4 -35h-106l-21 -198h102z
" />
    <glyph glyph-name="exclam.sc" horiz-adv-x="197" 
d="M105 497h41l-44 -366h-31zM71 -7q-11 0 -18 7.5t-7 18.5q0 13 10 22.5t22 9.5q11 0 19 -7.5t8 -18.5q0 -13 -10 -22.5t-24 -9.5z" />
    <glyph glyph-name="exclamdown.sc" horiz-adv-x="205" 
d="M134 503q11 0 18 -7.5t7 -18.5q0 -13 -9.5 -22.5t-22.5 -9.5q-11 0 -19 8t-8 19q0 13 10 22t24 9zM100 -1h-40l43 366h32z" />
    <glyph glyph-name="f.sc" horiz-adv-x="417" 
d="M108 497h309l-5 -37h-269l-21 -198h236l-4 -37h-236l-23 -225h-39z" />
    <glyph glyph-name="fi.sc" horiz-adv-x="618" 
d="M108 497h309l-5 -37h-269l-21 -198h236l-4 -37h-236l-23 -225h-39zM525 497h39l-52 -497h-39z" />
    <glyph glyph-name="five.dnom" horiz-adv-x="339" 
d="M118 -5q-39 0 -67 13t-42 40l28 19q24 -43 82 -43q51 0 79 29t28 79q0 39 -20.5 60.5t-58.5 21.5q-26 0 -47.5 -8.5t-36.5 -22.5h-30l21 200h214l-3 -30h-185l-15 -141q14 14 36.5 22.5t51.5 8.5q51 0 78.5 -27.5t27.5 -78.5q0 -67 -38.5 -104.5t-102.5 -37.5z" />
    <glyph glyph-name="five.numr" horiz-adv-x="339" 
d="M118 315q-38 0 -66.5 13t-42.5 39l28 20q25 -43 83 -43q51 0 78.5 29t27.5 79q0 39 -20 60.5t-58 21.5q-27 0 -48 -8.5t-37 -22.5h-29l20 200h214l-3 -30h-185l-14 -141q14 14 36.5 22.5t51.5 8.5q51 0 78 -28t27 -79q0 -66 -38.5 -103.5t-102.5 -37.5z" />
    <glyph glyph-name="five.osf" horiz-adv-x="480" 
d="M194 -199q-71 0 -119 27.5t-69 77.5l33 18q18 -40 58 -65t101 -25q87 0 137 56t50 156q0 80 -39.5 119.5t-106.5 39.5q-45 0 -84 -15.5t-66 -44.5h-36l37 352h355l-3 -35h-321l-30 -282q31 31 70.5 45t85.5 14q82 0 129 -47t47 -141q0 -58 -16 -104t-45.5 -78.5t-72 -50
t-95.5 -17.5z" />
    <glyph glyph-name="five.sc" horiz-adv-x="432" 
d="M182 -9q-55 0 -96 23.5t-58 61.5l32 18q14 -32 48.5 -51t77.5 -19q73 0 116 39t43 107q0 51 -31.5 79.5t-88.5 28.5q-37 0 -70 -10.5t-54 -30.5h-36l27 260h303l-4 -34h-269l-20 -192q26 21 60.5 31t72.5 10q70 0 108.5 -36t38.5 -99q0 -86 -53.5 -136t-146.5 -50z" />
    <glyph glyph-name="five.sinf" horiz-adv-x="323" 
d="M118 -140q-81 0 -109 52l28 20q24 -43 82 -43q51 0 79 29t28 79q0 39 -20.5 60.5t-58.5 21.5q-26 0 -47.5 -8.5t-36.5 -22.5h-30l21 200h214l-3 -30h-185l-15 -141q14 14 36.5 22.5t51.5 8.5q51 0 78.5 -28t27.5 -79q0 -66 -38.5 -103.5t-102.5 -37.5z" />
    <glyph glyph-name="five.sups" horiz-adv-x="339" 
d="M118 380q-81 0 -109 52l28 20q24 -43 82 -43q51 0 79 29t28 79q0 39 -20.5 60.5t-58.5 21.5q-26 0 -47.5 -8.5t-36.5 -22.5h-30l21 200h214l-3 -30h-185l-15 -141q14 14 36.5 22.5t51.5 8.5q51 0 78.5 -28t27.5 -79q0 -66 -38.5 -103.5t-102.5 -37.5z" />
    <glyph glyph-name="fiveeighths.alt" horiz-adv-x="578" 
d="M146 332q-33 0 -52 12.5t-24 25.5l20 18q6 -11 21 -20t38 -9q36 0 54 20t18 51q0 24 -14 38.5t-38 14.5q-22 0 -36 -7t-23 -15h-26l16 147h156l-2 -26h-129l-11 -94q7 7 22.5 13.5t37.5 6.5q36 0 56.5 -20t20.5 -56q0 -45 -28 -72.5t-77 -27.5zM494 599h36l-413 -501h-37
zM417 73q-91 0 -91 68q0 27 16 48.5t41 31.5q-14 8 -22.5 21.5t-8.5 33.5q0 33 25 54t66 21q38 0 60 -18t22 -48q0 -23 -11 -40t-31 -30q18 -7 29 -22.5t11 -37.5q0 -39 -30.5 -60.5t-75.5 -21.5zM461 224q15 9 24.5 23.5t9.5 34.5q0 21 -14.5 32.5t-40.5 11.5t-42 -13
t-16 -35q0 -32 34 -41zM419 97q32 0 53 14t21 40q0 37 -41 48l-46 12q-21 -7 -35.5 -25t-14.5 -41t16 -35.5t47 -12.5z" />
    <glyph glyph-name="fl.sc" horiz-adv-x="824" 
d="M108 497h309l-5 -37h-269l-21 -198h236l-4 -37h-236l-23 -225h-39zM525 497h39l-49 -462h265l-4 -35h-303z" />
    <glyph glyph-name="four.dnom" horiz-adv-x="340" 
d="M181 91h-190l4 30l164 261h36l-163 -261h153l11 100h33l-11 -100h51l-3 -30h-51l-9 -91h-33z" />
    <glyph glyph-name="four.numr" horiz-adv-x="340" 
d="M181 409h-190l4 30l163 261h37l-163 -261h153l10 100h34l-11 -100h51l-3 -30h-51l-9 -91h-34z" />
    <glyph glyph-name="four.osf" horiz-adv-x="519" 
d="M477 34l-3 -34h-95l-19 -175h-37l19 175h-347l4 34l382 463h50l-49 -463h95zM391 459l-349 -425h303z" />
    <glyph glyph-name="four.sc" horiz-adv-x="429" 
d="M276 121h-261l3 32l228 344h40l-228 -344h222l14 126h36l-14 -126h77l-4 -32h-76l-12 -121h-37z" />
    <glyph glyph-name="four.sinf" horiz-adv-x="324" 
d="M181 -46h-190l4 30l164 261h36l-163 -261h153l11 100h33l-11 -100h51l-3 -30h-51l-9 -91h-33z" />
    <glyph glyph-name="four.sups" horiz-adv-x="340" 
d="M181 474h-190l4 30l164 261h36l-163 -261h153l11 100h33l-11 -100h51l-3 -30h-51l-9 -91h-33z" />
    <glyph glyph-name="g.sc" horiz-adv-x="510" 
d="M254 -11q-100 0 -154.5 56t-54.5 167q0 68 19 123t53 93.5t81 59t102 20.5q79 0 121 -33.5t42 -93.5q0 -10 -1.5 -21t-6.5 -22h-35q2 8 2.5 15.5t0.5 18.5q1 48 -31 75.5t-94 27.5q-46 0 -85 -17.5t-67 -51.5t-43.5 -82.5t-15.5 -110.5q0 -92 45 -141.5t127 -49.5
q48 0 84 12.5t60 32.5l14 137h-142l3 34h179l-20 -187q-32 -29 -75.5 -45.5t-107.5 -16.5z" />
    <glyph glyph-name="g.ss01" horiz-adv-x="464" 
d="M179 -239q-101 0 -144 32t-43 92q0 36 13.5 60.5t31 40t35 23.5t24.5 11q-5 2 -16 5.5t-21.5 11.5t-18.5 21t-8 33q0 35 22 56t54 31q-3 3 -10 11t-15 22.5t-14 35.5t-6 50q0 44 15.5 79.5t41.5 60.5t61.5 38.5t74.5 13.5q38 0 60.5 -10t26.5 -12q49 0 74 15t30 57l34 -7
q-5 -49 -34.5 -67t-73.5 -20q3 -3 10.5 -12t15 -23.5t13 -35t5.5 -46.5q0 -44 -15 -79.5t-41.5 -60t-61.5 -38t-76 -13.5q-38 0 -62 10t-26 11q-24 -3 -44.5 -17t-20.5 -44q0 -33 29 -43t75 -10h97q68 0 105.5 -30t37.5 -89q0 -77 -58.5 -120.5t-176.5 -43.5zM226 169
q33 0 61 11.5t48.5 32t32.5 49.5t12 64q0 60 -35.5 95.5t-91.5 35.5q-32 0 -60 -11.5t-48.5 -32t-32.5 -50t-12 -65.5q0 -60 34.5 -94.5t91.5 -34.5zM183 -208q193 0 193 128q0 44 -28 66.5t-79 22.5h-97q-64 0 -103 -32t-39 -88q0 -48 36 -72.5t117 -24.5z" />
    <glyph glyph-name="gbreve.sc" horiz-adv-x="510" 
d="M300 590q-50 0 -72 29.5t-16 86.5h33q-4 -44 11 -63t47 -19q67 -2 76 82h33q-6 -56 -35 -86t-77 -30zM254 -11q-100 0 -154.5 56t-54.5 167q0 68 19 123t53 93.5t81 59t102 20.5q79 0 121 -33.5t42 -93.5q0 -10 -1.5 -21t-6.5 -22h-35q2 8 2.5 15.5t0.5 18.5
q1 48 -31 75.5t-94 27.5q-46 0 -85 -17.5t-67 -51.5t-43.5 -82.5t-15.5 -110.5q0 -92 45 -141.5t127 -49.5q48 0 84 12.5t60 32.5l14 137h-142l3 34h179l-20 -187q-32 -29 -75.5 -45.5t-107.5 -16.5z" />
    <glyph glyph-name="gbreve.ss01" horiz-adv-x="464" 
d="M266 575q-50 0 -72 29.5t-16 86.5h33q-4 -44 11 -63t47 -19q67 -2 76 82h33q-6 -56 -35 -86t-77 -30zM179 -239q-101 0 -144 32t-43 92q0 36 13.5 60.5t31 40t35 23.5t24.5 11q-5 2 -16 5.5t-21.5 11.5t-18.5 21t-8 33q0 35 22 56t54 31q-3 3 -10 11t-15 22.5t-14 35.5
t-6 50q0 44 15.5 79.5t41.5 60.5t61.5 38.5t74.5 13.5q38 0 60.5 -10t26.5 -12q49 0 74 15t30 57l34 -7q-5 -49 -34.5 -67t-73.5 -20q3 -3 10.5 -12t15 -23.5t13 -35t5.5 -46.5q0 -44 -15 -79.5t-41.5 -60t-61.5 -38t-76 -13.5q-38 0 -62 10t-26 11q-24 -3 -44.5 -17
t-20.5 -44q0 -33 29 -43t75 -10h97q68 0 105.5 -30t37.5 -89q0 -77 -58.5 -120.5t-176.5 -43.5zM226 169q33 0 61 11.5t48.5 32t32.5 49.5t12 64q0 60 -35.5 95.5t-91.5 35.5q-32 0 -60 -11.5t-48.5 -32t-32.5 -50t-12 -65.5q0 -60 34.5 -94.5t91.5 -34.5zM183 -208
q193 0 193 128q0 44 -28 66.5t-79 22.5h-97q-64 0 -103 -32t-39 -88q0 -48 36 -72.5t117 -24.5z" />
    <glyph glyph-name="gcaron.sc" horiz-adv-x="510" 
d="M209 730h35l57 -121l80 121h37l-100 -152h-41zM254 -11q-100 0 -154.5 56t-54.5 167q0 68 19 123t53 93.5t81 59t102 20.5q79 0 121 -33.5t42 -93.5q0 -10 -1.5 -21t-6.5 -22h-35q2 8 2.5 15.5t0.5 18.5q1 48 -31 75.5t-94 27.5q-46 0 -85 -17.5t-67 -51.5t-43.5 -82.5
t-15.5 -110.5q0 -92 45 -141.5t127 -49.5q48 0 84 12.5t60 32.5l14 137h-142l3 34h179l-20 -187q-32 -29 -75.5 -45.5t-107.5 -16.5z" />
    <glyph glyph-name="gcaron.ss01" horiz-adv-x="464" 
d="M175 715h35l57 -121l80 121h37l-100 -152h-41zM179 -239q-101 0 -144 32t-43 92q0 36 13.5 60.5t31 40t35 23.5t24.5 11q-5 2 -16 5.5t-21.5 11.5t-18.5 21t-8 33q0 35 22 56t54 31q-3 3 -10 11t-15 22.5t-14 35.5t-6 50q0 44 15.5 79.5t41.5 60.5t61.5 38.5t74.5 13.5
q38 0 60.5 -10t26.5 -12q49 0 74 15t30 57l34 -7q-5 -49 -34.5 -67t-73.5 -20q3 -3 10.5 -12t15 -23.5t13 -35t5.5 -46.5q0 -44 -15 -79.5t-41.5 -60t-61.5 -38t-76 -13.5q-38 0 -62 10t-26 11q-24 -3 -44.5 -17t-20.5 -44q0 -33 29 -43t75 -10h97q68 0 105.5 -30t37.5 -89
q0 -77 -58.5 -120.5t-176.5 -43.5zM226 169q33 0 61 11.5t48.5 32t32.5 49.5t12 64q0 60 -35.5 95.5t-91.5 35.5q-32 0 -60 -11.5t-48.5 -32t-32.5 -50t-12 -65.5q0 -60 34.5 -94.5t91.5 -34.5zM183 -208q193 0 193 128q0 44 -28 66.5t-79 22.5h-97q-64 0 -103 -32t-39 -88
q0 -48 36 -72.5t117 -24.5z" />
    <glyph glyph-name="gcircumflex.sc" horiz-adv-x="510" 
d="M292 730h42l68 -152h-37l-55 121l-81 -121h-37zM254 -11q-100 0 -154.5 56t-54.5 167q0 68 19 123t53 93.5t81 59t102 20.5q79 0 121 -33.5t42 -93.5q0 -10 -1.5 -21t-6.5 -22h-35q2 8 2.5 15.5t0.5 18.5q1 48 -31 75.5t-94 27.5q-46 0 -85 -17.5t-67 -51.5t-43.5 -82.5
t-15.5 -110.5q0 -92 45 -141.5t127 -49.5q48 0 84 12.5t60 32.5l14 137h-142l3 34h179l-20 -187q-32 -29 -75.5 -45.5t-107.5 -16.5z" />
    <glyph glyph-name="gcircumflex.ss01" horiz-adv-x="464" 
d="M258 715h42l68 -152h-37l-55 121l-81 -121h-37zM179 -239q-101 0 -144 32t-43 92q0 36 13.5 60.5t31 40t35 23.5t24.5 11q-5 2 -16 5.5t-21.5 11.5t-18.5 21t-8 33q0 35 22 56t54 31q-3 3 -10 11t-15 22.5t-14 35.5t-6 50q0 44 15.5 79.5t41.5 60.5t61.5 38.5t74.5 13.5
q38 0 60.5 -10t26.5 -12q49 0 74 15t30 57l34 -7q-5 -49 -34.5 -67t-73.5 -20q3 -3 10.5 -12t15 -23.5t13 -35t5.5 -46.5q0 -44 -15 -79.5t-41.5 -60t-61.5 -38t-76 -13.5q-38 0 -62 10t-26 11q-24 -3 -44.5 -17t-20.5 -44q0 -33 29 -43t75 -10h97q68 0 105.5 -30t37.5 -89
q0 -77 -58.5 -120.5t-176.5 -43.5zM226 169q33 0 61 11.5t48.5 32t32.5 49.5t12 64q0 60 -35.5 95.5t-91.5 35.5q-32 0 -60 -11.5t-48.5 -32t-32.5 -50t-12 -65.5q0 -60 34.5 -94.5t91.5 -34.5zM183 -208q193 0 193 128q0 44 -28 66.5t-79 22.5h-97q-64 0 -103 -32t-39 -88
q0 -48 36 -72.5t117 -24.5z" />
    <glyph glyph-name="gdotaccent.sc" horiz-adv-x="510" 
d="M303 614q-14 0 -23 9t-9 24q0 17 10.5 28.5t28.5 11.5q15 0 23.5 -9.5t8.5 -23.5q0 -17 -10 -28.5t-29 -11.5zM254 -11q-100 0 -154.5 56t-54.5 167q0 68 19 123t53 93.5t81 59t102 20.5q79 0 121 -33.5t42 -93.5q0 -10 -1.5 -21t-6.5 -22h-35q2 8 2.5 15.5t0.5 18.5
q1 48 -31 75.5t-94 27.5q-46 0 -85 -17.5t-67 -51.5t-43.5 -82.5t-15.5 -110.5q0 -92 45 -141.5t127 -49.5q48 0 84 12.5t60 32.5l14 137h-142l3 34h179l-20 -187q-32 -29 -75.5 -45.5t-107.5 -16.5z" />
    <glyph glyph-name="gdotaccent.ss01" horiz-adv-x="464" 
d="M269 599q-14 0 -23 9t-9 24q0 17 10.5 28.5t28.5 11.5q15 0 23.5 -9.5t8.5 -23.5q0 -17 -10 -28.5t-29 -11.5zM179 -239q-101 0 -144 32t-43 92q0 36 13.5 60.5t31 40t35 23.5t24.5 11q-5 2 -16 5.5t-21.5 11.5t-18.5 21t-8 33q0 35 22 56t54 31q-3 3 -10 11t-15 22.5
t-14 35.5t-6 50q0 44 15.5 79.5t41.5 60.5t61.5 38.5t74.5 13.5q38 0 60.5 -10t26.5 -12q49 0 74 15t30 57l34 -7q-5 -49 -34.5 -67t-73.5 -20q3 -3 10.5 -12t15 -23.5t13 -35t5.5 -46.5q0 -44 -15 -79.5t-41.5 -60t-61.5 -38t-76 -13.5q-38 0 -62 10t-26 11
q-24 -3 -44.5 -17t-20.5 -44q0 -33 29 -43t75 -10h97q68 0 105.5 -30t37.5 -89q0 -77 -58.5 -120.5t-176.5 -43.5zM226 169q33 0 61 11.5t48.5 32t32.5 49.5t12 64q0 60 -35.5 95.5t-91.5 35.5q-32 0 -60 -11.5t-48.5 -32t-32.5 -50t-12 -65.5q0 -60 34.5 -94.5t91.5 -34.5z
M183 -208q193 0 193 128q0 44 -28 66.5t-79 22.5h-97q-64 0 -103 -32t-39 -88q0 -48 36 -72.5t117 -24.5z" />
    <glyph glyph-name="germandbls.sc" horiz-adv-x="496" 
d="M284 274q90 -11 126 -46.5t36 -91.5q0 -66 -46.5 -106t-128.5 -40q-95 0 -134 50l27 27q36 -43 111 -43q63 0 97 30t34 78q0 43 -23 68.5t-80 36.5q-14 3 -29 5t-32 3l3 32l161 152q-19 17 -50.5 29.5t-76.5 12.5q-60 0 -103.5 -34.5t-50.5 -102.5l-36 -334h-39l36 337
q5 41 21.5 72.5t42 53t59 32.5t72.5 11q60 0 100.5 -17.5t62.5 -41.5l-4 -27z" />
    <glyph glyph-name="grave.case" horiz-adv-x="230" 
d="M120 854h53l65 -111h-38z" />
    <glyph glyph-name="gravecomb.case" 
d="M-111 854h53l65 -111h-38z" />
    <glyph glyph-name="h.sc" horiz-adv-x="535" 
d="M108 497h39l-24 -229h295l24 229h39l-52 -497h-39l24 232h-295l-24 -232h-39z" />
    <glyph glyph-name="h.ss01" horiz-adv-x="491" 
d="M125 726h38l-37 -358q9 24 24 46.5t36 39t47 26.5t57 10q43 0 72 -14.5t45.5 -40t21.5 -59.5t1 -72l-32 -304h-38l32 305q3 31 -1.5 58.5t-18 48t-36.5 32.5t-56 12q-37 0 -66.5 -17t-50 -43t-32.5 -57t-15 -59l-29 -280h-38z" />
    <glyph glyph-name="hbar.sc" horiz-adv-x="600" 
d="M584 375h-82l-39 -375h-39l24 232h-295l-24 -232h-39l39 375h-82l2 31h83l10 91h39l-10 -91h295l10 91h39l-10 -91h81zM463 375h-295l-11 -107h295z" />
    <glyph glyph-name="hbar.ss01" horiz-adv-x="491" 
d="M290 490q43 0 72 -14.5t45.5 -40t21.5 -59.5t1 -72l-32 -304h-38l32 305q3 31 -1.5 58.5t-18 48t-36.5 32.5t-56 12q-37 0 -66.5 -17t-50 -43t-32.5 -57t-15 -59l-29 -280h-38l63 598h-76l4 34h75l10 94h38l-10 -94h115l-3 -34h-115l-24 -230q9 24 24 46.5t36 39t47 26.5
t57 10z" />
    <glyph glyph-name="hcircumflex.sc" horiz-adv-x="535" 
d="M295 730h42l68 -152h-37l-55 121l-81 -121h-37zM108 497h39l-24 -229h295l24 229h39l-52 -497h-39l24 232h-295l-24 -232h-39z" />
    <glyph glyph-name="hcircumflex.ss01" horiz-adv-x="491" 
d="M140 854h44l72 -111h-39l-58 79l-77 -79h-38zM125 726h38l-37 -358q9 24 24 46.5t36 39t47 26.5t57 10q43 0 72 -14.5t45.5 -40t21.5 -59.5t1 -72l-32 -304h-38l32 305q3 31 -1.5 58.5t-18 48t-36.5 32.5t-56 12q-37 0 -66.5 -17t-50 -43t-32.5 -57t-15 -59l-29 -280h-38
z" />
    <glyph glyph-name="hungarumlaut.case" horiz-adv-x="336" 
d="M189 854h50l-88 -111h-36zM312 854h51l-89 -111h-36z" />
    <glyph glyph-name="i.loclTRK" horiz-adv-x="195" 
d="M135 599q-14 0 -23 9t-9 24q0 17 10.5 28.5t28.5 11.5q15 0 23.5 -9.5t8.5 -23.5q0 -17 -10 -28.5t-29 -11.5zM112 -2q-28 0 -42.5 19.5t-9.5 61.5l42 403h39l-42 -398q-3 -27 4.5 -41t30.5 -14l-4 -29q-2 0 -6.5 -1t-11.5 -1z" />
    <glyph glyph-name="i.loclTRK.ss01" horiz-adv-x="192" 
d="M136 599q-14 0 -23 9t-9 24q0 17 10.5 28.5t28.5 11.5q15 0 23.5 -9.5t8.5 -23.5q0 -17 -10 -28.5t-29 -11.5zM103 482h38l-51 -482h-38z" />
    <glyph glyph-name="i.sc" horiz-adv-x="200" 
d="M108 497h39l-52 -497h-39z" />
    <glyph glyph-name="i.sc.loclTRK" horiz-adv-x="200" 
d="M140 614q-14 0 -23 9t-9 24q0 17 10.5 28.5t28.5 11.5q15 0 23.5 -9.5t8.5 -23.5q0 -17 -10 -28.5t-29 -11.5zM108 497h39l-52 -497h-39z" />
    <glyph glyph-name="i.ss01" horiz-adv-x="192" 
d="M136 599q-14 0 -23 9t-9 24q0 17 10.5 28.5t28.5 11.5q15 0 23.5 -9.5t8.5 -23.5q0 -17 -10 -28.5t-29 -11.5zM103 482h38l-51 -482h-38z" />
    <glyph glyph-name="iacute.sc" horiz-adv-x="200" 
d="M194 730h48l-108 -152h-36zM108 497h39l-52 -497h-39z" />
    <glyph glyph-name="iacute.ss01" horiz-adv-x="192" 
d="M190 715h48l-108 -152h-36zM103 482h38l-51 -482h-38z" />
    <glyph glyph-name="ibreve.sc" horiz-adv-x="200" 
d="M137 590q-50 0 -72 29.5t-16 86.5h33q-4 -44 11 -63t47 -19q67 -2 76 82h33q-6 -56 -35 -86t-77 -30zM108 497h39l-52 -497h-39z" />
    <glyph glyph-name="ibreve.ss01" horiz-adv-x="192" 
d="M133 575q-50 0 -72 29.5t-16 86.5h33q-4 -44 11 -63t47 -19q67 -2 76 82h33q-6 -56 -35 -86t-77 -30zM103 482h38l-51 -482h-38z" />
    <glyph glyph-name="icircumflex.sc" horiz-adv-x="200" 
d="M129 730h42l68 -152h-37l-55 121l-81 -121h-37zM108 497h39l-52 -497h-39z" />
    <glyph glyph-name="icircumflex.ss01" horiz-adv-x="192" 
d="M124 715h42l68 -152h-37l-55 121l-81 -121h-37zM103 482h38l-51 -482h-38z" />
    <glyph glyph-name="idieresis.sc" horiz-adv-x="200" 
d="M64 614q-31 0 -31 32q0 16 10 27t27 11q15 0 23.5 -9t8.5 -22q0 -17 -10 -28t-28 -11zM214 614q-14 0 -22.5 8.5t-8.5 23.5q0 16 10.5 27t27.5 11q14 0 22.5 -9t8.5 -22q0 -17 -10 -28t-28 -11zM108 497h39l-52 -497h-39z" />
    <glyph glyph-name="idieresis.ss01" horiz-adv-x="192" 
d="M60 599q-31 0 -31 32q0 16 10 27t27 11q15 0 23.5 -9t8.5 -22q0 -17 -10 -28t-28 -11zM210 599q-14 0 -22.5 8.5t-8.5 23.5q0 16 10.5 27t27.5 11q14 0 22.5 -9t8.5 -22q0 -17 -10 -28t-28 -11zM103 482h38l-51 -482h-38z" />
    <glyph glyph-name="igrave.sc" horiz-adv-x="200" 
d="M44 730h46l65 -152h-35zM108 497h39l-52 -497h-39z" />
    <glyph glyph-name="igrave.ss01" horiz-adv-x="192" 
d="M40 715h46l65 -152h-35zM103 482h38l-51 -482h-38z" />
    <glyph glyph-name="ij.sc" horiz-adv-x="564" 
d="M108 497h39l-52 -497h-39zM321 -11q-41 0 -70.5 17t-45.5 43l29 26q14 -21 37 -36t53 -15q54 0 82 29.5t34 84.5l37 359h40l-38 -356q-8 -75 -47 -113.5t-111 -38.5z" />
    <glyph glyph-name="ij.ss01" horiz-adv-x="388" 
d="M136 599q-14 0 -23 9t-9 24q0 17 10.5 28.5t28.5 11.5q15 0 23.5 -9.5t8.5 -23.5q0 -17 -10 -28.5t-29 -11.5zM330 599q-14 0 -23 9t-9 24q0 17 10.5 28.5t28.5 11.5q15 0 23.5 -9.5t8.5 -23.5q0 -17 -10 -28.5t-29 -11.5zM103 482h38l-51 -482h-38zM130 -247
q-20 0 -34 3.5t-23 8.5q-11 5 -19 12l15 29q7 -6 16 -10q8 -4 19.5 -7t26.5 -3q47 0 73.5 29t33.5 97l60 570h38l-60 -571q-8 -78 -43.5 -118t-102.5 -40z" />
    <glyph glyph-name="ijacute" horiz-adv-x="406" 
d="M189 715h48l-108 -152h-36zM386 715h48l-108 -152h-36zM133 -247q-20 0 -34 3.5t-24 8.5q-11 5 -19 12l15 29q7 -6 17 -10q8 -4 19.5 -7t26.5 -3q47 0 73.5 29t33.5 97l60 570h37l-59 -571q-9 -78 -44 -118t-102 -40zM112 -2q-28 0 -42.5 19.5t-9.5 61.5l42 403h39
l-42 -398q-3 -27 4.5 -41t30.5 -14l-4 -29q-2 0 -6.5 -1t-11.5 -1z" />
    <glyph glyph-name="imacron.sc" horiz-adv-x="200" 
d="M36 669h219l-3 -33h-220zM108 497h39l-52 -497h-39z" />
    <glyph glyph-name="imacron.ss01" horiz-adv-x="192" 
d="M32 654h219l-3 -33h-220zM103 482h38l-51 -482h-38z" />
    <glyph glyph-name="iogonek.sc" horiz-adv-x="200" 
d="M47 -138q12 0 20 3.5t16 9.5l13 -22q-9 -8 -23.5 -14.5t-33.5 -6.5q-32 0 -50 16.5t-18 48.5q0 33 22.5 63.5t63.5 48.5l51 488h39l-52 -497q-38 -10 -63 -36.5t-25 -57.5q0 -44 40 -44z" />
    <glyph glyph-name="iogonek.ss01" horiz-adv-x="192" 
d="M143 672q15 0 23.5 -9.5t8.5 -23.5q0 -17 -10 -28.5t-29 -11.5q-14 0 -23 9t-9 24q0 17 10.5 28.5t28.5 11.5zM90 0q-38 -10 -63 -36.5t-25 -57.5q0 -44 40 -44q12 0 20 3.5t16 9.5l13 -22q-9 -8 -23.5 -14.5t-33.5 -6.5q-32 0 -50 16.5t-18 48.5q0 34 23 64t64 49
l50 472h38z" />
    <glyph glyph-name="itilde.sc" horiz-adv-x="200" 
d="M24 609q-5 10 -5 26q0 27 17.5 45t48.5 18q18 0 32.5 -8.5t27.5 -18.5t26.5 -18.5t29.5 -8.5q31 0 31 37q0 14 -4 19h34q3 -9 3 -24q0 -29 -16.5 -47t-46.5 -18q-21 0 -37 8.5t-28.5 18.5t-24 18.5t-25.5 8.5q-16 0 -25.5 -9.5t-9.5 -26.5q0 -5 1 -10t3 -10h-32zM108 497
h39l-52 -497h-39z" />
    <glyph glyph-name="itilde.ss01" horiz-adv-x="192" 
d="M20 594q-5 10 -5 26q0 27 17.5 45t48.5 18q18 0 32.5 -8.5t27.5 -18.5t26.5 -18.5t29.5 -8.5q31 0 31 37q0 14 -4 19h34q3 -9 3 -24q0 -29 -16.5 -47t-46.5 -18q-21 0 -37 8.5t-28.5 18.5t-24 18.5t-25.5 8.5q-16 0 -25.5 -9.5t-9.5 -26.5q0 -5 1 -10t3 -10h-32zM103 482
h38l-51 -482h-38z" />
    <glyph glyph-name="j.sc" horiz-adv-x="364" 
d="M121 -11q-41 0 -70.5 17t-45.5 43l29 26q14 -21 37 -36t53 -15q54 0 82 29.5t34 84.5l37 359h40l-38 -356q-8 -75 -47 -113.5t-111 -38.5z" />
    <glyph glyph-name="jcircumflex.sc" horiz-adv-x="364" 
d="M291 730h42l68 -152h-37l-55 121l-81 -121h-37zM121 -11q-41 0 -70.5 17t-45.5 43l29 26q14 -21 37 -36t53 -15q54 0 82 29.5t34 84.5l37 359h40l-38 -356q-8 -75 -47 -113.5t-111 -38.5z" />
    <glyph glyph-name="k.sc" horiz-adv-x="490" 
d="M453 34l-4 -35q-3 0 -11 -0.5t-16 -0.5q-29 0 -46.5 17t-30 43t-23 55.5t-26.5 55.5t-41.5 43t-66.5 17h-69l-24 -229h-39l52 497h39l-25 -235h81q30 0 64 13t64.5 41.5t53 73t29.5 107.5h38q-10 -97 -59 -162.5t-121 -91.5q37 -16 57 -51t34 -70t29 -61.5t42 -26.5h19z
" />
    <glyph glyph-name="k.ss01" horiz-adv-x="450" 
d="M344 75q14 -23 27.5 -33.5t38.5 -10.5h9l-4 -30q-2 -1 -5 -2q-7 -1 -13 -1q-37 0 -54 16.5t-34 46.5l-114 198l-91 -86l-17 -173h-38l76 726h38l-54 -504l273 260h49l-210 -199z" />
    <glyph glyph-name="kgreenlandic.sc" horiz-adv-x="490" 
d="M453 34l-4 -35q-3 0 -11 -0.5t-16 -0.5q-29 0 -46.5 17t-30 43t-23 55.5t-26.5 55.5t-41.5 43t-66.5 17h-69l-24 -229h-39l52 497h39l-25 -235h81q30 0 64 13t64.5 41.5t53 73t29.5 107.5h38q-10 -97 -59 -162.5t-121 -91.5q37 -16 57 -51t34 -70t29 -61.5t42 -26.5h19z
" />
    <glyph glyph-name="kgreenlandic.ss01" horiz-adv-x="450" 
d="M344 75q14 -23 27.5 -33.5t38.5 -10.5h9l-4 -30q-2 -1 -5 -2q-7 -1 -13 -1q-37 0 -54 16.5t-34 46.5l-114 198l-91 -86l-17 -173h-38l50 482h38l-28 -260l273 260h49l-210 -199z" />
    <glyph glyph-name="l.sc" horiz-adv-x="406" 
d="M108 497h39l-49 -462h265l-4 -35h-303z" />
    <glyph glyph-name="lacute.sc" horiz-adv-x="406" 
d="M198 730h48l-108 -152h-36zM108 497h39l-49 -462h265l-4 -35h-303z" />
    <glyph glyph-name="lcaron.sc" horiz-adv-x="430" 
d="M271 382q40 21 44 56q-31 6 -31 35q0 17 10 27.5t27 10.5q14 0 24.5 -10.5t10.5 -31.5q0 -36 -22.5 -66.5t-51.5 -41.5zM108 497h38l-48 -463h265l-4 -34h-303z" />
    <glyph glyph-name="ldot.sc" horiz-adv-x="430" 
d="M108 497h39l-49 -462h265l-4 -35h-303zM317 234q-15 0 -24 8.5t-9 24.5q0 17 10 27.5t27 10.5q14 0 23 -8.5t9 -24.5q0 -17 -9.5 -27.5t-26.5 -10.5z" />
    <glyph glyph-name="lslash.sc" horiz-adv-x="418" 
d="M375 35l-4 -35h-304l22 207l-49 -28l-13 28l66 38l26 252h39l-24 -229l87 50l13 -29l-104 -59l-20 -195h265z" />
    <glyph glyph-name="m.sc" horiz-adv-x="625" 
d="M108 497h45l149 -379l226 379h43l-52 -497h-37l46 432l-10 -18l-207 -344h-30l-136 349l-6 19l-46 -438h-37z" />
    <glyph glyph-name="m.ss01" horiz-adv-x="802" 
d="M97 397q4 36 -4.5 46.5t-30.5 10.5l3 29q2 0 7 1t12 1q29 0 40.5 -19t8.5 -57l-5 -46q9 25 23.5 48t35.5 40.5t47.5 28t59.5 10.5q71 0 102.5 -38t35.5 -96q8 25 23 49t37 43t49.5 30.5t59.5 11.5q44 0 73 -14t45 -39t21 -59t0 -74l-32 -304h-38l32 303q8 72 -17.5 112.5
t-92.5 40.5q-34 0 -62.5 -15.5t-49.5 -41t-34 -58t-16 -65.5l-29 -276h-38l32 303q3 32 -1.5 59.5t-18 48.5t-36 33t-55.5 12q-37 0 -65.5 -17t-49 -43t-32.5 -57t-15 -60l-29 -279h-38z" />
    <glyph glyph-name="macron.case" horiz-adv-x="338" 
d="M117 809h224l-4 -34h-223z" />
    <glyph glyph-name="n.sc" horiz-adv-x="533" 
d="M108 497h38l242 -420l8 -14l45 434h38l-52 -497h-36l-245 424l-7 14l-46 -438h-37z" />
    <glyph glyph-name="n.ss01" horiz-adv-x="498" 
d="M97 398q4 36 -4.5 46.5t-30.5 10.5l3 29q4 1 9 1h10q29 0 40.5 -18.5t8.5 -56.5l-5 -43q22 59 66.5 92t102.5 33q76 0 112 -49t27 -137l-32 -306h-38l32 305q8 72 -20.5 112.5t-91.5 40.5q-33 0 -61.5 -14t-50 -38t-35 -56.5t-17.5 -69.5l-29 -280h-38z" />
    <glyph glyph-name="nacute.sc" horiz-adv-x="533" 
d="M364 730h48l-108 -152h-36zM108 497h38l242 -420l8 -14l45 434h38l-52 -497h-36l-245 424l-7 14l-46 -438h-37z" />
    <glyph glyph-name="nacute.ss01" horiz-adv-x="498" 
d="M343 715h48l-108 -152h-36zM97 398q4 36 -4.5 46.5t-30.5 10.5l3 29q4 1 9 1h10q29 0 40.5 -18.5t8.5 -56.5l-5 -43q22 59 66.5 92t102.5 33q76 0 112 -49t27 -137l-32 -306h-38l32 305q8 72 -20.5 112.5t-91.5 40.5q-33 0 -61.5 -14t-50 -38t-35 -56.5t-17.5 -69.5
l-29 -280h-38z" />
    <glyph glyph-name="napostrophe.sc" horiz-adv-x="607" 
d="M54 581q15 11 27.5 24.5t13.5 33.5q-20 0 -30.5 10t-10.5 26t10 26t26 10q17 0 27.5 -12t10.5 -33q0 -44 -20 -68.5t-41 -37.5zM156 497h39l242 -420l7 -14l46 434h37l-52 -497h-35l-245 424l-8 14l-46 -438h-37z" />
    <glyph glyph-name="napostrophe.ss01" horiz-adv-x="558" 
d="M37 573q18 8 30 23t14 36q-17 0 -26 9t-9 23q0 18 11 29t27 11q34 0 34 -40q0 -36 -18 -67.5t-53 -45.5zM157 398q4 36 -4.5 46.5t-30.5 10.5l3 29q4 1 9 1h10q29 0 40 -18.5t9 -56.5l-5 -43q22 59 66.5 92t102.5 33q76 0 112 -49t27 -137l-32 -306h-38l32 305
q8 72 -20.5 112.5t-91.5 40.5q-33 0 -61.5 -14t-50 -38t-35 -56.5t-17.5 -69.5l-29 -280h-38z" />
    <glyph glyph-name="ncaron.sc" horiz-adv-x="533" 
d="M216 730h35l57 -121l80 121h37l-100 -152h-41zM108 497h38l242 -420l8 -14l45 434h38l-52 -497h-36l-245 424l-7 14l-46 -438h-37z" />
    <glyph glyph-name="ncaron.ss01" horiz-adv-x="498" 
d="M195 715h35l57 -121l80 121h37l-100 -152h-41zM97 398q4 36 -4.5 46.5t-30.5 10.5l3 29q4 1 9 1h10q29 0 40.5 -18.5t8.5 -56.5l-5 -43q22 59 66.5 92t102.5 33q76 0 112 -49t27 -137l-32 -306h-38l32 305q8 72 -20.5 112.5t-91.5 40.5q-33 0 -61.5 -14t-50 -38
t-35 -56.5t-17.5 -69.5l-29 -280h-38z" />
    <glyph glyph-name="nine.dnom" horiz-adv-x="361" 
d="M161 387q57 0 90.5 -39.5t33.5 -111.5q0 -52 -10 -96t-31 -76t-52.5 -50.5t-73.5 -18.5q-73 0 -98 53l27 18q22 -41 74 -41q56 0 90 45t40 128q-25 -29 -55.5 -42.5t-62.5 -13.5q-48 0 -78 28.5t-30 76.5q0 66 39 103t97 37zM138 172q37 0 65.5 17t48.5 42q0 66 -27 96.5
t-67 30.5q-47 0 -73.5 -29.5t-26.5 -77.5q0 -38 23 -58.5t57 -20.5z" />
    <glyph glyph-name="nine.numr" horiz-adv-x="361" 
d="M161 706q57 0 90.5 -40t33.5 -112q0 -51 -10 -95t-31 -76.5t-52.5 -50.5t-73.5 -18q-73 0 -98 53l27 18q22 -41 74 -41q56 0 90 45t40 128q-25 -29 -55.5 -42.5t-62.5 -13.5q-48 0 -78 28.5t-30 76.5q0 66 39 103t97 37zM138 490q37 0 65.5 17.5t48.5 42.5q0 66 -27 96.5
t-67 30.5q-47 0 -73.5 -29.5t-26.5 -77.5q0 -38 23 -59t57 -21z" />
    <glyph glyph-name="nine.osf" horiz-adv-x="508" 
d="M259 506q97 0 147 -67.5t50 -198.5q0 -218 -67.5 -332t-201.5 -114q-50 0 -93.5 18.5t-66.5 63.5l30 21q22 -38 56.5 -54t77.5 -16q104 0 161 86.5t66 254.5q-41 -57 -90.5 -80.5t-104.5 -23.5q-81 0 -131.5 51t-50.5 146q0 55 16.5 100t45.5 77.5t69 50t87 17.5z
M232 100q57 0 106.5 29t81.5 82v24q0 118 -42.5 178t-120.5 60q-37 0 -69.5 -15t-56.5 -42.5t-38 -66t-14 -85.5q0 -80 40.5 -122t112.5 -42z" />
    <glyph glyph-name="nine.sc" horiz-adv-x="452" 
d="M236 508q83 0 127 -53t44 -153q0 -152 -58 -232.5t-170 -80.5q-45 0 -81 15.5t-56 51.5l29 21q18 -32 47 -44t64 -12q174 0 186 241q-33 -41 -75.5 -58t-87.5 -17q-70 0 -111.5 37t-41.5 105q0 40 13.5 73t37.5 56.5t58 36.5t75 13zM215 219q45 0 86.5 21.5t67.5 57.5v2
q0 88 -35.5 132t-98.5 44q-65 0 -105 -39t-40 -104q0 -55 32.5 -84.5t92.5 -29.5z" />
    <glyph glyph-name="nine.sinf" horiz-adv-x="344" 
d="M161 251q57 0 90.5 -40t33.5 -112q0 -51 -10 -95t-31 -76.5t-52.5 -50.5t-73.5 -18q-73 0 -98 53l27 18q22 -41 74 -41q56 0 90 45t40 128q-25 -29 -55.5 -42.5t-62.5 -13.5q-48 0 -78 28.5t-30 76.5q0 66 39 103t97 37zM138 35q37 0 65.5 17.5t48.5 42.5q0 66 -27 96.5
t-67 30.5q-47 0 -73.5 -29.5t-26.5 -77.5q0 -38 23 -59t57 -21z" />
    <glyph glyph-name="nine.sups" horiz-adv-x="361" 
d="M161 771q57 0 90.5 -40t33.5 -112q0 -51 -10 -95t-31 -76.5t-52.5 -50.5t-73.5 -18q-73 0 -98 53l27 18q22 -41 74 -41q56 0 90 45t40 128q-25 -29 -55.5 -42.5t-62.5 -13.5q-48 0 -78 28.5t-30 76.5q0 66 39 103t97 37zM138 555q37 0 65.5 17.5t48.5 42.5q0 66 -27 96.5
t-67 30.5q-47 0 -73.5 -29.5t-26.5 -77.5q0 -38 23 -59t57 -21z" />
    <glyph glyph-name="ntilde.sc" horiz-adv-x="533" 
d="M194 609q-5 10 -5 26q0 27 17.5 45t48.5 18q18 0 32.5 -8.5t27.5 -18.5t26.5 -18.5t29.5 -8.5q31 0 31 37q0 14 -4 19h34q3 -9 3 -24q0 -29 -16.5 -47t-46.5 -18q-21 0 -37 8.5t-28.5 18.5t-24 18.5t-25.5 8.5q-16 0 -25.5 -9.5t-9.5 -26.5q0 -5 1 -10t3 -10h-32z
M108 497h38l242 -420l8 -14l45 434h38l-52 -497h-36l-245 424l-7 14l-46 -438h-37z" />
    <glyph glyph-name="ntilde.ss01" horiz-adv-x="498" 
d="M173 594q-5 10 -5 26q0 27 17.5 45t48.5 18q18 0 32.5 -8.5t27.5 -18.5t26.5 -18.5t29.5 -8.5q31 0 31 37q0 14 -4 19h34q3 -9 3 -24q0 -29 -16.5 -47t-46.5 -18q-21 0 -37 8.5t-28.5 18.5t-24 18.5t-25.5 8.5q-16 0 -25.5 -9.5t-9.5 -26.5q0 -5 1 -10t3 -10h-32zM97 398
q4 36 -4.5 46.5t-30.5 10.5l3 29q4 1 9 1h10q29 0 40.5 -18.5t8.5 -56.5l-5 -43q22 59 66.5 92t102.5 33q76 0 112 -49t27 -137l-32 -306h-38l32 305q8 72 -20.5 112.5t-91.5 40.5q-33 0 -61.5 -14t-50 -38t-35 -56.5t-17.5 -69.5l-29 -280h-38z" />
    <glyph glyph-name="o.sc" horiz-adv-x="553" 
d="M258 -11q-40 0 -78 12t-68 38t-48 69t-18 104q0 80 21.5 136.5t56.5 92t80.5 51.5t93.5 16q40 0 78 -12t67.5 -38.5t47.5 -69t18 -104.5q0 -80 -21 -136t-56.5 -91.5t-80.5 -51.5t-93 -16zM262 22q39 0 75.5 14t65 44.5t46 80t17.5 120.5q0 53 -14 90t-38 60t-55 33.5
t-64 10.5q-39 0 -76 -14t-66.5 -45.5t-47 -80.5t-17.5 -120q0 -52 14.5 -89t39 -60t56 -33.5t64.5 -10.5z" />
    <glyph glyph-name="oacute.sc" horiz-adv-x="553" 
d="M370 726h48l-108 -152h-36zM258 -11q-40 0 -78 12t-68 38t-48 69t-18 104q0 80 21.5 136.5t56.5 92t80.5 51.5t93.5 16q40 0 78 -12t67.5 -38.5t47.5 -69t18 -104.5q0 -80 -21 -136t-56.5 -91.5t-80.5 -51.5t-93 -16zM262 22q39 0 75.5 14t65 44.5t46 80t17.5 120.5
q0 53 -14 90t-38 60t-55 33.5t-64 10.5q-39 0 -76 -14t-66.5 -45.5t-47 -80.5t-17.5 -120q0 -52 14.5 -89t39 -60t56 -33.5t64.5 -10.5z" />
    </font>
</defs>
</svg>
