<?xml version="1.0" standalone="no"?>
<!DOCTYPE svg PUBLIC "-//W3C//DTD SVG 1.1//EN" "http://www.w3.org/Graphics/SVG/1.1/DTD/svg11.dtd" >
<svg xmlns="http://www.w3.org/2000/svg" xmlns:xlink="http://www.w3.org/1999/xlink" version="1.1">
<metadata>
Created by FontForge 20170731 at Wed Jul  3 11:38:59 2019
 By Aleksey,,,
Copyright (c) 2017 by Daniel Hernandez. All rights reserved.
</metadata>
<defs>
<font id="AndesNeueAlt2-Blackit" horiz-adv-x="0" >
  <font-face 
    font-family="AndesNeue Alt 2 Black it"
    font-weight="900"
    font-style="italic"
    font-stretch="normal"
    units-per-em="1000"
    panose-1="0 0 10 0 0 0 0 0 0 0"
    ascent="750"
    descent="-250"
    x-height="482"
    cap-height="700"
    bbox="-678 -287 1393 1055"
    underline-thickness="50"
    underline-position="-150"
    slope="-6"
    unicode-range="U+000D-FB02"
  />
<missing-glyph horiz-adv-x="530" 
d="M480 730v-730h-430v730h430zM265 408l150 287h-300zM90 657v-584l153 292zM440 73v584l-152 -292zM115 35h300l-150 287z" />
    <glyph glyph-name="fi" unicode="fi" horiz-adv-x="621" 
d="M500 540q-45 0 -69 27t-24 65q0 45 30 78t83 33q45 0 67.5 -27.5t22.5 -65.5q0 -45 -29.5 -77.5t-80.5 -32.5zM542 187q-4 -32 3 -43t39 -11l-14 -129q-10 -3 -21 -5q-10 -1 -22.5 -2.5t-27.5 -1.5q-79 0 -109.5 36t-22.5 115l21 203h-120l-37 -349h-170l37 349h-68
l14 133h67l3 25q13 111 71.5 168t160.5 57q14 0 29.5 -2.5t29.5 -7.5l-35 -145q-10 3 -23 3q-55 0 -61 -54l-5 -44h292z" />
    <glyph glyph-name="fl" unicode="fl" horiz-adv-x="617" 
d="M541 176q-3 -27 7 -35t36 -8l-14 -129q-13 -4 -34 -6.5t-41 -2.5q-32 0 -58 7t-43 24.5t-24 46t-3 71.5l21 205h-120l-37 -349h-170l37 349h-68l14 133h67l3 27q12 110 70.5 166.5t159.5 56.5q39 0 61 -10l-35 -145q-7 3 -22 3q-27 0 -43 -13.5t-20 -47.5l-4 -37h121
l26 244h170z" />
    <glyph glyph-name=".notdef" horiz-adv-x="530" 
d="M480 730v-730h-430v730h430zM265 408l150 287h-300zM90 657v-584l153 292zM440 73v584l-152 -292zM115 35h300l-150 287z" />
    <glyph glyph-name=".null" 
 />
    <glyph glyph-name=".null" 
 />
    <glyph glyph-name="nonmarkingreturn" unicode="&#xd;" horiz-adv-x="250" 
 />
    <glyph glyph-name="space" unicode=" " horiz-adv-x="179" 
 />
    <glyph glyph-name="exclam" unicode="!" horiz-adv-x="281" 
d="M97 700h189l-73 -456h-144zM118 -6q-41 0 -65.5 23.5t-24.5 65.5t26.5 72t74.5 30q40 0 64.5 -24.5t24.5 -65.5q0 -42 -25.5 -71.5t-74.5 -29.5z" />
    <glyph glyph-name="quotedbl" unicode="&#x22;" horiz-adv-x="376" 
d="M94 801h133l-31 -241h-122zM269 801h132l-30 -241h-122z" />
    <glyph glyph-name="numbersign" unicode="#" horiz-adv-x="613" 
d="M91 107h-84l31 90h83l38 124h-73l30 90h71l26 81h119l-25 -81h97l26 81h118l-25 -81h87l-30 -90h-85l-39 -124h77l-31 -90h-74l-18 -58h-119l17 58h-97l-17 -58h-120zM338 197l38 124h-97l-39 -124h98z" />
    <glyph glyph-name="dollar" unicode="$" horiz-adv-x="611" 
d="M225 5q-75 6 -133 37.5t-84 72.5l114 117q27 -36 72.5 -59t110.5 -23q103 0 102 60q-1 31 -28.5 43t-89.5 24q-37 8 -77 18.5t-73 31t-54 54t-21 85.5q0 98 63.5 152t168.5 67l12 111h118l-12 -113q41 -4 78.5 -18.5t63 -42t34 -70t-9.5 -102.5h-152q17 54 -8.5 75
t-82.5 21q-53 0 -76.5 -14.5t-23.5 -44.5q0 -29 26 -41t84 -23q39 -7 80 -18t75 -32t56 -54t22 -86q0 -50 -17 -88.5t-47.5 -66t-74.5 -45t-98 -25.5l-13 -118h-118z" />
    <glyph glyph-name="percent" unicode="%" horiz-adv-x="647" 
d="M170 423q-59 0 -87.5 34t-28.5 87q0 33 9.5 61.5t27.5 49.5t45.5 33.5t63.5 12.5q63 0 92 -34.5t29 -87.5q0 -33 -9.5 -61.5t-28 -49.5t-47 -33t-66.5 -12zM420 700h110l-278 -700h-110zM179 501q26 0 36 20t10 54q0 43 -34 43q-25 0 -35.5 -17.5t-10.5 -52.5
q0 -47 34 -47zM467 -2q-60 0 -88.5 34t-28.5 87q0 33 9 61.5t27.5 49.5t46 33.5t63.5 12.5q62 0 91.5 -34.5t29.5 -87.5q0 -33 -9.5 -61.5t-28.5 -49.5t-47 -33t-65 -12zM475 76q25 0 35.5 19.5t10.5 53.5q0 44 -34 44q-26 0 -36 -18.5t-10 -52.5q0 -46 34 -46z" />
    <glyph glyph-name="ampersand" unicode="&#x26;" horiz-adv-x="698" 
d="M595 -10q-56 25 -105 56q-88 -65 -216 -65q-55 0 -99.5 13.5t-76 39t-49 63t-17.5 85.5q0 74 35 131t100 101q-8 22 -12.5 44.5t-4.5 43.5q0 50 18 92.5t50 73.5t75.5 48.5t95.5 17.5q91 0 142 -47t51 -126q0 -28 -7 -55t-18 -43h-139q6 9 10 26.5t4 32.5q0 29 -13 45.5
t-39 16.5q-71 0 -71 -89q0 -43 21 -84t61 -84q16 -17 36 -38t46 -44q12 39 18 92h143q-12 -100 -49 -176q19 -11 39.5 -22t43.5 -20zM302 115q43 0 75 13q-25 22 -47.5 43.5t-42.5 44.5q-14 15 -30 36.5t-33 47.5q-15 -21 -21 -39.5t-6 -42.5q0 -48 27.5 -75.5t77.5 -27.5z
" />
    <glyph glyph-name="quotesingle" unicode="'" horiz-adv-x="202" 
d="M94 801h133l-31 -241h-122z" />
    <glyph glyph-name="parenleft" unicode="(" horiz-adv-x="320" 
d="M131 -244q-24 38 -43.5 85.5t-34 101.5t-22.5 112t-8 116q0 85 15.5 168t43.5 159t67 142t87 116l131 -62q-54 -70 -88 -138t-53.5 -134t-26.5 -128.5t-7 -121.5q0 -100 20.5 -186t62.5 -168z" />
    <glyph glyph-name="parenright" unicode=")" horiz-adv-x="327" 
d="M196 756q24 -38 43.5 -85.5t34 -101.5t22.5 -112t8 -116q0 -85 -15.5 -168t-43.5 -159t-67 -142t-87 -116l-131 62q54 70 88 138t53.5 134t26.5 128.5t7 121.5q0 100 -20.5 186t-62.5 168z" />
    <glyph glyph-name="asterisk" unicode="*" horiz-adv-x="471" 
d="M250 482l-76 -107l-86 73l106 96l-132 1l22 123l123 -45l-60 124l112 46l34 -137l82 115l88 -68l-103 -98l122 -3l-20 -118l-126 35l57 -119l-112 -39z" />
    <glyph glyph-name="plus" unicode="+" horiz-adv-x="455" 
d="M161 212h-139l13 120h139l14 136h120l-14 -136h146l-13 -120h-146l-16 -158h-120z" />
    <glyph glyph-name="comma" unicode="," horiz-adv-x="255" 
d="M7 -105q37 19 60 42.5t28 56.5q-40 5 -62 28.5t-22 64.5q0 43 29 70.5t72 27.5q45 0 71.5 -29.5t26.5 -83.5q0 -30 -7 -64t-25 -67t-50.5 -63t-83.5 -52z" />
    <glyph glyph-name="hyphen" unicode="-" horiz-adv-x="380" 
d="M54 331h292l-13 -120h-292z" />
    <glyph glyph-name="period" unicode="." horiz-adv-x="242" 
d="M99 -6q-41 0 -65.5 23.5t-24.5 65.5t26.5 72t74.5 30q40 0 64.5 -24.5t24.5 -65.5q0 -42 -25.5 -71.5t-74.5 -29.5z" />
    <glyph glyph-name="slash" unicode="/" horiz-adv-x="417" 
d="M339 706h113l-372 -935h-114z" />
    <glyph glyph-name="zero" unicode="0" horiz-adv-x="662" 
d="M303 -6q-67 0 -117 23t-82 63.5t-48 96t-16 121.5q0 85 21 159t63.5 129.5t106 87.5t147.5 32q69 0 119.5 -23t83.5 -64t48.5 -96.5t15.5 -121.5q0 -85 -20.5 -159t-62.5 -129t-106.5 -87t-152.5 -32zM319 147q36 0 62 18t42.5 51t24.5 79.5t8 103.5q0 75 -23 114.5
t-71 39.5q-35 0 -60 -18.5t-41.5 -52t-24 -80.5t-7.5 -104q0 -74 22 -112.5t68 -38.5z" />
    <glyph glyph-name="one" unicode="1" horiz-adv-x="422" 
d="M208 464q-7 -7 -17 -14.5t-28.5 -13.5t-48.5 -10t-77 -4l15 165q88 0 132 33.5t49 79.5h173l-74 -700h-173z" />
    <glyph glyph-name="two" unicode="2" horiz-adv-x="586" 
d="M10 48q7 69 37.5 117t72.5 83t89.5 61.5t87.5 51.5t66.5 53.5t26.5 66.5q0 34 -18.5 53t-56.5 19q-45 0 -66.5 -23.5t-26.5 -61.5h-168q3 45 20 87.5t50.5 76t84.5 54t122 20.5q60 0 104 -14.5t73.5 -41t43.5 -63.5t14 -82q0 -66 -24 -114t-60.5 -82.5t-79 -58t-79.5 -42
t-62 -34t-27 -33.5v-2h312l-15 -139h-526z" />
    <glyph glyph-name="three" unicode="3" horiz-adv-x="597" 
d="M283 -6q-109 0 -180.5 35t-97.5 113l134 84q20 -45 52 -67t82 -22t77.5 21t27.5 61q0 27 -20 47t-71 20h-78l13 124h70q57 0 79.5 23t22.5 56q0 29 -20 47t-56 18q-38 0 -62 -20.5t-26 -55.5h-171q6 61 30 104t61 70.5t84.5 40.5t101.5 13q53 0 97.5 -12t76 -35.5t49 -57
t17.5 -76.5q0 -59 -33 -102t-87 -60q31 -8 51.5 -23.5t33 -36t17.5 -43.5t5 -46q0 -51 -21 -92t-58.5 -69.5t-89 -43.5t-111.5 -15z" />
    <glyph glyph-name="four" unicode="4" horiz-adv-x="590" 
d="M296 129h-291l14 139l278 432h183l-276 -432h119l15 139h160l-16 -139h96l-14 -139h-95l-14 -129h-173z" />
    <glyph glyph-name="five" unicode="5" horiz-adv-x="601" 
d="M278 -8q-57 0 -100 11.5t-74.5 32t-51.5 49t-31 62.5l155 89q22 -53 52.5 -71.5t68.5 -18.5q49 0 76.5 26.5t27.5 74.5q0 38 -20.5 56t-52.5 18q-36 0 -60.5 -13.5t-45.5 -31.5h-165l45 424h482l-17 -154h-326l-12 -120q26 23 65 35.5t84 12.5q97 0 148.5 -53.5
t51.5 -146.5q0 -65 -19 -117t-56.5 -89t-94 -56.5t-130.5 -19.5z" />
    <glyph glyph-name="six" unicode="6" horiz-adv-x="617" 
d="M392 431q52 0 89 -14t60 -39t34 -58.5t11 -71.5q0 -51 -17.5 -97t-53.5 -81t-90.5 -55.5t-129.5 -20.5q-66 0 -114 21t-79.5 59.5t-46.5 93t-15 121.5q0 91 21 167.5t63.5 132t107 86.5t151.5 31q38 0 75 -9t67 -29.5t48.5 -55t18.5 -85.5q0 -26 -3.5 -38.5t-7.5 -23.5
h-156q2 8 3.5 16.5t1.5 17.5q0 32 -19 47t-46 15t-51.5 -9.5t-44 -32t-33 -59t-19.5 -90.5q40 33 84.5 47t90.5 14zM323 140q45 0 71 21.5t26 58.5q0 32 -19 50t-61 18q-35 0 -66 -13t-57 -36q9 -56 36.5 -77.5t69.5 -21.5z" />
    <glyph glyph-name="seven" unicode="7" horiz-adv-x="535" 
d="M78 0q8 79 30.5 143.5t52 117t61.5 94.5t60.5 76t49 61t25.5 50h-309l17 158h506l-8 -72q-6 -58 -29.5 -105t-55 -90t-68 -86.5t-69 -94t-57 -112t-32.5 -140.5h-174z" />
    <glyph glyph-name="eight" unicode="8" horiz-adv-x="601" 
d="M482 379q42 -24 64.5 -62.5t22.5 -91.5q0 -54 -21 -97t-59.5 -72.5t-93 -45.5t-121.5 -16q-118 0 -184.5 45t-66.5 131q0 63 32 110.5t85 74.5q-24 24 -40 56t-16 73q0 50 20 91t55 70t84.5 45t107.5 16q52 0 93.5 -12t71 -34.5t45.5 -54t16 -70.5q0 -49 -23 -90t-72 -66
zM336 571q-35 0 -58 -19.5t-23 -54.5q0 -27 17 -41t40 -21l51 -15q22 15 31.5 38.5t9.5 46.5q0 32 -19.5 49t-48.5 17zM290 129q47 0 76.5 19.5t29.5 57.5q0 26 -13.5 39.5t-43.5 22.5l-97 29q-23 -17 -34.5 -40.5t-11.5 -50.5q0 -77 94 -77z" />
    <glyph glyph-name="nine" unicode="9" horiz-adv-x="617" 
d="M327 706q137 0 205.5 -80.5t68.5 -220.5q0 -96 -24 -172.5t-69 -129.5t-108 -81t-141 -28q-91 0 -149 31t-83 85l122 99q24 -39 51.5 -54t71.5 -15q58 0 99 39t54 134q-33 -31 -72.5 -46.5t-93.5 -15.5q-98 0 -151 55t-53 149q0 53 17 98.5t51 79.5t85 53.5t119 19.5z
M220 471q0 -35 19.5 -57t64.5 -22q33 0 62 13.5t60 39.5q-10 63 -41 89.5t-69 26.5q-44 0 -70 -24.5t-26 -65.5z" />
    <glyph glyph-name="colon" unicode=":" horiz-adv-x="278" 
d="M163 412q-41 0 -65.5 23.5t-24.5 65.5t26.5 72t74.5 30q40 0 64.5 -24.5t24.5 -65.5q0 -42 -25.5 -71.5t-74.5 -29.5zM118 -6q-41 0 -65.5 23.5t-24.5 65.5t26.5 72t74.5 30q40 0 64.5 -24.5t24.5 -65.5q0 -42 -25.5 -71.5t-74.5 -29.5z" />
    <glyph glyph-name="semicolon" unicode=";" horiz-adv-x="259" 
d="M134 309q-42 0 -66 25.5t-24 63.5q0 50 31 79t74 29q45 0 68.5 -26t23.5 -64q0 -50 -31 -78.5t-76 -28.5zM7 -105q37 19 60 42.5t28 56.5q-40 5 -62 28.5t-22 64.5q0 43 29 70.5t72 27.5q45 0 71.5 -29.5t26.5 -83.5q0 -30 -7 -64t-25 -67t-50.5 -63t-83.5 -52z" />
    <glyph glyph-name="less" unicode="&#x3c;" horiz-adv-x="424" 
d="M18 189l14 131l379 196l-15 -145l-223 -118l199 -114l-16 -145z" />
    <glyph glyph-name="equal" unicode="=" horiz-adv-x="498" 
d="M67 429h404l-13 -120h-404zM44 211h404l-12 -120h-404z" />
    <glyph glyph-name="greater" unicode="&#x3e;" horiz-adv-x="424" 
d="M32 142l223 116l-199 116l16 145l338 -196l-14 -131l-379 -195z" />
    <glyph glyph-name="question" unicode="?" horiz-adv-x="500" 
d="M164 225q5 56 29.5 90.5t52.5 61t50.5 52t22.5 62.5q0 26 -12.5 38t-34.5 12q-52 0 -58 -59h-168q10 116 77.5 173t172.5 57q56 0 94.5 -16.5t63 -43t35.5 -60t11 -68.5q0 -44 -12 -76.5t-30.5 -58t-40.5 -46t-41.5 -39t-34 -37.5t-17.5 -42h-160zM226 -6
q-41 0 -65.5 23.5t-24.5 65.5t26.5 72t74.5 30q40 0 64.5 -24.5t24.5 -65.5q0 -42 -25.5 -71.5t-74.5 -29.5z" />
    <glyph glyph-name="at" unicode="@" horiz-adv-x="905" 
d="M714 461q-36 -94 -55.5 -146.5t-29 -79.5t-11.5 -37.5t-2 -20.5q0 -16 8 -22t17 -6q22 0 42 16.5t35.5 45t24.5 66t9 80.5q0 93 -53.5 141.5t-155.5 48.5q-76 0 -143.5 -30.5t-118 -82.5t-80 -121t-29.5 -147q0 -109 59 -169t165 -60q137 0 255 85l68 -100
q-66 -57 -154.5 -88t-186.5 -31q-81 0 -147 24.5t-112.5 69.5t-71.5 109.5t-25 145.5q0 111 42.5 207.5t117 168t175 112.5t216.5 41q75 0 134.5 -21t101 -61t64 -97t22.5 -128t-22.5 -133.5t-61.5 -108.5t-92 -72.5t-113 -26.5q-104 0 -116 76q-17 -35 -51 -55t-83 -20
q-59 0 -91.5 36.5t-32.5 103.5q0 60 19 112t53 90t79.5 60t98.5 22q29 0 53 -6.5t49 -21.5l10 31h120zM416 152q14 0 27.5 7t27.5 26t29.5 53t32.5 87q-8 7 -19 11.5t-30 4.5q-22 0 -41 -12.5t-33 -33t-22.5 -46.5t-8.5 -54q0 -23 10 -33t27 -10z" />
    <glyph glyph-name="A" unicode="A" horiz-adv-x="660" 
d="M433 150h-224l-62 -150h-179l323 700h176l175 -700h-179zM407 280l-47 236l-97 -236h144z" />
    <glyph glyph-name="B" unicode="B" horiz-adv-x="621" 
d="M480 384q49 -15 81 -51t32 -105q0 -61 -22.5 -104.5t-61 -71t-89.5 -40t-108 -12.5h-272l74 700h274q95 0 151.5 -37t56.5 -117q0 -60 -32 -102t-84 -60zM325 419q54 0 75.5 24t21.5 65q0 32 -19 50.5t-63 18.5h-68l-17 -158h70zM314 122q48 0 77.5 23.5t29.5 77.5
q0 41 -24 59t-63 18h-91l-19 -178h90z" />
    <glyph glyph-name="C" unicode="C" horiz-adv-x="616" 
d="M315 -13q-130 0 -203 80t-73 228q0 96 24.5 173.5t69.5 131.5t109.5 83.5t144.5 29.5q46 0 88 -11t73.5 -35t50.5 -61t19 -88q0 -42 -15 -87h-161q5 11 7 24.5t2 24.5q0 37 -21 58t-62 21q-69 0 -108.5 -63.5t-39.5 -181.5q0 -86 32 -131.5t94 -45.5q48 0 77 19t57 59
l108 -80q-41 -69 -106 -108.5t-167 -39.5z" />
    <glyph glyph-name="D" unicode="D" horiz-adv-x="676" 
d="M114 700h225q69 0 128 -16t102 -52t67.5 -93.5t24.5 -140.5q0 -111 -32.5 -187.5t-85.5 -123t-120 -67t-136 -20.5h-247zM284 138q91 0 144.5 61.5t53.5 181.5q0 40 -8.5 73.5t-28.5 57.5t-52.5 37t-80.5 13h-42l-44 -424h58z" />
    <glyph glyph-name="E" unicode="E" horiz-adv-x="551" 
d="M114 700h446l-15 -142h-275l-14 -134h240l-15 -143h-240l-15 -138h277l-15 -143h-448z" />
    <glyph glyph-name="F" unicode="F" horiz-adv-x="537" 
d="M114 700h447l-17 -157h-276l-16 -150h231l-16 -155h-231l-25 -238h-171z" />
    <glyph glyph-name="G" unicode="G" horiz-adv-x="656" 
d="M327 -12q-143 0 -216 80.5t-73 226.5q0 92 25 169t72.5 132.5t115 86t152.5 30.5q49 0 92 -12.5t75 -36.5t50.5 -60t18.5 -84q0 -21 -3.5 -38t-8.5 -38h-163l2.5 12.5t1.5 23.5q0 33 -20.5 56t-67.5 23q-78 0 -119.5 -66t-41.5 -187q0 -88 32 -129t95 -41q42 0 70 8
t45 19l7 70h-113l14 133h262l-30 -286q-12 -12 -36 -28t-58.5 -30.5t-79.5 -24t-100 -9.5z" />
    <glyph glyph-name="H" unicode="H" horiz-adv-x="670" 
d="M111 700h171l-29 -268h204l29 268h171l-74 -700h-171l29 275h-204l-29 -275h-171z" />
    <glyph glyph-name="I" unicode="I" horiz-adv-x="301" 
d="M114 700h171l-74 -700h-171z" />
    <glyph glyph-name="J" unicode="J" horiz-adv-x="483" 
d="M165 -6q-71 0 -118.5 23.5t-68.5 59.5l114 119q14 -20 30.5 -32.5t45.5 -12.5q34 0 57 21.5t29 77.5l47 450h171l-47 -449q-14 -136 -82 -196.5t-178 -60.5z" />
    <glyph glyph-name="K" unicode="K" horiz-adv-x="660" 
d="M469 336q28 -25 42.5 -59t26.5 -65t26.5 -52.5t41.5 -21.5h30l-15 -138q-11 -4 -33 -6.5t-48 -2.5q-52 0 -82 21t-48.5 52t-29.5 68t-25 68t-36 52t-61 21h-18l-29 -273h-171l74 700h171l-30 -281h19q37 0 71 14.5t62.5 48t48.5 87t28 131.5h168q-13 -118 -58 -213
t-125 -151z" />
    <glyph glyph-name="L" unicode="L" horiz-adv-x="523" 
d="M114 700h171l-58 -544h276l-16 -156h-447z" />
    <glyph glyph-name="M" unicode="M" horiz-adv-x="834" 
d="M114 700h167l143 -422l238 422h156l-74 -700h-158l44 421l-14 -33l-163 -305h-113l-91 305l-6 31l-44 -419h-159z" />
    <glyph glyph-name="N" unicode="N" horiz-adv-x="680" 
d="M114 700h152l177 -371l16 -47l44 418h161l-74 -700h-152l-182 377l-10 35l-44 -412h-162z" />
    <glyph glyph-name="O" unicode="O" horiz-adv-x="698" 
d="M322 -13q-61 0 -113 18.5t-90 57t-59.5 97t-21.5 138.5q0 102 29 179.5t78 130t115 79t139 26.5q61 0 113 -19t90 -57.5t59.5 -97.5t21.5 -139q0 -102 -29 -179.5t-78 -129.5t-114.5 -78t-139.5 -26zM341 140q33 0 62 13.5t50.5 43t35 76.5t16.5 115q2 48 -7 80.5t-26 53
t-40 29.5t-50 9q-32 0 -61 -13t-51 -42t-36 -76t-17 -115q-2 -47 7 -80t26 -54t40.5 -30.5t50.5 -9.5z" />
    <glyph glyph-name="P" unicode="P" horiz-adv-x="614" 
d="M114 700h249q119 0 188 -53t69 -164q0 -70 -23.5 -121t-63.5 -84.5t-91.5 -49.5t-107.5 -16h-101l-22 -212h-171zM317 347q63 0 96 29.5t33 88.5q0 45 -27 72t-85 27h-64l-23 -217h70z" />
    <glyph glyph-name="Q" unicode="Q" horiz-adv-x="719" 
d="M683 400q0 -85 -20.5 -153.5t-56 -118.5t-84.5 -82.5t-106 -47.5q7 -38 44 -59.5t106 -21.5l-16 -153q-84 0 -140.5 21.5t-91 55t-49 74t-14.5 78.5q-48 9 -88 32.5t-68.5 61t-44.5 90.5t-16 121q0 102 29 179.5t78 130t115 79t139 26.5q61 0 113 -19t90 -57.5
t59.5 -97.5t21.5 -139zM505 388q2 48 -7 80.5t-26 53t-40 29.5t-50 9q-32 0 -61 -13t-51 -42t-36 -76t-17 -115q-2 -47 7 -80t26 -54t40.5 -30.5t50.5 -9.5q33 0 62 13.5t50.5 43t35 76.5t16.5 115z" />
    <glyph glyph-name="R" unicode="R" horiz-adv-x="652" 
d="M520 -9q-51 0 -81 19t-48 47t-28 61.5t-21.5 61.5t-28 47t-47.5 19h-29l-26 -246h-171l74 700h252q129 0 189.5 -50t60.5 -156q0 -34 -9.5 -66t-28.5 -58t-46.5 -46t-63.5 -30q18 -10 27.5 -35.5t20.5 -52.5t28 -47.5t50 -20.5h23l-15 -138q-14 -5 -37 -7t-45 -2z
M313 374q134 0 134 105q0 41 -26 63t-77 22h-74l-20 -190h63z" />
    <glyph glyph-name="S" unicode="S" horiz-adv-x="604" 
d="M277 -13q-90 0 -163 27t-113 84l115 117q37 -45 80.5 -64t100.5 -19q51 0 77.5 15.5t26.5 50.5q0 17 -7 29t-23.5 21t-43 17.5t-66.5 17.5q-37 9 -72.5 23t-64 37t-46 57.5t-17.5 84.5q0 105 74 166.5t211 61.5q48 0 92 -8.5t77.5 -29t53.5 -53.5t20 -82q0 -29 -3.5 -42
t-7.5 -25h-152q2 8 3.5 13.5t1.5 18.5q0 34 -27.5 48.5t-68.5 14.5q-102 0 -102 -67q0 -19 9 -31t27 -21t44 -16t60 -15q36 -9 72 -23t64.5 -37.5t46.5 -59t18 -87.5q0 -109 -77 -166.5t-220 -57.5z" />
    <glyph glyph-name="T" unicode="T" horiz-adv-x="574" 
d="M239 546h-196l17 154h554l-17 -154h-187l-57 -546h-171z" />
    <glyph glyph-name="U" unicode="U" horiz-adv-x="659" 
d="M305 -6q-55 0 -103 15t-82 50t-50 91.5t-7 140.5l44 409h171l-44 -423q-3 -25 -1 -48.5t12 -41.5t28.5 -29t48.5 -11t50.5 11t33.5 29t19.5 41.5t9.5 48.5l44 423h171l-43 -409q-9 -84 -36.5 -140.5t-68.5 -91.5t-91.5 -50t-105.5 -15z" />
    <glyph glyph-name="V" unicode="V" horiz-adv-x="640" 
d="M44 700h191l84 -511l193 511h182l-313 -700h-173z" />
    <glyph glyph-name="W" unicode="W" horiz-adv-x="928" 
d="M52 700h195l25 -521l168 521h156l51 -521l142 521h185l-243 -700h-198l-45 460l-145 -460h-196z" />
    <glyph glyph-name="X" unicode="X" horiz-adv-x="632" 
d="M427 360l188 -360h-195l-109 235l-156 -235h-189l263 357l-174 343h195l99 -216l139 216h189z" />
    <glyph glyph-name="Y" unicode="Y" horiz-adv-x="629" 
d="M233 275l-188 425h197l95 -272l153 272h193l-279 -421l-29 -279h-171z" />
    <glyph glyph-name="Z" unicode="Z" horiz-adv-x="597" 
d="M592 565l-370 -424h335l-15 -141h-536l14 135l374 424h-322l15 141h520z" />
    <glyph glyph-name="bracketleft" unicode="[" horiz-adv-x="396" 
d="M111 726h314l-14 -139h-161l-73 -692h161l-15 -139h-314z" />
    <glyph glyph-name="backslash" unicode="\" horiz-adv-x="461" 
d="M63 706h158l176 -935h-158z" />
    <glyph glyph-name="bracketright" unicode="]" horiz-adv-x="396" 
d="M-16 -105h162l73 692h-162l14 139h316l-102 -970h-316z" />
    <glyph glyph-name="asciicircum" unicode="^" horiz-adv-x="406" 
d="M165 739h182l62 -239h-145l-21 118l-45 -118h-145z" />
    <glyph glyph-name="underscore" unicode="_" horiz-adv-x="478" 
d="M6 0h416l-13 -120h-416z" />
    <glyph glyph-name="grave" unicode="`" horiz-adv-x="273" 
d="M54 747h194l54 -211h-139z" />
    <glyph glyph-name="a" unicode="a" horiz-adv-x="563" 
d="M185 -14q-75 0 -118.5 56t-43.5 159q0 67 17.5 121.5t48 93.5t72.5 60t91 21q81 0 111 -53l4 38h160l-33 -315q-4 -39 33 -39l-13 -128q-12 -5 -32.5 -7.5t-45.5 -2.5q-49 0 -73.5 20t-27.5 56h-1q-23 -38 -58 -59t-91 -21zM257 128q28 0 46.5 18t26.5 46l11 105
q-1 9 -4.5 19t-10.5 19t-18 14.5t-27 5.5q-43 0 -64 -40t-21 -99q0 -88 61 -88z" />
    <glyph glyph-name="b" unicode="b" horiz-adv-x="553" 
d="M297 -14q-41 0 -70.5 12t-51.5 41l-4 -39h-148l76 726h170l-29 -282q6 8 16.5 17t26.5 17t37.5 13.5t50.5 5.5q76 0 118 -52.5t42 -153.5q0 -67 -17 -123t-47.5 -96.5t-73.5 -63t-96 -22.5zM274 128q39 0 61.5 37t22.5 103q0 52 -17 69.5t-43 17.5q-29 0 -48.5 -19
t-27.5 -44l-12 -107q6 -26 22 -41.5t42 -15.5z" />
    <glyph glyph-name="c" unicode="c" horiz-adv-x="487" 
d="M238 -14q-103 0 -159.5 58.5t-56.5 162.5q0 68 19.5 121.5t54 91t82.5 57.5t105 20q89 0 139.5 -36.5t50.5 -111.5q0 -23 -5 -45t-13 -36l-143 -1q4 8 6.5 20t2.5 23q0 45 -47 45q-20 0 -35.5 -11t-25.5 -30.5t-15 -45.5t-5 -56q0 -45 19 -64.5t54 -19.5q33 0 54.5 14
t41.5 40l93 -89q-32 -48 -87.5 -77.5t-129.5 -29.5z" />
    <glyph glyph-name="d" unicode="d" horiz-adv-x="570" 
d="M185 -14q-75 0 -118.5 53t-43.5 163q0 74 18 129.5t49 92t72.5 55t88.5 18.5q41 0 67 -13t38 -30l29 272h170l-59 -559q-4 -39 33 -39l-13 -129q-12 -4 -32.5 -6.5t-45.5 -2.5q-49 0 -73 20t-28 56h-1q-23 -38 -58.5 -59t-92.5 -21zM257 128q29 0 48 18t27 46l11 105
q-1 9 -4.5 19t-11 19t-18.5 14.5t-28 5.5q-22 0 -38.5 -11.5t-26.5 -31.5t-15 -46.5t-5 -55.5q0 -45 16.5 -63.5t44.5 -18.5z" />
    <glyph glyph-name="e" unicode="e" horiz-adv-x="493" 
d="M271 124q33 0 59.5 14.5t44.5 37.5l88 -83q-38 -53 -98 -81t-137 -26q-98 3 -152.5 59.5t-54.5 163.5q0 66 21 119.5t57.5 91t85.5 57.5t104 20q93 0 139 -37t46 -103q0 -172 -278 -178q7 -27 25 -41t50 -14zM285 361q-31 0 -53.5 -23t-32.5 -65q65 3 91 17.5t26 40.5
q0 30 -31 30z" />
    <glyph glyph-name="f" unicode="f" horiz-adv-x="360" 
d="M98 349h-68l14 133h67l3 27q6 52 25.5 93.5t49.5 70t69.5 44t84.5 15.5q42 0 73 -10.5t51 -26.5l-68 -129q-8 6 -19.5 10t-26.5 4q-29 0 -46.5 -18t-22.5 -60l-2 -20h92l-14 -133h-92l-37 -349h-170z" />
    <glyph glyph-name="g" unicode="g" horiz-adv-x="546" 
d="M206 -240q-68 0 -121 19.5t-92 76.5l108 98q21 -31 44.5 -45t64.5 -14q92 0 104 113l3 35q-22 -27 -51.5 -42t-80.5 -15q-75 0 -118.5 56t-43.5 160q0 70 16.5 124.5t46.5 92.5t71 58t90 20q76 0 123 -55l5 40h149l-50 -476q-6 -60 -28.5 -105.5t-58 -77t-81.5 -47.5
t-100 -16zM258 128q26 0 46 18t28 46l11 105q-1 9 -4.5 19t-11 19t-18.5 14.5t-28 5.5q-22 0 -38.5 -11.5t-26.5 -30.5t-15 -44t-5 -52q0 -45 16.5 -67t45.5 -22z" />
    <glyph glyph-name="h" unicode="h" horiz-adv-x="552" 
d="M439 -5q-34 0 -60 7.5t-42.5 25t-23.5 46.5t-2 72l15 135q3 30 -10 46t-33 16q-31 0 -44.5 -19.5t-15.5 -38.5l-30 -285h-170l76 726h170l-28 -271q17 17 45 29.5t65 12.5q45 0 75 -15t47.5 -41.5t23 -61.5t1.5 -75l-13 -128q-2 -24 5.5 -33.5t37.5 -9.5l-14 -129
q-11 -4 -33 -6.5t-42 -2.5z" />
    <glyph glyph-name="i" unicode="i" horiz-adv-x="291" 
d="M170 540q-45 0 -69 27t-24 65q0 45 30 78t83 33q45 0 67.5 -27.5t22.5 -65.5q0 -45 -29.5 -77.5t-80.5 -32.5zM169 -5q-79 0 -109.5 36t-22.5 115l35 336h171l-31 -295q-4 -32 3 -43t39 -11l-14 -129q-10 -3 -21 -5q-10 -1 -22.5 -2.5t-27.5 -1.5z" />
    <glyph glyph-name="j" unicode="j" horiz-adv-x="270" 
d="M170 540q-45 0 -69 27t-24 65q0 45 30 78t83 33q45 0 67.5 -27.5t22.5 -65.5q0 -45 -29.5 -77.5t-80.5 -32.5zM-37 -247q-27 0 -45.5 5.5t-30.5 11.5q-13 7 -21 17l63 126q3 -2 8 -4q4 -2 9.5 -3t13.5 -1q31 0 46.5 24t19.5 62l52 491h169l-52 -499q-5 -50 -21 -92
t-44.5 -73t-69.5 -48t-97 -17z" />
    <glyph glyph-name="k" unicode="k" horiz-adv-x="542" 
d="M400 246q21 -15 30 -34.5t16.5 -37t17.5 -29.5t34 -12h11l-14 -133q-13 -5 -32.5 -8t-36.5 -3q-40 0 -63.5 14t-37.5 35t-22.5 46t-18 46t-25 35t-43.5 14h-4l-19 -179h-170l76 726h170l-42 -405h17q49 0 82 42t41 119h159q-3 -31 -10.5 -63.5t-21.5 -63t-37 -58.5
t-57 -51z" />
    <glyph glyph-name="l" unicode="l" horiz-adv-x="287" 
d="M165 -5q-32 0 -58 7t-43 24.5t-24 46t-3 71.5l61 582h170l-57 -550q-3 -27 7 -35t36 -8l-14 -129q-13 -4 -34 -6.5t-41 -2.5z" />
    <glyph glyph-name="m" unicode="m" horiz-adv-x="838" 
d="M715 -8q-68 0 -98 31t-22 104l17 155q3 29 -9.5 45t-33.5 16q-22 0 -36.5 -16t-17.5 -45l-30 -282h-170l30 283q3 27 -10.5 43.5t-36.5 16.5q-22 0 -37.5 -16.5t-18.5 -43.5l-30 -283h-170l33 312q2 21 -6 30t-28 9l13 129q13 4 34.5 6.5t42.5 2.5q39 0 66 -15t37 -47h1
q20 32 56.5 51t77.5 19q47 0 81 -19t52 -58q9 14 21 27.5t29 24.5t39 18t50 7q78 0 115.5 -50.5t27.5 -142.5l-14 -135q-4 -39 34 -39l-14 -129q-11 -4 -32.5 -6.5t-42.5 -2.5z" />
    <glyph glyph-name="n" unicode="n" horiz-adv-x="570" 
d="M447 -8q-68 0 -97.5 31t-21.5 104l17 155q3 29 -10.5 45t-35.5 16q-23 0 -38.5 -16t-18.5 -45l-30 -282h-170l33 312q2 21 -6 30t-28 9l13 129q13 4 34 6.5t46 2.5q47 0 70.5 -19t29.5 -43h1q6 11 17.5 23t28 22.5t39 17.5t50.5 7q80 0 118.5 -50.5t28.5 -142.5l-14 -135
q-4 -39 33 -39l-14 -129q-11 -4 -32.5 -6.5t-42.5 -2.5z" />
    <glyph glyph-name="o" unicode="o" horiz-adv-x="537" 
d="M244 -14q-56 0 -97.5 16.5t-69.5 46.5t-41.5 71t-13.5 89q0 61 18 113.5t52.5 91.5t85.5 61t116 22q56 0 97.5 -16.5t69.5 -46.5t41.5 -70.5t13.5 -88.5q0 -60 -18 -113t-52.5 -92t-85.5 -61.5t-116 -22.5zM256 128q47 0 67 39t20 97q0 42 -15.5 66.5t-47.5 24.5
q-43 0 -64 -39t-21 -99q0 -41 14.5 -65t46.5 -24z" />
    <glyph glyph-name="p" unicode="p" horiz-adv-x="572" 
d="M75 314q4 39 -34 39l14 129q11 4 32 6.5t46 2.5q46 0 72.5 -19t28.5 -57h1q24 37 58 59.5t93 22.5q75 0 119.5 -55.5t44.5 -159.5q0 -67 -17.5 -121.5t-48.5 -93.5t-73.5 -60t-93.5 -21q-42 0 -65.5 9.5t-37.5 22.5l-26 -247h-170zM291 128q42 0 64 38.5t22 105.5
q0 47 -17 65t-43 18q-29 0 -48.5 -18.5t-27.5 -44.5l-12 -107q9 -57 62 -57z" />
    <glyph glyph-name="q" unicode="q" horiz-adv-x="551" 
d="M312 36q-3 -4 -11 -12.5t-22.5 -17t-36.5 -14.5t-53 -6q-32 0 -62 12.5t-53 39t-37 67.5t-14 97q0 74 19 129.5t51 92t73 55t85 18.5q51 0 81 -21t43 -45l6 51h148l-77 -726h-170zM259 128q18 0 31.5 8t22.5 18.5t13.5 21t5.5 15.5l11 107q-1 8 -4.5 18t-11 18.5
t-18.5 14.5t-28 6q-41 0 -63 -35.5t-22 -101.5q0 -50 18 -70t45 -20z" />
    <glyph glyph-name="r" unicode="r" horiz-adv-x="400" 
d="M75 312q2 21 -6 30t-28 9l13 129q13 4 33.5 6.5t43.5 2.5q55 0 79 -22.5t22 -47.5h1q17 35 50.5 55t80.5 20q21 0 40.5 -5t27.5 -13l-72 -155q-10 6 -20.5 9t-26.5 3q-29 0 -49.5 -18t-25.5 -60l-26 -255h-170z" />
    <glyph glyph-name="s" unicode="s" horiz-adv-x="493" 
d="M216 -14q-24 0 -52 2.5t-57 10t-58 22t-55 37.5l89 119q37 -35 77 -48t88 -13q45 0 45 20q0 5 -3.5 9t-13 8t-26.5 8.5t-44 10.5q-31 8 -60.5 19t-52 29t-36.5 44.5t-14 63.5q0 77 60 123t175 46q90 0 141 -33.5t51 -98.5q0 -18 -5 -35t-10 -26h-154q2 5 4.5 12t2.5 18
q0 21 -13.5 28.5t-33.5 7.5q-53 0 -53 -35q0 -21 24.5 -29.5t81.5 -21.5q25 -6 50.5 -14t46.5 -23t34 -37.5t13 -57.5q0 -85 -65 -125.5t-177 -40.5z" />
    <glyph glyph-name="t" unicode="t" horiz-adv-x="432" 
d="M265 -6q-104 0 -147.5 52.5t-33.5 146.5l16 156h-77l14 133h81l14 141h166l-14 -141h145l-14 -133h-145l-14 -137q-3 -28 11 -47t46 -19q16 0 27.5 5t22.5 13l50 -126q-26 -20 -64.5 -32t-83.5 -12z" />
    <glyph glyph-name="u" unicode="u" horiz-adv-x="557" 
d="M174 -14q-75 0 -110 43t-26 131l34 322h170l-29 -276q-4 -35 6.5 -50.5t35.5 -15.5q29 0 44.5 20.5t18.5 52.5l28 269h170l-33 -315q-4 -39 33 -39l-13 -129q-12 -4 -33.5 -6.5t-42.5 -2.5q-53 0 -77 20.5t-26 55.5h-1q-25 -42 -60.5 -61t-88.5 -19z" />
    <glyph glyph-name="v" unicode="v" horiz-adv-x="501" 
d="M527 482l-217 -482h-169l-116 482h184l28 -220l8 -120l32 120l76 220h174z" />
    <glyph glyph-name="w" unicode="w" horiz-adv-x="767" 
d="M792 482l-189 -482h-184l-18 233l-5 113l-29 -108l-75 -238h-178l-87 482h183l16 -223l5 -119l30 119l62 223h183l16 -223l5 -119l29 119l63 223h173z" />
    <glyph glyph-name="x" unicode="x" horiz-adv-x="481" 
d="M335 250l125 -250h-177l-56 137l-84 -137h-170l173 244l-117 238h177l48 -130l77 130h173z" />
    <glyph glyph-name="y" unicode="y" horiz-adv-x="536" 
d="M187 -247q-77 0 -131 27.5t-80 80.5l115 88q20 -35 44 -48.5t62 -13.5q29 0 48.5 8t31.5 23t17.5 36t8.5 47l5 51q-46 -58 -140 -58q-148 0 -130 174l33 314h169l-28 -268q-4 -35 7.5 -50.5t35.5 -15.5q20 0 37.5 15t23.5 60l28 259h170l-50 -473q-13 -119 -79.5 -187.5
t-197.5 -68.5z" />
    <glyph glyph-name="z" unicode="z" horiz-adv-x="492" 
d="M457 354l-195 -111q32 -7 66.5 -24.5t63 -46t47 -69.5t18.5 -97q0 -60 -18 -107.5t-51 -79.5t-78.5 -49t-101.5 -17q-99 0 -154 45t-55 127q0 41 13 75t33.5 61t46.5 47.5t52 33.5q-18 2 -37 3.5t-40 1.5l12 110l176 92h-209l14 133h411zM310 -1q0 71 -66 109
q-52 -28 -73 -66t-21 -76q0 -36 21.5 -55t48.5 -19q17 0 33 6t29 18.5t20.5 33t7.5 49.5z" />
    <glyph glyph-name="braceleft" unicode="{" horiz-adv-x="358" 
d="M286 -234q-49 -8 -92 0t-74.5 34t-47 72t-8.5 114l12 120q4 36 -14.5 51.5t-40.5 15.5h-10l14 136h10q22 0 43.5 15.5t25.5 51.5l13 120q8 68 33 114t62 72t82 34t92 0l-15 -148q-45 15 -74.5 -14.5t-35.5 -87.5l-14 -130q-3 -26 -10 -43t-15 -28t-16.5 -16t-13.5 -7
q3 -1 10 -8t13 -19t10 -29.5t2 -39.5l-13 -130q-6 -58 17 -87.5t71 -14.5z" />
    <glyph glyph-name="bar" unicode="|" horiz-adv-x="262" 
d="M112 736h142l-104 -990h-142z" />
    <glyph glyph-name="braceright" unicode="}" horiz-adv-x="366" 
d="M80 716q49 8 92 0t74.5 -34t47 -72t8.5 -114l-12 -120q-4 -36 14.5 -51.5t40.5 -15.5h10l-14 -136h-10q-22 0 -43.5 -15.5t-25.5 -51.5l-13 -120q-7 -68 -32.5 -114t-62 -72t-82 -34t-92.5 0l15 148q45 -15 74.5 14.5t35.5 87.5l14 130q3 26 10 43t15 28t16.5 16t13.5 7
q-3 1 -10 8t-13 19t-10 29.5t-2 39.5l13 130q6 58 -17 87.5t-71 14.5z" />
    <glyph glyph-name="asciitilde" unicode="~" horiz-adv-x="481" 
d="M50 166q-3 6 -5 14q-2 7 -3.5 16.5t-1.5 22.5q0 24 7.5 46t22 39t36.5 27t51 10q27 0 50.5 -7.5t43.5 -16.5t37.5 -16.5t32.5 -7.5q13 0 18.5 9.5t5.5 21.5q0 8 -1.5 16t-3.5 15l-6 14h106q2 -7 4 -16q2 -8 3 -18t1 -21q0 -24 -7.5 -46.5t-22 -40t-36 -28t-48.5 -10.5
q-31 0 -55.5 7.5t-44 16t-34.5 16t-27 7.5q-14 0 -22.5 -8.5t-8.5 -25.5q0 -9 2 -15.5t4 -11.5q3 -5 6 -9h-104z" />
    <glyph glyph-name="exclamdown" unicode="&#xa1;" horiz-adv-x="275" 
d="M164 487q41 0 65.5 -23.5t24.5 -65.5t-26.5 -72t-74.5 -30q-40 0 -64.5 24.5t-24.5 65.5q0 42 25.5 71.5t74.5 29.5zM185 -219h-189l73 456h144z" />
    <glyph glyph-name="cent" unicode="&#xa2;" horiz-adv-x="508" 
d="M208 111q-81 15 -123 73.5t-42 146.5q0 59 18 106t48 82t70 57t83 30l10 94h92l-10 -92q24 -2 47 -10t43 -20.5t35.5 -28.5t23.5 -34l-134 -94q-3 13 -15.5 23t-29.5 12l-21 -199q23 2 44.5 16t35.5 34l99 -94q-13 -19 -33.5 -37.5t-45.5 -33t-51.5 -24t-50.5 -10.5
l-11 -108h-94zM261 453q-26 -11 -37.5 -40t-11.5 -69q0 -52 29 -74z" />
    <glyph glyph-name="sterling" unicode="&#xa3;" horiz-adv-x="612" 
d="M423 450q2 8 2.5 13t0.5 16q0 18 -7 29.5t-17.5 18t-23.5 8.5t-25 2q-54 0 -77 -28t-23 -67q0 -28 5 -48.5t11 -40.5h193l-11 -105h-163q-1 -34 -10 -56.5t-29 -45.5h322l-15 -147h-542l11 103q38 19 63 57.5t25 81.5v7h-75l11 105h43q-6 23 -11 48t-5 54q0 49 17 93.5
t52.5 78t91 53.5t131.5 20q47 0 90 -10.5t75.5 -31.5t51.5 -53t19 -76q0 -25 -3 -42t-10 -37h-168z" />
    <glyph glyph-name="currency" unicode="&#xa4;" horiz-adv-x="568" 
d="M22 168l85 79q-16 35 -16 81q0 32 10 61.5t27 55.5l-65 76l93 85l64 -76q46 25 100 25q51 0 93 -24l81 75l76 -85l-81 -75q8 -17 12 -38t4 -42q0 -65 -37 -121l61 -70l-93 -84l-62 70q-43 -23 -95 -23q-27 0 -52 5.5t-46 17.5l-83 -78zM295 265q42 0 61.5 26t19.5 62
q0 37 -20 55.5t-52 18.5q-40 0 -61.5 -26t-21.5 -63q0 -35 20.5 -54t53.5 -19z" />
    <glyph glyph-name="yen" unicode="&#xa5;" horiz-adv-x="672" 
d="M235 93h-148l11 105h149l5 47l2 3h-151l11 105h108l-154 347h193l99 -272l148 272h196l-231 -347h103l-11 -105h-144l2 -3l-5 -47h142l-11 -105h-142l-10 -93h-172z" />
    <glyph glyph-name="brokenbar" unicode="&#xa6;" horiz-adv-x="262" 
d="M112 736h142l-43 -412h-142zM52 165h142l-44 -419h-142z" />
    <glyph glyph-name="section" unicode="&#xa7;" horiz-adv-x="608" 
d="M227 -247q-93 0 -154.5 28t-90.5 73l115 117q25 -32 63.5 -52t98.5 -20q61 0 81 19.5t20 48.5q0 27 -23 40.5t-58 22.5t-75 18.5t-75 29.5t-58 54.5t-23 93.5q0 17 4 38t13 42t24 41t37 36q-22 18 -30.5 43.5t-8.5 55.5q0 47 22.5 87.5t60.5 71t88 48t106 17.5
q95 0 158.5 -35.5t83.5 -95.5l-121 -81q-14 28 -49 46.5t-73 18.5q-56 0 -79.5 -19t-23.5 -50q0 -28 23 -41.5t58 -22.5t75.5 -19t75.5 -30t58 -55t23 -95q0 -45 -14 -82t-40 -67q8 -15 11.5 -35.5t3.5 -42.5q0 -59 -22.5 -105t-63.5 -77.5t-97 -48t-124 -16.5zM391 165
q6 8 8.5 18t2.5 21q0 17 -7.5 28.5t-26.5 20.5t-51.5 17.5t-81.5 19.5q-16 -14 -16 -41q0 -15 7 -27t26 -21.5t52.5 -18t86.5 -17.5z" />
    <glyph glyph-name="dieresis" unicode="&#xa8;" horiz-adv-x="432" 
d="M130 530q-44 0 -66.5 25.5t-22.5 62.5q0 43 28.5 74.5t79.5 31.5q42 0 64 -26.5t22 -62.5q0 -43 -28.5 -74t-76.5 -31zM368 530q-44 0 -66.5 25.5t-22.5 62.5q0 43 28.5 74.5t79.5 31.5q42 0 64 -26.5t22 -62.5q0 -43 -28.5 -74t-76.5 -31z" />
    <glyph glyph-name="copyright" unicode="&#xa9;" horiz-adv-x="842" 
d="M401 -43q-79 0 -146 28.5t-115.5 78t-75.5 117t-27 146.5q0 101 35.5 182.5t94.5 139t137 89t163 31.5q79 0 146 -28.5t115.5 -78t75.5 -117t27 -146.5q0 -100 -35.5 -182t-94.5 -139.5t-137 -89t-163 -31.5zM413 65q62 0 118 22t98.5 63.5t68 102t25.5 137.5
q0 58 -20 107.5t-55.5 86t-84.5 57t-108 20.5q-61 0 -117.5 -22t-99 -63.5t-68 -102t-25.5 -137.5q0 -58 20 -107.5t55.5 -86t84.5 -57t108 -20.5zM413 136q-87 0 -133.5 52t-46.5 149q0 58 15.5 105t44 80.5t69 51.5t89.5 18q72 0 113.5 -31t41.5 -102q0 -18 -5 -43h-107
q3 12 3 24q0 17 -10 30t-38 13q-46 0 -68 -38.5t-22 -98.5q0 -54 19.5 -78t57.5 -24q28 0 48 9.5t42 28.5l52 -74q-23 -29 -64.5 -50.5t-100.5 -21.5z" />
    <glyph glyph-name="ordfeminine" unicode="&#xaa;" horiz-adv-x="363" 
d="M142 398q-45 0 -68.5 21t-23.5 56q0 98 132 98h47l2 23q3 26 -16 26q-20 0 -20 -19q0 -4 2 -6h-112q-2 3 -2.5 10t-0.5 13q0 50 38 75t107 25q66 0 98 -29t26 -88l-8 -84q-1 -15 17 -15l-10 -91q-10 -7 -27 -10.5t-34 -3.5q-26 0 -39 10.5t-18 30.5h-1
q-14 -21 -38.5 -31.5t-50.5 -10.5zM185 478q5 0 16 4t19 14l3 24h-31q-26 0 -26 -24q0 -18 19 -18z" />
    <glyph glyph-name="guillemotleft" unicode="&#xab;" horiz-adv-x="566" 
d="M27 197l14 135l183 143l73 -93l-135 -118l110 -117l-92 -93zM287 197l14 135l183 143l73 -93l-135 -118l110 -117l-92 -93z" />
    <glyph glyph-name="registered" unicode="&#xae;" horiz-adv-x="842" 
d="M401 -43q-79 0 -146 28.5t-115.5 78t-75.5 117t-27 146.5q0 101 35 182.5t94 139t137 89t164 31.5q79 0 146 -28.5t115.5 -78t75.5 -117t27 -146.5q0 -100 -34.5 -182t-93.5 -139.5t-137 -89t-165 -31.5zM413 65q62 0 118 22t98.5 63.5t68 102t25.5 137.5q0 58 -20 107.5
t-55.5 86t-84.5 57t-108 20.5q-61 0 -117.5 -22t-99 -63.5t-68 -102t-25.5 -137.5q0 -58 20 -107.5t55.5 -86t84.5 -57t108 -20.5zM544 149q-34 0 -53.5 11t-30 27.5t-15.5 35.5t-11.5 35.5t-16.5 27.5t-31 11h-12l-15 -141h-115l46 432h156q76 0 115 -27.5t39 -91.5
q0 -32 -10 -54t-24 -36.5t-28.5 -22t-23.5 -10.5q14 -16 20 -33.5t12 -32.5t15 -24.5t28 -9.5h18l-10 -92q-5 -1 -13 -2q-7 -2 -16.5 -2.5t-23.5 -0.5zM415 390q33 0 53.5 15t20.5 42q0 23 -14 33t-42 10h-38l-11 -100h31z" />
    <glyph glyph-name="macron" unicode="&#xaf;" horiz-adv-x="312" 
d="M48 702h312l-13 -124h-312z" />
    <glyph glyph-name="degree" unicode="&#xb0;" horiz-adv-x="306" 
d="M180 450q-63 0 -94 36t-31 89q0 69 40.5 109.5t106.5 40.5q60 0 91 -37t31 -89q0 -69 -40.5 -109t-103.5 -40zM185 538q23 0 37.5 14.5t14.5 39.5q0 18 -10.5 31t-31.5 13q-24 0 -38.5 -15t-14.5 -39q0 -18 10.5 -31t32.5 -13z" />
    <glyph glyph-name="plusminus" unicode="&#xb1;" horiz-adv-x="488" 
d="M190 310h-140l12 120h140l15 140h119l-15 -140h146l-12 -120h-146l-17 -154h-119zM23 120h416l-13 -120h-416z" />
    <glyph glyph-name="acute" unicode="&#xb4;" horiz-adv-x="275" 
d="M131 747h197l-157 -211h-140z" />
    <glyph glyph-name="paragraph" unicode="&#xb6;" horiz-adv-x="667" 
d="M312 220h-68q-50 0 -87.5 15t-62 42.5t-37 65.5t-12.5 84q0 59 16 108.5t47.5 86.5t78.5 57.5t108 20.5h351l-74 -700h-98l65 623h-87l-65 -623h-98z" />
    <glyph glyph-name="periodcentered" unicode="&#xb7;" horiz-adv-x="246" 
d="M130 260q-41 0 -65.5 23.5t-24.5 65.5t26.5 72t74.5 30q40 0 64.5 -24.5t24.5 -65.5q0 -42 -25.5 -71.5t-74.5 -29.5z" />
    <glyph glyph-name="cedilla" unicode="&#xb8;" horiz-adv-x="248" 
d="M67 -229q-38 0 -69 9.5t-45 26.5l55 69q8 -9 22.5 -15.5t30.5 -6.5q34 0 34 28q0 29 -66 34l39 87h92l-18 -40q29 -7 48 -25.5t19 -53.5q0 -53 -36.5 -83t-105.5 -30z" />
    <glyph glyph-name="ordmasculine" unicode="&#xba;" horiz-adv-x="357" 
d="M197 398q-73 0 -108 40.5t-35 100.5q0 37 11.5 69.5t34 57t55.5 38.5t76 14q36 0 62 -11t43 -30t25.5 -44.5t8.5 -54.5q0 -37 -11 -69.5t-32.5 -57t-54 -39t-75.5 -14.5zM207 499q25 0 34 21t9 54q0 16 -5.5 30t-24.5 14q-25 0 -35.5 -22.5t-10.5 -54.5q0 -16 6.5 -29
t26.5 -13z" />
    <glyph glyph-name="guillemotright" unicode="&#xbb;" horiz-adv-x="566" 
d="M14 147l136 117l-111 118l93 93l153 -143l-14 -135l-183 -143zM274 147l136 117l-111 118l93 93l153 -143l-14 -135l-183 -143z" />
    <glyph glyph-name="onequarter" unicode="&#xbc;" horiz-adv-x="836" 
d="M479 727h112l-289 -727h-112zM159 550q-14 -12 -38 -18.5t-56 -6.5l5 106q42 0 70 18t35 51h112l-40 -382h-112zM614 73h-177l8 77l131 232h119l-122 -212h63l8 73h102l-8 -73h49l-10 -97h-49l-7 -73h-114z" />
    <glyph glyph-name="onehalf" unicode="&#xbd;" horiz-adv-x="864" 
d="M479 727h112l-289 -727h-112zM159 550q-14 -12 -38 -18.5t-56 -6.5l5 106q42 0 70 18t35 51h112l-40 -382h-112zM484 34q4 33 21 57.5t40 44.5t49.5 35.5t48.5 29.5t36.5 27.5t14.5 28.5q0 12 -7.5 20t-27.5 8q-29 0 -38.5 -14t-11.5 -26h-103q3 27 14.5 52.5t32.5 45
t51.5 31.5t71.5 12q63 0 96.5 -27t33.5 -80q0 -46 -26.5 -78t-58.5 -53.5t-58.5 -34.5t-26.5 -21v-2h162l-9 -90h-309z" />
    <glyph glyph-name="threequarters" unicode="&#xbe;" horiz-adv-x="861" 
d="M504 727h112l-289 -727h-112zM131 315q-116 0 -143 78l90 55q13 -28 28 -36.5t34 -8.5q46 0 46 38q0 12 -8 20.5t-31 8.5h-40l8 78h31q26 0 35.5 9.5t9.5 25.5q0 26 -34 26q-17 0 -28.5 -7.5t-13.5 -22.5h-103q3 32 17.5 56t36.5 40t49.5 23.5t56.5 7.5q66 0 100 -28.5
t34 -73.5q0 -35 -16.5 -58t-42.5 -31q54 -17 54 -78q0 -57 -46.5 -89.5t-123.5 -32.5zM639 73h-177l8 77l131 232h119l-122 -212h63l8 73h102l-8 -73h49l-10 -97h-49l-7 -73h-114z" />
    <glyph glyph-name="questiondown" unicode="&#xbf;" horiz-adv-x="503" 
d="M280 481q41 0 65.5 -23.5t24.5 -65.5t-26.5 -72t-74.5 -30q-40 0 -64.5 24.5t-24.5 65.5q0 42 25.5 71.5t74.5 29.5zM342 250q-4 -56 -29 -90.5t-53 -61t-50.5 -52t-22.5 -62.5q0 -26 12.5 -38t34.5 -12q52 0 58 59h168q-10 -116 -77.5 -173t-172.5 -57q-55 0 -94 16.5
t-63.5 43t-35.5 60t-11 68.5q0 44 12 76.5t30.5 58t40.5 46t41.5 39t34 37.5t17.5 42h160z" />
    <glyph glyph-name="Agrave" unicode="&#xc0;" horiz-adv-x="660" 
d="M311 741l-116 171h197l59 -171h-140zM433 150h-224l-62 -150h-179l323 700h176l175 -700h-179zM407 280l-47 236l-97 -236h144z" />
    <glyph glyph-name="Aacute" unicode="&#xc1;" horiz-adv-x="660" 
d="M445 741h-146l95 171h204zM433 150h-224l-62 -150h-179l323 700h176l175 -700h-179zM407 280l-47 236l-97 -236h144z" />
    <glyph glyph-name="Acircumflex" unicode="&#xc2;" horiz-adv-x="660" 
d="M346 741h-145l105 171h182l70 -171h-145l-27 70zM433 150h-224l-62 -150h-179l323 700h176l175 -700h-179zM407 280l-47 236l-97 -236h144z" />
    <glyph glyph-name="Atilde" unicode="&#xc3;" horiz-adv-x="660" 
d="M208 741q-5 8 -7.5 23t-2.5 30q0 54 33.5 86t84.5 32q22 0 40.5 -6t35 -13.5t30.5 -14t26 -6.5q27 0 27 24q0 11 -4 16h105q5 -10 7 -24.5t2 -25.5q0 -56 -31.5 -88.5t-82.5 -32.5q-26 0 -46.5 6.5t-37 14t-29 13.5t-22.5 6q-28 0 -28 -24q0 -11 4 -16h-104zM433 150
h-224l-62 -150h-179l323 700h176l175 -700h-179zM407 280l-47 236l-97 -236h144z" />
    <glyph glyph-name="Adieresis" unicode="&#xc4;" horiz-adv-x="660" 
d="M242 738q-45 0 -67.5 25.5t-22.5 63.5q0 26 9 45.5t23.5 33t34 20.5t40.5 7q44 0 66 -26t22 -63q0 -52 -31 -79t-74 -27zM505 738q-45 0 -67.5 25.5t-22.5 62.5q0 51 32 79t75 28t65 -26t22 -63q0 -52 -31 -79t-73 -27zM433 150h-224l-62 -150h-179l323 700h176l175 -700
h-179zM407 280l-47 236l-97 -236h144z" />
    <glyph glyph-name="Aring" unicode="&#xc5;" horiz-adv-x="660" 
d="M382 718q-55 0 -85.5 34t-30.5 83q0 29 10 54t28.5 43.5t44 29t56.5 10.5q56 0 86.5 -34t30.5 -83q0 -29 -10 -54t-28.5 -43.5t-44.5 -29t-57 -10.5zM397 889q-20 0 -32 -14t-12 -35q0 -19 10.5 -29t27.5 -10q21 0 32.5 14.5t11.5 34.5q0 18 -10.5 28.5t-27.5 10.5z
M433 150h-224l-62 -150h-179l323 700h176l175 -700h-179zM407 280l-47 236l-97 -236h144z" />
    <glyph glyph-name="AE" unicode="&#xc6;" horiz-adv-x="860" 
d="M290 700h583l-16 -144h-342l36 -149h218l-15 -141h-167l28 -122h199l-15 -144h-336l-31 157h-209l-64 -157h-192zM403 291l-40 205l-82 -205h122z" />
    <glyph glyph-name="Ccedilla" unicode="&#xc7;" horiz-adv-x="616" 
d="M442 431q5 11 7 24.5t2 24.5q0 37 -21 58t-62 21q-69 0 -108.5 -63.5t-39.5 -181.5q0 -86 32 -131.5t94 -45.5q48 0 77 19t57 59l108 -80q-35 -59 -86.5 -96t-127.5 -48l-13 -28q29 -7 48 -25.5t19 -53.5q0 -53 -36.5 -83t-105.5 -30q-38 0 -69 9.5t-45 26.5l55 69
q8 -9 22.5 -15.5t30.5 -6.5q34 0 34 28q0 29 -66 34l33 73q-115 11 -178.5 89.5t-63.5 216.5q0 96 24.5 173.5t69.5 131.5t109.5 83.5t144.5 29.5q46 0 88 -11t73.5 -35t50.5 -61t19 -88q0 -42 -15 -87h-161z" />
    <glyph glyph-name="Egrave" unicode="&#xc8;" horiz-adv-x="551" 
d="M162 912h197l59 -171h-140zM114 700h446l-15 -142h-275l-14 -134h240l-15 -143h-240l-15 -138h277l-15 -143h-448z" />
    <glyph glyph-name="Eacute" unicode="&#xc9;" horiz-adv-x="551" 
d="M361 912h204l-153 -171h-146zM114 700h446l-15 -142h-275l-14 -134h240l-15 -143h-240l-15 -138h277l-15 -143h-448z" />
    <glyph glyph-name="Ecircumflex" unicode="&#xca;" horiz-adv-x="551" 
d="M273 912h182l70 -171h-145l-27 70l-40 -70h-145zM114 700h446l-15 -142h-275l-14 -134h240l-15 -143h-240l-15 -138h277l-15 -143h-448z" />
    <glyph glyph-name="Edieresis" unicode="&#xcb;" horiz-adv-x="551" 
d="M209 738q-45 0 -67.5 25.5t-22.5 63.5q0 26 9 45.5t23.5 33t34 20.5t40.5 7q44 0 66 -26t22 -63q0 -52 -31 -79t-74 -27zM472 738q-45 0 -67.5 25.5t-22.5 62.5q0 51 32 79t75 28t65 -26t22 -63q0 -52 -31 -79t-73 -27zM114 700h446l-15 -142h-275l-14 -134h240l-15 -143
h-240l-15 -138h277l-15 -143h-448z" />
    <glyph glyph-name="Igrave" unicode="&#xcc;" horiz-adv-x="301" 
d="M16 912h197l59 -171h-140zM114 700h171l-74 -700h-171z" />
    <glyph glyph-name="Iacute" unicode="&#xcd;" horiz-adv-x="301" 
d="M215 912h204l-153 -171h-146zM114 700h171l-74 -700h-171z" />
    <glyph glyph-name="Icircumflex" unicode="&#xce;" horiz-adv-x="301" 
d="M127 912h182l70 -171h-145l-27 70l-40 -70h-145zM114 700h171l-74 -700h-171z" />
    <glyph glyph-name="Idieresis" unicode="&#xcf;" horiz-adv-x="301" 
d="M63 738q-45 0 -67.5 25.5t-22.5 63.5q0 26 9 45.5t23.5 33t34 20.5t40.5 7q44 0 66 -26t22 -63q0 -52 -31 -79t-74 -27zM326 738q-45 0 -67.5 25.5t-22.5 62.5q0 51 32 79t75 28t65 -26t22 -63q0 -52 -31 -79t-73 -27zM114 700h171l-74 -700h-171z" />
    <glyph glyph-name="Eth" unicode="&#xd0;" horiz-adv-x="676" 
d="M339 700q69 0 128 -16t102 -52t67.5 -93.5t24.5 -140.5q0 -111 -32.5 -187.5t-85.5 -123t-120 -67t-136 -20.5h-247l32 298h-60l12 116h60l30 286h225zM284 138q91 0 144.5 61.5t53.5 181.5q0 40 -8.5 73.5t-28.5 57.5t-52.5 37t-80.5 13h-42l-15 -148h101l-12 -116h-101
l-17 -160h58z" />
    <glyph glyph-name="Ntilde" unicode="&#xd1;" horiz-adv-x="680" 
d="M221 741q-5 8 -7.5 23t-2.5 30q0 54 33.5 86t84.5 32q22 0 40.5 -6t35 -13.5t30.5 -14t26 -6.5q27 0 27 24q0 11 -4 16h105q5 -10 7 -24.5t2 -25.5q0 -56 -31.5 -88.5t-82.5 -32.5q-26 0 -46.5 6.5t-37 14t-29 13.5t-22.5 6q-28 0 -28 -24q0 -11 4 -16h-104zM114 700h152
l177 -371l16 -47l44 418h161l-74 -700h-152l-182 377l-10 35l-44 -412h-162z" />
    <glyph glyph-name="Ograve" unicode="&#xd2;" horiz-adv-x="698" 
d="M214 912h197l59 -171h-140zM322 -13q-61 0 -113 18.5t-90 57t-59.5 97t-21.5 138.5q0 102 29 179.5t78 130t115 79t139 26.5q61 0 113 -19t90 -57.5t59.5 -97.5t21.5 -139q0 -102 -29 -179.5t-78 -129.5t-114.5 -78t-139.5 -26zM341 140q33 0 62 13.5t50.5 43t35 76.5
t16.5 115q2 48 -7 80.5t-26 53t-40 29.5t-50 9q-32 0 -61 -13t-51 -42t-36 -76t-17 -115q-2 -47 7 -80t26 -54t40.5 -30.5t50.5 -9.5z" />
    <glyph glyph-name="Oacute" unicode="&#xd3;" horiz-adv-x="698" 
d="M413 912h204l-153 -171h-146zM322 -13q-61 0 -113 18.5t-90 57t-59.5 97t-21.5 138.5q0 102 29 179.5t78 130t115 79t139 26.5q61 0 113 -19t90 -57.5t59.5 -97.5t21.5 -139q0 -102 -29 -179.5t-78 -129.5t-114.5 -78t-139.5 -26zM341 140q33 0 62 13.5t50.5 43t35 76.5
t16.5 115q2 48 -7 80.5t-26 53t-40 29.5t-50 9q-32 0 -61 -13t-51 -42t-36 -76t-17 -115q-2 -47 7 -80t26 -54t40.5 -30.5t50.5 -9.5z" />
    <glyph glyph-name="Ocircumflex" unicode="&#xd4;" horiz-adv-x="698" 
d="M325 912h182l70 -171h-145l-27 70l-40 -70h-145zM322 -13q-61 0 -113 18.5t-90 57t-59.5 97t-21.5 138.5q0 102 29 179.5t78 130t115 79t139 26.5q61 0 113 -19t90 -57.5t59.5 -97.5t21.5 -139q0 -102 -29 -179.5t-78 -129.5t-114.5 -78t-139.5 -26zM341 140
q33 0 62 13.5t50.5 43t35 76.5t16.5 115q2 48 -7 80.5t-26 53t-40 29.5t-50 9q-32 0 -61 -13t-51 -42t-36 -76t-17 -115q-2 -47 7 -80t26 -54t40.5 -30.5t50.5 -9.5z" />
    <glyph glyph-name="Otilde" unicode="&#xd5;" horiz-adv-x="698" 
d="M227 741q-5 8 -7.5 23t-2.5 30q0 54 33.5 86t84.5 32q22 0 40.5 -6t35 -13.5t30.5 -14t26 -6.5q27 0 27 24q0 11 -4 16h105q5 -10 7 -24.5t2 -25.5q0 -56 -31.5 -88.5t-82.5 -32.5q-26 0 -46.5 6.5t-37 14t-29 13.5t-22.5 6q-28 0 -28 -24q0 -11 4 -16h-104zM322 -13
q-61 0 -113 18.5t-90 57t-59.5 97t-21.5 138.5q0 102 29 179.5t78 130t115 79t139 26.5q61 0 113 -19t90 -57.5t59.5 -97.5t21.5 -139q0 -102 -29 -179.5t-78 -129.5t-114.5 -78t-139.5 -26zM341 140q33 0 62 13.5t50.5 43t35 76.5t16.5 115q2 48 -7 80.5t-26 53t-40 29.5
t-50 9q-32 0 -61 -13t-51 -42t-36 -76t-17 -115q-2 -47 7 -80t26 -54t40.5 -30.5t50.5 -9.5z" />
    <glyph glyph-name="Odieresis" unicode="&#xd6;" horiz-adv-x="698" 
d="M261 738q-45 0 -67.5 25.5t-22.5 63.5q0 26 9 45.5t23.5 33t34 20.5t40.5 7q44 0 66 -26t22 -63q0 -52 -31 -79t-74 -27zM524 738q-45 0 -67.5 25.5t-22.5 62.5q0 51 32 79t75 28t65 -26t22 -63q0 -52 -31 -79t-73 -27zM322 -13q-61 0 -113 18.5t-90 57t-59.5 97
t-21.5 138.5q0 102 29 179.5t78 130t115 79t139 26.5q61 0 113 -19t90 -57.5t59.5 -97.5t21.5 -139q0 -102 -29 -179.5t-78 -129.5t-114.5 -78t-139.5 -26zM341 140q33 0 62 13.5t50.5 43t35 76.5t16.5 115q2 48 -7 80.5t-26 53t-40 29.5t-50 9q-32 0 -61 -13t-51 -42
t-36 -76t-17 -115q-2 -47 7 -80t26 -54t40.5 -30.5t50.5 -9.5z" />
    <glyph glyph-name="multiply" unicode="&#xd7;" horiz-adv-x="495" 
d="M15 127l150 139l-120 139l94 85l120 -139l151 139l76 -85l-151 -139l121 -139l-94 -85l-121 139l-150 -139z" />
    <glyph glyph-name="Oslash" unicode="&#xd8;" horiz-adv-x="698" 
d="M621 615q29 -38 45.5 -91.5t16.5 -123.5q0 -102 -29 -179.5t-78 -129.5t-114.5 -78t-139.5 -26q-75 0 -138 29l-23 -32h-135l74 101q-29 38 -45.5 91t-16.5 122q0 102 29 179.5t78 130t115 79t139 26.5q78 0 138 -30l24 33h134zM217 314q-2 -38 4 -64l217 298
q-25 12 -56 12q-32 0 -61 -13t-51 -42t-36 -76t-17 -115zM505 388q2 36 -3 63l-218 -299q26 -12 57 -12q33 0 62 13.5t50.5 43t35 76.5t16.5 115z" />
    <glyph glyph-name="Ugrave" unicode="&#xd9;" horiz-adv-x="659" 
d="M194 912h197l59 -171h-140zM305 -6q-55 0 -103 15t-82 50t-50 91.5t-7 140.5l44 409h171l-44 -423q-3 -25 -1 -48.5t12 -41.5t28.5 -29t48.5 -11t50.5 11t33.5 29t19.5 41.5t9.5 48.5l44 423h171l-43 -409q-9 -84 -36.5 -140.5t-68.5 -91.5t-91.5 -50t-105.5 -15z" />
    <glyph glyph-name="Uacute" unicode="&#xda;" horiz-adv-x="659" 
d="M393 912h204l-153 -171h-146zM305 -6q-55 0 -103 15t-82 50t-50 91.5t-7 140.5l44 409h171l-44 -423q-3 -25 -1 -48.5t12 -41.5t28.5 -29t48.5 -11t50.5 11t33.5 29t19.5 41.5t9.5 48.5l44 423h171l-43 -409q-9 -84 -36.5 -140.5t-68.5 -91.5t-91.5 -50t-105.5 -15z" />
    <glyph glyph-name="Ucircumflex" unicode="&#xdb;" horiz-adv-x="659" 
d="M305 912h182l70 -171h-145l-27 70l-40 -70h-145zM305 -6q-55 0 -103 15t-82 50t-50 91.5t-7 140.5l44 409h171l-44 -423q-3 -25 -1 -48.5t12 -41.5t28.5 -29t48.5 -11t50.5 11t33.5 29t19.5 41.5t9.5 48.5l44 423h171l-43 -409q-9 -84 -36.5 -140.5t-68.5 -91.5
t-91.5 -50t-105.5 -15z" />
    <glyph glyph-name="Udieresis" unicode="&#xdc;" horiz-adv-x="659" 
d="M241 738q-45 0 -67.5 25.5t-22.5 63.5q0 26 9 45.5t23.5 33t34 20.5t40.5 7q44 0 66 -26t22 -63q0 -52 -31 -79t-74 -27zM504 738q-45 0 -67.5 25.5t-22.5 62.5q0 51 32 79t75 28t65 -26t22 -63q0 -52 -31 -79t-73 -27zM305 -6q-55 0 -103 15t-82 50t-50 91.5t-7 140.5
l44 409h171l-44 -423q-3 -25 -1 -48.5t12 -41.5t28.5 -29t48.5 -11t50.5 11t33.5 29t19.5 41.5t9.5 48.5l44 423h171l-43 -409q-9 -84 -36.5 -140.5t-68.5 -91.5t-91.5 -50t-105.5 -15z" />
    <glyph glyph-name="Yacute" unicode="&#xdd;" horiz-adv-x="629" 
d="M379 912h204l-153 -171h-146zM233 275l-188 425h197l95 -272l153 272h193l-279 -421l-29 -279h-171z" />
    <glyph glyph-name="Thorn" unicode="&#xde;" horiz-adv-x="629" 
d="M114 700h182l-11 -99h71q122 0 192 -54t70 -166q0 -71 -24 -123t-64.5 -85.5t-92 -49.5t-107.5 -16h-97l-11 -107h-182zM311 250q59 0 91 28t32 84q0 42 -26 68.5t-82 26.5h-56l-22 -207h63z" />
    <glyph glyph-name="germandbls" unicode="&#xdf;" horiz-adv-x="629" 
d="M388 -14q-42 0 -77 7.5t-53 18.5l64 137q27 -18 65 -18q19 0 35.5 5.5t16.5 25.5q0 16 -19 31.5t-41.5 34t-41.5 42t-19 56.5q0 35 14.5 60t32 46.5t32 42t14.5 46.5q0 24 -14 39t-43 15t-47.5 -16.5t-22.5 -54.5l-53 -504h-170l37 349h-68l14 133h68l1 11
q11 113 76 177.5t178 64.5q100 0 158 -43t58 -118q0 -45 -14 -74t-30.5 -50.5t-30.5 -41t-14 -46.5q0 -23 18.5 -41.5l40 -40t40 -49.5t18.5 -69q0 -79 -58.5 -127.5t-164.5 -48.5z" />
    <glyph glyph-name="agrave" unicode="&#xe0;" horiz-adv-x="563" 
d="M117 747h194l54 -211h-139zM185 -14q-75 0 -118.5 56t-43.5 159q0 67 17.5 121.5t48 93.5t72.5 60t91 21q81 0 111 -53l4 38h160l-33 -315q-4 -39 33 -39l-13 -128q-12 -5 -32.5 -7.5t-45.5 -2.5q-49 0 -73.5 20t-27.5 56h-1q-23 -38 -58 -59t-91 -21zM257 128
q28 0 46.5 18t26.5 46l11 105q-1 9 -4.5 19t-10.5 19t-18 14.5t-27 5.5q-43 0 -64 -40t-21 -99q0 -88 61 -88z" />
    <glyph glyph-name="aacute" unicode="&#xe1;" horiz-adv-x="563" 
d="M308 747h197l-157 -211h-140zM185 -14q-75 0 -118.5 56t-43.5 159q0 67 17.5 121.5t48 93.5t72.5 60t91 21q81 0 111 -53l4 38h160l-33 -315q-4 -39 33 -39l-13 -128q-12 -5 -32.5 -7.5t-45.5 -2.5q-49 0 -73.5 20t-27.5 56h-1q-23 -38 -58 -59t-91 -21zM257 128
q28 0 46.5 18t26.5 46l11 105q-1 9 -4.5 19t-10.5 19t-18 14.5t-27 5.5q-43 0 -64 -40t-21 -99q0 -88 61 -88z" />
    <glyph glyph-name="acircumflex" unicode="&#xe2;" horiz-adv-x="563" 
d="M225 741h182l67 -201h-145l-25 90l-42 -90h-145zM185 -14q-75 0 -118.5 56t-43.5 159q0 67 17.5 121.5t48 93.5t72.5 60t91 21q81 0 111 -53l4 38h160l-33 -315q-4 -39 33 -39l-13 -128q-12 -5 -32.5 -7.5t-45.5 -2.5q-49 0 -73.5 20t-27.5 56h-1q-23 -38 -58 -59
t-91 -21zM257 128q28 0 46.5 18t26.5 46l11 105q-1 9 -4.5 19t-10.5 19t-18 14.5t-27 5.5q-43 0 -64 -40t-21 -99q0 -88 61 -88z" />
    <glyph glyph-name="atilde" unicode="&#xe3;" horiz-adv-x="563" 
d="M131 540q-5 8 -8 23.5t-3 30.5q0 54 33 87t84 33q20 0 37.5 -6.5t32.5 -15t27.5 -15t23.5 -6.5q10 0 18.5 6t8.5 18q0 5 -1 11t-4 9h96q6 -11 8.5 -26t2.5 -27q0 -55 -32.5 -88t-82.5 -33q-22 0 -40 6.5t-32.5 15t-25.5 15t-20 6.5q-13 0 -21 -7t-8 -18q0 -5 1.5 -11
t3.5 -8h-99zM185 -14q-75 0 -118.5 56t-43.5 159q0 67 17.5 121.5t48 93.5t72.5 60t91 21q81 0 111 -53l4 38h160l-33 -315q-4 -39 33 -39l-13 -128q-12 -5 -32.5 -7.5t-45.5 -2.5q-49 0 -73.5 20t-27.5 56h-1q-23 -38 -58 -59t-91 -21zM257 128q28 0 46.5 18t26.5 46
l11 105q-1 9 -4.5 19t-10.5 19t-18 14.5t-27 5.5q-43 0 -64 -40t-21 -99q0 -88 61 -88z" />
    <glyph glyph-name="adieresis" unicode="&#xe4;" horiz-adv-x="563" 
d="M178 540q-44 0 -66.5 25.5t-22.5 62.5q0 43 28.5 74.5t79.5 31.5q42 0 64 -26.5t22 -62.5q0 -43 -28.5 -74t-76.5 -31zM416 540q-44 0 -66.5 25.5t-22.5 62.5q0 43 28.5 74.5t79.5 31.5q42 0 64 -26.5t22 -62.5q0 -43 -28.5 -74t-76.5 -31zM185 -14q-75 0 -118.5 56
t-43.5 159q0 67 17.5 121.5t48 93.5t72.5 60t91 21q81 0 111 -53l4 38h160l-33 -315q-4 -39 33 -39l-13 -128q-12 -5 -32.5 -7.5t-45.5 -2.5q-49 0 -73.5 20t-27.5 56h-1q-23 -38 -58 -59t-91 -21zM257 128q28 0 46.5 18t26.5 46l11 105q-1 9 -4.5 19t-10.5 19t-18 14.5
t-27 5.5q-43 0 -64 -40t-21 -99q0 -88 61 -88z" />
    <glyph glyph-name="aring" unicode="&#xe5;" horiz-adv-x="563" 
d="M296 515q-54 0 -84.5 33t-30.5 82q0 61 37 100t97 39q54 0 85 -33t31 -82q0 -60 -37 -99.5t-98 -39.5zM304 598q21 0 32 14.5t11 34.5q0 18 -11 28.5t-28 10.5q-20 0 -31.5 -14t-11.5 -35q0 -19 11 -29t28 -10zM185 -14q-75 0 -118.5 56t-43.5 159q0 67 17.5 121.5
t48 93.5t72.5 60t91 21q81 0 111 -53l4 38h160l-33 -315q-4 -39 33 -39l-13 -128q-12 -5 -32.5 -7.5t-45.5 -2.5q-49 0 -73.5 20t-27.5 56h-1q-23 -38 -58 -59t-91 -21zM257 128q28 0 46.5 18t26.5 46l11 105q-1 9 -4.5 19t-10.5 19t-18 14.5t-27 5.5q-43 0 -64 -40t-21 -99
q0 -88 61 -88z" />
    <glyph glyph-name="ae" unicode="&#xe6;" horiz-adv-x="753" 
d="M730 295q0 -23 -3 -44.5t-7 -38.5h-267q2 -47 20.5 -67.5t54.5 -20.5q16 0 29.5 5.5t24.5 13.5t18.5 16.5t11.5 14.5l102 -81q-3 -6 -17 -23.5t-39.5 -36t-63 -33t-87.5 -14.5q-61 0 -105 20t-71 58q-34 -41 -76 -58.5t-102 -17.5q-76 0 -111.5 35.5t-35.5 89.5
q0 66 47.5 107.5t156.5 41.5h81l5 52q3 30 -7.5 42t-30.5 12q-22 0 -35 -12t-13 -37q0 -8 1 -13.5t3 -9.5h-151q-2 4 -3 10q-1 5 -2 12t-1 18q0 72 55.5 116.5t164.5 44.5q46 0 78.5 -12t54.5 -32q29 20 63 32t76 12q93 0 137 -55t44 -147zM573 297q4 35 -8.5 51.5
t-36.5 16.5q-51 0 -67 -68h112zM216 115q23 0 39 12.5t25 32.5l2 25h-56q-25 0 -36 -10.5t-11 -27.5q0 -14 8.5 -23t28.5 -9z" />
    <glyph glyph-name="ccedilla" unicode="&#xe7;" horiz-adv-x="487" 
d="M312 267q4 8 6.5 20t2.5 23q0 45 -47 45q-20 0 -35.5 -11t-25.5 -30.5t-15 -45.5t-5 -56q0 -45 19 -64.5t54 -19.5q33 0 54.5 14t41.5 40l93 -89q-26 -38 -66.5 -64.5t-93.5 -37.5l-13 -28q29 -7 48 -25.5t19 -53.5q0 -53 -36.5 -83t-105.5 -30q-38 0 -69 9.5t-45 26.5
l55 69q8 -9 22.5 -15.5t30.5 -6.5q34 0 34 28q0 29 -66 34l32 72q-86 11 -132.5 68t-46.5 151q0 68 19.5 121.5t54 91t82.5 57.5t105 20q89 0 139.5 -36.5t50.5 -111.5q0 -23 -5 -45t-13 -36z" />
    <glyph glyph-name="egrave" unicode="&#xe8;" horiz-adv-x="493" 
d="M214 536l-109 211h194l54 -211h-139zM271 124q33 0 59.5 14.5t44.5 37.5l88 -83q-38 -53 -98 -81t-137 -26q-98 3 -152.5 59.5t-54.5 163.5q0 66 21 119.5t57.5 91t85.5 57.5t104 20q93 0 139 -37t46 -103q0 -172 -278 -178q7 -27 25 -41t50 -14zM285 361
q-31 0 -53.5 -23t-32.5 -65q65 3 91 17.5t26 40.5q0 30 -31 30z" />
    <glyph glyph-name="eacute" unicode="&#xe9;" horiz-adv-x="493" 
d="M336 536h-140l100 211h197zM474 357q0 -172 -278 -178q7 -27 25 -41t50 -14q33 0 59.5 14.5t44.5 37.5l88 -83q-38 -53 -98 -81t-137 -26q-98 3 -152.5 59.5t-54.5 163.5q0 66 21 119.5t57.5 91t85.5 57.5t104 20q93 0 139 -37t46 -103zM199 273q65 3 91 17.5t26 40.5
q0 30 -31 30t-53.5 -23t-32.5 -65z" />
    <glyph glyph-name="ecircumflex" unicode="&#xea;" horiz-adv-x="493" 
d="M250 540h-145l108 201h182l67 -201h-145l-25 90zM271 124q33 0 59.5 14.5t44.5 37.5l88 -83q-38 -53 -98 -81t-137 -26q-98 3 -152.5 59.5t-54.5 163.5q0 66 21 119.5t57.5 91t85.5 57.5t104 20q93 0 139 -37t46 -103q0 -172 -278 -178q7 -27 25 -41t50 -14zM285 361
q-31 0 -53.5 -23t-32.5 -65q65 3 91 17.5t26 40.5q0 30 -31 30z" />
    <glyph glyph-name="edieresis" unicode="&#xeb;" horiz-adv-x="493" 
d="M166 540q-44 0 -66.5 25.5t-22.5 62.5q0 43 28.5 74.5t79.5 31.5q42 0 64 -26.5t22 -62.5q0 -43 -28.5 -74t-76.5 -31zM423 734q42 0 64 -26.5t22 -62.5q0 -43 -28.5 -74t-76.5 -31q-44 0 -66.5 25.5t-22.5 62.5q0 43 28.5 74.5t79.5 31.5zM474 357q0 -172 -278 -178
q7 -27 25 -41t50 -14q33 0 59.5 14.5t44.5 37.5l88 -83q-38 -53 -98 -81t-137 -26q-98 3 -152.5 59.5t-54.5 163.5q0 66 21 119.5t57.5 91t85.5 57.5t104 20q93 0 139 -37t46 -103zM199 273q65 3 91 17.5t26 40.5q0 30 -31 30t-53.5 -23t-32.5 -65z" />
    <glyph glyph-name="igrave" unicode="&#xec;" horiz-adv-x="291" 
d="M-9 747h194l54 -211h-139zM169 -5q-79 0 -109.5 36t-22.5 115l35 336h171l-31 -295q-4 -32 3 -43t39 -11l-14 -129q-10 -3 -21 -5q-10 -1 -22.5 -2.5t-27.5 -1.5z" />
    <glyph glyph-name="iacute" unicode="&#xed;" horiz-adv-x="291" 
d="M182 747h197l-157 -211h-140zM169 -5q-79 0 -109.5 36t-22.5 115l35 336h171l-31 -295q-4 -32 3 -43t39 -11l-14 -129q-10 -3 -21 -5q-10 -1 -22.5 -2.5t-27.5 -1.5z" />
    <glyph glyph-name="icircumflex" unicode="&#xee;" horiz-adv-x="291" 
d="M99 741h182l67 -201h-145l-25 90l-42 -90h-145zM169 -5q-79 0 -109.5 36t-22.5 115l35 336h171l-31 -295q-4 -32 3 -43t39 -11l-14 -129q-10 -3 -21 -5q-10 -1 -22.5 -2.5t-27.5 -1.5z" />
    <glyph glyph-name="idieresis" unicode="&#xef;" horiz-adv-x="291" 
d="M52 540q-44 0 -66.5 25.5t-22.5 62.5q0 43 28.5 74.5t79.5 31.5q42 0 64 -26.5t22 -62.5q0 -43 -28.5 -74t-76.5 -31zM290 540q-44 0 -66.5 25.5t-22.5 62.5q0 43 28.5 74.5t79.5 31.5q42 0 64 -26.5t22 -62.5q0 -43 -28.5 -74t-76.5 -31zM169 -5q-79 0 -109.5 36
t-22.5 115l35 336h171l-31 -295q-4 -32 3 -43t39 -11l-14 -129q-10 -3 -21 -5q-10 -1 -22.5 -2.5t-27.5 -1.5z" />
    <glyph glyph-name="eth" unicode="&#xf0;" horiz-adv-x="546" 
d="M456 624q73 -85 73 -232q0 -94 -17.5 -169.5t-53.5 -128.5t-91.5 -81.5t-132.5 -28.5q-58 0 -98.5 17t-66 46t-37 67.5t-11.5 80.5q0 55 17 102.5t47 83t72 56t93 20.5q42 0 68.5 -10.5t46.5 -28.5q2 42 -11.5 73t-36.5 53l-100 -57l-38 70l53 31q-46 11 -93 11l14 138
q75 0 134.5 -14.5t104.5 -42.5l91 52l40 -70zM253 128q25 0 41.5 14.5t27.5 37t17 51.5t9 57q-18 14 -34.5 19.5t-37.5 5.5q-43 0 -63.5 -34t-20.5 -80q0 -29 15 -50t46 -21z" />
    <glyph glyph-name="ntilde" unicode="&#xf1;" horiz-adv-x="570" 
d="M152 540q-5 8 -8 23.5t-3 30.5q0 54 33 87t84 33q20 0 37.5 -6.5t32.5 -15t27.5 -15t23.5 -6.5q10 0 18.5 6t8.5 18q0 5 -1 11t-4 9h96q6 -11 8.5 -26t2.5 -27q0 -55 -32.5 -88t-82.5 -33q-22 0 -40 6.5t-32.5 15t-25.5 15t-20 6.5q-13 0 -21 -7t-8 -18q0 -5 1.5 -11
t3.5 -8h-99zM447 -8q-68 0 -97.5 31t-21.5 104l17 155q3 29 -10.5 45t-35.5 16q-23 0 -38.5 -16t-18.5 -45l-30 -282h-170l33 312q2 21 -6 30t-28 9l13 129q13 4 34 6.5t46 2.5q47 0 70.5 -19t29.5 -43h1q6 11 17.5 23t28 22.5t39 17.5t50.5 7q80 0 118.5 -50.5t28.5 -142.5
l-14 -135q-4 -39 33 -39l-14 -129q-11 -4 -32.5 -6.5t-42.5 -2.5z" />
    <glyph glyph-name="ograve" unicode="&#xf2;" horiz-adv-x="537" 
d="M122 747h194l54 -211h-139zM244 -14q-56 0 -97.5 16.5t-69.5 46.5t-41.5 71t-13.5 89q0 61 18 113.5t52.5 91.5t85.5 61t116 22q56 0 97.5 -16.5t69.5 -46.5t41.5 -70.5t13.5 -88.5q0 -60 -18 -113t-52.5 -92t-85.5 -61.5t-116 -22.5zM256 128q47 0 67 39t20 97
q0 42 -15.5 66.5t-47.5 24.5q-43 0 -64 -39t-21 -99q0 -41 14.5 -65t46.5 -24z" />
    <glyph glyph-name="oacute" unicode="&#xf3;" horiz-adv-x="537" 
d="M313 747h197l-157 -211h-140zM244 -14q-56 0 -97.5 16.5t-69.5 46.5t-41.5 71t-13.5 89q0 61 18 113.5t52.5 91.5t85.5 61t116 22q56 0 97.5 -16.5t69.5 -46.5t41.5 -70.5t13.5 -88.5q0 -60 -18 -113t-52.5 -92t-85.5 -61.5t-116 -22.5zM256 128q47 0 67 39t20 97
q0 42 -15.5 66.5t-47.5 24.5q-43 0 -64 -39t-21 -99q0 -41 14.5 -65t46.5 -24z" />
    <glyph glyph-name="ocircumflex" unicode="&#xf4;" horiz-adv-x="537" 
d="M230 741h182l67 -201h-145l-25 90l-42 -90h-145zM244 -14q-56 0 -97.5 16.5t-69.5 46.5t-41.5 71t-13.5 89q0 61 18 113.5t52.5 91.5t85.5 61t116 22q56 0 97.5 -16.5t69.5 -46.5t41.5 -70.5t13.5 -88.5q0 -60 -18 -113t-52.5 -92t-85.5 -61.5t-116 -22.5zM256 128
q47 0 67 39t20 97q0 42 -15.5 66.5t-47.5 24.5q-43 0 -64 -39t-21 -99q0 -41 14.5 -65t46.5 -24z" />
    <glyph glyph-name="otilde" unicode="&#xf5;" horiz-adv-x="537" 
d="M136 540q-5 8 -8 23.5t-3 30.5q0 54 33 87t84 33q20 0 37.5 -6.5t32.5 -15t27.5 -15t23.5 -6.5q10 0 18.5 6t8.5 18q0 5 -1 11t-4 9h96q6 -11 8.5 -26t2.5 -27q0 -55 -32.5 -88t-82.5 -33q-22 0 -40 6.5t-32.5 15t-25.5 15t-20 6.5q-13 0 -21 -7t-8 -18q0 -5 1.5 -11
t3.5 -8h-99zM244 -14q-56 0 -97.5 16.5t-69.5 46.5t-41.5 71t-13.5 89q0 61 18 113.5t52.5 91.5t85.5 61t116 22q56 0 97.5 -16.5t69.5 -46.5t41.5 -70.5t13.5 -88.5q0 -60 -18 -113t-52.5 -92t-85.5 -61.5t-116 -22.5zM256 128q47 0 67 39t20 97q0 42 -15.5 66.5
t-47.5 24.5q-43 0 -64 -39t-21 -99q0 -41 14.5 -65t46.5 -24z" />
    <glyph glyph-name="odieresis" unicode="&#xf6;" horiz-adv-x="537" 
d="M183 540q-44 0 -66.5 25.5t-22.5 62.5q0 43 28.5 74.5t79.5 31.5q42 0 64 -26.5t22 -62.5q0 -43 -28.5 -74t-76.5 -31zM421 540q-44 0 -66.5 25.5t-22.5 62.5q0 43 28.5 74.5t79.5 31.5q42 0 64 -26.5t22 -62.5q0 -43 -28.5 -74t-76.5 -31zM244 -14q-56 0 -97.5 16.5
t-69.5 46.5t-41.5 71t-13.5 89q0 61 18 113.5t52.5 91.5t85.5 61t116 22q56 0 97.5 -16.5t69.5 -46.5t41.5 -70.5t13.5 -88.5q0 -60 -18 -113t-52.5 -92t-85.5 -61.5t-116 -22.5zM256 128q47 0 67 39t20 97q0 42 -15.5 66.5t-47.5 24.5q-43 0 -64 -39t-21 -99
q0 -41 14.5 -65t46.5 -24z" />
    <glyph glyph-name="divide" unicode="&#xf7;" horiz-adv-x="427" 
d="M227 360q-41 0 -67 28t-26 68q0 24 9.5 44.5t25 36.5t36.5 25t44 9q42 0 69 -28t27 -68q0 -23 -9.5 -44t-26 -36.5t-37.5 -25t-45 -9.5zM34 326h377l-12 -120h-377zM184 -50q-41 0 -67 28t-26 68q0 24 9.5 44.5t25 36.5t36.5 25t44 9q42 0 68 -27.5t26 -68.5
q0 -23 -9.5 -44t-25 -37t-36.5 -25t-45 -9z" />
    <glyph glyph-name="oslash" unicode="&#xf8;" horiz-adv-x="537" 
d="M463 431q27 -29 40 -68.5t13 -87.5q0 -60 -18 -113t-52.5 -92t-85.5 -61.5t-116 -22.5q-62 0 -107 21l-37 -48h-98l72 94q-26 29 -39 68.5t-13 87.5q0 61 18 113.5t52.5 91.5t85.5 61t116 22q61 0 106 -20l36 46h98zM195 210l108 141q-8 4 -23 4q-43 0 -64 -39t-21 -99
v-7zM343 274l-110 -142q9 -4 23 -4q47 0 67 39t20 97v10z" />
    <glyph glyph-name="ugrave" unicode="&#xf9;" horiz-adv-x="557" 
d="M124 747h194l54 -211h-139zM174 -14q-75 0 -110 43t-26 131l34 322h170l-29 -276q-4 -35 6.5 -50.5t35.5 -15.5q29 0 44.5 20.5t18.5 52.5l28 269h170l-33 -315q-4 -39 33 -39l-13 -129q-12 -4 -33.5 -6.5t-42.5 -2.5q-53 0 -77 20.5t-26 55.5h-1q-25 -42 -60.5 -61
t-88.5 -19z" />
    <glyph glyph-name="uacute" unicode="&#xfa;" horiz-adv-x="557" 
d="M315 747h197l-157 -211h-140zM174 -14q-75 0 -110 43t-26 131l34 322h170l-29 -276q-4 -35 6.5 -50.5t35.5 -15.5q29 0 44.5 20.5t18.5 52.5l28 269h170l-33 -315q-4 -39 33 -39l-13 -129q-12 -4 -33.5 -6.5t-42.5 -2.5q-53 0 -77 20.5t-26 55.5h-1q-25 -42 -60.5 -61
t-88.5 -19z" />
    <glyph glyph-name="ucircumflex" unicode="&#xfb;" horiz-adv-x="557" 
d="M232 741h182l67 -201h-145l-25 90l-42 -90h-145zM174 -14q-75 0 -110 43t-26 131l34 322h170l-29 -276q-4 -35 6.5 -50.5t35.5 -15.5q29 0 44.5 20.5t18.5 52.5l28 269h170l-33 -315q-4 -39 33 -39l-13 -129q-12 -4 -33.5 -6.5t-42.5 -2.5q-53 0 -77 20.5t-26 55.5h-1
q-25 -42 -60.5 -61t-88.5 -19z" />
    <glyph glyph-name="udieresis" unicode="&#xfc;" horiz-adv-x="557" 
d="M185 540q-44 0 -66.5 25.5t-22.5 62.5q0 43 28.5 74.5t79.5 31.5q42 0 64 -26.5t22 -62.5q0 -43 -28.5 -74t-76.5 -31zM423 540q-44 0 -66.5 25.5t-22.5 62.5q0 43 28.5 74.5t79.5 31.5q42 0 64 -26.5t22 -62.5q0 -43 -28.5 -74t-76.5 -31zM174 -14q-75 0 -110 43
t-26 131l34 322h170l-29 -276q-4 -35 6.5 -50.5t35.5 -15.5q29 0 44.5 20.5t18.5 52.5l28 269h170l-33 -315q-4 -39 33 -39l-13 -129q-12 -4 -33.5 -6.5t-42.5 -2.5q-53 0 -77 20.5t-26 55.5h-1q-25 -42 -60.5 -61t-88.5 -19z" />
    <glyph glyph-name="yacute" unicode="&#xfd;" horiz-adv-x="536" 
d="M313 747h197l-157 -211h-140zM187 -247q-77 0 -131 27.5t-80 80.5l115 88q20 -35 44 -48.5t62 -13.5q29 0 48.5 8t31.5 23t17.5 36t8.5 47l5 51q-46 -58 -140 -58q-148 0 -130 174l33 314h169l-28 -268q-4 -35 7.5 -50.5t35.5 -15.5q20 0 37.5 15t23.5 60l28 259h170
l-50 -473q-13 -119 -79.5 -187.5t-197.5 -68.5z" />
    <glyph glyph-name="thorn" unicode="&#xfe;" horiz-adv-x="552" 
d="M99 726h169l-29 -282q23 24 53 38.5t76 14.5q75 0 118.5 -55t43.5 -159q0 -71 -19 -126t-51.5 -93t-74.5 -58t-88 -20q-42 0 -65.5 9.5t-37.5 22.5l-26 -247h-169zM272 128q40 0 62.5 36t22.5 101q0 46 -17 68t-43 22q-29 0 -48.5 -19t-27.5 -44l-12 -107q5 -25 20 -41
t43 -16z" />
    <glyph glyph-name="ydieresis" unicode="&#xff;" horiz-adv-x="536" 
d="M183 540q-44 0 -66.5 25.5t-22.5 62.5q0 43 28.5 74.5t79.5 31.5q42 0 64 -26.5t22 -62.5q0 -43 -28.5 -74t-76.5 -31zM421 540q-44 0 -66.5 25.5t-22.5 62.5q0 43 28.5 74.5t79.5 31.5q42 0 64 -26.5t22 -62.5q0 -43 -28.5 -74t-76.5 -31zM187 -247q-77 0 -131 27.5
t-80 80.5l115 88q20 -35 44 -48.5t62 -13.5q29 0 48.5 8t31.5 23t17.5 36t8.5 47l5 51q-46 -58 -140 -58q-148 0 -130 174l33 314h169l-28 -268q-4 -35 7.5 -50.5t35.5 -15.5q20 0 37.5 15t23.5 60l28 259h170l-50 -473q-13 -119 -79.5 -187.5t-197.5 -68.5z" />
    <glyph glyph-name="Amacron" unicode="&#x100;" horiz-adv-x="660" 
d="M551 763h-332l13 119h332zM433 150h-224l-62 -150h-179l323 700h176l175 -700h-179zM407 280l-47 236l-97 -236h144z" />
    <glyph glyph-name="amacron" unicode="&#x101;" horiz-adv-x="563" 
d="M156 702h312l-13 -124h-312zM185 -14q-75 0 -118.5 56t-43.5 159q0 67 17.5 121.5t48 93.5t72.5 60t91 21q81 0 111 -53l4 38h160l-33 -315q-4 -39 33 -39l-13 -128q-12 -5 -32.5 -7.5t-45.5 -2.5q-49 0 -73.5 20t-27.5 56h-1q-23 -38 -58 -59t-91 -21zM257 128
q28 0 46.5 18t26.5 46l11 105q-1 9 -4.5 19t-10.5 19t-18 14.5t-27 5.5q-43 0 -64 -40t-21 -99q0 -88 61 -88z" />
    <glyph glyph-name="Abreve" unicode="&#x102;" horiz-adv-x="660" 
d="M383 743q-47 0 -77.5 15t-47.5 39t-22 54t-2 60h122q-6 -55 38 -55q43 0 49 55h122q-3 -30 -14.5 -60t-33.5 -54t-55 -39t-79 -15zM433 150h-224l-62 -150h-179l323 700h176l175 -700h-179zM407 280l-47 236l-97 -236h144z" />
    <glyph glyph-name="abreve" unicode="&#x103;" horiz-adv-x="563" 
d="M297 554q-51 0 -81.5 15.5t-46.5 41t-19.5 57.5t-0.5 64h123q-3 -30 6 -43.5t32 -13.5t34.5 13.5t14.5 43.5h121q-3 -32 -13.5 -64t-31.5 -57.5t-54.5 -41t-83.5 -15.5zM185 -14q-75 0 -118.5 56t-43.5 159q0 67 17.5 121.5t48 93.5t72.5 60t91 21q81 0 111 -53l4 38h160
l-33 -315q-4 -39 33 -39l-13 -128q-12 -5 -32.5 -7.5t-45.5 -2.5q-49 0 -73.5 20t-27.5 56h-1q-23 -38 -58 -59t-91 -21zM257 128q28 0 46.5 18t26.5 46l11 105q-1 9 -4.5 19t-10.5 19t-18 14.5t-27 5.5q-43 0 -64 -40t-21 -99q0 -88 61 -88z" />
    <glyph glyph-name="Aogonek" unicode="&#x104;" horiz-adv-x="660" 
d="M565 -117q11 0 16.5 2t10.5 6l26 -77q-33 -25 -95 -25q-55 0 -82.5 25t-27.5 68q0 33 17 63t48 55h-15l-30 150h-224l-62 -150h-179l323 700h176l175 -700h-30q-36 -17 -54.5 -41.5t-18.5 -48.5q0 -14 7.5 -20.5t18.5 -6.5zM407 280l-47 236l-97 -236h144z" />
    <glyph glyph-name="aogonek" unicode="&#x105;" horiz-adv-x="563" 
d="M494 167q-4 -39 33 -39l-13 -128q-9 -4 -20 -5q-32 -17 -47.5 -39.5t-15.5 -45.5q0 -14 7.5 -20.5t18.5 -6.5t16.5 2t10.5 6l26 -77q-33 -25 -95 -25q-55 0 -82.5 25t-27.5 68q0 34 18 65t50 56q-35 20 -38 63h-1q-23 -38 -58 -59t-91 -21q-75 0 -118.5 56t-43.5 159
q0 67 17.5 121.5t48 93.5t72.5 60t91 21q81 0 111 -53l4 38h160zM341 297q-1 9 -4.5 19t-10.5 19t-18 14.5t-27 5.5q-43 0 -64 -40t-21 -99q0 -88 61 -88q28 0 46.5 18t26.5 46z" />
    <glyph glyph-name="Cacute" unicode="&#x106;" horiz-adv-x="616" 
d="M406 912h204l-153 -171h-146zM315 -13q-130 0 -203 80t-73 228q0 96 24.5 173.5t69.5 131.5t109.5 83.5t144.5 29.5q46 0 88 -11t73.5 -35t50.5 -61t19 -88q0 -42 -15 -87h-161q5 11 7 24.5t2 24.5q0 37 -21 58t-62 21q-69 0 -108.5 -63.5t-39.5 -181.5q0 -86 32 -131.5
t94 -45.5q48 0 77 19t57 59l108 -80q-41 -69 -106 -108.5t-167 -39.5z" />
    <glyph glyph-name="cacute" unicode="&#x107;" horiz-adv-x="487" 
d="M302 747h197l-157 -211h-140zM238 -14q-103 0 -159.5 58.5t-56.5 162.5q0 68 19.5 121.5t54 91t82.5 57.5t105 20q89 0 139.5 -36.5t50.5 -111.5q0 -23 -5 -45t-13 -36l-143 -1q4 8 6.5 20t2.5 23q0 45 -47 45q-20 0 -35.5 -11t-25.5 -30.5t-15 -45.5t-5 -56
q0 -45 19 -64.5t54 -19.5q33 0 54.5 14t41.5 40l93 -89q-32 -48 -87.5 -77.5t-129.5 -29.5z" />
    <glyph glyph-name="Ccircumflex" unicode="&#x108;" horiz-adv-x="616" 
d="M318 912h182l70 -171h-145l-27 70l-40 -70h-145zM315 -13q-130 0 -203 80t-73 228q0 96 24.5 173.5t69.5 131.5t109.5 83.5t144.5 29.5q46 0 88 -11t73.5 -35t50.5 -61t19 -88q0 -42 -15 -87h-161q5 11 7 24.5t2 24.5q0 37 -21 58t-62 21q-69 0 -108.5 -63.5
t-39.5 -181.5q0 -86 32 -131.5t94 -45.5q48 0 77 19t57 59l108 -80q-41 -69 -106 -108.5t-167 -39.5z" />
    <glyph glyph-name="ccircumflex" unicode="&#x109;" horiz-adv-x="487" 
d="M219 741h182l67 -201h-145l-25 90l-42 -90h-145zM238 -14q-103 0 -159.5 58.5t-56.5 162.5q0 68 19.5 121.5t54 91t82.5 57.5t105 20q89 0 139.5 -36.5t50.5 -111.5q0 -23 -5 -45t-13 -36l-143 -1q4 8 6.5 20t2.5 23q0 45 -47 45q-20 0 -35.5 -11t-25.5 -30.5t-15 -45.5
t-5 -56q0 -45 19 -64.5t54 -19.5q33 0 54.5 14t41.5 40l93 -89q-32 -48 -87.5 -77.5t-129.5 -29.5z" />
    <glyph glyph-name="Cdotaccent" unicode="&#x10a;" horiz-adv-x="616" 
d="M394 736q-42 0 -65 26t-23 64q0 47 31 77t77 30q43 0 65.5 -27t22.5 -64q0 -45 -28.5 -75.5t-79.5 -30.5zM315 -13q-130 0 -203 80t-73 228q0 96 24.5 173.5t69.5 131.5t109.5 83.5t144.5 29.5q46 0 88 -11t73.5 -35t50.5 -61t19 -88q0 -42 -15 -87h-161q5 11 7 24.5
t2 24.5q0 37 -21 58t-62 21q-69 0 -108.5 -63.5t-39.5 -181.5q0 -86 32 -131.5t94 -45.5q48 0 77 19t57 59l108 -80q-41 -69 -106 -108.5t-167 -39.5z" />
    <glyph glyph-name="cdotaccent" unicode="&#x10b;" horiz-adv-x="487" 
d="M290 540q-45 0 -69 27t-24 65q0 45 30 78t83 33q45 0 67.5 -27.5t22.5 -65.5q0 -45 -29.5 -77.5t-80.5 -32.5zM238 -14q-103 0 -159.5 58.5t-56.5 162.5q0 68 19.5 121.5t54 91t82.5 57.5t105 20q89 0 139.5 -36.5t50.5 -111.5q0 -23 -5 -45t-13 -36l-143 -1q4 8 6.5 20
t2.5 23q0 45 -47 45q-20 0 -35.5 -11t-25.5 -30.5t-15 -45.5t-5 -56q0 -45 19 -64.5t54 -19.5q33 0 54.5 14t41.5 40l93 -89q-32 -48 -87.5 -77.5t-129.5 -29.5z" />
    <glyph glyph-name="Ccaron" unicode="&#x10c;" horiz-adv-x="616" 
d="M235 912h145l25 -70l42 70h145l-106 -171h-182zM315 -13q-130 0 -203 80t-73 228q0 96 24.5 173.5t69.5 131.5t109.5 83.5t144.5 29.5q46 0 88 -11t73.5 -35t50.5 -61t19 -88q0 -42 -15 -87h-161q5 11 7 24.5t2 24.5q0 37 -21 58t-62 21q-69 0 -108.5 -63.5t-39.5 -181.5
q0 -86 32 -131.5t94 -45.5q48 0 77 19t57 59l108 -80q-41 -69 -106 -108.5t-167 -39.5z" />
    <glyph glyph-name="ccaron" unicode="&#x10d;" horiz-adv-x="487" 
d="M132 741h145l23 -90l44 90h145l-108 -201h-183zM238 -14q-103 0 -159.5 58.5t-56.5 162.5q0 68 19.5 121.5t54 91t82.5 57.5t105 20q89 0 139.5 -36.5t50.5 -111.5q0 -23 -5 -45t-13 -36l-143 -1q4 8 6.5 20t2.5 23q0 45 -47 45q-20 0 -35.5 -11t-25.5 -30.5t-15 -45.5
t-5 -56q0 -45 19 -64.5t54 -19.5q33 0 54.5 14t41.5 40l93 -89q-32 -48 -87.5 -77.5t-129.5 -29.5z" />
    <glyph glyph-name="Dcaron" unicode="&#x10e;" horiz-adv-x="676" 
d="M222 912h145l25 -70l42 70h145l-106 -171h-182zM114 700h225q69 0 128 -16t102 -52t67.5 -93.5t24.5 -140.5q0 -111 -32.5 -187.5t-85.5 -123t-120 -67t-136 -20.5h-247zM284 138q91 0 144.5 61.5t53.5 181.5q0 40 -8.5 73.5t-28.5 57.5t-52.5 37t-80.5 13h-42l-44 -424
h58z" />
    <glyph glyph-name="dcaron" unicode="&#x10f;" horiz-adv-x="637" 
d="M584 509q36 12 46 28t12 30q-32 4 -43.5 22.5t-11.5 41.5q0 38 25 64.5t67 26.5q35 0 56 -21.5t21 -62.5q0 -66 -39.5 -118t-114.5 -75zM185 -14q-75 0 -118.5 53t-43.5 163q0 74 18 129.5t49 92t72.5 55t88.5 18.5q41 0 67 -13t38 -30l27 256h170l-57 -543
q-4 -39 33 -39l-13 -129q-12 -4 -32.5 -6.5t-45.5 -2.5q-49 0 -73 20t-28 56h-1q-23 -38 -58.5 -59t-92.5 -21zM257 128q29 0 48 18t27 46l11 105q-1 9 -4.5 19t-11 19t-18.5 14.5t-28 5.5q-22 0 -38.5 -11.5t-26.5 -31.5t-15 -46.5t-5 -55.5q0 -45 16.5 -63.5t44.5 -18.5z
" />
    <glyph glyph-name="Dcroat" unicode="&#x110;" horiz-adv-x="676" 
d="M339 700q69 0 128 -16t102 -52t67.5 -93.5t24.5 -140.5q0 -111 -32.5 -187.5t-85.5 -123t-120 -67t-136 -20.5h-247l32 298h-60l12 116h60l30 286h225zM284 138q91 0 144.5 61.5t53.5 181.5q0 40 -8.5 73.5t-28.5 57.5t-52.5 37t-80.5 13h-42l-15 -148h101l-12 -116h-101
l-17 -160h58z" />
    <glyph glyph-name="dcroat" unicode="&#x111;" horiz-adv-x="570" 
d="M496 167q-4 -39 33 -39l-13 -129q-12 -4 -32.5 -6.5t-45.5 -2.5q-49 0 -73 20t-28 56h-1q-23 -38 -58.5 -59t-92.5 -21q-75 0 -118.5 53t-43.5 163q0 74 18 129.5t49 92t72.5 55t88.5 18.5q41 0 67 -13t38 -30l10 90h-71l12 116h71l7 66h170l-7 -66h91l-12 -116h-91z
M343 297q-1 9 -4.5 19t-11 19t-18.5 14.5t-28 5.5q-22 0 -38.5 -11.5t-26.5 -31.5t-15 -46.5t-5 -55.5q0 -45 16.5 -63.5t44.5 -18.5q29 0 48 18t27 46z" />
    <glyph glyph-name="Emacron" unicode="&#x112;" horiz-adv-x="551" 
d="M199 882h332l-13 -119h-332zM114 700h446l-15 -142h-275l-14 -134h240l-15 -143h-240l-15 -138h277l-15 -143h-448z" />
    <glyph glyph-name="emacron" unicode="&#x113;" horiz-adv-x="493" 
d="M443 578h-312l13 124h312zM271 124q33 0 59.5 14.5t44.5 37.5l88 -83q-38 -53 -98 -81t-137 -26q-98 3 -152.5 59.5t-54.5 163.5q0 66 21 119.5t57.5 91t85.5 57.5t104 20q93 0 139 -37t46 -103q0 -172 -278 -178q7 -27 25 -41t50 -14zM285 361q-31 0 -53.5 -23
t-32.5 -65q65 3 91 17.5t26 40.5q0 30 -31 30z" />
    <glyph glyph-name="Ebreve" unicode="&#x114;" horiz-adv-x="551" 
d="M350 743q-47 0 -77.5 15t-47.5 39t-22 54t-2 60h122q-6 -55 38 -55q43 0 49 55h122q-3 -30 -14.5 -60t-33.5 -54t-55 -39t-79 -15zM114 700h446l-15 -142h-275l-14 -134h240l-15 -143h-240l-15 -138h277l-15 -143h-448z" />
    <glyph glyph-name="ebreve" unicode="&#x115;" horiz-adv-x="493" 
d="M285 554q-51 0 -81.5 15.5t-46.5 41t-19.5 57.5t-0.5 64h123q-3 -30 6 -43.5t32 -13.5t34.5 13.5t14.5 43.5h121q-3 -32 -13.5 -64t-31.5 -57.5t-54.5 -41t-83.5 -15.5zM271 124q33 0 59.5 14.5t44.5 37.5l88 -83q-38 -53 -98 -81t-137 -26q-98 3 -152.5 59.5
t-54.5 163.5q0 66 21 119.5t57.5 91t85.5 57.5t104 20q93 0 139 -37t46 -103q0 -172 -278 -178q7 -27 25 -41t50 -14zM285 361q-31 0 -53.5 -23t-32.5 -65q65 3 91 17.5t26 40.5q0 30 -31 30z" />
    <glyph glyph-name="Edotaccent" unicode="&#x116;" horiz-adv-x="551" 
d="M349 736q-42 0 -65 26t-23 64q0 47 31 77t77 30q43 0 65.5 -27t22.5 -64q0 -45 -28.5 -75.5t-79.5 -30.5zM114 700h446l-15 -142h-275l-14 -134h240l-15 -143h-240l-15 -138h277l-15 -143h-448z" />
    <glyph glyph-name="edotaccent" unicode="&#x117;" horiz-adv-x="493" 
d="M284 540q-45 0 -69 27t-24 65q0 45 30 78t83 33q45 0 67.5 -27.5t22.5 -65.5q0 -45 -29.5 -77.5t-80.5 -32.5zM271 124q33 0 59.5 14.5t44.5 37.5l88 -83q-38 -53 -98 -81t-137 -26q-98 3 -152.5 59.5t-54.5 163.5q0 66 21 119.5t57.5 91t85.5 57.5t104 20q93 0 139 -37
t46 -103q0 -172 -278 -178q7 -27 25 -41t50 -14zM285 361q-31 0 -53.5 -23t-32.5 -65q65 3 91 17.5t26 40.5q0 30 -31 30z" />
    <glyph glyph-name="Eogonek" unicode="&#x118;" horiz-adv-x="551" 
d="M270 558l-14 -134h240l-15 -143h-240l-15 -138h277l-15 -143q-36 -17 -54.5 -41.5t-18.5 -48.5q0 -14 7.5 -20.5t18.5 -6.5t16.5 2t10.5 6l26 -77q-33 -25 -95 -25q-55 0 -82.5 25t-27.5 68q0 33 17 63t48 55h-314l74 700h446l-15 -142h-275z" />
    <glyph glyph-name="eogonek" unicode="&#x119;" horiz-adv-x="493" 
d="M271 124q33 0 59.5 14.5t44.5 37.5l88 -83q-51 -71 -136 -95q-35 -17 -52 -41t-17 -47q0 -14 7.5 -20.5t18.5 -6.5t16.5 2t10.5 6l26 -77q-33 -25 -95 -25q-55 0 -82.5 25t-27.5 68q0 30 14 57.5t39 50.5q-78 14 -121 69t-43 150q0 66 21 119.5t57.5 91t85.5 57.5t104 20
q93 0 139 -37t46 -103q0 -172 -278 -178q7 -27 25 -41t50 -14zM285 361q-31 0 -53.5 -23t-32.5 -65q65 3 91 17.5t26 40.5q0 30 -31 30z" />
    <glyph glyph-name="Ecaron" unicode="&#x11a;" horiz-adv-x="551" 
d="M190 912h145l25 -70l42 70h145l-106 -171h-182zM114 700h446l-15 -142h-275l-14 -134h240l-15 -143h-240l-15 -138h277l-15 -143h-448z" />
    <glyph glyph-name="ecaron" unicode="&#x11b;" horiz-adv-x="493" 
d="M192 540l-66 201h145l23 -90l44 90h145l-108 -201h-183zM474 357q0 -172 -278 -178q7 -27 25 -41t50 -14q33 0 59.5 14.5t44.5 37.5l88 -83q-38 -53 -98 -81t-137 -26q-98 3 -152.5 59.5t-54.5 163.5q0 66 21 119.5t57.5 91t85.5 57.5t104 20q93 0 139 -37t46 -103z
M199 273q65 3 91 17.5t26 40.5q0 30 -31 30t-53.5 -23t-32.5 -65z" />
    <glyph glyph-name="Gcircumflex" unicode="&#x11c;" horiz-adv-x="656" 
d="M316 912h182l70 -171h-145l-27 70l-40 -70h-145zM327 -12q-143 0 -216 80.5t-73 226.5q0 92 25 169t72.5 132.5t115 86t152.5 30.5q49 0 92 -12.5t75 -36.5t50.5 -60t18.5 -84q0 -21 -3.5 -38t-8.5 -38h-163l2.5 12.5t1.5 23.5q0 33 -20.5 56t-67.5 23q-78 0 -119.5 -66
t-41.5 -187q0 -88 32 -129t95 -41q42 0 70 8t45 19l7 70h-113l14 133h262l-30 -286q-12 -12 -36 -28t-58.5 -30.5t-79.5 -24t-100 -9.5z" />
    <glyph glyph-name="gcircumflex" unicode="&#x11d;" horiz-adv-x="546" 
d="M235 741h182l67 -201h-145l-25 90l-42 -90h-145zM206 -240q-68 0 -121 19.5t-92 76.5l108 98q21 -31 44.5 -45t64.5 -14q92 0 104 113l3 35q-22 -27 -51.5 -42t-80.5 -15q-75 0 -118.5 56t-43.5 160q0 70 16.5 124.5t46.5 92.5t71 58t90 20q76 0 123 -55l5 40h149
l-50 -476q-6 -60 -28.5 -105.5t-58 -77t-81.5 -47.5t-100 -16zM258 128q26 0 46 18t28 46l11 105q-1 9 -4.5 19t-11 19t-18.5 14.5t-28 5.5q-22 0 -38.5 -11.5t-26.5 -30.5t-15 -44t-5 -52q0 -45 16.5 -67t45.5 -22z" />
    <glyph glyph-name="Gbreve" unicode="&#x11e;" horiz-adv-x="656" 
d="M393 743q-47 0 -77.5 15t-47.5 39t-22 54t-2 60h122q-6 -55 38 -55q43 0 49 55h122q-3 -30 -14.5 -60t-33.5 -54t-55 -39t-79 -15zM327 -12q-143 0 -216 80.5t-73 226.5q0 92 25 169t72.5 132.5t115 86t152.5 30.5q49 0 92 -12.5t75 -36.5t50.5 -60t18.5 -84
q0 -21 -3.5 -38t-8.5 -38h-163l2.5 12.5t1.5 23.5q0 33 -20.5 56t-67.5 23q-78 0 -119.5 -66t-41.5 -187q0 -88 32 -129t95 -41q42 0 70 8t45 19l7 70h-113l14 133h262l-30 -286q-12 -12 -36 -28t-58.5 -30.5t-79.5 -24t-100 -9.5z" />
    <glyph glyph-name="gbreve" unicode="&#x11f;" horiz-adv-x="546" 
d="M307 554q-51 0 -81.5 15.5t-46.5 41t-19.5 57.5t-0.5 64h123q-3 -30 6 -43.5t32 -13.5t34.5 13.5t14.5 43.5h121q-3 -32 -13.5 -64t-31.5 -57.5t-54.5 -41t-83.5 -15.5zM206 -240q-68 0 -121 19.5t-92 76.5l108 98q21 -31 44.5 -45t64.5 -14q92 0 104 113l3 35
q-22 -27 -51.5 -42t-80.5 -15q-75 0 -118.5 56t-43.5 160q0 70 16.5 124.5t46.5 92.5t71 58t90 20q76 0 123 -55l5 40h149l-50 -476q-6 -60 -28.5 -105.5t-58 -77t-81.5 -47.5t-100 -16zM258 128q26 0 46 18t28 46l11 105q-1 9 -4.5 19t-11 19t-18.5 14.5t-28 5.5
q-22 0 -38.5 -11.5t-26.5 -30.5t-15 -44t-5 -52q0 -45 16.5 -67t45.5 -22z" />
    <glyph glyph-name="Gdotaccent" unicode="&#x120;" horiz-adv-x="656" 
d="M392 736q-42 0 -65 26t-23 64q0 47 31 77t77 30q43 0 65.5 -27t22.5 -64q0 -45 -28.5 -75.5t-79.5 -30.5zM327 -12q-143 0 -216 80.5t-73 226.5q0 92 25 169t72.5 132.5t115 86t152.5 30.5q49 0 92 -12.5t75 -36.5t50.5 -60t18.5 -84q0 -21 -3.5 -38t-8.5 -38h-163
l2.5 12.5t1.5 23.5q0 33 -20.5 56t-67.5 23q-78 0 -119.5 -66t-41.5 -187q0 -88 32 -129t95 -41q42 0 70 8t45 19l7 70h-113l14 133h262l-30 -286q-12 -12 -36 -28t-58.5 -30.5t-79.5 -24t-100 -9.5z" />
    <glyph glyph-name="gdotaccent" unicode="&#x121;" horiz-adv-x="546" 
d="M306 540q-45 0 -69 27t-24 65q0 45 30 78t83 33q45 0 67.5 -27.5t22.5 -65.5q0 -45 -29.5 -77.5t-80.5 -32.5zM206 -240q-68 0 -121 19.5t-92 76.5l108 98q21 -31 44.5 -45t64.5 -14q92 0 104 113l3 35q-22 -27 -51.5 -42t-80.5 -15q-75 0 -118.5 56t-43.5 160
q0 70 16.5 124.5t46.5 92.5t71 58t90 20q76 0 123 -55l5 40h149l-50 -476q-6 -60 -28.5 -105.5t-58 -77t-81.5 -47.5t-100 -16zM258 128q26 0 46 18t28 46l11 105q-1 9 -4.5 19t-11 19t-18.5 14.5t-28 5.5q-22 0 -38.5 -11.5t-26.5 -30.5t-15 -44t-5 -52q0 -45 16.5 -67
t45.5 -22z" />
    <glyph glyph-name="uni0122" unicode="&#x122;" horiz-adv-x="656" 
d="M327 -12q-143 0 -216 80.5t-73 226.5q0 92 25 169t72.5 132.5t115 86t152.5 30.5q49 0 92 -12.5t75 -36.5t50.5 -60t18.5 -84q0 -21 -3.5 -38t-8.5 -38h-163l2.5 12.5t1.5 23.5q0 33 -20.5 56t-67.5 23q-78 0 -119.5 -66t-41.5 -187q0 -88 32 -129t95 -41q42 0 70 8
t45 19l7 70h-113l14 133h262l-30 -286q-12 -12 -36 -28t-58.5 -30.5t-79.5 -24t-100 -9.5zM241 -223q35 8 44 19t11 20q-28 7 -41.5 26t-13.5 45q0 35 23 59.5t62 24.5q37 0 60.5 -22.5t23.5 -64.5q0 -58 -38.5 -104.5t-112.5 -66.5z" />
    <glyph glyph-name="uni0123" unicode="&#x123;" horiz-adv-x="546" 
d="M304 546q-37 0 -58 20t-21 59q0 27 10.5 55t29.5 52t44 42t53 26l29 -61q-25 -6 -39.5 -21.5t-16.5 -26.5q28 -2 41.5 -18.5t13.5 -43.5q0 -35 -24 -59t-62 -24zM206 -240q-68 0 -121 19.5t-92 76.5l108 98q21 -31 44.5 -45t64.5 -14q92 0 104 113l3 35
q-22 -27 -51.5 -42t-80.5 -15q-75 0 -118.5 56t-43.5 160q0 70 16.5 124.5t46.5 92.5t71 58t90 20q76 0 123 -55l5 40h149l-50 -476q-6 -60 -28.5 -105.5t-58 -77t-81.5 -47.5t-100 -16zM258 128q26 0 46 18t28 46l11 105q-1 9 -4.5 19t-11 19t-18.5 14.5t-28 5.5
q-22 0 -38.5 -11.5t-26.5 -30.5t-15 -44t-5 -52q0 -45 16.5 -67t45.5 -22z" />
    <glyph glyph-name="Hcircumflex" unicode="&#x124;" horiz-adv-x="670" 
d="M311 912h182l70 -171h-145l-27 70l-40 -70h-145zM111 700h171l-29 -268h204l29 268h171l-74 -700h-171l29 275h-204l-29 -275h-171z" />
    <glyph glyph-name="hcircumflex" unicode="&#x125;" horiz-adv-x="552" 
d="M111 912h182l70 -171h-145l-27 70l-40 -70h-145zM439 -5q-34 0 -60 7.5t-42.5 25t-23.5 46.5t-2 72l15 135q3 30 -10 46t-33 16q-31 0 -44.5 -19.5t-15.5 -38.5l-30 -285h-170l76 726h170l-28 -271q17 17 45 29.5t65 12.5q45 0 75 -15t47.5 -41.5t23 -61.5t1.5 -75
l-13 -128q-2 -24 5.5 -33.5t37.5 -9.5l-14 -129q-11 -4 -33 -6.5t-42 -2.5z" />
    <glyph glyph-name="Hbar" unicode="&#x126;" horiz-adv-x="750" 
d="M751 492h-77l-52 -492h-171l29 275h-204l-29 -275h-171l52 492h-76l11 107h76l11 101h171l-11 -101h204l11 101h171l-11 -101h77zM502 492h-204l-6 -60h204z" />
    <glyph glyph-name="hbar" unicode="&#x127;" horiz-adv-x="552" 
d="M485 176q-2 -24 5.5 -33.5t37.5 -9.5l-14 -129q-11 -4 -33 -6.5t-42 -2.5q-34 0 -60 7.5t-42.5 25t-23.5 46.5t-2 72l15 135q3 30 -10 46t-33 16q-31 0 -44.5 -19.5t-15.5 -38.5l-30 -285h-170l57 544h-49l12 116h49l7 66h170l-7 -66h113l-12 -116h-113l-9 -89
q17 17 45 29.5t65 12.5q45 0 75 -15t47.5 -41.5t23 -61.5t1.5 -75z" />
    <glyph glyph-name="Itilde" unicode="&#x128;" horiz-adv-x="301" 
d="M29 741q-5 8 -7.5 23t-2.5 30q0 54 33.5 86t84.5 32q22 0 40.5 -6t35 -13.5t30.5 -14t26 -6.5q27 0 27 24q0 11 -4 16h105q5 -10 7 -24.5t2 -25.5q0 -56 -31.5 -88.5t-82.5 -32.5q-26 0 -46.5 6.5t-37 14t-29 13.5t-22.5 6q-28 0 -28 -24q0 -11 4 -16h-104zM114 700h171
l-74 -700h-171z" />
    <glyph glyph-name="itilde" unicode="&#x129;" horiz-adv-x="291" 
d="M5 540q-5 8 -8 23.5t-3 30.5q0 54 33 87t84 33q20 0 37.5 -6.5t32.5 -15t27.5 -15t23.5 -6.5q10 0 18.5 6t8.5 18q0 5 -1 11t-4 9h96q6 -11 8.5 -26t2.5 -27q0 -55 -32.5 -88t-82.5 -33q-22 0 -40 6.5t-32.5 15t-25.5 15t-20 6.5q-13 0 -21 -7t-8 -18q0 -5 1.5 -11
t3.5 -8h-99zM169 -5q-79 0 -109.5 36t-22.5 115l35 336h171l-31 -295q-4 -32 3 -43t39 -11l-14 -129q-10 -3 -21 -5q-10 -1 -22.5 -2.5t-27.5 -1.5z" />
    <glyph glyph-name="Imacron" unicode="&#x12a;" horiz-adv-x="301" 
d="M53 882h332l-13 -119h-332zM114 700h171l-74 -700h-171z" />
    <glyph glyph-name="imacron" unicode="&#x12b;" horiz-adv-x="291" 
d="M30 702h312l-13 -124h-312zM169 -5q-79 0 -109.5 36t-22.5 115l35 336h171l-31 -295q-4 -32 3 -43t39 -11l-14 -129q-10 -3 -21 -5q-10 -1 -22.5 -2.5t-27.5 -1.5z" />
    <glyph glyph-name="Ibreve" unicode="&#x12c;" horiz-adv-x="301" 
d="M204 743q-47 0 -77.5 15t-47.5 39t-22 54t-2 60h122q-6 -55 38 -55q43 0 49 55h122q-3 -30 -14.5 -60t-33.5 -54t-55 -39t-79 -15zM114 700h171l-74 -700h-171z" />
    <glyph glyph-name="ibreve" unicode="&#x12d;" horiz-adv-x="291" 
d="M171 554q-51 0 -81.5 15.5t-46.5 41t-19.5 57.5t-0.5 64h123q-3 -30 6 -43.5t32 -13.5t34.5 13.5t14.5 43.5h121q-3 -32 -13.5 -64t-31.5 -57.5t-54.5 -41t-83.5 -15.5zM169 -5q-79 0 -109.5 36t-22.5 115l35 336h171l-31 -295q-4 -32 3 -43t39 -11l-14 -129
q-10 -3 -21 -5q-10 -1 -22.5 -2.5t-27.5 -1.5z" />
    <glyph glyph-name="Iogonek" unicode="&#x12e;" horiz-adv-x="301" 
d="M163 -117q11 0 16.5 2t10.5 6l26 -77q-33 -25 -95 -25q-55 0 -82.5 25t-27.5 68q0 33 17 63t48 55h-36l74 700h171l-74 -700h-1q-36 -17 -54.5 -41.5t-18.5 -48.5q0 -14 7.5 -20.5t18.5 -6.5z" />
    <glyph glyph-name="iogonek" unicode="&#x12f;" horiz-adv-x="291" 
d="M170 540q-45 0 -69 27t-24 65q0 45 30 78t83 33q45 0 67.5 -27.5t22.5 -65.5q0 -45 -29.5 -77.5t-80.5 -32.5zM238 3q-35 -17 -53.5 -41t-18.5 -48q0 -14 7.5 -20.5t18.5 -6.5t16.5 2t10.5 6l26 -77q-33 -25 -95 -25q-55 0 -82.5 25t-27.5 68q0 33 17 63t47 54
q-42 14 -57.5 48.5t-9.5 94.5l35 336h171l-31 -295q-4 -32 3 -43t39 -11l-14 -129q-1 0 -2 -1z" />
    <glyph glyph-name="Idotaccent" unicode="&#x130;" horiz-adv-x="301" 
d="M203 736q-42 0 -65 26t-23 64q0 47 31 77t77 30q43 0 65.5 -27t22.5 -64q0 -45 -28.5 -75.5t-79.5 -30.5zM114 700h171l-74 -700h-171z" />
    <glyph glyph-name="dotlessi" unicode="&#x131;" horiz-adv-x="291" 
d="M169 -5q-79 0 -109.5 36t-22.5 115l35 336h171l-31 -295q-4 -32 3 -43t39 -11l-14 -129q-10 -3 -21 -5q-10 -1 -22.5 -2.5t-27.5 -1.5z" />
    <glyph glyph-name="IJ" unicode="&#x132;" horiz-adv-x="784" 
d="M114 700h171l-74 -700h-171zM466 -6q-71 0 -118.5 23.5t-68.5 59.5l114 119q14 -20 30.5 -32.5t45.5 -12.5q34 0 57 21.5t29 77.5l47 450h171l-47 -449q-14 -136 -82 -196.5t-178 -60.5z" />
    <glyph glyph-name="ij" unicode="&#x133;" horiz-adv-x="561" 
d="M170 540q-45 0 -69 27t-24 65q0 45 30 78t83 33q45 0 67.5 -27.5t22.5 -65.5q0 -45 -29.5 -77.5t-80.5 -32.5zM461 540q-45 0 -69 27t-24 65q0 45 30 78t83 33q45 0 67.5 -27.5t22.5 -65.5q0 -45 -29.5 -77.5t-80.5 -32.5zM169 -5q-79 0 -109.5 36t-22.5 115l35 336h171
l-31 -295q-4 -32 3 -43t39 -11l-14 -129q-10 -3 -21 -5q-10 -1 -22.5 -2.5t-27.5 -1.5zM254 -247q-27 0 -45.5 5.5t-29.5 11.5q-14 7 -22 17l63 126q3 -2 8 -4q4 -2 9.5 -3t13.5 -1q31 0 46.5 24t19.5 62l52 491h169l-52 -499q-5 -50 -21 -92t-44.5 -73t-69.5 -48t-97 -17z
" />
    <glyph glyph-name="Jcircumflex" unicode="&#x134;" horiz-adv-x="483" 
d="M303 912h182l70 -171h-145l-27 70l-40 -70h-145zM165 -6q-71 0 -118.5 23.5t-68.5 59.5l114 119q14 -20 30.5 -32.5t45.5 -12.5q34 0 57 21.5t29 77.5l47 450h171l-47 -449q-14 -136 -82 -196.5t-178 -60.5z" />
    <glyph glyph-name="jcircumflex" unicode="&#x135;" horiz-adv-x="270" 
d="M99 741h182l67 -201h-145l-25 90l-42 -90h-145zM-37 -247q-27 0 -45.5 5.5t-30.5 11.5q-13 7 -21 17l63 126q3 -2 8 -4q4 -2 9.5 -3t13.5 -1q31 0 46.5 24t19.5 62l52 491h169l-52 -499q-5 -50 -21 -92t-44.5 -73t-69.5 -48t-97 -17z" />
    <glyph glyph-name="uni0136" unicode="&#x136;" horiz-adv-x="660" 
d="M469 336q28 -25 42.5 -59t26.5 -65t26.5 -52.5t41.5 -21.5h30l-15 -138q-11 -4 -33 -6.5t-48 -2.5q-52 0 -82 21t-48.5 52t-29.5 68t-25 68t-36 52t-61 21h-18l-29 -273h-171l74 700h171l-30 -281h19q37 0 71 14.5t62.5 48t48.5 87t28 131.5h168q-13 -118 -58 -213
t-125 -151zM312 -29q37 0 60.5 -22.5t23.5 -64.5q0 -58 -38.5 -104.5t-112.5 -66.5l-18 64q35 8 44 19t11 20q-28 7 -41.5 26t-13.5 45q0 35 23 59.5t62 24.5z" />
    <glyph glyph-name="uni0137" unicode="&#x137;" horiz-adv-x="542" 
d="M400 246q21 -15 30 -34.5t16.5 -37t17.5 -29.5t34 -12h11l-14 -133q-13 -5 -32.5 -8t-36.5 -3q-40 0 -63.5 14t-37.5 35t-22.5 46t-18 46t-25 35t-43.5 14h-4l-19 -179h-170l76 726h170l-42 -405h17q49 0 82 42t41 119h159q-3 -31 -10.5 -63.5t-21.5 -63t-37 -58.5
t-57 -51zM265 -29q37 0 60.5 -22.5t23.5 -64.5q0 -58 -38.5 -104.5t-112.5 -66.5l-18 64q35 8 44 19t11 20q-28 7 -41.5 26t-13.5 45q0 35 23 59.5t62 24.5z" />
    <glyph glyph-name="kgreenlandic" unicode="&#x138;" horiz-adv-x="542" 
d="M399 243q21 -14 30 -32.5t16.5 -35t18 -28t34.5 -11.5h11l-14 -136q-13 -5 -32.5 -8t-36.5 -3q-40 0 -63.5 14t-37.5 34.5t-22.5 45t-18.5 45t-25 34.5t-43 14h-5l-18 -176h-170l51 482h170l-18 -164h17q49 0 82 41.5t42 122.5h159q-3 -31 -10.5 -63.5t-22 -63.5
t-37 -59.5t-57.5 -52.5z" />
    <glyph glyph-name="Lacute" unicode="&#x139;" horiz-adv-x="523" 
d="M220 912h204l-153 -171h-146zM114 700h171l-58 -544h276l-16 -156h-447z" />
    <glyph glyph-name="lacute" unicode="&#x13a;" horiz-adv-x="287" 
d="M188 920h204l-153 -171h-146zM165 -5q-32 0 -58 7t-43 24.5t-24 46t-3 71.5l61 582h170l-57 -550q-3 -27 7 -35t36 -8l-14 -129q-13 -4 -34 -6.5t-41 -2.5z" />
    <glyph glyph-name="uni013B" unicode="&#x13b;" horiz-adv-x="523" 
d="M114 700h171l-58 -544h276l-16 -156h-447zM181 -223q35 8 44 19t11 20q-28 7 -41.5 26t-13.5 45q0 35 23 59.5t62 24.5q37 0 60.5 -22.5t23.5 -64.5q0 -58 -38.5 -104.5t-112.5 -66.5z" />
    <glyph glyph-name="uni013C" unicode="&#x13c;" horiz-adv-x="287" 
d="M165 -5q-32 0 -58 7t-43 24.5t-24 46t-3 71.5l61 582h170l-57 -550q-3 -27 7 -35t36 -8l-14 -129q-13 -4 -34 -6.5t-41 -2.5zM35 -223q35 8 44 19t11 20q-28 7 -41.5 26t-13.5 45q0 35 23 59.5t62 24.5q37 0 60.5 -22.5t23.5 -64.5q0 -58 -38.5 -104.5t-112.5 -66.5z" />
    <glyph glyph-name="Lcaron" unicode="&#x13d;" horiz-adv-x="549" 
d="M371 495q36 12 46 28t12 30q-32 4 -43.5 22.5t-11.5 41.5q0 38 25 64.5t67 26.5q35 0 56 -21.5t21 -62.5q0 -66 -39.5 -118t-114.5 -75zM114 700h171l-58 -544h276l-16 -156h-447z" />
    <glyph glyph-name="lcaron" unicode="&#x13e;" horiz-adv-x="343" 
d="M165 -5q-32 0 -58 7t-43 24.5t-24 46t-3 71.5l61 582h170l-57 -550q-3 -27 7 -35t36 -8l-14 -129q-13 -4 -34 -6.5t-41 -2.5zM288 509q36 12 46 28t12 30q-28 7 -41.5 26t-13.5 45q0 35 24 59.5t64 24.5q36 0 58.5 -22.5t22.5 -64.5q0 -65 -39.5 -116t-114.5 -74z" />
    <glyph glyph-name="Ldot" unicode="&#x13f;" horiz-adv-x="549" 
d="M114 700h171l-58 -544h276l-16 -156h-447zM426 320q-41 0 -65.5 23.5t-24.5 65.5t26.5 72t74.5 30q40 0 64.5 -24.5t24.5 -65.5q0 -42 -25.5 -71.5t-74.5 -29.5z" />
    <glyph glyph-name="ldot" unicode="&#x140;" horiz-adv-x="391" 
d="M165 -5q-32 0 -58 7t-43 24.5t-24 46t-3 71.5l61 582h170l-57 -550q-3 -27 7 -35t36 -8l-14 -129q-13 -4 -34 -6.5t-41 -2.5zM335 292q-41 0 -65.5 23.5t-24.5 65.5t26.5 72t74.5 30q40 0 64.5 -24.5t24.5 -65.5q0 -42 -25.5 -71.5t-74.5 -29.5z" />
    <glyph glyph-name="Lslash" unicode="&#x141;" horiz-adv-x="584" 
d="M548 156l-16 -156h-447l23 215l-52 -28l-51 110l118 65l36 338h171l-25 -238l80 44l54 -109l-150 -82l-17 -159h276z" />
    <glyph glyph-name="lslash" unicode="&#x142;" horiz-adv-x="394" 
d="M271 176q-3 -27 7 -35t36 -8l-14 -129q-13 -4 -34 -6.5t-41 -2.5q-32 0 -58 7t-43 24.5t-24 46t-3 71.5l11 105l-53 -29l-50 106l118 67l35 333h170l-24 -231l54 30l54 -107l-123 -68z" />
    <glyph glyph-name="Nacute" unicode="&#x143;" horiz-adv-x="680" 
d="M407 912h204l-153 -171h-146zM114 700h152l177 -371l16 -47l44 418h161l-74 -700h-152l-182 377l-10 35l-44 -412h-162z" />
    <glyph glyph-name="nacute" unicode="&#x144;" horiz-adv-x="570" 
d="M329 747h197l-157 -211h-140zM447 -8q-68 0 -97.5 31t-21.5 104l17 155q3 29 -10.5 45t-35.5 16q-23 0 -38.5 -16t-18.5 -45l-30 -282h-170l33 312q2 21 -6 30t-28 9l13 129q13 4 34 6.5t46 2.5q47 0 70.5 -19t29.5 -43h1q6 11 17.5 23t28 22.5t39 17.5t50.5 7
q80 0 118.5 -50.5t28.5 -142.5l-14 -135q-4 -39 33 -39l-14 -129q-11 -4 -32.5 -6.5t-42.5 -2.5z" />
    <glyph glyph-name="uni0145" unicode="&#x145;" horiz-adv-x="680" 
d="M114 700h152l177 -371l16 -47l44 418h161l-74 -700h-152l-182 377l-10 35l-44 -412h-162zM233 -223q35 8 44 19t11 20q-28 7 -41.5 26t-13.5 45q0 35 23 59.5t62 24.5q37 0 60.5 -22.5t23.5 -64.5q0 -58 -38.5 -104.5t-112.5 -66.5z" />
    <glyph glyph-name="uni0146" unicode="&#x146;" horiz-adv-x="570" 
d="M447 -8q-68 0 -97.5 31t-21.5 104l17 155q3 29 -10.5 45t-35.5 16q-23 0 -38.5 -16t-18.5 -45l-30 -282h-170l33 312q2 21 -6 30t-28 9l13 129q13 4 34 6.5t46 2.5q47 0 70.5 -19t29.5 -43h1q6 11 17.5 23t28 22.5t39 17.5t50.5 7q80 0 118.5 -50.5t28.5 -142.5l-14 -135
q-4 -39 33 -39l-14 -129q-11 -4 -32.5 -6.5t-42.5 -2.5zM174 -223q35 8 44 19t11 20q-28 7 -41.5 26t-13.5 45q0 35 23 59.5t62 24.5q37 0 60.5 -22.5t23.5 -64.5q0 -58 -38.5 -104.5t-112.5 -66.5z" />
    <glyph glyph-name="Ncaron" unicode="&#x147;" horiz-adv-x="680" 
d="M236 912h145l25 -70l42 70h145l-106 -171h-182zM114 700h152l177 -371l16 -47l44 418h161l-74 -700h-152l-182 377l-10 35l-44 -412h-162z" />
    <glyph glyph-name="ncaron" unicode="&#x148;" horiz-adv-x="570" 
d="M159 741h145l23 -90l44 90h145l-108 -201h-183zM447 -8q-68 0 -97.5 31t-21.5 104l17 155q3 29 -10.5 45t-35.5 16q-23 0 -38.5 -16t-18.5 -45l-30 -282h-170l33 312q2 21 -6 30t-28 9l13 129q13 4 34 6.5t46 2.5q47 0 70.5 -19t29.5 -43h1q6 11 17.5 23t28 22.5t39 17.5
t50.5 7q80 0 118.5 -50.5t28.5 -142.5l-14 -135q-4 -39 33 -39l-14 -129q-11 -4 -32.5 -6.5t-42.5 -2.5z" />
    <glyph glyph-name="napostrophe" unicode="&#x149;" horiz-adv-x="707" 
d="M16 551q17 7 30 15q12 8 21 17t9 19q-32 0 -52.5 21.5t-20.5 53.5q0 33 22 55.5t54 22.5t58.5 -21.5t26.5 -69.5t-16 -80.5t-36.5 -52t-38.5 -27.5t-22 -9zM569 -8q-68 0 -97.5 31t-21.5 104l17 155q3 29 -10.5 45t-35.5 16q-23 0 -38.5 -16t-18.5 -45l-30 -282h-170
l33 312q2 21 -6 30t-28 9l13 129q13 4 34 6.5t46 2.5q47 0 70.5 -19t29.5 -43h1q6 11 17.5 23t28 22.5t39 17.5t50.5 7q80 0 118.5 -50.5t28.5 -142.5l-14 -135q-4 -39 33 -39l-14 -129q-11 -4 -32.5 -6.5t-42.5 -2.5z" />
    <glyph glyph-name="Eng" unicode="&#x14a;" horiz-adv-x="680" 
d="M664 700l-74 -700l-1 -7q-12 -116 -71.5 -178t-185.5 -62q-45 0 -84.5 14t-60.5 45l112 131q19 -25 52 -25q29 0 46.5 17.5t22.5 64.5l3 30l-167 347l-10 35l-44 -412h-162l74 700h152l177 -371l16 -47l44 418h161z" />
    <glyph glyph-name="eng" unicode="&#x14b;" horiz-adv-x="555" 
d="M373 497q79 0 117 -47.5t27 -145.5l-32 -304l-1 -7q-13 -116 -72.5 -177t-174.5 -61q-48 0 -90 12.5t-65 39.5l111 131q9 -10 21 -17t29 -7q33 0 50 19.5t22 66.5l30 281q4 34 -10 48t-36 14q-23 0 -38.5 -16.5t-18.5 -45.5l-30 -281h-170l33 312q2 21 -6 30t-28 9
l13 129q13 4 34 6.5t46 2.5q47 0 70 -18t30 -44h1q8 12 19.5 24.5t28 22.5t39 16.5t51.5 6.5z" />
    <glyph glyph-name="Omacron" unicode="&#x14c;" horiz-adv-x="698" 
d="M251 882h332l-13 -119h-332zM322 -13q-61 0 -113 18.5t-90 57t-59.5 97t-21.5 138.5q0 102 29 179.5t78 130t115 79t139 26.5q61 0 113 -19t90 -57.5t59.5 -97.5t21.5 -139q0 -102 -29 -179.5t-78 -129.5t-114.5 -78t-139.5 -26zM341 140q33 0 62 13.5t50.5 43t35 76.5
t16.5 115q2 48 -7 80.5t-26 53t-40 29.5t-50 9q-32 0 -61 -13t-51 -42t-36 -76t-17 -115q-2 -47 7 -80t26 -54t40.5 -30.5t50.5 -9.5z" />
    <glyph glyph-name="omacron" unicode="&#x14d;" horiz-adv-x="537" 
d="M161 702h312l-13 -124h-312zM244 -14q-56 0 -97.5 16.5t-69.5 46.5t-41.5 71t-13.5 89q0 61 18 113.5t52.5 91.5t85.5 61t116 22q56 0 97.5 -16.5t69.5 -46.5t41.5 -70.5t13.5 -88.5q0 -60 -18 -113t-52.5 -92t-85.5 -61.5t-116 -22.5zM256 128q47 0 67 39t20 97
q0 42 -15.5 66.5t-47.5 24.5q-43 0 -64 -39t-21 -99q0 -41 14.5 -65t46.5 -24z" />
    <glyph glyph-name="Obreve" unicode="&#x14e;" horiz-adv-x="698" 
d="M402 743q-47 0 -77.5 15t-47.5 39t-22 54t-2 60h122q-6 -55 38 -55q43 0 49 55h122q-3 -30 -14.5 -60t-33.5 -54t-55 -39t-79 -15zM322 -13q-61 0 -113 18.5t-90 57t-59.5 97t-21.5 138.5q0 102 29 179.5t78 130t115 79t139 26.5q61 0 113 -19t90 -57.5t59.5 -97.5
t21.5 -139q0 -102 -29 -179.5t-78 -129.5t-114.5 -78t-139.5 -26zM341 140q33 0 62 13.5t50.5 43t35 76.5t16.5 115q2 48 -7 80.5t-26 53t-40 29.5t-50 9q-32 0 -61 -13t-51 -42t-36 -76t-17 -115q-2 -47 7 -80t26 -54t40.5 -30.5t50.5 -9.5z" />
    <glyph glyph-name="obreve" unicode="&#x14f;" horiz-adv-x="537" 
d="M302 554q-51 0 -81.5 15.5t-46.5 41t-19.5 57.5t-0.5 64h123q-3 -30 6 -43.5t32 -13.5t34.5 13.5t14.5 43.5h121q-3 -32 -13.5 -64t-31.5 -57.5t-54.5 -41t-83.5 -15.5zM244 -14q-56 0 -97.5 16.5t-69.5 46.5t-41.5 71t-13.5 89q0 61 18 113.5t52.5 91.5t85.5 61t116 22
q56 0 97.5 -16.5t69.5 -46.5t41.5 -70.5t13.5 -88.5q0 -60 -18 -113t-52.5 -92t-85.5 -61.5t-116 -22.5zM256 128q47 0 67 39t20 97q0 42 -15.5 66.5t-47.5 24.5q-43 0 -64 -39t-21 -99q0 -41 14.5 -65t46.5 -24z" />
    <glyph glyph-name="Ohungarumlaut" unicode="&#x150;" horiz-adv-x="698" 
d="M297 912h182l-144 -171h-124zM534 912h182l-144 -171h-125zM322 -13q-61 0 -113 18.5t-90 57t-59.5 97t-21.5 138.5q0 102 29 179.5t78 130t115 79t139 26.5q61 0 113 -19t90 -57.5t59.5 -97.5t21.5 -139q0 -102 -29 -179.5t-78 -129.5t-114.5 -78t-139.5 -26zM341 140
q33 0 62 13.5t50.5 43t35 76.5t16.5 115q2 48 -7 80.5t-26 53t-40 29.5t-50 9q-32 0 -61 -13t-51 -42t-36 -76t-17 -115q-2 -47 7 -80t26 -54t40.5 -30.5t50.5 -9.5z" />
    <glyph glyph-name="ohungarumlaut" unicode="&#x151;" horiz-adv-x="537" 
d="M184 747h182l-138 -211h-124zM421 747h181l-137 -211h-125zM244 -14q-56 0 -97.5 16.5t-69.5 46.5t-41.5 71t-13.5 89q0 61 18 113.5t52.5 91.5t85.5 61t116 22q56 0 97.5 -16.5t69.5 -46.5t41.5 -70.5t13.5 -88.5q0 -60 -18 -113t-52.5 -92t-85.5 -61.5t-116 -22.5z
M256 128q47 0 67 39t20 97q0 42 -15.5 66.5t-47.5 24.5q-43 0 -64 -39t-21 -99q0 -41 14.5 -65t46.5 -24z" />
    <glyph glyph-name="OE" unicode="&#x152;" horiz-adv-x="971" 
d="M309 -6q-57 0 -106 19t-86 57.5t-58 96t-21 134.5q0 99 28.5 174.5t76.5 127t110.5 77.5t130.5 26q47 0 83 -10t68 -39l5 43h441l-16 -144h-270l-14 -133h231l-14 -141h-231l-15 -138h270l-15 -144h-441l5 46q-38 -29 -76.5 -40.5t-85.5 -11.5zM343 140q31 0 58 13.5
t47.5 43t33.5 76.5t15 115q2 48 -7 80.5t-25.5 53t-39 29.5t-48.5 9q-32 0 -61 -14t-51 -45t-35 -81t-13 -123q0 -42 10 -72t27.5 -49t40.5 -27.5t48 -8.5z" />
    <glyph glyph-name="oe" unicode="&#x153;" horiz-adv-x="788" 
d="M205 -14q-100 0 -156.5 60t-56.5 168q0 62 17.5 114t50.5 89.5t81 58.5t109 21q54 0 93.5 -19.5t62.5 -57.5q34 46 77.5 61.5t85.5 15.5q51 0 87.5 -14.5t60.5 -40.5t35.5 -62t11.5 -80q0 -24 -2.5 -47.5t-7.5 -40.5h-271v-2q2 -86 79 -86q29 0 50.5 14t42.5 42l96 -85
q-29 -49 -81.5 -79t-127.5 -30q-54 0 -96 13.5t-72 48.5q-32 -31 -72 -46.5t-97 -15.5zM605 297q5 36 -9.5 52t-37.5 16q-24 0 -42 -15.5t-26 -52.5h115zM231 128q38 0 60 35t22 100q0 45 -16 68.5t-47 23.5q-41 0 -63 -36t-22 -102q0 -89 66 -89z" />
    <glyph glyph-name="Racute" unicode="&#x154;" horiz-adv-x="652" 
d="M383 912h204l-153 -171h-146zM520 -9q-51 0 -81 19t-48 47t-28 61.5t-21.5 61.5t-28 47t-47.5 19h-29l-26 -246h-171l74 700h252q129 0 189.5 -50t60.5 -156q0 -34 -9.5 -66t-28.5 -58t-46.5 -46t-63.5 -30q18 -10 27.5 -35.5t20.5 -52.5t28 -47.5t50 -20.5h23l-15 -138
q-14 -5 -37 -7t-45 -2zM313 374q134 0 134 105q0 41 -26 63t-77 22h-74l-20 -190h63z" />
    <glyph glyph-name="racute" unicode="&#x155;" horiz-adv-x="400" 
d="M257 747h197l-157 -211h-140zM75 312q2 21 -6 30t-28 9l13 129q13 4 33.5 6.5t43.5 2.5q55 0 79 -22.5t22 -47.5h1q17 35 50.5 55t80.5 20q21 0 40.5 -5t27.5 -13l-72 -155q-10 6 -20.5 9t-26.5 3q-29 0 -49.5 -18t-25.5 -60l-26 -255h-170z" />
    <glyph glyph-name="uni0156" unicode="&#x156;" horiz-adv-x="652" 
d="M520 -9q-51 0 -81 19t-48 47t-28 61.5t-21.5 61.5t-28 47t-47.5 19h-29l-26 -246h-171l74 700h252q129 0 189.5 -50t60.5 -156q0 -34 -9.5 -66t-28.5 -58t-46.5 -46t-63.5 -30q18 -10 27.5 -35.5t20.5 -52.5t28 -47.5t50 -20.5h23l-15 -138q-14 -5 -37 -7t-45 -2z
M313 374q134 0 134 105q0 41 -26 63t-77 22h-74l-20 -190h63zM222 -223q35 8 44 19t11 20q-28 7 -41.5 26t-13.5 45q0 35 23 59.5t62 24.5q37 0 60.5 -22.5t23.5 -64.5q0 -58 -38.5 -104.5t-112.5 -66.5z" />
    <glyph glyph-name="uni0157" unicode="&#x157;" horiz-adv-x="400" 
d="M75 312q2 21 -6 30t-28 9l13 129q13 4 33.5 6.5t43.5 2.5q55 0 79 -22.5t22 -47.5h1q17 35 50.5 55t80.5 20q21 0 40.5 -5t27.5 -13l-72 -155q-10 6 -20.5 9t-26.5 3q-29 0 -49.5 -18t-25.5 -60l-26 -255h-170zM45 -223q35 8 44 19t11 20q-28 7 -41.5 26t-13.5 45
q0 35 23 59.5t62 24.5q37 0 60.5 -22.5t23.5 -64.5q0 -58 -38.5 -104.5t-112.5 -66.5z" />
    <glyph glyph-name="Rcaron" unicode="&#x158;" horiz-adv-x="652" 
d="M212 912h145l25 -70l42 70h145l-106 -171h-182zM520 -9q-51 0 -81 19t-48 47t-28 61.5t-21.5 61.5t-28 47t-47.5 19h-29l-26 -246h-171l74 700h252q129 0 189.5 -50t60.5 -156q0 -34 -9.5 -66t-28.5 -58t-46.5 -46t-63.5 -30q18 -10 27.5 -35.5t20.5 -52.5t28 -47.5
t50 -20.5h23l-15 -138q-14 -5 -37 -7t-45 -2zM313 374q134 0 134 105q0 41 -26 63t-77 22h-74l-20 -190h63z" />
    <glyph glyph-name="rcaron" unicode="&#x159;" horiz-adv-x="400" 
d="M87 741h145l23 -90l44 90h145l-108 -201h-183zM75 312q2 21 -6 30t-28 9l13 129q13 4 33.5 6.5t43.5 2.5q55 0 79 -22.5t22 -47.5h1q17 35 50.5 55t80.5 20q21 0 40.5 -5t27.5 -13l-72 -155q-10 6 -20.5 9t-26.5 3q-29 0 -49.5 -18t-25.5 -60l-26 -255h-170z" />
    <glyph glyph-name="Sacute" unicode="&#x15a;" horiz-adv-x="604" 
d="M360 912h204l-153 -171h-146zM277 -13q-90 0 -163 27t-113 84l115 117q37 -45 80.5 -64t100.5 -19q51 0 77.5 15.5t26.5 50.5q0 17 -7 29t-23.5 21t-43 17.5t-66.5 17.5q-37 9 -72.5 23t-64 37t-46 57.5t-17.5 84.5q0 105 74 166.5t211 61.5q48 0 92 -8.5t77.5 -29
t53.5 -53.5t20 -82q0 -29 -3.5 -42t-7.5 -25h-152q2 8 3.5 13.5t1.5 18.5q0 34 -27.5 48.5t-68.5 14.5q-102 0 -102 -67q0 -19 9 -31t27 -21t44 -16t60 -15q36 -9 72 -23t64.5 -37.5t46.5 -59t18 -87.5q0 -109 -77 -166.5t-220 -57.5z" />
    <glyph glyph-name="sacute" unicode="&#x15b;" horiz-adv-x="493" 
d="M289 747h197l-157 -211h-140zM216 -14q-24 0 -52 2.5t-57 10t-58 22t-55 37.5l89 119q37 -35 77 -48t88 -13q45 0 45 20q0 5 -3.5 9t-13 8t-26.5 8.5t-44 10.5q-31 8 -60.5 19t-52 29t-36.5 44.5t-14 63.5q0 77 60 123t175 46q90 0 141 -33.5t51 -98.5q0 -18 -5 -35
t-10 -26h-154q2 5 4.5 12t2.5 18q0 21 -13.5 28.5t-33.5 7.5q-53 0 -53 -35q0 -21 24.5 -29.5t81.5 -21.5q25 -6 50.5 -14t46.5 -23t34 -37.5t13 -57.5q0 -85 -65 -125.5t-177 -40.5z" />
    <glyph glyph-name="Scircumflex" unicode="&#x15c;" horiz-adv-x="604" 
d="M272 912h182l70 -171h-145l-27 70l-40 -70h-145zM277 -13q-90 0 -163 27t-113 84l115 117q37 -45 80.5 -64t100.5 -19q51 0 77.5 15.5t26.5 50.5q0 17 -7 29t-23.5 21t-43 17.5t-66.5 17.5q-37 9 -72.5 23t-64 37t-46 57.5t-17.5 84.5q0 105 74 166.5t211 61.5
q48 0 92 -8.5t77.5 -29t53.5 -53.5t20 -82q0 -29 -3.5 -42t-7.5 -25h-152q2 8 3.5 13.5t1.5 18.5q0 34 -27.5 48.5t-68.5 14.5q-102 0 -102 -67q0 -19 9 -31t27 -21t44 -16t60 -15q36 -9 72 -23t64.5 -37.5t46.5 -59t18 -87.5q0 -109 -77 -166.5t-220 -57.5z" />
    <glyph glyph-name="scircumflex" unicode="&#x15d;" horiz-adv-x="493" 
d="M206 741h182l67 -201h-145l-25 90l-42 -90h-145zM216 -14q-24 0 -52 2.5t-57 10t-58 22t-55 37.5l89 119q37 -35 77 -48t88 -13q45 0 45 20q0 5 -3.5 9t-13 8t-26.5 8.5t-44 10.5q-31 8 -60.5 19t-52 29t-36.5 44.5t-14 63.5q0 77 60 123t175 46q90 0 141 -33.5t51 -98.5
q0 -18 -5 -35t-10 -26h-154q2 5 4.5 12t2.5 18q0 21 -13.5 28.5t-33.5 7.5q-53 0 -53 -35q0 -21 24.5 -29.5t81.5 -21.5q25 -6 50.5 -14t46.5 -23t34 -37.5t13 -57.5q0 -85 -65 -125.5t-177 -40.5z" />
    <glyph glyph-name="Scedilla" unicode="&#x15e;" horiz-adv-x="604" 
d="M426 473q2 8 3.5 13.5t1.5 18.5q0 34 -27.5 48.5t-68.5 14.5q-102 0 -102 -67q0 -19 9 -31t27 -21t44 -16t60 -15q36 -9 72 -23t64.5 -37.5t46.5 -59t18 -87.5q0 -97 -62 -153.5t-178 -67.5l-12 -27q29 -7 48 -25.5t19 -53.5q0 -53 -36.5 -83t-105.5 -30q-38 0 -69 9.5
t-45 26.5l55 69q8 -9 22.5 -15.5t30.5 -6.5q34 0 34 28q0 29 -66 34l32 72q-78 5 -141 32t-99 78l115 117q37 -45 80.5 -64t100.5 -19q51 0 77.5 15.5t26.5 50.5q0 17 -7 29t-23.5 21t-43 17.5t-66.5 17.5q-37 9 -72.5 23t-64 37t-46 57.5t-17.5 84.5q0 105 74 166.5
t211 61.5q48 0 92 -8.5t77.5 -29t53.5 -53.5t20 -82q0 -29 -3.5 -42t-7.5 -25h-152z" />
    <glyph glyph-name="scedilla" unicode="&#x15f;" horiz-adv-x="493" 
d="M314 284q25 -6 50.5 -14t46.5 -23t34 -37.5t13 -57.5q0 -75 -50 -115t-139 -48l-11 -26q29 -7 48 -25.5t19 -53.5q0 -53 -36.5 -83t-105.5 -30q-38 0 -69 9.5t-45 26.5l55 69q8 -9 22.5 -15.5t30.5 -6.5q34 0 34 28q0 29 -66 34l32 71q-44 4 -92.5 18.5t-90.5 52.5
l89 119q37 -35 77 -48t88 -13q45 0 45 20q0 5 -3.5 9t-13 8t-26.5 8.5t-44 10.5q-31 8 -60.5 19t-52 29t-36.5 44.5t-14 63.5q0 77 60 123t175 46q90 0 141 -33.5t51 -98.5q0 -18 -5 -35t-10 -26h-154q2 5 4.5 12t2.5 18q0 21 -13.5 28.5t-33.5 7.5q-53 0 -53 -35
q0 -21 24.5 -29.5t81.5 -21.5z" />
    <glyph glyph-name="Scaron" unicode="&#x160;" horiz-adv-x="604" 
d="M189 912h145l25 -70l42 70h145l-106 -171h-182zM277 -13q-90 0 -163 27t-113 84l115 117q37 -45 80.5 -64t100.5 -19q51 0 77.5 15.5t26.5 50.5q0 17 -7 29t-23.5 21t-43 17.5t-66.5 17.5q-37 9 -72.5 23t-64 37t-46 57.5t-17.5 84.5q0 105 74 166.5t211 61.5
q48 0 92 -8.5t77.5 -29t53.5 -53.5t20 -82q0 -29 -3.5 -42t-7.5 -25h-152q2 8 3.5 13.5t1.5 18.5q0 34 -27.5 48.5t-68.5 14.5q-102 0 -102 -67q0 -19 9 -31t27 -21t44 -16t60 -15q36 -9 72 -23t64.5 -37.5t46.5 -59t18 -87.5q0 -109 -77 -166.5t-220 -57.5z" />
    <glyph glyph-name="scaron" unicode="&#x161;" horiz-adv-x="493" 
d="M119 741h145l23 -90l44 90h145l-108 -201h-183zM216 -14q-24 0 -52 2.5t-57 10t-58 22t-55 37.5l89 119q37 -35 77 -48t88 -13q45 0 45 20q0 5 -3.5 9t-13 8t-26.5 8.5t-44 10.5q-31 8 -60.5 19t-52 29t-36.5 44.5t-14 63.5q0 77 60 123t175 46q90 0 141 -33.5t51 -98.5
q0 -18 -5 -35t-10 -26h-154q2 5 4.5 12t2.5 18q0 21 -13.5 28.5t-33.5 7.5q-53 0 -53 -35q0 -21 24.5 -29.5t81.5 -21.5q25 -6 50.5 -14t46.5 -23t34 -37.5t13 -57.5q0 -85 -65 -125.5t-177 -40.5z" />
    <glyph glyph-name="uni0162" unicode="&#x162;" horiz-adv-x="574" 
d="M614 700l-17 -154h-187l-57 -546h-35l-17 -37q29 -7 48 -25.5t19 -53.5q0 -53 -36.5 -83t-105.5 -30q-38 0 -69 9.5t-45 26.5l55 69q8 -9 22.5 -15.5t30.5 -6.5q34 0 34 28q0 29 -66 34l38 84h-44l57 546h-196l17 154h554z" />
    <glyph glyph-name="uni0163" unicode="&#x163;" horiz-adv-x="432" 
d="M256 212q-3 -28 11 -47t46 -19q16 0 27.5 5t22.5 13l50 -126q-23 -18 -56 -29.5t-71 -13.5l-14 -32q29 -7 48 -25.5t19 -53.5q0 -53 -36.5 -83t-105.5 -30q-38 0 -69 9.5t-45 26.5l55 69q8 -9 22.5 -15.5t30.5 -6.5q34 0 34 28q0 29 -66 34l38 85q-66 17 -93.5 66
t-19.5 126l16 156h-77l14 133h81l14 141h166l-14 -141h145l-14 -133h-145z" />
    <glyph glyph-name="Tcaron" unicode="&#x164;" horiz-adv-x="574" 
d="M187 912h145l25 -70l42 70h145l-106 -171h-182zM239 546h-196l17 154h554l-17 -154h-187l-57 -546h-171z" />
    <glyph glyph-name="tcaron" unicode="&#x165;" horiz-adv-x="432" 
d="M329 558q36 12 46 28t12 30q-28 7 -41.5 26t-13.5 45q0 35 24 59.5t64 24.5q36 0 58.5 -22.5t22.5 -64.5q0 -65 -39.5 -116t-114.5 -74zM265 -6q-104 0 -147.5 52.5t-33.5 146.5l16 156h-77l14 133h81l14 141h166l-14 -141h145l-14 -133h-145l-14 -137q-3 -28 11 -47
t46 -19q16 0 27.5 5t22.5 13l50 -126q-26 -20 -64.5 -32t-83.5 -12z" />
    <glyph glyph-name="Tbar" unicode="&#x166;" horiz-adv-x="595" 
d="M413 546l-18 -170h81l-12 -116h-81l-27 -260h-171l27 260h-80l12 116h80l18 170h-196l17 154h554l-17 -154h-187z" />
    <glyph glyph-name="tbar" unicode="&#x167;" horiz-adv-x="447" 
d="M271 349l-3 -34h114l-12 -116h-113q1 -23 14.5 -38t42.5 -15q16 0 27.5 5t22.5 13l50 -126q-26 -20 -64.5 -32t-83.5 -12q-104 0 -147.5 52.5t-33.5 146.5l1 6h-48l12 116h48l3 34h-77l14 133h81l14 141h166l-14 -141h145l-14 -133h-145z" />
    <glyph glyph-name="Utilde" unicode="&#x168;" horiz-adv-x="659" 
d="M207 741q-5 8 -7.5 23t-2.5 30q0 54 33.5 86t84.5 32q22 0 40.5 -6t35 -13.5t30.5 -14t26 -6.5q27 0 27 24q0 11 -4 16h105q5 -10 7 -24.5t2 -25.5q0 -56 -31.5 -88.5t-82.5 -32.5q-26 0 -46.5 6.5t-37 14t-29 13.5t-22.5 6q-28 0 -28 -24q0 -11 4 -16h-104zM305 -6
q-55 0 -103 15t-82 50t-50 91.5t-7 140.5l44 409h171l-44 -423q-3 -25 -1 -48.5t12 -41.5t28.5 -29t48.5 -11t50.5 11t33.5 29t19.5 41.5t9.5 48.5l44 423h171l-43 -409q-9 -84 -36.5 -140.5t-68.5 -91.5t-91.5 -50t-105.5 -15z" />
    <glyph glyph-name="utilde" unicode="&#x169;" horiz-adv-x="557" 
d="M138 540q-5 8 -8 23.5t-3 30.5q0 54 33 87t84 33q20 0 37.5 -6.5t32.5 -15t27.5 -15t23.5 -6.5q10 0 18.5 6t8.5 18q0 5 -1 11t-4 9h96q6 -11 8.5 -26t2.5 -27q0 -55 -32.5 -88t-82.5 -33q-22 0 -40 6.5t-32.5 15t-25.5 15t-20 6.5q-13 0 -21 -7t-8 -18q0 -5 1.5 -11
t3.5 -8h-99zM174 -14q-75 0 -110 43t-26 131l34 322h170l-29 -276q-4 -35 6.5 -50.5t35.5 -15.5q29 0 44.5 20.5t18.5 52.5l28 269h170l-33 -315q-4 -39 33 -39l-13 -129q-12 -4 -33.5 -6.5t-42.5 -2.5q-53 0 -77 20.5t-26 55.5h-1q-25 -42 -60.5 -61t-88.5 -19z" />
    <glyph glyph-name="Umacron" unicode="&#x16a;" horiz-adv-x="659" 
d="M231 882h332l-13 -119h-332zM305 -6q-55 0 -103 15t-82 50t-50 91.5t-7 140.5l44 409h171l-44 -423q-3 -25 -1 -48.5t12 -41.5t28.5 -29t48.5 -11t50.5 11t33.5 29t19.5 41.5t9.5 48.5l44 423h171l-43 -409q-9 -84 -36.5 -140.5t-68.5 -91.5t-91.5 -50t-105.5 -15z" />
    <glyph glyph-name="umacron" unicode="&#x16b;" horiz-adv-x="557" 
d="M163 702h312l-13 -124h-312zM174 -14q-75 0 -110 43t-26 131l34 322h170l-29 -276q-4 -35 6.5 -50.5t35.5 -15.5q29 0 44.5 20.5t18.5 52.5l28 269h170l-33 -315q-4 -39 33 -39l-13 -129q-12 -4 -33.5 -6.5t-42.5 -2.5q-53 0 -77 20.5t-26 55.5h-1q-25 -42 -60.5 -61
t-88.5 -19z" />
    <glyph glyph-name="Ubreve" unicode="&#x16c;" horiz-adv-x="659" 
d="M382 743q-47 0 -77.5 15t-47.5 39t-22 54t-2 60h122q-6 -55 38 -55q43 0 49 55h122q-3 -30 -14.5 -60t-33.5 -54t-55 -39t-79 -15zM305 -6q-55 0 -103 15t-82 50t-50 91.5t-7 140.5l44 409h171l-44 -423q-3 -25 -1 -48.5t12 -41.5t28.5 -29t48.5 -11t50.5 11t33.5 29
t19.5 41.5t9.5 48.5l44 423h171l-43 -409q-9 -84 -36.5 -140.5t-68.5 -91.5t-91.5 -50t-105.5 -15z" />
    <glyph glyph-name="ubreve" unicode="&#x16d;" horiz-adv-x="557" 
d="M304 554q-51 0 -81.5 15.5t-46.5 41t-19.5 57.5t-0.5 64h123q-3 -30 6 -43.5t32 -13.5t34.5 13.5t14.5 43.5h121q-3 -32 -13.5 -64t-31.5 -57.5t-54.5 -41t-83.5 -15.5zM174 -14q-75 0 -110 43t-26 131l34 322h170l-29 -276q-4 -35 6.5 -50.5t35.5 -15.5q29 0 44.5 20.5
t18.5 52.5l28 269h170l-33 -315q-4 -39 33 -39l-13 -129q-12 -4 -33.5 -6.5t-42.5 -2.5q-53 0 -77 20.5t-26 55.5h-1q-25 -42 -60.5 -61t-88.5 -19z" />
    <glyph glyph-name="Uring" unicode="&#x16e;" horiz-adv-x="659" 
d="M381 718q-55 0 -85.5 34t-30.5 83q0 29 10 54t28.5 43.5t44 29t56.5 10.5q56 0 86.5 -34t30.5 -83q0 -29 -10 -54t-28.5 -43.5t-44.5 -29t-57 -10.5zM390 801q21 0 32.5 14.5t11.5 34.5q0 18 -10.5 28.5t-27.5 10.5q-20 0 -32 -14t-12 -35q0 -19 10.5 -29t27.5 -10z
M305 -6q-55 0 -103 15t-82 50t-50 91.5t-7 140.5l44 409h171l-44 -423q-3 -25 -1 -48.5t12 -41.5t28.5 -29t48.5 -11t50.5 11t33.5 29t19.5 41.5t9.5 48.5l44 423h171l-43 -409q-9 -84 -36.5 -140.5t-68.5 -91.5t-91.5 -50t-105.5 -15z" />
    <glyph glyph-name="uring" unicode="&#x16f;" horiz-adv-x="557" 
d="M303 515q-54 0 -84.5 33t-30.5 82q0 61 37 100t97 39q54 0 85 -33t31 -82q0 -60 -37 -99.5t-98 -39.5zM311 598q21 0 32 14.5t11 34.5q0 18 -11 28.5t-28 10.5q-20 0 -31.5 -14t-11.5 -35q0 -19 11 -29t28 -10zM174 -14q-75 0 -110 43t-26 131l34 322h170l-29 -276
q-4 -35 6.5 -50.5t35.5 -15.5q29 0 44.5 20.5t18.5 52.5l28 269h170l-33 -315q-4 -39 33 -39l-13 -129q-12 -4 -33.5 -6.5t-42.5 -2.5q-53 0 -77 20.5t-26 55.5h-1q-25 -42 -60.5 -61t-88.5 -19z" />
    <glyph glyph-name="Uhungarumlaut" unicode="&#x170;" horiz-adv-x="659" 
d="M277 912h182l-144 -171h-124zM514 912h182l-144 -171h-125zM305 -6q-55 0 -103 15t-82 50t-50 91.5t-7 140.5l44 409h171l-44 -423q-3 -25 -1 -48.5t12 -41.5t28.5 -29t48.5 -11t50.5 11t33.5 29t19.5 41.5t9.5 48.5l44 423h171l-43 -409q-9 -84 -36.5 -140.5
t-68.5 -91.5t-91.5 -50t-105.5 -15z" />
    <glyph glyph-name="uhungarumlaut" unicode="&#x171;" horiz-adv-x="557" 
d="M186 747h182l-138 -211h-124zM423 747h181l-137 -211h-125zM174 -14q-75 0 -110 43t-26 131l34 322h170l-29 -276q-4 -35 6.5 -50.5t35.5 -15.5q29 0 44.5 20.5t18.5 52.5l28 269h170l-33 -315q-4 -39 33 -39l-13 -129q-12 -4 -33.5 -6.5t-42.5 -2.5q-53 0 -77 20.5
t-26 55.5h-1q-25 -42 -60.5 -61t-88.5 -19z" />
    <glyph glyph-name="Uogonek" unicode="&#x172;" horiz-adv-x="659" 
d="M650 700l-43 -409q-7 -65 -25.5 -113.5t-45.5 -83t-62 -56t-74 -32.5q-34 -17 -51.5 -41t-17.5 -47q0 -14 7.5 -20.5t18.5 -6.5t16.5 2t10.5 6l26 -77q-33 -25 -95 -25q-55 0 -82.5 25t-27.5 68q0 29 13.5 56.5t38.5 50.5q-46 6 -85.5 24.5t-66 54t-38.5 88.5t-4 127
l44 409h171l-44 -423q-3 -25 -1 -48.5t12 -41.5t28.5 -29t48.5 -11t50.5 11t33.5 29t19.5 41.5t9.5 48.5l44 423h171z" />
    <glyph glyph-name="uogonek" unicode="&#x173;" horiz-adv-x="557" 
d="M503 -1q-36 -17 -54.5 -41.5t-18.5 -48.5q0 -14 7.5 -20.5t18.5 -6.5t16.5 2t10.5 6l26 -77q-33 -25 -95 -25q-55 0 -82.5 25t-27.5 68q0 33 17.5 63.5t47.5 55.5q-22 9 -32.5 26t-12.5 40h-1q-25 -42 -60.5 -61t-88.5 -19q-75 0 -110 43t-26 131l34 322h170l-29 -276
q-4 -35 6.5 -50.5t35.5 -15.5q29 0 44.5 20.5t18.5 52.5l28 269h170l-33 -315q-4 -39 33 -39z" />
    <glyph glyph-name="Wcircumflex" unicode="&#x174;" horiz-adv-x="928" 
d="M440 912h182l70 -171h-145l-27 70l-40 -70h-145zM52 700h195l25 -521l168 521h156l51 -521l142 521h185l-243 -700h-198l-45 460l-145 -460h-196z" />
    <glyph glyph-name="wcircumflex" unicode="&#x175;" horiz-adv-x="767" 
d="M383 540h-145l108 201h182l67 -201h-145l-25 90zM792 482l-189 -482h-184l-18 233l-5 113l-29 -108l-75 -238h-178l-87 482h183l16 -223l5 -119l30 119l62 223h183l16 -223l5 -119l29 119l63 223h173z" />
    <glyph glyph-name="Ycircumflex" unicode="&#x176;" horiz-adv-x="629" 
d="M291 912h182l70 -171h-145l-27 70l-40 -70h-145zM233 275l-188 425h197l95 -272l153 272h193l-279 -421l-29 -279h-171z" />
    <glyph glyph-name="ycircumflex" unicode="&#x177;" horiz-adv-x="536" 
d="M230 741h182l67 -201h-145l-25 90l-42 -90h-145zM187 -247q-77 0 -131 27.5t-80 80.5l115 88q20 -35 44 -48.5t62 -13.5q29 0 48.5 8t31.5 23t17.5 36t8.5 47l5 51q-46 -58 -140 -58q-148 0 -130 174l33 314h169l-28 -268q-4 -35 7.5 -50.5t35.5 -15.5q20 0 37.5 15
t23.5 60l28 259h170l-50 -473q-13 -119 -79.5 -187.5t-197.5 -68.5z" />
    <glyph glyph-name="Ydieresis" unicode="&#x178;" horiz-adv-x="629" 
d="M227 738q-45 0 -67.5 25.5t-22.5 63.5q0 26 9 45.5t23.5 33t34 20.5t40.5 7q44 0 66 -26t22 -63q0 -52 -31 -79t-74 -27zM490 738q-45 0 -67.5 25.5t-22.5 62.5q0 51 32 79t75 28t65 -26t22 -63q0 -52 -31 -79t-73 -27zM233 275l-188 425h197l95 -272l153 272h193
l-279 -421l-29 -279h-171z" />
    <glyph glyph-name="Zacute" unicode="&#x179;" horiz-adv-x="597" 
d="M423 741h-146l95 171h204zM592 565l-370 -424h335l-15 -141h-536l14 135l374 424h-322l15 141h520z" />
    <glyph glyph-name="zacute" unicode="&#x17a;" horiz-adv-x="492" 
d="M318 536h-140l100 211h197zM60 482h411l-14 -128l-195 -111q32 -7 66.5 -24.5t63 -46t47 -69.5t18.5 -97q0 -60 -18 -107.5t-51 -79.5t-78.5 -49t-101.5 -17q-99 0 -154 45t-55 127q0 41 13 75t33.5 61t46.5 47.5t52 33.5q-18 2 -37 3.5t-40 1.5l12 110l176 92h-209z
M310 -1q0 71 -66 109q-52 -28 -73 -66t-21 -76q0 -36 21.5 -55t48.5 -19q17 0 33 6t29 18.5t20.5 33t7.5 49.5z" />
    <glyph glyph-name="Zdotaccent" unicode="&#x17b;" horiz-adv-x="597" 
d="M360 736q-42 0 -65 26t-23 64q0 47 31 77t77 30q43 0 65.5 -27t22.5 -64q0 -45 -28.5 -75.5t-79.5 -30.5zM592 565l-370 -424h335l-15 -141h-536l14 135l374 424h-322l15 141h520z" />
    <glyph glyph-name="zdotaccent" unicode="&#x17c;" horiz-adv-x="492" 
d="M266 540q-45 0 -69 27t-24 65q0 45 30 78t83 33q45 0 67.5 -27.5t22.5 -65.5q0 -45 -29.5 -77.5t-80.5 -32.5zM457 354l-195 -111q32 -7 66.5 -24.5t63 -46t47 -69.5t18.5 -97q0 -60 -18 -107.5t-51 -79.5t-78.5 -49t-101.5 -17q-99 0 -154 45t-55 127q0 41 13 75
t33.5 61t46.5 47.5t52 33.5q-18 2 -37 3.5t-40 1.5l12 110l176 92h-209l14 133h411zM310 -1q0 71 -66 109q-52 -28 -73 -66t-21 -76q0 -36 21.5 -55t48.5 -19q17 0 33 6t29 18.5t20.5 33t7.5 49.5z" />
    <glyph glyph-name="Zcaron" unicode="&#x17d;" horiz-adv-x="597" 
d="M270 741l-69 171h145l25 -70l42 70h145l-106 -171h-182zM592 565l-370 -424h335l-15 -141h-536l14 135l374 424h-322l15 141h520z" />
    <glyph glyph-name="zcaron" unicode="&#x17e;" horiz-adv-x="492" 
d="M174 540l-66 201h145l23 -90l44 90h145l-108 -201h-183zM457 354l-195 -111q32 -7 66.5 -24.5t63 -46t47 -69.5t18.5 -97q0 -60 -18 -107.5t-51 -79.5t-78.5 -49t-101.5 -17q-99 0 -154 45t-55 127q0 41 13 75t33.5 61t46.5 47.5t52 33.5q-18 2 -37 3.5t-40 1.5l12 110
l176 92h-209l14 133h411zM310 -1q0 71 -66 109q-52 -28 -73 -66t-21 -76q0 -36 21.5 -55t48.5 -19q17 0 33 6t29 18.5t20.5 33t7.5 49.5z" />
    <glyph glyph-name="uni018F" unicode="&#x18f;" horiz-adv-x="674" 
d="M374 714q64 0 116.5 -21t90 -60t58 -95t20.5 -127q0 -102 -25 -181t-70.5 -133.5t-109.5 -82.5t-141 -28q-61 0 -112.5 18t-89 54.5t-58 91t-20.5 126.5q0 48 4 72.5t9 44.5h434v9q0 82 -31 119.5t-89 37.5q-51 0 -84 -24t-55 -58l-134 74q17 32 42 61t60.5 52t81.5 36.5
t103 13.5zM326 137q52 0 87 34.5t52 98.5h-252q-1 -26 4 -50t18.5 -42.5t35.5 -29.5t55 -11z" />
    <glyph glyph-name="florin" unicode="&#x192;" horiz-adv-x="458" 
d="M39 -187q-50 0 -82.5 14.5t-54.5 38.5l85 121q10 -22 44 -22q25 0 40 14.5t20 56.5l30 281h-69l14 133h68l3 25q13 111 71 168t161 57q35 0 68.5 -12t53.5 -32l-68 -125q-7 7 -19 12t-30 5q-29 0 -45.5 -17.5t-20.5 -59.5l-2 -21h109l-14 -133h-110l-29 -279
q-11 -111 -70 -168t-153 -57z" />
    <glyph glyph-name="uni019D" unicode="&#x19d;" horiz-adv-x="680" 
d="M664 700l-74 -700h-152l-182 377l-10 35l-44 -412l-3 -27q-12 -107 -73.5 -163.5t-179.5 -56.5q-45 0 -83 13.5t-63 45.5l112 131q14 -16 28 -20.5t32 -4.5q23 0 42 13.5t24 48.5l2 20l74 700h152l177 -371l16 -47l44 418h161z" />
    <glyph glyph-name="Gcaron" unicode="&#x1e6;" horiz-adv-x="656" 
d="M233 912h145l25 -70l42 70h145l-106 -171h-182zM327 -12q-143 0 -216 80.5t-73 226.5q0 92 25 169t72.5 132.5t115 86t152.5 30.5q49 0 92 -12.5t75 -36.5t50.5 -60t18.5 -84q0 -21 -3.5 -38t-8.5 -38h-163l2.5 12.5t1.5 23.5q0 33 -20.5 56t-67.5 23q-78 0 -119.5 -66
t-41.5 -187q0 -88 32 -129t95 -41q42 0 70 8t45 19l7 70h-113l14 133h262l-30 -286q-12 -12 -36 -28t-58.5 -30.5t-79.5 -24t-100 -9.5z" />
    <glyph glyph-name="gcaron" unicode="&#x1e7;" horiz-adv-x="546" 
d="M148 741h145l23 -90l44 90h145l-108 -201h-183zM206 -240q-68 0 -121 19.5t-92 76.5l108 98q21 -31 44.5 -45t64.5 -14q92 0 104 113l3 35q-22 -27 -51.5 -42t-80.5 -15q-75 0 -118.5 56t-43.5 160q0 70 16.5 124.5t46.5 92.5t71 58t90 20q76 0 123 -55l5 40h149
l-50 -476q-6 -60 -28.5 -105.5t-58 -77t-81.5 -47.5t-100 -16zM258 128q26 0 46 18t28 46l11 105q-1 9 -4.5 19t-11 19t-18.5 14.5t-28 5.5q-22 0 -38.5 -11.5t-26.5 -30.5t-15 -44t-5 -52q0 -45 16.5 -67t45.5 -22z" />
    <glyph glyph-name="uni01EA" unicode="&#x1ea;" horiz-adv-x="698" 
d="M414 -2q-35 -17 -52 -41t-17 -47q0 -14 7.5 -20.5t18.5 -6.5t16.5 2t10.5 6l26 -77q-33 -25 -95 -25q-55 0 -82.5 25t-27.5 68q0 30 14 57.5t39 50.5q-51 7 -94 29t-74 60.5t-48.5 92.5t-17.5 126q0 102 29 179.5t78 130t115 79t139 26.5q61 0 113 -19t90 -57.5
t59.5 -97.5t21.5 -139q0 -86 -20.5 -154.5t-56.5 -118.5t-85.5 -82.5t-106.5 -46.5zM217 314q-2 -47 7 -80t26 -54t40.5 -30.5t50.5 -9.5q33 0 62 13.5t50.5 43t35 76.5t16.5 115q2 48 -7 80.5t-26 53t-40 29.5t-50 9q-32 0 -61 -13t-51 -42t-36 -76t-17 -115z" />
    <glyph glyph-name="uni01EB" unicode="&#x1eb;" horiz-adv-x="537" 
d="M310 -7q-29 -17 -44 -39t-15 -44q0 -14 7.5 -20.5t18.5 -6.5t16.5 2t10.5 6l26 -77q-33 -25 -95 -25q-55 0 -82.5 25t-27.5 68q0 31 15 59t41 51q-81 18 -120 76.5t-39 140.5q0 61 18 113.5t52.5 91.5t85.5 61t116 22q56 0 97.5 -16.5t69.5 -46.5t41.5 -70.5t13.5 -88.5
q0 -52 -13.5 -98.5t-39.5 -84t-64.5 -63t-88.5 -36.5zM280 355q-43 0 -64 -39t-21 -99q0 -41 14.5 -65t46.5 -24q47 0 67 39t20 97q0 42 -15.5 66.5t-47.5 24.5z" />
    <glyph glyph-name="Aringacute" unicode="&#x1fa;" horiz-adv-x="660" 
d="M433 150h-224l-62 -150h-179l323 699q-32 32 -32 84q0 38 17.5 69t47.5 49l86 154h204l-142 -158q21 -17 32 -41t11 -53q0 -32 -12.5 -59t-34.5 -46l174 -698h-179zM390 837q-20 0 -32 -14t-12 -35q0 -19 10.5 -29t27.5 -10q21 0 32.5 14.5t11.5 34.5q0 18 -10.5 28.5
t-27.5 10.5zM407 280l-47 236l-97 -236h144z" />
    <glyph glyph-name="aringacute" unicode="&#x1fb;" horiz-adv-x="568" 
d="M296 515q-54 0 -84.5 33t-30.5 82q0 54 28 90.5t76 45.5l68 143h197l-139 -187q20 -29 20 -68q0 -60 -37 -99.5t-98 -39.5zM304 598q21 0 32 14.5t11 34.5q0 18 -11 28.5t-28 10.5q-20 0 -31.5 -14t-11.5 -35q0 -19 11 -29t28 -10zM494 167q-4 -39 33 -39l-13 -128
q-12 -5 -32.5 -7.5t-45.5 -2.5q-49 0 -73.5 20t-27.5 56h-1q-23 -38 -58 -59t-91 -21q-75 0 -118.5 56t-43.5 159q0 67 17.5 121.5t48 93.5t72.5 60t91 21q81 0 111 -53l4 38h160zM341 297q-1 9 -4.5 19t-10.5 19t-18 14.5t-27 5.5q-43 0 -64 -40t-21 -99q0 -88 61 -88
q28 0 46.5 18t26.5 46z" />
    <glyph glyph-name="AEacute" unicode="&#x1fc;" horiz-adv-x="860" 
d="M566 912h204l-153 -171h-146zM290 700h583l-16 -144h-342l36 -149h218l-15 -141h-167l28 -122h199l-15 -144h-336l-31 157h-209l-64 -157h-192zM403 291l-40 205l-82 -205h122z" />
    <glyph glyph-name="aeacute" unicode="&#x1fd;" horiz-adv-x="753" 
d="M462 536h-140l100 211h197zM730 295q0 -23 -3 -44.5t-7 -38.5h-267q2 -47 20.5 -67.5t54.5 -20.5q16 0 29.5 5.5t24.5 13.5t18.5 16.5t11.5 14.5l102 -81q-3 -6 -17 -23.5t-39.5 -36t-63 -33t-87.5 -14.5q-61 0 -105 20t-71 58q-34 -41 -76 -58.5t-102 -17.5
q-76 0 -111.5 35.5t-35.5 89.5q0 66 47.5 107.5t156.5 41.5h81l5 52q3 30 -7.5 42t-30.5 12q-22 0 -35 -12t-13 -37q0 -8 1 -13.5t3 -9.5h-151q-2 4 -3 10q-1 5 -2 12t-1 18q0 72 55.5 116.5t164.5 44.5q46 0 78.5 -12t54.5 -32q29 20 63 32t76 12q93 0 137 -55t44 -147z
M573 297q4 35 -8.5 51.5t-36.5 16.5q-51 0 -67 -68h112zM216 115q23 0 39 12.5t25 32.5l2 25h-56q-25 0 -36 -10.5t-11 -27.5q0 -14 8.5 -23t28.5 -9z" />
    <glyph glyph-name="Oslashacute" unicode="&#x1fe;" horiz-adv-x="698" 
d="M426 741h-146l95 171h204zM621 615q29 -38 45.5 -91.5t16.5 -123.5q0 -102 -29 -179.5t-78 -129.5t-114.5 -78t-139.5 -26q-75 0 -138 29l-23 -32h-135l74 101q-29 38 -45.5 91t-16.5 122q0 102 29 179.5t78 130t115 79t139 26.5q78 0 138 -30l24 33h134zM217 314
q-2 -38 4 -64l217 298q-25 12 -56 12q-32 0 -61 -13t-51 -42t-36 -76t-17 -115zM505 388q2 36 -3 63l-218 -299q26 -12 57 -12q33 0 62 13.5t50.5 43t35 76.5t16.5 115z" />
    <glyph glyph-name="oslashacute" unicode="&#x1ff;" horiz-adv-x="537" 
d="M323 536h-140l100 211h197zM463 431q27 -29 40 -68.5t13 -87.5q0 -60 -18 -113t-52.5 -92t-85.5 -61.5t-116 -22.5q-62 0 -107 21l-37 -48h-98l72 94q-26 29 -39 68.5t-13 87.5q0 61 18 113.5t52.5 91.5t85.5 61t116 22q61 0 106 -20l36 46h98zM195 210l108 141
q-8 4 -23 4q-43 0 -64 -39t-21 -99v-7zM343 274l-110 -142q9 -4 23 -4q47 0 67 39t20 97v10z" />
    <glyph glyph-name="uni0218" unicode="&#x218;" horiz-adv-x="604" 
d="M277 -13q-90 0 -163 27t-113 84l115 117q37 -45 80.5 -64t100.5 -19q51 0 77.5 15.5t26.5 50.5q0 17 -7 29t-23.5 21t-43 17.5t-66.5 17.5q-37 9 -72.5 23t-64 37t-46 57.5t-17.5 84.5q0 105 74 166.5t211 61.5q48 0 92 -8.5t77.5 -29t53.5 -53.5t20 -82q0 -29 -3.5 -42
t-7.5 -25h-152q2 8 3.5 13.5t1.5 18.5q0 34 -27.5 48.5t-68.5 14.5q-102 0 -102 -67q0 -19 9 -31t27 -21t44 -16t60 -15q36 -9 72 -23t64.5 -37.5t46.5 -59t18 -87.5q0 -109 -77 -166.5t-220 -57.5zM201 -223q35 8 44 19t11 20q-28 7 -41.5 26t-13.5 45q0 35 23 59.5
t62 24.5q37 0 60.5 -22.5t23.5 -64.5q0 -58 -38.5 -104.5t-112.5 -66.5z" />
    <glyph glyph-name="uni0219" unicode="&#x219;" horiz-adv-x="493" 
d="M216 -14q-24 0 -52 2.5t-57 10t-58 22t-55 37.5l89 119q37 -35 77 -48t88 -13q45 0 45 20q0 5 -3.5 9t-13 8t-26.5 8.5t-44 10.5q-31 8 -60.5 19t-52 29t-36.5 44.5t-14 63.5q0 77 60 123t175 46q90 0 141 -33.5t51 -98.5q0 -18 -5 -35t-10 -26h-154q2 5 4.5 12t2.5 18
q0 21 -13.5 28.5t-33.5 7.5q-53 0 -53 -35q0 -21 24.5 -29.5t81.5 -21.5q25 -6 50.5 -14t46.5 -23t34 -37.5t13 -57.5q0 -85 -65 -125.5t-177 -40.5zM137 -223q35 8 44 19t11 20q-28 7 -41.5 26t-13.5 45q0 35 23 59.5t62 24.5q37 0 60.5 -22.5t23.5 -64.5
q0 -58 -38.5 -104.5t-112.5 -66.5z" />
    <glyph glyph-name="uni021A" unicode="&#x21a;" horiz-adv-x="574" 
d="M239 546h-196l17 154h554l-17 -154h-187l-57 -546h-171zM180 -223q35 8 44 19t11 20q-28 7 -41.5 26t-13.5 45q0 35 23 59.5t62 24.5q37 0 60.5 -22.5t23.5 -64.5q0 -58 -38.5 -104.5t-112.5 -66.5z" />
    <glyph glyph-name="uni021B" unicode="&#x21b;" horiz-adv-x="432" 
d="M265 -6q-104 0 -147.5 52.5t-33.5 146.5l16 156h-77l14 133h81l14 141h166l-14 -141h145l-14 -133h-145l-14 -137q-3 -28 11 -47t46 -19q16 0 27.5 5t22.5 13l50 -126q-26 -20 -64.5 -32t-83.5 -12zM151 -223q35 8 44 19t11 20q-28 7 -41.5 26t-13.5 45q0 35 23 59.5
t62 24.5q37 0 60.5 -22.5t23.5 -64.5q0 -58 -38.5 -104.5t-112.5 -66.5z" />
    <glyph glyph-name="uni0232" unicode="&#x232;" horiz-adv-x="629" 
d="M217 882h332l-13 -119h-332zM233 275l-188 425h197l95 -272l153 272h193l-279 -421l-29 -279h-171z" />
    <glyph glyph-name="uni0233" unicode="&#x233;" horiz-adv-x="536" 
d="M161 702h312l-13 -124h-312zM187 -247q-77 0 -131 27.5t-80 80.5l115 88q20 -35 44 -48.5t62 -13.5q29 0 48.5 8t31.5 23t17.5 36t8.5 47l5 51q-46 -58 -140 -58q-148 0 -130 174l33 314h169l-28 -268q-4 -35 7.5 -50.5t35.5 -15.5q20 0 37.5 15t23.5 60l28 259h170
l-50 -473q-13 -119 -79.5 -187.5t-197.5 -68.5z" />
    <glyph glyph-name="uni0237" unicode="&#x237;" horiz-adv-x="270" 
d="M-37 -247q-27 0 -45.5 5.5t-30.5 11.5q-13 7 -21 17l63 126q3 -2 8 -4q4 -2 9.5 -3t13.5 -1q31 0 46.5 24t19.5 62l52 491h169l-52 -499q-5 -50 -21 -92t-44.5 -73t-69.5 -48t-97 -17z" />
    <glyph glyph-name="uni0259" unicode="&#x259;" horiz-adv-x="496" 
d="M260 496q97 0 155.5 -53.5t58.5 -159.5q0 -67 -17.5 -122t-50.5 -94t-79.5 -60.5t-105.5 -21.5q-96 0 -147.5 53t-51.5 151q0 26 3.5 47t6.5 34h273q0 50 -16.5 69t-46.5 19t-50 -17t-31 -37l-118 62q12 26 32 49.5t47 41.5t61.5 28.5t76.5 10.5zM232 117q26 0 42.5 15
t24.5 53h-117q-3 -32 10.5 -50t39.5 -18z" />
    <glyph glyph-name="uni0272" unicode="&#x272;" horiz-adv-x="570" 
d="M503 169q-4 -39 33 -39l-14 -129q-11 -4 -32.5 -6.5t-42.5 -2.5q-68 0 -97.5 31t-21.5 104l17 155q3 29 -10.5 45t-35.5 16q-23 0 -38.5 -16t-18.5 -45l-30 -282l-4 -28q-15 -106 -74.5 -161.5t-174.5 -55.5q-51 0 -90.5 14.5t-59.5 37.5l111 131q8 -11 21 -17.5t29 -6.5
q32 0 47.5 16.5t21.5 51.5l3 18l33 312q2 21 -6 30t-28 9l13 129q13 4 34 6.5t46 2.5q47 0 70.5 -19t29.5 -43h1q6 11 17.5 23t28 22.5t39 17.5t50.5 7q80 0 118.5 -50.5t28.5 -142.5z" />
    <glyph glyph-name="circumflex" unicode="&#x2c6;" horiz-adv-x="357" 
d="M139 741h182l67 -201h-145l-25 90l-42 -90h-145z" />
    <glyph glyph-name="caron" unicode="&#x2c7;" horiz-adv-x="357" 
d="M53 741h145l23 -90l44 90h145l-108 -201h-183z" />
    <glyph glyph-name="breve" unicode="&#x2d8;" horiz-adv-x="331" 
d="M200 554q-51 0 -81.5 15.5t-46.5 41t-19.5 57.5t-0.5 64h123q-3 -30 6 -43.5t32 -13.5t34.5 13.5t14.5 43.5h121q-3 -32 -13.5 -64t-31.5 -57.5t-54.5 -41t-83.5 -15.5z" />
    <glyph glyph-name="dotaccent" unicode="&#x2d9;" horiz-adv-x="203" 
d="M135 540q-45 0 -69 27t-24 65q0 45 30 78t83 33q45 0 67.5 -27.5t22.5 -65.5q0 -45 -29.5 -77.5t-80.5 -32.5z" />
    <glyph glyph-name="ring" unicode="&#x2da;" horiz-adv-x="249" 
d="M157 515q-54 0 -84.5 33t-30.5 82q0 61 37 100t97 39q54 0 85 -33t31 -82q0 -60 -37 -99.5t-98 -39.5zM165 598q21 0 32 14.5t11 34.5q0 18 -11 28.5t-28 10.5q-20 0 -31.5 -14t-11.5 -35q0 -19 11 -29t28 -10z" />
    <glyph glyph-name="ogonek" unicode="&#x2db;" horiz-adv-x="213" 
d="M73 -209q-55 0 -82.5 25t-27.5 68q0 54 42.5 98t111.5 70l45 -50q-36 -17 -54.5 -41.5t-18.5 -48.5q0 -14 7.5 -20.5t18.5 -6.5t16.5 2t10.5 6l26 -77q-33 -25 -95 -25z" />
    <glyph glyph-name="tilde" unicode="&#x2dc;" horiz-adv-x="362" 
d="M49 540q-5 8 -8 23.5t-3 30.5q0 54 33 87t84 33q20 0 37.5 -6.5t32.5 -15t27.5 -15t23.5 -6.5q10 0 18.5 6t8.5 18q0 5 -1 11t-4 9h96q6 -11 8.5 -26t2.5 -27q0 -55 -32.5 -88t-82.5 -33q-22 0 -40 6.5t-32.5 15t-25.5 15t-20 6.5q-13 0 -21 -7t-8 -18q0 -5 1.5 -11
t3.5 -8h-99z" />
    <glyph glyph-name="hungarumlaut" unicode="&#x2dd;" horiz-adv-x="476" 
d="M111 747h182l-138 -211h-124zM348 747h181l-137 -211h-125z" />
    <glyph glyph-name="gravecomb" unicode="&#x300;" 
d="M-242 747h194l54 -211h-139z" />
    <glyph glyph-name="acutecomb" unicode="&#x301;" 
d="M-161 747h197l-157 -211h-140z" />
    <glyph glyph-name="uni0302" unicode="&#x302;" 
d="M-240 741h182l67 -201h-145l-25 90l-42 -90h-145z" />
    <glyph glyph-name="tildecomb" unicode="&#x303;" 
d="M-360 540q-5 8 -8 23.5t-3 30.5q0 54 33 87t84 33q20 0 37.5 -6.5t32.5 -15t27.5 -15t23.5 -6.5q10 0 18.5 6t8.5 18q0 5 -1 11t-4 9h96q6 -11 8.5 -26t2.5 -27q0 -55 -32.5 -88t-82.5 -33q-23 0 -40.5 6.5t-32 15t-25.5 15t-20 6.5q-13 0 -21 -7t-8 -18q0 -5 1.5 -11
t3.5 -8h-99z" />
    <glyph glyph-name="uni0304" unicode="&#x304;" 
d="M-321 702h312l-13 -124h-312z" />
    <glyph glyph-name="uni0306" unicode="&#x306;" 
d="M-149 554q-51 0 -81.5 15.5t-46.5 41t-19.5 57.5t-0.5 64h123q-3 -30 6 -43.5t32 -13.5t34.5 13.5t14.5 43.5h121q-3 -32 -13.5 -64t-31.5 -57.5t-55 -41t-83 -15.5z" />
    <glyph glyph-name="uni0307" unicode="&#x307;" 
d="M-74 540q-45 0 -69 27t-24 65q0 45 30 78t83 33q45 0 67.5 -27.5t22.5 -65.5q0 -45 -29.5 -77.5t-80.5 -32.5z" />
    <glyph glyph-name="uni0308" unicode="&#x308;" 
d="M-310 530q-44 0 -66.5 25.5t-22.5 62.5q0 43 28.5 74.5t79.5 31.5q42 0 64 -26.5t22 -62.5q0 -43 -28.5 -74t-76.5 -31zM-72 530q-44 0 -66.5 25.5t-22.5 62.5q0 43 28.5 74.5t79.5 31.5q42 0 64 -26.5t22 -62.5q0 -43 -28.5 -74t-76.5 -31z" />
    <glyph glyph-name="uni030A" unicode="&#x30a;" 
d="M-116 515q-54 0 -84.5 33t-30.5 82q0 61 37 100t97 39q54 0 85 -33t31 -82q0 -60 -37 -99.5t-98 -39.5zM-108 598q21 0 32 14.5t11 34.5q0 18 -11 28.5t-28 10.5q-20 0 -31.5 -14t-11.5 -35q0 -19 11 -29t28 -10z" />
    <glyph glyph-name="uni030B" unicode="&#x30b;" 
d="M-352 747h182l-138 -211h-124zM-115 747h181l-137 -211h-125z" />
    <glyph glyph-name="uni030C" unicode="&#x30c;" 
d="M-312 741h145l23 -90l44 90h145l-108 -201h-183z" />
    <glyph glyph-name="uni0312" unicode="&#x312;" 
d="M-78 546q-37 0 -58 20t-21 59q0 27 10.5 55t29.5 52t43.5 42t53.5 26l29 -61q-25 -6 -39.5 -21.5t-16.5 -26.5q28 -2 41.5 -18.5t13.5 -43.5q0 -35 -24 -59t-62 -24z" />
    <glyph glyph-name="dotbelowcomb" unicode="&#x323;" 
d="M-159 -229q-45 0 -69 27t-24 65q0 45 30 78t83 33q45 0 67.5 -27.5t22.5 -65.5q0 -45 -29.5 -77.5t-80.5 -32.5z" />
    <glyph glyph-name="uni0326" unicode="&#x326;" 
d="M-227 -223q35 8 44 19t11 20q-28 7 -41.5 26t-13.5 45q0 35 23 59.5t62 24.5q37 0 60.5 -22.5t23.5 -64.5q0 -58 -38.5 -104.5t-112.5 -66.5z" />
    <glyph glyph-name="uni0327" unicode="&#x327;" 
d="M-192 -229q-38 0 -69 9.5t-45 26.5l55 69q8 -9 22.5 -15.5t30.5 -6.5q34 0 34 28q0 29 -66 34l39 87h92l-18 -40q29 -7 48 -25.5t19 -53.5q0 -53 -36.5 -83t-105.5 -30z" />
    <glyph glyph-name="uni0328" unicode="&#x328;" 
d="M-199 -209q-55 0 -82.5 25t-27.5 68q0 54 42.5 98t111.5 70l45 -50q-36 -17 -54.5 -41.5t-18.5 -48.5q0 -14 7.5 -20.5t18.5 -6.5t16.5 2t10.5 6l26 -77q-33 -25 -95 -25z" />
    <glyph glyph-name="uni0335" unicode="&#x335;" 
d="M-339 407h332l-12 -116h-332z" />
    <glyph glyph-name="uni0336" unicode="&#x336;" 
d="M-667 601h699l-11 -107h-699z" />
    <glyph glyph-name="uni0337" unicode="&#x337;" 
d="M-398 346l353 199l54 -107l-357 -198z" />
    <glyph glyph-name="uni0338" unicode="&#x338;" 
d="M-62 524h98l-434 -564h-98z" />
    <glyph glyph-name="Wgrave" unicode="&#x1e80;" horiz-adv-x="928" 
d="M329 912h197l59 -171h-140zM52 700h195l25 -521l168 521h156l51 -521l142 521h185l-243 -700h-198l-45 460l-145 -460h-196z" />
    <glyph glyph-name="wgrave" unicode="&#x1e81;" horiz-adv-x="767" 
d="M347 536l-109 211h194l54 -211h-139zM792 482l-189 -482h-184l-18 233l-5 113l-29 -108l-75 -238h-178l-87 482h183l16 -223l5 -119l30 119l62 223h183l16 -223l5 -119l29 119l63 223h173z" />
    <glyph glyph-name="Wacute" unicode="&#x1e82;" horiz-adv-x="928" 
d="M528 912h204l-153 -171h-146zM52 700h195l25 -521l168 521h156l51 -521l142 521h185l-243 -700h-198l-45 460l-145 -460h-196z" />
    <glyph glyph-name="wacute" unicode="&#x1e83;" horiz-adv-x="767" 
d="M469 536h-140l100 211h197zM792 482l-189 -482h-184l-18 233l-5 113l-29 -108l-75 -238h-178l-87 482h183l16 -223l5 -119l30 119l62 223h183l16 -223l5 -119l29 119l63 223h173z" />
    <glyph glyph-name="Wdieresis" unicode="&#x1e84;" horiz-adv-x="928" 
d="M376 738q-45 0 -67.5 25.5t-22.5 63.5q0 26 9 45.5t23.5 33t34 20.5t40.5 7q44 0 66 -26t22 -63q0 -52 -31 -79t-74 -27zM639 738q-45 0 -67.5 25.5t-22.5 62.5q0 51 32 79t75 28t65 -26t22 -63q0 -52 -31 -79t-73 -27zM52 700h195l25 -521l168 521h156l51 -521l142 521
h185l-243 -700h-198l-45 460l-145 -460h-196z" />
    <glyph glyph-name="wdieresis" unicode="&#x1e85;" horiz-adv-x="767" 
d="M299 540q-44 0 -66.5 25.5t-22.5 62.5q0 43 28.5 74.5t79.5 31.5q42 0 64 -26.5t22 -62.5q0 -43 -28.5 -74t-76.5 -31zM537 540q-44 0 -66.5 25.5t-22.5 62.5q0 43 28.5 74.5t79.5 31.5q42 0 64 -26.5t22 -62.5q0 -43 -28.5 -74t-76.5 -31zM792 482l-189 -482h-184
l-18 233l-5 113l-29 -108l-75 -238h-178l-87 482h183l16 -223l5 -119l30 119l62 223h183l16 -223l5 -119l29 119l63 223h173z" />
    <glyph glyph-name="uni1E9E" unicode="&#x1e9e;" horiz-adv-x="684" 
d="M500 392q44 -9 73.5 -25.5t47.5 -39.5t25.5 -52.5t7.5 -63.5q0 -55 -19 -97t-53.5 -70t-82.5 -42.5t-106 -14.5q-48 0 -91 9.5t-67 31.5l85 127q20 -13 37.5 -18.5t39.5 -5.5q42 0 63 18.5t21 51.5q0 14 -6.5 27.5t-23.5 24.5t-46 17t-75 5l7 123l132 145q-16 5 -35 8
t-44 3q-60 0 -96.5 -35.5t-44.5 -104.5l-44 -414h-171l45 428q8 72 35.5 124.5t71 86.5t100.5 50.5t122 16.5q68 0 135 -18t112 -56l-10 -88z" />
    <glyph glyph-name="uni1EA0" unicode="&#x1ea0;" horiz-adv-x="660" 
d="M463 0l-30 150h-224l-62 -150h-179l323 700h176l175 -700h-179zM407 280l-47 236l-97 -236h144zM306 -26q45 0 67.5 -27.5t22.5 -65.5q0 -45 -29.5 -77.5t-80.5 -32.5q-45 0 -69 27t-24 65q0 45 30 78t83 33z" />
    <glyph glyph-name="uni1EA1" unicode="&#x1ea1;" horiz-adv-x="563" 
d="M185 -14q-75 0 -118.5 56t-43.5 159q0 67 17.5 121.5t48 93.5t72.5 60t91 21q81 0 111 -53l4 38h160l-33 -315q-4 -39 33 -39l-13 -128q-12 -5 -32.5 -7.5t-45.5 -2.5q-49 0 -73.5 20t-27.5 56h-1q-23 -38 -58 -59t-91 -21zM257 128q28 0 46.5 18t26.5 46l11 105
q-1 9 -4.5 19t-10.5 19t-18 14.5t-27 5.5q-43 0 -64 -40t-21 -99q0 -88 61 -88zM227 -229q-45 0 -69 27t-24 65q0 45 30 78t83 33q45 0 67.5 -27.5t22.5 -65.5q0 -45 -29.5 -77.5t-80.5 -32.5z" />
    <glyph glyph-name="uni1EB8" unicode="&#x1eb8;" horiz-adv-x="551" 
d="M114 700h446l-15 -142h-275l-14 -134h240l-15 -143h-240l-15 -138h277l-15 -143h-448zM263 -229q-45 0 -69 27t-24 65q0 45 30 78t83 33q45 0 67.5 -27.5t22.5 -65.5q0 -45 -29.5 -77.5t-80.5 -32.5z" />
    <glyph glyph-name="uni1EB9" unicode="&#x1eb9;" horiz-adv-x="493" 
d="M271 124q33 0 59.5 14.5t44.5 37.5l88 -83q-38 -53 -98 -81t-137 -26q-98 3 -152.5 59.5t-54.5 163.5q0 66 21 119.5t57.5 91t85.5 57.5t104 20q93 0 139 -37t46 -103q0 -172 -278 -178q7 -27 25 -41t50 -14zM285 361q-31 0 -53.5 -23t-32.5 -65q65 3 91 17.5t26 40.5
q0 30 -31 30zM225 -26q45 0 67.5 -27.5t22.5 -65.5q0 -45 -29.5 -77.5t-80.5 -32.5q-45 0 -69 27t-24 65q0 45 30 78t83 33z" />
    <glyph glyph-name="uni1EBC" unicode="&#x1ebc;" horiz-adv-x="551" 
d="M175 741q-5 8 -7.5 23t-2.5 30q0 54 33.5 86t84.5 32q22 0 40.5 -6t35 -13.5t30.5 -14t26 -6.5q27 0 27 24q0 11 -4 16h105q5 -10 7 -24.5t2 -25.5q0 -56 -31.5 -88.5t-82.5 -32.5q-26 0 -46.5 6.5t-37 14t-29 13.5t-22.5 6q-28 0 -28 -24q0 -11 4 -16h-104zM114 700h446
l-15 -142h-275l-14 -134h240l-15 -143h-240l-15 -138h277l-15 -143h-448z" />
    <glyph glyph-name="uni1EBD" unicode="&#x1ebd;" horiz-adv-x="493" 
d="M119 540q-5 8 -8 23.5t-3 30.5q0 54 33 87t84 33q20 0 37.5 -6.5t32.5 -15t27.5 -15t23.5 -6.5q10 0 18.5 6t8.5 18q0 5 -1 11t-4 9h96q6 -11 8.5 -26t2.5 -27q0 -55 -32.5 -88t-82.5 -33q-22 0 -40 6.5t-32.5 15t-25.5 15t-20 6.5q-13 0 -21 -7t-8 -18q0 -5 1.5 -11
t3.5 -8h-99zM474 357q0 -172 -278 -178q7 -27 25 -41t50 -14q33 0 59.5 14.5t44.5 37.5l88 -83q-38 -53 -98 -81t-137 -26q-98 3 -152.5 59.5t-54.5 163.5q0 66 21 119.5t57.5 91t85.5 57.5t104 20q93 0 139 -37t46 -103zM199 273q65 3 91 17.5t26 40.5q0 30 -31 30
t-53.5 -23t-32.5 -65z" />
    <glyph glyph-name="uni1ECA" unicode="&#x1eca;" horiz-adv-x="301" 
d="M114 700h171l-74 -700h-171zM107 -229q-45 0 -69 27t-24 65q0 45 30 78t83 33q45 0 67.5 -27.5t22.5 -65.5q0 -45 -29.5 -77.5t-80.5 -32.5z" />
    <glyph glyph-name="uni1ECB" unicode="&#x1ecb;" horiz-adv-x="291" 
d="M170 540q-45 0 -69 27t-24 65q0 45 30 78t83 33q45 0 67.5 -27.5t22.5 -65.5q0 -45 -29.5 -77.5t-80.5 -32.5zM169 -5q-79 0 -109.5 36t-22.5 115l35 336h171l-31 -295q-4 -32 3 -43t39 -11l-14 -129q-10 -3 -21 -5q-10 -1 -22.5 -2.5t-27.5 -1.5zM124 -229q-45 0 -69 27
t-24 65q0 45 30 78t83 33q45 0 67.5 -27.5t22.5 -65.5q0 -45 -29.5 -77.5t-80.5 -32.5z" />
    <glyph glyph-name="uni1ECC" unicode="&#x1ecc;" horiz-adv-x="698" 
d="M322 -13q-61 0 -113 18.5t-90 57t-59.5 97t-21.5 138.5q0 102 29 179.5t78 130t115 79t139 26.5q61 0 113 -19t90 -57.5t59.5 -97.5t21.5 -139q0 -102 -29 -179.5t-78 -129.5t-114.5 -78t-139.5 -26zM341 140q33 0 62 13.5t50.5 43t35 76.5t16.5 115q2 48 -7 80.5t-26 53
t-40 29.5t-50 9q-32 0 -61 -13t-51 -42t-36 -76t-17 -115q-2 -47 7 -80t26 -54t40.5 -30.5t50.5 -9.5zM305 -229q-45 0 -69 27t-24 65q0 45 30 78t83 33q45 0 67.5 -27.5t22.5 -65.5q0 -45 -29.5 -77.5t-80.5 -32.5z" />
    <glyph glyph-name="uni1ECD" unicode="&#x1ecd;" horiz-adv-x="537" 
d="M244 -14q-56 0 -97.5 16.5t-69.5 46.5t-41.5 71t-13.5 89q0 61 18 113.5t52.5 91.5t85.5 61t116 22q56 0 97.5 -16.5t69.5 -46.5t41.5 -70.5t13.5 -88.5q0 -60 -18 -113t-52.5 -92t-85.5 -61.5t-116 -22.5zM256 128q47 0 67 39t20 97q0 42 -15.5 66.5t-47.5 24.5
q-43 0 -64 -39t-21 -99q0 -41 14.5 -65t46.5 -24zM224 -229q-45 0 -69 27t-24 65q0 45 30 78t83 33q45 0 67.5 -27.5t22.5 -65.5q0 -45 -29.5 -77.5t-80.5 -32.5z" />
    <glyph glyph-name="uni1EE4" unicode="&#x1ee4;" horiz-adv-x="659" 
d="M305 -6q-55 0 -103 15t-82 50t-50 91.5t-7 140.5l44 409h171l-44 -423q-3 -25 -1 -48.5t12 -41.5t28.5 -29t48.5 -11t50.5 11t33.5 29t19.5 41.5t9.5 48.5l44 423h171l-43 -409q-9 -84 -36.5 -140.5t-68.5 -91.5t-91.5 -50t-105.5 -15zM285 -229q-45 0 -69 27t-24 65
q0 45 30 78t83 33q45 0 67.5 -27.5t22.5 -65.5q0 -45 -29.5 -77.5t-80.5 -32.5z" />
    <glyph glyph-name="uni1EE5" unicode="&#x1ee5;" horiz-adv-x="557" 
d="M174 -14q-75 0 -110 43t-26 131l34 322h170l-29 -276q-4 -35 6.5 -50.5t35.5 -15.5q29 0 44.5 20.5t18.5 52.5l28 269h170l-33 -315q-4 -39 33 -39l-13 -129q-12 -4 -33.5 -6.5t-42.5 -2.5q-53 0 -77 20.5t-26 55.5h-1q-25 -42 -60.5 -61t-88.5 -19zM235 -229
q-45 0 -69 27t-24 65q0 45 30 78t83 33q45 0 67.5 -27.5t22.5 -65.5q0 -45 -29.5 -77.5t-80.5 -32.5z" />
    <glyph glyph-name="Ygrave" unicode="&#x1ef2;" horiz-adv-x="629" 
d="M180 912h197l59 -171h-140zM233 275l-188 425h197l95 -272l153 272h193l-279 -421l-29 -279h-171z" />
    <glyph glyph-name="ygrave" unicode="&#x1ef3;" horiz-adv-x="536" 
d="M122 747h194l54 -211h-139zM187 -247q-77 0 -131 27.5t-80 80.5l115 88q20 -35 44 -48.5t62 -13.5q29 0 48.5 8t31.5 23t17.5 36t8.5 47l5 51q-46 -58 -140 -58q-148 0 -130 174l33 314h169l-28 -268q-4 -35 7.5 -50.5t35.5 -15.5q20 0 37.5 15t23.5 60l28 259h170
l-50 -473q-13 -119 -79.5 -187.5t-197.5 -68.5z" />
    <glyph glyph-name="uni1EF8" unicode="&#x1ef8;" horiz-adv-x="629" 
d="M193 741q-5 8 -7.5 23t-2.5 30q0 54 33.5 86t84.5 32q22 0 40.5 -6t35 -13.5t30.5 -14t26 -6.5q27 0 27 24q0 11 -4 16h105q5 -10 7 -24.5t2 -25.5q0 -56 -31.5 -88.5t-82.5 -32.5q-26 0 -46.5 6.5t-37 14t-29 13.5t-22.5 6q-28 0 -28 -24q0 -11 4 -16h-104zM233 275
l-188 425h197l95 -272l153 272h193l-279 -421l-29 -279h-171z" />
    <glyph glyph-name="uni1EF9" unicode="&#x1ef9;" horiz-adv-x="536" 
d="M136 540q-5 8 -8 23.5t-3 30.5q0 54 33 87t84 33q20 0 37.5 -6.5t32.5 -15t27.5 -15t23.5 -6.5q10 0 18.5 6t8.5 18q0 5 -1 11t-4 9h96q6 -11 8.5 -26t2.5 -27q0 -55 -32.5 -88t-82.5 -33q-22 0 -40 6.5t-32.5 15t-25.5 15t-20 6.5q-13 0 -21 -7t-8 -18q0 -5 1.5 -11
t3.5 -8h-99zM187 -247q-77 0 -131 27.5t-80 80.5l115 88q20 -35 44 -48.5t62 -13.5q29 0 48.5 8t31.5 23t17.5 36t8.5 47l5 51q-46 -58 -140 -58q-148 0 -130 174l33 314h169l-28 -268q-4 -35 7.5 -50.5t35.5 -15.5q20 0 37.5 15t23.5 60l28 259h170l-50 -473
q-13 -119 -79.5 -187.5t-197.5 -68.5z" />
    <glyph glyph-name="endash" unicode="&#x2013;" horiz-adv-x="537" 
d="M54 331h449l-13 -120h-449z" />
    <glyph glyph-name="emdash" unicode="&#x2014;" horiz-adv-x="851" 
d="M54 331h763l-13 -120h-763z" />
    <glyph glyph-name="quoteleft" unicode="&#x2018;" horiz-adv-x="252" 
d="M250 651q-35 -15 -59.5 -37.5t-26.5 -42.5q44 -2 64 -27t20 -63q0 -48 -30 -74.5t-74 -26.5q-42 0 -67.5 27t-25.5 78q0 75 36.5 133.5t124.5 96.5z" />
    <glyph glyph-name="quoteright" unicode="&#x2019;" horiz-adv-x="243" 
d="M61 438q35 15 59.5 37.5t26.5 42.5q-44 2 -64 27t-20 63q0 48 30 74.5t74 26.5q42 0 67.5 -27t25.5 -78q0 -75 -36.5 -133.5t-124.5 -96.5z" />
    <glyph glyph-name="quotesinglbase" unicode="&#x201a;" horiz-adv-x="260" 
d="M14 -86q35 15 59.5 37.5t26.5 42.5q-44 2 -64 27t-20 63q0 48 30 74.5t74 26.5q42 0 67.5 -27t25.5 -78q0 -75 -36.5 -133.5t-124.5 -96.5z" />
    <glyph glyph-name="quotedblleft" unicode="&#x201c;" horiz-adv-x="492" 
d="M251 652q-35 -15 -59.5 -37.5t-26.5 -42.5q44 -2 64 -27t20 -63q0 -48 -30 -74.5t-74 -26.5q-42 0 -67.5 27t-25.5 78q0 75 36.5 133.5t124.5 96.5zM491 652q-35 -15 -59.5 -37.5t-26.5 -42.5q44 -2 64 -27t20 -63q0 -48 -30 -74.5t-74 -26.5q-42 0 -67.5 27t-25.5 78
q0 75 36.5 133.5t124.5 96.5z" />
    <glyph glyph-name="quotedblright" unicode="&#x201d;" horiz-adv-x="488" 
d="M61 438q35 15 59.5 37.5t26.5 42.5q-44 2 -64 27t-20 63q0 48 30 74.5t74 26.5q42 0 67.5 -27t25.5 -78q0 -75 -36.5 -133.5t-124.5 -96.5zM301 438q35 15 59.5 37.5t26.5 42.5q-44 2 -64 27t-20 63q0 48 30 74.5t74 26.5q42 0 67.5 -27t25.5 -78q0 -75 -36.5 -133.5
t-124.5 -96.5z" />
    <glyph glyph-name="quotedblbase" unicode="&#x201e;" horiz-adv-x="500" 
d="M14 -86q35 15 59.5 37.5t26.5 42.5q-44 2 -64 27t-20 63q0 48 30 74.5t74 26.5q42 0 67.5 -27t25.5 -78q0 -75 -36.5 -133.5t-124.5 -96.5zM254 -86q35 15 59.5 37.5t26.5 42.5q-44 2 -64 27t-20 63q0 48 30 74.5t74 26.5q42 0 67.5 -27t25.5 -78q0 -75 -36.5 -133.5
t-124.5 -96.5z" />
    <glyph glyph-name="dagger" unicode="&#x2020;" horiz-adv-x="401" 
d="M152 479h-97l10 90h97l17 167h147l-17 -167h98l-10 -90h-98l-65 -427h-107z" />
    <glyph glyph-name="daggerdbl" unicode="&#x2021;" horiz-adv-x="401" 
d="M138 251h-107l10 90h103l8 138h-97l10 90h97l17 167h147l-17 -167h98l-10 -90h-98l-20 -138h104l-10 -90h-109l-28 -189h-107z" />
    <glyph glyph-name="bullet" unicode="&#x2022;" horiz-adv-x="400" 
d="M197 135q-66 0 -105 39.5t-39 105.5q0 35 12 65t34 52.5t52 35.5t66 13q63 0 102 -40.5t39 -106.5q0 -36 -12 -66t-33.5 -51.5t-51 -34t-64.5 -12.5z" />
    <glyph glyph-name="ellipsis" unicode="&#x2026;" horiz-adv-x="620" 
d="M85 -6q-34 0 -55 20t-21 55t22 61t64 26q33 0 54 -21t21 -55q0 -36 -21.5 -61t-63.5 -25zM287 -6q-34 0 -55 20t-21 55t22 61t64 26q33 0 54 -21t21 -55q0 -36 -21.5 -61t-63.5 -25zM490 -6q-34 0 -55 20t-21 55t22 61t64 26q33 0 54 -21t21 -55q0 -36 -21.5 -61
t-63.5 -25z" />
    <glyph glyph-name="perthousand" unicode="&#x2030;" horiz-adv-x="947" 
d="M170 423q-59 0 -87.5 34t-28.5 87q0 33 9.5 61.5t27.5 49.5t45.5 33.5t63.5 12.5q63 0 92 -34.5t29 -87.5q0 -33 -9.5 -61.5t-28 -49.5t-47 -33t-66.5 -12zM420 700h110l-278 -700h-110zM179 501q26 0 36 20t10 54q0 43 -34 43q-25 0 -35.5 -17.5t-10.5 -52.5
q0 -47 34 -47zM467 -2q-60 0 -88.5 34t-28.5 87q0 33 9 61.5t27.5 49.5t46 33.5t63.5 12.5q62 0 91.5 -34.5t29.5 -87.5q0 -33 -9.5 -61.5t-28.5 -49.5t-47 -33t-65 -12zM768 -2q-60 0 -89 34t-29 87q0 33 9.5 61.5t28 49.5t46 33.5t63.5 12.5q62 0 91.5 -34.5t29.5 -87.5
q0 -33 -9.5 -61.5t-28.5 -49.5t-47 -33t-65 -12zM475 76q25 0 35.5 19.5t10.5 53.5q0 44 -34 44q-26 0 -36 -18.5t-10 -52.5q0 -46 34 -46zM776 76q26 0 35.5 20t9.5 54q0 43 -33 43q-26 0 -36 -18.5t-10 -52.5q0 -46 34 -46z" />
    <glyph glyph-name="guilsinglleft" unicode="&#x2039;" horiz-adv-x="306" 
d="M27 197l14 135l183 143l73 -93l-135 -118l110 -117l-92 -93z" />
    <glyph glyph-name="guilsinglright" unicode="&#x203a;" horiz-adv-x="306" 
d="M14 147l136 117l-111 118l93 93l153 -143l-14 -135l-183 -143z" />
    <glyph glyph-name="fraction" unicode="&#x2044;" horiz-adv-x="135" 
d="M141 727h112l-289 -727h-112z" />
    <glyph glyph-name="Euro" unicode="&#x20ac;" horiz-adv-x="668" 
d="M399 171q48 0 78.5 14t51.5 43l104 -105q-19 -27 -46.5 -49.5t-59.5 -39t-67.5 -25.5t-69.5 -9q-118 0 -191 56t-96 158h-75l12 105h54l3 50h-52l11 105h64q37 106 117.5 166t194.5 60q91 0 152 -32t90 -93l-154 -99q-16 21 -34.5 37t-58.5 16q-70 0 -102 -55h143
l-11 -105h-162q-2 -12 -2.5 -24t-1.5 -26h161l-12 -105h-132q14 -23 37 -33t54 -10z" />
    <glyph glyph-name="trademark" unicode="&#x2122;" horiz-adv-x="834" 
d="M167 620h-103l11 100h329l-11 -100h-95l-30 -290h-131zM427 720h112l67 -205l112 205h111l-41 -390h-106l18 173l-75 -129h-69l-44 129l-18 -173h-108z" />
    <glyph glyph-name="minus" unicode="&#x2212;" horiz-adv-x="471" 
d="M57 331h377l-13 -120h-377z" />
    <glyph glyph-name="uni2215" unicode="&#x2215;" horiz-adv-x="413" 
d="M322 726h165l-367 -726h-166z" />
    <glyph glyph-name="uni2219" unicode="&#x2219;" horiz-adv-x="314" 
d="M154 197q-32 0 -53 21.5t-21 52.5q0 18 7.5 34t20 28.5t29 19.5t34.5 7q31 0 51.5 -21.5t20.5 -53.5q0 -18 -7.5 -34t-19.5 -28t-28 -19t-34 -7z" />
    <glyph glyph-name="approxequal" unicode="&#x2248;" horiz-adv-x="498" 
d="M61 264q-3 6 -5 14q-3 7 -4.5 16.5t-1.5 22.5q0 25 7.5 49t22.5 42.5t37 29.5t51 11t55 -9t48.5 -19.5t41.5 -19.5t35 -9q13 0 18.5 9t5.5 21q0 8 -1.5 16t-3.5 15l-6 14h106q3 -7 5 -16q1 -8 2.5 -18t1.5 -21q0 -25 -7.5 -49.5t-22.5 -43.5t-36.5 -30.5t-49.5 -11.5
q-34 0 -61 9t-48.5 19.5t-37.5 19.5t-30 9q-13 0 -21 -9t-8 -25q0 -9 1.5 -15.5t4.5 -11.5q2 -5 5 -9h-104zM40 62q-3 6 -5 14q-3 7 -4.5 16.5t-1.5 22.5q0 25 7.5 49t22.5 42.5t37 29.5t51 11t55 -9t48.5 -20t41.5 -20t35 -9q13 0 18.5 9.5t5.5 21.5q0 8 -1.5 16t-3.5 15
l-6 14h106q3 -7 5 -16q1 -8 2.5 -18t1.5 -21q0 -25 -7.5 -49.5t-22.5 -43.5t-36.5 -30.5t-49.5 -11.5q-34 0 -61 9t-48.5 19.5t-37.5 19t-30 8.5t-21.5 -9t-7.5 -24q0 -9 1.5 -15.5t4.5 -11.5q2 -5 5 -9h-104z" />
    <glyph glyph-name="notequal" unicode="&#x2260;" horiz-adv-x="498" 
d="M113 91h-81l12 120h117l39 98h-146l13 120h182l27 65h135l-26 -65h86l-13 -120h-123l-38 -98h151l-12 -120h-188l-17 -45h-135z" />
    <glyph glyph-name="lessequal" unicode="&#x2264;" horiz-adv-x="458" 
d="M51 325l14 131l380 196l-16 -145l-223 -117l199 -115l-15 -145zM14 100h396l-13 -120h-396z" />
    <glyph glyph-name="greaterequal" unicode="&#x2265;" horiz-adv-x="458" 
d="M60 275l223 115l-199 117l16 145l338 -196l-14 -131l-379 -195zM20 100h396l-13 -120h-396z" />
    <glyph glyph-name="uniF8FF" unicode="&#xf8ff;" horiz-adv-x="1493" 
d="M794 522q-26 0 -43.5 17.5t-17.5 43.5t17.5 44t43.5 18t44 -18t18 -44t-18 -43.5t-44 -17.5zM142 270q0 57 1 108t2.5 91.5t3 70t2.5 44.5h100q2 -30 6 -114t4 -200h-119zM646 264q-82 0 -82 66q0 8 0.5 21.5t1.5 27.5t1.5 25t0.5 13h-22v79l119 30l1 -17h178
q3 -17 4.5 -45t3 -61t2 -68t0.5 -65h-118q0 92 3 147h-61l3 -65q4 -4 15 -4q5 0 10 1t8 4v-74q-8 -8 -27 -11.5t-41 -3.5zM370 265q-43 0 -67.5 27.5t-24.5 86.5q0 64 32.5 99.5t101.5 35.5q64 0 94 -30.5t30 -86.5v-127h-83l-8 61q-6 -31 -22.5 -48.5t-52.5 -17.5zM876 270
q0 30 0.5 65t2 68t3 61t4.5 45h80q2 -17 4 -39t2 -37q1 6 4 19.5t12 27t24 24t40 10.5q45 0 60 -26t17 -80l3 -138h-114q0 35 1 56.5t1 36.5t-2.5 22t-12.5 7q-12 0 -15 -8t-3 -21q0 -15 1.5 -36.5t1.5 -56.5h-114zM1270 265q-64 0 -93 33.5t-29 90.5q0 24 5.5 46.5t19.5 40
t38 28t61 10.5q36 0 59.5 -10.5t37 -27.5t19 -39t5.5 -46q0 -60 -29.5 -93t-93.5 -33zM408 345q24 0 24 30q0 26 -24 26q-22 0 -22 -26q0 -30 22 -30zM1270 345q23 0 23 30q0 26 -23 26q-21 0 -21 -26q0 -30 21 -30zM432 -50q-45 0 -63.5 6.5t-24.5 10.5v83q5 -3 21.5 -9.5
t48.5 -6.5q17 0 27.5 3.5t16.5 8t8 9.5t2 7q-5 -3 -15.5 -7t-33.5 -4q-90 0 -90 83v13h-55l3 -65q2 -2 5.5 -3t9.5 -1q8 0 12 1.5t6 3.5v-73q-4 -3 -17 -9t-51 -6q-46 0 -63.5 17.5t-17.5 53.5q0 6 0.5 17t1 23.5t1 24t0.5 16.5h-18v80l117 29l-1 -18h177v-119
q0 -16 3 -21.5t12 -5.5t12.5 6t3.5 21v119h104q2 -8 3.5 -23t3 -34t2.5 -40t1 -41q0 -79 -33 -114.5t-119 -35.5zM600 -44q0 128 4.5 194.5t5.5 87.5h78q1 -4 2 -14t2 -21.5t2 -22.5t1 -18q1 5 5 18.5t12.5 27.5t23.5 24.5t39 10.5q37 0 58.5 -28.5t21.5 -84.5
q0 -135 -137 -135q1 -11 1 -22.5v-16.5h-119zM1012 -5q-72 0 -106.5 31t-34.5 91q0 59 32.5 92.5t92.5 33.5q55 0 85.5 -29.5t30.5 -86.5q0 -8 -0.5 -18t-2.5 -17h-124q4 -6 15.5 -12t34.5 -6q14 0 29 3t26 9v-75q-8 -5 -27 -10.5t-51 -5.5zM1020 109q3 27 -17 27
q-23 0 -23 -27h40zM712 72q3 0 9 1.5t12 5.5t11 11t5 19q0 23 -20 23q-22 0 -22 -31q0 -12 2 -19.5t3 -9.5zM1140 -10q-11 0 -17.5 6t-6.5 17t6.5 17t17.5 6t17.5 -6t6.5 -17t-6.5 -17t-17.5 -6zM1140 -5q18 0 18 18t-18 18t-18 -18t18 -18zM1130 25h11q10 0 10 -7t-7 -7
l6 -9h-6l-4 9h-5v-9h-5v23zM1142 15q4 0 4 3t-4 3h-7v-6h7z" />
    <glyph glyph-name="Euro.osf" horiz-adv-x="543" 
d="M325 162q20 0 34 4.5t31 20.5l117 -77q-31 -53 -90.5 -81.5t-128.5 -28.5q-47 0 -85.5 14.5t-67 41t-45 64.5t-19.5 85h-49l9 87h47q20 97 89 151t174 54q67 0 120 -25t78 -84l-136 -82q-12 14 -27 21.5t-38 7.5q-29 0 -45.5 -12.5t-24.5 -30.5h72l-9 -87h-70
q6 -19 21 -31t43 -12z" />
    <glyph glyph-name="Euro.sc" horiz-adv-x="544" 
d="M325 162q20 0 34 4.5t31 20.5l117 -77q-31 -53 -90.5 -81.5t-128.5 -28.5q-47 0 -86 14.5t-67 41t-44.5 64.5t-19.5 84h-42l9 87h40q19 97 87.5 151.5t171.5 54.5q71 0 114.5 -21.5t77.5 -70.5l-118 -99q-15 17 -30 23t-38 6q-32 0 -50 -12.5t-26 -31.5h80l-9 -87h-77
q6 -19 21.5 -30.5t42.5 -11.5z" />
    <glyph glyph-name="IJacute" horiz-adv-x="799" 
d="M203 912h204l-153 -171h-146zM702 912h204l-153 -171h-146zM114 700h171l-74 -700h-171zM466 -6q-71 0 -118.5 23.5t-68.5 59.5l114 119q14 -20 30.5 -32.5t45.5 -12.5q34 0 57 21.5t29 77.5l47 450h171l-47 -449q-14 -136 -82 -196.5t-178 -60.5z" />
    <glyph glyph-name="a.sc" horiz-adv-x="567" 
d="M344 79h-161l-34 -79h-177l251 497h176l146 -497h-184zM320 187l-30 137l-60 -137h90z" />
    <glyph glyph-name="a.ss01" horiz-adv-x="518" 
d="M451 167q-2 -19 4 -29t28 -10l-13 -128q-14 -4 -34.5 -7t-40.5 -3q-31 0 -50.5 7t-30.5 18.5t-15.5 24.5t-5.5 25q-7 -12 -18 -25.5t-29 -25t-43 -19t-60 -7.5q-69 0 -103 35t-34 92q0 32 11.5 58.5t36 46.5t63.5 31t93 11h81l5 49q3 30 -7.5 43.5t-31.5 13.5t-33.5 -13
t-12.5 -37q0 -13 3 -22h-151q-2 4 -3 10q-1 5 -2 12t-1 18q0 72 55.5 116.5t164.5 44.5q56 0 94 -13.5t60.5 -38t30.5 -60t3 -79.5zM214 113q47 0 66 46l2 24h-56q-25 0 -36.5 -11t-11.5 -27q0 -14 9.5 -23t26.5 -9z" />
    <glyph glyph-name="aacute.sc" horiz-adv-x="567" 
d="M369 551h-140l100 211h197zM344 79h-161l-34 -79h-177l251 497h176l146 -497h-184zM320 187l-30 137l-60 -137h90z" />
    <glyph glyph-name="aacute.ss01" horiz-adv-x="518" 
d="M339 536h-140l100 211h197zM451 167q-2 -19 4 -29t28 -10l-13 -128q-14 -4 -34.5 -7t-40.5 -3q-31 0 -50.5 7t-30.5 18.5t-15.5 24.5t-5.5 25q-7 -12 -18 -25.5t-29 -25t-43 -19t-60 -7.5q-69 0 -103 35t-34 92q0 32 11.5 58.5t36 46.5t63.5 31t93 11h81l5 49
q3 30 -7.5 43.5t-31.5 13.5t-33.5 -13t-12.5 -37q0 -13 3 -22h-151q-2 4 -3 10q-1 5 -2 12t-1 18q0 72 55.5 116.5t164.5 44.5q56 0 94 -13.5t60.5 -38t30.5 -60t3 -79.5zM214 113q47 0 66 46l2 24h-56q-25 0 -36.5 -11t-11.5 -27q0 -14 9.5 -23t26.5 -9z" />
    <glyph glyph-name="abreve.sc" horiz-adv-x="567" 
d="M318 569q-51 0 -81.5 15.5t-46.5 41t-19.5 57.5t-0.5 64h123q-3 -30 6 -43.5t32 -13.5t34.5 13.5t14.5 43.5h121q-3 -32 -13.5 -64t-31.5 -57.5t-54.5 -41t-83.5 -15.5zM344 79h-161l-34 -79h-177l251 497h176l146 -497h-184zM320 187l-30 137l-60 -137h90z" />
    <glyph glyph-name="abreve.ss01" horiz-adv-x="518" 
d="M288 554q-51 0 -81.5 15.5t-46.5 41t-19.5 57.5t-0.5 64h123q-3 -30 6 -43.5t32 -13.5t34.5 13.5t14.5 43.5h121q-3 -32 -13.5 -64t-31.5 -57.5t-54.5 -41t-83.5 -15.5zM451 167q-2 -19 4 -29t28 -10l-13 -128q-14 -4 -34.5 -7t-40.5 -3q-31 0 -50.5 7t-30.5 18.5
t-15.5 24.5t-5.5 25q-7 -12 -18 -25.5t-29 -25t-43 -19t-60 -7.5q-69 0 -103 35t-34 92q0 32 11.5 58.5t36 46.5t63.5 31t93 11h81l5 49q3 30 -7.5 43.5t-31.5 13.5t-33.5 -13t-12.5 -37q0 -13 3 -22h-151q-2 4 -3 10q-1 5 -2 12t-1 18q0 72 55.5 116.5t164.5 44.5
q56 0 94 -13.5t60.5 -38t30.5 -60t3 -79.5zM214 113q47 0 66 46l2 24h-56q-25 0 -36.5 -11t-11.5 -27q0 -14 9.5 -23t26.5 -9z" />
    <glyph glyph-name="acircumflex.sc" horiz-adv-x="567" 
d="M283 555h-145l108 201h182l67 -201h-145l-25 90zM344 79h-161l-34 -79h-177l251 497h176l146 -497h-184zM320 187l-30 137l-60 -137h90z" />
    <glyph glyph-name="acircumflex.ss01" horiz-adv-x="518" 
d="M253 540h-145l108 201h182l67 -201h-145l-25 90zM451 167q-2 -19 4 -29t28 -10l-13 -128q-14 -4 -34.5 -7t-40.5 -3q-31 0 -50.5 7t-30.5 18.5t-15.5 24.5t-5.5 25q-7 -12 -18 -25.5t-29 -25t-43 -19t-60 -7.5q-69 0 -103 35t-34 92q0 32 11.5 58.5t36 46.5t63.5 31
t93 11h81l5 49q3 30 -7.5 43.5t-31.5 13.5t-33.5 -13t-12.5 -37q0 -13 3 -22h-151q-2 4 -3 10q-1 5 -2 12t-1 18q0 72 55.5 116.5t164.5 44.5q56 0 94 -13.5t60.5 -38t30.5 -60t3 -79.5zM214 113q47 0 66 46l2 24h-56q-25 0 -36.5 -11t-11.5 -27q0 -14 9.5 -23t26.5 -9z" />
    <glyph glyph-name="acute.case" horiz-adv-x="279" 
d="M148 912h204l-153 -171h-146z" />
    <glyph glyph-name="acutecomb.case" 
d="M-150 912h204l-153 -171h-146z" />
    <glyph glyph-name="adieresis.sc" horiz-adv-x="567" 
d="M199 555q-44 0 -66.5 25.5t-22.5 62.5q0 43 28.5 74.5t79.5 31.5q42 0 64 -26.5t22 -62.5q0 -43 -28.5 -74t-76.5 -31zM437 555q-44 0 -66.5 25.5t-22.5 62.5q0 43 28.5 74.5t79.5 31.5q42 0 64 -26.5t22 -62.5q0 -43 -28.5 -74t-76.5 -31zM344 79h-161l-34 -79h-177
l251 497h176l146 -497h-184zM320 187l-30 137l-60 -137h90z" />
    <glyph glyph-name="adieresis.ss01" horiz-adv-x="518" 
d="M169 540q-44 0 -66.5 25.5t-22.5 62.5q0 43 28.5 74.5t79.5 31.5q42 0 64 -26.5t22 -62.5q0 -43 -28.5 -74t-76.5 -31zM407 540q-44 0 -66.5 25.5t-22.5 62.5q0 43 28.5 74.5t79.5 31.5q42 0 64 -26.5t22 -62.5q0 -43 -28.5 -74t-76.5 -31zM451 167q-2 -19 4 -29t28 -10
l-13 -128q-14 -4 -34.5 -7t-40.5 -3q-31 0 -50.5 7t-30.5 18.5t-15.5 24.5t-5.5 25q-7 -12 -18 -25.5t-29 -25t-43 -19t-60 -7.5q-69 0 -103 35t-34 92q0 32 11.5 58.5t36 46.5t63.5 31t93 11h81l5 49q3 30 -7.5 43.5t-31.5 13.5t-33.5 -13t-12.5 -37q0 -13 3 -22h-151
q-2 4 -3 10q-1 5 -2 12t-1 18q0 72 55.5 116.5t164.5 44.5q56 0 94 -13.5t60.5 -38t30.5 -60t3 -79.5zM214 113q47 0 66 46l2 24h-56q-25 0 -36.5 -11t-11.5 -27q0 -14 9.5 -23t26.5 -9z" />
    <glyph glyph-name="ae.sc" horiz-adv-x="726" 
d="M221 497h495l-13 -127h-260l14 -63h172l-12 -119h-129l13 -60h179l-13 -128h-302l-16 79h-163l-33 -79h-183zM325 188l-29 141l-61 -141h90z" />
    <glyph glyph-name="aeacute.sc" horiz-adv-x="726" 
d="M465 762h197l-157 -211h-140zM221 497h495l-13 -127h-260l14 -63h172l-12 -119h-129l13 -60h179l-13 -128h-302l-16 79h-163l-33 -79h-183zM325 188l-29 141l-61 -141h90z" />
    <glyph glyph-name="agrave.sc" horiz-adv-x="567" 
d="M247 551l-109 211h194l54 -211h-139zM344 79h-161l-34 -79h-177l251 497h176l146 -497h-184zM320 187l-30 137l-60 -137h90z" />
    <glyph glyph-name="agrave.ss01" horiz-adv-x="518" 
d="M217 536l-109 211h194l54 -211h-139zM451 167q-2 -19 4 -29t28 -10l-13 -128q-14 -4 -34.5 -7t-40.5 -3q-31 0 -50.5 7t-30.5 18.5t-15.5 24.5t-5.5 25q-7 -12 -18 -25.5t-29 -25t-43 -19t-60 -7.5q-69 0 -103 35t-34 92q0 32 11.5 58.5t36 46.5t63.5 31t93 11h81l5 49
q3 30 -7.5 43.5t-31.5 13.5t-33.5 -13t-12.5 -37q0 -13 3 -22h-151q-2 4 -3 10q-1 5 -2 12t-1 18q0 72 55.5 116.5t164.5 44.5q56 0 94 -13.5t60.5 -38t30.5 -60t3 -79.5zM214 113q47 0 66 46l2 24h-56q-25 0 -36.5 -11t-11.5 -27q0 -14 9.5 -23t26.5 -9z" />
    <glyph glyph-name="amacron.sc" horiz-adv-x="567" 
d="M476 593h-312l13 124h312zM344 79h-161l-34 -79h-177l251 497h176l146 -497h-184zM320 187l-30 137l-60 -137h90z" />
    <glyph glyph-name="amacron.ss01" horiz-adv-x="518" 
d="M446 578h-312l13 124h312zM451 167q-2 -19 4 -29t28 -10l-13 -128q-14 -4 -34.5 -7t-40.5 -3q-31 0 -50.5 7t-30.5 18.5t-15.5 24.5t-5.5 25q-7 -12 -18 -25.5t-29 -25t-43 -19t-60 -7.5q-69 0 -103 35t-34 92q0 32 11.5 58.5t36 46.5t63.5 31t93 11h81l5 49
q3 30 -7.5 43.5t-31.5 13.5t-33.5 -13t-12.5 -37q0 -13 3 -22h-151q-2 4 -3 10q-1 5 -2 12t-1 18q0 72 55.5 116.5t164.5 44.5q56 0 94 -13.5t60.5 -38t30.5 -60t3 -79.5zM214 113q47 0 66 46l2 24h-56q-25 0 -36.5 -11t-11.5 -27q0 -14 9.5 -23t26.5 -9z" />
    <glyph glyph-name="ampersand.sc" horiz-adv-x="555" 
d="M467 -6q-42 21 -81 45q-38 -27 -85 -40t-99 -13q-85 0 -134 33t-49 103q0 45 25 83t74 60q-18 35 -18 81q0 41 15 73.5t41.5 55.5t63 35t79.5 12q81 0 119 -31t38 -89q0 -20 -5 -37t-10 -28h-124q2 3 3.5 8t1.5 13q0 29 -35 29q-46 0 -46 -37q0 -10 3.5 -19t13 -19.5
t26 -24t41.5 -31.5q11 -8 23.5 -17t26.5 -20q2 8 4 17t3 17h117q-2 -28 -8 -52t-14 -46q30 -18 67 -35zM235 94q25 0 50 10l-55 42q-14 11 -27 21t-24 21q-11 -16 -11 -39q0 -27 16 -41t51 -14z" />
    <glyph glyph-name="aogonek.sc" horiz-adv-x="567" 
d="M466 -117q11 0 16.5 2t10.5 6l26 -77q-33 -25 -95 -25q-55 0 -82.5 25t-27.5 68q0 33 17 63t48 55h-18l-17 79h-161l-34 -79h-177l251 497h176l146 -497h-32q-36 -17 -54.5 -41.5t-18.5 -48.5q0 -14 7.5 -20.5t18.5 -6.5zM320 187l-30 137l-60 -137h90z" />
    <glyph glyph-name="aogonek.ss01" horiz-adv-x="518" 
d="M423 -117q11 0 16.5 2t10.5 6l26 -77q-33 -25 -95 -25q-55 0 -82.5 25t-27.5 68q0 33 17.5 63.5t47.5 55.5q-24 11 -32.5 29t-10.5 35q-7 -12 -18 -25.5t-29 -25t-43 -19t-60 -7.5q-69 0 -103 35t-34 92q0 32 11.5 58.5t36 46.5t63.5 31t93 11h81l5 49q3 30 -7.5 43.5
t-31.5 13.5t-33.5 -13t-12.5 -37q0 -13 3 -22h-151q-2 4 -3 10q-1 5 -2 12t-1 18q0 72 55.5 116.5t164.5 44.5q56 0 94 -13.5t60.5 -38t30.5 -60t3 -79.5l-14 -139q-2 -19 4 -29t28 -10l-13 -128q-36 -17 -54.5 -41.5t-18.5 -48.5q0 -14 7.5 -20.5t18.5 -6.5zM214 113
q47 0 66 46l2 24h-56q-25 0 -36.5 -11t-11.5 -27q0 -14 9.5 -23t26.5 -9z" />
    <glyph glyph-name="aring.sc" horiz-adv-x="567" 
d="M317 530q-54 0 -84.5 33t-30.5 82q0 61 37 100t97 39q54 0 85 -33t31 -82q0 -60 -37 -99.5t-98 -39.5zM329 701q-20 0 -31.5 -14t-11.5 -35q0 -19 11 -29t28 -10q21 0 32 14.5t11 34.5q0 18 -11 28.5t-28 10.5zM344 79h-161l-34 -79h-177l251 497h176l146 -497h-184z
M320 187l-30 137l-60 -137h90z" />
    <glyph glyph-name="aring.ss01" horiz-adv-x="518" 
d="M287 515q-54 0 -84.5 33t-30.5 82q0 61 37 100t97 39q54 0 85 -33t31 -82q0 -60 -37 -99.5t-98 -39.5zM299 686q-20 0 -31.5 -14t-11.5 -35q0 -19 11 -29t28 -10q21 0 32 14.5t11 34.5q0 18 -11 28.5t-28 10.5zM451 167q-2 -19 4 -29t28 -10l-13 -128q-14 -4 -34.5 -7
t-40.5 -3q-31 0 -50.5 7t-30.5 18.5t-15.5 24.5t-5.5 25q-7 -12 -18 -25.5t-29 -25t-43 -19t-60 -7.5q-69 0 -103 35t-34 92q0 32 11.5 58.5t36 46.5t63.5 31t93 11h81l5 49q3 30 -7.5 43.5t-31.5 13.5t-33.5 -13t-12.5 -37q0 -13 3 -22h-151q-2 4 -3 10q-1 5 -2 12t-1 18
q0 72 55.5 116.5t164.5 44.5q56 0 94 -13.5t60.5 -38t30.5 -60t3 -79.5zM214 113q47 0 66 46l2 24h-56q-25 0 -36.5 -11t-11.5 -27q0 -14 9.5 -23t26.5 -9z" />
    <glyph glyph-name="aringacute.sc" horiz-adv-x="582" 
d="M442 596q0 -65 -42 -104l145 -492h-184l-17 79h-161l-34 -79h-177l249 492q-29 32 -29 80t23 82.5t63 48.5l78 140h204l-148 -166q30 -32 30 -81zM319 628q-20 0 -31.5 -14t-11.5 -35q0 -19 11 -29t28 -10q21 0 32 14.5t11 34.5q0 18 -11 28.5t-28 10.5zM320 187l-30 137
l-60 -137h90z" />
    <glyph glyph-name="aringacute.ss01" horiz-adv-x="518" 
d="M287 515q-54 0 -84.5 33t-30.5 82q0 48 23.5 83t63.5 49l70 147h197l-132 -177q28 -31 28 -78q0 -60 -37 -99.5t-98 -39.5zM295 598q21 0 32 14.5t11 34.5q0 18 -11 28.5t-28 10.5q-20 0 -31.5 -14t-11.5 -35q0 -19 11 -29t28 -10zM451 167q-2 -19 4 -29t28 -10l-13 -128
q-14 -4 -34.5 -7t-40.5 -3q-31 0 -50.5 7t-30.5 18.5t-15.5 24.5t-5.5 25q-7 -12 -18 -25.5t-29 -25t-43 -19t-60 -7.5q-69 0 -103 35t-34 92q0 32 11.5 58.5t36 46.5t63.5 31t93 11h81l5 49q3 30 -7.5 43.5t-31.5 13.5t-33.5 -13t-12.5 -37q0 -13 3 -22h-151q-2 4 -3 10
q-1 5 -2 12t-1 18q0 72 55.5 116.5t164.5 44.5q56 0 94 -13.5t60.5 -38t30.5 -60t3 -79.5zM214 113q47 0 66 46l2 24h-56q-25 0 -36.5 -11t-11.5 -27q0 -14 9.5 -23t26.5 -9z" />
    <glyph glyph-name="atilde.sc" horiz-adv-x="567" 
d="M139 538q-5 8 -7.5 23t-2.5 30q0 54 33.5 86t84.5 32q22 0 40.5 -6t35 -13.5t30.5 -14t26 -6.5q27 0 27 24q0 11 -4 16h105q5 -10 7 -24.5t2 -25.5q0 -56 -31.5 -88.5t-82.5 -32.5q-26 0 -46.5 6.5t-37 14t-29 13.5t-22.5 6q-28 0 -28 -24q0 -11 4 -16h-104zM344 79h-161
l-34 -79h-177l251 497h176l146 -497h-184zM320 187l-30 137l-60 -137h90z" />
    <glyph glyph-name="atilde.ss01" horiz-adv-x="518" 
d="M122 540q-5 8 -8 23.5t-3 30.5q0 54 33 87t84 33q20 0 37.5 -6.5t32.5 -15t27.5 -15t23.5 -6.5q10 0 18.5 6t8.5 18q0 5 -1 11t-4 9h96q6 -11 8.5 -26t2.5 -27q0 -55 -32.5 -88t-82.5 -33q-22 0 -40 6.5t-32.5 15t-25.5 15t-20 6.5q-13 0 -21 -7t-8 -18q0 -5 1.5 -11
t3.5 -8h-99zM451 167q-2 -19 4 -29t28 -10l-13 -128q-14 -4 -34.5 -7t-40.5 -3q-31 0 -50.5 7t-30.5 18.5t-15.5 24.5t-5.5 25q-7 -12 -18 -25.5t-29 -25t-43 -19t-60 -7.5q-69 0 -103 35t-34 92q0 32 11.5 58.5t36 46.5t63.5 31t93 11h81l5 49q3 30 -7.5 43.5t-31.5 13.5
t-33.5 -13t-12.5 -37q0 -13 3 -22h-151q-2 4 -3 10q-1 5 -2 12t-1 18q0 72 55.5 116.5t164.5 44.5q56 0 94 -13.5t60.5 -38t30.5 -60t3 -79.5zM214 113q47 0 66 46l2 24h-56q-25 0 -36.5 -11t-11.5 -27q0 -14 9.5 -23t26.5 -9z" />
    <glyph glyph-name="b.sc" horiz-adv-x="521" 
d="M410 279q36 -11 57.5 -36.5t21.5 -73.5q0 -49 -19 -81.5t-51 -52t-73.5 -27.5t-86.5 -8h-229l52 497h240q78 0 121.5 -26t43.5 -83q0 -41 -18.5 -68.5t-58.5 -40.5zM233 309h32q21 0 35.5 11.5t14.5 34.5q0 17 -10.5 27t-32.5 10h-30zM260 105q9 0 19 2t18 8t13.5 16.5
t5.5 27.5q0 24 -14 34.5t-40 10.5h-40l-10 -99h48z" />
    <glyph glyph-name="braceleft.sc" horiz-adv-x="326" 
d="M256 -88q-42 -5 -79.5 1.5t-64 27.5t-40 58t-7.5 93l5 48q3 26 -12 37t-31 11h-8l13 123h8q16 0 33 10.5t20 36.5l5 48q6 56 27 93t52.5 58.5t70 28t79.5 0.5l-15 -136q-34 11 -56 -9.5t-27 -62.5l-6 -57q-4 -38 -19 -53t-24 -18q3 -1 8.5 -6.5t10 -15t8 -22.5t1.5 -29
l-6 -57q-5 -41 13.5 -62t54.5 -10z" />
    <glyph glyph-name="braceright.sc" horiz-adv-x="333" 
d="M77 588q42 5 79.5 -1.5t64 -27.5t40 -58t7.5 -93l-5 -48q-3 -26 12 -37t31 -11h8l-13 -123h-8q-16 0 -33 -10.5t-20 -36.5l-5 -48q-6 -56 -27 -93t-52.5 -58.5t-70 -28t-79.5 -0.5l15 136q34 -11 56 9.5t27 62.5l6 57q4 38 19 53t24 18q-3 1 -8.5 6.5t-10 15t-7.5 22.5
t-2 29l6 57q5 41 -13.5 62t-54.5 10z" />
    <glyph glyph-name="bracketleft.sc" horiz-adv-x="343" 
d="M98 596h252l-14 -126h-107l-45 -436h107l-14 -126h-252z" />
    <glyph glyph-name="bracketright.sc" horiz-adv-x="343" 
d="M9 33h107l46 436h-107l14 126h252l-73 -688h-252z" />
    <glyph glyph-name="breve.case" horiz-adv-x="331" 
d="M219 743q-47 0 -77.5 15t-47.5 39t-22 54t-2 60h122q-6 -55 38 -55q43 0 49 55h122q-3 -30 -14.5 -60t-33.5 -54t-55 -39t-79 -15z" />
    <glyph glyph-name="c.sc" horiz-adv-x="519" 
d="M249 -14q-103 0 -163.5 57.5t-60.5 166.5q0 68 18.5 123.5t54.5 95t89 61t121 21.5q39 0 74 -8t62 -26t42.5 -46.5t15.5 -69.5t-12 -71h-157q5 12 5 28q0 35 -46 35q-41 0 -62.5 -35.5t-21.5 -92.5q0 -42 19.5 -64.5t55.5 -22.5q33 0 54 12t38 34l109 -82
q-30 -49 -86 -82.5t-149 -33.5z" />
    <glyph glyph-name="cacute.sc" horiz-adv-x="519" 
d="M319 762h197l-157 -211h-140zM249 -14q-103 0 -163.5 57.5t-60.5 166.5q0 68 18.5 123.5t54.5 95t89 61t121 21.5q39 0 74 -8t62 -26t42.5 -46.5t15.5 -69.5t-12 -71h-157q5 12 5 28q0 35 -46 35q-41 0 -62.5 -35.5t-21.5 -92.5q0 -42 19.5 -64.5t55.5 -22.5q33 0 54 12
t38 34l109 -82q-30 -49 -86 -82.5t-149 -33.5z" />
    <glyph glyph-name="caron.alt" horiz-adv-x="170" 
d="M39 509q36 12 46 28t12 30q-28 7 -41.5 26t-13.5 45q0 35 24 59.5t64 24.5q36 0 58.5 -22.5t22.5 -64.5q0 -65 -39.5 -116t-114.5 -74z" />
    <glyph glyph-name="caron.case" horiz-adv-x="357" 
d="M71 912h145l25 -70l42 70h145l-106 -171h-182z" />
    <glyph glyph-name="caroncomb.alt" 
d="M-158 509q36 12 46 28t12 30q-28 7 -41.5 26t-13.5 45q0 35 24 59.5t64 24.5q36 0 58.5 -22.5t22.5 -64.5q0 -65 -39.5 -116t-114.5 -74z" />
    <glyph glyph-name="ccaron.sc" horiz-adv-x="519" 
d="M149 756h145l23 -90l44 90h145l-108 -201h-183zM249 -14q-103 0 -163.5 57.5t-60.5 166.5q0 68 18.5 123.5t54.5 95t89 61t121 21.5q39 0 74 -8t62 -26t42.5 -46.5t15.5 -69.5t-12 -71h-157q5 12 5 28q0 35 -46 35q-41 0 -62.5 -35.5t-21.5 -92.5q0 -42 19.5 -64.5
t55.5 -22.5q33 0 54 12t38 34l109 -82q-30 -49 -86 -82.5t-149 -33.5z" />
    <glyph glyph-name="ccedilla.sc" horiz-adv-x="519" 
d="M333 290q5 12 5 28q0 35 -46 35q-41 0 -62.5 -35.5t-21.5 -92.5q0 -42 19.5 -64.5t55.5 -22.5q33 0 54 12t38 34l109 -82q-26 -43 -71.5 -74.5t-118.5 -39.5l-11 -25q29 -7 48 -25.5t19 -53.5q0 -53 -36.5 -83t-105.5 -30q-38 0 -69 9.5t-45 26.5l55 69q8 -9 22.5 -15.5
t30.5 -6.5q34 0 34 28q0 29 -66 34l33 73q-83 12 -130.5 68t-47.5 153q0 68 18.5 123.5t54.5 95t89 61t121 21.5q39 0 74 -8t62 -26t42.5 -46.5t15.5 -69.5t-12 -71h-157z" />
    <glyph glyph-name="ccircumflex.sc" horiz-adv-x="519" 
d="M236 756h182l67 -201h-145l-25 90l-42 -90h-145zM249 -14q-103 0 -163.5 57.5t-60.5 166.5q0 68 18.5 123.5t54.5 95t89 61t121 21.5q39 0 74 -8t62 -26t42.5 -46.5t15.5 -69.5t-12 -71h-157q5 12 5 28q0 35 -46 35q-41 0 -62.5 -35.5t-21.5 -92.5q0 -42 19.5 -64.5
t55.5 -22.5q33 0 54 12t38 34l109 -82q-30 -49 -86 -82.5t-149 -33.5z" />
    <glyph glyph-name="cdotaccent.sc" horiz-adv-x="519" 
d="M307 555q-45 0 -69 27t-24 65q0 45 30 78t83 33q45 0 67.5 -27.5t22.5 -65.5q0 -45 -29.5 -77.5t-80.5 -32.5zM249 -14q-103 0 -163.5 57.5t-60.5 166.5q0 68 18.5 123.5t54.5 95t89 61t121 21.5q39 0 74 -8t62 -26t42.5 -46.5t15.5 -69.5t-12 -71h-157q5 12 5 28
q0 35 -46 35q-41 0 -62.5 -35.5t-21.5 -92.5q0 -42 19.5 -64.5t55.5 -22.5q33 0 54 12t38 34l109 -82q-30 -49 -86 -82.5t-149 -33.5z" />
    <glyph glyph-name="cent.osf" horiz-adv-x="502" 
d="M282 162q26 0 37 6.5t27 18.5l119 -77q-23 -38 -61.5 -64.5t-85.5 -37.5l-8 -78h-152l8 83q-63 22 -100 76t-37 132q0 106 51.5 174.5t139.5 91.5l7 70h149l-7 -67q45 -9 77 -33.5t51 -68.5l-138 -82q-11 13 -25.5 21t-38.5 8q-22 0 -37.5 -9.5t-25 -24t-13.5 -31.5
t-4 -32q0 -32 16 -54t51 -22z" />
    <glyph glyph-name="cent.sc" horiz-adv-x="498" 
d="M315 167q14 6 29 20l119 -77q-23 -38 -61.5 -64.5t-85.5 -37.5l-8 -78h-152l8 83q-63 22 -100 76t-37 132q0 106 51.5 174.5t139.5 91.5l7 70h149l-7 -67q45 -9 77 -33.5t51 -68.5l-138 -82q-7 8 -12.5 13.5t-13.5 8.5zM245 319q-20 -15 -26 -39t-6 -47q0 -16 4 -29.5
t13 -23.5z" />
    <glyph glyph-name="circumflex.case" horiz-adv-x="357" 
d="M154 912h182l70 -171h-145l-27 70l-40 -70h-145z" />
    <glyph glyph-name="currency.osf" horiz-adv-x="554" 
d="M4 68l85 79q-8 17 -11.5 38t-3.5 43q0 62 36 117l-65 76l93 85l64 -76q49 26 101 26q50 0 92 -25l81 75l76 -85l-81 -75q8 -17 12 -38t4 -42q0 -33 -8.5 -62.5t-28.5 -58.5l62 -70l-94 -84l-62 70q-45 -25 -97 -25q-27 0 -50.5 6.5t-45.5 18.5l-83 -78zM272 165
q17 0 32.5 7t27.5 19t19 28t7 34q0 32 -19.5 53t-49.5 21q-35 0 -60.5 -26t-25.5 -63q0 -31 19.5 -52t49.5 -21z" />
    <glyph glyph-name="currency.sc" horiz-adv-x="553" 
d="M4 68l85 79q-8 17 -11.5 38t-3.5 43q0 62 36 117l-65 76l93 85l64 -76q49 26 101 26q50 0 92 -25l81 75l76 -85l-81 -75q8 -17 12 -38t4 -42q0 -33 -8.5 -62.5t-28.5 -58.5l62 -70l-94 -84l-62 70q-45 -25 -97 -25q-27 0 -50.5 6.5t-45.5 18.5l-83 -78zM277 165
q37 0 59 26t22 62q0 35 -20 54.5t-54 19.5q-38 0 -59.5 -26t-21.5 -63q0 -35 20 -54t54 -19z" />
    <glyph glyph-name="d.sc" horiz-adv-x="559" 
d="M82 497h176q59 0 109.5 -11t87.5 -36.5t58.5 -67.5t21.5 -104q0 -81 -26.5 -135t-70.5 -85.5t-101 -44.5t-117 -13h-190zM244 133q31 0 52.5 11t34.5 29.5t19 42.5t6 50q0 18 -4 36t-14 31.5t-27 22t-43 8.5h-28l-24 -231h28z" />
    <glyph glyph-name="dcaron.sc" horiz-adv-x="559" 
d="M146 756h145l23 -90l44 90h145l-108 -201h-183zM82 497h176q59 0 109.5 -11t87.5 -36.5t58.5 -67.5t21.5 -104q0 -81 -26.5 -135t-70.5 -85.5t-101 -44.5t-117 -13h-190zM244 133q31 0 52.5 11t34.5 29.5t19 42.5t6 50q0 18 -4 36t-14 31.5t-27 22t-43 8.5h-28l-24 -231
h28z" />
    <glyph glyph-name="dcroat.sc" horiz-adv-x="600" 
d="M282 497q59 0 109.5 -11t87.5 -36.5t58.5 -67.5t21.5 -104q0 -81 -26.5 -135t-70.5 -85.5t-101 -44.5t-117 -13h-190l20 191h-52l11 116h53l20 190h176zM268 133q31 0 52.5 11t34.5 29.5t19 42.5t6 50q0 18 -4 36t-14 31.5t-27 22t-43 8.5h-28l-6 -57h74l-11 -116h-75
l-6 -58h28z" />
    <glyph glyph-name="dieresis.case" horiz-adv-x="456" 
d="M140 738q-45 0 -67.5 25.5t-22.5 63.5q0 26 9 45.5t23.5 33t34 20.5t40.5 7q44 0 66 -26t22 -63q0 -52 -31 -79t-74 -27zM403 738q-45 0 -67.5 25.5t-22.5 62.5q0 51 32 79t75 28t65 -26t22 -63q0 -52 -31 -79t-73 -27z" />
    <glyph glyph-name="dollar.osf" horiz-adv-x="504" 
d="M176 2q-57 6 -103 27.5t-68 47.5l91 110q32 -30 70 -42.5t89 -12.5q26 0 41 5t15 19q0 12 -15 19t-65 15q-29 5 -61 12.5t-58.5 21.5t-44 38t-17.5 62q0 74 49 112t128 48l8 78h104l-8 -80q34 -4 64.5 -13.5t51 -28t28 -46.5t-6.5 -69h-139q8 19 -5 28t-56 9
q-35 0 -47.5 -6.5t-12.5 -20.5q0 -5 3 -9t11 -8t24 -7.5t41 -7.5q33 -6 66 -13t58.5 -21.5t41.5 -38t16 -61.5q0 -75 -51 -116.5t-137 -47.5l-9 -84h-104z" />
    <glyph glyph-name="dollar.sc" horiz-adv-x="505" 
d="M312 299q30 -6 58.5 -13.5t50.5 -22t35.5 -37t13.5 -57.5q0 -75 -51 -116.5t-137 -47.5l-9 -84h-104l8 81q-57 6 -103 27.5t-68 47.5l91 110q43 -40 104 -51l6 58q-27 5 -54.5 13.5t-50 23t-37 37t-14.5 56.5q0 74 49 112t128 48l8 78h104l-8 -80q34 -4 64.5 -13.5
t51 -28t28 -46.5t-6.5 -69h-139q9 23 -12 31zM205 335q0 -5 3 -9t12 -8l5 40q-20 -5 -20 -23zM295 137q17 5 17 19q0 12 -13 18z" />
    <glyph glyph-name="dotaccent.case" horiz-adv-x="195" 
d="M150 736q-42 0 -65 26t-23 64q0 47 31 77t77 30q43 0 65.5 -27t22.5 -64q0 -45 -28.5 -75.5t-79.5 -30.5z" />
    <glyph glyph-name="dotlessi.sc" horiz-adv-x="282" 
d="M82 497h172l-52 -497h-172z" />
    <glyph glyph-name="dotlessi.ss01" horiz-adv-x="266" 
d="M74 482h170l-51 -482h-170z" />
    <glyph glyph-name="e.sc" horiz-adv-x="456" 
d="M82 497h363l-13 -127h-192l-6 -60h172l-13 -119h-172l-7 -63h194l-13 -128h-365z" />
    <glyph glyph-name="e.ss01" horiz-adv-x="496" 
d="M473 295q0 -32 -3.5 -52t-6.5 -31h-271q3 -88 76 -88q38 0 57.5 14.5t36.5 38.5l98 -82q-15 -24 -34.5 -44t-46 -34.5t-61.5 -22.5t-80 -8q-102 0 -159 59t-57 162q0 67 18.5 120.5t52 91t81.5 58t106 20.5q94 0 143.5 -52.5t49.5 -149.5zM314 297q4 32 -8 50t-38 18
q-30 0 -46 -18t-23 -50h115z" />
    <glyph glyph-name="eacute.sc" horiz-adv-x="456" 
d="M290 762h197l-157 -211h-140zM82 497h363l-13 -127h-192l-6 -60h172l-13 -119h-172l-7 -63h194l-13 -128h-365z" />
    <glyph glyph-name="eacute.ss01" horiz-adv-x="496" 
d="M334 536h-140l100 211h197zM280 497q94 0 143.5 -52.5t49.5 -149.5q0 -32 -3.5 -52t-6.5 -31h-271q3 -88 76 -88q38 0 57.5 14.5t36.5 38.5l98 -82q-15 -24 -34.5 -44t-46 -34.5t-61.5 -22.5t-80 -8q-102 0 -159 59t-57 162q0 67 18.5 120.5t52 91t81.5 58t106 20.5z
M314 297q4 32 -8 50t-38 18q-30 0 -46 -18t-23 -50h115z" />
    <glyph glyph-name="ebreve.sc" horiz-adv-x="456" 
d="M279 569q-51 0 -81.5 15.5t-46.5 41t-19.5 57.5t-0.5 64h123q-3 -30 6 -43.5t32 -13.5t34.5 13.5t14.5 43.5h121q-3 -32 -13.5 -64t-31.5 -57.5t-54.5 -41t-83.5 -15.5zM82 497h363l-13 -127h-192l-6 -60h172l-13 -119h-172l-7 -63h194l-13 -128h-365z" />
    <glyph glyph-name="ebreve.ss01" horiz-adv-x="496" 
d="M283 554q-51 0 -81.5 15.5t-46.5 41t-19.5 57.5t-0.5 64h123q-3 -30 6 -43.5t32 -13.5t34.5 13.5t14.5 43.5h121q-3 -32 -13.5 -64t-31.5 -57.5t-54.5 -41t-83.5 -15.5zM473 295q0 -32 -3.5 -52t-6.5 -31h-271q3 -88 76 -88q38 0 57.5 14.5t36.5 38.5l98 -82
q-15 -24 -34.5 -44t-46 -34.5t-61.5 -22.5t-80 -8q-102 0 -159 59t-57 162q0 67 18.5 120.5t52 91t81.5 58t106 20.5q94 0 143.5 -52.5t49.5 -149.5zM314 297q4 32 -8 50t-38 18q-30 0 -46 -18t-23 -50h115z" />
    <glyph glyph-name="ecaron.sc" horiz-adv-x="456" 
d="M120 756h145l23 -90l44 90h145l-108 -201h-183zM82 497h363l-13 -127h-192l-6 -60h172l-13 -119h-172l-7 -63h194l-13 -128h-365z" />
    <glyph glyph-name="ecaron.ss01" horiz-adv-x="496" 
d="M190 540l-66 201h145l23 -90l44 90h145l-108 -201h-183zM280 497q94 0 143.5 -52.5t49.5 -149.5q0 -32 -3.5 -52t-6.5 -31h-271q3 -88 76 -88q38 0 57.5 14.5t36.5 38.5l98 -82q-15 -24 -34.5 -44t-46 -34.5t-61.5 -22.5t-80 -8q-102 0 -159 59t-57 162q0 67 18.5 120.5
t52 91t81.5 58t106 20.5zM314 297q4 32 -8 50t-38 18q-30 0 -46 -18t-23 -50h115z" />
    <glyph glyph-name="ecircumflex.sc" horiz-adv-x="456" 
d="M207 756h182l67 -201h-145l-25 90l-42 -90h-145zM82 497h363l-13 -127h-192l-6 -60h172l-13 -119h-172l-7 -63h194l-13 -128h-365z" />
    <glyph glyph-name="ecircumflex.ss01" horiz-adv-x="496" 
d="M248 540h-145l108 201h182l67 -201h-145l-25 90zM473 295q0 -32 -3.5 -52t-6.5 -31h-271q3 -88 76 -88q38 0 57.5 14.5t36.5 38.5l98 -82q-15 -24 -34.5 -44t-46 -34.5t-61.5 -22.5t-80 -8q-102 0 -159 59t-57 162q0 67 18.5 120.5t52 91t81.5 58t106 20.5
q94 0 143.5 -52.5t49.5 -149.5zM314 297q4 32 -8 50t-38 18q-30 0 -46 -18t-23 -50h115z" />
    <glyph glyph-name="edieresis.sc" horiz-adv-x="456" 
d="M160 555q-44 0 -66.5 25.5t-22.5 62.5q0 43 28.5 74.5t79.5 31.5q42 0 64 -26.5t22 -62.5q0 -43 -28.5 -74t-76.5 -31zM398 555q-44 0 -66.5 25.5t-22.5 62.5q0 43 28.5 74.5t79.5 31.5q42 0 64 -26.5t22 -62.5q0 -43 -28.5 -74t-76.5 -31zM82 497h363l-13 -127h-192
l-6 -60h172l-13 -119h-172l-7 -63h194l-13 -128h-365z" />
    <glyph glyph-name="edieresis.ss01" horiz-adv-x="496" 
d="M164 540q-44 0 -66.5 25.5t-22.5 62.5q0 43 28.5 74.5t79.5 31.5q42 0 64 -26.5t22 -62.5q0 -43 -28.5 -74t-76.5 -31zM421 734q42 0 64 -26.5t22 -62.5q0 -43 -28.5 -74t-76.5 -31q-44 0 -66.5 25.5t-22.5 62.5q0 43 28.5 74.5t79.5 31.5zM280 497q94 0 143.5 -52.5
t49.5 -149.5q0 -32 -3.5 -52t-6.5 -31h-271q3 -88 76 -88q38 0 57.5 14.5t36.5 38.5l98 -82q-15 -24 -34.5 -44t-46 -34.5t-61.5 -22.5t-80 -8q-102 0 -159 59t-57 162q0 67 18.5 120.5t52 91t81.5 58t106 20.5zM314 297q4 32 -8 50t-38 18q-30 0 -46 -18t-23 -50h115z" />
    <glyph glyph-name="edotaccent.sc" horiz-adv-x="456" 
d="M278 555q-45 0 -69 27t-24 65q0 45 30 78t83 33q45 0 67.5 -27.5t22.5 -65.5q0 -45 -29.5 -77.5t-80.5 -32.5zM82 497h363l-13 -127h-192l-6 -60h172l-13 -119h-172l-7 -63h194l-13 -128h-365z" />
    <glyph glyph-name="edotaccent.ss01" horiz-adv-x="496" 
d="M282 540q-45 0 -69 27t-24 65q0 45 30 78t83 33q45 0 67.5 -27.5t22.5 -65.5q0 -45 -29.5 -77.5t-80.5 -32.5zM473 295q0 -32 -3.5 -52t-6.5 -31h-271q3 -88 76 -88q38 0 57.5 14.5t36.5 38.5l98 -82q-15 -24 -34.5 -44t-46 -34.5t-61.5 -22.5t-80 -8q-102 0 -159 59
t-57 162q0 67 18.5 120.5t52 91t81.5 58t106 20.5q94 0 143.5 -52.5t49.5 -149.5zM314 297q4 32 -8 50t-38 18q-30 0 -46 -18t-23 -50h115z" />
    <glyph glyph-name="egrave.sc" horiz-adv-x="456" 
d="M99 762h194l54 -211h-139zM82 497h363l-13 -127h-192l-6 -60h172l-13 -119h-172l-7 -63h194l-13 -128h-365z" />
    <glyph glyph-name="egrave.ss01" horiz-adv-x="496" 
d="M212 536l-109 211h194l54 -211h-139zM473 295q0 -32 -3.5 -52t-6.5 -31h-271q3 -88 76 -88q38 0 57.5 14.5t36.5 38.5l98 -82q-15 -24 -34.5 -44t-46 -34.5t-61.5 -22.5t-80 -8q-102 0 -159 59t-57 162q0 67 18.5 120.5t52 91t81.5 58t106 20.5q94 0 143.5 -52.5
t49.5 -149.5zM314 297q4 32 -8 50t-38 18q-30 0 -46 -18t-23 -50h115z" />
    <glyph glyph-name="eight.dnom" horiz-adv-x="386" 
d="M147 -5q-71 0 -112 23t-41 72q0 32 19.5 60.5t49.5 41.5q-14 11 -23.5 29.5t-9.5 44.5t10 49t30.5 40t51.5 27.5t72 10.5q63 0 98.5 -26.5t35.5 -70.5q0 -33 -16.5 -54.5t-37.5 -32.5q26 -12 37.5 -35t11.5 -52q0 -61 -48.5 -94t-127.5 -33zM198 233q5 5 13 15t8 30
q0 14 -9 25t-29 11q-18 0 -30.5 -10.5t-12.5 -28.5q0 -9 5.5 -18.5t22.5 -14.5zM156 74q26 0 43 9.5t17 29.5q0 24 -32 32l-57 15q-6 -4 -14 -16t-8 -30q0 -40 51 -40z" />
    <glyph glyph-name="eight.numr" horiz-adv-x="386" 
d="M147 315q-71 0 -112 23t-41 72q0 32 19.5 60.5t49.5 41.5q-14 11 -23.5 29.5t-9.5 44.5t10 49t30.5 40t51.5 27.5t72 10.5q63 0 98.5 -26.5t35.5 -70.5q0 -33 -16.5 -54.5t-37.5 -32.5q26 -12 37.5 -35t11.5 -52q0 -61 -48.5 -94t-127.5 -33zM198 553q5 5 13 15t8 30
q0 14 -9 25t-29 11q-18 0 -30.5 -10.5t-12.5 -28.5q0 -9 5.5 -18.5t22.5 -14.5zM156 394q26 0 43 9.5t17 29.5q0 24 -32 32l-57 15q-6 -4 -14 -16t-8 -30q0 -40 51 -40z" />
    <glyph glyph-name="eight.osf" horiz-adv-x="560" 
d="M455 374q38 -25 60 -63.5t22 -89.5q0 -57 -21 -99.5t-58.5 -71t-89.5 -42.5t-114 -14q-108 0 -170 45t-62 130q0 29 8.5 56.5t23 51t33.5 43t40 32.5q-27 25 -45 60t-18 82q0 50 19.5 89.5t54 66.5t82 41.5t104.5 14.5q50 0 91 -12t70 -34t45.5 -53.5t16.5 -70.5
q0 -48 -23.5 -89t-68.5 -73zM312 571q-29 0 -49 -16.5t-20 -51.5q0 -27 15.5 -43.5t41.5 -24.5l38 -13q19 15 27.5 38.5t8.5 47.5q0 33 -18 48t-44 15zM273 129q39 0 61.5 19.5t22.5 54.5q0 28 -13 43t-42 25l-68 22q-19 -19 -29.5 -42.5t-10.5 -49.5q0 -33 20.5 -52.5
t58.5 -19.5z" />
    <glyph glyph-name="eight.sc" horiz-adv-x="506" 
d="M401 269q33 -18 51.5 -46t18.5 -67q0 -85 -65 -127.5t-183 -42.5q-99 0 -154 32.5t-55 98.5q0 48 25.5 80.5t69.5 52.5q-22 18 -36 43t-14 58q0 79 59.5 119.5t162.5 40.5q91 0 141.5 -35.5t50.5 -91.5q0 -27 -13 -58t-59 -57zM271 391q-27 0 -39.5 -11.5t-12.5 -29.5
t13.5 -25t29.5 -12l20 -5q20 12 26.5 24t6.5 25q0 34 -44 34zM237 99q33 0 52.5 11t19.5 37q0 17 -10 26.5t-33 15.5l-55 15q-36 -21 -36 -59q0 -26 18 -36t44 -10z" />
    <glyph glyph-name="eight.sinf" horiz-adv-x="374" 
d="M147 -140q-71 0 -112 23t-41 72q0 32 19.5 60.5t49.5 41.5q-14 11 -23.5 29.5t-9.5 44.5t10 49t30.5 40t51.5 27.5t72 10.5q63 0 98.5 -26.5t35.5 -70.5q0 -33 -16.5 -54.5t-37.5 -32.5q26 -12 37.5 -35t11.5 -52q0 -61 -48.5 -94t-127.5 -33zM198 98q5 5 13 15t8 30
q0 14 -9 25t-29 11q-18 0 -30.5 -10.5t-12.5 -28.5q0 -9 5.5 -18.5t22.5 -14.5zM156 -61q26 0 43 9.5t17 29.5q0 24 -32 32l-57 15q-6 -4 -14 -16t-8 -30q0 -40 51 -40z" />
    <glyph glyph-name="eight.sups" horiz-adv-x="386" 
d="M147 380q-71 0 -112 23t-41 72q0 32 19.5 60.5t49.5 41.5q-14 11 -23.5 29.5t-9.5 44.5t10 49t30.5 40t51.5 27.5t72 10.5q63 0 98.5 -26.5t35.5 -70.5q0 -33 -16.5 -54.5t-37.5 -32.5q26 -12 37.5 -35t11.5 -52q0 -61 -48.5 -94t-127.5 -33zM198 618q5 5 13 15t8 30
q0 14 -9 25t-29 11q-18 0 -30.5 -10.5t-12.5 -28.5q0 -9 5.5 -18.5t22.5 -14.5zM156 459q26 0 43 9.5t17 29.5q0 24 -32 32l-57 15q-6 -4 -14 -16t-8 -30q0 -40 51 -40z" />
    <glyph glyph-name="emacron.sc" horiz-adv-x="456" 
d="M138 717h312l-13 -124h-312zM82 497h363l-13 -127h-192l-6 -60h172l-13 -119h-172l-7 -63h194l-13 -128h-365z" />
    <glyph glyph-name="emacron.ss01" horiz-adv-x="496" 
d="M441 578h-312l13 124h312zM473 295q0 -32 -3.5 -52t-6.5 -31h-271q3 -88 76 -88q38 0 57.5 14.5t36.5 38.5l98 -82q-15 -24 -34.5 -44t-46 -34.5t-61.5 -22.5t-80 -8q-102 0 -159 59t-57 162q0 67 18.5 120.5t52 91t81.5 58t106 20.5q94 0 143.5 -52.5t49.5 -149.5z
M314 297q4 32 -8 50t-38 18q-30 0 -46 -18t-23 -50h115z" />
    <glyph glyph-name="eng.sc" horiz-adv-x="578" 
d="M550 497l-52 -497l-1 -7q-6 -58 -27.5 -103t-55 -75.5t-78 -46t-96.5 -15.5q-45 0 -84.5 13t-60.5 41l111 131q18 -19 51 -19q29 0 53 17t29 64l1 8l-117 226l-10 21l-24 -255h-159l52 497h154l116 -225l16 -35l25 260h157z" />
    <glyph glyph-name="eng.ss01" horiz-adv-x="555" 
d="M373 497q79 0 117 -47.5t27 -145.5l-32 -304l-1 -7q-13 -116 -72.5 -177t-174.5 -61q-48 0 -90 12.5t-65 39.5l111 131q9 -10 21 -17t29 -7q33 0 50 19.5t22 66.5l30 281q4 34 -10 48t-36 14q-23 0 -38.5 -16.5t-18.5 -45.5l-30 -281h-170l33 312q2 21 -6 30t-28 9
l13 129q13 4 34 6.5t46 2.5q47 0 70 -18t30 -44h1q8 12 19.5 24.5t28 22.5t39 16.5t51.5 6.5z" />
    <glyph glyph-name="eogonek.sc" horiz-adv-x="456" 
d="M240 370l-6 -60h172l-13 -119h-172l-7 -63h194l-13 -128q-36 -17 -54.5 -41.5t-18.5 -48.5q0 -14 7.5 -20.5t18.5 -6.5t16.5 2t10.5 6l26 -77q-33 -25 -95 -25q-55 0 -82.5 25t-27.5 68q0 33 17 63t48 55h-231l52 497h363l-13 -127h-192z" />
    <glyph glyph-name="eogonek.ss01" horiz-adv-x="496" 
d="M473 295q0 -32 -3.5 -52t-6.5 -31h-271q3 -88 76 -88q38 0 57.5 14.5t36.5 38.5l98 -82q-20 -32 -50 -57.5t-75 -39.5q-35 -17 -52.5 -41t-17.5 -47q0 -14 7.5 -20.5t18.5 -6.5t16.5 2t10.5 6l26 -77q-33 -25 -95 -25q-55 0 -82.5 25t-27.5 68q0 30 14 57.5t39 50.5
q-81 13 -125.5 69.5t-44.5 147.5q0 67 18.5 120.5t52 91t81.5 58t106 20.5q94 0 143.5 -52.5t49.5 -149.5zM314 297q4 32 -8 50t-38 18q-30 0 -46 -18t-23 -50h115z" />
    <glyph glyph-name="eth.sc" horiz-adv-x="582" 
d="M282 497q59 0 109.5 -11t87.5 -36.5t58.5 -67.5t21.5 -104q0 -81 -26.5 -135t-70.5 -85.5t-101 -44.5t-117 -13h-190l20 191h-52l11 116h53l20 190h176zM268 133q31 0 52.5 11t34.5 29.5t19 42.5t6 50q0 18 -4 36t-14 31.5t-27 22t-43 8.5h-28l-6 -57h74l-11 -116h-75
l-6 -58h28z" />
    <glyph glyph-name="exclam.sc" horiz-adv-x="258" 
d="M71 497h174l-57 -326h-133zM100 -22q-32 0 -54 22t-22 53q0 18 7.5 34.5t20.5 29t30 19.5t35 7q31 0 52.5 -22t21.5 -54q0 -18 -7.5 -34t-20.5 -28.5t-29.5 -19.5t-33.5 -7z" />
    <glyph glyph-name="exclamdown.sc" horiz-adv-x="265" 
d="M165 510q32 0 54 -22t22 -53q0 -18 -7.5 -34.5t-20.5 -29t-30 -19.5t-35 -7q-31 0 -52.5 22t-21.5 54q0 18 8 34t20.5 28.5t29 19.5t33.5 7zM194 -9h-174l57 326h133z" />
    <glyph glyph-name="f.sc" horiz-adv-x="444" 
d="M82 497h362l-13 -130h-191l-10 -92h159l-13 -124h-159l-16 -151h-171z" />
    <glyph glyph-name="fi.sc" horiz-adv-x="725" 
d="M82 497h362l-13 -130h-191l-10 -92h159l-13 -124h-159l-16 -151h-171zM526 497h171l-52 -497h-171z" />
    <glyph glyph-name="five.dnom" horiz-adv-x="369" 
d="M136 -6q-99 0 -142 49l68 79q16 -14 35.5 -24t50.5 -10q29 0 43 12.5t14 33.5q0 15 -9 24t-29 9t-36.5 -7.5t-24.5 -15.5h-92l25 237h275l-9 -88h-184l-8 -70q17 12 39.5 19.5t54.5 7.5q52 0 80 -25.5t28 -77.5q0 -72 -47.5 -112.5t-131.5 -40.5z" />
    <glyph glyph-name="five.numr" horiz-adv-x="369" 
d="M135 316q-99 0 -142 49l68 79q16 -14 35.5 -24t50.5 -10q29 0 43 12.5t14 33.5q0 15 -9 24t-29 9t-36.5 -7.5t-24.5 -15.5h-92l25 237h275l-9 -88h-184l-8 -70q17 12 39.5 19.5t54.5 7.5q52 0 80 -25.5t28 -77.5q0 -72 -47.5 -112.5t-131.5 -40.5z" />
    <glyph glyph-name="five.osf" horiz-adv-x="547" 
d="M237 -201q-100 0 -161 42t-81 105l151 87q23 -47 47.5 -63.5t55.5 -16.5q35 0 59 22.5t24 72.5q0 38 -17.5 54t-43.5 16q-27 0 -47 -13.5t-33 -32.5h-166l44 425h447l-16 -154h-294l-14 -132q24 28 59.5 44t86.5 16q83 0 126.5 -51.5t43.5 -145.5q0 -66 -20 -117t-56 -86
t-85.5 -53.5t-109.5 -18.5z" />
    <glyph glyph-name="five.sc" horiz-adv-x="514" 
d="M226 -14q-81 0 -139 19t-85 48l82 126q46 -31 80.5 -41.5t77.5 -10.5q40 0 54 12.5t14 31.5q0 15 -10 24.5t-31 9.5q-19 0 -35 -4t-33 -9h-154l32 305h403l-14 -133h-262l-7 -71q28 14 59.5 24t81.5 10q66 0 103.5 -35.5t37.5 -103.5q0 -105 -66 -153.5t-189 -48.5z" />
    <glyph glyph-name="five.sinf" horiz-adv-x="360" 
d="M135 -139q-99 0 -142 49l68 79q16 -14 35.5 -24t50.5 -10q29 0 43 12.5t14 33.5q0 15 -9 24t-29 9t-36.5 -7.5t-24.5 -15.5h-92l25 237h275l-9 -88h-184l-8 -70q17 12 39.5 19.5t54.5 7.5q52 0 80 -25.5t28 -77.5q0 -72 -47.5 -112.5t-131.5 -40.5z" />
    <glyph glyph-name="five.sups" horiz-adv-x="369" 
d="M135 381q-99 0 -142 49l68 79q16 -14 35.5 -24t50.5 -10q29 0 43 12.5t14 33.5q0 15 -9 24t-29 9t-36.5 -7.5t-24.5 -15.5h-92l25 237h275l-9 -88h-184l-8 -70q17 12 39.5 19.5t54.5 7.5q52 0 80 -25.5t28 -77.5q0 -72 -47.5 -112.5t-131.5 -40.5z" />
    <glyph glyph-name="fiveeighths.alt" horiz-adv-x="625" 
d="M150 334q-32 0 -58.5 10.5t-42.5 27.5l44 60q17 -11 31 -17t34 -6q34 0 34 27q0 19 -21 19q-22 0 -38 -13h-71l18 168h207l-7 -69h-131l-4 -38q10 6 26 9t36 3q38 0 56 -18.5t18 -52.5q0 -47 -31 -78.5t-100 -31.5zM475 599h109l-416 -501h-110zM462 75q-55 0 -85.5 17
t-30.5 52q0 20 13.5 40.5t40.5 28.5q-11 8 -19.5 20.5t-8.5 33.5q0 39 33 62.5t86 23.5q47 0 74.5 -17t27.5 -48q0 -26 -12.5 -41t-29.5 -21q21 -8 31 -23.5t10 -36.5q0 -43 -35 -67t-95 -24zM493 247q8 5 12 12t4 15q0 11 -7.5 16t-16.5 5q-11 0 -20 -6t-9 -20
q0 -16 17 -19zM469 133q40 0 40 28q0 18 -20 21l-31 5q-25 -7 -25 -31q0 -23 36 -23z" />
    <glyph glyph-name="fl.sc" horiz-adv-x="880" 
d="M82 497h362l-13 -130h-191l-10 -92h159l-13 -124h-159l-16 -151h-171zM526 497h171l-36 -343h192l-16 -154h-363z" />
    <glyph glyph-name="four.dnom" horiz-adv-x="385" 
d="M163 73h-177l8 77l131 232h119l-122 -212h63l8 73h102l-8 -73h49l-10 -97h-49l-7 -73h-114z" />
    <glyph glyph-name="four.numr" horiz-adv-x="385" 
d="M163 391h-177l8 77l131 232h119l-122 -212h63l8 73h102l-8 -73h49l-10 -97h-49l-7 -73h-114z" />
    <glyph glyph-name="four.osf" horiz-adv-x="596" 
d="M568 136l-14 -137h-95l-19 -179h-173l19 179h-294l14 131l290 370h216l-39 -364h95zM302 136l20 184l-141 -184h121z" />
    <glyph glyph-name="four.sc" horiz-adv-x="501" 
d="M226 79h-224l14 128l212 290h174l-211 -290h64l9 86h148l-9 -86h76l-14 -128h-76l-8 -79h-163z" />
    <glyph glyph-name="four.sinf" horiz-adv-x="375" 
d="M163 -64h-177l8 77l131 232h119l-122 -212h63l8 73h102l-8 -73h49l-10 -97h-49l-7 -73h-114z" />
    <glyph glyph-name="four.sups" horiz-adv-x="385" 
d="M163 456h-177l8 77l131 232h119l-122 -212h63l8 73h102l-8 -73h49l-10 -97h-49l-7 -73h-114z" />
    <glyph glyph-name="g.sc" horiz-adv-x="554" 
d="M266 -14q-121 0 -181 60.5t-60 169.5q0 69 20.5 123.5t58.5 93t92.5 58.5t123.5 20q45 0 83 -10t65 -29.5t42 -48t15 -66.5q0 -14 -2 -25.5t-6 -25.5h-165q2 5 2.5 8t0.5 10q0 17 -11.5 28t-41.5 11q-50 0 -77.5 -34.5t-27.5 -100.5q0 -48 22.5 -74t70.5 -26q21 0 39.5 2
t32.5 8l3 33h-73l10 99h219l-23 -221q-28 -21 -85.5 -42t-146.5 -21z" />
    <glyph glyph-name="g.ss01" horiz-adv-x="514" 
d="M193 -240q-112 0 -163.5 30.5t-51.5 86.5q0 70 70 106q-22 17 -31.5 38t-9.5 47q0 49 25 75.5t62 40.5q-17 21 -26 47.5t-9 62.5q0 47 17.5 84.5t48 63.5t73.5 39.5t94 13.5h19t24 -2q1 0 13.5 3.5t27.5 14t29 31t18 53.5l135 -27q-5 -51 -39 -84.5t-88 -38.5
q25 -24 38 -55.5t13 -65.5q0 -103 -56 -156t-162 -53q-26 0 -44.5 2.5t-35.5 7.5q-17 -1 -26 -8.5t-9 -18.5q0 -24 31 -24h150q70 0 115 -32t45 -97q0 -32 -10.5 -64.5t-42.5 -59.5t-90.5 -44t-153.5 -17zM268 237q32 0 48.5 19.5t16.5 50.5q0 27 -14 43.5t-40 16.5
q-31 0 -48.5 -20t-17.5 -51q0 -27 14.5 -43t40.5 -16zM214 -127q65 0 94 10t29 35q0 15 -10.5 22.5t-37.5 7.5l-108 -1q-27 0 -40 -11.5t-13 -26.5q0 -20 17.5 -28t68.5 -8z" />
    <glyph glyph-name="gbreve.sc" horiz-adv-x="554" 
d="M313 569q-51 0 -81.5 15.5t-46.5 41t-19.5 57.5t-0.5 64h123q-3 -30 6 -43.5t32 -13.5t34.5 13.5t14.5 43.5h121q-3 -32 -13.5 -64t-31.5 -57.5t-54.5 -41t-83.5 -15.5zM266 -14q-121 0 -181 60.5t-60 169.5q0 69 20.5 123.5t58.5 93t92.5 58.5t123.5 20q45 0 83 -10
t65 -29.5t42 -48t15 -66.5q0 -14 -2 -25.5t-6 -25.5h-165q2 5 2.5 8t0.5 10q0 17 -11.5 28t-41.5 11q-50 0 -77.5 -34.5t-27.5 -100.5q0 -48 22.5 -74t70.5 -26q21 0 39.5 2t32.5 8l3 33h-73l10 99h219l-23 -221q-28 -21 -85.5 -42t-146.5 -21z" />
    <glyph glyph-name="gbreve.ss01" horiz-adv-x="514" 
d="M282 554q-51 0 -81.5 15.5t-46.5 41t-19.5 57.5t-0.5 64h123q-3 -30 6 -43.5t32 -13.5t34.5 13.5t14.5 43.5h121q-3 -32 -13.5 -64t-31.5 -57.5t-54.5 -41t-83.5 -15.5zM193 -240q-112 0 -163.5 30.5t-51.5 86.5q0 70 70 106q-22 17 -31.5 38t-9.5 47q0 49 25 75.5
t62 40.5q-17 21 -26 47.5t-9 62.5q0 47 17.5 84.5t48 63.5t73.5 39.5t94 13.5h19t24 -2q1 0 13.5 3.5t27.5 14t29 31t18 53.5l135 -27q-5 -51 -39 -84.5t-88 -38.5q25 -24 38 -55.5t13 -65.5q0 -103 -56 -156t-162 -53q-26 0 -44.5 2.5t-35.5 7.5q-17 -1 -26 -8.5t-9 -18.5
q0 -24 31 -24h150q70 0 115 -32t45 -97q0 -32 -10.5 -64.5t-42.5 -59.5t-90.5 -44t-153.5 -17zM268 237q32 0 48.5 19.5t16.5 50.5q0 27 -14 43.5t-40 16.5q-31 0 -48.5 -20t-17.5 -51q0 -27 14.5 -43t40.5 -16zM214 -127q65 0 94 10t29 35q0 15 -10.5 22.5t-37.5 7.5
l-108 -1q-27 0 -40 -11.5t-13 -26.5q0 -20 17.5 -28t68.5 -8z" />
    <glyph glyph-name="gcaron.sc" horiz-adv-x="554" 
d="M154 756h145l23 -90l44 90h145l-108 -201h-183zM266 -14q-121 0 -181 60.5t-60 169.5q0 69 20.5 123.5t58.5 93t92.5 58.5t123.5 20q45 0 83 -10t65 -29.5t42 -48t15 -66.5q0 -14 -2 -25.5t-6 -25.5h-165q2 5 2.5 8t0.5 10q0 17 -11.5 28t-41.5 11q-50 0 -77.5 -34.5
t-27.5 -100.5q0 -48 22.5 -74t70.5 -26q21 0 39.5 2t32.5 8l3 33h-73l10 99h219l-23 -221q-28 -21 -85.5 -42t-146.5 -21z" />
    <glyph glyph-name="gcaron.ss01" horiz-adv-x="514" 
d="M123 741h145l23 -90l44 90h145l-108 -201h-183zM193 -240q-112 0 -163.5 30.5t-51.5 86.5q0 70 70 106q-22 17 -31.5 38t-9.5 47q0 49 25 75.5t62 40.5q-17 21 -26 47.5t-9 62.5q0 47 17.5 84.5t48 63.5t73.5 39.5t94 13.5h19t24 -2q1 0 13.5 3.5t27.5 14t29 31t18 53.5
l135 -27q-5 -51 -39 -84.5t-88 -38.5q25 -24 38 -55.5t13 -65.5q0 -103 -56 -156t-162 -53q-26 0 -44.5 2.5t-35.5 7.5q-17 -1 -26 -8.5t-9 -18.5q0 -24 31 -24h150q70 0 115 -32t45 -97q0 -32 -10.5 -64.5t-42.5 -59.5t-90.5 -44t-153.5 -17zM268 237q32 0 48.5 19.5
t16.5 50.5q0 27 -14 43.5t-40 16.5q-31 0 -48.5 -20t-17.5 -51q0 -27 14.5 -43t40.5 -16zM214 -127q65 0 94 10t29 35q0 15 -10.5 22.5t-37.5 7.5l-108 -1q-27 0 -40 -11.5t-13 -26.5q0 -20 17.5 -28t68.5 -8z" />
    <glyph glyph-name="gcircumflex.sc" horiz-adv-x="554" 
d="M241 756h182l67 -201h-145l-25 90l-42 -90h-145zM266 -14q-121 0 -181 60.5t-60 169.5q0 69 20.5 123.5t58.5 93t92.5 58.5t123.5 20q45 0 83 -10t65 -29.5t42 -48t15 -66.5q0 -14 -2 -25.5t-6 -25.5h-165q2 5 2.5 8t0.5 10q0 17 -11.5 28t-41.5 11q-50 0 -77.5 -34.5
t-27.5 -100.5q0 -48 22.5 -74t70.5 -26q21 0 39.5 2t32.5 8l3 33h-73l10 99h219l-23 -221q-28 -21 -85.5 -42t-146.5 -21z" />
    <glyph glyph-name="gcircumflex.ss01" horiz-adv-x="514" 
d="M558 568q-5 -51 -39 -84.5t-88 -38.5q25 -24 38 -55.5t13 -65.5q0 -103 -56 -156t-162 -53q-26 0 -44.5 2.5t-35.5 7.5q-17 -1 -26 -8.5t-9 -18.5q0 -24 31 -24h150q70 0 115 -32t45 -97q0 -32 -10.5 -64.5t-42.5 -59.5t-90.5 -44t-153.5 -17q-112 0 -163.5 30.5
t-51.5 86.5q0 70 70 106q-22 17 -31.5 38t-9.5 47q0 49 25 75.5t62 40.5q-17 21 -26 47.5t-9 62.5q0 47 17.5 84.5t48 63.5t73.5 39.5t94 13.5h19t24 -2l7.5 1.5t18 7t22.5 14.5t21 24h-90l-25 90l-42 -90h-145l108 201h182l50 -150zM268 237q32 0 48.5 19.5t16.5 50.5
q0 27 -14 43.5t-40 16.5q-31 0 -48.5 -20t-17.5 -51q0 -27 14.5 -43t40.5 -16zM181 -53q-27 0 -40 -11.5t-13 -26.5q0 -20 17.5 -28t68.5 -8q65 0 94 10t29 35q0 15 -10.5 22.5t-37.5 7.5z" />
    <glyph glyph-name="gdotaccent.sc" horiz-adv-x="554" 
d="M312 555q-45 0 -69 27t-24 65q0 45 30 78t83 33q45 0 67.5 -27.5t22.5 -65.5q0 -45 -29.5 -77.5t-80.5 -32.5zM266 -14q-121 0 -181 60.5t-60 169.5q0 69 20.5 123.5t58.5 93t92.5 58.5t123.5 20q45 0 83 -10t65 -29.5t42 -48t15 -66.5q0 -14 -2 -25.5t-6 -25.5h-165
q2 5 2.5 8t0.5 10q0 17 -11.5 28t-41.5 11q-50 0 -77.5 -34.5t-27.5 -100.5q0 -48 22.5 -74t70.5 -26q21 0 39.5 2t32.5 8l3 33h-73l10 99h219l-23 -221q-28 -21 -85.5 -42t-146.5 -21z" />
    <glyph glyph-name="gdotaccent.ss01" horiz-adv-x="514" 
d="M281 540q-45 0 -69 27t-24 65q0 45 30 78t83 33q45 0 67.5 -27.5t22.5 -65.5q0 -45 -29.5 -77.5t-80.5 -32.5zM193 -240q-112 0 -163.5 30.5t-51.5 86.5q0 70 70 106q-22 17 -31.5 38t-9.5 47q0 49 25 75.5t62 40.5q-17 21 -26 47.5t-9 62.5q0 47 17.5 84.5t48 63.5
t73.5 39.5t94 13.5h19t24 -2q1 0 13.5 3.5t27.5 14t29 31t18 53.5l135 -27q-5 -51 -39 -84.5t-88 -38.5q25 -24 38 -55.5t13 -65.5q0 -103 -56 -156t-162 -53q-26 0 -44.5 2.5t-35.5 7.5q-17 -1 -26 -8.5t-9 -18.5q0 -24 31 -24h150q70 0 115 -32t45 -97q0 -32 -10.5 -64.5
t-42.5 -59.5t-90.5 -44t-153.5 -17zM268 237q32 0 48.5 19.5t16.5 50.5q0 27 -14 43.5t-40 16.5q-31 0 -48.5 -20t-17.5 -51q0 -27 14.5 -43t40.5 -16zM214 -127q65 0 94 10t29 35q0 15 -10.5 22.5t-37.5 7.5l-108 -1q-27 0 -40 -11.5t-13 -26.5q0 -20 17.5 -28t68.5 -8z
" />
    <glyph glyph-name="germandbls.sc" horiz-adv-x="592" 
d="M444 280q65 -11 89.5 -46.5t24.5 -87.5q0 -43 -16 -73.5t-44.5 -49.5t-67 -28t-83.5 -9q-40 0 -66.5 6t-46.5 17l57 122q15 -6 27.5 -9t27.5 -3q18 0 28.5 6.5t10.5 19.5q0 26 -43 26q-28 0 -59 -7l3 114l66 79q-6 1 -12 1h-13q-92 0 -102 -98l-27 -260h-174l28 278
q7 66 32 111t64 72t89.5 38.5t108.5 11.5t110.5 -13.5t87.5 -40.5l-7 -68z" />
    <glyph glyph-name="grave.case" horiz-adv-x="278" 
d="M71 912h197l59 -171h-140z" />
    <glyph glyph-name="gravecomb.case" 
d="M-226 912h197l59 -171h-140z" />
    <glyph glyph-name="h.sc" horiz-adv-x="583" 
d="M82 497h171l-19 -183h131l19 183h171l-52 -497h-171l18 173h-131l-18 -173h-171z" />
    <glyph glyph-name="h.ss01" horiz-adv-x="536" 
d="M99 726h170l-28 -271q17 17 45 29.5t65 12.5q45 0 75 -15t47.5 -41.5t23 -61.5t1.5 -75l-32 -304h-170l30 281q3 30 -10 46t-33 16q-31 0 -44.5 -19.5t-15.5 -38.5l-30 -285h-170z" />
    <glyph glyph-name="hbar.sc" horiz-adv-x="632" 
d="M627 354h-61l-37 -354h-171l19 179h-131l-19 -179h-171l37 354h-60l9 107h62l4 36h171l-4 -36h131l4 36h171l-4 -36h60zM395 354h-131l-3 -34h131z" />
    <glyph glyph-name="hbar.ss01" horiz-adv-x="536" 
d="M351 497q45 0 75 -15t47.5 -41.5t23 -61.5t1.5 -75l-32 -304h-170l30 281q3 30 -10 46t-33 16q-31 0 -44.5 -19.5t-15.5 -38.5l-30 -285h-170l57 544h-49l12 116h49l7 66h170l-7 -66h113l-12 -116h-113l-9 -89q17 17 45 29.5t65 12.5z" />
    <glyph glyph-name="hcircumflex.sc" horiz-adv-x="583" 
d="M257 756h182l67 -201h-145l-25 90l-42 -90h-145zM82 497h171l-19 -183h131l19 183h171l-52 -497h-171l18 173h-131l-18 -173h-171z" />
    <glyph glyph-name="hcircumflex.ss01" horiz-adv-x="536" 
d="M114 912h182l70 -171h-145l-27 70l-40 -70h-145zM99 726h170l-28 -271q17 17 45 29.5t65 12.5q45 0 75 -15t47.5 -41.5t23 -61.5t1.5 -75l-32 -304h-170l30 281q3 30 -10 46t-33 16q-31 0 -44.5 -19.5t-15.5 -38.5l-30 -285h-170z" />
    <glyph glyph-name="hungarumlaut.case" horiz-adv-x="487" 
d="M139 912h182l-144 -171h-124zM376 912h182l-144 -171h-125z" />
    <glyph glyph-name="i.loclTRK" horiz-adv-x="291" 
d="M170 540q-45 0 -69 27t-24 65q0 45 30 78t83 33q45 0 67.5 -27.5t22.5 -65.5q0 -45 -29.5 -77.5t-80.5 -32.5zM169 -5q-79 0 -109.5 36t-22.5 115l35 336h171l-31 -295q-4 -32 3 -43t39 -11l-14 -129q-10 -3 -21 -5q-10 -1 -22.5 -2.5t-27.5 -1.5z" />
    <glyph glyph-name="i.loclTRK.ss01" horiz-adv-x="266" 
d="M166 540q-45 0 -69 27t-24 65q0 45 30 78t83 33q45 0 67.5 -27.5t22.5 -65.5q0 -45 -29.5 -77.5t-80.5 -32.5zM74 482h170l-51 -482h-170z" />
    <glyph glyph-name="i.sc" horiz-adv-x="281" 
d="M82 497h171l-52 -497h-171z" />
    <glyph glyph-name="i.sc.loclTRK" horiz-adv-x="281" 
d="M175 555q-45 0 -69 27t-24 65q0 45 30 78t83 33q45 0 67.5 -27.5t22.5 -65.5q0 -45 -29.5 -77.5t-80.5 -32.5zM82 497h171l-52 -497h-171z" />
    <glyph glyph-name="i.ss01" horiz-adv-x="266" 
d="M166 540q-45 0 -69 27t-24 65q0 45 30 78t83 33q45 0 67.5 -27.5t22.5 -65.5q0 -45 -29.5 -77.5t-80.5 -32.5zM74 482h170l-51 -482h-170z" />
    <glyph glyph-name="iacute.sc" horiz-adv-x="281" 
d="M187 762h197l-157 -211h-140zM82 497h171l-52 -497h-171z" />
    <glyph glyph-name="iacute.ss01" horiz-adv-x="266" 
d="M178 747h197l-157 -211h-140zM74 482h170l-51 -482h-170z" />
    <glyph glyph-name="ibreve.sc" horiz-adv-x="281" 
d="M176 569q-51 0 -81.5 15.5t-46.5 41t-19.5 57.5t-0.5 64h123q-3 -30 6 -43.5t32 -13.5t34.5 13.5t14.5 43.5h121q-3 -32 -13.5 -64t-31.5 -57.5t-54.5 -41t-83.5 -15.5zM82 497h171l-52 -497h-171z" />
    <glyph glyph-name="ibreve.ss01" horiz-adv-x="266" 
d="M167 554q-51 0 -81.5 15.5t-46.5 41t-19.5 57.5t-0.5 64h123q-3 -30 6 -43.5t32 -13.5t34.5 13.5t14.5 43.5h121q-3 -32 -13.5 -64t-31.5 -57.5t-54.5 -41t-83.5 -15.5zM74 482h170l-51 -482h-170z" />
    <glyph glyph-name="icircumflex.sc" horiz-adv-x="281" 
d="M104 756h182l67 -201h-145l-25 90l-42 -90h-145zM82 497h171l-52 -497h-171z" />
    <glyph glyph-name="icircumflex.ss01" horiz-adv-x="266" 
d="M95 741h182l67 -201h-145l-25 90l-42 -90h-145zM74 482h170l-51 -482h-170z" />
    <glyph glyph-name="idieresis.sc" horiz-adv-x="281" 
d="M57 555q-44 0 -66.5 25.5t-22.5 62.5q0 43 28.5 74.5t79.5 31.5q42 0 64 -26.5t22 -62.5q0 -43 -28.5 -74t-76.5 -31zM295 555q-44 0 -66.5 25.5t-22.5 62.5q0 43 28.5 74.5t79.5 31.5q42 0 64 -26.5t22 -62.5q0 -43 -28.5 -74t-76.5 -31zM82 497h171l-52 -497h-171z" />
    <glyph glyph-name="idieresis.ss01" horiz-adv-x="266" 
d="M48 540q-44 0 -66.5 25.5t-22.5 62.5q0 43 28.5 74.5t79.5 31.5q42 0 64 -26.5t22 -62.5q0 -43 -28.5 -74t-76.5 -31zM286 540q-44 0 -66.5 25.5t-22.5 62.5q0 43 28.5 74.5t79.5 31.5q42 0 64 -26.5t22 -62.5q0 -43 -28.5 -74t-76.5 -31zM74 482h170l-51 -482h-170z" />
    <glyph glyph-name="igrave.sc" horiz-adv-x="281" 
d="M-4 762h194l54 -211h-139zM82 497h171l-52 -497h-171z" />
    <glyph glyph-name="igrave.ss01" horiz-adv-x="266" 
d="M-13 747h194l54 -211h-139zM74 482h170l-51 -482h-170z" />
    <glyph glyph-name="ij.sc" horiz-adv-x="693" 
d="M82 497h171l-52 -497h-171zM415 -14q-58 0 -98 16.5t-57 44.5l105 109q11 -14 20.5 -21t29.5 -7q23 0 35.5 14.5t15.5 40.5l33 314h172l-34 -320q-11 -98 -67.5 -144.5t-154.5 -46.5z" />
    <glyph glyph-name="ij.ss01" horiz-adv-x="536" 
d="M166 540q-45 0 -69 27t-24 65q0 45 30 78t83 33q45 0 67.5 -27.5t22.5 -65.5q0 -45 -29.5 -77.5t-80.5 -32.5zM436 540q-45 0 -69 27t-24 65q0 45 30 78t83 33q45 0 67.5 -27.5t22.5 -65.5q0 -45 -29.5 -77.5t-80.5 -32.5zM74 482h170l-51 -482h-170zM229 -247
q-27 0 -45.5 5.5t-29.5 11.5q-14 7 -22 17l63 126q3 -2 8 -4q4 -2 9.5 -3t13.5 -1q31 0 46.5 24t19.5 62l52 491h169l-52 -499q-5 -50 -21 -92t-44.5 -73t-69.5 -48t-97 -17z" />
    <glyph glyph-name="ijacute" horiz-adv-x="552" 
d="M178 747h197l-157 -211h-140zM478 747h197l-157 -211h-140zM169 -5q-79 0 -109.5 36t-22.5 115l35 336h171l-31 -295q-4 -32 3 -43t39 -11l-14 -129q-10 -3 -21 -5q-10 -1 -22.5 -2.5t-27.5 -1.5zM254 -247q-27 0 -45.5 5.5t-29.5 11.5q-14 7 -22 17l63 126q3 -2 8 -4
q4 -2 9.5 -3t13.5 -1q31 0 46.5 24t19.5 62l52 491h169l-52 -499q-5 -50 -21 -92t-44.5 -73t-69.5 -48t-97 -17z" />
    <glyph glyph-name="imacron.sc" horiz-adv-x="281" 
d="M35 717h312l-13 -124h-312zM82 497h171l-52 -497h-171z" />
    <glyph glyph-name="imacron.ss01" horiz-adv-x="266" 
d="M26 702h312l-13 -124h-312zM74 482h170l-51 -482h-170z" />
    <glyph glyph-name="iogonek.sc" horiz-adv-x="281" 
d="M153 -117q11 0 16.5 2t10.5 6l26 -77q-33 -25 -95 -25q-55 0 -82.5 25t-27.5 68q0 33 17 63t48 55h-36l52 497h171l-52 -497h-1q-36 -17 -54.5 -41.5t-18.5 -48.5q0 -14 7.5 -20.5t18.5 -6.5z" />
    <glyph glyph-name="iogonek.ss01" horiz-adv-x="266" 
d="M186 743q45 0 67.5 -27.5t22.5 -65.5q0 -45 -29.5 -77.5t-80.5 -32.5q-45 0 -69 27t-24 65q0 45 30 78t83 33zM74 482h170l-51 -482h-9q-36 -17 -54.5 -41.5t-18.5 -48.5q0 -14 7.5 -20.5t18.5 -6.5t16.5 2t10.5 6l26 -77q-33 -25 -95 -25q-55 0 -82.5 25t-27.5 68
q0 33 17 63t48 55h-27z" />
    <glyph glyph-name="itilde.sc" horiz-adv-x="281" 
d="M10 555q-5 8 -8 23.5t-3 30.5q0 54 33 87t84 33q20 0 37.5 -6.5t32.5 -15t27.5 -15t23.5 -6.5q10 0 18.5 6t8.5 18q0 5 -1 11t-4 9h96q6 -11 8.5 -26t2.5 -27q0 -55 -32.5 -88t-82.5 -33q-22 0 -40 6.5t-32.5 15t-25.5 15t-20 6.5q-13 0 -21 -7t-8 -18q0 -5 1.5 -11
t3.5 -8h-99zM82 497h171l-52 -497h-171z" />
    <glyph glyph-name="itilde.ss01" horiz-adv-x="266" 
d="M1 540q-5 8 -8 23.5t-3 30.5q0 54 33 87t84 33q20 0 37.5 -6.5t32.5 -15t27.5 -15t23.5 -6.5q10 0 18.5 6t8.5 18q0 5 -1 11t-4 9h96q6 -11 8.5 -26t2.5 -27q0 -55 -32.5 -88t-82.5 -33q-22 0 -40 6.5t-32.5 15t-25.5 15t-20 6.5q-13 0 -21 -7t-8 -18q0 -5 1.5 -11
t3.5 -8h-99zM74 482h170l-51 -482h-170z" />
    <glyph glyph-name="j.sc" horiz-adv-x="412" 
d="M134 -14q-58 0 -98 16.5t-57 44.5l105 109q11 -14 20.5 -21t29.5 -7q23 0 35.5 14.5t15.5 40.5l33 314h172l-34 -320q-11 -98 -67.5 -144.5t-154.5 -46.5z" />
    <glyph glyph-name="jcircumflex.sc" horiz-adv-x="412" 
d="M227 756h182l67 -201h-145l-25 90l-42 -90h-145zM134 -14q-58 0 -98 16.5t-57 44.5l105 109q11 -14 20.5 -21t29.5 -7q23 0 35.5 14.5t15.5 40.5l33 314h172l-34 -320q-11 -98 -67.5 -144.5t-154.5 -46.5z" />
    <glyph glyph-name="k.sc" horiz-adv-x="563" 
d="M414 240q14 -13 22.5 -31.5t18 -35.5t21.5 -28.5t33 -11.5h16l-14 -134q-27 -7 -69 -7q-40 0 -65 13.5t-41 33.5t-26 43t-20 43t-23 33.5t-34 13.5h-14l-18 -172h-171l52 497h171l-19 -180h18q23 0 43 8t36 28t27 55t17 89h165q-9 -94 -44 -156.5t-82 -100.5z" />
    <glyph glyph-name="k.ss01" horiz-adv-x="534" 
d="M413 203q23 -40 39.5 -54.5t46.5 -14.5h11l-14 -131q-13 -5 -32.5 -7t-36.5 -2q-44 0 -69.5 18t-42.5 50l-66 128l-38 -37l-18 -153h-170l76 726h170l-42 -386l138 142h187l-191 -184z" />
    <glyph glyph-name="kgreenlandic.sc" horiz-adv-x="563" 
d="M414 240q14 -13 22.5 -31.5t18 -35.5t21.5 -28.5t33 -11.5h16l-14 -134q-27 -7 -69 -7q-40 0 -65 13.5t-41 33.5t-26 43t-20 43t-23 33.5t-34 13.5h-14l-18 -172h-171l52 497h171l-19 -180h18q23 0 43 8t36 28t27 55t17 89h165q-9 -94 -44 -156.5t-82 -100.5z" />
    <glyph glyph-name="kgreenlandic.ss01" horiz-adv-x="534" 
d="M413 203q23 -40 39.5 -54.5t46.5 -14.5h11l-14 -131q-13 -5 -32.5 -7t-36.5 -2q-44 0 -69.5 18t-42.5 50l-64 124l-41 -40l-17 -146h-170l49 482h170l-16 -149l139 149h187l-190 -187z" />
    <glyph glyph-name="l.sc" horiz-adv-x="436" 
d="M82 497h171l-36 -343h192l-16 -154h-363z" />
    <glyph glyph-name="lacute.sc" horiz-adv-x="436" 
d="M184 762h197l-157 -211h-140zM82 497h171l-36 -343h192l-16 -154h-363z" />
    <glyph glyph-name="lcaron.sc" horiz-adv-x="475" 
d="M320 329q36 12 46 28t12 30q-28 7 -41.5 26t-13.5 45q0 35 24 59.5t64 24.5q36 0 58.5 -22.5t22.5 -64.5q0 -65 -39.5 -116t-114.5 -74zM82 497h171l-36 -343h192l-16 -154h-363z" />
    <glyph glyph-name="ldot.sc" horiz-adv-x="470" 
d="M82 497h171l-36 -343h192l-16 -154h-363zM383 237q-41 0 -65.5 23.5t-24.5 65.5t26.5 72t74.5 30q40 0 64.5 -24.5t24.5 -65.5q0 -42 -25.5 -71.5t-74.5 -29.5z" />
    <glyph glyph-name="lslash.sc" horiz-adv-x="505" 
d="M465 154l-16 -154h-363l17 166l-47 -26l-50 106l112 63l20 188h171l-9 -85l59 33l54 -107l-128 -71l-12 -113h192z" />
    <glyph glyph-name="m.sc" horiz-adv-x="657" 
d="M82 497h181l68 -248l122 248h176l-52 -497h-149l34 286l-8 -19l-99 -206h-95l-53 209l-3 16l-28 -286h-146z" />
    <glyph glyph-name="m.ss01" horiz-adv-x="822" 
d="M75 312q2 21 -6 30t-28 9l13 129q13 4 34.5 6.5t42.5 2.5q39 0 66 -15t37 -47h1q20 32 56.5 51t77.5 19q47 0 81 -19t52 -58q9 14 21 27.5t29 24.5t39 18t50 7q78 0 115.5 -50.5t27.5 -142.5l-32 -304h-170l30 282q3 32 -9.5 46.5t-32.5 14.5q-23 0 -37.5 -16t-17.5 -45
l-30 -282h-170l30 283q3 31 -10 45.5t-36 14.5t-38.5 -16.5t-18.5 -43.5l-30 -283h-170z" />
    <glyph glyph-name="macron.case" horiz-adv-x="333" 
d="M68 882h332l-13 -119h-332z" />
    <glyph glyph-name="n.sc" horiz-adv-x="578" 
d="M82 497h154l116 -225l16 -35l25 260h157l-52 -497h-154l-121 234l-10 21l-24 -255h-159z" />
    <glyph glyph-name="n.ss01" horiz-adv-x="555" 
d="M75 312q2 21 -6 30t-28 9l13 129q13 4 34 6.5t46 2.5q47 0 70 -18t30 -44h1q8 12 19.5 24.5t28 22.5t39 16.5t51.5 6.5q79 0 117 -47.5t27 -145.5l-32 -304h-170l30 281q4 34 -10 48t-36 14q-23 0 -38.5 -16.5t-18.5 -45.5l-30 -281h-170z" />
    <glyph glyph-name="nacute.sc" horiz-adv-x="578" 
d="M334 762h197l-157 -211h-140zM82 497h154l116 -225l16 -35l25 260h157l-52 -497h-154l-121 234l-10 21l-24 -255h-159z" />
    <glyph glyph-name="nacute.ss01" horiz-adv-x="555" 
d="M323 747h197l-157 -211h-140zM75 312q2 21 -6 30t-28 9l13 129q13 4 34 6.5t46 2.5q47 0 70 -18t30 -44h1q8 12 19.5 24.5t28 22.5t39 16.5t51.5 6.5q79 0 117 -47.5t27 -145.5l-32 -304h-170l30 281q4 34 -10 48t-36 14q-23 0 -38.5 -16.5t-18.5 -45.5l-30 -281h-170z
" />
    <glyph glyph-name="napostrophe.sc" horiz-adv-x="674" 
d="M25 551q17 7 30 15q12 8 21 17t9 19q-37 4 -55 23.5t-18 51.5q0 36 23 57.5t55 21.5t58 -21.5t26 -70.5q0 -48 -16 -80.5t-36.5 -52t-38.5 -28t-23 -9.5zM162 497h154l116 -225l16 -35l25 260h157l-52 -497h-154l-121 234l-10 21l-24 -255h-159z" />
    <glyph glyph-name="napostrophe.ss01" horiz-adv-x="676" 
d="M31 498q35 15 59.5 37.5t26.5 42.5q-44 2 -64 27t-20 63q0 48 30 74.5t74 26.5q42 0 67.5 -27t25.5 -78q0 -75 -36.5 -133.5t-124.5 -96.5zM196 312q2 21 -6 30t-28 9l13 129q13 4 34 6.5t46 2.5q47 0 70 -18t30 -44h1q8 12 19.5 24.5t28 22.5t39 16.5t51.5 6.5
q79 0 117 -47.5t27 -145.5l-32 -304h-170l30 281q4 34 -10 48t-36 14q-23 0 -38.5 -16.5t-18.5 -45.5l-30 -281h-170z" />
    <glyph glyph-name="ncaron.sc" horiz-adv-x="578" 
d="M164 756h145l23 -90l44 90h145l-108 -201h-183zM82 497h154l116 -225l16 -35l25 260h157l-52 -497h-154l-121 234l-10 21l-24 -255h-159z" />
    <glyph glyph-name="ncaron.ss01" horiz-adv-x="555" 
d="M153 741h145l23 -90l44 90h145l-108 -201h-183zM75 312q2 21 -6 30t-28 9l13 129q13 4 34 6.5t46 2.5q47 0 70 -18t30 -44h1q8 12 19.5 24.5t28 22.5t39 16.5t51.5 6.5q79 0 117 -47.5t27 -145.5l-32 -304h-170l30 281q4 34 -10 48t-36 14q-23 0 -38.5 -16.5t-18.5 -45.5
l-30 -281h-170z" />
    <glyph glyph-name="nine.dnom" horiz-adv-x="385" 
d="M180 393q68 0 110 -42t42 -129q0 -55 -16 -97t-43.5 -71t-64.5 -44t-79 -15q-40 0 -75.5 14t-50.5 38l71 69q11 -16 26.5 -22.5t37.5 -6.5q33 0 57 16.5t32 67.5q-16 -19 -41 -29.5t-53 -10.5q-58 0 -90.5 31t-32.5 82q0 67 46 108t124 41zM155 220q16 0 34 6t38 23
q-6 32 -24 42.5t-38 10.5q-24 0 -38 -12t-14 -32q0 -17 10.5 -27.5t31.5 -10.5z" />
    <glyph glyph-name="nine.numr" horiz-adv-x="385" 
d="M180 713q68 0 110 -42t42 -129q0 -55 -16 -97t-43.5 -71t-64.5 -44t-79 -15q-40 0 -75.5 14t-50.5 38l71 69q11 -16 26.5 -22.5t37.5 -6.5q33 0 57 16.5t32 67.5q-16 -19 -41 -29.5t-53 -10.5q-58 0 -90.5 31t-32.5 82q0 67 46 108t124 41zM155 540q16 0 34 6t38 23
q-6 32 -24 42.5t-38 10.5q-24 0 -38 -12t-14 -32q0 -17 10.5 -27.5t31.5 -10.5z" />
    <glyph glyph-name="nine.osf" horiz-adv-x="559" 
d="M291 510q118 0 177.5 -78t59.5 -215q0 -97 -21.5 -174.5t-62.5 -132t-100.5 -83.5t-136.5 -29q-85 0 -138.5 31t-74.5 85l122 97q20 -39 43.5 -53t61.5 -14q48 0 84 37.5t49 128.5q-29 -26 -64.5 -37t-84.5 -11q-84 0 -133 51t-49 141q0 52 16 98.5t49 81.5t83.5 55.5
t119.5 20.5zM258 196q25 0 49 7t52 39q-2 36 -10 59.5t-19.5 37.5t-26 20t-29.5 6q-38 0 -61.5 -24t-23.5 -69q0 -32 16.5 -54t52.5 -22z" />
    <glyph glyph-name="nine.sc" horiz-adv-x="520" 
d="M265 511q118 0 174 -63t56 -173q0 -64 -16.5 -117.5t-51.5 -91.5t-88 -59t-127 -21q-73 0 -124.5 23.5t-71.5 60.5l112 90q20 -27 41.5 -37t53.5 -10q42 0 71.5 23t37.5 87q-23 -18 -55.5 -29t-83.5 -11q-69 0 -112 37.5t-43 108.5q0 38 14 71t42.5 57.5t71 39t99.5 14.5
zM196 334q0 -17 11.5 -28.5t42.5 -11.5q21 0 39 3.5t41 16.5q-8 36 -28.5 49.5t-46.5 13.5t-42.5 -11t-16.5 -32z" />
    <glyph glyph-name="nine.sinf" horiz-adv-x="374" 
d="M180 258q68 0 110 -42t42 -129q0 -55 -16 -97t-43.5 -71t-64.5 -44t-79 -15q-40 0 -75.5 14t-50.5 38l71 69q11 -16 26.5 -22.5t37.5 -6.5q33 0 57 16.5t32 67.5q-16 -19 -41 -29.5t-53 -10.5q-58 0 -90.5 31t-32.5 82q0 67 46 108t124 41zM155 85q16 0 34 6t38 23
q-6 32 -24 42.5t-38 10.5q-24 0 -38 -12t-14 -32q0 -17 10.5 -27.5t31.5 -10.5z" />
    <glyph glyph-name="nine.sups" horiz-adv-x="385" 
d="M180 778q68 0 110 -42t42 -129q0 -55 -16 -97t-43.5 -71t-64.5 -44t-79 -15q-40 0 -75.5 14t-50.5 38l71 69q11 -16 26.5 -22.5t37.5 -6.5q33 0 57 16.5t32 67.5q-16 -19 -41 -29.5t-53 -10.5q-58 0 -90.5 31t-32.5 82q0 67 46 108t124 41zM155 605q16 0 34 6t38 23
q-6 32 -24 42.5t-38 10.5q-24 0 -38 -12t-14 -32q0 -17 10.5 -27.5t31.5 -10.5z" />
    <glyph glyph-name="ntilde.sc" horiz-adv-x="578" 
d="M157 555q-5 8 -8 23.5t-3 30.5q0 54 33 87t84 33q20 0 37.5 -6.5t32.5 -15t27.5 -15t23.5 -6.5q10 0 18.5 6t8.5 18q0 5 -1 11t-4 9h96q6 -11 8.5 -26t2.5 -27q0 -55 -32.5 -88t-82.5 -33q-22 0 -40 6.5t-32.5 15t-25.5 15t-20 6.5q-13 0 -21 -7t-8 -18q0 -5 1.5 -11
t3.5 -8h-99zM82 497h154l116 -225l16 -35l25 260h157l-52 -497h-154l-121 234l-10 21l-24 -255h-159z" />
    <glyph glyph-name="ntilde.ss01" horiz-adv-x="555" 
d="M146 540q-5 8 -8 23.5t-3 30.5q0 54 33 87t84 33q20 0 37.5 -6.5t32.5 -15t27.5 -15t23.5 -6.5q10 0 18.5 6t8.5 18q0 5 -1 11t-4 9h96q6 -11 8.5 -26t2.5 -27q0 -55 -32.5 -88t-82.5 -33q-22 0 -40 6.5t-32.5 15t-25.5 15t-20 6.5q-13 0 -21 -7t-8 -18q0 -5 1.5 -11
t3.5 -8h-99zM75 312q2 21 -6 30t-28 9l13 129q13 4 34 6.5t46 2.5q47 0 70 -18t30 -44h1q8 12 19.5 24.5t28 22.5t39 16.5t51.5 6.5q79 0 117 -47.5t27 -145.5l-32 -304h-170l30 281q4 34 -10 48t-36 14q-23 0 -38.5 -16.5t-18.5 -45.5l-30 -281h-170z" />
    <glyph glyph-name="o.sc" horiz-adv-x="577" 
d="M270 -14q-55 0 -100 15.5t-77.5 45t-50 72.5t-17.5 99q0 69 21.5 123t59.5 92t90.5 58t114.5 20q55 0 99.5 -15.5t76.5 -45t49.5 -73t17.5 -99.5q0 -69 -21 -123t-58.5 -91.5t-90 -57.5t-114.5 -20zM280 128q45 0 73.5 32t28.5 104q0 48 -22 73.5t-61 25.5
q-42 0 -72 -33.5t-30 -102.5q0 -51 22.5 -75t60.5 -24z" />
    <glyph glyph-name="oacute.sc" horiz-adv-x="577" 
d="M335 762h197l-157 -211h-140zM270 -14q-55 0 -100 15.5t-77.5 45t-50 72.5t-17.5 99q0 69 21.5 123t59.5 92t90.5 58t114.5 20q55 0 99.5 -15.5t76.5 -45t49.5 -73t17.5 -99.5q0 -69 -21 -123t-58.5 -91.5t-90 -57.5t-114.5 -20zM280 128q45 0 73.5 32t28.5 104
q0 48 -22 73.5t-61 25.5q-42 0 -72 -33.5t-30 -102.5q0 -51 22.5 -75t60.5 -24z" />
    <glyph glyph-name="obreve.sc" horiz-adv-x="577" 
d="M324 569q-51 0 -81.5 15.5t-46.5 41t-19.5 57.5t-0.5 64h123q-3 -30 6 -43.5t32 -13.5t34.5 13.5t14.5 43.5h121q-3 -32 -13.5 -64t-31.5 -57.5t-54.5 -41t-83.5 -15.5zM270 -14q-55 0 -100 15.5t-77.5 45t-50 72.5t-17.5 99q0 69 21.5 123t59.5 92t90.5 58t114.5 20
q55 0 99.5 -15.5t76.5 -45t49.5 -73t17.5 -99.5q0 -69 -21 -123t-58.5 -91.5t-90 -57.5t-114.5 -20zM280 128q45 0 73.5 32t28.5 104q0 48 -22 73.5t-61 25.5q-42 0 -72 -33.5t-30 -102.5q0 -51 22.5 -75t60.5 -24z" />
    <glyph glyph-name="ocircumflex.sc" horiz-adv-x="577" 
d="M252 756h182l67 -201h-145l-25 90l-42 -90h-145zM270 -14q-55 0 -100 15.5t-77.5 45t-50 72.5t-17.5 99q0 69 21.5 123t59.5 92t90.5 58t114.5 20q55 0 99.5 -15.5t76.5 -45t49.5 -73t17.5 -99.5q0 -69 -21 -123t-58.5 -91.5t-90 -57.5t-114.5 -20zM280 128q45 0 73.5 32
t28.5 104q0 48 -22 73.5t-61 25.5q-42 0 -72 -33.5t-30 -102.5q0 -51 22.5 -75t60.5 -24z" />
    <glyph glyph-name="odieresis.sc" horiz-adv-x="577" 
d="M205 555q-44 0 -66.5 25.5t-22.5 62.5q0 43 28.5 74.5t79.5 31.5q42 0 64 -26.5t22 -62.5q0 -43 -28.5 -74t-76.5 -31zM443 555q-44 0 -66.5 25.5t-22.5 62.5q0 43 28.5 74.5t79.5 31.5q42 0 64 -26.5t22 -62.5q0 -43 -28.5 -74t-76.5 -31zM270 -14q-55 0 -100 15.5
t-77.5 45t-50 72.5t-17.5 99q0 69 21.5 123t59.5 92t90.5 58t114.5 20q55 0 99.5 -15.5t76.5 -45t49.5 -73t17.5 -99.5q0 -69 -21 -123t-58.5 -91.5t-90 -57.5t-114.5 -20zM280 128q45 0 73.5 32t28.5 104q0 48 -22 73.5t-61 25.5q-42 0 -72 -33.5t-30 -102.5
q0 -51 22.5 -75t60.5 -24z" />
    </font>
</defs>
</svg>
