<?xml version="1.0" standalone="no"?>
<!DOCTYPE svg PUBLIC "-//W3C//DTD SVG 1.1//EN" "http://www.w3.org/Graphics/SVG/1.1/DTD/svg11.dtd" >
<svg xmlns="http://www.w3.org/2000/svg" xmlns:xlink="http://www.w3.org/1999/xlink" version="1.1">
<metadata>
Created by FontForge 20170731 at Wed Jul  3 11:38:36 2019
 By Aleksey,,,
Copyright (c) 2017 by Daniel Hernandez. All rights reserved.
</metadata>
<defs>
<font id="AndesNeueAlt2-Medium" horiz-adv-x="0" >
  <font-face 
    font-family="AndesNeue Alt 2 Medium"
    font-weight="500"
    font-stretch="normal"
    units-per-em="1000"
    panose-1="0 0 6 0 0 0 0 0 0 0"
    ascent="750"
    descent="-250"
    x-height="482"
    cap-height="700"
    bbox="-685 -257 1351 995"
    underline-thickness="50"
    underline-position="-150"
    unicode-range="U+000D-FB02"
  />
<missing-glyph horiz-adv-x="530" 
d="M480 730v-730h-430v730h430zM265 408l150 287h-300zM90 657v-584l153 292zM440 73v584l-152 -292zM115 35h300l-150 287z" />
    <glyph glyph-name="fi" unicode="fi" horiz-adv-x="528" 
d="M92 392h-70v90h71v58q0 91 46.5 141.5t128.5 50.5q22 0 39.5 -4.5t28.5 -11.5l-28 -89q-7 4 -15 6t-21 2q-33 0 -52 -21t-19 -64v-68h262v-482h-110v392h-152v-392h-109v392zM408 569q-30 0 -50.5 20.5t-20.5 50.5q0 29 21 49.5t50 20.5t49.5 -20.5t20.5 -49.5
q0 -30 -20.5 -50.5t-49.5 -20.5z" />
    <glyph glyph-name="fl" unicode="fl" horiz-adv-x="536" 
d="M461 128q0 -22 8.5 -33.5t31.5 -11.5v-81q-5 -2 -12 -3t-16 -2t-21 -1q-49 0 -75 28t-26 89v279h-150v-392h-109v392h-70v90h71v58q0 91 46.5 141.5t128.5 50.5q43 0 66 -15l-25 -90q-7 4 -15.5 6t-21.5 2q-33 0 -52 -21t-19 -66v-66h150v244h110v-598z" />
    <glyph glyph-name=".notdef" horiz-adv-x="530" 
d="M480 730v-730h-430v730h430zM265 408l150 287h-300zM90 657v-584l153 292zM440 73v584l-152 -292zM115 35h300l-150 287z" />
    <glyph glyph-name=".null" 
 />
    <glyph glyph-name=".null" 
 />
    <glyph glyph-name="nonmarkingreturn" unicode="&#xd;" horiz-adv-x="250" 
 />
    <glyph glyph-name="space" unicode=" " horiz-adv-x="207" 
 />
    <glyph glyph-name="exclam" unicode="!" horiz-adv-x="259" 
d="M69 700h123l-16 -496h-94zM128 -16q-27 0 -46.5 19.5t-19.5 46.5q0 26 19.5 45.5t46.5 19.5t46.5 -19.5t19.5 -45.5q0 -27 -19.5 -46.5t-46.5 -19.5z" />
    <glyph glyph-name="quotedbl" unicode="&#x22;" horiz-adv-x="322" 
d="M47 764h89l-4 -197h-82zM186 764h90l-5 -197h-81z" />
    <glyph glyph-name="numbersign" unicode="#" horiz-adv-x="604" 
d="M130 131h-104l15 61h103l30 139h-96l15 62h94l21 98h80l-22 -98h126l22 98h80l-22 -98h106l-15 -62h-104l-31 -139h98l-14 -61h-97l-18 -86h-80l19 86h-126l-18 -86h-80zM349 192l30 139h-126l-30 -139h126z" />
    <glyph glyph-name="dollar" unicode="$" horiz-adv-x="584" 
d="M347 395q38 -8 74.5 -20t65.5 -33t47 -54t18 -84q0 -81 -55 -132t-150 -62v-118h-89v116q-42 2 -78.5 11.5t-66 25.5t-52 36t-35.5 42l77 71q28 -42 68.5 -63t88.5 -27v205q-38 8 -76 19t-68 31t-48.5 52t-18.5 82q0 84 55.5 135t153.5 61v113h89v-115q37 -3 73.5 -16.5
t64.5 -39t41.5 -64t4.5 -93.5h-105q10 51 -13 79t-66 38v-196zM160 502q0 -39 28 -57.5t72 -29.5v179q-48 -6 -74 -29t-26 -63zM347 106q46 8 70.5 31.5t24.5 61.5q0 40 -26.5 59.5t-68.5 31.5v-184z" />
    <glyph glyph-name="percent" unicode="%" horiz-adv-x="639" 
d="M143 424q-57 0 -87 36.5t-30 102.5t30 102.5t87 36.5q60 0 90.5 -36.5t30.5 -102.5t-31 -102.5t-90 -36.5zM384 700h78l-211 -700h-78zM143 480q28 0 40 22t12 61q0 38 -12 58.5t-40 20.5q-27 0 -39 -20.5t-12 -58.5q0 -39 12 -61t39 -22zM493 -2q-57 0 -87.5 36.5
t-30.5 102.5t30.5 102.5t87.5 36.5q60 0 90.5 -36.5t30.5 -102.5t-31 -102.5t-90 -36.5zM493 55q27 0 39.5 21.5t12.5 60.5q0 38 -12.5 58.5t-39.5 20.5q-28 0 -40 -20.5t-12 -58.5q0 -39 12 -60.5t40 -21.5z" />
    <glyph glyph-name="ampersand" unicode="&#x26;" horiz-adv-x="704" 
d="M660 -13q-38 9 -74.5 23.5t-71.5 33.5q-80 -62 -206 -62q-58 0 -106 15t-83 43t-54.5 69t-19.5 93q0 60 32 114.5t84 85.5q-16 34 -24.5 66.5t-8.5 62.5q0 46 15.5 83t43.5 63.5t68 41t88 14.5q97 0 150 -45.5t53 -126.5q0 -24 -4.5 -49.5t-12.5 -41.5h-103q5 14 9 34
t4 39q0 46 -25 69t-69 23q-51 0 -79.5 -25.5t-28.5 -78.5q0 -51 28.5 -108t87.5 -119q17 -17 54.5 -52.5t89.5 -72.5q26 58 26 151h107q-3 -125 -48 -206q26 -14 54 -26t57 -19zM320 76q62 0 106 23q-78 57 -145 130q-21 23 -40 47t-36 48q-27 -27 -37.5 -51t-10.5 -56
q0 -67 45.5 -104t117.5 -37z" />
    <glyph glyph-name="quotesingle" unicode="'" horiz-adv-x="182" 
d="M47 764h89l-4 -197h-82z" />
    <glyph glyph-name="parenleft" unicode="(" horiz-adv-x="287" 
d="M191 -244q-74 100 -113 223.5t-39 261.5q0 140 39 266.5t113 226.5l83 -47q-60 -92 -93 -204.5t-33 -241.5q0 -127 33 -236.5t93 -201.5z" />
    <glyph glyph-name="parenright" unicode=")" horiz-adv-x="287" 
d="M96 734q73 -100 112 -223.5t39 -261.5q0 -140 -39 -266.5t-112 -226.5l-83 47q60 92 92.5 204.5t32.5 241.5q0 127 -32.5 236.5t-92.5 201.5z" />
    <glyph glyph-name="asterisk" unicode="*" horiz-adv-x="443" 
d="M214 531l-73 -107l-65 47l96 102l-135 8l8 80l133 -34l-58 123l73 32l41 -133l76 114l63 -47l-94 -102l134 -10l-7 -78l-136 30l58 -121l-71 -31z" />
    <glyph glyph-name="plus" unicode="+" horiz-adv-x="442" 
d="M179 224h-146v80h146v148h81v-148h150v-80h-150v-160h-81v160z" />
    <glyph glyph-name="comma" unicode="," horiz-adv-x="228" 
d="M50 -82q5 2 14.5 8.5t19.5 16.5t18 23t8 28q-29 0 -49 19.5t-20 48.5q0 28 20 48.5t49 20.5q31 0 52.5 -21.5t21.5 -59.5q0 -46 -12.5 -78t-29 -52.5t-34 -32.5t-27.5 -18z" />
    <glyph glyph-name="hyphen" unicode="-" horiz-adv-x="389" 
d="M56 313h277v-83h-277v83z" />
    <glyph glyph-name="period" unicode="." horiz-adv-x="219" 
d="M110 -6q-29 0 -49 19.5t-20 48.5q0 28 20 48.5t49 20.5q28 0 48 -20.5t20 -48.5q0 -29 -20 -48.5t-48 -19.5z" />
    <glyph glyph-name="slash" unicode="/" horiz-adv-x="414" 
d="M301 706h95l-282 -933h-96z" />
    <glyph glyph-name="zero" unicode="0" horiz-adv-x="636" 
d="M316 -6q-69 0 -120 25t-84.5 71t-50 111.5t-16.5 147.5t16.5 148t50 112.5t84.5 71.5t120 25q70 0 122 -25.5t86 -72t50.5 -112.5t16.5 -147t-16.5 -147t-50.5 -112t-85.5 -71t-122.5 -25zM316 93q81 0 118 64t37 192t-37 193t-118 65q-78 0 -115 -65t-37 -193t37 -192
t115 -64z" />
    <glyph glyph-name="one" unicode="1" horiz-adv-x="382" 
d="M189 534q-26 -31 -67.5 -44.5t-101.5 -13.5v104q83 0 126 35t43 85h111v-700h-111v534z" />
    <glyph glyph-name="two" unicode="2" horiz-adv-x="568" 
d="M40 23q0 71 26.5 120t66.5 84.5t87 62.5t87 55t66.5 62t26.5 82q0 54 -32 86t-92 32q-39 0 -63.5 -12.5t-38.5 -30.5t-20 -37.5t-6 -33.5h-108q0 30 11.5 67.5t39.5 69.5t74 54t115 22q57 0 100.5 -15.5t73.5 -44t45 -68t15 -87.5q0 -58 -25.5 -101.5t-64 -78t-83.5 -61
t-83.5 -51t-64 -48.5t-25.5 -53v-5h363v-93h-491v23z" />
    <glyph glyph-name="three" unicode="3" horiz-adv-x="574" 
d="M278 -6q-91 0 -155.5 34t-96.5 106l90 55q20 -49 62 -74t97 -25q73 0 106.5 28t33.5 82q0 23 -7.5 43t-26.5 35t-51 23.5t-80 8.5h-42v84h40q74 0 110.5 29t36.5 84q0 53 -34 77t-83 24q-23 0 -45 -6t-39 -19.5t-28.5 -35t-13.5 -51.5h-109q3 52 22 91t51.5 65.5t75 40
t91.5 13.5q50 0 91.5 -12.5t71.5 -36.5t46.5 -59.5t16.5 -80.5q0 -60 -29.5 -99t-78.5 -54q38 -8 63 -25.5t40 -40.5t21 -50.5t6 -54.5q0 -46 -18 -82.5t-51 -62.5t-79.5 -40t-104.5 -14z" />
    <glyph glyph-name="four" unicode="4" horiz-adv-x="574" 
d="M343 149h-322v93l248 458h116l-245 -458h206v158h109v-158h100v-93h-100v-149h-112v149z" />
    <glyph glyph-name="five" unicode="5" horiz-adv-x="585" 
d="M286 -7q-98 0 -158.5 37.5t-89.5 104.5l96 57q23 -52 63 -76t92 -24q69 0 107 34.5t38 104.5q0 66 -36.5 98t-95.5 32q-48 0 -79 -14.5t-50 -33.5h-108v387h447v-102h-341v-186q29 26 68 38t84 12q106 0 166 -59t60 -165q0 -118 -69 -181.5t-194 -63.5z" />
    <glyph glyph-name="six" unicode="6" horiz-adv-x="604" 
d="M358 422q100 0 154 -52t54 -148q0 -49 -16.5 -91t-49 -72.5t-79 -47.5t-106.5 -17q-136 0 -203 91t-67 254q0 91 20.5 160t57.5 115t90 69t117 23q44 0 82.5 -10t66.5 -31t44 -52.5t16 -74.5q0 -11 -1.5 -24.5t-4.5 -24.5h-104q3 17 3 30q0 46 -28.5 68.5t-73.5 22.5
q-39 0 -70.5 -14t-54 -45t-35 -81.5t-12.5 -123.5v-8q42 47 95 65.5t105 18.5zM319 91q66 0 101 32t35 87q0 54 -30.5 83.5t-93.5 29.5q-54 0 -96 -25t-68 -62q15 -78 53.5 -111.5t98.5 -33.5z" />
    <glyph glyph-name="seven" unicode="7" horiz-adv-x="511" 
d="M120 0q0 81 18 148t45.5 123t60 102.5t60.5 86t47 73t20 64.5h-354v103h475v-51q0 -54 -19 -100.5t-48 -91t-62.5 -90.5t-62.5 -100t-48 -119t-19 -148h-113z" />
    <glyph glyph-name="eight" unicode="8" horiz-adv-x="588" 
d="M435 364q58 -27 84 -70t26 -100q0 -45 -17.5 -82t-50.5 -63.5t-80 -40.5t-105 -14q-119 0 -185 49.5t-66 140.5q0 57 29.5 102t77.5 73q-35 25 -57 62t-22 88q0 44 16.5 80t46 62t71 40.5t92.5 14.5q52 0 94 -12.5t72 -36.5t46.5 -58t16.5 -78q0 -54 -24.5 -93t-64.5 -64
zM294 612q-51 0 -82.5 -25t-31.5 -75q0 -35 21 -58t56 -34l89 -26q36 20 52 49t16 60q0 54 -33.5 81.5t-86.5 27.5zM292 87q72 0 107 26.5t35 75.5q0 39 -20 62t-71 38l-114 34q-32 -22 -53.5 -52t-21.5 -70q0 -51 33 -82.5t105 -31.5z" />
    <glyph glyph-name="nine" unicode="9" horiz-adv-x="604" 
d="M287 706q137 0 204.5 -89.5t67.5 -254.5q0 -93 -20 -162t-56.5 -115t-87 -68.5t-112.5 -22.5q-85 0 -140.5 26t-87.5 78l81 67q29 -42 60.5 -58.5t85.5 -16.5q34 0 64 13t52 43t35.5 78.5t14.5 118.5q-39 -48 -89 -66.5t-102 -18.5q-48 0 -88 13.5t-69.5 40.5t-45.5 67
t-16 92t17.5 95t49.5 74t78 48.5t104 17.5zM279 356q53 0 95 25.5t68 57.5q-14 91 -57 131t-102 40q-61 0 -97.5 -34t-36.5 -94t31 -93t99 -33z" />
    <glyph glyph-name="colon" unicode=":" horiz-adv-x="249" 
d="M125 412q-29 0 -49 19.5t-20 48.5q0 28 20 48.5t49 20.5q28 0 48 -20.5t20 -48.5q0 -29 -20 -48.5t-48 -19.5zM125 -6q-29 0 -49 19.5t-20 48.5q0 28 20 48.5t49 20.5q28 0 48 -20.5t20 -48.5q0 -29 -20 -48.5t-48 -19.5z" />
    <glyph glyph-name="semicolon" unicode=";" horiz-adv-x="250" 
d="M122 355q-29 0 -49 20t-20 49t20 49.5t49 20.5t49 -20.5t20 -49.5t-20 -49t-49 -20zM64 -82q17 9 30 21q12 10 21 24t9 31q-29 0 -49 19.5t-20 48.5q0 28 20 48.5t49 20.5t51.5 -20.5t22.5 -60.5q0 -55 -16 -90t-35 -55q-23 -24 -52 -36z" />
    <glyph glyph-name="less" unicode="&#x3c;" horiz-adv-x="407" 
d="M25 213v86l335 198v-96l-239 -146l239 -144v-96z" />
    <glyph glyph-name="equal" unicode="=" horiz-adv-x="505" 
d="M59 402h388v-81h-388v81zM59 199h388v-80h-388v80z" />
    <glyph glyph-name="greater" unicode="&#x3e;" horiz-adv-x="407" 
d="M47 112l238 144l-238 146v96l335 -198v-87l-335 -197v96z" />
    <glyph glyph-name="question" unicode="?" horiz-adv-x="472" 
d="M171 197q0 48 11 81t28.5 57t37.5 42t37 37t28.5 41.5t11.5 54.5q0 44 -24.5 69.5t-70.5 25.5q-47 0 -74 -27t-27 -75h-105q0 48 16 86.5t44.5 64.5t66.5 40t83 14q56 0 95 -16t63.5 -42.5t36 -60t11.5 -69.5q0 -44 -12 -75t-30.5 -54.5t-40 -42.5t-40 -40t-31 -47.5
t-12.5 -63.5h-103zM218 -17q-27 0 -46.5 19.5t-19.5 46.5q0 28 19.5 47t46.5 19q28 0 47 -19t19 -47q0 -27 -19.5 -46.5t-46.5 -19.5z" />
    <glyph glyph-name="at" unicode="@" horiz-adv-x="861" 
d="M660 454q-22 -81 -37 -136t-23.5 -90t-12 -53t-3.5 -26q0 -31 32 -31q24 0 46.5 18t40 47.5t28 68t10.5 79.5q0 52 -16.5 95t-48 73.5t-77.5 47.5t-106 17q-76 0 -141 -29t-112 -79t-74 -118.5t-27 -148.5q0 -63 19.5 -112.5t54 -83t83 -51.5t106.5 -18q41 0 80.5 7.5
t74 20t63.5 29.5t49 37l49 -70q-23 -23 -57 -43.5t-75 -36t-88.5 -24.5t-97.5 -9q-81 0 -147 24.5t-113 70.5t-73 110.5t-26 145.5q0 100 33.5 185.5t94 148t145 98t185.5 35.5q75 0 136.5 -22.5t106 -63.5t68.5 -100t24 -133q0 -58 -17 -111.5t-48 -94t-74 -64.5t-95 -24
q-46 0 -70.5 20.5t-29.5 57.5q-30 -45 -64 -61t-70 -16q-59 0 -96 39.5t-37 117.5q0 56 18 103t49 82t72 54.5t86 19.5q41 0 66.5 -12t39.5 -30l11 39h85zM396 125q23 0 43 10.5t37.5 35.5t33 66t28.5 102q-5 17 -25.5 28t-49.5 11t-53.5 -12.5t-42.5 -35t-28 -53t-10 -66.5
q0 -41 17.5 -63.5t49.5 -22.5z" />
    <glyph glyph-name="A" unicode="A" horiz-adv-x="642" 
d="M457 182h-273l-63 -182h-115l258 700h114l257 -700h-115zM426 272l-105 306l-106 -306h211z" />
    <glyph glyph-name="B" unicode="B" horiz-adv-x="629" 
d="M459 376q26 -7 50 -20.5t42 -35t29 -51t11 -68.5q0 -49 -18.5 -86.5t-51.5 -63t-79 -38.5t-100 -13h-260v700h241q235 0 235 -180q0 -51 -27 -89t-72 -55zM193 401h123q68 0 99.5 29.5t31.5 75.5q0 51 -32 78.5t-94 27.5h-128v-211zM337 88q73 0 107.5 29t34.5 87
q0 55 -35 82.5t-101 27.5h-150v-226h144z" />
    <glyph glyph-name="C" unicode="C" horiz-adv-x="620" 
d="M352 -8q-71 0 -128.5 24t-97.5 70t-61.5 111.5t-21.5 149.5q0 83 21.5 150t61.5 114t97 72t127 25q52 0 94.5 -13t73 -38t47.5 -62t17 -85q0 -15 -1.5 -31.5t-6.5 -28.5h-102q3 16 4 23.5t1 19.5q0 54 -35 85.5t-96 31.5q-89 0 -137 -68.5t-48 -193.5t53 -192.5
t145 -67.5q54 0 91.5 21.5t68.5 70.5l75 -57q-43 -68 -101 -99.5t-141 -31.5z" />
    <glyph glyph-name="D" unicode="D" horiz-adv-x="692" 
d="M82 700h221q75 0 138 -19.5t109.5 -61.5t72.5 -108t26 -159q0 -94 -28 -161t-75 -109.5t-108 -62t-127 -19.5h-229v700zM302 96q105 0 167.5 61.5t62.5 189.5q0 130 -60.5 193.5t-174.5 63.5h-104v-508h109z" />
    <glyph glyph-name="E" unicode="E" horiz-adv-x="573" 
d="M82 700h448v-99h-337v-195h287v-100h-287v-206h337v-100h-448v700z" />
    <glyph glyph-name="F" unicode="F" horiz-adv-x="543" 
d="M82 700h437v-103h-326v-211h273v-103h-273v-283h-111v700z" />
    <glyph glyph-name="G" unicode="G" horiz-adv-x="659" 
d="M353 -11q-149 0 -229.5 89.5t-80.5 269.5q0 82 21.5 148.5t62 113.5t98.5 72.5t131 25.5q117 0 179 -53.5t62 -142.5q0 -26 -5 -44h-106q1 5 1.5 11t0.5 21q0 49 -35 79.5t-101 30.5q-95 0 -143 -67.5t-48 -193.5q0 -128 50.5 -196t147.5 -68q59 0 95 13.5t50 27.5v131
h-149v97h254v-275q-13 -15 -36 -30.5t-55.5 -29t-73.5 -22t-91 -8.5z" />
    <glyph glyph-name="H" unicode="H" horiz-adv-x="691" 
d="M82 700h111v-294h305v294h111v-700h-111v302h-305v-302h-111v700z" />
    <glyph glyph-name="I" unicode="I" horiz-adv-x="275" 
d="M82 700h111v-700h-111v700z" />
    <glyph glyph-name="J" unicode="J" horiz-adv-x="477" 
d="M186 -6q-64 0 -108 23t-70 56l70 77q20 -23 46 -40t63 -17q53 0 78 32.5t25 93.5v481h112v-476q0 -113 -56.5 -171.5t-159.5 -58.5z" />
    <glyph glyph-name="K" unicode="K" horiz-adv-x="652" 
d="M640 96v-95q-2 -2 -20 -4t-41 -2q-50 0 -82 22.5t-54.5 56.5t-40 73.5t-38 73.5t-48.5 56.5t-71 22.5h-52v-300h-111v700h111v-304h66q38 0 76 15t68 50.5t49 93.5t19 145h110q0 -131 -47.5 -221t-125.5 -136q36 -25 58.5 -67t42 -82t41.5 -69t58 -29h32z" />
    <glyph glyph-name="L" unicode="L" horiz-adv-x="534" 
d="M82 700h112v-601h326v-99h-438v700z" />
    <glyph glyph-name="M" unicode="M" horiz-adv-x="830" 
d="M82 700h107l228 -479l231 479h100v-700h-107v499l-16 -46l-173 -362h-78l-171 362l-16 45v-498h-105v700z" />
    <glyph glyph-name="N" unicode="N" horiz-adv-x="680" 
d="M82 700h97l299 -486l15 -34v520h105v-700h-97l-301 485l-13 29v-514h-105v700z" />
    <glyph glyph-name="O" unicode="O" horiz-adv-x="714" 
d="M355 -8q-64 0 -120.5 20t-99.5 62.5t-68 110t-25 162.5q0 92 26 160t69.5 112.5t101 66.5t120.5 22t120 -20.5t100 -64t68 -111t25 -162.5q0 -92 -26 -159.5t-69.5 -111.5t-101 -65.5t-120.5 -21.5zM355 88q39 0 75 13.5t63.5 44.5t44 81t16.5 122q0 74 -16 124t-43 80.5
t-62 43.5t-74 13t-75 -13.5t-63.5 -44.5t-44 -81t-16.5 -123t16 -123t42.5 -80.5t62 -43.5t74.5 -13z" />
    <glyph glyph-name="P" unicode="P" horiz-adv-x="604" 
d="M82 700h231q122 0 192.5 -54.5t70.5 -171.5q0 -58 -19.5 -101.5t-53.5 -72.5t-81 -43.5t-103 -14.5h-126v-242h-111v700zM308 334q78 0 116 35.5t38 101.5q0 63 -38 99.5t-119 36.5h-112v-273h115z" />
    <glyph glyph-name="Q" unicode="Q" horiz-adv-x="714" 
d="M419 -2q20 -66 65.5 -96.5t113.5 -30.5v-100q-66 0 -115.5 18.5t-84 49.5t-55.5 71t-29 84q-57 6 -106.5 29t-86 66t-58 107t-21.5 151q0 92 26 160t69.5 112.5t101 66.5t120.5 22t120 -20.5t100 -64t68 -111t25 -162.5q0 -80 -19.5 -141.5t-54 -105t-80.5 -70t-99 -35.5
zM160 348q0 -73 16 -123t42.5 -80.5t62 -43.5t74.5 -13t75 13.5t63.5 44.5t44 81t16.5 122q0 74 -16 124t-43 80.5t-62 43.5t-74 13t-75 -13.5t-63.5 -44.5t-44 -81t-16.5 -123z" />
    <glyph glyph-name="R" unicode="R" horiz-adv-x="647" 
d="M562 -5q-44 0 -72.5 20.5t-49 51.5t-36 67.5t-33 67.5t-41 51.5t-59.5 20.5h-78v-274h-111v700h237q123 0 188 -52.5t65 -161.5q0 -69 -40.5 -116.5t-106.5 -63.5q31 -16 49.5 -51t35 -70.5t36.5 -62.5t54 -27h30v-94q-3 -2 -23.5 -4t-44.5 -2zM304 360q69 0 112 31
t43 91q0 58 -37.5 91.5t-107.5 33.5h-121v-247h111z" />
    <glyph glyph-name="S" unicode="S" horiz-adv-x="591" 
d="M290 -8q-188 0 -264 116l77 71q31 -45 79.5 -68.5t109.5 -23.5q76 0 113 25.5t37 73.5q0 50 -38.5 77t-132.5 46q-49 11 -90 26.5t-70.5 38.5t-45.5 56t-16 79q0 45 18 81.5t50.5 62.5t78 40.5t100.5 14.5q47 0 90 -9.5t76 -31t53 -56t20 -84.5q0 -10 -1 -18.5t-4 -19.5
l-104 1q3 17 3 27q0 25 -10.5 43t-28.5 30t-42 17.5t-51 5.5q-67 0 -102 -25.5t-35 -73.5q0 -24 9.5 -40t30 -28t53.5 -22t79 -21q56 -13 97 -30t69 -41.5t41.5 -58t13.5 -78.5q0 -96 -70 -149.5t-193 -53.5z" />
    <glyph glyph-name="T" unicode="T" horiz-adv-x="554" 
d="M223 597h-208v103h525v-103h-205v-597h-112v597z" />
    <glyph glyph-name="U" unicode="U" horiz-adv-x="673" 
d="M338 -6q-55 0 -103 14.5t-84 49t-56.5 90.5t-20.5 140v412h112v-420q0 -92 37.5 -139.5t114.5 -47.5t114 47.5t37 139.5v420h110v-412q0 -84 -20 -140t-55.5 -90.5t-83 -49t-102.5 -14.5z" />
    <glyph glyph-name="V" unicode="V" horiz-adv-x="629" 
d="M7 700h126l185 -572l186 572h118l-253 -700h-109z" />
    <glyph glyph-name="W" unicode="W" horiz-adv-x="936" 
d="M14 700h127l125 -575l152 575h106l151 -575l126 575h121l-184 -700h-126l-142 540l-146 -540h-125z" />
    <glyph glyph-name="X" unicode="X" horiz-adv-x="596" 
d="M466 0l-171 281l-171 -281h-122l230 356l-217 344h129l159 -264l157 264h123l-218 -340l226 -360h-125z" />
    <glyph glyph-name="Y" unicode="Y" horiz-adv-x="608" 
d="M249 287l-238 413h131l165 -309l167 309h125l-239 -410v-290h-111v287z" />
    <glyph glyph-name="Z" unicode="Z" horiz-adv-x="585" 
d="M550 95v-95h-516v86l387 519h-383v95h510v-86l-384 -519h386z" />
    <glyph glyph-name="bracketleft" unicode="[" horiz-adv-x="338" 
d="M76 726h242v-93h-135v-784h135v-93h-242v970z" />
    <glyph glyph-name="backslash" unicode="\" horiz-adv-x="425" 
d="M18 706h106l283 -933h-107z" />
    <glyph glyph-name="bracketright" unicode="]" horiz-adv-x="338" 
d="M20 -151h135v784h-135v93h241v-970h-241v93z" />
    <glyph glyph-name="asciicircum" unicode="^" horiz-adv-x="377" 
d="M128 727h121l94 -214h-96l-59 133l-58 -133h-97z" />
    <glyph glyph-name="underscore" unicode="_" horiz-adv-x="476" 
d="M46 0h383v-80h-383v80z" />
    <glyph glyph-name="grave" unicode="`" horiz-adv-x="285" 
d="M34 752h133l82 -184h-96z" />
    <glyph glyph-name="a" unicode="a" horiz-adv-x="557" 
d="M230 -13q-43 0 -78.5 18t-61 50.5t-39.5 78.5t-14 102q0 57 15 104.5t42 82t65 53.5t84 19q92 0 137 -65v52h101v-351q0 -27 8.5 -38t31.5 -11v-81q-7 -2 -20.5 -4t-28.5 -2q-41 0 -63.5 19.5t-24.5 53.5l-1 3q-20 -38 -56.5 -61t-96.5 -23zM265 79q45 0 70.5 25t36.5 67
v141q-4 17 -12 33t-21 29.5t-31.5 21.5t-42.5 8q-57 0 -87 -43t-30 -124q0 -73 29.5 -115.5t87.5 -42.5z" />
    <glyph glyph-name="b" unicode="b" horiz-adv-x="546" 
d="M305 -13q-33 0 -57.5 8t-41.5 20t-28 25t-17 23v-63h-97v726h110v-303q6 11 17 23.5t28 23t41 18t55 7.5q44 0 79.5 -18t61.5 -50.5t40 -79t14 -103.5t-15.5 -104t-43 -81t-65 -53t-81.5 -19zM283 79q55 0 85 41.5t30 122.5q0 75 -30.5 117.5t-84.5 42.5q-25 0 -44 -8.5
t-32 -21.5t-21 -29.5t-13 -32.5v-142q2 -7 8 -22t18.5 -30t32.5 -26.5t51 -11.5z" />
    <glyph glyph-name="c" unicode="c" horiz-adv-x="482" 
d="M267 -13q-108 0 -169 66.5t-61 187.5t61 187.5t167 66.5q85 0 133.5 -38.5t48.5 -115.5q0 -15 -2 -30.5t-6 -24.5l-95 -1q5 15 5 40q0 79 -86 79q-54 0 -84.5 -40.5t-30.5 -119.5q0 -81 33.5 -123t90.5 -42q47 0 73 18t44 45l66 -57q-25 -42 -71.5 -70t-116.5 -28z" />
    <glyph glyph-name="d" unicode="d" horiz-adv-x="557" 
d="M230 -13q-43 0 -78.5 18t-61 51t-39.5 79t-14 102t15 103.5t42 82t65 53.5t85 19q46 0 78 -17.5t50 -42.5v291h109v-595q0 -27 9 -38t32 -11v-82q-7 -2 -20.5 -3.5t-28.5 -1.5q-41 0 -64 19.5t-25 53.5v9q-20 -40 -57 -65t-97 -25zM265 79q43 0 69.5 25t38.5 67v141
q-4 17 -12 33t-21.5 29.5t-32 21.5t-42.5 8q-58 0 -87.5 -43t-29.5 -124q0 -72 30 -115t87 -43z" />
    <glyph glyph-name="e" unicode="e" horiz-adv-x="482" 
d="M454 86q-33 -53 -84.5 -76t-115.5 -23q-103 2 -160.5 62.5t-57.5 175.5q0 60 17.5 109.5t48.5 85.5t74.5 55.5t95.5 19.5q79 0 124 -39.5t45 -107.5q0 -51 -26 -82t-67.5 -49t-93 -25.5t-103.5 -10.5q10 -54 39.5 -78.5t76.5 -24.5q42 0 69.5 15t51.5 48zM270 405
q-54 0 -85.5 -39t-36.5 -110q32 1 66 4.5t62 13t45.5 26t17.5 43.5q0 62 -69 62z" />
    <glyph glyph-name="f" unicode="f" horiz-adv-x="345" 
d="M92 392h-70v90h71v56q0 91 48.5 142.5t131.5 51.5q36 0 66 -10.5t50 -27.5l-46 -79q-24 20 -63 20q-36 0 -57.5 -22.5t-21.5 -74.5v-56h131v-90h-131v-392h-109v392z" />
    <glyph glyph-name="g" unicode="g" horiz-adv-x="544" 
d="M256 -240q-72 0 -121 23.5t-77 68.5l70 62q20 -29 49 -46.5t78 -17.5q58 0 89.5 32t31.5 92v92q-15 -30 -50.5 -54.5t-95.5 -24.5q-43 0 -78.5 18t-61 51t-39.5 79t-14 102t15 103.5t42 82t65 53.5t85 19q46 0 80 -18t59 -53v58h97v-508q0 -49 -16 -88.5t-45.5 -67.5
t-70.5 -43t-92 -15zM265 79q43 0 69.5 25t38.5 67v141q-4 17 -12 33t-21.5 29.5t-32 21.5t-42.5 8q-58 0 -87.5 -43t-29.5 -124q0 -72 30 -115t87 -43z" />
    <glyph glyph-name="h" unicode="h" horiz-adv-x="546" 
d="M469 -4q-52 0 -77 28t-25 81v197q0 42 -23 69t-68 27q-27 0 -46 -10t-31.5 -25t-18.5 -34t-6 -37v-292h-110v726h110v-300q16 27 49 48t84 21q46 0 78 -15t52.5 -41t30 -60.5t9.5 -73.5v-177q0 -46 40 -46v-81q-7 -2 -20.5 -3.5t-27.5 -1.5z" />
    <glyph glyph-name="i" unicode="i" horiz-adv-x="241" 
d="M121 569q-29 0 -50 20.5t-21 50.5q0 29 21 49.5t50 20.5t49.5 -20.5t20.5 -49.5q0 -30 -20.5 -50.5t-49.5 -20.5zM66 482h109v-482h-109v482z" />
    <glyph glyph-name="j" unicode="j" horiz-adv-x="244" 
d="M124 569q-29 0 -50 20.5t-21 50.5q0 29 21 49.5t50 20.5t49.5 -20.5t20.5 -49.5q0 -30 -20.5 -50.5t-49.5 -20.5zM2 -247q-25 0 -42.5 4.5t-28.5 10.5q-14 7 -23 15l33 78q6 -4 13 -7q7 -2 15.5 -4t20.5 -2q80 0 80 106v528h109v-533q0 -89 -42 -142.5t-135 -53.5z" />
    <glyph glyph-name="k" unicode="k" horiz-adv-x="517" 
d="M503 83v-81q-3 -1 -16 -4t-29 -3q-46 0 -72.5 15.5t-43.5 38t-28 49.5t-26.5 49.5t-39 38t-65.5 15.5h-9v-201h-110v726h110v-434h31q41 0 68.5 13t45 38t26 60t9.5 79h103q-1 -27 -5 -60.5t-17 -66.5t-36.5 -63.5t-62.5 -52.5q31 -18 46.5 -44.5t28 -51t30 -42.5
t52.5 -18h10z" />
    <glyph glyph-name="l" unicode="l" horiz-adv-x="252" 
d="M167 -4q-51 0 -76.5 25t-25.5 85v620h109v-598q0 -24 10 -33t33 -9v-85q-8 -2 -22 -3.5t-28 -1.5z" />
    <glyph glyph-name="m" unicode="m" horiz-adv-x="857" 
d="M780 -4q-52 0 -77 28t-25 81v193q0 45 -21.5 73t-68.5 28q-48 0 -74 -32.5t-26 -77.5v-289h-110v298q0 45 -21.5 73t-69.5 28q-26 0 -45.5 -9.5t-32 -25.5t-18.5 -35.5t-6 -40.5v-288h-109v357q0 24 -9.5 34.5t-31.5 10.5v82q8 2 21.5 3.5t27.5 1.5q38 0 61.5 -20
t26.5 -60v-3q14 34 49.5 61.5t96.5 27.5q60 0 97 -24.5t54 -68.5q15 36 53 64.5t96 28.5q46 0 78 -14.5t52.5 -40t30 -60.5t9.5 -75v-177q0 -46 40 -46v-81q-7 -2 -20.5 -3.5t-27.5 -1.5z" />
    <glyph glyph-name="n" unicode="n" horiz-adv-x="558" 
d="M480 -4q-52 0 -77 28t-25 81v193q0 49 -23.5 75t-66.5 26q-46 0 -74.5 -30.5t-28.5 -81.5v-287h-109v357q0 24 -9.5 34.5t-31.5 10.5v82q8 2 21 3.5t29 1.5q41 0 63 -21t24 -59v-2q18 40 55.5 64t91.5 24q81 0 125 -49.5t44 -140.5v-177q0 -46 41 -46v-81
q-7 -2 -20.5 -3.5t-28.5 -1.5z" />
    <glyph glyph-name="o" unicode="o" horiz-adv-x="530" 
d="M262 -13q-107 0 -166 68.5t-59 185.5q0 59 16 106t46 80t72.5 50.5t96.5 17.5q53 0 95 -17.5t71 -50.5t44 -80t15 -105t-16 -105t-46 -80.5t-72.5 -51.5t-96.5 -18zM265 79q56 0 86 41t30 121t-30.5 121.5t-85.5 41.5q-54 0 -85 -41.5t-31 -121.5t30.5 -121t85.5 -41z
" />
    <glyph glyph-name="p" unicode="p" horiz-adv-x="558" 
d="M76 357q0 25 -9.5 35.5t-31.5 10.5v81q7 2 20.5 4t28.5 2q41 0 64 -21t25 -63v-2q20 40 56.5 65.5t96.5 25.5q44 0 80 -18t61.5 -51t39.5 -78.5t14 -101.5q0 -57 -15 -105t-42.5 -82t-65.5 -53t-85 -19q-46 0 -78.5 17.5t-49.5 40.5v-274h-109v586zM294 79q56 0 85.5 42
t29.5 124q0 76 -31.5 117t-83.5 41q-45 0 -71.5 -26t-37.5 -66v-142q10 -37 36.5 -63.5t72.5 -26.5z" />
    <glyph glyph-name="q" unicode="q" horiz-adv-x="546" 
d="M372 58q-6 -10 -16.5 -22.5t-27.5 -23t-41 -18t-56 -7.5q-42 0 -77.5 17t-61.5 49.5t-40.5 79.5t-14.5 106t16.5 106.5t44.5 80.5t65.5 51t80.5 18q34 0 58.5 -9.5t41.5 -22.5t27 -26t14 -20v65h96v-715h-109v291zM263 79q45 0 71.5 26t38.5 66v141q-3 16 -11 32
t-21.5 29.5t-32.5 22t-44 8.5q-57 0 -86.5 -43.5t-29.5 -120.5q0 -81 32 -121t83 -40z" />
    <glyph glyph-name="r" unicode="r" horiz-adv-x="375" 
d="M76 357q0 24 -9.5 34.5t-31.5 10.5v82q8 2 21 3.5t28 1.5q43 0 65 -21.5t23 -54.5v-6q14 41 50 64t87 23q20 0 38.5 -4.5t28.5 -12.5l-41 -102q-8 6 -21.5 9t-29.5 3q-49 0 -74 -37t-25 -91v-259h-109v357z" />
    <glyph glyph-name="s" unicode="s" horiz-adv-x="477" 
d="M236 -13q-63 0 -119.5 19.5t-93.5 67.5l65 71q35 -43 72 -56t79 -13q51 0 74 13.5t23 39.5q0 16 -8.5 26t-24.5 17t-37.5 12t-48.5 11q-31 7 -61.5 16.5t-55 26.5t-39.5 43t-15 65q0 67 51 108t145 41q89 0 139.5 -36t50.5 -105q0 -11 -2 -23.5t-6 -22.5h-98q2 7 3 17
t1 19q0 30 -23.5 46.5t-66.5 16.5q-88 0 -88 -59q0 -17 9.5 -28t26.5 -18.5t40 -13t50 -11.5q29 -6 58 -14.5t52.5 -24.5t38 -40t14.5 -62q1 -75 -54 -112t-151 -37z" />
    <glyph glyph-name="t" unicode="t" horiz-adv-x="415" 
d="M280 -6q-91 0 -134.5 48t-43.5 150v199h-87v91h91v140h106v-140h174v-91h-174v-194q0 -54 20.5 -78.5t62.5 -24.5q24 0 45 8.5t35 19.5l38 -82q-22 -20 -59 -33t-74 -13z" />
    <glyph glyph-name="u" unicode="u" horiz-adv-x="547" 
d="M222 -13q-78 0 -120 45t-42 130v320h109v-300q0 -55 24 -77t66 -22q26 0 45 10t32 26t19 35.5t6 38.5v289h110v-354q0 -23 9 -34.5t32 -11.5v-82q-3 -1 -16.5 -3t-33.5 -2q-42 0 -63.5 20.5t-23.5 57.5l-1 4q-18 -37 -52.5 -63.5t-99.5 -26.5z" />
    <glyph glyph-name="v" unicode="v" horiz-adv-x="495" 
d="M485 482l-181 -483h-113l-181 483h117l105 -303l19 -77l19 77l104 303h111z" />
    <glyph glyph-name="w" unicode="w" horiz-adv-x="751" 
d="M739 482l-152 -482h-118l-77 295l-13 68l-14 -68l-84 -295h-118l-150 482h119l74 -285l20 -96l21 96l79 285h108l76 -284l20 -97l21 97l76 284h112z" />
    <glyph glyph-name="x" unicode="x" horiz-adv-x="470" 
d="M344 0l-110 179l-110 -179h-118l163 248l-154 234h124l96 -165l103 165h117l-155 -233l164 -249h-120z" />
    <glyph glyph-name="y" unicode="y" horiz-adv-x="535" 
d="M247 -247q-78 0 -128 25.5t-73 70.5l72 57q20 -32 50 -47.5t78 -15.5q60 0 90.5 33t30.5 91v109q-21 -39 -60.5 -60.5t-93.5 -21.5q-153 0 -153 173v315h109v-294q0 -99 82 -99q21 0 40.5 9.5t35 26t24.5 37.5t9 43v277h111v-513q0 -100 -58.5 -158t-165.5 -58z" />
    <glyph glyph-name="z" unicode="z" horiz-adv-x="497" 
d="M230 247q36 -6 78 -22t78 -47.5t60 -80.5t24 -120q0 -51 -17 -92t-47 -69.5t-71 -44t-89 -15.5q-95 0 -151.5 49.5t-56.5 136.5q0 43 13 78t33.5 62t46 47.5t50.5 33.5q-39 6 -82 6v85l196 138h-250v90h390v-87zM248 -153q54 0 87.5 34.5t33.5 97.5q0 61 -27 99.5
t-73 59.5q-23 -12 -46 -29t-42 -39t-30.5 -50t-11.5 -63q0 -53 30 -81.5t79 -28.5z" />
    <glyph glyph-name="braceleft" unicode="{" horiz-adv-x="329" 
d="M304 -234q-39 -8 -75.5 -1.5t-65 28t-46 59.5t-17.5 94v182q0 36 -19.5 51.5t-44.5 15.5h-10v92h10q25 0 44.5 15.5t19.5 51.5v182q0 56 17.5 94t46 59.5t65 28t75.5 -1.5v-97q-48 15 -75 -14.5t-27 -87.5v-189q0 -24 -5.5 -40t-13.5 -26t-16 -14.5t-13 -6.5
q4 -1 12 -6.5t16 -16t14 -26.5t6 -38v-189q0 -58 27 -87.5t75 -14.5v-97z" />
    <glyph glyph-name="bar" unicode="|" horiz-adv-x="246" 
d="M76 736h94v-990h-94v990z" />
    <glyph glyph-name="braceright" unicode="}" horiz-adv-x="329" 
d="M25 716q39 8 75.5 1.5t65 -28t46 -59.5t17.5 -94v-182q0 -36 19.5 -51.5t44.5 -15.5h10v-92h-10q-25 0 -44.5 -15.5t-19.5 -51.5v-182q0 -56 -17.5 -94t-46 -59.5t-65 -28t-75.5 1.5v97q48 -15 75 14.5t27 87.5v189q0 24 5.5 40t13.5 26t16.5 14.5t13.5 6.5q-4 1 -12 6.5
t-16 16t-14.5 26.5t-6.5 38v189q0 58 -27 87.5t-75 14.5v97z" />
    <glyph glyph-name="asciitilde" unicode="~" horiz-adv-x="460" 
d="M70 178q-4 6 -6 15q-3 7 -5 17t-2 23q0 35 22.5 61t67.5 26q24 0 45 -6t39.5 -12.5t36 -12.5t33.5 -6q11 0 16.5 6.5t5.5 16.5q0 8 -2 15t-4 13l-6 12h81q3 -7 6 -16q2 -8 3.5 -17.5t1.5 -20.5q0 -35 -21 -61t-66 -26q-28 0 -50 6t-40 12.5t-33 12.5t-29 6
q-12 0 -19.5 -7t-7.5 -20q0 -8 2 -15t5 -12q2 -5 6 -10h-80z" />
    <glyph glyph-name="exclamdown" unicode="&#xa1;" horiz-adv-x="246" 
d="M125 500q26 0 46 -19.5t20 -46.5t-20 -46t-46 -19q-27 0 -46.5 19t-19.5 46t19.5 46.5t46.5 19.5zM183 -216h-123l16 496h95z" />
    <glyph glyph-name="cent" unicode="&#xa2;" horiz-adv-x="489" 
d="M224 106q-39 6 -72.5 25t-58 50.5t-38.5 75t-14 98.5q0 112 49.5 174t134.5 74v97h75v-96q32 -3 57 -14.5t44 -26t31 -29.5t17 -27l-87 -56q0 3 -4 11t-11.5 17t-20 17t-29.5 11v-310q27 3 45.5 14t30 23t17.5 22.5t8 13.5l64 -58q-3 -5 -13 -21t-29.5 -34t-48.5 -33.5
t-71 -19.5v-104h-76v106zM229 505q-37 -9 -58.5 -44.5t-21.5 -104.5q0 -66 24.5 -100.5t55.5 -47.5v297z" />
    <glyph glyph-name="sterling" unicode="&#xa3;" horiz-adv-x="586" 
d="M551 96v-96h-500v69q39 21 63.5 60t24.5 80v8t-1 8h-87v85h65q-9 20 -19 40t-18 41t-13.5 44.5t-5.5 51.5q0 45 16.5 84t48 67.5t78.5 45t107 16.5q42 0 82.5 -10t73 -31.5t52 -55.5t19.5 -83q0 -12 -1 -25t-4 -27h-108q3 17 3 33q0 27 -9.5 45.5t-26 30t-38 17
t-44.5 5.5q-66 0 -100.5 -30.5t-34.5 -82.5q0 -24 6.5 -45.5t15.5 -42.5t19.5 -42.5t19.5 -45.5h218v-85h-201v-10q0 -29 -13 -62.5t-38 -56.5h350z" />
    <glyph glyph-name="currency" unicode="&#xa4;" horiz-adv-x="572" 
d="M44 176l81 81q-25 42 -25 93t25 93l-78 79l55 56l77 -78q23 17 50 27.5t59 10.5q30 0 57 -10.5t49 -27.5l77 78l57 -56l-78 -79q12 -21 19 -44.5t7 -48.5q0 -52 -26 -95l75 -74l-56 -56l-75 74q-21 -17 -48.5 -27t-57.5 -10q-32 0 -59 10t-50 27l-78 -79zM288 247
q21 0 39.5 8t33 22t22.5 33t8 40t-8 40t-22.5 33t-33 22t-39.5 8t-40 -8t-33 -22t-22 -33t-8 -40q0 -43 29.5 -73t73.5 -30z" />
    <glyph glyph-name="yen" unicode="&#xa5;" horiz-adv-x="654" 
d="M271 171h-170v77h170v39l-22 35h-148v78h105l-185 300h135l173 -306l173 306h131l-185 -299h104v-78h-147l-22 -36v-39h169v-77h-169v-171h-112v171z" />
    <glyph glyph-name="brokenbar" unicode="&#xa6;" horiz-adv-x="246" 
d="M76 736h94v-412h-94v412zM76 166h94v-420h-94v420z" />
    <glyph glyph-name="section" unicode="&#xa7;" horiz-adv-x="611" 
d="M295 -248q-45 0 -86 8.5t-76 24t-61 37t-41 46.5l69 70q28 -39 82.5 -64t116.5 -25q74 0 113 26.5t39 73.5q0 41 -29.5 61.5t-73.5 32.5t-96 22.5t-96 31t-73.5 57t-29.5 101.5q0 32 14 64.5t46 59.5q-57 48 -57 131q0 40 17 75.5t49.5 62.5t78.5 42.5t104 15.5
q70 0 117 -17t76.5 -39.5t44 -43.5t17.5 -29l-80 -56q-2 4 -12 18t-30 29.5t-50.5 28t-74.5 12.5q-77 0 -110 -30t-33 -72q0 -41 29.5 -61t74 -31.5t96 -21.5t96 -31.5t74 -60.5t29.5 -109q0 -33 -11.5 -63.5t-37.5 -53.5q23 -24 34 -53t11 -68q0 -42 -17.5 -79t-52 -64
t-84.5 -43t-116 -16zM433 128q23 25 23 61q0 39 -23 60t-60.5 33.5t-85 21.5t-95.5 24q-26 -26 -26 -61t23 -55t61 -33.5t86 -24t97 -26.5z" />
    <glyph glyph-name="dieresis" unicode="&#xa8;" horiz-adv-x="374" 
d="M91 577q-25 0 -42.5 17.5t-17.5 42.5q0 24 17.5 42t42.5 18t42 -18t17 -42q0 -25 -17 -42.5t-42 -17.5zM284 577q-24 0 -42 17.5t-18 42.5q0 24 18 42t42 18q25 0 42.5 -18t17.5 -42q0 -25 -17.5 -42.5t-42.5 -17.5z" />
    <glyph glyph-name="copyright" unicode="&#xa9;" horiz-adv-x="859" 
d="M429 -28q-84 0 -155.5 29.5t-124 82t-82 124t-29.5 155.5t29.5 155.5t82 124t124 82t155.5 29.5t155.5 -29.5t124 -82t82.5 -124t30 -155.5t-30 -155.5t-82.5 -124t-124 -82t-155.5 -29.5zM429 55q66 0 122 23.5t97 64.5t64 97.5t23 122.5q0 67 -23 124t-64 98.5t-97 65
t-122 23.5t-122 -23.5t-97 -65t-64 -98.5t-23 -124q0 -66 23 -122.5t64 -97.5t97 -64.5t122 -23.5zM435 124q-49 0 -88 17t-65.5 48t-40.5 74t-14 95q0 117 55.5 181.5t152.5 64.5q45 0 77.5 -14.5t54 -37t31.5 -49.5t10 -51l-80 -13q-4 16 -10.5 30.5t-17 26t-26.5 18
t-39 6.5q-50 0 -81.5 -40t-31.5 -119q0 -69 31 -111.5t91 -42.5q25 0 42 4.5t28.5 11.5t19 14t12.5 13l54 -56q-7 -10 -19.5 -22.5t-32.5 -23t-47.5 -17.5t-65.5 -7z" />
    <glyph glyph-name="ordfeminine" unicode="&#xaa;" horiz-adv-x="363" 
d="M133 404q-42 0 -68.5 21.5t-26.5 59.5q0 41 27 62.5t89 21.5h62v29q0 25 -10 34.5t-32 9.5q-38 0 -38 -28q0 -14 2 -16h-78q-2 2 -4 10t-2 22q0 36 30.5 59.5t89.5 23.5q63 0 93 -27.5t30 -81.5v-109q0 -19 23 -19v-63q-2 -2 -12.5 -5t-27.5 -3q-22 0 -37.5 10t-17.5 32
v3q-11 -19 -32.5 -32.5t-59.5 -13.5zM154 466q29 0 44.5 14t17.5 28v15h-60q-39 0 -39 -29q0 -15 10 -21.5t27 -6.5z" />
    <glyph glyph-name="guillemotleft" unicode="&#xab;" horiz-adv-x="506" 
d="M36 211v91l158 141l57 -62l-128 -124l128 -124l-57 -64zM251 211v91l158 141l57 -62l-129 -124l129 -124l-57 -64z" />
    <glyph glyph-name="registered" unicode="&#xae;" horiz-adv-x="859" 
d="M429 -28q-84 0 -155.5 29.5t-124 82t-82 124t-29.5 155.5t30 155.5t82.5 124t124 82t154.5 29.5q84 0 155.5 -29.5t124 -82t82.5 -124t30 -155.5t-30 -155.5t-82.5 -124t-124 -82t-155.5 -29.5zM429 55q66 0 122 23.5t97 65t64 97.5t23 122t-23 123t-64 99t-97 65.5
t-122 23.5t-122 -23.5t-97 -65t-64 -98.5t-23 -124q0 -66 23 -122.5t64 -97.5t97 -64.5t122 -23.5zM590 137q-33 0 -53.5 13t-34.5 32.5t-23.5 42.5t-20 42.5t-24.5 32.5t-37 13h-49v-172h-89v455h164q77 0 118.5 -33t41.5 -105q0 -31 -11 -52t-25 -34.5t-27 -19.5t-17 -7
q20 -13 31 -35.5t20.5 -43.5t21.5 -36.5t35 -15.5h17v-74q-4 -1 -14 -2t-24 -1zM405 387q87 0 87 65q0 67 -82 67h-62v-132h57z" />
    <glyph glyph-name="macron" unicode="&#xaf;" horiz-adv-x="400" 
d="M48 677h304v-79h-304v79z" />
    <glyph glyph-name="degree" unicode="&#xb0;" horiz-adv-x="321" 
d="M160 459q-27 0 -50 10t-40 27.5t-27 40.5t-10 50t10 50.5t27 41t40 27.5t50 10t50.5 -10t41 -27.5t27.5 -41t10 -50.5t-10 -50t-27.5 -40.5t-41 -27.5t-50.5 -10zM160 518q29 0 49.5 20t20.5 49t-20.5 49.5t-49.5 20.5t-48.5 -20.5t-19.5 -49.5t19.5 -49t48.5 -20z" />
    <glyph glyph-name="plusminus" unicode="&#xb1;" horiz-adv-x="485" 
d="M200 328h-146v80h146v149h82v-149h150v-80h-150v-160h-82v160zM50 110h383v-79h-383v79z" />
    <glyph glyph-name="acute" unicode="&#xb4;" horiz-adv-x="285" 
d="M118 752h133l-118 -184h-98z" />
    <glyph glyph-name="paragraph" unicode="&#xb6;" horiz-adv-x="621" 
d="M313 252h-70q-54 0 -94.5 16.5t-67.5 45.5t-40.5 70t-13.5 90q0 50 13.5 91.5t40.5 71.5t67.5 46.5t94.5 16.5h294v-700h-67v647h-90v-647h-67v252z" />
    <glyph glyph-name="periodcentered" unicode="&#xb7;" horiz-adv-x="227" 
d="M114 287q-29 0 -49 19.5t-20 48.5t20 49t49 20t48.5 -20t19.5 -49t-19.5 -48.5t-48.5 -19.5z" />
    <glyph glyph-name="cedilla" unicode="&#xb8;" horiz-adv-x="279" 
d="M136 -184q-22 0 -38 6t-27 13q-13 8 -23 19l25 44q7 -8 17 -14q8 -5 19 -9t25 -4q39 0 39 29q0 12 -17 22.5t-63 10.5l30 72h59l-17 -36q11 0 23 -5t21.5 -14t16 -22t6.5 -31q0 -41 -28.5 -61t-67.5 -20z" />
    <glyph glyph-name="ordmasculine" unicode="&#xba;" horiz-adv-x="357" 
d="M179 404q-69 0 -106 42t-37 112q0 69 37.5 110.5t105.5 41.5t105 -41.5t37 -110.5q0 -70 -37 -112t-105 -42zM179 477q27 0 41 21.5t14 57.5q0 37 -14.5 60t-40.5 23q-28 0 -43 -22.5t-15 -60.5q0 -37 14.5 -58t43.5 -21z" />
    <glyph glyph-name="guillemotright" unicode="&#xbb;" horiz-adv-x="505" 
d="M39 132l129 124l-129 124l57 63l158 -141v-91l-158 -142zM254 132l128 124l-128 124l57 63l158 -141v-91l-158 -142z" />
    <glyph glyph-name="onequarter" unicode="&#xbc;" horiz-adv-x="675" 
d="M384 726h82l-220 -726h-82zM117 585q-8 -12 -32.5 -24t-59.5 -12l-5 75q43 0 67.5 22.5t29.5 54.5h80v-382h-80v266zM525 81h-189v57l123 244h86l-117 -232h101v83h77v-83h50v-69h-50v-81h-81v81z" />
    <glyph glyph-name="onehalf" unicode="&#xbd;" horiz-adv-x="680" 
d="M376 726h83l-220 -726h-83zM110 585q-9 -12 -33 -24t-60 -12l-4 75q43 0 67.5 22.5t29.5 54.5h80v-382h-80v266zM366 33q0 33 14.5 57t36.5 42t47.5 32.5t47.5 29.5t36.5 31t14.5 38q0 24 -15.5 37.5t-44.5 13.5q-21 0 -34 -5.5t-19.5 -13.5t-9 -16.5t-2.5 -15.5h-74
q0 21 7 43t24 40t44.5 29t67.5 11q66 0 101.5 -31.5t35.5 -88.5q0 -32 -14 -55.5t-34.5 -41.5t-44.5 -31.5t-44.5 -25t-34.5 -22t-14 -22.5v-2h195v-66h-287v33z" />
    <glyph glyph-name="threequarters" unicode="&#xbe;" horiz-adv-x="729" 
d="M453 726h82l-220 -726h-82zM161 315q-51 0 -86.5 16.5t-57.5 60.5l60 39q17 -29 37 -40t49 -11q32 0 47 13t15 36q0 51 -62 51h-37v61h26q28 0 43.5 12t15.5 36q0 23 -14.5 35t-38.5 12q-23 0 -40.5 -10t-17.5 -36h-75q0 31 12 53t30.5 36.5t42.5 21t48 6.5
q62 0 97.5 -28.5t35.5 -78.5q0 -30 -14 -50t-37 -30q64 -20 64 -94q0 -48 -36.5 -79.5t-106.5 -31.5zM594 81h-188v57l122 244h86l-117 -232h101v83h77v-83h50v-69h-50v-81h-81v81z" />
    <glyph glyph-name="questiondown" unicode="&#xbf;" horiz-adv-x="466" 
d="M250 499q27 0 46.5 -19t19.5 -47q0 -27 -19.5 -46.5t-46.5 -19.5q-28 0 -47 19.5t-19 46.5q0 28 19 47t47 19zM297 285q0 -48 -11 -80.5t-28.5 -56.5t-37.5 -42.5t-37 -37t-28.5 -41t-11.5 -55.5q0 -44 24.5 -69.5t70.5 -25.5q47 0 74 27t27 75h105q0 -48 -16 -86.5
t-44.5 -64.5t-66.5 -40t-83 -14q-55 0 -94.5 16t-64 42.5t-36 60.5t-11.5 69q0 45 12 75.5t30.5 54t40 43t40 40.5t31 47t12.5 63h103z" />
    <glyph glyph-name="Agrave" unicode="&#xc0;" horiz-adv-x="642" 
d="M277 742l-119 144h140l83 -144h-104zM457 182h-273l-63 -182h-115l258 700h114l257 -700h-115zM426 272l-105 306l-106 -306h211z" />
    <glyph glyph-name="Aacute" unicode="&#xc1;" horiz-adv-x="642" 
d="M360 742h-103l83 144h139zM457 182h-273l-63 -182h-115l258 700h114l257 -700h-115zM426 272l-105 306l-106 -306h211z" />
    <glyph glyph-name="Acircumflex" unicode="&#xc2;" horiz-adv-x="642" 
d="M268 742h-95l88 144h121l88 -144h-97l-52 73zM457 182h-273l-63 -182h-115l258 700h114l257 -700h-115zM426 272l-105 306l-106 -306h211z" />
    <glyph glyph-name="Atilde" unicode="&#xc3;" horiz-adv-x="642" 
d="M170 745q-13 23 -13 54q0 33 22.5 56t64.5 23q23 0 41.5 -6t34.5 -13.5t30 -13.5t27 -6q24 0 24 23q0 7 -2 12t-4 9h77q12 -22 12 -54q0 -33 -22.5 -56.5t-68.5 -23.5q-23 0 -42 6t-34.5 13.5t-28.5 13.5t-25 6q-22 0 -22 -22q0 -7 2 -12t4 -9h-77zM457 182h-273
l-63 -182h-115l258 700h114l257 -700h-115zM426 272l-105 306l-106 -306h211z" />
    <glyph glyph-name="Adieresis" unicode="&#xc4;" horiz-adv-x="642" 
d="M212 745q-29 0 -49 21t-20 50t20 50t49 21t49.5 -21t20.5 -50t-20.5 -50t-49.5 -21zM438 745q-29 0 -49.5 21t-20.5 50t20.5 50t49.5 21q30 0 50 -21t20 -50t-20 -50t-50 -21zM457 182h-273l-63 -182h-115l258 700h114l257 -700h-115zM426 272l-105 306l-106 -306h211z
" />
    <glyph glyph-name="Aring" unicode="&#xc5;" horiz-adv-x="642" 
d="M321 704q-25 0 -46 9t-37 25t-25 37.5t-9 45.5q0 25 9 46.5t25 37.5t37 25t46 9t46.5 -9t37 -25t24.5 -37.5t9 -46.5q0 -24 -9 -45.5t-24.5 -37.5t-37 -25t-46.5 -9zM321 868q-20 0 -32.5 -13t-12.5 -34q0 -20 12.5 -33.5t32.5 -13.5t32.5 13.5t12.5 33.5q0 21 -12.5 34
t-32.5 13zM457 182h-273l-63 -182h-115l258 700h114l257 -700h-115zM426 272l-105 306l-106 -306h211z" />
    <glyph glyph-name="AE" unicode="&#xc6;" horiz-adv-x="835" 
d="M263 700h531v-95h-385l79 -213h241v-94h-206l74 -203h197v-95h-280l-66 184h-263l-64 -184h-116zM417 275l-100 286l-99 -286h199z" />
    <glyph glyph-name="Ccedilla" unicode="&#xc7;" horiz-adv-x="620" 
d="M594 123q-39 -62 -90.5 -93.5t-123.5 -36.5l-10 -31q32 -5 56.5 -22.5t24.5 -58.5q0 -44 -33.5 -67.5t-87.5 -23.5q-27 0 -52.5 8t-41.5 24l33 56q26 -21 56 -21q34 0 34 26q0 17 -20 26t-52 11l27 74q-63 6 -113.5 32.5t-85.5 72t-54 108t-19 140.5q0 83 21.5 150
t61.5 114t97 72t128 25q51 0 94 -13t73.5 -38t47.5 -62t17 -85q0 -15 -2 -31.5t-6 -28.5h-102q3 16 3.5 23.5t0.5 19.5q0 54 -35 85.5t-96 31.5q-88 0 -136 -68.5t-48 -193.5t53 -192.5t145 -67.5q53 0 90.5 21.5t69.5 70.5z" />
    <glyph glyph-name="Egrave" unicode="&#xc8;" horiz-adv-x="573" 
d="M156 886h141l83 -144h-105zM82 700h448v-99h-337v-195h287v-100h-287v-206h337v-100h-448v700z" />
    <glyph glyph-name="Eacute" unicode="&#xc9;" horiz-adv-x="573" 
d="M338 886h139l-119 -144h-103zM82 700h448v-99h-337v-195h287v-100h-287v-206h337v-100h-448v700z" />
    <glyph glyph-name="Ecircumflex" unicode="&#xca;" horiz-adv-x="573" 
d="M259 886h121l88 -144h-97l-52 73l-52 -73h-96zM82 700h448v-99h-337v-195h287v-100h-287v-206h337v-100h-448v700z" />
    <glyph glyph-name="Edieresis" unicode="&#xcb;" horiz-adv-x="573" 
d="M210 745q-29 0 -49 21t-20 50t20 50t49 21t49.5 -21t20.5 -50t-20.5 -50t-49.5 -21zM437 745q-29 0 -50 21t-21 50t21 50t50 21t49 -21t20 -50t-20 -50t-49 -21zM82 700h448v-99h-337v-195h287v-100h-287v-206h337v-100h-448v700z" />
    <glyph glyph-name="Igrave" unicode="&#xcc;" horiz-adv-x="275" 
d="M-25 886h140l83 -144h-105zM82 700h111v-700h-111v700z" />
    <glyph glyph-name="Iacute" unicode="&#xcd;" horiz-adv-x="275" 
d="M156 886h139l-118 -144h-104zM82 700h111v-700h-111v700z" />
    <glyph glyph-name="Icircumflex" unicode="&#xce;" horiz-adv-x="275" 
d="M78 886h121l87 -144h-97l-52 73l-52 -73h-96zM82 700h111v-700h-111v700z" />
    <glyph glyph-name="Idieresis" unicode="&#xcf;" horiz-adv-x="275" 
d="M28 745q-29 0 -49 21t-20 50t20 50t49 21t49.5 -21t20.5 -50t-20.5 -50t-49.5 -21zM255 745q-29 0 -50 21t-21 50t21 50t50 21t49 -21t20 -50t-20 -50t-49 -21zM82 700h111v-700h-111v700z" />
    <glyph glyph-name="Eth" unicode="&#xd0;" horiz-adv-x="706" 
d="M317 700q75 0 138.5 -19.5t110 -61.5t72.5 -108t26 -159q0 -94 -28 -161t-75 -109.5t-108.5 -62t-127.5 -19.5h-229v309h-83v87h83v304h221zM316 96q105 0 167.5 61.5t62.5 189.5q0 130 -60.5 193.5t-173.5 63.5h-104v-208h102v-87h-102v-213h108z" />
    <glyph glyph-name="Ntilde" unicode="&#xd1;" horiz-adv-x="680" 
d="M197 745q-5 11 -8.5 24t-3.5 30q0 33 22.5 56t63.5 23q23 0 41.5 -6t34.5 -13.5t30.5 -13.5t27.5 -6q23 0 23 23q0 14 -6 21h77q13 -24 13 -54q0 -33 -23 -56.5t-69 -23.5q-23 0 -42 6t-34.5 13.5t-28.5 13.5t-25 6q-22 0 -22 -22q0 -7 2 -12t4 -9h-77zM82 700h97
l299 -486l15 -34v520h105v-700h-97l-301 485l-13 29v-514h-105v700z" />
    <glyph glyph-name="Ograve" unicode="&#xd2;" horiz-adv-x="714" 
d="M194 886h140l83 -144h-104zM355 -8q-64 0 -120.5 20t-99.5 62.5t-68 110t-25 162.5q0 92 26 160t69.5 112.5t101 66.5t120.5 22t120 -20.5t100 -64t68 -111t25 -162.5q0 -92 -26 -159.5t-69.5 -111.5t-101 -65.5t-120.5 -21.5zM355 88q39 0 75 13.5t63.5 44.5t44 81
t16.5 122q0 74 -16 124t-43 80.5t-62 43.5t-74 13t-75 -13.5t-63.5 -44.5t-44 -81t-16.5 -123t16 -123t42.5 -80.5t62 -43.5t74.5 -13z" />
    <glyph glyph-name="Oacute" unicode="&#xd3;" horiz-adv-x="714" 
d="M376 886h138l-118 -144h-103zM355 -8q-64 0 -120.5 20t-99.5 62.5t-68 110t-25 162.5q0 92 26 160t69.5 112.5t101 66.5t120.5 22t120 -20.5t100 -64t68 -111t25 -162.5q0 -92 -26 -159.5t-69.5 -111.5t-101 -65.5t-120.5 -21.5zM355 88q39 0 75 13.5t63.5 44.5t44 81
t16.5 122q0 74 -16 124t-43 80.5t-62 43.5t-74 13t-75 -13.5t-63.5 -44.5t-44 -81t-16.5 -123t16 -123t42.5 -80.5t62 -43.5t74.5 -13z" />
    <glyph glyph-name="Ocircumflex" unicode="&#xd4;" horiz-adv-x="714" 
d="M297 886h121l88 -144h-98l-52 73l-52 -73h-96zM355 -8q-64 0 -120.5 20t-99.5 62.5t-68 110t-25 162.5q0 92 26 160t69.5 112.5t101 66.5t120.5 22t120 -20.5t100 -64t68 -111t25 -162.5q0 -92 -26 -159.5t-69.5 -111.5t-101 -65.5t-120.5 -21.5zM355 88q39 0 75 13.5
t63.5 44.5t44 81t16.5 122q0 74 -16 124t-43 80.5t-62 43.5t-74 13t-75 -13.5t-63.5 -44.5t-44 -81t-16.5 -123t16 -123t42.5 -80.5t62 -43.5t74.5 -13z" />
    <glyph glyph-name="Otilde" unicode="&#xd5;" horiz-adv-x="714" 
d="M206 745q-13 23 -13 54q0 33 22.5 56t64.5 23q23 0 41.5 -6t34.5 -13.5t30 -13.5t27 -6q24 0 24 23q0 7 -2 12t-4 9h77q12 -22 12 -54q0 -33 -22.5 -56.5t-69.5 -23.5q-23 0 -41.5 6t-34 13.5t-28.5 13.5t-25 6q-22 0 -22 -22q0 -13 6 -21h-77zM355 -8q-64 0 -120.5 20
t-99.5 62.5t-68 110t-25 162.5q0 92 26 160t69.5 112.5t101 66.5t120.5 22t120 -20.5t100 -64t68 -111t25 -162.5q0 -92 -26 -159.5t-69.5 -111.5t-101 -65.5t-120.5 -21.5zM355 88q39 0 75 13.5t63.5 44.5t44 81t16.5 122q0 74 -16 124t-43 80.5t-62 43.5t-74 13t-75 -13.5
t-63.5 -44.5t-44 -81t-16.5 -123t16 -123t42.5 -80.5t62 -43.5t74.5 -13z" />
    <glyph glyph-name="Odieresis" unicode="&#xd6;" horiz-adv-x="714" 
d="M248 745q-30 0 -50 21t-20 50t20 50t50 21q29 0 49 -21t20 -50t-20 -50t-49 -21zM474 745q-29 0 -50 21t-21 50t21 50t50 21t49 -21t20 -50t-20 -50t-49 -21zM355 -8q-64 0 -120.5 20t-99.5 62.5t-68 110t-25 162.5q0 92 26 160t69.5 112.5t101 66.5t120.5 22t120 -20.5
t100 -64t68 -111t25 -162.5q0 -92 -26 -159.5t-69.5 -111.5t-101 -65.5t-120.5 -21.5zM355 88q39 0 75 13.5t63.5 44.5t44 81t16.5 122q0 74 -16 124t-43 80.5t-62 43.5t-74 13t-75 -13.5t-63.5 -44.5t-44 -81t-16.5 -123t16 -123t42.5 -80.5t62 -43.5t74.5 -13z" />
    <glyph glyph-name="multiply" unicode="&#xd7;" horiz-adv-x="467" 
d="M45 131l132 131l-132 132l57 56l131 -131l132 131l57 -56l-132 -132l132 -131l-57 -57l-132 132l-131 -132z" />
    <glyph glyph-name="Oslash" unicode="&#xd8;" horiz-adv-x="715" 
d="M583 620q42 -44 65.5 -110t23.5 -160q0 -92 -26 -159.5t-69.5 -111.5t-101 -65.5t-120.5 -21.5q-44 0 -84 9t-75 29l-30 -46h-101l64 97q-40 44 -63 109t-23 157t26 160t69.5 112.5t101 66.5t120.5 22q43 0 82.5 -9t74.5 -28l30 45h99zM160 348q0 -55 9 -96.5t25 -71.5
l266 404q-43 26 -100 26q-39 0 -75 -13.5t-64 -44.5t-44.5 -81t-16.5 -123zM355 88q39 0 75 13.5t64 44.5t44.5 81t16.5 122q0 57 -9.5 100t-26.5 73l-267 -406q23 -15 49 -21.5t54 -6.5z" />
    <glyph glyph-name="Ugrave" unicode="&#xd9;" horiz-adv-x="673" 
d="M174 886h141l83 -144h-105zM338 -6q-55 0 -103 14.5t-84 49t-56.5 90.5t-20.5 140v412h112v-420q0 -92 37.5 -139.5t114.5 -47.5t114 47.5t37 139.5v420h110v-412q0 -84 -20 -140t-55.5 -90.5t-83 -49t-102.5 -14.5z" />
    <glyph glyph-name="Uacute" unicode="&#xda;" horiz-adv-x="673" 
d="M356 886h139l-119 -144h-103zM338 -6q-55 0 -103 14.5t-84 49t-56.5 90.5t-20.5 140v412h112v-420q0 -92 37.5 -139.5t114.5 -47.5t114 47.5t37 139.5v420h110v-412q0 -84 -20 -140t-55.5 -90.5t-83 -49t-102.5 -14.5z" />
    <glyph glyph-name="Ucircumflex" unicode="&#xdb;" horiz-adv-x="673" 
d="M277 886h121l88 -144h-97l-52 73l-52 -73h-96zM338 -6q-55 0 -103 14.5t-84 49t-56.5 90.5t-20.5 140v412h112v-420q0 -92 37.5 -139.5t114.5 -47.5t114 47.5t37 139.5v420h110v-412q0 -84 -20 -140t-55.5 -90.5t-83 -49t-102.5 -14.5z" />
    <glyph glyph-name="Udieresis" unicode="&#xdc;" horiz-adv-x="673" 
d="M228 745q-29 0 -49 21t-20 50t20 50t49 21t49.5 -21t20.5 -50t-20.5 -50t-49.5 -21zM455 745q-29 0 -50 21t-21 50t21 50t50 21t49 -21t20 -50t-20 -50t-49 -21zM338 -6q-55 0 -103 14.5t-84 49t-56.5 90.5t-20.5 140v412h112v-420q0 -92 37.5 -139.5t114.5 -47.5
t114 47.5t37 139.5v420h110v-412q0 -84 -20 -140t-55.5 -90.5t-83 -49t-102.5 -14.5z" />
    <glyph glyph-name="Yacute" unicode="&#xdd;" horiz-adv-x="608" 
d="M324 886h139l-119 -144h-103zM249 287l-238 413h131l165 -309l167 309h125l-239 -410v-290h-111v287z" />
    <glyph glyph-name="Thorn" unicode="&#xde;" horiz-adv-x="615" 
d="M82 700h114v-116h119q122 0 193 -57t71 -176q0 -58 -19.5 -100.5t-53 -70.5t-79 -41.5t-98.5 -13.5h-133v-125h-114v700zM309 218q76 0 114.5 34t38.5 99q0 63 -38 100.5t-119 37.5h-109v-271h113z" />
    <glyph glyph-name="germandbls" unicode="&#xdf;" horiz-adv-x="582" 
d="M365 -13q-36 0 -73 8.5t-60 24.5l40 86q17 -12 37.5 -19t46.5 -7q51 0 73 15.5t22 47.5q0 23 -13.5 37.5t-34 26.5t-44 23t-44 25.5t-34 36t-13.5 53.5q0 41 19 67.5t41.5 48.5t41 44t18.5 53q0 38 -23 57.5t-65 19.5q-47 0 -72.5 -29t-25.5 -89v-517h-110v395h-70v87h70
v41q0 97 57.5 153.5t156.5 56.5q87 0 139 -43.5t52 -120.5q0 -45 -18.5 -73.5t-41 -49.5t-41 -39.5t-18.5 -44.5q0 -18 13.5 -30.5t33.5 -24.5t44 -25t44 -31.5t33.5 -45t13.5 -64.5q0 -69 -49.5 -111.5t-145.5 -42.5z" />
    <glyph glyph-name="agrave" unicode="&#xe0;" horiz-adv-x="557" 
d="M109 732h131l82 -184h-94zM230 -13q-43 0 -78.5 18t-61 50.5t-39.5 78.5t-14 102q0 57 15 104.5t42 82t65 53.5t84 19q92 0 137 -65v52h101v-351q0 -27 8.5 -38t31.5 -11v-81q-7 -2 -20.5 -4t-28.5 -2q-41 0 -63.5 19.5t-24.5 53.5l-1 3q-20 -38 -56.5 -61t-96.5 -23z
M265 79q45 0 70.5 25t36.5 67v141q-4 17 -12 33t-21 29.5t-31.5 21.5t-42.5 8q-57 0 -87 -43t-30 -124q0 -73 29.5 -115.5t87.5 -42.5z" />
    <glyph glyph-name="aacute" unicode="&#xe1;" horiz-adv-x="557" 
d="M297 732h130l-118 -184h-95zM230 -13q-43 0 -78.5 18t-61 50.5t-39.5 78.5t-14 102q0 57 15 104.5t42 82t65 53.5t84 19q92 0 137 -65v52h101v-351q0 -27 8.5 -38t31.5 -11v-81q-7 -2 -20.5 -4t-28.5 -2q-41 0 -63.5 19.5t-24.5 53.5l-1 3q-20 -38 -56.5 -61t-96.5 -23z
M265 79q45 0 70.5 25t36.5 67v141q-4 17 -12 33t-21 29.5t-31.5 21.5t-42.5 8q-57 0 -87 -43t-30 -124q0 -73 29.5 -115.5t87.5 -42.5z" />
    <glyph glyph-name="acircumflex" unicode="&#xe2;" horiz-adv-x="557" 
d="M219 730h115l89 -181h-96l-51 103l-52 -103h-95zM230 -13q-43 0 -78.5 18t-61 50.5t-39.5 78.5t-14 102q0 57 15 104.5t42 82t65 53.5t84 19q92 0 137 -65v52h101v-351q0 -27 8.5 -38t31.5 -11v-81q-7 -2 -20.5 -4t-28.5 -2q-41 0 -63.5 19.5t-24.5 53.5l-1 3
q-20 -38 -56.5 -61t-96.5 -23zM265 79q45 0 70.5 25t36.5 67v141q-4 17 -12 33t-21 29.5t-31.5 21.5t-42.5 8q-57 0 -87 -43t-30 -124q0 -73 29.5 -115.5t87.5 -42.5z" />
    <glyph glyph-name="atilde" unicode="&#xe3;" horiz-adv-x="557" 
d="M130 564q-13 23 -13 54q0 34 22.5 57.5t68.5 23.5q20 0 37 -6.5t32.5 -14t29.5 -14t26 -6.5q25 0 25 22q0 7 -2 13t-4 10h75q12 -22 12 -54q0 -34 -22 -58t-67 -24q-23 0 -41.5 6.5t-33.5 14t-27 14t-23 6.5q-25 0 -25 -22q0 -14 6 -22h-76zM230 -13q-43 0 -78.5 18
t-61 50.5t-39.5 78.5t-14 102q0 57 15 104.5t42 82t65 53.5t84 19q92 0 137 -65v52h101v-351q0 -27 8.5 -38t31.5 -11v-81q-7 -2 -20.5 -4t-28.5 -2q-41 0 -63.5 19.5t-24.5 53.5l-1 3q-20 -38 -56.5 -61t-96.5 -23zM265 79q45 0 70.5 25t36.5 67v141q-4 17 -12 33t-21 29.5
t-31.5 21.5t-42.5 8q-57 0 -87 -43t-30 -124q0 -73 29.5 -115.5t87.5 -42.5z" />
    <glyph glyph-name="adieresis" unicode="&#xe4;" horiz-adv-x="557" 
d="M177 570q-28 0 -47 20t-19 48t19 49t47 21q29 0 49 -21t20 -49t-20 -48t-49 -20zM377 570q-29 0 -49 20t-20 48t20 49t49 21t48 -21t19 -49t-19 -48t-48 -20zM230 -13q-43 0 -78.5 18t-61 50.5t-39.5 78.5t-14 102q0 57 15 104.5t42 82t65 53.5t84 19q92 0 137 -65v52
h101v-351q0 -27 8.5 -38t31.5 -11v-81q-7 -2 -20.5 -4t-28.5 -2q-41 0 -63.5 19.5t-24.5 53.5l-1 3q-20 -38 -56.5 -61t-96.5 -23zM265 79q45 0 70.5 25t36.5 67v141q-4 17 -12 33t-21 29.5t-31.5 21.5t-42.5 8q-57 0 -87 -43t-30 -124q0 -73 29.5 -115.5t87.5 -42.5z" />
    <glyph glyph-name="aring" unicode="&#xe5;" horiz-adv-x="557" 
d="M277 528q-24 0 -44 8.5t-35 23.5t-23.5 35.5t-8.5 43.5q0 24 8.5 44.5t23.5 35.5t35 23.5t44 8.5t44 -8.5t35 -23.5t23.5 -35.5t8.5 -44.5q0 -23 -8.5 -43.5t-23.5 -35.5t-35 -23.5t-44 -8.5zM277 596q19 0 31 12t12 31t-12 31t-31 12t-31 -12t-12 -31t12 -31t31 -12z
M230 -13q-43 0 -78.5 18t-61 50.5t-39.5 78.5t-14 102q0 57 15 104.5t42 82t65 53.5t84 19q92 0 137 -65v52h101v-351q0 -27 8.5 -38t31.5 -11v-81q-7 -2 -20.5 -4t-28.5 -2q-41 0 -63.5 19.5t-24.5 53.5l-1 3q-20 -38 -56.5 -61t-96.5 -23zM265 79q45 0 70.5 25t36.5 67
v141q-4 17 -12 33t-21 29.5t-31.5 21.5t-42.5 8q-57 0 -87 -43t-30 -124q0 -73 29.5 -115.5t87.5 -42.5z" />
    <glyph glyph-name="ae" unicode="&#xe6;" horiz-adv-x="787" 
d="M749 274v-22t-1 -23h-305q2 -75 34.5 -113t90.5 -38q45 0 74 20t44 43l62 -55q-9 -15 -25 -32.5t-39.5 -32.5t-54 -24.5t-68.5 -9.5q-69 0 -118 28t-75 79q-35 -57 -81 -81.5t-104 -24.5q-73 0 -113 35t-40 96q0 65 47 100t144 36h110v62q0 89 -89 89q-84 0 -84 -71
q0 -12 2.5 -21.5t5.5 -14.5h-99q-3 5 -7 19.5t-4 34.5q0 65 50 103.5t140 38.5q56 0 95 -18.5t62 -48.5q28 31 65.5 49t85.5 18q97 0 146 -59t49 -162zM643 300q0 47 -22.5 76.5t-70.5 29.5t-71.5 -29t-31.5 -77h196zM208 72q49 0 78.5 26t44.5 69v22l-109 -1
q-42 0 -61.5 -16.5t-19.5 -42.5q0 -57 67 -57z" />
    <glyph glyph-name="ccedilla" unicode="&#xe7;" horiz-adv-x="483" 
d="M455 85q-22 -36 -59.5 -62.5t-94.5 -33.5l-9 -27q32 -5 56.5 -22.5t24.5 -58.5q0 -44 -33.5 -67.5t-87.5 -23.5q-27 0 -52.5 8t-41.5 24l34 56q24 -21 55 -21q34 0 34 26q0 17 -19.5 26t-51.5 11l25 69q-94 10 -146 75t-52 177q0 121 61 187.5t167 66.5q85 0 133.5 -38.5
t48.5 -115.5q0 -15 -2 -30.5t-6 -24.5l-95 -1q5 15 5 40q0 79 -85 79q-55 0 -85.5 -40.5t-30.5 -119.5q0 -81 34 -123t91 -42q47 0 72.5 18t44.5 45z" />
    <glyph glyph-name="egrave" unicode="&#xe8;" horiz-adv-x="482" 
d="M203 548l-119 184h131l82 -184h-94zM454 86q-33 -53 -84.5 -76t-115.5 -23q-103 2 -160.5 62.5t-57.5 175.5q0 60 17.5 109.5t48.5 85.5t74.5 55.5t95.5 19.5q79 0 124 -39.5t45 -107.5q0 -51 -26 -82t-67.5 -49t-93 -25.5t-103.5 -10.5q10 -54 39.5 -78.5t76.5 -24.5
q42 0 69.5 15t51.5 48zM270 405q-54 0 -85.5 -39t-36.5 -110q32 1 66 4.5t62 13t45.5 26t17.5 43.5q0 62 -69 62z" />
    <glyph glyph-name="eacute" unicode="&#xe9;" horiz-adv-x="482" 
d="M284 548h-95l83 184h131zM454 86q-33 -53 -84.5 -76t-115.5 -23q-103 2 -160.5 62.5t-57.5 175.5q0 60 17.5 109.5t48.5 85.5t74.5 55.5t95.5 19.5q79 0 124 -39.5t45 -107.5q0 -51 -26 -82t-67.5 -49t-93 -25.5t-103.5 -10.5q10 -54 39.5 -78.5t76.5 -24.5q42 0 69.5 15
t51.5 48zM270 405q-54 0 -85.5 -39t-36.5 -110q32 1 66 4.5t62 13t45.5 26t17.5 43.5q0 62 -69 62z" />
    <glyph glyph-name="ecircumflex" unicode="&#xea;" horiz-adv-x="482" 
d="M199 549h-95l90 181h116l88 -181h-96l-51 103zM454 86q-33 -53 -84.5 -76t-115.5 -23q-103 2 -160.5 62.5t-57.5 175.5q0 60 17.5 109.5t48.5 85.5t74.5 55.5t95.5 19.5q79 0 124 -39.5t45 -107.5q0 -51 -26 -82t-67.5 -49t-93 -25.5t-103.5 -10.5q10 -54 39.5 -78.5
t76.5 -24.5q42 0 69.5 15t51.5 48zM270 405q-54 0 -85.5 -39t-36.5 -110q32 1 66 4.5t62 13t45.5 26t17.5 43.5q0 62 -69 62z" />
    <glyph glyph-name="edieresis" unicode="&#xeb;" horiz-adv-x="482" 
d="M153 570q-29 0 -48 20t-19 48t19 49t48 21q28 0 48 -21t20 -49t-20 -48t-48 -20zM352 570q-29 0 -49 20t-20 48t20 49t49 21t48 -21t19 -49t-19 -48t-48 -20zM454 86q-33 -53 -84.5 -76t-115.5 -23q-103 2 -160.5 62.5t-57.5 175.5q0 60 17.5 109.5t48.5 85.5t74.5 55.5
t95.5 19.5q79 0 124 -39.5t45 -107.5q0 -51 -26 -82t-67.5 -49t-93 -25.5t-103.5 -10.5q10 -54 39.5 -78.5t76.5 -24.5q42 0 69.5 15t51.5 48zM270 405q-54 0 -85.5 -39t-36.5 -110q32 1 66 4.5t62 13t45.5 26t17.5 43.5q0 62 -69 62z" />
    <glyph glyph-name="igrave" unicode="&#xec;" horiz-adv-x="241" 
d="M-47 732h130l83 -184h-95zM66 482h109v-482h-109v482z" />
    <glyph glyph-name="iacute" unicode="&#xed;" horiz-adv-x="241" 
d="M140 732h131l-119 -184h-95zM66 482h109v-482h-109v482z" />
    <glyph glyph-name="icircumflex" unicode="&#xee;" horiz-adv-x="241" 
d="M62 730h116l88 -181h-95l-52 103l-51 -103h-95zM66 482h109v-482h-109v482z" />
    <glyph glyph-name="idieresis" unicode="&#xef;" horiz-adv-x="241" 
d="M21 570q-29 0 -48 20t-19 48t19 49t48 21t48.5 -21t19.5 -49t-19.5 -48t-48.5 -20zM221 570q-29 0 -49.5 20t-20.5 48t20.5 49t49.5 21q28 0 47 -21t19 -49t-19 -48t-47 -20zM66 482h109v-482h-109v482z" />
    <glyph glyph-name="eth" unicode="&#xf0;" horiz-adv-x="544" 
d="M402 617q98 -94 98 -289q0 -171 -62.5 -256t-177.5 -85q-107 0 -165.5 63t-58.5 171q0 51 16 93.5t44.5 73.5t67.5 48.5t85 17.5q54 0 88.5 -17t57.5 -41q-3 109 -78 169l-112 -70l-39 61l79 47q-51 17 -110 17v91q126 -5 206 -49l105 63l38 -57zM263 79q36 0 60.5 17
t40 46.5t22 69t6.5 85.5q-20 29 -51 47t-75 18q-55 0 -88 -38.5t-33 -101.5q0 -69 33.5 -106t84.5 -37z" />
    <glyph glyph-name="ntilde" unicode="&#xf1;" horiz-adv-x="558" 
d="M131 564q-13 23 -13 54q0 34 22.5 57.5t67.5 23.5q20 0 37.5 -6.5t32.5 -14t29 -14t26 -6.5q25 0 25 22q0 16 -6 23h75q13 -24 13 -54q0 -34 -22.5 -58t-67.5 -24q-23 0 -41.5 6.5t-33.5 14t-27 14t-22 6.5q-26 0 -26 -22q0 -14 6 -22h-75zM480 -4q-52 0 -77 28t-25 81
v193q0 49 -23.5 75t-66.5 26q-46 0 -74.5 -30.5t-28.5 -81.5v-287h-109v357q0 24 -9.5 34.5t-31.5 10.5v82q8 2 21 3.5t29 1.5q41 0 63 -21t24 -59v-2q18 40 55.5 64t91.5 24q81 0 125 -49.5t44 -140.5v-177q0 -46 41 -46v-81q-7 -2 -20.5 -3.5t-28.5 -1.5z" />
    <glyph glyph-name="ograve" unicode="&#xf2;" horiz-adv-x="530" 
d="M97 732h131l82 -184h-94zM262 -13q-107 0 -166 68.5t-59 185.5q0 59 16 106t46 80t72.5 50.5t96.5 17.5q53 0 95 -17.5t71 -50.5t44 -80t15 -105t-16 -105t-46 -80.5t-72.5 -51.5t-96.5 -18zM265 79q56 0 86 41t30 121t-30.5 121.5t-85.5 41.5q-54 0 -85 -41.5
t-31 -121.5t30.5 -121t85.5 -41z" />
    <glyph glyph-name="oacute" unicode="&#xf3;" horiz-adv-x="530" 
d="M284 732h131l-118 -184h-96zM262 -13q-107 0 -166 68.5t-59 185.5q0 59 16 106t46 80t72.5 50.5t96.5 17.5q53 0 95 -17.5t71 -50.5t44 -80t15 -105t-16 -105t-46 -80.5t-72.5 -51.5t-96.5 -18zM265 79q56 0 86 41t30 121t-30.5 121.5t-85.5 41.5q-54 0 -85 -41.5
t-31 -121.5t30.5 -121t85.5 -41z" />
    <glyph glyph-name="ocircumflex" unicode="&#xf4;" horiz-adv-x="530" 
d="M206 730h116l89 -181h-96l-51 103l-52 -103h-95zM262 -13q-107 0 -166 68.5t-59 185.5q0 59 16 106t46 80t72.5 50.5t96.5 17.5q53 0 95 -17.5t71 -50.5t44 -80t15 -105t-16 -105t-46 -80.5t-72.5 -51.5t-96.5 -18zM265 79q56 0 86 41t30 121t-30.5 121.5t-85.5 41.5
q-54 0 -85 -41.5t-31 -121.5t30.5 -121t85.5 -41z" />
    <glyph glyph-name="otilde" unicode="&#xf5;" horiz-adv-x="530" 
d="M118 564q-13 23 -13 54q0 34 22.5 57.5t67.5 23.5q20 0 37.5 -6.5t32.5 -14t29 -14t26 -6.5q26 0 26 22q0 14 -7 23h75q13 -24 13 -54q0 -34 -22.5 -58t-67.5 -24q-23 0 -41.5 6.5t-33.5 14t-27 14t-22 6.5q-26 0 -26 -22q0 -15 7 -22h-76zM262 -13q-107 0 -166 68.5
t-59 185.5q0 59 16 106t46 80t72.5 50.5t96.5 17.5q53 0 95 -17.5t71 -50.5t44 -80t15 -105t-16 -105t-46 -80.5t-72.5 -51.5t-96.5 -18zM265 79q56 0 86 41t30 121t-30.5 121.5t-85.5 41.5q-54 0 -85 -41.5t-31 -121.5t30.5 -121t85.5 -41z" />
    <glyph glyph-name="odieresis" unicode="&#xf6;" horiz-adv-x="530" 
d="M165 570q-28 0 -47.5 20t-19.5 48t19.5 49t47.5 21q29 0 48.5 -21t19.5 -49t-19.5 -48t-48.5 -20zM365 570q-29 0 -49 20t-20 48t20 49t49 21q28 0 47.5 -21t19.5 -49t-19.5 -48t-47.5 -20zM262 -13q-107 0 -166 68.5t-59 185.5q0 59 16 106t46 80t72.5 50.5t96.5 17.5
q53 0 95 -17.5t71 -50.5t44 -80t15 -105t-16 -105t-46 -80.5t-72.5 -51.5t-96.5 -18zM265 79q56 0 86 41t30 121t-30.5 121.5t-85.5 41.5q-54 0 -85 -41.5t-31 -121.5t30.5 -121t85.5 -41z" />
    <glyph glyph-name="divide" unicode="&#xf7;" horiz-adv-x="437" 
d="M220 357q-31 0 -52.5 22t-21.5 53t21.5 52.5t52.5 21.5t52.5 -21.5t21.5 -52.5t-21.5 -53t-52.5 -22zM37 307h362v-80h-362v80zM221 18q-31 0 -53 22.5t-22 53.5t22 53t53 22t53 -22t22 -53t-22 -53.5t-53 -22.5z" />
    <glyph glyph-name="oslash" unicode="&#xf8;" horiz-adv-x="530" 
d="M431 430q30 -33 46 -80.5t16 -107.5q0 -58 -16 -105t-46 -80.5t-72.5 -51.5t-96.5 -18q-59 0 -107 23l-23 -36h-85l52 78q-62 67 -62 189q0 59 16 106t46 80t72.5 50.5t96.5 17.5q61 0 107 -23l24 36h83zM149 241q0 -53 14 -90l158 239q-25 14 -56 14q-54 0 -85 -41.5
t-31 -121.5zM265 79q56 0 86 41t30 121q0 52 -14 91l-157 -239q25 -14 55 -14z" />
    <glyph glyph-name="ugrave" unicode="&#xf9;" horiz-adv-x="547" 
d="M103 732h131l82 -184h-95zM222 -13q-78 0 -120 45t-42 130v320h109v-300q0 -55 24 -77t66 -22q26 0 45 10t32 26t19 35.5t6 38.5v289h110v-354q0 -23 9 -34.5t32 -11.5v-82q-3 -1 -16.5 -3t-33.5 -2q-42 0 -63.5 20.5t-23.5 57.5l-1 4q-18 -37 -52.5 -63.5t-99.5 -26.5z
" />
    <glyph glyph-name="uacute" unicode="&#xfa;" horiz-adv-x="547" 
d="M290 732h131l-119 -184h-95zM222 -13q-78 0 -120 45t-42 130v320h109v-300q0 -55 24 -77t66 -22q26 0 45 10t32 26t19 35.5t6 38.5v289h110v-354q0 -23 9 -34.5t32 -11.5v-82q-3 -1 -16.5 -3t-33.5 -2q-42 0 -63.5 20.5t-23.5 57.5l-1 4q-18 -37 -52.5 -63.5t-99.5 -26.5
z" />
    <glyph glyph-name="ucircumflex" unicode="&#xfb;" horiz-adv-x="547" 
d="M212 730h116l89 -181h-96l-52 103l-51 -103h-95zM222 -13q-78 0 -120 45t-42 130v320h109v-300q0 -55 24 -77t66 -22q26 0 45 10t32 26t19 35.5t6 38.5v289h110v-354q0 -23 9 -34.5t32 -11.5v-82q-3 -1 -16.5 -3t-33.5 -2q-42 0 -63.5 20.5t-23.5 57.5l-1 4
q-18 -37 -52.5 -63.5t-99.5 -26.5z" />
    <glyph glyph-name="udieresis" unicode="&#xfc;" horiz-adv-x="547" 
d="M171 570q-28 0 -47.5 20t-19.5 48t19.5 49t47.5 21q29 0 48.5 -21t19.5 -49t-19.5 -48t-48.5 -20zM371 570q-29 0 -49 20t-20 48t20 49t49 21q28 0 47 -21t19 -49t-19 -48t-47 -20zM222 -13q-78 0 -120 45t-42 130v320h109v-300q0 -55 24 -77t66 -22q26 0 45 10t32 26
t19 35.5t6 38.5v289h110v-354q0 -23 9 -34.5t32 -11.5v-82q-3 -1 -16.5 -3t-33.5 -2q-42 0 -63.5 20.5t-23.5 57.5l-1 4q-18 -37 -52.5 -63.5t-99.5 -26.5z" />
    <glyph glyph-name="yacute" unicode="&#xfd;" horiz-adv-x="535" 
d="M287 732h130l-118 -184h-95zM247 -247q-78 0 -128 25.5t-73 70.5l72 57q20 -32 50 -47.5t78 -15.5q60 0 90.5 33t30.5 91v109q-21 -39 -60.5 -60.5t-93.5 -21.5q-153 0 -153 173v315h109v-294q0 -99 82 -99q21 0 40.5 9.5t35 26t24.5 37.5t9 43v277h111v-513
q0 -100 -58.5 -158t-165.5 -58z" />
    <glyph glyph-name="thorn" unicode="&#xfe;" horiz-adv-x="546" 
d="M64 726h110v-301q21 35 57.5 52.5t82.5 17.5q44 0 80 -18t61.5 -51t39.5 -79.5t14 -102.5q0 -57 -15.5 -104t-43 -81t-65 -53t-81.5 -19q-45 0 -79.5 16.5t-50.5 41.5v-274h-110v955zM284 79q54 0 84 42t30 122q0 77 -31.5 118.5t-84.5 41.5q-43 0 -70.5 -26t-38.5 -66
v-142q10 -38 36.5 -64t74.5 -26z" />
    <glyph glyph-name="ydieresis" unicode="&#xff;" horiz-adv-x="535" 
d="M167 570q-28 0 -47 20t-19 48t19 49t47 21q29 0 49 -21t20 -49t-20 -48t-49 -20zM367 570q-29 0 -49 20t-20 48t20 49t49 21t48 -21t19 -49t-19 -48t-48 -20zM247 -247q-78 0 -128 25.5t-73 70.5l72 57q20 -32 50 -47.5t78 -15.5q60 0 90.5 33t30.5 91v109
q-21 -39 -60.5 -60.5t-93.5 -21.5q-153 0 -153 173v315h109v-294q0 -99 82 -99q21 0 40.5 9.5t35 26t24.5 37.5t9 43v277h111v-513q0 -100 -58.5 -158t-165.5 -58z" />
    <glyph glyph-name="Amacron" unicode="&#x100;" horiz-adv-x="642" 
d="M463 767h-283v86h283v-86zM457 182h-273l-63 -182h-115l258 700h114l257 -700h-115zM426 272l-105 306l-106 -306h211z" />
    <glyph glyph-name="amacron" unicode="&#x101;" horiz-adv-x="557" 
d="M142 679h271v-85h-271v85zM230 -13q-43 0 -78.5 18t-61 50.5t-39.5 78.5t-14 102q0 57 15 104.5t42 82t65 53.5t84 19q92 0 137 -65v52h101v-351q0 -27 8.5 -38t31.5 -11v-81q-7 -2 -20.5 -4t-28.5 -2q-41 0 -63.5 19.5t-24.5 53.5l-1 3q-20 -38 -56.5 -61t-96.5 -23z
M265 79q45 0 70.5 25t36.5 67v141q-4 17 -12 33t-21 29.5t-31.5 21.5t-42.5 8q-57 0 -87 -43t-30 -124q0 -73 29.5 -115.5t87.5 -42.5z" />
    <glyph glyph-name="Abreve" unicode="&#x102;" horiz-adv-x="642" 
d="M320 742q-65 0 -100 40t-35 103h82q0 -26 13.5 -43.5t39.5 -17.5q28 0 41 17.5t13 43.5h83q0 -63 -36 -103t-101 -40zM457 182h-273l-63 -182h-115l258 700h114l257 -700h-115zM426 272l-105 306l-106 -306h211z" />
    <glyph glyph-name="abreve" unicode="&#x103;" horiz-adv-x="557" 
d="M277 563q-39 0 -65 12t-42 32t-22.5 46.5t-6.5 56.5h82q0 -64 54 -64t54 64h82q0 -30 -7 -56.5t-23 -46.5t-42 -32t-64 -12zM230 -13q-43 0 -78.5 18t-61 50.5t-39.5 78.5t-14 102q0 57 15 104.5t42 82t65 53.5t84 19q92 0 137 -65v52h101v-351q0 -27 8.5 -38t31.5 -11
v-81q-7 -2 -20.5 -4t-28.5 -2q-41 0 -63.5 19.5t-24.5 53.5l-1 3q-20 -38 -56.5 -61t-96.5 -23zM265 79q45 0 70.5 25t36.5 67v141q-4 17 -12 33t-21 29.5t-31.5 21.5t-42.5 8q-57 0 -87 -43t-30 -124q0 -73 29.5 -115.5t87.5 -42.5z" />
    <glyph glyph-name="Aogonek" unicode="&#x104;" horiz-adv-x="642" 
d="M646 -163q-13 -13 -34 -20t-46 -7q-51 0 -77 23.5t-26 66.5q0 28 15 55t41 49l-62 178h-273l-63 -182h-115l258 700h114l257 -700h-17q-30 -11 -47.5 -33t-17.5 -48q0 -20 9 -29t24 -9q11 0 18 3t12 7zM426 272l-105 306l-106 -306h211z" />
    <glyph glyph-name="aogonek" unicode="&#x105;" horiz-adv-x="557" 
d="M543 -163q-13 -13 -34 -20t-46 -7q-51 0 -77 23.5t-26 66.5q0 29 15.5 56.5t44.5 50.5q-34 19 -36 61l-1 3q-20 -38 -56.5 -61t-96.5 -23q-43 0 -78.5 18t-61 50.5t-39.5 78.5t-14 102q0 57 15 104.5t42 82t65 53.5t84 19q92 0 137 -65v52h101v-351q0 -27 8.5 -38
t31.5 -11v-81q-6 -2 -10 -2q-29 -11 -45 -33t-16 -47q0 -20 9.5 -29t23.5 -9q11 0 18 3t12 7zM372 312q-4 17 -12 33t-21 29.5t-31.5 21.5t-42.5 8q-57 0 -87 -43t-30 -124q0 -73 29.5 -115.5t87.5 -42.5q45 0 70.5 25t36.5 67v141z" />
    <glyph glyph-name="Cacute" unicode="&#x106;" horiz-adv-x="620" 
d="M364 886h139l-119 -144h-103zM352 -8q-71 0 -128.5 24t-97.5 70t-61.5 111.5t-21.5 149.5q0 83 21.5 150t61.5 114t97 72t127 25q52 0 94.5 -13t73 -38t47.5 -62t17 -85q0 -15 -1.5 -31.5t-6.5 -28.5h-102q3 16 4 23.5t1 19.5q0 54 -35 85.5t-96 31.5q-89 0 -137 -68.5
t-48 -193.5t53 -192.5t145 -67.5q54 0 91.5 21.5t68.5 70.5l75 -57q-43 -68 -101 -99.5t-141 -31.5z" />
    <glyph glyph-name="cacute" unicode="&#x107;" horiz-adv-x="482" 
d="M279 732h131l-118 -184h-96zM267 -13q-108 0 -169 66.5t-61 187.5t61 187.5t167 66.5q85 0 133.5 -38.5t48.5 -115.5q0 -15 -2 -30.5t-6 -24.5l-95 -1q5 15 5 40q0 79 -86 79q-54 0 -84.5 -40.5t-30.5 -119.5q0 -81 33.5 -123t90.5 -42q47 0 73 18t44 45l66 -57
q-25 -42 -71.5 -70t-116.5 -28z" />
    <glyph glyph-name="Ccircumflex" unicode="&#x108;" horiz-adv-x="620" 
d="M285 886h121l88 -144h-97l-52 73l-53 -73h-95zM352 -8q-71 0 -128.5 24t-97.5 70t-61.5 111.5t-21.5 149.5q0 83 21.5 150t61.5 114t97 72t127 25q52 0 94.5 -13t73 -38t47.5 -62t17 -85q0 -15 -1.5 -31.5t-6.5 -28.5h-102q3 16 4 23.5t1 19.5q0 54 -35 85.5t-96 31.5
q-89 0 -137 -68.5t-48 -193.5t53 -192.5t145 -67.5q54 0 91.5 21.5t68.5 70.5l75 -57q-43 -68 -101 -99.5t-141 -31.5z" />
    <glyph glyph-name="ccircumflex" unicode="&#x109;" horiz-adv-x="482" 
d="M201 730h116l89 -181h-96l-52 103l-51 -103h-95zM267 -13q-108 0 -169 66.5t-61 187.5t61 187.5t167 66.5q85 0 133.5 -38.5t48.5 -115.5q0 -15 -2 -30.5t-6 -24.5l-95 -1q5 15 5 40q0 79 -86 79q-54 0 -84.5 -40.5t-30.5 -119.5q0 -81 33.5 -123t90.5 -42q47 0 73 18
t44 45l66 -57q-25 -42 -71.5 -70t-116.5 -28z" />
    <glyph glyph-name="Cdotaccent" unicode="&#x10a;" horiz-adv-x="620" 
d="M346 743q-29 0 -50.5 21.5t-21.5 51.5q0 29 21.5 50.5t50.5 21.5t50.5 -21.5t21.5 -50.5q0 -30 -21.5 -51.5t-50.5 -21.5zM352 -8q-71 0 -128.5 24t-97.5 70t-61.5 111.5t-21.5 149.5q0 83 21.5 150t61.5 114t97 72t127 25q52 0 94.5 -13t73 -38t47.5 -62t17 -85
q0 -15 -1.5 -31.5t-6.5 -28.5h-102q3 16 4 23.5t1 19.5q0 54 -35 85.5t-96 31.5q-89 0 -137 -68.5t-48 -193.5t53 -192.5t145 -67.5q54 0 91.5 21.5t68.5 70.5l75 -57q-43 -68 -101 -99.5t-141 -31.5z" />
    <glyph glyph-name="cdotaccent" unicode="&#x10b;" horiz-adv-x="482" 
d="M260 569q-29 0 -50 20.5t-21 50.5q0 29 21 49.5t50 20.5t49.5 -20.5t20.5 -49.5q0 -30 -20.5 -50.5t-49.5 -20.5zM267 -13q-108 0 -169 66.5t-61 187.5t61 187.5t167 66.5q85 0 133.5 -38.5t48.5 -115.5q0 -15 -2 -30.5t-6 -24.5l-95 -1q5 15 5 40q0 79 -86 79
q-54 0 -84.5 -40.5t-30.5 -119.5q0 -81 33.5 -123t90.5 -42q47 0 73 18t44 45l66 -57q-25 -42 -71.5 -70t-116.5 -28z" />
    <glyph glyph-name="Ccaron" unicode="&#x10c;" horiz-adv-x="620" 
d="M197 886h98l52 -73l52 73h96l-89 -144h-121zM352 -8q-71 0 -128.5 24t-97.5 70t-61.5 111.5t-21.5 149.5q0 83 21.5 150t61.5 114t97 72t127 25q52 0 94.5 -13t73 -38t47.5 -62t17 -85q0 -15 -1.5 -31.5t-6.5 -28.5h-102q3 16 4 23.5t1 19.5q0 54 -35 85.5t-96 31.5
q-89 0 -137 -68.5t-48 -193.5t53 -192.5t145 -67.5q54 0 91.5 21.5t68.5 70.5l75 -57q-43 -68 -101 -99.5t-141 -31.5z" />
    <glyph glyph-name="ccaron" unicode="&#x10d;" horiz-adv-x="482" 
d="M113 730h95l52 -103l51 103h95l-89 -181h-116zM267 -13q-108 0 -169 66.5t-61 187.5t61 187.5t167 66.5q85 0 133.5 -38.5t48.5 -115.5q0 -15 -2 -30.5t-6 -24.5l-95 -1q5 15 5 40q0 79 -86 79q-54 0 -84.5 -40.5t-30.5 -119.5q0 -81 33.5 -123t90.5 -42q47 0 73 18
t44 45l66 -57q-25 -42 -71.5 -70t-116.5 -28z" />
    <glyph glyph-name="Dcaron" unicode="&#x10e;" horiz-adv-x="692" 
d="M187 886h97l52 -73l52 73h96l-89 -144h-121zM82 700h221q75 0 138 -19.5t109.5 -61.5t72.5 -108t26 -159q0 -94 -28 -161t-75 -109.5t-108 -62t-127 -19.5h-229v700zM302 96q105 0 167.5 61.5t62.5 189.5q0 130 -60.5 193.5t-174.5 63.5h-104v-508h109z" />
    <glyph glyph-name="dcaron" unicode="&#x10f;" horiz-adv-x="573" 
d="M541 555q24 8 36.5 21.5t13.5 27.5q-27 2 -42 19.5t-15 43.5q0 27 18.5 46t46.5 19q32 0 51.5 -20.5t19.5 -54.5q0 -54 -28 -95t-75 -55zM230 -13q-43 0 -78.5 18t-61 51t-39.5 79t-14 102t15 103.5t42 82t65 53.5t85 19q46 0 78 -17.5t50 -42.5v291h109v-595
q0 -27 9 -38t32 -11v-82q-7 -2 -20.5 -3.5t-28.5 -1.5q-41 0 -64 19.5t-25 53.5v9q-20 -40 -57 -65t-97 -25zM265 79q43 0 69.5 25t38.5 67v141q-4 17 -12 33t-21.5 29.5t-32 21.5t-42.5 8q-58 0 -87.5 -43t-29.5 -124q0 -72 30 -115t87 -43z" />
    <glyph glyph-name="Dcroat" unicode="&#x110;" horiz-adv-x="706" 
d="M317 700q75 0 138.5 -19.5t110 -61.5t72.5 -108t26 -159q0 -94 -28 -161t-75 -109.5t-108.5 -62t-127.5 -19.5h-229v309h-83v87h83v304h221zM316 96q105 0 167.5 61.5t62.5 189.5q0 130 -60.5 193.5t-173.5 63.5h-104v-208h102v-87h-102v-213h108z" />
    <glyph glyph-name="dcroat" unicode="&#x111;" horiz-adv-x="557" 
d="M481 562v-431q0 -27 9 -38t32 -11v-82q-7 -2 -20.5 -3.5t-28.5 -1.5q-41 0 -64 19.5t-25 53.5v9q-20 -40 -57 -65t-97 -25q-43 0 -78.5 18t-61 51t-39.5 79t-14 102t15 103.5t42 82t65 53.5t85 19q46 0 78 -17.5t50 -42.5v127h-106v88h106v76h109v-76h82v-88h-82z
M373 312q-4 17 -12 33t-21.5 29.5t-32 21.5t-42.5 8q-58 0 -87.5 -43t-29.5 -124q0 -72 30 -115t87 -43q43 0 69.5 25t38.5 67v141z" />
    <glyph glyph-name="Emacron" unicode="&#x112;" horiz-adv-x="573" 
d="M178 853h283v-86h-283v86zM82 700h448v-99h-337v-195h287v-100h-287v-206h337v-100h-448v700z" />
    <glyph glyph-name="emacron" unicode="&#x113;" horiz-adv-x="482" 
d="M388 594h-271v85h271v-85zM454 86q-33 -53 -84.5 -76t-115.5 -23q-103 2 -160.5 62.5t-57.5 175.5q0 60 17.5 109.5t48.5 85.5t74.5 55.5t95.5 19.5q79 0 124 -39.5t45 -107.5q0 -51 -26 -82t-67.5 -49t-93 -25.5t-103.5 -10.5q10 -54 39.5 -78.5t76.5 -24.5
q42 0 69.5 15t51.5 48zM270 405q-54 0 -85.5 -39t-36.5 -110q32 1 66 4.5t62 13t45.5 26t17.5 43.5q0 62 -69 62z" />
    <glyph glyph-name="Ebreve" unicode="&#x114;" horiz-adv-x="573" 
d="M318 742q-65 0 -100 40t-35 103h82q0 -26 13.5 -43.5t39.5 -17.5q28 0 41 17.5t13 43.5h83q0 -63 -36 -103t-101 -40zM82 700h448v-99h-337v-195h287v-100h-287v-206h337v-100h-448v700z" />
    <glyph glyph-name="ebreve" unicode="&#x115;" horiz-adv-x="482" 
d="M253 563q-39 0 -65.5 12t-42.5 32t-22.5 46.5t-6.5 56.5h83q0 -64 53 -64q54 0 54 64h82q0 -30 -7 -56.5t-22.5 -46.5t-41.5 -32t-64 -12zM454 86q-33 -53 -84.5 -76t-115.5 -23q-103 2 -160.5 62.5t-57.5 175.5q0 60 17.5 109.5t48.5 85.5t74.5 55.5t95.5 19.5
q79 0 124 -39.5t45 -107.5q0 -51 -26 -82t-67.5 -49t-93 -25.5t-103.5 -10.5q10 -54 39.5 -78.5t76.5 -24.5q42 0 69.5 15t51.5 48zM270 405q-54 0 -85.5 -39t-36.5 -110q32 1 66 4.5t62 13t45.5 26t17.5 43.5q0 62 -69 62z" />
    <glyph glyph-name="Edotaccent" unicode="&#x116;" horiz-adv-x="573" 
d="M320 743q-29 0 -50.5 21.5t-21.5 51.5q0 29 21.5 50.5t50.5 21.5q30 0 51.5 -21.5t21.5 -50.5q0 -30 -21.5 -51.5t-51.5 -21.5zM82 700h448v-99h-337v-195h287v-100h-287v-206h337v-100h-448v700z" />
    <glyph glyph-name="edotaccent" unicode="&#x117;" horiz-adv-x="482" 
d="M252 569q-29 0 -49.5 20.5t-20.5 50.5q0 29 20.5 49.5t49.5 20.5t49.5 -20.5t20.5 -49.5q0 -30 -20.5 -50.5t-49.5 -20.5zM454 86q-33 -53 -84.5 -76t-115.5 -23q-103 2 -160.5 62.5t-57.5 175.5q0 60 17.5 109.5t48.5 85.5t74.5 55.5t95.5 19.5q79 0 124 -39.5
t45 -107.5q0 -51 -26 -82t-67.5 -49t-93 -25.5t-103.5 -10.5q10 -54 39.5 -78.5t76.5 -24.5q42 0 69.5 15t51.5 48zM270 405q-54 0 -85.5 -39t-36.5 -110q32 1 66 4.5t62 13t45.5 26t17.5 43.5q0 62 -69 62z" />
    <glyph glyph-name="Eogonek" unicode="&#x118;" horiz-adv-x="573" 
d="M559 -163q-13 -13 -34 -20t-46 -7q-51 0 -77 23.5t-26 66.5q0 27 13.5 52.5t37.5 47.5h-345v700h448v-99h-337v-195h287v-100h-287v-206h337v-100q-29 -11 -47 -33t-18 -48q0 -20 9.5 -29t24.5 -9q10 0 17 3t12 7z" />
    <glyph glyph-name="eogonek" unicode="&#x119;" horiz-adv-x="482" 
d="M337 -2q-27 -11 -43.5 -33t-16.5 -46q0 -20 9.5 -29t24.5 -9q10 0 17 3t12 7l31 -54q-13 -13 -34 -20t-46 -7q-51 0 -77 23.5t-26 66.5q0 47 39 89q-91 9 -141 68.5t-50 167.5q0 60 17.5 109.5t48.5 85.5t74.5 55.5t95.5 19.5q79 0 124 -39.5t45 -107.5q0 -51 -26 -82
t-67.5 -49t-93 -25.5t-103.5 -10.5q10 -54 39.5 -78.5t76.5 -24.5q42 0 69.5 15t51.5 48l66 -55q-22 -35 -51.5 -56t-65.5 -32zM270 405q-54 0 -85.5 -39t-36.5 -110q32 1 66 4.5t62 13t45.5 26t17.5 43.5q0 62 -69 62z" />
    <glyph glyph-name="Ecaron" unicode="&#x11a;" horiz-adv-x="573" 
d="M172 886h97l52 -73l52 73h96l-89 -144h-121zM82 700h448v-99h-337v-195h287v-100h-287v-206h337v-100h-448v700z" />
    <glyph glyph-name="ecaron" unicode="&#x11b;" horiz-adv-x="482" 
d="M194 549l-89 181h96l51 -103l52 103h95l-89 -181h-116zM454 86q-33 -53 -84.5 -76t-115.5 -23q-103 2 -160.5 62.5t-57.5 175.5q0 60 17.5 109.5t48.5 85.5t74.5 55.5t95.5 19.5q79 0 124 -39.5t45 -107.5q0 -51 -26 -82t-67.5 -49t-93 -25.5t-103.5 -10.5
q10 -54 39.5 -78.5t76.5 -24.5q42 0 69.5 15t51.5 48zM270 405q-54 0 -85.5 -39t-36.5 -110q32 1 66 4.5t62 13t45.5 26t17.5 43.5q0 62 -69 62z" />
    <glyph glyph-name="Gcircumflex" unicode="&#x11c;" horiz-adv-x="659" 
d="M283 886h121l88 -144h-97l-52 73l-53 -73h-95zM353 -11q-149 0 -229.5 89.5t-80.5 269.5q0 82 21.5 148.5t62 113.5t98.5 72.5t131 25.5q117 0 179 -53.5t62 -142.5q0 -26 -5 -44h-106q1 5 1.5 11t0.5 21q0 49 -35 79.5t-101 30.5q-95 0 -143 -67.5t-48 -193.5
q0 -128 50.5 -196t147.5 -68q59 0 95 13.5t50 27.5v131h-149v97h254v-275q-13 -15 -36 -30.5t-55.5 -29t-73.5 -22t-91 -8.5z" />
    <glyph glyph-name="gcircumflex" unicode="&#x11d;" horiz-adv-x="544" 
d="M212 730h116l88 -181h-95l-52 103l-51 -103h-95zM256 -240q-72 0 -121 23.5t-77 68.5l70 62q20 -29 49 -46.5t78 -17.5q58 0 89.5 32t31.5 92v92q-15 -30 -50.5 -54.5t-95.5 -24.5q-43 0 -78.5 18t-61 51t-39.5 79t-14 102t15 103.5t42 82t65 53.5t85 19q46 0 80 -18
t59 -53v58h97v-508q0 -49 -16 -88.5t-45.5 -67.5t-70.5 -43t-92 -15zM265 79q43 0 69.5 25t38.5 67v141q-4 17 -12 33t-21.5 29.5t-32 21.5t-42.5 8q-58 0 -87.5 -43t-29.5 -124q0 -72 30 -115t87 -43z" />
    <glyph glyph-name="Gbreve" unicode="&#x11e;" horiz-adv-x="659" 
d="M342 742q-65 0 -100 40t-35 103h82q0 -26 13.5 -43.5t39.5 -17.5q28 0 41 17.5t13 43.5h83q0 -63 -36 -103t-101 -40zM353 -11q-149 0 -229.5 89.5t-80.5 269.5q0 82 21.5 148.5t62 113.5t98.5 72.5t131 25.5q117 0 179 -53.5t62 -142.5q0 -26 -5 -44h-106q1 5 1.5 11
t0.5 21q0 49 -35 79.5t-101 30.5q-95 0 -143 -67.5t-48 -193.5q0 -128 50.5 -196t147.5 -68q59 0 95 13.5t50 27.5v131h-149v97h254v-275q-13 -15 -36 -30.5t-55.5 -29t-73.5 -22t-91 -8.5z" />
    <glyph glyph-name="gbreve" unicode="&#x11f;" horiz-adv-x="544" 
d="M271 563q-39 0 -65.5 12t-42 32t-22.5 46.5t-7 56.5h83q0 -64 53 -64q54 0 54 64h82q0 -30 -7 -56.5t-22.5 -46.5t-41.5 -32t-64 -12zM256 -240q-72 0 -121 23.5t-77 68.5l70 62q20 -29 49 -46.5t78 -17.5q58 0 89.5 32t31.5 92v92q-15 -30 -50.5 -54.5t-95.5 -24.5
q-43 0 -78.5 18t-61 51t-39.5 79t-14 102t15 103.5t42 82t65 53.5t85 19q46 0 80 -18t59 -53v58h97v-508q0 -49 -16 -88.5t-45.5 -67.5t-70.5 -43t-92 -15zM265 79q43 0 69.5 25t38.5 67v141q-4 17 -12 33t-21.5 29.5t-32 21.5t-42.5 8q-58 0 -87.5 -43t-29.5 -124
q0 -72 30 -115t87 -43z" />
    <glyph glyph-name="Gdotaccent" unicode="&#x120;" horiz-adv-x="659" 
d="M344 743q-29 0 -50.5 21.5t-21.5 51.5q0 29 21.5 50.5t50.5 21.5t50.5 -21.5t21.5 -50.5q0 -30 -21.5 -51.5t-50.5 -21.5zM353 -11q-149 0 -229.5 89.5t-80.5 269.5q0 82 21.5 148.5t62 113.5t98.5 72.5t131 25.5q117 0 179 -53.5t62 -142.5q0 -26 -5 -44h-106
q1 5 1.5 11t0.5 21q0 49 -35 79.5t-101 30.5q-95 0 -143 -67.5t-48 -193.5q0 -128 50.5 -196t147.5 -68q59 0 95 13.5t50 27.5v131h-149v97h254v-275q-13 -15 -36 -30.5t-55.5 -29t-73.5 -22t-91 -8.5z" />
    <glyph glyph-name="gdotaccent" unicode="&#x121;" horiz-adv-x="544" 
d="M271 569q-29 0 -50 20.5t-21 50.5q0 29 21 49.5t50 20.5t49.5 -20.5t20.5 -49.5q0 -30 -20.5 -50.5t-49.5 -20.5zM256 -240q-72 0 -121 23.5t-77 68.5l70 62q20 -29 49 -46.5t78 -17.5q58 0 89.5 32t31.5 92v92q-15 -30 -50.5 -54.5t-95.5 -24.5q-43 0 -78.5 18t-61 51
t-39.5 79t-14 102t15 103.5t42 82t65 53.5t85 19q46 0 80 -18t59 -53v58h97v-508q0 -49 -16 -88.5t-45.5 -67.5t-70.5 -43t-92 -15zM265 79q43 0 69.5 25t38.5 67v141q-4 17 -12 33t-21.5 29.5t-32 21.5t-42.5 8q-58 0 -87.5 -43t-29.5 -124q0 -72 30 -115t87 -43z" />
    <glyph glyph-name="uni0122" unicode="&#x122;" horiz-adv-x="659" 
d="M353 -11q-149 0 -229.5 89.5t-80.5 269.5q0 82 21.5 148.5t62 113.5t98.5 72.5t131 25.5q117 0 179 -53.5t62 -142.5q0 -26 -5 -44h-106q1 5 1.5 11t0.5 21q0 49 -35 79.5t-101 30.5q-95 0 -143 -67.5t-48 -193.5q0 -128 50.5 -196t147.5 -68q59 0 95 13.5t50 27.5v131
h-149v97h254v-275q-13 -15 -36 -30.5t-55.5 -29t-73.5 -22t-91 -8.5zM294 -211q23 8 35 21.5t13 27.5q-26 1 -41 17.5t-15 44.5q0 27 18.5 45.5t46.5 18.5q32 0 51.5 -20.5t19.5 -55.5q0 -54 -28.5 -93.5t-73.5 -51.5z" />
    <glyph glyph-name="uni0123" unicode="&#x123;" horiz-adv-x="544" 
d="M271 542q-32 0 -50.5 19.5t-18.5 53.5q0 47 27.5 87.5t70.5 54.5l28 -47q-23 -7 -37.5 -19.5t-15.5 -24.5q26 -1 43 -18.5t17 -43.5t-18 -44t-46 -18zM256 -240q-72 0 -121 23.5t-77 68.5l70 62q20 -29 49 -46.5t78 -17.5q58 0 89.5 32t31.5 92v92q-15 -30 -50.5 -54.5
t-95.5 -24.5q-43 0 -78.5 18t-61 51t-39.5 79t-14 102t15 103.5t42 82t65 53.5t85 19q46 0 80 -18t59 -53v58h97v-508q0 -49 -16 -88.5t-45.5 -67.5t-70.5 -43t-92 -15zM265 79q43 0 69.5 25t38.5 67v141q-4 17 -12 33t-21.5 29.5t-32 21.5t-42.5 8q-58 0 -87.5 -43
t-29.5 -124q0 -72 30 -115t87 -43z" />
    <glyph glyph-name="Hcircumflex" unicode="&#x124;" horiz-adv-x="691" 
d="M286 886h121l88 -144h-98l-52 73l-52 -73h-96zM82 700h111v-294h305v294h111v-700h-111v302h-305v-302h-111v700z" />
    <glyph glyph-name="hcircumflex" unicode="&#x125;" horiz-adv-x="546" 
d="M57 886h121l88 -144h-97l-52 73l-52 -73h-96zM469 -4q-52 0 -77 28t-25 81v197q0 42 -23 69t-68 27q-27 0 -46 -10t-31.5 -25t-18.5 -34t-6 -37v-292h-110v726h110v-300q16 27 49 48t84 21q46 0 78 -15t52.5 -41t30 -60.5t9.5 -73.5v-177q0 -46 40 -46v-81
q-7 -2 -20.5 -3.5t-27.5 -1.5z" />
    <glyph glyph-name="Hbar" unicode="&#x126;" horiz-adv-x="709" 
d="M684 502h-66v-502h-112v302h-304v-302h-112v502h-65v79h65v119h112v-119h304v119h112v-119h66v-79zM506 502h-304v-96h304v96z" />
    <glyph glyph-name="hbar" unicode="&#x127;" horiz-adv-x="546" 
d="M477 128q0 -46 40 -46v-81q-7 -2 -20.5 -3.5t-27.5 -1.5q-52 0 -77 28t-25 81v197q0 42 -23 69t-68 27q-27 0 -46 -10t-31.5 -25t-18.5 -34t-6 -37v-292h-110v562h-74v88h74v76h110v-76h113v-88h-113v-136q16 27 49 48t84 21q46 0 78 -15t52.5 -41t30 -60.5t9.5 -73.5
v-177z" />
    <glyph glyph-name="Itilde" unicode="&#x128;" horiz-adv-x="275" 
d="M-14 745q-5 11 -8.5 24t-3.5 30q0 33 22.5 56t63.5 23q23 0 41.5 -6t35 -13.5t30.5 -13.5t27 -6q11 0 17.5 6t6.5 17q0 7 -2 12t-4 9h77q5 -11 8.5 -24.5t3.5 -29.5q0 -33 -22.5 -56.5t-69.5 -23.5q-23 0 -42 6t-34.5 13.5t-28 13.5t-24.5 6q-10 0 -16.5 -5.5t-6.5 -16.5
q0 -7 2 -12t4 -9h-77zM82 700h111v-700h-111v700z" />
    <glyph glyph-name="itilde" unicode="&#x129;" horiz-adv-x="241" 
d="M-27 564q-5 11 -8.5 24t-3.5 30q0 34 22.5 57.5t67.5 23.5q20 0 37.5 -6.5t32.5 -14t29 -14t26 -6.5q25 0 25 22q0 16 -6 23h75q13 -24 13 -54q0 -34 -22.5 -58t-67.5 -24q-23 0 -41.5 6.5t-33.5 14t-27 14t-22 6.5q-26 0 -26 -22q0 -14 6 -22h-76zM66 482h109v-482h-109
v482z" />
    <glyph glyph-name="Imacron" unicode="&#x12a;" horiz-adv-x="275" 
d="M-4 853h284v-86h-284v86zM82 700h111v-700h-111v700z" />
    <glyph glyph-name="imacron" unicode="&#x12b;" horiz-adv-x="241" 
d="M-15 679h271v-85h-271v85zM66 482h109v-482h-109v482z" />
    <glyph glyph-name="Ibreve" unicode="&#x12c;" horiz-adv-x="275" 
d="M136 742q-64 0 -99.5 40t-35.5 103h82q0 -26 13.5 -43.5t40.5 -17.5t40.5 17.5t13.5 43.5h82q0 -63 -36 -103t-101 -40zM82 700h111v-700h-111v700z" />
    <glyph glyph-name="ibreve" unicode="&#x12d;" horiz-adv-x="241" 
d="M121 563q-39 0 -65.5 12t-42.5 32t-22.5 46.5t-6.5 56.5h83q0 -64 53 -64q54 0 54 64h82q0 -30 -7 -56.5t-22.5 -46.5t-41.5 -32t-64 -12zM66 482h109v-482h-109v482z" />
    <glyph glyph-name="Iogonek" unicode="&#x12e;" horiz-adv-x="275" 
d="M221 -163q-13 -13 -34 -20t-46 -7q-50 0 -76.5 23.5t-26.5 66.5q0 27 13.5 52.5t37.5 47.5h-7v700h111v-700q-29 -11 -47 -33t-18 -48q0 -20 9.5 -29t24.5 -9q10 0 17 3t12 7z" />
    <glyph glyph-name="iogonek" unicode="&#x12f;" horiz-adv-x="241" 
d="M121 569q-29 0 -50 20.5t-21 50.5q0 29 21 49.5t50 20.5t49.5 -20.5t20.5 -49.5q0 -30 -20.5 -50.5t-49.5 -20.5zM201 -163q-13 -13 -34 -20t-46 -7q-51 0 -77 23.5t-26 66.5q0 27 13.5 52.5t37.5 47.5h-3v482h109v-482h-2q-30 -11 -47.5 -33t-17.5 -48q0 -20 9.5 -29
t23.5 -9q11 0 18 3t12 7z" />
    <glyph glyph-name="Idotaccent" unicode="&#x130;" horiz-adv-x="275" 
d="M139 743q-29 0 -51 21.5t-22 51.5q0 29 22 50.5t51 21.5t50.5 -21.5t21.5 -50.5q0 -30 -21.5 -51.5t-50.5 -21.5zM82 700h111v-700h-111v700z" />
    <glyph glyph-name="dotlessi" unicode="&#x131;" horiz-adv-x="241" 
d="M66 482h109v-482h-109v482z" />
    <glyph glyph-name="IJ" unicode="&#x132;" horiz-adv-x="746" 
d="M82 700h111v-700h-111v700zM455 -6q-64 0 -107.5 23t-69.5 56l69 77q20 -23 46 -40t64 -17q52 0 77 32.5t25 93.5v481h112v-476q0 -113 -56 -171.5t-160 -58.5z" />
    <glyph glyph-name="ij" unicode="&#x133;" horiz-adv-x="493" 
d="M121 569q-29 0 -50 20.5t-21 50.5q0 29 21 49.5t50 20.5t49.5 -20.5t20.5 -49.5q0 -30 -20.5 -50.5t-49.5 -20.5zM363 569q-29 0 -50 20.5t-21 50.5q0 29 21 49.5t50 20.5t49.5 -20.5t20.5 -49.5q0 -30 -20.5 -50.5t-49.5 -20.5zM66 482h109v-482h-109v482zM241 -247
q-25 0 -42.5 4.5t-28.5 10.5q-14 7 -23 15l33 78q6 -4 13 -7q7 -2 15.5 -4t20.5 -2q80 0 80 106v528h109v-533q0 -89 -42 -142.5t-135 -53.5z" />
    <glyph glyph-name="Jcircumflex" unicode="&#x134;" horiz-adv-x="477" 
d="M283 886h121l88 -144h-97l-53 73l-52 -73h-96zM186 -6q-64 0 -108 23t-70 56l70 77q20 -23 46 -40t63 -17q53 0 78 32.5t25 93.5v481h112v-476q0 -113 -56.5 -171.5t-159.5 -58.5z" />
    <glyph glyph-name="jcircumflex" unicode="&#x135;" horiz-adv-x="244" 
d="M65 730h116l89 -181h-96l-52 103l-51 -103h-95zM2 -247q-25 0 -42.5 4.5t-28.5 10.5q-14 7 -23 15l33 78q6 -4 13 -7q7 -2 15.5 -4t20.5 -2q80 0 80 106v528h109v-533q0 -89 -42 -142.5t-135 -53.5z" />
    <glyph glyph-name="uni0136" unicode="&#x136;" horiz-adv-x="652" 
d="M640 96v-95q-2 -2 -20 -4t-41 -2q-50 0 -82 22.5t-54.5 56.5t-40 73.5t-38 73.5t-48.5 56.5t-71 22.5h-52v-300h-111v700h111v-304h66q38 0 76 15t68 50.5t49 93.5t19 145h110q0 -131 -47.5 -221t-125.5 -136q36 -25 58.5 -67t42 -82t41.5 -69t58 -29h32zM339 -36
q32 0 51.5 -20.5t19.5 -55.5q0 -54 -28.5 -93.5t-73.5 -51.5l-26 46q23 8 35 21.5t13 27.5q-26 1 -41 17.5t-15 44.5q0 27 18.5 45.5t46.5 18.5z" />
    <glyph glyph-name="uni0137" unicode="&#x137;" horiz-adv-x="517" 
d="M503 83v-81q-3 -1 -16 -4t-29 -3q-46 0 -72.5 15.5t-43.5 38t-28 49.5t-26.5 49.5t-39 38t-65.5 15.5h-9v-201h-110v726h110v-434h31q41 0 68.5 13t45 38t26 60t9.5 79h103q-1 -27 -5 -60.5t-17 -66.5t-36.5 -63.5t-62.5 -52.5q31 -18 46.5 -44.5t28 -51t30 -42.5
t52.5 -18h10zM279 -36q32 0 51.5 -20.5t19.5 -55.5q0 -54 -28.5 -93.5t-73.5 -51.5l-26 46q23 8 35.5 21.5t12.5 27.5q-26 1 -41 17.5t-15 44.5q0 27 18.5 45.5t46.5 18.5z" />
    <glyph glyph-name="kgreenlandic" unicode="&#x138;" horiz-adv-x="517" 
d="M503 84v-82q-3 -1 -16 -4t-29 -3q-46 0 -72.5 15t-43.5 37t-28 48.5t-26.5 48.5t-39 37t-65.5 15h-9v-196h-110v482h110v-195h31q41 0 69 14t45.5 39.5t26 61.5t9.5 80h103q-1 -28 -5.5 -61.5t-17.5 -67.5t-37 -65t-63 -53q32 -18 47 -43.5t28 -49.5t30.5 -41t52.5 -17
h10z" />
    <glyph glyph-name="Lacute" unicode="&#x139;" horiz-adv-x="534" 
d="M175 886h139l-119 -144h-103zM82 700h112v-601h326v-99h-438v700z" />
    <glyph glyph-name="lacute" unicode="&#x13a;" horiz-adv-x="252" 
d="M127 899h139l-119 -143h-103zM167 -4q-51 0 -76.5 25t-25.5 85v620h109v-598q0 -24 10 -33t33 -9v-85q-8 -2 -22 -3.5t-28 -1.5z" />
    <glyph glyph-name="uni013B" unicode="&#x13b;" horiz-adv-x="534" 
d="M82 700h112v-601h326v-99h-438v700zM259 -211q23 8 35 21.5t13 27.5q-26 1 -41 17.5t-15 44.5q0 27 18.5 45.5t46.5 18.5q32 0 51.5 -20.5t19.5 -55.5q0 -54 -28.5 -93.5t-73.5 -51.5z" />
    <glyph glyph-name="uni013C" unicode="&#x13c;" horiz-adv-x="252" 
d="M167 -4q-51 0 -76.5 25t-25.5 85v620h109v-598q0 -24 10 -33t33 -9v-85q-8 -2 -22 -3.5t-28 -1.5zM83 -211q23 8 35 21.5t13 27.5q-26 1 -41.5 17.5t-15.5 44.5q0 27 19 45.5t47 18.5q32 0 51 -20.5t19 -55.5q0 -54 -28 -93.5t-73 -51.5z" />
    <glyph glyph-name="Lcaron" unicode="&#x13d;" horiz-adv-x="539" 
d="M350 529q24 8 36.5 22t13.5 28q-27 1 -42 18.5t-15 43.5q0 27 18.5 46t46.5 19q32 0 51.5 -20.5t19.5 -54.5q0 -54 -28 -94.5t-75 -54.5zM82 700h112v-601h326v-99h-438v700z" />
    <glyph glyph-name="lcaron" unicode="&#x13e;" horiz-adv-x="268" 
d="M221 555q24 8 36 21.5t13 27.5q-26 2 -41.5 19.5t-15.5 43.5q0 27 18.5 46t47.5 19q32 0 51.5 -20.5t19.5 -54.5q0 -54 -28 -95t-76 -55zM167 -4q-51 0 -76.5 25t-25.5 85v620h109v-598q0 -24 10 -33t33 -9v-85q-8 -2 -22 -3.5t-28 -1.5z" />
    <glyph glyph-name="Ldot" unicode="&#x13f;" horiz-adv-x="538" 
d="M82 700h112v-601h326v-99h-438v700zM404 332q-29 0 -48.5 19.5t-19.5 48.5q0 28 19.5 48t48.5 20t48.5 -20t19.5 -48q0 -29 -19.5 -48.5t-48.5 -19.5z" />
    <glyph glyph-name="ldot" unicode="&#x140;" horiz-adv-x="320" 
d="M167 -4q-51 0 -76.5 25t-25.5 85v620h109v-598q0 -24 10 -33t33 -9v-85q-8 -2 -22 -3.5t-28 -1.5zM280 316q-29 0 -49 19.5t-20 47.5q0 29 20 49t49 20t48.5 -20t19.5 -49q0 -28 -19.5 -47.5t-48.5 -19.5z" />
    <glyph glyph-name="Lslash" unicode="&#x141;" horiz-adv-x="560" 
d="M546 99v-99h-438v255l-69 -39l-43 77l112 64v343h112v-279l97 55l45 -77l-142 -80v-220h326z" />
    <glyph glyph-name="lslash" unicode="&#x142;" horiz-adv-x="338" 
d="M224 128q0 -24 10 -33t33 -9v-85q-18 -5 -51 -5q-50 0 -76 25t-26 85v187l-68 -39l-39 71l107 62v339h110v-275l63 37l42 -70l-105 -61v-229z" />
    <glyph glyph-name="Nacute" unicode="&#x143;" horiz-adv-x="680" 
d="M367 886h139l-119 -144h-103zM82 700h97l299 -486l15 -34v520h105v-700h-97l-301 485l-13 29v-514h-105v700z" />
    <glyph glyph-name="nacute" unicode="&#x144;" horiz-adv-x="558" 
d="M297 732h131l-119 -184h-95zM480 -4q-52 0 -77 28t-25 81v193q0 49 -23.5 75t-66.5 26q-46 0 -74.5 -30.5t-28.5 -81.5v-287h-109v357q0 24 -9.5 34.5t-31.5 10.5v82q8 2 21 3.5t29 1.5q41 0 63 -21t24 -59v-2q18 40 55.5 64t91.5 24q81 0 125 -49.5t44 -140.5v-177
q0 -46 41 -46v-81q-7 -2 -20.5 -3.5t-28.5 -1.5z" />
    <glyph glyph-name="uni0145" unicode="&#x145;" horiz-adv-x="680" 
d="M82 700h97l299 -486l15 -34v520h105v-700h-97l-301 485l-13 29v-514h-105v700zM286 -211q23 8 35 21.5t13 27.5q-26 1 -41.5 17.5t-15.5 44.5q0 27 19 45.5t47 18.5q32 0 51 -20.5t19 -55.5q0 -54 -28 -93.5t-73 -51.5z" />
    <glyph glyph-name="uni0146" unicode="&#x146;" horiz-adv-x="558" 
d="M480 -4q-52 0 -77 28t-25 81v193q0 49 -23.5 75t-66.5 26q-46 0 -74.5 -30.5t-28.5 -81.5v-287h-109v357q0 24 -9.5 34.5t-31.5 10.5v82q8 2 21 3.5t29 1.5q41 0 63 -21t24 -59v-2q18 40 55.5 64t91.5 24q81 0 125 -49.5t44 -140.5v-177q0 -46 41 -46v-81
q-7 -2 -20.5 -3.5t-28.5 -1.5zM243 -211q23 8 35 21.5t13 27.5q-26 1 -41 17.5t-15 44.5q0 27 18.5 45.5t46.5 18.5q32 0 51.5 -20.5t19.5 -55.5q0 -54 -28.5 -93.5t-73.5 -51.5z" />
    <glyph glyph-name="Ncaron" unicode="&#x147;" horiz-adv-x="680" 
d="M201 886h97l52 -73l52 73h96l-89 -144h-121zM82 700h97l299 -486l15 -34v520h105v-700h-97l-301 485l-13 29v-514h-105v700z" />
    <glyph glyph-name="ncaron" unicode="&#x148;" horiz-adv-x="558" 
d="M131 730h95l52 -103l51 103h95l-89 -181h-116zM480 -4q-52 0 -77 28t-25 81v193q0 49 -23.5 75t-66.5 26q-46 0 -74.5 -30.5t-28.5 -81.5v-287h-109v357q0 24 -9.5 34.5t-31.5 10.5v82q8 2 21 3.5t29 1.5q41 0 63 -21t24 -59v-2q18 40 55.5 64t91.5 24q81 0 125 -49.5
t44 -140.5v-177q0 -46 41 -46v-81q-7 -2 -20.5 -3.5t-28.5 -1.5z" />
    <glyph glyph-name="napostrophe" unicode="&#x149;" horiz-adv-x="659" 
d="M19 566q13 5 24 11q9 6 16.5 13t7.5 16q-23 0 -38.5 16.5t-15.5 40.5q0 23 15.5 40t41.5 17q24 0 42 -16.5t18 -49.5q0 -40 -13 -64.5t-29 -39.5q-19 -17 -43 -25zM581 -4q-49 0 -75.5 28t-26.5 89v179q0 45 -22.5 73t-69.5 28q-27 0 -46 -11.5t-31 -28.5t-18 -38t-6 -40
v-275h-110v354q0 21 -8.5 33t-31.5 12v81q5 2 13 3q6 1 15 2t21 1q43 0 65 -22.5t22 -48.5v-19q6 17 17 33.5t29 29.5t43 21t58 8q46 0 78 -15t52.5 -41t30 -60.5t9.5 -73.5v-170q0 -22 8.5 -33.5t32.5 -11.5v-81q-5 -2 -12 -3t-16 -2t-21 -1z" />
    <glyph glyph-name="Eng" unicode="&#x14a;" horiz-adv-x="680" 
d="M598 700v-721q0 -98 -49.5 -150t-138.5 -52q-42 0 -74 11t-52 34l64 86q11 -12 26.5 -19t38.5 -7q32 0 53.5 22.5t21.5 72.5v44l-288 464l-13 29v-514h-105v700h97l299 -486l15 -34v520h105z" />
    <glyph glyph-name="eng" unicode="&#x14b;" horiz-adv-x="543" 
d="M320 495q81 0 124.5 -49.5t43.5 -140.5v-326q0 -98 -49 -150t-139 -52q-42 0 -74 11t-52 32l65 86q11 -11 26 -17.5t38 -6.5q33 0 54 22.5t21 72.5v321q0 48 -23.5 74.5t-66.5 26.5q-46 0 -74.5 -30.5t-28.5 -81.5v-287h-109v357q0 24 -9.5 34.5t-31.5 10.5v82
q8 2 21 3.5t29 1.5q41 0 63 -21t24 -59v-2q18 40 55.5 64t92.5 24z" />
    <glyph glyph-name="Omacron" unicode="&#x14c;" horiz-adv-x="714" 
d="M215 853h284v-86h-284v86zM355 -8q-64 0 -120.5 20t-99.5 62.5t-68 110t-25 162.5q0 92 26 160t69.5 112.5t101 66.5t120.5 22t120 -20.5t100 -64t68 -111t25 -162.5q0 -92 -26 -159.5t-69.5 -111.5t-101 -65.5t-120.5 -21.5zM355 88q39 0 75 13.5t63.5 44.5t44 81
t16.5 122q0 74 -16 124t-43 80.5t-62 43.5t-74 13t-75 -13.5t-63.5 -44.5t-44 -81t-16.5 -123t16 -123t42.5 -80.5t62 -43.5t74.5 -13z" />
    <glyph glyph-name="omacron" unicode="&#x14d;" horiz-adv-x="530" 
d="M129 679h271v-85h-271v85zM262 -13q-107 0 -166 68.5t-59 185.5q0 59 16 106t46 80t72.5 50.5t96.5 17.5q53 0 95 -17.5t71 -50.5t44 -80t15 -105t-16 -105t-46 -80.5t-72.5 -51.5t-96.5 -18zM265 79q56 0 86 41t30 121t-30.5 121.5t-85.5 41.5q-54 0 -85 -41.5
t-31 -121.5t30.5 -121t85.5 -41z" />
    <glyph glyph-name="Obreve" unicode="&#x14e;" horiz-adv-x="714" 
d="M356 742q-65 0 -100.5 40t-35.5 103h83q0 -26 13 -43.5t40 -17.5t40.5 17.5t13.5 43.5h82q0 -63 -36 -103t-100 -40zM355 -8q-64 0 -120.5 20t-99.5 62.5t-68 110t-25 162.5q0 92 26 160t69.5 112.5t101 66.5t120.5 22t120 -20.5t100 -64t68 -111t25 -162.5
q0 -92 -26 -159.5t-69.5 -111.5t-101 -65.5t-120.5 -21.5zM355 88q39 0 75 13.5t63.5 44.5t44 81t16.5 122q0 74 -16 124t-43 80.5t-62 43.5t-74 13t-75 -13.5t-63.5 -44.5t-44 -81t-16.5 -123t16 -123t42.5 -80.5t62 -43.5t74.5 -13z" />
    <glyph glyph-name="obreve" unicode="&#x14f;" horiz-adv-x="530" 
d="M265 563q-39 0 -65 12t-42 32t-22.5 46.5t-6.5 56.5h82q0 -64 54 -64q53 0 53 64h83q0 -30 -7 -56.5t-23 -46.5t-42 -32t-64 -12zM262 -13q-107 0 -166 68.5t-59 185.5q0 59 16 106t46 80t72.5 50.5t96.5 17.5q53 0 95 -17.5t71 -50.5t44 -80t15 -105t-16 -105t-46 -80.5
t-72.5 -51.5t-96.5 -18zM265 79q56 0 86 41t30 121t-30.5 121.5t-85.5 41.5q-54 0 -85 -41.5t-31 -121.5t30.5 -121t85.5 -41z" />
    <glyph glyph-name="Ohungarumlaut" unicode="&#x150;" horiz-adv-x="714" 
d="M267 886h130l-105 -144h-91zM448 886h131l-105 -144h-91zM355 -8q-64 0 -120.5 20t-99.5 62.5t-68 110t-25 162.5q0 92 26 160t69.5 112.5t101 66.5t120.5 22t120 -20.5t100 -64t68 -111t25 -162.5q0 -92 -26 -159.5t-69.5 -111.5t-101 -65.5t-120.5 -21.5zM355 88
q39 0 75 13.5t63.5 44.5t44 81t16.5 122q0 74 -16 124t-43 80.5t-62 43.5t-74 13t-75 -13.5t-63.5 -44.5t-44 -81t-16.5 -123t16 -123t42.5 -80.5t62 -43.5t74.5 -13z" />
    <glyph glyph-name="ohungarumlaut" unicode="&#x151;" horiz-adv-x="530" 
d="M182 732h124l-106 -184h-88zM364 732h124l-106 -184h-88zM262 -13q-107 0 -166 68.5t-59 185.5q0 59 16 106t46 80t72.5 50.5t96.5 17.5q53 0 95 -17.5t71 -50.5t44 -80t15 -105t-16 -105t-46 -80.5t-72.5 -51.5t-96.5 -18zM265 79q56 0 86 41t30 121t-30.5 121.5
t-85.5 41.5q-54 0 -85 -41.5t-31 -121.5t30.5 -121t85.5 -41z" />
    <glyph glyph-name="OE" unicode="&#x152;" horiz-adv-x="1015" 
d="M347 -6q-69 0 -125 24t-96 69.5t-62 111.5t-22 150t22 150.5t62 112t96 70t125 24.5q63 0 117 -24t80 -69v87h428v-100h-315v-195h264v-99h-264v-207h315v-99h-428v91q-29 -48 -82 -72.5t-115 -24.5zM350 93q88 0 138.5 65.5t50.5 190.5q0 126 -50.5 191t-138.5 65
t-138.5 -64.5t-50.5 -191.5q0 -125 50.5 -190.5t138.5 -65.5z" />
    <glyph glyph-name="oe" unicode="&#x153;" horiz-adv-x="822" 
d="M257 -6q-104 0 -162 66t-58 181q0 57 15 102.5t43.5 78t69.5 49.5t92 17q52 0 93.5 -19.5t69.5 -56.5q56 76 171 76q52 0 88.5 -16.5t59 -46t33 -70.5t10.5 -89v-36h-304v-7q3 -40 16 -66t31.5 -41.5t40 -21.5t41.5 -6q32 0 54.5 9.5t38.5 21.5q17 13 29 30l58 -59
q-16 -27 -43 -48q-25 -20 -61 -34t-90 -14q-51 0 -95.5 18.5t-74.5 59.5q-29 -38 -70.5 -58t-95.5 -20zM678 297q0 44 -21.5 72t-71.5 28q-41 0 -69 -23.5t-36 -76.5h198zM257 88q54 0 82 39t28 114t-28.5 114t-81.5 39t-82 -39t-29 -114t28.5 -114t82.5 -39z" />
    <glyph glyph-name="Racute" unicode="&#x154;" horiz-adv-x="647" 
d="M338 886h138l-118 -144h-103zM562 -5q-44 0 -72.5 20.5t-49 51.5t-36 67.5t-33 67.5t-41 51.5t-59.5 20.5h-78v-274h-111v700h237q123 0 188 -52.5t65 -161.5q0 -69 -40.5 -116.5t-106.5 -63.5q31 -16 49.5 -51t35 -70.5t36.5 -62.5t54 -27h30v-94q-3 -2 -23.5 -4
t-44.5 -2zM304 360q69 0 112 31t43 91q0 58 -37.5 91.5t-107.5 33.5h-121v-247h111z" />
    <glyph glyph-name="racute" unicode="&#x155;" horiz-adv-x="375" 
d="M229 732h131l-118 -184h-96zM76 357q0 24 -9.5 34.5t-31.5 10.5v82q8 2 21 3.5t28 1.5q43 0 65 -21.5t23 -54.5v-6q14 41 50 64t87 23q20 0 38.5 -4.5t28.5 -12.5l-41 -102q-8 6 -21.5 9t-29.5 3q-49 0 -74 -37t-25 -91v-259h-109v357z" />
    <glyph glyph-name="uni0156" unicode="&#x156;" horiz-adv-x="647" 
d="M562 -5q-44 0 -72.5 20.5t-49 51.5t-36 67.5t-33 67.5t-41 51.5t-59.5 20.5h-78v-274h-111v700h237q123 0 188 -52.5t65 -161.5q0 -69 -40.5 -116.5t-106.5 -63.5q31 -16 49.5 -51t35 -70.5t36.5 -62.5t54 -27h30v-94q-3 -2 -23.5 -4t-44.5 -2zM304 360q69 0 112 31
t43 91q0 58 -37.5 91.5t-107.5 33.5h-121v-247h111zM282 -211q23 8 35.5 21.5t12.5 27.5q-26 1 -41 17.5t-15 44.5q0 27 18.5 45.5t46.5 18.5q32 0 51.5 -20.5t19.5 -55.5q0 -54 -28.5 -93.5t-73.5 -51.5z" />
    <glyph glyph-name="uni0157" unicode="&#x157;" horiz-adv-x="375" 
d="M76 357q0 24 -9.5 34.5t-31.5 10.5v82q8 2 21 3.5t28 1.5q43 0 65 -21.5t23 -54.5v-6q14 41 50 64t87 23q20 0 38.5 -4.5t28.5 -12.5l-41 -102q-8 6 -21.5 9t-29.5 3q-49 0 -74 -37t-25 -91v-259h-109v357zM78 -211q23 8 35 21.5t13 27.5q-26 1 -41.5 17.5t-15.5 44.5
q0 27 18.5 45.5t47.5 18.5q32 0 51 -20.5t19 -55.5q0 -54 -28 -93.5t-73 -51.5z" />
    <glyph glyph-name="Rcaron" unicode="&#x158;" horiz-adv-x="647" 
d="M171 886h97l53 -73l52 73h96l-89 -144h-121zM562 -5q-44 0 -72.5 20.5t-49 51.5t-36 67.5t-33 67.5t-41 51.5t-59.5 20.5h-78v-274h-111v700h237q123 0 188 -52.5t65 -161.5q0 -69 -40.5 -116.5t-106.5 -63.5q31 -16 49.5 -51t35 -70.5t36.5 -62.5t54 -27h30v-94
q-3 -2 -23.5 -4t-44.5 -2zM304 360q69 0 112 31t43 91q0 58 -37.5 91.5t-107.5 33.5h-121v-247h111z" />
    <glyph glyph-name="rcaron" unicode="&#x159;" horiz-adv-x="375" 
d="M63 730h95l52 -103l51 103h95l-89 -181h-116zM76 357q0 24 -9.5 34.5t-31.5 10.5v82q8 2 21 3.5t28 1.5q43 0 65 -21.5t23 -54.5v-6q14 41 50 64t87 23q20 0 38.5 -4.5t28.5 -12.5l-41 -102q-8 6 -21.5 9t-29.5 3q-49 0 -74 -37t-25 -91v-259h-109v357z" />
    <glyph glyph-name="Sacute" unicode="&#x15a;" horiz-adv-x="591" 
d="M305 886h139l-118 -144h-104zM290 -8q-188 0 -264 116l77 71q31 -45 79.5 -68.5t109.5 -23.5q76 0 113 25.5t37 73.5q0 50 -38.5 77t-132.5 46q-49 11 -90 26.5t-70.5 38.5t-45.5 56t-16 79q0 45 18 81.5t50.5 62.5t78 40.5t100.5 14.5q47 0 90 -9.5t76 -31t53 -56
t20 -84.5q0 -10 -1 -18.5t-4 -19.5l-104 1q3 17 3 27q0 25 -10.5 43t-28.5 30t-42 17.5t-51 5.5q-67 0 -102 -25.5t-35 -73.5q0 -24 9.5 -40t30 -28t53.5 -22t79 -21q56 -13 97 -30t69 -41.5t41.5 -58t13.5 -78.5q0 -96 -70 -149.5t-193 -53.5z" />
    <glyph glyph-name="sacute" unicode="&#x15b;" horiz-adv-x="477" 
d="M262 732h131l-119 -184h-95zM236 -13q-63 0 -119.5 19.5t-93.5 67.5l65 71q35 -43 72 -56t79 -13q51 0 74 13.5t23 39.5q0 16 -8.5 26t-24.5 17t-37.5 12t-48.5 11q-31 7 -61.5 16.5t-55 26.5t-39.5 43t-15 65q0 67 51 108t145 41q89 0 139.5 -36t50.5 -105
q0 -11 -2 -23.5t-6 -22.5h-98q2 7 3 17t1 19q0 30 -23.5 46.5t-66.5 16.5q-88 0 -88 -59q0 -17 9.5 -28t26.5 -18.5t40 -13t50 -11.5q29 -6 58 -14.5t52.5 -24.5t38 -40t14.5 -62q1 -75 -54 -112t-151 -37z" />
    <glyph glyph-name="Scircumflex" unicode="&#x15c;" horiz-adv-x="591" 
d="M227 886h121l87 -144h-97l-52 73l-52 -73h-96zM290 -8q-188 0 -264 116l77 71q31 -45 79.5 -68.5t109.5 -23.5q76 0 113 25.5t37 73.5q0 50 -38.5 77t-132.5 46q-49 11 -90 26.5t-70.5 38.5t-45.5 56t-16 79q0 45 18 81.5t50.5 62.5t78 40.5t100.5 14.5q47 0 90 -9.5
t76 -31t53 -56t20 -84.5q0 -10 -1 -18.5t-4 -19.5l-104 1q3 17 3 27q0 25 -10.5 43t-28.5 30t-42 17.5t-51 5.5q-67 0 -102 -25.5t-35 -73.5q0 -24 9.5 -40t30 -28t53.5 -22t79 -21q56 -13 97 -30t69 -41.5t41.5 -58t13.5 -78.5q0 -96 -70 -149.5t-193 -53.5z" />
    <glyph glyph-name="scircumflex" unicode="&#x15d;" horiz-adv-x="477" 
d="M184 730h116l88 -181h-96l-51 103l-52 -103h-95zM236 -13q-63 0 -119.5 19.5t-93.5 67.5l65 71q35 -43 72 -56t79 -13q51 0 74 13.5t23 39.5q0 16 -8.5 26t-24.5 17t-37.5 12t-48.5 11q-31 7 -61.5 16.5t-55 26.5t-39.5 43t-15 65q0 67 51 108t145 41q89 0 139.5 -36
t50.5 -105q0 -11 -2 -23.5t-6 -22.5h-98q2 7 3 17t1 19q0 30 -23.5 46.5t-66.5 16.5q-88 0 -88 -59q0 -17 9.5 -28t26.5 -18.5t40 -13t50 -11.5q29 -6 58 -14.5t52.5 -24.5t38 -40t14.5 -62q1 -75 -54 -112t-151 -37z" />
    <glyph glyph-name="Scedilla" unicode="&#x15e;" horiz-adv-x="591" 
d="M553 195q0 -87 -57.5 -139t-159.5 -62l-11 -32q32 -5 56 -22.5t24 -58.5q0 -44 -33.5 -67.5t-87.5 -23.5q-26 0 -52 8t-41 24l33 56q26 -21 55 -21q16 0 25.5 6t9.5 20q0 17 -20 26t-52 11l26 72q-170 7 -242 116l77 71q31 -45 79.5 -68.5t109.5 -23.5q76 0 113 25.5
t37 73.5q0 50 -38.5 77t-132.5 46q-49 11 -90 26.5t-70.5 38.5t-45.5 56t-16 79q0 45 18 81.5t50.5 62.5t78 40.5t100.5 14.5q47 0 90 -9.5t76 -31t53 -56t20 -84.5q0 -10 -1 -18.5t-4 -19.5l-104 1q3 17 3 27q0 25 -10.5 43t-28.5 30t-42 17.5t-51 5.5q-67 0 -102 -25.5
t-35 -73.5q0 -24 9.5 -40t30 -28t53.5 -22t79 -21q56 -13 97 -30t69 -41.5t41.5 -58t13.5 -78.5z" />
    <glyph glyph-name="scedilla" unicode="&#x15f;" horiz-adv-x="477" 
d="M441 136q1 -66 -42 -102.5t-119 -44.5l-9 -27q32 -5 56 -22.5t24 -58.5q0 -44 -33 -67.5t-87 -23.5q-27 0 -53 8t-41 24l33 56q26 -21 55 -21q16 0 25.5 6t9.5 20q0 17 -20 26t-52 11l24 68q-57 3 -106.5 23t-82.5 63l65 71q35 -43 72 -56t79 -13q51 0 74 13.5t23 39.5
q0 16 -8.5 26t-24.5 17t-37.5 12t-48.5 11q-31 7 -61.5 16.5t-55 26.5t-39.5 43t-15 65q0 67 51 108t145 41q89 0 139.5 -36t50.5 -105q0 -11 -2 -23.5t-6 -22.5h-98q2 7 3 17t1 19q0 30 -23.5 46.5t-66.5 16.5q-88 0 -88 -59q0 -17 9.5 -28t26.5 -18.5t40 -13t50 -11.5
q29 -6 58 -14.5t52.5 -24.5t38 -40t14.5 -62z" />
    <glyph glyph-name="Scaron" unicode="&#x160;" horiz-adv-x="591" 
d="M139 886h97l52 -73l52 73h96l-88 -144h-121zM290 -8q-188 0 -264 116l77 71q31 -45 79.5 -68.5t109.5 -23.5q76 0 113 25.5t37 73.5q0 50 -38.5 77t-132.5 46q-49 11 -90 26.5t-70.5 38.5t-45.5 56t-16 79q0 45 18 81.5t50.5 62.5t78 40.5t100.5 14.5q47 0 90 -9.5
t76 -31t53 -56t20 -84.5q0 -10 -1 -18.5t-4 -19.5l-104 1q3 17 3 27q0 25 -10.5 43t-28.5 30t-42 17.5t-51 5.5q-67 0 -102 -25.5t-35 -73.5q0 -24 9.5 -40t30 -28t53.5 -22t79 -21q56 -13 97 -30t69 -41.5t41.5 -58t13.5 -78.5q0 -96 -70 -149.5t-193 -53.5z" />
    <glyph glyph-name="scaron" unicode="&#x161;" horiz-adv-x="477" 
d="M95 730h96l51 -103l52 103h95l-89 -181h-116zM236 -13q-63 0 -119.5 19.5t-93.5 67.5l65 71q35 -43 72 -56t79 -13q51 0 74 13.5t23 39.5q0 16 -8.5 26t-24.5 17t-37.5 12t-48.5 11q-31 7 -61.5 16.5t-55 26.5t-39.5 43t-15 65q0 67 51 108t145 41q89 0 139.5 -36
t50.5 -105q0 -11 -2 -23.5t-6 -22.5h-98q2 7 3 17t1 19q0 30 -23.5 46.5t-66.5 16.5q-88 0 -88 -59q0 -17 9.5 -28t26.5 -18.5t40 -13t50 -11.5q29 -6 58 -14.5t52.5 -24.5t38 -40t14.5 -62q1 -75 -54 -112t-151 -37z" />
    <glyph glyph-name="uni0162" unicode="&#x162;" horiz-adv-x="554" 
d="M318 0l-13 -38q32 -5 56 -22.5t24 -58.5q0 -44 -33.5 -67.5t-87.5 -23.5q-26 0 -52 8t-41 24l33 56q26 -21 55 -21q16 0 25.5 6t9.5 20q0 17 -20 26t-52 11l29 80h-28v597h-208v103h525v-103h-205v-597h-17z" />
    <glyph glyph-name="uni0163" unicode="&#x163;" horiz-adv-x="415" 
d="M282 -38q32 -5 56 -22.5t24 -58.5q0 -44 -33 -67.5t-87 -23.5q-27 0 -53 8t-41 24l33 56q26 -21 55 -21q35 0 35 26q0 17 -20 26t-52 11l29 79q-126 24 -126 193v199h-87v91h91v140h106v-140h174v-91h-174v-194q0 -54 20.5 -78.5t62.5 -24.5q24 0 45 8.5t35 19.5l38 -82
q-20 -18 -53 -30.5t-67 -15.5z" />
    <glyph glyph-name="Tcaron" unicode="&#x164;" horiz-adv-x="554" 
d="M129 886h97l52 -73l52 73h96l-88 -144h-121zM223 597h-208v103h525v-103h-205v-597h-112v597z" />
    <glyph glyph-name="tcaron" unicode="&#x165;" horiz-adv-x="415" 
d="M286 568q24 8 36.5 21.5t13.5 27.5q-26 2 -41.5 19.5t-15.5 43.5q0 27 18.5 46t47.5 19q31 0 50.5 -20.5t19.5 -54.5q0 -54 -28 -95t-75 -55zM280 -6q-91 0 -134.5 48t-43.5 150v199h-87v91h91v140h106v-140h174v-91h-174v-194q0 -54 20.5 -78.5t62.5 -24.5q24 0 45 8.5
t35 19.5l38 -82q-22 -20 -59 -33t-74 -13z" />
    <glyph glyph-name="Tbar" unicode="&#x166;" horiz-adv-x="561" 
d="M338 597v-225h91v-88h-91v-284h-111v284h-96v88h96v225h-208v103h525v-103h-206z" />
    <glyph glyph-name="tbar" unicode="&#x167;" horiz-adv-x="419" 
d="M417 40q-23 -20 -60 -33t-74 -13q-91 0 -134.5 48t-43.5 150v27h-65v87h65v85h-87v91h91v140h106v-140h174v-91h-174v-85h123v-87h-123v-22q0 -54 20.5 -78.5t62.5 -24.5q24 0 45 8.5t35 19.5z" />
    <glyph glyph-name="Utilde" unicode="&#x168;" horiz-adv-x="673" 
d="M186 745q-12 21 -12 54t22.5 56t63.5 23q23 0 41.5 -6t34.5 -13.5t30 -13.5t27 -6q24 0 24 23q0 14 -6 21h77q13 -24 13 -54q0 -33 -23 -56.5t-69 -23.5q-23 0 -42 6t-34.5 13.5t-28.5 13.5t-25 6q-22 0 -22 -22q0 -7 2 -12t4 -9h-77zM338 -6q-55 0 -103 14.5t-84 49
t-56.5 90.5t-20.5 140v412h112v-420q0 -92 37.5 -139.5t114.5 -47.5t114 47.5t37 139.5v420h110v-412q0 -84 -20 -140t-55.5 -90.5t-83 -49t-102.5 -14.5z" />
    <glyph glyph-name="utilde" unicode="&#x169;" horiz-adv-x="547" 
d="M124 564q-13 23 -13 54q0 34 22.5 57.5t67.5 23.5q20 0 37.5 -6.5t32.5 -14t29 -14t26 -6.5q25 0 25 22q0 16 -6 23h75q13 -24 13 -54q0 -34 -22.5 -58t-67.5 -24q-23 0 -41.5 6.5t-33.5 14t-27 14t-22 6.5q-26 0 -26 -22q0 -14 6 -22h-75zM222 -13q-78 0 -120 45
t-42 130v320h109v-300q0 -55 24 -77t66 -22q26 0 45 10t32 26t19 35.5t6 38.5v289h110v-354q0 -23 9 -34.5t32 -11.5v-82q-3 -1 -16.5 -3t-33.5 -2q-42 0 -63.5 20.5t-23.5 57.5l-1 4q-18 -37 -52.5 -63.5t-99.5 -26.5z" />
    <glyph glyph-name="Umacron" unicode="&#x16a;" horiz-adv-x="673" 
d="M196 853h283v-86h-283v86zM338 -6q-55 0 -103 14.5t-84 49t-56.5 90.5t-20.5 140v412h112v-420q0 -92 37.5 -139.5t114.5 -47.5t114 47.5t37 139.5v420h110v-412q0 -84 -20 -140t-55.5 -90.5t-83 -49t-102.5 -14.5z" />
    <glyph glyph-name="umacron" unicode="&#x16b;" horiz-adv-x="547" 
d="M135 679h271v-85h-271v85zM222 -13q-78 0 -120 45t-42 130v320h109v-300q0 -55 24 -77t66 -22q26 0 45 10t32 26t19 35.5t6 38.5v289h110v-354q0 -23 9 -34.5t32 -11.5v-82q-3 -1 -16.5 -3t-33.5 -2q-42 0 -63.5 20.5t-23.5 57.5l-1 4q-18 -37 -52.5 -63.5t-99.5 -26.5z
" />
    <glyph glyph-name="Ubreve" unicode="&#x16c;" horiz-adv-x="673" 
d="M336 742q-65 0 -100 40t-35 103h82q0 -26 13.5 -43.5t40.5 -17.5t40 17.5t13 43.5h83q0 -63 -36 -103t-101 -40zM338 -6q-55 0 -103 14.5t-84 49t-56.5 90.5t-20.5 140v412h112v-420q0 -92 37.5 -139.5t114.5 -47.5t114 47.5t37 139.5v420h110v-412q0 -84 -20 -140
t-55.5 -90.5t-83 -49t-102.5 -14.5z" />
    <glyph glyph-name="ubreve" unicode="&#x16d;" horiz-adv-x="547" 
d="M271 563q-39 0 -65.5 12t-42 32t-22.5 46.5t-7 56.5h83q0 -64 53 -64q54 0 54 64h82q0 -30 -7 -56.5t-22.5 -46.5t-41.5 -32t-64 -12zM222 -13q-78 0 -120 45t-42 130v320h109v-300q0 -55 24 -77t66 -22q26 0 45 10t32 26t19 35.5t6 38.5v289h110v-354q0 -23 9 -34.5
t32 -11.5v-82q-3 -1 -16.5 -3t-33.5 -2q-42 0 -63.5 20.5t-23.5 57.5l-1 4q-18 -37 -52.5 -63.5t-99.5 -26.5z" />
    <glyph glyph-name="Uring" unicode="&#x16e;" horiz-adv-x="673" 
d="M338 704q-25 0 -46.5 9t-37.5 25t-25 37.5t-9 45.5q0 25 9 46.5t25 37.5t37.5 25t46.5 9q24 0 45.5 -9t37.5 -25t25 -37.5t9 -46.5q0 -24 -9 -45.5t-25 -37.5t-37.5 -25t-45.5 -9zM338 774q20 0 32 13.5t12 33.5q0 21 -12 34t-32 13q-21 0 -33 -13t-12 -34
q0 -20 12 -33.5t33 -13.5zM338 -6q-55 0 -103 14.5t-84 49t-56.5 90.5t-20.5 140v412h112v-420q0 -92 37.5 -139.5t114.5 -47.5t114 47.5t37 139.5v420h110v-412q0 -84 -20 -140t-55.5 -90.5t-83 -49t-102.5 -14.5z" />
    <glyph glyph-name="uring" unicode="&#x16f;" horiz-adv-x="547" 
d="M271 528q-24 0 -44.5 8.5t-35.5 23.5t-23.5 35.5t-8.5 43.5q0 24 8.5 44.5t23.5 35.5t35.5 23.5t44.5 8.5q23 0 43.5 -8.5t35.5 -23.5t23.5 -35.5t8.5 -44.5q0 -23 -8.5 -43.5t-23.5 -35.5t-35.5 -23.5t-43.5 -8.5zM271 596q19 0 31 12t12 31t-12 31t-31 12
q-20 0 -31.5 -12t-11.5 -31t11.5 -31t31.5 -12zM222 -13q-78 0 -120 45t-42 130v320h109v-300q0 -55 24 -77t66 -22q26 0 45 10t32 26t19 35.5t6 38.5v289h110v-354q0 -23 9 -34.5t32 -11.5v-82q-3 -1 -16.5 -3t-33.5 -2q-42 0 -63.5 20.5t-23.5 57.5l-1 4
q-18 -37 -52.5 -63.5t-99.5 -26.5z" />
    <glyph glyph-name="Uhungarumlaut" unicode="&#x170;" horiz-adv-x="673" 
d="M247 886h131l-105 -144h-92zM429 886h130l-105 -144h-90zM338 -6q-55 0 -103 14.5t-84 49t-56.5 90.5t-20.5 140v412h112v-420q0 -92 37.5 -139.5t114.5 -47.5t114 47.5t37 139.5v420h110v-412q0 -84 -20 -140t-55.5 -90.5t-83 -49t-102.5 -14.5z" />
    <glyph glyph-name="uhungarumlaut" unicode="&#x171;" horiz-adv-x="547" 
d="M188 732h124l-106 -184h-88zM369 732h124l-106 -184h-87zM222 -13q-78 0 -120 45t-42 130v320h109v-300q0 -55 24 -77t66 -22q26 0 45 10t32 26t19 35.5t6 38.5v289h110v-354q0 -23 9 -34.5t32 -11.5v-82q-3 -1 -16.5 -3t-33.5 -2q-42 0 -63.5 20.5t-23.5 57.5l-1 4
q-18 -37 -52.5 -63.5t-99.5 -26.5z" />
    <glyph glyph-name="Uogonek" unicode="&#x172;" horiz-adv-x="673" 
d="M599 700v-412q0 -69 -14 -120t-39.5 -85.5t-60 -54.5t-76.5 -28q-28 -11 -44.5 -32.5t-16.5 -46.5q0 -20 9.5 -29t24.5 -9q10 0 17 3t12 7l30 -54q-13 -13 -34 -20t-46 -7q-50 0 -76.5 23.5t-26.5 66.5q0 51 44 93q-48 4 -90 22t-72.5 52.5t-48 88t-17.5 130.5v412h112
v-420q0 -92 37.5 -139.5t114.5 -47.5t114 47.5t37 139.5v420h110z" />
    <glyph glyph-name="uogonek" unicode="&#x173;" horiz-adv-x="547" 
d="M540 -162q-13 -13 -34 -20t-46 -7q-51 0 -77 23t-26 66q0 29 15 56t41 49q-36 20 -38 68l-1 4q-18 -37 -52.5 -63.5t-99.5 -26.5q-78 0 -120 45t-42 130v320h109v-300q0 -55 24 -77t66 -22q26 0 45 10t32 26t19 35.5t6 38.5v289h110v-354q0 -23 9 -34.5t32 -11.5v-82
q-30 -11 -47.5 -33t-17.5 -48q0 -20 9 -29t24 -9q10 0 17 3.5t12 7.5z" />
    <glyph glyph-name="Wcircumflex" unicode="&#x174;" horiz-adv-x="935" 
d="M408 886h121l88 -144h-98l-52 73l-52 -73h-96zM13 700h127l125 -575l152 575h106l152 -575l126 575h121l-185 -700h-126l-141 540l-146 -540h-126z" />
    <glyph glyph-name="wcircumflex" unicode="&#x175;" horiz-adv-x="751" 
d="M323 549h-95l90 181h116l88 -181h-96l-51 103zM739 482l-152 -482h-118l-77 295l-13 68l-14 -68l-84 -295h-118l-150 482h119l74 -285l20 -96l21 96l79 285h108l76 -284l20 -97l21 97l76 284h112z" />
    <glyph glyph-name="Ycircumflex" unicode="&#x176;" horiz-adv-x="608" 
d="M245 886h121l88 -144h-97l-52 73l-53 -73h-95zM249 287l-238 413h131l165 -309l167 309h125l-239 -410v-290h-111v287z" />
    <glyph glyph-name="ycircumflex" unicode="&#x177;" horiz-adv-x="535" 
d="M209 730h115l89 -181h-96l-51 103l-52 -103h-95zM247 -247q-78 0 -128 25.5t-73 70.5l72 57q20 -32 50 -47.5t78 -15.5q60 0 90.5 33t30.5 91v109q-21 -39 -60.5 -60.5t-93.5 -21.5q-153 0 -153 173v315h109v-294q0 -99 82 -99q21 0 40.5 9.5t35 26t24.5 37.5t9 43v277
h111v-513q0 -100 -58.5 -158t-165.5 -58z" />
    <glyph glyph-name="Ydieresis" unicode="&#x178;" horiz-adv-x="608" 
d="M196 745q-29 0 -49 21t-20 50t20 50t49 21t49.5 -21t20.5 -50t-20.5 -50t-49.5 -21zM422 745q-29 0 -49.5 21t-20.5 50t20.5 50t49.5 21q30 0 50 -21t20 -50t-20 -50t-50 -21zM249 287l-238 413h131l165 -309l167 309h125l-239 -410v-290h-111v287z" />
    <glyph glyph-name="Zacute" unicode="&#x179;" horiz-adv-x="585" 
d="M329 742h-103l83 144h139zM550 95v-95h-516v86l387 519h-383v95h510v-86l-384 -519h386z" />
    <glyph glyph-name="zacute" unicode="&#x17a;" horiz-adv-x="497" 
d="M276 548h-95l83 184h131zM230 247q36 -6 78 -22t78 -47.5t60 -80.5t24 -120q0 -51 -17 -92t-47 -69.5t-71 -44t-89 -15.5q-95 0 -151.5 49.5t-56.5 136.5q0 43 13 78t33.5 62t46 47.5t50.5 33.5q-39 6 -82 6v85l196 138h-250v90h390v-87zM248 -153q54 0 87.5 34.5
t33.5 97.5q0 61 -27 99.5t-73 59.5q-23 -12 -46 -29t-42 -39t-30.5 -50t-11.5 -63q0 -53 30 -81.5t79 -28.5z" />
    <glyph glyph-name="Zdotaccent" unicode="&#x17b;" horiz-adv-x="585" 
d="M292 743q-29 0 -51 21.5t-22 51.5q0 29 22 50.5t51 21.5t50.5 -21.5t21.5 -50.5q0 -30 -21.5 -51.5t-50.5 -21.5zM550 95v-95h-516v86l387 519h-383v95h510v-86l-384 -519h386z" />
    <glyph glyph-name="zdotaccent" unicode="&#x17c;" horiz-adv-x="497" 
d="M245 569q-29 0 -50 20.5t-21 50.5q0 29 21 49.5t50 20.5t49.5 -20.5t20.5 -49.5q0 -30 -20.5 -50.5t-49.5 -20.5zM230 247q36 -6 78 -22t78 -47.5t60 -80.5t24 -120q0 -51 -17 -92t-47 -69.5t-71 -44t-89 -15.5q-95 0 -151.5 49.5t-56.5 136.5q0 43 13 78t33.5 62
t46 47.5t50.5 33.5q-39 6 -82 6v85l196 138h-250v90h390v-87zM248 -153q54 0 87.5 34.5t33.5 97.5q0 61 -27 99.5t-73 59.5q-23 -12 -46 -29t-42 -39t-30.5 -50t-11.5 -63q0 -53 30 -81.5t79 -28.5z" />
    <glyph glyph-name="Zcaron" unicode="&#x17d;" horiz-adv-x="585" 
d="M231 742l-88 144h97l52 -73l52 73h96l-88 -144h-121zM550 95v-95h-516v86l387 519h-383v95h510v-86l-384 -519h386z" />
    <glyph glyph-name="zcaron" unicode="&#x17e;" horiz-adv-x="497" 
d="M186 549l-89 181h96l52 -103l51 103h95l-89 -181h-116zM230 247q36 -6 78 -22t78 -47.5t60 -80.5t24 -120q0 -51 -17 -92t-47 -69.5t-71 -44t-89 -15.5q-95 0 -151.5 49.5t-56.5 136.5q0 43 13 78t33.5 62t46 47.5t50.5 33.5q-39 6 -82 6v85l196 138h-250v90h390v-87z
M248 -153q54 0 87.5 34.5t33.5 97.5q0 61 -27 99.5t-73 59.5q-23 -12 -46 -29t-42 -39t-30.5 -50t-11.5 -63q0 -53 30 -81.5t79 -28.5z" />
    <glyph glyph-name="uni018F" unicode="&#x18f;" horiz-adv-x="665" 
d="M325 708q141 0 219 -89.5t78 -260.5q0 -84 -21 -151.5t-60 -115.5t-95 -73.5t-127 -25.5q-66 0 -118.5 22t-89 63.5t-56.5 101t-20 134.5q0 16 0.5 29.5t2.5 29.5h466q-4 122 -52.5 179.5t-126.5 57.5q-36 0 -62 -6.5t-46.5 -19t-36 -30t-29.5 -39.5l-88 49
q17 30 41.5 56.5t57 46t73.5 31t90 11.5zM324 88q155 0 176 197h-347q2 -91 44.5 -144t126.5 -53z" />
    <glyph glyph-name="florin" unicode="&#x192;" horiz-adv-x="427" 
d="M47 -180q-45 0 -74.5 15.5t-47.5 40.5l57 68q11 -16 24 -22.5t29 -6.5q37 0 57.5 24.5t20.5 72.5v353h-70v87h70v59q0 91 46 140t132 49q38 0 70 -12t54 -33l-49 -73q-14 12 -27.5 17.5t-36.5 5.5q-38 0 -58.5 -25t-20.5 -73v-55h142v-87h-142v-356q0 -91 -45.5 -140
t-130.5 -49z" />
    <glyph glyph-name="uni019D" unicode="&#x19d;" horiz-adv-x="680" 
d="M598 700v-700h-97l-301 485l-13 29v-552q0 -109 -52 -161.5t-142 -52.5q-45 0 -78.5 13.5t-51.5 36.5l65 78q11 -11 27.5 -18t38.5 -7q41 0 64.5 24.5t23.5 85.5v739h97l299 -486l15 -34v520h105z" />
    <glyph glyph-name="Gcaron" unicode="&#x1e6;" horiz-adv-x="659" 
d="M195 886h98l52 -73l52 73h96l-89 -144h-121zM353 -11q-149 0 -229.5 89.5t-80.5 269.5q0 82 21.5 148.5t62 113.5t98.5 72.5t131 25.5q117 0 179 -53.5t62 -142.5q0 -26 -5 -44h-106q1 5 1.5 11t0.5 21q0 49 -35 79.5t-101 30.5q-95 0 -143 -67.5t-48 -193.5
q0 -128 50.5 -196t147.5 -68q59 0 95 13.5t50 27.5v131h-149v97h254v-275q-13 -15 -36 -30.5t-55.5 -29t-73.5 -22t-91 -8.5z" />
    <glyph glyph-name="gcaron" unicode="&#x1e7;" horiz-adv-x="513" 
d="M133 730h96l51 -103l52 103h95l-89 -181h-116zM256 -240q-72 0 -121 23.5t-77 68.5l70 62q20 -29 49 -46.5t78 -17.5q58 0 89.5 32t31.5 92v92q-15 -30 -50.5 -54.5t-95.5 -24.5q-43 0 -78.5 18t-61 51t-39.5 79t-14 102t15 103.5t42 82t65 53.5t85 19q46 0 80 -18
t59 -53v58h97v-508q0 -49 -16 -88.5t-45.5 -67.5t-70.5 -43t-92 -15zM265 79q43 0 69.5 25t38.5 67v141q-4 17 -12 33t-21.5 29.5t-32 21.5t-42.5 8q-58 0 -87.5 -43t-29.5 -124q0 -72 30 -115t87 -43z" />
    <glyph glyph-name="uni01EA" unicode="&#x1ea;" horiz-adv-x="714" 
d="M419 -2q-27 -12 -43 -33.5t-16 -45.5q0 -20 9.5 -29t24.5 -9q10 0 17 3t12 7l31 -54q-14 -13 -35 -20t-45 -7q-51 0 -77 23.5t-26 66.5q0 25 11.5 49t32.5 45q-57 6 -107 29t-86.5 66t-58 107t-21.5 151q0 92 26 160t69.5 112.5t101 66.5t120.5 22t120 -20.5t100 -64
t68 -111t25 -162.5q0 -80 -19.5 -141.5t-54 -105t-80.5 -70t-99 -35.5zM160 348q0 -73 16 -123t42.5 -80.5t62 -43.5t74.5 -13t75 13.5t63.5 44.5t44 81t16.5 122q0 74 -16 124t-43 80.5t-62 43.5t-74 13t-75 -13.5t-63.5 -44.5t-44 -81t-16.5 -123z" />
    <glyph glyph-name="uni01EB" unicode="&#x1eb;" horiz-adv-x="530" 
d="M324 -6q-23 -12 -37 -32t-14 -43q0 -20 9.5 -29t24.5 -9q10 0 17 3t12 7l30 -54q-13 -13 -34 -20t-46 -7q-50 0 -76.5 23.5t-26.5 66.5q0 23 10.5 46.5t29.5 43.5q-90 12 -138 78.5t-48 172.5q0 59 16 106t46 80t72.5 50.5t96.5 17.5q53 0 95 -17.5t71 -50.5t44 -80
t15 -105q0 -98 -44.5 -163t-124.5 -85zM149 241q0 -80 30.5 -121t85.5 -41q56 0 86 41t30 121t-30.5 121.5t-85.5 41.5q-54 0 -85 -41.5t-31 -121.5z" />
    <glyph glyph-name="Aringacute" unicode="&#x1fa;" horiz-adv-x="642" 
d="M457 182h-273l-63 -182h-115l250 679q-24 15 -38 40.5t-14 57.5q0 39 21 68.5t56 41.5l62 108h138l-97 -119q25 -15 39.5 -41t14.5 -58t-14 -57.5t-38 -40.5l249 -679h-115zM321 823q-20 0 -32.5 -12.5t-12.5 -33.5t12.5 -34.5t32.5 -13.5t32.5 13.5t12.5 34.5
t-12.5 33.5t-32.5 12.5zM426 272l-105 306l-106 -306h211z" />
    <glyph glyph-name="aringacute" unicode="&#x1fb;" horiz-adv-x="511" 
d="M262 528q-24 0 -44.5 8.5t-35.5 23.5t-23.5 35.5t-8.5 43.5q0 35 18.5 62.5t48.5 40.5l64 141h131l-95 -146q26 -14 41 -40t15 -58q0 -23 -8.5 -43.5t-23.5 -35.5t-35.5 -23.5t-43.5 -8.5zM262 596q19 0 30.5 12t11.5 31t-12 31t-30 12q-20 0 -31.5 -12t-11.5 -31
t11.5 -31t31.5 -12zM481 131q0 -27 8.5 -38t31.5 -11v-81q-7 -2 -20.5 -4t-28.5 -2q-41 0 -63.5 19.5t-24.5 53.5l-1 3q-20 -38 -56.5 -61t-96.5 -23q-43 0 -78.5 18t-61 50.5t-39.5 78.5t-14 102q0 57 15 104.5t42 82t65 53.5t84 19q92 0 137 -65v52h101v-351zM372 312
q-4 17 -12 33t-21 29.5t-31.5 21.5t-42.5 8q-57 0 -87 -43t-30 -124q0 -73 29.5 -115.5t87.5 -42.5q45 0 70.5 25t36.5 67v141z" />
    <glyph glyph-name="AEacute" unicode="&#x1fc;" horiz-adv-x="835" 
d="M491 886h139l-118 -144h-104zM263 700h531v-95h-385l79 -213h241v-94h-206l74 -203h197v-95h-280l-66 184h-263l-64 -184h-116zM417 275l-100 286l-99 -286h199z" />
    <glyph glyph-name="aeacute" unicode="&#x1fd;" horiz-adv-x="786" 
d="M424 548h-95l83 184h131zM749 274v-22t-1 -23h-305q2 -75 34.5 -113t90.5 -38q45 0 74 20t44 43l62 -55q-9 -15 -25 -32.5t-39.5 -32.5t-54 -24.5t-68.5 -9.5q-69 0 -118 28t-75 79q-35 -57 -81 -81.5t-104 -24.5q-73 0 -113 35t-40 96q0 65 47 100t144 36h110v62
q0 89 -89 89q-84 0 -84 -71q0 -12 2.5 -21.5t5.5 -14.5h-99q-3 5 -7 19.5t-4 34.5q0 65 50 103.5t140 38.5q56 0 95 -18.5t62 -48.5q28 31 65.5 49t85.5 18q97 0 146 -59t49 -162zM643 300q0 47 -22.5 76.5t-70.5 29.5t-71.5 -29t-31.5 -77h196zM208 72q49 0 78.5 26
t44.5 69v22l-109 -1q-42 0 -61.5 -16.5t-19.5 -42.5q0 -57 67 -57z" />
    <glyph glyph-name="Oslashacute" unicode="&#x1fe;" horiz-adv-x="715" 
d="M396 742h-103l83 144h139zM583 620q42 -44 65.5 -110t23.5 -160q0 -92 -26 -159.5t-69.5 -111.5t-101 -65.5t-120.5 -21.5q-44 0 -84 9t-75 29l-30 -46h-101l64 97q-40 44 -63 109t-23 157t26 160t69.5 112.5t101 66.5t120.5 22q43 0 82.5 -9t74.5 -28l30 45h99zM160 348
q0 -55 9 -96.5t25 -71.5l266 404q-43 26 -100 26q-39 0 -75 -13.5t-64 -44.5t-44.5 -81t-16.5 -123zM355 88q39 0 75 13.5t64 44.5t44.5 81t16.5 122q0 57 -9.5 100t-26.5 73l-267 -406q23 -15 49 -21.5t54 -6.5z" />
    <glyph glyph-name="oslashacute" unicode="&#x1ff;" horiz-adv-x="530" 
d="M293 548h-95l83 184h131zM431 430q30 -33 46 -80.5t16 -107.5q0 -58 -16 -105t-46 -80.5t-72.5 -51.5t-96.5 -18q-59 0 -107 23l-23 -36h-85l52 78q-62 67 -62 189q0 59 16 106t46 80t72.5 50.5t96.5 17.5q61 0 107 -23l24 36h83zM149 241q0 -53 14 -90l158 239
q-25 14 -56 14q-54 0 -85 -41.5t-31 -121.5zM265 79q56 0 86 41t30 121q0 52 -14 91l-157 -239q25 -14 55 -14z" />
    <glyph glyph-name="uni0218" unicode="&#x218;" horiz-adv-x="591" 
d="M290 -8q-188 0 -264 116l77 71q31 -45 79.5 -68.5t109.5 -23.5q76 0 113 25.5t37 73.5q0 50 -38.5 77t-132.5 46q-49 11 -90 26.5t-70.5 38.5t-45.5 56t-16 79q0 45 18 81.5t50.5 62.5t78 40.5t100.5 14.5q47 0 90 -9.5t76 -31t53 -56t20 -84.5q0 -10 -1 -18.5t-4 -19.5
l-104 1q3 17 3 27q0 25 -10.5 43t-28.5 30t-42 17.5t-51 5.5q-67 0 -102 -25.5t-35 -73.5q0 -24 9.5 -40t30 -28t53.5 -22t79 -21q56 -13 97 -30t69 -41.5t41.5 -58t13.5 -78.5q0 -96 -70 -149.5t-193 -53.5zM241 -211q23 8 35 21.5t13 27.5q-26 1 -41.5 17.5t-15.5 44.5
q0 27 19 45.5t47 18.5q32 0 51 -20.5t19 -55.5q0 -54 -28 -93.5t-73 -51.5z" />
    <glyph glyph-name="uni0219" unicode="&#x219;" horiz-adv-x="477" 
d="M236 -13q-63 0 -119.5 19.5t-93.5 67.5l65 71q35 -43 72 -56t79 -13q51 0 74 13.5t23 39.5q0 16 -8.5 26t-24.5 17t-37.5 12t-48.5 11q-31 7 -61.5 16.5t-55 26.5t-39.5 43t-15 65q0 67 51 108t145 41q89 0 139.5 -36t50.5 -105q0 -11 -2 -23.5t-6 -22.5h-98q2 7 3 17
t1 19q0 30 -23.5 46.5t-66.5 16.5q-88 0 -88 -59q0 -17 9.5 -28t26.5 -18.5t40 -13t50 -11.5q29 -6 58 -14.5t52.5 -24.5t38 -40t14.5 -62q1 -75 -54 -112t-151 -37zM187 -211q23 8 35 21.5t13 27.5q-26 1 -41 17.5t-15 44.5q0 27 18.5 45.5t46.5 18.5q32 0 51.5 -20.5
t19.5 -55.5q0 -54 -28.5 -93.5t-73.5 -51.5z" />
    <glyph glyph-name="uni021A" unicode="&#x21a;" horiz-adv-x="554" 
d="M223 597h-208v103h525v-103h-205v-597h-112v597zM221 -211q23 8 35 21.5t13 27.5q-26 1 -41.5 17.5t-15.5 44.5q0 27 19 45.5t47 18.5q32 0 51 -20.5t19 -55.5q0 -54 -28 -93.5t-73 -51.5z" />
    <glyph glyph-name="uni021B" unicode="&#x21b;" horiz-adv-x="415" 
d="M280 -6q-91 0 -134.5 48t-43.5 150v199h-87v91h91v140h106v-140h174v-91h-174v-194q0 -54 20.5 -78.5t62.5 -24.5q24 0 45 8.5t35 19.5l38 -82q-22 -20 -59 -33t-74 -13zM198 -211q23 8 35 21.5t13 27.5q-26 1 -41 17.5t-15 44.5q0 27 18.5 45.5t46.5 18.5
q32 0 51.5 -20.5t19.5 -55.5q0 -54 -28.5 -93.5t-73.5 -51.5z" />
    <glyph glyph-name="uni0232" unicode="&#x232;" horiz-adv-x="608" 
d="M164 853h283v-86h-283v86zM249 287l-238 413h131l165 -309l167 309h125l-239 -410v-290h-111v287z" />
    <glyph glyph-name="uni0233" unicode="&#x233;" horiz-adv-x="535" 
d="M130 679h271v-85h-271v85zM247 -247q-78 0 -128 25.5t-73 70.5l72 57q20 -32 50 -47.5t78 -15.5q60 0 90.5 33t30.5 91v109q-21 -39 -60.5 -60.5t-93.5 -21.5q-153 0 -153 173v315h109v-294q0 -99 82 -99q21 0 40.5 9.5t35 26t24.5 37.5t9 43v277h111v-513
q0 -100 -58.5 -158t-165.5 -58z" />
    <glyph glyph-name="uni0237" unicode="&#x237;" horiz-adv-x="244" 
d="M2 -247q-25 0 -42.5 4.5t-28.5 10.5q-14 7 -23 15l33 78q6 -4 13 -7q7 -2 15.5 -4t20.5 -2q80 0 80 106v528h109v-533q0 -89 -42 -142.5t-135 -53.5z" />
    <glyph glyph-name="uni0259" unicode="&#x259;" horiz-adv-x="489" 
d="M237 495q98 0 156 -61t58 -186q0 -59 -14.5 -107.5t-42.5 -82.5t-67.5 -52.5t-90.5 -18.5q-98 0 -150.5 58.5t-52.5 162.5v24.5t2 24.5h305q-2 81 -30.5 114t-78.5 33q-38 0 -61.5 -17t-40.5 -43l-79 44q23 45 70 76t117 31zM237 76q48 0 70.5 28t29.5 82h-197
q0 -49 23.5 -79.5t73.5 -30.5z" />
    <glyph glyph-name="uni0272" unicode="&#x272;" horiz-adv-x="558" 
d="M488 128q0 -46 41 -46v-81q-7 -2 -20.5 -3.5t-28.5 -1.5q-52 0 -77 28t-25 81v193q0 49 -23.5 75t-66.5 26q-46 0 -74.5 -30.5t-28.5 -81.5v-325q0 -109 -53 -161.5t-144 -52.5q-44 0 -78.5 13.5t-51.5 36.5l64 78q11 -11 27 -18.5t40 -7.5q38 0 62.5 24t24.5 85v398
q0 24 -9.5 34.5t-31.5 10.5v82q8 2 21 3.5t29 1.5q41 0 63 -21t24 -59v-2q18 40 55.5 64t91.5 24q81 0 125 -49.5t44 -140.5v-177z" />
    <glyph glyph-name="circumflex" unicode="&#x2c6;" horiz-adv-x="367" 
d="M122 773h121l88 -184h-96l-53 102l-52 -102h-97z" />
    <glyph glyph-name="caron" unicode="&#x2c7;" horiz-adv-x="349" 
d="M25 741h97l52 -102l52 102h96l-87 -184h-121z" />
    <glyph glyph-name="breve" unicode="&#x2d8;" horiz-adv-x="340" 
d="M171 583q-39 0 -65 11t-42 30.5t-23 45t-7 53.5h82q0 -35 13.5 -50t40.5 -15t40 15t13 50h83q0 -28 -7 -53.5t-22.5 -45t-41.5 -30.5t-64 -11z" />
    <glyph glyph-name="dotaccent" unicode="&#x2d9;" horiz-adv-x="193" 
d="M97 589q-25 0 -42.5 17t-17.5 42t17.5 42.5t42.5 17.5q24 0 41.5 -17.5t17.5 -42.5t-17.5 -42t-41.5 -17z" />
    <glyph glyph-name="ring" unicode="&#x2da;" horiz-adv-x="273" 
d="M137 558q-40 0 -66 26.5t-26 64.5q0 40 26 66t66 26q38 0 64.5 -26t26.5 -66q0 -38 -26.5 -64.5t-64.5 -26.5zM137 611q17 0 27.5 10.5t10.5 27.5t-10.5 28t-27.5 11q-18 0 -28.5 -11t-10.5 -28t10.5 -27.5t28.5 -10.5z" />
    <glyph glyph-name="ogonek" unicode="&#x2db;" horiz-adv-x="273" 
d="M141 -178q-37 0 -65 19.5t-28 62.5q0 41 19.5 67.5t43.5 42.5q28 19 63 29l10 -42q-20 -7 -36 -18q-15 -10 -26 -24t-11 -36q0 -18 10.5 -29t30.5 -11q11 0 20 4t15 8q7 6 12 13l26 -50q-9 -10 -22 -18q-11 -7 -26.5 -12.5t-35.5 -5.5z" />
    <glyph glyph-name="tilde" unicode="&#x2dc;" horiz-adv-x="422" 
d="M51 552q-4 6 -6 14q-3 8 -5 18t-2 23q0 35 22.5 61t67.5 26q24 0 45 -6t40 -12.5t36.5 -12.5t33.5 -6q22 0 22 23q0 8 -2 15t-4 13q-3 6 -7 12h81q3 -7 6 -16q2 -8 3.5 -17.5t1.5 -20.5q0 -35 -21 -61t-66 -26q-28 0 -50 6t-40 12.5t-33 12.5t-29 6q-12 0 -19.5 -7.5
t-7.5 -19.5q0 -8 2 -15t5 -12q2 -5 6 -10h-80z" />
    <glyph glyph-name="hungarumlaut" unicode="&#x2dd;" horiz-adv-x="433" 
d="M112 743h133l-118 -184h-97zM294 743h133l-119 -184h-96z" />
    <glyph glyph-name="gravecomb" unicode="&#x300;" 
d="M-250 732h131l82 -184h-95z" />
    <glyph glyph-name="acutecomb" unicode="&#x301;" 
d="M-165 732h131l-119 -184h-95z" />
    <glyph glyph-name="uni0302" unicode="&#x302;" 
d="M-243 730h116l88 -181h-95l-52 103l-51 -103h-95z" />
    <glyph glyph-name="tildecomb" unicode="&#x303;" 
d="M-356 564q-13 23 -13 54q0 34 22.5 57.5t67.5 23.5q20 0 37.5 -6.5t32.5 -14t29 -14t26 -6.5q25 0 25 22q0 16 -6 23h75q13 -24 13 -54q0 -34 -22.5 -58t-67.5 -24q-23 0 -41.5 6.5t-33.5 14t-27 14t-22 6.5q-26 0 -26 -22q0 -14 6 -22h-75z" />
    <glyph glyph-name="uni0304" unicode="&#x304;" 
d="M-336 679h271v-85h-271v85z" />
    <glyph glyph-name="uni0306" unicode="&#x306;" 
d="M-169 563q-39 0 -65.5 12t-42.5 32t-22.5 46.5t-6.5 56.5h83q0 -64 53 -64q54 0 54 64h82q0 -30 -7 -56.5t-22.5 -46.5t-41.5 -32t-64 -12z" />
    <glyph glyph-name="uni0307" unicode="&#x307;" 
d="M-90 569q-29 0 -49.5 20.5t-20.5 50.5q0 29 20.5 49.5t49.5 20.5t50 -20.5t21 -49.5q0 -30 -21 -50.5t-50 -20.5z" />
    <glyph glyph-name="uni0308" unicode="&#x308;" 
d="M-292 563q-29 0 -48 20.5t-19 48.5t19 48.5t48 20.5t48.5 -20.5t19.5 -48.5t-19.5 -48.5t-48.5 -20.5zM-92 563q-29 0 -49 20.5t-20 48.5t20 48.5t49 20.5q28 0 47 -20.5t19 -48.5t-19 -48.5t-47 -20.5z" />
    <glyph glyph-name="uni030A" unicode="&#x30a;" 
d="M-139 528q-24 0 -44 8.5t-35 23.5t-23.5 35.5t-8.5 43.5q0 24 8.5 44.5t23.5 35.5t35 23.5t44 8.5t44 -8.5t35 -23.5t23.5 -35.5t8.5 -44.5q0 -23 -8.5 -43.5t-23.5 -35.5t-35 -23.5t-44 -8.5zM-139 596q19 0 31 12t12 31t-12 31t-31 12t-30.5 -12t-11.5 -31t11.5 -31
t30.5 -12z" />
    <glyph glyph-name="uni030B" unicode="&#x30b;" 
d="M-328 732h124l-106 -184h-88zM-146 732h124l-106 -184h-88z" />
    <glyph glyph-name="uni030C" unicode="&#x30c;" 
d="M-322 730h95l52 -103l51 103h95l-89 -181h-116z" />
    <glyph glyph-name="uni0312" unicode="&#x312;" 
d="M-88 542q-32 0 -50.5 19.5t-18.5 53.5q0 47 27.5 87.5t70.5 54.5l28 -47q-23 -7 -37.5 -19.5t-15.5 -24.5q26 -1 43 -18.5t17 -43.5t-18 -44t-46 -18z" />
    <glyph glyph-name="dotbelowcomb" unicode="&#x323;" 
d="M-90 -193q-29 0 -49.5 20.5t-20.5 49.5t20.5 50t49.5 21t50 -21t21 -50t-21 -49.5t-50 -20.5z" />
    <glyph glyph-name="uni0326" unicode="&#x326;" 
d="M-161 -211q23 8 35 21.5t13 27.5q-26 1 -41.5 17.5t-15.5 44.5q0 27 18.5 45.5t47.5 18.5q32 0 51 -20.5t19 -55.5q0 -54 -28 -93.5t-73 -51.5z" />
    <glyph glyph-name="uni0327" unicode="&#x327;" 
d="M-142 -210q-27 0 -52.5 8t-41.5 24l33 56q26 -21 56 -21q34 0 34 26q0 17 -20 26t-52 11l31 84h66l-14 -42q32 -5 56.5 -22.5t24.5 -58.5q0 -44 -33.5 -67.5t-87.5 -23.5z" />
    <glyph glyph-name="uni0328" unicode="&#x328;" 
d="M-139 -188q-50 0 -76.5 23t-26.5 66t33.5 82.5t89.5 59.5l32 -42q-29 -11 -47 -33t-18 -48q0 -20 9.5 -29t24.5 -9q10 0 17 3.5t12 7.5l30 -55q-13 -12 -34 -19t-46 -7z" />
    <glyph glyph-name="uni0335" unicode="&#x335;" 
d="M-316 400h298v-88h-298v88z" />
    <glyph glyph-name="uni0336" unicode="&#x336;" 
d="M-685 586h659v-78h-659v78z" />
    <glyph glyph-name="uni0337" unicode="&#x337;" 
d="M-337 342l280 164l42 -70l-282 -164z" />
    <glyph glyph-name="uni0338" unicode="&#x338;" 
d="M-90 509h83l-350 -534h-84z" />
    <glyph glyph-name="Wgrave" unicode="&#x1e80;" horiz-adv-x="935" 
d="M305 886h140l83 -144h-105zM13 700h127l125 -575l152 575h106l152 -575l126 575h121l-185 -700h-126l-141 540l-146 -540h-126z" />
    <glyph glyph-name="wgrave" unicode="&#x1e81;" horiz-adv-x="751" 
d="M327 548l-119 184h131l82 -184h-94zM739 482l-152 -482h-118l-77 295l-13 68l-14 -68l-84 -295h-118l-150 482h119l74 -285l20 -96l21 96l79 285h108l76 -284l20 -97l21 97l76 284h112z" />
    <glyph glyph-name="Wacute" unicode="&#x1e82;" horiz-adv-x="935" 
d="M486 886h139l-118 -144h-104zM13 700h127l125 -575l152 575h106l152 -575l126 575h121l-185 -700h-126l-141 540l-146 -540h-126z" />
    <glyph glyph-name="wacute" unicode="&#x1e83;" horiz-adv-x="751" 
d="M408 548h-95l83 184h131zM739 482l-152 -482h-118l-77 295l-13 68l-14 -68l-84 -295h-118l-150 482h119l74 -285l20 -96l21 96l79 285h108l76 -284l20 -97l21 97l76 284h112z" />
    <glyph glyph-name="Wdieresis" unicode="&#x1e84;" horiz-adv-x="935" 
d="M358 745q-29 0 -49 21t-20 50t20 50t49 21t49.5 -21t20.5 -50t-20.5 -50t-49.5 -21zM585 745q-29 0 -50 21t-21 50t21 50t50 21t49 -21t20 -50t-20 -50t-49 -21zM13 700h127l125 -575l152 575h106l152 -575l126 575h121l-185 -700h-126l-141 540l-146 -540h-126z" />
    <glyph glyph-name="wdieresis" unicode="&#x1e85;" horiz-adv-x="751" 
d="M277 570q-29 0 -48 20t-19 48t19 49t48 21t48.5 -21t19.5 -49t-19.5 -48t-48.5 -20zM476 570q-29 0 -49 20t-20 48t20 49t49 21t48 -21t19 -49t-19 -48t-48 -20zM739 482l-152 -482h-118l-77 295l-13 68l-14 -68l-84 -295h-118l-150 482h119l74 -285l20 -96l21 96l79 285
h108l76 -284l20 -97l21 97l76 284h112z" />
    <glyph glyph-name="uni1E9E" unicode="&#x1e9e;" horiz-adv-x="653" 
d="M414 395q60 -9 100 -28.5t63 -46t32.5 -59.5t9.5 -70q0 -92 -59.5 -145.5t-162.5 -53.5q-70 0 -115 17t-71 49l62 77q25 -26 51 -37t71 -11q55 0 84 28t29 73q0 27 -10 49t-34 38.5t-64.5 26.5t-101.5 14l-1 87l169 170q-50 35 -133 35q-65 0 -107 -36.5t-42 -105.5v-466
h-110l2 471q0 54 19 98t52.5 74.5t80.5 47t104 16.5q78 0 134 -21t101 -63v-80z" />
    <glyph glyph-name="uni1EA0" unicode="&#x1ea0;" horiz-adv-x="642" 
d="M520 0l-63 182h-273l-63 -182h-115l258 700h114l257 -700h-115zM426 272l-105 306l-106 -306h211zM321 -52q29 0 49.5 -21t20.5 -50t-20.5 -49.5t-49.5 -20.5t-49.5 20.5t-20.5 49.5t20.5 50t49.5 21z" />
    <glyph glyph-name="uni1EA1" unicode="&#x1ea1;" horiz-adv-x="511" 
d="M230 -13q-43 0 -78.5 18t-61 50.5t-39.5 78.5t-14 102q0 57 15 104.5t42 82t65 53.5t84 19q92 0 137 -65v52h101v-351q0 -27 8.5 -38t31.5 -11v-81q-7 -2 -20.5 -4t-28.5 -2q-41 0 -63.5 19.5t-24.5 53.5l-1 3q-20 -38 -56.5 -61t-96.5 -23zM265 79q45 0 70.5 25t36.5 67
v141q-4 17 -12 33t-21 29.5t-31.5 21.5t-42.5 8q-57 0 -87 -43t-30 -124q0 -73 29.5 -115.5t87.5 -42.5zM289 -193q-29 0 -50 20.5t-21 49.5t21 50t50 21t49.5 -21t20.5 -50t-20.5 -49.5t-49.5 -20.5z" />
    <glyph glyph-name="uni1EB8" unicode="&#x1eb8;" horiz-adv-x="573" 
d="M82 700h448v-99h-337v-195h287v-100h-287v-206h337v-100h-448v700zM322 -193q-29 0 -49.5 20.5t-20.5 49.5t20.5 50t49.5 21t49.5 -21t20.5 -50t-20.5 -49.5t-49.5 -20.5z" />
    <glyph glyph-name="uni1EB9" unicode="&#x1eb9;" horiz-adv-x="482" 
d="M454 86q-33 -53 -84.5 -76t-115.5 -23q-103 2 -160.5 62.5t-57.5 175.5q0 60 17.5 109.5t48.5 85.5t74.5 55.5t95.5 19.5q79 0 124 -39.5t45 -107.5q0 -51 -26 -82t-67.5 -49t-93 -25.5t-103.5 -10.5q10 -54 39.5 -78.5t76.5 -24.5q42 0 69.5 15t51.5 48zM270 405
q-54 0 -85.5 -39t-36.5 -110q32 1 66 4.5t62 13t45.5 26t17.5 43.5q0 62 -69 62zM258 -52q29 0 49.5 -21t20.5 -50t-20.5 -49.5t-49.5 -20.5t-49.5 20.5t-20.5 49.5t20.5 50t49.5 21z" />
    <glyph glyph-name="uni1EBC" unicode="&#x1ebc;" horiz-adv-x="573" 
d="M168 745q-12 21 -12 54t22.5 56t63.5 23q23 0 41.5 -6t34.5 -13.5t30 -13.5t27 -6q24 0 24 23q0 7 -2 12t-4 9h77q13 -24 13 -54q0 -33 -23 -56.5t-69 -23.5q-23 0 -42 6t-34.5 13.5t-28.5 13.5t-25 6q-22 0 -22 -22q0 -7 2 -12t4 -9h-77zM82 700h448v-99h-337v-195h287
v-100h-287v-206h337v-100h-448v700z" />
    <glyph glyph-name="uni1EBD" unicode="&#x1ebd;" horiz-adv-x="482" 
d="M107 564q-12 21 -12 54q0 34 22 57.5t68 23.5q20 0 37.5 -6.5t32.5 -14t29 -14t26 -6.5q25 0 25 22q0 7 -2 13t-4 10h75q12 -22 12 -54q0 -34 -22 -58t-67 -24q-23 0 -41.5 6.5t-33.5 14t-27 14t-22 6.5q-26 0 -26 -22q0 -14 6 -22h-76zM454 86q-33 -53 -84.5 -76
t-115.5 -23q-103 2 -160.5 62.5t-57.5 175.5q0 60 17.5 109.5t48.5 85.5t74.5 55.5t95.5 19.5q79 0 124 -39.5t45 -107.5q0 -51 -26 -82t-67.5 -49t-93 -25.5t-103.5 -10.5q10 -54 39.5 -78.5t76.5 -24.5q42 0 69.5 15t51.5 48zM270 405q-54 0 -85.5 -39t-36.5 -110
q32 1 66 4.5t62 13t45.5 26t17.5 43.5q0 62 -69 62z" />
    <glyph glyph-name="uni1ECA" unicode="&#x1eca;" horiz-adv-x="275" 
d="M82 700h111v-700h-111v700zM138 -193q-29 0 -50 20.5t-21 49.5t21 50t50 21t49.5 -21t20.5 -50t-20.5 -49.5t-49.5 -20.5z" />
    <glyph glyph-name="uni1ECB" unicode="&#x1ecb;" horiz-adv-x="241" 
d="M121 569q-29 0 -50 20.5t-21 50.5q0 29 21 49.5t50 20.5t49.5 -20.5t20.5 -49.5q0 -30 -20.5 -50.5t-49.5 -20.5zM66 482h109v-482h-109v482zM121 -193q-29 0 -50 20.5t-21 49.5t21 50t50 21t49.5 -21t20.5 -50t-20.5 -49.5t-49.5 -20.5z" />
    <glyph glyph-name="uni1ECC" unicode="&#x1ecc;" horiz-adv-x="714" 
d="M355 -8q-64 0 -120.5 20t-99.5 62.5t-68 110t-25 162.5q0 92 26 160t69.5 112.5t101 66.5t120.5 22t120 -20.5t100 -64t68 -111t25 -162.5q0 -92 -26 -159.5t-69.5 -111.5t-101 -65.5t-120.5 -21.5zM355 88q39 0 75 13.5t63.5 44.5t44 81t16.5 122q0 74 -16 124t-43 80.5
t-62 43.5t-74 13t-75 -13.5t-63.5 -44.5t-44 -81t-16.5 -123t16 -123t42.5 -80.5t62 -43.5t74.5 -13zM357 -193q-29 0 -49.5 20.5t-20.5 49.5t20.5 50t49.5 21t49.5 -21t20.5 -50t-20.5 -49.5t-49.5 -20.5z" />
    <glyph glyph-name="uni1ECD" unicode="&#x1ecd;" horiz-adv-x="530" 
d="M262 -13q-107 0 -166 68.5t-59 185.5q0 59 16 106t46 80t72.5 50.5t96.5 17.5q53 0 95 -17.5t71 -50.5t44 -80t15 -105t-16 -105t-46 -80.5t-72.5 -51.5t-96.5 -18zM265 79q56 0 86 41t30 121t-30.5 121.5t-85.5 41.5q-54 0 -85 -41.5t-31 -121.5t30.5 -121t85.5 -41z
M265 -193q-29 0 -49.5 20.5t-20.5 49.5t20.5 50t49.5 21t49.5 -21t20.5 -50t-20.5 -49.5t-49.5 -20.5z" />
    <glyph glyph-name="uni1EE4" unicode="&#x1ee4;" horiz-adv-x="673" 
d="M338 -6q-55 0 -103 14.5t-84 49t-56.5 90.5t-20.5 140v412h112v-420q0 -92 37.5 -139.5t114.5 -47.5t114 47.5t37 139.5v420h110v-412q0 -84 -20 -140t-55.5 -90.5t-83 -49t-102.5 -14.5zM338 -193q-29 0 -50 20.5t-21 49.5t21 50t50 21t49.5 -21t20.5 -50t-20.5 -49.5
t-49.5 -20.5z" />
    <glyph glyph-name="uni1EE5" unicode="&#x1ee5;" horiz-adv-x="547" 
d="M222 -13q-78 0 -120 45t-42 130v320h109v-300q0 -55 24 -77t66 -22q26 0 45 10t32 26t19 35.5t6 38.5v289h110v-354q0 -23 9 -34.5t32 -11.5v-82q-3 -1 -16.5 -3t-33.5 -2q-42 0 -63.5 20.5t-23.5 57.5l-1 4q-18 -37 -52.5 -63.5t-99.5 -26.5zM274 -193q-29 0 -49.5 20.5
t-20.5 49.5t20.5 50t49.5 21t49.5 -21t20.5 -50t-20.5 -49.5t-49.5 -20.5z" />
    <glyph glyph-name="Ygrave" unicode="&#x1ef2;" horiz-adv-x="608" 
d="M142 886h140l83 -144h-104zM249 287l-238 413h131l165 -309l167 309h125l-239 -410v-290h-111v287z" />
    <glyph glyph-name="ygrave" unicode="&#x1ef3;" horiz-adv-x="535" 
d="M99 732h131l82 -184h-94zM247 -247q-78 0 -128 25.5t-73 70.5l72 57q20 -32 50 -47.5t78 -15.5q60 0 90.5 33t30.5 91v109q-21 -39 -60.5 -60.5t-93.5 -21.5q-153 0 -153 173v315h109v-294q0 -99 82 -99q21 0 40.5 9.5t35 26t24.5 37.5t9 43v277h111v-513
q0 -100 -58.5 -158t-165.5 -58z" />
    <glyph glyph-name="uni1EF8" unicode="&#x1ef8;" horiz-adv-x="608" 
d="M154 745q-13 23 -13 54q0 33 22.5 56t64.5 23q23 0 41.5 -6t34.5 -13.5t30 -13.5t27 -6q24 0 24 23q0 7 -2 12t-4 9h77q12 -22 12 -54q0 -33 -22.5 -56.5t-68.5 -23.5q-23 0 -42 6t-34.5 13.5t-28.5 13.5t-25 6q-22 0 -22 -22q0 -7 2 -12t4 -9h-77zM249 287l-238 413h131
l165 -309l167 309h125l-239 -410v-290h-111v287z" />
    <glyph glyph-name="uni1EF9" unicode="&#x1ef9;" horiz-adv-x="535" 
d="M114 564q-13 23 -13 54q0 34 22.5 57.5t67.5 23.5q20 0 37.5 -6.5t32.5 -14t29 -14t26 -6.5q25 0 25 22q0 16 -6 23h75q13 -24 13 -54q0 -34 -22.5 -58t-67.5 -24q-23 0 -41.5 6.5t-33.5 14t-27 14t-22 6.5q-26 0 -26 -22q0 -14 6 -22h-75zM247 -247q-78 0 -128 25.5
t-73 70.5l72 57q20 -32 50 -47.5t78 -15.5q60 0 90.5 33t30.5 91v109q-21 -39 -60.5 -60.5t-93.5 -21.5q-153 0 -153 173v315h109v-294q0 -99 82 -99q21 0 40.5 9.5t35 26t24.5 37.5t9 43v277h111v-513q0 -100 -58.5 -158t-165.5 -58z" />
    <glyph glyph-name="endash" unicode="&#x2013;" horiz-adv-x="540" 
d="M56 313h429v-83h-429v83z" />
    <glyph glyph-name="emdash" unicode="&#x2014;" horiz-adv-x="879" 
d="M56 313h768v-83h-768v83z" />
    <glyph glyph-name="quoteleft" unicode="&#x2018;" horiz-adv-x="217" 
d="M170 666q-25 -11 -42 -29t-17 -35q30 0 49 -19t19 -48t-19.5 -49.5t-48.5 -20.5q-33 0 -53.5 22t-20.5 61q0 57 27 102t75 63z" />
    <glyph glyph-name="quoteright" unicode="&#x2019;" horiz-adv-x="214" 
d="M47 506q26 11 42.5 29t16.5 35q-30 0 -49 19t-19 48t19.5 49.5t48.5 20.5q34 0 54.5 -22t20.5 -61q0 -57 -27 -102t-76 -63z" />
    <glyph glyph-name="quotesinglbase" unicode="&#x201a;" horiz-adv-x="228" 
d="M51 -70q26 11 42.5 29t16.5 35q-30 0 -49 19t-19 48t19.5 49.5t48.5 20.5q33 0 54 -22t21 -61q0 -58 -27 -102.5t-76 -62.5z" />
    <glyph glyph-name="quotedblleft" unicode="&#x201c;" horiz-adv-x="396" 
d="M170 666q-25 -11 -42 -29t-17 -35q30 0 49 -19t19 -48t-19.5 -49t-48.5 -20q-33 0 -53.5 21.5t-20.5 60.5q0 58 27 102.5t75 62.5zM349 666q-25 -11 -42 -29t-17 -35q30 0 49 -19t19 -48t-19.5 -49t-48.5 -20q-33 0 -53.5 21.5t-20.5 60.5q0 58 27 102.5t75 62.5z" />
    <glyph glyph-name="quotedblright" unicode="&#x201d;" horiz-adv-x="393" 
d="M47 506q26 11 42.5 29t16.5 35q-30 0 -49 19t-19 48t19.5 49.5t48.5 20.5q34 0 54.5 -22t20.5 -61q0 -57 -27 -102t-76 -63zM226 506q26 11 42.5 29t16.5 35q-30 0 -49 19t-19 48t19.5 49.5t48.5 20.5q34 0 54.5 -22t20.5 -61q0 -57 -27 -102t-76 -63z" />
    <glyph glyph-name="quotedblbase" unicode="&#x201e;" horiz-adv-x="407" 
d="M51 -70q26 11 42.5 29t16.5 35q-30 0 -49 19t-19 48t19.5 49.5t48.5 20.5q33 0 54 -22t21 -61q0 -58 -27 -102.5t-76 -62.5zM230 -70q26 11 42.5 29t16.5 35q-30 0 -49 19t-19 48t19.5 49.5t48.5 20.5q33 0 54 -22t21 -61q0 -58 -27 -102.5t-76 -62.5z" />
    <glyph glyph-name="dagger" unicode="&#x2020;" horiz-adv-x="403" 
d="M151 486h-112v71h112v165h100v-165h113v-71h-113l-13 -398h-74z" />
    <glyph glyph-name="daggerdbl" unicode="&#x2021;" horiz-adv-x="403" 
d="M158 278h-116v73h113l-4 135h-112v71h112v165h100v-165h113v-71h-113l-3 -135h113v-73h-117l-6 -187h-74z" />
    <glyph glyph-name="bullet" unicode="&#x2022;" horiz-adv-x="361" 
d="M180 173q-24 0 -45 9t-37 25t-25 37t-9 45t9 45.5t25 37.5t37 25t45 9t45.5 -9t37 -25t25 -37.5t9.5 -45.5t-9.5 -45t-25 -37t-37 -25t-45.5 -9z" />
    <glyph glyph-name="ellipsis" unicode="&#x2026;" horiz-adv-x="560" 
d="M102 -6q-25 0 -43 17t-18 43q0 24 18 42t43 18q24 0 41.5 -18t17.5 -42q0 -26 -17.5 -43t-41.5 -17zM280 -6q-25 0 -42.5 17t-17.5 43q0 24 17.5 42t42.5 18t42.5 -18t17.5 -42q0 -26 -17.5 -43t-42.5 -17zM459 -6q-24 0 -42 17t-18 43q0 24 18 42t42 18q25 0 42.5 -18
t17.5 -42q0 -26 -17.5 -43t-42.5 -17z" />
    <glyph glyph-name="perthousand" unicode="&#x2030;" horiz-adv-x="923" 
d="M143 424q-57 0 -87 36.5t-30 102.5t30 102.5t87 36.5q60 0 90.5 -36.5t30.5 -102.5t-31 -102.5t-90 -36.5zM384 700h78l-211 -700h-78zM143 480q28 0 40 22t12 61q0 38 -12 58.5t-40 20.5q-27 0 -39 -20.5t-12 -58.5q0 -39 12 -61t39 -22zM493 -2q-57 0 -87.5 36.5
t-30.5 102.5t30.5 102.5t87.5 36.5q60 0 90.5 -36.5t30.5 -102.5t-31 -102.5t-90 -36.5zM778 -2q-57 0 -87.5 36.5t-30.5 102.5t30.5 102.5t87.5 36.5q60 0 90.5 -36.5t30.5 -102.5t-31 -102.5t-90 -36.5zM493 55q27 0 39.5 21.5t12.5 60.5q0 38 -12.5 58.5t-39.5 20.5
q-28 0 -40 -20.5t-12 -58.5q0 -39 12 -60.5t40 -21.5zM778 55q27 0 39.5 21.5t12.5 60.5q0 38 -12.5 58.5t-39.5 20.5t-39 -20.5t-12 -58.5q0 -39 12 -60.5t39 -21.5z" />
    <glyph glyph-name="guilsinglleft" unicode="&#x2039;" horiz-adv-x="291" 
d="M36 211v91l158 141l57 -62l-128 -124l128 -124l-57 -64z" />
    <glyph glyph-name="guilsinglright" unicode="&#x203a;" horiz-adv-x="290" 
d="M39 132l129 124l-129 124l57 63l158 -141v-91l-158 -142z" />
    <glyph glyph-name="fraction" unicode="&#x2044;" horiz-adv-x="167" 
d="M153 726h82l-219 -726h-83z" />
    <glyph glyph-name="Euro" unicode="&#x20ac;" horiz-adv-x="648" 
d="M621 102q-14 -19 -34 -37.5t-47 -32.5t-60 -23t-72 -9q-114 0 -190.5 58.5t-102.5 172.5h-82v85h71q-1 8 -1 16v16v18h-70v85h80q23 116 97 182.5t184 66.5q87 0 139.5 -31t81.5 -77l-91 -65q-17 28 -47 49t-81 21q-60 0 -101.5 -38.5t-58.5 -107.5h216v-85h-228v-20v-15
t1 -15h227v-85h-214q20 -67 64 -97.5t109 -30.5q46 0 81.5 22.5t57.5 50.5z" />
    <glyph glyph-name="trademark" unicode="&#x2122;" horiz-adv-x="802" 
d="M142 645h-116v67h313v-67h-111v-307h-86v307zM365 712h81l104 -229l104 229h79v-374h-72v236l-87 -187h-50l-86 184v-233h-73v374z" />
    <glyph glyph-name="minus" unicode="&#x2212;" horiz-adv-x="479" 
d="M59 305h362v-80h-362v80z" />
    <glyph glyph-name="uni2215" unicode="&#x2215;" horiz-adv-x="391" 
d="M298 726h108l-310 -726h-108z" />
    <glyph glyph-name="uni2219" unicode="&#x2219;" horiz-adv-x="308" 
d="M155 219q-25 0 -41.5 16.5t-16.5 40.5t16.5 41t41.5 17q23 0 39.5 -17t16.5 -41t-16.5 -40.5t-39.5 -16.5z" />
    <glyph glyph-name="approxequal" unicode="&#x2248;" horiz-adv-x="500" 
d="M70 263q-4 6 -7 15q-4 7 -6 17.5t-2 24.5q0 39 24.5 68.5t72.5 29.5q28 0 53 -8t47.5 -18t43.5 -18t42 -8q18 0 27 8t9 22q0 9 -2 17.5t-5 14.5q-3 8 -7 14h73q4 -7 7 -16q2 -9 4 -18.5t2 -21.5q0 -41 -23 -70t-71 -29q-33 0 -59 8t-48 17.5t-40.5 17.5t-35.5 8
q-21 0 -32 -9.5t-11 -23.5q0 -10 2.5 -17.5t5.5 -13.5t7 -11h-71zM70 80q-4 6 -7 15q-4 8 -6 18.5t-2 24.5q0 39 24.5 68.5t72.5 29.5q28 0 53 -8t47.5 -18t43.5 -18t42 -8q18 0 27 8t9 22q0 9 -2 17t-5 15t-7 13h73q4 -7 7 -16q2 -8 4 -18t2 -22q0 -40 -23 -69.5t-71 -29.5
q-33 0 -59 8t-48 17.5t-40.5 17.5t-35.5 8q-21 0 -32 -9t-11 -23q0 -10 2.5 -18t5.5 -13q3 -7 7 -12h-71z" />
    <glyph glyph-name="notequal" unicode="&#x2260;" horiz-adv-x="505" 
d="M166 119h-107v80h132l38 122h-170v81h194l26 82h90l-25 -82h103v-81h-129l-37 -122h166v-80h-190l-22 -71h-90z" />
    <glyph glyph-name="lessequal" unicode="&#x2264;" horiz-adv-x="450" 
d="M50 297v86l335 198v-95l-239 -146l239 -145v-96zM33 54h373v-80h-373v80z" />
    <glyph glyph-name="greaterequal" unicode="&#x2265;" horiz-adv-x="451" 
d="M66 193l238 146l-238 145v96l334 -198v-86l-334 -198v95zM44 52h373v-79h-373v79z" />
    <glyph glyph-name="uniF8FF" unicode="&#xf8ff;" horiz-adv-x="1451" 
d="M752 522q-26 0 -43.5 17.5t-17.5 43.5t17.5 44t43.5 18t44 -18t18 -44t-18 -43.5t-44 -17.5zM100 270q0 57 1 108t2.5 91.5t3 70t2.5 44.5h100q2 -30 6 -114t4 -200h-119zM604 264q-82 0 -82 66q0 8 0.5 21.5t1.5 27.5t1.5 25t0.5 13h-22v79l119 30l1 -17h178
q3 -17 4.5 -45t3 -61t2 -68t0.5 -65h-118q0 92 3 147h-61l3 -65q4 -4 15 -4q5 0 10 1t8 4v-74q-8 -8 -27 -11.5t-41 -3.5zM328 265q-43 0 -67.5 27.5t-24.5 86.5q0 64 32.5 99.5t101.5 35.5q64 0 94 -30.5t30 -86.5v-127h-83l-8 61q-6 -31 -22.5 -48.5t-52.5 -17.5zM834 270
q0 30 0.5 65t2 68t3 61t4.5 45h80q2 -17 4 -39t2 -37q1 6 4 19.5t12 27t24 24t40 10.5q45 0 60 -26t17 -80l3 -138h-114q0 35 1 56.5t1 36.5t-2.5 22t-12.5 7q-12 0 -15 -8t-3 -21q0 -15 1.5 -36.5t1.5 -56.5h-114zM1228 265q-64 0 -93 33.5t-29 90.5q0 24 5.5 46.5t19.5 40
t38 28t61 10.5q36 0 59.5 -10.5t37 -27.5t19 -39t5.5 -46q0 -60 -29.5 -93t-93.5 -33zM366 345q24 0 24 30q0 26 -24 26q-22 0 -22 -26q0 -30 22 -30zM1228 345q23 0 23 30q0 26 -23 26q-21 0 -21 -26q0 -30 21 -30zM390 -50q-45 0 -63.5 6.5t-24.5 10.5v83q5 -3 21.5 -9.5
t48.5 -6.5q17 0 27.5 3.5t16.5 8t8 9.5t2 7q-5 -3 -15.5 -7t-33.5 -4q-90 0 -90 83v13h-55l3 -65q2 -2 5.5 -3t9.5 -1q8 0 12 1.5t6 3.5v-73q-4 -3 -17 -9t-51 -6q-46 0 -63.5 17.5t-17.5 53.5q0 6 0.5 17t1 23.5t1 24t0.5 16.5h-18v80l117 29l-1 -18h177v-119
q0 -16 3 -21.5t12 -5.5t12.5 6t3.5 21v119h104q2 -8 3.5 -23t3 -34t2.5 -40t1 -41q0 -79 -33 -114.5t-119 -35.5zM558 -44q0 128 4.5 194.5t5.5 87.5h78q1 -4 2 -14t2 -21.5t2 -22.5t1 -18q1 5 5 18.5t12.5 27.5t23.5 24.5t39 10.5q37 0 58.5 -28.5t21.5 -84.5
q0 -135 -137 -135q1 -11 1 -22.5v-16.5h-119zM970 -5q-72 0 -106.5 31t-34.5 91q0 59 32.5 92.5t92.5 33.5q55 0 85.5 -29.5t30.5 -86.5q0 -8 -0.5 -18t-2.5 -17h-124q4 -6 15.5 -12t34.5 -6q14 0 29 3t26 9v-75q-8 -5 -27 -10.5t-51 -5.5zM978 109q3 27 -17 27
q-23 0 -23 -27h40zM670 72q3 0 9 1.5t12 5.5t11 11t5 19q0 23 -20 23q-22 0 -22 -31q0 -12 2 -19.5t3 -9.5zM1098 -10q-11 0 -17.5 6t-6.5 17t6.5 17t17.5 6t17.5 -6t6.5 -17t-6.5 -17t-17.5 -6zM1098 -5q18 0 18 18t-18 18t-18 -18t18 -18zM1088 25h11q10 0 10 -7t-7 -7
l6 -9h-6l-4 9h-5v-9h-5v23zM1100 15q4 0 4 3t-4 3h-7v-6h7z" />
    <glyph glyph-name="Euro.osf" horiz-adv-x="533" 
d="M504 84q-23 -36 -70.5 -60t-110.5 -24q-87 0 -145 41t-80 117h-64v67h53q-1 5 -1 11v11v16h-52v66h62q21 78 79.5 122.5t143.5 44.5q68 0 112.5 -22t69.5 -62l-85 -60q-14 20 -35.5 31.5t-55.5 11.5q-38 0 -65 -17t-41 -49h140v-66h-155q-1 -5 -1 -9.5v-9.5v-9.5t1 -9.5
h155v-67h-138q31 -56 112 -56q32 0 56.5 12t41.5 30z" />
    <glyph glyph-name="Euro.sc" horiz-adv-x="532" 
d="M503 84q-23 -36 -68.5 -60t-108.5 -24q-87 0 -146.5 41t-82.5 117h-63v67h52q-1 5 -1 11v11v16h-51v66h61q20 79 78.5 123t145.5 44q67 0 111.5 -22t69.5 -62l-84 -60q-14 20 -36 31.5t-56 11.5q-38 0 -65 -17t-41 -49h141v-66h-156q-1 -5 -1 -9.5v-9.5v-9.5t1 -9.5h156
v-67h-139q31 -56 112 -56q32 0 57 12t41 30z" />
    <glyph glyph-name="IJacute" horiz-adv-x="746" 
d="M156 886h139l-119 -144h-103zM626 886h139l-118 -144h-103zM82 700h111v-700h-111v700zM455 -6q-64 0 -107.5 23t-69.5 56l69 77q20 -23 46 -40t64 -17q52 0 77 32.5t25 93.5v481h112v-476q0 -113 -56 -171.5t-160 -58.5z" />
    <glyph glyph-name="a.sc" horiz-adv-x="546" 
d="M375 111h-208l-42 -111h-115l205 497h115l206 -497h-119zM344 193l-73 191l-72 -191h145z" />
    <glyph glyph-name="a.ss01" horiz-adv-x="511" 
d="M441 129q0 -25 9 -36t32 -11v-81q-9 -2 -22 -4t-26 -2q-45 0 -66 21.5t-23 61.5q-20 -40 -60 -65t-100 -25q-72 0 -113.5 34t-41.5 94q0 66 47 102t144 37h110v61q0 90 -89 90q-84 0 -84 -71q0 -23 8 -36h-99q-3 5 -7 19.5t-4 34.5q0 65 50 103.5t140 38.5
q100 0 147.5 -47t47.5 -136v-183zM210 73q45 0 75.5 26t45.5 70v18h-109q-42 0 -62 -17t-20 -43t18.5 -40t51.5 -14z" />
    <glyph glyph-name="aacute.sc" horiz-adv-x="546" 
d="M305 563h-96l83 184h131zM375 111h-208l-42 -111h-115l205 497h115l206 -497h-119zM344 193l-73 191l-72 -191h145z" />
    <glyph glyph-name="aacute.ss01" horiz-adv-x="511" 
d="M285 548h-96l83 184h131zM441 129q0 -25 9 -36t32 -11v-81q-9 -2 -22 -4t-26 -2q-45 0 -66 21.5t-23 61.5q-20 -40 -60 -65t-100 -25q-72 0 -113.5 34t-41.5 94q0 66 47 102t144 37h110v61q0 90 -89 90q-84 0 -84 -71q0 -23 8 -36h-99q-3 5 -7 19.5t-4 34.5
q0 65 50 103.5t140 38.5q100 0 147.5 -47t47.5 -136v-183zM210 73q45 0 75.5 26t45.5 70v18h-109q-42 0 -62 -17t-20 -43t18.5 -40t51.5 -14z" />
    <glyph glyph-name="abreve.sc" horiz-adv-x="546" 
d="M273 578q-39 0 -65.5 12t-42 32t-22.5 46.5t-7 56.5h83q0 -64 53 -64q54 0 54 64h82q0 -30 -7 -56.5t-22.5 -46.5t-41.5 -32t-64 -12zM375 111h-208l-42 -111h-115l205 497h115l206 -497h-119zM344 193l-73 191l-72 -191h145z" />
    <glyph glyph-name="abreve.ss01" horiz-adv-x="511" 
d="M253 563q-39 0 -65 12t-42 32t-22.5 46.5t-6.5 56.5h82q0 -64 53 -64q54 0 54 64h83q0 -30 -7 -56.5t-23 -46.5t-42 -32t-64 -12zM441 129q0 -25 9 -36t32 -11v-81q-9 -2 -22 -4t-26 -2q-45 0 -66 21.5t-23 61.5q-20 -40 -60 -65t-100 -25q-72 0 -113.5 34t-41.5 94
q0 66 47 102t144 37h110v61q0 90 -89 90q-84 0 -84 -71q0 -23 8 -36h-99q-3 5 -7 19.5t-4 34.5q0 65 50 103.5t140 38.5q100 0 147.5 -47t47.5 -136v-183zM210 73q45 0 75.5 26t45.5 70v18h-109q-42 0 -62 -17t-20 -43t18.5 -40t51.5 -14z" />
    <glyph glyph-name="acircumflex.sc" horiz-adv-x="546" 
d="M220 564h-95l89 181h116l89 -181h-96l-52 103zM375 111h-208l-42 -111h-115l205 497h115l206 -497h-119zM344 193l-73 191l-72 -191h145z" />
    <glyph glyph-name="acircumflex.ss01" horiz-adv-x="511" 
d="M200 549h-95l89 181h116l89 -181h-96l-52 103zM441 129q0 -25 9 -36t32 -11v-81q-9 -2 -22 -4t-26 -2q-45 0 -66 21.5t-23 61.5q-20 -40 -60 -65t-100 -25q-72 0 -113.5 34t-41.5 94q0 66 47 102t144 37h110v61q0 90 -89 90q-84 0 -84 -71q0 -23 8 -36h-99q-3 5 -7 19.5
t-4 34.5q0 65 50 103.5t140 38.5q100 0 147.5 -47t47.5 -136v-183zM210 73q45 0 75.5 26t45.5 70v18h-109q-42 0 -62 -17t-20 -43t18.5 -40t51.5 -14z" />
    <glyph glyph-name="acute.case" horiz-adv-x="285" 
d="M119 659h133l-119 -143h-97z" />
    <glyph glyph-name="acutecomb.case" 
d="M-166 886h139l-119 -144h-103z" />
    <glyph glyph-name="adieresis.sc" horiz-adv-x="546" 
d="M173 585q-28 0 -47.5 20t-19.5 48t19.5 49t47.5 21q29 0 48.5 -21t19.5 -49t-19.5 -48t-48.5 -20zM373 585q-29 0 -49 20t-20 48t20 49t49 21q28 0 47 -21t19 -49t-19 -48t-47 -20zM375 111h-208l-42 -111h-115l205 497h115l206 -497h-119zM344 193l-73 191l-72 -191h145
z" />
    <glyph glyph-name="adieresis.ss01" horiz-adv-x="511" 
d="M153 570q-28 0 -47.5 20t-19.5 48t19.5 49t47.5 21q29 0 48.5 -21t19.5 -49t-19.5 -48t-48.5 -20zM353 570q-29 0 -49 20t-20 48t20 49t49 21q28 0 47 -21t19 -49t-19 -48t-47 -20zM441 129q0 -25 9 -36t32 -11v-81q-9 -2 -22 -4t-26 -2q-45 0 -66 21.5t-23 61.5
q-20 -40 -60 -65t-100 -25q-72 0 -113.5 34t-41.5 94q0 66 47 102t144 37h110v61q0 90 -89 90q-84 0 -84 -71q0 -23 8 -36h-99q-3 5 -7 19.5t-4 34.5q0 65 50 103.5t140 38.5q100 0 147.5 -47t47.5 -136v-183zM210 73q45 0 75.5 26t45.5 70v18h-109q-42 0 -62 -17t-20 -43
t18.5 -40t51.5 -14z" />
    <glyph glyph-name="ae.sc" horiz-adv-x="705" 
d="M215 497h448v-90h-298l46 -115h193v-88h-160l49 -113h170v-91h-247l-46 113h-198l-44 -113h-119zM342 195l-70 187l-71 -187h141z" />
    <glyph glyph-name="aeacute.sc" horiz-adv-x="705" 
d="M422 747h131l-118 -184h-95zM215 497h448v-90h-298l46 -115h193v-88h-160l49 -113h170v-91h-247l-46 113h-198l-44 -113h-119zM342 195l-70 187l-71 -187h141z" />
    <glyph glyph-name="agrave.sc" horiz-adv-x="546" 
d="M223 563l-118 184h131l82 -184h-95zM375 111h-208l-42 -111h-115l205 497h115l206 -497h-119zM344 193l-73 191l-72 -191h145z" />
    <glyph glyph-name="agrave.ss01" horiz-adv-x="511" 
d="M204 548l-119 184h131l82 -184h-94zM441 129q0 -25 9 -36t32 -11v-81q-9 -2 -22 -4t-26 -2q-45 0 -66 21.5t-23 61.5q-20 -40 -60 -65t-100 -25q-72 0 -113.5 34t-41.5 94q0 66 47 102t144 37h110v61q0 90 -89 90q-84 0 -84 -71q0 -23 8 -36h-99q-3 5 -7 19.5t-4 34.5
q0 65 50 103.5t140 38.5q100 0 147.5 -47t47.5 -136v-183zM210 73q45 0 75.5 26t45.5 70v18h-109q-42 0 -62 -17t-20 -43t18.5 -40t51.5 -14z" />
    <glyph glyph-name="amacron.sc" horiz-adv-x="546" 
d="M408 609h-271v85h271v-85zM375 111h-208l-42 -111h-115l205 497h115l206 -497h-119zM344 193l-73 191l-72 -191h145z" />
    <glyph glyph-name="amacron.ss01" horiz-adv-x="511" 
d="M388 594h-271v85h271v-85zM441 129q0 -25 9 -36t32 -11v-81q-9 -2 -22 -4t-26 -2q-45 0 -66 21.5t-23 61.5q-20 -40 -60 -65t-100 -25q-72 0 -113.5 34t-41.5 94q0 66 47 102t144 37h110v61q0 90 -89 90q-84 0 -84 -71q0 -23 8 -36h-99q-3 5 -7 19.5t-4 34.5
q0 65 50 103.5t140 38.5q100 0 147.5 -47t47.5 -136v-183zM210 73q45 0 75.5 26t45.5 70v18h-109q-42 0 -62 -17t-20 -43t18.5 -40t51.5 -14z" />
    <glyph glyph-name="ampersand.sc" horiz-adv-x="575" 
d="M523 -7q-27 8 -52.5 18.5t-51.5 22.5q-64 -47 -168 -47q-101 0 -155.5 39t-54.5 112q0 46 24.5 83.5t66.5 56.5q-11 22 -18 45t-7 49q0 69 46.5 109t123.5 40q78 0 122 -35t44 -95q0 -15 -3.5 -31.5t-8.5 -26.5h-89q4 7 6.5 18t2.5 22q0 28 -19.5 44t-52.5 16
q-36 0 -56 -16.5t-20 -47.5q0 -34 23 -67.5t72 -75.5q17 -14 43.5 -35t61.5 -44q15 38 15 93h89q0 -80 -29 -136q39 -19 77 -30zM264 66q44 0 75 14q-27 18 -52.5 37t-48.5 39q-17 15 -34 31.5t-32 33.5q-31 -27 -31 -68q0 -40 29.5 -63.5t93.5 -23.5z" />
    <glyph glyph-name="aogonek.sc" horiz-adv-x="546" 
d="M546 -163q-13 -13 -34 -20t-46 -7q-51 0 -77 23.5t-26 66.5q0 27 14 53.5t39 48.5l-41 109h-208l-42 -111h-115l205 497h115l206 -497h-19q-29 -11 -47 -33t-18 -48q0 -20 9.5 -29t24.5 -9q10 0 17 3t12 7zM344 193l-73 191l-72 -191h145z" />
    <glyph glyph-name="aogonek.ss01" horiz-adv-x="511" 
d="M510 -162q-13 -13 -34 -20t-46 -7q-51 0 -77 23t-26 66q0 29 15 56t41 50q-36 19 -38 72q-20 -40 -60 -65t-100 -25q-72 0 -113.5 34t-41.5 94q0 66 47 102t144 37h110v61q0 90 -89 90q-84 0 -84 -71q0 -23 8 -36h-99q-3 5 -7 19.5t-4 34.5q0 65 50 103.5t140 38.5
q100 0 147.5 -47t47.5 -136v-183q0 -25 9 -36t32 -11v-81q-30 -11 -47.5 -33.5t-17.5 -48.5q0 -20 9 -28.5t24 -8.5q10 0 17 3t12 7zM210 73q45 0 75.5 26t45.5 70v18h-109q-42 0 -62 -17t-20 -43t18.5 -40t51.5 -14z" />
    <glyph glyph-name="aring.sc" horiz-adv-x="546" 
d="M273 543q-24 0 -44.5 8.5t-35.5 23.5t-23.5 35.5t-8.5 43.5q0 24 8.5 44.5t23.5 35.5t35.5 23.5t44.5 8.5q23 0 43.5 -8.5t35.5 -23.5t23.5 -35.5t8.5 -44.5q0 -23 -8.5 -43.5t-23.5 -35.5t-35.5 -23.5t-43.5 -8.5zM273 697q-20 0 -31.5 -12t-11.5 -31t11.5 -31t31.5 -12
q19 0 31 12t12 31t-12 31t-31 12zM375 111h-208l-42 -111h-115l205 497h115l206 -497h-119zM344 193l-73 191l-72 -191h145z" />
    <glyph glyph-name="aring.ss01" horiz-adv-x="511" 
d="M253 528q-24 0 -44.5 8.5t-35.5 23.5t-23.5 35.5t-8.5 43.5q0 24 8.5 44.5t23.5 35.5t35.5 23.5t44.5 8.5q23 0 43.5 -8.5t35.5 -23.5t23.5 -35.5t8.5 -44.5q0 -23 -8.5 -43.5t-23.5 -35.5t-35.5 -23.5t-43.5 -8.5zM253 682q-20 0 -31.5 -12t-11.5 -31t11.5 -31t31.5 -12
q19 0 31 12t12 31t-12 31t-31 12zM441 129q0 -25 9 -36t32 -11v-81q-9 -2 -22 -4t-26 -2q-45 0 -66 21.5t-23 61.5q-20 -40 -60 -65t-100 -25q-72 0 -113.5 34t-41.5 94q0 66 47 102t144 37h110v61q0 90 -89 90q-84 0 -84 -71q0 -23 8 -36h-99q-3 5 -7 19.5t-4 34.5
q0 65 50 103.5t140 38.5q100 0 147.5 -47t47.5 -136v-183zM210 73q45 0 75.5 26t45.5 70v18h-109q-42 0 -62 -17t-20 -43t18.5 -40t51.5 -14z" />
    <glyph glyph-name="aringacute.sc" horiz-adv-x="546" 
d="M375 111h-208l-42 -111h-115l203 492q-23 15 -36.5 39.5t-13.5 53.5q0 35 17.5 61.5t46.5 39.5l77 133h139l-113 -137q25 -14 40 -39.5t15 -57.5q0 -31 -14.5 -56t-37.5 -39l203 -490h-119zM275 628q-20 0 -31.5 -12t-11.5 -31t11.5 -31.5t31.5 -12.5q19 0 30.5 12.5
t11.5 31.5t-12 31t-30 12zM344 193l-73 191l-72 -191h145z" />
    <glyph glyph-name="aringacute.ss01" horiz-adv-x="511" 
d="M253 528q-24 0 -44.5 8.5t-35.5 23.5t-23.5 35.5t-8.5 43.5q0 35 18.5 62.5t48.5 40.5l64 141h131l-95 -146q26 -14 41 -40t15 -58q0 -23 -8.5 -43.5t-23.5 -35.5t-35.5 -23.5t-43.5 -8.5zM253 596q19 0 31 12t12 31t-12 31t-31 12q-20 0 -31.5 -12t-11.5 -31t11.5 -31
t31.5 -12zM441 129q0 -25 9 -36t32 -11v-81q-9 -2 -22 -4t-26 -2q-45 0 -66 21.5t-23 61.5q-20 -40 -60 -65t-100 -25q-72 0 -113.5 34t-41.5 94q0 66 47 102t144 37h110v61q0 90 -89 90q-84 0 -84 -71q0 -23 8 -36h-99q-3 5 -7 19.5t-4 34.5q0 65 50 103.5t140 38.5
q100 0 147.5 -47t47.5 -136v-183zM210 73q45 0 75.5 26t45.5 70v18h-109q-42 0 -62 -17t-20 -43t18.5 -40t51.5 -14z" />
    <glyph glyph-name="atilde.sc" horiz-adv-x="546" 
d="M121 542q-5 11 -8.5 24t-3.5 30q0 33 22.5 56t63.5 23q23 0 41.5 -6t35 -13.5t30.5 -13.5t27 -6q11 0 17.5 6t6.5 17q0 7 -2 12t-4 9h77q5 -11 8.5 -24.5t3.5 -29.5q0 -33 -22.5 -56.5t-69.5 -23.5q-23 0 -42 6t-34.5 13.5t-28 13.5t-24.5 6q-10 0 -16.5 -5.5t-6.5 -16.5
q0 -7 2 -12t4 -9h-77zM375 111h-208l-42 -111h-115l205 497h115l206 -497h-119zM344 193l-73 191l-72 -191h145z" />
    <glyph glyph-name="atilde.ss01" horiz-adv-x="511" 
d="M106 564q-13 23 -13 54q0 34 22.5 57.5t67.5 23.5q20 0 37.5 -6.5t32.5 -14t29 -14t26 -6.5q26 0 26 22q0 14 -7 23h75q13 -24 13 -54q0 -34 -22.5 -58t-67.5 -24q-23 0 -41.5 6.5t-33.5 14t-27 14t-22 6.5q-26 0 -26 -22q0 -15 7 -22h-76zM441 129q0 -25 9 -36t32 -11
v-81q-9 -2 -22 -4t-26 -2q-45 0 -66 21.5t-23 61.5q-20 -40 -60 -65t-100 -25q-72 0 -113.5 34t-41.5 94q0 66 47 102t144 37h110v61q0 90 -89 90q-84 0 -84 -71q0 -23 8 -36h-99q-3 5 -7 19.5t-4 34.5q0 65 50 103.5t140 38.5q100 0 147.5 -47t47.5 -136v-183zM210 73
q45 0 75.5 26t45.5 70v18h-109q-42 0 -62 -17t-20 -43t18.5 -40t51.5 -14z" />
    <glyph glyph-name="b.sc" horiz-adv-x="525" 
d="M391 273q40 -10 69.5 -40.5t29.5 -87.5q0 -37 -15.5 -64.5t-43 -45.5t-65 -26.5t-81.5 -8.5h-214v497h206q92 0 138.5 -30t46.5 -96q0 -36 -18.5 -61.5t-52.5 -36.5zM182 294h93q38 0 57.5 17t19.5 45q0 29 -19 45.5t-57 16.5h-94v-124zM280 79q48 0 72.5 16t24.5 53
q0 68 -92 68h-103v-137h98z" />
    <glyph glyph-name="braceleft.sc" horiz-adv-x="301" 
d="M261 -87q-33 -5 -63.5 0t-54.5 22t-38.5 47t-14.5 75v104q0 26 -15.5 37t-34.5 11h-8v82h8q19 0 34.5 11t15.5 37v104q0 45 14.5 75t38.5 47t54.5 22t63.5 0v-89q-37 10 -58 -10.5t-21 -62.5v-111q0 -18 -4.5 -29.5t-10.5 -19t-12.5 -11t-10.5 -4.5q3 -1 9.5 -5.5
t12.5 -12.5t11 -20t5 -27v-111q0 -41 21 -62t58 -10v-89z" />
    <glyph glyph-name="braceright.sc" horiz-adv-x="301" 
d="M40 588q33 5 63.5 0t54 -22t38 -47t14.5 -75v-104q0 -26 16 -37t34 -11h8v-82h-8q-18 0 -34 -11t-16 -37v-104q0 -45 -14.5 -75t-38 -47t-54 -22t-63.5 0v89q37 -11 58 10t21 63v110q0 18 4.5 30t10.5 19t12 11t10 5q-3 1 -9 5t-12.5 12.5t-11 20t-4.5 27.5v110
q0 42 -21 62.5t-58 10.5v89z" />
    <glyph glyph-name="bracketleft.sc" horiz-adv-x="315" 
d="M77 595h203v-84h-106v-520h106v-84h-203v688z" />
    <glyph glyph-name="bracketright.sc" horiz-adv-x="315" 
d="M36 -9h105v520h-105v84h202v-688h-202v84z" />
    <glyph glyph-name="breve.case" horiz-adv-x="340" 
d="M171 523q-35 0 -60.5 11t-42.5 29t-25.5 41.5t-8.5 48.5h82q0 -55 54 -55q53 0 53 55h83q0 -25 -8.5 -48.5t-25 -41.5t-42 -29t-59.5 -11z" />
    <glyph glyph-name="c.sc" horiz-adv-x="522" 
d="M285 -13q-55 0 -100.5 16.5t-77.5 49t-50 81t-18 111.5q0 61 17.5 110t50 83.5t78.5 53t104 18.5q40 0 75.5 -9.5t62.5 -28.5t42.5 -48.5t15.5 -70.5q0 -10 -2 -21.5t-5 -22.5h-104q2 9 2 14v13q0 35 -21 56t-68 21q-60 0 -94.5 -41t-34.5 -125q0 -81 37 -123.5t97 -42.5
q45 0 75 16t52 50l74 -55q-32 -50 -80 -77.5t-128 -27.5z" />
    <glyph glyph-name="cacute.sc" horiz-adv-x="522" 
d="M305 747h131l-119 -184h-95zM285 -13q-55 0 -100.5 16.5t-77.5 49t-50 81t-18 111.5q0 61 17.5 110t50 83.5t78.5 53t104 18.5q40 0 75.5 -9.5t62.5 -28.5t42.5 -48.5t15.5 -70.5q0 -10 -2 -21.5t-5 -22.5h-104q2 9 2 14v13q0 35 -21 56t-68 21q-60 0 -94.5 -41
t-34.5 -125q0 -81 37 -123.5t97 -42.5q45 0 75 16t52 50l74 -55q-32 -50 -80 -77.5t-128 -27.5z" />
    <glyph glyph-name="caron.alt" horiz-adv-x="238" 
d="M58 555q24 8 36.5 21.5t13.5 27.5q-27 2 -42 19.5t-15 43.5q0 27 18.5 46t46.5 19q32 0 51.5 -20.5t19.5 -54.5q0 -54 -28 -95t-75 -55z" />
    <glyph glyph-name="caron.case" horiz-adv-x="349" 
d="M25 672h97l52 -80l52 80h96l-87 -156h-121z" />
    <glyph glyph-name="caroncomb.alt" 
d="M-124 555q24 8 36.5 21.5t13.5 27.5q-27 2 -42 19.5t-15 43.5q0 27 18.5 46t46.5 19q32 0 51.5 -20.5t19.5 -54.5q0 -54 -28 -95t-75 -55z" />
    <glyph glyph-name="ccaron.sc" horiz-adv-x="522" 
d="M139 745h95l52 -103l51 103h95l-89 -181h-116zM285 -13q-55 0 -100.5 16.5t-77.5 49t-50 81t-18 111.5q0 61 17.5 110t50 83.5t78.5 53t104 18.5q40 0 75.5 -9.5t62.5 -28.5t42.5 -48.5t15.5 -70.5q0 -10 -2 -21.5t-5 -22.5h-104q2 9 2 14v13q0 35 -21 56t-68 21
q-60 0 -94.5 -41t-34.5 -125q0 -81 37 -123.5t97 -42.5q45 0 75 16t52 50l74 -55q-32 -50 -80 -77.5t-128 -27.5z" />
    <glyph glyph-name="ccedilla.sc" horiz-adv-x="522" 
d="M493 92q-28 -43 -67.5 -69.5t-101.5 -33.5l-9 -27q32 -5 56.5 -22.5t24.5 -58.5q0 -44 -33.5 -67.5t-87.5 -23.5q-27 0 -52.5 8t-41.5 24l34 56q26 -21 55 -21q34 0 34 26q0 17 -19.5 26t-51.5 11l24 68q-98 8 -158 73.5t-60 183.5q0 61 17.5 110t50 83.5t78.5 53
t104 18.5q40 0 75.5 -9.5t62.5 -28.5t42.5 -48.5t15.5 -70.5q0 -10 -2 -21.5t-5 -22.5h-104q2 9 2 14v13q0 35 -21 56t-68 21q-60 0 -94.5 -41t-34.5 -125q0 -81 37 -123.5t97 -42.5q45 0 75 16t52 50z" />
    <glyph glyph-name="ccircumflex.sc" horiz-adv-x="522" 
d="M227 745h116l88 -181h-95l-52 103l-51 -103h-95zM285 -13q-55 0 -100.5 16.5t-77.5 49t-50 81t-18 111.5q0 61 17.5 110t50 83.5t78.5 53t104 18.5q40 0 75.5 -9.5t62.5 -28.5t42.5 -48.5t15.5 -70.5q0 -10 -2 -21.5t-5 -22.5h-104q2 9 2 14v13q0 35 -21 56t-68 21
q-60 0 -94.5 -41t-34.5 -125q0 -81 37 -123.5t97 -42.5q45 0 75 16t52 50l74 -55q-32 -50 -80 -77.5t-128 -27.5z" />
    <glyph glyph-name="cdotaccent.sc" horiz-adv-x="522" 
d="M286 584q-29 0 -50 20.5t-21 50.5q0 29 21 49.5t50 20.5t49.5 -20.5t20.5 -49.5q0 -30 -20.5 -50.5t-49.5 -20.5zM285 -13q-55 0 -100.5 16.5t-77.5 49t-50 81t-18 111.5q0 61 17.5 110t50 83.5t78.5 53t104 18.5q40 0 75.5 -9.5t62.5 -28.5t42.5 -48.5t15.5 -70.5
q0 -10 -2 -21.5t-5 -22.5h-104q2 9 2 14v13q0 35 -21 56t-68 21q-60 0 -94.5 -41t-34.5 -125q0 -81 37 -123.5t97 -42.5q45 0 75 16t52 50l74 -55q-32 -50 -80 -77.5t-128 -27.5z" />
    <glyph glyph-name="cent.osf" horiz-adv-x="483" 
d="M457 79q-20 -31 -56.5 -53t-87.5 -28v-72h-94v76q-83 17 -131.5 79t-48.5 162t48.5 163.5t131.5 80.5v70h94v-67q51 -6 85.5 -27.5t55.5 -55.5l-85 -60q-11 15 -25.5 25t-35.5 15v-288q24 4 43 15t33 26zM156 240q0 -110 76 -135v277q-37 -14 -56.5 -51t-19.5 -91z" />
    <glyph glyph-name="cent.sc" horiz-adv-x="478" 
d="M454 79q-20 -31 -56.5 -53t-87.5 -28v-72h-94v76q-83 17 -131.5 79t-48.5 162t48.5 163.5t131.5 80.5v70h94v-67q51 -6 85.5 -27.5t55.5 -55.5l-85 -60q-11 15 -25.5 25t-35.5 15v-288q24 4 43 15t33 26zM153 240q0 -110 76 -135v277q-37 -14 -56.5 -51t-19.5 -91z" />
    <glyph glyph-name="circumflex.case" horiz-adv-x="368" 
d="M122 669h121l88 -156h-97l-52 80l-52 -80h-97z" />
    <glyph glyph-name="currency.osf" horiz-adv-x="554" 
d="M35 76l80 81q-25 42 -25 93t25 93l-77 79l55 56l77 -78q22 17 49.5 27.5t58.5 10.5t58 -10.5t49 -27.5l77 78l56 -56l-78 -79q26 -43 26 -93q0 -52 -26 -95l76 -74l-57 -56l-74 74q-21 -17 -48.5 -27t-58.5 -10t-58.5 10t-49.5 27l-79 -79zM278 147q21 0 40 8t33 22
t22 33t8 40t-8 40t-22 33t-33 22t-40 8t-39.5 -8t-33 -22t-22.5 -33t-8 -40t8 -40t22 -33t33 -22t40 -8z" />
    <glyph glyph-name="currency.sc" horiz-adv-x="554" 
d="M35 76l80 81q-25 42 -25 93t25 93l-77 79l55 56l77 -78q22 17 49.5 27.5t58.5 10.5t58 -10.5t49 -27.5l77 78l56 -56l-78 -79q26 -43 26 -93q0 -52 -26 -95l76 -74l-57 -56l-74 74q-21 -17 -48.5 -27t-58.5 -10t-58.5 10t-49.5 27l-79 -79zM278 147q21 0 40 8t33 22
t22 33t8 40t-8 40t-22 33t-33 22t-40 8t-39.5 -8t-33 -22t-22.5 -33t-8 -40t8 -40t22 -33t33 -22t40 -8z" />
    <glyph glyph-name="d.sc" horiz-adv-x="566" 
d="M71 497h174q58 0 109.5 -13t90 -42.5t61 -77t22.5 -116.5t-23.5 -116t-62.5 -76.5t-88 -42.5t-100 -13h-183v497zM250 91q75 0 117.5 39.5t42.5 114.5t-40.5 118t-122.5 43h-65v-315h68z" />
    <glyph glyph-name="dcaron.sc" horiz-adv-x="566" 
d="M133 683h97l52 -73l52 73h96l-88 -144h-121zM71 497h174q58 0 109.5 -13t90 -42.5t61 -77t22.5 -116.5t-23.5 -116t-62.5 -76.5t-88 -42.5t-100 -13h-183v497zM250 91q75 0 117.5 39.5t42.5 114.5t-40.5 118t-122.5 43h-65v-315h68z" />
    <glyph glyph-name="dcroat.sc" horiz-adv-x="596" 
d="M274 497q58 0 109.5 -13t90 -42.5t61 -77t22.5 -116.5t-23.5 -116t-62.5 -76.5t-88 -42.5t-100 -13h-183v206h-82v87h82v204h174zM279 91q75 0 117.5 39.5t42.5 114.5t-40.5 118t-122.5 43h-65v-113h97v-87h-97v-115h68z" />
    <glyph glyph-name="dieresis.case" horiz-adv-x="374" 
d="M91 540q-25 0 -42.5 17t-17.5 42t17.5 42.5t42.5 17.5t42 -17.5t17 -42.5t-17 -42t-42 -17zM284 540q-24 0 -42 17t-18 42t18 42.5t42 17.5q25 0 42.5 -17.5t17.5 -42.5t-17.5 -42t-42.5 -17z" />
    <glyph glyph-name="dollar.osf" horiz-adv-x="485" 
d="M283 283q31 -6 61 -14.5t53.5 -23.5t38 -39t14.5 -62q0 -60 -44.5 -97.5t-122.5 -43.5v-86h-76v83q-63 3 -111 25.5t-71 53.5l64 69q23 -26 53 -40.5t66 -19.5v118q-30 6 -59.5 14t-53 23t-38 39t-14.5 60q0 63 44 98t120 43v79h76v-81q31 -3 61 -12.5t52.5 -27.5
t33.5 -46t3 -68l-95 -1q6 30 -9.5 47t-45.5 22v-112zM146 346q0 -22 16.5 -32.5t45.5 -16.5v100q-62 -9 -62 -51zM283 88q29 5 46 18t17 35t-17 33t-46 18v-104z" />
    <glyph glyph-name="dollar.sc" horiz-adv-x="487" 
d="M284 283q31 -6 60.5 -14.5t53 -23.5t38 -39t14.5 -62q0 -62 -44.5 -98.5t-121.5 -42.5v-86h-77v83q-62 5 -110.5 26.5t-71.5 52.5l64 69q23 -26 53 -40.5t66 -19.5v118q-30 6 -59 14.5t-52.5 23.5t-38 39t-14.5 60q0 63 43.5 97.5t119.5 42.5v79h77v-81q30 -3 60 -12.5
t52.5 -27.5t33.5 -46t3 -68l-95 -1q6 30 -9 46.5t-45 22.5v-112zM147 348q0 -23 16 -33.5t45 -17.5v100q-61 -8 -61 -49zM284 88q29 5 46 17.5t17 35.5q0 22 -17 33t-46 18v-104z" />
    <glyph glyph-name="dotaccent.case" horiz-adv-x="193" 
d="M97 559q-25 0 -42.5 17t-17.5 42t17.5 42.5t42.5 17.5q24 0 41.5 -17.5t17.5 -42.5t-17.5 -42t-41.5 -17z" />
    <glyph glyph-name="dotlessi.sc" horiz-adv-x="255" 
d="M71 497h113v-497h-113v497z" />
    <glyph glyph-name="dotlessi.ss01" horiz-adv-x="252" 
d="M170 -4q-55 0 -80 30t-25 84v372h109v-349q0 -28 9.5 -39t34.5 -11v-81q-5 -2 -18 -4t-30 -2z" />
    <glyph glyph-name="e.sc" horiz-adv-x="476" 
d="M71 497h361v-92h-250v-108h215v-91h-215v-114h251v-92h-362v497z" />
    <glyph glyph-name="e.ss01" horiz-adv-x="492" 
d="M273 78q43 0 70 16t47 44l65 -52q-25 -43 -74.5 -71t-114.5 -28q-108 0 -168.5 66.5t-60.5 183.5q0 59 15 107t44 81.5t70.5 51.5t94.5 18q94 0 144 -58t50 -163v-24.5t-1 -24.5h-306q3 -74 35 -110.5t90 -36.5zM255 406q-49 0 -72.5 -29.5t-30.5 -80.5h197
q0 49 -23 79.5t-71 30.5z" />
    <glyph glyph-name="eacute.sc" horiz-adv-x="476" 
d="M283 747h131l-119 -184h-95zM71 497h361v-92h-250v-108h215v-91h-215v-114h251v-92h-362v497z" />
    <glyph glyph-name="eacute.ss01" horiz-adv-x="492" 
d="M286 548h-95l83 184h131zM273 78q43 0 70 16t47 44l65 -52q-25 -43 -74.5 -71t-114.5 -28q-108 0 -168.5 66.5t-60.5 183.5q0 59 15 107t44 81.5t70.5 51.5t94.5 18q94 0 144 -58t50 -163v-24.5t-1 -24.5h-306q3 -74 35 -110.5t90 -36.5zM255 406q-49 0 -72.5 -29.5
t-30.5 -80.5h197q0 49 -23 79.5t-71 30.5z" />
    <glyph glyph-name="ebreve.sc" horiz-adv-x="476" 
d="M263 578q-39 0 -65 12t-42 32t-22.5 46.5t-6.5 56.5h82q0 -64 54 -64t54 64h82q0 -30 -7 -56.5t-23 -46.5t-42 -32t-64 -12zM71 497h361v-92h-250v-108h215v-91h-215v-114h251v-92h-362v497z" />
    <glyph glyph-name="ebreve.ss01" horiz-adv-x="492" 
d="M255 563q-39 0 -65.5 12t-42.5 32t-22.5 46.5t-6.5 56.5h83q0 -64 53 -64q54 0 54 64h82q0 -30 -7 -56.5t-22.5 -46.5t-41.5 -32t-64 -12zM273 78q43 0 70 16t47 44l65 -52q-25 -43 -74.5 -71t-114.5 -28q-108 0 -168.5 66.5t-60.5 183.5q0 59 15 107t44 81.5t70.5 51.5
t94.5 18q94 0 144 -58t50 -163v-24.5t-1 -24.5h-306q3 -74 35 -110.5t90 -36.5zM255 406q-49 0 -72.5 -29.5t-30.5 -80.5h197q0 49 -23 79.5t-71 30.5z" />
    <glyph glyph-name="ecaron.sc" horiz-adv-x="476" 
d="M116 745h96l51 -103l52 103h95l-90 -181h-115zM71 497h361v-92h-250v-108h215v-91h-215v-114h251v-92h-362v497z" />
    <glyph glyph-name="ecaron.ss01" horiz-adv-x="492" 
d="M196 549l-89 181h96l51 -103l52 103h95l-89 -181h-116zM273 78q43 0 70 16t47 44l65 -52q-25 -43 -74.5 -71t-114.5 -28q-108 0 -168.5 66.5t-60.5 183.5q0 59 15 107t44 81.5t70.5 51.5t94.5 18q94 0 144 -58t50 -163v-24.5t-1 -24.5h-306q3 -74 35 -110.5t90 -36.5z
M255 406q-49 0 -72.5 -29.5t-30.5 -80.5h197q0 49 -23 79.5t-71 30.5z" />
    <glyph glyph-name="ecircumflex.sc" horiz-adv-x="476" 
d="M205 745h115l89 -181h-96l-51 103l-52 -103h-95zM71 497h361v-92h-250v-108h215v-91h-215v-114h251v-92h-362v497z" />
    <glyph glyph-name="ecircumflex.ss01" horiz-adv-x="492" 
d="M202 549h-95l89 181h116l88 -181h-96l-51 103zM273 78q43 0 70 16t47 44l65 -52q-25 -43 -74.5 -71t-114.5 -28q-108 0 -168.5 66.5t-60.5 183.5q0 59 15 107t44 81.5t70.5 51.5t94.5 18q94 0 144 -58t50 -163v-24.5t-1 -24.5h-306q3 -74 35 -110.5t90 -36.5zM255 406
q-49 0 -72.5 -29.5t-30.5 -80.5h197q0 49 -23 79.5t-71 30.5z" />
    <glyph glyph-name="edieresis.sc" horiz-adv-x="476" 
d="M164 585q-29 0 -48 20t-19 48t19 49t48 21q28 0 48 -21t20 -49t-20 -48t-48 -20zM363 585q-29 0 -49 20t-20 48t20 49t49 21t48 -21t19 -49t-19 -48t-48 -20zM71 497h361v-92h-250v-108h215v-91h-215v-114h251v-92h-362v497z" />
    <glyph glyph-name="edieresis.ss01" horiz-adv-x="492" 
d="M155 570q-29 0 -48 20t-19 48t19 49t48 21t48.5 -21t19.5 -49t-19.5 -48t-48.5 -20zM354 570q-28 0 -48.5 20t-20.5 48t20.5 49t48.5 21q29 0 48 -21t19 -49t-19 -48t-48 -20zM273 78q43 0 70 16t47 44l65 -52q-25 -43 -74.5 -71t-114.5 -28q-108 0 -168.5 66.5
t-60.5 183.5q0 59 15 107t44 81.5t70.5 51.5t94.5 18q94 0 144 -58t50 -163v-24.5t-1 -24.5h-306q3 -74 35 -110.5t90 -36.5zM255 406q-49 0 -72.5 -29.5t-30.5 -80.5h197q0 49 -23 79.5t-71 30.5z" />
    <glyph glyph-name="edotaccent.sc" horiz-adv-x="476" 
d="M263 584q-29 0 -49.5 20.5t-20.5 50.5q0 29 20.5 49.5t49.5 20.5t49.5 -20.5t20.5 -49.5q0 -30 -20.5 -50.5t-49.5 -20.5zM71 497h361v-92h-250v-108h215v-91h-215v-114h251v-92h-362v497z" />
    <glyph glyph-name="edotaccent.ss01" horiz-adv-x="492" 
d="M254 569q-29 0 -49.5 20.5t-20.5 50.5q0 29 20.5 49.5t49.5 20.5t50 -20.5t21 -49.5q0 -30 -21 -50.5t-50 -20.5zM273 78q43 0 70 16t47 44l65 -52q-25 -43 -74.5 -71t-114.5 -28q-108 0 -168.5 66.5t-60.5 183.5q0 59 15 107t44 81.5t70.5 51.5t94.5 18q94 0 144 -58
t50 -163v-24.5t-1 -24.5h-306q3 -74 35 -110.5t90 -36.5zM255 406q-49 0 -72.5 -29.5t-30.5 -80.5h197q0 49 -23 79.5t-71 30.5z" />
    <glyph glyph-name="egrave.sc" horiz-adv-x="476" 
d="M95 747h131l82 -184h-94zM71 497h361v-92h-250v-108h215v-91h-215v-114h251v-92h-362v497z" />
    <glyph glyph-name="egrave.ss01" horiz-adv-x="492" 
d="M205 548l-119 184h131l83 -184h-95zM273 78q43 0 70 16t47 44l65 -52q-25 -43 -74.5 -71t-114.5 -28q-108 0 -168.5 66.5t-60.5 183.5q0 59 15 107t44 81.5t70.5 51.5t94.5 18q94 0 144 -58t50 -163v-24.5t-1 -24.5h-306q3 -74 35 -110.5t90 -36.5zM255 406
q-49 0 -72.5 -29.5t-30.5 -80.5h197q0 49 -23 79.5t-71 30.5z" />
    <glyph glyph-name="eight.dnom" horiz-adv-x="379" 
d="M186 -9q-151 0 -151 104q0 31 17 56.5t46 39.5q-20 14 -34 35t-14 54q0 48 37 79.5t105 31.5q62 0 100.5 -27.5t38.5 -77.5q0 -31 -16 -51.5t-35 -32.5q32 -14 47.5 -38.5t15.5 -58.5q0 -53 -41.5 -83.5t-115.5 -30.5zM220 221q14 8 25 21t11 36q0 25 -18 39.5t-48 14.5
q-32 0 -48.5 -14t-16.5 -36q0 -15 9 -28.5t32 -18.5zM188 50q37 0 58 12.5t21 38.5q0 23 -14 34.5t-40 18.5l-61 16q-15 -8 -28.5 -24.5t-13.5 -37.5q0 -31 21 -44.5t57 -13.5z" />
    <glyph glyph-name="eight.numr" horiz-adv-x="379" 
d="M186 312q-151 0 -151 104q0 30 17 56t46 40q-20 14 -34 35t-14 54q0 48 37 79.5t105 31.5q62 0 100.5 -27.5t38.5 -77.5q0 -31 -16 -51.5t-35 -32.5q32 -14 47.5 -38.5t15.5 -58.5q0 -53 -41.5 -83.5t-115.5 -30.5zM220 541q14 8 25 21.5t11 35.5q0 26 -18 40t-48 14
q-32 0 -48.5 -14t-16.5 -35q0 -15 9 -28.5t32 -19.5zM188 370q37 0 58 13t21 39q0 23 -14 34.5t-40 18.5l-61 15q-15 -8 -28.5 -24.5t-13.5 -36.5q0 -31 21 -45t57 -14z" />
    <glyph glyph-name="eight.osf" horiz-adv-x="559" 
d="M413 362q54 -27 79 -70t25 -100q0 -45 -17 -81.5t-48 -62.5t-75.5 -40t-98.5 -14q-112 0 -174.5 47t-62.5 141q0 58 28 104.5t73 74.5q-36 25 -60 63t-24 91q0 43 16.5 78.5t45.5 60.5t70.5 38.5t90.5 13.5q103 0 162.5 -47t59.5 -135q0 -54 -24 -95t-66 -67zM278 615
q-51 0 -82.5 -25t-31.5 -72q0 -38 24 -62.5t60 -35.5l81 -26q36 21 52 52t16 65q0 52 -32 78t-87 26zM279 84q63 0 97 27.5t34 76.5q0 40 -21 65t-66 40l-103 32q-30 -23 -50.5 -54t-20.5 -72q0 -51 32 -83t98 -32z" />
    <glyph glyph-name="eight.sc" horiz-adv-x="494" 
d="M367 264q88 -37 88 -123q0 -72 -56 -113t-156 -41q-97 0 -151 37.5t-54 106.5q0 42 22.5 72.5t58.5 49.5q-26 18 -42.5 44.5t-16.5 62.5q0 69 51.5 109.5t137.5 40.5q87 0 137 -37t50 -101q0 -34 -18 -61.5t-51 -46.5zM247 427q-38 0 -60.5 -17.5t-22.5 -49.5
q0 -23 17 -37t44 -21l59 -14q26 13 38 31t12 37q0 35 -24 53t-63 18zM245 67q52 0 79 18.5t27 51.5q0 25 -16 40t-52 23l-87 21q-24 -13 -39 -32t-15 -43q0 -38 25.5 -58.5t77.5 -20.5z" />
    <glyph glyph-name="eight.sinf" horiz-adv-x="379" 
d="M186 -143q-151 0 -151 104q0 30 17 56t46 40q-20 14 -34 35t-14 54q0 48 37 79.5t105 31.5q62 0 100.5 -27.5t38.5 -77.5q0 -31 -16 -51.5t-35 -32.5q32 -14 47.5 -38.5t15.5 -58.5q0 -53 -41.5 -83.5t-115.5 -30.5zM220 86q14 8 25 21.5t11 35.5q0 26 -18 40t-48 14
q-32 0 -48.5 -14t-16.5 -35q0 -15 9 -28.5t32 -19.5zM188 -85q37 0 58 13t21 39q0 23 -14 34.5t-40 18.5l-61 15q-15 -8 -28.5 -24.5t-13.5 -36.5q0 -31 21 -45t57 -14z" />
    <glyph glyph-name="eight.sups" horiz-adv-x="379" 
d="M186 377q-151 0 -151 104q0 30 17 56t46 40q-20 14 -34 35t-14 54q0 48 37 79.5t105 31.5q62 0 100.5 -27.5t38.5 -77.5q0 -31 -16 -51.5t-35 -32.5q32 -14 47.5 -38.5t15.5 -58.5q0 -53 -41.5 -83.5t-115.5 -30.5zM220 606q14 8 25 21.5t11 35.5q0 26 -18 40t-48 14
q-32 0 -48.5 -14t-16.5 -35q0 -15 9 -28.5t32 -19.5zM188 435q37 0 58 13t21 39q0 23 -14 34.5t-40 18.5l-61 15q-15 -8 -28.5 -24.5t-13.5 -36.5q0 -31 21 -45t57 -14z" />
    <glyph glyph-name="emacron.sc" horiz-adv-x="476" 
d="M128 694h271v-85h-271v85zM71 497h361v-92h-250v-108h215v-91h-215v-114h251v-92h-362v497z" />
    <glyph glyph-name="emacron.ss01" horiz-adv-x="492" 
d="M390 594h-271v85h271v-85zM273 78q43 0 70 16t47 44l65 -52q-25 -43 -74.5 -71t-114.5 -28q-108 0 -168.5 66.5t-60.5 183.5q0 59 15 107t44 81.5t70.5 51.5t94.5 18q94 0 144 -58t50 -163v-24.5t-1 -24.5h-306q3 -74 35 -110.5t90 -36.5zM255 406q-49 0 -72.5 -29.5
t-30.5 -80.5h197q0 49 -23 79.5t-71 30.5z" />
    <glyph glyph-name="eng.sc" horiz-adv-x="573" 
d="M502 497v-518q0 -98 -49 -150t-139 -52q-42 0 -74 11t-52 32l65 86q11 -11 26 -17.5t36 -6.5q35 0 57 22.5t22 72.5v36l-207 289l-10 21v-323h-106v497h99l213 -300l14 -25v325h105z" />
    <glyph glyph-name="eng.ss01" horiz-adv-x="548" 
d="M320 495q81 0 124.5 -49.5t43.5 -140.5v-326q0 -98 -49 -150t-139 -52q-42 0 -74 11t-52 32l65 86q11 -11 26 -17.5t38 -6.5q33 0 54 22.5t21 72.5v321q0 48 -23.5 74.5t-66.5 26.5q-46 0 -74.5 -30.5t-28.5 -81.5v-287h-109v357q0 24 -9.5 34.5t-31.5 10.5v82
q8 2 21 3.5t29 1.5q41 0 63 -21t24 -59v-2q18 40 55.5 64t92.5 24z" />
    <glyph glyph-name="eogonek.sc" horiz-adv-x="476" 
d="M461 -163q-13 -13 -34 -20t-46 -7q-51 0 -77 23.5t-26 66.5q0 27 13.5 52.5t37.5 47.5h-258v497h361v-92h-250v-108h215v-91h-215v-114h251v-92q-30 -11 -47.5 -33t-17.5 -48q0 -20 9 -29t24 -9q11 0 18 3t12 7z" />
    <glyph glyph-name="eogonek.ss01" horiz-adv-x="493" 
d="M274 78q42 0 69 16t47 44l65 -52q-17 -30 -46.5 -53t-68.5 -35q-22 -13 -34 -32t-12 -41q0 -20 9 -29t24 -9q11 0 17.5 3.5t11.5 7.5l31 -54q-13 -13 -34 -20t-46 -7q-51 0 -77 23t-26 66t33 82q-94 10 -147 75t-53 174q0 59 15 107t44 81.5t70.5 51.5t94.5 18
q94 0 144.5 -58t50.5 -163v-24.5t-2 -24.5h-306q3 -74 35.5 -110.5t90.5 -36.5zM255 406q-49 0 -72.5 -29.5t-30.5 -80.5h197q0 49 -23 79.5t-71 30.5z" />
    <glyph glyph-name="eth.sc" horiz-adv-x="596" 
d="M274 497q58 0 109.5 -13t90 -42.5t61 -77t22.5 -116.5t-23.5 -116t-62.5 -76.5t-88 -42.5t-100 -13h-183v206h-82v87h82v204h174zM279 91q75 0 117.5 39.5t42.5 114.5t-40.5 118t-122.5 43h-65v-113h97v-87h-97v-115h68z" />
    <glyph glyph-name="exclam.sc" horiz-adv-x="241" 
d="M65 497h114l-15 -344h-87zM119 -15q-24 0 -41.5 17t-17.5 41q0 23 17.5 40.5t41.5 17.5t41.5 -17.5t17.5 -40.5q0 -24 -17.5 -41t-41.5 -17z" />
    <glyph glyph-name="exclamdown.sc" horiz-adv-x="241" 
d="M123 506q24 0 41.5 -17t17.5 -41q0 -23 -17.5 -40.5t-41.5 -17.5q-25 0 -42 17.5t-17 40.5q0 24 17 41t42 17zM177 -6h-115l15 344h88z" />
    <glyph glyph-name="f.sc" horiz-adv-x="455" 
d="M71 497h355v-96h-244v-126h204v-94h-204v-181h-111v497z" />
    <glyph glyph-name="fi.sc" horiz-adv-x="684" 
d="M71 497h355v-96h-244v-126h204v-94h-204v-181h-111v497zM502 497h111v-497h-111v497z" />
    <glyph glyph-name="five.dnom" horiz-adv-x="357" 
d="M174 -10q-45 0 -79 13.5t-59 47.5l52 55q20 -27 41 -37t50 -10q34 0 51.5 18.5t17.5 47.5q0 27 -15.5 43.5t-47.5 16.5q-23 0 -41.5 -8.5t-29.5 -19.5h-67v224h256v-67h-190v-94q14 11 35.5 19.5t53.5 8.5q57 0 90 -30t33 -92q0 -60 -40 -98t-111 -38z" />
    <glyph glyph-name="five.numr" horiz-adv-x="357" 
d="M174 312q-45 0 -79 13.5t-60 47.5l53 55q20 -27 40.5 -37t49.5 -10q35 0 52 18.5t17 47.5q0 27 -15 43.5t-47 16.5q-23 0 -42 -8.5t-30 -19.5h-66v224h256v-67h-190v-94q13 11 35 19.5t54 8.5q57 0 90 -30t33 -92q0 -60 -40.5 -98t-110.5 -38z" />
    <glyph glyph-name="five.osf" horiz-adv-x="538" 
d="M266 -200q-90 0 -145 34.5t-84 96.5l92 54q22 -45 58 -67t81 -22q60 0 94.5 32.5t34.5 101.5t-33 100t-87 31q-43 0 -72 -16.5t-46 -33.5h-105v385h420v-99h-319v-193q26 25 64 39.5t83 14.5q98 0 152 -56.5t54 -164.5q0 -56 -17 -99.5t-48.5 -74.5t-76 -47t-100.5 -16z
" />
    <glyph glyph-name="five.sc" horiz-adv-x="490" 
d="M242 -7q-80 0 -131 24.5t-76 66.5l72 65q26 -35 60 -49.5t76 -14.5q104 0 104 80q0 37 -24 56t-67 19q-32 0 -56.5 -8.5t-41.5 -20.5h-99v286h367v-91h-273v-114q48 36 133 36q79 0 124 -40.5t45 -118.5q0 -83 -55 -129.5t-158 -46.5z" />
    <glyph glyph-name="five.sinf" horiz-adv-x="357" 
d="M174 -143q-45 0 -79 13.5t-60 47.5l53 55q20 -27 40.5 -37t49.5 -10q35 0 52 18.5t17 47.5q0 27 -15 43.5t-47 16.5q-23 0 -42 -8.5t-30 -19.5h-66v224h256v-67h-190v-94q13 11 35 19.5t54 8.5q57 0 90 -30t33 -92q0 -60 -40.5 -98t-110.5 -38z" />
    <glyph glyph-name="five.sups" horiz-adv-x="357" 
d="M174 377q-45 0 -79 13.5t-60 47.5l53 55q20 -27 40.5 -37t49.5 -10q35 0 52 18.5t17 47.5q0 27 -15 43.5t-47 16.5q-23 0 -42 -8.5t-30 -19.5h-66v224h256v-67h-190v-94q13 11 35 19.5t54 8.5q57 0 90 -30t33 -92q0 -60 -40.5 -98t-110.5 -38z" />
    <glyph glyph-name="fiveeighths.alt" horiz-adv-x="638" 
d="M149 328q-23 0 -40.5 5t-30 11.5t-20.5 13.5t-12 10l36 47q7 -5 22.5 -15t44.5 -10q21 0 32.5 10t11.5 24t-10 23t-30 9q-19 0 -29.5 -7.5t-13.5 -10.5h-58v166h194v-56h-132v-52q3 4 17 9t36 5q48 0 72.5 -23.5t24.5 -65.5q0 -38 -28 -65.5t-87 -27.5zM466 600h84
l-367 -501h-86zM484 75q-57 0 -87 18.5t-30 56.5q0 19 11.5 37.5t37.5 27.5q-36 20 -36 63q0 34 27.5 54.5t75.5 20.5q50 0 77.5 -20t27.5 -52q0 -22 -11 -36.5t-25 -20.5q25 -8 36.5 -26.5t11.5 -41.5q0 -37 -31.5 -59t-84.5 -22zM503 242q8 3 12.5 12t4.5 19
q0 14 -11 21.5t-26 7.5q-16 0 -25.5 -7t-9.5 -19q0 -19 22 -25zM484 124q48 0 48 31q0 24 -29 30l-38 9q-14 -5 -22 -15t-8 -22q0 -33 49 -33z" />
    <glyph glyph-name="fl.sc" horiz-adv-x="857" 
d="M71 497h355v-96h-244v-126h204v-94h-204v-181h-111v497zM502 497h111v-398h223v-99h-334v497z" />
    <glyph glyph-name="four.dnom" horiz-adv-x="368" 
d="M213 81h-188v57l122 244h87l-117 -232h101v83h76v-83h50v-69h-50v-81h-81v81z" />
    <glyph glyph-name="four.numr" horiz-adv-x="368" 
d="M212 399h-188v57l123 244h86l-117 -232h101v83h76v-83h50v-69h-50v-81h-81v81z" />
    <glyph glyph-name="four.osf" horiz-adv-x="583" 
d="M562 90v-90h-101v-164h-108v164h-332v88l309 410h131v-408h101zM353 90v295l-219 -295h219z" />
    <glyph glyph-name="four.sc" horiz-adv-x="486" 
d="M277 97h-253v86l196 314h111l-194 -314h145v104h100v-104h80v-86h-80v-97h-105v97z" />
    <glyph glyph-name="four.sinf" horiz-adv-x="368" 
d="M213 -56h-188v57l122 244h87l-117 -232h101v83h76v-83h50v-69h-50v-81h-81v81z" />
    <glyph glyph-name="four.sups" horiz-adv-x="368" 
d="M213 464h-188v57l122 244h87l-117 -232h101v83h76v-83h50v-69h-50v-81h-81v81z" />
    <glyph glyph-name="g.sc" horiz-adv-x="552" 
d="M293 -13q-124 0 -189 66t-65 194q0 59 17.5 107.5t50.5 83t81 53.5t109 19q94 0 147.5 -39.5t53.5 -111.5q0 -8 -1 -16.5t-3 -16.5h-104q1 5 1 19q0 32 -24.5 51.5t-69.5 19.5q-68 0 -105 -43t-37 -125q0 -84 36.5 -127t107.5 -43q41 0 67 6t41 16v76h-110v82h209v-206
q-11 -10 -30 -21.5t-45.5 -21t-61 -16t-76.5 -6.5z" />
    <glyph glyph-name="g.ss01" horiz-adv-x="513" 
d="M249 -240q-121 0 -173 33t-52 95q0 25 8 44.5t19.5 33t24.5 22.5t23 13q-21 11 -40.5 31t-19.5 55q0 38 20 60t47 33q-15 14 -33 46.5t-18 83.5q0 43 16 77t44 57.5t65.5 36t79.5 12.5q26 0 43 -4t31 -8q13 0 28 4t28 15t21.5 30t8.5 49l95 -20q0 -34 -10.5 -56
t-26 -35.5t-34 -19.5t-34.5 -7q21 -17 38 -49.5t17 -81.5q0 -44 -16.5 -78t-44.5 -57.5t-65 -35.5t-78 -12q-28 0 -49 4t-31 6q-20 0 -32.5 -8.5t-12.5 -28.5q0 -22 18 -29.5t47 -7.5h135q75 0 123.5 -34t48.5 -107q0 -33 -13.5 -62.5t-44 -51.5t-80 -35t-121.5 -13z
M260 213q47 0 75 26t28 71q0 44 -28 70.5t-74 26.5q-48 0 -75 -26t-27 -71t26.5 -71t74.5 -26zM256 -162q80 0 115 18.5t35 54.5q0 33 -21.5 48t-64.5 15l-107 -1q-87 0 -87 -69q0 -33 29 -49.5t101 -16.5z" />
    <glyph glyph-name="gbreve.sc" horiz-adv-x="552" 
d="M287 578q-39 0 -65.5 12t-42.5 32t-22.5 46.5t-6.5 56.5h83q0 -64 53 -64q54 0 54 64h82q0 -30 -7 -56.5t-22.5 -46.5t-41.5 -32t-64 -12zM293 -13q-124 0 -189 66t-65 194q0 59 17.5 107.5t50.5 83t81 53.5t109 19q94 0 147.5 -39.5t53.5 -111.5q0 -8 -1 -16.5t-3 -16.5
h-104q1 5 1 19q0 32 -24.5 51.5t-69.5 19.5q-68 0 -105 -43t-37 -125q0 -84 36.5 -127t107.5 -43q41 0 67 6t41 16v76h-110v82h209v-206q-11 -10 -30 -21.5t-45.5 -21t-61 -16t-76.5 -6.5z" />
    <glyph glyph-name="gbreve.ss01" horiz-adv-x="513" 
d="M251 563q-39 0 -65.5 12t-42.5 32t-22.5 46.5t-6.5 56.5h83q0 -64 53 -64q54 0 54 64h82q0 -30 -7 -56.5t-22.5 -46.5t-41.5 -32t-64 -12zM249 -240q-121 0 -173 33t-52 95q0 25 8 44.5t19.5 33t24.5 22.5t23 13q-21 11 -40.5 31t-19.5 55q0 38 20 60t47 33
q-15 14 -33 46.5t-18 83.5q0 43 16 77t44 57.5t65.5 36t79.5 12.5q26 0 43 -4t31 -8q13 0 28 4t28 15t21.5 30t8.5 49l95 -20q0 -34 -10.5 -56t-26 -35.5t-34 -19.5t-34.5 -7q21 -17 38 -49.5t17 -81.5q0 -44 -16.5 -78t-44.5 -57.5t-65 -35.5t-78 -12q-28 0 -49 4t-31 6
q-20 0 -32.5 -8.5t-12.5 -28.5q0 -22 18 -29.5t47 -7.5h135q75 0 123.5 -34t48.5 -107q0 -33 -13.5 -62.5t-44 -51.5t-80 -35t-121.5 -13zM260 213q47 0 75 26t28 71q0 44 -28 70.5t-74 26.5q-48 0 -75 -26t-27 -71t26.5 -71t74.5 -26zM256 -162q80 0 115 18.5t35 54.5
q0 33 -21.5 48t-64.5 15l-107 -1q-87 0 -87 -69q0 -33 29 -49.5t101 -16.5z" />
    <glyph glyph-name="gcaron.sc" horiz-adv-x="552" 
d="M139 745h96l51 -103l52 103h95l-89 -181h-116zM293 -13q-124 0 -189 66t-65 194q0 59 17.5 107.5t50.5 83t81 53.5t109 19q94 0 147.5 -39.5t53.5 -111.5q0 -8 -1 -16.5t-3 -16.5h-104q1 5 1 19q0 32 -24.5 51.5t-69.5 19.5q-68 0 -105 -43t-37 -125q0 -84 36.5 -127
t107.5 -43q41 0 67 6t41 16v76h-110v82h209v-206q-11 -10 -30 -21.5t-45.5 -21t-61 -16t-76.5 -6.5z" />
    <glyph glyph-name="gcaron.ss01" horiz-adv-x="513" 
d="M103 730h96l52 -103l51 103h95l-89 -181h-116zM249 -240q-121 0 -173 33t-52 95q0 25 8 44.5t19.5 33t24.5 22.5t23 13q-21 11 -40.5 31t-19.5 55q0 38 20 60t47 33q-15 14 -33 46.5t-18 83.5q0 43 16 77t44 57.5t65.5 36t79.5 12.5q26 0 43 -4t31 -8q13 0 28 4t28 15
t21.5 30t8.5 49l95 -20q0 -34 -10.5 -56t-26 -35.5t-34 -19.5t-34.5 -7q21 -17 38 -49.5t17 -81.5q0 -44 -16.5 -78t-44.5 -57.5t-65 -35.5t-78 -12q-28 0 -49 4t-31 6q-20 0 -32.5 -8.5t-12.5 -28.5q0 -22 18 -29.5t47 -7.5h135q75 0 123.5 -34t48.5 -107
q0 -33 -13.5 -62.5t-44 -51.5t-80 -35t-121.5 -13zM260 213q47 0 75 26t28 71q0 44 -28 70.5t-74 26.5q-48 0 -75 -26t-27 -71t26.5 -71t74.5 -26zM256 -162q80 0 115 18.5t35 54.5q0 33 -21.5 48t-64.5 15l-107 -1q-87 0 -87 -69q0 -33 29 -49.5t101 -16.5z" />
    <glyph glyph-name="gcircumflex.sc" horiz-adv-x="552" 
d="M228 745h116l88 -181h-96l-51 103l-52 -103h-95zM293 -13q-124 0 -189 66t-65 194q0 59 17.5 107.5t50.5 83t81 53.5t109 19q94 0 147.5 -39.5t53.5 -111.5q0 -8 -1 -16.5t-3 -16.5h-104q1 5 1 19q0 32 -24.5 51.5t-69.5 19.5q-68 0 -105 -43t-37 -125q0 -84 36.5 -127
t107.5 -43q41 0 67 6t41 16v76h-110v82h209v-206q-11 -10 -30 -21.5t-45.5 -21t-61 -16t-76.5 -6.5z" />
    <glyph glyph-name="gcircumflex.ss01" horiz-adv-x="513" 
d="M192 730h116l88 -181h-95l-52 103l-51 -103h-95zM249 -240q-121 0 -173 33t-52 95q0 25 8 44.5t19.5 33t24.5 22.5t23 13q-21 11 -40.5 31t-19.5 55q0 38 20 60t47 33q-15 14 -33 46.5t-18 83.5q0 43 16 77t44 57.5t65.5 36t79.5 12.5q26 0 43 -4t31 -8q13 0 28 4t28 15
t21.5 30t8.5 49l95 -20q0 -34 -10.5 -56t-26 -35.5t-34 -19.5t-34.5 -7q21 -17 38 -49.5t17 -81.5q0 -44 -16.5 -78t-44.5 -57.5t-65 -35.5t-78 -12q-28 0 -49 4t-31 6q-20 0 -32.5 -8.5t-12.5 -28.5q0 -22 18 -29.5t47 -7.5h135q75 0 123.5 -34t48.5 -107
q0 -33 -13.5 -62.5t-44 -51.5t-80 -35t-121.5 -13zM260 213q47 0 75 26t28 71q0 44 -28 70.5t-74 26.5q-48 0 -75 -26t-27 -71t26.5 -71t74.5 -26zM256 -162q80 0 115 18.5t35 54.5q0 33 -21.5 48t-64.5 15l-107 -1q-87 0 -87 -69q0 -33 29 -49.5t101 -16.5z" />
    <glyph glyph-name="gdotaccent.sc" horiz-adv-x="552" 
d="M286 584q-29 0 -49.5 20.5t-20.5 50.5q0 29 20.5 49.5t49.5 20.5t50 -20.5t21 -49.5q0 -30 -21 -50.5t-50 -20.5zM293 -13q-124 0 -189 66t-65 194q0 59 17.5 107.5t50.5 83t81 53.5t109 19q94 0 147.5 -39.5t53.5 -111.5q0 -8 -1 -16.5t-3 -16.5h-104q1 5 1 19
q0 32 -24.5 51.5t-69.5 19.5q-68 0 -105 -43t-37 -125q0 -84 36.5 -127t107.5 -43q41 0 67 6t41 16v76h-110v82h209v-206q-11 -10 -30 -21.5t-45.5 -21t-61 -16t-76.5 -6.5z" />
    <glyph glyph-name="gdotaccent.ss01" horiz-adv-x="513" 
d="M251 569q-29 0 -50 20.5t-21 50.5q0 29 21 49.5t50 20.5t49.5 -20.5t20.5 -49.5q0 -30 -20.5 -50.5t-49.5 -20.5zM249 -240q-121 0 -173 33t-52 95q0 25 8 44.5t19.5 33t24.5 22.5t23 13q-21 11 -40.5 31t-19.5 55q0 38 20 60t47 33q-15 14 -33 46.5t-18 83.5q0 43 16 77
t44 57.5t65.5 36t79.5 12.5q26 0 43 -4t31 -8q13 0 28 4t28 15t21.5 30t8.5 49l95 -20q0 -34 -10.5 -56t-26 -35.5t-34 -19.5t-34.5 -7q21 -17 38 -49.5t17 -81.5q0 -44 -16.5 -78t-44.5 -57.5t-65 -35.5t-78 -12q-28 0 -49 4t-31 6q-20 0 -32.5 -8.5t-12.5 -28.5
q0 -22 18 -29.5t47 -7.5h135q75 0 123.5 -34t48.5 -107q0 -33 -13.5 -62.5t-44 -51.5t-80 -35t-121.5 -13zM260 213q47 0 75 26t28 71q0 44 -28 70.5t-74 26.5q-48 0 -75 -26t-27 -71t26.5 -71t74.5 -26zM256 -162q80 0 115 18.5t35 54.5q0 33 -21.5 48t-64.5 15l-107 -1
q-87 0 -87 -69q0 -33 29 -49.5t101 -16.5z" />
    <glyph glyph-name="germandbls.sc" horiz-adv-x="566" 
d="M380 280q44 -6 73 -18.5t46 -30.5t24 -41.5t7 -50.5q0 -72 -50 -110t-136 -38q-50 0 -83 9t-55 28l49 79q20 -13 38 -19t46 -6q38 0 58.5 15t20.5 41q0 23 -18 39.5t-66 22.5q-14 2 -30.5 2.5t-36.5 -0.5l-4 81l110 110q-17 5 -36.5 8t-44.5 3q-51 0 -83.5 -25.5
t-32.5 -73.5v-305h-112l1 313q0 49 17 85t47.5 59.5t72 35t90.5 11.5q60 0 111.5 -14.5t88.5 -43.5v-61z" />
    <glyph glyph-name="grave.case" horiz-adv-x="285" 
d="M36 657h133l83 -144h-97z" />
    <glyph glyph-name="gravecomb.case" 
d="M-249 886h140l83 -144h-104z" />
    <glyph glyph-name="h.sc" horiz-adv-x="580" 
d="M71 497h111v-198h216v198h111v-497h-111v200h-216v-200h-111v497z" />
    <glyph glyph-name="h.ss01" horiz-adv-x="536" 
d="M64 726h110v-300q16 27 49 48t84 21q46 0 78 -15t52.5 -41t30 -60.5t9.5 -73.5v-305h-110v302q0 42 -23 69.5t-68 27.5q-27 0 -46 -10t-31.5 -25.5t-18.5 -34.5t-6 -37v-292h-110v726z" />
    <glyph glyph-name="hbar.sc" horiz-adv-x="612" 
d="M586 352h-61v-352h-111v200h-216v-200h-111v352h-61v78h61v67h111v-67h216v67h111v-67h61v-78zM414 352h-216v-53h216v53z" />
    <glyph glyph-name="hbar.ss01" horiz-adv-x="536" 
d="M307 495q46 0 78 -15t52.5 -41t30 -60.5t9.5 -73.5v-305h-110v302q0 42 -23 69.5t-68 27.5q-27 0 -46 -10t-31.5 -25.5t-18.5 -34.5t-6 -37v-292h-110v562h-74v88h74v76h110v-76h113v-88h-113v-136q16 27 49 48t84 21z" />
    <glyph glyph-name="hcircumflex.sc" horiz-adv-x="580" 
d="M230 683h121l88 -144h-97l-52 73l-52 -73h-96zM71 497h111v-198h216v198h111v-497h-111v200h-216v-200h-111v497z" />
    <glyph glyph-name="hcircumflex.ss01" horiz-adv-x="536" 
d="M58 886h121l88 -144h-97l-53 73l-52 -73h-96zM64 726h110v-300q16 27 49 48t84 21q46 0 78 -15t52.5 -41t30 -60.5t9.5 -73.5v-305h-110v302q0 42 -23 69.5t-68 27.5q-27 0 -46 -10t-31.5 -25.5t-18.5 -34.5t-6 -37v-292h-110v726z" />
    <glyph glyph-name="hungarumlaut.case" horiz-adv-x="433" 
d="M112 667h133l-118 -154h-97zM294 667h133l-119 -154h-96z" />
    <glyph glyph-name="i.loclTRK" horiz-adv-x="241" 
d="M121 569q-29 0 -50 20.5t-21 50.5q0 29 21 49.5t50 20.5t49.5 -20.5t20.5 -49.5q0 -30 -20.5 -50.5t-49.5 -20.5zM66 482h109v-482h-109v482z" />
    <glyph glyph-name="i.loclTRK.ss01" horiz-adv-x="252" 
d="M126 569q-29 0 -49.5 20.5t-20.5 50.5q0 29 20.5 49.5t49.5 20.5t49.5 -20.5t20.5 -49.5q0 -30 -20.5 -50.5t-49.5 -20.5zM170 -4q-55 0 -80 30t-25 84v372h109v-349q0 -28 9.5 -39t34.5 -11v-81q-5 -2 -18 -4t-30 -2z" />
    <glyph glyph-name="i.sc" horiz-adv-x="253" 
d="M71 497h111v-497h-111v497z" />
    <glyph glyph-name="i.sc.loclTRK" horiz-adv-x="253" 
d="M127 584q-29 0 -49.5 20.5t-20.5 50.5q0 29 20.5 49.5t49.5 20.5t49.5 -20.5t20.5 -49.5q0 -30 -20.5 -50.5t-49.5 -20.5zM71 497h111v-497h-111v497z" />
    <glyph glyph-name="i.ss01" horiz-adv-x="252" 
d="M126 569q-29 0 -49.5 20.5t-20.5 50.5q0 29 20.5 49.5t49.5 20.5t49.5 -20.5t20.5 -49.5q0 -30 -20.5 -50.5t-49.5 -20.5zM170 -4q-55 0 -80 30t-25 84v372h109v-349q0 -28 9.5 -39t34.5 -11v-81q-5 -2 -18 -4t-30 -2z" />
    <glyph glyph-name="iacute.sc" horiz-adv-x="253" 
d="M147 747h130l-118 -184h-95zM71 497h111v-497h-111v497z" />
    <glyph glyph-name="iacute.ss01" horiz-adv-x="252" 
d="M145 732h131l-118 -184h-95zM170 -4q-55 0 -80 30t-25 84v372h109v-349q0 -28 9.5 -39t34.5 -11v-81q-5 -2 -18 -4t-30 -2z" />
    <glyph glyph-name="ibreve.sc" horiz-adv-x="253" 
d="M127 578q-39 0 -65 12t-42 32t-22.5 46.5t-6.5 56.5h82q0 -64 54 -64q53 0 53 64h83q0 -30 -7 -56.5t-23 -46.5t-42 -32t-64 -12zM71 497h111v-497h-111v497z" />
    <glyph glyph-name="ibreve.ss01" horiz-adv-x="252" 
d="M126 563q-39 0 -65 12t-42 32t-22.5 46.5t-6.5 56.5h82q0 -64 54 -64q53 0 53 64h83q0 -30 -7 -56.5t-23 -46.5t-42 -32t-64 -12zM170 -4q-55 0 -80 30t-25 84v372h109v-349q0 -28 9.5 -39t34.5 -11v-81q-5 -2 -18 -4t-30 -2z" />
    <glyph glyph-name="icircumflex.sc" horiz-adv-x="253" 
d="M68 745h116l89 -181h-96l-51 103l-52 -103h-95zM71 497h111v-497h-111v497z" />
    <glyph glyph-name="icircumflex.ss01" horiz-adv-x="252" 
d="M67 730h116l89 -181h-96l-51 103l-52 -103h-95zM170 -4q-55 0 -80 30t-25 84v372h109v-349q0 -28 9.5 -39t34.5 -11v-81q-5 -2 -18 -4t-30 -2z" />
    <glyph glyph-name="idieresis.sc" horiz-adv-x="253" 
d="M27 585q-28 0 -47 20t-19 48t19 49t47 21q29 0 48.5 -21t19.5 -49t-19.5 -48t-48.5 -20zM227 585q-29 0 -49 20t-20 48t20 49t49 21t48 -21t19 -49t-19 -48t-48 -20zM71 497h111v-497h-111v497z" />
    <glyph glyph-name="idieresis.ss01" horiz-adv-x="252" 
d="M26 570q-28 0 -47.5 20t-19.5 48t19.5 49t47.5 21q29 0 48.5 -21t19.5 -49t-19.5 -48t-48.5 -20zM226 570q-29 0 -49 20t-20 48t20 49t49 21t48 -21t19 -49t-19 -48t-48 -20zM170 -4q-55 0 -80 30t-25 84v372h109v-349q0 -28 9.5 -39t34.5 -11v-81q-5 -2 -18 -4t-30 -2z
" />
    <glyph glyph-name="igrave.sc" horiz-adv-x="253" 
d="M-41 747h131l82 -184h-94zM71 497h111v-497h-111v497z" />
    <glyph glyph-name="igrave.ss01" horiz-adv-x="252" 
d="M-42 732h131l82 -184h-94zM170 -4q-55 0 -80 30t-25 84v372h109v-349q0 -28 9.5 -39t34.5 -11v-81q-5 -2 -18 -4t-30 -2z" />
    <glyph glyph-name="ij.sc" horiz-adv-x="625" 
d="M71 497h111v-497h-111v497zM379 -13q-54 0 -91.5 17t-57.5 42l67 75q14 -15 32.5 -25.5t45.5 -10.5q37 0 55.5 20t18.5 57v335h110v-335q0 -84 -46 -129.5t-134 -45.5z" />
    <glyph glyph-name="ij.ss01" horiz-adv-x="493" 
d="M126 569q-29 0 -49.5 20.5t-20.5 50.5q0 29 20.5 49.5t49.5 20.5t49.5 -20.5t20.5 -49.5q0 -30 -20.5 -50.5t-49.5 -20.5zM373 569q-29 0 -50 20.5t-21 50.5q0 29 21 49.5t50 20.5t49.5 -20.5t20.5 -49.5q0 -30 -20.5 -50.5t-49.5 -20.5zM170 -4q-55 0 -80 30t-25 84v372
h109v-349q0 -28 9.5 -39t34.5 -11v-81q-5 -2 -18 -4t-30 -2zM251 -247q-25 0 -42.5 4.5t-28.5 10.5q-14 7 -23 15l33 78q6 -4 13 -7q7 -2 15.5 -4t20.5 -2q80 0 80 106v528h109v-533q0 -89 -42 -142.5t-135 -53.5z" />
    <glyph glyph-name="ijacute" horiz-adv-x="493" 
d="M141 732h131l-118 -184h-95zM397 732h131l-118 -184h-96zM170 -4q-55 0 -80 30t-25 84v372h109v-349q0 -28 9.5 -39t34.5 -11v-81q-5 -2 -18 -4t-30 -2zM251 -247q-25 0 -42.5 4.5t-28.5 10.5q-14 7 -23 15l33 78q6 -4 13 -7q7 -2 15.5 -4t20.5 -2q80 0 80 106v528h109
v-533q0 -89 -42 -142.5t-135 -53.5z" />
    <glyph glyph-name="imacron.sc" horiz-adv-x="253" 
d="M-8 694h271v-85h-271v85zM71 497h111v-497h-111v497z" />
    <glyph glyph-name="imacron.ss01" horiz-adv-x="252" 
d="M-9 679h271v-85h-271v85zM170 -4q-55 0 -80 30t-25 84v372h109v-349q0 -28 9.5 -39t34.5 -11v-81q-5 -2 -18 -4t-30 -2z" />
    <glyph glyph-name="iogonek.sc" horiz-adv-x="253" 
d="M210 -163q-13 -13 -34 -20t-46 -7q-51 0 -77 23.5t-26 66.5q0 27 13.5 52.5t37.5 47.5h-7v497h111v-497q-30 -11 -47.5 -33t-17.5 -48q0 -20 9 -29t24 -9q10 0 17 3t12 7z" />
    <glyph glyph-name="iogonek.ss01" horiz-adv-x="252" 
d="M126 569q-29 0 -49.5 20.5t-20.5 50.5q0 29 20.5 49.5t49.5 20.5t49.5 -20.5t20.5 -49.5q0 -30 -20.5 -50.5t-49.5 -20.5zM245 -161q-13 -13 -34 -20t-46 -7q-50 0 -76 23t-26 66q0 29 14.5 55.5t40.5 49.5q-53 24 -53 104v372h109v-349q0 -28 9.5 -39t34.5 -11v-81
q-1 0 -1.5 -0.5t-1.5 -0.5q-29 -11 -46 -33t-17 -48q0 -20 9.5 -28.5t24.5 -8.5q10 0 17 3t12 7z" />
    <glyph glyph-name="itilde.sc" horiz-adv-x="253" 
d="M-20 579q-13 23 -13 54q0 34 22.5 57.5t67.5 23.5q20 0 37.5 -6.5t33 -14t29.5 -14t26 -6.5q25 0 25 22q0 7 -2 13t-4 10h74q13 -22 13 -54q0 -34 -22 -58t-68 -24q-23 0 -41.5 6.5t-33.5 14t-27 14t-22 6.5q-26 0 -26 -22q0 -15 7 -22h-76zM71 497h111v-497h-111v497z
" />
    <glyph glyph-name="itilde.ss01" horiz-adv-x="252" 
d="M-21 564q-13 23 -13 54q0 34 22.5 57.5t67.5 23.5q20 0 37.5 -6.5t33 -14t29 -14t25.5 -6.5q26 0 26 22q0 14 -7 23h75q13 -24 13 -54q0 -34 -22.5 -58t-67.5 -24q-23 0 -41.5 6.5t-33.5 14t-27 14t-22 6.5q-26 0 -26 -22q0 -15 7 -22h-76zM170 -4q-55 0 -80 30t-25 84
v372h109v-349q0 -28 9.5 -39t34.5 -11v-81q-5 -2 -18 -4t-30 -2z" />
    <glyph glyph-name="j.sc" horiz-adv-x="406" 
d="M161 -13q-54 0 -91.5 17t-57.5 42l67 75q14 -15 32.5 -25.5t45.5 -10.5q37 0 55 20t18 57v335h111v-335q0 -84 -46.5 -129.5t-133.5 -45.5z" />
    <glyph glyph-name="jcircumflex.sc" horiz-adv-x="406" 
d="M222 745h116l89 -181h-96l-51 103l-52 -103h-95zM161 -13q-54 0 -91.5 17t-57.5 42l67 75q14 -15 32.5 -25.5t45.5 -10.5q37 0 55 20t18 57v335h111v-335q0 -84 -46.5 -129.5t-133.5 -45.5z" />
    <glyph glyph-name="k.sc" horiz-adv-x="547" 
d="M523 89v-91q-10 -5 -51 -5q-42 0 -68.5 15.5t-43.5 38t-29.5 49.5t-26.5 49.5t-33.5 38t-51.5 15.5h-37v-199h-111v497h111v-204h42q30 0 58 10.5t49 34.5t34 63t13 96h109q1 -93 -33.5 -156.5t-88.5 -98.5q24 -18 38 -44.5t27 -50.5t29.5 -41t44.5 -17h19z" />
    <glyph glyph-name="k.ss01" horiz-adv-x="498" 
d="M399 132q11 -15 19 -24.5t16 -15t16.5 -7t20.5 -1.5h10v-81q-4 -2 -16.5 -4.5t-28.5 -2.5q-22 0 -38.5 4.5t-29.5 13.5t-24 22t-23 30l-100 144l-47 -48v-162h-110v726h110v-436l182 192h131l-195 -199z" />
    <glyph glyph-name="kgreenlandic.sc" horiz-adv-x="547" 
d="M523 89v-91q-10 -5 -51 -5q-42 0 -68.5 15.5t-43.5 38t-29.5 49.5t-26.5 49.5t-33.5 38t-51.5 15.5h-37v-199h-111v497h111v-204h42q30 0 58 10.5t49 34.5t34 63t13 96h109q1 -93 -33.5 -156.5t-88.5 -98.5q24 -18 38 -44.5t27 -50.5t29.5 -41t44.5 -17h19z" />
    <glyph glyph-name="kgreenlandic.ss01" horiz-adv-x="498" 
d="M399 132q11 -15 19 -24.5t16 -15t16.5 -7t20.5 -1.5h10v-81q-4 -2 -16.5 -4.5t-28.5 -2.5q-22 0 -38.5 4.5t-29.5 13.5t-24 22t-23 30l-100 145l-47 -49v-162h-110v482h110v-192l180 192h130l-192 -198z" />
    <glyph glyph-name="l.sc" horiz-adv-x="426" 
d="M71 497h111v-398h223v-99h-334v497z" />
    <glyph glyph-name="lacute.sc" horiz-adv-x="426" 
d="M157 747h131l-119 -184h-95zM71 497h111v-398h223v-99h-334v497z" />
    <glyph glyph-name="lcaron.sc" horiz-adv-x="440" 
d="M283 392q24 8 36.5 22t13.5 28q-26 2 -41.5 19.5t-15.5 43.5q0 27 18.5 45.5t47.5 18.5q31 0 51 -20t20 -55q0 -53 -28.5 -94t-75.5 -55zM71 497h111v-398h223v-99h-334v497z" />
    <glyph glyph-name="ldot.sc" horiz-adv-x="445" 
d="M71 497h111v-398h223v-99h-334v497zM335 235q-29 0 -49 19.5t-20 48.5q0 28 20 48t49 20t48.5 -20t19.5 -48q0 -29 -19.5 -48.5t-48.5 -19.5z" />
    <glyph glyph-name="lslash.sc" horiz-adv-x="456" 
d="M435 99v-99h-334v178l-62 -36l-39 71l101 59v225h111v-160l68 40l42 -71l-110 -64v-143h223z" />
    <glyph glyph-name="m.sc" horiz-adv-x="662" 
d="M71 497h111l152 -308l154 308h103v-497h-104v309l-12 -27l-110 -222h-72l-108 220l-11 26v-306h-103v497z" />
    <glyph glyph-name="m.ss01" horiz-adv-x="847" 
d="M76 357q0 24 -9.5 34.5t-31.5 10.5v82q8 2 21.5 3.5t27.5 1.5q38 0 61.5 -20t26.5 -60v-3q14 34 49.5 61.5t96.5 27.5q60 0 97 -24.5t54 -68.5q15 36 53 64.5t96 28.5q46 0 78 -14.5t52.5 -40t30 -60.5t9.5 -75v-305h-110v298q0 45 -21.5 73t-68.5 28q-48 0 -74 -32.5
t-26 -77.5v-289h-110v298q0 45 -21.5 73t-69.5 28q-26 0 -45.5 -9.5t-32 -25.5t-18.5 -35.5t-6 -40.5v-288h-109v357z" />
    <glyph glyph-name="macron.case" horiz-adv-x="400" 
d="M48 610h304v-80h-304v80z" />
    <glyph glyph-name="n.sc" horiz-adv-x="573" 
d="M71 497h99l213 -300l14 -25v325h105v-497h-99l-216 302l-10 21v-323h-106v497z" />
    <glyph glyph-name="n.ss01" horiz-adv-x="548" 
d="M76 357q0 24 -9.5 34.5t-31.5 10.5v82q8 2 21 3.5t29 1.5q41 0 63 -21t24 -59v-2q18 40 55.5 64t92.5 24q81 0 124.5 -49.5t43.5 -140.5v-305h-110v298q0 48 -23.5 74.5t-66.5 26.5q-46 0 -74.5 -30.5t-28.5 -81.5v-287h-109v357z" />
    <glyph glyph-name="nacute.sc" horiz-adv-x="573" 
d="M311 747h131l-118 -184h-96zM71 497h99l213 -300l14 -25v325h105v-497h-99l-216 302l-10 21v-323h-106v497z" />
    <glyph glyph-name="nacute.ss01" horiz-adv-x="548" 
d="M296 732h130l-118 -184h-95zM76 357q0 24 -9.5 34.5t-31.5 10.5v82q8 2 21 3.5t29 1.5q41 0 63 -21t24 -59v-2q18 40 55.5 64t92.5 24q81 0 124.5 -49.5t43.5 -140.5v-305h-110v298q0 48 -23.5 74.5t-66.5 26.5q-46 0 -74.5 -30.5t-28.5 -81.5v-287h-109v357z" />
    <glyph glyph-name="napostrophe.sc" horiz-adv-x="672" 
d="M31 564q15 5 27 13q11 6 19.5 14t8.5 19q-26 0 -44 18.5t-18 45.5q0 26 18 45t45 19q28 0 49 -18.5t21 -56.5q0 -43 -14.5 -71.5t-32.5 -44.5t-33.5 -22.5t-17.5 -6.5zM170 497h99l213 -300l14 -25v325h105v-497h-99l-216 302l-11 21v-323h-105v497z" />
    <glyph glyph-name="napostrophe.ss01" horiz-adv-x="650" 
d="M21 564q15 5 27 13q11 6 19.5 14t8.5 19q-26 0 -44 18.5t-18 45.5q0 26 18 44.5t45 18.5t48 -18t21 -56q0 -43 -14.5 -71t-32.5 -44.5t-33 -22.5t-16 -6zM178 357q0 24 -9.5 34.5t-31.5 10.5v82q8 2 21 3.5t29 1.5q41 0 63 -21t24 -59v-2q18 40 55.5 64t92.5 24
q81 0 124.5 -49.5t43.5 -140.5v-305h-109v298q0 48 -24 74.5t-67 26.5q-46 0 -74 -30.5t-28 -81.5v-287h-110v357z" />
    <glyph glyph-name="ncaron.sc" horiz-adv-x="573" 
d="M145 745h95l52 -103l51 103h95l-89 -181h-116zM71 497h99l213 -300l14 -25v325h105v-497h-99l-216 302l-10 21v-323h-106v497z" />
    <glyph glyph-name="ncaron.ss01" horiz-adv-x="548" 
d="M129 730h96l51 -103l52 103h95l-90 -181h-115zM76 357q0 24 -9.5 34.5t-31.5 10.5v82q8 2 21 3.5t29 1.5q41 0 63 -21t24 -59v-2q18 40 55.5 64t92.5 24q81 0 124.5 -49.5t43.5 -140.5v-305h-110v298q0 48 -23.5 74.5t-66.5 26.5q-46 0 -74.5 -30.5t-28.5 -81.5v-287
h-109v357z" />
    <glyph glyph-name="nine.dnom" horiz-adv-x="378" 
d="M178 391q77 0 120.5 -50t43.5 -142q0 -100 -45 -154t-123 -54q-46 0 -79 16.5t-50 42.5l54 48q11 -17 29 -27t44 -10q36 0 62 25t30 90q-23 -22 -50 -30t-53 -8q-63 0 -96 33t-33 87q0 30 11 55t30.5 42t46.5 26.5t58 9.5zM106 261q0 -27 18 -42t50 -15q29 0 50.5 10.5
t36.5 26.5q-8 46 -31.5 64t-54.5 18q-35 0 -52 -17.5t-17 -44.5z" />
    <glyph glyph-name="nine.numr" horiz-adv-x="378" 
d="M178 712q77 0 120.5 -50t43.5 -142q0 -101 -45 -154.5t-123 -53.5q-46 0 -79 16.5t-50 42.5l54 48q11 -17 29 -27t44 -10q36 0 62 25t30 89q-23 -21 -50 -29t-53 -8q-63 0 -96 33t-33 87q0 30 11 55t30.5 42t46.5 26.5t58 9.5zM106 582q0 -27 18 -42t50 -15
q29 0 50.5 10.5t36.5 25.5q-8 47 -31.5 64.5t-54.5 17.5q-35 0 -52 -17.5t-17 -43.5z" />
    <glyph glyph-name="nine.osf" horiz-adv-x="567" 
d="M272 500q128 0 192 -90t64 -253q0 -93 -18.5 -162.5t-53 -115t-83 -68.5t-108.5 -23q-78 0 -129.5 26.5t-81.5 78.5l78 63q26 -41 56 -57t79 -16q32 0 59.5 13.5t48 43.5t33 78.5t13.5 118.5q-36 -45 -82.5 -63.5t-97.5 -18.5q-44 0 -81.5 14t-64.5 41t-42 67t-15 92
q0 51 16 93t46.5 73t74 48t97.5 17zM266 150q48 0 87 24.5t63 57.5q-13 94 -53 134.5t-94 40.5q-56 0 -89.5 -35t-33.5 -97q0 -59 29 -92t91 -33z" />
    <glyph glyph-name="nine.sc" horiz-adv-x="505" 
d="M239 510q113 0 169.5 -67t56.5 -190q0 -128 -61.5 -197t-171.5 -69q-69 0 -114 22t-70 61l72 60q23 -32 48 -44t65 -12q27 0 49.5 8.5t39.5 27.5t27.5 50.5t11.5 77.5q-58 -55 -150 -55q-76 0 -125.5 38t-49.5 113q0 38 13.5 70t39.5 55.5t63.5 37t86.5 13.5zM139 339
q0 -34 22.5 -54t73.5 -20q38 0 68 12.5t53 34.5q-12 59 -45 84t-75 25q-45 0 -71 -22t-26 -60z" />
    <glyph glyph-name="nine.sinf" horiz-adv-x="378" 
d="M178 257q77 0 120.5 -50t43.5 -142q0 -101 -45 -154.5t-123 -53.5q-46 0 -79 16.5t-50 42.5l54 48q11 -17 29 -27t44 -10q36 0 62 24.5t30 89.5q-23 -21 -50 -29t-53 -8q-63 0 -96 33t-33 87q0 30 11 55t30.5 42t46.5 26.5t58 9.5zM106 127q0 -27 18 -42t50 -15
q29 0 50.5 10.5t36.5 25.5q-8 47 -31.5 64.5t-54.5 17.5q-35 0 -52 -17.5t-17 -43.5z" />
    <glyph glyph-name="nine.sups" horiz-adv-x="378" 
d="M178 777q77 0 120.5 -50t43.5 -142q0 -101 -45 -154.5t-123 -53.5q-46 0 -79 16.5t-50 42.5l54 48q11 -17 29 -27t44 -10q36 0 62 25t30 89q-23 -21 -50 -29t-53 -8q-63 0 -96 33t-33 87q0 30 11 55t30.5 42t46.5 26.5t58 9.5zM106 647q0 -27 18 -42t50 -15
q29 0 50.5 10.5t36.5 25.5q-8 47 -31.5 64.5t-54.5 17.5q-35 0 -52 -17.5t-17 -43.5z" />
    <glyph glyph-name="ntilde.sc" horiz-adv-x="573" 
d="M145 579q-13 23 -13 54q0 34 22.5 57.5t67.5 23.5q20 0 37.5 -6.5t32.5 -14t29 -14t26 -6.5q26 0 26 22q0 14 -7 23h75q13 -24 13 -54q0 -34 -22.5 -58t-67.5 -24q-23 0 -41.5 6.5t-33.5 14t-27 14t-22 6.5q-26 0 -26 -22q0 -14 6 -22h-75zM71 497h99l213 -300l14 -25
v325h105v-497h-99l-216 302l-10 21v-323h-106v497z" />
    <glyph glyph-name="ntilde.ss01" horiz-adv-x="548" 
d="M129 564q-13 23 -13 54q0 34 22.5 57.5t68.5 23.5q20 0 37 -6.5t32.5 -14t29.5 -14t26 -6.5q25 0 25 22q0 7 -2 13t-4 10h75q12 -22 12 -54q0 -34 -22 -58t-67 -24q-23 0 -41.5 6.5t-33.5 14t-27 14t-23 6.5q-25 0 -25 -22q0 -14 6 -22h-76zM76 357q0 24 -9.5 34.5
t-31.5 10.5v82q8 2 21 3.5t29 1.5q41 0 63 -21t24 -59v-2q18 40 55.5 64t92.5 24q81 0 124.5 -49.5t43.5 -140.5v-305h-110v298q0 48 -23.5 74.5t-66.5 26.5q-46 0 -74.5 -30.5t-28.5 -81.5v-287h-109v357z" />
    <glyph glyph-name="o.sc" horiz-adv-x="590" 
d="M294 -13q-52 0 -98.5 16t-81.5 48t-55.5 81t-20.5 116q0 65 20.5 114t56 82t82.5 49.5t100 16.5q52 0 98 -16t81 -48.5t55.5 -81.5t20.5 -116q0 -64 -20.5 -113t-56 -82t-82 -49.5t-99.5 -16.5zM294 78q29 0 54.5 9t45 29.5t31 52.5t11.5 78q0 45 -11.5 77.5t-30.5 52.5
t-44.5 29.5t-52.5 9.5q-28 0 -54 -9.5t-46 -29.5t-31.5 -52.5t-11.5 -77.5q0 -46 11.5 -78t31 -52t45 -29.5t52.5 -9.5z" />
    <glyph glyph-name="oacute.sc" horiz-adv-x="590" 
d="M315 736h130l-118 -184h-95zM294 -13q-52 0 -98.5 16t-81.5 48t-55.5 81t-20.5 116q0 65 20.5 114t56 82t82.5 49.5t100 16.5q52 0 98 -16t81 -48.5t55.5 -81.5t20.5 -116q0 -64 -20.5 -113t-56 -82t-82 -49.5t-99.5 -16.5zM294 78q29 0 54.5 9t45 29.5t31 52.5t11.5 78
q0 45 -11.5 77.5t-30.5 52.5t-44.5 29.5t-52.5 9.5q-28 0 -54 -9.5t-46 -29.5t-31.5 -52.5t-11.5 -77.5q0 -46 11.5 -78t31 -52t45 -29.5t52.5 -9.5z" />
    <glyph glyph-name="obreve.sc" horiz-adv-x="590" 
d="M295 567q-39 0 -65 12t-42 32t-22.5 46.5t-6.5 56.5h82q0 -64 54 -64q53 0 53 64h83q0 -30 -7 -56.5t-23 -46.5t-42 -32t-64 -12zM294 -13q-52 0 -98.5 16t-81.5 48t-55.5 81t-20.5 116q0 65 20.5 114t56 82t82.5 49.5t100 16.5q52 0 98 -16t81 -48.5t55.5 -81.5
t20.5 -116q0 -64 -20.5 -113t-56 -82t-82 -49.5t-99.5 -16.5zM294 78q29 0 54.5 9t45 29.5t31 52.5t11.5 78q0 45 -11.5 77.5t-30.5 52.5t-44.5 29.5t-52.5 9.5q-28 0 -54 -9.5t-46 -29.5t-31.5 -52.5t-11.5 -77.5q0 -46 11.5 -78t31 -52t45 -29.5t52.5 -9.5z" />
    <glyph glyph-name="ocircumflex.sc" horiz-adv-x="590" 
d="M236 734h116l89 -181h-96l-51 103l-52 -103h-95zM294 -13q-52 0 -98.5 16t-81.5 48t-55.5 81t-20.5 116q0 65 20.5 114t56 82t82.5 49.5t100 16.5q52 0 98 -16t81 -48.5t55.5 -81.5t20.5 -116q0 -64 -20.5 -113t-56 -82t-82 -49.5t-99.5 -16.5zM294 78q29 0 54.5 9
t45 29.5t31 52.5t11.5 78q0 45 -11.5 77.5t-30.5 52.5t-44.5 29.5t-52.5 9.5q-28 0 -54 -9.5t-46 -29.5t-31.5 -52.5t-11.5 -77.5q0 -46 11.5 -78t31 -52t45 -29.5t52.5 -9.5z" />
    <glyph glyph-name="odieresis.sc" horiz-adv-x="590" 
d="M195 574q-28 0 -47 20t-19 48t19 49t47 21q29 0 48.5 -21t19.5 -49t-19.5 -48t-48.5 -20zM395 574q-29 0 -49 20t-20 48t20 49t49 21t48 -21t19 -49t-19 -48t-48 -20zM294 -13q-52 0 -98.5 16t-81.5 48t-55.5 81t-20.5 116q0 65 20.5 114t56 82t82.5 49.5t100 16.5
q52 0 98 -16t81 -48.5t55.5 -81.5t20.5 -116q0 -64 -20.5 -113t-56 -82t-82 -49.5t-99.5 -16.5zM294 78q29 0 54.5 9t45 29.5t31 52.5t11.5 78q0 45 -11.5 77.5t-30.5 52.5t-44.5 29.5t-52.5 9.5q-28 0 -54 -9.5t-46 -29.5t-31.5 -52.5t-11.5 -77.5q0 -46 11.5 -78t31 -52
t45 -29.5t52.5 -9.5z" />
    <glyph glyph-name="oe.sc" horiz-adv-x="848" 
d="M805 92v-92h-362v28q-64 -41 -149 -41q-52 0 -98.5 16t-81.5 48t-55.5 81t-20.5 116q0 65 20.5 114t56 82t82.5 49.5t100 16.5q83 0 146 -39v26h361v-92h-250v-108h215v-91h-215v-114h251zM294 78q29 0 54.5 9t45 29.5t31 52.5t11.5 78q0 45 -11.5 77.5t-30.5 52.5
t-44.5 29.5t-52.5 9.5q-28 0 -54 -9.5t-46 -29.5t-31.5 -52.5t-11.5 -77.5q0 -46 11.5 -78t31 -52t45 -29.5t52.5 -9.5z" />
    <glyph glyph-name="ograve.sc" horiz-adv-x="590" 
d="M127 736h131l82 -184h-94zM294 -13q-52 0 -98.5 16t-81.5 48t-55.5 81t-20.5 116q0 65 20.5 114t56 82t82.5 49.5t100 16.5q52 0 98 -16t81 -48.5t55.5 -81.5t20.5 -116q0 -64 -20.5 -113t-56 -82t-82 -49.5t-99.5 -16.5zM294 78q29 0 54.5 9t45 29.5t31 52.5t11.5 78
q0 45 -11.5 77.5t-30.5 52.5t-44.5 29.5t-52.5 9.5q-28 0 -54 -9.5t-46 -29.5t-31.5 -52.5t-11.5 -77.5q0 -46 11.5 -78t31 -52t45 -29.5t52.5 -9.5z" />
    <glyph glyph-name="ohungarumlaut.sc" horiz-adv-x="590" 
d="M212 736h124l-106 -184h-88zM394 736h124l-106 -184h-88zM294 -13q-52 0 -98.5 16t-81.5 48t-55.5 81t-20.5 116q0 65 20.5 114t56 82t82.5 49.5t100 16.5q52 0 98 -16t81 -48.5t55.5 -81.5t20.5 -116q0 -64 -20.5 -113t-56 -82t-82 -49.5t-99.5 -16.5zM294 78
q29 0 54.5 9t45 29.5t31 52.5t11.5 78q0 45 -11.5 77.5t-30.5 52.5t-44.5 29.5t-52.5 9.5q-28 0 -54 -9.5t-46 -29.5t-31.5 -52.5t-11.5 -77.5q0 -46 11.5 -78t31 -52t45 -29.5t52.5 -9.5z" />
    <glyph glyph-name="omacron.sc" horiz-adv-x="590" 
d="M160 683h271v-85h-271v85zM294 -13q-52 0 -98.5 16t-81.5 48t-55.5 81t-20.5 116q0 65 20.5 114t56 82t82.5 49.5t100 16.5q52 0 98 -16t81 -48.5t55.5 -81.5t20.5 -116q0 -64 -20.5 -113t-56 -82t-82 -49.5t-99.5 -16.5zM294 78q29 0 54.5 9t45 29.5t31 52.5t11.5 78
q0 45 -11.5 77.5t-30.5 52.5t-44.5 29.5t-52.5 9.5q-28 0 -54 -9.5t-46 -29.5t-31.5 -52.5t-11.5 -77.5q0 -46 11.5 -78t31 -52t45 -29.5t52.5 -9.5z" />
    <glyph glyph-name="one.dnom" horiz-adv-x="257" 
d="M120 267q-9 -12 -33 -24t-60 -12l-4 74q43 0 67.5 22.5t29.5 54.5h80v-382h-80v267z" />
    <glyph glyph-name="one.numr" horiz-adv-x="257" 
d="M120 585q-9 -12 -33 -24t-60 -12l-4 75q43 0 67.5 22.5t29.5 54.5h80v-382h-80v266z" />
    <glyph glyph-name="one.osf" horiz-adv-x="331" 
d="M160 353q-16 -15 -46.5 -25.5t-87.5 -10.5l-2 98q68 0 102 24.5t34 57.5h102v-497h-102v353z" />
    <glyph glyph-name="one.sc" horiz-adv-x="334" 
d="M160 350q-16 -15 -46.5 -25t-87.5 -10l-2 100q69 0 102.5 24.5t33.5 57.5h105v-497h-105v350z" />
    <glyph glyph-name="one.sinf" horiz-adv-x="257" 
d="M120 130q-9 -12 -33 -24t-60 -12l-4 74q43 0 67.5 22.5t29.5 54.5h80v-382h-80v267z" />
    <glyph glyph-name="one.sups" horiz-adv-x="257" 
d="M120 650q-9 -12 -33 -24t-60 -12l-4 75q43 0 67.5 22.5t29.5 54.5h80v-382h-80v266z" />
    <glyph glyph-name="oneeighth.alt" horiz-adv-x="607" 
d="M119 511q-6 -11 -26 -20.5t-50 -10.5l-10 65q35 4 58.5 23.5t27.5 41.5h73v-273h-73v174zM438 600h84l-366 -501h-87zM452 75q-56 0 -86.5 18.5t-30.5 55.5q0 19 11.5 38t37.5 28q-36 20 -36 63q0 34 28 54.5t75 20.5q51 0 78 -20t27 -52q0 -22 -10.5 -36.5t-24.5 -20.5
q25 -8 36 -26.5t11 -41.5q0 -38 -31 -59.5t-85 -21.5zM471 241q8 4 12.5 13t4.5 18q0 15 -10 22t-26 7t-26 -6.5t-10 -18.5q0 -19 20 -25zM452 124q48 0 48 31q0 13 -7 19.5t-21 10.5l-38 8q-14 -5 -22.5 -15t-8.5 -21q0 -33 49 -33z" />
    <glyph glyph-name="onehalf.alt" horiz-adv-x="631" 
d="M122 511q-6 -11 -25.5 -20.5t-50.5 -10.5l-10 65q35 4 58.5 23.5t27.5 41.5h73v-273h-73v174zM461 599h91l-396 -501h-91zM377 101q0 36 20.5 57.5t45.5 37t45.5 30t20.5 37.5q0 31 -34 31q-21 0 -28.5 -11t-7.5 -22h-63q0 16 5 33t17 31t31.5 23t48.5 9q48 0 74 -23.5
t26 -69.5q0 -31 -16.5 -51.5t-36 -34t-36.5 -21.5t-17 -16v-2h111v-58h-206v20z" />
    <glyph glyph-name="onequarter.alt" horiz-adv-x="614" 
d="M119 511q-6 -11 -25.5 -20.5t-50.5 -10.5l-10 65q35 4 58.5 23.5t27.5 41.5h73v-273h-73v174zM440 600h86l-369 -501h-86zM473 153h-131v48l83 170h74l-78 -158h58v56h66v-56h36v-60h-36v-55h-72v55z" />
    <glyph glyph-name="oslash.sc" horiz-adv-x="590" 
d="M472 450q37 -32 58.5 -82.5t21.5 -119.5q0 -64 -20.5 -113t-56 -82t-82 -49.5t-99.5 -16.5q-61 0 -112 21l-21 -32h-84l45 68q-38 32 -61 82.5t-23 121.5q0 65 20.5 114t56 82t82.5 49.5t100 16.5q62 0 116 -23l15 23h83zM154 247q0 -36 7.5 -64t20.5 -48l176 268
q-27 13 -61 13q-28 0 -54 -9.5t-46 -29.5t-31.5 -52.5t-11.5 -77.5zM294 78q29 0 54.5 9t45 29.5t31 52.5t11.5 78q0 35 -7 62t-19 47l-175 -266q29 -12 59 -12z" />
    <glyph glyph-name="oslashacute.sc" horiz-adv-x="590" 
d="M327 548h-95l83 184h130zM472 450q37 -32 58.5 -82.5t21.5 -119.5q0 -64 -20.5 -113t-56 -82t-82 -49.5t-99.5 -16.5q-61 0 -112 21l-21 -32h-84l45 68q-38 32 -61 82.5t-23 121.5q0 65 20.5 114t56 82t82.5 49.5t100 16.5q62 0 116 -23l15 23h83zM154 247q0 -36 7.5 -64
t20.5 -48l176 268q-27 13 -61 13q-28 0 -54 -9.5t-46 -29.5t-31.5 -52.5t-11.5 -77.5zM294 78q29 0 54.5 9t45 29.5t31 52.5t11.5 78q0 35 -7 62t-19 47l-175 -266q29 -12 59 -12z" />
    <glyph glyph-name="otilde.sc" horiz-adv-x="590" 
d="M148 567q-13 24 -13 55q0 34 22.5 57.5t67.5 23.5q20 0 37.5 -6.5t33 -14t29 -14t25.5 -6.5q26 0 26 22q0 13 -7 22h75q13 -23 13 -53q0 -34 -22 -58t-68 -24q-23 0 -41.5 6.5t-33.5 14t-27 14t-22 6.5q-26 0 -26 -23q0 -13 7 -22h-76zM294 -13q-52 0 -98.5 16t-81.5 48
t-55.5 81t-20.5 116q0 65 20.5 114t56 82t82.5 49.5t100 16.5q52 0 98 -16t81 -48.5t55.5 -81.5t20.5 -116q0 -64 -20.5 -113t-56 -82t-82 -49.5t-99.5 -16.5zM294 78q29 0 54.5 9t45 29.5t31 52.5t11.5 78q0 45 -11.5 77.5t-30.5 52.5t-44.5 29.5t-52.5 9.5q-28 0 -54 -9.5
t-46 -29.5t-31.5 -52.5t-11.5 -77.5q0 -46 11.5 -78t31 -52t45 -29.5t52.5 -9.5z" />
    <glyph glyph-name="p.sc" horiz-adv-x="505" 
d="M71 497h191q103 0 158.5 -41t55.5 -130q0 -43 -16.5 -75.5t-45 -53.5t-67 -31.5t-82.5 -10.5h-82v-155h-112v497zM259 244q103 0 103 81q0 37 -25 59.5t-82 22.5h-72v-163h76z" />
    <glyph glyph-name="parenleft.sc" horiz-adv-x="274" 
d="M164 -110q-18 20 -39.5 53.5t-40 78t-31 98.5t-12.5 114q0 63 12.5 119.5t31 103t40 82t39.5 56.5l82 -39q-12 -18 -29.5 -49t-33.5 -73t-27.5 -92.5t-11.5 -107.5q0 -55 11.5 -103t27.5 -87.5t33.5 -69t29.5 -46.5z" />
    <glyph glyph-name="parenright.sc" horiz-adv-x="275" 
d="M29 -74q12 17 29.5 47.5t33.5 70.5t27 88t11 100q0 54 -11 104.5t-27 93t-33.5 74.5t-29.5 50l82 39q18 -21 39.5 -58t40 -84t31 -103t12.5 -116q0 -58 -12.5 -111.5t-31 -98.5t-40 -80t-39.5 -54z" />
    <glyph glyph-name="q.sc" horiz-adv-x="590" 
d="M552 248q0 -54 -15 -97.5t-41 -75.5t-61.5 -52.5t-77.5 -29.5q8 -48 30 -66t60 -25l-25 -85q-79 7 -119 53.5t-48 118.5q-45 6 -85 24.5t-69 50.5t-46 78t-17 106q0 65 20.5 114t56 82t82.5 49.5t100 16.5q52 0 98 -16t81 -48.5t55.5 -81.5t20.5 -116zM294 78
q29 0 54.5 9t45 29.5t31 52.5t11.5 78q0 45 -11.5 77.5t-30.5 52.5t-44.5 29.5t-52.5 9.5q-28 0 -54 -9.5t-46 -29.5t-31.5 -52.5t-11.5 -77.5q0 -46 11.5 -78t31 -52t45 -29.5t52.5 -9.5z" />
    </font>
</defs>
</svg>
