<?xml version="1.0" standalone="no"?>
<!DOCTYPE svg PUBLIC "-//W3C//DTD SVG 1.1//EN" "http://www.w3.org/Graphics/SVG/1.1/DTD/svg11.dtd" >
<svg xmlns="http://www.w3.org/2000/svg" xmlns:xlink="http://www.w3.org/1999/xlink" version="1.1">
<metadata>
Created by FontForge 20170731 at Wed Jul  3 11:38:17 2019
 By Aleksey,,,
Copyright (c) 2017 by Daniel Hernandez. All rights reserved.
</metadata>
<defs>
<font id="AndesNeueAlt2-Lightit" horiz-adv-x="0" >
  <font-face 
    font-family="AndesNeue Alt 2 Light it"
    font-weight="300"
    font-style="italic"
    font-stretch="normal"
    units-per-em="1000"
    panose-1="0 0 4 0 0 0 0 0 0 0"
    ascent="750"
    descent="-250"
    x-height="482"
    cap-height="700"
    bbox="-598 -254 1393 963"
    underline-thickness="50"
    underline-position="-150"
    slope="-6"
    unicode-range="U+000D-FB02"
  />
<missing-glyph horiz-adv-x="530" 
d="M480 730v-730h-430v730h430zM265 408l150 287h-300zM90 657v-584l153 292zM440 73v584l-152 -292zM115 35h300l-150 287z" />
    <glyph glyph-name="fi" unicode="fi" horiz-adv-x="465" 
d="M374 98q-3 -26 4.5 -38.5t30.5 -12.5l-6 -46q-3 -2 -11 -2.5t-17 -0.5q-38 0 -54.5 23t-11.5 67l36 342h-173l-45 -430h-63l45 430h-67l6 52h67l8 84q8 81 49.5 121.5t109.5 40.5q45 0 71 -21l-26 -46q-8 6 -20.5 10t-27.5 4q-38 0 -62 -24t-29 -75l-10 -94h236zM404 685
q21 0 32.5 -13t11.5 -30q0 -22 -13.5 -37.5t-38.5 -15.5q-20 0 -31.5 12.5t-11.5 31.5q0 21 13.5 36.5t37.5 15.5z" />
    <glyph glyph-name="fl" unicode="fl" horiz-adv-x="467" 
d="M374 95q-3 -28 5 -37t31 -9l-5 -49q-5 -2 -13.5 -2.5t-16.5 -0.5q-37 0 -53.5 21t-11.5 66l36 346h-174l-46 -430h-62l45 430h-66l5 52h67l8 81q10 88 53.5 126.5t103.5 38.5q26 0 46 -7t34 -19l-28 -45q-10 8 -22.5 13t-32.5 5q-37 0 -60.5 -24t-28.5 -71l-10 -98h174
l25 244h63z" />
    <glyph glyph-name=".notdef" horiz-adv-x="530" 
d="M480 730v-730h-430v730h430zM265 408l150 287h-300zM90 657v-584l153 292zM440 73v584l-152 -292zM115 35h300l-150 287z" />
    <glyph glyph-name=".null" 
 />
    <glyph glyph-name=".null" 
 />
    <glyph glyph-name="nonmarkingreturn" unicode="&#xd;" horiz-adv-x="250" 
 />
    <glyph glyph-name="space" unicode=" " horiz-adv-x="211" 
 />
    <glyph glyph-name="exclam" unicode="!" horiz-adv-x="225" 
d="M127 700h71l-61 -504h-55zM88 -6q-20 0 -32 11.5t-12 31.5q0 21 13 36t36 15q20 0 32 -12t12 -32q0 -21 -13 -35.5t-36 -14.5z" />
    <glyph glyph-name="quotedbl" unicode="&#x22;" horiz-adv-x="262" 
d="M102 734h56l-20 -160h-50zM209 734h55l-20 -160h-49z" />
    <glyph glyph-name="numbersign" unicode="#" horiz-adv-x="564" 
d="M132 149h-110l13 39h110l46 150h-104l14 40h103l36 113h48l-35 -113h136l36 113h49l-36 -113h111l-13 -40h-111l-48 -150h106l-13 -39h-106l-32 -106h-48l33 106h-137l-33 -106h-48zM330 188l46 150h-136l-48 -150h138z" />
    <glyph glyph-name="dollar" unicode="$" horiz-adv-x="543" 
d="M452 486q9 36 4.5 62t-19.5 43.5t-37.5 27t-49.5 13.5l-27 -253q34 -8 66.5 -20t58 -31.5t41 -50t15.5 -75.5q0 -90 -56.5 -139t-163.5 -54l-12 -121h-55l12 120q-76 2 -131 31.5t-78 85.5l53 38q25 -55 69.5 -76t94.5 -23l27 264q-34 8 -67 18.5t-59.5 30t-42.5 50
t-16 77.5q0 41 16.5 75t46 58.5t70.5 38t89 13.5l12 113h55l-12 -107h1l-1 -7q33 -3 67 -14.5t59 -35t35 -60.5t-4 -91zM145 507q0 -28 8.5 -46.5t25 -31.5t39.5 -21.5t53 -16.5l26 243q-70 -4 -111 -35.5t-41 -91.5zM439 194q0 27 -9.5 47t-26 34.5t-38.5 24t-48 16.5
l-27 -252q67 5 108 36t41 94z" />
    <glyph glyph-name="percent" unicode="%" horiz-adv-x="576" 
d="M149 422q-44 0 -67 29.5t-23 87.5q0 81 32 123t87 42q45 0 69 -29.5t24 -87.5q0 -82 -32.5 -123.5t-89.5 -41.5zM413 700h48l-275 -700h-50zM153 461q39 0 56 35.5t17 88.5q0 36 -12.5 57t-39.5 21q-40 0 -55.5 -35t-15.5 -88q0 -36 12 -57.5t38 -21.5zM421 -4
q-44 0 -67.5 29.5t-23.5 87.5q0 82 32 123.5t88 41.5q45 0 68.5 -29.5t23.5 -87.5q0 -82 -32.5 -123.5t-88.5 -41.5zM424 35q39 0 56 35.5t17 88.5q0 36 -12.5 57t-38.5 21q-40 0 -56 -34.5t-16 -87.5q0 -36 12 -58t38 -22z" />
    <glyph glyph-name="ampersand" unicode="&#x26;" horiz-adv-x="658" 
d="M597 -10q-35 8 -69 23.5t-66 36.5q-81 -66 -196 -66q-49 0 -90.5 13t-70.5 38t-45.5 61.5t-16.5 82.5q0 37 10.5 71.5t29.5 64t44 53t54 37.5q-19 57 -19 116q0 49 15.5 88.5t44 67t68 42t86.5 14.5q78 0 121 -39t43 -105q0 -29 -8.5 -61t-19.5 -52h-63q10 21 17 49.5
t7 51.5q0 47 -27.5 73t-74.5 26q-66 0 -105 -37.5t-39 -112.5q0 -60 23.5 -121.5t71.5 -124.5q18 -23 55 -65t85 -82q49 71 62 192h66q-8 -71 -29 -127.5t-54 -99.5q26 -18 53.5 -31.5t55.5 -20.5zM279 41q80 0 137 43q-41 33 -76.5 71.5t-65.5 78.5q-49 64 -75 125
q-48 -36 -68.5 -76.5t-20.5 -91.5q0 -37 13 -65t35.5 -47t53.5 -28.5t67 -9.5z" />
    <glyph glyph-name="quotesingle" unicode="'" horiz-adv-x="156" 
d="M102 734h56l-20 -160h-50z" />
    <glyph glyph-name="parenleft" unicode="(" horiz-adv-x="249" 
d="M136 -244q-15 27 -32 67t-31.5 91t-23.5 112t-9 131q0 101 19 187.5t48 157.5t64 127t67 97l43 -31q-24 -33 -55 -84t-58.5 -118.5t-46.5 -151t-19 -181.5q0 -67 8.5 -125t21.5 -105.5t27.5 -83.5t26.5 -59z" />
    <glyph glyph-name="parenright" unicode=")" horiz-adv-x="259" 
d="M123 726q15 -27 32 -67t31.5 -91t23.5 -112t9 -131q0 -101 -19 -187.5t-48 -157.5t-64 -127t-67 -97l-44 31q24 33 55.5 84t59 118.5t46.5 151t19 181.5q0 67 -9 125t-21.5 105.5t-27 83.5t-26.5 59z" />
    <glyph glyph-name="asterisk" unicode="*" horiz-adv-x="399" 
d="M227 562l-87 -108l-35 32l100 103l-127 20l12 49l122 -35l-41 122l47 13l30 -128l90 113l34 -31l-100 -106l130 -20l-10 -47l-128 32l42 -123l-47 -13z" />
    <glyph glyph-name="plus" unicode="+" horiz-adv-x="408" 
d="M176 236h-141l5 50h142l16 156h52l-16 -156h144l-6 -50h-144l-17 -163h-52z" />
    <glyph glyph-name="comma" unicode="," horiz-adv-x="190" 
d="M16 -72q20 10 34 26t17 40q-42 5 -42 46q0 22 14 35t34 13q23 0 35.5 -15t12.5 -41q0 -25 -8 -47t-21 -40t-28.5 -30.5t-30.5 -18.5z" />
    <glyph glyph-name="hyphen" unicode="-" horiz-adv-x="370" 
d="M66 298h250l-5 -51h-250z" />
    <glyph glyph-name="period" unicode="." horiz-adv-x="187" 
d="M71 -6q-20 0 -32 11.5t-12 31.5q0 21 13 36t36 15q19 0 31 -12t12 -32q0 -21 -12.5 -35.5t-35.5 -14.5z" />
    <glyph glyph-name="slash" unicode="/" horiz-adv-x="375" 
d="M341 706h61l-367 -931h-63z" />
    <glyph glyph-name="zero" unicode="0" horiz-adv-x="582" 
d="M264 -6q-106 0 -156.5 73t-50.5 209q0 99 17 178.5t52 135.5t88 86t125 30q106 0 157.5 -74.5t51.5 -211.5q0 -97 -17 -176t-52 -134.5t-88.5 -85.5t-126.5 -30zM270 51q56 0 96 25.5t65.5 73.5t37 116.5t11.5 153.5q0 113 -35.5 171t-111.5 58q-55 0 -94 -26t-64.5 -74
t-37.5 -116.5t-12 -154.5q0 -113 35 -170t110 -57z" />
    <glyph glyph-name="one" unicode="1" horiz-adv-x="426" 
d="M254 582q-26 -29 -67 -48.5t-98 -19.5l7 59q39 0 69.5 11t51.5 29t33.5 41t15.5 46h64l-74 -700h-64z" />
    <glyph glyph-name="two" unicode="2" horiz-adv-x="524" 
d="M21 27q7 66 40 111t78.5 80t96.5 64t94.5 61.5t72 74t28.5 101.5q0 61 -35 95.5t-99 34.5q-39 0 -67.5 -13t-48 -33t-30 -43.5t-14.5 -44.5h-64q5 31 20 65t42.5 62t68.5 46t98 18q96 0 145.5 -49t49.5 -135q0 -68 -28.5 -117t-71.5 -87t-93.5 -67t-95 -57t-76 -58
t-36.5 -69l-2 -11h374l-6 -56h-444z" />
    <glyph glyph-name="three" unicode="3" horiz-adv-x="527" 
d="M234 -6q-88 0 -142 34t-73 98l60 25q12 -45 54 -72t105 -27q86 0 129 40.5t43 109.5q0 55 -38.5 92t-124.5 37h-35l6 51h38q76 0 121.5 39.5t45.5 108.5q0 60 -34.5 89.5t-91.5 29.5t-101 -30t-58 -104h-63q17 94 75.5 142.5t152.5 48.5q86 0 136 -44t50 -125
q0 -35 -10 -63.5t-26.5 -50.5t-39 -36.5t-46.5 -22.5q109 -36 109 -160q0 -97 -63 -153.5t-179 -56.5z" />
    <glyph glyph-name="four" unicode="4" horiz-adv-x="524" 
d="M336 165h-322l6 56l291 479h67l-289 -479h252l19 174h65l-19 -174h96l-6 -56h-95l-17 -165h-65z" />
    <glyph glyph-name="five" unicode="5" horiz-adv-x="534" 
d="M240 -6q-78 0 -133.5 32t-76.5 91l59 33q19 -49 60 -74t100 -25q83 0 130.5 50t47.5 139q0 74 -38 111t-102 37q-48 0 -85 -15t-61 -40h-62l39 367h395l-6 -60h-334l-26 -247q26 25 66 39.5t89 14.5q90 0 142 -50.5t52 -146.5q0 -59 -18 -106.5t-51 -80.5t-80.5 -51
t-106.5 -18z" />
    <glyph glyph-name="six" unicode="6" horiz-adv-x="560" 
d="M328 415q88 0 139 -45.5t51 -136.5q0 -53 -17 -97t-47.5 -75.5t-73 -49t-93.5 -17.5q-109 0 -170 72.5t-61 206.5q0 107 22.5 188t62 135.5t94.5 82t120 27.5q81 0 126 -36.5t45 -102.5q0 -20 -4 -37t-9 -32h-61q5 17 7 28.5t2 23.5q0 48 -28.5 73.5t-82.5 25.5
q-101 0 -162 -86.5t-66 -257.5q42 60 97 85t109 25zM295 51q70 0 113 45.5t43 121.5q0 67 -34.5 102t-101.5 35q-60 0 -109.5 -34.5t-81.5 -88.5q9 -93 53.5 -137t117.5 -44z" />
    <glyph glyph-name="seven" unicode="7" horiz-adv-x="464" 
d="M98 0q9 82 34.5 151t59.5 127.5t71.5 107.5t70 93t55.5 83.5t27 77.5h-359l6 60h429l-4 -35q-6 -51 -29.5 -97.5t-56.5 -92.5t-71 -95t-72 -106t-60 -124t-35 -150h-66z" />
    <glyph glyph-name="eight" unicode="8" horiz-adv-x="548" 
d="M398 354q54 -24 77.5 -63.5t23.5 -93.5q0 -45 -16.5 -82t-47.5 -64t-75.5 -42t-100.5 -15q-106 0 -163.5 44.5t-57.5 124.5q0 38 11 69t29 56.5t42.5 45.5t51.5 35q-34 23 -52.5 58t-18.5 80q0 44 15.5 81t44 63t68.5 40.5t88 14.5q43 0 78.5 -11t61 -32.5t39.5 -52.5
t14 -71q0 -69 -32.5 -114t-79.5 -71zM312 648q-65 0 -105.5 -33.5t-40.5 -98.5q0 -40 22 -70.5t62 -42.5l92 -29q49 24 75.5 63.5t26.5 87.5q0 61 -37 92t-95 31zM262 51q85 0 127 38t42 104q0 44 -22.5 73.5t-72.5 44.5l-113 34q-1 0 -1.5 0.5t-1.5 0.5q-22 -13 -42.5 -29
t-36.5 -37t-25.5 -47t-9.5 -58q0 -57 39 -90.5t117 -33.5z" />
    <glyph glyph-name="nine" unicode="9" horiz-adv-x="556" 
d="M302 706q109 0 165.5 -72.5t56.5 -206.5q0 -215 -76.5 -324t-215.5 -109q-64 0 -112 21.5t-74 69.5l54 39q23 -41 56 -57t81 -16q92 0 150.5 74t69.5 227q-43 -51 -91 -70t-107 -19q-42 0 -77.5 12.5t-62 37.5t-41 61t-14.5 84q0 55 17.5 100.5t49 78.5t75.5 51t96 18z
M274 322q70 0 114.5 31t70.5 73q-2 114 -44 168.5t-115 54.5q-37 0 -68 -13t-53.5 -37t-35 -57.5t-12.5 -74.5q0 -71 37 -108t106 -37z" />
    <glyph glyph-name="colon" unicode=":" horiz-adv-x="212" 
d="M127 412q-20 0 -32 11.5t-12 31.5q0 21 13 36t36 15q20 0 32 -12t12 -32q0 -21 -13 -35.5t-36 -14.5zM83 -6q-20 0 -32 11.5t-12 31.5q0 21 13 36t36 15q20 0 32 -12t12 -32q0 -21 -13 -35.5t-36 -14.5z" />
    <glyph glyph-name="semicolon" unicode=";" horiz-adv-x="219" 
d="M126 386q-20 0 -32 12t-12 32t13.5 35t36.5 15q19 0 31 -12t12 -32t-13 -35t-36 -15zM33 -72q20 10 34 26t17 40q-42 5 -42 46q0 22 14 35t34 13q23 0 35.5 -15t12.5 -41q0 -25 -8 -47t-21 -40t-29 -30.5t-31 -18.5z" />
    <glyph glyph-name="less" unicode="&#x3c;" horiz-adv-x="374" 
d="M26 232l6 56l320 199l-6 -61l-259 -167l224 -166l-6 -61z" />
    <glyph glyph-name="equal" unicode="=" horiz-adv-x="479" 
d="M77 382h355l-5 -51h-355zM57 189h355l-5 -50h-355z" />
    <glyph glyph-name="greater" unicode="&#x3e;" horiz-adv-x="374" 
d="M33 95l257 166l-223 164l7 61l278 -199l-6 -57l-320 -199z" />
    <glyph glyph-name="question" unicode="?" horiz-adv-x="425" 
d="M158 182q6 55 23 93t39 66t46.5 49t45 43t33.5 48.5t13 64.5q0 45 -27.5 74.5t-82.5 29.5q-54 0 -89 -31t-43 -94h-61q9 85 61 133.5t138 48.5q46 0 78.5 -13t53 -34.5t30 -49t9.5 -57.5q0 -48 -14 -80.5t-35.5 -57t-46.5 -46t-48 -46.5t-40.5 -58.5t-22.5 -82.5h-60z
M173 -6q-20 0 -32 11.5t-12 31.5q0 21 13 36t36 15q20 0 32 -12t12 -32q0 -21 -13 -35.5t-36 -14.5z" />
    <glyph glyph-name="at" unicode="@" horiz-adv-x="796" 
d="M532 45q-38 0 -55 18.5t-15 53.5q0 6 4 18q-35 -51 -70 -69t-70 -18q-52 0 -81 32.5t-29 94.5q0 59 19.5 110.5t52 89.5t75.5 60t90 22q40 0 65.5 -15.5t38.5 -39.5l16 45h54q-32 -86 -53 -143.5t-34 -94t-18.5 -55.5t-7.5 -28q-3 -34 33 -34q29 0 59 24t54.5 63t40 88
t15.5 99q0 49 -15 89t-44 69t-71 45t-97 16q-81 0 -153 -33.5t-125.5 -92t-84.5 -137t-31 -168.5q0 -57 16.5 -103t48 -78t77 -49.5t103.5 -17.5q90 0 153.5 26.5t105.5 69.5l32 -38q-47 -48 -122.5 -79.5t-174.5 -31.5q-70 0 -125.5 21t-93.5 59.5t-58.5 93t-20.5 122.5
q0 104 35.5 193t98 155t146.5 103.5t181 37.5q65 0 115.5 -19t86 -54t54 -83.5t18.5 -108.5q0 -64 -19.5 -123.5t-52.5 -105t-76 -72.5t-91 -27zM345 99q24 0 48 12t47.5 40t46.5 74t45 115l4 13q-5 22 -27.5 39t-58.5 17t-68 -17t-56 -47t-38 -70.5t-14 -87.5q0 -42 19 -65
t52 -23z" />
    <glyph glyph-name="A" unicode="A" horiz-adv-x="594" 
d="M440 208h-291l-95 -208h-65l324 700h66l176 -700h-65zM427 262l-87 363l-166 -363h253z" />
    <glyph glyph-name="B" unicode="B" horiz-adv-x="590" 
d="M136 700h215q97 0 145.5 -40t48.5 -117q0 -37 -11 -66.5t-28 -51t-37 -35t-38 -20.5v-2q18 -4 38 -14.5t37 -29t28 -45.5t11 -65q0 -54 -20.5 -94.5t-55 -67t-81 -39.5t-98.5 -13h-228zM325 385q42 0 71.5 13t48 33.5t27.5 46.5t9 53q0 55 -33 85t-100 30h-154l-28 -261
h159zM294 54q41 0 75 8.5t59 27.5t39 49t14 73q0 61 -37.5 89.5t-103.5 28.5h-179l-29 -276h162z" />
    <glyph glyph-name="C" unicode="C" horiz-adv-x="582" 
d="M306 -6q-115 0 -182.5 74.5t-67.5 221.5q0 93 21 169.5t61.5 131t100 85t136.5 30.5q91 0 145 -43t54 -122q0 -27 -4 -45.5t-10 -35.5h-58q6 21 8.5 36.5t2.5 33.5q0 65 -41.5 93t-107.5 28q-55 0 -99 -25.5t-75.5 -72t-48.5 -112.5t-17 -146q0 -125 52 -185.5t134 -60.5
q66 0 109 25t78 74l39 -35q-44 -60 -97.5 -89.5t-132.5 -29.5z" />
    <glyph glyph-name="D" unicode="D" horiz-adv-x="654" 
d="M136 700h189q65 0 119.5 -18t94 -54.5t61.5 -93.5t22 -135q0 -103 -29 -178.5t-79 -124.5t-116 -72.5t-141 -23.5h-195zM259 57q65 0 119.5 20t93.5 61t60.5 104t21.5 150q0 65 -17.5 112.5t-48.5 78.5t-74.5 45.5t-96.5 14.5h-123l-61 -586h126z" />
    <glyph glyph-name="E" unicode="E" horiz-adv-x="535" 
d="M136 700h406l-6 -59h-342l-27 -256h295l-7 -60h-295l-27 -266h342l-7 -59h-406z" />
    <glyph glyph-name="F" unicode="F" horiz-adv-x="505" 
d="M136 700h397l-5 -59h-334l-29 -267h288l-7 -59h-287l-33 -315h-64z" />
    <glyph glyph-name="G" unicode="G" horiz-adv-x="621" 
d="M313 -9q-125 0 -191 78t-66 224q0 97 23.5 173.5t66 130t102 81.5t132.5 28q102 0 154 -45t52 -123q0 -35 -11 -60h-61q3 8 5.5 20t2.5 29q0 60 -39 92t-111 32q-56 0 -102 -24t-78.5 -69t-50.5 -110t-18 -148q0 -116 51 -185t149 -69q62 0 104 17.5t62 40.5l19 178h-166
l6 59h228l-27 -261q-33 -34 -92 -61.5t-144 -27.5z" />
    <glyph glyph-name="H" unicode="H" horiz-adv-x="622" 
d="M132 700h64l-33 -316h328l34 316h63l-74 -700h-63l34 323h-329l-34 -323h-64z" />
    <glyph glyph-name="I" unicode="I" horiz-adv-x="238" 
d="M136 700h64l-74 -700h-64z" />
    <glyph glyph-name="J" unicode="J" horiz-adv-x="442" 
d="M163 -6q-66 0 -104.5 23.5t-58.5 54.5l46 43q18 -25 45 -45t72 -20q61 0 91.5 39t38.5 111l53 500h63l-53 -506q-11 -97 -56.5 -148.5t-136.5 -51.5z" />
    <glyph glyph-name="K" unicode="K" horiz-adv-x="608" 
d="M585 57l-7 -56q-6 -2 -14.5 -2.5t-16.5 -0.5q-45 0 -72.5 23.5t-46 59t-33 76.5t-34 76.5t-48.5 59t-77 23.5h-76l-34 -316h-64l74 700h64l-34 -323h76q44 0 89.5 16.5t84.5 55t67 100t38 151.5h63q-16 -141 -77 -232.5t-152 -128.5q28 -16 46.5 -43t33 -58t26 -63.5
t26 -58.5t33.5 -42.5t48 -16.5h17z" />
    <glyph glyph-name="L" unicode="L" horiz-adv-x="508" 
d="M136 700h65l-68 -644h341l-6 -56h-406z" />
    <glyph glyph-name="M" unicode="M" horiz-adv-x="778" 
d="M136 700h68l179 -526l292 526h64l-74 -700h-61l60 578l-17 -35l-250 -446h-47l-156 451l-10 36l-61 -584h-61z" />
    <glyph glyph-name="N" unicode="N" horiz-adv-x="644" 
d="M136 700h56l280 -571l9 -24l63 595h62l-75 -700h-57l-282 570l-8 22l-61 -592h-61z" />
    <glyph glyph-name="O" unicode="O" horiz-adv-x="677" 
d="M323 -6q-53 0 -101.5 16t-85 51.5t-58.5 92t-22 137.5q0 113 27 191.5t72 128.5t104 72.5t123 22.5q51 0 98.5 -17t83.5 -53t58 -93t22 -137q0 -112 -26 -190.5t-70.5 -127.5t-102.5 -71.5t-122 -22.5zM329 49q50 0 95 19t79 61.5t54 110t20 163.5q0 68 -17 115t-45 76.5
t-64.5 43t-74.5 13.5q-50 0 -95.5 -19.5t-80.5 -62t-56 -110.5t-21 -164q0 -69 17 -116t45.5 -76t66 -41.5t77.5 -12.5z" />
    <glyph glyph-name="P" unicode="P" horiz-adv-x="557" 
d="M136 700h206q100 0 156 -46.5t56 -142.5q0 -61 -18.5 -106.5t-52.5 -75.5t-81.5 -45t-104.5 -15h-143l-28 -269h-64zM300 323q97 0 142 49t45 133q0 66 -37.5 103t-118.5 37h-137l-34 -322h140z" />
    <glyph glyph-name="Q" unicode="Q" horiz-adv-x="708" 
d="M644 406q0 -106 -23.5 -182t-63.5 -125.5t-93 -74.5t-113 -29q16 -88 58.5 -122.5t103.5 -34.5l-7 -58q-101 0 -154 57.5t-64 158.5q-47 5 -89.5 23.5t-74 54t-50 89.5t-18.5 128q0 113 27 191.5t72 128.5t104 72.5t123 22.5q51 0 98.5 -17t83.5 -53t58 -93t22 -137z
M329 49q50 0 95 19t79 61.5t54 110t20 163.5q0 68 -17 115t-45 76.5t-64.5 43t-74.5 13.5q-50 0 -95.5 -19.5t-80.5 -62t-56 -110.5t-21 -164q0 -69 17 -116t45.5 -76t66 -41.5t77.5 -12.5z" />
    <glyph glyph-name="R" unicode="R" horiz-adv-x="597" 
d="M513 -3q-35 0 -56.5 22t-36 55.5t-25.5 72t-25 72t-34.5 55.5t-53.5 22h-125l-31 -296h-64l74 700h213q95 0 148.5 -43.5t53.5 -134.5q0 -44 -12.5 -79t-35 -61t-53 -43.5t-66.5 -26.5q20 -11 33.5 -34t23 -51.5t18 -58.5t19.5 -55t26 -41t38 -16h22l-6 -56
q-3 0 -16 -1.5t-29 -1.5zM301 348q38 0 71 10.5t58.5 31.5t40 51.5t14.5 70.5q0 62 -36.5 97.5t-108.5 35.5h-146l-32 -297h139z" />
    <glyph glyph-name="S" unicode="S" horiz-adv-x="549" 
d="M256 -6q-94 0 -150 29t-86 89l51 37q24 -51 69.5 -75.5t121.5 -24.5q85 0 131 37t46 106q0 28 -8.5 49.5t-29 38t-53 29.5t-80.5 23q-90 20 -138 58.5t-48 115.5q0 47 16.5 84t47.5 63t75 39.5t98 13.5q41 0 78 -8.5t64.5 -27t44 -47.5t16.5 -70q0 -20 -2.5 -30.5
t-6.5 -21.5l-59 1q3 11 4.5 20t1.5 20q0 58 -40.5 83.5t-107.5 25.5q-81 0 -123.5 -36t-42.5 -100q0 -27 8.5 -46t27.5 -33.5t50 -25t77 -21.5q54 -13 91 -29.5t60 -39.5t33 -52.5t10 -67.5q0 -100 -66 -153t-181 -53z" />
    <glyph glyph-name="T" unicode="T" horiz-adv-x="506" 
d="M264 641h-206l7 59h474l-6 -59h-206l-67 -641h-64z" />
    <glyph glyph-name="U" unicode="U" horiz-adv-x="642" 
d="M298 -6q-52 0 -95.5 14.5t-72.5 48t-42 89.5t-4 140l43 414h65l-44 -418q-7 -63 1 -107t28 -71.5t52 -40.5t74 -13q41 0 75.5 12t60.5 39t43 71.5t24 109.5l44 418h61l-43 -414q-9 -86 -33 -142.5t-59.5 -89.5t-80.5 -46.5t-97 -13.5z" />
    <glyph glyph-name="V" unicode="V" horiz-adv-x="580" 
d="M64 700h72l138 -624l271 624h69l-317 -700h-63z" />
    <glyph glyph-name="W" unicode="W" horiz-adv-x="877" 
d="M69 700h72l83 -626l234 626h62l101 -626l216 626h69l-257 -700h-72l-98 604l-229 -604h-71z" />
    <glyph glyph-name="X" unicode="X" horiz-adv-x="540" 
d="M321 357l182 -357h-71l-156 310l-221 -310h-77l263 358l-174 342h73l146 -295l209 295h76z" />
    <glyph glyph-name="Y" unicode="Y" horiz-adv-x="560" 
d="M255 293l-186 407h73l151 -345l223 345h74l-272 -407l-31 -293h-63z" />
    <glyph glyph-name="Z" unicode="Z" horiz-adv-x="542" 
d="M552 651l-464 -596h402l-6 -55h-477l5 50l466 595h-402l6 55h475z" />
    <glyph glyph-name="bracketleft" unicode="[" horiz-adv-x="273" 
d="M132 726h171l-5 -56h-109l-90 -858h108l-6 -56h-171z" />
    <glyph glyph-name="backslash" unicode="\" horiz-adv-x="376" 
d="M70 706h63l173 -931h-63z" />
    <glyph glyph-name="bracketright" unicode="]" horiz-adv-x="273" 
d="M-24 -188h108l91 858h-109l6 56h171l-102 -970h-171z" />
    <glyph glyph-name="asciicircum" unicode="^" horiz-adv-x="336" 
d="M182 718h73l72 -195h-57l-57 145l-86 -145h-59z" />
    <glyph glyph-name="underscore" unicode="_" horiz-adv-x="425" 
d="M19 0h338l-6 -48h-337z" />
    <glyph glyph-name="grave" unicode="`" horiz-adv-x="247" 
d="M89 720h75l65 -162h-56z" />
    <glyph glyph-name="a" unicode="a" horiz-adv-x="516" 
d="M205 -12q-79 0 -122 57.5t-43 154.5q0 64 16 117.5t45 92.5t71 61t94 22q48 0 82.5 -21t51.5 -59l7 69h57l-40 -380q-3 -29 4.5 -42.5t30.5 -11.5l-5 -47q-5 -2 -13 -2.5t-16 -0.5q-32 0 -48 19t-14 53l2 14q-23 -42 -62.5 -69t-97.5 -27zM225 41q48 0 87 32.5t56 85.5
l18 173q-7 45 -36.5 76.5t-80.5 31.5q-38 0 -68.5 -17.5t-52 -48.5t-33 -74t-11.5 -95q0 -76 31 -120t90 -44z" />
    <glyph glyph-name="b" unicode="b" horiz-adv-x="508" 
d="M249 -12q-32 0 -56.5 9t-41.5 22.5t-27 29.5t-14 30l-9 -79h-57l76 726h63l-33 -320q8 15 22 30t33 28t43.5 21t53.5 8q78 0 122.5 -56t44.5 -156q0 -66 -16 -120.5t-45 -92.5t-69.5 -59t-89.5 -21zM244 41q75 0 118 63.5t43 173.5q0 78 -32 119.5t-87 41.5
q-27 0 -49.5 -9.5t-41 -25.5t-32 -37.5t-22.5 -44.5l-18 -172q3 -13 10 -31.5t21.5 -35.5t36.5 -29.5t53 -12.5z" />
    <glyph glyph-name="c" unicode="c" horiz-adv-x="450" 
d="M226 -12q-87 0 -136 52.5t-49 155.5q0 69 17 124t47 93.5t72 59t92 20.5q74 0 114 -33.5t40 -95.5q0 -20 -4 -37.5t-8 -28.5h-55q3 9 6.5 24.5t3.5 29.5q0 46 -27 67t-72 21q-72 0 -116.5 -63.5t-44.5 -177.5q0 -78 34 -117.5t92 -39.5q48 0 78.5 19t51.5 49l37 -33
q-26 -37 -67.5 -63t-105.5 -26z" />
    <glyph glyph-name="d" unicode="d" horiz-adv-x="516" 
d="M208 -12q-79 0 -123.5 56.5t-44.5 158.5q0 64 16 117t46 91.5t71.5 60t92.5 21.5q48 0 81 -22.5t47 -56.5l32 312h64l-66 -624q-3 -29 4.5 -41.5t30.5 -12.5l-5 -47q-5 -2 -13 -2.5t-16 -0.5q-32 0 -49 19t-12 53l1 17q-19 -41 -59 -70t-98 -29zM228 42q47 0 85 32t55 85
l18 173q-7 45 -36 76.5t-80 31.5q-39 0 -70 -17t-52.5 -48t-32.5 -75t-11 -98q0 -75 32.5 -117.5t91.5 -42.5z" />
    <glyph glyph-name="e" unicode="e" horiz-adv-x="451" 
d="M225 42q48 0 79 18t57 51l38 -33q-67 -90 -184 -90q-83 0 -130 53t-47 153q0 65 18.5 120t51 94.5t78 62t99.5 22.5q65 0 100.5 -32.5t35.5 -89.5t-29 -91.5t-75 -53t-102.5 -25.5t-111.5 -10q3 -75 35 -112t87 -37zM278 440q-33 0 -62.5 -14.5t-52.5 -40.5t-38 -63
t-20 -82q42 2 86.5 7t82 18t61.5 36.5t24 63.5q0 75 -81 75z" />
    <glyph glyph-name="f" unicode="f" horiz-adv-x="307" 
d="M109 428h-67l6 54h68l9 80q8 78 52 123t113 45q35 0 60 -12t41 -32l-36 -42q-11 15 -27 23t-42 8q-41 0 -68 -27t-33 -84l-8 -82h145l-6 -54h-145l-45 -428h-62z" />
    <glyph glyph-name="g" unicode="g" horiz-adv-x="507" 
d="M195 -240q-66 0 -108.5 26t-59.5 67l48 33q13 -31 44.5 -51.5t81.5 -20.5q63 0 101 36.5t45 101.5l14 131q-17 -37 -54 -65t-99 -28q-81 0 -124.5 57t-43.5 154q0 63 16 116.5t44.5 92t69.5 60.5t90 22q50 0 86 -22.5t53 -60.5l8 73h56l-55 -530q-10 -88 -62 -140
t-151 -52zM227 44q54 0 88 32t52 84l18 172q-3 21 -12.5 40.5t-24.5 34t-35.5 23.5t-46.5 9q-38 0 -68 -17t-51 -48t-32 -74t-11 -96q0 -74 31 -117t92 -43z" />
    <glyph glyph-name="h" unicode="h" horiz-adv-x="507" 
d="M423 -2q-39 0 -55 23.5t-11 65.5l23 220q6 57 -16.5 93.5t-80.5 36.5q-34 0 -60 -14t-44 -36t-28 -48.5t-13 -51.5l-31 -287h-63l76 726h63l-34 -334q18 40 57 70t96 30q43 0 72 -14.5t45.5 -40t22 -60t1.5 -73.5l-22 -205q-3 -30 5.5 -41t29.5 -11l-5 -46q-9 -3 -28 -3z
" />
    <glyph glyph-name="i" unicode="i" horiz-adv-x="212" 
d="M143 589q-21 0 -32.5 12.5t-11.5 31.5q0 21 13.5 36.5t38.5 15.5q20 0 31.5 -13t11.5 -30q0 -22 -13.5 -37.5t-37.5 -15.5zM121 -2q-37 0 -53.5 23t-11.5 67l41 394h63l-40 -384q-3 -26 4.5 -38.5t30.5 -12.5l-5 -46q-7 -3 -29 -3z" />
    <glyph glyph-name="j" unicode="j" horiz-adv-x="210" 
d="M145 589q-21 0 -32.5 12.5t-11.5 31.5q0 21 13.5 36.5t38.5 15.5q20 0 31.5 -13t11.5 -30q0 -22 -13.5 -37.5t-37.5 -15.5zM-57 -247q-21 0 -36.5 4t-25.5 9q-11 6 -19 13l24 45q6 -5 15 -9q7 -3 17.5 -5.5t24.5 -2.5q44 0 69 28.5t31 90.5l59 556h61l-58 -558
q-9 -82 -48 -126.5t-114 -44.5z" />
    <glyph glyph-name="k" unicode="k" horiz-adv-x="468" 
d="M443 48l-5 -46q-1 0 -8.5 -2t-18.5 -2q-43 0 -66 16.5t-36 41.5t-22 53.5t-23 53.5t-39.5 41.5t-72.5 16.5h-21l-24 -221h-63l76 726h63l-47 -452h40q91 0 138 56t60 152h58q-4 -27 -12 -61.5t-26 -68.5t-47.5 -63.5t-75.5 -47.5q24 -12 38 -31t23 -40.5t16.5 -43
t17.5 -39t25.5 -28.5t42.5 -11h9z" />
    <glyph glyph-name="l" unicode="l" horiz-adv-x="213" 
d="M120 -3q-37 0 -53.5 21t-11.5 66l67 642h64l-66 -631q-3 -28 5 -37t31 -9l-5 -49q-12 -3 -31 -3z" />
    <glyph glyph-name="m" unicode="m" horiz-adv-x="813" 
d="M729 -2q-38 0 -54 23.5t-11 65.5l23 217q6 59 -16 96.5t-82 37.5q-30 0 -54.5 -13t-43 -34.5t-29.5 -49.5t-14 -57l-30 -284h-63l32 304q6 59 -17 96.5t-82 37.5q-33 0 -58.5 -14t-43.5 -36.5t-28 -50t-13 -53.5l-30 -284h-63l40 385q4 31 -4.5 41.5t-29.5 10.5l5 47
q4 1 12 2t17 1q33 0 47.5 -19.5t12.5 -54.5l-2 -25q9 18 22.5 36.5t33 33.5t45 24.5t57.5 9.5q65 0 96 -31.5t41 -79.5q9 21 24.5 41t35.5 35.5t45.5 25t55.5 9.5q45 0 74.5 -15t46.5 -40.5t22 -60t1 -72.5l-22 -205q-3 -30 5 -40.5t30 -10.5l-6 -47q-5 -2 -12.5 -2.5
t-15.5 -0.5z" />
    <glyph glyph-name="n" unicode="n" horiz-adv-x="514" 
d="M430 -2q-38 0 -54 23.5t-11 65.5l23 218q7 66 -18.5 100t-80.5 34q-29 0 -54 -12t-44 -33.5t-31.5 -50.5t-15.5 -63l-29 -280h-63l40 386q4 30 -4.5 41t-29.5 11l5 46q9 3 29 3q33 0 47 -19.5t12 -57.5l-2 -23q23 51 64.5 78.5t95.5 27.5q76 0 114 -49t28 -139l-21 -206
q-4 -30 4 -41t30 -11l-5 -46q-10 -3 -29 -3z" />
    <glyph glyph-name="o" unicode="o" horiz-adv-x="498" 
d="M231 -12q-91 0 -140.5 56t-49.5 159q0 69 17 123t48 91t73 56.5t92 19.5q88 0 137.5 -56t49.5 -159q0 -69 -17 -122.5t-47.5 -91t-72 -57t-90.5 -19.5zM235 41q33 0 62 15t50.5 44.5t34 73t12.5 101.5q0 82 -34.5 123.5t-94.5 41.5q-33 0 -62.5 -14.5t-51 -44t-34 -73
t-12.5 -101.5q0 -83 34.5 -124.5t95.5 -41.5z" />
    <glyph glyph-name="p" unicode="p" horiz-adv-x="516" 
d="M92 385q4 31 -4.5 41.5t-29.5 10.5l5 47q4 1 12 2t17 1q65 0 59 -81l-1 -15q23 44 62 73t100 29q75 0 120 -53.5t45 -152.5q0 -66 -14 -121t-41.5 -94.5t-68.5 -61.5t-95 -22q-49 0 -85.5 23t-50.5 57l-31 -297h-63zM257 41q40 0 69 17.5t48.5 49.5t29 76t9.5 97
q0 78 -33 118t-88 40q-51 0 -88.5 -32.5t-54.5 -84.5l-19 -172q8 -47 42 -78t85 -31z" />
    <glyph glyph-name="q" unicode="q" horiz-adv-x="508" 
d="M358 71q-8 -13 -21.5 -27.5t-32 -27t-43.5 -20.5t-57 -8q-38 0 -68.5 15t-51.5 42t-32.5 65t-11.5 84q0 72 17 127.5t47 93.5t71 58t89 20q32 0 56 -9.5t40.5 -23t26 -29t13.5 -27.5l9 78h55l-75 -716h-63zM225 42q51 0 87.5 30.5t54.5 84.5l19 174q-7 44 -36.5 76.5
t-80.5 32.5q-39 0 -69.5 -17.5t-51.5 -49t-32.5 -75t-11.5 -95.5q0 -77 33 -119t88 -42z" />
    <glyph glyph-name="r" unicode="r" horiz-adv-x="336" 
d="M92 386q4 29 -4 40.5t-30 11.5l5 47q5 1 12.5 2t16.5 1q68 0 60 -76l-3 -28q19 51 59.5 80t92.5 29q17 0 32.5 -4t24.5 -9l-32 -59q-7 4 -19.5 7t-26.5 3q-28 0 -51.5 -13t-41.5 -35.5t-29 -52.5t-15 -65l-28 -265h-63z" />
    <glyph glyph-name="s" unicode="s" horiz-adv-x="439" 
d="M195 -12q-60 0 -108.5 21t-73.5 75l48 36q12 -24 28.5 -39.5t34.5 -24.5t37.5 -12t38.5 -3q126 0 126 86q0 21 -10 35.5t-26.5 24.5t-38.5 16t-46 12q-26 6 -51.5 15.5t-46 25t-33.5 38.5t-13 56q0 68 48 105.5t134 37.5q72 0 115.5 -31t43.5 -91q0 -17 -4 -32t-9 -26
h-56q5 8 7.5 22.5t2.5 26.5q0 40 -28.5 59t-77.5 19q-57 0 -85.5 -22t-28.5 -60q0 -22 8.5 -36.5t24.5 -24.5t39 -16.5t51 -13.5q26 -6 51.5 -15t45.5 -23.5t32.5 -36.5t12.5 -55q0 -75 -52 -112t-141 -37z" />
    <glyph glyph-name="t" unicode="t" horiz-adv-x="371" 
d="M223 -8q-77 0 -108 41.5t-22 129.5l28 264h-86l6 55h88l14 140h61l-14 -140h182l-6 -55h-183l-27 -262q-6 -60 13.5 -87.5t66.5 -27.5q24 0 46.5 10.5t37.5 24.5l28 -44q-22 -21 -56 -35t-69 -14z" />
    <glyph glyph-name="u" unicode="u" horiz-adv-x="506" 
d="M193 -12q-71 0 -108.5 42t-27.5 129l34 323h62l-33 -316q-7 -69 20 -96.5t76 -27.5q33 0 58.5 14.5t44 36t29 47.5t13.5 49l31 293h63l-41 -382q-3 -29 4.5 -41t30.5 -12l-6 -46q-2 -1 -9 -2t-20 -1q-33 0 -48.5 19t-10.5 56l3 22q-11 -21 -26 -40t-35 -34t-45.5 -24
t-58.5 -9z" />
    <glyph glyph-name="v" unicode="v" horiz-adv-x="453" 
d="M462 482l-226 -483h-69l-123 483h67l88 -367l11 -51l19 51l168 367h65z" />
    <glyph glyph-name="w" unicode="w" horiz-adv-x="684" 
d="M690 482l-195 -483h-72l-56 349l-5 46l-16 -46l-136 -349h-71l-93 483h65l58 -348l11 -74l27 74l134 348h61l56 -347l10 -75l27 75l133 347h62z" />
    <glyph glyph-name="x" unicode="x" horiz-adv-x="427" 
d="M252 246l138 -246h-72l-109 202l-150 -202h-72l190 249l-130 233h74l99 -190l139 190h70z" />
    <glyph glyph-name="y" unicode="y" horiz-adv-x="497" 
d="M186 -247q-73 0 -113.5 26t-55.5 68l47 32q15 -34 44.5 -53t83.5 -19q62 0 100 36.5t45 101.5l16 155q-22 -50 -65.5 -78.5t-98.5 -28.5q-149 0 -132 170l34 319h63l-33 -312q-13 -123 93 -123q26 0 51 12.5t45.5 33.5t34 49.5t16.5 59.5l29 280h63l-56 -541
q-10 -87 -66.5 -137.5t-144.5 -50.5z" />
    <glyph glyph-name="z" unicode="z" horiz-adv-x="461" 
d="M422 429l-242 -186q34 -6 73 -21.5t72 -44t55 -73t22 -109.5q0 -59 -17.5 -103t-47.5 -73.5t-69.5 -44.5t-82.5 -15q-81 0 -129.5 42.5t-48.5 120.5q0 54 19 96.5t47 74.5t61 54t60 35q-21 6 -43.5 9t-46.5 5l6 56l229 176h-269l6 54h352zM345 -15q0 69 -26.5 111.5
t-71.5 65.5q-26 -12 -57.5 -31t-58.5 -47t-45 -65.5t-18 -85.5q0 -58 33.5 -89.5t90.5 -31.5q31 0 58.5 11t48.5 32.5t33.5 54t12.5 75.5z" />
    <glyph glyph-name="braceleft" unicode="{" horiz-adv-x="280" 
d="M207 -234q-30 -6 -58 -1t-48 23t-30.5 49.5t-5.5 78.5l24 231q4 36 -13.5 51.5t-40.5 15.5h-10l6 54h10q23 0 43.5 15.5t24.5 51.5l25 231q5 47 22 78.5t41 49.5t52.5 23t57.5 -1l-6 -57q-44 13 -73 -15.5t-35 -86.5l-25 -235q-3 -23 -10 -38t-15.5 -24t-16.5 -13.5
t-13 -5.5q4 -1 11 -5.5t14 -14t11 -24.5t2 -37l-25 -235q-6 -59 17.5 -87t69.5 -15z" />
    <glyph glyph-name="bar" unicode="|" horiz-adv-x="219" 
d="M133 736h56l-104 -990h-56z" />
    <glyph glyph-name="braceright" unicode="}" horiz-adv-x="291" 
d="M85 716q30 6 57.5 1t48 -23t30.5 -49.5t5 -78.5l-23 -231q-4 -36 13 -51.5t40 -15.5h10l-6 -54h-10q-23 0 -43 -15.5t-24 -51.5l-25 -231q-5 -47 -22 -78.5t-41 -49.5t-52.5 -23t-57.5 1l5 57q45 -13 74 15.5t35 86.5l25 235q2 23 9 38t15.5 24t17 13.5t13.5 5.5
q-4 1 -11.5 6t-14 14.5t-11 24.5t-2.5 36l25 235q6 59 -17 87t-70 15z" />
    <glyph glyph-name="asciitilde" unicode="~" horiz-adv-x="410" 
d="M67 193q-2 4 -3 9t-2 11.5t-1 14.5q0 33 20.5 56.5t60.5 23.5q20 0 37 -6t32.5 -12.5t31 -12.5t31.5 -6q12 0 19.5 7t7.5 21q0 11 -3 21q-1 4 -3 8h54q1 -4 2 -10q1 -5 1.5 -10.5t0.5 -12.5q0 -32 -19 -54.5t-58 -22.5q-24 0 -42 6t-33 12.5t-28.5 12.5t-27.5 6t-23 -9
t-9 -25q0 -11 3 -20q1 -5 3 -8h-52z" />
    <glyph glyph-name="exclamdown" unicode="&#xa1;" horiz-adv-x="218" 
d="M137 493q20 0 32 -11.5t12 -31.5q0 -21 -13 -36t-36 -15q-19 0 -31 12t-12 32q0 21 12.5 35.5t35.5 14.5zM99 -213h-71l61 504h54z" />
    <glyph glyph-name="cent" unicode="&#xa2;" horiz-adv-x="450" 
d="M204 107q-66 8 -107.5 62.5t-41.5 150.5q0 128 52 202t149 84l10 94h50l-10 -93q29 -2 51.5 -12.5t39 -24.5t26.5 -29.5t14 -28.5l-55 -30q-2 7 -7.5 17.5t-15.5 21t-24.5 19t-34.5 11.5l-42 -392q29 3 51.5 14t38 25t24.5 28t11 21l33 -31q-3 -9 -14 -26t-31 -34.5
t-49 -32t-68 -17.5l-12 -106h-50zM251 550q-63 -8 -98.5 -66t-35.5 -158q0 -71 26.5 -111t66.5 -50z" />
    <glyph glyph-name="sterling" unicode="&#xa3;" horiz-adv-x="540" 
d="M448 487q5 14 6.5 26.5t1.5 24.5q0 31 -12 51.5t-31.5 33t-45 17.5t-51.5 5q-74 0 -117.5 -34t-43.5 -102q0 -45 15 -87.5t26 -92.5h228l-6 -57h-212q1 -9 1.5 -18.5t0.5 -19.5q0 -28 -7 -54.5t-18 -49.5t-26 -42t-30 -31h361l-6 -57h-451l5 43q21 14 40.5 33t34 42.5
t23.5 50.5t9 57q0 24 -3 46h-91l7 57h71q-12 42 -25.5 82.5t-13.5 88.5q0 98 63 150t170 52q36 0 71.5 -7.5t64 -24.5t46 -46t17.5 -73q0 -22 -3 -36t-7 -28h-62z" />
    <glyph glyph-name="currency" unicode="&#xa4;" horiz-adv-x="533" 
d="M43 183l87 82q-16 32 -16 72q0 29 9 56t25 49l-68 81l37 34l67 -79q22 21 51.5 33.5t62.5 12.5q32 0 57 -12.5t44 -33.5l84 79l31 -34l-86 -80q8 -17 12.5 -36.5t4.5 -39.5q0 -28 -9 -54t-26 -49l66 -78l-37 -34l-66 77q-22 -22 -50 -34t-60 -12q-32 -1 -59.5 12
t-45.5 35l-84 -81zM267 233q25 0 48 10.5t40.5 28.5t28 41.5t10.5 50.5q0 47 -28.5 78.5t-73.5 31.5q-25 0 -48 -10.5t-41 -28.5t-28.5 -42t-10.5 -51q0 -45 29 -76.5t74 -32.5z" />
    <glyph glyph-name="yen" unicode="&#xa5;" horiz-adv-x="585" 
d="M258 223h-171l6 50h171l3 31l-29 59h-136l6 50h104l-141 287h77l158 -339l229 339h77l-202 -287h105l-5 -50h-136l-42 -60l-3 -30h171l-5 -50h-171l-24 -223h-65z" />
    <glyph glyph-name="brokenbar" unicode="&#xa6;" horiz-adv-x="219" 
d="M133 736h56l-43 -412h-56zM73 166h56l-44 -420h-56z" />
    <glyph glyph-name="section" unicode="&#xa7;" horiz-adv-x="578" 
d="M232 -247q-85 0 -144.5 30t-89.5 90l48 35q29 -51 77 -74t116 -23q104 0 149.5 39t45.5 104q0 47 -28 70.5t-70 36.5t-91 22t-91 26t-70 48.5t-28 89.5q0 42 18 76.5t50 63.5q-20 22 -32 51.5t-12 62.5q0 45 17.5 83t50.5 65t80 42t105 15q61 0 102 -16t67 -37.5
t38 -42.5t15 -31l-52 -33q-3 9 -13.5 26t-31 34.5t-52 30t-75.5 12.5q-92 0 -137.5 -39t-45.5 -102q0 -46 28 -69t70 -36.5t91.5 -23t91.5 -28t70 -52t28 -94.5q0 -45 -17 -79.5t-45 -56.5q36 -39 36 -106q0 -43 -15.5 -81t-48.5 -66.5t-83.5 -45.5t-121.5 -17zM418 99
q19 18 30.5 41.5t11.5 53.5q0 51 -30 75.5t-74.5 38t-95 22.5t-91.5 30q-21 -17 -33 -43t-12 -55q0 -47 30.5 -70t75.5 -36t96 -23.5t92 -33.5z" />
    <glyph glyph-name="dieresis" unicode="&#xa8;" horiz-adv-x="329" 
d="M120 586q-20 0 -31 12t-11 31q0 21 13 36t37 15q21 0 31.5 -12.5t10.5 -30.5q0 -21 -12.5 -36t-37.5 -15zM284 586q-20 0 -31 12t-11 31q0 21 13 36t37 15q20 0 31 -12.5t11 -30.5q0 -21 -13 -36t-37 -15z" />
    <glyph glyph-name="copyright" unicode="&#xa9;" horiz-adv-x="816" 
d="M390 -17q-77 0 -139 25t-105.5 70t-67 107.5t-23.5 137.5q0 97 31 174.5t84.5 132t125.5 84t154 29.5q78 0 140.5 -25.5t106.5 -70.5t67.5 -107.5t23.5 -136.5q0 -97 -31 -175t-85 -132.5t-126.5 -83.5t-155.5 -29zM395 38q69 0 130.5 24.5t107.5 71t72.5 113t26.5 150.5
q0 65 -20 119t-57.5 93t-91 61t-119.5 22q-69 0 -129.5 -25t-106 -72t-72 -114.5t-26.5 -152.5q0 -64 20 -117t57 -91.5t89.5 -60t118.5 -21.5zM403 114q-85 0 -132.5 56t-47.5 151q0 66 16 120.5t45.5 92.5t71.5 59t94 21q74 0 111.5 -36t37.5 -93q0 -7 -1 -15.5t-3 -16.5
h-56q1 6 1 12v11q0 84 -95 84q-39 0 -69 -17.5t-50.5 -48t-31 -71.5t-10.5 -89q0 -79 32.5 -122.5t93.5 -43.5q49 0 75.5 16.5t45.5 40.5l36 -35q-11 -15 -25.5 -28.5t-34 -24t-45 -17t-59.5 -6.5z" />
    <glyph glyph-name="ordfeminine" unicode="&#xaa;" horiz-adv-x="339" 
d="M148 413q-35 0 -56.5 18t-21.5 52q0 39 27.5 61t83.5 22h73l3 35q3 33 -10 47t-42 14q-26 0 -41 -11t-15 -38q0 -10 1 -11h-49q0 1 -1 5.5t-1 13.5q0 40 29 63t82 23q109 0 98 -102l-14 -123q-2 -14 3 -18.5t18 -4.5l-5 -40q-1 0 -6.5 -2t-18.5 -2q-17 0 -29 10t-11 32
l1 8q-14 -22 -37 -37t-61 -15zM163 453q21 0 36.5 7t26 17t16.5 22t7 21l1 11h-70q-60 0 -60 -43q0 -35 43 -35z" />
    <glyph glyph-name="guillemotleft" unicode="&#xab;" horiz-adv-x="428" 
d="M37 228l5 55l158 143l30 -39l-140 -133l112 -130l-37 -39zM208 228l6 55l157 143l31 -39l-141 -133l113 -130l-38 -39z" />
    <glyph glyph-name="registered" unicode="&#xae;" horiz-adv-x="816" 
d="M390 -17q-77 0 -139 25t-105.5 70t-67 107.5t-23.5 137.5q0 97 31 174.5t84.5 132t125.5 84t154 29.5q78 0 140.5 -25.5t106.5 -70.5t67.5 -107.5t23.5 -136.5q0 -97 -31 -175t-85 -132.5t-126.5 -83.5t-155.5 -29zM395 38q69 0 130.5 24.5t107.5 71t72.5 113t26.5 150.5
q0 65 -20 119t-57.5 93t-91 61t-119.5 22q-69 0 -129.5 -25t-106 -72t-72 -114.5t-26.5 -152.5q0 -64 20 -117t57 -91.5t89.5 -60t118.5 -21.5zM562 126q-28 0 -45 15t-27 37t-17 48t-15.5 48t-21 37t-35.5 15h-89l-22 -197h-55l50 473h158q63 0 98 -29t35 -91
q0 -42 -14 -68.5t-31.5 -41.5t-34 -21t-21.5 -7q21 -12 31 -39.5t17.5 -55.5t19 -49.5t35.5 -21.5h16l-5 -50q-5 -1 -12 -1.5t-15 -0.5zM407 375q55 0 82.5 25.5t27.5 73.5q0 77 -89 77h-93l-18 -176h90z" />
    <glyph glyph-name="macron" unicode="&#xaf;" horiz-adv-x="355" 
d="M106 662h233l-6 -52h-233z" />
    <glyph glyph-name="degree" unicode="&#xb0;" horiz-adv-x="310" 
d="M182 466q-48 0 -77.5 29.5t-29.5 81.5q0 27 9.5 51t26 42t40 28.5t51.5 10.5q47 0 77 -29.5t30 -82.5q0 -27 -9.5 -51t-26.5 -41.5t-40 -28t-51 -10.5zM186 503q40 0 63 26.5t23 64.5q0 39 -20.5 58.5t-53.5 19.5q-41 0 -63.5 -27t-22.5 -65t20.5 -57.5t53.5 -19.5z" />
    <glyph glyph-name="plusminus" unicode="&#xb1;" horiz-adv-x="449" 
d="M205 313h-141l6 50h141l17 157h51l-16 -157h144l-6 -50h-144l-17 -163h-52zM37 76h340l-5 -51h-341z" />
    <glyph glyph-name="acute" unicode="&#xb4;" horiz-adv-x="247" 
d="M177 720h78l-118 -162h-57z" />
    <glyph glyph-name="paragraph" unicode="&#xb6;" horiz-adv-x="552" 
d="M299 276h-67q-90 0 -134 51t-44 133q0 51 14.5 95t42.5 76.5t69.5 50.5t95.5 18h237l-74 -700h-42l70 665h-86l-70 -665h-42z" />
    <glyph glyph-name="periodcentered" unicode="&#xb7;" horiz-adv-x="201" 
d="M110 308q-20 0 -32 12t-12 32q0 21 13.5 35.5t36.5 14.5q19 0 31 -12t12 -32q0 -21 -13 -35.5t-36 -14.5z" />
    <glyph glyph-name="cedilla" unicode="&#xb8;" horiz-adv-x="255" 
d="M86 -190q-28 0 -48 7.5t-36 22.5l30 36q21 -21 50 -21q43 0 43 36q0 17 -17 27t-50 11l34 74h43l-17 -40q30 -7 48.5 -24.5t18.5 -49.5q0 -42 -29.5 -60.5t-69.5 -18.5z" />
    <glyph glyph-name="ordmasculine" unicode="&#xba;" horiz-adv-x="334" 
d="M188 413q-52 0 -83 33t-31 93q0 78 39.5 122t102.5 44q51 0 81.5 -32.5t30.5 -92.5q0 -78 -39 -122.5t-101 -44.5zM193 460q33 0 56 29.5t23 86.5q0 42 -17 63t-43 21q-35 0 -59.5 -29.5t-24.5 -88.5q0 -42 18.5 -62t46.5 -20z" />
    <glyph glyph-name="guillemotright" unicode="&#xbb;" horiz-adv-x="427" 
d="M29 123l141 133l-113 130l39 40l127 -144l-6 -55l-157 -143zM200 123l141 133l-113 130l39 40l127 -144l-5 -55l-158 -143z" />
    <glyph glyph-name="onequarter" unicode="&#xbc;" horiz-adv-x="694" 
d="M422 726h53l-287 -726h-53zM158 613q-8 -14 -33.5 -30.5t-62.5 -16.5l2 46q42 2 68 29t35 60h50l-40 -382h-50zM522 88h-186l5 39l155 255h55l-152 -250h130l9 93h50l-10 -93h50l-6 -44h-49l-8 -88h-51z" />
    <glyph glyph-name="onehalf" unicode="&#xbd;" horiz-adv-x="710" 
d="M422 726h53l-287 -726h-53zM158 613q-8 -14 -33.5 -30.5t-62.5 -16.5l2 46q42 2 68 29t35 60h50l-40 -382h-50zM367 28q3 32 20.5 54.5t42 40.5t52.5 32.5t51.5 31.5t39 38t15.5 51q0 29 -17.5 46.5t-51.5 17.5q-23 0 -38.5 -7t-24.5 -17t-13 -21t-5 -19h-47q2 17 9.5 36
t23 35.5t40.5 27.5t61 11q57 0 86 -28.5t29 -75.5q0 -37 -15.5 -64.5t-39.5 -47.5t-52 -35t-52 -28.5t-41 -27.5t-18 -32v-4h203l-4 -43h-257z" />
    <glyph glyph-name="threequarters" unicode="&#xbe;" horiz-adv-x="751" 
d="M479 726h53l-287 -726h-53zM123 315q-46 0 -76.5 16.5t-45.5 56.5l42 25q12 -29 32.5 -42t53.5 -13q42 0 63 20t21 55q0 30 -18.5 45.5t-50.5 15.5h-30l4 42h23q35 0 55.5 18.5t20.5 50.5q0 27 -16 41.5t-44 14.5q-29 0 -51.5 -14.5t-25.5 -48.5h-47q3 28 15 48.5t30 34
t39.5 20t43.5 6.5q50 0 78.5 -24.5t28.5 -66.5q0 -39 -18.5 -61t-44.5 -33q57 -19 57 -83q0 -56 -35.5 -90t-103.5 -34zM579 88h-186l5 39l155 255h55l-152 -250h130l9 93h50l-10 -93h50l-6 -44h-49l-8 -88h-51z" />
    <glyph glyph-name="questiondown" unicode="&#xbf;" horiz-adv-x="436" 
d="M266 493q20 0 32 -11.5t12 -31.5q0 -21 -13 -36t-36 -15q-19 0 -31.5 12t-12.5 32q0 21 13 35.5t36 14.5zM281 304q-6 -55 -23 -93t-39 -65.5t-46.5 -49t-45 -43t-33.5 -48t-13 -64.5q0 -45 27.5 -74.5t82.5 -29.5q54 0 89 31t43 93h61q-9 -84 -61 -132.5t-138 -48.5
q-46 0 -78.5 13t-53 34.5t-30 49t-9.5 57.5q0 47 14 79.5t35.5 57.5t46.5 46t48 46.5t40.5 58.5t22.5 82h60z" />
    <glyph glyph-name="Agrave" unicode="&#xc0;" horiz-adv-x="594" 
d="M333 742l-88 123h83l66 -123h-61zM440 208h-291l-95 -208h-65l324 700h66l176 -700h-65zM427 262l-87 363l-166 -363h253z" />
    <glyph glyph-name="Aacute" unicode="&#xc1;" horiz-adv-x="594" 
d="M361 742h-63l91 123h85zM440 208h-291l-95 -208h-65l324 700h66l176 -700h-65zM427 262l-87 363l-166 -363h253z" />
    <glyph glyph-name="Acircumflex" unicode="&#xc2;" horiz-adv-x="594" 
d="M289 742h-57l97 123h71l71 -123h-59l-53 77zM440 208h-291l-95 -208h-65l324 700h66l176 -700h-65zM427 262l-87 363l-166 -363h253z" />
    <glyph glyph-name="Atilde" unicode="&#xc3;" horiz-adv-x="594" 
d="M222 749q-6 12 -6 32q0 30 20.5 51t54.5 21q20 0 36 -7t30 -16t27 -16t28 -7q12 0 20 8t8 25q0 12 -4 17h50q2 -6 3 -14t1 -17q0 -31 -19.5 -52.5t-59.5 -21.5q-21 0 -36.5 7.5t-29 16t-25.5 16t-25 7.5q-11 0 -19.5 -8.5t-8.5 -22.5q0 -11 4 -19h-49zM440 208h-291
l-95 -208h-65l324 700h66l176 -700h-65zM427 262l-87 363l-166 -363h253z" />
    <glyph glyph-name="Adieresis" unicode="&#xc4;" horiz-adv-x="594" 
d="M263 756q-20 0 -32 12.5t-12 30.5q0 23 13.5 38.5t35.5 15.5q20 0 32 -12.5t12 -32.5q0 -24 -13.5 -38t-35.5 -14zM445 756q-20 0 -32.5 11t-12.5 33q0 23 14.5 38t36.5 15q20 0 31.5 -12.5t11.5 -31.5q0 -25 -13 -39t-36 -14zM440 208h-291l-95 -208h-65l324 700h66
l176 -700h-65zM427 262l-87 363l-166 -363h253z" />
    <glyph glyph-name="Aring" unicode="&#xc5;" horiz-adv-x="594" 
d="M347 704q-42 0 -66 25.5t-24 66.5q0 48 29.5 81t79.5 33q42 0 66 -26t24 -67q0 -48 -29.5 -80.5t-79.5 -32.5zM362 862q-26 0 -41.5 -17t-15.5 -45q0 -23 12 -36.5t34 -13.5q27 0 41.5 17.5t14.5 45.5q0 23 -11.5 36t-33.5 13zM440 208h-291l-95 -208h-65l324 700h66
l176 -700h-65zM427 262l-87 363l-166 -363h253z" />
    <glyph glyph-name="AE" unicode="&#xc6;" horiz-adv-x="769" 
d="M314 700h465l-7 -55h-383l66 -264h233l-6 -55h-212l67 -271h173l-5 -55h-220l-50 207h-290l-93 -207h-64zM420 261l-86 357l-163 -357h249z" />
    <glyph glyph-name="Ccedilla" unicode="&#xc7;" horiz-adv-x="582" 
d="M502 460q6 21 8.5 36.5t2.5 33.5q0 65 -41.5 93t-107.5 28q-55 0 -99 -25.5t-75.5 -72t-48.5 -112.5t-17 -146q0 -125 52 -185.5t134 -60.5q66 0 109 25t78 74l39 -35q-42 -57 -91.5 -86t-121.5 -33l-13 -31q30 -7 48.5 -24.5t18.5 -49.5q0 -42 -29.5 -60.5t-69.5 -18.5
q-53 0 -83 30l29 36q21 -21 50 -21q43 0 43 36q0 17 -17 27t-50 11l30 66q-104 8 -164 81.5t-60 213.5q0 93 21 169.5t61.5 131t100 85t136.5 30.5q91 0 145 -43t54 -122q0 -27 -4 -45.5t-10 -35.5h-58z" />
    <glyph glyph-name="Egrave" unicode="&#xc8;" horiz-adv-x="535" 
d="M247 865h83l66 -123h-61zM136 700h406l-6 -59h-342l-27 -256h295l-7 -60h-295l-27 -266h342l-7 -59h-406z" />
    <glyph glyph-name="Eacute" unicode="&#xc9;" horiz-adv-x="535" 
d="M391 865h85l-113 -123h-63zM136 700h406l-6 -59h-342l-27 -256h295l-7 -60h-295l-27 -266h342l-7 -59h-406z" />
    <glyph glyph-name="Ecircumflex" unicode="&#xca;" horiz-adv-x="535" 
d="M331 865h71l71 -123h-59l-53 77l-70 -77h-57zM136 700h406l-6 -59h-342l-27 -256h295l-7 -60h-295l-27 -266h342l-7 -59h-406z" />
    <glyph glyph-name="Edieresis" unicode="&#xcb;" horiz-adv-x="535" 
d="M266 756q-20 0 -32 12.5t-12 30.5q0 23 13.5 38.5t35.5 15.5q20 0 32 -12.5t12 -32.5q0 -24 -13.5 -38t-35.5 -14zM448 756q-20 0 -32.5 11t-12.5 33q0 23 14.5 38t36.5 15q20 0 31.5 -12.5t11.5 -31.5q0 -25 -13 -39t-36 -14zM136 700h406l-6 -59h-342l-27 -256h295
l-7 -60h-295l-27 -266h342l-7 -59h-406z" />
    <glyph glyph-name="Igrave" unicode="&#xcc;" horiz-adv-x="238" 
d="M66 865h83l66 -123h-61zM136 700h64l-74 -700h-64z" />
    <glyph glyph-name="Iacute" unicode="&#xcd;" horiz-adv-x="238" 
d="M210 865h85l-113 -123h-63zM136 700h64l-74 -700h-64z" />
    <glyph glyph-name="Icircumflex" unicode="&#xce;" horiz-adv-x="238" 
d="M150 865h71l71 -123h-59l-53 77l-70 -77h-57zM136 700h64l-74 -700h-64z" />
    <glyph glyph-name="Idieresis" unicode="&#xcf;" horiz-adv-x="238" 
d="M85 756q-20 0 -32 12.5t-12 30.5q0 23 13.5 38.5t35.5 15.5q20 0 32 -12.5t12 -32.5q0 -24 -13.5 -38t-35.5 -14zM267 756q-20 0 -32.5 11t-12.5 33q0 23 14.5 38t36.5 15q20 0 31.5 -12.5t11.5 -31.5q0 -25 -13 -39t-36 -14zM136 700h64l-74 -700h-64z" />
    <glyph glyph-name="Eth" unicode="&#xd0;" horiz-adv-x="683" 
d="M336 700q65 0 119.5 -18t93.5 -54.5t61 -93.5t22 -135q0 -103 -29 -178.5t-79 -124.5t-116 -72.5t-141 -23.5h-194l34 323h-91l6 56h91l34 321h189zM269 57q66 0 120.5 20t93.5 61t60.5 104t21.5 150q0 65 -17.5 112.5t-49 78.5t-75 45.5t-96.5 14.5h-123l-27 -264h96
l-6 -56h-96l-28 -266h126z" />
    <glyph glyph-name="Ntilde" unicode="&#xd1;" horiz-adv-x="644" 
d="M256 749q-6 12 -6 32q0 30 20.5 51t54.5 21q20 0 36 -7t30 -16t27 -16t28 -7q12 0 20 8t8 25q0 12 -4 17h50q2 -6 3 -14t1 -17q0 -31 -19.5 -52.5t-59.5 -21.5q-21 0 -36.5 7.5t-29 16t-25.5 16t-25 7.5q-11 0 -19.5 -8.5t-8.5 -22.5q0 -11 4 -19h-49zM136 700h56
l280 -571l9 -24l63 595h62l-75 -700h-57l-282 570l-8 22l-61 -592h-61z" />
    <glyph glyph-name="Ograve" unicode="&#xd2;" horiz-adv-x="677" 
d="M286 865h83l66 -123h-61zM323 -6q-53 0 -101.5 16t-85 51.5t-58.5 92t-22 137.5q0 113 27 191.5t72 128.5t104 72.5t123 22.5q51 0 98.5 -17t83.5 -53t58 -93t22 -137q0 -112 -26 -190.5t-70.5 -127.5t-102.5 -71.5t-122 -22.5zM329 49q50 0 95 19t79 61.5t54 110
t20 163.5q0 68 -17 115t-45 76.5t-64.5 43t-74.5 13.5q-50 0 -95.5 -19.5t-80.5 -62t-56 -110.5t-21 -164q0 -69 17 -116t45.5 -76t66 -41.5t77.5 -12.5z" />
    <glyph glyph-name="Oacute" unicode="&#xd3;" horiz-adv-x="677" 
d="M430 865h85l-113 -123h-63zM323 -6q-53 0 -101.5 16t-85 51.5t-58.5 92t-22 137.5q0 113 27 191.5t72 128.5t104 72.5t123 22.5q51 0 98.5 -17t83.5 -53t58 -93t22 -137q0 -112 -26 -190.5t-70.5 -127.5t-102.5 -71.5t-122 -22.5zM329 49q50 0 95 19t79 61.5t54 110
t20 163.5q0 68 -17 115t-45 76.5t-64.5 43t-74.5 13.5q-50 0 -95.5 -19.5t-80.5 -62t-56 -110.5t-21 -164q0 -69 17 -116t45.5 -76t66 -41.5t77.5 -12.5z" />
    <glyph glyph-name="Ocircumflex" unicode="&#xd4;" horiz-adv-x="677" 
d="M370 865h71l71 -123h-59l-53 77l-70 -77h-57zM323 -6q-53 0 -101.5 16t-85 51.5t-58.5 92t-22 137.5q0 113 27 191.5t72 128.5t104 72.5t123 22.5q51 0 98.5 -17t83.5 -53t58 -93t22 -137q0 -112 -26 -190.5t-70.5 -127.5t-102.5 -71.5t-122 -22.5zM329 49q50 0 95 19
t79 61.5t54 110t20 163.5q0 68 -17 115t-45 76.5t-64.5 43t-74.5 13.5q-50 0 -95.5 -19.5t-80.5 -62t-56 -110.5t-21 -164q0 -69 17 -116t45.5 -76t66 -41.5t77.5 -12.5z" />
    <glyph glyph-name="Otilde" unicode="&#xd5;" horiz-adv-x="677" 
d="M263 749q-6 12 -6 32q0 30 20.5 51t54.5 21q20 0 36 -7t30 -16t27 -16t28 -7q12 0 20 8t8 25q0 12 -4 17h50q2 -6 3 -14t1 -17q0 -31 -19.5 -52.5t-59.5 -21.5q-21 0 -36.5 7.5t-29 16t-25.5 16t-25 7.5q-11 0 -19.5 -8.5t-8.5 -22.5q0 -11 4 -19h-49zM323 -6
q-53 0 -101.5 16t-85 51.5t-58.5 92t-22 137.5q0 113 27 191.5t72 128.5t104 72.5t123 22.5q51 0 98.5 -17t83.5 -53t58 -93t22 -137q0 -112 -26 -190.5t-70.5 -127.5t-102.5 -71.5t-122 -22.5zM329 49q50 0 95 19t79 61.5t54 110t20 163.5q0 68 -17 115t-45 76.5t-64.5 43
t-74.5 13.5q-50 0 -95.5 -19.5t-80.5 -62t-56 -110.5t-21 -164q0 -69 17 -116t45.5 -76t66 -41.5t77.5 -12.5z" />
    <glyph glyph-name="Odieresis" unicode="&#xd6;" horiz-adv-x="677" 
d="M304 756q-20 0 -32 12.5t-12 30.5q0 23 13.5 38.5t35.5 15.5q20 0 32 -12.5t12 -32.5q0 -24 -13.5 -38t-35.5 -14zM486 756q-20 0 -32.5 11t-12.5 33q0 23 14.5 38t36.5 15q20 0 31.5 -12.5t11.5 -31.5q0 -25 -13 -39t-36 -14zM323 -6q-53 0 -101.5 16t-85 51.5t-58.5 92
t-22 137.5q0 113 27 191.5t72 128.5t104 72.5t123 22.5q51 0 98.5 -17t83.5 -53t58 -93t22 -137q0 -112 -26 -190.5t-70.5 -127.5t-102.5 -71.5t-122 -22.5zM329 49q50 0 95 19t79 61.5t54 110t20 163.5q0 68 -17 115t-45 76.5t-64.5 43t-74.5 13.5q-50 0 -95.5 -19.5
t-80.5 -62t-56 -110.5t-21 -164q0 -69 17 -116t45.5 -76t66 -41.5t77.5 -12.5z" />
    <glyph glyph-name="multiply" unicode="&#xd7;" horiz-adv-x="422" 
d="M41 136l134 125l-105 124l41 36l104 -125l130 125l36 -38l-131 -125l107 -125l-40 -36l-107 126l-133 -126z" />
    <glyph glyph-name="Oslash" unicode="&#xd8;" horiz-adv-x="677" 
d="M580 618q29 -36 46.5 -88.5t17.5 -123.5q0 -112 -26 -190.5t-70.5 -127.5t-102.5 -71.5t-122 -22.5q-47 0 -90 12.5t-78 39.5l-46 -62h-64l73 98q-29 35 -45.5 86.5t-16.5 122.5q0 113 27 191.5t72 128.5t104 72.5t123 22.5q45 0 86 -12.5t76 -39.5l46 62h63zM123 295
q0 -51 9.5 -90t26.5 -68l347 466q-27 26 -61 37t-69 11q-50 0 -95.5 -19.5t-80.5 -62t-56 -110.5t-21 -164zM577 403q0 52 -10 91.5t-28 68.5l-347 -467q29 -25 64 -36t73 -11q50 0 95 19t79 61.5t54 110t20 163.5z" />
    <glyph glyph-name="Ugrave" unicode="&#xd9;" horiz-adv-x="642" 
d="M269 865h83l66 -123h-61zM298 -6q-52 0 -95.5 14.5t-72.5 48t-42 89.5t-4 140l43 414h65l-44 -418q-7 -63 1 -107t28 -71.5t52 -40.5t74 -13q41 0 75.5 12t60.5 39t43 71.5t24 109.5l44 418h61l-43 -414q-9 -86 -33 -142.5t-59.5 -89.5t-80.5 -46.5t-97 -13.5z" />
    <glyph glyph-name="Uacute" unicode="&#xda;" horiz-adv-x="642" 
d="M413 865h85l-113 -123h-63zM298 -6q-52 0 -95.5 14.5t-72.5 48t-42 89.5t-4 140l43 414h65l-44 -418q-7 -63 1 -107t28 -71.5t52 -40.5t74 -13q41 0 75.5 12t60.5 39t43 71.5t24 109.5l44 418h61l-43 -414q-9 -86 -33 -142.5t-59.5 -89.5t-80.5 -46.5t-97 -13.5z" />
    <glyph glyph-name="Ucircumflex" unicode="&#xdb;" horiz-adv-x="642" 
d="M353 865h71l71 -123h-59l-53 77l-70 -77h-57zM298 -6q-52 0 -95.5 14.5t-72.5 48t-42 89.5t-4 140l43 414h65l-44 -418q-7 -63 1 -107t28 -71.5t52 -40.5t74 -13q41 0 75.5 12t60.5 39t43 71.5t24 109.5l44 418h61l-43 -414q-9 -86 -33 -142.5t-59.5 -89.5t-80.5 -46.5
t-97 -13.5z" />
    <glyph glyph-name="Udieresis" unicode="&#xdc;" horiz-adv-x="642" 
d="M288 756q-20 0 -32 12.5t-12 30.5q0 23 13.5 38.5t35.5 15.5q20 0 32 -12.5t12 -32.5q0 -24 -13.5 -38t-35.5 -14zM470 756q-20 0 -32.5 11t-12.5 33q0 23 14.5 38t36.5 15q20 0 31.5 -12.5t11.5 -31.5q0 -25 -13 -39t-36 -14zM298 -6q-52 0 -95.5 14.5t-72.5 48
t-42 89.5t-4 140l43 414h65l-44 -418q-7 -63 1 -107t28 -71.5t52 -40.5t74 -13q41 0 75.5 12t60.5 39t43 71.5t24 109.5l44 418h61l-43 -414q-9 -86 -33 -142.5t-59.5 -89.5t-80.5 -46.5t-97 -13.5z" />
    <glyph glyph-name="Yacute" unicode="&#xdd;" horiz-adv-x="560" 
d="M373 865h85l-113 -123h-63zM255 293l-186 407h73l151 -345l223 345h74l-272 -407l-31 -293h-63z" />
    <glyph glyph-name="Thorn" unicode="&#xde;" horiz-adv-x="568" 
d="M136 700h64l-14 -128h143q100 0 155.5 -47.5t55.5 -143.5q0 -62 -19 -107.5t-53 -75.5t-80.5 -44.5t-100.5 -14.5h-146l-15 -139h-64zM285 195q94 0 141.5 47.5t47.5 132.5q0 64 -37.5 103t-117.5 39h-139l-33 -322h138z" />
    <glyph glyph-name="germandbls" unicode="&#xdf;" horiz-adv-x="524" 
d="M304 -12q-38 0 -73 10t-59 35l33 48q18 -20 43 -29.5t60 -9.5q63 0 90 25t27 68q0 29 -13 46t-33 29t-42.5 21.5t-42.5 22.5t-33 33t-13 53q0 32 12 55t30 41t39.5 33.5t39.5 33t30 39t12 51.5q0 42 -26.5 63.5t-70.5 21.5q-56 0 -89.5 -36.5t-41.5 -109.5l-56 -532h-63
l45 430h-67l6 52h67l5 56q10 91 64 142.5t139 51.5q69 0 110 -35.5t41 -99.5q0 -38 -12 -65t-30 -47t-39 -35.5t-39 -30t-30 -30t-12 -36.5q0 -22 13 -36t32.5 -25t42.5 -22t42.5 -26.5t32.5 -39t13 -60.5q0 -70 -46 -113t-138 -43z" />
    <glyph glyph-name="agrave" unicode="&#xe0;" horiz-adv-x="516" 
d="M179 720h75l65 -162h-56zM205 -12q-79 0 -122 57.5t-43 154.5q0 64 16 117.5t45 92.5t71 61t94 22q48 0 82.5 -21t51.5 -59l7 69h57l-40 -380q-3 -29 4.5 -42.5t30.5 -11.5l-5 -47q-5 -2 -13 -2.5t-16 -0.5q-32 0 -48 19t-14 53l2 14q-23 -42 -62.5 -69t-97.5 -27z
M225 41q48 0 87 32.5t56 85.5l18 173q-7 45 -36.5 76.5t-80.5 31.5q-38 0 -68.5 -17.5t-52 -48.5t-33 -74t-11.5 -95q0 -76 31 -120t90 -44z" />
    <glyph glyph-name="aacute" unicode="&#xe1;" horiz-adv-x="516" 
d="M343 720h78l-118 -162h-57zM205 -12q-79 0 -122 57.5t-43 154.5q0 64 16 117.5t45 92.5t71 61t94 22q48 0 82.5 -21t51.5 -59l7 69h57l-40 -380q-3 -29 4.5 -42.5t30.5 -11.5l-5 -47q-5 -2 -13 -2.5t-16 -0.5q-32 0 -48 19t-14 53l2 14q-23 -42 -62.5 -69t-97.5 -27z
M225 41q48 0 87 32.5t56 85.5l18 173q-7 45 -36.5 76.5t-80.5 31.5q-38 0 -68.5 -17.5t-52 -48.5t-33 -74t-11.5 -95q0 -76 31 -120t90 -44z" />
    <glyph glyph-name="acircumflex" unicode="&#xe2;" horiz-adv-x="516" 
d="M273 720h68l67 -162h-57l-49 114l-73 -114h-57zM205 -12q-79 0 -122 57.5t-43 154.5q0 64 16 117.5t45 92.5t71 61t94 22q48 0 82.5 -21t51.5 -59l7 69h57l-40 -380q-3 -29 4.5 -42.5t30.5 -11.5l-5 -47q-5 -2 -13 -2.5t-16 -0.5q-32 0 -48 19t-14 53l2 14
q-23 -42 -62.5 -69t-97.5 -27zM225 41q48 0 87 32.5t56 85.5l18 173q-7 45 -36.5 76.5t-80.5 31.5q-38 0 -68.5 -17.5t-52 -48.5t-33 -74t-11.5 -95q0 -76 31 -120t90 -44z" />
    <glyph glyph-name="atilde" unicode="&#xe3;" horiz-adv-x="516" 
d="M166 583q-5 15 -5 33q0 29 19 50t57 21q20 0 35.5 -7t29 -16t26 -16t26.5 -7q29 0 29 32q0 14 -4 19h50q5 -13 5 -30q0 -32 -19 -53t-56 -21q-22 0 -39 7t-30 15.5t-24 15.5t-23 7q-31 0 -31 -31q0 -11 3 -19h-49zM205 -12q-79 0 -122 57.5t-43 154.5q0 64 16 117.5
t45 92.5t71 61t94 22q48 0 82.5 -21t51.5 -59l7 69h57l-40 -380q-3 -29 4.5 -42.5t30.5 -11.5l-5 -47q-5 -2 -13 -2.5t-16 -0.5q-32 0 -48 19t-14 53l2 14q-23 -42 -62.5 -69t-97.5 -27zM225 41q48 0 87 32.5t56 85.5l18 173q-7 45 -36.5 76.5t-80.5 31.5q-38 0 -68.5 -17.5
t-52 -48.5t-33 -74t-11.5 -95q0 -76 31 -120t90 -44z" />
    <glyph glyph-name="adieresis" unicode="&#xe4;" horiz-adv-x="516" 
d="M214 589q-20 0 -31 12t-11 31q0 21 13 36t37 15q21 0 31.5 -12.5t10.5 -30.5q0 -21 -12.5 -36t-37.5 -15zM378 589q-20 0 -31 12t-11 31q0 21 13 36t37 15q20 0 31 -12.5t11 -30.5q0 -21 -13 -36t-37 -15zM205 -12q-79 0 -122 57.5t-43 154.5q0 64 16 117.5t45 92.5
t71 61t94 22q48 0 82.5 -21t51.5 -59l7 69h57l-40 -380q-3 -29 4.5 -42.5t30.5 -11.5l-5 -47q-5 -2 -13 -2.5t-16 -0.5q-32 0 -48 19t-14 53l2 14q-23 -42 -62.5 -69t-97.5 -27zM225 41q48 0 87 32.5t56 85.5l18 173q-7 45 -36.5 76.5t-80.5 31.5q-38 0 -68.5 -17.5
t-52 -48.5t-33 -74t-11.5 -95q0 -76 31 -120t90 -44z" />
    <glyph glyph-name="aring" unicode="&#xe5;" horiz-adv-x="516" 
d="M292 532q-41 0 -65.5 25.5t-24.5 64.5q0 46 30 77.5t75 31.5q40 0 64.5 -25.5t24.5 -64.5q0 -46 -29.5 -77.5t-74.5 -31.5zM296 579q23 0 38 16t15 42q0 20 -11.5 33.5t-33.5 13.5q-24 0 -39.5 -16t-15.5 -42q0 -22 12 -34.5t35 -12.5zM205 -12q-79 0 -122 57.5
t-43 154.5q0 64 16 117.5t45 92.5t71 61t94 22q48 0 82.5 -21t51.5 -59l7 69h57l-40 -380q-3 -29 4.5 -42.5t30.5 -11.5l-5 -47q-5 -2 -13 -2.5t-16 -0.5q-32 0 -48 19t-14 53l2 14q-23 -42 -62.5 -69t-97.5 -27zM225 41q48 0 87 32.5t56 85.5l18 173q-7 45 -36.5 76.5
t-80.5 31.5q-38 0 -68.5 -17.5t-52 -48.5t-33 -74t-11.5 -95q0 -76 31 -120t90 -44z" />
    <glyph glyph-name="ae" unicode="&#xe6;" horiz-adv-x="758" 
d="M567 493q81 0 119.5 -49.5t36.5 -137.5q0 -29 -2 -41t-4 -21h-313q-1 -10 -1.5 -19t-0.5 -19q0 -80 32.5 -122t95.5 -42q46 0 77 18t54 49l36 -31q-27 -39 -71 -64.5t-104 -25.5q-69 0 -111.5 33.5t-59.5 94.5q-40 -70 -90.5 -98t-109.5 -28q-61 0 -95.5 29.5t-34.5 82.5
q0 69 48 106t140 37h130l9 77q6 57 -19 87t-81 30q-59 0 -89 -27t-30 -76q0 -22 5 -35h-57q-7 16 -7 41q0 34 13.5 61.5t38 47.5t58.5 31t76 11q60 0 96 -23.5t50 -64.5q30 42 72 65t93 23zM661 293q3 31 -1 57.5t-15.5 46.5t-32.5 31.5t-53 11.5t-56.5 -11.5t-43 -31.5
t-30.5 -47t-18 -57h250zM166 41q55 0 97.5 34t68.5 97l3 27l-132 -1q-59 0 -87.5 -22.5t-28.5 -64.5q0 -34 21.5 -52t57.5 -18z" />
    <glyph glyph-name="ccedilla" unicode="&#xe7;" horiz-adv-x="450" 
d="M356 298q3 9 6.5 24.5t3.5 29.5q0 46 -27 67t-72 21q-72 0 -116.5 -63.5t-44.5 -177.5q0 -78 34 -117.5t92 -39.5q48 0 78.5 19t51.5 49l37 -33q-24 -35 -61.5 -60t-94.5 -28l-11 -26q30 -7 48.5 -24.5t18.5 -49.5q0 -42 -29.5 -60.5t-69.5 -18.5q-53 0 -83 30l29 36
q21 -21 50 -21q43 0 43 36q0 17 -17 27t-50 11l28 60q-75 8 -117 60t-42 147q0 69 17 124t47 93.5t72 59t92 20.5q74 0 114 -33.5t40 -95.5q0 -20 -4 -37.5t-8 -28.5h-55z" />
    <glyph glyph-name="egrave" unicode="&#xe8;" horiz-adv-x="451" 
d="M238 558l-84 162h75l65 -162h-56zM225 42q48 0 79 18t57 51l38 -33q-67 -90 -184 -90q-83 0 -130 53t-47 153q0 65 18.5 120t51 94.5t78 62t99.5 22.5q65 0 100.5 -32.5t35.5 -89.5t-29 -91.5t-75 -53t-102.5 -25.5t-111.5 -10q3 -75 35 -112t87 -37zM278 440
q-33 0 -62.5 -14.5t-52.5 -40.5t-38 -63t-20 -82q42 2 86.5 7t82 18t61.5 36.5t24 63.5q0 75 -81 75z" />
    <glyph glyph-name="eacute" unicode="&#xe9;" horiz-adv-x="451" 
d="M278 558h-57l97 162h78zM225 42q48 0 79 18t57 51l38 -33q-67 -90 -184 -90q-83 0 -130 53t-47 153q0 65 18.5 120t51 94.5t78 62t99.5 22.5q65 0 100.5 -32.5t35.5 -89.5t-29 -91.5t-75 -53t-102.5 -25.5t-111.5 -10q3 -75 35 -112t87 -37zM278 440q-33 0 -62.5 -14.5
t-52.5 -40.5t-38 -63t-20 -82q42 2 86.5 7t82 18t61.5 36.5t24 63.5q0 75 -81 75z" />
    <glyph glyph-name="ecircumflex" unicode="&#xea;" horiz-adv-x="451" 
d="M205 558h-57l101 162h68l67 -162h-57l-49 114zM225 42q48 0 79 18t57 51l38 -33q-67 -90 -184 -90q-83 0 -130 53t-47 153q0 65 18.5 120t51 94.5t78 62t99.5 22.5q65 0 100.5 -32.5t35.5 -89.5t-29 -91.5t-75 -53t-102.5 -25.5t-111.5 -10q3 -75 35 -112t87 -37z
M278 440q-33 0 -62.5 -14.5t-52.5 -40.5t-38 -63t-20 -82q42 2 86.5 7t82 18t61.5 36.5t24 63.5q0 75 -81 75z" />
    <glyph glyph-name="edieresis" unicode="&#xeb;" horiz-adv-x="451" 
d="M189 589q-20 0 -31 12t-11 31q0 21 13 36t37 15q21 0 31.5 -12.5t10.5 -30.5q0 -21 -12.5 -36t-37.5 -15zM353 589q-20 0 -31 12t-11 31q0 21 13 36t37 15q20 0 31 -12.5t11 -30.5q0 -21 -13 -36t-37 -15zM225 42q48 0 79 18t57 51l38 -33q-67 -90 -184 -90
q-83 0 -130 53t-47 153q0 65 18.5 120t51 94.5t78 62t99.5 22.5q65 0 100.5 -32.5t35.5 -89.5t-29 -91.5t-75 -53t-102.5 -25.5t-111.5 -10q3 -75 35 -112t87 -37zM278 440q-33 0 -62.5 -14.5t-52.5 -40.5t-38 -63t-20 -82q42 2 86.5 7t82 18t61.5 36.5t24 63.5q0 75 -81 75
z" />
    <glyph glyph-name="igrave" unicode="&#xec;" horiz-adv-x="212" 
d="M25 720h75l65 -162h-56zM121 -2q-37 0 -53.5 23t-11.5 67l41 394h63l-40 -384q-3 -26 4.5 -38.5t30.5 -12.5l-5 -46q-7 -3 -29 -3z" />
    <glyph glyph-name="iacute" unicode="&#xed;" horiz-adv-x="212" 
d="M189 720h78l-118 -162h-57zM121 -2q-37 0 -53.5 23t-11.5 67l41 394h63l-40 -384q-3 -26 4.5 -38.5t30.5 -12.5l-5 -46q-7 -3 -29 -3z" />
    <glyph glyph-name="icircumflex" unicode="&#xee;" horiz-adv-x="212" 
d="M119 720h68l67 -162h-57l-49 114l-73 -114h-57zM121 -2q-37 0 -53.5 23t-11.5 67l41 394h63l-40 -384q-3 -26 4.5 -38.5t30.5 -12.5l-5 -46q-7 -3 -29 -3z" />
    <glyph glyph-name="idieresis" unicode="&#xef;" horiz-adv-x="212" 
d="M59 589q-20 0 -31 12t-11 31q0 21 13 36t37 15q21 0 31.5 -12.5t10.5 -30.5q0 -21 -12.5 -36t-37.5 -15zM223 589q-20 0 -31 12t-11 31q0 21 13 36t37 15q20 0 31 -12.5t11 -30.5q0 -21 -13 -36t-37 -15zM121 -2q-37 0 -53.5 23t-11.5 67l41 394h63l-40 -384
q-3 -26 4.5 -38.5t30.5 -12.5l-5 -46q-7 -3 -29 -3z" />
    <glyph glyph-name="eth" unicode="&#xf0;" horiz-adv-x="510" 
d="M405 620q33 -42 50.5 -101t17.5 -135q0 -192 -67 -294t-188 -102q-84 0 -132 52.5t-48 148.5q0 61 17.5 109.5t48.5 82.5t72 52.5t89 18.5q57 0 94.5 -23.5t54.5 -59.5q0 142 -60 220l-128 -79l-21 42l117 70q-63 54 -161 54l6 54q63 -2 115.5 -21t91.5 -55l102 61
l20 -39zM226 41q39 0 71 18.5t55.5 53t38 83t18.5 108.5q-22 45 -57 70t-86 25q-36 0 -66 -14t-52.5 -40t-35 -64t-12.5 -86q0 -74 34.5 -114t91.5 -40z" />
    <glyph glyph-name="ntilde" unicode="&#xf1;" horiz-adv-x="514" 
d="M165 583q-5 15 -5 33q0 29 19 50t57 21q20 0 35.5 -7t29 -16t26 -16t26.5 -7q29 0 29 32q0 14 -4 19h50q5 -13 5 -30q0 -32 -19 -53t-56 -21q-22 0 -39 7t-30 15.5t-24 15.5t-23 7q-31 0 -31 -31q0 -11 3 -19h-49zM430 -2q-38 0 -54 23.5t-11 65.5l23 218q7 66 -18.5 100
t-80.5 34q-29 0 -54 -12t-44 -33.5t-31.5 -50.5t-15.5 -63l-29 -280h-63l40 386q4 30 -4.5 41t-29.5 11l5 46q9 3 29 3q33 0 47 -19.5t12 -57.5l-2 -23q23 51 64.5 78.5t95.5 27.5q76 0 114 -49t28 -139l-21 -206q-4 -30 4 -41t30 -11l-5 -46q-10 -3 -29 -3z" />
    <glyph glyph-name="ograve" unicode="&#xf2;" horiz-adv-x="498" 
d="M169 720h75l65 -162h-56zM231 -12q-91 0 -140.5 56t-49.5 159q0 69 17 123t48 91t73 56.5t92 19.5q88 0 137.5 -56t49.5 -159q0 -69 -17 -122.5t-47.5 -91t-72 -57t-90.5 -19.5zM235 41q33 0 62 15t50.5 44.5t34 73t12.5 101.5q0 82 -34.5 123.5t-94.5 41.5
q-33 0 -62.5 -14.5t-51 -44t-34 -73t-12.5 -101.5q0 -83 34.5 -124.5t95.5 -41.5z" />
    <glyph glyph-name="oacute" unicode="&#xf3;" horiz-adv-x="498" 
d="M333 720h78l-118 -162h-57zM231 -12q-91 0 -140.5 56t-49.5 159q0 69 17 123t48 91t73 56.5t92 19.5q88 0 137.5 -56t49.5 -159q0 -69 -17 -122.5t-47.5 -91t-72 -57t-90.5 -19.5zM235 41q33 0 62 15t50.5 44.5t34 73t12.5 101.5q0 82 -34.5 123.5t-94.5 41.5
q-33 0 -62.5 -14.5t-51 -44t-34 -73t-12.5 -101.5q0 -83 34.5 -124.5t95.5 -41.5z" />
    <glyph glyph-name="ocircumflex" unicode="&#xf4;" horiz-adv-x="498" 
d="M264 720h68l67 -162h-57l-49 114l-73 -114h-57zM231 -12q-91 0 -140.5 56t-49.5 159q0 69 17 123t48 91t73 56.5t92 19.5q88 0 137.5 -56t49.5 -159q0 -69 -17 -122.5t-47.5 -91t-72 -57t-90.5 -19.5zM235 41q33 0 62 15t50.5 44.5t34 73t12.5 101.5q0 82 -34.5 123.5
t-94.5 41.5q-33 0 -62.5 -14.5t-51 -44t-34 -73t-12.5 -101.5q0 -83 34.5 -124.5t95.5 -41.5z" />
    <glyph glyph-name="otilde" unicode="&#xf5;" horiz-adv-x="498" 
d="M157 583q-5 15 -5 33q0 29 19 50t57 21q20 0 35.5 -7t29 -16t26 -16t26.5 -7q29 0 29 32q0 14 -4 19h50q5 -13 5 -30q0 -32 -19 -53t-56 -21q-22 0 -39 7t-30 15.5t-24 15.5t-23 7q-31 0 -31 -31q0 -11 3 -19h-49zM231 -12q-91 0 -140.5 56t-49.5 159q0 69 17 123t48 91
t73 56.5t92 19.5q88 0 137.5 -56t49.5 -159q0 -69 -17 -122.5t-47.5 -91t-72 -57t-90.5 -19.5zM235 41q33 0 62 15t50.5 44.5t34 73t12.5 101.5q0 82 -34.5 123.5t-94.5 41.5q-33 0 -62.5 -14.5t-51 -44t-34 -73t-12.5 -101.5q0 -83 34.5 -124.5t95.5 -41.5z" />
    <glyph glyph-name="odieresis" unicode="&#xf6;" horiz-adv-x="498" 
d="M204 589q-20 0 -31 12t-11 31q0 21 13 36t37 15q21 0 31.5 -12.5t10.5 -30.5q0 -21 -12.5 -36t-37.5 -15zM368 589q-20 0 -31 12t-11 31q0 21 13 36t37 15q20 0 31 -12.5t11 -30.5q0 -21 -13 -36t-37 -15zM231 -12q-91 0 -140.5 56t-49.5 159q0 69 17 123t48 91t73 56.5
t92 19.5q88 0 137.5 -56t49.5 -159q0 -69 -17 -122.5t-47.5 -91t-72 -57t-90.5 -19.5zM235 41q33 0 62 15t50.5 44.5t34 73t12.5 101.5q0 82 -34.5 123.5t-94.5 41.5q-33 0 -62.5 -14.5t-51 -44t-34 -73t-12.5 -101.5q0 -83 34.5 -124.5t95.5 -41.5z" />
    <glyph glyph-name="divide" unicode="&#xf7;" horiz-adv-x="429" 
d="M228 351q-20 0 -33 14t-13 35q0 23 17 39.5t40 16.5q19 0 32.5 -13.5t13.5 -33.5q0 -23 -17 -40.5t-40 -17.5zM55 290h330l-6 -51h-330zM201 65q-20 0 -34 14t-14 36q0 23 17.5 40t40.5 17q20 0 33.5 -14t13.5 -35q0 -23 -17 -40.5t-40 -17.5z" />
    <glyph glyph-name="oslash" unicode="&#xf8;" horiz-adv-x="498" 
d="M414 429q44 -55 44 -151q0 -69 -17 -122.5t-47.5 -91t-72 -57t-90.5 -19.5q-67 0 -113 32l-30 -41h-57l53 73q-43 57 -43 151q0 69 17 123t48 91t73 56.5t92 19.5q66 0 110 -32l30 41h56zM105 207q0 -59 19 -100l222 305q-31 28 -81 28q-33 0 -62.5 -14.5t-51 -44
t-34 -73t-12.5 -101.5zM394 275q0 61 -20 99l-221 -305q31 -28 82 -28q33 0 62 15t50.5 44.5t34 73t12.5 101.5z" />
    <glyph glyph-name="ugrave" unicode="&#xf9;" horiz-adv-x="506" 
d="M174 720h75l65 -162h-56zM193 -12q-71 0 -108.5 42t-27.5 129l34 323h62l-33 -316q-7 -69 20 -96.5t76 -27.5q33 0 58.5 14.5t44 36t29 47.5t13.5 49l31 293h63l-41 -382q-3 -29 4.5 -41t30.5 -12l-6 -46q-2 -1 -9 -2t-20 -1q-33 0 -48.5 19t-10.5 56l3 22
q-11 -21 -26 -40t-35 -34t-45.5 -24t-58.5 -9z" />
    <glyph glyph-name="uacute" unicode="&#xfa;" horiz-adv-x="506" 
d="M338 720h78l-118 -162h-57zM193 -12q-71 0 -108.5 42t-27.5 129l34 323h62l-33 -316q-7 -69 20 -96.5t76 -27.5q33 0 58.5 14.5t44 36t29 47.5t13.5 49l31 293h63l-41 -382q-3 -29 4.5 -41t30.5 -12l-6 -46q-2 -1 -9 -2t-20 -1q-33 0 -48.5 19t-10.5 56l3 22
q-11 -21 -26 -40t-35 -34t-45.5 -24t-58.5 -9z" />
    <glyph glyph-name="ucircumflex" unicode="&#xfb;" horiz-adv-x="506" 
d="M268 720h68l67 -162h-57l-49 114l-73 -114h-57zM193 -12q-71 0 -108.5 42t-27.5 129l34 323h62l-33 -316q-7 -69 20 -96.5t76 -27.5q33 0 58.5 14.5t44 36t29 47.5t13.5 49l31 293h63l-41 -382q-3 -29 4.5 -41t30.5 -12l-6 -46q-2 -1 -9 -2t-20 -1q-33 0 -48.5 19
t-10.5 56l3 22q-11 -21 -26 -40t-35 -34t-45.5 -24t-58.5 -9z" />
    <glyph glyph-name="udieresis" unicode="&#xfc;" horiz-adv-x="506" 
d="M209 589q-20 0 -31 12t-11 31q0 21 13 36t37 15q21 0 31.5 -12.5t10.5 -30.5q0 -21 -12.5 -36t-37.5 -15zM373 589q-20 0 -31 12t-11 31q0 21 13 36t37 15q20 0 31 -12.5t11 -30.5q0 -21 -13 -36t-37 -15zM193 -12q-71 0 -108.5 42t-27.5 129l34 323h62l-33 -316
q-7 -69 20 -96.5t76 -27.5q33 0 58.5 14.5t44 36t29 47.5t13.5 49l31 293h63l-41 -382q-3 -29 4.5 -41t30.5 -12l-6 -46q-2 -1 -9 -2t-20 -1q-33 0 -48.5 19t-10.5 56l3 22q-11 -21 -26 -40t-35 -34t-45.5 -24t-58.5 -9z" />
    <glyph glyph-name="yacute" unicode="&#xfd;" horiz-adv-x="497" 
d="M333 720h78l-118 -162h-57zM186 -247q-73 0 -113.5 26t-55.5 68l47 32q15 -34 44.5 -53t83.5 -19q62 0 100 36.5t45 101.5l16 155q-22 -50 -65.5 -78.5t-98.5 -28.5q-149 0 -132 170l34 319h63l-33 -312q-13 -123 93 -123q26 0 51 12.5t45.5 33.5t34 49.5t16.5 59.5
l29 280h63l-56 -541q-10 -87 -66.5 -137.5t-144.5 -50.5z" />
    <glyph glyph-name="thorn" unicode="&#xfe;" horiz-adv-x="507" 
d="M120 726h63l-33 -324q23 44 63.5 67t91.5 23q77 0 120 -56t43 -153q0 -66 -16.5 -120t-45.5 -92.5t-69.5 -59.5t-87.5 -21q-48 0 -84 21.5t-50 56.5l-32 -302h-63zM246 43q72 0 115 62.5t43 171.5q0 77 -32 119t-88 42q-51 0 -88.5 -32.5t-54.5 -83.5l-18 -172
q8 -47 39 -77t84 -30z" />
    <glyph glyph-name="ydieresis" unicode="&#xff;" horiz-adv-x="497" 
d="M204 589q-20 0 -31 12t-11 31q0 21 13 36t37 15q21 0 31.5 -12.5t10.5 -30.5q0 -21 -12.5 -36t-37.5 -15zM368 589q-20 0 -31 12t-11 31q0 21 13 36t37 15q20 0 31 -12.5t11 -30.5q0 -21 -13 -36t-37 -15zM186 -247q-73 0 -113.5 26t-55.5 68l47 32q15 -34 44.5 -53
t83.5 -19q62 0 100 36.5t45 101.5l16 155q-22 -50 -65.5 -78.5t-98.5 -28.5q-149 0 -132 170l34 319h63l-33 -312q-13 -123 93 -123q26 0 51 12.5t45.5 33.5t34 49.5t16.5 59.5l29 280h63l-56 -541q-10 -87 -66.5 -137.5t-144.5 -50.5z" />
    <glyph glyph-name="Amacron" unicode="&#x100;" horiz-adv-x="594" 
d="M475 772h-240l5 54h240zM440 208h-291l-95 -208h-65l324 700h66l176 -700h-65zM427 262l-87 363l-166 -363h253z" />
    <glyph glyph-name="amacron" unicode="&#x101;" horiz-adv-x="516" 
d="M187 662h233l-6 -52h-233zM205 -12q-79 0 -122 57.5t-43 154.5q0 64 16 117.5t45 92.5t71 61t94 22q48 0 82.5 -21t51.5 -59l7 69h57l-40 -380q-3 -29 4.5 -42.5t30.5 -11.5l-5 -47q-5 -2 -13 -2.5t-16 -0.5q-32 0 -48 19t-14 53l2 14q-23 -42 -62.5 -69t-97.5 -27z
M225 41q48 0 87 32.5t56 85.5l18 173q-7 45 -36.5 76.5t-80.5 31.5q-38 0 -68.5 -17.5t-52 -48.5t-33 -74t-11.5 -95q0 -76 31 -120t90 -44z" />
    <glyph glyph-name="Abreve" unicode="&#x102;" horiz-adv-x="594" 
d="M351 744q-48 0 -74.5 31t-20.5 87h51q-3 -29 9.5 -47t39.5 -18q32 0 47 18t18 47h50q-5 -55 -37 -86.5t-83 -31.5zM440 208h-291l-95 -208h-65l324 700h66l176 -700h-65zM427 262l-87 363l-166 -363h253z" />
    <glyph glyph-name="abreve" unicode="&#x103;" horiz-adv-x="516" 
d="M294 571q-60 0 -82 34t-16 91h51q-9 -74 51 -74q62 -2 69 74h50q-6 -57 -36 -91t-87 -34zM205 -12q-79 0 -122 57.5t-43 154.5q0 64 16 117.5t45 92.5t71 61t94 22q48 0 82.5 -21t51.5 -59l7 69h57l-40 -380q-3 -29 4.5 -42.5t30.5 -11.5l-5 -47q-5 -2 -13 -2.5t-16 -0.5
q-32 0 -48 19t-14 53l2 14q-23 -42 -62.5 -69t-97.5 -27zM225 41q48 0 87 32.5t56 85.5l18 173q-7 45 -36.5 76.5t-80.5 31.5q-38 0 -68.5 -17.5t-52 -48.5t-33 -74t-11.5 -95q0 -76 31 -120t90 -44z" />
    <glyph glyph-name="Aogonek" unicode="&#x104;" horiz-adv-x="594" 
d="M499 -129q11 0 18.5 3.5t14.5 8.5l18 -34q-11 -11 -28.5 -17.5t-38.5 -6.5q-36 0 -56 18t-20 52q0 33 21.5 64t58.5 52l-47 197h-291l-95 -208h-65l324 700h66l176 -700h-11q-34 -10 -57 -35.5t-23 -55.5q0 -38 35 -38zM427 262l-87 363l-166 -363h253z" />
    <glyph glyph-name="aogonek" unicode="&#x105;" horiz-adv-x="516" 
d="M454 1q-1 0 -1.5 -0.5t-1.5 -0.5q-34 -10 -57 -35.5t-23 -55.5q0 -38 35 -38q11 0 18.5 3.5t14.5 8.5l18 -34q-11 -11 -28.5 -17.5t-38.5 -6.5q-36 0 -56 18t-20 52q0 32 19.5 61.5t54.5 51.5q-28 17 -25 62l2 14q-23 -42 -62.5 -69t-97.5 -27q-79 0 -122 57.5t-43 154.5
q0 64 16 117.5t45 92.5t71 61t94 22q48 0 82.5 -21t51.5 -59l7 69h57l-40 -380q-3 -29 4.5 -42.5t30.5 -11.5zM386 332q-7 45 -36.5 76.5t-80.5 31.5q-38 0 -68.5 -17.5t-52 -48.5t-33 -74t-11.5 -95q0 -76 31 -120t90 -44q48 0 87 32.5t56 85.5z" />
    <glyph glyph-name="Cacute" unicode="&#x106;" horiz-adv-x="582" 
d="M416 865h85l-113 -123h-63zM306 -6q-115 0 -182.5 74.5t-67.5 221.5q0 93 21 169.5t61.5 131t100 85t136.5 30.5q91 0 145 -43t54 -122q0 -27 -4 -45.5t-10 -35.5h-58q6 21 8.5 36.5t2.5 33.5q0 65 -41.5 93t-107.5 28q-55 0 -99 -25.5t-75.5 -72t-48.5 -112.5t-17 -146
q0 -125 52 -185.5t134 -60.5q66 0 109 25t78 74l39 -35q-44 -60 -97.5 -89.5t-132.5 -29.5z" />
    <glyph glyph-name="cacute" unicode="&#x107;" horiz-adv-x="450" 
d="M328 720h78l-118 -162h-57zM226 -12q-87 0 -136 52.5t-49 155.5q0 69 17 124t47 93.5t72 59t92 20.5q74 0 114 -33.5t40 -95.5q0 -20 -4 -37.5t-8 -28.5h-55q3 9 6.5 24.5t3.5 29.5q0 46 -27 67t-72 21q-72 0 -116.5 -63.5t-44.5 -177.5q0 -78 34 -117.5t92 -39.5
q48 0 78.5 19t51.5 49l37 -33q-26 -37 -67.5 -63t-105.5 -26z" />
    <glyph glyph-name="Ccircumflex" unicode="&#x108;" horiz-adv-x="582" 
d="M356 865h71l71 -123h-59l-53 77l-70 -77h-57zM306 -6q-115 0 -182.5 74.5t-67.5 221.5q0 93 21 169.5t61.5 131t100 85t136.5 30.5q91 0 145 -43t54 -122q0 -27 -4 -45.5t-10 -35.5h-58q6 21 8.5 36.5t2.5 33.5q0 65 -41.5 93t-107.5 28q-55 0 -99 -25.5t-75.5 -72
t-48.5 -112.5t-17 -146q0 -125 52 -185.5t134 -60.5q66 0 109 25t78 74l39 -35q-44 -60 -97.5 -89.5t-132.5 -29.5z" />
    <glyph glyph-name="ccircumflex" unicode="&#x109;" horiz-adv-x="450" 
d="M258 720h68l67 -162h-57l-49 114l-73 -114h-57zM226 -12q-87 0 -136 52.5t-49 155.5q0 69 17 124t47 93.5t72 59t92 20.5q74 0 114 -33.5t40 -95.5q0 -20 -4 -37.5t-8 -28.5h-55q3 9 6.5 24.5t3.5 29.5q0 46 -27 67t-72 21q-72 0 -116.5 -63.5t-44.5 -177.5
q0 -78 34 -117.5t92 -39.5q48 0 78.5 19t51.5 49l37 -33q-26 -37 -67.5 -63t-105.5 -26z" />
    <glyph glyph-name="Cdotaccent" unicode="&#x10a;" horiz-adv-x="582" 
d="M379 754q-18 0 -30.5 13t-12.5 33q0 22 17 38t37 16q19 0 31.5 -13.5t12.5 -32.5q0 -22 -17 -38t-38 -16zM306 -6q-115 0 -182.5 74.5t-67.5 221.5q0 93 21 169.5t61.5 131t100 85t136.5 30.5q91 0 145 -43t54 -122q0 -27 -4 -45.5t-10 -35.5h-58q6 21 8.5 36.5t2.5 33.5
q0 65 -41.5 93t-107.5 28q-55 0 -99 -25.5t-75.5 -72t-48.5 -112.5t-17 -146q0 -125 52 -185.5t134 -60.5q66 0 109 25t78 74l39 -35q-44 -60 -97.5 -89.5t-132.5 -29.5z" />
    <glyph glyph-name="cdotaccent" unicode="&#x10b;" horiz-adv-x="450" 
d="M282 589q-21 0 -32.5 12.5t-11.5 31.5q0 21 13.5 36.5t38.5 15.5q20 0 31.5 -13t11.5 -30q0 -22 -13.5 -37.5t-37.5 -15.5zM226 -12q-87 0 -136 52.5t-49 155.5q0 69 17 124t47 93.5t72 59t92 20.5q74 0 114 -33.5t40 -95.5q0 -20 -4 -37.5t-8 -28.5h-55q3 9 6.5 24.5
t3.5 29.5q0 46 -27 67t-72 21q-72 0 -116.5 -63.5t-44.5 -177.5q0 -78 34 -117.5t92 -39.5q48 0 78.5 19t51.5 49l37 -33q-26 -37 -67.5 -63t-105.5 -26z" />
    <glyph glyph-name="Ccaron" unicode="&#x10c;" horiz-adv-x="582" 
d="M273 865h59l52 -77l70 77h58l-97 -123h-71zM306 -6q-115 0 -182.5 74.5t-67.5 221.5q0 93 21 169.5t61.5 131t100 85t136.5 30.5q91 0 145 -43t54 -122q0 -27 -4 -45.5t-10 -35.5h-58q6 21 8.5 36.5t2.5 33.5q0 65 -41.5 93t-107.5 28q-55 0 -99 -25.5t-75.5 -72
t-48.5 -112.5t-17 -146q0 -125 52 -185.5t134 -60.5q66 0 109 25t78 74l39 -35q-44 -60 -97.5 -89.5t-132.5 -29.5z" />
    <glyph glyph-name="ccaron" unicode="&#x10d;" horiz-adv-x="450" 
d="M175 720h57l50 -114l72 114h56l-101 -162h-66zM226 -12q-87 0 -136 52.5t-49 155.5q0 69 17 124t47 93.5t72 59t92 20.5q74 0 114 -33.5t40 -95.5q0 -20 -4 -37.5t-8 -28.5h-55q3 9 6.5 24.5t3.5 29.5q0 46 -27 67t-72 21q-72 0 -116.5 -63.5t-44.5 -177.5
q0 -78 34 -117.5t92 -39.5q48 0 78.5 19t51.5 49l37 -33q-26 -37 -67.5 -63t-105.5 -26z" />
    <glyph glyph-name="Dcaron" unicode="&#x10e;" horiz-adv-x="654" 
d="M264 865h59l52 -77l70 77h58l-97 -123h-71zM136 700h189q65 0 119.5 -18t94 -54.5t61.5 -93.5t22 -135q0 -103 -29 -178.5t-79 -124.5t-116 -72.5t-141 -23.5h-195zM259 57q65 0 119.5 20t93.5 61t60.5 104t21.5 150q0 65 -17.5 112.5t-48.5 78.5t-74.5 45.5t-96.5 14.5
h-123l-61 -586h126z" />
    <glyph glyph-name="dcaron" unicode="&#x10f;" horiz-adv-x="540" 
d="M549 587q20 8 33.5 21.5t15.5 29.5q-19 0 -29.5 12t-10.5 31q0 21 15.5 36.5t36.5 15.5q20 0 32.5 -13t12.5 -36q0 -22 -7.5 -42.5t-19.5 -37.5t-28.5 -30t-34.5 -19zM208 -12q-79 0 -123.5 56.5t-44.5 158.5q0 64 16 117t46 91.5t71.5 60t92.5 21.5q48 0 81 -22.5
t47 -56.5l32 312h64l-66 -624q-3 -29 4.5 -41.5t30.5 -12.5l-5 -47q-5 -2 -13 -2.5t-16 -0.5q-32 0 -49 19t-12 53l1 17q-19 -41 -59 -70t-98 -29zM228 42q47 0 85 32t55 85l18 173q-7 45 -36 76.5t-80 31.5q-39 0 -70 -17t-52.5 -48t-32.5 -75t-11 -98q0 -75 32.5 -117.5
t91.5 -42.5z" />
    <glyph glyph-name="Dcroat" unicode="&#x110;" horiz-adv-x="683" 
d="M336 700q65 0 119.5 -18t93.5 -54.5t61 -93.5t22 -135q0 -103 -29 -178.5t-79 -124.5t-116 -72.5t-141 -23.5h-194l34 323h-91l6 56h91l34 321h189zM269 57q66 0 120.5 20t93.5 61t60.5 104t21.5 150q0 65 -17.5 112.5t-49 78.5t-75 45.5t-96.5 14.5h-123l-27 -264h96
l-6 -56h-96l-28 -266h126z" />
    <glyph glyph-name="dcroat" unicode="&#x111;" horiz-adv-x="516" 
d="M424 102q-3 -29 4.5 -41.5t30.5 -12.5l-5 -47q-5 -2 -13 -2.5t-16 -0.5q-32 0 -49 19t-12 53l1 17q-19 -41 -59 -70t-98 -29q-79 0 -123.5 56.5t-44.5 158.5q0 64 16 117t46 91.5t71.5 60t92.5 21.5q48 0 81 -22.5t47 -56.5l17 169h-112l6 55h112l9 88h64l-9 -88h75
l-6 -55h-75zM386 332q-7 45 -36 76.5t-80 31.5q-39 0 -70 -17t-52.5 -48t-32.5 -75t-11 -98q0 -75 32.5 -117.5t91.5 -42.5q47 0 85 32t55 85z" />
    <glyph glyph-name="Emacron" unicode="&#x112;" horiz-adv-x="535" 
d="M242 826h240l-5 -54h-240zM136 700h406l-6 -59h-342l-27 -256h295l-7 -60h-295l-27 -266h342l-7 -59h-406z" />
    <glyph glyph-name="emacron" unicode="&#x113;" horiz-adv-x="451" 
d="M389 610h-233l6 52h233zM225 42q48 0 79 18t57 51l38 -33q-67 -90 -184 -90q-83 0 -130 53t-47 153q0 65 18.5 120t51 94.5t78 62t99.5 22.5q65 0 100.5 -32.5t35.5 -89.5t-29 -91.5t-75 -53t-102.5 -25.5t-111.5 -10q3 -75 35 -112t87 -37zM278 440q-33 0 -62.5 -14.5
t-52.5 -40.5t-38 -63t-20 -82q42 2 86.5 7t82 18t61.5 36.5t24 63.5q0 75 -81 75z" />
    <glyph glyph-name="Ebreve" unicode="&#x114;" horiz-adv-x="535" 
d="M353 744q-48 0 -74.5 31t-20.5 87h51q-3 -29 9.5 -47t39.5 -18q32 0 47 18t18 47h50q-5 -55 -37 -86.5t-83 -31.5zM136 700h406l-6 -59h-342l-27 -256h295l-7 -60h-295l-27 -266h342l-7 -59h-406z" />
    <glyph glyph-name="ebreve" unicode="&#x115;" horiz-adv-x="451" 
d="M269 571q-60 0 -82 34t-16 91h51q-9 -74 51 -74q62 -2 69 74h50q-6 -57 -36 -91t-87 -34zM225 42q48 0 79 18t57 51l38 -33q-67 -90 -184 -90q-83 0 -130 53t-47 153q0 65 18.5 120t51 94.5t78 62t99.5 22.5q65 0 100.5 -32.5t35.5 -89.5t-29 -91.5t-75 -53t-102.5 -25.5
t-111.5 -10q3 -75 35 -112t87 -37zM278 440q-33 0 -62.5 -14.5t-52.5 -40.5t-38 -63t-20 -82q42 2 86.5 7t82 18t61.5 36.5t24 63.5q0 75 -81 75z" />
    <glyph glyph-name="Edotaccent" unicode="&#x116;" horiz-adv-x="535" 
d="M354 754q-18 0 -30.5 13t-12.5 33q0 22 17 38t37 16q19 0 31.5 -13.5t12.5 -32.5q0 -22 -17 -38t-38 -16zM136 700h406l-6 -59h-342l-27 -256h295l-7 -60h-295l-27 -266h342l-7 -59h-406z" />
    <glyph glyph-name="edotaccent" unicode="&#x117;" horiz-adv-x="451" 
d="M272 589q-21 0 -32.5 12.5t-11.5 31.5q0 21 13.5 36.5t38.5 15.5q20 0 31.5 -13t11.5 -30q0 -22 -13.5 -37.5t-37.5 -15.5zM225 42q48 0 79 18t57 51l38 -33q-67 -90 -184 -90q-83 0 -130 53t-47 153q0 65 18.5 120t51 94.5t78 62t99.5 22.5q65 0 100.5 -32.5t35.5 -89.5
t-29 -91.5t-75 -53t-102.5 -25.5t-111.5 -10q3 -75 35 -112t87 -37zM278 440q-33 0 -62.5 -14.5t-52.5 -40.5t-38 -63t-20 -82q42 2 86.5 7t82 18t61.5 36.5t24 63.5q0 75 -81 75z" />
    <glyph glyph-name="Eogonek" unicode="&#x118;" horiz-adv-x="535" 
d="M194 641l-27 -256h295l-7 -60h-295l-27 -266h342l-7 -58l1 -1q-34 -10 -57 -35.5t-23 -55.5q0 -38 35 -38q11 0 18.5 3.5t14.5 8.5l18 -34q-11 -11 -28.5 -17.5t-38.5 -6.5q-36 0 -56 18t-20 52q0 29 17 56.5t46 48.5h-333l74 700h406l-6 -59h-342z" />
    <glyph glyph-name="eogonek" unicode="&#x119;" horiz-adv-x="451" 
d="M225 42q48 0 79 18t57 51l38 -33q-48 -63 -118 -82q-30 -11 -49.5 -35t-19.5 -52q0 -38 35 -38q11 0 18.5 3.5t14.5 8.5l18 -34q-11 -11 -28.5 -17.5t-38.5 -6.5q-36 0 -56 18t-20 52q0 25 12.5 49t35.5 44q-78 5 -121.5 57.5t-43.5 148.5q0 65 18.5 120t51 94.5t78 62
t99.5 22.5q65 0 100.5 -32.5t35.5 -89.5t-29 -91.5t-75 -53t-102.5 -25.5t-111.5 -10q3 -75 35 -112t87 -37zM278 440q-33 0 -62.5 -14.5t-52.5 -40.5t-38 -63t-20 -82q42 2 86.5 7t82 18t61.5 36.5t24 63.5q0 75 -81 75z" />
    <glyph glyph-name="Ecaron" unicode="&#x11a;" horiz-adv-x="535" 
d="M248 865h59l52 -77l70 77h58l-97 -123h-71zM136 700h406l-6 -59h-342l-27 -256h295l-7 -60h-295l-27 -266h342l-7 -59h-406z" />
    <glyph glyph-name="ecaron" unicode="&#x11b;" horiz-adv-x="451" 
d="M233 558l-68 162h57l50 -114l72 114h56l-101 -162h-66zM225 42q48 0 79 18t57 51l38 -33q-67 -90 -184 -90q-83 0 -130 53t-47 153q0 65 18.5 120t51 94.5t78 62t99.5 22.5q65 0 100.5 -32.5t35.5 -89.5t-29 -91.5t-75 -53t-102.5 -25.5t-111.5 -10q3 -75 35 -112t87 -37
zM278 440q-33 0 -62.5 -14.5t-52.5 -40.5t-38 -63t-20 -82q42 2 86.5 7t82 18t61.5 36.5t24 63.5q0 75 -81 75z" />
    <glyph glyph-name="Gcircumflex" unicode="&#x11c;" horiz-adv-x="621" 
d="M354 865h71l71 -123h-59l-53 77l-70 -77h-57zM313 -9q-125 0 -191 78t-66 224q0 97 23.5 173.5t66 130t102 81.5t132.5 28q102 0 154 -45t52 -123q0 -35 -11 -60h-61q3 8 5.5 20t2.5 29q0 60 -39 92t-111 32q-56 0 -102 -24t-78.5 -69t-50.5 -110t-18 -148
q0 -116 51 -185t149 -69q62 0 104 17.5t62 40.5l19 178h-166l6 59h228l-27 -261q-33 -34 -92 -61.5t-144 -27.5z" />
    <glyph glyph-name="gcircumflex" unicode="&#x11d;" horiz-adv-x="507" 
d="M267 720h68l67 -162h-57l-49 114l-73 -114h-57zM195 -240q-66 0 -108.5 26t-59.5 67l48 33q13 -31 44.5 -51.5t81.5 -20.5q63 0 101 36.5t45 101.5l14 131q-17 -37 -54 -65t-99 -28q-81 0 -124.5 57t-43.5 154q0 63 16 116.5t44.5 92t69.5 60.5t90 22q50 0 86 -22.5
t53 -60.5l8 73h56l-55 -530q-10 -88 -62 -140t-151 -52zM227 44q54 0 88 32t52 84l18 172q-3 21 -12.5 40.5t-24.5 34t-35.5 23.5t-46.5 9q-38 0 -68 -17t-51 -48t-32 -74t-11 -96q0 -74 31 -117t92 -43z" />
    <glyph glyph-name="Gbreve" unicode="&#x11e;" horiz-adv-x="621" 
d="M376 744q-48 0 -74.5 31t-20.5 87h51q-3 -29 9.5 -47t39.5 -18q32 0 47 18t18 47h50q-5 -55 -37 -86.5t-83 -31.5zM313 -9q-125 0 -191 78t-66 224q0 97 23.5 173.5t66 130t102 81.5t132.5 28q102 0 154 -45t52 -123q0 -35 -11 -60h-61q3 8 5.5 20t2.5 29q0 60 -39 92
t-111 32q-56 0 -102 -24t-78.5 -69t-50.5 -110t-18 -148q0 -116 51 -185t149 -69q62 0 104 17.5t62 40.5l19 178h-166l6 59h228l-27 -261q-33 -34 -92 -61.5t-144 -27.5z" />
    <glyph glyph-name="gbreve" unicode="&#x11f;" horiz-adv-x="507" 
d="M287 571q-60 0 -82 34t-16 91h51q-9 -74 51 -74q62 -2 69 74h50q-6 -57 -36 -91t-87 -34zM195 -240q-66 0 -108.5 26t-59.5 67l48 33q13 -31 44.5 -51.5t81.5 -20.5q63 0 101 36.5t45 101.5l14 131q-17 -37 -54 -65t-99 -28q-81 0 -124.5 57t-43.5 154q0 63 16 116.5
t44.5 92t69.5 60.5t90 22q50 0 86 -22.5t53 -60.5l8 73h56l-55 -530q-10 -88 -62 -140t-151 -52zM227 44q54 0 88 32t52 84l18 172q-3 21 -12.5 40.5t-24.5 34t-35.5 23.5t-46.5 9q-38 0 -68 -17t-51 -48t-32 -74t-11 -96q0 -74 31 -117t92 -43z" />
    <glyph glyph-name="Gdotaccent" unicode="&#x120;" horiz-adv-x="621" 
d="M377 754q-18 0 -30.5 13t-12.5 33q0 22 17 38t37 16q19 0 31.5 -13.5t12.5 -32.5q0 -22 -17 -38t-38 -16zM313 -9q-125 0 -191 78t-66 224q0 97 23.5 173.5t66 130t102 81.5t132.5 28q102 0 154 -45t52 -123q0 -35 -11 -60h-61q3 8 5.5 20t2.5 29q0 60 -39 92t-111 32
q-56 0 -102 -24t-78.5 -69t-50.5 -110t-18 -148q0 -116 51 -185t149 -69q62 0 104 17.5t62 40.5l19 178h-166l6 59h228l-27 -261q-33 -34 -92 -61.5t-144 -27.5z" />
    <glyph glyph-name="gdotaccent" unicode="&#x121;" horiz-adv-x="507" 
d="M290 589q-21 0 -32.5 12.5t-11.5 31.5q0 21 13.5 36.5t38.5 15.5q20 0 31.5 -13t11.5 -30q0 -22 -13.5 -37.5t-37.5 -15.5zM195 -240q-66 0 -108.5 26t-59.5 67l48 33q13 -31 44.5 -51.5t81.5 -20.5q63 0 101 36.5t45 101.5l14 131q-17 -37 -54 -65t-99 -28
q-81 0 -124.5 57t-43.5 154q0 63 16 116.5t44.5 92t69.5 60.5t90 22q50 0 86 -22.5t53 -60.5l8 73h56l-55 -530q-10 -88 -62 -140t-151 -52zM227 44q54 0 88 32t52 84l18 172q-3 21 -12.5 40.5t-24.5 34t-35.5 23.5t-46.5 9q-38 0 -68 -17t-51 -48t-32 -74t-11 -96
q0 -74 31 -117t92 -43z" />
    <glyph glyph-name="uni0122" unicode="&#x122;" horiz-adv-x="621" 
d="M313 -9q-125 0 -191 78t-66 224q0 97 23.5 173.5t66 130t102 81.5t132.5 28q102 0 154 -45t52 -123q0 -35 -11 -60h-61q3 8 5.5 20t2.5 29q0 60 -39 92t-111 32q-56 0 -102 -24t-78.5 -69t-50.5 -110t-18 -148q0 -116 51 -185t149 -69q62 0 104 17.5t62 40.5l19 178h-166
l6 59h228l-27 -261q-33 -34 -92 -61.5t-144 -27.5zM237 -189q20 9 33.5 23t16.5 32q-41 8 -41 45q0 23 14.5 36.5t34.5 13.5q21 0 34 -14t13 -40q0 -20 -7.5 -40t-19.5 -37t-28 -30t-34 -19z" />
    <glyph glyph-name="uni0123" unicode="&#x123;" horiz-adv-x="507" 
d="M286 554q-20 0 -32 13t-12 35q0 42 25 75.5t59 46.5l17 -30q-20 -8 -33.5 -20t-16.5 -26q20 1 32 -12.5t12 -30.5q0 -21 -15 -36t-36 -15zM195 -240q-66 0 -108.5 26t-59.5 67l48 33q13 -31 44.5 -51.5t81.5 -20.5q63 0 101 36.5t45 101.5l14 131q-17 -37 -54 -65
t-99 -28q-81 0 -124.5 57t-43.5 154q0 63 16 116.5t44.5 92t69.5 60.5t90 22q50 0 86 -22.5t53 -60.5l8 73h56l-55 -530q-10 -88 -62 -140t-151 -52zM227 44q54 0 88 32t52 84l18 172q-3 21 -12.5 40.5t-24.5 34t-35.5 23.5t-46.5 9q-38 0 -68 -17t-51 -48t-32 -74t-11 -96
q0 -74 31 -117t92 -43z" />
    <glyph glyph-name="Hcircumflex" unicode="&#x124;" horiz-adv-x="622" 
d="M343 865h71l71 -123h-59l-53 77l-70 -77h-57zM132 700h64l-33 -316h328l34 316h63l-74 -700h-63l34 323h-329l-34 -323h-64z" />
    <glyph glyph-name="hcircumflex" unicode="&#x125;" horiz-adv-x="507" 
d="M131 865h71l71 -123h-59l-53 77l-70 -77h-57zM423 -2q-39 0 -55 23.5t-11 65.5l23 220q6 57 -16.5 93.5t-80.5 36.5q-34 0 -60 -14t-44 -36t-28 -48.5t-13 -51.5l-31 -287h-63l76 726h63l-34 -334q18 40 57 70t96 30q43 0 72 -14.5t45.5 -40t22 -60t1.5 -73.5l-22 -205
q-3 -30 5.5 -41t29.5 -11l-5 -46q-9 -3 -28 -3z" />
    <glyph glyph-name="Hbar" unicode="&#x126;" horiz-adv-x="667" 
d="M664 522h-66l-55 -522h-63l34 323h-329l-34 -323h-64l55 522h-67l5 48h67l14 130h64l-14 -130h329l14 130h63l-14 -130h66zM535 522h-329l-15 -138h329z" />
    <glyph glyph-name="hbar" unicode="&#x127;" horiz-adv-x="507" 
d="M421 99q-3 -30 5.5 -41t29.5 -11l-5 -46q-9 -3 -28 -3q-39 0 -55 23.5t-11 65.5l23 220q6 57 -16.5 93.5t-80.5 36.5q-34 0 -60 -14t-44 -36t-28 -48.5t-13 -51.5l-31 -287h-63l61 583h-75l6 55h75l9 88h63l-9 -88h113l-6 -55h-113l-19 -191q18 40 57 70t96 30
q43 0 72 -14.5t45.5 -40t22 -60t1.5 -73.5z" />
    <glyph glyph-name="Itilde" unicode="&#x128;" horiz-adv-x="238" 
d="M43 749q-6 12 -6 32q0 30 20.5 51t54.5 21q20 0 36 -7t30 -16t27 -16t28 -7q12 0 20 8t8 25q0 12 -4 17h50q2 -6 3 -14t1 -17q0 -31 -19.5 -52.5t-59.5 -21.5q-21 0 -36.5 7.5t-29 16t-25.5 16t-25 7.5q-11 0 -19.5 -8.5t-8.5 -22.5q0 -11 4 -19h-49zM136 700h64
l-74 -700h-64z" />
    <glyph glyph-name="itilde" unicode="&#x129;" horiz-adv-x="212" 
d="M12 583q-5 15 -5 33q0 29 19 50t57 21q20 0 35.5 -7t29 -16t26 -16t26.5 -7q29 0 29 32q0 14 -4 19h50q5 -13 5 -30q0 -32 -19 -53t-56 -21q-22 0 -39 7t-30 15.5t-24 15.5t-23 7q-31 0 -31 -31q0 -11 3 -19h-49zM121 -2q-37 0 -53.5 23t-11.5 67l41 394h63l-40 -384
q-3 -26 4.5 -38.5t30.5 -12.5l-5 -46q-7 -3 -29 -3z" />
    <glyph glyph-name="Imacron" unicode="&#x12a;" horiz-adv-x="238" 
d="M61 826h240l-5 -54h-240zM136 700h64l-74 -700h-64z" />
    <glyph glyph-name="imacron" unicode="&#x12b;" horiz-adv-x="212" 
d="M32 662h233l-6 -52h-233zM121 -2q-37 0 -53.5 23t-11.5 67l41 394h63l-40 -384q-3 -26 4.5 -38.5t30.5 -12.5l-5 -46q-7 -3 -29 -3z" />
    <glyph glyph-name="Ibreve" unicode="&#x12c;" horiz-adv-x="238" 
d="M172 744q-48 0 -74.5 31t-20.5 87h51q-3 -29 9.5 -47t39.5 -18q32 0 47 18t18 47h50q-5 -55 -37 -86.5t-83 -31.5zM136 700h64l-74 -700h-64z" />
    <glyph glyph-name="ibreve" unicode="&#x12d;" horiz-adv-x="212" 
d="M139 571q-60 0 -82 34t-16 91h51q-9 -74 51 -74q62 -2 69 74h50q-6 -57 -36 -91t-87 -34zM121 -2q-37 0 -53.5 23t-11.5 67l41 394h63l-40 -384q-3 -26 4.5 -38.5t30.5 -12.5l-5 -46q-7 -3 -29 -3z" />
    <glyph glyph-name="Iogonek" unicode="&#x12e;" horiz-adv-x="238" 
d="M81 -129q11 0 18.5 3.5t14.5 8.5l18 -34q-11 -11 -28.5 -17.5t-38.5 -6.5q-36 0 -56 18t-20 52q0 32 19.5 61.5t54.5 51.5l73 692h64l-74 -700q-34 -10 -57 -35.5t-23 -55.5q0 -38 35 -38z" />
    <glyph glyph-name="iogonek" unicode="&#x12f;" horiz-adv-x="212" 
d="M151 685q20 0 31.5 -13t11.5 -30q0 -22 -13.5 -37.5t-37.5 -15.5q-21 0 -32.5 12.5t-11.5 31.5q0 21 13.5 36.5t38.5 15.5zM120 98q-3 -26 4.5 -38.5t30.5 -12.5l-5 -46q-1 0 -1.5 -0.5t-1.5 -0.5q-33 -11 -55 -36t-22 -54q0 -38 35 -38q11 0 18.5 3.5t14.5 8.5l18 -34
q-11 -11 -28.5 -17.5t-38.5 -6.5q-36 0 -56 18t-20 52q0 31 19 60.5t52 50.5q-34 19 -28 81l41 394h63z" />
    <glyph glyph-name="Idotaccent" unicode="&#x130;" horiz-adv-x="238" 
d="M173 754q-18 0 -30.5 13t-12.5 33q0 22 17 38t37 16q19 0 31.5 -13.5t12.5 -32.5q0 -22 -17 -38t-38 -16zM136 700h64l-74 -700h-64z" />
    <glyph glyph-name="dotlessi" unicode="&#x131;" horiz-adv-x="212" 
d="M121 -2q-37 0 -53.5 23t-11.5 67l41 394h63l-40 -384q-3 -26 4.5 -38.5t30.5 -12.5l-5 -46q-7 -3 -29 -3z" />
    <glyph glyph-name="IJ" unicode="&#x132;" horiz-adv-x="681" 
d="M136 700h64l-74 -700h-64zM401 -6q-66 0 -104.5 23.5t-58.5 54.5l46 43q18 -25 45 -45t72 -20q61 0 91.5 39t38.5 111l53 500h63l-53 -506q-11 -97 -56.5 -148.5t-136.5 -51.5z" />
    <glyph glyph-name="ij" unicode="&#x133;" horiz-adv-x="422" 
d="M143 589q-21 0 -32.5 12.5t-11.5 31.5q0 21 13.5 36.5t38.5 15.5q20 0 31.5 -13t11.5 -30q0 -22 -13.5 -37.5t-37.5 -15.5zM357 589q-21 0 -32.5 12.5t-11.5 31.5q0 21 13.5 36.5t38.5 15.5q20 0 31.5 -13t11.5 -30q0 -22 -13.5 -37.5t-37.5 -15.5zM121 -2
q-37 0 -53.5 23t-11.5 67l41 394h63l-40 -384q-3 -26 4.5 -38.5t30.5 -12.5l-5 -46q-7 -3 -29 -3zM155 -247q-21 0 -36.5 4t-24.5 9q-12 6 -20 13l24 45q6 -5 15 -9q8 -3 18 -5.5t24 -2.5q44 0 69 28.5t31 90.5l59 556h61l-58 -558q-9 -82 -48 -126.5t-114 -44.5z" />
    <glyph glyph-name="Jcircumflex" unicode="&#x134;" horiz-adv-x="442" 
d="M356 865h71l71 -123h-59l-53 77l-70 -77h-57zM163 -6q-66 0 -104.5 23.5t-58.5 54.5l46 43q18 -25 45 -45t72 -20q61 0 91.5 39t38.5 111l53 500h63l-53 -506q-11 -97 -56.5 -148.5t-136.5 -51.5z" />
    <glyph glyph-name="jcircumflex" unicode="&#x135;" horiz-adv-x="210" 
d="M121 720h68l67 -162h-57l-49 114l-73 -114h-57zM-57 -247q-21 0 -36.5 4t-25.5 9q-11 6 -19 13l24 45q6 -5 15 -9q7 -3 17.5 -5.5t24.5 -2.5q44 0 69 28.5t31 90.5l59 556h61l-58 -558q-9 -82 -48 -126.5t-114 -44.5z" />
    <glyph glyph-name="uni0136" unicode="&#x136;" horiz-adv-x="608" 
d="M585 57l-7 -56q-6 -2 -14.5 -2.5t-16.5 -0.5q-45 0 -72.5 23.5t-46 59t-33 76.5t-34 76.5t-48.5 59t-77 23.5h-76l-34 -316h-64l74 700h64l-34 -323h76q44 0 89.5 16.5t84.5 55t67 100t38 151.5h63q-16 -141 -77 -232.5t-152 -128.5q28 -16 46.5 -43t33 -58t26 -63.5
t26 -58.5t33.5 -42.5t48 -16.5h17zM288 -39q21 0 34 -14t13 -40q0 -20 -7.5 -40t-19.5 -37t-28 -30t-34 -19l-16 30q20 9 33.5 23t16.5 32q-41 8 -41 45q0 23 14.5 36.5t34.5 13.5z" />
    <glyph glyph-name="uni0137" unicode="&#x137;" horiz-adv-x="468" 
d="M443 48l-5 -46q-1 0 -8.5 -2t-18.5 -2q-43 0 -66 16.5t-36 41.5t-22 53.5t-23 53.5t-39.5 41.5t-72.5 16.5h-21l-24 -221h-63l76 726h63l-47 -452h40q91 0 138 56t60 152h58q-4 -27 -12 -61.5t-26 -68.5t-47.5 -63.5t-75.5 -47.5q24 -12 38 -31t23 -40.5t16.5 -43
t17.5 -39t25.5 -28.5t42.5 -11h9zM223 -39q21 0 34 -14t13 -40q0 -20 -7.5 -40t-19.5 -37t-28 -30t-34 -19l-16 30q20 9 33.5 23t16.5 32q-41 8 -41 45q0 23 14.5 36.5t34.5 13.5z" />
    <glyph glyph-name="kgreenlandic" unicode="&#x138;" horiz-adv-x="475" 
d="M448 48l-5 -46q-1 0 -9 -2t-19 -2q-42 0 -65 16t-36.5 40t-22 52t-23.5 52t-40.5 40t-71.5 16h-26l-23 -214h-63l51 482h63l-23 -215h40q49 0 84.5 15.5t59.5 44t38 68t20 87.5h60q-4 -31 -12.5 -67t-26.5 -70.5t-47 -64t-75 -46.5q36 -18 51 -49.5t26.5 -61.5
t28.5 -52.5t57 -22.5h9z" />
    <glyph glyph-name="Lacute" unicode="&#x139;" horiz-adv-x="508" 
d="M223 865h85l-113 -123h-63zM136 700h65l-68 -644h341l-6 -56h-406z" />
    <glyph glyph-name="lacute" unicode="&#x13a;" horiz-adv-x="213" 
d="M196 879h85l-113 -123h-63zM120 -3q-37 0 -53.5 21t-11.5 66l67 642h64l-66 -631q-3 -28 5 -37t31 -9l-5 -49q-12 -3 -31 -3z" />
    <glyph glyph-name="uni013B" unicode="&#x13b;" horiz-adv-x="508" 
d="M136 700h65l-68 -644h341l-6 -56h-406zM218 -189q20 9 33.5 23t16.5 32q-41 8 -41 45q0 23 14.5 36.5t34.5 13.5q21 0 34 -14t13 -40q0 -20 -7.5 -40t-19.5 -37t-28 -30t-34 -19z" />
    <glyph glyph-name="uni013C" unicode="&#x13c;" horiz-adv-x="213" 
d="M120 -3q-37 0 -53.5 21t-11.5 66l67 642h64l-66 -631q-3 -28 5 -37t31 -9l-5 -49q-12 -3 -31 -3zM31 -189q20 9 33.5 23t16.5 32q-41 8 -41 45q0 23 14.5 36.5t34.5 13.5q21 0 34 -14t13 -40q0 -20 -7.5 -40t-19.5 -37t-28 -30t-34 -19z" />
    <glyph glyph-name="Lcaron" unicode="&#x13d;" horiz-adv-x="534" 
d="M375 560q20 8 33 21.5t15 29.5q-19 0 -28.5 12.5t-9.5 29.5q0 21 14.5 36.5t35.5 15.5q20 0 32.5 -13.5t12.5 -35.5q0 -21 -7.5 -41.5t-19.5 -38t-28.5 -30t-34.5 -18.5zM136 700h65l-68 -644h341l-6 -56h-406z" />
    <glyph glyph-name="lcaron" unicode="&#x13e;" horiz-adv-x="213" 
d="M216 587q20 8 33 21.5t15 29.5q-39 9 -39 45q0 23 14.5 36.5t35.5 13.5q20 0 33.5 -14t13.5 -40q0 -20 -7.5 -39.5t-19.5 -36.5t-28.5 -29.5t-34.5 -18.5zM120 -3q-37 0 -53.5 21t-11.5 66l67 642h64l-66 -631q-3 -28 5 -37t31 -9l-5 -49q-12 -3 -31 -3z" />
    <glyph glyph-name="Ldot" unicode="&#x13f;" horiz-adv-x="532" 
d="M136 700h65l-68 -644h341l-6 -56h-406zM395 340q-20 0 -32 12t-12 32q0 21 13 35t35 14q19 0 31 -12t12 -31q0 -21 -12 -35.5t-35 -14.5z" />
    <glyph glyph-name="ldot" unicode="&#x140;" horiz-adv-x="267" 
d="M120 -3q-37 0 -53.5 21t-11.5 66l67 642h64l-66 -631q-3 -28 5 -37t31 -9l-5 -49q-12 -3 -31 -3zM246 330q-20 0 -32 12t-12 32q0 21 13 35.5t36 14.5q19 0 31 -12t12 -32q0 -21 -12.5 -35.5t-35.5 -14.5z" />
    <glyph glyph-name="Lslash" unicode="&#x141;" horiz-adv-x="549" 
d="M492 56l-6 -56h-405l31 292l-88 -49l-22 47l117 65l36 345h64l-32 -307l104 59l22 -47l-133 -75l-29 -274h341z" />
    <glyph glyph-name="lslash" unicode="&#x142;" horiz-adv-x="284" 
d="M154 95q-3 -28 5 -37t31 -9l-5 -49q-6 -2 -14 -2.5t-16 -0.5q-37 0 -54 21t-12 66l25 239l-68 -39l-19 43l93 53l37 346h63l-32 -308l69 39l20 -42l-95 -54z" />
    <glyph glyph-name="Nacute" unicode="&#x143;" horiz-adv-x="644" 
d="M423 865h85l-113 -123h-63zM136 700h56l280 -571l9 -24l63 595h62l-75 -700h-57l-282 570l-8 22l-61 -592h-61z" />
    <glyph glyph-name="nacute" unicode="&#x144;" horiz-adv-x="514" 
d="M342 720h78l-118 -162h-57zM430 -2q-38 0 -54 23.5t-11 65.5l23 218q7 66 -18.5 100t-80.5 34q-29 0 -54 -12t-44 -33.5t-31.5 -50.5t-15.5 -63l-29 -280h-63l40 386q4 30 -4.5 41t-29.5 11l5 46q9 3 29 3q33 0 47 -19.5t12 -57.5l-2 -23q23 51 64.5 78.5t95.5 27.5
q76 0 114 -49t28 -139l-21 -206q-4 -30 4 -41t30 -11l-5 -46q-10 -3 -29 -3z" />
    <glyph glyph-name="uni0145" unicode="&#x145;" horiz-adv-x="644" 
d="M136 700h56l280 -571l9 -24l63 595h62l-75 -700h-57l-282 570l-8 22l-61 -592h-61zM233 -189q20 9 33.5 23t16.5 32q-41 8 -41 45q0 23 14.5 36.5t34.5 13.5q21 0 34 -14t13 -40q0 -20 -7.5 -40t-19.5 -37t-28 -30t-34 -19z" />
    <glyph glyph-name="uni0146" unicode="&#x146;" horiz-adv-x="514" 
d="M430 -2q-38 0 -54 23.5t-11 65.5l23 218q7 66 -18.5 100t-80.5 34q-29 0 -54 -12t-44 -33.5t-31.5 -50.5t-15.5 -63l-29 -280h-63l40 386q4 30 -4.5 41t-29.5 11l5 46q9 3 29 3q33 0 47 -19.5t12 -57.5l-2 -23q23 51 64.5 78.5t95.5 27.5q76 0 114 -49t28 -139l-21 -206
q-4 -30 4 -41t30 -11l-5 -46q-10 -3 -29 -3zM190 -189q20 9 33.5 23t16.5 32q-41 8 -41 45q0 23 14.5 36.5t34.5 13.5q21 0 34 -14t13 -40q0 -20 -7.5 -40t-19.5 -37t-28 -30t-34 -19z" />
    <glyph glyph-name="Ncaron" unicode="&#x147;" horiz-adv-x="644" 
d="M279 865h59l52 -77l70 77h58l-97 -123h-71zM136 700h56l280 -571l9 -24l63 595h62l-75 -700h-57l-282 570l-8 22l-61 -592h-61z" />
    <glyph glyph-name="ncaron" unicode="&#x148;" horiz-adv-x="514" 
d="M189 720h57l50 -114l72 114h56l-101 -162h-66zM430 -2q-38 0 -54 23.5t-11 65.5l23 218q7 66 -18.5 100t-80.5 34q-29 0 -54 -12t-44 -33.5t-31.5 -50.5t-15.5 -63l-29 -280h-63l40 386q4 30 -4.5 41t-29.5 11l5 46q9 3 29 3q33 0 47 -19.5t12 -57.5l-2 -23
q23 51 64.5 78.5t95.5 27.5q76 0 114 -49t28 -139l-21 -206q-4 -30 4 -41t30 -11l-5 -46q-10 -3 -29 -3z" />
    <glyph glyph-name="napostrophe" unicode="&#x149;" horiz-adv-x="620" 
d="M24 576q4 3 11.5 7t15.5 10.5t14 15t6 18.5q-20 0 -34.5 13.5t-14.5 33.5t13.5 33.5t33.5 13.5q22 0 36.5 -14.5t14.5 -42.5q0 -31 -10 -53t-23 -36t-25.5 -21t-17.5 -10zM513 -2q-38 0 -53.5 23.5t-11.5 65.5l23 218q7 66 -18.5 100t-79.5 34q-29 0 -54.5 -12
t-44.5 -33.5t-31.5 -50.5t-15.5 -63l-29 -280h-63l41 386q3 30 -5 41t-30 11l5 46q5 2 13 2.5t16 0.5q34 0 48 -19.5t12 -57.5l-2 -23q23 51 64 78.5t95 27.5q77 0 114.5 -49t27.5 -139l-21 -206q-4 -30 4.5 -41t29.5 -11l-5 -46q-10 -3 -29 -3z" />
    <glyph glyph-name="Eng" unicode="&#x14a;" horiz-adv-x="644" 
d="M606 700l-75 -700l-5 -47q-8 -81 -50 -124t-111 -43q-37 0 -61.5 11.5t-38.5 29.5l44 50q21 -30 65 -30q36 0 60 25.5t29 77.5l6 60l-277 560l-8 22l-61 -592h-61l74 700h56l280 -571l9 -24l63 595h62z" />
    <glyph glyph-name="eng" unicode="&#x14b;" horiz-adv-x="509" 
d="M310 493q77 0 114 -49t27 -139l-32 -305l-5 -47q-8 -81 -48 -124t-113 -43q-37 0 -61.5 11.5t-38.5 29.5l44 50q11 -15 28.5 -22.5t35.5 -7.5q77 0 89 103l6 50l32 305q7 63 -18.5 98.5t-80.5 35.5q-29 0 -54 -12t-44 -32.5t-31 -48.5t-15 -61l-30 -285h-63l40 386
q4 30 -4.5 41t-29.5 11l5 46q9 3 29 3q64 0 59 -80l-2 -23q23 52 65 80.5t96 28.5z" />
    <glyph glyph-name="Omacron" unicode="&#x14c;" horiz-adv-x="677" 
d="M280 826h240l-5 -54h-240zM323 -6q-53 0 -101.5 16t-85 51.5t-58.5 92t-22 137.5q0 113 27 191.5t72 128.5t104 72.5t123 22.5q51 0 98.5 -17t83.5 -53t58 -93t22 -137q0 -112 -26 -190.5t-70.5 -127.5t-102.5 -71.5t-122 -22.5zM329 49q50 0 95 19t79 61.5t54 110
t20 163.5q0 68 -17 115t-45 76.5t-64.5 43t-74.5 13.5q-50 0 -95.5 -19.5t-80.5 -62t-56 -110.5t-21 -164q0 -69 17 -116t45.5 -76t66 -41.5t77.5 -12.5z" />
    <glyph glyph-name="omacron" unicode="&#x14d;" horiz-adv-x="498" 
d="M177 662h233l-6 -52h-233zM231 -12q-91 0 -140.5 56t-49.5 159q0 69 17 123t48 91t73 56.5t92 19.5q88 0 137.5 -56t49.5 -159q0 -69 -17 -122.5t-47.5 -91t-72 -57t-90.5 -19.5zM235 41q33 0 62 15t50.5 44.5t34 73t12.5 101.5q0 82 -34.5 123.5t-94.5 41.5
q-33 0 -62.5 -14.5t-51 -44t-34 -73t-12.5 -101.5q0 -83 34.5 -124.5t95.5 -41.5z" />
    <glyph glyph-name="Obreve" unicode="&#x14e;" horiz-adv-x="677" 
d="M391 744q-48 0 -74.5 31t-20.5 87h51q-3 -29 9.5 -47t39.5 -18q32 0 47 18t18 47h50q-5 -55 -37 -86.5t-83 -31.5zM323 -6q-53 0 -101.5 16t-85 51.5t-58.5 92t-22 137.5q0 113 27 191.5t72 128.5t104 72.5t123 22.5q51 0 98.5 -17t83.5 -53t58 -93t22 -137
q0 -112 -26 -190.5t-70.5 -127.5t-102.5 -71.5t-122 -22.5zM329 49q50 0 95 19t79 61.5t54 110t20 163.5q0 68 -17 115t-45 76.5t-64.5 43t-74.5 13.5q-50 0 -95.5 -19.5t-80.5 -62t-56 -110.5t-21 -164q0 -69 17 -116t45.5 -76t66 -41.5t77.5 -12.5z" />
    <glyph glyph-name="obreve" unicode="&#x14f;" horiz-adv-x="498" 
d="M284 571q-60 0 -82 34t-16 91h51q-9 -74 51 -74q62 -2 69 74h50q-6 -57 -36 -91t-87 -34zM231 -12q-91 0 -140.5 56t-49.5 159q0 69 17 123t48 91t73 56.5t92 19.5q88 0 137.5 -56t49.5 -159q0 -69 -17 -122.5t-47.5 -91t-72 -57t-90.5 -19.5zM235 41q33 0 62 15
t50.5 44.5t34 73t12.5 101.5q0 82 -34.5 123.5t-94.5 41.5q-33 0 -62.5 -14.5t-51 -44t-34 -73t-12.5 -101.5q0 -83 34.5 -124.5t95.5 -41.5z" />
    <glyph glyph-name="Ohungarumlaut" unicode="&#x150;" horiz-adv-x="677" 
d="M350 865h80l-98 -123h-57zM483 865h81l-99 -123h-56zM323 -6q-53 0 -101.5 16t-85 51.5t-58.5 92t-22 137.5q0 113 27 191.5t72 128.5t104 72.5t123 22.5q51 0 98.5 -17t83.5 -53t58 -93t22 -137q0 -112 -26 -190.5t-70.5 -127.5t-102.5 -71.5t-122 -22.5zM329 49
q50 0 95 19t79 61.5t54 110t20 163.5q0 68 -17 115t-45 76.5t-64.5 43t-74.5 13.5q-50 0 -95.5 -19.5t-80.5 -62t-56 -110.5t-21 -164q0 -69 17 -116t45.5 -76t66 -41.5t77.5 -12.5z" />
    <glyph glyph-name="ohungarumlaut" unicode="&#x151;" horiz-adv-x="498" 
d="M254 720h75l-104 -162h-53zM388 720h75l-104 -162h-53zM231 -12q-91 0 -140.5 56t-49.5 159q0 69 17 123t48 91t73 56.5t92 19.5q88 0 137.5 -56t49.5 -159q0 -69 -17 -122.5t-47.5 -91t-72 -57t-90.5 -19.5zM235 41q33 0 62 15t50.5 44.5t34 73t12.5 101.5
q0 82 -34.5 123.5t-94.5 41.5q-33 0 -62.5 -14.5t-51 -44t-34 -73t-12.5 -101.5q0 -83 34.5 -124.5t95.5 -41.5z" />
    <glyph glyph-name="OE" unicode="&#x152;" horiz-adv-x="979" 
d="M310 -6q-59 0 -106 21t-80 60t-50.5 95t-17.5 126q0 93 22.5 169t63.5 129.5t100 82.5t131 29q41 0 75.5 -12t61 -32.5t44 -48.5t24.5 -60l17 147h392l-7 -59h-328l-27 -256h281l-7 -60h-280l-28 -266h328l-6 -59h-392l14 137q-26 -64 -85 -103.5t-140 -39.5zM316 50
q53 0 98 22.5t78 66.5t51 110t18 154q0 63 -14.5 109.5t-40 77t-60.5 45.5t-76 15q-52 0 -97 -22t-78.5 -65.5t-52.5 -109.5t-19 -153q0 -63 14.5 -109.5t40 -78t61 -47t77.5 -15.5z" />
    <glyph glyph-name="oe" unicode="&#x153;" horiz-adv-x="793" 
d="M218 -12q-88 0 -134.5 57t-46.5 160q0 65 16 118.5t45 91t71 58t94 20.5q36 0 63 -12t46.5 -30.5t32 -40t20.5 -40.5q27 60 70 90t106 30q75 0 116.5 -48t41.5 -132q0 -11 -1 -29.5t-6 -41.5h-307q-2 -13 -2 -20.5v-15.5q0 -79 33 -119.5t91 -40.5q49 0 80 19.5t51 45.5
l37 -31q-29 -41 -73 -64.5t-101 -23.5q-34 0 -62 10t-48.5 27t-33.5 39t-18 46q-23 -55 -70.5 -89t-110.5 -34zM229 41q33 0 61 15t48.5 44.5t32.5 73t12 100.5q0 82 -33.5 124t-88.5 42q-34 0 -63 -15t-50.5 -44.5t-34 -73t-12.5 -99.5q0 -83 34.5 -125t93.5 -42zM696 287
q6 71 -18.5 110.5t-82.5 39.5q-55 0 -92 -36t-52 -114h245z" />
    <glyph glyph-name="Racute" unicode="&#x154;" horiz-adv-x="597" 
d="M388 865h85l-113 -123h-63zM513 -3q-35 0 -56.5 22t-36 55.5t-25.5 72t-25 72t-34.5 55.5t-53.5 22h-125l-31 -296h-64l74 700h213q95 0 148.5 -43.5t53.5 -134.5q0 -44 -12.5 -79t-35 -61t-53 -43.5t-66.5 -26.5q20 -11 33.5 -34t23 -51.5t18 -58.5t19.5 -55t26 -41
t38 -16h22l-6 -56q-3 0 -16 -1.5t-29 -1.5zM301 348q38 0 71 10.5t58.5 31.5t40 51.5t14.5 70.5q0 62 -36.5 97.5t-108.5 35.5h-146l-32 -297h139z" />
    <glyph glyph-name="racute" unicode="&#x155;" horiz-adv-x="336" 
d="M278 720h78l-118 -162h-57zM92 386q4 29 -4 40.5t-30 11.5l5 47q5 1 12.5 2t16.5 1q68 0 60 -76l-3 -28q19 51 59.5 80t92.5 29q17 0 32.5 -4t24.5 -9l-32 -59q-7 4 -19.5 7t-26.5 3q-28 0 -51.5 -13t-41.5 -35.5t-29 -52.5t-15 -65l-28 -265h-63z" />
    <glyph glyph-name="uni0156" unicode="&#x156;" horiz-adv-x="597" 
d="M513 -3q-35 0 -56.5 22t-36 55.5t-25.5 72t-25 72t-34.5 55.5t-53.5 22h-125l-31 -296h-64l74 700h213q95 0 148.5 -43.5t53.5 -134.5q0 -44 -12.5 -79t-35 -61t-53 -43.5t-66.5 -26.5q20 -11 33.5 -34t23 -51.5t18 -58.5t19.5 -55t26 -41t38 -16h22l-6 -56
q-3 0 -16 -1.5t-29 -1.5zM301 348q38 0 71 10.5t58.5 31.5t40 51.5t14.5 70.5q0 62 -36.5 97.5t-108.5 35.5h-146l-32 -297h139zM231 -189q20 9 33.5 23t16.5 32q-41 8 -41 45q0 23 14.5 36.5t34.5 13.5q21 0 34 -14t13 -40q0 -20 -7.5 -40t-19.5 -37t-28 -30t-34 -19z" />
    <glyph glyph-name="uni0157" unicode="&#x157;" horiz-adv-x="336" 
d="M92 386q4 29 -4 40.5t-30 11.5l5 47q5 1 12.5 2t16.5 1q68 0 60 -76l-3 -28q19 51 59.5 80t92.5 29q17 0 32.5 -4t24.5 -9l-32 -59q-7 4 -19.5 7t-26.5 3q-28 0 -51.5 -13t-41.5 -35.5t-29 -52.5t-15 -65l-28 -265h-63zM21 -189q20 9 33.5 23t16.5 32q-41 8 -41 45
q0 23 14.5 36.5t34.5 13.5q21 0 34 -14t13 -40q0 -20 -7.5 -40t-19.5 -37t-28 -30t-34 -19z" />
    <glyph glyph-name="Rcaron" unicode="&#x158;" horiz-adv-x="597" 
d="M245 865h59l52 -77l70 77h58l-97 -123h-71zM513 -3q-35 0 -56.5 22t-36 55.5t-25.5 72t-25 72t-34.5 55.5t-53.5 22h-125l-31 -296h-64l74 700h213q95 0 148.5 -43.5t53.5 -134.5q0 -44 -12.5 -79t-35 -61t-53 -43.5t-66.5 -26.5q20 -11 33.5 -34t23 -51.5t18 -58.5
t19.5 -55t26 -41t38 -16h22l-6 -56q-3 0 -16 -1.5t-29 -1.5zM301 348q38 0 71 10.5t58.5 31.5t40 51.5t14.5 70.5q0 62 -36.5 97.5t-108.5 35.5h-146l-32 -297h139z" />
    <glyph glyph-name="rcaron" unicode="&#x159;" horiz-adv-x="336" 
d="M125 720h57l50 -114l72 114h56l-101 -162h-66zM92 386q4 29 -4 40.5t-30 11.5l5 47q5 1 12.5 2t16.5 1q68 0 60 -76l-3 -28q19 51 59.5 80t92.5 29q17 0 32.5 -4t24.5 -9l-32 -59q-7 4 -19.5 7t-26.5 3q-28 0 -51.5 -13t-41.5 -35.5t-29 -52.5t-15 -65l-28 -265h-63z" />
    <glyph glyph-name="Sacute" unicode="&#x15a;" horiz-adv-x="549" 
d="M357 865h85l-113 -123h-63zM256 -6q-94 0 -150 29t-86 89l51 37q24 -51 69.5 -75.5t121.5 -24.5q85 0 131 37t46 106q0 28 -8.5 49.5t-29 38t-53 29.5t-80.5 23q-90 20 -138 58.5t-48 115.5q0 47 16.5 84t47.5 63t75 39.5t98 13.5q41 0 78 -8.5t64.5 -27t44 -47.5
t16.5 -70q0 -20 -2.5 -30.5t-6.5 -21.5l-59 1q3 11 4.5 20t1.5 20q0 58 -40.5 83.5t-107.5 25.5q-81 0 -123.5 -36t-42.5 -100q0 -27 8.5 -46t27.5 -33.5t50 -25t77 -21.5q54 -13 91 -29.5t60 -39.5t33 -52.5t10 -67.5q0 -100 -66 -153t-181 -53z" />
    <glyph glyph-name="sacute" unicode="&#x15b;" horiz-adv-x="439" 
d="M306 720h78l-118 -162h-57zM195 -12q-60 0 -108.5 21t-73.5 75l48 36q12 -24 28.5 -39.5t34.5 -24.5t37.5 -12t38.5 -3q126 0 126 86q0 21 -10 35.5t-26.5 24.5t-38.5 16t-46 12q-26 6 -51.5 15.5t-46 25t-33.5 38.5t-13 56q0 68 48 105.5t134 37.5q72 0 115.5 -31
t43.5 -91q0 -17 -4 -32t-9 -26h-56q5 8 7.5 22.5t2.5 26.5q0 40 -28.5 59t-77.5 19q-57 0 -85.5 -22t-28.5 -60q0 -22 8.5 -36.5t24.5 -24.5t39 -16.5t51 -13.5q26 -6 51.5 -15t45.5 -23.5t32.5 -36.5t12.5 -55q0 -75 -52 -112t-141 -37z" />
    <glyph glyph-name="Scircumflex" unicode="&#x15c;" horiz-adv-x="549" 
d="M297 865h71l71 -123h-59l-53 77l-70 -77h-57zM256 -6q-94 0 -150 29t-86 89l51 37q24 -51 69.5 -75.5t121.5 -24.5q85 0 131 37t46 106q0 28 -8.5 49.5t-29 38t-53 29.5t-80.5 23q-90 20 -138 58.5t-48 115.5q0 47 16.5 84t47.5 63t75 39.5t98 13.5q41 0 78 -8.5
t64.5 -27t44 -47.5t16.5 -70q0 -20 -2.5 -30.5t-6.5 -21.5l-59 1q3 11 4.5 20t1.5 20q0 58 -40.5 83.5t-107.5 25.5q-81 0 -123.5 -36t-42.5 -100q0 -27 8.5 -46t27.5 -33.5t50 -25t77 -21.5q54 -13 91 -29.5t60 -39.5t33 -52.5t10 -67.5q0 -100 -66 -153t-181 -53z" />
    <glyph glyph-name="scircumflex" unicode="&#x15d;" horiz-adv-x="439" 
d="M236 720h68l67 -162h-57l-49 114l-73 -114h-57zM195 -12q-60 0 -108.5 21t-73.5 75l48 36q12 -24 28.5 -39.5t34.5 -24.5t37.5 -12t38.5 -3q126 0 126 86q0 21 -10 35.5t-26.5 24.5t-38.5 16t-46 12q-26 6 -51.5 15.5t-46 25t-33.5 38.5t-13 56q0 68 48 105.5t134 37.5
q72 0 115.5 -31t43.5 -91q0 -17 -4 -32t-9 -26h-56q5 8 7.5 22.5t2.5 26.5q0 40 -28.5 59t-77.5 19q-57 0 -85.5 -22t-28.5 -60q0 -22 8.5 -36.5t24.5 -24.5t39 -16.5t51 -13.5q26 -6 51.5 -15t45.5 -23.5t32.5 -36.5t12.5 -55q0 -75 -52 -112t-141 -37z" />
    <glyph glyph-name="Scedilla" unicode="&#x15e;" horiz-adv-x="549" 
d="M454 502q3 11 4.5 20t1.5 20q0 58 -40.5 83.5t-107.5 25.5q-81 0 -123.5 -36t-42.5 -100q0 -27 8.5 -46t27.5 -33.5t50 -25t77 -21.5q54 -13 91 -29.5t60 -39.5t33 -52.5t10 -67.5q0 -96 -61 -148.5t-169 -57.5l-13 -31q30 -7 48.5 -24.5t18.5 -49.5q0 -42 -29.5 -60.5
t-69.5 -18.5q-53 0 -83 30l29 36q21 -21 50 -21q43 0 43 36q0 17 -17 27t-50 11l30 66q-81 4 -131.5 32.5t-78.5 84.5l51 37q24 -51 69.5 -75.5t121.5 -24.5q85 0 131 37t46 106q0 28 -8.5 49.5t-29 38t-53 29.5t-80.5 23q-90 20 -138 58.5t-48 115.5q0 47 16.5 84t47.5 63
t75 39.5t98 13.5q41 0 78 -8.5t64.5 -27t44 -47.5t16.5 -70q0 -20 -2.5 -30.5t-6.5 -21.5z" />
    <glyph glyph-name="scedilla" unicode="&#x15f;" horiz-adv-x="439" 
d="M333 313q5 8 7.5 22.5t2.5 26.5q0 40 -28.5 59t-77.5 19q-57 0 -85.5 -22t-28.5 -60q0 -22 8.5 -36.5t24.5 -24.5t39 -16.5t51 -13.5q26 -6 51.5 -15t45.5 -23.5t32.5 -36.5t12.5 -55q0 -69 -44.5 -106t-121.5 -42l-11 -26q30 -7 48.5 -24.5t18.5 -49.5
q0 -42 -29.5 -60.5t-69.5 -18.5q-53 0 -83 30l29 36q21 -21 50 -21q43 0 43 36q0 17 -17 27t-50 11l27 59q-54 3 -98 24.5t-67 71.5l48 36q12 -24 28.5 -39.5t34.5 -24.5t37.5 -12t38.5 -3q126 0 126 86q0 21 -10 35.5t-26.5 24.5t-38.5 16t-46 12q-26 6 -51.5 15.5t-46 25
t-33.5 38.5t-13 56q0 68 48 105.5t134 37.5q72 0 115.5 -31t43.5 -91q0 -17 -4 -32t-9 -26h-56z" />
    <glyph glyph-name="Scaron" unicode="&#x160;" horiz-adv-x="549" 
d="M214 865h59l52 -77l70 77h58l-97 -123h-71zM256 -6q-94 0 -150 29t-86 89l51 37q24 -51 69.5 -75.5t121.5 -24.5q85 0 131 37t46 106q0 28 -8.5 49.5t-29 38t-53 29.5t-80.5 23q-90 20 -138 58.5t-48 115.5q0 47 16.5 84t47.5 63t75 39.5t98 13.5q41 0 78 -8.5t64.5 -27
t44 -47.5t16.5 -70q0 -20 -2.5 -30.5t-6.5 -21.5l-59 1q3 11 4.5 20t1.5 20q0 58 -40.5 83.5t-107.5 25.5q-81 0 -123.5 -36t-42.5 -100q0 -27 8.5 -46t27.5 -33.5t50 -25t77 -21.5q54 -13 91 -29.5t60 -39.5t33 -52.5t10 -67.5q0 -100 -66 -153t-181 -53z" />
    <glyph glyph-name="scaron" unicode="&#x161;" horiz-adv-x="439" 
d="M153 720h57l50 -114l72 114h56l-101 -162h-66zM195 -12q-60 0 -108.5 21t-73.5 75l48 36q12 -24 28.5 -39.5t34.5 -24.5t37.5 -12t38.5 -3q126 0 126 86q0 21 -10 35.5t-26.5 24.5t-38.5 16t-46 12q-26 6 -51.5 15.5t-46 25t-33.5 38.5t-13 56q0 68 48 105.5t134 37.5
q72 0 115.5 -31t43.5 -91q0 -17 -4 -32t-9 -26h-56q5 8 7.5 22.5t2.5 26.5q0 40 -28.5 59t-77.5 19q-57 0 -85.5 -22t-28.5 -60q0 -22 8.5 -36.5t24.5 -24.5t39 -16.5t51 -13.5q26 -6 51.5 -15t45.5 -23.5t32.5 -36.5t12.5 -55q0 -75 -52 -112t-141 -37z" />
    <glyph glyph-name="uni0162" unicode="&#x162;" horiz-adv-x="506" 
d="M539 700l-6 -59h-206l-67 -641h-6l-16 -37q30 -7 48.5 -24.5t18.5 -49.5q0 -42 -29.5 -60.5t-69.5 -18.5q-53 0 -83 30l29 36q21 -21 50 -21q43 0 43 36q0 17 -17 27t-50 11l33 71h-15l68 641h-206l7 59h474z" />
    <glyph glyph-name="uni0163" unicode="&#x163;" horiz-adv-x="371" 
d="M156 165q-6 -60 13.5 -87.5t66.5 -27.5q24 0 46.5 10.5t37.5 24.5l28 -44q-20 -20 -52 -33.5t-66 -15.5l-12 -29q30 -7 48.5 -24.5t18.5 -49.5q0 -42 -29.5 -60.5t-69.5 -18.5q-53 0 -83 30l29 36q21 -21 50 -21q43 0 43 36q0 17 -17 27t-50 11l30 65q-57 9 -80 50
t-15 119l28 264h-86l6 55h88l14 140h61l-14 -140h182l-6 -55h-183z" />
    <glyph glyph-name="Tcaron" unicode="&#x164;" horiz-adv-x="506" 
d="M197 865h59l52 -77l70 77h58l-97 -123h-71zM264 641h-206l7 59h474l-6 -59h-206l-67 -641h-64z" />
    <glyph glyph-name="tcaron" unicode="&#x165;" horiz-adv-x="371" 
d="M289 587q20 8 33 21.5t15 29.5q-39 9 -39 45q0 23 14.5 36.5t35.5 13.5q20 0 33.5 -14t13.5 -40q0 -20 -7.5 -39.5t-19.5 -36.5t-28.5 -29.5t-34.5 -18.5zM223 -8q-77 0 -108 41.5t-22 129.5l28 264h-86l6 55h88l14 140h61l-14 -140h182l-6 -55h-183l-27 -262
q-6 -60 13.5 -87.5t66.5 -27.5q24 0 46.5 10.5t37.5 24.5l28 -44q-22 -21 -56 -35t-69 -14z" />
    <glyph glyph-name="Tbar" unicode="&#x166;" horiz-adv-x="534" 
d="M331 641l-29 -275h98l-6 -54h-98l-33 -312h-63l33 312h-89l6 54h88l29 275h-205l6 59h475l-7 -59h-205z" />
    <glyph glyph-name="tbar" unicode="&#x167;" horiz-adv-x="390" 
d="M186 427l-14 -139h123l-6 -56h-123l-7 -67q-6 -60 13.5 -87.5t66.5 -27.5q24 0 47 10.5t38 24.5l27 -44q-22 -21 -56 -35t-69 -14q-76 0 -107.5 41.5t-22.5 129.5l7 69h-65l6 56h65l15 139h-86l6 55h89l13 140h61l-14 -140h182l-6 -55h-183z" />
    <glyph glyph-name="Utilde" unicode="&#x168;" horiz-adv-x="642" 
d="M246 749q-6 12 -6 32q0 30 20.5 51t54.5 21q20 0 36 -7t30 -16t27 -16t28 -7q12 0 20 8t8 25q0 12 -4 17h50q2 -6 3 -14t1 -17q0 -31 -19.5 -52.5t-59.5 -21.5q-21 0 -36.5 7.5t-29 16t-25.5 16t-25 7.5q-11 0 -19.5 -8.5t-8.5 -22.5q0 -11 4 -19h-49zM298 -6
q-52 0 -95.5 14.5t-72.5 48t-42 89.5t-4 140l43 414h65l-44 -418q-7 -63 1 -107t28 -71.5t52 -40.5t74 -13q41 0 75.5 12t60.5 39t43 71.5t24 109.5l44 418h61l-43 -414q-9 -86 -33 -142.5t-59.5 -89.5t-80.5 -46.5t-97 -13.5z" />
    <glyph glyph-name="utilde" unicode="&#x169;" horiz-adv-x="506" 
d="M161 583q-5 15 -5 33q0 29 19 50t57 21q20 0 35.5 -7t29 -16t26 -16t26.5 -7q29 0 29 32q0 14 -4 19h50q5 -13 5 -30q0 -32 -19 -53t-56 -21q-22 0 -39 7t-30 15.5t-24 15.5t-23 7q-31 0 -31 -31q0 -11 3 -19h-49zM193 -12q-71 0 -108.5 42t-27.5 129l34 323h62l-33 -316
q-7 -69 20 -96.5t76 -27.5q33 0 58.5 14.5t44 36t29 47.5t13.5 49l31 293h63l-41 -382q-3 -29 4.5 -41t30.5 -12l-6 -46q-2 -1 -9 -2t-20 -1q-33 0 -48.5 19t-10.5 56l3 22q-11 -21 -26 -40t-35 -34t-45.5 -24t-58.5 -9z" />
    <glyph glyph-name="Umacron" unicode="&#x16a;" horiz-adv-x="642" 
d="M264 826h240l-5 -54h-240zM298 -6q-52 0 -95.5 14.5t-72.5 48t-42 89.5t-4 140l43 414h65l-44 -418q-7 -63 1 -107t28 -71.5t52 -40.5t74 -13q41 0 75.5 12t60.5 39t43 71.5t24 109.5l44 418h61l-43 -414q-9 -86 -33 -142.5t-59.5 -89.5t-80.5 -46.5t-97 -13.5z" />
    <glyph glyph-name="umacron" unicode="&#x16b;" horiz-adv-x="506" 
d="M182 662h233l-6 -52h-233zM193 -12q-71 0 -108.5 42t-27.5 129l34 323h62l-33 -316q-7 -69 20 -96.5t76 -27.5q33 0 58.5 14.5t44 36t29 47.5t13.5 49l31 293h63l-41 -382q-3 -29 4.5 -41t30.5 -12l-6 -46q-2 -1 -9 -2t-20 -1q-33 0 -48.5 19t-10.5 56l3 22
q-11 -21 -26 -40t-35 -34t-45.5 -24t-58.5 -9z" />
    <glyph glyph-name="Ubreve" unicode="&#x16c;" horiz-adv-x="642" 
d="M375 744q-48 0 -74.5 31t-20.5 87h51q-3 -29 9.5 -47t39.5 -18q32 0 47 18t18 47h50q-5 -55 -37 -86.5t-83 -31.5zM298 -6q-52 0 -95.5 14.5t-72.5 48t-42 89.5t-4 140l43 414h65l-44 -418q-7 -63 1 -107t28 -71.5t52 -40.5t74 -13q41 0 75.5 12t60.5 39t43 71.5
t24 109.5l44 418h61l-43 -414q-9 -86 -33 -142.5t-59.5 -89.5t-80.5 -46.5t-97 -13.5z" />
    <glyph glyph-name="ubreve" unicode="&#x16d;" horiz-adv-x="506" 
d="M288 571q-60 0 -82 34t-16 91h51q-9 -74 51 -74q62 -2 69 74h50q-6 -57 -36 -91t-87 -34zM193 -12q-71 0 -108.5 42t-27.5 129l34 323h62l-33 -316q-7 -69 20 -96.5t76 -27.5q33 0 58.5 14.5t44 36t29 47.5t13.5 49l31 293h63l-41 -382q-3 -29 4.5 -41t30.5 -12l-6 -46
q-2 -1 -9 -2t-20 -1q-33 0 -48.5 19t-10.5 56l3 22q-11 -21 -26 -40t-35 -34t-45.5 -24t-58.5 -9z" />
    <glyph glyph-name="Uring" unicode="&#x16e;" horiz-adv-x="642" 
d="M372 704q-42 0 -66 25.5t-24 66.5q0 48 29.5 81t79.5 33q42 0 66 -26t24 -67q0 -48 -29.5 -80.5t-79.5 -32.5zM376 750q27 0 41.5 17.5t14.5 45.5q0 23 -11.5 36t-33.5 13q-26 0 -41.5 -17t-15.5 -45q0 -23 12 -36.5t34 -13.5zM298 -6q-52 0 -95.5 14.5t-72.5 48
t-42 89.5t-4 140l43 414h65l-44 -418q-7 -63 1 -107t28 -71.5t52 -40.5t74 -13q41 0 75.5 12t60.5 39t43 71.5t24 109.5l44 418h61l-43 -414q-9 -86 -33 -142.5t-59.5 -89.5t-80.5 -46.5t-97 -13.5z" />
    <glyph glyph-name="uring" unicode="&#x16f;" horiz-adv-x="506" 
d="M287 532q-41 0 -65.5 25.5t-24.5 64.5q0 46 30 77.5t75 31.5q40 0 64.5 -25.5t24.5 -64.5q0 -46 -29.5 -77.5t-74.5 -31.5zM291 579q23 0 38 16t15 42q0 20 -11.5 33.5t-33.5 13.5q-24 0 -39.5 -16t-15.5 -42q0 -22 12 -34.5t35 -12.5zM193 -12q-71 0 -108.5 42
t-27.5 129l34 323h62l-33 -316q-7 -69 20 -96.5t76 -27.5q33 0 58.5 14.5t44 36t29 47.5t13.5 49l31 293h63l-41 -382q-3 -29 4.5 -41t30.5 -12l-6 -46q-2 -1 -9 -2t-20 -1q-33 0 -48.5 19t-10.5 56l3 22q-11 -21 -26 -40t-35 -34t-45.5 -24t-58.5 -9z" />
    <glyph glyph-name="Uhungarumlaut" unicode="&#x170;" horiz-adv-x="642" 
d="M333 865h80l-98 -123h-57zM466 865h81l-99 -123h-56zM298 -6q-52 0 -95.5 14.5t-72.5 48t-42 89.5t-4 140l43 414h65l-44 -418q-7 -63 1 -107t28 -71.5t52 -40.5t74 -13q41 0 75.5 12t60.5 39t43 71.5t24 109.5l44 418h61l-43 -414q-9 -86 -33 -142.5t-59.5 -89.5
t-80.5 -46.5t-97 -13.5z" />
    <glyph glyph-name="uhungarumlaut" unicode="&#x171;" horiz-adv-x="506" 
d="M259 720h75l-104 -162h-53zM393 720h75l-104 -162h-53zM193 -12q-71 0 -108.5 42t-27.5 129l34 323h62l-33 -316q-7 -69 20 -96.5t76 -27.5q33 0 58.5 14.5t44 36t29 47.5t13.5 49l31 293h63l-41 -382q-3 -29 4.5 -41t30.5 -12l-6 -46q-2 -1 -9 -2t-20 -1q-33 0 -48.5 19
t-10.5 56l3 22q-11 -21 -26 -40t-35 -34t-45.5 -24t-58.5 -9z" />
    <glyph glyph-name="Uogonek" unicode="&#x172;" horiz-adv-x="642" 
d="M611 700l-43 -414q-8 -74 -27 -126t-47 -85.5t-63.5 -52t-77.5 -24.5q-32 -11 -54 -36t-22 -54q0 -38 35 -38q11 0 18.5 3.5t14.5 8.5l18 -34q-11 -11 -28.5 -17.5t-38.5 -6.5q-36 0 -56 18t-20 52q0 28 15 54t42 47q-48 3 -87.5 19t-65.5 50t-37 88.5t-3 133.5l43 414
h65l-44 -418q-7 -63 1 -107t28 -71.5t52 -40.5t74 -13q41 0 75.5 12t60.5 39t43 71.5t24 109.5l44 418h61z" />
    <glyph glyph-name="uogonek" unicode="&#x173;" horiz-adv-x="506" 
d="M399 -128q11 0 18.5 3.5t14.5 8.5l18 -34q-11 -11 -28.5 -17.5t-38.5 -6.5q-36 0 -56 18t-20 52q0 31 19 60t52 51q-30 18 -23 66l3 22q-11 -21 -26 -40t-35 -34t-45.5 -24t-58.5 -9q-71 0 -108.5 42t-27.5 129l34 323h62l-33 -316q-7 -69 20 -96.5t76 -27.5
q33 0 58.5 14.5t44 36t29 47.5t13.5 49l31 293h63l-41 -382q-3 -29 4.5 -41t30.5 -12l-6 -45l1 -1q-34 -10 -57 -35.5t-23 -55.5q0 -38 35 -38z" />
    <glyph glyph-name="Wcircumflex" unicode="&#x174;" horiz-adv-x="877" 
d="M470 865h71l71 -123h-59l-53 77l-70 -77h-57zM69 700h72l83 -626l234 626h62l101 -626l216 626h69l-257 -700h-72l-98 604l-229 -604h-71z" />
    <glyph glyph-name="wcircumflex" unicode="&#x175;" horiz-adv-x="684" 
d="M314 558h-57l101 162h68l67 -162h-57l-49 114zM690 482l-195 -483h-72l-56 349l-5 46l-16 -46l-136 -349h-71l-93 483h65l58 -348l11 -74l27 74l134 348h61l56 -347l10 -75l27 75l133 347h62z" />
    <glyph glyph-name="Ycircumflex" unicode="&#x176;" horiz-adv-x="560" 
d="M313 865h71l71 -123h-59l-53 77l-70 -77h-57zM255 293l-186 407h73l151 -345l223 345h74l-272 -407l-31 -293h-63z" />
    <glyph glyph-name="ycircumflex" unicode="&#x177;" horiz-adv-x="497" 
d="M263 720h68l67 -162h-57l-49 114l-73 -114h-57zM186 -247q-73 0 -113.5 26t-55.5 68l47 32q15 -34 44.5 -53t83.5 -19q62 0 100 36.5t45 101.5l16 155q-22 -50 -65.5 -78.5t-98.5 -28.5q-149 0 -132 170l34 319h63l-33 -312q-13 -123 93 -123q26 0 51 12.5t45.5 33.5
t34 49.5t16.5 59.5l29 280h63l-56 -541q-10 -87 -66.5 -137.5t-144.5 -50.5z" />
    <glyph glyph-name="Ydieresis" unicode="&#x178;" horiz-adv-x="560" 
d="M247 756q-20 0 -32 12.5t-12 30.5q0 23 13.5 38.5t35.5 15.5q20 0 32 -12.5t12 -32.5q0 -24 -13.5 -38t-35.5 -14zM429 756q-20 0 -32.5 11t-12.5 33q0 23 14.5 38t36.5 15q20 0 31.5 -12.5t11.5 -31.5q0 -25 -13 -39t-36 -14zM255 293l-186 407h73l151 -345l223 345h74
l-272 -407l-31 -293h-63z" />
    <glyph glyph-name="Zacute" unicode="&#x179;" horiz-adv-x="542" 
d="M334 742h-63l91 123h85zM552 651l-464 -596h402l-6 -55h-477l5 50l466 595h-402l6 55h475z" />
    <glyph glyph-name="zacute" unicode="&#x17a;" horiz-adv-x="461" 
d="M273 558h-57l97 162h78zM422 429l-242 -186q34 -6 73 -21.5t72 -44t55 -73t22 -109.5q0 -59 -17.5 -103t-47.5 -73.5t-69.5 -44.5t-82.5 -15q-81 0 -129.5 42.5t-48.5 120.5q0 54 19 96.5t47 74.5t61 54t60 35q-21 6 -43.5 9t-46.5 5l6 56l229 176h-269l6 54h352z
M345 -15q0 69 -26.5 111.5t-71.5 65.5q-26 -12 -57.5 -31t-58.5 -47t-45 -65.5t-18 -85.5q0 -58 33.5 -89.5t90.5 -31.5q31 0 58.5 11t48.5 32.5t33.5 54t12.5 75.5z" />
    <glyph glyph-name="Zdotaccent" unicode="&#x17b;" horiz-adv-x="542" 
d="M325 754q-18 0 -30.5 13t-12.5 33q0 22 17 38t37 16q19 0 31.5 -13.5t12.5 -32.5q0 -22 -17 -38t-38 -16zM552 651l-464 -596h402l-6 -55h-477l5 50l466 595h-402l6 55h475z" />
    <glyph glyph-name="zdotaccent" unicode="&#x17c;" horiz-adv-x="461" 
d="M267 589q-21 0 -32.5 12.5t-11.5 31.5q0 21 13.5 36.5t38.5 15.5q20 0 31.5 -13t11.5 -30q0 -22 -13.5 -37.5t-37.5 -15.5zM422 429l-242 -186q34 -6 73 -21.5t72 -44t55 -73t22 -109.5q0 -59 -17.5 -103t-47.5 -73.5t-69.5 -44.5t-82.5 -15q-81 0 -129.5 42.5
t-48.5 120.5q0 54 19 96.5t47 74.5t61 54t60 35q-21 6 -43.5 9t-46.5 5l6 56l229 176h-269l6 54h352zM345 -15q0 69 -26.5 111.5t-71.5 65.5q-26 -12 -57.5 -31t-58.5 -47t-45 -65.5t-18 -85.5q0 -58 33.5 -89.5t90.5 -31.5q31 0 58.5 11t48.5 32.5t33.5 54t12.5 75.5z" />
    <glyph glyph-name="Zcaron" unicode="&#x17d;" horiz-adv-x="542" 
d="M290 742l-71 123h59l52 -77l70 77h58l-97 -123h-71zM552 651l-464 -596h402l-6 -55h-477l5 50l466 595h-402l6 55h475z" />
    <glyph glyph-name="zcaron" unicode="&#x17e;" horiz-adv-x="461" 
d="M228 558l-68 162h57l50 -114l72 114h56l-101 -162h-66zM422 429l-242 -186q34 -6 73 -21.5t72 -44t55 -73t22 -109.5q0 -59 -17.5 -103t-47.5 -73.5t-69.5 -44.5t-82.5 -15q-81 0 -129.5 42.5t-48.5 120.5q0 54 19 96.5t47 74.5t61 54t60 35q-21 6 -43.5 9t-46.5 5l6 56
l229 176h-269l6 54h352zM345 -15q0 69 -26.5 111.5t-71.5 65.5q-26 -12 -57.5 -31t-58.5 -47t-45 -65.5t-18 -85.5q0 -58 33.5 -89.5t90.5 -31.5q31 0 58.5 11t48.5 32.5t33.5 54t12.5 75.5z" />
    <glyph glyph-name="uni018F" unicode="&#x18f;" horiz-adv-x="622" 
d="M344 706q117 0 181 -76t64 -218q0 -100 -22 -177.5t-62 -131t-97 -81.5t-126 -28q-118 0 -178.5 71t-60.5 196q0 30 2.5 50t6.5 37h469q1 14 1.5 29.5t0.5 31.5q0 116 -49 179t-135 63q-65 0 -110 -28t-80 -77l-47 27q41 60 98.5 96.5t143.5 36.5zM291 49
q86 0 144.5 63.5t78.5 182.5h-406q-8 -118 36 -182t147 -64z" />
    <glyph glyph-name="florin" unicode="&#x192;" horiz-adv-x="385" 
d="M-16 -174q-38 0 -62.5 14.5t-35.5 38.5l41 35q18 -35 57 -35q42 0 68.5 29.5t32.5 81.5l44 422h-67l6 51h67l9 85q8 77 51 119.5t112 42.5q75 0 109 -52l-38 -37q-14 19 -29.5 27t-41.5 8q-42 0 -68.5 -29t-31.5 -81l-9 -83h168l-5 -51h-169l-44 -425
q-8 -76 -51.5 -118.5t-112.5 -42.5z" />
    <glyph glyph-name="uni019D" unicode="&#x19d;" horiz-adv-x="644" 
d="M606 700l-75 -700h-57l-282 570l-8 22l-61 -592l-6 -49q-9 -87 -52 -126t-107 -39q-37 0 -63 11.5t-38 29.5l44 50q11 -16 27.5 -23t36.5 -7q35 0 59.5 22.5t30.5 68.5l7 62l74 700h56l280 -571l9 -24l63 595h62z" />
    <glyph glyph-name="Gcaron" unicode="&#x1e6;" horiz-adv-x="621" 
d="M271 865h59l52 -77l70 77h58l-97 -123h-71zM313 -9q-125 0 -191 78t-66 224q0 97 23.5 173.5t66 130t102 81.5t132.5 28q102 0 154 -45t52 -123q0 -35 -11 -60h-61q3 8 5.5 20t2.5 29q0 60 -39 92t-111 32q-56 0 -102 -24t-78.5 -69t-50.5 -110t-18 -148q0 -116 51 -185
t149 -69q62 0 104 17.5t62 40.5l19 178h-166l6 59h228l-27 -261q-33 -34 -92 -61.5t-144 -27.5z" />
    <glyph glyph-name="gcaron" unicode="&#x1e7;" horiz-adv-x="507" 
d="M183 720h57l50 -114l72 114h56l-101 -162h-66zM195 -240q-66 0 -108.5 26t-59.5 67l48 33q13 -31 44.5 -51.5t81.5 -20.5q63 0 101 36.5t45 101.5l14 131q-17 -37 -54 -65t-99 -28q-81 0 -124.5 57t-43.5 154q0 63 16 116.5t44.5 92t69.5 60.5t90 22q50 0 86 -22.5
t53 -60.5l8 73h56l-55 -530q-10 -88 -62 -140t-151 -52zM227 44q54 0 88 32t52 84l18 172q-3 21 -12.5 40.5t-24.5 34t-35.5 23.5t-46.5 9q-38 0 -68 -17t-51 -48t-32 -74t-11 -96q0 -74 31 -117t92 -43z" />
    <glyph glyph-name="uni01EA" unicode="&#x1ea;" horiz-adv-x="677" 
d="M357 -4q-29 -12 -48 -36t-19 -51q0 -38 35 -38q11 0 18.5 3.5t14.5 8.5l18 -34q-11 -11 -28.5 -17.5t-38.5 -6.5q-36 0 -56 18t-20 52q0 28 15 54t42 47q-48 5 -90.5 23.5t-74.5 54t-50.5 89t-18.5 128.5q0 113 27 191.5t72 128.5t104 72.5t123 22.5q51 0 98.5 -17
t83.5 -53t58 -93t22 -137q0 -105 -23 -180t-62 -124.5t-91 -75t-111 -30.5zM123 295q0 -69 17 -116t45.5 -76t66 -41.5t77.5 -12.5q50 0 95 19t79 61.5t54 110t20 163.5q0 68 -17 115t-45 76.5t-64.5 43t-74.5 13.5q-50 0 -95.5 -19.5t-80.5 -62t-56 -110.5t-21 -164z" />
    <glyph glyph-name="uni01EB" unicode="&#x1eb;" horiz-adv-x="498" 
d="M267 -9q-25 -14 -41 -35.5t-16 -46.5q0 -38 35 -38q11 0 18.5 3.5t14.5 8.5l18 -34q-11 -11 -28.5 -17.5t-38.5 -6.5q-36 0 -56 18t-20 52q0 26 13 50.5t36 44.5q-77 8 -119 63t-42 150q0 69 17 123t48 91t73 56.5t92 19.5q88 0 137.5 -56t49.5 -159q0 -62 -14 -112
t-39.5 -87t-60.5 -59t-77 -29zM105 207q0 -83 34.5 -124.5t95.5 -41.5q33 0 62 15t50.5 44.5t34 73t12.5 101.5q0 82 -34.5 123.5t-94.5 41.5q-33 0 -62.5 -14.5t-51 -44t-34 -73t-12.5 -101.5z" />
    <glyph glyph-name="Aringacute" unicode="&#x1fa;" horiz-adv-x="594" 
d="M440 208h-291l-95 -208h-65l314 677q-47 24 -47 83q0 42 23 73t63 39l68 91h84l-89 -97q23 -11 36.5 -33.5t13.5 -51.5q0 -38 -18.5 -66.5t-51.5 -39.5l170 -675h-65zM361 826q-26 0 -41.5 -17t-15.5 -45q0 -23 12 -36.5t34 -13.5q27 0 41.5 17.5t14.5 45.5
q0 23 -11.5 36t-33.5 13zM427 262l-87 363l-166 -363h253z" />
    <glyph glyph-name="aringacute" unicode="&#x1fb;" horiz-adv-x="516" 
d="M292 532q-41 0 -65.5 25.5t-24.5 64.5q0 44 27.5 75t70.5 34l76 128h78l-101 -139q20 -11 31.5 -32t11.5 -47q0 -46 -29.5 -77.5t-74.5 -31.5zM304 684q-24 0 -39.5 -16t-15.5 -42q0 -22 12 -34.5t35 -12.5t38 16t15 42q0 20 -11.5 33.5t-33.5 13.5zM424 102
q-3 -29 4.5 -42.5t30.5 -11.5l-5 -47q-5 -2 -13 -2.5t-16 -0.5q-32 0 -48 19t-14 53l2 14q-23 -42 -62.5 -69t-97.5 -27q-79 0 -122 57.5t-43 154.5q0 64 16 117.5t45 92.5t71 61t94 22q48 0 82.5 -21t51.5 -59l7 69h57zM386 332q-7 45 -36.5 76.5t-80.5 31.5
q-38 0 -68.5 -17.5t-52 -48.5t-33 -74t-11.5 -95q0 -76 31 -120t90 -44q48 0 87 32.5t56 85.5z" />
    <glyph glyph-name="AEacute" unicode="&#x1fc;" horiz-adv-x="769" 
d="M514 865h85l-113 -123h-63zM314 700h465l-7 -55h-383l66 -264h233l-6 -55h-212l67 -271h173l-5 -55h-220l-50 207h-290l-93 -207h-64zM420 261l-86 357l-163 -357h249z" />
    <glyph glyph-name="aeacute" unicode="&#x1fd;" horiz-adv-x="758" 
d="M422 558h-57l97 162h78zM567 493q81 0 119.5 -49.5t36.5 -137.5q0 -29 -2 -41t-4 -21h-313q-1 -10 -1.5 -19t-0.5 -19q0 -80 32.5 -122t95.5 -42q46 0 77 18t54 49l36 -31q-27 -39 -71 -64.5t-104 -25.5q-69 0 -111.5 33.5t-59.5 94.5q-40 -70 -90.5 -98t-109.5 -28
q-61 0 -95.5 29.5t-34.5 82.5q0 69 48 106t140 37h130l9 77q6 57 -19 87t-81 30q-59 0 -89 -27t-30 -76q0 -22 5 -35h-57q-7 16 -7 41q0 34 13.5 61.5t38 47.5t58.5 31t76 11q60 0 96 -23.5t50 -64.5q30 42 72 65t93 23zM661 293q3 31 -1 57.5t-15.5 46.5t-32.5 31.5
t-53 11.5t-56.5 -11.5t-43 -31.5t-30.5 -47t-18 -57h250zM166 41q55 0 97.5 34t68.5 97l3 27l-132 -1q-59 0 -87.5 -22.5t-28.5 -64.5q0 -34 21.5 -52t57.5 -18z" />
    <glyph glyph-name="Oslashacute" unicode="&#x1fe;" horiz-adv-x="677" 
d="M368 742h-63l91 123h85zM580 618q29 -36 46.5 -88.5t17.5 -123.5q0 -112 -26 -190.5t-70.5 -127.5t-102.5 -71.5t-122 -22.5q-47 0 -90 12.5t-78 39.5l-46 -62h-64l73 98q-29 35 -45.5 86.5t-16.5 122.5q0 113 27 191.5t72 128.5t104 72.5t123 22.5q45 0 86 -12.5
t76 -39.5l46 62h63zM123 295q0 -51 9.5 -90t26.5 -68l347 466q-27 26 -61 37t-69 11q-50 0 -95.5 -19.5t-80.5 -62t-56 -110.5t-21 -164zM577 403q0 52 -10 91.5t-28 68.5l-347 -467q29 -25 64 -36t73 -11q50 0 95 19t79 61.5t54 110t20 163.5z" />
    <glyph glyph-name="oslashacute" unicode="&#x1ff;" horiz-adv-x="498" 
d="M278 558h-57l97 162h78zM414 429q44 -55 44 -151q0 -69 -17 -122.5t-47.5 -91t-72 -57t-90.5 -19.5q-67 0 -113 32l-30 -41h-57l53 73q-43 57 -43 151q0 69 17 123t48 91t73 56.5t92 19.5q66 0 110 -32l30 41h56zM105 207q0 -59 19 -100l222 305q-31 28 -81 28
q-33 0 -62.5 -14.5t-51 -44t-34 -73t-12.5 -101.5zM394 275q0 61 -20 99l-221 -305q31 -28 82 -28q33 0 62 15t50.5 44.5t34 73t12.5 101.5z" />
    <glyph glyph-name="uni0218" unicode="&#x218;" horiz-adv-x="549" 
d="M256 -6q-94 0 -150 29t-86 89l51 37q24 -51 69.5 -75.5t121.5 -24.5q85 0 131 37t46 106q0 28 -8.5 49.5t-29 38t-53 29.5t-80.5 23q-90 20 -138 58.5t-48 115.5q0 47 16.5 84t47.5 63t75 39.5t98 13.5q41 0 78 -8.5t64.5 -27t44 -47.5t16.5 -70q0 -20 -2.5 -30.5
t-6.5 -21.5l-59 1q3 11 4.5 20t1.5 20q0 58 -40.5 83.5t-107.5 25.5q-81 0 -123.5 -36t-42.5 -100q0 -27 8.5 -46t27.5 -33.5t50 -25t77 -21.5q54 -13 91 -29.5t60 -39.5t33 -52.5t10 -67.5q0 -100 -66 -153t-181 -53zM185 -189q20 9 33.5 23t16.5 32q-41 8 -41 45
q0 23 14.5 36.5t34.5 13.5q21 0 34 -14t13 -40q0 -20 -7.5 -40t-19.5 -37t-28 -30t-34 -19z" />
    <glyph glyph-name="uni0219" unicode="&#x219;" horiz-adv-x="439" 
d="M195 -12q-60 0 -108.5 21t-73.5 75l48 36q12 -24 28.5 -39.5t34.5 -24.5t37.5 -12t38.5 -3q126 0 126 86q0 21 -10 35.5t-26.5 24.5t-38.5 16t-46 12q-26 6 -51.5 15.5t-46 25t-33.5 38.5t-13 56q0 68 48 105.5t134 37.5q72 0 115.5 -31t43.5 -91q0 -17 -4 -32t-9 -26
h-56q5 8 7.5 22.5t2.5 26.5q0 40 -28.5 59t-77.5 19q-57 0 -85.5 -22t-28.5 -60q0 -22 8.5 -36.5t24.5 -24.5t39 -16.5t51 -13.5q26 -6 51.5 -15t45.5 -23.5t32.5 -36.5t12.5 -55q0 -75 -52 -112t-141 -37zM136 -189q20 9 33.5 23t16.5 32q-41 8 -41 45q0 23 14.5 36.5
t34.5 13.5q21 0 34 -14t13 -40q0 -20 -7.5 -40t-19.5 -37t-28 -30t-34 -19z" />
    <glyph glyph-name="uni021A" unicode="&#x21a;" horiz-adv-x="506" 
d="M264 641h-206l7 59h474l-6 -59h-206l-67 -641h-64zM163 -189q20 9 33.5 23t16.5 32q-41 8 -41 45q0 23 14.5 36.5t34.5 13.5q21 0 34 -14t13 -40q0 -20 -7.5 -40t-19.5 -37t-28 -30t-34 -19z" />
    <glyph glyph-name="uni021B" unicode="&#x21b;" horiz-adv-x="371" 
d="M223 -8q-77 0 -108 41.5t-22 129.5l28 264h-86l6 55h88l14 140h61l-14 -140h182l-6 -55h-183l-27 -262q-6 -60 13.5 -87.5t66.5 -27.5q24 0 46.5 10.5t37.5 24.5l28 -44q-22 -21 -56 -35t-69 -14zM143 -189q20 9 33.5 23t16.5 32q-41 8 -41 45q0 23 14.5 36.5t34.5 13.5
q21 0 34 -14t13 -40q0 -20 -7.5 -40t-19.5 -37t-28 -30t-34 -19z" />
    <glyph glyph-name="uni0232" unicode="&#x232;" horiz-adv-x="560" 
d="M223 826h240l-5 -54h-240zM255 293l-186 407h73l151 -345l223 345h74l-272 -407l-31 -293h-63z" />
    <glyph glyph-name="uni0233" unicode="&#x233;" horiz-adv-x="497" 
d="M177 662h233l-6 -52h-233zM186 -247q-73 0 -113.5 26t-55.5 68l47 32q15 -34 44.5 -53t83.5 -19q62 0 100 36.5t45 101.5l16 155q-22 -50 -65.5 -78.5t-98.5 -28.5q-149 0 -132 170l34 319h63l-33 -312q-13 -123 93 -123q26 0 51 12.5t45.5 33.5t34 49.5t16.5 59.5
l29 280h63l-56 -541q-10 -87 -66.5 -137.5t-144.5 -50.5z" />
    <glyph glyph-name="uni0237" unicode="&#x237;" horiz-adv-x="210" 
d="M-57 -247q-21 0 -36.5 4t-25.5 9q-11 6 -19 13l24 45q6 -5 15 -9q7 -3 17.5 -5.5t24.5 -2.5q44 0 69 28.5t31 90.5l59 556h61l-58 -558q-9 -82 -48 -126.5t-114 -44.5z" />
    <glyph glyph-name="uni0259" unicode="&#x259;" horiz-adv-x="457" 
d="M246 494q80 0 126 -51t46 -156q0 -67 -16 -122t-45.5 -94t-70.5 -60.5t-91 -21.5q-81 0 -124.5 51.5t-38.5 143.5q0 23 2 34.5t4 22.5h313q1 11 1.5 21.5t0.5 21.5q0 84 -30.5 120t-83.5 36q-43 0 -73 -19t-53 -51l-44 27q27 42 72 69.5t105 27.5zM200 42q57 0 94 38.5
t51 111.5h-250q-3 -31 1 -58.5t16.5 -48t34 -32t53.5 -11.5z" />
    <glyph glyph-name="uni0272" unicode="&#x272;" horiz-adv-x="514" 
d="M430 99q-4 -30 4 -41t30 -11l-5 -46q-10 -3 -29 -3q-38 0 -54 23.5t-11 65.5l23 218q7 66 -18.5 100t-80.5 34q-29 0 -54 -12t-44 -33.5t-31.5 -50.5t-15.5 -63l-29 -280l-6 -54q-10 -81 -51.5 -120.5t-109.5 -39.5q-35 0 -60.5 11t-38.5 30l44 50q11 -15 28 -22.5
t35 -7.5q76 0 89 97l7 56l40 386q4 30 -4.5 41t-29.5 11l5 46q9 3 29 3q33 0 47 -19.5t12 -57.5l-2 -23q23 51 64.5 78.5t95.5 27.5q76 0 114 -49t28 -139z" />
    <glyph glyph-name="circumflex" unicode="&#x2c6;" horiz-adv-x="324" 
d="M175 720h68l67 -162h-57l-49 114l-73 -114h-57z" />
    <glyph glyph-name="caron" unicode="&#x2c7;" horiz-adv-x="315" 
d="M89 720h57l50 -114l72 114h56l-101 -162h-66z" />
    <glyph glyph-name="breve" unicode="&#x2d8;" horiz-adv-x="300" 
d="M186 571q-60 0 -82 34t-16 91h51q-9 -74 51 -74q62 -2 69 74h50q-6 -57 -36 -91t-87 -34z" />
    <glyph glyph-name="dotaccent" unicode="&#x2d9;" horiz-adv-x="171" 
d="M117 589q-21 0 -32.5 12.5t-11.5 31.5q0 21 13.5 36.5t38.5 15.5q20 0 31.5 -13t11.5 -30q0 -22 -13.5 -37.5t-37.5 -15.5z" />
    <glyph glyph-name="ring" unicode="&#x2da;" horiz-adv-x="244" 
d="M154 532q-41 0 -65.5 25.5t-24.5 64.5q0 46 30 77.5t75 31.5q40 0 64.5 -25.5t24.5 -64.5q0 -46 -29.5 -77.5t-74.5 -31.5zM158 579q23 0 38 16t15 42q0 20 -11.5 33.5t-33.5 13.5q-24 0 -39.5 -16t-15.5 -42q0 -22 12 -34.5t35 -12.5z" />
    <glyph glyph-name="ogonek" unicode="&#x2db;" horiz-adv-x="243" 
d="M79 -174q-36 0 -56 18t-20 52q0 42 33 79t87 55l17 -29q-34 -10 -57 -35.5t-23 -55.5q0 -38 35 -38q11 0 18.5 3.5t14.5 8.5l18 -34q-11 -11 -28.5 -17.5t-38.5 -6.5z" />
    <glyph glyph-name="tilde" unicode="&#x2dc;" horiz-adv-x="373" 
d="M99 583q-5 15 -5 33q0 29 19 50t57 21q20 0 35.5 -7t29 -16t26 -16t26.5 -7q29 0 29 32q0 14 -4 19h50q5 -13 5 -30q0 -32 -19 -53t-56 -21q-22 0 -39 7t-30 15.5t-24 15.5t-23 7q-31 0 -31 -31q0 -11 3 -19h-49z" />
    <glyph glyph-name="hungarumlaut" unicode="&#x2dd;" horiz-adv-x="365" 
d="M161 720h75l-104 -162h-53zM295 720h75l-104 -162h-53z" />
    <glyph glyph-name="gravecomb" unicode="&#x300;" 
d="M-158 720h75l65 -162h-56z" />
    <glyph glyph-name="acutecomb" unicode="&#x301;" 
d="M-70 720h78l-118 -162h-57z" />
    <glyph glyph-name="uni0302" unicode="&#x302;" 
d="M-148 720h68l67 -162h-57l-49 114l-73 -114h-57z" />
    <glyph glyph-name="tildecomb" unicode="&#x303;" 
d="M-273 583q-5 15 -5 33q0 29 19 50t57 21q19 0 35 -7t29.5 -16t26 -16t26.5 -7q29 0 29 32q0 14 -4 19h50q5 -13 5 -30q0 -32 -19 -53t-56 -21q-23 0 -39.5 7t-29.5 15.5t-24 15.5t-23 7q-31 0 -31 -31q0 -11 3 -19h-49z" />
    <glyph glyph-name="uni0304" unicode="&#x304;" 
d="M-249 662h233l-6 -52h-233z" />
    <glyph glyph-name="uni0306" unicode="&#x306;" 
d="M-115 571q-60 0 -82 34t-16 91h51q-9 -74 51 -74q62 -2 69 74h50q-6 -57 -36 -91t-87 -34z" />
    <glyph glyph-name="uni0307" unicode="&#x307;" 
d="M-40 589q-21 0 -32.5 12.5t-11.5 31.5q0 21 13.5 36.5t38.5 15.5q20 0 31.5 -13t11.5 -30q0 -22 -13.5 -37.5t-37.5 -15.5z" />
    <glyph glyph-name="uni0308" unicode="&#x308;" 
d="M-209 586q-20 0 -31 12t-11 31q0 21 13 36t37 15q21 0 31.5 -12.5t10.5 -30.5q0 -21 -12.5 -36t-37.5 -15zM-45 586q-20 0 -31 12t-11 31q0 21 13 36t37 15q20 0 31 -12.5t11 -30.5q0 -21 -13 -36t-37 -15z" />
    <glyph glyph-name="uni030A" unicode="&#x30a;" 
d="M-90 532q-41 0 -65.5 25.5t-24.5 64.5q0 46 30 77.5t75 31.5q40 0 64.5 -25.5t24.5 -64.5q0 -46 -29.5 -77.5t-74.5 -31.5zM-86 579q23 0 38 16t15 42q0 20 -11.5 33.5t-33.5 13.5q-24 0 -39.5 -16t-15.5 -42q0 -22 12 -34.5t35 -12.5z" />
    <glyph glyph-name="uni030B" unicode="&#x30b;" 
d="M-205 720h75l-104 -162h-53zM-71 720h75l-104 -162h-53z" />
    <glyph glyph-name="uni030C" unicode="&#x30c;" 
d="M-225 720h57l50 -114l72 114h57l-102 -162h-66z" />
    <glyph glyph-name="uni0312" unicode="&#x312;" 
d="M-33 554q-20 0 -32 13t-12 35q0 42 25 75.5t59 46.5l17 -30q-20 -8 -33.5 -20t-16.5 -26q20 1 32 -12.5t12 -30.5q0 -21 -15 -36t-36 -15z" />
    <glyph glyph-name="dotbelowcomb" unicode="&#x323;" 
d="M-123 -168q-20 0 -32 12.5t-12 31.5q0 21 13.5 37t38.5 16q21 0 32 -13.5t11 -30.5q0 -22 -13 -37.5t-38 -15.5z" />
    <glyph glyph-name="uni0326" unicode="&#x326;" 
d="M-180 -189q20 9 33.5 23t16.5 32q-41 8 -41 45q0 23 14.5 36.5t34.5 13.5q21 0 34 -14t13 -40q0 -20 -7.5 -40t-19.5 -37t-28 -30t-34 -19z" />
    <glyph glyph-name="uni0327" unicode="&#x327;" 
d="M-169 -190q-28 0 -48 7.5t-36 22.5l30 36q21 -21 50 -21q43 0 43 36q0 17 -17 27t-50 11l34 74h43l-17 -40q30 -7 48.5 -24.5t18.5 -49.5q0 -42 -29.5 -60.5t-69.5 -18.5z" />
    <glyph glyph-name="uni0328" unicode="&#x328;" 
d="M-165 -174q-36 0 -56 18t-20 52q0 42 33 79t87 55l17 -29q-34 -10 -57 -35.5t-23 -55.5q0 -38 35 -38q11 0 18.5 3.5t14.5 8.5l18 -34q-11 -11 -28.5 -17.5t-38.5 -6.5z" />
    <glyph glyph-name="uni0335" unicode="&#x335;" 
d="M-257 383h251l-6 -55h-251z" />
    <glyph glyph-name="uni0336" unicode="&#x336;" 
d="M-593 575h589l-4 -49h-590z" />
    <glyph glyph-name="uni0337" unicode="&#x337;" 
d="M-247 340l230 131l20 -43l-231 -131z" />
    <glyph glyph-name="uni0338" unicode="&#x338;" 
d="M-39 503h56l-379 -523h-57z" />
    <glyph glyph-name="Wgrave" unicode="&#x1e80;" horiz-adv-x="877" 
d="M386 865h83l66 -123h-61zM69 700h72l83 -626l234 626h62l101 -626l216 626h69l-257 -700h-72l-98 604l-229 -604h-71z" />
    <glyph glyph-name="wgrave" unicode="&#x1e81;" horiz-adv-x="684" 
d="M348 558l-84 162h75l65 -162h-56zM690 482l-195 -483h-72l-56 349l-5 46l-16 -46l-136 -349h-71l-93 483h65l58 -348l11 -74l27 74l134 348h61l56 -347l10 -75l27 75l133 347h62z" />
    <glyph glyph-name="Wacute" unicode="&#x1e82;" horiz-adv-x="877" 
d="M530 865h85l-113 -123h-63zM69 700h72l83 -626l234 626h62l101 -626l216 626h69l-257 -700h-72l-98 604l-229 -604h-71z" />
    <glyph glyph-name="wacute" unicode="&#x1e83;" horiz-adv-x="684" 
d="M388 558h-57l97 162h78zM690 482l-195 -483h-72l-56 349l-5 46l-16 -46l-136 -349h-71l-93 483h65l58 -348l11 -74l27 74l134 348h61l56 -347l10 -75l27 75l133 347h62z" />
    <glyph glyph-name="Wdieresis" unicode="&#x1e84;" horiz-adv-x="877" 
d="M405 756q-20 0 -32 12.5t-12 30.5q0 23 13.5 38.5t35.5 15.5q20 0 32 -12.5t12 -32.5q0 -24 -13.5 -38t-35.5 -14zM587 756q-20 0 -32.5 11t-12.5 33q0 23 14.5 38t36.5 15q20 0 31.5 -12.5t11.5 -31.5q0 -25 -13 -39t-36 -14zM69 700h72l83 -626l234 626h62l101 -626
l216 626h69l-257 -700h-72l-98 604l-229 -604h-71z" />
    <glyph glyph-name="wdieresis" unicode="&#x1e85;" horiz-adv-x="684" 
d="M298 589q-20 0 -31 12t-11 31q0 21 13 36t37 15q21 0 31.5 -12.5t10.5 -30.5q0 -21 -12.5 -36t-37.5 -15zM462 589q-20 0 -31 12t-11 31q0 21 13 36t37 15q20 0 31 -12.5t11 -30.5q0 -21 -13 -36t-37 -15zM690 482l-195 -483h-72l-56 349l-5 46l-16 -46l-136 -349h-71
l-93 483h65l58 -348l11 -74l27 74l134 348h61l56 -347l10 -75l27 75l133 347h62z" />
    <glyph glyph-name="uni1E9E" unicode="&#x1e9e;" horiz-adv-x="600" 
d="M364 391q54 -9 91.5 -27t60.5 -43t33 -56t10 -64q0 -48 -16 -86.5t-45 -65.5t-70 -41t-91 -14q-60 0 -104.5 18.5t-67.5 52.5l44 41q23 -30 56.5 -43.5t78.5 -13.5q69 0 110.5 37.5t41.5 106.5q0 32 -10.5 57t-35 44.5t-63.5 32t-96 18.5l6 53l208 211q-27 17 -65 28.5
t-94 11.5q-35 0 -65.5 -11t-54.5 -31t-39 -49.5t-19 -67.5l-52 -490h-61l53 491q5 48 25 87.5t52.5 68t75 44t91.5 15.5q76 0 126 -19.5t86 -45.5l-6 -54z" />
    <glyph glyph-name="uni1EA0" unicode="&#x1ea0;" horiz-adv-x="594" 
d="M490 0l-50 208h-291l-95 -208h-65l324 700h66l176 -700h-65zM427 262l-87 363l-166 -363h253zM266 -71q21 0 32 -13.5t11 -30.5q0 -22 -13 -37.5t-38 -15.5q-20 0 -32 12.5t-12 31.5q0 21 13.5 37t38.5 16z" />
    <glyph glyph-name="uni1EA1" unicode="&#x1ea1;" horiz-adv-x="516" 
d="M205 -12q-79 0 -122 57.5t-43 154.5q0 64 16 117.5t45 92.5t71 61t94 22q48 0 82.5 -21t51.5 -59l7 69h57l-40 -380q-3 -29 4.5 -42.5t30.5 -11.5l-5 -47q-5 -2 -13 -2.5t-16 -0.5q-32 0 -48 19t-14 53l2 14q-23 -42 -62.5 -69t-97.5 -27zM225 41q48 0 87 32.5t56 85.5
l18 173q-7 45 -36.5 76.5t-80.5 31.5q-38 0 -68.5 -17.5t-52 -48.5t-33 -74t-11.5 -95q0 -76 31 -120t90 -44zM219 -168q-20 0 -32 12.5t-12 31.5q0 21 13.5 37t38.5 16q21 0 32 -13.5t11 -30.5q0 -22 -13 -37.5t-38 -15.5z" />
    <glyph glyph-name="uni1EB8" unicode="&#x1eb8;" horiz-adv-x="535" 
d="M136 700h406l-6 -59h-342l-27 -256h295l-7 -60h-295l-27 -266h342l-7 -59h-406zM269 -168q-20 0 -32 12.5t-12 31.5q0 21 13.5 37t38.5 16q21 0 32 -13.5t11 -30.5q0 -22 -13 -37.5t-38 -15.5z" />
    <glyph glyph-name="uni1EB9" unicode="&#x1eb9;" horiz-adv-x="451" 
d="M225 42q48 0 79 18t57 51l38 -33q-67 -90 -184 -90q-83 0 -130 53t-47 153q0 65 18.5 120t51 94.5t78 62t99.5 22.5q65 0 100.5 -32.5t35.5 -89.5t-29 -91.5t-75 -53t-102.5 -25.5t-111.5 -10q3 -75 35 -112t87 -37zM278 440q-33 0 -62.5 -14.5t-52.5 -40.5t-38 -63
t-20 -82q42 2 86.5 7t82 18t61.5 36.5t24 63.5q0 75 -81 75zM195 -71q21 0 32 -13.5t11 -30.5q0 -22 -13 -37.5t-38 -15.5q-20 0 -32 12.5t-12 31.5q0 21 13.5 37t38.5 16z" />
    <glyph glyph-name="uni1EBC" unicode="&#x1ebc;" horiz-adv-x="535" 
d="M224 749q-6 12 -6 32q0 30 20.5 51t54.5 21q20 0 36 -7t30 -16t27 -16t28 -7q12 0 20 8t8 25q0 12 -4 17h50q2 -6 3 -14t1 -17q0 -31 -19.5 -52.5t-59.5 -21.5q-21 0 -36.5 7.5t-29 16t-25.5 16t-25 7.5q-11 0 -19.5 -8.5t-8.5 -22.5q0 -11 4 -19h-49zM136 700h406
l-6 -59h-342l-27 -256h295l-7 -60h-295l-27 -266h342l-7 -59h-406z" />
    <glyph glyph-name="uni1EBD" unicode="&#x1ebd;" horiz-adv-x="451" 
d="M142 583q-5 15 -5 33q0 29 19 50t57 21q20 0 35.5 -7t29 -16t26 -16t26.5 -7q29 0 29 32q0 14 -4 19h50q5 -13 5 -30q0 -32 -19 -53t-56 -21q-22 0 -39 7t-30 15.5t-24 15.5t-23 7q-31 0 -31 -31q0 -11 3 -19h-49zM225 42q48 0 79 18t57 51l38 -33q-67 -90 -184 -90
q-83 0 -130 53t-47 153q0 65 18.5 120t51 94.5t78 62t99.5 22.5q65 0 100.5 -32.5t35.5 -89.5t-29 -91.5t-75 -53t-102.5 -25.5t-111.5 -10q3 -75 35 -112t87 -37zM278 440q-33 0 -62.5 -14.5t-52.5 -40.5t-38 -63t-20 -82q42 2 86.5 7t82 18t61.5 36.5t24 63.5q0 75 -81 75
z" />
    <glyph glyph-name="uni1ECA" unicode="&#x1eca;" horiz-adv-x="238" 
d="M136 700h64l-74 -700h-64zM80 -168q-20 0 -32 12.5t-12 31.5q0 21 13.5 37t38.5 16q21 0 32 -13.5t11 -30.5q0 -22 -13 -37.5t-38 -15.5z" />
    <glyph glyph-name="uni1ECB" unicode="&#x1ecb;" horiz-adv-x="212" 
d="M143 589q-21 0 -32.5 12.5t-11.5 31.5q0 21 13.5 36.5t38.5 15.5q20 0 31.5 -13t11.5 -30q0 -22 -13.5 -37.5t-37.5 -15.5zM121 -2q-37 0 -53.5 23t-11.5 67l41 394h63l-40 -384q-3 -26 4.5 -38.5t30.5 -12.5l-5 -46q-7 -3 -29 -3zM70 -168q-20 0 -32 12.5t-12 31.5
q0 21 13.5 37t38.5 16q21 0 32 -13.5t11 -30.5q0 -22 -13 -37.5t-38 -15.5z" />
    <glyph glyph-name="uni1ECC" unicode="&#x1ecc;" horiz-adv-x="677" 
d="M323 -6q-53 0 -101.5 16t-85 51.5t-58.5 92t-22 137.5q0 113 27 191.5t72 128.5t104 72.5t123 22.5q51 0 98.5 -17t83.5 -53t58 -93t22 -137q0 -112 -26 -190.5t-70.5 -127.5t-102.5 -71.5t-122 -22.5zM329 49q50 0 95 19t79 61.5t54 110t20 163.5q0 68 -17 115t-45 76.5
t-64.5 43t-74.5 13.5q-50 0 -95.5 -19.5t-80.5 -62t-56 -110.5t-21 -164q0 -69 17 -116t45.5 -76t66 -41.5t77.5 -12.5zM299 -168q-20 0 -32 12.5t-12 31.5q0 21 13.5 37t38.5 16q21 0 32 -13.5t11 -30.5q0 -22 -13 -37.5t-38 -15.5z" />
    <glyph glyph-name="uni1ECD" unicode="&#x1ecd;" horiz-adv-x="498" 
d="M231 -12q-91 0 -140.5 56t-49.5 159q0 69 17 123t48 91t73 56.5t92 19.5q88 0 137.5 -56t49.5 -159q0 -69 -17 -122.5t-47.5 -91t-72 -57t-90.5 -19.5zM235 41q33 0 62 15t50.5 44.5t34 73t12.5 101.5q0 82 -34.5 123.5t-94.5 41.5q-33 0 -62.5 -14.5t-51 -44t-34 -73
t-12.5 -101.5q0 -83 34.5 -124.5t95.5 -41.5zM210 -168q-20 0 -32 12.5t-12 31.5q0 21 13.5 37t38.5 16q21 0 32 -13.5t11 -30.5q0 -22 -13 -37.5t-38 -15.5z" />
    <glyph glyph-name="uni1EE4" unicode="&#x1ee4;" horiz-adv-x="642" 
d="M298 -6q-52 0 -95.5 14.5t-72.5 48t-42 89.5t-4 140l43 414h65l-44 -418q-7 -63 1 -107t28 -71.5t52 -40.5t74 -13q41 0 75.5 12t60.5 39t43 71.5t24 109.5l44 418h61l-43 -414q-9 -86 -33 -142.5t-59.5 -89.5t-80.5 -46.5t-97 -13.5zM283 -168q-20 0 -32 12.5t-12 31.5
q0 21 13.5 37t38.5 16q21 0 32 -13.5t11 -30.5q0 -22 -13 -37.5t-38 -15.5z" />
    <glyph glyph-name="uni1EE5" unicode="&#x1ee5;" horiz-adv-x="506" 
d="M193 -12q-71 0 -108.5 42t-27.5 129l34 323h62l-33 -316q-7 -69 20 -96.5t76 -27.5q33 0 58.5 14.5t44 36t29 47.5t13.5 49l31 293h63l-41 -382q-3 -29 4.5 -41t30.5 -12l-6 -46q-2 -1 -9 -2t-20 -1q-33 0 -48.5 19t-10.5 56l3 22q-11 -21 -26 -40t-35 -34t-45.5 -24
t-58.5 -9zM214 -168q-20 0 -32 12.5t-12 31.5q0 21 13.5 37t38.5 16q21 0 32 -13.5t11 -30.5q0 -22 -13 -37.5t-38 -15.5z" />
    <glyph glyph-name="Ygrave" unicode="&#x1ef2;" horiz-adv-x="560" 
d="M229 865h83l66 -123h-61zM255 293l-186 407h73l151 -345l223 345h74l-272 -407l-31 -293h-63z" />
    <glyph glyph-name="ygrave" unicode="&#x1ef3;" horiz-adv-x="497" 
d="M169 720h75l65 -162h-56zM186 -247q-73 0 -113.5 26t-55.5 68l47 32q15 -34 44.5 -53t83.5 -19q62 0 100 36.5t45 101.5l16 155q-22 -50 -65.5 -78.5t-98.5 -28.5q-149 0 -132 170l34 319h63l-33 -312q-13 -123 93 -123q26 0 51 12.5t45.5 33.5t34 49.5t16.5 59.5l29 280
h63l-56 -541q-10 -87 -66.5 -137.5t-144.5 -50.5z" />
    <glyph glyph-name="uni1EF8" unicode="&#x1ef8;" horiz-adv-x="560" 
d="M206 749q-6 12 -6 32q0 30 20.5 51t54.5 21q20 0 36 -7t30 -16t27 -16t28 -7q12 0 20 8t8 25q0 12 -4 17h50q2 -6 3 -14t1 -17q0 -31 -19.5 -52.5t-59.5 -21.5q-21 0 -36.5 7.5t-29 16t-25.5 16t-25 7.5q-11 0 -19.5 -8.5t-8.5 -22.5q0 -11 4 -19h-49zM255 293l-186 407
h73l151 -345l223 345h74l-272 -407l-31 -293h-63z" />
    <glyph glyph-name="uni1EF9" unicode="&#x1ef9;" horiz-adv-x="497" 
d="M156 583q-5 15 -5 33q0 29 19 50t57 21q20 0 35.5 -7t29 -16t26 -16t26.5 -7q29 0 29 32q0 14 -4 19h50q5 -13 5 -30q0 -32 -19 -53t-56 -21q-22 0 -39 7t-30 15.5t-24 15.5t-23 7q-31 0 -31 -31q0 -11 3 -19h-49zM186 -247q-73 0 -113.5 26t-55.5 68l47 32
q15 -34 44.5 -53t83.5 -19q62 0 100 36.5t45 101.5l16 155q-22 -50 -65.5 -78.5t-98.5 -28.5q-149 0 -132 170l34 319h63l-33 -312q-13 -123 93 -123q26 0 51 12.5t45.5 33.5t34 49.5t16.5 59.5l29 280h63l-56 -541q-10 -87 -66.5 -137.5t-144.5 -50.5z" />
    <glyph glyph-name="endash" unicode="&#x2013;" horiz-adv-x="508" 
d="M66 298h389l-5 -51h-389z" />
    <glyph glyph-name="emdash" unicode="&#x2014;" horiz-adv-x="842" 
d="M66 298h723l-6 -51h-722z" />
    <glyph glyph-name="quoteleft" unicode="&#x2018;" horiz-adv-x="190" 
d="M186 681q-21 -8 -35 -23.5t-16 -34.5q20 0 31.5 -12t11.5 -30q0 -23 -15 -37.5t-35 -14.5q-21 0 -33 13.5t-12 36.5q0 44 23 82t64 52z" />
    <glyph glyph-name="quoteright" unicode="&#x2019;" horiz-adv-x="182" 
d="M78 552q20 8 34 24t16 34q-20 0 -31.5 12t-11.5 30q0 23 15 38t36 15t33 -13.5t12 -36.5q0 -44 -23.5 -82t-63.5 -52z" />
    <glyph glyph-name="quotesinglbase" unicode="&#x201a;" horiz-adv-x="199" 
d="M29 -65q21 8 35 24t16 34q-20 0 -31.5 12t-11.5 30q0 23 15 38t35 15q21 0 33.5 -13.5t12.5 -36.5q0 -45 -23.5 -82.5t-63.5 -51.5z" />
    <glyph glyph-name="quotedblleft" unicode="&#x201c;" horiz-adv-x="321" 
d="M180 681q-21 -8 -35 -23.5t-16 -34.5q20 0 31.5 -12t11.5 -30q0 -23 -15 -37.5t-35 -14.5q-22 0 -34 13.5t-12 36.5q0 44 23.5 82t63.5 52zM311 681q-21 -8 -35 -23.5t-16 -34.5q20 0 31.5 -12t11.5 -30q0 -23 -15 -37.5t-35 -14.5q-21 0 -33 13.5t-12 36.5q0 44 23 82
t64 52z" />
    <glyph glyph-name="quotedblright" unicode="&#x201d;" horiz-adv-x="320" 
d="M78 552q20 8 34 24t16 34q-20 0 -31.5 12t-11.5 30q0 23 15 38t36 15t33 -13.5t12 -36.5q0 -44 -23.5 -82t-63.5 -52zM209 552q20 8 34 24t16 34q-20 0 -31 12t-11 30q0 23 15 38t35 15q21 0 33 -13.5t12 -36.5q0 -44 -23.5 -82t-63.5 -52z" />
    <glyph glyph-name="quotedblbase" unicode="&#x201e;" horiz-adv-x="330" 
d="M39 -65q21 8 35 24t16 34q-20 0 -31.5 12t-11.5 30q0 23 15 38t35 15q21 0 33.5 -13.5t12.5 -36.5q0 -45 -23.5 -82.5t-63.5 -51.5zM171 -65q20 8 34 24t16 34q-20 0 -31.5 12t-11.5 30q0 23 15 38t36 15t33 -13.5t12 -36.5q0 -45 -23.5 -82.5t-63.5 -51.5z" />
    <glyph glyph-name="dagger" unicode="&#x2020;" horiz-adv-x="373" 
d="M184 501h-116l5 47h116l17 163h60l-17 -163h116l-5 -47h-116l-49 -393h-44z" />
    <glyph glyph-name="daggerdbl" unicode="&#x2021;" horiz-adv-x="373" 
d="M167 301h-113l5 48h112l13 152h-116l5 47h116l17 163h60l-17 -163h116l-5 -47h-116l-18 -152h112l-5 -48h-114l-24 -193h-44z" />
    <glyph glyph-name="bullet" unicode="&#x2022;" horiz-adv-x="315" 
d="M158 203q-37 0 -58 22t-21 59q0 38 25 64.5t65 26.5q35 0 56.5 -22t21.5 -58q0 -40 -25 -66t-64 -26z" />
    <glyph glyph-name="ellipsis" unicode="&#x2026;" horiz-adv-x="482" 
d="M67 -6q-19 0 -29.5 10.5t-10.5 28.5q0 20 12 33t32 13q17 0 28.5 -11t11.5 -29q0 -19 -11.5 -32t-32.5 -13zM218 -6q-18 0 -29 10.5t-11 28.5q0 20 12 33t32 13q17 0 28.5 -11t11.5 -29q0 -19 -11.5 -32t-32.5 -13zM369 -6q-18 0 -29 10.5t-11 28.5q0 20 12 33t33 13
q17 0 28 -11t11 -29q0 -19 -11.5 -32t-32.5 -13z" />
    <glyph glyph-name="perthousand" unicode="&#x2030;" horiz-adv-x="834" 
d="M149 422q-44 0 -67 30t-23 88q0 82 32 123t87 41q45 0 69 -30t24 -88q0 -82 -32.5 -123t-89.5 -41zM413 700h48l-275 -700h-50zM153 461q39 0 56 34.5t17 87.5q0 37 -12.5 58.5t-39.5 21.5q-40 0 -55.5 -34t-15.5 -88q0 -36 12 -58t38 -22zM421 -4q-44 0 -67.5 30
t-23.5 88q0 82 32 123t88 41q45 0 68.5 -30t23.5 -88q0 -82 -32.5 -123t-88.5 -41zM680 -4q-44 0 -68 30t-24 88q0 82 32.5 123t88.5 41q91 0 91 -118q0 -82 -32.5 -123t-87.5 -41zM424 35q39 0 56 34.5t17 87.5q0 37 -12.5 58.5t-38.5 21.5q-40 0 -56 -34t-16 -87
q0 -36 12 -58.5t38 -22.5zM683 35q39 0 56 34.5t17 87.5q0 37 -12.5 58.5t-38.5 21.5q-39 0 -55.5 -34.5t-16.5 -86.5q0 -37 12 -59t38 -22z" />
    <glyph glyph-name="guilsinglleft" unicode="&#x2039;" horiz-adv-x="263" 
d="M37 227l5 55l158 144l30 -39l-139 -133l111 -130l-37 -40z" />
    <glyph glyph-name="guilsinglright" unicode="&#x203a;" horiz-adv-x="263" 
d="M36 123l141 133l-113 130l39 40l127 -144l-6 -55l-157 -143z" />
    <glyph glyph-name="fraction" unicode="&#x2044;" horiz-adv-x="76" 
d="M135 726h53l-287 -726h-53z" />
    <glyph glyph-name="Euro" unicode="&#x20ac;" horiz-adv-x="600" 
d="M370 59q50 0 87.5 22t62.5 46l35 -43q-14 -14 -32.5 -28.5t-42.5 -26.5t-53 -19.5t-65 -7.5q-104 0 -168 62.5t-75 183.5h-85l6 56h77q0 18 1.5 35t3.5 34h-75l6 56h78q28 126 104 196t188 70q72 0 115 -25t65 -59l-55 -37q-17 25 -48 44.5t-83 19.5q-78 0 -136.5 -53
t-82.5 -156h253l-6 -56h-257q-2 -17 -3 -34t-1 -35h253l-5 -56h-245q10 -94 58.5 -141.5t124.5 -47.5z" />
    <glyph glyph-name="trademark" unicode="&#x2122;" horiz-adv-x="729" 
d="M188 664h-118l5 42h283l-4 -42h-115l-34 -320h-51zM384 706h55l81 -249l134 249h53l-39 -362h-44l29 280l-123 -227h-35l-74 228l-29 -281h-46z" />
    <glyph glyph-name="minus" unicode="&#x2212;" horiz-adv-x="454" 
d="M67 287h330l-5 -51h-330z" />
    <glyph glyph-name="uni2215" unicode="&#x2215;" horiz-adv-x="353" 
d="M348 726h64l-378 -726h-64z" />
    <glyph glyph-name="uni2219" unicode="&#x2219;" horiz-adv-x="278" 
d="M139 236q-15 0 -24.5 10t-9.5 25q0 18 12.5 30t29.5 12q15 0 24.5 -10t9.5 -25q0 -18 -12.5 -30t-29.5 -12z" />
    <glyph glyph-name="approxequal" unicode="&#x2248;" horiz-adv-x="476" 
d="M75 265q-2 5 -3 11q-2 6 -3 13.5t-1 17.5q0 38 24.5 67t71.5 29q27 0 48.5 -9t42 -20t40.5 -20t42 -9q48 0 48 49q0 8 -1 14t-2 11t-3 9h48q2 -5 3 -11t2 -13t1 -16q0 -38 -23 -66.5t-71 -28.5q-30 0 -53.5 9t-43.5 19.5t-37.5 19.5t-36.5 9q-27 0 -40.5 -13.5
t-13.5 -34.5q0 -8 1 -15t3 -12l4 -10h-47zM56 90q-2 5 -3 11q-2 6 -3 13.5t-1 16.5q0 39 24.5 68t71.5 29q27 0 49 -9t42 -19.5t40 -19.5t43 -9q47 0 47 47q0 8 -1 14t-2 11t-3 9h48q2 -5 3 -11q1 -5 2 -12t1 -15q0 -38 -23 -67t-70 -29q-31 0 -54.5 9t-43.5 19.5t-37.5 19
t-36.5 8.5q-27 0 -40.5 -13.5t-13.5 -33.5q0 -8 1 -15t3 -12l4 -10h-47z" />
    <glyph glyph-name="notequal" unicode="&#x2260;" horiz-adv-x="479" 
d="M167 139h-115l5 50h130l57 142h-172l5 51h187l39 95h56l-38 -95h111l-5 -51h-127l-56 -142h168l-5 -50h-183l-36 -89h-57z" />
    <glyph glyph-name="lessequal" unicode="&#x2264;" horiz-adv-x="413" 
d="M57 289l6 54l320 199l-5 -59l-258 -168l222 -166l-6 -59zM13 33h336l-5 -51h-336z" />
    <glyph glyph-name="greaterequal" unicode="&#x2265;" horiz-adv-x="414" 
d="M53 150l257 165l-223 166l7 61l278 -200l-5 -55l-321 -199zM21 32h336l-6 -51h-335z" />
    <glyph glyph-name="uniF8FF" unicode="&#xf8ff;" horiz-adv-x="1493" 
d="M794 522q-26 0 -43.5 17.5t-17.5 43.5t17.5 44t43.5 18t44 -18t18 -44t-18 -43.5t-44 -17.5zM142 270q0 57 1 108t2.5 91.5t3 70t2.5 44.5h100q2 -30 6 -114t4 -200h-119zM646 264q-82 0 -82 66q0 8 0.5 21.5t1.5 27.5t1.5 25t0.5 13h-22v79l119 30l1 -17h178
q3 -17 4.5 -45t3 -61t2 -68t0.5 -65h-118q0 92 3 147h-61l3 -65q4 -4 15 -4q5 0 10 1t8 4v-74q-8 -8 -27 -11.5t-41 -3.5zM370 265q-43 0 -67.5 27.5t-24.5 86.5q0 64 32.5 99.5t101.5 35.5q64 0 94 -30.5t30 -86.5v-127h-83l-8 61q-6 -31 -22.5 -48.5t-52.5 -17.5zM876 270
q0 30 0.5 65t2 68t3 61t4.5 45h80q2 -17 4 -39t2 -37q1 6 4 19.5t12 27t24 24t40 10.5q45 0 60 -26t17 -80l3 -138h-114q0 35 1 56.5t1 36.5t-2.5 22t-12.5 7q-12 0 -15 -8t-3 -21q0 -15 1.5 -36.5t1.5 -56.5h-114zM1270 265q-64 0 -93 33.5t-29 90.5q0 24 5.5 46.5t19.5 40
t38 28t61 10.5q36 0 59.5 -10.5t37 -27.5t19 -39t5.5 -46q0 -60 -29.5 -93t-93.5 -33zM408 345q24 0 24 30q0 26 -24 26q-22 0 -22 -26q0 -30 22 -30zM1270 345q23 0 23 30q0 26 -23 26q-21 0 -21 -26q0 -30 21 -30zM432 -50q-45 0 -63.5 6.5t-24.5 10.5v83q5 -3 21.5 -9.5
t48.5 -6.5q17 0 27.5 3.5t16.5 8t8 9.5t2 7q-5 -3 -15.5 -7t-33.5 -4q-90 0 -90 83v13h-55l3 -65q2 -2 5.5 -3t9.5 -1q8 0 12 1.5t6 3.5v-73q-4 -3 -17 -9t-51 -6q-46 0 -63.5 17.5t-17.5 53.5q0 6 0.5 17t1 23.5t1 24t0.5 16.5h-18v80l117 29l-1 -18h177v-119
q0 -16 3 -21.5t12 -5.5t12.5 6t3.5 21v119h104q2 -8 3.5 -23t3 -34t2.5 -40t1 -41q0 -79 -33 -114.5t-119 -35.5zM600 -44q0 128 4.5 194.5t5.5 87.5h78q1 -4 2 -14t2 -21.5t2 -22.5t1 -18q1 5 5 18.5t12.5 27.5t23.5 24.5t39 10.5q37 0 58.5 -28.5t21.5 -84.5
q0 -135 -137 -135q1 -11 1 -22.5v-16.5h-119zM1012 -5q-72 0 -106.5 31t-34.5 91q0 59 32.5 92.5t92.5 33.5q55 0 85.5 -29.5t30.5 -86.5q0 -8 -0.5 -18t-2.5 -17h-124q4 -6 15.5 -12t34.5 -6q14 0 29 3t26 9v-75q-8 -5 -27 -10.5t-51 -5.5zM1020 109q3 27 -17 27
q-23 0 -23 -27h40zM712 72q3 0 9 1.5t12 5.5t11 11t5 19q0 23 -20 23q-22 0 -22 -31q0 -12 2 -19.5t3 -9.5zM1140 -10q-11 0 -17.5 6t-6.5 17t6.5 17t17.5 6t17.5 -6t6.5 -17t-6.5 -17t-17.5 -6zM1140 -5q18 0 18 18t-18 18t-18 -18t18 -18zM1130 25h11q10 0 10 -7t-7 -7
l6 -9h-6l-4 9h-5v-9h-5v23zM1142 15q4 0 4 3t-4 3h-7v-6h7z" />
    <glyph glyph-name="Euro.osf" horiz-adv-x="498" 
d="M299 59q35 0 65.5 14.5t49.5 31.5l34 -40q-23 -25 -64 -44.5t-95 -19.5q-81 0 -130.5 43.5t-60.5 124.5h-69l5 45h61q0 15 1 29t3 28h-59l5 44h63q23 88 82.5 133.5t140.5 45.5q60 0 95 -17.5t55 -46.5l-53 -38q-13 19 -36.5 31.5t-64.5 12.5q-54 0 -94 -30t-58 -91h180
l-4 -44h-185q-2 -14 -3 -28t-1 -29h182l-4 -45h-174q10 -56 44.5 -83t88.5 -27z" />
    <glyph glyph-name="Euro.sc" horiz-adv-x="494" 
d="M294 59q35 0 65.5 14.5t48.5 31.5l35 -40q-23 -25 -62.5 -44.5t-94.5 -19.5q-81 0 -132 44.5t-61 126.5h-66l5 45h58q0 25 3 49h-56l5 44h60q23 86 83.5 135t145.5 49q56 0 91 -18t54 -46l-53 -38q-13 19 -36.5 31.5t-60.5 12.5q-57 0 -97 -33t-59 -93h182l-4 -44h-187
q-2 -11 -3 -23.5t-1 -25.5h185l-4 -45h-178q9 -58 44 -85.5t90 -27.5z" />
    <glyph glyph-name="IJacute" horiz-adv-x="700" 
d="M223 865h84l-113 -123h-63zM669 865h84l-113 -123h-63zM136 700h64l-74 -700h-64zM401 -6q-66 0 -104.5 23.5t-58.5 54.5l46 43q18 -25 45 -45t72 -20q61 0 91.5 39t38.5 111l53 500h63l-53 -506q-11 -97 -56.5 -148.5t-136.5 -51.5z" />
    <glyph glyph-name="a.sc" horiz-adv-x="501" 
d="M353 136h-227l-67 -136h-67l252 497h67l148 -497h-68zM338 189l-67 240l-118 -240h185z" />
    <glyph glyph-name="a.ss01" horiz-adv-x="473" 
d="M387 101q-3 -32 5.5 -42.5t29.5 -10.5l-5 -47q-5 -2 -13 -2.5t-15 -0.5q-34 0 -49.5 19t-10.5 64l2 20q-28 -53 -74.5 -82t-109.5 -29q-59 0 -92.5 29t-33.5 83q0 66 48 104.5t140 38.5h130l9 77q6 57 -19 87t-81 30q-59 0 -89 -27t-30 -76q0 -22 5 -35h-57q-7 16 -7 41
q0 34 13.5 61.5t38 47.5t58.5 31t76 11q172 0 155 -174zM163 41q58 0 101.5 37t68.5 98l2 22h-132q-59 0 -87.5 -24t-28.5 -66q0 -32 20.5 -49.5t55.5 -17.5z" />
    <glyph glyph-name="aacute.sc" horiz-adv-x="501" 
d="M296 573h-57l97 162h78zM353 136h-227l-67 -136h-67l252 497h67l148 -497h-68zM338 189l-67 240l-118 -240h185z" />
    <glyph glyph-name="aacute.ss01" horiz-adv-x="473" 
d="M280 558h-57l97 162h78zM387 101q-3 -32 5.5 -42.5t29.5 -10.5l-5 -47q-5 -2 -13 -2.5t-15 -0.5q-34 0 -49.5 19t-10.5 64l2 20q-28 -53 -74.5 -82t-109.5 -29q-59 0 -92.5 29t-33.5 83q0 66 48 104.5t140 38.5h130l9 77q6 57 -19 87t-81 30q-59 0 -89 -27t-30 -76
q0 -22 5 -35h-57q-7 16 -7 41q0 34 13.5 61.5t38 47.5t58.5 31t76 11q172 0 155 -174zM163 41q58 0 101.5 37t68.5 98l2 22h-132q-59 0 -87.5 -24t-28.5 -66q0 -32 20.5 -49.5t55.5 -17.5z" />
    <glyph glyph-name="abreve.sc" horiz-adv-x="501" 
d="M287 586q-60 0 -82 34t-16 91h51q-9 -74 51 -74q62 -2 69 74h50q-6 -57 -36 -91t-87 -34zM353 136h-227l-67 -136h-67l252 497h67l148 -497h-68zM338 189l-67 240l-118 -240h185z" />
    <glyph glyph-name="abreve.ss01" horiz-adv-x="473" 
d="M270 571q-60 0 -82 34t-16 91h51q-9 -74 51 -74q62 -2 69 74h50q-6 -57 -36 -91t-87 -34zM387 101q-3 -32 5.5 -42.5t29.5 -10.5l-5 -47q-5 -2 -13 -2.5t-15 -0.5q-34 0 -49.5 19t-10.5 64l2 20q-28 -53 -74.5 -82t-109.5 -29q-59 0 -92.5 29t-33.5 83q0 66 48 104.5
t140 38.5h130l9 77q6 57 -19 87t-81 30q-59 0 -89 -27t-30 -76q0 -22 5 -35h-57q-7 16 -7 41q0 34 13.5 61.5t38 47.5t58.5 31t76 11q172 0 155 -174zM163 41q58 0 101.5 37t68.5 98l2 22h-132q-59 0 -87.5 -24t-28.5 -66q0 -32 20.5 -49.5t55.5 -17.5z" />
    <glyph glyph-name="acircumflex.sc" horiz-adv-x="501" 
d="M223 573h-57l101 162h68l67 -162h-57l-49 114zM353 136h-227l-67 -136h-67l252 497h67l148 -497h-68zM338 189l-67 240l-118 -240h185z" />
    <glyph glyph-name="acircumflex.ss01" horiz-adv-x="473" 
d="M206 558h-57l101 162h68l67 -162h-57l-49 114zM387 101q-3 -32 5.5 -42.5t29.5 -10.5l-5 -47q-5 -2 -13 -2.5t-15 -0.5q-34 0 -49.5 19t-10.5 64l2 20q-28 -53 -74.5 -82t-109.5 -29q-59 0 -92.5 29t-33.5 83q0 66 48 104.5t140 38.5h130l9 77q6 57 -19 87t-81 30
q-59 0 -89 -27t-30 -76q0 -22 5 -35h-57q-7 16 -7 41q0 34 13.5 61.5t38 47.5t58.5 31t76 11q172 0 155 -174zM163 41q58 0 101.5 37t68.5 98l2 22h-132q-59 0 -87.5 -24t-28.5 -66q0 -32 20.5 -49.5t55.5 -17.5z" />
    <glyph glyph-name="acute.case" horiz-adv-x="247" 
d="M191 865h85l-113 -123h-63z" />
    <glyph glyph-name="acutecomb.case" 
d="M-55 865h85l-113 -123h-63z" />
    <glyph glyph-name="adieresis.sc" horiz-adv-x="501" 
d="M207 604q-20 0 -31 12t-11 31q0 21 13 36t37 15q21 0 31.5 -12.5t10.5 -30.5q0 -21 -12.5 -36t-37.5 -15zM371 604q-20 0 -31 12t-11 31q0 21 13 36t37 15q20 0 31 -12.5t11 -30.5q0 -21 -13 -36t-37 -15zM353 136h-227l-67 -136h-67l252 497h67l148 -497h-68zM338 189
l-67 240l-118 -240h185z" />
    <glyph glyph-name="adieresis.ss01" horiz-adv-x="473" 
d="M190 589q-20 0 -31 12t-11 31q0 21 13 36t37 15q21 0 31.5 -12.5t10.5 -30.5q0 -21 -12.5 -36t-37.5 -15zM354 589q-20 0 -31 12t-11 31q0 21 13 36t37 15q20 0 31 -12.5t11 -30.5q0 -21 -13 -36t-37 -15zM387 101q-3 -32 5.5 -42.5t29.5 -10.5l-5 -47q-5 -2 -13 -2.5
t-15 -0.5q-34 0 -49.5 19t-10.5 64l2 20q-28 -53 -74.5 -82t-109.5 -29q-59 0 -92.5 29t-33.5 83q0 66 48 104.5t140 38.5h130l9 77q6 57 -19 87t-81 30q-59 0 -89 -27t-30 -76q0 -22 5 -35h-57q-7 16 -7 41q0 34 13.5 61.5t38 47.5t58.5 31t76 11q172 0 155 -174zM163 41
q58 0 101.5 37t68.5 98l2 22h-132q-59 0 -87.5 -24t-28.5 -66q0 -32 20.5 -49.5t55.5 -17.5z" />
    <glyph glyph-name="ae.sc" horiz-adv-x="646" 
d="M246 497h386l-6 -56h-300l47 -163h188l-6 -55h-167l51 -167h147l-6 -56h-190l-39 138h-222l-69 -138h-68zM337 190l-67 237l-118 -237h185z" />
    <glyph glyph-name="aeacute.sc" horiz-adv-x="646" 
d="M444 735h78l-118 -162h-57zM246 497h386l-6 -56h-300l47 -163h188l-6 -55h-167l51 -167h147l-6 -56h-190l-39 138h-222l-69 -138h-68zM337 190l-67 237l-118 -237h185z" />
    <glyph glyph-name="agrave.sc" horiz-adv-x="501" 
d="M256 573l-84 162h75l65 -162h-56zM353 136h-227l-67 -136h-67l252 497h67l148 -497h-68zM338 189l-67 240l-118 -240h185z" />
    <glyph glyph-name="agrave.ss01" horiz-adv-x="473" 
d="M240 558l-84 162h75l65 -162h-56zM387 101q-3 -32 5.5 -42.5t29.5 -10.5l-5 -47q-5 -2 -13 -2.5t-15 -0.5q-34 0 -49.5 19t-10.5 64l2 20q-28 -53 -74.5 -82t-109.5 -29q-59 0 -92.5 29t-33.5 83q0 66 48 104.5t140 38.5h130l9 77q6 57 -19 87t-81 30q-59 0 -89 -27
t-30 -76q0 -22 5 -35h-57q-7 16 -7 41q0 34 13.5 61.5t38 47.5t58.5 31t76 11q172 0 155 -174zM163 41q58 0 101.5 37t68.5 98l2 22h-132q-59 0 -87.5 -24t-28.5 -66q0 -32 20.5 -49.5t55.5 -17.5z" />
    <glyph glyph-name="amacron.sc" horiz-adv-x="501" 
d="M407 625h-233l6 52h233zM353 136h-227l-67 -136h-67l252 497h67l148 -497h-68zM338 189l-67 240l-118 -240h185z" />
    <glyph glyph-name="amacron.ss01" horiz-adv-x="473" 
d="M391 610h-233l6 52h233zM387 101q-3 -32 5.5 -42.5t29.5 -10.5l-5 -47q-5 -2 -13 -2.5t-15 -0.5q-34 0 -49.5 19t-10.5 64l2 20q-28 -53 -74.5 -82t-109.5 -29q-59 0 -92.5 29t-33.5 83q0 66 48 104.5t140 38.5h130l9 77q6 57 -19 87t-81 30q-59 0 -89 -27t-30 -76
q0 -22 5 -35h-57q-7 16 -7 41q0 34 13.5 61.5t38 47.5t58.5 31t76 11q172 0 155 -174zM163 41q58 0 101.5 37t68.5 98l2 22h-132q-59 0 -87.5 -24t-28.5 -66q0 -32 20.5 -49.5t55.5 -17.5z" />
    <glyph glyph-name="ampersand.sc" horiz-adv-x="535" 
d="M472 -6q-50 19 -94 45q-63 -51 -165 -51q-88 0 -133.5 40t-45.5 103q0 55 29.5 95t76.5 60q-15 38 -15 77q0 74 45 116t123 42q63 0 98.5 -29t35.5 -79q0 -20 -5.5 -39.5t-12.5 -31.5h-55q6 11 10.5 27.5t4.5 30.5q0 33 -22 50.5t-60 17.5q-48 0 -76 -24t-28 -75
q0 -43 20 -82.5t59 -82.5q18 -20 46 -46t65 -52q31 46 40 126h55q-11 -96 -52 -153q18 -11 37.5 -20t40.5 -17zM224 38q68 0 110 29q-33 22 -61 46.5t-52 50.5q-19 21 -35 42t-29 44q-63 -40 -63 -110q0 -44 32.5 -73t97.5 -29z" />
    <glyph glyph-name="aogonek.sc" horiz-adv-x="501" 
d="M464 -151q-11 -11 -28.5 -17.5t-38.5 -6.5q-36 0 -56 18t-20 52q0 31 18.5 59.5t50.5 49.5l-37 132h-227l-67 -136h-67l252 497h67l148 -497h-1q-34 -10 -57 -35.5t-23 -55.5q0 -38 35 -38q11 0 18.5 3.5t14.5 8.5zM338 189l-67 240l-118 -240h185z" />
    <glyph glyph-name="aogonek.ss01" horiz-adv-x="473" 
d="M424 -150q-11 -11 -28.5 -17.5t-38.5 -6.5q-36 0 -56 18t-20 52q0 31 19 60t51 50q-14 9 -20 27t-2 48l2 20q-28 -53 -74.5 -82t-109.5 -29q-59 0 -92.5 29t-33.5 83q0 66 48 104.5t140 38.5h130l9 77q6 57 -19 87t-81 30q-59 0 -89 -27t-30 -76q0 -22 5 -35h-57
q-7 16 -7 41q0 34 13.5 61.5t38 47.5t58.5 31t76 11q172 0 155 -174l-24 -218q-3 -32 5.5 -42.5t29.5 -10.5l-5 -46l1 -1q-34 -10 -57 -35.5t-23 -55.5q0 -38 35 -38q11 0 18.5 3.5t14.5 8.5zM163 41q58 0 101.5 37t68.5 98l2 22h-132q-59 0 -87.5 -24t-28.5 -66
q0 -32 20.5 -49.5t55.5 -17.5z" />
    <glyph glyph-name="aring.sc" horiz-adv-x="501" 
d="M285 547q-41 0 -65.5 25.5t-24.5 64.5q0 46 30 77.5t75 31.5q40 0 64.5 -25.5t24.5 -64.5q0 -46 -29.5 -77.5t-74.5 -31.5zM297 699q-24 0 -39.5 -16t-15.5 -42q0 -22 12 -34.5t35 -12.5t38 16t15 42q0 20 -11.5 33.5t-33.5 13.5zM353 136h-227l-67 -136h-67l252 497h67
l148 -497h-68zM338 189l-67 240l-118 -240h185z" />
    <glyph glyph-name="aring.ss01" horiz-adv-x="473" 
d="M269 532q-41 0 -65.5 25.5t-24.5 64.5q0 46 30 77.5t75 31.5q40 0 64.5 -25.5t24.5 -64.5q0 -46 -29.5 -77.5t-74.5 -31.5zM281 684q-24 0 -39.5 -16t-15.5 -42q0 -22 12 -34.5t35 -12.5t38 16t15 42q0 20 -11.5 33.5t-33.5 13.5zM387 101q-3 -32 5.5 -42.5t29.5 -10.5
l-5 -47q-5 -2 -13 -2.5t-15 -0.5q-34 0 -49.5 19t-10.5 64l2 20q-28 -53 -74.5 -82t-109.5 -29q-59 0 -92.5 29t-33.5 83q0 66 48 104.5t140 38.5h130l9 77q6 57 -19 87t-81 30q-59 0 -89 -27t-30 -76q0 -22 5 -35h-57q-7 16 -7 41q0 34 13.5 61.5t38 47.5t58.5 31t76 11
q172 0 155 -174zM163 41q58 0 101.5 37t68.5 98l2 22h-132q-59 0 -87.5 -24t-28.5 -66q0 -32 20.5 -49.5t55.5 -17.5z" />
    <glyph glyph-name="aringacute.sc" horiz-adv-x="509" 
d="M353 136h-227l-67 -136h-67l249 491q-21 11 -33 32t-12 47q0 42 25 72.5t66 35.5l81 110h85l-109 -119q21 -11 33 -32t12 -48q0 -38 -21 -66t-53 -38l144 -485h-68zM298 632q-24 0 -39.5 -15.5t-15.5 -41.5q0 -22 12 -35t35 -13t38 16t15 42q0 21 -12 34t-33 13zM338 189
l-67 240l-118 -240h185z" />
    <glyph glyph-name="aringacute.ss01" horiz-adv-x="473" 
d="M269 532q-41 0 -65.5 25.5t-24.5 64.5q0 45 28 76t71 33l76 128h77l-100 -140q20 -11 31 -31.5t11 -46.5q0 -46 -29.5 -77.5t-74.5 -31.5zM281 684q-24 0 -39.5 -16t-15.5 -42q0 -22 12 -34.5t35 -12.5t38 16t15 42q0 20 -11.5 33.5t-33.5 13.5zM387 101
q-3 -32 5.5 -42.5t29.5 -10.5l-5 -47q-5 -2 -13 -2.5t-15 -0.5q-34 0 -49.5 19t-10.5 64l2 20q-28 -53 -74.5 -82t-109.5 -29q-59 0 -92.5 29t-33.5 83q0 66 48 104.5t140 38.5h130l9 77q6 57 -19 87t-81 30q-59 0 -89 -27t-30 -76q0 -22 5 -35h-57q-7 16 -7 41
q0 34 13.5 61.5t38 47.5t58.5 31t76 11q172 0 155 -174zM163 41q58 0 101.5 37t68.5 98l2 22h-132q-59 0 -87.5 -24t-28.5 -66q0 -32 20.5 -49.5t55.5 -17.5z" />
    <glyph glyph-name="atilde.sc" horiz-adv-x="501" 
d="M152 546q-6 12 -6 32q0 30 20.5 51t54.5 21q20 0 36 -7t30 -16t27 -16t28 -7q12 0 20 8t8 25q0 12 -4 17h50q2 -6 3 -14t1 -17q0 -31 -19.5 -52.5t-59.5 -21.5q-21 0 -36.5 7.5t-29 16t-25.5 16t-25 7.5q-11 0 -19.5 -8.5t-8.5 -22.5q0 -11 4 -19h-49zM353 136h-227
l-67 -136h-67l252 497h67l148 -497h-68zM338 189l-67 240l-118 -240h185z" />
    <glyph glyph-name="atilde.ss01" horiz-adv-x="473" 
d="M143 583q-5 15 -5 33q0 29 19 50t57 21q20 0 35.5 -7t29 -16t26 -16t26.5 -7q29 0 29 32q0 14 -4 19h50q5 -13 5 -30q0 -32 -19 -53t-56 -21q-22 0 -39 7t-30 15.5t-24 15.5t-23 7q-31 0 -31 -31q0 -11 3 -19h-49zM387 101q-3 -32 5.5 -42.5t29.5 -10.5l-5 -47
q-5 -2 -13 -2.5t-15 -0.5q-34 0 -49.5 19t-10.5 64l2 20q-28 -53 -74.5 -82t-109.5 -29q-59 0 -92.5 29t-33.5 83q0 66 48 104.5t140 38.5h130l9 77q6 57 -19 87t-81 30q-59 0 -89 -27t-30 -76q0 -22 5 -35h-57q-7 16 -7 41q0 34 13.5 61.5t38 47.5t58.5 31t76 11
q172 0 155 -174zM163 41q58 0 101.5 37t68.5 98l2 22h-132q-59 0 -87.5 -24t-28.5 -66q0 -32 20.5 -49.5t55.5 -17.5z" />
    <glyph glyph-name="b.sc" horiz-adv-x="493" 
d="M351 265q15 -3 31.5 -10.5t30 -21t22 -33t8.5 -47.5q0 -40 -15.5 -68.5t-42.5 -47.5t-63.5 -28t-78.5 -9h-192l52 497h181q77 0 116.5 -28t39.5 -85q0 -27 -8.5 -47t-21.5 -34.5t-28.5 -23.5t-30.5 -14zM145 279h124q55 0 80 28t25 66q0 34 -21 53.5t-69 19.5h-122z
M246 50q59 0 95.5 22.5t36.5 78.5q0 42 -27.5 60.5t-76.5 18.5h-135l-18 -180h125z" />
    <glyph glyph-name="braceleft.sc" horiz-adv-x="259" 
d="M186 -87q-25 -5 -48 -1t-40 18t-25.5 38.5t-4.5 60.5l16 149q2 26 -12 37t-31 11h-8l5 49h8q17 0 33.5 11t19.5 37l16 149q3 36 16.5 60.5t33.5 38t44 17.5t48 -1l-6 -52q-35 8 -56.5 -11.5t-26.5 -61.5l-16 -152q-2 -17 -7.5 -28t-12 -17.5t-13 -10t-10.5 -4.5
q3 -1 8.5 -4.5t11 -10.5t9.5 -18t2 -26l-17 -152q-5 -42 13.5 -62t54.5 -11z" />
    <glyph glyph-name="braceright.sc" horiz-adv-x="269" 
d="M83 588q26 5 49 1t39.5 -18t25 -38.5t4.5 -60.5l-15 -149q-3 -26 11 -36.5t31 -10.5h8l-5 -50h-8q-17 0 -33 -11t-19 -37l-16 -148q-4 -36 -17.5 -60.5t-33.5 -38.5t-44 -18t-48 1l6 52q35 -8 57 11.5t27 61.5l15 153q2 17 7.5 27.5t12 17.5t13 10t10.5 4q-3 1 -8.5 4.5
t-10.5 10.5t-8.5 18t-2.5 26l16 153q5 42 -13.5 61.5t-54.5 11.5z" />
    <glyph glyph-name="bracketleft.sc" horiz-adv-x="266" 
d="M120 595h147l-6 -50h-89l-62 -588h89l-5 -50h-147z" />
    <glyph glyph-name="bracketright.sc" horiz-adv-x="266" 
d="M7 -43h89l62 588h-89l5 50h147l-73 -688h-147z" />
    <glyph glyph-name="breve.case" horiz-adv-x="300" 
d="M203 744q-48 0 -74.5 31t-20.5 87h51q-3 -29 9.5 -47t39.5 -18q32 0 47 18t18 47h50q-5 -55 -37 -86.5t-83 -31.5z" />
    <glyph glyph-name="c.sc" horiz-adv-x="489" 
d="M254 -12q-96 0 -154 54t-58 171q0 65 18 119t51 93.5t81 61.5t108 22q74 0 119.5 -33.5t45.5 -96.5q0 -17 -3 -30t-8 -26h-61q5 12 6.5 22.5t1.5 24.5q0 38 -26.5 61.5t-80.5 23.5q-44 0 -78 -18.5t-57.5 -51t-35.5 -76.5t-12 -95q0 -45 11.5 -77.5t31 -54t46 -31.5
t56.5 -10q51 0 82.5 20.5t58.5 56.5l40 -34q-32 -48 -76.5 -72t-106.5 -24z" />
    <glyph glyph-name="cacute.sc" horiz-adv-x="489" 
d="M356 735h78l-118 -162h-57zM254 -12q-96 0 -154 54t-58 171q0 65 18 119t51 93.5t81 61.5t108 22q74 0 119.5 -33.5t45.5 -96.5q0 -17 -3 -30t-8 -26h-61q5 12 6.5 22.5t1.5 24.5q0 38 -26.5 61.5t-80.5 23.5q-44 0 -78 -18.5t-57.5 -51t-35.5 -76.5t-12 -95
q0 -45 11.5 -77.5t31 -54t46 -31.5t56.5 -10q51 0 82.5 20.5t58.5 56.5l40 -34q-32 -48 -76.5 -72t-106.5 -24z" />
    <glyph glyph-name="caron.alt" horiz-adv-x="424" 
d="M81 580q20 8 33 21.5t15 29.5q-39 9 -39 45q0 23 14.5 36.5t35.5 13.5q20 0 33.5 -14t13.5 -40q0 -20 -7.5 -39.5t-19.5 -36.5t-28.5 -29.5t-34.5 -18.5z" />
    <glyph glyph-name="caron.case" horiz-adv-x="315" 
d="M107 865h59l52 -77l70 77h58l-97 -123h-71z" />
    <glyph glyph-name="caroncomb.alt" 
d="M-53 580q20 8 33 21.5t15 29.5q-39 9 -39 45q0 23 14.5 36.5t35.5 13.5q20 0 33.5 -14t13.5 -40q0 -20 -7.5 -39.5t-19.5 -36.5t-28.5 -29.5t-34.5 -18.5z" />
    <glyph glyph-name="ccaron.sc" horiz-adv-x="489" 
d="M203 735h57l50 -114l72 114h56l-101 -162h-66zM254 -12q-96 0 -154 54t-58 171q0 65 18 119t51 93.5t81 61.5t108 22q74 0 119.5 -33.5t45.5 -96.5q0 -17 -3 -30t-8 -26h-61q5 12 6.5 22.5t1.5 24.5q0 38 -26.5 61.5t-80.5 23.5q-44 0 -78 -18.5t-57.5 -51t-35.5 -76.5
t-12 -95q0 -45 11.5 -77.5t31 -54t46 -31.5t56.5 -10q51 0 82.5 20.5t58.5 56.5l40 -34q-32 -48 -76.5 -72t-106.5 -24z" />
    <glyph glyph-name="ccedilla.sc" horiz-adv-x="489" 
d="M393 323q5 12 6.5 22.5t1.5 24.5q0 38 -26.5 61.5t-80.5 23.5q-44 0 -78 -18.5t-57.5 -51t-35.5 -76.5t-12 -95q0 -45 11.5 -77.5t31 -54t46 -31.5t56.5 -10q51 0 82.5 20.5t58.5 56.5l40 -34q-31 -46 -73.5 -70t-100.5 -26l-11 -25q30 -7 48.5 -24.5t18.5 -49.5
q0 -42 -29.5 -60.5t-69.5 -18.5q-53 0 -83 30l29 36q21 -21 50 -21q43 0 43 36q0 17 -17 27t-50 11l28 61q-82 8 -130 62t-48 161q0 65 18 119t51 93.5t81 61.5t108 22q74 0 119.5 -33.5t45.5 -96.5q0 -17 -3 -30t-8 -26h-61z" />
    <glyph glyph-name="ccircumflex.sc" horiz-adv-x="489" 
d="M286 735h68l67 -162h-57l-49 114l-73 -114h-57zM254 -12q-96 0 -154 54t-58 171q0 65 18 119t51 93.5t81 61.5t108 22q74 0 119.5 -33.5t45.5 -96.5q0 -17 -3 -30t-8 -26h-61q5 12 6.5 22.5t1.5 24.5q0 38 -26.5 61.5t-80.5 23.5q-44 0 -78 -18.5t-57.5 -51t-35.5 -76.5
t-12 -95q0 -45 11.5 -77.5t31 -54t46 -31.5t56.5 -10q51 0 82.5 20.5t58.5 56.5l40 -34q-32 -48 -76.5 -72t-106.5 -24z" />
    <glyph glyph-name="cdotaccent.sc" horiz-adv-x="489" 
d="M310 604q-21 0 -32.5 12.5t-11.5 31.5q0 21 13.5 36.5t38.5 15.5q20 0 31.5 -13t11.5 -30q0 -22 -13.5 -37.5t-37.5 -15.5zM254 -12q-96 0 -154 54t-58 171q0 65 18 119t51 93.5t81 61.5t108 22q74 0 119.5 -33.5t45.5 -96.5q0 -17 -3 -30t-8 -26h-61q5 12 6.5 22.5
t1.5 24.5q0 38 -26.5 61.5t-80.5 23.5q-44 0 -78 -18.5t-57.5 -51t-35.5 -76.5t-12 -95q0 -45 11.5 -77.5t31 -54t46 -31.5t56.5 -10q51 0 82.5 20.5t58.5 56.5l40 -34q-32 -48 -76.5 -72t-106.5 -24z" />
    <glyph glyph-name="cent.osf" horiz-adv-x="444" 
d="M255 54q33 2 59.5 15.5t44.5 30.5l36 -40q-22 -23 -58.5 -42.5t-87.5 -21.5l-7 -69h-54l8 72q-73 13 -113.5 66t-40.5 143q0 57 14.5 105.5t41.5 84.5t65 59t84 30l7 69h54l-7 -68q48 -3 78.5 -20t48.5 -43l-54 -38q-11 17 -30.5 29t-49.5 14zM108 207q0 -64 25.5 -100.5
t70.5 -47.5l39 369q-61 -13 -98 -69.5t-37 -151.5z" />
    <glyph glyph-name="cent.sc" horiz-adv-x="437" 
d="M251 54q33 2 60 15.5t45 30.5l35 -40q-21 -23 -58 -42.5t-88 -21.5l-7 -69h-53l8 72q-73 12 -113.5 65.5t-40.5 143.5q0 57 14.5 105t41 84.5t64 59.5t84.5 29l8 70h54l-7 -68q48 -3 78.5 -20t48.5 -43l-54 -38q-11 17 -31 29t-49 14zM105 209q0 -66 25 -102.5t70 -47.5
l40 368q-62 -13 -98.5 -70t-36.5 -148z" />
    <glyph glyph-name="circumflex.case" horiz-adv-x="324" 
d="M192 865h71l71 -123h-59l-53 77l-70 -77h-57z" />
    <glyph glyph-name="currency.osf" horiz-adv-x="522" 
d="M26 83l86 79q-16 33 -16 75q0 29 9 56t24 50l-66 80l38 35l66 -78q48 46 113 46q32 0 58.5 -13t45.5 -33l83 78l32 -35l-85 -79q7 -18 11 -37.5t4 -39.5q0 -28 -8 -56t-25 -52l66 -73l-39 -36l-65 73q-45 -41 -111 -41q-33 -1 -60.5 11.5t-45.5 32.5l-84 -78zM253 135
q24 0 46.5 9t39.5 26t27 41t10 53q0 46 -27.5 77.5t-74.5 31.5q-24 0 -46.5 -9.5t-40 -27t-27.5 -41t-10 -52.5q0 -45 26.5 -76.5t76.5 -31.5z" />
    <glyph glyph-name="currency.sc" horiz-adv-x="521" 
d="M26 83l87 82q-8 15 -12 34t-4 38q0 58 32 107l-67 79l37 34l65 -78q51 45 114 45q32 0 59.5 -12.5t45.5 -34.5l84 80l30 -34l-85 -81q7 -17 11 -36t4 -39q0 -28 -8.5 -54t-23.5 -51l65 -76l-37 -34l-64 75q-47 -44 -114 -44q-32 -1 -59.5 12t-44.5 35l-85 -81zM251 133
q27 0 50.5 10.5t40 28.5t26 41.5t9.5 50.5q0 47 -26.5 78.5t-74.5 31.5q-28 0 -51.5 -10.5t-40.5 -28.5t-26.5 -42t-9.5 -51q0 -45 26 -76.5t77 -32.5z" />
    <glyph glyph-name="d.sc" horiz-adv-x="532" 
d="M103 497h152q51 0 94 -12.5t75 -39.5t50 -68t18 -98q0 -74 -23.5 -127t-63 -86.5t-90.5 -49.5t-105 -16h-159zM211 55q47 0 85.5 13.5t67 40.5t44 68t15.5 97q0 85 -48 126.5t-128 41.5h-85l-41 -387h90z" />
    <glyph glyph-name="dcaron.sc" horiz-adv-x="532" 
d="M197 735h57l50 -114l72 114h56l-101 -162h-66zM103 497h152q51 0 94 -12.5t75 -39.5t50 -68t18 -98q0 -74 -23.5 -127t-63 -86.5t-90.5 -49.5t-105 -16h-159zM211 55q47 0 85.5 13.5t67 40.5t44 68t15.5 97q0 85 -48 126.5t-128 41.5h-85l-41 -387h90z" />
    <glyph glyph-name="dcroat.sc" horiz-adv-x="577" 
d="M285 497q51 0 94 -12.5t75 -39.5t50 -68t18 -98q0 -74 -24 -127t-63 -86.5t-90 -49.5t-105 -16h-158l23 222h-78l6 55h78l23 220h151zM241 55q47 0 86 13t67 40t43.5 68t15.5 96q0 86 -47.5 128t-128.5 42h-85l-17 -165h109l-6 -55h-109l-18 -167h90z" />
    <glyph glyph-name="dieresis.case" horiz-adv-x="329" 
d="M128 756q-20 0 -32 12.5t-12 30.5q0 23 13.5 38.5t35.5 15.5q20 0 32 -12.5t12 -32.5q0 -24 -13.5 -38t-35.5 -14zM310 756q-20 0 -32.5 11t-12.5 33q0 23 14.5 38t36.5 15q20 0 31.5 -12.5t11.5 -31.5q0 -25 -13 -39t-36 -14z" />
    <glyph glyph-name="dollar.osf" horiz-adv-x="448" 
d="M347 333q7 24 3.5 41.5t-14.5 29t-28 18t-37 8.5l-17 -162q29 -5 55.5 -13t47 -21.5t32.5 -35t12 -53.5q0 -63 -42 -101t-133 -43l-9 -87h-48l9 85q-60 2 -103 23t-61 59l47 38q18 -35 50.5 -50t72.5 -17l18 168q-30 6 -56.5 14.5t-46.5 22t-31.5 35t-11.5 52.5
q0 63 46.5 99t126.5 39l8 80h48l-8 -80q27 -2 54 -10.5t47 -26t28.5 -44.5t-2.5 -67zM116 352q0 -36 25 -51t67 -24l16 154q-108 -6 -108 -79zM339 135q0 35 -23 50t-68 26l-17 -159q58 3 83 24t25 59z" />
    <glyph glyph-name="dollar.sc" horiz-adv-x="449" 
d="M346 333q7 25 3.5 42.5t-14 29t-27.5 17.5t-37 8l-17 -162q28 -5 54 -12.5t46.5 -21t33 -34.5t12.5 -54q0 -63 -45 -101.5t-129 -43.5l-9 -87h-48l9 85q-60 4 -103.5 24t-60.5 58l46 38q19 -35 51.5 -50t72.5 -17l18 168q-27 5 -53 12.5t-47 20.5t-33.5 33.5t-12.5 52.5
q0 63 45 100.5t128 42.5l8 80h48l-8 -80q27 -2 54 -10t47 -25t28 -44.5t-3 -68.5zM118 349q0 -35 26 -49.5t64 -22.5l16 154q-51 -3 -78.5 -24t-27.5 -58zM339 137q0 35 -26 50.5t-65 23.5l-17 -159q108 8 108 85z" />
    <glyph glyph-name="dotaccent.case" horiz-adv-x="171" 
d="M139 754q-18 0 -30.5 13t-12.5 33q0 22 17 38t37 16q19 0 31.5 -13.5t12.5 -32.5q0 -22 -17 -38t-38 -16z" />
    <glyph glyph-name="dotlessi.sc" horiz-adv-x="218" 
d="M103 497h66l-52 -497h-66z" />
    <glyph glyph-name="dotlessi.ss01" horiz-adv-x="207" 
d="M98 482h63l-51 -482h-63z" />
    <glyph glyph-name="e.sc" horiz-adv-x="447" 
d="M103 497h328l-6 -57h-264l-17 -159h229l-6 -58h-228l-18 -166h263l-5 -57h-328z" />
    <glyph glyph-name="e.ss01" horiz-adv-x="461" 
d="M266 493q79 0 120 -48.5t39 -138.5q0 -18 -1.5 -35.5t-4.5 -30.5h-313q-1 -8 -1 -17v-17q0 -80 33 -122t93 -42q47 0 76.5 17t54.5 51l37 -32q-27 -39 -67 -64.5t-106 -25.5q-88 0 -136.5 56.5t-48.5 157.5q0 66 15.5 119.5t45 91.5t71 59t93.5 21zM363 291
q3 32 -0.5 59.5t-15.5 47.5t-33 31t-53 11t-57 -11.5t-43 -32t-30 -47.5t-18 -58h250z" />
    <glyph glyph-name="eacute.sc" horiz-adv-x="447" 
d="M329 735h78l-118 -162h-57zM103 497h328l-6 -57h-264l-17 -159h229l-6 -58h-228l-18 -166h263l-5 -57h-328z" />
    <glyph glyph-name="eacute.ss01" horiz-adv-x="461" 
d="M284 558h-57l97 162h78zM266 493q79 0 120 -48.5t39 -138.5q0 -18 -1.5 -35.5t-4.5 -30.5h-313q-1 -8 -1 -17v-17q0 -80 33 -122t93 -42q47 0 76.5 17t54.5 51l37 -32q-27 -39 -67 -64.5t-106 -25.5q-88 0 -136.5 56.5t-48.5 157.5q0 66 15.5 119.5t45 91.5t71 59
t93.5 21zM363 291q3 32 -0.5 59.5t-15.5 47.5t-33 31t-53 11t-57 -11.5t-43 -32t-30 -47.5t-18 -58h250z" />
    <glyph glyph-name="ebreve.sc" horiz-adv-x="447" 
d="M279 586q-60 0 -82 34t-16 91h51q-9 -74 51 -74q62 -2 69 74h50q-6 -57 -36 -91t-87 -34zM103 497h328l-6 -57h-264l-17 -159h229l-6 -58h-228l-18 -166h263l-5 -57h-328z" />
    <glyph glyph-name="ebreve.ss01" horiz-adv-x="461" 
d="M274 571q-60 0 -82 34t-16 91h51q-9 -74 51 -74q62 -2 69 74h50q-6 -57 -36 -91t-87 -34zM266 493q79 0 120 -48.5t39 -138.5q0 -18 -1.5 -35.5t-4.5 -30.5h-313q-1 -8 -1 -17v-17q0 -80 33 -122t93 -42q47 0 76.5 17t54.5 51l37 -32q-27 -39 -67 -64.5t-106 -25.5
q-88 0 -136.5 56.5t-48.5 157.5q0 66 15.5 119.5t45 91.5t71 59t93.5 21zM363 291q3 32 -0.5 59.5t-15.5 47.5t-33 31t-53 11t-57 -11.5t-43 -32t-30 -47.5t-18 -58h250z" />
    <glyph glyph-name="ecaron.sc" horiz-adv-x="447" 
d="M176 735h57l50 -114l72 114h56l-101 -162h-66zM103 497h328l-6 -57h-264l-17 -159h229l-6 -58h-228l-18 -166h263l-5 -57h-328z" />
    <glyph glyph-name="ecaron.ss01" horiz-adv-x="461" 
d="M239 558l-68 162h57l50 -114l72 114h56l-101 -162h-66zM266 493q79 0 120 -48.5t39 -138.5q0 -18 -1.5 -35.5t-4.5 -30.5h-313q-1 -8 -1 -17v-17q0 -80 33 -122t93 -42q47 0 76.5 17t54.5 51l37 -32q-27 -39 -67 -64.5t-106 -25.5q-88 0 -136.5 56.5t-48.5 157.5
q0 66 15.5 119.5t45 91.5t71 59t93.5 21zM363 291q3 32 -0.5 59.5t-15.5 47.5t-33 31t-53 11t-57 -11.5t-43 -32t-30 -47.5t-18 -58h250z" />
    <glyph glyph-name="ecircumflex.sc" horiz-adv-x="447" 
d="M259 735h68l67 -162h-57l-49 114l-73 -114h-57zM103 497h328l-6 -57h-264l-17 -159h229l-6 -58h-228l-18 -166h263l-5 -57h-328z" />
    <glyph glyph-name="ecircumflex.ss01" horiz-adv-x="461" 
d="M210 558h-57l101 162h68l67 -162h-57l-49 114zM266 493q79 0 120 -48.5t39 -138.5q0 -18 -1.5 -35.5t-4.5 -30.5h-313q-1 -8 -1 -17v-17q0 -80 33 -122t93 -42q47 0 76.5 17t54.5 51l37 -32q-27 -39 -67 -64.5t-106 -25.5q-88 0 -136.5 56.5t-48.5 157.5q0 66 15.5 119.5
t45 91.5t71 59t93.5 21zM363 291q3 32 -0.5 59.5t-15.5 47.5t-33 31t-53 11t-57 -11.5t-43 -32t-30 -47.5t-18 -58h250z" />
    <glyph glyph-name="edieresis.sc" horiz-adv-x="447" 
d="M199 604q-20 0 -31 12t-11 31q0 21 13 36t37 15q21 0 31.5 -12.5t10.5 -30.5q0 -21 -12.5 -36t-37.5 -15zM363 604q-20 0 -31 12t-11 31q0 21 13 36t37 15q20 0 31 -12.5t11 -30.5q0 -21 -13 -36t-37 -15zM103 497h328l-6 -57h-264l-17 -159h229l-6 -58h-228l-18 -166
h263l-5 -57h-328z" />
    <glyph glyph-name="edieresis.ss01" horiz-adv-x="461" 
d="M194 589q-20 0 -31 12t-11 31q0 21 13 36t37 15q21 0 31.5 -12.5t10.5 -30.5q0 -21 -12.5 -36t-37.5 -15zM358 589q-20 0 -31 12t-11 31q0 21 13 36t37 15q20 0 31 -12.5t11 -30.5q0 -21 -13 -36t-37 -15zM266 493q79 0 120 -48.5t39 -138.5q0 -18 -1.5 -35.5t-4.5 -30.5
h-313q-1 -8 -1 -17v-17q0 -80 33 -122t93 -42q47 0 76.5 17t54.5 51l37 -32q-27 -39 -67 -64.5t-106 -25.5q-88 0 -136.5 56.5t-48.5 157.5q0 66 15.5 119.5t45 91.5t71 59t93.5 21zM363 291q3 32 -0.5 59.5t-15.5 47.5t-33 31t-53 11t-57 -11.5t-43 -32t-30 -47.5t-18 -58
h250z" />
    <glyph glyph-name="edotaccent.sc" horiz-adv-x="447" 
d="M283 604q-21 0 -32.5 12.5t-11.5 31.5q0 21 13.5 36.5t38.5 15.5q20 0 31.5 -13t11.5 -30q0 -22 -13.5 -37.5t-37.5 -15.5zM103 497h328l-6 -57h-264l-17 -159h229l-6 -58h-228l-18 -166h263l-5 -57h-328z" />
    <glyph glyph-name="edotaccent.ss01" horiz-adv-x="461" 
d="M278 589q-21 0 -32.5 12.5t-11.5 31.5q0 21 13.5 36.5t38.5 15.5q20 0 31.5 -13t11.5 -30q0 -22 -13.5 -37.5t-37.5 -15.5zM266 493q79 0 120 -48.5t39 -138.5q0 -18 -1.5 -35.5t-4.5 -30.5h-313q-1 -8 -1 -17v-17q0 -80 33 -122t93 -42q47 0 76.5 17t54.5 51l37 -32
q-27 -39 -67 -64.5t-106 -25.5q-88 0 -136.5 56.5t-48.5 157.5q0 66 15.5 119.5t45 91.5t71 59t93.5 21zM363 291q3 32 -0.5 59.5t-15.5 47.5t-33 31t-53 11t-57 -11.5t-43 -32t-30 -47.5t-18 -58h250z" />
    <glyph glyph-name="egrave.sc" horiz-adv-x="447" 
d="M165 735h75l65 -162h-56zM103 497h328l-6 -57h-264l-17 -159h229l-6 -58h-228l-18 -166h263l-5 -57h-328z" />
    <glyph glyph-name="egrave.ss01" horiz-adv-x="461" 
d="M244 558l-84 162h75l65 -162h-56zM266 493q79 0 120 -48.5t39 -138.5q0 -18 -1.5 -35.5t-4.5 -30.5h-313q-1 -8 -1 -17v-17q0 -80 33 -122t93 -42q47 0 76.5 17t54.5 51l37 -32q-27 -39 -67 -64.5t-106 -25.5q-88 0 -136.5 56.5t-48.5 157.5q0 66 15.5 119.5t45 91.5
t71 59t93.5 21zM363 291q3 32 -0.5 59.5t-15.5 47.5t-33 31t-53 11t-57 -11.5t-43 -32t-30 -47.5t-18 -58h250z" />
    <glyph glyph-name="eight.dnom" horiz-adv-x="371" 
d="M139 -8q-64 0 -97 25t-33 70q0 38 20.5 66t55.5 46q-19 13 -30 32.5t-11 45.5q0 51 35.5 81.5t98.5 30.5q51 0 84 -24t33 -71q0 -35 -19 -59.5t-42 -35.5q55 -25 55 -87q0 -57 -39 -88.5t-111 -31.5zM196 211q7 4 15.5 10.5t16.5 15.5t13.5 21.5t5.5 28.5q0 31 -21 46.5
t-53 15.5q-38 0 -60.5 -17.5t-22.5 -46.5q0 -46 48 -58zM144 32q44 0 70 18t26 55q0 27 -15 41.5t-41 21.5l-63 17q-24 -13 -43.5 -35t-19.5 -54q0 -31 23 -47.5t63 -16.5z" />
    <glyph glyph-name="eight.numr" horiz-adv-x="371" 
d="M139 312q-64 0 -97 25t-33 70q0 38 20.5 66t55.5 46q-19 12 -30 32t-11 46q0 50 35.5 81t98.5 31q51 0 84 -24t33 -71q0 -35 -19 -59.5t-42 -35.5q55 -25 55 -87q0 -57 -39 -88.5t-111 -31.5zM196 531q7 4 15.5 10.5t16.5 15.5t13.5 21.5t5.5 28.5q0 31 -21 46.5
t-53 15.5q-38 0 -60.5 -17.5t-22.5 -47.5q0 -45 48 -57zM144 352q44 0 70 18t26 55q0 27 -15 41.5t-41 21.5l-63 17q-24 -13 -43.5 -35t-19.5 -54q0 -31 23 -47.5t63 -16.5z" />
    <glyph glyph-name="eight.osf" horiz-adv-x="525" 
d="M381 352q51 -27 72 -66.5t21 -89.5q0 -45 -15.5 -82.5t-44.5 -64t-71.5 -41t-95.5 -14.5q-101 0 -155 44.5t-54 124.5q0 37 10.5 69t28 58t41.5 47t51 36q-35 23 -56 58t-21 82q0 43 15 78.5t42.5 61t66.5 39.5t86 14q87 0 139 -45.5t52 -123.5q0 -64 -32 -110t-80 -75z
M298 652q-65 0 -105 -33.5t-40 -99.5q0 -43 24 -72t67 -44l88 -31q48 27 74 68.5t26 88.5q0 57 -36 90t-98 33zM251 48q73 0 117 37.5t44 102.5q0 46 -23 78t-77 50l-90 32l-9 3q-22 -14 -42 -31t-35.5 -38t-24.5 -47t-9 -57q0 -58 37 -94t112 -36z" />
    <glyph glyph-name="eight.sc" horiz-adv-x="458" 
d="M330 255q40 -18 57.5 -47t17.5 -65q0 -72 -53.5 -113.5t-144.5 -41.5q-85 0 -131 33t-46 94q0 52 30.5 88.5t72.5 56.5q-26 17 -40.5 43t-14.5 63q0 63 47 103t128 40q75 0 115.5 -34t40.5 -92q0 -42 -22.5 -75t-56.5 -53zM248 458q-48 0 -78.5 -23t-30.5 -67
q0 -29 15.5 -49.5t50.5 -29.5l72 -18q34 16 53.5 43.5t19.5 58.5q0 41 -28 63t-74 22zM213 38q63 0 97 25.5t34 72.5q0 29 -18.5 50t-58.5 30l-83 22l-8 2q-33 -17 -58.5 -44.5t-25.5 -68.5q0 -42 30.5 -65.5t90.5 -23.5z" />
    <glyph glyph-name="eight.sinf" horiz-adv-x="356" 
d="M139 -143q-64 0 -97 25t-33 70q0 38 20.5 66t55.5 46q-19 12 -30 32t-11 46q0 50 35.5 81t98.5 31q51 0 84 -24t33 -71q0 -35 -19 -59.5t-42 -35.5q55 -25 55 -87q0 -57 -39 -88.5t-111 -31.5zM196 76q7 4 15.5 10.5t16.5 15.5t13.5 21.5t5.5 28.5q0 31 -21 46.5
t-53 15.5q-38 0 -60.5 -17.5t-22.5 -47.5q0 -45 48 -57zM144 -103q44 0 70 18t26 55q0 27 -15 41.5t-41 21.5l-63 17q-24 -13 -43.5 -35t-19.5 -54q0 -31 23 -47.5t63 -16.5z" />
    <glyph glyph-name="eight.sups" horiz-adv-x="371" 
d="M139 377q-64 0 -97 25t-33 70q0 38 20.5 66t55.5 46q-19 12 -30 32t-11 46q0 50 35.5 81t98.5 31q51 0 84 -24t33 -71q0 -35 -19 -59.5t-42 -35.5q55 -25 55 -87q0 -57 -39 -88.5t-111 -31.5zM196 596q7 4 15.5 10.5t16.5 15.5t13.5 21.5t5.5 28.5q0 31 -21 46.5
t-53 15.5q-38 0 -60.5 -17.5t-22.5 -47.5q0 -45 48 -57zM144 417q44 0 70 18t26 55q0 27 -15 41.5t-41 21.5l-63 17q-24 -13 -43.5 -35t-19.5 -54q0 -31 23 -47.5t63 -16.5z" />
    <glyph glyph-name="emacron.sc" horiz-adv-x="447" 
d="M173 677h233l-6 -52h-233zM103 497h328l-6 -57h-264l-17 -159h229l-6 -58h-228l-18 -166h263l-5 -57h-328z" />
    <glyph glyph-name="emacron.ss01" horiz-adv-x="461" 
d="M395 610h-233l6 52h233zM266 493q79 0 120 -48.5t39 -138.5q0 -18 -1.5 -35.5t-4.5 -30.5h-313q-1 -8 -1 -17v-17q0 -80 33 -122t93 -42q47 0 76.5 17t54.5 51l37 -32q-27 -39 -67 -64.5t-106 -25.5q-88 0 -136.5 56.5t-48.5 157.5q0 66 15.5 119.5t45 91.5t71 59
t93.5 21zM363 291q3 32 -0.5 59.5t-15.5 47.5t-33 31t-53 11t-57 -11.5t-43 -32t-30 -47.5t-18 -58h250z" />
    <glyph glyph-name="eng.sc" horiz-adv-x="538" 
d="M489 497l-52 -497l-5 -46q-8 -81 -50 -124.5t-111 -43.5q-37 0 -61.5 11t-37.5 30l44 50q10 -16 26 -23t36 -7q38 0 61.5 25.5t28.5 77.5l6 55l-212 378l-8 15l-41 -398h-61l51 497h62l213 -378l8 -18l42 396h61z" />
    <glyph glyph-name="eng.ss01" horiz-adv-x="509" 
d="M310 493q77 0 114 -49t27 -139l-32 -305l-5 -47q-8 -81 -48 -124t-113 -43q-37 0 -61.5 11.5t-38.5 29.5l44 50q11 -15 28.5 -22.5t35.5 -7.5q77 0 89 103l6 50l32 305q7 63 -18.5 98.5t-80.5 35.5q-29 0 -54 -12t-44 -32.5t-31 -48.5t-15 -61l-30 -285h-63l40 386
q4 30 -4.5 41t-29.5 11l5 46q9 3 29 3q64 0 59 -80l-2 -23q23 52 65 80.5t96 28.5z" />
    <glyph glyph-name="eogonek.sc" horiz-adv-x="447" 
d="M161 440l-17 -159h229l-6 -58h-228l-18 -166h263l-5 -57q-34 -10 -57 -35.5t-23 -55.5q0 -38 35 -38q11 0 18.5 3.5t14.5 8.5l18 -34q-11 -11 -28.5 -17.5t-38.5 -6.5q-36 0 -56 18t-20 52q0 29 17 56.5t46 48.5h-254l52 497h328l-6 -57h-264z" />
    <glyph glyph-name="eogonek.ss01" horiz-adv-x="461" 
d="M266 493q79 0 120 -48.5t39 -138.5q0 -18 -1.5 -35.5t-4.5 -30.5h-313q-1 -8 -1 -17v-17q0 -80 33 -122t93 -42q47 0 76.5 17t54.5 51l37 -32q-22 -31 -50.5 -54t-72.5 -31q-23 -14 -36.5 -34.5t-13.5 -43.5q0 -38 35 -38q11 0 18.5 3.5t14.5 8.5l18 -34
q-11 -11 -28.5 -17.5t-38.5 -6.5q-36 0 -56 18t-20 52q0 48 41 87q-81 5 -125 61t-44 153q0 66 15.5 119.5t45 91.5t71 59t93.5 21zM363 291q3 32 -0.5 59.5t-15.5 47.5t-33 31t-53 11t-57 -11.5t-43 -32t-30 -47.5t-18 -58h250z" />
    <glyph glyph-name="eth.sc" horiz-adv-x="577" 
d="M285 497q51 0 94 -12.5t75 -39.5t50 -68t18 -98q0 -74 -24 -127t-63 -86.5t-90 -49.5t-105 -16h-158l23 222h-78l6 55h78l23 220h151zM241 55q47 0 86 13t67 40t43.5 68t15.5 96q0 86 -47.5 128t-128.5 42h-85l-17 -165h109l-6 -55h-109l-18 -167h90z" />
    <glyph glyph-name="exclam.sc" horiz-adv-x="211" 
d="M100 497h66l-46 -358h-51zM78 -10q-14 0 -24 11t-10 25q0 17 13 30t29 13t26.5 -11t10.5 -25q0 -17 -13.5 -30t-31.5 -13z" />
    <glyph glyph-name="exclamdown.sc" horiz-adv-x="219" 
d="M141 504q15 0 25 -10.5t10 -25.5q0 -17 -13.5 -29.5t-29.5 -12.5t-26 10.5t-10 24.5q0 17 13 30t31 13zM119 -3h-66l46 358h51z" />
    <glyph glyph-name="f.sc" horiz-adv-x="427" 
d="M103 497h322l-6 -60h-258l-17 -168h221l-7 -61h-221l-22 -208h-64z" />
    <glyph glyph-name="fi.sc" horiz-adv-x="643" 
d="M103 497h322l-6 -60h-258l-17 -168h221l-7 -61h-221l-22 -208h-64zM530 497h64l-52 -497h-64z" />
    <glyph glyph-name="five.dnom" horiz-adv-x="346" 
d="M125 -8q-42 0 -72 14t-47 45l40 28q15 -23 34 -33t47 -10q46 0 69.5 25t23.5 68q0 73 -68 73q-26 0 -46 -8.5t-34 -20.5h-43l22 209h226l-4 -45h-184l-12 -122q13 13 34.5 21.5t51.5 8.5q51 0 78.5 -29t27.5 -81q0 -67 -39.5 -105t-104.5 -38z" />
    <glyph glyph-name="five.numr" horiz-adv-x="346" 
d="M125 313q-42 0 -72 14t-47 45l41 28q14 -23 33 -33t48 -10q45 0 69 25t24 68q0 73 -69 73q-26 0 -45.5 -8.5t-33.5 -20.5h-44l22 209h227l-5 -45h-183l-13 -122q14 13 35 21.5t51 8.5q51 0 79 -29t28 -81q0 -67 -40 -105t-105 -38z" />
    <glyph glyph-name="five.osf" horiz-adv-x="495" 
d="M203 -200q-147 0 -197 116l56 30q19 -43 55 -66.5t91 -23.5q77 0 123 49t46 142q0 72 -35.5 108t-95.5 36q-45 0 -80.5 -16t-58.5 -40h-60l38 361h375l-6 -56h-316l-26 -251q57 57 150 57q85 0 132 -49t47 -143q0 -59 -16.5 -106t-47.5 -80t-75 -50.5t-99 -17.5z" />
    <glyph glyph-name="five.sc" horiz-adv-x="446" 
d="M192 -7q-64 0 -106.5 25t-60.5 67l53 31q14 -34 46 -51.5t74 -17.5q66 0 103 32.5t37 92.5q0 45 -28 69.5t-77 24.5q-35 0 -65 -10.5t-49 -28.5h-58l28 270h321l-6 -55h-266l-16 -161q24 20 58 29.5t72 9.5q71 0 109.5 -36t38.5 -101q0 -88 -55 -139t-153 -51z" />
    <glyph glyph-name="five.sinf" horiz-adv-x="331" 
d="M125 -142q-42 0 -72 14t-47 45l40 28q15 -23 34 -33t47 -10q46 0 69.5 25t23.5 68q0 73 -68 73q-26 0 -46 -8.5t-34 -20.5h-43l22 209h226l-4 -45h-184l-12 -122q13 13 34.5 21.5t51.5 8.5q51 0 78.5 -29t27.5 -81q0 -67 -39.5 -105t-104.5 -38z" />
    <glyph glyph-name="five.sups" horiz-adv-x="346" 
d="M125 378q-42 0 -72 14t-47 45l40 28q15 -23 34 -33t47 -10q46 0 69.5 25t23.5 68q0 73 -68 73q-26 0 -46 -8.5t-34 -20.5h-43l22 209h226l-4 -45h-184l-12 -122q13 13 34.5 21.5t51.5 8.5q51 0 78.5 -29t27.5 -81q0 -67 -39.5 -105t-104.5 -38z" />
    <glyph glyph-name="fiveeighths.alt" horiz-adv-x="595" 
d="M149 329q-20 0 -34.5 4.5t-24.5 11t-16 13t-9 10.5l30 31q5 -7 19 -17.5t40 -10.5q30 0 45.5 16.5t15.5 39.5q0 19 -11.5 31t-34.5 12q-20 0 -33 -8t-18 -13h-39l16 156h169l-3 -39h-128l-8 -75q4 5 18.5 11t35.5 6q40 0 61 -20.5t21 -57.5q0 -43 -28.5 -72t-83.5 -29z
M492 600h55l-408 -501h-57zM431 74q-97 0 -97 67q0 25 15 46t42 32q-31 17 -31 55q0 35 27 56.5t72 21.5q41 0 63.5 -18t22.5 -48q0 -23 -12 -40t-29 -27q39 -16 39 -60q0 -40 -32 -62.5t-80 -22.5zM471 232q13 6 21 19t8 28q0 18 -12.5 27t-33.5 9q-22 0 -35 -10.5
t-13 -28.5q0 -25 26 -32zM435 109q28 0 45 12t17 33q0 29 -33 38l-42 12q-17 -7 -30 -22t-13 -33q0 -40 56 -40z" />
    <glyph glyph-name="fl.sc" horiz-adv-x="831" 
d="M103 497h322l-6 -60h-258l-17 -168h221l-7 -61h-221l-22 -208h-64zM530 497h64l-46 -440h243l-6 -57h-307z" />
    <glyph glyph-name="four.dnom" horiz-adv-x="351" 
d="M179 88h-186l5 39l155 255h55l-152 -250h130l9 93h50l-10 -93h50l-6 -44h-49l-8 -88h-51z" />
    <glyph glyph-name="four.numr" horiz-adv-x="351" 
d="M179 406h-186l5 39l155 255h55l-153 -250h130l10 93h49l-9 -93h49l-5 -44h-50l-8 -88h-51z" />
    <glyph glyph-name="four.osf" horiz-adv-x="535" 
d="M495 56l-6 -56h-96l-17 -167h-61l17 167h-336l6 56l367 441h77l-47 -441h96zM380 430l-308 -374h266z" />
    <glyph glyph-name="four.sc" horiz-adv-x="444" 
d="M268 113h-255l5 50l226 334h65l-226 -334h192l12 119h59l-13 -119h77l-5 -50h-77l-12 -113h-60z" />
    <glyph glyph-name="four.sinf" horiz-adv-x="337" 
d="M179 -49h-186l5 39l155 255h55l-152 -250h130l9 93h50l-10 -93h50l-6 -44h-49l-8 -88h-51z" />
    <glyph glyph-name="four.sups" horiz-adv-x="351" 
d="M179 471h-186l5 39l155 255h55l-152 -250h130l9 93h50l-10 -93h50l-6 -44h-49l-8 -88h-51z" />
    <glyph glyph-name="g.sc" horiz-adv-x="518" 
d="M259 -12q-106 0 -161.5 57.5t-55.5 166.5q0 68 19 123t54 93.5t83.5 59.5t107.5 21q81 0 124 -34.5t43 -94.5q0 -7 -1 -20t-6 -24h-59q2 5 2 11t1 16q2 43 -26 67.5t-81 24.5q-87 0 -139.5 -62.5t-52.5 -177.5q0 -85 39.5 -129.5t116.5 -44.5q42 0 73.5 10t51.5 25
l12 115h-128l5 55h188l-20 -194q-32 -27 -77 -45.5t-113 -18.5z" />
    <glyph glyph-name="g.ss01" horiz-adv-x="477" 
d="M184 -240q-104 0 -149 33t-45 90q0 32 11 55t27 38.5t32.5 24t26.5 12.5q-8 3 -18 8.5t-19 14t-15 21.5t-6 31q0 37 22.5 59t54.5 33q-6 6 -13.5 15t-14.5 23.5t-12 34.5t-5 47q0 44 15.5 79.5t42.5 60t63.5 38t78.5 13.5q32 0 55 -7.5t32 -11.5q39 0 66 17.5t32 66.5
l55 -12q-3 -30 -14 -49.5t-26.5 -31t-33.5 -16.5t-36 -7q11 -13 26.5 -41.5t15.5 -74.5q0 -45 -15 -80t-41.5 -59.5t-63.5 -37t-81 -12.5q-33 0 -56.5 7t-28.5 8q-23 -2 -40 -15t-17 -36q0 -28 23 -37.5t61 -9.5h107q75 0 114 -31.5t39 -92.5q0 -76 -60.5 -122t-189.5 -46z
M239 186q63 0 98.5 37.5t35.5 99.5q0 55 -31.5 85.5t-84.5 30.5q-61 0 -97.5 -37.5t-36.5 -100.5q0 -54 30.5 -84.5t85.5 -30.5zM192 -191q179 0 179 109q0 78 -94 78h-98q-62 0 -94.5 -28.5t-32.5 -73.5q0 -44 32.5 -64.5t107.5 -20.5z" />
    <glyph glyph-name="gbreve.sc" horiz-adv-x="518" 
d="M305 586q-60 0 -82 34t-16 91h51q-9 -74 51 -74q62 -2 69 74h50q-6 -57 -36 -91t-87 -34zM259 -12q-106 0 -161.5 57.5t-55.5 166.5q0 68 19 123t54 93.5t83.5 59.5t107.5 21q81 0 124 -34.5t43 -94.5q0 -7 -1 -20t-6 -24h-59q2 5 2 11t1 16q2 43 -26 67.5t-81 24.5
q-87 0 -139.5 -62.5t-52.5 -177.5q0 -85 39.5 -129.5t116.5 -44.5q42 0 73.5 10t51.5 25l12 115h-128l5 55h188l-20 -194q-32 -27 -77 -45.5t-113 -18.5z" />
    <glyph glyph-name="gbreve.ss01" horiz-adv-x="477" 
d="M271 571q-60 0 -82 34t-16 91h51q-9 -74 51 -74q62 -2 69 74h50q-6 -57 -36 -91t-87 -34zM184 -240q-104 0 -149 33t-45 90q0 32 11 55t27 38.5t32.5 24t26.5 12.5q-8 3 -18 8.5t-19 14t-15 21.5t-6 31q0 37 22.5 59t54.5 33q-6 6 -13.5 15t-14.5 23.5t-12 34.5t-5 47
q0 44 15.5 79.5t42.5 60t63.5 38t78.5 13.5q32 0 55 -7.5t32 -11.5q39 0 66 17.5t32 66.5l55 -12q-3 -30 -14 -49.5t-26.5 -31t-33.5 -16.5t-36 -7q11 -13 26.5 -41.5t15.5 -74.5q0 -45 -15 -80t-41.5 -59.5t-63.5 -37t-81 -12.5q-33 0 -56.5 7t-28.5 8q-23 -2 -40 -15
t-17 -36q0 -28 23 -37.5t61 -9.5h107q75 0 114 -31.5t39 -92.5q0 -76 -60.5 -122t-189.5 -46zM239 186q63 0 98.5 37.5t35.5 99.5q0 55 -31.5 85.5t-84.5 30.5q-61 0 -97.5 -37.5t-36.5 -100.5q0 -54 30.5 -84.5t85.5 -30.5zM192 -191q179 0 179 109q0 78 -94 78h-98
q-62 0 -94.5 -28.5t-32.5 -73.5q0 -44 32.5 -64.5t107.5 -20.5z" />
    <glyph glyph-name="gcaron.sc" horiz-adv-x="518" 
d="M201 735h57l50 -114l72 114h56l-101 -162h-66zM259 -12q-106 0 -161.5 57.5t-55.5 166.5q0 68 19 123t54 93.5t83.5 59.5t107.5 21q81 0 124 -34.5t43 -94.5q0 -7 -1 -20t-6 -24h-59q2 5 2 11t1 16q2 43 -26 67.5t-81 24.5q-87 0 -139.5 -62.5t-52.5 -177.5
q0 -85 39.5 -129.5t116.5 -44.5q42 0 73.5 10t51.5 25l12 115h-128l5 55h188l-20 -194q-32 -27 -77 -45.5t-113 -18.5z" />
    <glyph glyph-name="gcaron.ss01" horiz-adv-x="477" 
d="M167 720h57l50 -114l72 114h56l-101 -162h-66zM184 -240q-104 0 -149 33t-45 90q0 32 11 55t27 38.5t32.5 24t26.5 12.5q-8 3 -18 8.5t-19 14t-15 21.5t-6 31q0 37 22.5 59t54.5 33q-6 6 -13.5 15t-14.5 23.5t-12 34.5t-5 47q0 44 15.5 79.5t42.5 60t63.5 38t78.5 13.5
q32 0 55 -7.5t32 -11.5q39 0 66 17.5t32 66.5l55 -12q-3 -30 -14 -49.5t-26.5 -31t-33.5 -16.5t-36 -7q11 -13 26.5 -41.5t15.5 -74.5q0 -45 -15 -80t-41.5 -59.5t-63.5 -37t-81 -12.5q-33 0 -56.5 7t-28.5 8q-23 -2 -40 -15t-17 -36q0 -28 23 -37.5t61 -9.5h107
q75 0 114 -31.5t39 -92.5q0 -76 -60.5 -122t-189.5 -46zM239 186q63 0 98.5 37.5t35.5 99.5q0 55 -31.5 85.5t-84.5 30.5q-61 0 -97.5 -37.5t-36.5 -100.5q0 -54 30.5 -84.5t85.5 -30.5zM192 -191q179 0 179 109q0 78 -94 78h-98q-62 0 -94.5 -28.5t-32.5 -73.5
q0 -44 32.5 -64.5t107.5 -20.5z" />
    <glyph glyph-name="gcircumflex.sc" horiz-adv-x="518" 
d="M284 735h68l67 -162h-57l-49 114l-73 -114h-57zM259 -12q-106 0 -161.5 57.5t-55.5 166.5q0 68 19 123t54 93.5t83.5 59.5t107.5 21q81 0 124 -34.5t43 -94.5q0 -7 -1 -20t-6 -24h-59q2 5 2 11t1 16q2 43 -26 67.5t-81 24.5q-87 0 -139.5 -62.5t-52.5 -177.5
q0 -85 39.5 -129.5t116.5 -44.5q42 0 73.5 10t51.5 25l12 115h-128l5 55h188l-20 -194q-32 -27 -77 -45.5t-113 -18.5z" />
    <glyph glyph-name="gcircumflex.ss01" horiz-adv-x="477" 
d="M250 720h68l67 -162h-57l-49 114l-73 -114h-57zM184 -240q-104 0 -149 33t-45 90q0 32 11 55t27 38.5t32.5 24t26.5 12.5q-8 3 -18 8.5t-19 14t-15 21.5t-6 31q0 37 22.5 59t54.5 33q-6 6 -13.5 15t-14.5 23.5t-12 34.5t-5 47q0 44 15.5 79.5t42.5 60t63.5 38t78.5 13.5
q32 0 55 -7.5t32 -11.5q39 0 66 17.5t32 66.5l55 -12q-3 -30 -14 -49.5t-26.5 -31t-33.5 -16.5t-36 -7q11 -13 26.5 -41.5t15.5 -74.5q0 -45 -15 -80t-41.5 -59.5t-63.5 -37t-81 -12.5q-33 0 -56.5 7t-28.5 8q-23 -2 -40 -15t-17 -36q0 -28 23 -37.5t61 -9.5h107
q75 0 114 -31.5t39 -92.5q0 -76 -60.5 -122t-189.5 -46zM239 186q63 0 98.5 37.5t35.5 99.5q0 55 -31.5 85.5t-84.5 30.5q-61 0 -97.5 -37.5t-36.5 -100.5q0 -54 30.5 -84.5t85.5 -30.5zM192 -191q179 0 179 109q0 78 -94 78h-98q-62 0 -94.5 -28.5t-32.5 -73.5
q0 -44 32.5 -64.5t107.5 -20.5z" />
    <glyph glyph-name="gdotaccent.sc" horiz-adv-x="518" 
d="M308 604q-21 0 -32.5 12.5t-11.5 31.5q0 21 13.5 36.5t38.5 15.5q20 0 31.5 -13t11.5 -30q0 -22 -13.5 -37.5t-37.5 -15.5zM259 -12q-106 0 -161.5 57.5t-55.5 166.5q0 68 19 123t54 93.5t83.5 59.5t107.5 21q81 0 124 -34.5t43 -94.5q0 -7 -1 -20t-6 -24h-59q2 5 2 11
t1 16q2 43 -26 67.5t-81 24.5q-87 0 -139.5 -62.5t-52.5 -177.5q0 -85 39.5 -129.5t116.5 -44.5q42 0 73.5 10t51.5 25l12 115h-128l5 55h188l-20 -194q-32 -27 -77 -45.5t-113 -18.5z" />
    <glyph glyph-name="gdotaccent.ss01" horiz-adv-x="477" 
d="M274 589q-21 0 -32.5 12.5t-11.5 31.5q0 21 13.5 36.5t38.5 15.5q20 0 31.5 -13t11.5 -30q0 -22 -13.5 -37.5t-37.5 -15.5zM184 -240q-104 0 -149 33t-45 90q0 32 11 55t27 38.5t32.5 24t26.5 12.5q-8 3 -18 8.5t-19 14t-15 21.5t-6 31q0 37 22.5 59t54.5 33
q-6 6 -13.5 15t-14.5 23.5t-12 34.5t-5 47q0 44 15.5 79.5t42.5 60t63.5 38t78.5 13.5q32 0 55 -7.5t32 -11.5q39 0 66 17.5t32 66.5l55 -12q-3 -30 -14 -49.5t-26.5 -31t-33.5 -16.5t-36 -7q11 -13 26.5 -41.5t15.5 -74.5q0 -45 -15 -80t-41.5 -59.5t-63.5 -37t-81 -12.5
q-33 0 -56.5 7t-28.5 8q-23 -2 -40 -15t-17 -36q0 -28 23 -37.5t61 -9.5h107q75 0 114 -31.5t39 -92.5q0 -76 -60.5 -122t-189.5 -46zM239 186q63 0 98.5 37.5t35.5 99.5q0 55 -31.5 85.5t-84.5 30.5q-61 0 -97.5 -37.5t-36.5 -100.5q0 -54 30.5 -84.5t85.5 -30.5zM192 -191
q179 0 179 109q0 78 -94 78h-98q-62 0 -94.5 -28.5t-32.5 -73.5q0 -44 32.5 -64.5t107.5 -20.5z" />
    <glyph glyph-name="germandbls.sc" horiz-adv-x="514" 
d="M313 277q85 -11 118 -48t33 -87q0 -72 -48 -111t-132 -39q-96 0 -135 46l41 46q35 -38 100 -38q55 0 83 24.5t28 65.5q0 34 -21 56t-74 32q-14 2 -29 3.5t-33 3.5l4 50l150 137q-20 14 -46 21t-63 7q-27 0 -52 -8t-44.5 -23.5t-33 -40t-16.5 -57.5l-33 -317h-64l34 323
q5 45 23 79t46.5 56.5t65 34t78.5 11.5q63 0 104 -16t65 -38l-5 -43z" />
    <glyph glyph-name="grave.case" horiz-adv-x="247" 
d="M113 865h83l66 -123h-61z" />
    <glyph glyph-name="gravecomb.case" 
d="M-134 865h83l66 -123h-61z" />
    <glyph glyph-name="h.sc" horiz-adv-x="543" 
d="M103 497h64l-22 -217h262l23 217h64l-52 -497h-64l23 220h-263l-23 -220h-64z" />
    <glyph glyph-name="h.ss01" horiz-adv-x="501" 
d="M120 726h63l-34 -334q18 40 57 70t96 30q44 0 73 -14.5t45.5 -40t21.5 -60t1 -73.5l-32 -304h-63l32 307q6 55 -17.5 93t-80.5 38q-33 0 -59 -14.5t-44 -36.5t-28 -48.5t-13 -51.5l-31 -287h-63z" />
    <glyph glyph-name="hbar.sc" horiz-adv-x="598" 
d="M578 363h-70l-38 -363h-64l23 220h-262l-23 -220h-64l38 363h-70l4 50h71l9 84h64l-9 -84h262l9 84h64l-9 -84h69zM444 363h-262l-8 -83h261z" />
    <glyph glyph-name="hbar.ss01" horiz-adv-x="501" 
d="M302 492q44 0 73 -14.5t45.5 -40t21.5 -60t1 -73.5l-32 -304h-63l32 307q6 55 -17.5 93t-80.5 38q-33 0 -59 -14.5t-44 -36.5t-28 -48.5t-13 -51.5l-31 -287h-63l61 583h-75l6 55h75l9 88h63l-9 -88h113l-6 -55h-113l-19 -191q18 40 57 70t96 30z" />
    <glyph glyph-name="hcircumflex.sc" horiz-adv-x="543" 
d="M288 735h68l67 -162h-57l-49 114l-73 -114h-57zM103 497h64l-22 -217h262l23 217h64l-52 -497h-64l23 220h-263l-23 -220h-64z" />
    <glyph glyph-name="hcircumflex.ss01" horiz-adv-x="501" 
d="M136 865h71l71 -123h-59l-53 77l-70 -77h-57zM120 726h63l-34 -334q18 40 57 70t96 30q44 0 73 -14.5t45.5 -40t21.5 -60t1 -73.5l-32 -304h-63l32 307q6 55 -17.5 93t-80.5 38q-33 0 -59 -14.5t-44 -36.5t-28 -48.5t-13 -51.5l-31 -287h-63z" />
    <glyph glyph-name="hungarumlaut.case" horiz-adv-x="365" 
d="M187 865h80l-98 -123h-57zM320 865h81l-99 -123h-56z" />
    <glyph glyph-name="i.loclTRK" horiz-adv-x="212" 
d="M143 589q-21 0 -32.5 12.5t-11.5 31.5q0 21 13.5 36.5t38.5 15.5q20 0 31.5 -13t11.5 -30q0 -22 -13.5 -37.5t-37.5 -15.5zM121 -2q-37 0 -53.5 23t-11.5 67l41 394h63l-40 -384q-3 -26 4.5 -38.5t30.5 -12.5l-5 -46q-7 -3 -29 -3z" />
    <glyph glyph-name="i.loclTRK.ss01" horiz-adv-x="207" 
d="M143 589q-21 0 -32.5 12.5t-11.5 31.5q0 21 13.5 36.5t38.5 15.5q20 0 31.5 -13t11.5 -30q0 -22 -13.5 -37.5t-37.5 -15.5zM98 482h63l-51 -482h-63z" />
    <glyph glyph-name="i.sc" horiz-adv-x="217" 
d="M103 497h64l-52 -497h-64z" />
    <glyph glyph-name="i.sc.loclTRK" horiz-adv-x="217" 
d="M149 604q-21 0 -32.5 12.5t-11.5 31.5q0 21 13.5 36.5t38.5 15.5q20 0 31.5 -13t11.5 -30q0 -22 -13.5 -37.5t-37.5 -15.5zM103 497h64l-52 -497h-64z" />
    <glyph glyph-name="i.ss01" horiz-adv-x="207" 
d="M143 589q-21 0 -32.5 12.5t-11.5 31.5q0 21 13.5 36.5t38.5 15.5q20 0 31.5 -13t11.5 -30q0 -22 -13.5 -37.5t-37.5 -15.5zM98 482h63l-51 -482h-63z" />
    <glyph glyph-name="iacute.sc" horiz-adv-x="217" 
d="M195 735h78l-118 -162h-57zM103 497h64l-52 -497h-64z" />
    <glyph glyph-name="iacute.ss01" horiz-adv-x="207" 
d="M189 720h78l-118 -162h-57zM98 482h63l-51 -482h-63z" />
    <glyph glyph-name="ibreve.sc" horiz-adv-x="217" 
d="M145 586q-60 0 -82 34t-16 91h51q-9 -74 51 -74q62 -2 69 74h50q-6 -57 -36 -91t-87 -34zM103 497h64l-52 -497h-64z" />
    <glyph glyph-name="ibreve.ss01" horiz-adv-x="207" 
d="M139 571q-60 0 -82 34t-16 91h51q-9 -74 51 -74q62 -2 69 74h50q-6 -57 -36 -91t-87 -34zM98 482h63l-51 -482h-63z" />
    <glyph glyph-name="icircumflex.sc" horiz-adv-x="217" 
d="M125 735h68l67 -162h-57l-49 114l-73 -114h-57zM103 497h64l-52 -497h-64z" />
    <glyph glyph-name="icircumflex.ss01" horiz-adv-x="207" 
d="M119 720h68l67 -162h-57l-49 114l-73 -114h-57zM98 482h63l-51 -482h-63z" />
    <glyph glyph-name="idieresis.sc" horiz-adv-x="217" 
d="M65 604q-20 0 -31 12t-11 31q0 21 13 36t37 15q21 0 31.5 -12.5t10.5 -30.5q0 -21 -12.5 -36t-37.5 -15zM229 604q-20 0 -31 12t-11 31q0 21 13 36t37 15q20 0 31 -12.5t11 -30.5q0 -21 -13 -36t-37 -15zM103 497h64l-52 -497h-64z" />
    <glyph glyph-name="idieresis.ss01" horiz-adv-x="207" 
d="M59 589q-20 0 -31 12t-11 31q0 21 13 36t37 15q21 0 31.5 -12.5t10.5 -30.5q0 -21 -12.5 -36t-37.5 -15zM223 589q-20 0 -31 12t-11 31q0 21 13 36t37 15q20 0 31 -12.5t11 -30.5q0 -21 -13 -36t-37 -15zM98 482h63l-51 -482h-63z" />
    <glyph glyph-name="igrave.sc" horiz-adv-x="217" 
d="M30 735h75l65 -162h-56zM103 497h64l-52 -497h-64z" />
    <glyph glyph-name="igrave.ss01" horiz-adv-x="207" 
d="M25 720h75l65 -162h-56zM98 482h63l-51 -482h-63z" />
    <glyph glyph-name="ij.sc" horiz-adv-x="591" 
d="M103 497h64l-52 -497h-64zM341 -12q-45 0 -76 17t-48 42l46 45q14 -19 34.5 -32t49.5 -13q46 0 70.5 25.5t29.5 73.5l37 351h64l-36 -348q-8 -78 -51.5 -119.5t-119.5 -41.5z" />
    <glyph glyph-name="ij.ss01" horiz-adv-x="417" 
d="M143 589q-21 0 -32.5 12.5t-11.5 31.5q0 21 13.5 36.5t38.5 15.5q20 0 31.5 -13t11.5 -30q0 -22 -13.5 -37.5t-37.5 -15.5zM352 589q-21 0 -32.5 12.5t-11.5 31.5q0 21 13.5 36.5t38.5 15.5q20 0 31.5 -13t11.5 -30q0 -22 -13.5 -37.5t-37.5 -15.5zM98 482h63l-51 -482
h-63zM150 -247q-21 0 -36.5 4t-24.5 9q-12 6 -20 13l24 45q6 -5 15 -9q8 -3 18 -5.5t24 -2.5q44 0 69 28.5t31 90.5l59 556h61l-58 -558q-9 -82 -48 -126.5t-114 -44.5z" />
    <glyph glyph-name="ijacute" horiz-adv-x="439" 
d="M190 720h78l-118 -162h-57zM409 720h77l-117 -162h-57zM121 -2q-37 0 -53.5 23t-11.5 67l41 394h63l-40 -384q-3 -26 4.5 -38.5t30.5 -12.5l-5 -46q-7 -3 -29 -3zM155 -247q-21 0 -36.5 4t-24.5 9q-12 6 -20 13l24 45q6 -5 15 -9q7 -3 17.5 -5.5t24.5 -2.5
q44 0 68.5 28.5t31.5 90.5l59 556h61l-58 -558q-9 -82 -48 -126.5t-114 -44.5z" />
    <glyph glyph-name="imacron.sc" horiz-adv-x="217" 
d="M38 677h233l-6 -52h-233zM103 497h64l-52 -497h-64z" />
    <glyph glyph-name="imacron.ss01" horiz-adv-x="207" 
d="M33 662h233l-6 -52h-233zM98 482h63l-51 -482h-63z" />
    <glyph glyph-name="iogonek.sc" horiz-adv-x="217" 
d="M71 -129q11 0 18.5 3.5t14.5 8.5l18 -34q-11 -11 -28.5 -17.5t-38.5 -6.5q-36 0 -56 18t-20 52q0 32 19.5 61.5t53.5 50.5l51 490h64l-52 -496l1 -1q-34 -10 -57 -35.5t-23 -55.5q0 -38 35 -38z" />
    <glyph glyph-name="iogonek.ss01" horiz-adv-x="207" 
d="M151 685q20 0 31.5 -13t11.5 -30q0 -22 -13.5 -37.5t-37.5 -15.5q-21 0 -32.5 12.5t-11.5 31.5q0 21 13.5 36.5t38.5 15.5zM110 0q-34 -10 -57 -35.5t-23 -55.5q0 -38 35 -38q11 0 18.5 3.5t14.5 8.5l18 -34q-11 -11 -28.5 -17.5t-38.5 -6.5q-36 0 -56 18t-20 52
q0 32 20 62t55 51l50 474h63z" />
    <glyph glyph-name="itilde.sc" horiz-adv-x="217" 
d="M18 598q-5 15 -5 33q0 29 19 50t57 21q20 0 35.5 -7t29 -16t26 -16t26.5 -7q29 0 29 32q0 14 -4 19h50q5 -13 5 -30q0 -32 -19 -53t-56 -21q-22 0 -39 7t-30 15.5t-24 15.5t-23 7q-31 0 -31 -31q0 -11 3 -19h-49zM103 497h64l-52 -497h-64z" />
    <glyph glyph-name="itilde.ss01" horiz-adv-x="207" 
d="M12 583q-5 15 -5 33q0 29 19 50t57 21q20 0 35.5 -7t29 -16t26 -16t26.5 -7q29 0 29 32q0 14 -4 19h50q5 -13 5 -30q0 -32 -19 -53t-56 -21q-22 0 -39 7t-30 15.5t-24 15.5t-23 7q-31 0 -31 -31q0 -11 3 -19h-49zM98 482h63l-51 -482h-63z" />
    <glyph glyph-name="j.sc" horiz-adv-x="375" 
d="M124 -12q-45 0 -76 17t-48 42l46 45q14 -19 34.5 -32t49.5 -13q46 0 70.5 25.5t29.5 73.5l37 351h64l-36 -348q-8 -78 -51.5 -119.5t-119.5 -41.5z" />
    <glyph glyph-name="jcircumflex.sc" horiz-adv-x="375" 
d="M283 735h68l67 -162h-57l-49 114l-73 -114h-57zM124 -12q-45 0 -76 17t-48 42l46 45q14 -19 34.5 -32t49.5 -13q46 0 70.5 25.5t29.5 73.5l37 351h64l-36 -348q-8 -78 -51.5 -119.5t-119.5 -41.5z" />
    <glyph glyph-name="k.sc" horiz-adv-x="503" 
d="M303 243q30 -19 45 -51t27.5 -63t27.5 -53.5t43 -22.5h19l-6 -55q-3 -1 -12.5 -2t-22.5 -1q-35 0 -55 16.5t-33 41.5t-23 54t-24 54t-36.5 41.5t-60.5 16.5h-54l-23 -219h-64l52 497h64l-23 -224h64q28 0 59.5 12t60 39t49.5 69.5t27 103.5h63q-10 -94 -54 -159t-110 -95
z" />
    <glyph glyph-name="k.ss01" horiz-adv-x="457" 
d="M352 91q14 -25 26.5 -33.5t35.5 -8.5h9l-5 -47l-8 -2t-9 -1.5t-11 -0.5q-40 0 -57.5 17t-35.5 50l-97 177l-75 -72l-18 -170h-63l76 726h63l-51 -481l243 237h76l-209 -200z" />
    <glyph glyph-name="kgreenlandic.sc" horiz-adv-x="503" 
d="M303 243q30 -19 45 -51t27.5 -63t27.5 -53.5t43 -22.5h19l-6 -55q-3 -1 -12.5 -2t-22.5 -1q-35 0 -55 16.5t-33 41.5t-23 54t-24 54t-36.5 41.5t-60.5 16.5h-54l-23 -219h-64l52 497h64l-23 -224h64q28 0 59.5 12t60 39t49.5 69.5t27 103.5h63q-10 -94 -54 -159t-110 -95
z" />
    <glyph glyph-name="kgreenlandic.ss01" horiz-adv-x="457" 
d="M352 91q14 -25 26.5 -33.5t35.5 -8.5h9l-5 -47l-8 -2t-9 -1.5t-11 -0.5q-40 0 -57.5 17t-35.5 50l-97 177l-75 -72l-18 -170h-63l50 482h63l-25 -237l243 237h76l-209 -200z" />
    <glyph glyph-name="l.sc" horiz-adv-x="404" 
d="M103 497h64l-46 -440h243l-6 -57h-307z" />
    <glyph glyph-name="lacute.sc" horiz-adv-x="404" 
d="M204 735h78l-118 -162h-57zM103 497h64l-46 -440h243l-6 -57h-307z" />
    <glyph glyph-name="lcaron.sc" horiz-adv-x="428" 
d="M271 374q44 19 49 52q-39 9 -39 45q0 23 14 36t35 13q20 0 33.5 -13.5t13.5 -40.5q0 -19 -7.5 -39t-19.5 -36.5t-28.5 -29t-34.5 -18.5zM103 497h64l-46 -440h243l-6 -57h-307z" />
    <glyph glyph-name="ldot.sc" horiz-adv-x="433" 
d="M103 497h64l-46 -440h243l-6 -57h-307zM326 234q-20 0 -32 11.5t-12 31.5q0 22 13 36.5t36 14.5q20 0 32 -12t12 -32q0 -21 -13 -35.5t-36 -14.5z" />
    <glyph glyph-name="lslash.sc" horiz-adv-x="420" 
d="M380 57l-6 -57h-307l20 188l-49 -27l-19 43l74 42l26 251h64l-22 -213l89 51l21 -43l-116 -65l-18 -170h243z" />
    <glyph glyph-name="m.sc" horiz-adv-x="624" 
d="M103 497h68l134 -352l206 352h64l-52 -497h-59l42 386l-13 -24l-174 -295h-48l-112 299l-7 24l-41 -390h-60z" />
    <glyph glyph-name="m.ss01" horiz-adv-x="808" 
d="M92 385q4 31 -4.5 41.5t-29.5 10.5l5 47q4 1 12 2t17 1q64 0 59 -81l-2 -25q9 21 22.5 41t33 35.5t45.5 25t58 9.5q66 0 98.5 -32.5t39.5 -84.5q8 23 23 44t36 37t47.5 26t56.5 10q45 0 74 -14.5t45.5 -40t21 -60t0.5 -73.5l-32 -304h-63l32 304q6 61 -16 97.5t-82 36.5
q-30 0 -54.5 -13t-43 -34.5t-29.5 -49.5t-14 -57l-30 -284h-63l32 304q6 56 -17 95t-82 39q-33 0 -58.5 -14t-43.5 -36.5t-28 -50t-13 -53.5l-30 -284h-63z" />
    <glyph glyph-name="macron.case" horiz-adv-x="355" 
d="M119 826h240l-5 -54h-240z" />
    <glyph glyph-name="n.sc" horiz-adv-x="538" 
d="M103 497h62l213 -378l8 -18l42 396h61l-52 -497h-60l-215 383l-8 15l-41 -398h-61z" />
    <glyph glyph-name="n.ss01" horiz-adv-x="509" 
d="M92 386q4 30 -4.5 41t-29.5 11l5 46q9 3 29 3q64 0 59 -80l-2 -23q23 52 65 80.5t96 28.5q77 0 114 -49t27 -139l-32 -305h-63l32 305q7 63 -18.5 98.5t-80.5 35.5q-29 0 -54 -12t-44 -32.5t-31 -48.5t-15 -61l-30 -285h-63z" />
    <glyph glyph-name="nacute.sc" horiz-adv-x="538" 
d="M356 735h78l-118 -162h-57zM103 497h62l213 -378l8 -18l42 396h61l-52 -497h-60l-215 383l-8 15l-41 -398h-61z" />
    <glyph glyph-name="nacute.ss01" horiz-adv-x="509" 
d="M341 720h78l-118 -162h-57zM92 386q4 30 -4.5 41t-29.5 11l5 46q9 3 29 3q64 0 59 -80l-2 -23q23 52 65 80.5t96 28.5q77 0 114 -49t27 -139l-32 -305h-63l32 305q7 63 -18.5 98.5t-80.5 35.5q-29 0 -54 -12t-44 -32.5t-31 -48.5t-15 -61l-30 -285h-63z" />
    <glyph glyph-name="napostrophe.sc" horiz-adv-x="620" 
d="M48 575q4 3 12 7t15.5 10.5t13.5 15t6 18.5q-22 0 -35.5 14t-13.5 34t13.5 34t33.5 14q22 0 37 -15t15 -43q0 -31 -10 -53t-23 -36t-25.5 -21.5t-18.5 -10.5zM161 497h62l212 -378l9 -18l41 396h62l-52 -497h-61l-215 383l-7 15l-41 -398h-61z" />
    <glyph glyph-name="napostrophe.ss01" horiz-adv-x="584" 
d="M40 552q21 8 35 24t16 34q-20 0 -31.5 12t-11.5 30q0 23 15 38t35 15q22 0 34 -13.5t12 -36.5q0 -44 -23.5 -82t-63.5 -52zM167 386q4 30 -4.5 41t-29.5 11l5 46q9 3 29 3q33 0 47 -20t12 -60l-2 -23q23 52 65 80.5t96 28.5q77 0 114 -49t27 -139l-32 -305h-63l32 305
q7 63 -18.5 98.5t-80.5 35.5q-29 0 -54 -12t-44 -32.5t-31 -48.5t-15 -61l-30 -285h-63z" />
    <glyph glyph-name="ncaron.sc" horiz-adv-x="538" 
d="M203 735h57l50 -114l72 114h56l-101 -162h-66zM103 497h62l213 -378l8 -18l42 396h61l-52 -497h-60l-215 383l-8 15l-41 -398h-61z" />
    <glyph glyph-name="ncaron.ss01" horiz-adv-x="509" 
d="M188 720h57l50 -114l72 114h56l-101 -162h-66zM92 386q4 30 -4.5 41t-29.5 11l5 46q9 3 29 3q64 0 59 -80l-2 -23q23 52 65 80.5t96 28.5q77 0 114 -49t27 -139l-32 -305h-63l32 305q7 63 -18.5 98.5t-80.5 35.5q-29 0 -54 -12t-44 -32.5t-31 -48.5t-15 -61l-30 -285h-63
z" />
    <glyph glyph-name="nine.dnom" horiz-adv-x="368" 
d="M164 389q63 0 97.5 -42t34.5 -116q0 -53 -11.5 -96.5t-33 -75t-54 -49t-74.5 -18.5q-42 0 -68 15.5t-40 42.5l41 28q22 -40 70 -40q47 0 78.5 36.5t38.5 111.5q-25 -24 -53 -34t-57 -10q-51 0 -81 29.5t-30 77.5q0 33 11 59t30 44t45 27.5t56 9.5zM145 185
q33 0 57.5 13.5t42.5 33.5q-1 60 -25 86t-61 26q-42 0 -65 -25.5t-23 -63.5q0 -33 20.5 -51.5t53.5 -18.5z" />
    <glyph glyph-name="nine.numr" horiz-adv-x="368" 
d="M164 709q63 0 97.5 -42t34.5 -116q0 -53 -11.5 -96.5t-33 -75t-54 -49t-74.5 -18.5q-42 0 -68 15.5t-40 42.5l41 28q22 -40 70 -40q47 0 78.5 36.5t38.5 111.5q-25 -24 -53 -34t-57 -10q-51 0 -81 29.5t-30 77.5q0 33 11 59t30 44t45 27.5t56 9.5zM145 505
q33 0 57.5 13.5t42.5 33.5q-1 60 -25 86t-61 26q-42 0 -65 -25.5t-23 -63.5q0 -33 20.5 -51.5t53.5 -18.5z" />
    <glyph glyph-name="nine.osf" horiz-adv-x="525" 
d="M270 501q101 0 154 -69t53 -202q0 -218 -73 -329.5t-206 -111.5q-59 0 -105 21.5t-69 69.5l50 37q23 -40 53.5 -56.5t76.5 -16.5q88 0 143 75t66 229q-39 -50 -85 -69.5t-99 -19.5q-84 0 -135.5 51t-51.5 146q0 56 17 101t47 77t72 49.5t92 17.5zM247 117q57 0 99.5 27.5
t68.5 65.5v10q0 117 -40 172t-110 55q-34 0 -63.5 -12.5t-51 -36.5t-33.5 -58t-12 -77q0 -69 36.5 -107.5t105.5 -38.5z" />
    <glyph glyph-name="nine.sc" horiz-adv-x="465" 
d="M241 509q89 0 136 -54.5t47 -154.5q0 -152 -63 -232t-174 -80q-54 0 -92.5 18.5t-58.5 56.5l48 35q18 -32 44.5 -44.5t63.5 -12.5q73 0 117 50.5t52 159.5q-33 -35 -73 -50.5t-82 -15.5q-72 0 -114.5 37t-42.5 106q0 39 13.5 72.5t38.5 57.5t60.5 37.5t79.5 13.5z
M223 237q42 0 78 19t61 48q-2 78 -35.5 115.5t-88.5 37.5q-57 0 -92.5 -33t-35.5 -88q0 -48 28 -73.5t85 -25.5z" />
    <glyph glyph-name="nine.sinf" horiz-adv-x="352" 
d="M164 254q63 0 97.5 -42t34.5 -116q0 -53 -11.5 -97t-33 -75t-54 -48.5t-74.5 -18.5q-42 0 -68 15t-40 42l41 29q22 -40 70 -40q47 0 78.5 36.5t38.5 111.5q-25 -24 -53 -34t-57 -10q-51 0 -81 29.5t-30 77.5q0 33 11 59t30 44t45 27.5t56 9.5zM145 50q33 0 57.5 13.5
t42.5 33.5q-1 60 -25 86t-61 26q-42 0 -65 -25.5t-23 -63.5q0 -33 20.5 -51.5t53.5 -18.5z" />
    <glyph glyph-name="nine.sups" horiz-adv-x="368" 
d="M164 774q63 0 97.5 -42t34.5 -116q0 -53 -11.5 -96.5t-33 -75t-54 -49t-74.5 -18.5q-42 0 -68 15.5t-40 42.5l41 28q22 -40 70 -40q47 0 78.5 36.5t38.5 111.5q-25 -24 -53 -34t-57 -10q-51 0 -81 29.5t-30 77.5q0 33 11 59t30 44t45 27.5t56 9.5zM145 570
q33 0 57.5 13.5t42.5 33.5q-1 60 -25 86t-61 26q-42 0 -65 -25.5t-23 -63.5q0 -33 20.5 -51.5t53.5 -18.5z" />
    <glyph glyph-name="ntilde.sc" horiz-adv-x="538" 
d="M180 598q-5 15 -5 33q0 29 19 50t57 21q20 0 35.5 -7t29 -16t26 -16t26.5 -7q29 0 29 32q0 14 -4 19h50q5 -13 5 -30q0 -32 -19 -53t-56 -21q-22 0 -39 7t-30 15.5t-24 15.5t-23 7q-31 0 -31 -31q0 -11 3 -19h-49zM103 497h62l213 -378l8 -18l42 396h61l-52 -497h-60
l-215 383l-8 15l-41 -398h-61z" />
    <glyph glyph-name="ntilde.ss01" horiz-adv-x="509" 
d="M164 583q-5 15 -5 33q0 29 19 50t57 21q20 0 35.5 -7t29 -16t26 -16t26.5 -7q29 0 29 32q0 14 -4 19h50q5 -13 5 -30q0 -32 -19 -53t-56 -21q-22 0 -39 7t-30 15.5t-24 15.5t-23 7q-31 0 -31 -31q0 -11 3 -19h-49zM92 386q4 30 -4.5 41t-29.5 11l5 46q9 3 29 3
q64 0 59 -80l-2 -23q23 52 65 80.5t96 28.5q77 0 114 -49t27 -139l-32 -305h-63l32 305q7 63 -18.5 98.5t-80.5 35.5q-29 0 -54 -12t-44 -32.5t-31 -48.5t-15 -61l-30 -285h-63z" />
    <glyph glyph-name="o.sc" horiz-adv-x="559" 
d="M261 -12q-42 0 -81.5 12t-70 39t-48.5 70t-18 106q0 77 21.5 132.5t57 91.5t82 53t97.5 17q42 0 81 -12t69.5 -39t48.5 -70.5t18 -106.5q0 -77 -21 -132.5t-56.5 -91t-82 -52.5t-97.5 -17zM267 41q34 0 67 13.5t58.5 42t41 73.5t15.5 108q0 48 -12.5 81.5t-33.5 55
t-48.5 31.5t-57.5 10q-35 0 -68.5 -13.5t-59.5 -42t-42 -73.5t-16 -109q0 -47 12.5 -80.5t34 -55t50 -31.5t59.5 -10z" />
    <glyph glyph-name="oacute.sc" horiz-adv-x="559" 
d="M365 725h78l-118 -162h-57zM261 -12q-42 0 -81.5 12t-70 39t-48.5 70t-18 106q0 77 21.5 132.5t57 91.5t82 53t97.5 17q42 0 81 -12t69.5 -39t48.5 -70.5t18 -106.5q0 -77 -21 -132.5t-56.5 -91t-82 -52.5t-97.5 -17zM267 41q34 0 67 13.5t58.5 42t41 73.5t15.5 108
q0 48 -12.5 81.5t-33.5 55t-48.5 31.5t-57.5 10q-35 0 -68.5 -13.5t-59.5 -42t-42 -73.5t-16 -109q0 -47 12.5 -80.5t34 -55t50 -31.5t59.5 -10z" />
    <glyph glyph-name="obreve.sc" horiz-adv-x="559" 
d="M315 576q-60 0 -82 34t-16 91h51q-9 -74 51 -74q62 -2 69 74h50q-6 -57 -36 -91t-87 -34zM261 -12q-42 0 -81.5 12t-70 39t-48.5 70t-18 106q0 77 21.5 132.5t57 91.5t82 53t97.5 17q42 0 81 -12t69.5 -39t48.5 -70.5t18 -106.5q0 -77 -21 -132.5t-56.5 -91t-82 -52.5
t-97.5 -17zM267 41q34 0 67 13.5t58.5 42t41 73.5t15.5 108q0 48 -12.5 81.5t-33.5 55t-48.5 31.5t-57.5 10q-35 0 -68.5 -13.5t-59.5 -42t-42 -73.5t-16 -109q0 -47 12.5 -80.5t34 -55t50 -31.5t59.5 -10z" />
    <glyph glyph-name="ocircumflex.sc" horiz-adv-x="559" 
d="M295 725h68l67 -162h-57l-49 114l-73 -114h-57zM261 -12q-42 0 -81.5 12t-70 39t-48.5 70t-18 106q0 77 21.5 132.5t57 91.5t82 53t97.5 17q42 0 81 -12t69.5 -39t48.5 -70.5t18 -106.5q0 -77 -21 -132.5t-56.5 -91t-82 -52.5t-97.5 -17zM267 41q34 0 67 13.5t58.5 42
t41 73.5t15.5 108q0 48 -12.5 81.5t-33.5 55t-48.5 31.5t-57.5 10q-35 0 -68.5 -13.5t-59.5 -42t-42 -73.5t-16 -109q0 -47 12.5 -80.5t34 -55t50 -31.5t59.5 -10z" />
    <glyph glyph-name="odieresis.sc" horiz-adv-x="559" 
d="M235 595q-20 0 -31 12t-11 31q0 21 13 36t37 15q21 0 31.5 -12.5t10.5 -30.5q0 -21 -12.5 -36t-37.5 -15zM399 595q-20 0 -31 12t-11 31q0 21 13 36t37 15q20 0 31 -12.5t11 -30.5q0 -21 -13 -36t-37 -15zM261 -12q-42 0 -81.5 12t-70 39t-48.5 70t-18 106
q0 77 21.5 132.5t57 91.5t82 53t97.5 17q42 0 81 -12t69.5 -39t48.5 -70.5t18 -106.5q0 -77 -21 -132.5t-56.5 -91t-82 -52.5t-97.5 -17zM267 41q34 0 67 13.5t58.5 42t41 73.5t15.5 108q0 48 -12.5 81.5t-33.5 55t-48.5 31.5t-57.5 10q-35 0 -68.5 -13.5t-59.5 -42
t-42 -73.5t-16 -109q0 -47 12.5 -80.5t34 -55t50 -31.5t59.5 -10z" />
    </font>
</defs>
</svg>
