<?xml version="1.0" standalone="no"?>
<!DOCTYPE svg PUBLIC "-//W3C//DTD SVG 1.1//EN" "http://www.w3.org/Graphics/SVG/1.1/DTD/svg11.dtd" >
<svg xmlns="http://www.w3.org/2000/svg" xmlns:xlink="http://www.w3.org/1999/xlink" version="1.1">
<metadata>
Created by FontForge 20170731 at Wed Jul  3 11:38:26 2019
 By Aleksey,,,
Copyright (c) 2017 by Daniel Hernandez. All rights reserved.
</metadata>
<defs>
<font id="AndesNeueAlt2-Book" horiz-adv-x="0" >
  <font-face 
    font-family="AndesNeue Alt 2 Book"
    font-weight="400"
    font-stretch="normal"
    units-per-em="1000"
    panose-1="0 0 5 0 0 0 0 0 0 0"
    ascent="750"
    descent="-250"
    x-height="482"
    cap-height="700"
    bbox="-671 -254 1351 973"
    underline-thickness="50"
    underline-position="-150"
    unicode-range="U+000D-FB02"
  />
<missing-glyph horiz-adv-x="530" 
d="M480 730v-730h-430v730h430zM265 408l150 287h-300zM90 657v-584l153 292zM440 73v584l-152 -292zM115 35h300l-150 287z" />
    <glyph glyph-name="fi" unicode="fi" horiz-adv-x="502" 
d="M93 408h-70v74h72v74q0 85 43 130.5t118 45.5q25 0 44.5 -6t30.5 -14l-33 -67q-8 5 -17.5 7.5t-24.5 2.5q-35 0 -55.5 -22.5t-20.5 -70.5v-80h251v-482h-88v408h-163v-408h-87v408zM387 580q-26 0 -42.5 17t-16.5 42t17 42t42 17t42 -17.5t17 -41.5q0 -25 -17 -42
t-42 -17z" />
    <glyph glyph-name="fl" unicode="fl" horiz-adv-x="509" 
d="M431 113q0 -23 9 -35.5t32 -12.5v-64q-5 -1 -11 -2q-5 -1 -12.5 -1.5t-16.5 -0.5q-42 0 -65.5 25t-23.5 81v305h-163v-408h-87v408h-70v74h72v74q0 85 43 130.5t118 45.5q24 0 42.5 -5t29.5 -13l-30 -69q-8 5 -17.5 7.5t-24.5 2.5q-35 0 -55.5 -22.5t-20.5 -70.5v-80h163
v244h88v-613z" />
    <glyph glyph-name=".notdef" horiz-adv-x="530" 
d="M480 730v-730h-430v730h430zM265 408l150 287h-300zM90 657v-584l153 292zM440 73v584l-152 -292zM115 35h300l-150 287z" />
    <glyph glyph-name=".null" 
 />
    <glyph glyph-name=".null" 
 />
    <glyph glyph-name="nonmarkingreturn" unicode="&#xd;" horiz-adv-x="250" 
 />
    <glyph glyph-name="space" unicode=" " horiz-adv-x="215" 
 />
    <glyph glyph-name="exclam" unicode="!" horiz-adv-x="248" 
d="M76 700h99l-13 -503h-76zM123 -13q-23 0 -39.5 16.5t-16.5 39.5t16.5 39t39.5 16t39.5 -16t16.5 -39t-16.5 -39.5t-39.5 -16.5z" />
    <glyph glyph-name="quotedbl" unicode="&#x22;" horiz-adv-x="300" 
d="M50 750h74l-4 -180h-67zM176 750h74l-4 -180h-67z" />
    <glyph glyph-name="numbersign" unicode="#" horiz-adv-x="594" 
d="M137 139h-109l12 51h109l31 144h-102l12 52h101l23 105h65l-23 -105h134l24 105h65l-23 -105h111l-12 -52h-110l-32 -144h104l-12 -51h-103l-21 -95h-65l21 95h-134l-21 -95h-65zM348 190l31 144h-134l-32 -144h135z" />
    <glyph glyph-name="dollar" unicode="$" horiz-adv-x="569" 
d="M340 388q37 -9 72.5 -21t63 -33t44.5 -53t17 -82q0 -38 -14 -70.5t-40.5 -57t-63.5 -40t-83 -20.5v-118h-77v116q-43 1 -80 10.5t-66.5 25.5t-51.5 37t-34 44l68 54q29 -48 72 -68.5t94 -25.5v232q-39 8 -76.5 18t-67 29t-47.5 50.5t-18 80.5q0 82 54.5 133.5t152.5 60.5
v114h77v-115q35 -3 71 -16t63 -37.5t41 -62t5 -90.5l-87 -1q11 56 -16.5 87t-76.5 41v-221zM141 506q0 -23 9.5 -39.5t25.5 -28t38 -19.5t47 -14v208q-55 -5 -87.5 -32t-32.5 -75zM336 88q53 8 82.5 35.5t29.5 72.5q0 24 -8.5 41t-23.5 29.5t-35.5 20.5t-44.5 14v-213z" />
    <glyph glyph-name="percent" unicode="%" horiz-adv-x="629" 
d="M139 424q-54 0 -83 35.5t-29 103.5t29 103.5t83 35.5q56 0 85.5 -35.5t29.5 -103.5t-30 -103.5t-85 -35.5zM385 700h66l-211 -700h-67zM139 473q29 0 42.5 24t13.5 66t-13.5 64.5t-42.5 22.5t-42 -22.5t-13 -64.5t13 -66t42 -24zM488 -2q-54 0 -83 35.5t-29 103.5
t29 103.5t83 35.5q56 0 85.5 -35.5t29.5 -103.5t-30 -103.5t-85 -35.5zM488 47q29 0 42.5 24t13.5 66t-13.5 64.5t-42.5 22.5t-42 -22.5t-13 -64.5t13 -66t42 -24z" />
    <glyph glyph-name="ampersand" unicode="&#x26;" horiz-adv-x="699" 
d="M667 -14q-42 8 -81 22.5t-77 34.5q-78 -60 -202 -60q-57 0 -104.5 15t-82 43t-54 68.5t-19.5 91.5q0 29 8.5 58t24 55t37 47.5t46.5 35.5q-34 74 -34 139q0 45 15 81.5t43 62t67 39.5t87 14q97 0 147.5 -43.5t50.5 -121.5q0 -26 -4.5 -52.5t-12.5 -42.5h-90q6 15 10 38
t4 43q0 51 -28 75.5t-76 24.5q-58 0 -90 -28t-32 -87q0 -53 29 -115t90 -128q8 -8 22.5 -23t35 -34t46.5 -40t55 -42q34 65 34 171h93q-3 -133 -55 -216q29 -17 59.5 -29t60.5 -19zM318 62q70 0 116 28q-43 30 -82.5 66.5t-76.5 77.5q-23 26 -41.5 50.5t-34.5 48.5
q-34 -30 -46 -58t-12 -64t13.5 -63.5t37 -46.5t56 -29t70.5 -10z" />
    <glyph glyph-name="quotesingle" unicode="'" horiz-adv-x="174" 
d="M50 750h74l-4 -180h-67z" />
    <glyph glyph-name="parenleft" unicode="(" horiz-adv-x="272" 
d="M192 -244q-74 106 -111.5 226.5t-37.5 258.5t37.5 258.5t111.5 226.5l63 -41q-56 -88 -90.5 -201.5t-34.5 -242.5t34.5 -242.5t90.5 -201.5z" />
    <glyph glyph-name="parenright" unicode=")" horiz-adv-x="272" 
d="M80 726q74 -106 111.5 -226.5t37.5 -258.5t-37.5 -258.5t-111.5 -226.5l-63 41q56 88 90.5 201.5t34.5 242.5t-34.5 242.5t-90.5 201.5z" />
    <glyph glyph-name="asterisk" unicode="*" horiz-adv-x="429" 
d="M209 549l-76 -107l-54 39l95 102l-135 12l7 65l133 -31l-57 121l60 27l43 -131l79 114l52 -39l-94 -104l136 -12l-7 -64l-136 29l58 -122l-59 -26z" />
    <glyph glyph-name="plus" unicode="+" horiz-adv-x="434" 
d="M182 229h-147v65h147v152h67v-152h150v-65h-150v-162h-67v162z" />
    <glyph glyph-name="comma" unicode="," horiz-adv-x="216" 
d="M52 -74q15 8 26 18q11 9 19 21.5t8 28.5q-24 0 -41.5 16.5t-17.5 41.5q0 24 17 41.5t42 17.5q26 0 44.5 -18t18.5 -52q0 -48 -14 -78t-31 -48q-20 -20 -45 -30z" />
    <glyph glyph-name="hyphen" unicode="-" horiz-adv-x="388" 
d="M59 306h270v-69h-270v69z" />
    <glyph glyph-name="period" unicode="." horiz-adv-x="209" 
d="M105 -6q-25 0 -42 17t-17 41t17 41.5t42 17.5q24 0 41 -17.5t17 -41.5t-17 -41t-41 -17z" />
    <glyph glyph-name="slash" unicode="/" horiz-adv-x="408" 
d="M302 706h87l-282 -932h-88z" />
    <glyph glyph-name="zero" unicode="0" horiz-adv-x="620" 
d="M308 -6q-133 0 -196 94t-63 261q0 84 15.5 150t48 112t81 70.5t114.5 24.5q67 0 116.5 -24.5t82 -70.5t48.5 -112.5t16 -149.5t-16 -149t-48.5 -111.5t-82 -70t-116.5 -24.5zM308 73q88 0 128.5 69t40.5 207t-40.5 208t-128.5 70q-85 0 -125 -70t-40 -208t40 -207
t125 -69z" />
    <glyph glyph-name="one" unicode="1" horiz-adv-x="364" 
d="M188 559q-31 -37 -75.5 -50.5t-91.5 -13.5v82q81 0 124 36t43 87h89v-700h-89v559z" />
    <glyph glyph-name="two" unicode="2" horiz-adv-x="556" 
d="M43 20q0 72 27 120t67.5 83t88 62t88 56.5t67.5 65.5t27 89q0 60 -36 95.5t-102 35.5q-43 0 -70.5 -14.5t-43 -34.5t-21 -41t-6.5 -35h-86q0 26 11 61.5t37.5 67t71.5 53.5t114 22q54 0 95.5 -15t70 -43t43 -67t14.5 -86q0 -58 -26.5 -102t-66.5 -79t-87 -63t-87 -54.5
t-66.5 -53.5t-26.5 -60v-6h377v-77h-474v20z" />
    <glyph glyph-name="three" unicode="3" horiz-adv-x="560" 
d="M271 -6q-89 0 -150 34t-92 103l78 44q19 -50 63.5 -76t98.5 -26q81 0 117.5 31.5t36.5 91.5q0 26 -8.5 48t-29.5 38.5t-57 26t-91 9.5h-30v70h30q80 0 122 32.5t42 95.5q0 30 -10.5 51t-28 34.5t-40.5 19.5t-49 6q-24 0 -48 -6.5t-43.5 -21t-33 -38.5t-16.5 -59h-86
q3 49 22.5 87t50 64t71.5 39.5t88 13.5q48 0 87 -12t67 -35.5t43.5 -58t15.5 -79.5q0 -64 -30 -102.5t-79 -53.5q38 -7 63.5 -24.5t40.5 -41t21.5 -51t6.5 -55.5q0 -46 -17 -82.5t-49 -62.5t-76.5 -40t-100.5 -14z" />
    <glyph glyph-name="four" unicode="4" horiz-adv-x="562" 
d="M352 156h-330v77l251 467h92l-247 -467h233v165h90v-165h101v-77h-101v-156h-89v156z" />
    <glyph glyph-name="five" unicode="5" horiz-adv-x="573" 
d="M278 -6q-91 0 -150 35t-88 102l79 45q20 -51 62.5 -77t98.5 -26q76 0 118.5 38.5t42.5 117.5q0 75 -41 111t-107 36q-51 0 -84.5 -15t-52.5 -34h-87v373h430v-83h-343v-210q30 27 69.5 39t84.5 12q105 0 164.5 -58.5t59.5 -164.5q0 -118 -67 -179.5t-189 -61.5z" />
    <glyph glyph-name="six" unicode="6" horiz-adv-x="594" 
d="M349 419q95 0 150 -49.5t55 -149.5q0 -50 -17 -91.5t-49 -71.5t-77 -46.5t-102 -16.5q-131 0 -195.5 89.5t-64.5 254.5q0 95 21 164.5t57.5 114.5t87 67t110.5 22q91 0 145.5 -40.5t54.5 -115.5q0 -12 -1.5 -27t-4.5 -26h-85q3 21 3 33q0 48 -30.5 72.5t-80.5 24.5
q-42 0 -76.5 -15t-59 -48.5t-37.5 -86.5t-13 -130v-22q43 53 99 73.5t110 20.5zM311 73q73 0 112 36.5t39 97.5t-33 95t-102 34q-61 0 -107.5 -30t-70.5 -72q15 -85 56 -123t106 -38z" />
    <glyph glyph-name="seven" unicode="7" horiz-adv-x="497" 
d="M125 0q0 82 19 150t47.5 125t61.5 105t61.5 89.5t48 77.5t20.5 70h-366v83h459v-44q0 -53 -19.5 -99t-48 -91t-62.5 -91.5t-62.5 -102t-48 -122t-19.5 -150.5h-91z" />
    <glyph glyph-name="eight" unicode="8" horiz-adv-x="578" 
d="M419 358q61 -27 86.5 -69t25.5 -99q0 -44 -17 -80t-49 -62t-77.5 -40t-101.5 -14q-116 0 -178.5 50t-62.5 139q0 57 31 103.5t79 75.5q-39 24 -61 61.5t-22 88.5q0 42 15.5 77.5t44 61.5t69 40.5t89.5 14.5q50 0 90.5 -12.5t69.5 -36t45 -57.5t16 -78q0 -57 -26 -97.5
t-66 -66.5zM288 627q-56 0 -91.5 -28t-35.5 -84q0 -36 22 -62t60 -38l99 -31q43 24 61.5 56t18.5 65q0 61 -37 91.5t-97 30.5zM286 72q80 0 117.5 30t37.5 84q0 42 -22 68t-77 43l-117 35q-35 -24 -61.5 -57t-26.5 -80q0 -54 35 -88.5t114 -34.5z" />
    <glyph glyph-name="nine" unicode="9" horiz-adv-x="594" 
d="M282 706q132 0 197.5 -88t65.5 -252q0 -96 -20 -166.5t-55 -116t-84 -67.5t-107 -22q-81 0 -134 24.5t-85 75.5l69 55q29 -42 61.5 -59.5t88.5 -17.5q36 0 68 15t56 48.5t38 87.5t14 131q-42 -54 -94.5 -73.5t-100.5 -19.5t-88.5 13.5t-69.5 40t-45.5 66t-16.5 91.5
q0 53 17.5 96.5t49.5 74t76.5 47t98.5 16.5zM273 343q30 0 57 8.5t50 22.5t40.5 31t29.5 33q-14 100 -59 144.5t-111 44.5q-68 0 -108 -37.5t-40 -105.5q0 -67 34 -104t107 -37z" />
    <glyph glyph-name="colon" unicode=":" horiz-adv-x="237" 
d="M119 412q-25 0 -42 17t-17 41t17 41.5t42 17.5q24 0 41 -17.5t17 -41.5t-17 -41t-41 -17zM119 -6q-25 0 -42 17t-17 41t17 41.5t42 17.5q24 0 41 -17.5t17 -41.5t-17 -41t-41 -17z" />
    <glyph glyph-name="semicolon" unicode=";" horiz-adv-x="244" 
d="M120 372q-25 0 -42 17t-17 41t17 41.5t42 17.5q24 0 41 -17.5t17 -41.5t-17 -41t-41 -17zM68 -74q15 8 26 18q11 9 19 21.5t8 28.5q-24 0 -41.5 16.5t-17.5 41.5q0 24 17 41.5t42 17.5q26 0 44.5 -18t18.5 -52q0 -48 -14 -78t-31 -48q-20 -20 -45 -30z" />
    <glyph glyph-name="less" unicode="&#x3c;" horiz-adv-x="397" 
d="M26 221v71l323 198v-78l-246 -156l246 -155v-78z" />
    <glyph glyph-name="equal" unicode="=" horiz-adv-x="503" 
d="M62 392h379v-66h-379v66zM62 194h379v-65h-379v65z" />
    <glyph glyph-name="greater" unicode="&#x3e;" horiz-adv-x="397" 
d="M48 101l245 155l-245 156v78l323 -198v-71l-323 -198v78z" />
    <glyph glyph-name="question" unicode="?" horiz-adv-x="457" 
d="M171 187q0 52 12 87t30 60.5t38.5 44t38.5 38.5t30 44t12 60q0 48 -27.5 77.5t-81.5 29.5t-85 -30t-31 -84h-82q0 44 15.5 80t42.5 61t64 38.5t80 13.5q53 0 90.5 -15t61.5 -40.5t35 -58t11 -67.5q0 -46 -12.5 -77.5t-31.5 -54.5t-41.5 -42.5t-41.5 -41.5t-31.5 -51
t-12.5 -72h-83zM209 -13q-23 0 -39 16t-16 39t16 39.5t39 16.5t39.5 -16.5t16.5 -39.5t-16.5 -39t-39.5 -16z" />
    <glyph glyph-name="at" unicode="@" horiz-adv-x="837" 
d="M643 451q-28 -97 -43.5 -155.5t-23 -91t-9.5 -46t-2 -21.5q0 -30 34 -30q24 0 48 19.5t43 51.5t31 72.5t12 81.5q0 54 -17.5 97.5t-50 75t-79 48.5t-104.5 17q-77 0 -142.5 -29t-113.5 -80t-75.5 -120t-27.5 -150q0 -63 19 -113t54 -85.5t84 -54.5t109 -19q40 0 80 7.5
t76 20t66 30.5t50 39l38 -59q-23 -24 -57 -44t-75 -35t-87 -23.5t-92 -8.5q-78 0 -141.5 24.5t-109 69t-70 108t-24.5 141.5q0 98 33 181t91.5 144t140 95t177.5 34q73 0 132.5 -22t102 -62.5t66 -97.5t23.5 -127q0 -59 -17.5 -112t-48 -92.5t-71.5 -63t-88 -23.5
q-45 0 -66.5 21t-24.5 59q-34 -49 -68 -63.5t-66 -14.5q-60 0 -95.5 40t-35.5 112q0 55 18 102.5t48.5 82.5t70.5 55t84 20q41 0 67 -13t42 -35l12 42h73zM381 115q23 0 44.5 10.5t41.5 36.5t37.5 70.5t32.5 111.5q-7 23 -30.5 35t-52.5 12q-31 0 -58 -14t-46.5 -38.5
t-30.5 -58t-11 -72.5q0 -45 19 -69t54 -24z" />
    <glyph glyph-name="A" unicode="A" horiz-adv-x="629" 
d="M458 193h-287l-69 -193h-91l258 700h91l258 -700h-92zM431 269l-117 329l-116 -329h233z" />
    <glyph glyph-name="B" unicode="B" horiz-adv-x="625" 
d="M87 700h228q121 0 178.5 -46t57.5 -137q0 -48 -25.5 -86.5t-67.5 -56.5v-2q24 -6 46.5 -20t40 -35.5t28.5 -50.5t11 -66q0 -46 -17.5 -83.5t-50 -63t-77.5 -39.5t-99 -14h-253v700zM317 394q74 0 109 33t35 82q0 57 -36 86t-102 29h-146v-230h140zM338 76q81 0 118 32
t37 93q0 118 -148 118h-168v-243h161z" />
    <glyph glyph-name="C" unicode="C" horiz-adv-x="615" 
d="M352 -6q-70 0 -127 24t-96.5 69.5t-61 111.5t-21.5 149t21 149t60.5 112.5t95.5 71.5t126 25q106 0 165.5 -50.5t59.5 -139.5q0 -16 -2 -33t-6 -26h-82q3 18 4 26t1 20q0 59 -39 92.5t-106 33.5q-97 0 -149.5 -74.5t-52.5 -206.5q0 -134 58 -205.5t156 -71.5
q54 0 95.5 22t74.5 75l60 -50q-45 -66 -102 -95t-132 -29z" />
    <glyph glyph-name="D" unicode="D" horiz-adv-x="690" 
d="M87 700h217q74 0 136 -20t107.5 -62t71 -107.5t25.5 -157.5q0 -93 -27.5 -160t-74 -110t-107.5 -63t-128 -20h-220v700zM301 81q56 0 102 16t78 49t49.5 83.5t17.5 120.5t-17.5 120.5t-49.5 83.5t-78 49t-102 16h-124v-538h124z" />
    <glyph glyph-name="E" unicode="E" horiz-adv-x="575" 
d="M87 700h444v-84h-354v-217h299v-84h-299v-231h354v-84h-444v700z" />
    <glyph glyph-name="F" unicode="F" horiz-adv-x="539" 
d="M87 700h429v-84h-339v-233h284v-84h-284v-299h-90v700z" />
    <glyph glyph-name="G" unicode="G" horiz-adv-x="653" 
d="M350 -10q-144 0 -223.5 88.5t-79.5 269.5q0 82 21.5 148.5t61 113t96.5 71.5t127 25q60 0 104 -14t72.5 -39.5t42.5 -60t14 -75.5q0 -27 -5 -40h-85q1 5 1.5 11t0.5 23q0 54 -38.5 86t-108.5 32q-104 0 -156 -73t-52 -208q0 -134 54 -207.5t159 -73.5q64 0 102.5 15.5
t52.5 30.5v153h-160v84h249v-271q-14 -15 -37 -31t-54.5 -29t-71 -21t-87.5 -8z" />
    <glyph glyph-name="H" unicode="H" horiz-adv-x="685" 
d="M87 700h90v-304h331v304h90v-700h-90v312h-331v-312h-90v700z" />
    <glyph glyph-name="I" unicode="I" horiz-adv-x="264" 
d="M87 700h90v-700h-90v700z" />
    <glyph glyph-name="J" unicode="J" horiz-adv-x="470" 
d="M186 -6q-64 0 -105.5 22.5t-67.5 54.5l58 63q22 -25 50.5 -43.5t67.5 -18.5q58 0 84.5 35t26.5 101v492h90v-486q0 -111 -53.5 -165.5t-150.5 -54.5z" />
    <glyph glyph-name="K" unicode="K" horiz-adv-x="642" 
d="M632 81v-80q-8 -1 -17 -2q-8 -1 -17.5 -1.5t-20.5 -0.5q-46 0 -77 23t-53.5 58t-41 75.5t-41 75.5t-52 58t-73.5 23h-62v-310h-90v700h90v-312h81q36 0 75 15t71 51t53 96t21 150h90q0 -68 -14 -124t-39 -100t-58.5 -76.5t-72.5 -53.5q25 -16 43.5 -42t34.5 -55.5t30 -59
t29.5 -54t34.5 -39.5t43 -15h33z" />
    <glyph glyph-name="L" unicode="L" horiz-adv-x="532" 
d="M87 700h91v-621h339v-79h-430v700z" />
    <glyph glyph-name="M" unicode="M" horiz-adv-x="820" 
d="M87 700h85l240 -500l241 500h80v-700h-88v527l-18 -50l-185 -383h-66l-185 383l-18 50v-527h-86v700z" />
    <glyph glyph-name="N" unicode="N" horiz-adv-x="673" 
d="M87 700h77l324 -521l13 -29v550h85v-700h-77l-325 520l-12 27v-547h-85v700z" />
    <glyph glyph-name="O" unicode="O" horiz-adv-x="712" 
d="M353 -6q-62 0 -117.5 19.5t-97.5 61.5t-67 109t-25 162q0 93 26 161t69 112.5t100 65.5t118 21q62 0 117.5 -20t97.5 -62.5t67 -110t25 -163.5q0 -93 -26 -160t-69 -110.5t-99.5 -64.5t-118.5 -21zM353 71q42 0 81.5 14.5t69.5 47.5t48.5 86t18.5 130q0 80 -17.5 133.5
t-47 86t-67.5 46.5t-80 14t-81.5 -14.5t-69.5 -47.5t-48.5 -87t-18.5 -133q0 -78 17.5 -131t46.5 -85.5t67.5 -46t80.5 -13.5z" />
    <glyph glyph-name="P" unicode="P" horiz-adv-x="594" 
d="M87 700h223q119 0 186.5 -52.5t67.5 -166.5q0 -57 -18.5 -99.5t-52 -71t-80.5 -43t-103 -14.5h-133v-253h-90v700zM306 329q85 0 125 39.5t40 109.5q0 68 -41 106.5t-127 38.5h-126v-294h129z" />
    <glyph glyph-name="Q" unicode="Q" horiz-adv-x="712" 
d="M407 -2q23 -76 70.5 -109.5t113.5 -33.5v-81q-58 0 -104 17.5t-79.5 47.5t-54.5 70t-31 86q-57 4 -107 26t-87.5 64.5t-59.5 107t-22 153.5q0 93 26 161t69 112.5t100 65.5t118 21q62 0 117.5 -20t97.5 -62.5t67 -110t25 -163.5q0 -82 -20.5 -144.5t-55.5 -106
t-82.5 -68.5t-100.5 -33zM141 347q0 -78 17.5 -131t46.5 -85.5t67.5 -46t80.5 -13.5t81.5 14.5t69.5 47.5t48.5 86t18.5 130q0 80 -17.5 133.5t-47 86t-67.5 46.5t-80 14t-81.5 -14.5t-69.5 -47.5t-48.5 -87t-18.5 -133z" />
    <glyph glyph-name="R" unicode="R" horiz-adv-x="639" 
d="M561 -3q-40 0 -66.5 21.5t-46 53t-35.5 69t-35 69t-44 53t-63 21.5h-94v-284h-90v700h229q116 0 180 -52t64 -158q0 -73 -43.5 -119.5t-108.5 -60.5q23 -12 39 -33.5t29 -47t24.5 -52t24.5 -48t30 -35.5t41 -14h29v-79q-9 -1 -19 -2t-21 -1.5t-24 -0.5zM303 355
q35 0 65 8.5t52 25t34.5 41.5t12.5 57q0 63 -40 99.5t-115 36.5h-135v-268h126z" />
    <glyph glyph-name="S" unicode="S" horiz-adv-x="580" 
d="M285 -6q-93 0 -157 30t-99 88l68 54q27 -46 76 -70.5t113 -24.5q82 0 123 29t41 82t-40 84.5t-137 52.5q-52 11 -93 27t-69 39t-42.5 54.5t-14.5 74.5q0 44 17.5 79.5t48.5 60.5t75 38.5t96 13.5q45 0 86.5 -9.5t74 -30.5t51.5 -54.5t19 -81.5q0 -8 -1 -16.5t-4 -18.5
l-86 1q3 17 3 28q0 27 -11.5 47t-31 33t-45.5 19t-55 6q-72 0 -110 -29t-38 -81q0 -25 9.5 -43t30.5 -31.5t55 -24.5t83 -23q60 -15 102 -33.5t67.5 -43t37 -56.5t11.5 -74q0 -92 -66.5 -144t-187.5 -52z" />
    <glyph glyph-name="T" unicode="T" horiz-adv-x="542" 
d="M226 616h-210v84h510v-84h-210v-616h-90v616z" />
    <glyph glyph-name="U" unicode="U" horiz-adv-x="671" 
d="M337 -6q-54 0 -101.5 14.5t-82 48.5t-54.5 90t-20 140v413h90v-419q0 -107 43.5 -157.5t124.5 -50.5t124 50.5t43 157.5v419h88v-413q0 -84 -19.5 -140t-53.5 -90t-81 -48.5t-101 -14.5z" />
    <glyph glyph-name="V" unicode="V" horiz-adv-x="619" 
d="M11 700h102l199 -594l201 594h95l-256 -700h-85z" />
    <glyph glyph-name="W" unicode="W" horiz-adv-x="929" 
d="M17 700h103l139 -594l164 594h87l166 -594l138 594h98l-188 -700h-100l-157 569l-161 -569h-100z" />
    <glyph glyph-name="X" unicode="X" horiz-adv-x="577" 
d="M468 0l-181 295l-183 -295h-99l230 355l-217 345h105l170 -280l169 280h100l-217 -341l223 -359h-100z" />
    <glyph glyph-name="Y" unicode="Y" horiz-adv-x="595" 
d="M253 291l-237 409h106l178 -322l179 322h102l-238 -406v-294h-90v291z" />
    <glyph glyph-name="Z" unicode="Z" horiz-adv-x="575" 
d="M539 631l-400 -553h400v-78h-504v69l403 553h-401v78h502v-69z" />
    <glyph glyph-name="bracketleft" unicode="[" horiz-adv-x="314" 
d="M81 726h212v-77h-124v-816h124v-77h-212v970z" />
    <glyph glyph-name="backslash" unicode="\" horiz-adv-x="408" 
d="M19 706h87l283 -932h-88z" />
    <glyph glyph-name="bracketright" unicode="]" horiz-adv-x="314" 
d="M21 -167h124v816h-124v77h212v-970h-212v77z" />
    <glyph glyph-name="asciicircum" unicode="^" horiz-adv-x="363" 
d="M132 723h99l96 -205h-79l-67 138l-66 -138h-79z" />
    <glyph glyph-name="underscore" unicode="_" horiz-adv-x="470" 
d="M51 0h368v-65h-368v65z" />
    <glyph glyph-name="grave" unicode="`" horiz-adv-x="272" 
d="M39 742h108l83 -174h-79z" />
    <glyph glyph-name="a" unicode="a" horiz-adv-x="547" 
d="M234 -12q-43 0 -79 18t-61.5 50.5t-39.5 78t-14 101.5t14.5 103t41.5 81.5t65 54t85 19.5q48 0 84.5 -18t59.5 -51v57h79v-364q0 -29 9 -41t32 -12v-64q-5 -2 -16.5 -3t-22.5 -1q-38 0 -59.5 19.5t-21.5 52.5v4q-20 -38 -57.5 -61.5t-98.5 -23.5zM260 61q51 0 79.5 28
t41.5 75v154q-4 19 -13.5 37.5t-24.5 33t-35.5 23.5t-46.5 9q-64 0 -97.5 -47t-33.5 -138q0 -79 32.5 -127t97.5 -48z" />
    <glyph glyph-name="b" unicode="b" horiz-adv-x="538" 
d="M295 -12q-37 0 -63.5 10t-44 23.5t-27 28t-13.5 22.5v-72h-78v726h88v-311q6 12 17.5 26t29.5 26t42 19.5t56 7.5q44 0 80 -17.5t62 -50.5t40 -79t14 -103q0 -56 -15 -103t-42 -81t-64.5 -53t-81.5 -19zM279 61q63 0 96 47t33 135q0 82 -34 129.5t-95 47.5
q-29 0 -50 -9.5t-35 -24t-23 -32.5t-14 -36v-155q1 -4 6.5 -20.5t19 -34.5t37 -32.5t59.5 -14.5z" />
    <glyph glyph-name="c" unicode="c" horiz-adv-x="476" 
d="M265 -12q-105 0 -164.5 66t-59.5 188q0 120 59.5 186t161.5 66q84 0 129.5 -37.5t45.5 -112.5q0 -14 -2 -28.5t-5 -23.5h-78q5 15 5 41q0 88 -96 88q-61 0 -95.5 -44.5t-34.5 -132.5q0 -89 37 -136t98 -47q50 0 77.5 19t47.5 48l54 -46q-24 -39 -67.5 -66.5t-112.5 -27.5
z" />
    <glyph glyph-name="d" unicode="d" horiz-adv-x="547" 
d="M234 -12q-43 0 -79 18t-61.5 50.5t-39.5 78t-14 101.5t14.5 103t41.5 81.5t65 54t85 19.5q48 0 82.5 -19.5t52.5 -46.5v298h88v-608q0 -29 9 -41t32 -12v-64q-5 -2 -16.5 -3t-22.5 -1q-38 0 -59.5 19.5t-21.5 52.5v12q-20 -41 -57.5 -67t-98.5 -26zM260 62q49 0 78 27.5
t43 74.5v154q-4 19 -13.5 37.5t-24.5 33t-35.5 23.5t-46.5 9q-64 0 -97.5 -47t-33.5 -138q0 -78 33.5 -126t96.5 -48z" />
    <glyph glyph-name="e" unicode="e" horiz-adv-x="473" 
d="M441 83q-34 -52 -82 -73.5t-107 -21.5q-101 0 -156.5 60t-55.5 176q0 59 16.5 108.5t46.5 85.5t72 56t94 20q75 0 117.5 -39t42.5 -104q0 -55 -28.5 -87t-72.5 -49.5t-96.5 -23.5t-99.5 -9q10 -63 43 -91.5t84 -28.5q45 0 72.5 15t54.5 51zM266 421q-63 0 -98 -45.5
t-39 -125.5q31 1 69 4t71 13.5t55.5 29.5t22.5 52q0 72 -81 72z" />
    <glyph glyph-name="f" unicode="f" horiz-adv-x="336" 
d="M93 408h-70v74h72v67q0 85 44.5 134t123.5 49q35 0 63.5 -10.5t48.5 -27.5l-43 -61q-14 12 -30 17t-37 5q-38 0 -61.5 -24t-23.5 -80v-69h143v-74h-143v-408h-87v408z" />
    <glyph glyph-name="g" unicode="g" horiz-adv-x="538" 
d="M253 -240q-72 0 -118 25.5t-69 65.5l59 48q17 -27 48 -46t83 -19q61 0 95 34t34 94v110q-17 -32 -53.5 -58t-97.5 -26q-43 0 -79 18t-61.5 50.5t-39.5 78t-14 101.5t14.5 103t41.5 81.5t65 54t85 19.5q48 0 83.5 -20t60.5 -57v65h79v-520q0 -46 -15.5 -83.5t-44 -63.5
t-68 -40.5t-88.5 -14.5zM260 62q49 0 78 27.5t43 74.5v154q-4 19 -13.5 37.5t-24.5 33t-35.5 23.5t-46.5 9q-64 0 -97.5 -47t-33.5 -138q0 -78 33.5 -126t96.5 -48z" />
    <glyph glyph-name="h" unicode="h" horiz-adv-x="539" 
d="M469 -3q-46 0 -68 27.5t-22 72.5v212q0 47 -25 78t-79 31q-30 0 -52.5 -11.5t-37 -29.5t-21.5 -40t-7 -43v-294h-88v726h88v-310q16 31 50.5 54.5t90.5 23.5q46 0 78 -15t52.5 -40.5t29.5 -60t9 -73.5v-192q0 -26 9.5 -37t31.5 -11v-64q-5 -2 -16 -3t-23 -1z" />
    <glyph glyph-name="i" unicode="i" horiz-adv-x="230" 
d="M115 580q-24 0 -41.5 17t-17.5 42q0 24 17.5 41.5t41.5 17.5t41.5 -17.5t17.5 -41.5q0 -25 -17.5 -42t-41.5 -17zM71 482h88v-482h-88v482z" />
    <glyph glyph-name="j" unicode="j" horiz-adv-x="233" 
d="M118 580q-24 0 -41.5 17t-17.5 42q0 24 17.5 41.5t41.5 17.5t41.5 -17.5t17.5 -41.5q0 -25 -17.5 -42t-41.5 -17zM-2 -247q-23 0 -40 4.5t-29 9.5q-13 6 -22 14l27 61q6 -4 14 -8q8 -3 18 -5t23 -2q86 0 86 114v541h87v-545q0 -86 -39 -135t-125 -49z" />
    <glyph glyph-name="k" unicode="k" horiz-adv-x="503" 
d="M492 65v-62q-5 -2 -11 -3q-5 -1 -11.5 -2t-14.5 -1q-47 0 -74 15.5t-43.5 39.5t-28 51t-27.5 51t-42.5 39.5t-72.5 15.5h-10v-209h-88v726h88v-444h35q46 0 76.5 14t49.5 40t27.5 63t9.5 83h83q-1 -26 -5.5 -59.5t-18 -67.5t-38 -65t-66.5 -52q34 -19 50.5 -48.5
t30.5 -57t33 -47.5t58 -20h10z" />
    <glyph glyph-name="l" unicode="l" horiz-adv-x="238" 
d="M160 -3q-44 0 -67 23.5t-23 78.5v627h88v-613q0 -26 10 -35t33 -9v-68q-7 -2 -18 -3t-23 -1z" />
    <glyph glyph-name="m" unicode="m" horiz-adv-x="855" 
d="M785 -3q-46 0 -68 27.5t-22 72.5v207q0 51 -24 83t-79 32q-28 0 -49.5 -10.5t-36.5 -28t-22.5 -40.5t-7.5 -48v-292h-88v304q0 51 -24.5 83t-79.5 32q-31 0 -53.5 -11.5t-36.5 -30t-21 -41.5t-7 -46v-290h-88v373q0 26 -9.5 37t-31.5 11v64q5 2 16 3t23 1q38 0 59 -22
t21 -64v-4q7 17 18.5 34t30 30.5t43.5 22t59 8.5q63 0 100.5 -27t52.5 -72q14 40 54.5 69.5t98.5 29.5q48 0 80.5 -15t52.5 -41t28.5 -60.5t8.5 -72.5v-192q0 -26 9.5 -37t31.5 -11v-64q-5 -2 -16 -3t-23 -1z" />
    <glyph glyph-name="n" unicode="n" horiz-adv-x="548" 
d="M478 -3q-46 0 -68 27.5t-22 72.5v207q0 56 -26.5 85.5t-76.5 29.5q-54 0 -86.5 -36t-32.5 -94v-289h-88v373q0 26 -9.5 37t-31.5 11v64q5 2 16 3t23 1q38 0 59 -22t21 -64v-3q20 46 59 70t93 24q81 0 124.5 -49t43.5 -140v-192q0 -26 9.5 -37t31.5 -11v-64q-5 -2 -16 -3
t-23 -1z" />
    <glyph glyph-name="o" unicode="o" horiz-adv-x="522" 
d="M258 -12q-102 0 -159.5 66.5t-57.5 186.5q0 60 16 107t45 79.5t70 49.5t92 17q101 0 159 -66.5t58 -186.5q0 -59 -16 -106t-45 -79.5t-70 -50t-92 -17.5zM261 61q61 0 95.5 45t34.5 135t-35 135t-95 45t-95 -45t-35 -135t35 -135t95 -45z" />
    <glyph glyph-name="p" unicode="p" horiz-adv-x="547" 
d="M78 373q0 26 -9.5 37t-31.5 11v64q5 2 16 3t23 1q38 0 59.5 -22t21.5 -64v-3q20 42 57 68t97 26q45 0 81 -18t61.5 -51t39.5 -78.5t14 -100.5q0 -57 -15 -104t-42 -81.5t-65 -53.5t-85 -19t-82 20t-52 47v-284h-88v602zM288 61q63 0 96 47t33 138q0 83 -35 128.5
t-95 45.5q-49 0 -78.5 -28.5t-42.5 -73.5v-155q11 -42 40.5 -72t81.5 -30z" />
    <glyph glyph-name="q" unicode="q" horiz-adv-x="538" 
d="M381 66q-7 -12 -18.5 -25.5t-29 -25.5t-41.5 -19.5t-56 -7.5q-45 0 -81 18t-61.5 51t-39.5 79t-14 102q0 59 16 106t44 80.5t65.5 51.5t80.5 18q37 0 63 -11t43.5 -25t26.5 -27.5t12 -18.5v70h78v-711h-88v295zM258 62q48 0 77.5 25.5t45.5 76.5v153q-3 18 -12.5 36.5
t-24.5 33.5t-36.5 24.5t-48.5 9.5q-63 0 -96 -48.5t-33 -133.5q0 -88 35.5 -132.5t92.5 -44.5z" />
    <glyph glyph-name="r" unicode="r" horiz-adv-x="363" 
d="M78 373q0 26 -9.5 37t-31.5 11v64q5 2 16 3t23 1q38 0 59 -21t21 -57v-9q14 43 51.5 67.5t88.5 24.5q19 0 37.5 -4.5t28.5 -12.5l-36 -82q-8 5 -22 8.5t-30 3.5q-27 0 -47 -11.5t-33.5 -31t-20.5 -45t-7 -54.5v-265h-88v373z" />
    <glyph glyph-name="s" unicode="s" horiz-adv-x="467" 
d="M232 -12q-69 0 -122.5 22t-83.5 70l61 53q30 -43 65.5 -57.5t79.5 -14.5q57 0 84 16.5t27 48.5q0 20 -10.5 32.5t-28 20.5t-40.5 13.5t-48 10.5q-29 6 -58.5 15.5t-53.5 26t-39 42t-15 63.5q0 66 49 105t137 39q85 0 134 -36t49 -103q0 -11 -2 -23t-6 -22h-78
q2 7 3.5 17.5t1.5 20.5q0 35 -27.5 54t-76.5 19q-51 0 -75 -17.5t-24 -50.5q0 -19 10.5 -32t28.5 -21t41.5 -13.5t48.5 -11.5q29 -6 58.5 -15t53 -25t38 -40t14.5 -62q0 -72 -52.5 -108.5t-143.5 -36.5z" />
    <glyph glyph-name="t" unicode="t" horiz-adv-x="405" 
d="M273 -6q-86 0 -126.5 45t-40.5 141v226h-90v76h94l-1 140h85v-140h182v-76h-182v-223q0 -56 22 -82t67 -26q26 0 48 10t37 22l35 -68q-21 -19 -57.5 -32t-72.5 -13z" />
    <glyph glyph-name="u" unicode="u" horiz-adv-x="538" 
d="M229 -12q-78 0 -121.5 45t-43.5 130v319h88v-308q0 -63 27.5 -87.5t75.5 -24.5q31 0 53 12t36.5 30.5t21 40.5t6.5 43v294h88v-368q0 -23 8.5 -36t32.5 -13v-64q-4 -1 -10 -2t-13 -1.5t-17 -0.5q-38 0 -58.5 20t-20.5 58v6q-8 -18 -20.5 -34.5t-30.5 -29.5t-43 -21
t-59 -8z" />
    <glyph glyph-name="v" unicode="v" horiz-adv-x="488" 
d="M474 482l-184 -484h-92l-184 484h93l122 -333l18 -60l18 60l122 333h87z" />
    <glyph glyph-name="w" unicode="w" horiz-adv-x="737" 
d="M722 482l-155 -482h-95l-87 318l-11 53l-13 -53l-95 -318h-97l-152 482h96l85 -307l21 -88l22 88l92 307h81l87 -306l21 -89l22 89l88 306h90z" />
    <glyph glyph-name="x" unicode="x" horiz-adv-x="461" 
d="M353 0l-123 192l-123 -192h-98l168 249l-158 233h104l107 -176l115 176h97l-157 -234l167 -248h-99z" />
    <glyph glyph-name="y" unicode="y" horiz-adv-x="529" 
d="M247 -247q-78 0 -124.5 25t-66.5 67l60 45q19 -31 51 -47t80 -16q61 0 95 34t34 94v130q-21 -44 -62 -67.5t-97 -23.5q-153 0 -153 173v315h88v-304q0 -110 94 -110q24 0 46.5 11t40 29.5t28 42t10.5 48.5v283h89v-527q0 -46 -15 -83.5t-42.5 -63.5t-67 -40.5
t-88.5 -14.5z" />
    <glyph glyph-name="z" unicode="z" horiz-adv-x="491" 
d="M214 247q36 -4 79.5 -19.5t80.5 -47t62 -81t25 -121.5q0 -52 -17.5 -93t-47.5 -69.5t-70 -43.5t-84 -15q-46 0 -83 13t-63.5 37t-41 58t-14.5 76q0 45 14 81.5t35.5 65t48 49t51.5 34.5q-40 6 -83 6v76l204 154h-261v75h379v-72zM244 -169q60 0 97 39t37 107
q0 69 -30 110t-78 62q-24 -12 -49.5 -29.5t-47.5 -41.5t-36 -55.5t-14 -71.5q0 -57 32.5 -88.5t88.5 -31.5z" />
    <glyph glyph-name="braceleft" unicode="{" horiz-adv-x="316" 
d="M290 -234q-35 -8 -68.5 -2t-60 26t-42.5 55t-16 87v204q0 36 -19 51.5t-45 15.5h-10v76h10q26 0 45 15.5t19 51.5v204q0 52 16 87.5t42.5 55.5t60 25.5t68.5 -2.5v-78q-48 15 -75 -14.5t-27 -87.5v-211q0 -24 -6 -39.5t-14 -25t-16 -13.5t-13 -6q4 -1 12 -6t16.5 -15
t14.5 -25.5t6 -37.5v-211q0 -58 27 -87.5t75 -14.5v-78z" />
    <glyph glyph-name="bar" unicode="|" horiz-adv-x="238" 
d="M81 736h76v-990h-76v990z" />
    <glyph glyph-name="braceright" unicode="}" horiz-adv-x="316" 
d="M26 716q35 8 68.5 2t60 -26t42.5 -55t16 -87v-204q0 -36 19 -51.5t45 -15.5h10v-76h-10q-26 0 -45 -15.5t-19 -51.5v-204q0 -52 -16 -87.5t-42.5 -55.5t-60 -25.5t-68.5 2.5v78q48 -15 75 14.5t27 87.5v211q0 24 6 39.5t14 25t16 14t13 5.5q-4 1 -12 6t-16 15t-14.5 25.5
t-6.5 37.5v211q0 58 -27 87.5t-75 14.5v78z" />
    <glyph glyph-name="asciitilde" unicode="~" horiz-adv-x="448" 
d="M74 183q-3 6 -6 14q-2 7 -4 16t-2 21q0 32 21 55.5t63 23.5q23 0 42.5 -5t37.5 -11.5t34.5 -11.5t33.5 -5q22 0 22 21q0 8 -1.5 14.5t-3.5 11.5q-3 6 -6 11h71q3 -7 5 -14q2 -8 3.5 -16.5t1.5 -19.5q0 -32 -19.5 -54.5t-61.5 -22.5q-26 0 -47 5t-38 11.5t-32 11.5t-29 5
q-12 0 -19.5 -7t-7.5 -19q0 -8 2 -14.5t4 -10.5q3 -6 6 -10h-70z" />
    <glyph glyph-name="exclamdown" unicode="&#xa1;" horiz-adv-x="235" 
d="M119 498q23 0 39.5 -16.5t16.5 -39.5t-16.5 -39t-39.5 -16t-39.5 16t-16.5 39t16.5 39.5t39.5 16.5zM166 -215h-99l13 503h76z" />
    <glyph glyph-name="cent" unicode="&#xa2;" horiz-adv-x="477" 
d="M223 104q-37 6 -69.5 24t-57 48.5t-39 74.5t-14.5 102q0 114 46.5 176t133.5 73v98h69v-97q34 -4 59.5 -16.5t43 -27.5t28 -30.5t13.5 -24.5l-73 -42q0 2 -3.5 10.5t-11.5 19t-22 20.5t-34 14v-350q32 4 53 17t34 27q14 17 22 37l48 -46q-11 -27 -32 -49
q-18 -21 -48 -37.5t-77 -21.5v-103h-69v104zM223 524q-42 -9 -67.5 -49.5t-25.5 -120.5q0 -39 8 -68t21 -49t30 -32.5t34 -18.5v338z" />
    <glyph glyph-name="sterling" unicode="&#xa3;" horiz-adv-x="571" 
d="M535 78v-78h-481v57q42 23 67.5 63t25.5 82v10.5t-1 10.5h-92v78h72q-9 23 -20.5 44.5t-21 44.5t-16 48.5t-6.5 56.5q0 44 16 81.5t46.5 65t75 43t100.5 15.5q42 0 81 -9t70 -29.5t49.5 -53.5t18.5 -81q0 -12 -1 -25.5t-4 -27.5h-87q2 11 3 21t1 19q0 29 -10 49t-27.5 33
t-41 19t-50.5 6q-71 0 -110 -32.5t-39 -89.5q0 -24 7.5 -48t18 -48t22 -49t20.5 -53h228v-78h-212v-14q0 -32 -15.5 -70t-42.5 -61h356z" />
    <glyph glyph-name="currency" unicode="&#xa4;" horiz-adv-x="568" 
d="M49 179l81 81q-25 42 -25 91q0 50 25 91l-79 80l45 46l78 -79q22 20 50.5 31t60.5 11t59.5 -11t49.5 -31l78 79l46 -46l-79 -80q12 -20 19 -43t7 -48q0 -51 -26 -92l77 -76l-46 -46l-76 76q-21 -20 -49 -31t-60 -11t-60.5 11t-50.5 31l-79 -80zM285 240q23 0 43 9t35 24
t24 35t9 43t-9 43.5t-24 35.5t-35 23.5t-43 8.5t-43 -8.5t-35 -23.5t-24 -35.5t-9 -43.5t8.5 -43t23.5 -35t35.5 -24t43.5 -9z" />
    <glyph glyph-name="yen" unicode="&#xa5;" horiz-adv-x="641" 
d="M275 199h-176v67h176v36l-30 47h-146v68h103l-180 283h110l189 -318l188 318h110l-180 -282h103v-68h-146l-30 -48v-36h176v-67h-176v-199h-91v199z" />
    <glyph glyph-name="brokenbar" unicode="&#xa6;" horiz-adv-x="238" 
d="M81 736h76v-412h-76v412zM81 166h76v-420h-76v420z" />
    <glyph glyph-name="section" unicode="&#xa7;" horiz-adv-x="606" 
d="M298 -248q-44 0 -85.5 9t-76.5 25t-61.5 38.5t-40.5 48.5l57 53q14 -21 36 -38t50 -30t59 -20t62 -7q79 0 124.5 30t45.5 83q0 44 -30.5 67t-76.5 36.5t-100 24t-100 30.5t-76.5 55.5t-30.5 99.5q0 67 58 120q-29 26 -43.5 58.5t-14.5 75.5q0 40 16 75.5t47 62t76.5 42
t104.5 15.5q77 0 126 -20t77 -44q33 -28 49 -64l-67 -47q-14 27 -38 48q-22 20 -55.5 34t-85.5 14q-42 0 -72 -9t-49 -25t-27.5 -37t-8.5 -44q0 -45 30.5 -67t76.5 -34.5t100 -22.5t100 -31t76.5 -59.5t30.5 -108.5q0 -33 -12 -63t-40 -52q26 -25 39 -55t13 -72
q0 -38 -16.5 -73.5t-49.5 -62.5t-82 -43t-115 -16zM440 115q28 30 28 71q0 47 -28.5 71t-71.5 37.5t-94 22.5t-97 25q-30 -30 -30 -72q0 -41 28.5 -63.5t72 -37t95 -25.5t97.5 -29z" />
    <glyph glyph-name="dieresis" unicode="&#xa8;" horiz-adv-x="359" 
d="M89 584q-22 0 -37 15t-15 37q0 21 15 36.5t37 15.5q21 0 36 -15.5t15 -36.5q0 -22 -15 -37t-36 -15zM271 584q-21 0 -36.5 15t-15.5 37q0 21 15.5 36.5t36.5 15.5q22 0 37 -15.5t15 -36.5q0 -22 -15 -37t-37 -15z" />
    <glyph glyph-name="copyright" unicode="&#xa9;" horiz-adv-x="856" 
d="M427 -23q-83 0 -153.5 29t-122 80.5t-80.5 122t-29 154.5q0 83 29 154t80.5 122.5t122 80.5t153.5 29q84 0 154.5 -29t122.5 -80.5t81 -122.5t29 -154q0 -84 -29 -154.5t-81 -122t-122.5 -80.5t-154.5 -29zM427 52q67 0 124 23.5t98 65t64.5 98.5t23.5 124
q0 68 -23.5 126t-65 100t-98 66t-123.5 24t-123.5 -24t-97.5 -66t-64.5 -100t-23.5 -126q0 -67 23.5 -124.5t64.5 -98.5t97.5 -64.5t123.5 -23.5zM434 119q-49 0 -87.5 17t-65.5 48t-41 74.5t-14 96.5q0 119 56 186.5t156 67.5q38 0 70 -12.5t54.5 -33t35 -47t12.5 -55.5
l-70 -11q-11 44 -36 64t-67 20q-60 0 -93.5 -46.5t-33.5 -128.5q0 -75 33.5 -120t99.5 -45q26 0 43 4t28.5 10.5t19.5 14.5l15 15l52 -47q-19 -28 -57.5 -50t-109.5 -22z" />
    <glyph glyph-name="ordfeminine" unicode="&#xaa;" horiz-adv-x="359" 
d="M134 406q-38 0 -65 21t-27 59t25.5 60t87.5 22h67v31q0 29 -12 39.5t-38 10.5q-45 0 -45 -32q0 -18 2 -18h-66q-1 3 -2 7q-2 4 -2.5 9.5t-0.5 13.5q0 34 28.5 57.5t84.5 23.5q62 0 90 -26.5t28 -78.5v-118q0 -12 5 -16.5t19 -4.5v-53q-3 -2 -8 -3q-4 -1 -10.5 -2
t-15.5 -1q-20 0 -35.5 10t-15.5 33v3q-11 -17 -31.5 -32t-62.5 -15zM151 461q18 0 31.5 5.5t22.5 13t13 16.5t4 16v12h-69q-45 0 -45 -32q0 -17 11.5 -24t31.5 -7z" />
    <glyph glyph-name="guillemotleft" unicode="&#xab;" horiz-adv-x="480" 
d="M38 216v75l153 141l47 -52l-129 -126l129 -126l-47 -53zM235 216v75l153 141l47 -52l-129 -126l129 -126l-47 -53z" />
    <glyph glyph-name="registered" unicode="&#xae;" horiz-adv-x="856" 
d="M427 -23q-83 0 -153.5 29t-122 80.5t-80.5 122t-29 154.5t29 154.5t80.5 122t122 80.5t153.5 29t154 -29t123 -80.5t81 -122t29 -154.5t-29 -154.5t-81 -122t-122.5 -80.5t-154.5 -29zM427 52q68 0 124.5 23.5t98 65t64.5 98.5t23 124q0 68 -23.5 126t-64.5 100t-98 66
t-124 24t-123.5 -24t-97.5 -66t-64.5 -100t-23.5 -126q0 -67 23 -124t64.5 -98.5t98 -65t123.5 -23.5zM596 133q-32 0 -52.5 14t-34.5 34.5t-24 44.5t-21.5 44.5t-26 34.5t-38.5 14h-62v-184h-79v464h165q75 0 115.5 -34t40.5 -104q0 -33 -11.5 -55t-26.5 -35.5t-28 -19.5
t-16 -7q22 -12 34 -36t22 -47t22.5 -40.5t36.5 -17.5h17v-68q-5 -1 -14 -1.5t-19 -0.5zM403 386q92 0 92 70q0 73 -88 73h-70v-143h66z" />
    <glyph glyph-name="macron" unicode="&#xaf;" horiz-adv-x="386" 
d="M51 670h284v-65h-284v65z" />
    <glyph glyph-name="degree" unicode="&#xb0;" horiz-adv-x="323" 
d="M161 462q-26 0 -48.5 10t-39.5 27t-26.5 39.5t-9.5 48.5t9.5 49t26.5 40t39.5 27t48.5 10t49 -10t40 -27t27 -40t10 -49t-10 -48.5t-27 -39.5t-40 -27t-49 -10zM161 511q32 0 54.5 22t22.5 54t-22.5 54.5t-54.5 22.5t-53.5 -22.5t-21.5 -54.5t21.5 -54t53.5 -22z" />
    <glyph glyph-name="plusminus" unicode="&#xb1;" horiz-adv-x="479" 
d="M205 335h-147v65h147v152h67v-152h150v-65h-150v-162h-67v162zM55 107h368v-65h-368v65z" />
    <glyph glyph-name="acute" unicode="&#xb4;" horiz-adv-x="272" 
d="M125 742h108l-112 -174h-80z" />
    <glyph glyph-name="paragraph" unicode="&#xb6;" horiz-adv-x="599" 
d="M310 263h-70q-52 0 -92 16t-66.5 44.5t-40 68.5t-13.5 88t13.5 88.5t40 70t66.5 45.5t92 16h271v-700h-56v655h-90v-655h-55v263z" />
    <glyph glyph-name="periodcentered" unicode="&#xb7;" horiz-adv-x="219" 
d="M110 297q-25 0 -42 17t-17 41t17 41.5t42 17.5q24 0 41 -17.5t17 -41.5t-17 -41t-41 -17z" />
    <glyph glyph-name="cedilla" unicode="&#xb8;" horiz-adv-x="273" 
d="M132 -180q-20 0 -35 5.5t-25 11.5q-12 7 -21 17l21 40q7 -7 16 -13q8 -5 18.5 -8.5t24.5 -3.5q40 0 40 29q0 13 -18 24t-64 11l31 71h52l-17 -38q11 0 23 -4.5t22 -13.5t16.5 -22t6.5 -30q0 -38 -26.5 -57t-64.5 -19z" />
    <glyph glyph-name="ordmasculine" unicode="&#xba;" horiz-adv-x="353" 
d="M177 406q-64 0 -100.5 40.5t-36.5 110.5t36.5 110t100.5 40q63 0 99.5 -40t36.5 -110t-36.5 -110.5t-99.5 -40.5zM177 469q27 0 44 22.5t17 64.5q0 43 -17.5 66.5t-43.5 23.5q-29 0 -46.5 -23t-17.5 -67q0 -43 17.5 -65t46.5 -22z" />
    <glyph glyph-name="guillemotright" unicode="&#xbb;" horiz-adv-x="479" 
d="M44 127l129 126l-129 126l47 53l153 -141v-75l-153 -141zM241 127l129 126l-129 126l47 53l153 -141v-75l-153 -141z" />
    <glyph glyph-name="onequarter" unicode="&#xbc;" horiz-adv-x="668" 
d="M382 726h72l-220 -726h-72zM121 598q-8 -12 -31.5 -26t-60.5 -14l-4 63q43 0 66.5 24.5t29.5 55.5h68v-382h-68v279zM518 84h-190v49l127 249h74l-122 -239h113v87h67v-87h50v-59h-50v-84h-69v84z" />
    <glyph glyph-name="onehalf" unicode="&#xbd;" horiz-adv-x="670" 
d="M372 726h72l-220 -726h-72zM111 598q-8 -12 -31.5 -26t-60.5 -14l-4 63q43 0 66.5 24.5t29.5 55.5h68v-382h-68v279zM361 33q0 33 14.5 56.5t37 41.5t48 32t48 29t37 32.5t14.5 41.5q0 29 -18 43.5t-49 14.5q-23 0 -37 -6t-21.5 -14.5t-10 -18t-2.5 -16.5h-64
q0 20 6.5 40.5t22.5 37.5t42.5 28t66.5 11q66 0 99.5 -32t33.5 -87q0 -33 -14.5 -57.5t-36 -42.5t-47 -31.5t-47 -25.5t-36 -24t-14.5 -27v-2h204v-57h-277v33z" />
    <glyph glyph-name="threequarters" unicode="&#xbe;" horiz-adv-x="720" 
d="M455 726h72l-220 -726h-72zM163 315q-48 0 -82.5 15.5t-57.5 60.5l52 34q17 -30 38 -41.5t53 -11.5q35 0 52 14.5t17 40.5q0 29 -18.5 43t-50.5 14h-35v54h24q29 0 46.5 13.5t17.5 40.5q0 26 -16 40t-42 14q-24 0 -44 -11t-20 -41h-64q0 30 11.5 52t30 35.5t41 20
t44.5 6.5q58 0 92.5 -28t34.5 -78q0 -30 -13.5 -49.5t-37.5 -30.5q65 -22 65 -95q0 -48 -34.5 -80t-103.5 -32zM591 84h-190v49l127 249h74l-122 -239h113v87h67v-87h50v-59h-50v-84h-69v84z" />
    <glyph glyph-name="questiondown" unicode="&#xbf;" horiz-adv-x="452" 
d="M245 498q23 0 39 -16t16 -39t-16 -39.5t-39 -16.5t-39.5 16.5t-16.5 39.5t16.5 39t39.5 16zM283 298q0 -52 -12 -87t-30 -60.5t-38.5 -44t-38.5 -38.5t-30 -44t-12 -60q0 -48 27.5 -77.5t81.5 -29.5t85 30t31 84h82q0 -44 -15.5 -80t-42.5 -61t-64 -38.5t-80 -13.5
q-53 0 -90.5 15t-61.5 40.5t-35 58t-11 67.5q0 46 12.5 77.5t31.5 54.5t41.5 42.5t41.5 41.5t31.5 51t12.5 72h83z" />
    <glyph glyph-name="Agrave" unicode="&#xc0;" horiz-adv-x="629" 
d="M280 742l-112 134h118l84 -134h-90zM458 193h-287l-69 -193h-91l258 700h91l258 -700h-92zM431 269l-117 329l-116 -329h233z" />
    <glyph glyph-name="Aacute" unicode="&#xc1;" horiz-adv-x="629" 
d="M346 742h-88l84 134h116zM458 193h-287l-69 -193h-91l258 700h91l258 -700h-92zM431 269l-117 329l-116 -329h233z" />
    <glyph glyph-name="Acircumflex" unicode="&#xc2;" horiz-adv-x="629" 
d="M256 742h-78l88 134h99l87 -134h-80l-58 74zM458 193h-287l-69 -193h-91l258 700h91l258 -700h-92zM431 269l-117 329l-116 -329h233z" />
    <glyph glyph-name="Atilde" unicode="&#xc3;" horiz-adv-x="629" 
d="M173 746q-5 11 -8 22.5t-3 28.5q0 27 20.5 48t58.5 21q23 0 41 -6t33.5 -13.5t29.5 -13.5t27 -6q23 0 23 23q0 8 -2 13t-4 9h67q5 -11 8 -22.5t3 -28.5q0 -26 -20.5 -47.5t-66.5 -21.5q-22 0 -40 6t-33 13.5t-27.5 13.5t-24.5 6q-9 0 -15 -6t-6 -17q0 -8 2 -13t4 -9h-67z
M458 193h-287l-69 -193h-91l258 700h91l258 -700h-92zM431 269l-117 329l-116 -329h233z" />
    <glyph glyph-name="Adieresis" unicode="&#xc4;" horiz-adv-x="629" 
d="M214 748q-26 0 -42.5 17.5t-16.5 43.5q0 25 16.5 43t42.5 18q25 0 42.5 -18t17.5 -43q0 -26 -17.5 -43.5t-42.5 -17.5zM426 748q-25 0 -43 17.5t-18 43.5q0 25 18 43t43 18q26 0 42.5 -18t16.5 -43q0 -26 -16.5 -43.5t-42.5 -17.5zM458 193h-287l-69 -193h-91l258 700h91
l258 -700h-92zM431 269l-117 329l-116 -329h233z" />
    <glyph glyph-name="Aring" unicode="&#xc5;" horiz-adv-x="629" 
d="M315 701q-24 0 -44.5 8.5t-36 23.5t-24 35.5t-8.5 44.5q0 48 32.5 80.5t80.5 32.5q24 0 44.5 -8.5t35.5 -24t23.5 -36t8.5 -44.5t-8.5 -44.5t-23.5 -35.5t-35.5 -23.5t-44.5 -8.5zM315 861q-22 0 -34 -13t-12 -35t12 -35.5t34 -13.5q20 0 33 13.5t13 35.5t-13 35t-33 13z
M458 193h-287l-69 -193h-91l258 700h91l258 -700h-92zM431 269l-117 329l-116 -329h233z" />
    <glyph glyph-name="AE" unicode="&#xc6;" horiz-adv-x="818" 
d="M268 700h508v-77h-396l87 -237h247v-77h-218l85 -232h195v-77h-259l-71 194h-278l-70 -194h-88zM419 269l-112 315l-111 -315h223z" />
    <glyph glyph-name="Ccedilla" unicode="&#xc7;" horiz-adv-x="615" 
d="M586 118q-42 -62 -94 -91t-120 -33l-11 -33q15 -2 29.5 -7t25.5 -14.5t18 -23.5t7 -34q0 -42 -32.5 -63.5t-80.5 -21.5q-26 0 -49.5 7.5t-38.5 22.5l28 52q26 -21 56 -21q15 0 24.5 6t9.5 20q0 17 -20.5 26.5t-51.5 11.5l27 74q-62 6 -111.5 33t-84 72t-53 107.5
t-18.5 139.5q0 83 21 149t60.5 112.5t95.5 71.5t126 25q106 0 165.5 -50.5t59.5 -139.5q0 -16 -2 -33t-6 -26h-82q3 18 4 26t1 20q0 59 -39 92.5t-106 33.5q-97 0 -149.5 -74.5t-52.5 -206.5q0 -134 58 -205.5t156 -71.5q54 0 95.5 22t74.5 75z" />
    <glyph glyph-name="Egrave" unicode="&#xc8;" horiz-adv-x="575" 
d="M177 876h118l84 -134h-90zM87 700h444v-84h-354v-217h299v-84h-299v-231h354v-84h-444v700z" />
    <glyph glyph-name="Eacute" unicode="&#xc9;" horiz-adv-x="575" 
d="M351 876h116l-112 -134h-88zM87 700h444v-84h-354v-217h299v-84h-299v-231h354v-84h-444v700z" />
    <glyph glyph-name="Ecircumflex" unicode="&#xca;" horiz-adv-x="575" 
d="M275 876h99l87 -134h-80l-58 74l-58 -74h-78zM87 700h444v-84h-354v-217h299v-84h-299v-231h354v-84h-444v700z" />
    <glyph glyph-name="Edieresis" unicode="&#xcb;" horiz-adv-x="575" 
d="M223 748q-26 0 -42.5 17.5t-16.5 43.5q0 25 16.5 43t42.5 18q25 0 42.5 -18t17.5 -43q0 -26 -17.5 -43.5t-42.5 -17.5zM435 748q-25 0 -43 17.5t-18 43.5q0 25 18 43t43 18q26 0 42.5 -18t16.5 -43q0 -26 -16.5 -43.5t-42.5 -17.5zM87 700h444v-84h-354v-217h299v-84
h-299v-231h354v-84h-444v700z" />
    <glyph glyph-name="Igrave" unicode="&#xcc;" horiz-adv-x="264" 
d="M-15 876h118l84 -134h-90zM87 700h90v-700h-90v700z" />
    <glyph glyph-name="Iacute" unicode="&#xcd;" horiz-adv-x="264" 
d="M159 876h116l-112 -134h-88zM87 700h90v-700h-90v700z" />
    <glyph glyph-name="Icircumflex" unicode="&#xce;" horiz-adv-x="264" 
d="M83 876h99l87 -134h-80l-58 74l-58 -74h-78zM87 700h90v-700h-90v700z" />
    <glyph glyph-name="Idieresis" unicode="&#xcf;" horiz-adv-x="264" 
d="M31 748q-26 0 -42.5 17.5t-16.5 43.5q0 25 16.5 43t42.5 18q25 0 42.5 -18t17.5 -43q0 -26 -17.5 -43.5t-42.5 -17.5zM243 748q-25 0 -43 17.5t-18 43.5q0 25 18 43t43 18q26 0 42.5 -18t16.5 -43q0 -26 -16.5 -43.5t-42.5 -17.5zM87 700h90v-700h-90v700z" />
    <glyph glyph-name="Eth" unicode="&#xd0;" horiz-adv-x="706" 
d="M320 700q74 0 136 -20t107.5 -62t71 -107.5t25.5 -157.5q0 -93 -27.5 -160t-74 -110t-107.5 -63t-128 -20h-220v313h-91v77h91v310h217zM317 81q56 0 102 16t78 49t49.5 83.5t17.5 120.5t-17.5 120.5t-49.5 83.5t-78 49t-102 16h-124v-229h102v-77h-102v-232h124z" />
    <glyph glyph-name="Ntilde" unicode="&#xd1;" horiz-adv-x="673" 
d="M205 746q-5 11 -8 22.5t-3 28.5q0 27 20.5 48t58.5 21q23 0 41 -6t33.5 -13.5t29.5 -13.5t27 -6q23 0 23 23q0 8 -2 13t-4 9h67q5 -11 8 -22.5t3 -28.5q0 -26 -20.5 -47.5t-66.5 -21.5q-22 0 -40 6t-33 13.5t-27.5 13.5t-24.5 6q-9 0 -15 -6t-6 -17q0 -8 2 -13t4 -9h-67z
M87 700h77l324 -521l13 -29v550h85v-700h-77l-325 520l-12 27v-547h-85v700z" />
    <glyph glyph-name="Ograve" unicode="&#xd2;" horiz-adv-x="712" 
d="M209 876h118l84 -134h-90zM353 -6q-62 0 -117.5 19.5t-97.5 61.5t-67 109t-25 162q0 93 26 161t69 112.5t100 65.5t118 21q62 0 117.5 -20t97.5 -62.5t67 -110t25 -163.5q0 -93 -26 -160t-69 -110.5t-99.5 -64.5t-118.5 -21zM353 71q42 0 81.5 14.5t69.5 47.5t48.5 86
t18.5 130q0 80 -17.5 133.5t-47 86t-67.5 46.5t-80 14t-81.5 -14.5t-69.5 -47.5t-48.5 -87t-18.5 -133q0 -78 17.5 -131t46.5 -85.5t67.5 -46t80.5 -13.5z" />
    <glyph glyph-name="Oacute" unicode="&#xd3;" horiz-adv-x="712" 
d="M383 876h116l-112 -134h-88zM353 -6q-62 0 -117.5 19.5t-97.5 61.5t-67 109t-25 162q0 93 26 161t69 112.5t100 65.5t118 21q62 0 117.5 -20t97.5 -62.5t67 -110t25 -163.5q0 -93 -26 -160t-69 -110.5t-99.5 -64.5t-118.5 -21zM353 71q42 0 81.5 14.5t69.5 47.5t48.5 86
t18.5 130q0 80 -17.5 133.5t-47 86t-67.5 46.5t-80 14t-81.5 -14.5t-69.5 -47.5t-48.5 -87t-18.5 -133q0 -78 17.5 -131t46.5 -85.5t67.5 -46t80.5 -13.5z" />
    <glyph glyph-name="Ocircumflex" unicode="&#xd4;" horiz-adv-x="712" 
d="M307 876h99l87 -134h-80l-58 74l-58 -74h-78zM353 -6q-62 0 -117.5 19.5t-97.5 61.5t-67 109t-25 162q0 93 26 161t69 112.5t100 65.5t118 21q62 0 117.5 -20t97.5 -62.5t67 -110t25 -163.5q0 -93 -26 -160t-69 -110.5t-99.5 -64.5t-118.5 -21zM353 71q42 0 81.5 14.5
t69.5 47.5t48.5 86t18.5 130q0 80 -17.5 133.5t-47 86t-67.5 46.5t-80 14t-81.5 -14.5t-69.5 -47.5t-48.5 -87t-18.5 -133q0 -78 17.5 -131t46.5 -85.5t67.5 -46t80.5 -13.5z" />
    <glyph glyph-name="Otilde" unicode="&#xd5;" horiz-adv-x="712" 
d="M214 746q-5 11 -8 22.5t-3 28.5q0 27 20.5 48t58.5 21q23 0 41 -6t33.5 -13.5t29.5 -13.5t27 -6q23 0 23 23q0 8 -2 13t-4 9h67q5 -11 8 -22.5t3 -28.5q0 -26 -20.5 -47.5t-66.5 -21.5q-22 0 -40 6t-33 13.5t-27.5 13.5t-24.5 6q-9 0 -15 -6t-6 -17q0 -8 2 -13t4 -9h-67z
M353 -6q-62 0 -117.5 19.5t-97.5 61.5t-67 109t-25 162q0 93 26 161t69 112.5t100 65.5t118 21q62 0 117.5 -20t97.5 -62.5t67 -110t25 -163.5q0 -93 -26 -160t-69 -110.5t-99.5 -64.5t-118.5 -21zM353 71q42 0 81.5 14.5t69.5 47.5t48.5 86t18.5 130q0 80 -17.5 133.5
t-47 86t-67.5 46.5t-80 14t-81.5 -14.5t-69.5 -47.5t-48.5 -87t-18.5 -133q0 -78 17.5 -131t46.5 -85.5t67.5 -46t80.5 -13.5z" />
    <glyph glyph-name="Odieresis" unicode="&#xd6;" horiz-adv-x="712" 
d="M255 748q-26 0 -42.5 17.5t-16.5 43.5q0 25 16.5 43t42.5 18q25 0 42.5 -18t17.5 -43q0 -26 -17.5 -43.5t-42.5 -17.5zM467 748q-25 0 -43 17.5t-18 43.5q0 25 18 43t43 18q26 0 42.5 -18t16.5 -43q0 -26 -16.5 -43.5t-42.5 -17.5zM353 -6q-62 0 -117.5 19.5t-97.5 61.5
t-67 109t-25 162q0 93 26 161t69 112.5t100 65.5t118 21q62 0 117.5 -20t97.5 -62.5t67 -110t25 -163.5q0 -93 -26 -160t-69 -110.5t-99.5 -64.5t-118.5 -21zM353 71q42 0 81.5 14.5t69.5 47.5t48.5 86t18.5 130q0 80 -17.5 133.5t-47 86t-67.5 46.5t-80 14t-81.5 -14.5
t-69.5 -47.5t-48.5 -87t-18.5 -133q0 -78 17.5 -131t46.5 -85.5t67.5 -46t80.5 -13.5z" />
    <glyph glyph-name="multiply" unicode="&#xd7;" horiz-adv-x="453" 
d="M51 132l129 129l-129 129l47 46l128 -128l129 128l47 -46l-129 -129l129 -129l-47 -46l-129 129l-128 -129z" />
    <glyph glyph-name="Oslash" unicode="&#xd8;" horiz-adv-x="713" 
d="M577 621q42 -43 66 -109.5t24 -161.5q0 -93 -26 -160t-69 -110.5t-99.5 -64.5t-118.5 -21q-45 0 -86.5 10t-77.5 31l-34 -51h-88l64 97q-39 43 -62 108t-23 157q0 93 26 161t69 112.5t100 65.5t118 21q44 0 84.5 -10t75.5 -30l33 50h87zM142 347q0 -63 11 -109t31 -78
l290 437q-25 17 -54 24.5t-60 7.5q-42 0 -81.5 -14.5t-69.5 -47.5t-48.5 -87t-18.5 -133zM354 71q42 0 81.5 14.5t69.5 47.5t48.5 86t18.5 130q0 66 -12 114t-34 81l-290 -439q26 -18 56 -26t62 -8z" />
    <glyph glyph-name="Ugrave" unicode="&#xd9;" horiz-adv-x="671" 
d="M190 876h118l84 -134h-90zM337 -6q-54 0 -101.5 14.5t-82 48.5t-54.5 90t-20 140v413h90v-419q0 -107 43.5 -157.5t124.5 -50.5t124 50.5t43 157.5v419h88v-413q0 -84 -19.5 -140t-53.5 -90t-81 -48.5t-101 -14.5z" />
    <glyph glyph-name="Uacute" unicode="&#xda;" horiz-adv-x="671" 
d="M364 876h116l-112 -134h-88zM337 -6q-54 0 -101.5 14.5t-82 48.5t-54.5 90t-20 140v413h90v-419q0 -107 43.5 -157.5t124.5 -50.5t124 50.5t43 157.5v419h88v-413q0 -84 -19.5 -140t-53.5 -90t-81 -48.5t-101 -14.5z" />
    <glyph glyph-name="Ucircumflex" unicode="&#xdb;" horiz-adv-x="671" 
d="M288 876h99l87 -134h-80l-58 74l-58 -74h-78zM337 -6q-54 0 -101.5 14.5t-82 48.5t-54.5 90t-20 140v413h90v-419q0 -107 43.5 -157.5t124.5 -50.5t124 50.5t43 157.5v419h88v-413q0 -84 -19.5 -140t-53.5 -90t-81 -48.5t-101 -14.5z" />
    <glyph glyph-name="Udieresis" unicode="&#xdc;" horiz-adv-x="671" 
d="M236 748q-26 0 -42.5 17.5t-16.5 43.5q0 25 16.5 43t42.5 18q25 0 42.5 -18t17.5 -43q0 -26 -17.5 -43.5t-42.5 -17.5zM448 748q-25 0 -43 17.5t-18 43.5q0 25 18 43t43 18q26 0 42.5 -18t16.5 -43q0 -26 -16.5 -43.5t-42.5 -17.5zM337 -6q-54 0 -101.5 14.5t-82 48.5
t-54.5 90t-20 140v413h90v-419q0 -107 43.5 -157.5t124.5 -50.5t124 50.5t43 157.5v419h88v-413q0 -84 -19.5 -140t-53.5 -90t-81 -48.5t-101 -14.5z" />
    <glyph glyph-name="Yacute" unicode="&#xdd;" horiz-adv-x="595" 
d="M326 876h116l-112 -134h-88zM253 291l-237 409h106l178 -322l179 322h102l-238 -406v-294h-90v291z" />
    <glyph glyph-name="Thorn" unicode="&#xde;" horiz-adv-x="604" 
d="M87 700h90v-122h133q119 0 186.5 -55.5t67.5 -170.5q0 -57 -18.5 -98.5t-51 -68.5t-77 -40.5t-96.5 -13.5h-144v-131h-90v700zM306 207q83 0 124 37.5t41 107.5q0 68 -41 108.5t-127 40.5h-126v-294h129z" />
    <glyph glyph-name="germandbls" unicode="&#xdf;" horiz-adv-x="559" 
d="M345 -12q-35 0 -71.5 8.5t-60.5 26.5l36 67q17 -13 39 -20.5t51 -7.5q61 0 85 19.5t24 54.5q0 27 -14.5 43.5t-36.5 28.5t-47 22t-47 25t-36.5 37t-14.5 57q0 44 21 72t46 50.5t46 46t21 57.5q0 41 -26 61.5t-71 20.5q-51 0 -79.5 -32.5t-28.5 -99.5v-525h-88v411h-70v71
h70v52q0 45 14.5 82t40.5 62.5t63 39.5t82 14q81 0 131 -41.5t50 -116.5q0 -49 -21 -79t-46.5 -51.5t-46.5 -39.5t-21 -44q0 -18 14.5 -30t36 -23t47 -23.5t47 -31t36 -46t14.5 -67.5q0 -69 -47.5 -110t-141.5 -41z" />
    <glyph glyph-name="agrave" unicode="&#xe0;" horiz-adv-x="547" 
d="M119 726h107l83 -174h-78zM234 -12q-43 0 -79 18t-61.5 50.5t-39.5 78t-14 101.5t14.5 103t41.5 81.5t65 54t85 19.5q48 0 84.5 -18t59.5 -51v57h79v-364q0 -29 9 -41t32 -12v-64q-5 -2 -16.5 -3t-22.5 -1q-38 0 -59.5 19.5t-21.5 52.5v4q-20 -38 -57.5 -61.5
t-98.5 -23.5zM260 61q51 0 79.5 28t41.5 75v154q-4 19 -13.5 37.5t-24.5 33t-35.5 23.5t-46.5 9q-64 0 -97.5 -47t-33.5 -138q0 -79 32.5 -127t97.5 -48z" />
    <glyph glyph-name="aacute" unicode="&#xe1;" horiz-adv-x="547" 
d="M303 726h107l-112 -174h-79zM234 -12q-43 0 -79 18t-61.5 50.5t-39.5 78t-14 101.5t14.5 103t41.5 81.5t65 54t85 19.5q48 0 84.5 -18t59.5 -51v57h79v-364q0 -29 9 -41t32 -12v-64q-5 -2 -16.5 -3t-22.5 -1q-38 0 -59.5 19.5t-21.5 52.5v4q-20 -38 -57.5 -61.5
t-98.5 -23.5zM260 61q51 0 79.5 28t41.5 75v154q-4 19 -13.5 37.5t-24.5 33t-35.5 23.5t-46.5 9q-64 0 -97.5 -47t-33.5 -138q0 -79 32.5 -127t97.5 -48z" />
    <glyph glyph-name="acircumflex" unicode="&#xe2;" horiz-adv-x="547" 
d="M227 726h92l88 -174h-78l-57 108l-57 -108h-77zM234 -12q-43 0 -79 18t-61.5 50.5t-39.5 78t-14 101.5t14.5 103t41.5 81.5t65 54t85 19.5q48 0 84.5 -18t59.5 -51v57h79v-364q0 -29 9 -41t32 -12v-64q-5 -2 -16.5 -3t-22.5 -1q-38 0 -59.5 19.5t-21.5 52.5v4
q-20 -38 -57.5 -61.5t-98.5 -23.5zM260 61q51 0 79.5 28t41.5 75v154q-4 19 -13.5 37.5t-24.5 33t-35.5 23.5t-46.5 9q-64 0 -97.5 -47t-33.5 -138q0 -79 32.5 -127t97.5 -48z" />
    <glyph glyph-name="atilde" unicode="&#xe3;" horiz-adv-x="547" 
d="M134 572q-5 11 -8 22.5t-3 28.5q0 28 19.5 49t64.5 21q20 0 37 -6t32 -13.5t28.5 -14t26.5 -6.5q25 0 25 23q0 8 -2 13t-4 9h67q5 -11 8 -22.5t3 -28.5q0 -27 -19.5 -49t-64.5 -22q-23 0 -41 6.5t-33 14t-27 14t-23 6.5q-25 0 -25 -23q0 -8 2 -13t4 -9h-67zM234 -12
q-43 0 -79 18t-61.5 50.5t-39.5 78t-14 101.5t14.5 103t41.5 81.5t65 54t85 19.5q48 0 84.5 -18t59.5 -51v57h79v-364q0 -29 9 -41t32 -12v-64q-5 -2 -16.5 -3t-22.5 -1q-38 0 -59.5 19.5t-21.5 52.5v4q-20 -38 -57.5 -61.5t-98.5 -23.5zM260 61q51 0 79.5 28t41.5 75v154
q-4 19 -13.5 37.5t-24.5 33t-35.5 23.5t-46.5 9q-64 0 -97.5 -47t-33.5 -138q0 -79 32.5 -127t97.5 -48z" />
    <glyph glyph-name="adieresis" unicode="&#xe4;" horiz-adv-x="547" 
d="M182 580q-24 0 -40 17.5t-16 41.5q0 23 16 41t40 18t41 -18t17 -41q0 -24 -17 -41.5t-41 -17.5zM366 580q-24 0 -41.5 17.5t-17.5 41.5q0 23 17.5 41t41.5 18t40 -18t16 -41q0 -24 -16 -41.5t-40 -17.5zM234 -12q-43 0 -79 18t-61.5 50.5t-39.5 78t-14 101.5t14.5 103
t41.5 81.5t65 54t85 19.5q48 0 84.5 -18t59.5 -51v57h79v-364q0 -29 9 -41t32 -12v-64q-5 -2 -16.5 -3t-22.5 -1q-38 0 -59.5 19.5t-21.5 52.5v4q-20 -38 -57.5 -61.5t-98.5 -23.5zM260 61q51 0 79.5 28t41.5 75v154q-4 19 -13.5 37.5t-24.5 33t-35.5 23.5t-46.5 9
q-64 0 -97.5 -47t-33.5 -138q0 -79 32.5 -127t97.5 -48z" />
    <glyph glyph-name="aring" unicode="&#xe5;" horiz-adv-x="547" 
d="M274 533q-45 0 -75.5 30t-30.5 75t30.5 75.5t75.5 30.5t75 -30.5t30 -75.5t-30 -75t-75 -30zM274 595q19 0 31 12t12 31t-12 31t-31 12q-20 0 -31.5 -12t-11.5 -31t11.5 -31t31.5 -12zM234 -12q-43 0 -79 18t-61.5 50.5t-39.5 78t-14 101.5t14.5 103t41.5 81.5t65 54
t85 19.5q48 0 84.5 -18t59.5 -51v57h79v-364q0 -29 9 -41t32 -12v-64q-5 -2 -16.5 -3t-22.5 -1q-38 0 -59.5 19.5t-21.5 52.5v4q-20 -38 -57.5 -61.5t-98.5 -23.5zM260 61q51 0 79.5 28t41.5 75v154q-4 19 -13.5 37.5t-24.5 33t-35.5 23.5t-46.5 9q-64 0 -97.5 -47
t-33.5 -138q0 -79 32.5 -127t97.5 -48z" />
    <glyph glyph-name="ae" unicode="&#xe6;" horiz-adv-x="789" 
d="M749 279v-22t-1 -22h-314q1 -86 36.5 -129.5t100.5 -43.5q42 0 71 17t50 47l54 -43q-25 -42 -71.5 -68.5t-107.5 -26.5q-70 0 -118 29t-74 83q-35 -61 -83.5 -86.5t-105.5 -25.5q-72 0 -112.5 33.5t-40.5 95.5q0 66 47.5 100t142.5 35h120v66q0 49 -26.5 75.5t-77.5 26.5
q-98 0 -98 -81q0 -11 2.5 -22t6.5 -17h-80q-5 7 -8 22t-3 32q0 64 49.5 102t134.5 38q58 0 98 -21.5t63 -56.5q27 36 65.5 57t88.5 21q93 0 142 -56.5t49 -158.5zM662 301q0 51 -25.5 85.5t-82.5 34.5q-54 0 -81 -33.5t-35 -86.5h224zM200 57q57 0 91 31t52 83v19l-127 -1
q-48 0 -70.5 -18.5t-22.5 -48.5q0 -65 77 -65z" />
    <glyph glyph-name="ccedilla" unicode="&#xe7;" horiz-adv-x="476" 
d="M445 82q-22 -35 -58.5 -61t-93.5 -32l-9 -28q15 -2 29.5 -7t25.5 -14.5t18 -23.5t7 -34q0 -42 -32.5 -63.5t-80.5 -21.5q-26 0 -49.5 7.5t-38.5 22.5l28 52q26 -21 56 -21q15 0 24.5 6t9.5 20q0 17 -20.5 26.5t-51.5 11.5l25 68q-91 10 -142 75t-51 177q0 120 59.5 186
t161.5 66q84 0 129.5 -37.5t45.5 -112.5q0 -14 -2 -28.5t-5 -23.5h-78q5 15 5 41q0 88 -96 88q-61 0 -95.5 -44.5t-34.5 -132.5q0 -89 37 -136t98 -47q50 0 77.5 19t47.5 48z" />
    <glyph glyph-name="egrave" unicode="&#xe8;" horiz-adv-x="473" 
d="M208 552l-112 174h107l83 -174h-78zM441 83q-34 -52 -82 -73.5t-107 -21.5q-101 0 -156.5 60t-55.5 176q0 59 16.5 108.5t46.5 85.5t72 56t94 20q75 0 117.5 -39t42.5 -104q0 -55 -28.5 -87t-72.5 -49.5t-96.5 -23.5t-99.5 -9q10 -63 43 -91.5t84 -28.5q45 0 72.5 15
t54.5 51zM266 421q-63 0 -98 -45.5t-39 -125.5q31 1 69 4t71 13.5t55.5 29.5t22.5 52q0 72 -81 72z" />
    <glyph glyph-name="eacute" unicode="&#xe9;" horiz-adv-x="473" 
d="M275 552h-79l84 174h107zM441 83q-34 -52 -82 -73.5t-107 -21.5q-101 0 -156.5 60t-55.5 176q0 59 16.5 108.5t46.5 85.5t72 56t94 20q75 0 117.5 -39t42.5 -104q0 -55 -28.5 -87t-72.5 -49.5t-96.5 -23.5t-99.5 -9q10 -63 43 -91.5t84 -28.5q45 0 72.5 15t54.5 51z
M266 421q-63 0 -98 -45.5t-39 -125.5q31 1 69 4t71 13.5t55.5 29.5t22.5 52q0 72 -81 72z" />
    <glyph glyph-name="ecircumflex" unicode="&#xea;" horiz-adv-x="473" 
d="M192 552h-77l89 174h92l88 -174h-78l-57 108zM441 83q-34 -52 -82 -73.5t-107 -21.5q-101 0 -156.5 60t-55.5 176q0 59 16.5 108.5t46.5 85.5t72 56t94 20q75 0 117.5 -39t42.5 -104q0 -55 -28.5 -87t-72.5 -49.5t-96.5 -23.5t-99.5 -9q10 -63 43 -91.5t84 -28.5
q45 0 72.5 15t54.5 51zM266 421q-63 0 -98 -45.5t-39 -125.5q31 1 69 4t71 13.5t55.5 29.5t22.5 52q0 72 -81 72z" />
    <glyph glyph-name="edieresis" unicode="&#xeb;" horiz-adv-x="473" 
d="M159 580q-24 0 -40 17.5t-16 41.5q0 23 16 41t40 18t41 -18t17 -41q0 -24 -17 -41.5t-41 -17.5zM343 580q-24 0 -41.5 17.5t-17.5 41.5q0 23 17.5 41t41.5 18t40 -18t16 -41q0 -24 -16 -41.5t-40 -17.5zM441 83q-34 -52 -82 -73.5t-107 -21.5q-101 0 -156.5 60t-55.5 176
q0 59 16.5 108.5t46.5 85.5t72 56t94 20q75 0 117.5 -39t42.5 -104q0 -55 -28.5 -87t-72.5 -49.5t-96.5 -23.5t-99.5 -9q10 -63 43 -91.5t84 -28.5q45 0 72.5 15t54.5 51zM266 421q-63 0 -98 -45.5t-39 -125.5q31 1 69 4t71 13.5t55.5 29.5t22.5 52q0 72 -81 72z" />
    <glyph glyph-name="igrave" unicode="&#xec;" horiz-adv-x="230" 
d="M-40 726h107l83 -174h-78zM71 482h88v-482h-88v482z" />
    <glyph glyph-name="iacute" unicode="&#xed;" horiz-adv-x="230" 
d="M144 726h107l-112 -174h-79zM71 482h88v-482h-88v482z" />
    <glyph glyph-name="icircumflex" unicode="&#xee;" horiz-adv-x="230" 
d="M68 726h92l88 -174h-78l-57 108l-57 -108h-77zM71 482h88v-482h-88v482z" />
    <glyph glyph-name="idieresis" unicode="&#xef;" horiz-adv-x="230" 
d="M23 580q-24 0 -40 17.5t-16 41.5q0 23 16 41t40 18t41 -18t17 -41q0 -24 -17 -41.5t-41 -17.5zM207 580q-24 0 -41.5 17.5t-17.5 41.5q0 23 17.5 41t41.5 18t40 -18t16 -41q0 -24 -16 -41.5t-40 -17.5zM71 482h88v-482h-88v482z" />
    <glyph glyph-name="eth" unicode="&#xf0;" horiz-adv-x="538" 
d="M392 614q98 -91 98 -290q0 -169 -62 -252.5t-171 -83.5q-98 0 -157.5 60t-59.5 171q0 51 16.5 94t45 74t67.5 48.5t85 17.5q58 0 94 -19.5t59 -45.5q0 120 -81 184l-119 -74l-36 58l88 53q-49 18 -114 18v74q114 -6 190 -46l112 68l34 -53zM260 61q38 0 65.5 18t45 50
t26 75.5t7.5 95.5q-20 35 -55.5 57t-86.5 22q-60 0 -97.5 -43.5t-37.5 -116.5q0 -78 38 -118t95 -40z" />
    <glyph glyph-name="ntilde" unicode="&#xf1;" horiz-adv-x="548" 
d="M133 572q-5 11 -8 22.5t-3 28.5q0 28 19.5 49t64.5 21q20 0 37 -6t32 -13.5t28.5 -14t26.5 -6.5q25 0 25 23q0 8 -2 13t-4 9h67q5 -11 8 -22.5t3 -28.5q0 -27 -19.5 -49t-64.5 -22q-23 0 -41 6.5t-33 14t-27 14t-23 6.5q-25 0 -25 -23q0 -8 2 -13t4 -9h-67zM478 -3
q-46 0 -68 27.5t-22 72.5v207q0 56 -26.5 85.5t-76.5 29.5q-54 0 -86.5 -36t-32.5 -94v-289h-88v373q0 26 -9.5 37t-31.5 11v64q5 2 16 3t23 1q38 0 59 -22t21 -64v-3q20 46 59 70t93 24q81 0 124.5 -49t43.5 -140v-192q0 -26 9.5 -37t31.5 -11v-64q-5 -2 -16 -3t-23 -1z
" />
    <glyph glyph-name="ograve" unicode="&#xf2;" horiz-adv-x="522" 
d="M106 726h107l83 -174h-78zM258 -12q-102 0 -159.5 66.5t-57.5 186.5q0 60 16 107t45 79.5t70 49.5t92 17q101 0 159 -66.5t58 -186.5q0 -59 -16 -106t-45 -79.5t-70 -50t-92 -17.5zM261 61q61 0 95.5 45t34.5 135t-35 135t-95 45t-95 -45t-35 -135t35 -135t95 -45z" />
    <glyph glyph-name="oacute" unicode="&#xf3;" horiz-adv-x="522" 
d="M290 726h107l-112 -174h-79zM258 -12q-102 0 -159.5 66.5t-57.5 186.5q0 60 16 107t45 79.5t70 49.5t92 17q101 0 159 -66.5t58 -186.5q0 -59 -16 -106t-45 -79.5t-70 -50t-92 -17.5zM261 61q61 0 95.5 45t34.5 135t-35 135t-95 45t-95 -45t-35 -135t35 -135t95 -45z" />
    <glyph glyph-name="ocircumflex" unicode="&#xf4;" horiz-adv-x="522" 
d="M214 726h92l88 -174h-78l-57 108l-57 -108h-77zM258 -12q-102 0 -159.5 66.5t-57.5 186.5q0 60 16 107t45 79.5t70 49.5t92 17q101 0 159 -66.5t58 -186.5q0 -59 -16 -106t-45 -79.5t-70 -50t-92 -17.5zM261 61q61 0 95.5 45t34.5 135t-35 135t-95 45t-95 -45t-35 -135
t35 -135t95 -45z" />
    <glyph glyph-name="otilde" unicode="&#xf5;" horiz-adv-x="522" 
d="M121 572q-5 11 -8 22.5t-3 28.5q0 28 19.5 49t64.5 21q20 0 37 -6t32 -13.5t28.5 -14t26.5 -6.5q25 0 25 23q0 8 -2 13t-4 9h67q5 -11 8 -22.5t3 -28.5q0 -27 -19.5 -49t-64.5 -22q-23 0 -41 6.5t-33 14t-27 14t-23 6.5q-25 0 -25 -23q0 -8 2 -13t4 -9h-67zM258 -12
q-102 0 -159.5 66.5t-57.5 186.5q0 60 16 107t45 79.5t70 49.5t92 17q101 0 159 -66.5t58 -186.5q0 -59 -16 -106t-45 -79.5t-70 -50t-92 -17.5zM261 61q61 0 95.5 45t34.5 135t-35 135t-95 45t-95 -45t-35 -135t35 -135t95 -45z" />
    <glyph glyph-name="odieresis" unicode="&#xf6;" horiz-adv-x="522" 
d="M169 580q-24 0 -40 17.5t-16 41.5q0 23 16 41t40 18t41 -18t17 -41q0 -24 -17 -41.5t-41 -17.5zM353 580q-24 0 -41.5 17.5t-17.5 41.5q0 23 17.5 41t41.5 18t40 -18t16 -41q0 -24 -16 -41.5t-40 -17.5zM258 -12q-102 0 -159.5 66.5t-57.5 186.5q0 60 16 107t45 79.5
t70 49.5t92 17q101 0 159 -66.5t58 -186.5q0 -59 -16 -106t-45 -79.5t-70 -50t-92 -17.5zM261 61q61 0 95.5 45t34.5 135t-35 135t-95 45t-95 -45t-35 -135t35 -135t95 -45z" />
    <glyph glyph-name="divide" unicode="&#xf7;" horiz-adv-x="435" 
d="M219 356q-26 0 -44 19t-18 45t18 44t44 18t44.5 -18t18.5 -44t-18.5 -45t-44.5 -19zM41 300h353v-65h-353v65zM221 43q-26 0 -45 19.5t-19 45.5t19 45t45 19t45 -19t19 -45t-19 -45.5t-45 -19.5z" />
    <glyph glyph-name="oslash" unicode="&#xf8;" horiz-adv-x="522" 
d="M422 429q29 -33 44 -80.5t15 -107.5q0 -59 -16 -106t-45 -79.5t-70 -50t-92 -17.5q-61 0 -106 24l-21 -33h-79l48 74q-29 33 -44 80.5t-15 107.5t16 107t45 79.5t70 49.5t92 17q59 0 107 -25l21 33h77zM131 241q0 -66 20 -109l176 271q-27 18 -66 18q-60 0 -95 -45
t-35 -135zM261 61q61 0 95.5 45t34.5 135q0 66 -20 109l-176 -271q29 -18 66 -18z" />
    <glyph glyph-name="ugrave" unicode="&#xf9;" horiz-adv-x="538" 
d="M115 726h107l83 -174h-78zM229 -12q-78 0 -121.5 45t-43.5 130v319h88v-308q0 -63 27.5 -87.5t75.5 -24.5q31 0 53 12t36.5 30.5t21 40.5t6.5 43v294h88v-368q0 -23 8.5 -36t32.5 -13v-64q-4 -1 -10 -2t-13 -1.5t-17 -0.5q-38 0 -58.5 20t-20.5 58v6q-8 -18 -20.5 -34.5
t-30.5 -29.5t-43 -21t-59 -8z" />
    <glyph glyph-name="uacute" unicode="&#xfa;" horiz-adv-x="538" 
d="M299 726h107l-112 -174h-79zM229 -12q-78 0 -121.5 45t-43.5 130v319h88v-308q0 -63 27.5 -87.5t75.5 -24.5q31 0 53 12t36.5 30.5t21 40.5t6.5 43v294h88v-368q0 -23 8.5 -36t32.5 -13v-64q-4 -1 -10 -2t-13 -1.5t-17 -0.5q-38 0 -58.5 20t-20.5 58v6
q-8 -18 -20.5 -34.5t-30.5 -29.5t-43 -21t-59 -8z" />
    <glyph glyph-name="ucircumflex" unicode="&#xfb;" horiz-adv-x="538" 
d="M223 726h92l88 -174h-78l-57 108l-57 -108h-77zM229 -12q-78 0 -121.5 45t-43.5 130v319h88v-308q0 -63 27.5 -87.5t75.5 -24.5q31 0 53 12t36.5 30.5t21 40.5t6.5 43v294h88v-368q0 -23 8.5 -36t32.5 -13v-64q-4 -1 -10 -2t-13 -1.5t-17 -0.5q-38 0 -58.5 20t-20.5 58v6
q-8 -18 -20.5 -34.5t-30.5 -29.5t-43 -21t-59 -8z" />
    <glyph glyph-name="udieresis" unicode="&#xfc;" horiz-adv-x="538" 
d="M178 580q-24 0 -40 17.5t-16 41.5q0 23 16 41t40 18t41 -18t17 -41q0 -24 -17 -41.5t-41 -17.5zM362 580q-24 0 -41.5 17.5t-17.5 41.5q0 23 17.5 41t41.5 18t40 -18t16 -41q0 -24 -16 -41.5t-40 -17.5zM229 -12q-78 0 -121.5 45t-43.5 130v319h88v-308q0 -63 27.5 -87.5
t75.5 -24.5q31 0 53 12t36.5 30.5t21 40.5t6.5 43v294h88v-368q0 -23 8.5 -36t32.5 -13v-64q-4 -1 -10 -2t-13 -1.5t-17 -0.5q-38 0 -58.5 20t-20.5 58v6q-8 -18 -20.5 -34.5t-30.5 -29.5t-43 -21t-59 -8z" />
    <glyph glyph-name="yacute" unicode="&#xfd;" horiz-adv-x="529" 
d="M293 726h107l-112 -174h-79zM247 -247q-78 0 -124.5 25t-66.5 67l60 45q19 -31 51 -47t80 -16q61 0 95 34t34 94v130q-21 -44 -62 -67.5t-97 -23.5q-153 0 -153 173v315h88v-304q0 -110 94 -110q24 0 46.5 11t40 29.5t28 42t10.5 48.5v283h89v-527q0 -46 -15 -83.5
t-42.5 -63.5t-67 -40.5t-88.5 -14.5z" />
    <glyph glyph-name="thorn" unicode="&#xfe;" horiz-adv-x="538" 
d="M69 726h88v-308q22 39 60.5 57.5t84.5 18.5q45 0 81 -18t61.5 -51t39.5 -79t14 -102t-15 -103t-42 -81t-64.5 -53t-82.5 -19t-82.5 19t-54.5 48v-284h-88v955zM281 61q61 0 94 47t33 135q0 85 -35 131t-95 46q-48 0 -78.5 -28.5t-42.5 -73.5v-155q11 -42 40.5 -72
t83.5 -30z" />
    <glyph glyph-name="ydieresis" unicode="&#xff;" horiz-adv-x="529" 
d="M172 580q-24 0 -40 17.5t-16 41.5q0 23 16 41t40 18t41 -18t17 -41q0 -24 -17 -41.5t-41 -17.5zM356 580q-24 0 -41.5 17.5t-17.5 41.5q0 23 17.5 41t41.5 18t40 -18t16 -41q0 -24 -16 -41.5t-40 -17.5zM247 -247q-78 0 -124.5 25t-66.5 67l60 45q19 -31 51 -47t80 -16
q61 0 95 34t34 94v130q-21 -44 -62 -67.5t-97 -23.5q-153 0 -153 173v315h88v-304q0 -110 94 -110q24 0 46.5 11t40 29.5t28 42t10.5 48.5v283h89v-527q0 -46 -15 -83.5t-42.5 -63.5t-67 -40.5t-88.5 -14.5z" />
    <glyph glyph-name="Amacron" unicode="&#x100;" horiz-adv-x="629" 
d="M447 769h-264v73h264v-73zM458 193h-287l-69 -193h-91l258 700h91l258 -700h-92zM431 269l-117 329l-116 -329h233z" />
    <glyph glyph-name="amacron" unicode="&#x101;" horiz-adv-x="547" 
d="M147 671h254v-71h-254v71zM234 -12q-43 0 -79 18t-61.5 50.5t-39.5 78t-14 101.5t14.5 103t41.5 81.5t65 54t85 19.5q48 0 84.5 -18t59.5 -51v57h79v-364q0 -29 9 -41t32 -12v-64q-5 -2 -16.5 -3t-22.5 -1q-38 0 -59.5 19.5t-21.5 52.5v4q-20 -38 -57.5 -61.5
t-98.5 -23.5zM260 61q51 0 79.5 28t41.5 75v154q-4 19 -13.5 37.5t-24.5 33t-35.5 23.5t-46.5 9q-64 0 -97.5 -47t-33.5 -138q0 -79 32.5 -127t97.5 -48z" />
    <glyph glyph-name="Abreve" unicode="&#x102;" horiz-adv-x="629" 
d="M313 742q-54 0 -88.5 35t-34.5 99h68q0 -27 14 -45t42 -18q29 0 43 18t14 45h68q0 -63 -36 -98.5t-90 -35.5zM458 193h-287l-69 -193h-91l258 700h91l258 -700h-92zM431 269l-117 329l-116 -329h233z" />
    <glyph glyph-name="abreve" unicode="&#x103;" horiz-adv-x="547" 
d="M274 566q-35 0 -59 10.5t-38.5 29t-21 43.5t-6.5 53h68q0 -67 56 -67q57 0 57 67h68q0 -28 -7 -53t-22 -43.5t-38.5 -29t-56.5 -10.5zM234 -12q-43 0 -79 18t-61.5 50.5t-39.5 78t-14 101.5t14.5 103t41.5 81.5t65 54t85 19.5q48 0 84.5 -18t59.5 -51v57h79v-364
q0 -29 9 -41t32 -12v-64q-5 -2 -16.5 -3t-22.5 -1q-38 0 -59.5 19.5t-21.5 52.5v4q-20 -38 -57.5 -61.5t-98.5 -23.5zM260 61q51 0 79.5 28t41.5 75v154q-4 19 -13.5 37.5t-24.5 33t-35.5 23.5t-46.5 9q-64 0 -97.5 -47t-33.5 -138q0 -79 32.5 -127t97.5 -48z" />
    <glyph glyph-name="Aogonek" unicode="&#x104;" horiz-adv-x="629" 
d="M634 -155q-12 -13 -32 -20t-43 -7q-47 0 -71.5 22t-24.5 63q0 29 15.5 56.5t44.5 49.5l-65 184h-287l-69 -193h-91l258 700h91l258 -700h-13q-29 -9 -47 -31.5t-18 -50.5q0 -20 9.5 -29t25.5 -9q10 0 17.5 3.5t12.5 7.5zM431 269l-117 329l-116 -329h233z" />
    <glyph glyph-name="aogonek" unicode="&#x105;" horiz-adv-x="547" 
d="M534 -155q-12 -13 -32 -20t-43 -7q-47 0 -71.5 22t-24.5 63q0 29 15.5 56.5t44.5 49.5q-33 19 -33 60v4q-20 -38 -57.5 -61.5t-98.5 -23.5q-43 0 -79 18t-61.5 50.5t-39.5 78t-14 101.5t14.5 103t41.5 81.5t65 54t85 19.5q48 0 84.5 -18t59.5 -51v57h79v-364q0 -29 9 -41
t32 -12v-64q-2 0 -3 -0.5t-3 -0.5q-28 -10 -46 -32t-18 -50q0 -20 9.5 -29t25.5 -9q10 0 17.5 3.5t12.5 7.5zM381 318q-4 19 -13.5 37.5t-24.5 33t-35.5 23.5t-46.5 9q-64 0 -97.5 -47t-33.5 -138q0 -79 32.5 -127t97.5 -48q51 0 79.5 28t41.5 75v154z" />
    <glyph glyph-name="Cacute" unicode="&#x106;" horiz-adv-x="615" 
d="M370 876h116l-112 -134h-88zM352 -6q-70 0 -127 24t-96.5 69.5t-61 111.5t-21.5 149t21 149t60.5 112.5t95.5 71.5t126 25q106 0 165.5 -50.5t59.5 -139.5q0 -16 -2 -33t-6 -26h-82q3 18 4 26t1 20q0 59 -39 92.5t-106 33.5q-97 0 -149.5 -74.5t-52.5 -206.5
q0 -134 58 -205.5t156 -71.5q54 0 95.5 22t74.5 75l60 -50q-45 -66 -102 -95t-132 -29z" />
    <glyph glyph-name="cacute" unicode="&#x107;" horiz-adv-x="476" 
d="M287 726h107l-112 -174h-79zM265 -12q-105 0 -164.5 66t-59.5 188q0 120 59.5 186t161.5 66q84 0 129.5 -37.5t45.5 -112.5q0 -14 -2 -28.5t-5 -23.5h-78q5 15 5 41q0 88 -96 88q-61 0 -95.5 -44.5t-34.5 -132.5q0 -89 37 -136t98 -47q50 0 77.5 19t47.5 48l54 -46
q-24 -39 -67.5 -66.5t-112.5 -27.5z" />
    <glyph glyph-name="Ccircumflex" unicode="&#x108;" horiz-adv-x="615" 
d="M294 876h99l87 -134h-80l-58 74l-58 -74h-78zM352 -6q-70 0 -127 24t-96.5 69.5t-61 111.5t-21.5 149t21 149t60.5 112.5t95.5 71.5t126 25q106 0 165.5 -50.5t59.5 -139.5q0 -16 -2 -33t-6 -26h-82q3 18 4 26t1 20q0 59 -39 92.5t-106 33.5q-97 0 -149.5 -74.5
t-52.5 -206.5q0 -134 58 -205.5t156 -71.5q54 0 95.5 22t74.5 75l60 -50q-45 -66 -102 -95t-132 -29z" />
    <glyph glyph-name="ccircumflex" unicode="&#x109;" horiz-adv-x="476" 
d="M211 726h92l88 -174h-78l-57 108l-57 -108h-77zM265 -12q-105 0 -164.5 66t-59.5 188q0 120 59.5 186t161.5 66q84 0 129.5 -37.5t45.5 -112.5q0 -14 -2 -28.5t-5 -23.5h-78q5 15 5 41q0 88 -96 88q-61 0 -95.5 -44.5t-34.5 -132.5q0 -89 37 -136t98 -47q50 0 77.5 19
t47.5 48l54 -46q-24 -39 -67.5 -66.5t-112.5 -27.5z" />
    <glyph glyph-name="Cdotaccent" unicode="&#x10a;" horiz-adv-x="615" 
d="M343 746q-26 0 -44.5 18.5t-18.5 44.5t18.5 44.5t44.5 18.5t44.5 -18.5t18.5 -44.5t-18.5 -44.5t-44.5 -18.5zM352 -6q-70 0 -127 24t-96.5 69.5t-61 111.5t-21.5 149t21 149t60.5 112.5t95.5 71.5t126 25q106 0 165.5 -50.5t59.5 -139.5q0 -16 -2 -33t-6 -26h-82
q3 18 4 26t1 20q0 59 -39 92.5t-106 33.5q-97 0 -149.5 -74.5t-52.5 -206.5q0 -134 58 -205.5t156 -71.5q54 0 95.5 22t74.5 75l60 -50q-45 -66 -102 -95t-132 -29z" />
    <glyph glyph-name="cdotaccent" unicode="&#x10b;" horiz-adv-x="476" 
d="M258 580q-24 0 -41.5 17t-17.5 42q0 24 17.5 41.5t41.5 17.5t41.5 -17.5t17.5 -41.5q0 -25 -17.5 -42t-41.5 -17zM265 -12q-105 0 -164.5 66t-59.5 188q0 120 59.5 186t161.5 66q84 0 129.5 -37.5t45.5 -112.5q0 -14 -2 -28.5t-5 -23.5h-78q5 15 5 41q0 88 -96 88
q-61 0 -95.5 -44.5t-34.5 -132.5q0 -89 37 -136t98 -47q50 0 77.5 19t47.5 48l54 -46q-24 -39 -67.5 -66.5t-112.5 -27.5z" />
    <glyph glyph-name="Ccaron" unicode="&#x10c;" horiz-adv-x="615" 
d="M207 876h80l58 -74l58 74h78l-88 -134h-99zM352 -6q-70 0 -127 24t-96.5 69.5t-61 111.5t-21.5 149t21 149t60.5 112.5t95.5 71.5t126 25q106 0 165.5 -50.5t59.5 -139.5q0 -16 -2 -33t-6 -26h-82q3 18 4 26t1 20q0 59 -39 92.5t-106 33.5q-97 0 -149.5 -74.5
t-52.5 -206.5q0 -134 58 -205.5t156 -71.5q54 0 95.5 22t74.5 75l60 -50q-45 -66 -102 -95t-132 -29z" />
    <glyph glyph-name="ccaron" unicode="&#x10d;" horiz-adv-x="476" 
d="M123 726h78l57 -108l57 108h77l-89 -174h-92zM265 -12q-105 0 -164.5 66t-59.5 188q0 120 59.5 186t161.5 66q84 0 129.5 -37.5t45.5 -112.5q0 -14 -2 -28.5t-5 -23.5h-78q5 15 5 41q0 88 -96 88q-61 0 -95.5 -44.5t-34.5 -132.5q0 -89 37 -136t98 -47q50 0 77.5 19
t47.5 48l54 -46q-24 -39 -67.5 -66.5t-112.5 -27.5z" />
    <glyph glyph-name="Dcaron" unicode="&#x10e;" horiz-adv-x="690" 
d="M197 876h80l58 -74l58 74h78l-88 -134h-99zM87 700h217q74 0 136 -20t107.5 -62t71 -107.5t25.5 -157.5q0 -93 -27.5 -160t-74 -110t-107.5 -63t-128 -20h-220v700zM301 81q56 0 102 16t78 49t49.5 83.5t17.5 120.5t-17.5 120.5t-49.5 83.5t-78 49t-102 16h-124v-538h124
z" />
    <glyph glyph-name="dcaron" unicode="&#x10f;" horiz-adv-x="550" 
d="M535 571q20 7 34 20t15 27q-23 0 -39 16.5t-16 41.5t17 42t42 17q29 0 47 -19t18 -48q0 -49 -26 -88t-66 -50zM234 -12q-43 0 -79 18t-61.5 50.5t-39.5 78t-14 101.5t14.5 103t41.5 81.5t65 54t85 19.5q48 0 82.5 -19.5t52.5 -46.5v298h88v-608q0 -29 9 -41t32 -12v-64
q-5 -2 -16.5 -3t-22.5 -1q-38 0 -59.5 19.5t-21.5 52.5v12q-20 -41 -57.5 -67t-98.5 -26zM260 62q49 0 78 27.5t43 74.5v154q-4 19 -13.5 37.5t-24.5 33t-35.5 23.5t-46.5 9q-64 0 -97.5 -47t-33.5 -138q0 -78 33.5 -126t96.5 -48z" />
    <glyph glyph-name="Dcroat" unicode="&#x110;" horiz-adv-x="706" 
d="M320 700q74 0 136 -20t107.5 -62t71 -107.5t25.5 -157.5q0 -93 -27.5 -160t-74 -110t-107.5 -63t-128 -20h-220v313h-91v77h91v310h217zM317 81q56 0 102 16t78 49t49.5 83.5t17.5 120.5t-17.5 120.5t-49.5 83.5t-78 49t-102 16h-124v-229h102v-77h-102v-232h124z" />
    <glyph glyph-name="dcroat" unicode="&#x111;" horiz-adv-x="547" 
d="M469 569v-451q0 -29 9 -41t32 -12v-64q-5 -2 -16.5 -3t-22.5 -1q-38 0 -59.5 19.5t-21.5 52.5v12q-20 -41 -57.5 -67t-98.5 -26q-43 0 -79 18t-61.5 50.5t-39.5 78t-14 101.5t14.5 103t41.5 81.5t65 54t85 19.5q48 0 82.5 -19.5t52.5 -46.5v141h-117v77h117v80h88v-80h78
v-77h-78zM381 318q-4 19 -13.5 37.5t-24.5 33t-35.5 23.5t-46.5 9q-64 0 -97.5 -47t-33.5 -138q0 -78 33.5 -126t96.5 -48q49 0 78 27.5t43 74.5v154z" />
    <glyph glyph-name="Emacron" unicode="&#x112;" horiz-adv-x="575" 
d="M192 842h264v-73h-264v73zM87 700h444v-84h-354v-217h299v-84h-299v-231h354v-84h-444v700z" />
    <glyph glyph-name="emacron" unicode="&#x113;" horiz-adv-x="473" 
d="M378 600h-254v71h254v-71zM441 83q-34 -52 -82 -73.5t-107 -21.5q-101 0 -156.5 60t-55.5 176q0 59 16.5 108.5t46.5 85.5t72 56t94 20q75 0 117.5 -39t42.5 -104q0 -55 -28.5 -87t-72.5 -49.5t-96.5 -23.5t-99.5 -9q10 -63 43 -91.5t84 -28.5q45 0 72.5 15t54.5 51z
M266 421q-63 0 -98 -45.5t-39 -125.5q31 1 69 4t71 13.5t55.5 29.5t22.5 52q0 72 -81 72z" />
    <glyph glyph-name="Ebreve" unicode="&#x114;" horiz-adv-x="575" 
d="M322 742q-54 0 -88.5 35t-34.5 99h68q0 -27 14 -45t42 -18q29 0 43 18t14 45h68q0 -63 -36 -98.5t-90 -35.5zM87 700h444v-84h-354v-217h299v-84h-299v-231h354v-84h-444v700z" />
    <glyph glyph-name="ebreve" unicode="&#x115;" horiz-adv-x="473" 
d="M251 566q-35 0 -59 10.5t-38.5 29t-21 43.5t-6.5 53h68q0 -67 56 -67q57 0 57 67h68q0 -28 -7 -53t-22 -43.5t-38.5 -29t-56.5 -10.5zM441 83q-34 -52 -82 -73.5t-107 -21.5q-101 0 -156.5 60t-55.5 176q0 59 16.5 108.5t46.5 85.5t72 56t94 20q75 0 117.5 -39t42.5 -104
q0 -55 -28.5 -87t-72.5 -49.5t-96.5 -23.5t-99.5 -9q10 -63 43 -91.5t84 -28.5q45 0 72.5 15t54.5 51zM266 421q-63 0 -98 -45.5t-39 -125.5q31 1 69 4t71 13.5t55.5 29.5t22.5 52q0 72 -81 72z" />
    <glyph glyph-name="Edotaccent" unicode="&#x116;" horiz-adv-x="575" 
d="M324 746q-26 0 -44.5 18.5t-18.5 44.5t18.5 44.5t44.5 18.5t44.5 -18.5t18.5 -44.5t-18.5 -44.5t-44.5 -18.5zM87 700h444v-84h-354v-217h299v-84h-299v-231h354v-84h-444v700z" />
    <glyph glyph-name="edotaccent" unicode="&#x117;" horiz-adv-x="473" 
d="M251 580q-24 0 -41.5 17t-17.5 42q0 24 17.5 41.5t41.5 17.5t41.5 -17.5t17.5 -41.5q0 -25 -17.5 -42t-41.5 -17zM441 83q-34 -52 -82 -73.5t-107 -21.5q-101 0 -156.5 60t-55.5 176q0 59 16.5 108.5t46.5 85.5t72 56t94 20q75 0 117.5 -39t42.5 -104q0 -55 -28.5 -87
t-72.5 -49.5t-96.5 -23.5t-99.5 -9q10 -63 43 -91.5t84 -28.5q45 0 72.5 15t54.5 51zM266 421q-63 0 -98 -45.5t-39 -125.5q31 1 69 4t71 13.5t55.5 29.5t22.5 52q0 72 -81 72z" />
    <glyph glyph-name="Eogonek" unicode="&#x118;" horiz-adv-x="575" 
d="M560 -155q-12 -13 -32 -20t-43 -7q-47 0 -71.5 22t-24.5 63q0 26 13 51.5t36 45.5h-351v700h444v-84h-354v-217h299v-84h-299v-231h354v-84q-29 -9 -47 -31.5t-18 -50.5q0 -20 9.5 -29t25.5 -9q10 0 17.5 3.5t12.5 7.5z" />
    <glyph glyph-name="eogonek" unicode="&#x119;" horiz-adv-x="473" 
d="M329 -2q-26 -10 -43 -32t-17 -48q0 -20 9.5 -29t25.5 -9q10 0 17.5 3.5t12.5 7.5l29 -46q-12 -13 -32 -20t-43 -7q-47 0 -71.5 22t-24.5 63q0 23 10 44.5t28 41.5q-91 7 -140.5 66.5t-49.5 168.5q0 59 16.5 108.5t46.5 85.5t72 56t94 20q75 0 117.5 -39t42.5 -104
q0 -55 -28.5 -87t-72.5 -49.5t-96.5 -23.5t-99.5 -9q10 -63 43 -91.5t84 -28.5q45 0 72.5 15t54.5 51l55 -45q-22 -34 -50.5 -54.5t-61.5 -30.5zM266 421q-63 0 -98 -45.5t-39 -125.5q31 1 69 4t71 13.5t55.5 29.5t22.5 52q0 72 -81 72z" />
    <glyph glyph-name="Ecaron" unicode="&#x11a;" horiz-adv-x="575" 
d="M188 876h80l58 -74l58 74h78l-88 -134h-99zM87 700h444v-84h-354v-217h299v-84h-299v-231h354v-84h-444v700z" />
    <glyph glyph-name="ecaron" unicode="&#x11b;" horiz-adv-x="473" 
d="M204 552l-88 174h78l57 -108l57 108h77l-89 -174h-92zM441 83q-34 -52 -82 -73.5t-107 -21.5q-101 0 -156.5 60t-55.5 176q0 59 16.5 108.5t46.5 85.5t72 56t94 20q75 0 117.5 -39t42.5 -104q0 -55 -28.5 -87t-72.5 -49.5t-96.5 -23.5t-99.5 -9q10 -63 43 -91.5t84 -28.5
q45 0 72.5 15t54.5 51zM266 421q-63 0 -98 -45.5t-39 -125.5q31 1 69 4t71 13.5t55.5 29.5t22.5 52q0 72 -81 72z" />
    <glyph glyph-name="Gcircumflex" unicode="&#x11c;" horiz-adv-x="653" 
d="M292 876h99l87 -134h-80l-58 74l-58 -74h-78zM350 -10q-144 0 -223.5 88.5t-79.5 269.5q0 82 21.5 148.5t61 113t96.5 71.5t127 25q60 0 104 -14t72.5 -39.5t42.5 -60t14 -75.5q0 -27 -5 -40h-85q1 5 1.5 11t0.5 23q0 54 -38.5 86t-108.5 32q-104 0 -156 -73t-52 -208
q0 -134 54 -207.5t159 -73.5q64 0 102.5 15.5t52.5 30.5v153h-160v84h249v-271q-14 -15 -37 -31t-54.5 -29t-71 -21t-87.5 -8z" />
    <glyph glyph-name="gcircumflex" unicode="&#x11d;" horiz-adv-x="538" 
d="M220 726h92l88 -174h-78l-57 108l-57 -108h-77zM253 -240q-72 0 -118 25.5t-69 65.5l59 48q17 -27 48 -46t83 -19q61 0 95 34t34 94v110q-17 -32 -53.5 -58t-97.5 -26q-43 0 -79 18t-61.5 50.5t-39.5 78t-14 101.5t14.5 103t41.5 81.5t65 54t85 19.5q48 0 83.5 -20
t60.5 -57v65h79v-520q0 -46 -15.5 -83.5t-44 -63.5t-68 -40.5t-88.5 -14.5zM260 62q49 0 78 27.5t43 74.5v154q-4 19 -13.5 37.5t-24.5 33t-35.5 23.5t-46.5 9q-64 0 -97.5 -47t-33.5 -138q0 -78 33.5 -126t96.5 -48z" />
    <glyph glyph-name="Gbreve" unicode="&#x11e;" horiz-adv-x="653" 
d="M339 742q-54 0 -88.5 35t-34.5 99h68q0 -27 14 -45t42 -18q29 0 43 18t14 45h68q0 -63 -36 -98.5t-90 -35.5zM350 -10q-144 0 -223.5 88.5t-79.5 269.5q0 82 21.5 148.5t61 113t96.5 71.5t127 25q60 0 104 -14t72.5 -39.5t42.5 -60t14 -75.5q0 -27 -5 -40h-85q1 5 1.5 11
t0.5 23q0 54 -38.5 86t-108.5 32q-104 0 -156 -73t-52 -208q0 -134 54 -207.5t159 -73.5q64 0 102.5 15.5t52.5 30.5v153h-160v84h249v-271q-14 -15 -37 -31t-54.5 -29t-71 -21t-87.5 -8z" />
    <glyph glyph-name="gbreve" unicode="&#x11f;" horiz-adv-x="538" 
d="M267 566q-35 0 -59 10.5t-38.5 29t-21 43.5t-6.5 53h68q0 -67 56 -67q57 0 57 67h68q0 -28 -7 -53t-22 -43.5t-38.5 -29t-56.5 -10.5zM253 -240q-72 0 -118 25.5t-69 65.5l59 48q17 -27 48 -46t83 -19q61 0 95 34t34 94v110q-17 -32 -53.5 -58t-97.5 -26q-43 0 -79 18
t-61.5 50.5t-39.5 78t-14 101.5t14.5 103t41.5 81.5t65 54t85 19.5q48 0 83.5 -20t60.5 -57v65h79v-520q0 -46 -15.5 -83.5t-44 -63.5t-68 -40.5t-88.5 -14.5zM260 62q49 0 78 27.5t43 74.5v154q-4 19 -13.5 37.5t-24.5 33t-35.5 23.5t-46.5 9q-64 0 -97.5 -47t-33.5 -138
q0 -78 33.5 -126t96.5 -48z" />
    <glyph glyph-name="Gdotaccent" unicode="&#x120;" horiz-adv-x="653" 
d="M341 746q-26 0 -44.5 18.5t-18.5 44.5t18.5 44.5t44.5 18.5t44.5 -18.5t18.5 -44.5t-18.5 -44.5t-44.5 -18.5zM350 -10q-144 0 -223.5 88.5t-79.5 269.5q0 82 21.5 148.5t61 113t96.5 71.5t127 25q60 0 104 -14t72.5 -39.5t42.5 -60t14 -75.5q0 -27 -5 -40h-85
q1 5 1.5 11t0.5 23q0 54 -38.5 86t-108.5 32q-104 0 -156 -73t-52 -208q0 -134 54 -207.5t159 -73.5q64 0 102.5 15.5t52.5 30.5v153h-160v84h249v-271q-14 -15 -37 -31t-54.5 -29t-71 -21t-87.5 -8z" />
    <glyph glyph-name="gdotaccent" unicode="&#x121;" horiz-adv-x="538" 
d="M267 580q-24 0 -41.5 17t-17.5 42q0 24 17.5 41.5t41.5 17.5t41.5 -17.5t17.5 -41.5q0 -25 -17.5 -42t-41.5 -17zM253 -240q-72 0 -118 25.5t-69 65.5l59 48q17 -27 48 -46t83 -19q61 0 95 34t34 94v110q-17 -32 -53.5 -58t-97.5 -26q-43 0 -79 18t-61.5 50.5t-39.5 78
t-14 101.5t14.5 103t41.5 81.5t65 54t85 19.5q48 0 83.5 -20t60.5 -57v65h79v-520q0 -46 -15.5 -83.5t-44 -63.5t-68 -40.5t-88.5 -14.5zM260 62q49 0 78 27.5t43 74.5v154q-4 19 -13.5 37.5t-24.5 33t-35.5 23.5t-46.5 9q-64 0 -97.5 -47t-33.5 -138q0 -78 33.5 -126
t96.5 -48z" />
    <glyph glyph-name="uni0122" unicode="&#x122;" horiz-adv-x="653" 
d="M350 -10q-144 0 -223.5 88.5t-79.5 269.5q0 82 21.5 148.5t61 113t96.5 71.5t127 25q60 0 104 -14t72.5 -39.5t42.5 -60t14 -75.5q0 -27 -5 -40h-85q1 5 1.5 11t0.5 23q0 54 -38.5 86t-108.5 32q-104 0 -156 -73t-52 -208q0 -134 54 -207.5t159 -73.5q64 0 102.5 15.5
t52.5 30.5v153h-160v84h249v-271q-14 -15 -37 -31t-54.5 -29t-71 -21t-87.5 -8zM292 -206q23 9 35 23t13 28q-26 1 -40 16.5t-14 41.5q0 25 17 42t42 17q29 0 46.5 -19t17.5 -51q0 -50 -26 -89t-65 -50z" />
    <glyph glyph-name="uni0123" unicode="&#x123;" horiz-adv-x="538" 
d="M268 540q-28 0 -45 18.5t-17 48.5q0 45 25 82.5t64 51.5l26 -41q-23 -8 -37.5 -19.5t-15.5 -23.5q24 0 41.5 -17t17.5 -41q0 -25 -17 -42t-42 -17zM253 -240q-72 0 -118 25.5t-69 65.5l59 48q17 -27 48 -46t83 -19q61 0 95 34t34 94v110q-17 -32 -53.5 -58t-97.5 -26
q-43 0 -79 18t-61.5 50.5t-39.5 78t-14 101.5t14.5 103t41.5 81.5t65 54t85 19.5q48 0 83.5 -20t60.5 -57v65h79v-520q0 -46 -15.5 -83.5t-44 -63.5t-68 -40.5t-88.5 -14.5zM260 62q49 0 78 27.5t43 74.5v154q-4 19 -13.5 37.5t-24.5 33t-35.5 23.5t-46.5 9q-64 0 -97.5 -47
t-33.5 -138q0 -78 33.5 -126t96.5 -48z" />
    <glyph glyph-name="Hcircumflex" unicode="&#x124;" horiz-adv-x="685" 
d="M294 876h99l87 -134h-80l-58 74l-58 -74h-78zM87 700h90v-304h331v304h90v-700h-90v312h-331v-312h-90v700z" />
    <glyph glyph-name="hcircumflex" unicode="&#x125;" horiz-adv-x="539" 
d="M61 876h99l87 -134h-80l-58 74l-58 -74h-78zM469 -3q-46 0 -68 27.5t-22 72.5v212q0 47 -25 78t-79 31q-30 0 -52.5 -11.5t-37 -29.5t-21.5 -40t-7 -43v-294h-88v726h88v-310q16 31 50.5 54.5t90.5 23.5q46 0 78 -15t52.5 -40.5t29.5 -60t9 -73.5v-192q0 -26 9.5 -37
t31.5 -11v-64q-5 -2 -16 -3t-23 -1z" />
    <glyph glyph-name="Hbar" unicode="&#x126;" horiz-adv-x="694" 
d="M666 506h-64v-506h-90v312h-331v-312h-90v506h-63v68h63v126h90v-126h331v126h90v-126h64v-68zM512 506h-331v-110h331v110z" />
    <glyph glyph-name="hbar" unicode="&#x127;" horiz-adv-x="539" 
d="M467 113q0 -26 9.5 -37t31.5 -11v-64q-5 -2 -16 -3t-23 -1q-46 0 -68 27.5t-22 72.5v212q0 47 -25 78t-79 31q-30 0 -52.5 -11.5t-37 -29.5t-21.5 -40t-7 -43v-294h-88v569h-82v77h82v80h88v-80h113v-77h-113v-153q16 31 50.5 54.5t90.5 23.5q46 0 78 -15t52.5 -40.5
t29.5 -60t9 -73.5v-192z" />
    <glyph glyph-name="Itilde" unicode="&#x128;" horiz-adv-x="264" 
d="M-10 746q-5 11 -8 22.5t-3 28.5q0 27 20.5 48t58.5 21q23 0 41 -6t33.5 -13.5t29.5 -13.5t27 -6q23 0 23 23q0 8 -2 13t-4 9h67q5 -11 8 -22.5t3 -28.5q0 -26 -20.5 -47.5t-66.5 -21.5q-22 0 -40 6t-33 13.5t-27.5 13.5t-24.5 6q-9 0 -15 -6t-6 -17q0 -8 2 -13t4 -9h-67z
M87 700h90v-700h-90v700z" />
    <glyph glyph-name="itilde" unicode="&#x129;" horiz-adv-x="230" 
d="M-25 572q-5 11 -8 22.5t-3 28.5q0 28 19.5 49t64.5 21q20 0 37 -6t32 -13.5t28.5 -14t26.5 -6.5q25 0 25 23q0 8 -2 13t-4 9h67q5 -11 8 -22.5t3 -28.5q0 -27 -19.5 -49t-64.5 -22q-23 0 -41 6.5t-33 14t-27 14t-23 6.5q-25 0 -25 -23q0 -8 2 -13t4 -9h-67zM71 482h88
v-482h-88v482z" />
    <glyph glyph-name="Imacron" unicode="&#x12a;" horiz-adv-x="264" 
d="M0 842h264v-73h-264v73zM87 700h90v-700h-90v700z" />
    <glyph glyph-name="imacron" unicode="&#x12b;" horiz-adv-x="230" 
d="M-12 671h254v-71h-254v71zM71 482h88v-482h-88v482z" />
    <glyph glyph-name="Ibreve" unicode="&#x12c;" horiz-adv-x="264" 
d="M130 742q-54 0 -88.5 35t-34.5 99h68q0 -27 14 -45t42 -18q29 0 43 18t14 45h68q0 -63 -36 -98.5t-90 -35.5zM87 700h90v-700h-90v700z" />
    <glyph glyph-name="ibreve" unicode="&#x12d;" horiz-adv-x="230" 
d="M115 566q-35 0 -59 10.5t-38.5 29t-21 43.5t-6.5 53h68q0 -67 56 -67q57 0 57 67h68q0 -28 -7 -53t-22 -43.5t-38.5 -29t-56.5 -10.5zM71 482h88v-482h-88v482z" />
    <glyph glyph-name="Iogonek" unicode="&#x12e;" horiz-adv-x="264" 
d="M206 -155q-12 -13 -32 -20t-43 -7q-47 0 -71.5 22t-24.5 63q0 27 13.5 53t38.5 47v697h90v-700q-29 -9 -47 -31.5t-18 -50.5q0 -20 9.5 -29t25.5 -9q10 0 17.5 3.5t12.5 7.5z" />
    <glyph glyph-name="iogonek" unicode="&#x12f;" horiz-adv-x="230" 
d="M115 580q-24 0 -41.5 17t-17.5 42q0 24 17.5 41.5t41.5 17.5t41.5 -17.5t17.5 -41.5q0 -25 -17.5 -42t-41.5 -17zM188 -155q-12 -13 -32 -20t-43 -7q-47 0 -71.5 22t-24.5 63q0 27 14 53.5t40 47.5v478h88v-482q-29 -9 -47 -31.5t-18 -50.5q0 -20 9.5 -29t25.5 -9
q10 0 17.5 3.5t12.5 7.5z" />
    <glyph glyph-name="Idotaccent" unicode="&#x130;" horiz-adv-x="264" 
d="M132 746q-26 0 -44.5 18.5t-18.5 44.5t18.5 44.5t44.5 18.5t44.5 -18.5t18.5 -44.5t-18.5 -44.5t-44.5 -18.5zM87 700h90v-700h-90v700z" />
    <glyph glyph-name="dotlessi" unicode="&#x131;" horiz-adv-x="230" 
d="M71 482h88v-482h-88v482z" />
    <glyph glyph-name="IJ" unicode="&#x132;" horiz-adv-x="727" 
d="M87 700h90v-700h-90v700zM443 -6q-64 0 -105.5 22.5t-67.5 54.5l58 63q22 -25 50.5 -43.5t67.5 -18.5q58 0 84.5 35t26.5 101v492h90v-486q0 -111 -53.5 -165.5t-150.5 -54.5z" />
    <glyph glyph-name="ij" unicode="&#x133;" horiz-adv-x="472" 
d="M115 580q-24 0 -41.5 17t-17.5 42q0 24 17.5 41.5t41.5 17.5t41.5 -17.5t17.5 -41.5q0 -25 -17.5 -42t-41.5 -17zM345 580q-24 0 -41.5 17t-17.5 42q0 24 17.5 41.5t41.5 17.5t41.5 -17.5t17.5 -41.5q0 -25 -17.5 -42t-41.5 -17zM71 482h88v-482h-88v482zM225 -247
q-23 0 -40 4.5t-29 9.5q-13 6 -22 14l27 61q6 -4 14 -8q8 -3 18 -5t23 -2q86 0 86 114v541h87v-545q0 -86 -39 -135t-125 -49z" />
    <glyph glyph-name="Jcircumflex" unicode="&#x134;" horiz-adv-x="470" 
d="M296 876h99l87 -134h-80l-58 74l-58 -74h-78zM186 -6q-64 0 -105.5 22.5t-67.5 54.5l58 63q22 -25 50.5 -43.5t67.5 -18.5q58 0 84.5 35t26.5 101v492h90v-486q0 -111 -53.5 -165.5t-150.5 -54.5z" />
    <glyph glyph-name="jcircumflex" unicode="&#x135;" horiz-adv-x="233" 
d="M71 726h92l88 -174h-78l-57 108l-57 -108h-77zM-2 -247q-23 0 -40 4.5t-29 9.5q-13 6 -22 14l27 61q6 -4 14 -8q8 -3 18 -5t23 -2q86 0 86 114v541h87v-545q0 -86 -39 -135t-125 -49z" />
    <glyph glyph-name="uni0136" unicode="&#x136;" horiz-adv-x="642" 
d="M632 81v-80q-8 -1 -17 -2q-8 -1 -17.5 -1.5t-20.5 -0.5q-46 0 -77 23t-53.5 58t-41 75.5t-41 75.5t-52 58t-73.5 23h-62v-310h-90v700h90v-312h81q36 0 75 15t71 51t53 96t21 150h90q0 -68 -14 -124t-39 -100t-58.5 -76.5t-72.5 -53.5q25 -16 43.5 -42t34.5 -55.5t30 -59
t29.5 -54t34.5 -39.5t43 -15h33zM334 -38q29 0 46.5 -19t17.5 -51q0 -50 -26 -89t-65 -50l-26 41q23 9 35 23t13 28q-26 1 -40 16.5t-14 41.5q0 25 17 42t42 17z" />
    <glyph glyph-name="uni0137" unicode="&#x137;" horiz-adv-x="503" 
d="M492 65v-62q-5 -2 -11 -3q-5 -1 -11.5 -2t-14.5 -1q-47 0 -74 15.5t-43.5 39.5t-28 51t-27.5 51t-42.5 39.5t-72.5 15.5h-10v-209h-88v726h88v-444h35q46 0 76.5 14t49.5 40t27.5 63t9.5 83h83q-1 -26 -5.5 -59.5t-18 -67.5t-38 -65t-66.5 -52q34 -19 50.5 -48.5
t30.5 -57t33 -47.5t58 -20h10zM270 -38q29 0 46.5 -19t17.5 -51q0 -50 -26 -89t-65 -50l-26 41q23 9 35 23t13 28q-26 1 -40 16.5t-14 41.5q0 25 17 42t42 17z" />
    <glyph glyph-name="kgreenlandic" unicode="&#x138;" horiz-adv-x="503" 
d="M492 65v-62q-5 -2 -11 -3q-5 -1 -11.5 -2t-14.5 -1q-47 0 -74 15.5t-43.5 38t-28 49.5t-27.5 49.5t-42.5 38t-72.5 15.5h-10v-203h-88v482h88v-206h35q46 0 76.5 15t49.5 42t28 65t10 84h83q-1 -26 -6 -60t-18.5 -69.5t-38.5 -67.5t-67 -53q35 -18 51.5 -46.5t30.5 -55.5
t33 -46t58 -19h10z" />
    <glyph glyph-name="Lacute" unicode="&#x139;" horiz-adv-x="532" 
d="M182 876h116l-112 -134h-88zM87 700h91v-621h339v-79h-430v700z" />
    <glyph glyph-name="lacute" unicode="&#x13a;" horiz-adv-x="238" 
d="M129 892h116l-112 -134h-88zM160 -3q-44 0 -67 23.5t-23 78.5v627h88v-613q0 -26 10 -35t33 -9v-68q-7 -2 -18 -3t-23 -1z" />
    <glyph glyph-name="uni013B" unicode="&#x13b;" horiz-adv-x="532" 
d="M87 700h91v-621h339v-79h-430v700zM266 -206q23 9 35 23t13 28q-26 1 -40 16.5t-14 41.5q0 25 17 42t42 17q29 0 46.5 -19t17.5 -51q0 -50 -26 -89t-65 -50z" />
    <glyph glyph-name="uni013C" unicode="&#x13c;" horiz-adv-x="238" 
d="M160 -3q-44 0 -67 23.5t-23 78.5v627h88v-613q0 -26 10 -35t33 -9v-68q-7 -2 -18 -3t-23 -1zM81 -206q23 9 35 23t13 28q-26 1 -40 16.5t-14 41.5q0 25 17 42t42 17q29 0 46.5 -19t17.5 -51q0 -50 -26 -89t-65 -50z" />
    <glyph glyph-name="Lcaron" unicode="&#x13d;" horiz-adv-x="536" 
d="M352 541q20 7 34 20t15 27q-23 0 -39 16.5t-16 41.5t17 42t42 17q29 0 47 -19t18 -48q0 -49 -26 -88t-66 -50zM87 700h91v-621h339v-79h-430v700z" />
    <glyph glyph-name="lcaron" unicode="&#x13e;" horiz-adv-x="241" 
d="M205 571q20 7 34 20t15 27q-23 0 -39 16.5t-16 41.5t17 42t42 17q29 0 47 -19t18 -48q0 -49 -26 -88t-66 -50zM160 -3q-44 0 -67 23.5t-23 78.5v627h88v-613q0 -26 10 -35t33 -9v-68q-7 -2 -18 -3t-23 -1z" />
    <glyph glyph-name="Ldot" unicode="&#x13f;" horiz-adv-x="534" 
d="M87 700h91v-621h339v-79h-430v700zM398 336q-25 0 -42 17t-17 41t17 41.5t42 17.5q24 0 41 -17.5t17 -41.5t-17 -41t-41 -17z" />
    <glyph glyph-name="ldot" unicode="&#x140;" horiz-adv-x="295" 
d="M160 -3q-44 0 -67 23.5t-23 78.5v627h88v-613q0 -26 10 -35t33 -9v-68q-7 -2 -18 -3t-23 -1zM262 324q-25 0 -42 17t-17 41t17 41.5t42 17.5q24 0 41 -17.5t17 -41.5t-17 -41t-41 -17z" />
    <glyph glyph-name="Lslash" unicode="&#x141;" horiz-adv-x="551" 
d="M536 79v-79h-430v270l-77 -44l-36 66l113 64v344h91v-292l101 57l37 -65l-138 -78v-243h339z" />
    <glyph glyph-name="lslash" unicode="&#x142;" horiz-adv-x="318" 
d="M204 113q0 -26 10 -35t33 -9v-68q-7 -2 -18 -3t-23 -1q-44 0 -67 23.5t-23 78.5v210l-73 -43l-32 58l105 61v341h88v-290l67 39l33 -57l-100 -58v-247z" />
    <glyph glyph-name="Nacute" unicode="&#x143;" horiz-adv-x="673" 
d="M374 876h116l-112 -134h-88zM87 700h77l324 -521l13 -29v550h85v-700h-77l-325 520l-12 27v-547h-85v700z" />
    <glyph glyph-name="nacute" unicode="&#x144;" horiz-adv-x="548" 
d="M302 726h107l-112 -174h-79zM478 -3q-46 0 -68 27.5t-22 72.5v207q0 56 -26.5 85.5t-76.5 29.5q-54 0 -86.5 -36t-32.5 -94v-289h-88v373q0 26 -9.5 37t-31.5 11v64q5 2 16 3t23 1q38 0 59 -22t21 -64v-3q20 46 59 70t93 24q81 0 124.5 -49t43.5 -140v-192q0 -26 9.5 -37
t31.5 -11v-64q-5 -2 -16 -3t-23 -1z" />
    <glyph glyph-name="uni0145" unicode="&#x145;" horiz-adv-x="673" 
d="M87 700h77l324 -521l13 -29v550h85v-700h-77l-325 520l-12 27v-547h-85v700zM284 -206q23 9 35 23t13 28q-26 1 -40 16.5t-14 41.5q0 25 17 42t42 17q29 0 46.5 -19t17.5 -51q0 -50 -26 -89t-65 -50z" />
    <glyph glyph-name="uni0146" unicode="&#x146;" horiz-adv-x="548" 
d="M478 -3q-46 0 -68 27.5t-22 72.5v207q0 56 -26.5 85.5t-76.5 29.5q-54 0 -86.5 -36t-32.5 -94v-289h-88v373q0 26 -9.5 37t-31.5 11v64q5 2 16 3t23 1q38 0 59 -22t21 -64v-3q20 46 59 70t93 24q81 0 124.5 -49t43.5 -140v-192q0 -26 9.5 -37t31.5 -11v-64q-5 -2 -16 -3
t-23 -1zM247 -206q23 9 35 23t13 28q-26 1 -40 16.5t-14 41.5q0 25 17 42t42 17q29 0 46.5 -19t17.5 -51q0 -50 -26 -89t-65 -50z" />
    <glyph glyph-name="Ncaron" unicode="&#x147;" horiz-adv-x="673" 
d="M211 876h80l58 -74l58 74h78l-88 -134h-99zM87 700h77l324 -521l13 -29v550h85v-700h-77l-325 520l-12 27v-547h-85v700z" />
    <glyph glyph-name="ncaron" unicode="&#x148;" horiz-adv-x="548" 
d="M138 726h78l57 -108l57 108h77l-89 -174h-92zM478 -3q-46 0 -68 27.5t-22 72.5v207q0 56 -26.5 85.5t-76.5 29.5q-54 0 -86.5 -36t-32.5 -94v-289h-88v373q0 26 -9.5 37t-31.5 11v64q5 2 16 3t23 1q38 0 59 -22t21 -64v-3q20 46 59 70t93 24q81 0 124.5 -49t43.5 -140
v-192q0 -26 9.5 -37t31.5 -11v-64q-5 -2 -16 -3t-23 -1z" />
    <glyph glyph-name="napostrophe" unicode="&#x149;" horiz-adv-x="641" 
d="M20 585q12 4 22 10q9 5 16 11.5t7 15.5q-20 0 -34.5 14.5t-14.5 35.5q0 20 14 34.5t35 14.5t37 -14.5t16 -42.5q0 -35 -12 -57.5t-26 -34.5q-17 -15 -38 -22zM570 -3q-42 0 -66 25t-24 81v196q0 51 -25 83t-80 32q-30 0 -52.5 -13.5t-36.5 -33.5t-21 -44.5t-7 -47.5v-275
h-88v370q0 22 -8.5 34.5t-32.5 12.5v64q4 1 10 2t13 1.5t17 0.5q32 0 55.5 -19t23.5 -54v-25q6 20 17.5 38t30 32t44 22.5t59.5 8.5q46 0 78 -15t52.5 -40.5t30 -60t9.5 -73.5v-186q0 -23 8.5 -35.5t32.5 -12.5v-64q-4 -1 -10 -2t-13 -1.5t-17 -0.5z" />
    <glyph glyph-name="Eng" unicode="&#x14a;" horiz-adv-x="673" 
d="M586 700v-726q0 -91 -44 -140t-127 -49q-41 0 -70 10.5t-46 29.5l52 70q11 -11 27.5 -18.5t40.5 -7.5q35 0 57 24.5t22 75.5v49l-314 502l-12 27v-547h-85v700h77l324 -521l13 -29v550h85z" />
    <glyph glyph-name="eng" unicode="&#x14b;" horiz-adv-x="535" 
d="M308 494q81 0 124.5 -49t43.5 -140v-331q0 -91 -44 -140t-127 -49q-41 0 -70 10.5t-46 29.5l52 70q11 -11 27.5 -18.5t40.5 -7.5q35 0 57 24.5t22 75.5v335q0 56 -26.5 85.5t-76.5 29.5q-54 0 -86.5 -36t-32.5 -94v-289h-88v373q0 26 -9.5 37t-31.5 11v64q5 2 16 3t23 1
q38 0 59 -22t21 -64v-3q20 46 59 70t93 24z" />
    <glyph glyph-name="Omacron" unicode="&#x14c;" horiz-adv-x="712" 
d="M224 842h264v-73h-264v73zM353 -6q-62 0 -117.5 19.5t-97.5 61.5t-67 109t-25 162q0 93 26 161t69 112.5t100 65.5t118 21q62 0 117.5 -20t97.5 -62.5t67 -110t25 -163.5q0 -93 -26 -160t-69 -110.5t-99.5 -64.5t-118.5 -21zM353 71q42 0 81.5 14.5t69.5 47.5t48.5 86
t18.5 130q0 80 -17.5 133.5t-47 86t-67.5 46.5t-80 14t-81.5 -14.5t-69.5 -47.5t-48.5 -87t-18.5 -133q0 -78 17.5 -131t46.5 -85.5t67.5 -46t80.5 -13.5z" />
    <glyph glyph-name="omacron" unicode="&#x14d;" horiz-adv-x="522" 
d="M134 671h254v-71h-254v71zM258 -12q-102 0 -159.5 66.5t-57.5 186.5q0 60 16 107t45 79.5t70 49.5t92 17q101 0 159 -66.5t58 -186.5q0 -59 -16 -106t-45 -79.5t-70 -50t-92 -17.5zM261 61q61 0 95.5 45t34.5 135t-35 135t-95 45t-95 -45t-35 -135t35 -135t95 -45z" />
    <glyph glyph-name="Obreve" unicode="&#x14e;" horiz-adv-x="712" 
d="M354 742q-54 0 -88.5 35t-34.5 99h68q0 -27 14 -45t42 -18q29 0 43 18t14 45h68q0 -63 -36 -98.5t-90 -35.5zM353 -6q-62 0 -117.5 19.5t-97.5 61.5t-67 109t-25 162q0 93 26 161t69 112.5t100 65.5t118 21q62 0 117.5 -20t97.5 -62.5t67 -110t25 -163.5q0 -93 -26 -160
t-69 -110.5t-99.5 -64.5t-118.5 -21zM353 71q42 0 81.5 14.5t69.5 47.5t48.5 86t18.5 130q0 80 -17.5 133.5t-47 86t-67.5 46.5t-80 14t-81.5 -14.5t-69.5 -47.5t-48.5 -87t-18.5 -133q0 -78 17.5 -131t46.5 -85.5t67.5 -46t80.5 -13.5z" />
    <glyph glyph-name="obreve" unicode="&#x14f;" horiz-adv-x="522" 
d="M261 566q-35 0 -59 10.5t-38.5 29t-21 43.5t-6.5 53h68q0 -67 56 -67q57 0 57 67h68q0 -28 -7 -53t-22 -43.5t-38.5 -29t-56.5 -10.5zM258 -12q-102 0 -159.5 66.5t-57.5 186.5q0 60 16 107t45 79.5t70 49.5t92 17q101 0 159 -66.5t58 -186.5q0 -59 -16 -106t-45 -79.5
t-70 -50t-92 -17.5zM261 61q61 0 95.5 45t34.5 135t-35 135t-95 45t-95 -45t-35 -135t35 -135t95 -45z" />
    <glyph glyph-name="Ohungarumlaut" unicode="&#x150;" horiz-adv-x="712" 
d="M274 876h112l-97 -134h-79zM442 876h112l-97 -134h-78zM353 -6q-62 0 -117.5 19.5t-97.5 61.5t-67 109t-25 162q0 93 26 161t69 112.5t100 65.5t118 21q62 0 117.5 -20t97.5 -62.5t67 -110t25 -163.5q0 -93 -26 -160t-69 -110.5t-99.5 -64.5t-118.5 -21zM353 71
q42 0 81.5 14.5t69.5 47.5t48.5 86t18.5 130q0 80 -17.5 133.5t-47 86t-67.5 46.5t-80 14t-81.5 -14.5t-69.5 -47.5t-48.5 -87t-18.5 -133q0 -78 17.5 -131t46.5 -85.5t67.5 -46t80.5 -13.5z" />
    <glyph glyph-name="ohungarumlaut" unicode="&#x151;" horiz-adv-x="522" 
d="M194 726h103l-102 -174h-75zM362 726h103l-102 -174h-74zM258 -12q-102 0 -159.5 66.5t-57.5 186.5q0 60 16 107t45 79.5t70 49.5t92 17q101 0 159 -66.5t58 -186.5q0 -59 -16 -106t-45 -79.5t-70 -50t-92 -17.5zM261 61q61 0 95.5 45t34.5 135t-35 135t-95 45t-95 -45
t-35 -135t35 -135t95 -45z" />
    <glyph glyph-name="OE" unicode="&#x152;" horiz-adv-x="1020" 
d="M347 -6q-70 0 -125.5 24.5t-94.5 70.5t-60 112t-21 148q0 83 21 149t60 112t94.5 71t125.5 25q34 0 66.5 -7.5t60.5 -22t49.5 -34.5t33.5 -45v103h419v-84h-328v-217h273v-84h-273v-232h328v-83h-419v107q-13 -27 -35 -48t-50 -35.5t-60 -22t-65 -7.5zM347 73
q98 0 153.5 73t55.5 203q0 131 -55 204.5t-154 73.5t-153 -72.5t-54 -205.5q0 -131 54.5 -203.5t152.5 -72.5z" />
    <glyph glyph-name="oe" unicode="&#x153;" horiz-adv-x="825" 
d="M255 -6q-99 0 -156.5 65t-57.5 182t57.5 182t156.5 65q55 0 97.5 -22t71.5 -64q54 86 174 86q51 0 86.5 -16.5t57 -46t31.5 -69.5t10 -87v-33h-312v-8q2 -48 16 -79t35 -49t45 -25t45 -7q33 0 56.5 10.5t38.5 23.5q18 14 30 33l49 -49q-16 -26 -41 -46
q-24 -19 -58.5 -32.5t-85.5 -13.5q-52 0 -98 20.5t-77 68.5q-28 -43 -71 -66t-100 -23zM255 68q58 0 92.5 43t34.5 130t-35 130t-92 43t-92 -43t-35 -130t35 -130t92 -43zM699 297q0 50 -24 83.5t-82 33.5q-48 0 -80 -27.5t-40 -89.5h226z" />
    <glyph glyph-name="Racute" unicode="&#x154;" horiz-adv-x="639" 
d="M343 876h116l-112 -134h-88zM561 -3q-40 0 -66.5 21.5t-46 53t-35.5 69t-35 69t-44 53t-63 21.5h-94v-284h-90v700h229q116 0 180 -52t64 -158q0 -73 -43.5 -119.5t-108.5 -60.5q23 -12 39 -33.5t29 -47t24.5 -52t24.5 -48t30 -35.5t41 -14h29v-79q-9 -1 -19 -2t-21 -1.5
t-24 -0.5zM303 355q35 0 65 8.5t52 25t34.5 41.5t12.5 57q0 63 -40 99.5t-115 36.5h-135v-268h126z" />
    <glyph glyph-name="racute" unicode="&#x155;" horiz-adv-x="363" 
d="M236 726h107l-112 -174h-79zM78 373q0 26 -9.5 37t-31.5 11v64q5 2 16 3t23 1q38 0 59 -21t21 -57v-9q14 43 51.5 67.5t88.5 24.5q19 0 37.5 -4.5t28.5 -12.5l-36 -82q-8 5 -22 8.5t-30 3.5q-27 0 -47 -11.5t-33.5 -31t-20.5 -45t-7 -54.5v-265h-88v373z" />
    <glyph glyph-name="uni0156" unicode="&#x156;" horiz-adv-x="639" 
d="M561 -3q-40 0 -66.5 21.5t-46 53t-35.5 69t-35 69t-44 53t-63 21.5h-94v-284h-90v700h229q116 0 180 -52t64 -158q0 -73 -43.5 -119.5t-108.5 -60.5q23 -12 39 -33.5t29 -47t24.5 -52t24.5 -48t30 -35.5t41 -14h29v-79q-9 -1 -19 -2t-21 -1.5t-24 -0.5zM303 355
q35 0 65 8.5t52 25t34.5 41.5t12.5 57q0 63 -40 99.5t-115 36.5h-135v-268h126zM283 -206q23 9 35 23t13 28q-26 1 -40 16.5t-14 41.5q0 25 17 42t42 17q29 0 46.5 -19t17.5 -51q0 -50 -26 -89t-65 -50z" />
    <glyph glyph-name="uni0157" unicode="&#x157;" horiz-adv-x="363" 
d="M78 373q0 26 -9.5 37t-31.5 11v64q5 2 16 3t23 1q38 0 59 -21t21 -57v-9q14 43 51.5 67.5t88.5 24.5q19 0 37.5 -4.5t28.5 -12.5l-36 -82q-8 5 -22 8.5t-30 3.5q-27 0 -47 -11.5t-33.5 -31t-20.5 -45t-7 -54.5v-265h-88v373zM71 -206q23 9 35 23t13 28q-26 1 -40 16.5
t-14 41.5q0 25 17 42t42 17q29 0 46.5 -19t17.5 -51q0 -50 -26 -89t-65 -50z" />
    <glyph glyph-name="Rcaron" unicode="&#x158;" horiz-adv-x="639" 
d="M180 876h80l58 -74l58 74h78l-88 -134h-99zM561 -3q-40 0 -66.5 21.5t-46 53t-35.5 69t-35 69t-44 53t-63 21.5h-94v-284h-90v700h229q116 0 180 -52t64 -158q0 -73 -43.5 -119.5t-108.5 -60.5q23 -12 39 -33.5t29 -47t24.5 -52t24.5 -48t30 -35.5t41 -14h29v-79
q-9 -1 -19 -2t-21 -1.5t-24 -0.5zM303 355q35 0 65 8.5t52 25t34.5 41.5t12.5 57q0 63 -40 99.5t-115 36.5h-135v-268h126z" />
    <glyph glyph-name="rcaron" unicode="&#x159;" horiz-adv-x="363" 
d="M72 726h78l57 -108l57 108h77l-89 -174h-92zM78 373q0 26 -9.5 37t-31.5 11v64q5 2 16 3t23 1q38 0 59 -21t21 -57v-9q14 43 51.5 67.5t88.5 24.5q19 0 37.5 -4.5t28.5 -12.5l-36 -82q-8 5 -22 8.5t-30 3.5q-27 0 -47 -11.5t-33.5 -31t-20.5 -45t-7 -54.5v-265h-88v373z
" />
    <glyph glyph-name="Sacute" unicode="&#x15a;" horiz-adv-x="580" 
d="M308 876h116l-112 -134h-88zM285 -6q-93 0 -157 30t-99 88l68 54q27 -46 76 -70.5t113 -24.5q82 0 123 29t41 82t-40 84.5t-137 52.5q-52 11 -93 27t-69 39t-42.5 54.5t-14.5 74.5q0 44 17.5 79.5t48.5 60.5t75 38.5t96 13.5q45 0 86.5 -9.5t74 -30.5t51.5 -54.5
t19 -81.5q0 -8 -1 -16.5t-4 -18.5l-86 1q3 17 3 28q0 27 -11.5 47t-31 33t-45.5 19t-55 6q-72 0 -110 -29t-38 -81q0 -25 9.5 -43t30.5 -31.5t55 -24.5t83 -23q60 -15 102 -33.5t67.5 -43t37 -56.5t11.5 -74q0 -92 -66.5 -144t-187.5 -52z" />
    <glyph glyph-name="sacute" unicode="&#x15b;" horiz-adv-x="467" 
d="M265 726h107l-112 -174h-79zM232 -12q-69 0 -122.5 22t-83.5 70l61 53q30 -43 65.5 -57.5t79.5 -14.5q57 0 84 16.5t27 48.5q0 20 -10.5 32.5t-28 20.5t-40.5 13.5t-48 10.5q-29 6 -58.5 15.5t-53.5 26t-39 42t-15 63.5q0 66 49 105t137 39q85 0 134 -36t49 -103
q0 -11 -2 -23t-6 -22h-78q2 7 3.5 17.5t1.5 20.5q0 35 -27.5 54t-76.5 19q-51 0 -75 -17.5t-24 -50.5q0 -19 10.5 -32t28.5 -21t41.5 -13.5t48.5 -11.5q29 -6 58.5 -15t53 -25t38 -40t14.5 -62q0 -72 -52.5 -108.5t-143.5 -36.5z" />
    <glyph glyph-name="Scircumflex" unicode="&#x15c;" horiz-adv-x="580" 
d="M232 876h99l87 -134h-80l-58 74l-58 -74h-78zM285 -6q-93 0 -157 30t-99 88l68 54q27 -46 76 -70.5t113 -24.5q82 0 123 29t41 82t-40 84.5t-137 52.5q-52 11 -93 27t-69 39t-42.5 54.5t-14.5 74.5q0 44 17.5 79.5t48.5 60.5t75 38.5t96 13.5q45 0 86.5 -9.5t74 -30.5
t51.5 -54.5t19 -81.5q0 -8 -1 -16.5t-4 -18.5l-86 1q3 17 3 28q0 27 -11.5 47t-31 33t-45.5 19t-55 6q-72 0 -110 -29t-38 -81q0 -25 9.5 -43t30.5 -31.5t55 -24.5t83 -23q60 -15 102 -33.5t67.5 -43t37 -56.5t11.5 -74q0 -92 -66.5 -144t-187.5 -52z" />
    <glyph glyph-name="scircumflex" unicode="&#x15d;" horiz-adv-x="467" 
d="M189 726h92l88 -174h-78l-57 108l-57 -108h-77zM232 -12q-69 0 -122.5 22t-83.5 70l61 53q30 -43 65.5 -57.5t79.5 -14.5q57 0 84 16.5t27 48.5q0 20 -10.5 32.5t-28 20.5t-40.5 13.5t-48 10.5q-29 6 -58.5 15.5t-53.5 26t-39 42t-15 63.5q0 66 49 105t137 39
q85 0 134 -36t49 -103q0 -11 -2 -23t-6 -22h-78q2 7 3.5 17.5t1.5 20.5q0 35 -27.5 54t-76.5 19q-51 0 -75 -17.5t-24 -50.5q0 -19 10.5 -32t28.5 -21t41.5 -13.5t48.5 -11.5q29 -6 58.5 -15t53 -25t38 -40t14.5 -62q0 -72 -52.5 -108.5t-143.5 -36.5z" />
    <glyph glyph-name="Scedilla" unicode="&#x15e;" horiz-adv-x="580" 
d="M539 190q0 -84 -55.5 -135t-158.5 -59l-11 -35q15 -2 29.5 -7t25.5 -14.5t18 -23.5t7 -34q0 -42 -32.5 -63.5t-80.5 -21.5q-26 0 -49.5 7.5t-38.5 22.5l28 52q26 -21 56 -21q15 0 24.5 6t9.5 20q0 17 -20.5 26.5t-51.5 11.5l26 72q-169 8 -236 118l68 54q27 -46 76 -70.5
t113 -24.5q82 0 123 29t41 82t-40 84.5t-137 52.5q-52 11 -93 27t-69 39t-42.5 54.5t-14.5 74.5q0 44 17.5 79.5t48.5 60.5t75 38.5t96 13.5q45 0 86.5 -9.5t74 -30.5t51.5 -54.5t19 -81.5q0 -8 -1 -16.5t-4 -18.5l-86 1q3 17 3 28q0 27 -11.5 47t-31 33t-45.5 19t-55 6
q-72 0 -110 -29t-38 -81q0 -25 9.5 -43t30.5 -31.5t55 -24.5t83 -23q60 -15 102 -33.5t67.5 -43t37 -56.5t11.5 -74z" />
    <glyph glyph-name="scedilla" unicode="&#x15f;" horiz-adv-x="467" 
d="M428 133q0 -63 -41 -99t-114 -44l-9 -29q15 -2 29.5 -7t25.5 -14.5t18 -23.5t7 -34q0 -42 -32.5 -63.5t-80.5 -21.5q-26 0 -49.5 7.5t-38.5 22.5l28 52q26 -21 56 -21q15 0 24.5 6t9.5 20q0 17 -20.5 26.5t-51.5 11.5l24 66q-62 3 -110.5 25t-76.5 67l61 53
q30 -43 65.5 -57.5t79.5 -14.5q57 0 84 16.5t27 48.5q0 20 -10.5 32.5t-28 20.5t-40.5 13.5t-48 10.5q-29 6 -58.5 15.5t-53.5 26t-39 42t-15 63.5q0 66 49 105t137 39q85 0 134 -36t49 -103q0 -11 -2 -23t-6 -22h-78q2 7 3.5 17.5t1.5 20.5q0 35 -27.5 54t-76.5 19
q-51 0 -75 -17.5t-24 -50.5q0 -19 10.5 -32t28.5 -21t41.5 -13.5t48.5 -11.5q29 -6 58.5 -15t53 -25t38 -40t14.5 -62z" />
    <glyph glyph-name="Scaron" unicode="&#x160;" horiz-adv-x="580" 
d="M145 876h80l58 -74l58 74h78l-88 -134h-99zM285 -6q-93 0 -157 30t-99 88l68 54q27 -46 76 -70.5t113 -24.5q82 0 123 29t41 82t-40 84.5t-137 52.5q-52 11 -93 27t-69 39t-42.5 54.5t-14.5 74.5q0 44 17.5 79.5t48.5 60.5t75 38.5t96 13.5q45 0 86.5 -9.5t74 -30.5
t51.5 -54.5t19 -81.5q0 -8 -1 -16.5t-4 -18.5l-86 1q3 17 3 28q0 27 -11.5 47t-31 33t-45.5 19t-55 6q-72 0 -110 -29t-38 -81q0 -25 9.5 -43t30.5 -31.5t55 -24.5t83 -23q60 -15 102 -33.5t67.5 -43t37 -56.5t11.5 -74q0 -92 -66.5 -144t-187.5 -52z" />
    <glyph glyph-name="scaron" unicode="&#x161;" horiz-adv-x="467" 
d="M101 726h78l57 -108l57 108h77l-89 -174h-92zM232 -12q-69 0 -122.5 22t-83.5 70l61 53q30 -43 65.5 -57.5t79.5 -14.5q57 0 84 16.5t27 48.5q0 20 -10.5 32.5t-28 20.5t-40.5 13.5t-48 10.5q-29 6 -58.5 15.5t-53.5 26t-39 42t-15 63.5q0 66 49 105t137 39q85 0 134 -36
t49 -103q0 -11 -2 -23t-6 -22h-78q2 7 3.5 17.5t1.5 20.5q0 35 -27.5 54t-76.5 19q-51 0 -75 -17.5t-24 -50.5q0 -19 10.5 -32t28.5 -21t41.5 -13.5t48.5 -11.5q29 -6 58.5 -15t53 -25t38 -40t14.5 -62q0 -72 -52.5 -108.5t-143.5 -36.5z" />
    <glyph glyph-name="uni0162" unicode="&#x162;" horiz-adv-x="542" 
d="M307 0l-13 -39q15 -2 29.5 -7t25.5 -14.5t18 -23.5t7 -34q0 -42 -32.5 -63.5t-80.5 -21.5q-26 0 -49.5 7.5t-38.5 22.5l28 52q26 -21 56 -21q15 0 24.5 6t9.5 20q0 17 -20.5 26.5t-51.5 11.5l29 78h-22v616h-210v84h510v-84h-210v-616h-9z" />
    <glyph glyph-name="uni0163" unicode="&#x163;" horiz-adv-x="405" 
d="M274 -39q15 -2 29.5 -7t25.5 -14.5t18 -23.5t7 -34q0 -42 -32.5 -63.5t-80.5 -21.5q-26 0 -49.5 7.5t-38.5 22.5l28 52q26 -21 56 -21q15 0 24.5 6t9.5 20q0 17 -20.5 26.5t-51.5 11.5l28 76q-121 22 -121 182v226h-90v76h94l-1 140h85v-140h182v-76h-182v-223
q0 -56 22 -82t67 -26q26 0 48 10t37 22l35 -68q-20 -17 -52 -30t-66 -15z" />
    <glyph glyph-name="Tcaron" unicode="&#x164;" horiz-adv-x="542" 
d="M132 876h80l58 -74l58 74h78l-88 -134h-99zM226 616h-210v84h510v-84h-210v-616h-90v616z" />
    <glyph glyph-name="tcaron" unicode="&#x165;" horiz-adv-x="405" 
d="M280 571q20 7 34 20t15 27q-23 0 -39 16.5t-16 41.5t17 42t42 17q29 0 47 -19t18 -48q0 -49 -26 -88t-66 -50zM273 -6q-86 0 -126.5 45t-40.5 141v226h-90v76h94l-1 140h85v-140h182v-76h-182v-223q0 -56 22 -82t67 -26q26 0 48 10t37 22l35 -68q-21 -19 -57.5 -32
t-72.5 -13z" />
    <glyph glyph-name="Tbar" unicode="&#x166;" horiz-adv-x="549" 
d="M320 616v-246h93v-77h-93v-293h-90v293h-100v77h100v246h-210v84h510v-84h-210z" />
    <glyph glyph-name="tbar" unicode="&#x167;" horiz-adv-x="409" 
d="M407 39q-21 -19 -57.5 -32t-72.5 -13q-86 0 -126.5 45t-40.5 141v46h-71v77h71v103h-90v76h94l-1 140h85v-140h182v-76h-182v-103h124v-77h-124v-43q0 -56 22 -82t67 -26q26 0 48 10t37 22z" />
    <glyph glyph-name="Utilde" unicode="&#x168;" horiz-adv-x="671" 
d="M195 746q-5 11 -8 22.5t-3 28.5q0 27 20.5 48t58.5 21q23 0 41 -6t33.5 -13.5t29.5 -13.5t27 -6q23 0 23 23q0 8 -2 13t-4 9h67q5 -11 8 -22.5t3 -28.5q0 -26 -20.5 -47.5t-66.5 -21.5q-22 0 -40 6t-33 13.5t-27.5 13.5t-24.5 6q-9 0 -15 -6t-6 -17q0 -8 2 -13t4 -9h-67z
M337 -6q-54 0 -101.5 14.5t-82 48.5t-54.5 90t-20 140v413h90v-419q0 -107 43.5 -157.5t124.5 -50.5t124 50.5t43 157.5v419h88v-413q0 -84 -19.5 -140t-53.5 -90t-81 -48.5t-101 -14.5z" />
    <glyph glyph-name="utilde" unicode="&#x169;" horiz-adv-x="538" 
d="M130 572q-5 11 -8 22.5t-3 28.5q0 28 19.5 49t64.5 21q20 0 37 -6t32 -13.5t28.5 -14t26.5 -6.5q25 0 25 23q0 8 -2 13t-4 9h67q5 -11 8 -22.5t3 -28.5q0 -27 -19.5 -49t-64.5 -22q-23 0 -41 6.5t-33 14t-27 14t-23 6.5q-25 0 -25 -23q0 -8 2 -13t4 -9h-67zM229 -12
q-78 0 -121.5 45t-43.5 130v319h88v-308q0 -63 27.5 -87.5t75.5 -24.5q31 0 53 12t36.5 30.5t21 40.5t6.5 43v294h88v-368q0 -23 8.5 -36t32.5 -13v-64q-4 -1 -10 -2t-13 -1.5t-17 -0.5q-38 0 -58.5 20t-20.5 58v6q-8 -18 -20.5 -34.5t-30.5 -29.5t-43 -21t-59 -8z" />
    <glyph glyph-name="Umacron" unicode="&#x16a;" horiz-adv-x="671" 
d="M205 842h264v-73h-264v73zM337 -6q-54 0 -101.5 14.5t-82 48.5t-54.5 90t-20 140v413h90v-419q0 -107 43.5 -157.5t124.5 -50.5t124 50.5t43 157.5v419h88v-413q0 -84 -19.5 -140t-53.5 -90t-81 -48.5t-101 -14.5z" />
    <glyph glyph-name="umacron" unicode="&#x16b;" horiz-adv-x="538" 
d="M143 671h254v-71h-254v71zM229 -12q-78 0 -121.5 45t-43.5 130v319h88v-308q0 -63 27.5 -87.5t75.5 -24.5q31 0 53 12t36.5 30.5t21 40.5t6.5 43v294h88v-368q0 -23 8.5 -36t32.5 -13v-64q-4 -1 -10 -2t-13 -1.5t-17 -0.5q-38 0 -58.5 20t-20.5 58v6q-8 -18 -20.5 -34.5
t-30.5 -29.5t-43 -21t-59 -8z" />
    <glyph glyph-name="Ubreve" unicode="&#x16c;" horiz-adv-x="671" 
d="M335 742q-54 0 -88.5 35t-34.5 99h68q0 -27 14 -45t42 -18q29 0 43 18t14 45h68q0 -63 -36 -98.5t-90 -35.5zM337 -6q-54 0 -101.5 14.5t-82 48.5t-54.5 90t-20 140v413h90v-419q0 -107 43.5 -157.5t124.5 -50.5t124 50.5t43 157.5v419h88v-413q0 -84 -19.5 -140
t-53.5 -90t-81 -48.5t-101 -14.5z" />
    <glyph glyph-name="ubreve" unicode="&#x16d;" horiz-adv-x="538" 
d="M270 566q-35 0 -59 10.5t-38.5 29t-21 43.5t-6.5 53h68q0 -67 56 -67q57 0 57 67h68q0 -28 -7 -53t-22 -43.5t-38.5 -29t-56.5 -10.5zM229 -12q-78 0 -121.5 45t-43.5 130v319h88v-308q0 -63 27.5 -87.5t75.5 -24.5q31 0 53 12t36.5 30.5t21 40.5t6.5 43v294h88v-368
q0 -23 8.5 -36t32.5 -13v-64q-4 -1 -10 -2t-13 -1.5t-17 -0.5q-38 0 -58.5 20t-20.5 58v6q-8 -18 -20.5 -34.5t-30.5 -29.5t-43 -21t-59 -8z" />
    <glyph glyph-name="Uring" unicode="&#x16e;" horiz-adv-x="671" 
d="M337 701q-24 0 -44.5 8.5t-36 23.5t-24 35.5t-8.5 44.5q0 48 32.5 80.5t80.5 32.5q24 0 44.5 -8.5t35.5 -24t23.5 -36t8.5 -44.5t-8.5 -44.5t-23.5 -35.5t-35.5 -23.5t-44.5 -8.5zM337 764q20 0 33 13.5t13 35.5t-13 35t-33 13q-22 0 -34 -13t-12 -35t12 -35.5t34 -13.5z
M337 -6q-54 0 -101.5 14.5t-82 48.5t-54.5 90t-20 140v413h90v-419q0 -107 43.5 -157.5t124.5 -50.5t124 50.5t43 157.5v419h88v-413q0 -84 -19.5 -140t-53.5 -90t-81 -48.5t-101 -14.5z" />
    <glyph glyph-name="uring" unicode="&#x16f;" horiz-adv-x="538" 
d="M270 533q-45 0 -75.5 30t-30.5 75t30.5 75.5t75.5 30.5t75 -30.5t30 -75.5t-30 -75t-75 -30zM270 595q19 0 31 12t12 31t-12 31t-31 12q-20 0 -31.5 -12t-11.5 -31t11.5 -31t31.5 -12zM229 -12q-78 0 -121.5 45t-43.5 130v319h88v-308q0 -63 27.5 -87.5t75.5 -24.5
q31 0 53 12t36.5 30.5t21 40.5t6.5 43v294h88v-368q0 -23 8.5 -36t32.5 -13v-64q-4 -1 -10 -2t-13 -1.5t-17 -0.5q-38 0 -58.5 20t-20.5 58v6q-8 -18 -20.5 -34.5t-30.5 -29.5t-43 -21t-59 -8z" />
    <glyph glyph-name="Uhungarumlaut" unicode="&#x170;" horiz-adv-x="671" 
d="M255 876h112l-97 -134h-79zM423 876h112l-97 -134h-78zM337 -6q-54 0 -101.5 14.5t-82 48.5t-54.5 90t-20 140v413h90v-419q0 -107 43.5 -157.5t124.5 -50.5t124 50.5t43 157.5v419h88v-413q0 -84 -19.5 -140t-53.5 -90t-81 -48.5t-101 -14.5z" />
    <glyph glyph-name="uhungarumlaut" unicode="&#x171;" horiz-adv-x="538" 
d="M203 726h103l-102 -174h-75zM371 726h103l-102 -174h-74zM229 -12q-78 0 -121.5 45t-43.5 130v319h88v-308q0 -63 27.5 -87.5t75.5 -24.5q31 0 53 12t36.5 30.5t21 40.5t6.5 43v294h88v-368q0 -23 8.5 -36t32.5 -13v-64q-4 -1 -10 -2t-13 -1.5t-17 -0.5q-38 0 -58.5 20
t-20.5 58v6q-8 -18 -20.5 -34.5t-30.5 -29.5t-43 -21t-59 -8z" />
    <glyph glyph-name="Uogonek" unicode="&#x172;" horiz-adv-x="671" 
d="M592 700v-413q0 -71 -14.5 -122.5t-40 -86t-61 -53.5t-78.5 -26q-27 -10 -44 -32t-17 -49q0 -20 9.5 -29t25.5 -9q10 0 17.5 3.5t12.5 7.5l29 -46q-12 -13 -32 -20t-43 -7q-47 0 -71.5 22t-24.5 63q0 51 44 92q-48 4 -89.5 21t-71.5 51.5t-47 88.5t-17 131v413h90v-419
q0 -107 43.5 -157.5t124.5 -50.5t124 50.5t43 157.5v419h88z" />
    <glyph glyph-name="uogonek" unicode="&#x173;" horiz-adv-x="538" 
d="M530 -154q-12 -13 -32 -20t-43 -7q-47 0 -71.5 22t-24.5 63q0 28 15 55t42 48q-34 20 -34 68v6q-8 -18 -20.5 -34.5t-30.5 -29.5t-43 -21t-59 -8q-78 0 -121.5 45t-43.5 130v319h88v-308q0 -63 27.5 -87.5t75.5 -24.5q31 0 53 12t36.5 30.5t21 40.5t6.5 43v294h88v-368
q0 -23 8.5 -36t32.5 -13v-64q-29 -9 -47 -31.5t-18 -50.5q0 -20 9.5 -29t25.5 -9q10 0 17.5 3.5t12.5 7.5z" />
    <glyph glyph-name="Wcircumflex" unicode="&#x174;" horiz-adv-x="929" 
d="M416 876h99l87 -134h-80l-58 74l-58 -74h-78zM17 700h103l139 -594l164 594h87l166 -594l138 594h98l-188 -700h-100l-157 569l-161 -569h-100z" />
    <glyph glyph-name="wcircumflex" unicode="&#x175;" horiz-adv-x="737" 
d="M311 552h-77l89 174h92l88 -174h-78l-57 108zM722 482l-155 -482h-95l-87 318l-11 53l-13 -53l-95 -318h-97l-152 482h96l85 -307l21 -88l22 88l92 307h81l87 -306l21 -89l22 89l88 306h90z" />
    <glyph glyph-name="Ycircumflex" unicode="&#x176;" horiz-adv-x="595" 
d="M250 876h99l87 -134h-80l-58 74l-58 -74h-78zM253 291l-237 409h106l178 -322l179 322h102l-238 -406v-294h-90v291z" />
    <glyph glyph-name="ycircumflex" unicode="&#x177;" horiz-adv-x="529" 
d="M217 726h92l88 -174h-78l-57 108l-57 -108h-77zM247 -247q-78 0 -124.5 25t-66.5 67l60 45q19 -31 51 -47t80 -16q61 0 95 34t34 94v130q-21 -44 -62 -67.5t-97 -23.5q-153 0 -153 173v315h88v-304q0 -110 94 -110q24 0 46.5 11t40 29.5t28 42t10.5 48.5v283h89v-527
q0 -46 -15 -83.5t-42.5 -63.5t-67 -40.5t-88.5 -14.5z" />
    <glyph glyph-name="Ydieresis" unicode="&#x178;" horiz-adv-x="595" 
d="M198 748q-26 0 -42.5 17.5t-16.5 43.5q0 25 16.5 43t42.5 18q25 0 42.5 -18t17.5 -43q0 -26 -17.5 -43.5t-42.5 -17.5zM410 748q-25 0 -43 17.5t-18 43.5q0 25 18 43t43 18q26 0 42.5 -18t16.5 -43q0 -26 -16.5 -43.5t-42.5 -17.5zM253 291l-237 409h106l178 -322
l179 322h102l-238 -406v-294h-90v291z" />
    <glyph glyph-name="Zacute" unicode="&#x179;" horiz-adv-x="575" 
d="M313 742h-88l84 134h116zM539 631l-400 -553h400v-78h-504v69l403 553h-401v78h502v-69z" />
    <glyph glyph-name="zacute" unicode="&#x17a;" horiz-adv-x="491" 
d="M266 552h-79l84 174h107zM214 247q36 -4 79.5 -19.5t80.5 -47t62 -81t25 -121.5q0 -52 -17.5 -93t-47.5 -69.5t-70 -43.5t-84 -15q-46 0 -83 13t-63.5 37t-41 58t-14.5 76q0 45 14 81.5t35.5 65t48 49t51.5 34.5q-40 6 -83 6v76l204 154h-261v75h379v-72zM244 -169
q60 0 97 39t37 107q0 69 -30 110t-78 62q-24 -12 -49.5 -29.5t-47.5 -41.5t-36 -55.5t-14 -71.5q0 -57 32.5 -88.5t88.5 -31.5z" />
    <glyph glyph-name="Zdotaccent" unicode="&#x17b;" horiz-adv-x="575" 
d="M282 746q-26 0 -44.5 18.5t-18.5 44.5t18.5 44.5t44.5 18.5t44.5 -18.5t18.5 -44.5t-18.5 -44.5t-44.5 -18.5zM539 631l-400 -553h400v-78h-504v69l403 553h-401v78h502v-69z" />
    <glyph glyph-name="zdotaccent" unicode="&#x17c;" horiz-adv-x="491" 
d="M242 580q-24 0 -41.5 17t-17.5 42q0 24 17.5 41.5t41.5 17.5t41.5 -17.5t17.5 -41.5q0 -25 -17.5 -42t-41.5 -17zM214 247q36 -4 79.5 -19.5t80.5 -47t62 -81t25 -121.5q0 -52 -17.5 -93t-47.5 -69.5t-70 -43.5t-84 -15q-46 0 -83 13t-63.5 37t-41 58t-14.5 76
q0 45 14 81.5t35.5 65t48 49t51.5 34.5q-40 6 -83 6v76l204 154h-261v75h379v-72zM244 -169q60 0 97 39t37 107q0 69 -30 110t-78 62q-24 -12 -49.5 -29.5t-47.5 -41.5t-36 -55.5t-14 -71.5q0 -57 32.5 -88.5t88.5 -31.5z" />
    <glyph glyph-name="Zcaron" unicode="&#x17d;" horiz-adv-x="575" 
d="M233 742l-87 134h80l58 -74l58 74h78l-88 -134h-99zM539 631l-400 -553h400v-78h-504v69l403 553h-401v78h502v-69z" />
    <glyph glyph-name="zcaron" unicode="&#x17e;" horiz-adv-x="491" 
d="M195 552l-88 174h78l57 -108l57 108h77l-89 -174h-92zM214 247q36 -4 79.5 -19.5t80.5 -47t62 -81t25 -121.5q0 -52 -17.5 -93t-47.5 -69.5t-70 -43.5t-84 -15q-46 0 -83 13t-63.5 37t-41 58t-14.5 76q0 45 14 81.5t35.5 65t48 49t51.5 34.5q-40 6 -83 6v76l204 154h-261
v75h379v-72zM244 -169q60 0 97 39t37 107q0 69 -30 110t-78 62q-24 -12 -49.5 -29.5t-47.5 -41.5t-36 -55.5t-14 -71.5q0 -57 32.5 -88.5t88.5 -31.5z" />
    <glyph glyph-name="uni018F" unicode="&#x18f;" horiz-adv-x="655" 
d="M318 706q139 0 214.5 -88.5t75.5 -258.5q0 -83 -20 -150.5t-58 -115t-92.5 -73.5t-123.5 -26q-66 0 -117.5 22t-87 63.5t-54 100t-18.5 131.5q0 26 3 54h472q-1 69 -15.5 118.5t-39.5 81.5t-59.5 47.5t-76.5 15.5q-38 0 -66.5 -7t-50 -20t-38.5 -31.5t-32 -41.5l-68 39
q35 61 98.5 100t153.5 39zM319 71q83 0 131 55t59 165h-377q2 -104 49 -162t138 -58z" />
    <glyph glyph-name="florin" unicode="&#x192;" horiz-adv-x="412" 
d="M34 -177q-42 0 -70 15.5t-44 41.5l51 49q13 -18 26.5 -25t28.5 -7q41 0 63.5 27.5t22.5 78.5v379h-70v71h70v71q0 85 43 130.5t123 45.5q38 0 69.5 -12t52.5 -34l-47 -53q-16 14 -30 19.5t-37 5.5q-41 0 -63.5 -27.5t-22.5 -78.5v-67h151v-71h-151v-383q0 -85 -43 -130.5
t-123 -45.5z" />
    <glyph glyph-name="uni019D" unicode="&#x19d;" horiz-adv-x="673" 
d="M586 700v-700h-77l-325 520l-12 27v-589q0 -107 -47.5 -156t-132.5 -49q-43 0 -75 13.5t-47 35.5l53 59q11 -12 28.5 -19.5t42.5 -7.5q45 0 69 27t24 93v746h77l324 -521l13 -29v550h85z" />
    <glyph glyph-name="Gcaron" unicode="&#x1e6;" horiz-adv-x="653" 
d="M205 876h80l58 -74l58 74h78l-88 -134h-99zM350 -10q-144 0 -223.5 88.5t-79.5 269.5q0 82 21.5 148.5t61 113t96.5 71.5t127 25q60 0 104 -14t72.5 -39.5t42.5 -60t14 -75.5q0 -27 -5 -40h-85q1 5 1.5 11t0.5 23q0 54 -38.5 86t-108.5 32q-104 0 -156 -73t-52 -208
q0 -134 54 -207.5t159 -73.5q64 0 102.5 15.5t52.5 30.5v153h-160v84h249v-271q-14 -15 -37 -31t-54.5 -29t-71 -21t-87.5 -8z" />
    <glyph glyph-name="gcaron" unicode="&#x1e7;" horiz-adv-x="508" 
d="M143 726h78l57 -108l57 108h77l-89 -174h-92zM253 -240q-72 0 -118 25.5t-69 65.5l59 48q17 -27 48 -46t83 -19q61 0 95 34t34 94v110q-17 -32 -53.5 -58t-97.5 -26q-43 0 -79 18t-61.5 50.5t-39.5 78t-14 101.5t14.5 103t41.5 81.5t65 54t85 19.5q48 0 83.5 -20
t60.5 -57v65h79v-520q0 -46 -15.5 -83.5t-44 -63.5t-68 -40.5t-88.5 -14.5zM260 62q49 0 78 27.5t43 74.5v154q-4 19 -13.5 37.5t-24.5 33t-35.5 23.5t-46.5 9q-64 0 -97.5 -47t-33.5 -138q0 -78 33.5 -126t96.5 -48z" />
    <glyph glyph-name="uni01EA" unicode="&#x1ea;" horiz-adv-x="712" 
d="M411 -1q-27 -10 -44 -32t-17 -49q0 -20 9.5 -29t25.5 -9q10 0 17.5 3.5t12.5 7.5l29 -46q-12 -13 -32 -20t-43 -7q-47 0 -71.5 22t-24.5 63q0 51 44 93q-56 5 -105.5 27t-86 64.5t-58 106.5t-21.5 152q0 93 26 161t69 112.5t100 65.5t118 21q62 0 117.5 -20t97.5 -62.5
t67 -110t25 -163.5q0 -82 -20 -143.5t-55 -105t-81 -68.5t-99 -34zM141 347q0 -78 17.5 -131t46.5 -85.5t67.5 -46t80.5 -13.5t81.5 14.5t69.5 47.5t48.5 86t18.5 130q0 80 -17.5 133.5t-47 86t-67.5 46.5t-80 14t-81.5 -14.5t-69.5 -47.5t-48.5 -87t-18.5 -133z" />
    <glyph glyph-name="uni01EB" unicode="&#x1eb;" horiz-adv-x="522" 
d="M318 -5q-23 -11 -37.5 -31.5t-14.5 -45.5q0 -20 9.5 -29t25.5 -9q10 0 17.5 3.5t12.5 7.5l29 -46q-12 -13 -32 -20t-43 -7q-47 0 -71.5 22t-24.5 63q0 23 10 45t28 42q-88 10 -137 75t-49 176q0 60 16 107t45 79.5t70 49.5t92 17q101 0 159 -66.5t58 -186.5
q0 -100 -43.5 -163.5t-119.5 -82.5zM131 241q0 -90 35 -135t95 -45q61 0 95.5 45t34.5 135t-35 135t-95 45t-95 -45t-35 -135z" />
    <glyph glyph-name="Aringacute" unicode="&#x1fa;" horiz-adv-x="629" 
d="M458 193h-287l-69 -193h-91l248 672q-26 14 -41.5 40t-15.5 58q0 40 22.5 69t58.5 40l59 94h116l-87 -104q26 -14 41 -40.5t15 -58.5t-15.5 -58t-41.5 -40l248 -672h-92zM315 818q-22 0 -34 -13t-12 -35t12 -35.5t34 -13.5q20 0 33 13.5t13 35.5t-13 35t-33 13zM431 269
l-117 329l-116 -329h233z" />
    <glyph glyph-name="aringacute" unicode="&#x1fb;" horiz-adv-x="503" 
d="M262 533q-45 0 -75.5 30t-30.5 75q0 35 19 62t51 38l65 135h107l-90 -139q26 -13 42.5 -38.5t16.5 -57.5q0 -45 -30 -75t-75 -30zM262 595q19 0 31 12t12 31t-12 31t-31 12q-20 0 -31.5 -12t-11.5 -31t11.5 -31t31.5 -12zM469 118q0 -29 9 -41t32 -12v-64q-5 -2 -16.5 -3
t-22.5 -1q-38 0 -59.5 19.5t-21.5 52.5v4q-20 -38 -57.5 -61.5t-98.5 -23.5q-43 0 -79 18t-61.5 50.5t-39.5 78t-14 101.5t14.5 103t41.5 81.5t65 54t85 19.5q48 0 84.5 -18t59.5 -51v57h79v-364zM381 318q-4 19 -13.5 37.5t-24.5 33t-35.5 23.5t-46.5 9q-64 0 -97.5 -47
t-33.5 -138q0 -79 32.5 -127t97.5 -48q51 0 79.5 28t41.5 75v154z" />
    <glyph glyph-name="AEacute" unicode="&#x1fc;" horiz-adv-x="818" 
d="M485 876h116l-112 -134h-88zM268 700h508v-77h-396l87 -237h247v-77h-218l85 -232h195v-77h-259l-71 194h-278l-70 -194h-88zM419 269l-112 315l-111 -315h223z" />
    <glyph glyph-name="aeacute" unicode="&#x1fd;" horiz-adv-x="789" 
d="M418 552h-79l84 174h107zM749 279v-22t-1 -22h-314q1 -86 36.5 -129.5t100.5 -43.5q42 0 71 17t50 47l54 -43q-25 -42 -71.5 -68.5t-107.5 -26.5q-70 0 -118 29t-74 83q-35 -61 -83.5 -86.5t-105.5 -25.5q-72 0 -112.5 33.5t-40.5 95.5q0 66 47.5 100t142.5 35h120v66
q0 49 -26.5 75.5t-77.5 26.5q-98 0 -98 -81q0 -11 2.5 -22t6.5 -17h-80q-5 7 -8 22t-3 32q0 64 49.5 102t134.5 38q58 0 98 -21.5t63 -56.5q27 36 65.5 57t88.5 21q93 0 142 -56.5t49 -158.5zM662 301q0 51 -25.5 85.5t-82.5 34.5q-54 0 -81 -33.5t-35 -86.5h224zM200 57
q57 0 91 31t52 83v19l-127 -1q-48 0 -70.5 -18.5t-22.5 -48.5q0 -65 77 -65z" />
    <glyph glyph-name="Oslashacute" unicode="&#x1fe;" horiz-adv-x="713" 
d="M388 742h-88l84 134h116zM577 621q42 -43 66 -109.5t24 -161.5q0 -93 -26 -160t-69 -110.5t-99.5 -64.5t-118.5 -21q-45 0 -86.5 10t-77.5 31l-34 -51h-88l64 97q-39 43 -62 108t-23 157q0 93 26 161t69 112.5t100 65.5t118 21q44 0 84.5 -10t75.5 -30l33 50h87zM142 347
q0 -63 11 -109t31 -78l290 437q-25 17 -54 24.5t-60 7.5q-42 0 -81.5 -14.5t-69.5 -47.5t-48.5 -87t-18.5 -133zM354 71q42 0 81.5 14.5t69.5 47.5t48.5 86t18.5 130q0 66 -12 114t-34 81l-290 -439q26 -18 56 -26t62 -8z" />
    <glyph glyph-name="oslashacute" unicode="&#x1ff;" horiz-adv-x="522" 
d="M285 552h-79l84 174h107zM422 429q29 -33 44 -80.5t15 -107.5q0 -59 -16 -106t-45 -79.5t-70 -50t-92 -17.5q-61 0 -106 24l-21 -33h-79l48 74q-29 33 -44 80.5t-15 107.5t16 107t45 79.5t70 49.5t92 17q59 0 107 -25l21 33h77zM131 241q0 -66 20 -109l176 271
q-27 18 -66 18q-60 0 -95 -45t-35 -135zM261 61q61 0 95.5 45t34.5 135q0 66 -20 109l-176 -271q29 -18 66 -18z" />
    <glyph glyph-name="uni0218" unicode="&#x218;" horiz-adv-x="580" 
d="M285 -6q-93 0 -157 30t-99 88l68 54q27 -46 76 -70.5t113 -24.5q82 0 123 29t41 82t-40 84.5t-137 52.5q-52 11 -93 27t-69 39t-42.5 54.5t-14.5 74.5q0 44 17.5 79.5t48.5 60.5t75 38.5t96 13.5q45 0 86.5 -9.5t74 -30.5t51.5 -54.5t19 -81.5q0 -8 -1 -16.5t-4 -18.5
l-86 1q3 17 3 28q0 27 -11.5 47t-31 33t-45.5 19t-55 6q-72 0 -110 -29t-38 -81q0 -25 9.5 -43t30.5 -31.5t55 -24.5t83 -23q60 -15 102 -33.5t67.5 -43t37 -56.5t11.5 -74q0 -92 -66.5 -144t-187.5 -52zM235 -206q23 9 35 23t13 28q-26 1 -40 16.5t-14 41.5q0 25 17 42
t42 17q29 0 46.5 -19t17.5 -51q0 -50 -26 -89t-65 -50z" />
    <glyph glyph-name="uni0219" unicode="&#x219;" horiz-adv-x="467" 
d="M232 -12q-69 0 -122.5 22t-83.5 70l61 53q30 -43 65.5 -57.5t79.5 -14.5q57 0 84 16.5t27 48.5q0 20 -10.5 32.5t-28 20.5t-40.5 13.5t-48 10.5q-29 6 -58.5 15.5t-53.5 26t-39 42t-15 63.5q0 66 49 105t137 39q85 0 134 -36t49 -103q0 -11 -2 -23t-6 -22h-78
q2 7 3.5 17.5t1.5 20.5q0 35 -27.5 54t-76.5 19q-51 0 -75 -17.5t-24 -50.5q0 -19 10.5 -32t28.5 -21t41.5 -13.5t48.5 -11.5q29 -6 58.5 -15t53 -25t38 -40t14.5 -62q0 -72 -52.5 -108.5t-143.5 -36.5zM185 -206q23 9 35 23t13 28q-26 1 -40 16.5t-14 41.5q0 25 17 42
t42 17q29 0 46.5 -19t17.5 -51q0 -50 -26 -89t-65 -50z" />
    <glyph glyph-name="uni021A" unicode="&#x21a;" horiz-adv-x="542" 
d="M226 616h-210v84h510v-84h-210v-616h-90v616zM215 -206q23 9 35 23t13 28q-26 1 -40 16.5t-14 41.5q0 25 17 42t42 17q29 0 46.5 -19t17.5 -51q0 -50 -26 -89t-65 -50z" />
    <glyph glyph-name="uni021B" unicode="&#x21b;" horiz-adv-x="405" 
d="M273 -6q-86 0 -126.5 45t-40.5 141v226h-90v76h94l-1 140h85v-140h182v-76h-182v-223q0 -56 22 -82t67 -26q26 0 48 10t37 22l35 -68q-21 -19 -57.5 -32t-72.5 -13zM195 -206q23 9 35 23t13 28q-26 1 -40 16.5t-14 41.5q0 25 17 42t42 17q29 0 46.5 -19t17.5 -51
q0 -50 -26 -89t-65 -50z" />
    <glyph glyph-name="uni0232" unicode="&#x232;" horiz-adv-x="595" 
d="M167 842h264v-73h-264v73zM253 291l-237 409h106l178 -322l179 322h102l-238 -406v-294h-90v291z" />
    <glyph glyph-name="uni0233" unicode="&#x233;" horiz-adv-x="529" 
d="M136 671h254v-71h-254v71zM247 -247q-78 0 -124.5 25t-66.5 67l60 45q19 -31 51 -47t80 -16q61 0 95 34t34 94v130q-21 -44 -62 -67.5t-97 -23.5q-153 0 -153 173v315h88v-304q0 -110 94 -110q24 0 46.5 11t40 29.5t28 42t10.5 48.5v283h89v-527q0 -46 -15 -83.5
t-42.5 -63.5t-67 -40.5t-88.5 -14.5z" />
    <glyph glyph-name="uni0237" unicode="&#x237;" horiz-adv-x="233" 
d="M-2 -247q-23 0 -40 4.5t-29 9.5q-13 6 -22 14l27 61q6 -4 14 -8q8 -3 18 -5t23 -2q86 0 86 114v541h87v-545q0 -86 -39 -135t-125 -49z" />
    <glyph glyph-name="uni0259" unicode="&#x259;" horiz-adv-x="481" 
d="M232 494q95 0 151.5 -60.5t56.5 -184.5q0 -59 -14 -107.5t-41 -82.5t-65.5 -52.5t-86.5 -18.5q-97 0 -147.5 57.5t-50.5 157.5v22.5t2 26.5h313q-1 92 -33 130t-87 38q-41 0 -66 -16.5t-45 -45.5l-63 38q23 42 67.5 70t108.5 28zM233 61q56 0 81.5 32.5t32.5 92.5h-225
q0 -55 27 -90t84 -35z" />
    <glyph glyph-name="uni0272" unicode="&#x272;" horiz-adv-x="548" 
d="M476 113q0 -26 9.5 -37t31.5 -11v-64q-5 -2 -16 -3t-23 -1q-46 0 -68 27.5t-22 72.5v207q0 56 -26.5 85.5t-76.5 29.5q-54 0 -86.5 -36t-32.5 -94v-331q0 -107 -47.5 -156t-132.5 -49q-43 0 -75 13.5t-47 35.5l52 60q11 -12 28 -20t44 -8q41 0 65.5 27t24.5 93v419
q0 26 -9.5 37t-31.5 11v64q5 2 16 3t23 1q38 0 59 -22t21 -64v-3q20 46 59 70t93 24q81 0 124.5 -49t43.5 -140v-192z" />
    <glyph glyph-name="circumflex" unicode="&#x2c6;" horiz-adv-x="353" 
d="M126 763h99l88 -174h-79l-59 107l-58 -107h-79z" />
    <glyph glyph-name="caron" unicode="&#x2c7;" horiz-adv-x="339" 
d="M32 732h79l58 -107l58 107h79l-87 -174h-99z" />
    <glyph glyph-name="breve" unicode="&#x2d8;" horiz-adv-x="327" 
d="M164 585q-68 0 -96.5 37.5t-28.5 92.5h68q0 -36 14 -51.5t42 -16.5q29 0 43 16t14 52h68q0 -55 -28 -92.5t-96 -37.5z" />
    <glyph glyph-name="dotaccent" unicode="&#x2d9;" horiz-adv-x="186" 
d="M93 593q-21 0 -36.5 15t-15.5 37q0 21 15.5 36.5t36.5 15.5t36.5 -15.5t15.5 -36.5q0 -22 -15.5 -37t-36.5 -15z" />
    <glyph glyph-name="ring" unicode="&#x2da;" horiz-adv-x="264" 
d="M132 567q-36 0 -60 24t-24 59q0 36 24 60t60 24q35 0 59 -24t24 -60q0 -35 -24 -59t-59 -24zM132 611q17 0 28 11t11 28t-11 28t-28 11q-18 0 -28.5 -11t-10.5 -28t10.5 -28t28.5 -11z" />
    <glyph glyph-name="ogonek" unicode="&#x2db;" horiz-adv-x="264" 
d="M138 -172q-35 0 -61 18.5t-26 59.5q0 39 18.5 64.5t41.5 40.5q26 18 59 28l8 -38q-20 -7 -36 -18q-15 -10 -25.5 -25t-10.5 -37q0 -40 40 -40q11 0 19.5 3.5t14.5 7.5q7 6 12 12l21 -44q-8 -9 -19 -16q-10 -7 -24 -11.5t-32 -4.5z" />
    <glyph glyph-name="tilde" unicode="&#x2dc;" horiz-adv-x="406" 
d="M53 559q-3 6 -6 14q-2 7 -4 16t-2 21q0 32 21 55.5t63 23.5q23 0 42.5 -5t37.5 -11.5t34.5 -11.5t33.5 -5q22 0 22 21q0 8 -1.5 14.5t-3.5 11.5q-3 6 -6 11h71q3 -7 5 -14q2 -8 3.5 -16.5t1.5 -19.5q0 -32 -19.5 -54.5t-61.5 -22.5q-26 0 -47 5t-38 11.5t-32 11.5t-29 5
q-12 0 -19.5 -7t-7.5 -19q0 -8 2 -14.5t4 -10.5q3 -6 6 -10h-70z" />
    <glyph glyph-name="hungarumlaut" unicode="&#x2dd;" horiz-adv-x="408" 
d="M117 735h108l-112 -174h-80zM285 735h108l-112 -174h-79z" />
    <glyph glyph-name="gravecomb" unicode="&#x300;" 
d="M-232 726h107l83 -174h-78z" />
    <glyph glyph-name="acutecomb" unicode="&#x301;" 
d="M-147 726h107l-112 -174h-79z" />
    <glyph glyph-name="uni0302" unicode="&#x302;" 
d="M-224 726h92l88 -174h-78l-57 108l-57 -108h-77z" />
    <glyph glyph-name="tildecomb" unicode="&#x303;" 
d="M-341 572q-5 11 -8 22.5t-3 28.5q0 28 19.5 49t64.5 21q19 0 36.5 -6t32.5 -13.5t28.5 -14t26.5 -6.5q25 0 25 23q0 8 -2 13t-4 9h67q5 -11 8 -22.5t3 -28.5q0 -27 -19.5 -49t-64.5 -22q-23 0 -41 6.5t-33 14t-27.5 14t-22.5 6.5q-25 0 -25 -23q0 -8 2 -13t4 -9h-67z" />
    <glyph glyph-name="uni0304" unicode="&#x304;" 
d="M-320 671h254v-71h-254v71z" />
    <glyph glyph-name="uni0306" unicode="&#x306;" 
d="M-163 566q-35 0 -59 10.5t-38.5 29t-21 43.5t-6.5 53h68q0 -67 56 -67q57 0 57 67h68q0 -28 -7 -53t-22 -43.5t-38.5 -29t-56.5 -10.5z" />
    <glyph glyph-name="uni0307" unicode="&#x307;" 
d="M-82 580q-24 0 -41.5 17t-17.5 42q0 24 17.5 41.5t41.5 17.5t41.5 -17.5t17.5 -41.5q0 -25 -17.5 -42t-41.5 -17z" />
    <glyph glyph-name="uni0308" unicode="&#x308;" 
d="M-271 575q-24 0 -40 17.5t-16 41.5q0 23 16 41t40 18t41 -18t17 -41q0 -24 -17 -41.5t-41 -17.5zM-87 575q-24 0 -41.5 17.5t-17.5 41.5q0 23 17.5 41t41.5 18t40 -18t16 -41q0 -24 -16 -41.5t-40 -17.5z" />
    <glyph glyph-name="uni030A" unicode="&#x30a;" 
d="M-134 533q-45 0 -75.5 30t-30.5 75t30.5 75.5t75.5 30.5t75 -30.5t30 -75.5t-30 -75t-75 -30zM-134 595q19 0 31 12t12 31t-12 31t-31 12q-20 0 -31.5 -12t-11.5 -31t11.5 -31t31.5 -12z" />
    <glyph glyph-name="uni030B" unicode="&#x30b;" 
d="M-301 726h103l-102 -174h-75zM-133 726h103l-102 -174h-74z" />
    <glyph glyph-name="uni030C" unicode="&#x30c;" 
d="M-305 726h78l57 -108l57 108h77l-89 -174h-92z" />
    <glyph glyph-name="uni0312" unicode="&#x312;" 
d="M-79 540q-28 0 -45 18.5t-17 48.5q0 45 25 82.5t64 51.5l26 -41q-23 -8 -37.5 -19.5t-15.5 -23.5q24 0 41.5 -17t17.5 -41q0 -25 -17 -42t-42 -17z" />
    <glyph glyph-name="dotbelowcomb" unicode="&#x323;" 
d="M-82 -180q-24 0 -41.5 17t-17.5 42q0 24 17.5 41.5t41.5 17.5t41.5 -17.5t17.5 -41.5q0 -25 -17.5 -42t-41.5 -17z" />
    <glyph glyph-name="uni0326" unicode="&#x326;" 
d="M-155 -206q23 9 35 23t13 28q-26 1 -40 16.5t-14 41.5q0 25 17 42t42 17q29 0 46.5 -19t17.5 -51q0 -50 -26 -89t-65 -50z" />
    <glyph glyph-name="uni0327" unicode="&#x327;" 
d="M-138 -203q-26 0 -49.5 7.5t-38.5 22.5l28 52q25 -21 56 -21q15 0 24.5 6t9.5 20q0 17 -20.5 26.5t-51.5 11.5l30 82h59l-14 -43q15 -2 29.5 -7t25.5 -14.5t18 -23.5t7 -34q0 -42 -32.5 -63.5t-80.5 -21.5z" />
    <glyph glyph-name="uni0328" unicode="&#x328;" 
d="M-132 -181q-47 0 -71.5 22t-24.5 63q0 42 31.5 79.5t84.5 56.5l26 -39q-29 -9 -47 -31.5t-18 -50.5q0 -20 9.5 -29t25.5 -9q10 0 17.5 3.5t12.5 7.5l29 -46q-12 -13 -32 -20t-43 -7z" />
    <glyph glyph-name="uni0335" unicode="&#x335;" 
d="M-298 397h283v-77h-283v77z" />
    <glyph glyph-name="uni0336" unicode="&#x336;" 
d="M-671 581h638v-68h-638v68z" />
    <glyph glyph-name="uni0337" unicode="&#x337;" 
d="M-309 341l260 151l33 -57l-261 -152z" />
    <glyph glyph-name="uni0338" unicode="&#x338;" 
d="M-88 503h77l-338 -523h-79z" />
    <glyph glyph-name="Wgrave" unicode="&#x1e80;" horiz-adv-x="929" 
d="M318 876h118l84 -134h-90zM17 700h103l139 -594l164 594h87l166 -594l138 594h98l-188 -700h-100l-157 569l-161 -569h-100z" />
    <glyph glyph-name="wgrave" unicode="&#x1e81;" horiz-adv-x="737" 
d="M327 552l-112 174h107l83 -174h-78zM722 482l-155 -482h-95l-87 318l-11 53l-13 -53l-95 -318h-97l-152 482h96l85 -307l21 -88l22 88l92 307h81l87 -306l21 -89l22 89l88 306h90z" />
    <glyph glyph-name="Wacute" unicode="&#x1e82;" horiz-adv-x="929" 
d="M492 876h116l-112 -134h-88zM17 700h103l139 -594l164 594h87l166 -594l138 594h98l-188 -700h-100l-157 569l-161 -569h-100z" />
    <glyph glyph-name="wacute" unicode="&#x1e83;" horiz-adv-x="737" 
d="M394 552h-79l84 174h107zM722 482l-155 -482h-95l-87 318l-11 53l-13 -53l-95 -318h-97l-152 482h96l85 -307l21 -88l22 88l92 307h81l87 -306l21 -89l22 89l88 306h90z" />
    <glyph glyph-name="Wdieresis" unicode="&#x1e84;" horiz-adv-x="929" 
d="M364 748q-26 0 -42.5 17.5t-16.5 43.5q0 25 16.5 43t42.5 18q25 0 42.5 -18t17.5 -43q0 -26 -17.5 -43.5t-42.5 -17.5zM576 748q-25 0 -43 17.5t-18 43.5q0 25 18 43t43 18q26 0 42.5 -18t16.5 -43q0 -26 -16.5 -43.5t-42.5 -17.5zM17 700h103l139 -594l164 594h87
l166 -594l138 594h98l-188 -700h-100l-157 569l-161 -569h-100z" />
    <glyph glyph-name="wdieresis" unicode="&#x1e85;" horiz-adv-x="737" 
d="M278 580q-24 0 -40 17.5t-16 41.5q0 23 16 41t40 18t41 -18t17 -41q0 -24 -17 -41.5t-41 -17.5zM462 580q-24 0 -41.5 17.5t-17.5 41.5q0 23 17.5 41t41.5 18t40 -18t16 -41q0 -24 -16 -41.5t-40 -17.5zM722 482l-155 -482h-95l-87 318l-11 53l-13 -53l-95 -318h-97
l-152 482h96l85 -307l21 -88l22 88l92 307h81l87 -306l21 -89l22 89l88 306h90z" />
    <glyph glyph-name="uni1E9E" unicode="&#x1e9e;" horiz-adv-x="636" 
d="M384 397q64 -10 106 -30t66.5 -47.5t34 -61t9.5 -69.5q0 -44 -15 -80t-42.5 -61.5t-67.5 -39.5t-90 -14q-77 0 -121.5 20t-70.5 55l58 59q26 -30 54.5 -43.5t80.5 -13.5q60 0 92.5 32.5t32.5 81.5q0 32 -11 57t-37.5 43t-69.5 29t-107 17v74l185 175q-48 47 -150 47
q-33 0 -61 -9.5t-49 -27.5t-33 -44.5t-12 -60.5v-485h-87l2 486q0 48 17.5 88.5t49 70t75.5 46t97 16.5q79 0 131 -22.5t95 -61.5v-78z" />
    <glyph glyph-name="uni1EA0" unicode="&#x1ea0;" horiz-adv-x="629" 
d="M526 0l-68 193h-287l-69 -193h-91l258 700h91l258 -700h-92zM431 269l-117 329l-116 -329h233zM315 -62q24 0 41.5 -17.5t17.5 -41.5q0 -25 -17.5 -42t-41.5 -17t-41.5 17t-17.5 42q0 24 17.5 41.5t41.5 17.5z" />
    <glyph glyph-name="uni1EA1" unicode="&#x1ea1;" horiz-adv-x="503" 
d="M234 -12q-43 0 -79 18t-61.5 50.5t-39.5 78t-14 101.5t14.5 103t41.5 81.5t65 54t85 19.5q48 0 84.5 -18t59.5 -51v57h79v-364q0 -29 9 -41t32 -12v-64q-5 -2 -16.5 -3t-22.5 -1q-38 0 -59.5 19.5t-21.5 52.5v4q-20 -38 -57.5 -61.5t-98.5 -23.5zM260 61q51 0 79.5 28
t41.5 75v154q-4 19 -13.5 37.5t-24.5 33t-35.5 23.5t-46.5 9q-64 0 -97.5 -47t-33.5 -138q0 -79 32.5 -127t97.5 -48zM283 -180q-24 0 -41.5 17t-17.5 42q0 24 17.5 41.5t41.5 17.5t41.5 -17.5t17.5 -41.5q0 -25 -17.5 -42t-41.5 -17z" />
    <glyph glyph-name="uni1EB8" unicode="&#x1eb8;" horiz-adv-x="575" 
d="M87 700h444v-84h-354v-217h299v-84h-299v-231h354v-84h-444v700zM324 -180q-24 0 -41.5 17t-17.5 42q0 24 17.5 41.5t41.5 17.5t41.5 -17.5t17.5 -41.5q0 -25 -17.5 -42t-41.5 -17z" />
    <glyph glyph-name="uni1EB9" unicode="&#x1eb9;" horiz-adv-x="473" 
d="M441 83q-34 -52 -82 -73.5t-107 -21.5q-101 0 -156.5 60t-55.5 176q0 59 16.5 108.5t46.5 85.5t72 56t94 20q75 0 117.5 -39t42.5 -104q0 -55 -28.5 -87t-72.5 -49.5t-96.5 -23.5t-99.5 -9q10 -63 43 -91.5t84 -28.5q45 0 72.5 15t54.5 51zM266 421q-63 0 -98 -45.5
t-39 -125.5q31 1 69 4t71 13.5t55.5 29.5t22.5 52q0 72 -81 72zM258 -62q24 0 41.5 -17.5t17.5 -41.5q0 -25 -17.5 -42t-41.5 -17t-41.5 17t-17.5 42q0 24 17.5 41.5t41.5 17.5z" />
    <glyph glyph-name="uni1EBC" unicode="&#x1ebc;" horiz-adv-x="575" 
d="M182 746q-5 11 -8 22.5t-3 28.5q0 27 20.5 48t58.5 21q23 0 41 -6t33.5 -13.5t29.5 -13.5t27 -6q23 0 23 23q0 8 -2 13t-4 9h67q5 -11 8 -22.5t3 -28.5q0 -26 -20.5 -47.5t-66.5 -21.5q-22 0 -40 6t-33 13.5t-27.5 13.5t-24.5 6q-9 0 -15 -6t-6 -17q0 -8 2 -13t4 -9h-67z
M87 700h444v-84h-354v-217h299v-84h-299v-231h354v-84h-444v700z" />
    <glyph glyph-name="uni1EBD" unicode="&#x1ebd;" horiz-adv-x="473" 
d="M111 572q-5 11 -8 22.5t-3 28.5q0 28 19.5 49t64.5 21q20 0 37 -6t32 -13.5t28.5 -14t26.5 -6.5q25 0 25 23q0 8 -2 13t-4 9h67q5 -11 8 -22.5t3 -28.5q0 -27 -19.5 -49t-64.5 -22q-23 0 -41 6.5t-33 14t-27 14t-23 6.5q-25 0 -25 -23q0 -8 2 -13t4 -9h-67zM441 83
q-34 -52 -82 -73.5t-107 -21.5q-101 0 -156.5 60t-55.5 176q0 59 16.5 108.5t46.5 85.5t72 56t94 20q75 0 117.5 -39t42.5 -104q0 -55 -28.5 -87t-72.5 -49.5t-96.5 -23.5t-99.5 -9q10 -63 43 -91.5t84 -28.5q45 0 72.5 15t54.5 51zM266 421q-63 0 -98 -45.5t-39 -125.5
q31 1 69 4t71 13.5t55.5 29.5t22.5 52q0 72 -81 72z" />
    <glyph glyph-name="uni1ECA" unicode="&#x1eca;" horiz-adv-x="264" 
d="M87 700h90v-700h-90v700zM132 -180q-24 0 -41.5 17t-17.5 42q0 24 17.5 41.5t41.5 17.5t41.5 -17.5t17.5 -41.5q0 -25 -17.5 -42t-41.5 -17z" />
    <glyph glyph-name="uni1ECB" unicode="&#x1ecb;" horiz-adv-x="230" 
d="M115 580q-24 0 -41.5 17t-17.5 42q0 24 17.5 41.5t41.5 17.5t41.5 -17.5t17.5 -41.5q0 -25 -17.5 -42t-41.5 -17zM71 482h88v-482h-88v482zM115 -180q-24 0 -41.5 17t-17.5 42q0 24 17.5 41.5t41.5 17.5t41.5 -17.5t17.5 -41.5q0 -25 -17.5 -42t-41.5 -17z" />
    <glyph glyph-name="uni1ECC" unicode="&#x1ecc;" horiz-adv-x="712" 
d="M353 -6q-62 0 -117.5 19.5t-97.5 61.5t-67 109t-25 162q0 93 26 161t69 112.5t100 65.5t118 21q62 0 117.5 -20t97.5 -62.5t67 -110t25 -163.5q0 -93 -26 -160t-69 -110.5t-99.5 -64.5t-118.5 -21zM353 71q42 0 81.5 14.5t69.5 47.5t48.5 86t18.5 130q0 80 -17.5 133.5
t-47 86t-67.5 46.5t-80 14t-81.5 -14.5t-69.5 -47.5t-48.5 -87t-18.5 -133q0 -78 17.5 -131t46.5 -85.5t67.5 -46t80.5 -13.5zM356 -180q-24 0 -41.5 17t-17.5 42q0 24 17.5 41.5t41.5 17.5t41.5 -17.5t17.5 -41.5q0 -25 -17.5 -42t-41.5 -17z" />
    <glyph glyph-name="uni1ECD" unicode="&#x1ecd;" horiz-adv-x="522" 
d="M258 -12q-102 0 -159.5 66.5t-57.5 186.5q0 60 16 107t45 79.5t70 49.5t92 17q101 0 159 -66.5t58 -186.5q0 -59 -16 -106t-45 -79.5t-70 -50t-92 -17.5zM261 61q61 0 95.5 45t34.5 135t-35 135t-95 45t-95 -45t-35 -135t35 -135t95 -45zM261 -180q-24 0 -41.5 17
t-17.5 42q0 24 17.5 41.5t41.5 17.5t41.5 -17.5t17.5 -41.5q0 -25 -17.5 -42t-41.5 -17z" />
    <glyph glyph-name="uni1EE4" unicode="&#x1ee4;" horiz-adv-x="671" 
d="M337 -6q-54 0 -101.5 14.5t-82 48.5t-54.5 90t-20 140v413h90v-419q0 -107 43.5 -157.5t124.5 -50.5t124 50.5t43 157.5v419h88v-413q0 -84 -19.5 -140t-53.5 -90t-81 -48.5t-101 -14.5zM337 -180q-24 0 -41.5 17t-17.5 42q0 24 17.5 41.5t41.5 17.5t41.5 -17.5
t17.5 -41.5q0 -25 -17.5 -42t-41.5 -17z" />
    <glyph glyph-name="uni1EE5" unicode="&#x1ee5;" horiz-adv-x="538" 
d="M229 -12q-78 0 -121.5 45t-43.5 130v319h88v-308q0 -63 27.5 -87.5t75.5 -24.5q31 0 53 12t36.5 30.5t21 40.5t6.5 43v294h88v-368q0 -23 8.5 -36t32.5 -13v-64q-4 -1 -10 -2t-13 -1.5t-17 -0.5q-38 0 -58.5 20t-20.5 58v6q-8 -18 -20.5 -34.5t-30.5 -29.5t-43 -21
t-59 -8zM270 -180q-24 0 -41.5 17t-17.5 42q0 24 17.5 41.5t41.5 17.5t41.5 -17.5t17.5 -41.5q0 -25 -17.5 -42t-41.5 -17z" />
    <glyph glyph-name="Ygrave" unicode="&#x1ef2;" horiz-adv-x="595" 
d="M152 876h118l84 -134h-90zM253 291l-237 409h106l178 -322l179 322h102l-238 -406v-294h-90v291z" />
    <glyph glyph-name="ygrave" unicode="&#x1ef3;" horiz-adv-x="529" 
d="M109 726h107l83 -174h-78zM247 -247q-78 0 -124.5 25t-66.5 67l60 45q19 -31 51 -47t80 -16q61 0 95 34t34 94v130q-21 -44 -62 -67.5t-97 -23.5q-153 0 -153 173v315h88v-304q0 -110 94 -110q24 0 46.5 11t40 29.5t28 42t10.5 48.5v283h89v-527q0 -46 -15 -83.5
t-42.5 -63.5t-67 -40.5t-88.5 -14.5z" />
    <glyph glyph-name="uni1EF8" unicode="&#x1ef8;" horiz-adv-x="595" 
d="M157 746q-5 11 -8 22.5t-3 28.5q0 27 20.5 48t58.5 21q23 0 41 -6t33.5 -13.5t29.5 -13.5t27 -6q23 0 23 23q0 8 -2 13t-4 9h67q5 -11 8 -22.5t3 -28.5q0 -26 -20.5 -47.5t-66.5 -21.5q-22 0 -40 6t-33 13.5t-27.5 13.5t-24.5 6q-9 0 -15 -6t-6 -17q0 -8 2 -13t4 -9h-67z
M253 291l-237 409h106l178 -322l179 322h102l-238 -406v-294h-90v291z" />
    <glyph glyph-name="uni1EF9" unicode="&#x1ef9;" horiz-adv-x="529" 
d="M116 572q-5 11 -8 22.5t-3 28.5q0 28 19.5 49t64.5 21q20 0 37 -6t32 -13.5t28.5 -14t26.5 -6.5q25 0 25 23q0 8 -2 13t-4 9h67q5 -11 8 -22.5t3 -28.5q0 -27 -19.5 -49t-64.5 -22q-23 0 -41 6.5t-33 14t-27 14t-23 6.5q-25 0 -25 -23q0 -8 2 -13t4 -9h-67zM247 -247
q-78 0 -124.5 25t-66.5 67l60 45q19 -31 51 -47t80 -16q61 0 95 34t34 94v130q-21 -44 -62 -67.5t-97 -23.5q-153 0 -153 173v315h88v-304q0 -110 94 -110q24 0 46.5 11t40 29.5t28 42t10.5 48.5v283h89v-527q0 -46 -15 -83.5t-42.5 -63.5t-67 -40.5t-88.5 -14.5z" />
    <glyph glyph-name="endash" unicode="&#x2013;" horiz-adv-x="536" 
d="M59 306h418v-69h-418v69z" />
    <glyph glyph-name="emdash" unicode="&#x2014;" horiz-adv-x="880" 
d="M59 306h762v-69h-762v69z" />
    <glyph glyph-name="quoteleft" unicode="&#x2018;" horiz-adv-x="204" 
d="M156 671q-23 -9 -37.5 -25.5t-14.5 -32.5q25 0 41.5 -16t16.5 -41q0 -26 -16.5 -43t-41.5 -17q-29 0 -46.5 19t-17.5 51q0 52 25 93t65 53z" />
    <glyph glyph-name="quoteright" unicode="&#x2019;" horiz-adv-x="202" 
d="M49 531q23 9 37.5 25.5t14.5 32.5q-25 0 -41.5 16t-16.5 41q0 26 16.5 43t41.5 17q29 0 46.5 -19t17.5 -51q0 -52 -25 -93t-65 -53z" />
    <glyph glyph-name="quotesinglbase" unicode="&#x201a;" horiz-adv-x="217" 
d="M53 -64q23 9 37.5 25.5t14.5 32.5q-25 0 -41.5 16t-16.5 41q0 26 16.5 43t41.5 17q29 0 46.5 -19t17.5 -51q0 -52 -25 -93t-65 -53z" />
    <glyph glyph-name="quotedblleft" unicode="&#x201c;" horiz-adv-x="361" 
d="M156 671q-23 -9 -37.5 -25.5t-14.5 -32.5q25 0 41.5 -16t16.5 -41q0 -26 -16.5 -43t-41.5 -17q-29 0 -46.5 19t-17.5 51q0 52 25 93t65 53zM313 671q-23 -9 -37.5 -25.5t-14.5 -32.5q25 0 41.5 -16t16.5 -41q0 -26 -16.5 -43t-41.5 -17q-29 0 -46.5 19t-17.5 51
q0 52 25 93t65 53z" />
    <glyph glyph-name="quotedblright" unicode="&#x201d;" horiz-adv-x="359" 
d="M49 531q23 9 37.5 25.5t14.5 32.5q-25 0 -41.5 16t-16.5 41q0 26 16.5 43t41.5 17q29 0 46.5 -19t17.5 -51q0 -52 -25 -93t-65 -53zM206 531q23 9 37.5 25.5t14.5 32.5q-25 0 -41.5 16t-16.5 41q0 26 16.5 43t41.5 17q29 0 46.5 -19t17.5 -51q0 -52 -25 -93t-65 -53z" />
    <glyph glyph-name="quotedblbase" unicode="&#x201e;" horiz-adv-x="374" 
d="M53 -64q23 9 37.5 25.5t14.5 32.5q-25 0 -41.5 16t-16.5 41q0 26 16.5 43t41.5 17q29 0 46.5 -19t17.5 -51q0 -52 -25 -93t-65 -53zM210 -64q23 9 37.5 25.5t14.5 32.5q-25 0 -41.5 16t-16.5 41q0 26 16.5 43t41.5 17q29 0 46.5 -19t17.5 -51q0 -52 -25 -93t-65 -53z" />
    <glyph glyph-name="dagger" unicode="&#x2020;" horiz-adv-x="399" 
d="M157 488h-116v65h116v164h84v-164h117v-65h-117l-11 -387h-62z" />
    <glyph glyph-name="daggerdbl" unicode="&#x2021;" horiz-adv-x="399" 
d="M163 288h-117v66h115l-4 134h-116v65h116v164h84v-164h117v-65h-117l-3 -134h115v-66h-118l-5 -187h-62z" />
    <glyph glyph-name="bullet" unicode="&#x2022;" horiz-adv-x="344" 
d="M172 187q-21 0 -40 8t-32.5 22t-21.5 32.5t-8 39.5t8 40t21.5 33t32.5 22t40 8t39.5 -8t32.5 -22t22 -33t8 -40t-8 -39.5t-22 -32.5t-32.5 -22t-39.5 -8z" />
    <glyph glyph-name="ellipsis" unicode="&#x2026;" horiz-adv-x="534" 
d="M99 -6q-22 0 -37.5 15t-15.5 37q0 21 15.5 36.5t37.5 15.5q21 0 36 -15.5t15 -36.5q0 -22 -15 -37t-36 -15zM267 -6q-21 0 -36.5 15t-15.5 37q0 21 15.5 36.5t36.5 15.5q22 0 37 -15.5t15 -36.5q0 -22 -15 -37t-37 -15zM436 -6q-21 0 -36.5 15t-15.5 37q0 21 15.5 36.5
t36.5 15.5t36.5 -15.5t15.5 -36.5q0 -22 -15.5 -37t-36.5 -15z" />
    <glyph glyph-name="perthousand" unicode="&#x2030;" horiz-adv-x="906" 
d="M139 424q-54 0 -83 35.5t-29 103.5t29 103.5t83 35.5q56 0 85.5 -35.5t29.5 -103.5t-30 -103.5t-85 -35.5zM385 700h66l-211 -700h-67zM139 473q29 0 42.5 24t13.5 66t-13.5 64.5t-42.5 22.5t-42 -22.5t-13 -64.5t13 -66t42 -24zM488 -2q-54 0 -83 35.5t-29 103.5
t29 103.5t83 35.5q56 0 85.5 -35.5t29.5 -103.5t-30 -103.5t-85 -35.5zM765 -2q-54 0 -83 35.5t-29 103.5t29 103.5t83 35.5q56 0 85.5 -35.5t29.5 -103.5t-30 -103.5t-85 -35.5zM488 47q29 0 42.5 24t13.5 66t-13.5 64.5t-42.5 22.5t-42 -22.5t-13 -64.5t13 -66t42 -24z
M765 47q29 0 42.5 24t13.5 66t-13.5 64.5t-42.5 22.5t-42 -22.5t-13 -64.5t13 -66t42 -24z" />
    <glyph glyph-name="guilsinglleft" unicode="&#x2039;" horiz-adv-x="283" 
d="M38 216v75l153 141l47 -52l-129 -126l129 -126l-47 -53z" />
    <glyph glyph-name="guilsinglright" unicode="&#x203a;" horiz-adv-x="282" 
d="M44 127l129 126l-129 126l47 53l153 -141v-75l-153 -141z" />
    <glyph glyph-name="fraction" unicode="&#x2044;" horiz-adv-x="155" 
d="M152 726h72l-220 -726h-72z" />
    <glyph glyph-name="Euro" unicode="&#x20ac;" horiz-adv-x="634" 
d="M607 95q-13 -16 -31.5 -33t-43.5 -31t-57 -22.5t-73 -8.5q-111 0 -185 59.5t-98 177.5h-86v78h76q-1 8 -1 16.5v16.5v17h-75v78h83q11 59 35 106.5t59.5 81t81 51.5t98.5 18q43 0 76.5 -8.5t59 -22.5t43.5 -32.5t31 -38.5l-71 -50q-17 27 -49.5 50t-88.5 23
q-68 0 -115.5 -47.5t-64.5 -130.5h240v-78h-250v-17v-16.5t1 -16.5h249v-78h-238q20 -81 70.5 -119.5t122.5 -38.5q50 0 86.5 23.5t59.5 50.5z" />
    <glyph glyph-name="trademark" unicode="&#x2122;" horiz-adv-x="782" 
d="M145 654h-119v55h305v-55h-115v-313h-71v313zM358 709h69l108 -238l108 238h67v-368h-59v258l-96 -207h-43l-94 204v-255h-60v368z" />
    <glyph glyph-name="minus" unicode="&#x2212;" horiz-adv-x="477" 
d="M62 296h353v-66h-353v66z" />
    <glyph glyph-name="uni2215" unicode="&#x2215;" horiz-adv-x="380" 
d="M304 726h87l-312 -726h-88z" />
    <glyph glyph-name="uni2219" unicode="&#x2219;" horiz-adv-x="303" 
d="M152 227q-21 0 -35 14t-14 34q0 21 14 35t35 14q20 0 34 -14t14 -35q0 -20 -14 -34t-34 -14z" />
    <glyph glyph-name="approxequal" unicode="&#x2248;" horiz-adv-x="495" 
d="M73 262q-4 6 -7 14t-5 17.5t-2 22.5q0 36 23.5 63.5t70.5 27.5q27 0 51 -8t46 -17.5t43 -17.5t43 -8q20 0 30.5 9t10.5 24q0 9 -2 17t-4 14q-3 7 -6 13h60q3 -7 6 -15q2 -8 4 -17t2 -20q0 -38 -22 -64.5t-68 -26.5q-32 0 -57.5 8t-46.5 17t-40 17t-37 8q-24 0 -36 -10
t-12 -25q0 -10 2 -18t5 -13q3 -7 7 -12h-59zM73 87q-4 6 -7 14t-5 17.5t-2 22.5q0 36 23.5 63.5t70.5 27.5q27 0 51 -8t46 -17t43 -17t43 -8q41 0 41 31q0 9 -2 17t-4 14q-3 7 -6 13h60q3 -7 6 -15q2 -7 4 -16.5t2 -20.5q0 -37 -22 -64t-68 -27q-32 0 -57.5 8t-46.5 17
t-40 17t-37 8q-24 0 -36 -10t-12 -24q0 -10 2 -18t5 -13q3 -7 7 -12h-59z" />
    <glyph glyph-name="notequal" unicode="&#x2260;" horiz-adv-x="503" 
d="M178 129h-116v65h136l41 132h-177v66h197l28 89h73l-27 -89h108v-66h-129l-40 -132h169v-65h-189l-25 -80h-73z" />
    <glyph glyph-name="lessequal" unicode="&#x2264;" horiz-adv-x="443" 
d="M52 287v70l324 199v-78l-246 -156l246 -156v-78zM35 37h361v-65h-361v65z" />
    <glyph glyph-name="greaterequal" unicode="&#x2265;" horiz-adv-x="444" 
d="M68 164l245 156l-245 156v78l323 -199v-70l-323 -199v78zM47 35h361v-65h-361v65z" />
    <glyph glyph-name="uniF8FF" unicode="&#xf8ff;" horiz-adv-x="1451" 
d="M752 522q-26 0 -43.5 17.5t-17.5 43.5t17.5 44t43.5 18t44 -18t18 -44t-18 -43.5t-44 -17.5zM100 270q0 57 1 108t2.5 91.5t3 70t2.5 44.5h100q2 -30 6 -114t4 -200h-119zM604 264q-82 0 -82 66q0 8 0.5 21.5t1.5 27.5t1.5 25t0.5 13h-22v79l119 30l1 -17h178
q3 -17 4.5 -45t3 -61t2 -68t0.5 -65h-118q0 92 3 147h-61l3 -65q4 -4 15 -4q5 0 10 1t8 4v-74q-8 -8 -27 -11.5t-41 -3.5zM328 265q-43 0 -67.5 27.5t-24.5 86.5q0 64 32.5 99.5t101.5 35.5q64 0 94 -30.5t30 -86.5v-127h-83l-8 61q-6 -31 -22.5 -48.5t-52.5 -17.5zM834 270
q0 30 0.5 65t2 68t3 61t4.5 45h80q2 -17 4 -39t2 -37q1 6 4 19.5t12 27t24 24t40 10.5q45 0 60 -26t17 -80l3 -138h-114q0 35 1 56.5t1 36.5t-2.5 22t-12.5 7q-12 0 -15 -8t-3 -21q0 -15 1.5 -36.5t1.5 -56.5h-114zM1228 265q-64 0 -93 33.5t-29 90.5q0 24 5.5 46.5t19.5 40
t38 28t61 10.5q36 0 59.5 -10.5t37 -27.5t19 -39t5.5 -46q0 -60 -29.5 -93t-93.5 -33zM366 345q24 0 24 30q0 26 -24 26q-22 0 -22 -26q0 -30 22 -30zM1228 345q23 0 23 30q0 26 -23 26q-21 0 -21 -26q0 -30 21 -30zM390 -50q-45 0 -63.5 6.5t-24.5 10.5v83q5 -3 21.5 -9.5
t48.5 -6.5q17 0 27.5 3.5t16.5 8t8 9.5t2 7q-5 -3 -15.5 -7t-33.5 -4q-90 0 -90 83v13h-55l3 -65q2 -2 5.5 -3t9.5 -1q8 0 12 1.5t6 3.5v-73q-4 -3 -17 -9t-51 -6q-46 0 -63.5 17.5t-17.5 53.5q0 6 0.5 17t1 23.5t1 24t0.5 16.5h-18v80l117 29l-1 -18h177v-119
q0 -16 3 -21.5t12 -5.5t12.5 6t3.5 21v119h104q2 -8 3.5 -23t3 -34t2.5 -40t1 -41q0 -79 -33 -114.5t-119 -35.5zM558 -44q0 128 4.5 194.5t5.5 87.5h78q1 -4 2 -14t2 -21.5t2 -22.5t1 -18q1 5 5 18.5t12.5 27.5t23.5 24.5t39 10.5q37 0 58.5 -28.5t21.5 -84.5
q0 -135 -137 -135q1 -11 1 -22.5v-16.5h-119zM970 -5q-72 0 -106.5 31t-34.5 91q0 59 32.5 92.5t92.5 33.5q55 0 85.5 -29.5t30.5 -86.5q0 -8 -0.5 -18t-2.5 -17h-124q4 -6 15.5 -12t34.5 -6q14 0 29 3t26 9v-75q-8 -5 -27 -10.5t-51 -5.5zM978 109q3 27 -17 27
q-23 0 -23 -27h40zM670 72q3 0 9 1.5t12 5.5t11 11t5 19q0 23 -20 23q-22 0 -22 -31q0 -12 2 -19.5t3 -9.5zM1098 -10q-11 0 -17.5 6t-6.5 17t6.5 17t17.5 6t17.5 -6t6.5 -17t-6.5 -17t-17.5 -6zM1098 -5q18 0 18 18t-18 18t-18 -18t18 -18zM1088 25h11q10 0 10 -7t-7 -7
l6 -9h-6l-4 9h-5v-9h-5v23zM1100 15q4 0 4 3t-4 3h-7v-6h7z" />
    <glyph glyph-name="Euro.osf" horiz-adv-x="524" 
d="M493 74q-22 -29 -66 -51.5t-104 -22.5q-88 0 -145.5 42t-77.5 121h-65v60h56q-1 6 -1 12v12v15h-55v59h63q19 81 76.5 128t143.5 47q65 0 106 -21t64 -55l-69 -52q-14 21 -38 34.5t-62 13.5q-47 0 -79.5 -24.5t-46.5 -70.5h169v-59h-180v-18v-10.5t1 -10.5h179v-60h-168
q16 -45 50.5 -64t85.5 -19q35 0 63.5 15t45.5 34z" />
    <glyph glyph-name="Euro.sc" horiz-adv-x="522" 
d="M492 74q-22 -29 -63.5 -51.5t-101.5 -22.5q-88 0 -147.5 42t-80.5 121h-65v60h56q-1 6 -1 12v12v15h-55v59h63q19 82 76.5 128.5t143.5 46.5q65 0 106 -21t64 -55l-69 -52q-14 21 -38 34.5t-62 13.5q-47 0 -79.5 -24.5t-46.5 -70.5h169v-59h-180v-18v-10.5t1 -10.5h179
v-60h-168q16 -45 50.5 -64t85.5 -19q35 0 63.5 15t45.5 34z" />
    <glyph glyph-name="IJacute" horiz-adv-x="727" 
d="M163 876h116l-112 -134h-88zM623 876h116l-112 -134h-88zM87 700h90v-700h-90v700zM443 -6q-64 0 -105.5 22.5t-67.5 54.5l58 63q22 -25 50.5 -43.5t67.5 -18.5q58 0 84.5 35t26.5 101v492h90v-486q0 -111 -53.5 -165.5t-150.5 -54.5z" />
    <glyph glyph-name="a.sc" horiz-adv-x="533" 
d="M376 123h-221l-48 -123h-93l206 497h93l206 -497h-95zM348 195l-82 209l-82 -209h164z" />
    <glyph glyph-name="a.ss01" horiz-adv-x="503" 
d="M431 115q0 -27 9.5 -38.5t31.5 -11.5v-64q-7 -2 -17 -3t-21 -1q-38 0 -59 19t-22 66q-24 -45 -66.5 -69.5t-97.5 -24.5q-71 0 -113.5 32t-42.5 94q0 66 47.5 101.5t142.5 36.5h120v66q0 49 -26.5 75.5t-77.5 26.5q-98 0 -98 -81q0 -11 2.5 -22t6.5 -17h-80q-5 7 -8 22
t-3 32q0 64 49.5 102t134.5 38q94 0 141 -45.5t47 -134.5v-199zM202 58q52 0 87.5 32t53.5 83v16l-127 -1q-48 0 -70.5 -19t-22.5 -49t20.5 -46t58.5 -16z" />
    <glyph glyph-name="aacute.sc" horiz-adv-x="533" 
d="M291 567h-79l84 174h107zM376 123h-221l-48 -123h-93l206 497h93l206 -497h-95zM348 195l-82 209l-82 -209h164z" />
    <glyph glyph-name="aacute.ss01" horiz-adv-x="503" 
d="M274 552h-79l84 174h107zM431 115q0 -27 9.5 -38.5t31.5 -11.5v-64q-7 -2 -17 -3t-21 -1q-38 0 -59 19t-22 66q-24 -45 -66.5 -69.5t-97.5 -24.5q-71 0 -113.5 32t-42.5 94q0 66 47.5 101.5t142.5 36.5h120v66q0 49 -26.5 75.5t-77.5 26.5q-98 0 -98 -81q0 -11 2.5 -22
t6.5 -17h-80q-5 7 -8 22t-3 32q0 64 49.5 102t134.5 38q94 0 141 -45.5t47 -134.5v-199zM202 58q52 0 87.5 32t53.5 83v16l-127 -1q-48 0 -70.5 -19t-22.5 -49t20.5 -46t58.5 -16z" />
    <glyph glyph-name="abreve.sc" horiz-adv-x="533" 
d="M267 581q-35 0 -59 10.5t-38.5 29t-21 43.5t-6.5 53h68q0 -67 56 -67q57 0 57 67h68q0 -28 -7 -53t-22 -43.5t-38.5 -29t-56.5 -10.5zM376 123h-221l-48 -123h-93l206 497h93l206 -497h-95zM348 195l-82 209l-82 -209h164z" />
    <glyph glyph-name="abreve.ss01" horiz-adv-x="503" 
d="M250 566q-35 0 -59 10.5t-38.5 29t-21 43.5t-6.5 53h68q0 -67 56 -67q57 0 57 67h68q0 -28 -7 -53t-22 -43.5t-38.5 -29t-56.5 -10.5zM431 115q0 -27 9.5 -38.5t31.5 -11.5v-64q-7 -2 -17 -3t-21 -1q-38 0 -59 19t-22 66q-24 -45 -66.5 -69.5t-97.5 -24.5
q-71 0 -113.5 32t-42.5 94q0 66 47.5 101.5t142.5 36.5h120v66q0 49 -26.5 75.5t-77.5 26.5q-98 0 -98 -81q0 -11 2.5 -22t6.5 -17h-80q-5 7 -8 22t-3 32q0 64 49.5 102t134.5 38q94 0 141 -45.5t47 -134.5v-199zM202 58q52 0 87.5 32t53.5 83v16l-127 -1q-48 0 -70.5 -19
t-22.5 -49t20.5 -46t58.5 -16z" />
    <glyph glyph-name="acircumflex.sc" horiz-adv-x="533" 
d="M208 567h-77l89 174h92l88 -174h-78l-57 108zM376 123h-221l-48 -123h-93l206 497h93l206 -497h-95zM348 195l-82 209l-82 -209h164z" />
    <glyph glyph-name="acircumflex.ss01" horiz-adv-x="503" 
d="M191 552h-77l89 174h92l88 -174h-78l-57 108zM431 115q0 -27 9.5 -38.5t31.5 -11.5v-64q-7 -2 -17 -3t-21 -1q-38 0 -59 19t-22 66q-24 -45 -66.5 -69.5t-97.5 -24.5q-71 0 -113.5 32t-42.5 94q0 66 47.5 101.5t142.5 36.5h120v66q0 49 -26.5 75.5t-77.5 26.5
q-98 0 -98 -81q0 -11 2.5 -22t6.5 -17h-80q-5 7 -8 22t-3 32q0 64 49.5 102t134.5 38q94 0 141 -45.5t47 -134.5v-199zM202 58q52 0 87.5 32t53.5 83v16l-127 -1q-48 0 -70.5 -19t-22.5 -49t20.5 -46t58.5 -16z" />
    <glyph glyph-name="acute.case" horiz-adv-x="272" 
d="M126 647h108l-112 -134h-80z" />
    <glyph glyph-name="acutecomb.case" 
d="M-146 876h116l-112 -134h-88z" />
    <glyph glyph-name="adieresis.sc" horiz-adv-x="533" 
d="M175 595q-24 0 -40 17.5t-16 41.5q0 23 16 41t40 18t41 -18t17 -41q0 -24 -17 -41.5t-41 -17.5zM359 595q-24 0 -41.5 17.5t-17.5 41.5q0 23 17.5 41t41.5 18t40 -18t16 -41q0 -24 -16 -41.5t-40 -17.5zM376 123h-221l-48 -123h-93l206 497h93l206 -497h-95zM348 195
l-82 209l-82 -209h164z" />
    <glyph glyph-name="adieresis.ss01" horiz-adv-x="503" 
d="M158 580q-24 0 -40 17.5t-16 41.5q0 23 16 41t40 18t41 -18t17 -41q0 -24 -17 -41.5t-41 -17.5zM342 580q-24 0 -41.5 17.5t-17.5 41.5q0 23 17.5 41t41.5 18t40 -18t16 -41q0 -24 -16 -41.5t-40 -17.5zM431 115q0 -27 9.5 -38.5t31.5 -11.5v-64q-7 -2 -17 -3t-21 -1
q-38 0 -59 19t-22 66q-24 -45 -66.5 -69.5t-97.5 -24.5q-71 0 -113.5 32t-42.5 94q0 66 47.5 101.5t142.5 36.5h120v66q0 49 -26.5 75.5t-77.5 26.5q-98 0 -98 -81q0 -11 2.5 -22t6.5 -17h-80q-5 7 -8 22t-3 32q0 64 49.5 102t134.5 38q94 0 141 -45.5t47 -134.5v-199z
M202 58q52 0 87.5 32t53.5 83v16l-127 -1q-48 0 -70.5 -19t-22.5 -49t20.5 -46t58.5 -16z" />
    <glyph glyph-name="ae.sc" horiz-adv-x="690" 
d="M220 497h427v-77h-308l55 -134h198v-76h-169l58 -133h166v-77h-226l-53 125h-208l-51 -125h-95zM343 198l-79 203l-78 -203h157z" />
    <glyph glyph-name="aeacute.sc" horiz-adv-x="690" 
d="M419 741h107l-112 -174h-79zM220 497h427v-77h-308l55 -134h198v-76h-169l58 -133h166v-77h-226l-53 125h-208l-51 -125h-95zM343 198l-79 203l-78 -203h157z" />
    <glyph glyph-name="agrave.sc" horiz-adv-x="533" 
d="M224 567l-112 174h107l83 -174h-78zM376 123h-221l-48 -123h-93l206 497h93l206 -497h-95zM348 195l-82 209l-82 -209h164z" />
    <glyph glyph-name="agrave.ss01" horiz-adv-x="503" 
d="M207 552l-112 174h107l83 -174h-78zM431 115q0 -27 9.5 -38.5t31.5 -11.5v-64q-7 -2 -17 -3t-21 -1q-38 0 -59 19t-22 66q-24 -45 -66.5 -69.5t-97.5 -24.5q-71 0 -113.5 32t-42.5 94q0 66 47.5 101.5t142.5 36.5h120v66q0 49 -26.5 75.5t-77.5 26.5q-98 0 -98 -81
q0 -11 2.5 -22t6.5 -17h-80q-5 7 -8 22t-3 32q0 64 49.5 102t134.5 38q94 0 141 -45.5t47 -134.5v-199zM202 58q52 0 87.5 32t53.5 83v16l-127 -1q-48 0 -70.5 -19t-22.5 -49t20.5 -46t58.5 -16z" />
    <glyph glyph-name="amacron.sc" horiz-adv-x="533" 
d="M394 615h-254v71h254v-71zM376 123h-221l-48 -123h-93l206 497h93l206 -497h-95zM348 195l-82 209l-82 -209h164z" />
    <glyph glyph-name="amacron.ss01" horiz-adv-x="503" 
d="M377 600h-254v71h254v-71zM431 115q0 -27 9.5 -38.5t31.5 -11.5v-64q-7 -2 -17 -3t-21 -1q-38 0 -59 19t-22 66q-24 -45 -66.5 -69.5t-97.5 -24.5q-71 0 -113.5 32t-42.5 94q0 66 47.5 101.5t142.5 36.5h120v66q0 49 -26.5 75.5t-77.5 26.5q-98 0 -98 -81q0 -11 2.5 -22
t6.5 -17h-80q-5 7 -8 22t-3 32q0 64 49.5 102t134.5 38q94 0 141 -45.5t47 -134.5v-199zM202 58q52 0 87.5 32t53.5 83v16l-127 -1q-48 0 -70.5 -19t-22.5 -49t20.5 -46t58.5 -16z" />
    <glyph glyph-name="ampersand.sc" horiz-adv-x="569" 
d="M527 -8q-55 14 -111 41q-64 -45 -166 -45t-154.5 40.5t-52.5 111.5q0 48 25.5 86t67.5 56q-11 22 -17.5 45.5t-6.5 48.5q0 66 44.5 105.5t119.5 39.5q74 0 118 -35.5t44 -92.5q0 -17 -3.5 -34t-9.5 -28h-76q5 9 8 23t3 26q0 32 -22 50.5t-60 18.5q-42 0 -64.5 -19.5
t-22.5 -54.5q0 -38 23.5 -77t70.5 -83q16 -15 46.5 -40.5t71.5 -51.5q23 40 23 112h78q0 -88 -37 -148q20 -9 40 -17t41 -13zM258 56q55 0 90 16q-32 20 -60 42.5t-54 45.5q-19 17 -36 35t-31 37q-23 -17 -32 -36t-9 -44q0 -44 31.5 -70t100.5 -26z" />
    <glyph glyph-name="aogonek.sc" horiz-adv-x="533" 
d="M534 -155q-12 -13 -32 -20t-43 -7q-47 0 -71.5 22t-24.5 63q0 29 15.5 56t42.5 48l-45 116h-221l-48 -123h-93l206 497h93l206 -497h-14q-29 -9 -47 -31.5t-18 -50.5q0 -20 9.5 -29t25.5 -9q10 0 17.5 3.5t12.5 7.5zM348 195l-82 209l-82 -209h164z" />
    <glyph glyph-name="aogonek.ss01" horiz-adv-x="503" 
d="M501 -154q-12 -13 -32 -20t-43 -7q-47 0 -71.5 22t-24.5 63q0 28 15 55t42 48q-16 10 -24.5 28t-9.5 47q-24 -45 -66.5 -69.5t-97.5 -24.5q-71 0 -113.5 32t-42.5 94q0 66 47.5 101.5t142.5 36.5h120v66q0 49 -26.5 75.5t-77.5 26.5q-98 0 -98 -81q0 -11 2.5 -22t6.5 -17
h-80q-5 7 -8 22t-3 32q0 64 49.5 102t134.5 38q94 0 141 -45.5t47 -134.5v-199q0 -27 9.5 -38.5t31.5 -11.5v-64q-29 -9 -47 -31.5t-18 -50.5q0 -20 9.5 -29t25.5 -9q10 0 17.5 3.5t12.5 7.5zM202 58q52 0 87.5 32t53.5 83v16l-127 -1q-48 0 -70.5 -19t-22.5 -49t20.5 -46
t58.5 -16z" />
    <glyph glyph-name="aring.sc" horiz-adv-x="533" 
d="M267 548q-45 0 -75.5 30t-30.5 75t30.5 75.5t75.5 30.5t75 -30.5t30 -75.5t-30 -75t-75 -30zM267 696q-20 0 -31.5 -12t-11.5 -31t11.5 -31t31.5 -12q19 0 31 12t12 31t-12 31t-31 12zM376 123h-221l-48 -123h-93l206 497h93l206 -497h-95zM348 195l-82 209l-82 -209h164
z" />
    <glyph glyph-name="aring.ss01" horiz-adv-x="503" 
d="M250 533q-45 0 -75.5 30t-30.5 75t30.5 75.5t75.5 30.5t75 -30.5t30 -75.5t-30 -75t-75 -30zM250 681q-20 0 -31.5 -12t-11.5 -31t11.5 -31t31.5 -12q19 0 31 12t12 31t-12 31t-31 12zM431 115q0 -27 9.5 -38.5t31.5 -11.5v-64q-7 -2 -17 -3t-21 -1q-38 0 -59 19t-22 66
q-24 -45 -66.5 -69.5t-97.5 -24.5q-71 0 -113.5 32t-42.5 94q0 66 47.5 101.5t142.5 36.5h120v66q0 49 -26.5 75.5t-77.5 26.5q-98 0 -98 -81q0 -11 2.5 -22t6.5 -17h-80q-5 7 -8 22t-3 32q0 64 49.5 102t134.5 38q94 0 141 -45.5t47 -134.5v-199zM202 58q52 0 87.5 32
t53.5 83v16l-127 -1q-48 0 -70.5 -19t-22.5 -49t20.5 -46t58.5 -16z" />
    <glyph glyph-name="aringacute.sc" horiz-adv-x="533" 
d="M376 123h-221l-48 -123h-93l204 492q-25 14 -40 38t-15 55q0 34 17.5 60t46.5 38l80 127h116l-108 -129q26 -13 42.5 -38.5t16.5 -57.5t-16 -57t-42 -37l203 -491h-95zM269 628q-20 0 -31.5 -12t-11.5 -31t11.5 -31t31.5 -12q19 0 31 12t12 31t-12 31t-31 12zM348 195
l-82 209l-82 -209h164z" />
    <glyph glyph-name="aringacute.ss01" horiz-adv-x="503" 
d="M250 533q-45 0 -75.5 30t-30.5 75q0 35 19 62t51 38l65 135h107l-90 -139q26 -13 42.5 -38.5t16.5 -57.5q0 -45 -30 -75t-75 -30zM250 595q19 0 31 12t12 31t-12 31t-31 12q-20 0 -31.5 -12t-11.5 -31t11.5 -31t31.5 -12zM431 115q0 -27 9.5 -38.5t31.5 -11.5v-64
q-7 -2 -17 -3t-21 -1q-38 0 -59 19t-22 66q-24 -45 -66.5 -69.5t-97.5 -24.5q-71 0 -113.5 32t-42.5 94q0 66 47.5 101.5t142.5 36.5h120v66q0 49 -26.5 75.5t-77.5 26.5q-98 0 -98 -81q0 -11 2.5 -22t6.5 -17h-80q-5 7 -8 22t-3 32q0 64 49.5 102t134.5 38q94 0 141 -45.5
t47 -134.5v-199zM202 58q52 0 87.5 32t53.5 83v16l-127 -1q-48 0 -70.5 -19t-22.5 -49t20.5 -46t58.5 -16z" />
    <glyph glyph-name="atilde.sc" horiz-adv-x="533" 
d="M125 543q-5 11 -8 22.5t-3 28.5q0 27 20.5 48t58.5 21q23 0 41 -6t33.5 -13.5t29.5 -13.5t27 -6q23 0 23 23q0 8 -2 13t-4 9h67q5 -11 8 -22.5t3 -28.5q0 -26 -20.5 -47.5t-66.5 -21.5q-22 0 -40 6t-33 13.5t-27.5 13.5t-24.5 6q-9 0 -15 -6t-6 -17q0 -8 2 -13t4 -9h-67z
M376 123h-221l-48 -123h-93l206 497h93l206 -497h-95zM348 195l-82 209l-82 -209h164z" />
    <glyph glyph-name="atilde.ss01" horiz-adv-x="503" 
d="M110 572q-5 11 -8 22.5t-3 28.5q0 28 19.5 49t64.5 21q20 0 37 -6t32 -13.5t28.5 -14t26.5 -6.5q25 0 25 23q0 8 -2 13t-4 9h67q5 -11 8 -22.5t3 -28.5q0 -27 -19.5 -49t-64.5 -22q-23 0 -41 6.5t-33 14t-27 14t-23 6.5q-25 0 -25 -23q0 -8 2 -13t4 -9h-67zM431 115
q0 -27 9.5 -38.5t31.5 -11.5v-64q-7 -2 -17 -3t-21 -1q-38 0 -59 19t-22 66q-24 -45 -66.5 -69.5t-97.5 -24.5q-71 0 -113.5 32t-42.5 94q0 66 47.5 101.5t142.5 36.5h120v66q0 49 -26.5 75.5t-77.5 26.5q-98 0 -98 -81q0 -11 2.5 -22t6.5 -17h-80q-5 7 -8 22t-3 32
q0 64 49.5 102t134.5 38q94 0 141 -45.5t47 -134.5v-199zM202 58q52 0 87.5 32t53.5 83v16l-127 -1q-48 0 -70.5 -19t-22.5 -49t20.5 -46t58.5 -16z" />
    <glyph glyph-name="b.sc" horiz-adv-x="521" 
d="M385 270q18 -5 35.5 -15t31 -25.5t22 -37t8.5 -49.5q0 -36 -15 -62.5t-41 -44.5t-62.5 -27t-80.5 -9h-207v497h192q186 0 186 -127q0 -36 -19 -62.5t-50 -37.5zM165 288h113q45 0 66 19.5t21 50.5q0 33 -21.5 51t-63.5 18h-115v-139zM279 69q112 0 112 77q0 74 -102 74
h-124v-151h114z" />
    <glyph glyph-name="braceleft.sc" horiz-adv-x="289" 
d="M248 -87q-29 -5 -57 -0.5t-49.5 20t-35 43t-13.5 68.5v124q0 26 -15.5 37t-34.5 11h-8v68h8q19 0 34.5 11t15.5 37v124q0 41 13.5 68.5t35 43t49.5 20t57 -0.5v-72q-37 10 -58 -10.5t-21 -62.5v-130q0 -17 -4.5 -28.5t-10.5 -18.5t-12.5 -10.5t-10.5 -4.5q3 -1 9.5 -5
t12.5 -11.5t11 -19t5 -26.5v-130q0 -42 21 -62.5t58 -10.5v-72z" />
    <glyph glyph-name="braceright.sc" horiz-adv-x="289" 
d="M41 588q29 5 57 0.5t50 -20t35 -43t13 -68.5v-124q0 -26 15.5 -37t34.5 -11h8v-68h-8q-19 0 -34.5 -11t-15.5 -37v-124q0 -41 -13 -68.5t-35 -43t-50 -20t-57 0.5v72q37 -10 58 10.5t21 62.5v130q0 17 4.5 28.5t10.5 18.5t12.5 10.5t10.5 4.5q-3 1 -9.5 5t-12.5 11.5
t-11 19t-5 26.5v130q0 42 -21 62.5t-58 10.5v72z" />
    <glyph glyph-name="bracketleft.sc" horiz-adv-x="303" 
d="M82 595h184v-69h-104v-550h104v-69h-184v688z" />
    <glyph glyph-name="bracketright.sc" horiz-adv-x="303" 
d="M37 -24h104v550h-104v69h184v-688h-184v69z" />
    <glyph glyph-name="breve.case" horiz-adv-x="327" 
d="M164 523q-30 0 -53.5 10t-39.5 26.5t-24 38t-8 45.5h68q0 -56 56 -58q57 0 57 58h68q0 -24 -8 -45.5t-24 -38t-39 -26.5t-53 -10z" />
    <glyph glyph-name="c.sc" horiz-adv-x="517" 
d="M284 -12q-53 0 -97.5 16.5t-76.5 48.5t-49.5 80.5t-17.5 112.5q0 60 17 109t49 83t77 52.5t102 18.5q41 0 76 -9.5t60 -28.5t39 -47t14 -65q0 -11 -2 -22t-5 -21h-84q2 11 2.5 16t0.5 15q0 40 -24.5 64t-78.5 24q-68 0 -107.5 -47t-39.5 -141q0 -91 42 -138.5t108 -47.5
q48 0 81.5 17t57.5 55l58 -45q-34 -50 -80.5 -75t-121.5 -25z" />
    <glyph glyph-name="cacute.sc" horiz-adv-x="517" 
d="M315 741h107l-112 -174h-79zM284 -12q-53 0 -97.5 16.5t-76.5 48.5t-49.5 80.5t-17.5 112.5q0 60 17 109t49 83t77 52.5t102 18.5q41 0 76 -9.5t60 -28.5t39 -47t14 -65q0 -11 -2 -22t-5 -21h-84q2 11 2.5 16t0.5 15q0 40 -24.5 64t-78.5 24q-68 0 -107.5 -47t-39.5 -141
q0 -91 42 -138.5t108 -47.5q48 0 81.5 17t57.5 55l58 -45q-34 -50 -80.5 -75t-121.5 -25z" />
    <glyph glyph-name="caron.alt" horiz-adv-x="232" 
d="M60 571q20 7 34 20t15 27q-23 0 -39 16.5t-16 41.5t17 42t42 17q29 0 47 -19t18 -48q0 -49 -26 -88t-66 -50z" />
    <glyph glyph-name="caron.case" horiz-adv-x="339" 
d="M32 657h79l58 -77l58 77h79l-87 -144h-99z" />
    <glyph glyph-name="caroncomb.alt" 
d="M-101 571q20 7 34 20t15 27q-23 0 -39 16.5t-16 41.5t17 42t42 17q29 0 47 -19t18 -48q0 -49 -26 -88t-66 -50z" />
    <glyph glyph-name="ccaron.sc" horiz-adv-x="517" 
d="M151 741h78l57 -108l57 108h77l-89 -174h-92zM284 -12q-53 0 -97.5 16.5t-76.5 48.5t-49.5 80.5t-17.5 112.5q0 60 17 109t49 83t77 52.5t102 18.5q41 0 76 -9.5t60 -28.5t39 -47t14 -65q0 -11 -2 -22t-5 -21h-84q2 11 2.5 16t0.5 15q0 40 -24.5 64t-78.5 24
q-68 0 -107.5 -47t-39.5 -141q0 -91 42 -138.5t108 -47.5q48 0 81.5 17t57.5 55l58 -45q-34 -50 -80.5 -75t-121.5 -25z" />
    <glyph glyph-name="ccedilla.sc" horiz-adv-x="517" 
d="M486 88q-30 -44 -69 -68.5t-99 -30.5l-9 -28q15 -2 29.5 -7t25.5 -14.5t18 -23.5t7 -34q0 -42 -32.5 -63.5t-80.5 -21.5q-26 0 -49.5 7.5t-38.5 22.5l28 52q26 -21 56 -21q15 0 24.5 6t9.5 20q0 17 -20.5 26.5t-51.5 11.5l25 67q-97 7 -156.5 71.5t-59.5 185.5
q0 60 17 109t49 83t77 52.5t102 18.5q41 0 76 -9.5t60 -28.5t39 -47t14 -65q0 -11 -2 -22t-5 -21h-84q2 11 2.5 16t0.5 15q0 40 -24.5 64t-78.5 24q-68 0 -107.5 -47t-39.5 -141q0 -91 42 -138.5t108 -47.5q48 0 81.5 17t57.5 55z" />
    <glyph glyph-name="ccircumflex.sc" horiz-adv-x="517" 
d="M239 741h92l88 -174h-78l-57 108l-57 -108h-77zM284 -12q-53 0 -97.5 16.5t-76.5 48.5t-49.5 80.5t-17.5 112.5q0 60 17 109t49 83t77 52.5t102 18.5q41 0 76 -9.5t60 -28.5t39 -47t14 -65q0 -11 -2 -22t-5 -21h-84q2 11 2.5 16t0.5 15q0 40 -24.5 64t-78.5 24
q-68 0 -107.5 -47t-39.5 -141q0 -91 42 -138.5t108 -47.5q48 0 81.5 17t57.5 55l58 -45q-34 -50 -80.5 -75t-121.5 -25z" />
    <glyph glyph-name="cdotaccent.sc" horiz-adv-x="517" 
d="M286 595q-24 0 -41.5 17t-17.5 42q0 24 17.5 41.5t41.5 17.5t41.5 -17.5t17.5 -41.5q0 -25 -17.5 -42t-41.5 -17zM284 -12q-53 0 -97.5 16.5t-76.5 48.5t-49.5 80.5t-17.5 112.5q0 60 17 109t49 83t77 52.5t102 18.5q41 0 76 -9.5t60 -28.5t39 -47t14 -65q0 -11 -2 -22
t-5 -21h-84q2 11 2.5 16t0.5 15q0 40 -24.5 64t-78.5 24q-68 0 -107.5 -47t-39.5 -141q0 -91 42 -138.5t108 -47.5q48 0 81.5 17t57.5 55l58 -45q-34 -50 -80.5 -75t-121.5 -25z" />
    <glyph glyph-name="cent.osf" horiz-adv-x="472" 
d="M445 68q-20 -27 -56.5 -48t-88.5 -25v-70h-74v73q-86 15 -135 77.5t-49 165.5q0 102 49.5 166.5t134.5 78.5v71h74v-68q52 -5 86 -25t54 -50l-69 -52q-11 17 -28 29t-43 17v-333q29 4 53 17.5t38 30.5zM134 238q0 -69 24 -106.5t69 -50.5v323q-45 -14 -69 -56.5
t-24 -109.5z" />
    <glyph glyph-name="cent.sc" horiz-adv-x="466" 
d="M442 68q-20 -27 -56.5 -48t-88.5 -25v-70h-74v73q-86 15 -135 77.5t-49 165.5q0 102 49.5 166.5t134.5 78.5v71h74v-68q52 -5 86 -25t54 -50l-69 -52q-11 17 -28 29t-43 17v-333q29 4 53 17.5t38 30.5zM131 238q0 -69 24 -106.5t69 -50.5v323q-45 -14 -69 -56.5
t-24 -109.5z" />
    <glyph glyph-name="circumflex.case" horiz-adv-x="354" 
d="M126 657h99l87 -144h-79l-58 77l-58 -77h-79z" />
    <glyph glyph-name="currency.osf" horiz-adv-x="548" 
d="M39 79l81 81q-25 42 -25 91q0 50 25 91l-79 80l45 46l78 -79q22 20 50.5 31t60.5 11t59.5 -11t49.5 -31l78 79l46 -46l-79 -80q12 -20 19 -43t7 -48q0 -51 -26 -92l77 -76l-46 -46l-76 76q-21 -20 -49 -31t-60 -11t-60.5 11t-50.5 31l-79 -80zM275 140q23 0 43 9t35 24
t24 35t9 43t-9 43.5t-24 35.5t-35 23.5t-43 8.5t-43 -8.5t-35 -23.5t-24 -35.5t-9 -43.5t8.5 -43t23.5 -35t35.5 -24t43.5 -9z" />
    <glyph glyph-name="currency.sc" horiz-adv-x="548" 
d="M39 79l81 81q-25 42 -25 91q0 50 25 91l-79 80l45 46l78 -79q22 20 50.5 31t60.5 11t59.5 -11t49.5 -31l78 79l46 -46l-79 -80q12 -20 19 -43t7 -48q0 -51 -26 -92l77 -76l-46 -46l-76 76q-21 -20 -49 -31t-60 -11t-60.5 11t-50.5 31l-79 -80zM275 140q23 0 43 9t35 24
t24 35t9 43t-9 43.5t-24 35.5t-35 23.5t-43 8.5t-43 -8.5t-35 -23.5t-24 -35.5t-9 -43.5t8.5 -43t23.5 -35t35.5 -24t43.5 -9z" />
    <glyph glyph-name="d.sc" horiz-adv-x="563" 
d="M76 497h171q56 0 105.5 -13.5t87 -43.5t59.5 -77t22 -114t-23.5 -114.5t-61.5 -77.5t-85.5 -43.5t-96.5 -13.5h-178v497zM246 76q81 0 130 41.5t49 127.5t-47.5 131t-135.5 45h-77v-345h81z" />
    <glyph glyph-name="dcaron.sc" horiz-adv-x="563" 
d="M143 673h80l58 -74l58 74h78l-88 -134h-99zM76 497h171q56 0 105.5 -13.5t87 -43.5t59.5 -77t22 -114t-23.5 -114.5t-61.5 -77.5t-85.5 -43.5t-96.5 -13.5h-178v497zM246 76q81 0 130 41.5t49 127.5t-47.5 131t-135.5 45h-77v-345h81z" />
    <glyph glyph-name="dcroat.sc" horiz-adv-x="594" 
d="M278 497q56 0 105.5 -13.5t87 -43.5t59.5 -77t22 -114t-23.5 -114.5t-61.5 -77.5t-85.5 -43.5t-96.5 -13.5h-178v211h-89v77h89v209h171zM277 76q81 0 130 41.5t49 127.5t-47.5 131t-135.5 45h-77v-133h105v-77h-105v-135h81z" />
    <glyph glyph-name="dieresis.case" horiz-adv-x="359" 
d="M89 544q-22 0 -37 15t-15 37q0 21 15 36.5t37 15.5q21 0 36 -15.5t15 -36.5q0 -22 -15 -37t-36 -15zM271 544q-21 0 -36.5 15t-15.5 37q0 21 15.5 36.5t36.5 15.5q22 0 37 -15.5t15 -36.5q0 -22 -15 -37t-37 -15z" />
    <glyph glyph-name="dollar.osf" horiz-adv-x="474" 
d="M273 277q30 -6 59 -14t52 -23t37.5 -39t14.5 -61q0 -57 -44 -94t-119 -44v-86h-66v83q-64 2 -112 25t-69 56l58 54q21 -29 53.5 -43.5t70.5 -18.5v138q-30 6 -59.5 13.5t-52.5 22t-37.5 38t-14.5 60.5q0 60 43 95.5t120 42.5v80h66v-81q29 -3 58 -12t51 -27t33.5 -46
t3.5 -68l-79 -1q8 38 -12 57.5t-55 25.5v-133zM127 349q0 -28 23 -40t58 -20v123q-38 -5 -59.5 -21t-21.5 -42zM273 72q37 5 58 21t21 43q0 28 -22.5 41t-56.5 21v-126z" />
    <glyph glyph-name="dollar.sc" horiz-adv-x="476" 
d="M273 277q30 -6 59 -14t52 -23t37.5 -39t14.5 -61q0 -60 -44 -95.5t-119 -42.5v-86h-66v83q-63 5 -111.5 26.5t-69.5 54.5l58 54q21 -29 53.5 -43.5t70.5 -18.5v138q-30 6 -59.5 14t-52.5 23t-37.5 38.5t-14.5 59.5q0 61 43 95.5t120 41.5v80h66v-81q29 -3 58 -12t51 -27
t33.5 -46t3.5 -68l-79 -1q8 38 -12 57.5t-55 25.5v-133zM127 352q0 -29 23 -42t58 -21v123q-38 -4 -59.5 -19t-21.5 -41zM273 72q37 5 58 20t21 44q0 28 -22.5 41t-56.5 21v-126z" />
    <glyph glyph-name="dotaccent.case" horiz-adv-x="186" 
d="M93 563q-21 0 -36.5 15t-15.5 37q0 21 15.5 36.5t36.5 15.5t36.5 -15.5t15.5 -36.5q0 -22 -15.5 -37t-36.5 -15z" />
    <glyph glyph-name="dotlessi.sc" horiz-adv-x="243" 
d="M76 497h91v-497h-91v497z" />
    <glyph glyph-name="dotlessi.ss01" horiz-adv-x="236" 
d="M160 -3q-46 0 -68 27.5t-22 72.5v385h88v-369q0 -26 9.5 -37t31.5 -11v-64q-5 -2 -16 -3t-23 -1z" />
    <glyph glyph-name="e.sc" horiz-adv-x="478" 
d="M76 497h357v-79h-268v-126h228v-80h-228v-133h268v-79h-357v497z" />
    <glyph glyph-name="e.ss01" horiz-adv-x="486" 
d="M446 279v-22.5t-1 -26.5h-314q2 -83 37.5 -125.5t99.5 -42.5q42 0 71.5 16.5t50.5 46.5l53 -42q-25 -42 -71.5 -68.5t-107.5 -26.5q-105 0 -164 66t-59 182q0 59 14.5 106.5t42.5 81.5t68.5 52t91.5 18q91 0 139.5 -56.5t48.5 -158.5zM359 296q0 55 -25.5 90t-82.5 35
q-56 0 -82 -35t-34 -90h224z" />
    <glyph glyph-name="eacute.sc" horiz-adv-x="478" 
d="M297 741h107l-112 -174h-79zM76 497h357v-79h-268v-126h228v-80h-228v-133h268v-79h-357v497z" />
    <glyph glyph-name="eacute.ss01" horiz-adv-x="486" 
d="M275 552h-79l84 174h107zM446 279v-22.5t-1 -26.5h-314q2 -83 37.5 -125.5t99.5 -42.5q42 0 71.5 16.5t50.5 46.5l53 -42q-25 -42 -71.5 -68.5t-107.5 -26.5q-105 0 -164 66t-59 182q0 59 14.5 106.5t42.5 81.5t68.5 52t91.5 18q91 0 139.5 -56.5t48.5 -158.5zM359 296
q0 55 -25.5 90t-82.5 35q-56 0 -82 -35t-34 -90h224z" />
    <glyph glyph-name="ebreve.sc" horiz-adv-x="478" 
d="M268 581q-35 0 -59 10.5t-38.5 29t-21 43.5t-6.5 53h68q0 -67 56 -67q57 0 57 67h68q0 -28 -7 -53t-22 -43.5t-38.5 -29t-56.5 -10.5zM76 497h357v-79h-268v-126h228v-80h-228v-133h268v-79h-357v497z" />
    <glyph glyph-name="ebreve.ss01" horiz-adv-x="486" 
d="M251 566q-35 0 -59 10.5t-38.5 29t-21 43.5t-6.5 53h68q0 -67 56 -67q57 0 57 67h68q0 -28 -7 -53t-22 -43.5t-38.5 -29t-56.5 -10.5zM446 279v-22.5t-1 -26.5h-314q2 -83 37.5 -125.5t99.5 -42.5q42 0 71.5 16.5t50.5 46.5l53 -42q-25 -42 -71.5 -68.5t-107.5 -26.5
q-105 0 -164 66t-59 182q0 59 14.5 106.5t42.5 81.5t68.5 52t91.5 18q91 0 139.5 -56.5t48.5 -158.5zM359 296q0 55 -25.5 90t-82.5 35q-56 0 -82 -35t-34 -90h224z" />
    <glyph glyph-name="ecaron.sc" horiz-adv-x="478" 
d="M133 741h78l57 -108l57 108h77l-89 -174h-92zM76 497h357v-79h-268v-126h228v-80h-228v-133h268v-79h-357v497z" />
    <glyph glyph-name="ecaron.ss01" horiz-adv-x="486" 
d="M204 552l-88 174h78l57 -108l57 108h77l-89 -174h-92zM446 279v-22.5t-1 -26.5h-314q2 -83 37.5 -125.5t99.5 -42.5q42 0 71.5 16.5t50.5 46.5l53 -42q-25 -42 -71.5 -68.5t-107.5 -26.5q-105 0 -164 66t-59 182q0 59 14.5 106.5t42.5 81.5t68.5 52t91.5 18
q91 0 139.5 -56.5t48.5 -158.5zM359 296q0 55 -25.5 90t-82.5 35q-56 0 -82 -35t-34 -90h224z" />
    <glyph glyph-name="ecircumflex.sc" horiz-adv-x="478" 
d="M221 741h92l88 -174h-78l-57 108l-57 -108h-77zM76 497h357v-79h-268v-126h228v-80h-228v-133h268v-79h-357v497z" />
    <glyph glyph-name="ecircumflex.ss01" horiz-adv-x="486" 
d="M192 552h-77l89 174h92l88 -174h-78l-57 108zM446 279v-22.5t-1 -26.5h-314q2 -83 37.5 -125.5t99.5 -42.5q42 0 71.5 16.5t50.5 46.5l53 -42q-25 -42 -71.5 -68.5t-107.5 -26.5q-105 0 -164 66t-59 182q0 59 14.5 106.5t42.5 81.5t68.5 52t91.5 18q91 0 139.5 -56.5
t48.5 -158.5zM359 296q0 55 -25.5 90t-82.5 35q-56 0 -82 -35t-34 -90h224z" />
    <glyph glyph-name="edieresis.sc" horiz-adv-x="478" 
d="M176 595q-24 0 -40 17.5t-16 41.5q0 23 16 41t40 18t41 -18t17 -41q0 -24 -17 -41.5t-41 -17.5zM360 595q-24 0 -41.5 17.5t-17.5 41.5q0 23 17.5 41t41.5 18t40 -18t16 -41q0 -24 -16 -41.5t-40 -17.5zM76 497h357v-79h-268v-126h228v-80h-228v-133h268v-79h-357v497z
" />
    <glyph glyph-name="edieresis.ss01" horiz-adv-x="486" 
d="M159 580q-24 0 -40 17.5t-16 41.5q0 23 16 41t40 18t41 -18t17 -41q0 -24 -17 -41.5t-41 -17.5zM343 580q-24 0 -41.5 17.5t-17.5 41.5q0 23 17.5 41t41.5 18t40 -18t16 -41q0 -24 -16 -41.5t-40 -17.5zM446 279v-22.5t-1 -26.5h-314q2 -83 37.5 -125.5t99.5 -42.5
q42 0 71.5 16.5t50.5 46.5l53 -42q-25 -42 -71.5 -68.5t-107.5 -26.5q-105 0 -164 66t-59 182q0 59 14.5 106.5t42.5 81.5t68.5 52t91.5 18q91 0 139.5 -56.5t48.5 -158.5zM359 296q0 55 -25.5 90t-82.5 35q-56 0 -82 -35t-34 -90h224z" />
    <glyph glyph-name="edotaccent.sc" horiz-adv-x="478" 
d="M268 595q-24 0 -41.5 17t-17.5 42q0 24 17.5 41.5t41.5 17.5t41.5 -17.5t17.5 -41.5q0 -25 -17.5 -42t-41.5 -17zM76 497h357v-79h-268v-126h228v-80h-228v-133h268v-79h-357v497z" />
    <glyph glyph-name="edotaccent.ss01" horiz-adv-x="486" 
d="M251 580q-24 0 -41.5 17t-17.5 42q0 24 17.5 41.5t41.5 17.5t41.5 -17.5t17.5 -41.5q0 -25 -17.5 -42t-41.5 -17zM446 279v-22.5t-1 -26.5h-314q2 -83 37.5 -125.5t99.5 -42.5q42 0 71.5 16.5t50.5 46.5l53 -42q-25 -42 -71.5 -68.5t-107.5 -26.5q-105 0 -164 66t-59 182
q0 59 14.5 106.5t42.5 81.5t68.5 52t91.5 18q91 0 139.5 -56.5t48.5 -158.5zM359 296q0 55 -25.5 90t-82.5 35q-56 0 -82 -35t-34 -90h224z" />
    <glyph glyph-name="egrave.sc" horiz-adv-x="478" 
d="M113 741h107l83 -174h-78zM76 497h357v-79h-268v-126h228v-80h-228v-133h268v-79h-357v497z" />
    <glyph glyph-name="egrave.ss01" horiz-adv-x="486" 
d="M208 552l-112 174h107l83 -174h-78zM446 279v-22.5t-1 -26.5h-314q2 -83 37.5 -125.5t99.5 -42.5q42 0 71.5 16.5t50.5 46.5l53 -42q-25 -42 -71.5 -68.5t-107.5 -26.5q-105 0 -164 66t-59 182q0 59 14.5 106.5t42.5 81.5t68.5 52t91.5 18q91 0 139.5 -56.5t48.5 -158.5z
M359 296q0 55 -25.5 90t-82.5 35q-56 0 -82 -35t-34 -90h224z" />
    <glyph glyph-name="eight.dnom" horiz-adv-x="376" 
d="M184 -10q-146 0 -146 104q0 31 17 56.5t48 40.5q-21 14 -36 35t-15 55q0 48 37 78.5t101 30.5q60 0 97.5 -26.5t37.5 -77.5q0 -32 -16.5 -52.5t-35.5 -33.5q64 -26 64 -96q0 -53 -40 -83.5t-113 -30.5zM220 216q17 10 29.5 25t12.5 38q0 29 -20.5 44t-52.5 15
q-38 0 -56 -15.5t-18 -38.5q0 -17 10 -31.5t34 -20.5zM186 41q41 0 63.5 14t22.5 43q0 27 -16 39.5t-43 19.5l-62 16q-19 -10 -34 -28t-15 -41q0 -34 22.5 -48.5t61.5 -14.5z" />
    <glyph glyph-name="eight.numr" horiz-adv-x="376" 
d="M184 311q-146 0 -146 104q0 31 17 56.5t48 40.5q-21 14 -36 35t-15 55q0 48 37 78.5t101 30.5q60 0 97.5 -26.5t37.5 -77.5q0 -32 -16.5 -52.5t-35.5 -33.5q64 -26 64 -96q0 -53 -40 -83.5t-113 -30.5zM220 537q17 10 29.5 25t12.5 38q0 29 -20.5 44t-52.5 15
q-38 0 -56 -15.5t-18 -38.5q0 -17 10 -31.5t34 -20.5zM186 362q41 0 63.5 14t22.5 43q0 27 -16 39.5t-43 19.5l-62 16q-19 -10 -34 -28t-15 -41q0 -34 22.5 -48.5t61.5 -14.5z" />
    <glyph glyph-name="eight.osf" horiz-adv-x="553" 
d="M401 358q56 -28 81 -70.5t25 -99.5q0 -43 -16.5 -79t-47 -61.5t-73 -39.5t-95.5 -14q-111 0 -170.5 46.5t-59.5 139.5q0 60 29.5 108t77.5 77q-41 24 -66 62t-25 93q0 42 16 76t44.5 58.5t68.5 38t88 13.5q100 0 157.5 -46t57.5 -134q0 -57 -25.5 -99.5t-66.5 -68.5z
M275 631q-60 0 -95 -28.5t-35 -79.5q0 -42 24.5 -68.5t64.5 -39.5l96 -31q42 25 61 59.5t19 72.5q0 57 -36 86t-99 29zM275 68q73 0 110.5 31t37.5 85q0 44 -23.5 72t-74.5 45l-107 36q-36 -24 -61.5 -59t-25.5 -83q0 -56 35 -91.5t109 -35.5z" />
    <glyph glyph-name="eight.sc" horiz-adv-x="484" 
d="M353 261q48 -19 68.5 -50t20.5 -73q0 -69 -54 -109.5t-148 -40.5q-95 0 -147 37t-52 106q0 41 23.5 72t60.5 51q-28 18 -44.5 45t-16.5 62q0 66 49 107t130 41q82 0 131.5 -36.5t49.5 -102.5q0 -36 -19.5 -64t-51.5 -45zM242 440q-42 0 -68.5 -19.5t-26.5 -57.5
q0 -25 18 -41t48 -24l71 -17q29 13 43 33.5t14 43.5q0 40 -27.5 61t-71.5 21zM240 56q59 0 88.5 20.5t29.5 57.5q0 28 -17 44.5t-59 26.5l-94 23q-26 -14 -44 -35t-18 -49q0 -41 27 -64.5t87 -23.5z" />
    <glyph glyph-name="eight.sinf" horiz-adv-x="376" 
d="M184 -144q-146 0 -146 104q0 31 17 56.5t48 40.5q-21 14 -36 35t-15 55q0 48 37 78.5t101 30.5q60 0 97.5 -26.5t37.5 -77.5q0 -32 -16.5 -52.5t-35.5 -33.5q64 -26 64 -96q0 -53 -40 -83.5t-113 -30.5zM220 82q17 10 29.5 25t12.5 38q0 29 -20.5 44t-52.5 15
q-38 0 -56 -15.5t-18 -38.5q0 -17 10 -31.5t34 -20.5zM186 -93q41 0 63.5 14t22.5 43q0 27 -16 39.5t-43 19.5l-62 16q-19 -10 -34 -28t-15 -41q0 -34 22.5 -48.5t61.5 -14.5z" />
    <glyph glyph-name="eight.sups" horiz-adv-x="376" 
d="M184 376q-146 0 -146 104q0 31 17 56.5t48 40.5q-21 14 -36 35t-15 55q0 48 37 78.5t101 30.5q60 0 97.5 -26.5t37.5 -77.5q0 -32 -16.5 -52.5t-35.5 -33.5q64 -26 64 -96q0 -53 -40 -83.5t-113 -30.5zM220 602q17 10 29.5 25t12.5 38q0 29 -20.5 44t-52.5 15
q-38 0 -56 -15.5t-18 -38.5q0 -17 10 -31.5t34 -20.5zM186 427q41 0 63.5 14t22.5 43q0 27 -16 39.5t-43 19.5l-62 16q-19 -10 -34 -28t-15 -41q0 -34 22.5 -48.5t61.5 -14.5z" />
    <glyph glyph-name="emacron.sc" horiz-adv-x="478" 
d="M141 686h254v-71h-254v71zM76 497h357v-79h-268v-126h228v-80h-228v-133h268v-79h-357v497z" />
    <glyph glyph-name="emacron.ss01" horiz-adv-x="486" 
d="M378 600h-254v71h254v-71zM446 279v-22.5t-1 -26.5h-314q2 -83 37.5 -125.5t99.5 -42.5q42 0 71.5 16.5t50.5 46.5l53 -42q-25 -42 -71.5 -68.5t-107.5 -26.5q-105 0 -164 66t-59 182q0 59 14.5 106.5t42.5 81.5t68.5 52t91.5 18q91 0 139.5 -56.5t48.5 -158.5zM359 296
q0 55 -25.5 90t-82.5 35q-56 0 -82 -35t-34 -90h224z" />
    <glyph glyph-name="eng.sc" horiz-adv-x="566" 
d="M490 497v-523q0 -91 -44 -140t-127 -49q-41 0 -70 10.5t-46 29.5l52 70q11 -11 26.5 -18.5t38.5 -7.5q37 0 58.5 24.5t21.5 75.5v46l-228 317l-10 21v-353h-86v497h79l237 -331l12 -22v353h86z" />
    <glyph glyph-name="eng.ss01" horiz-adv-x="540" 
d="M308 494q81 0 124.5 -49t43.5 -140v-331q0 -91 -44 -140t-127 -49q-41 0 -70 10.5t-46 29.5l52 70q11 -11 27.5 -18.5t40.5 -7.5q35 0 57 24.5t22 75.5v335q0 56 -26.5 85.5t-76.5 29.5q-54 0 -86.5 -36t-32.5 -94v-289h-88v373q0 26 -9.5 37t-31.5 11v64q5 2 16 3t23 1
q38 0 59 -22t21 -64v-3q20 46 59 70t93 24z" />
    <glyph glyph-name="eogonek.sc" horiz-adv-x="478" 
d="M462 -155q-12 -13 -32 -20t-43 -7q-47 0 -71.5 22t-24.5 63q0 26 13 51.5t36 45.5h-264v497h357v-79h-268v-126h228v-80h-228v-133h268v-79q-29 -9 -47 -31.5t-18 -50.5q0 -20 9.5 -29t25.5 -9q10 0 17.5 3.5t12.5 7.5z" />
    <glyph glyph-name="eogonek.ss01" horiz-adv-x="486" 
d="M446 279v-22.5t-1 -26.5h-314q2 -83 37.5 -125.5t99.5 -42.5q42 0 71.5 16.5t50.5 46.5l53 -42q-17 -29 -44.5 -50.5t-63.5 -33.5q-20 -12 -31.5 -31t-11.5 -41q0 -20 9.5 -29t25.5 -9q10 0 17.5 3.5t12.5 7.5l29 -46q-12 -13 -32 -20t-43 -7q-47 0 -71.5 22t-24.5 63
q0 39 30 77q-97 6 -150.5 71t-53.5 176q0 59 14.5 106.5t42.5 81.5t68.5 52t91.5 18q91 0 139.5 -56.5t48.5 -158.5zM359 296q0 55 -25.5 90t-82.5 35q-56 0 -82 -35t-34 -90h224z" />
    <glyph glyph-name="eth.sc" horiz-adv-x="594" 
d="M278 497q56 0 105.5 -13.5t87 -43.5t59.5 -77t22 -114t-23.5 -114.5t-61.5 -77.5t-85.5 -43.5t-96.5 -13.5h-178v211h-89v77h89v209h171zM277 76q81 0 130 41.5t49 127.5t-47.5 131t-135.5 45h-77v-133h105v-77h-105v-135h81z" />
    <glyph glyph-name="exclam.sc" horiz-adv-x="233" 
d="M71 497h93l-12 -350h-71zM115 -12q-20 0 -35 14.5t-15 34.5t15 34.5t35 14.5q21 0 35.5 -14.5t14.5 -34.5t-14.5 -34.5t-35.5 -14.5z" />
    <glyph glyph-name="exclamdown.sc" horiz-adv-x="233" 
d="M118 504q20 0 35 -14.5t15 -34.5t-15 -34.5t-35 -14.5q-21 0 -35.5 14.5t-14.5 34.5t14.5 34.5t35.5 14.5zM162 -5h-93l12 350h71z" />
    <glyph glyph-name="f.sc" horiz-adv-x="454" 
d="M76 497h348v-84h-259v-138h217v-83h-217v-192h-89v497z" />
    <glyph glyph-name="fi.sc" horiz-adv-x="669" 
d="M76 497h348v-84h-259v-138h217v-83h-217v-192h-89v497zM504 497h89v-497h-89v497z" />
    <glyph glyph-name="five.dnom" horiz-adv-x="352" 
d="M172 -11q-42 0 -75.5 13.5t-58.5 51.5l49 46q22 -32 41.5 -42t48.5 -10q37 0 55.5 21.5t18.5 53.5q0 31 -17 49.5t-52 18.5q-24 0 -44 -8t-31 -21h-57v219h247v-60h-190v-102q12 11 34 19.5t53 8.5q57 0 90 -30t33 -92q0 -60 -39 -98t-106 -38z" />
    <glyph glyph-name="five.numr" horiz-adv-x="352" 
d="M172 311q-42 0 -75.5 13.5t-58.5 51.5l49 46q22 -32 41.5 -42t48.5 -10q37 0 55.5 21.5t18.5 53.5q0 31 -17 49.5t-52 18.5q-24 0 -44 -8t-31 -21h-57v219h247v-60h-190v-102q12 11 34 19.5t53 8.5q57 0 90 -30t33 -92q0 -60 -39 -98t-106 -38z" />
    <glyph glyph-name="five.osf" horiz-adv-x="529" 
d="M259 -200q-85 0 -137.5 32t-81.5 93l74 43q20 -45 58.5 -69t88.5 -24q69 0 108 38t39 115t-37.5 112.5t-100.5 35.5q-47 0 -79.5 -16.5t-50.5 -34.5h-83v371h407v-79h-325v-216q27 25 65 38.5t83 13.5q99 0 154 -55t55 -161q0 -112 -62.5 -174.5t-174.5 -62.5z" />
    <glyph glyph-name="five.sc" horiz-adv-x="477" 
d="M233 -5q-76 0 -123.5 27t-70.5 73l73 43q17 -35 49.5 -51.5t74.5 -16.5q57 0 87.5 23.5t30.5 70.5q0 45 -29 67t-78 22q-37 0 -64 -10.5t-43 -24.5h-79v279h351v-76h-274v-130q23 19 57 28t73 9q81 0 126 -41t45 -118q0 -83 -53.5 -128.5t-152.5 -45.5z" />
    <glyph glyph-name="five.sinf" horiz-adv-x="352" 
d="M172 -144q-42 0 -75.5 13.5t-58.5 51.5l49 46q22 -32 41.5 -42t48.5 -10q37 0 55.5 21.5t18.5 53.5q0 31 -17 49.5t-52 18.5q-24 0 -44 -8t-31 -21h-57v219h247v-60h-190v-102q12 11 34 19.5t53 8.5q57 0 90 -30t33 -92q0 -60 -39 -98t-106 -38z" />
    <glyph glyph-name="five.sups" horiz-adv-x="352" 
d="M172 376q-42 0 -75.5 13.5t-58.5 51.5l49 46q22 -32 41.5 -42t48.5 -10q37 0 55.5 21.5t18.5 53.5q0 31 -17 49.5t-52 18.5q-24 0 -44 -8t-31 -21h-57v219h247v-60h-190v-102q12 11 34 19.5t53 8.5q57 0 90 -30t33 -92q0 -60 -39 -98t-106 -38z" />
    <glyph glyph-name="fiveeighths.alt" horiz-adv-x="636" 
d="M150 326q-25 0 -43 5.5t-30.5 13t-19 14l-8.5 8.5l35 42q3 -2 19 -14t47 -12q23 0 36 11.5t13 26.5t-11.5 25.5t-34.5 10.5q-21 0 -32 -9t-13 -11h-53v165h188v-52h-131v-56q1 2 14 8t36 6q48 0 74 -24t26 -67q0 -37 -27.5 -64t-84.5 -27zM471 600h75l-365 -501h-77z
M481 75q-56 0 -85 18.5t-29 55.5q0 20 11.5 38.5t37.5 28.5q-20 11 -28 27t-8 36q0 33 26.5 53.5t73.5 20.5q49 0 75.5 -20.5t26.5 -52.5q0 -20 -11 -35t-25 -22q25 -8 36.5 -26.5t11.5 -41.5q0 -36 -31 -58t-82 -22zM501 240q8 3 13.5 12.5t5.5 20.5q0 16 -12 23.5t-29 7.5
q-37 0 -37 -26q0 -9 4.5 -16t17.5 -11zM481 121q24 0 37.5 9t13.5 24q0 24 -32 32l-40 10q-14 -5 -23 -16t-9 -24q0 -35 53 -35z" />
    <glyph glyph-name="fl.sc" horiz-adv-x="846" 
d="M76 497h348v-84h-259v-138h217v-83h-217v-192h-89v497zM504 497h89v-418h232v-79h-321v497z" />
    <glyph glyph-name="four.dnom" horiz-adv-x="362" 
d="M217 84h-190v49l127 249h74l-122 -239h113v87h67v-87h50v-59h-50v-84h-69v84z" />
    <glyph glyph-name="four.numr" horiz-adv-x="362" 
d="M216 402h-190v49l127 249h74l-122 -239h113v87h67v-87h50v-59h-50v-84h-69v84z" />
    <glyph glyph-name="four.osf" horiz-adv-x="572" 
d="M550 73v-73h-101v-158h-85v158h-342v73l325 424h102v-424h101zM363 73v330l-250 -330h250z" />
    <glyph glyph-name="four.sc" horiz-adv-x="476" 
d="M286 104h-260v70l199 323h88l-197 -323h172v111h82v-111h80v-70h-80v-104h-84v104z" />
    <glyph glyph-name="four.sinf" horiz-adv-x="362" 
d="M217 -53h-190v49l127 249h74l-122 -239h113v87h67v-87h50v-59h-50v-84h-69v84z" />
    <glyph glyph-name="four.sups" horiz-adv-x="362" 
d="M217 467h-190v49l127 249h74l-122 -239h113v87h67v-87h50v-59h-50v-84h-69v84z" />
    <glyph glyph-name="g.sc" horiz-adv-x="545" 
d="M292 -12q-120 0 -184.5 65.5t-64.5 193.5q0 59 17.5 107.5t49.5 83t79 53t105 18.5q94 0 143.5 -38t49.5 -105q0 -9 -1 -17.5t-3 -15.5h-82q1 5 1 21q0 38 -28.5 59.5t-76.5 21.5q-75 0 -116.5 -47.5t-41.5 -139.5q0 -93 40 -140.5t117 -47.5q47 0 75.5 7.5t42.5 18.5v92
h-121v76h204v-201q-10 -10 -28.5 -21.5t-44.5 -21t-59 -16t-73 -6.5z" />
    <glyph glyph-name="g.ss01" horiz-adv-x="508" 
d="M249 -240q-121 0 -172 34t-51 96q0 28 9.5 48.5t22.5 34.5t26.5 22.5t21.5 11.5q-9 4 -20 10t-20.5 16t-15.5 23.5t-6 32.5q0 36 19.5 57.5t47.5 31.5q-7 6 -16.5 17t-18 27.5t-14.5 39t-6 50.5q0 42 15.5 75.5t42.5 56.5t63.5 35.5t77.5 12.5q31 0 51 -5.5t34 -10.5
q17 0 33 4.5t28 15.5t19.5 30t7.5 47l79 -17q0 -37 -11.5 -59.5t-27 -35t-33 -17.5t-29.5 -6q17 -14 33.5 -45.5t16.5 -80.5q0 -43 -16.5 -76.5t-44 -56.5t-63.5 -35t-76 -12q-31 0 -52.5 4t-29.5 6q-21 0 -35 -10t-14 -32q0 -25 21.5 -33t55.5 -8h127q37 0 68.5 -8
t54 -25.5t35.5 -43.5t13 -62q0 -35 -14 -64t-44.5 -50.5t-78 -33.5t-114.5 -12zM255 203q54 0 86 29.5t32 79.5q0 49 -32 78.5t-85 29.5q-54 0 -85 -29t-31 -79t30.5 -79.5t84.5 -29.5zM255 -174q85 0 122 21.5t37 62.5q0 38 -25 55.5t-72 17.5h-106q-50 0 -74.5 -21
t-24.5 -60q0 -38 32.5 -57t110.5 -19z" />
    <glyph glyph-name="gbreve.sc" horiz-adv-x="545" 
d="M284 581q-35 0 -59 10.5t-38.5 29t-21 43.5t-6.5 53h68q0 -67 56 -67q57 0 57 67h68q0 -28 -7 -53t-22 -43.5t-38.5 -29t-56.5 -10.5zM292 -12q-120 0 -184.5 65.5t-64.5 193.5q0 59 17.5 107.5t49.5 83t79 53t105 18.5q94 0 143.5 -38t49.5 -105q0 -9 -1 -17.5t-3 -15.5
h-82q1 5 1 21q0 38 -28.5 59.5t-76.5 21.5q-75 0 -116.5 -47.5t-41.5 -139.5q0 -93 40 -140.5t117 -47.5q47 0 75.5 7.5t42.5 18.5v92h-121v76h204v-201q-10 -10 -28.5 -21.5t-44.5 -21t-59 -16t-73 -6.5z" />
    <glyph glyph-name="gbreve.ss01" horiz-adv-x="508" 
d="M249 566q-35 0 -59 10.5t-38.5 29t-21 43.5t-6.5 53h68q0 -67 56 -67q57 0 57 67h68q0 -28 -7 -53t-22 -43.5t-38.5 -29t-56.5 -10.5zM249 -240q-121 0 -172 34t-51 96q0 28 9.5 48.5t22.5 34.5t26.5 22.5t21.5 11.5q-9 4 -20 10t-20.5 16t-15.5 23.5t-6 32.5
q0 36 19.5 57.5t47.5 31.5q-7 6 -16.5 17t-18 27.5t-14.5 39t-6 50.5q0 42 15.5 75.5t42.5 56.5t63.5 35.5t77.5 12.5q31 0 51 -5.5t34 -10.5q17 0 33 4.5t28 15.5t19.5 30t7.5 47l79 -17q0 -37 -11.5 -59.5t-27 -35t-33 -17.5t-29.5 -6q17 -14 33.5 -45.5t16.5 -80.5
q0 -43 -16.5 -76.5t-44 -56.5t-63.5 -35t-76 -12q-31 0 -52.5 4t-29.5 6q-21 0 -35 -10t-14 -32q0 -25 21.5 -33t55.5 -8h127q37 0 68.5 -8t54 -25.5t35.5 -43.5t13 -62q0 -35 -14 -64t-44.5 -50.5t-78 -33.5t-114.5 -12zM255 203q54 0 86 29.5t32 79.5q0 49 -32 78.5
t-85 29.5q-54 0 -85 -29t-31 -79t30.5 -79.5t84.5 -29.5zM255 -174q85 0 122 21.5t37 62.5q0 38 -25 55.5t-72 17.5h-106q-50 0 -74.5 -21t-24.5 -60q0 -38 32.5 -57t110.5 -19z" />
    <glyph glyph-name="gcaron.sc" horiz-adv-x="545" 
d="M149 741h78l57 -108l57 108h77l-89 -174h-92zM292 -12q-120 0 -184.5 65.5t-64.5 193.5q0 59 17.5 107.5t49.5 83t79 53t105 18.5q94 0 143.5 -38t49.5 -105q0 -9 -1 -17.5t-3 -15.5h-82q1 5 1 21q0 38 -28.5 59.5t-76.5 21.5q-75 0 -116.5 -47.5t-41.5 -139.5
q0 -93 40 -140.5t117 -47.5q47 0 75.5 7.5t42.5 18.5v92h-121v76h204v-201q-10 -10 -28.5 -21.5t-44.5 -21t-59 -16t-73 -6.5z" />
    <glyph glyph-name="gcaron.ss01" horiz-adv-x="508" 
d="M114 726h78l57 -108l57 108h77l-89 -174h-92zM249 -240q-121 0 -172 34t-51 96q0 28 9.5 48.5t22.5 34.5t26.5 22.5t21.5 11.5q-9 4 -20 10t-20.5 16t-15.5 23.5t-6 32.5q0 36 19.5 57.5t47.5 31.5q-7 6 -16.5 17t-18 27.5t-14.5 39t-6 50.5q0 42 15.5 75.5t42.5 56.5
t63.5 35.5t77.5 12.5q31 0 51 -5.5t34 -10.5q17 0 33 4.5t28 15.5t19.5 30t7.5 47l79 -17q0 -37 -11.5 -59.5t-27 -35t-33 -17.5t-29.5 -6q17 -14 33.5 -45.5t16.5 -80.5q0 -43 -16.5 -76.5t-44 -56.5t-63.5 -35t-76 -12q-31 0 -52.5 4t-29.5 6q-21 0 -35 -10t-14 -32
q0 -25 21.5 -33t55.5 -8h127q37 0 68.5 -8t54 -25.5t35.5 -43.5t13 -62q0 -35 -14 -64t-44.5 -50.5t-78 -33.5t-114.5 -12zM255 203q54 0 86 29.5t32 79.5q0 49 -32 78.5t-85 29.5q-54 0 -85 -29t-31 -79t30.5 -79.5t84.5 -29.5zM255 -174q85 0 122 21.5t37 62.5
q0 38 -25 55.5t-72 17.5h-106q-50 0 -74.5 -21t-24.5 -60q0 -38 32.5 -57t110.5 -19z" />
    <glyph glyph-name="gcircumflex.sc" horiz-adv-x="545" 
d="M237 741h92l88 -174h-78l-57 108l-57 -108h-77zM292 -12q-120 0 -184.5 65.5t-64.5 193.5q0 59 17.5 107.5t49.5 83t79 53t105 18.5q94 0 143.5 -38t49.5 -105q0 -9 -1 -17.5t-3 -15.5h-82q1 5 1 21q0 38 -28.5 59.5t-76.5 21.5q-75 0 -116.5 -47.5t-41.5 -139.5
q0 -93 40 -140.5t117 -47.5q47 0 75.5 7.5t42.5 18.5v92h-121v76h204v-201q-10 -10 -28.5 -21.5t-44.5 -21t-59 -16t-73 -6.5z" />
    <glyph glyph-name="gcircumflex.ss01" horiz-adv-x="508" 
d="M202 726h92l88 -174h-78l-57 108l-57 -108h-77zM249 -240q-121 0 -172 34t-51 96q0 28 9.5 48.5t22.5 34.5t26.5 22.5t21.5 11.5q-9 4 -20 10t-20.5 16t-15.5 23.5t-6 32.5q0 36 19.5 57.5t47.5 31.5q-7 6 -16.5 17t-18 27.5t-14.5 39t-6 50.5q0 42 15.5 75.5t42.5 56.5
t63.5 35.5t77.5 12.5q31 0 51 -5.5t34 -10.5q17 0 33 4.5t28 15.5t19.5 30t7.5 47l79 -17q0 -37 -11.5 -59.5t-27 -35t-33 -17.5t-29.5 -6q17 -14 33.5 -45.5t16.5 -80.5q0 -43 -16.5 -76.5t-44 -56.5t-63.5 -35t-76 -12q-31 0 -52.5 4t-29.5 6q-21 0 -35 -10t-14 -32
q0 -25 21.5 -33t55.5 -8h127q37 0 68.5 -8t54 -25.5t35.5 -43.5t13 -62q0 -35 -14 -64t-44.5 -50.5t-78 -33.5t-114.5 -12zM255 203q54 0 86 29.5t32 79.5q0 49 -32 78.5t-85 29.5q-54 0 -85 -29t-31 -79t30.5 -79.5t84.5 -29.5zM255 -174q85 0 122 21.5t37 62.5
q0 38 -25 55.5t-72 17.5h-106q-50 0 -74.5 -21t-24.5 -60q0 -38 32.5 -57t110.5 -19z" />
    <glyph glyph-name="gdotaccent.sc" horiz-adv-x="545" 
d="M284 595q-24 0 -41.5 17t-17.5 42q0 24 17.5 41.5t41.5 17.5t41.5 -17.5t17.5 -41.5q0 -25 -17.5 -42t-41.5 -17zM292 -12q-120 0 -184.5 65.5t-64.5 193.5q0 59 17.5 107.5t49.5 83t79 53t105 18.5q94 0 143.5 -38t49.5 -105q0 -9 -1 -17.5t-3 -15.5h-82q1 5 1 21
q0 38 -28.5 59.5t-76.5 21.5q-75 0 -116.5 -47.5t-41.5 -139.5q0 -93 40 -140.5t117 -47.5q47 0 75.5 7.5t42.5 18.5v92h-121v76h204v-201q-10 -10 -28.5 -21.5t-44.5 -21t-59 -16t-73 -6.5z" />
    <glyph glyph-name="gdotaccent.ss01" horiz-adv-x="508" 
d="M249 580q-24 0 -41.5 17t-17.5 42q0 24 17.5 41.5t41.5 17.5t41.5 -17.5t17.5 -41.5q0 -25 -17.5 -42t-41.5 -17zM249 -240q-121 0 -172 34t-51 96q0 28 9.5 48.5t22.5 34.5t26.5 22.5t21.5 11.5q-9 4 -20 10t-20.5 16t-15.5 23.5t-6 32.5q0 36 19.5 57.5t47.5 31.5
q-7 6 -16.5 17t-18 27.5t-14.5 39t-6 50.5q0 42 15.5 75.5t42.5 56.5t63.5 35.5t77.5 12.5q31 0 51 -5.5t34 -10.5q17 0 33 4.5t28 15.5t19.5 30t7.5 47l79 -17q0 -37 -11.5 -59.5t-27 -35t-33 -17.5t-29.5 -6q17 -14 33.5 -45.5t16.5 -80.5q0 -43 -16.5 -76.5t-44 -56.5
t-63.5 -35t-76 -12q-31 0 -52.5 4t-29.5 6q-21 0 -35 -10t-14 -32q0 -25 21.5 -33t55.5 -8h127q37 0 68.5 -8t54 -25.5t35.5 -43.5t13 -62q0 -35 -14 -64t-44.5 -50.5t-78 -33.5t-114.5 -12zM255 203q54 0 86 29.5t32 79.5q0 49 -32 78.5t-85 29.5q-54 0 -85 -29t-31 -79
t30.5 -79.5t84.5 -29.5zM255 -174q85 0 122 21.5t37 62.5q0 38 -25 55.5t-72 17.5h-106q-50 0 -74.5 -21t-24.5 -60q0 -38 32.5 -57t110.5 -19z" />
    <glyph glyph-name="germandbls.sc" horiz-adv-x="551" 
d="M354 280q47 -6 77.5 -19t48.5 -32t25.5 -42.5t7.5 -49.5q0 -68 -48 -106t-131 -38q-55 0 -90.5 11t-57.5 32l50 64q20 -16 40.5 -24t55.5 -8q44 0 67 19t23 48q0 27 -21 47t-78 28q-29 5 -67 6l-2 69l128 119q-37 17 -101 17q-51 0 -87 -26t-36 -74v-321h-89l1 326
q0 42 16 75t44 55.5t66.5 34t84.5 11.5q121 0 191 -59v-59z" />
    <glyph glyph-name="grave.case" horiz-adv-x="272" 
d="M42 647h108l84 -134h-80z" />
    <glyph glyph-name="gravecomb.case" 
d="M-230 876h118l84 -134h-90z" />
    <glyph glyph-name="h.sc" horiz-adv-x="573" 
d="M76 497h89v-206h243v206h89v-497h-89v208h-243v-208h-89v497z" />
    <glyph glyph-name="h.ss01" horiz-adv-x="531" 
d="M69 726h88v-310q16 31 50.5 54.5t90.5 23.5q46 0 78 -15t52.5 -40.5t29.5 -60t9 -73.5v-305h-88v309q0 48 -25 79t-79 31q-30 0 -52.5 -11.5t-37 -29.5t-21.5 -40.5t-7 -43.5v-294h-88v726z" />
    <glyph glyph-name="hbar.sc" horiz-adv-x="597" 
d="M570 351h-61v-351h-89v208h-243v-208h-89v351h-60v68h60v78h89v-78h243v78h89v-78h61v-68zM420 351h-243v-60h243v60z" />
    <glyph glyph-name="hbar.ss01" horiz-adv-x="531" 
d="M298 494q46 0 78 -15t52.5 -40.5t29.5 -60t9 -73.5v-305h-88v309q0 48 -25 79t-79 31q-30 0 -52.5 -11.5t-37 -29.5t-21.5 -40.5t-7 -43.5v-294h-88v569h-82v77h82v80h88v-80h113v-77h-113v-153q16 31 50.5 54.5t90.5 23.5z" />
    <glyph glyph-name="hcircumflex.sc" horiz-adv-x="573" 
d="M238 673h99l87 -134h-80l-58 74l-58 -74h-78zM76 497h89v-206h243v206h89v-497h-89v208h-243v-208h-89v497z" />
    <glyph glyph-name="hcircumflex.ss01" horiz-adv-x="531" 
d="M62 876h99l87 -134h-80l-58 74l-58 -74h-78zM69 726h88v-310q16 31 50.5 54.5t90.5 23.5q46 0 78 -15t52.5 -40.5t29.5 -60t9 -73.5v-305h-88v309q0 48 -25 79t-79 31q-30 0 -52.5 -11.5t-37 -29.5t-21.5 -40.5t-7 -43.5v-294h-88v726z" />
    <glyph glyph-name="hungarumlaut.case" horiz-adv-x="408" 
d="M117 657h108l-112 -144h-80zM285 657h108l-112 -144h-79z" />
    <glyph glyph-name="i.loclTRK" horiz-adv-x="230" 
d="M115 580q-24 0 -41.5 17t-17.5 42q0 24 17.5 41.5t41.5 17.5t41.5 -17.5t17.5 -41.5q0 -25 -17.5 -42t-41.5 -17zM71 482h88v-482h-88v482z" />
    <glyph glyph-name="i.loclTRK.ss01" horiz-adv-x="236" 
d="M121 580q-24 0 -41.5 17t-17.5 42q0 24 17.5 41.5t41.5 17.5t41.5 -17.5t17.5 -41.5q0 -25 -17.5 -42t-41.5 -17zM160 -3q-46 0 -68 27.5t-22 72.5v385h88v-369q0 -26 9.5 -37t31.5 -11v-64q-5 -2 -16 -3t-23 -1z" />
    <glyph glyph-name="i.sc" horiz-adv-x="241" 
d="M76 497h89v-497h-89v497z" />
    <glyph glyph-name="i.sc.loclTRK" horiz-adv-x="241" 
d="M121 595q-24 0 -41.5 17t-17.5 42q0 24 17.5 41.5t41.5 17.5t41.5 -17.5t17.5 -41.5q0 -25 -17.5 -42t-41.5 -17zM76 497h89v-497h-89v497z" />
    <glyph glyph-name="i.ss01" horiz-adv-x="236" 
d="M121 580q-24 0 -41.5 17t-17.5 42q0 24 17.5 41.5t41.5 17.5t41.5 -17.5t17.5 -41.5q0 -25 -17.5 -42t-41.5 -17zM160 -3q-46 0 -68 27.5t-22 72.5v385h88v-369q0 -26 9.5 -37t31.5 -11v-64q-5 -2 -16 -3t-23 -1z" />
    <glyph glyph-name="iacute.sc" horiz-adv-x="241" 
d="M150 741h107l-112 -174h-79zM76 497h89v-497h-89v497z" />
    <glyph glyph-name="iacute.ss01" horiz-adv-x="236" 
d="M150 726h107l-112 -174h-79zM160 -3q-46 0 -68 27.5t-22 72.5v385h88v-369q0 -26 9.5 -37t31.5 -11v-64q-5 -2 -16 -3t-23 -1z" />
    <glyph glyph-name="ibreve.sc" horiz-adv-x="241" 
d="M121 581q-35 0 -59 10.5t-38.5 29t-21 43.5t-6.5 53h68q0 -67 56 -67q57 0 57 67h68q0 -28 -7 -53t-22 -43.5t-38.5 -29t-56.5 -10.5zM76 497h89v-497h-89v497z" />
    <glyph glyph-name="ibreve.ss01" horiz-adv-x="236" 
d="M121 566q-35 0 -59 10.5t-38.5 29t-21 43.5t-6.5 53h68q0 -67 56 -67q57 0 57 67h68q0 -28 -7 -53t-22 -43.5t-38.5 -29t-56.5 -10.5zM160 -3q-46 0 -68 27.5t-22 72.5v385h88v-369q0 -26 9.5 -37t31.5 -11v-64q-5 -2 -16 -3t-23 -1z" />
    <glyph glyph-name="icircumflex.sc" horiz-adv-x="241" 
d="M74 741h92l88 -174h-78l-57 108l-57 -108h-77zM76 497h89v-497h-89v497z" />
    <glyph glyph-name="icircumflex.ss01" horiz-adv-x="236" 
d="M74 726h92l88 -174h-78l-57 108l-57 -108h-77zM160 -3q-46 0 -68 27.5t-22 72.5v385h88v-369q0 -26 9.5 -37t31.5 -11v-64q-5 -2 -16 -3t-23 -1z" />
    <glyph glyph-name="idieresis.sc" horiz-adv-x="241" 
d="M29 595q-24 0 -40 17.5t-16 41.5q0 23 16 41t40 18t41 -18t17 -41q0 -24 -17 -41.5t-41 -17.5zM213 595q-24 0 -41.5 17.5t-17.5 41.5q0 23 17.5 41t41.5 18t40 -18t16 -41q0 -24 -16 -41.5t-40 -17.5zM76 497h89v-497h-89v497z" />
    <glyph glyph-name="idieresis.ss01" horiz-adv-x="236" 
d="M29 580q-24 0 -40 17.5t-16 41.5q0 23 16 41t40 18t41 -18t17 -41q0 -24 -17 -41.5t-41 -17.5zM213 580q-24 0 -41.5 17.5t-17.5 41.5q0 23 17.5 41t41.5 18t40 -18t16 -41q0 -24 -16 -41.5t-40 -17.5zM160 -3q-46 0 -68 27.5t-22 72.5v385h88v-369q0 -26 9.5 -37
t31.5 -11v-64q-5 -2 -16 -3t-23 -1z" />
    <glyph glyph-name="igrave.sc" horiz-adv-x="241" 
d="M-34 741h107l83 -174h-78zM76 497h89v-497h-89v497z" />
    <glyph glyph-name="igrave.ss01" horiz-adv-x="236" 
d="M-34 726h107l83 -174h-78zM160 -3q-46 0 -68 27.5t-22 72.5v385h88v-369q0 -26 9.5 -37t31.5 -11v-64q-5 -2 -16 -3t-23 -1z" />
    <glyph glyph-name="ij.sc" horiz-adv-x="603" 
d="M76 497h89v-497h-89v497zM362 -12q-52 0 -87.5 17t-55.5 40l57 64q16 -17 36.5 -28.5t49.5 -11.5q42 0 62 22t20 63v343h89v-341q0 -81 -44 -124.5t-127 -43.5z" />
    <glyph glyph-name="ij.ss01" horiz-adv-x="472" 
d="M121 580q-24 0 -41.5 17t-17.5 42q0 24 17.5 41.5t41.5 17.5t41.5 -17.5t17.5 -41.5q0 -25 -17.5 -42t-41.5 -17zM357 580q-24 0 -41.5 17t-17.5 42q0 24 17.5 41.5t41.5 17.5t41.5 -17.5t17.5 -41.5q0 -25 -17.5 -42t-41.5 -17zM160 -3q-46 0 -68 27.5t-22 72.5v385h88
v-369q0 -26 9.5 -37t31.5 -11v-64q-5 -2 -16 -3t-23 -1zM237 -247q-23 0 -40 4.5t-29 9.5q-13 6 -22 14l27 61q6 -4 14 -8q8 -3 18 -5t23 -2q86 0 86 114v541h87v-545q0 -86 -39 -135t-125 -49z" />
    <glyph glyph-name="ijacute" horiz-adv-x="472" 
d="M146 726h107l-112 -174h-79zM386 726h107l-112 -174h-79zM160 -3q-46 0 -68 27.5t-22 72.5v385h88v-369q0 -26 9.5 -37t31.5 -11v-64q-5 -2 -16 -3t-23 -1zM237 -247q-23 0 -40 4.5t-29 9.5q-13 6 -22 14l27 61q6 -4 14 -8q8 -3 18 -5t23 -2q86 0 86 114v541h87v-545
q0 -86 -39 -135t-125 -49z" />
    <glyph glyph-name="imacron.sc" horiz-adv-x="241" 
d="M-6 686h254v-71h-254v71zM76 497h89v-497h-89v497z" />
    <glyph glyph-name="imacron.ss01" horiz-adv-x="236" 
d="M-6 671h254v-71h-254v71zM160 -3q-46 0 -68 27.5t-22 72.5v385h88v-369q0 -26 9.5 -37t31.5 -11v-64q-5 -2 -16 -3t-23 -1z" />
    <glyph glyph-name="iogonek.sc" horiz-adv-x="241" 
d="M194 -155q-12 -13 -32 -20t-43 -7q-47 0 -71.5 22t-24.5 63q0 27 14 53t39 47v494h89v-497q-29 -9 -47 -31.5t-18 -50.5q0 -20 9.5 -29t25.5 -9q10 0 17.5 3.5t12.5 7.5z" />
    <glyph glyph-name="iogonek.ss01" horiz-adv-x="236" 
d="M121 580q-24 0 -41.5 17t-17.5 42q0 24 17.5 41.5t41.5 17.5t41.5 -17.5t17.5 -41.5q0 -25 -17.5 -42t-41.5 -17zM228 -154q-12 -13 -32 -20t-43 -7q-47 0 -71.5 22t-24.5 63q0 28 15 55t42 48q-23 12 -33.5 35t-10.5 55v385h88v-369q0 -26 9.5 -37t31.5 -11v-64
q-29 -9 -47 -31.5t-18 -50.5q0 -20 9.5 -29t25.5 -9q10 0 17.5 3.5t12.5 7.5z" />
    <glyph glyph-name="itilde.sc" horiz-adv-x="241" 
d="M-19 587q-5 11 -8 22.5t-3 28.5q0 28 19.5 49t64.5 21q20 0 37 -6t32 -13.5t28.5 -14t26.5 -6.5q25 0 25 23q0 8 -2 13t-4 9h67q5 -11 8 -22.5t3 -28.5q0 -27 -19.5 -49t-64.5 -22q-23 0 -41 6.5t-33 14t-27 14t-23 6.5q-25 0 -25 -23q0 -8 2 -13t4 -9h-67zM76 497h89
v-497h-89v497z" />
    <glyph glyph-name="itilde.ss01" horiz-adv-x="236" 
d="M-19 572q-5 11 -8 22.5t-3 28.5q0 28 19.5 49t64.5 21q20 0 37 -6t32 -13.5t28.5 -14t26.5 -6.5q25 0 25 23q0 8 -2 13t-4 9h67q5 -11 8 -22.5t3 -28.5q0 -27 -19.5 -49t-64.5 -22q-23 0 -41 6.5t-33 14t-27 14t-23 6.5q-25 0 -25 -23q0 -8 2 -13t4 -9h-67zM160 -3
q-46 0 -68 27.5t-22 72.5v385h88v-369q0 -26 9.5 -37t31.5 -11v-64q-5 -2 -16 -3t-23 -1z" />
    <glyph glyph-name="j.sc" horiz-adv-x="400" 
d="M159 -12q-52 0 -87.5 17t-55.5 40l57 64q16 -17 36.5 -28.5t49.5 -11.5q42 0 62 22t20 63v343h89v-341q0 -81 -44 -124.5t-127 -43.5z" />
    <glyph glyph-name="jcircumflex.sc" horiz-adv-x="400" 
d="M237 741h92l88 -174h-78l-57 108l-57 -108h-77zM159 -12q-52 0 -87.5 17t-55.5 40l57 64q16 -17 36.5 -28.5t49.5 -11.5q42 0 62 22t20 63v343h89v-341q0 -81 -44 -124.5t-127 -43.5z" />
    <glyph glyph-name="k.sc" horiz-adv-x="536" 
d="M513 73v-76q-2 -1 -13.5 -2.5t-30.5 -1.5q-42 0 -67.5 16t-42 40t-28.5 52t-27.5 52t-38 40t-60.5 16h-40v-209h-89v497h89v-213h51q31 0 61 11t54 36t39 65.5t15 100.5h88q0 -91 -35.5 -155.5t-95.5 -98.5q28 -20 43.5 -49t29 -56t30.5 -46t48 -19h20z" />
    <glyph glyph-name="k.ss01" horiz-adv-x="481" 
d="M389 107q20 -27 31 -34t32 -7h10v-63q-5 -2 -11 -3q-5 -1 -11.5 -2t-14.5 -1q-22 0 -37.5 4.5t-27.5 13.5t-22.5 22.5t-22.5 31.5l-107 153l-51 -51v-171h-88v726h88v-453l200 209h107l-199 -201z" />
    <glyph glyph-name="kgreenlandic.sc" horiz-adv-x="536" 
d="M513 73v-76q-2 -1 -13.5 -2.5t-30.5 -1.5q-42 0 -67.5 16t-42 40t-28.5 52t-27.5 52t-38 40t-60.5 16h-40v-209h-89v497h89v-213h51q31 0 61 11t54 36t39 65.5t15 100.5h88q0 -91 -35.5 -155.5t-95.5 -98.5q28 -20 43.5 -49t29 -56t30.5 -46t48 -19h20z" />
    <glyph glyph-name="kgreenlandic.ss01" horiz-adv-x="481" 
d="M389 107q20 -27 31 -34t32 -7h10v-63q-5 -2 -11 -3q-5 -1 -11.5 -2t-14.5 -1q-22 0 -37.5 4.5t-27.5 13.5t-22.5 22.5t-22.5 31.5l-107 153l-51 -51v-171h-88v482h88v-209l200 209h107l-199 -201z" />
    <glyph glyph-name="l.sc" horiz-adv-x="418" 
d="M76 497h89v-418h232v-79h-321v497z" />
    <glyph glyph-name="lacute.sc" horiz-adv-x="418" 
d="M165 741h107l-112 -174h-79zM76 497h89v-418h232v-79h-321v497z" />
    <glyph glyph-name="lcaron.sc" horiz-adv-x="427" 
d="M280 415q20 7 34 20t15 27q-23 0 -39 16.5t-16 41.5t17 42t42 17q29 0 47 -19t18 -48q0 -49 -26 -88t-66 -50zM76 497h89v-418h232v-79h-321v497z" />
    <glyph glyph-name="ldot.sc" horiz-adv-x="436" 
d="M76 497h89v-418h232v-79h-321v497zM330 234q-25 0 -42 17t-17 41t17 41.5t42 17.5q24 0 41 -17.5t17 -41.5t-17 -41t-41 -17z" />
    <glyph glyph-name="lslash.sc" horiz-adv-x="438" 
d="M417 79v-79h-321v180l-63 -37l-32 58l95 55v241h89v-189l76 44l33 -57l-109 -63v-153h232z" />
    <glyph glyph-name="m.sc" horiz-adv-x="657" 
d="M76 497h87l168 -327l168 327h82v-497h-87v331l-13 -30l-122 -238h-64l-120 236l-13 29v-328h-86v497z" />
    <glyph glyph-name="m.ss01" horiz-adv-x="847" 
d="M78 373q0 26 -9.5 37t-31.5 11v64q5 2 16 3t23 1q38 0 59 -22t21 -64v-4q7 17 18.5 34t30 30.5t43.5 22t59 8.5q63 0 100.5 -27t52.5 -72q14 40 54.5 69.5t98.5 29.5q48 0 80.5 -15t52.5 -41t28.5 -60.5t8.5 -72.5v-305h-88v304q0 51 -24 83t-79 32q-28 0 -49.5 -10.5
t-36.5 -28t-22.5 -40.5t-7.5 -48v-292h-88v304q0 51 -24.5 83t-79.5 32q-31 0 -53.5 -11.5t-36.5 -30t-21 -41.5t-7 -46v-290h-88v373z" />
    <glyph glyph-name="macron.case" horiz-adv-x="386" 
d="M51 596h284v-65h-284v65z" />
    <glyph glyph-name="n.sc" horiz-adv-x="566" 
d="M76 497h79l237 -331l12 -22v353h86v-497h-79l-239 332l-10 21v-353h-86v497z" />
    <glyph glyph-name="n.ss01" horiz-adv-x="540" 
d="M78 373q0 26 -9.5 37t-31.5 11v64q5 2 16 3t23 1q38 0 59 -22t21 -64v-3q20 46 59 70t93 24q81 0 124.5 -49t43.5 -140v-305h-88v304q0 56 -26.5 85.5t-76.5 29.5q-54 0 -86.5 -36t-32.5 -94v-289h-88v373z" />
    <glyph glyph-name="nacute.sc" horiz-adv-x="566" 
d="M319 741h107l-112 -174h-79zM76 497h79l237 -331l12 -22v353h86v-497h-79l-239 332l-10 21v-353h-86v497z" />
    <glyph glyph-name="nacute.ss01" horiz-adv-x="540" 
d="M302 726h107l-112 -174h-79zM78 373q0 26 -9.5 37t-31.5 11v64q5 2 16 3t23 1q38 0 59 -22t21 -64v-3q20 46 59 70t93 24q81 0 124.5 -49t43.5 -140v-305h-88v304q0 56 -26.5 85.5t-76.5 29.5q-54 0 -86.5 -36t-32.5 -94v-289h-88v373z" />
    <glyph glyph-name="napostrophe.sc" horiz-adv-x="653" 
d="M33 569q15 5 26 11t19 14t8 19q-24 0 -41 17t-17 43q0 24 16.5 41.5t41.5 17.5q26 0 45.5 -17.5t19.5 -51.5q0 -42 -14 -68.5t-31.5 -42t-32 -21l-14.5 -5.5zM163 497h79l237 -331l12 -22v353h86v-497h-79l-239 332l-10 21v-353h-86v497z" />
    <glyph glyph-name="napostrophe.ss01" horiz-adv-x="635" 
d="M23 569q15 5 26 11t19 14t8 19q-24 0 -41 17t-17 43q0 24 16.5 41t41.5 17q26 0 45 -17.5t19 -50.5q0 -42 -14 -68.5t-31 -41.5q-21 -18 -46 -26zM173 373q0 26 -9.5 37t-31.5 11v64q5 2 16 3t23 1q38 0 59 -22t21 -64v-3q20 46 59 70t93 24q81 0 124.5 -49t43.5 -140
v-305h-88v304q0 56 -26.5 85.5t-76.5 29.5q-54 0 -86.5 -36t-32.5 -94v-289h-88v373z" />
    <glyph glyph-name="ncaron.sc" horiz-adv-x="566" 
d="M155 741h78l57 -108l57 108h77l-89 -174h-92zM76 497h79l237 -331l12 -22v353h86v-497h-79l-239 332l-10 21v-353h-86v497z" />
    <glyph glyph-name="ncaron.ss01" horiz-adv-x="540" 
d="M138 726h78l57 -108l57 108h77l-89 -174h-92zM78 373q0 26 -9.5 37t-31.5 11v64q5 2 16 3t23 1q38 0 59 -22t21 -64v-3q20 46 59 70t93 24q81 0 124.5 -49t43.5 -140v-305h-88v304q0 56 -26.5 85.5t-76.5 29.5q-54 0 -86.5 -36t-32.5 -94v-289h-88v373z" />
    <glyph glyph-name="nine.dnom" horiz-adv-x="375" 
d="M175 390q78 0 119.5 -50t41.5 -140q0 -101 -42 -155.5t-120 -54.5q-48 0 -79 17t-48 44l51 41q11 -18 29 -29t45 -11q38 0 65 28t31 98q-27 -22 -54 -29.5t-53 -7.5q-63 0 -95 33.5t-32 85.5q0 30 11 54.5t30 41t44.5 25.5t55.5 9zM99 262q0 -30 19 -47t54 -17
q33 0 55.5 11.5t37.5 26.5q-8 53 -32.5 73.5t-59.5 20.5q-38 0 -56 -19.5t-18 -48.5z" />
    <glyph glyph-name="nine.numr" horiz-adv-x="375" 
d="M175 711q78 0 119.5 -50t41.5 -140q0 -101 -42 -155.5t-120 -54.5q-48 0 -79 17t-48 44l51 41q11 -18 29 -29t45 -11q38 0 65 28t31 98q-27 -22 -54 -29.5t-53 -7.5q-63 0 -95 33.5t-32 85.5q0 30 11 54.5t30 41t44.5 25.5t55.5 9zM99 583q0 -30 19 -47t54 -17
q33 0 55.5 11.5t37.5 26.5q-8 53 -32.5 73.5t-59.5 20.5q-38 0 -56 -19.5t-18 -48.5z" />
    <glyph glyph-name="nine.osf" horiz-adv-x="564" 
d="M272 497q125 0 187 -88.5t62 -251.5q0 -96 -18.5 -166t-52 -116t-80 -68t-103.5 -22q-75 0 -124.5 24.5t-80.5 75.5l66 51q27 -41 58 -58t84 -17q35 0 65 15.5t52.5 49t35.5 88t13 132.5q-39 -54 -89.5 -73.5t-99.5 -19.5q-43 0 -80.5 14t-64.5 41t-42.5 67t-15.5 92
t16.5 94.5t46.5 72.5t72 46.5t93 16.5zM266 133q27 0 52.5 8.5t46.5 22t38 30.5t28 34q-13 100 -56.5 147t-105.5 47q-63 0 -100.5 -39t-37.5 -110q0 -66 33 -103t102 -37z" />
    <glyph glyph-name="nine.sc" horiz-adv-x="495" 
d="M235 509q108 0 162 -66t54 -187q0 -133 -60.5 -200.5t-159.5 -67.5q-65 0 -109 21t-70 61l61 49q23 -33 49 -46t68 -13q29 0 53.5 9.5t42.5 31t29 56.5t12 86q-32 -32 -72 -46t-82 -14q-76 0 -125.5 38.5t-49.5 113.5q0 38 13.5 69.5t39 55t62 36.5t82.5 13zM229 254
q44 0 78.5 17t55.5 41q-11 66 -46.5 95.5t-84.5 29.5q-51 0 -80.5 -25.5t-29.5 -70.5q0 -41 26 -64t81 -23z" />
    <glyph glyph-name="nine.sinf" horiz-adv-x="375" 
d="M175 256q78 0 119.5 -50t41.5 -140q0 -101 -42 -155.5t-120 -54.5q-48 0 -79 17t-48 44l51 41q11 -18 29 -29t45 -11q38 0 65 27.5t31 98.5q-27 -22 -54 -29.5t-53 -7.5q-63 0 -95 33.5t-32 85.5q0 30 11 54.5t30 41t44.5 25.5t55.5 9zM99 128q0 -30 19 -47t54 -17
q33 0 55.5 11.5t37.5 26.5q-8 53 -32.5 73.5t-59.5 20.5q-38 0 -56 -19.5t-18 -48.5z" />
    <glyph glyph-name="nine.sups" horiz-adv-x="375" 
d="M175 776q78 0 119.5 -50t41.5 -140q0 -101 -42 -155.5t-120 -54.5q-48 0 -79 17t-48 44l51 41q11 -18 29 -29t45 -11q38 0 65 28t31 98q-27 -22 -54 -29.5t-53 -7.5q-63 0 -95 33.5t-32 85.5q0 30 11 54.5t30 41t44.5 25.5t55.5 9zM99 648q0 -30 19 -47t54 -17
q33 0 55.5 11.5t37.5 26.5q-8 53 -32.5 73.5t-59.5 20.5q-38 0 -56 -19.5t-18 -48.5z" />
    <glyph glyph-name="ntilde.sc" horiz-adv-x="566" 
d="M150 587q-5 11 -8 22.5t-3 28.5q0 28 19.5 49t64.5 21q20 0 37 -6t32 -13.5t28.5 -14t26.5 -6.5q25 0 25 23q0 8 -2 13t-4 9h67q5 -11 8 -22.5t3 -28.5q0 -27 -19.5 -49t-64.5 -22q-23 0 -41 6.5t-33 14t-27 14t-23 6.5q-25 0 -25 -23q0 -8 2 -13t4 -9h-67zM76 497h79
l237 -331l12 -22v353h86v-497h-79l-239 332l-10 21v-353h-86v497z" />
    <glyph glyph-name="ntilde.ss01" horiz-adv-x="540" 
d="M133 572q-5 11 -8 22.5t-3 28.5q0 28 19.5 49t64.5 21q20 0 37 -6t32 -13.5t28.5 -14t26.5 -6.5q25 0 25 23q0 8 -2 13t-4 9h67q5 -11 8 -22.5t3 -28.5q0 -27 -19.5 -49t-64.5 -22q-23 0 -41 6.5t-33 14t-27 14t-23 6.5q-25 0 -25 -23q0 -8 2 -13t4 -9h-67zM78 373
q0 26 -9.5 37t-31.5 11v64q5 2 16 3t23 1q38 0 59 -22t21 -64v-3q20 46 59 70t93 24q81 0 124.5 -49t43.5 -140v-305h-88v304q0 56 -26.5 85.5t-76.5 29.5q-54 0 -86.5 -36t-32.5 -94v-289h-88v373z" />
    <glyph glyph-name="o.sc" horiz-adv-x="588" 
d="M292 -12q-49 0 -94.5 15t-80 47t-55 81t-20.5 116q0 66 20.5 115t55.5 82t81 49t97 16q50 0 95 -15.5t79.5 -47.5t55 -81t20.5 -117q0 -65 -20.5 -114t-55.5 -81.5t-81 -48.5t-97 -16zM292 60q31 0 59.5 10t50.5 32.5t35 58t13 87.5q0 51 -13 86.5t-34.5 58t-49 32.5
t-57.5 10q-31 0 -59.5 -10t-50.5 -32.5t-35 -58.5t-13 -87t13 -87t34.5 -58t49.5 -32t57 -10z" />
    <glyph glyph-name="oacute.sc" horiz-adv-x="588" 
d="M323 726h107l-112 -174h-79zM292 -12q-49 0 -94.5 15t-80 47t-55 81t-20.5 116q0 66 20.5 115t55.5 82t81 49t97 16q50 0 95 -15.5t79.5 -47.5t55 -81t20.5 -117q0 -65 -20.5 -114t-55.5 -81.5t-81 -48.5t-97 -16zM292 60q31 0 59.5 10t50.5 32.5t35 58t13 87.5
q0 51 -13 86.5t-34.5 58t-49 32.5t-57.5 10q-31 0 -59.5 -10t-50.5 -32.5t-35 -58.5t-13 -87t13 -87t34.5 -58t49.5 -32t57 -10z" />
    <glyph glyph-name="obreve.sc" horiz-adv-x="588" 
d="M294 566q-35 0 -59 10.5t-38.5 29t-21 43.5t-6.5 53h68q0 -67 56 -67q57 0 57 67h68q0 -28 -7 -53t-22 -43.5t-38.5 -29t-56.5 -10.5zM292 -12q-49 0 -94.5 15t-80 47t-55 81t-20.5 116q0 66 20.5 115t55.5 82t81 49t97 16q50 0 95 -15.5t79.5 -47.5t55 -81t20.5 -117
q0 -65 -20.5 -114t-55.5 -81.5t-81 -48.5t-97 -16zM292 60q31 0 59.5 10t50.5 32.5t35 58t13 87.5q0 51 -13 86.5t-34.5 58t-49 32.5t-57.5 10q-31 0 -59.5 -10t-50.5 -32.5t-35 -58.5t-13 -87t13 -87t34.5 -58t49.5 -32t57 -10z" />
    <glyph glyph-name="ocircumflex.sc" horiz-adv-x="588" 
d="M247 726h92l88 -174h-78l-57 108l-57 -108h-77zM292 -12q-49 0 -94.5 15t-80 47t-55 81t-20.5 116q0 66 20.5 115t55.5 82t81 49t97 16q50 0 95 -15.5t79.5 -47.5t55 -81t20.5 -117q0 -65 -20.5 -114t-55.5 -81.5t-81 -48.5t-97 -16zM292 60q31 0 59.5 10t50.5 32.5
t35 58t13 87.5q0 51 -13 86.5t-34.5 58t-49 32.5t-57.5 10q-31 0 -59.5 -10t-50.5 -32.5t-35 -58.5t-13 -87t13 -87t34.5 -58t49.5 -32t57 -10z" />
    <glyph glyph-name="odieresis.sc" horiz-adv-x="588" 
d="M202 580q-24 0 -40 17.5t-16 41.5q0 23 16 41t40 18t41 -18t17 -41q0 -24 -17 -41.5t-41 -17.5zM386 580q-24 0 -41.5 17.5t-17.5 41.5q0 23 17.5 41t41.5 18t40 -18t16 -41q0 -24 -16 -41.5t-40 -17.5zM292 -12q-49 0 -94.5 15t-80 47t-55 81t-20.5 116q0 66 20.5 115
t55.5 82t81 49t97 16q50 0 95 -15.5t79.5 -47.5t55 -81t20.5 -117q0 -65 -20.5 -114t-55.5 -81.5t-81 -48.5t-97 -16zM292 60q31 0 59.5 10t50.5 32.5t35 58t13 87.5q0 51 -13 86.5t-34.5 58t-49 32.5t-57.5 10q-31 0 -59.5 -10t-50.5 -32.5t-35 -58.5t-13 -87t13 -87
t34.5 -58t49.5 -32t57 -10z" />
    <glyph glyph-name="oe.sc" horiz-adv-x="858" 
d="M545 418v-126h228v-80h-228v-133h268v-79h-357v41q-34 -26 -76 -39.5t-88 -13.5q-49 0 -94.5 15t-80 47t-55 81t-20.5 116q0 66 20.5 115t55.5 82t81 49t97 16q45 0 86 -12t74 -38v38h357v-79h-268zM292 60q31 0 59.5 10t50.5 32.5t35 58t13 87.5q0 51 -13 86.5t-34.5 58
t-49 32.5t-57.5 10q-31 0 -59.5 -10t-50.5 -32.5t-35 -58.5t-13 -87t13 -87t34.5 -58t49.5 -32t57 -10z" />
    <glyph glyph-name="ograve.sc" horiz-adv-x="588" 
d="M139 726h107l83 -174h-78zM292 -12q-49 0 -94.5 15t-80 47t-55 81t-20.5 116q0 66 20.5 115t55.5 82t81 49t97 16q50 0 95 -15.5t79.5 -47.5t55 -81t20.5 -117q0 -65 -20.5 -114t-55.5 -81.5t-81 -48.5t-97 -16zM292 60q31 0 59.5 10t50.5 32.5t35 58t13 87.5
q0 51 -13 86.5t-34.5 58t-49 32.5t-57.5 10q-31 0 -59.5 -10t-50.5 -32.5t-35 -58.5t-13 -87t13 -87t34.5 -58t49.5 -32t57 -10z" />
    <glyph glyph-name="ohungarumlaut.sc" horiz-adv-x="588" 
d="M227 726h103l-102 -174h-75zM395 726h103l-102 -174h-74zM292 -12q-49 0 -94.5 15t-80 47t-55 81t-20.5 116q0 66 20.5 115t55.5 82t81 49t97 16q50 0 95 -15.5t79.5 -47.5t55 -81t20.5 -117q0 -65 -20.5 -114t-55.5 -81.5t-81 -48.5t-97 -16zM292 60q31 0 59.5 10
t50.5 32.5t35 58t13 87.5q0 51 -13 86.5t-34.5 58t-49 32.5t-57.5 10q-31 0 -59.5 -10t-50.5 -32.5t-35 -58.5t-13 -87t13 -87t34.5 -58t49.5 -32t57 -10z" />
    <glyph glyph-name="omacron.sc" horiz-adv-x="588" 
d="M167 671h254v-71h-254v71zM292 -12q-49 0 -94.5 15t-80 47t-55 81t-20.5 116q0 66 20.5 115t55.5 82t81 49t97 16q50 0 95 -15.5t79.5 -47.5t55 -81t20.5 -117q0 -65 -20.5 -114t-55.5 -81.5t-81 -48.5t-97 -16zM292 60q31 0 59.5 10t50.5 32.5t35 58t13 87.5
q0 51 -13 86.5t-34.5 58t-49 32.5t-57.5 10q-31 0 -59.5 -10t-50.5 -32.5t-35 -58.5t-13 -87t13 -87t34.5 -58t49.5 -32t57 -10z" />
    <glyph glyph-name="one.dnom" horiz-adv-x="250" 
d="M121 279q-8 -12 -31.5 -26t-60.5 -14l-4 63q43 0 66.5 24.5t29.5 55.5h68v-382h-68v279z" />
    <glyph glyph-name="one.numr" horiz-adv-x="250" 
d="M121 598q-8 -12 -31.5 -26t-60.5 -14l-4 63q43 0 66.5 24.5t29.5 55.5h68v-382h-68v279z" />
    <glyph glyph-name="one.osf" horiz-adv-x="314" 
d="M160 378q-20 -19 -52.5 -30.5t-80.5 -11.5l-1 76q65 0 99.5 25t34.5 60h80v-497h-80v378z" />
    <glyph glyph-name="one.sc" horiz-adv-x="318" 
d="M160 374q-20 -19 -52.5 -30t-80.5 -11l-1 79q66 0 100 25t34 60h84v-497h-84v374z" />
    <glyph glyph-name="one.sinf" horiz-adv-x="250" 
d="M121 142q-8 -12 -31.5 -26t-60.5 -14l-4 63q43 0 66.5 24.5t29.5 55.5h68v-382h-68v279z" />
    <glyph glyph-name="one.sups" horiz-adv-x="250" 
d="M121 663q-8 -12 -31.5 -26t-60.5 -14l-4 63q43 0 66.5 24.5t29.5 55.5h68v-382h-68v279z" />
    <glyph glyph-name="oneeighth.alt" horiz-adv-x="604" 
d="M120 518q-6 -11 -25.5 -21.5t-50.5 -10.5l-9 58q35 3 58.5 23.5t26.5 42.5h66v-273h-66v181zM438 600h75l-364 -501h-78zM450 75q-54 0 -84 18.5t-30 55.5q0 20 11.5 38.5t37.5 28.5q-19 11 -27.5 27t-8.5 36q0 33 27.5 53.5t72.5 20.5q50 0 76 -20.5t26 -52.5
q0 -20 -10.5 -35t-24.5 -22q25 -8 36 -26.5t11 -41.5q0 -36 -30.5 -58t-82.5 -22zM470 239q10 4 14.5 13.5t4.5 20.5q0 16 -11 23.5t-29 7.5q-17 0 -27.5 -7t-10.5 -19q0 -20 22 -27zM450 121q26 0 38.5 9t12.5 24q0 25 -30 32l-40 10q-15 -5 -24.5 -16t-9.5 -24
q0 -35 53 -35z" />
    <glyph glyph-name="onehalf.alt" horiz-adv-x="629" 
d="M124 518q-6 -11 -25.5 -21.5t-50.5 -10.5l-9 58q35 3 58.5 23.5t26.5 42.5h66v-273h-66v181zM464 599h84l-403 -501h-85zM378 103q0 36 21 56.5t45.5 36t45.5 30.5t21 40q0 35 -38 35q-23 0 -31.5 -12t-8.5 -25h-57q0 15 5 31.5t16.5 30t30.5 22.5t48 9q46 0 71.5 -23.5
t25.5 -68.5q0 -33 -17.5 -54t-38 -34.5t-38 -22t-17.5 -17.5v-2h115v-54h-199v22z" />
    <glyph glyph-name="onequarter.alt" horiz-adv-x="605" 
d="M120 518q-6 -11 -25.5 -21.5t-50.5 -10.5l-9 58q35 3 58.5 23.5t26.5 42.5h66v-273h-66v181zM438 600h77l-366 -501h-77zM470 155h-133v43l87 173h67l-81 -162h63v58h62v-58h36v-54h-36v-57h-65v57z" />
    <glyph glyph-name="oslash.sc" horiz-adv-x="588" 
d="M467 450q36 -32 57.5 -82t21.5 -120q0 -65 -20.5 -114t-55.5 -81.5t-81 -48.5t-97 -16q-59 0 -110 21l-19 -29h-79l41 63q-38 32 -60.5 82t-22.5 122q0 66 20.5 115t55.5 82t81 49t97 16q64 0 116 -24l12 18h77zM138 247q0 -44 9.5 -75.5t25.5 -54.5l196 301
q-17 9 -35.5 13t-37.5 4q-31 0 -59.5 -10t-50.5 -32.5t-35 -58.5t-13 -87zM292 60q31 0 59.5 10t50.5 32.5t35 58t13 87.5q0 42 -8.5 72.5t-23.5 53.5l-194 -299q32 -15 68 -15z" />
    <glyph glyph-name="oslashacute.sc" horiz-adv-x="588" 
d="M318 552h-79l84 174h107zM467 450q36 -32 57.5 -82t21.5 -120q0 -65 -20.5 -114t-55.5 -81.5t-81 -48.5t-97 -16q-59 0 -110 21l-19 -29h-79l41 63q-38 32 -60.5 82t-22.5 122q0 66 20.5 115t55.5 82t81 49t97 16q64 0 116 -24l12 18h77zM138 247q0 -44 9.5 -75.5
t25.5 -54.5l196 301q-17 9 -35.5 13t-37.5 4q-31 0 -59.5 -10t-50.5 -32.5t-35 -58.5t-13 -87zM292 60q31 0 59.5 10t50.5 32.5t35 58t13 87.5q0 42 -8.5 72.5t-23.5 53.5l-194 -299q32 -15 68 -15z" />
    </font>
</defs>
</svg>
