<?xml version="1.0" standalone="no"?>
<!DOCTYPE svg PUBLIC "-//W3C//DTD SVG 1.1//EN" "http://www.w3.org/Graphics/SVG/1.1/DTD/svg11.dtd" >
<svg xmlns="http://www.w3.org/2000/svg" xmlns:xlink="http://www.w3.org/1999/xlink" version="1.1">
<metadata>
Created by FontForge 20170731 at Wed Jul  3 11:38:48 2019
 By Aleksey,,,
Copyright (c) 2017 by Daniel Hernandez. All rights reserved.
</metadata>
<defs>
<font id="AndesNeueAlt2-Boldit" horiz-adv-x="0" >
  <font-face 
    font-family="AndesNeue Alt 2 Bold it"
    font-weight="700"
    font-style="italic"
    font-stretch="normal"
    units-per-em="1000"
    panose-1="0 0 8 0 0 0 0 0 0 0"
    ascent="750"
    descent="-250"
    x-height="482"
    cap-height="700"
    bbox="-660 -274 1393 1031"
    underline-thickness="50"
    underline-position="-150"
    slope="-6"
    unicode-range="U+000D-FB02"
  />
<missing-glyph horiz-adv-x="530" 
d="M480 730v-730h-430v730h430zM265 408l150 287h-300zM90 657v-584l153 292zM440 73v584l-152 -292zM115 35h300l-150 287z" />
    <glyph glyph-name="fi" unicode="fi" horiz-adv-x="586" 
d="M504 166q-4 -31 3.5 -42t36.5 -11l-12 -110q-2 0 -19.5 -3.5t-42.5 -3.5q-69 0 -96.5 33.5t-19.5 102.5l24 235h-131l-39 -367h-146l39 367h-68l12 115h67l4 38q12 104 66 157.5t148 53.5q18 0 35 -3.5t31 -11.5l-36 -121q-6 3 -13 5t-17 2q-59 0 -65 -64l-7 -56h279z
M494 730q39 0 59 -24.5t20 -57.5q0 -40 -26 -68.5t-71 -28.5q-40 0 -61 23.5t-21 58.5q0 39 26.5 68t73.5 29z" />
    <glyph glyph-name="fl" unicode="fl" horiz-adv-x="583" 
d="M503 158q-3 -27 6.5 -35.5t34.5 -8.5l-12 -111q-11 -3 -29 -5t-36 -2q-29 0 -51.5 6.5t-37.5 22.5t-21.5 41.5t-2.5 64.5l25 236h-132l-39 -367h-146l39 367h-68l12 115h67l4 39q12 108 67 159t146 51q22 0 39 -4t28 -11l-36 -121q-5 3 -11.5 5t-17.5 2q-29 0 -46 -15.5
t-21 -51.5l-6 -53h133l25 244h146z" />
    <glyph glyph-name=".notdef" horiz-adv-x="530" 
d="M480 730v-730h-430v730h430zM265 408l150 287h-300zM90 657v-584l153 292zM440 73v584l-152 -292zM115 35h300l-150 287z" />
    <glyph glyph-name=".null" 
 />
    <glyph glyph-name=".null" 
 />
    <glyph glyph-name="nonmarkingreturn" unicode="&#xd;" horiz-adv-x="250" 
 />
    <glyph glyph-name="space" unicode=" " horiz-adv-x="186" 
 />
    <glyph glyph-name="exclam" unicode="!" horiz-adv-x="269" 
d="M104 700h163l-70 -466h-124zM112 -6q-36 0 -58 21t-22 58t23.5 64t65.5 27q35 0 57 -22t22 -58q0 -38 -22.5 -64t-65.5 -26z" />
    <glyph glyph-name="quotedbl" unicode="&#x22;" horiz-adv-x="351" 
d="M96 786h116l-29 -223h-106zM256 786h115l-28 -223h-106z" />
    <glyph glyph-name="numbersign" unicode="#" horiz-adv-x="601" 
d="M100 116h-90l27 79h89l40 130h-80l26 79h78l28 88h104l-27 -88h105l29 88h102l-27 -88h92l-26 -79h-91l-41 -130h83l-27 -79h-80l-22 -68h-103l21 68h-106l-21 -68h-104zM336 195l39 130h-105l-41 -130h107z" />
    <glyph glyph-name="dollar" unicode="$" horiz-adv-x="593" 
d="M225 6q-77 5 -134.5 37.5t-80.5 74.5l102 99q27 -42 73 -64t109 -22q57 0 88 19.5t30 58.5q-1 38 -34 52.5t-95 26.5q-37 8 -75 18.5t-69.5 30t-51.5 51t-20 81.5q0 95 62.5 150.5t166.5 66.5l12 112h106l-12 -113q39 -4 75 -18t61 -41t34 -67.5t-8 -98.5l-133 -1
q17 58 -11.5 82.5t-87.5 24.5q-115 0 -115 -76q0 -19 9 -31t25.5 -20t40.5 -14t54 -12q37 -8 75 -19t69 -31t51 -52t20 -82q0 -96 -63 -151t-167 -69l-13 -118h-106z" />
    <glyph glyph-name="percent" unicode="%" horiz-adv-x="635" 
d="M165 422q-56 0 -83 33.5t-27 87.5q0 69 36 114t104 45q59 0 87 -33.5t28 -87.5q0 -70 -36.5 -114.5t-108.5 -44.5zM420 700h97l-278 -700h-97zM173 493q29 0 40 23t11 61q0 50 -37 50q-28 0 -39.5 -21.5t-11.5 -59.5q0 -53 37 -53zM461 -3q-57 0 -84.5 33.5t-27.5 87.5
q0 69 36 114t105 45q58 0 86.5 -33.5t28.5 -87.5q0 -70 -37 -114.5t-107 -44.5zM468 68q27 0 39 22.5t12 60.5q0 51 -37 51q-29 0 -40 -21.5t-11 -59.5q0 -53 37 -53z" />
    <glyph glyph-name="ampersand" unicode="&#x26;" horiz-adv-x="690" 
d="M598 -11q-59 22 -116 56q-86 -63 -210 -63q-54 0 -97.5 13.5t-75 39t-48.5 62.5t-17 84q0 72 36.5 131t99.5 98q-9 24 -14 48t-5 47q0 50 17.5 92t49 72.5t74.5 47.5t94 17q90 0 139 -45t49 -121q0 -28 -7.5 -56.5t-18.5 -45.5h-124q7 12 11.5 32t4.5 37q0 69 -62 69
q-42 0 -65 -25.5t-23 -76.5q0 -88 85 -184q16 -17 40.5 -44t57.5 -56q19 48 26 116h128q-6 -56 -20.5 -103t-36.5 -86q20 -12 42.5 -23t45.5 -19zM298 100q47 0 86 17q-59 51 -103 104q-15 19 -31.5 41.5t-31.5 48.5q-24 -28 -31.5 -49.5t-7.5 -49.5q0 -53 32 -82.5
t87 -29.5z" />
    <glyph glyph-name="quotesingle" unicode="'" horiz-adv-x="192" 
d="M96 786h116l-29 -223h-106z" />
    <glyph glyph-name="parenleft" unicode="(" horiz-adv-x="304" 
d="M132 -244q-24 39 -43.5 87t-33 101t-21 109.5t-7.5 113.5q0 84 14.5 164.5t41.5 155t66 140.5t87 120l110 -56q-97 -129 -135.5 -261.5t-38.5 -260.5q0 -101 21 -189.5t61 -167.5z" />
    <glyph glyph-name="parenright" unicode=")" horiz-adv-x="311" 
d="M180 747q24 -39 43 -86.5t32.5 -101t21 -110t7.5 -113.5q0 -84 -14.5 -164.5t-41.5 -155t-66 -140.5t-87 -120l-110 56q98 129 136 261.5t38 260.5q0 101 -21 189.5t-61 167.5z" />
    <glyph glyph-name="asterisk" unicode="*" horiz-adv-x="455" 
d="M245 501l-79 -107l-74 64l105 97l-131 7l20 106l123 -43l-55 123l98 38l32 -135l83 114l76 -60l-103 -100l124 -8l-18 -102l-126 35l53 -120l-98 -32z" />
    <glyph glyph-name="plus" unicode="+" horiz-adv-x="445" 
d="M164 217h-139l11 105h139l15 140h106l-15 -140h146l-12 -105h-145l-17 -160h-105z" />
    <glyph glyph-name="comma" unicode="," horiz-adv-x="241" 
d="M10 -96q32 17 53 38t26 52q-35 5 -55 26t-20 57q0 38 26 62.5t64 24.5q40 0 63.5 -26.5t23.5 -74.5q0 -30 -8 -61.5t-25.5 -61t-46 -54.5t-69.5 -43z" />
    <glyph glyph-name="hyphen" unicode="-" horiz-adv-x="378" 
d="M57 324h282l-11 -105h-283z" />
    <glyph glyph-name="period" unicode="." horiz-adv-x="230" 
d="M93 -6q-36 0 -58 21t-22 58t23.5 64t66.5 27q35 0 57 -22t22 -58q0 -38 -22.5 -64t-66.5 -26z" />
    <glyph glyph-name="slash" unicode="/" horiz-adv-x="410" 
d="M339 706h105l-371 -934h-106z" />
    <glyph glyph-name="zero" unicode="0" horiz-adv-x="643" 
d="M294 -6q-64 0 -111 22t-78 61.5t-46 94.5t-15 121q0 88 20 163.5t60.5 131t101.5 87t143 31.5q66 0 113.5 -22.5t78.5 -62t46 -95t15 -121.5q0 -87 -19.5 -162.5t-60 -130.5t-102.5 -86.5t-146 -31.5zM308 126q41 0 69.5 19.5t47.5 55.5t27.5 87.5t8.5 115.5
q0 84 -26 127t-80 43q-39 0 -67.5 -20t-47 -56.5t-27 -88.5t-8.5 -115q0 -83 25 -125.5t78 -42.5z" />
    <glyph glyph-name="one" unicode="1" horiz-adv-x="427" 
d="M219 488q-10 -9 -22 -17t-31.5 -14t-47.5 -10t-69 -4l13 141q44 0 76.5 9.5t54.5 25.5t33.5 37t14.5 44h149l-74 -700h-149z" />
    <glyph glyph-name="two" unicode="2" horiz-adv-x="572" 
d="M12 40q7 70 38 118t74 83t91 61.5t89 53.5t67.5 58t26.5 76q0 39 -21.5 61.5t-65.5 22.5q-28 0 -47.5 -8.5t-32 -22t-19 -31t-9.5 -34.5h-145q3 39 19 79.5t47.5 73.5t81 54t118.5 21q115 0 170.5 -54.5t55.5 -143.5q0 -67 -25 -115.5t-63 -83.5t-82 -60t-83 -45
t-65.5 -39t-29.5 -41v-3h325l-12 -121h-507z" />
    <glyph glyph-name="three" unicode="3" horiz-adv-x="581" 
d="M271 -6q-104 0 -171 34.5t-92 110.5l119 70q37 -91 139 -91q59 0 89 25.5t30 70.5q0 33 -24.5 57t-87.5 24h-65l12 109h61q63 0 91 26.5t28 67.5q0 38 -24 57.5t-63 19.5q-41 0 -69.5 -21.5t-34.5 -68.5h-147q7 58 30 99.5t58 68.5t80.5 40t97.5 13q50 0 92 -12t72 -35
t46.5 -56t16.5 -76q0 -61 -32.5 -103.5t-83.5 -59.5q59 -18 81.5 -60.5t22.5 -92.5t-20 -90t-56 -68.5t-86 -43.5t-110 -15z" />
    <glyph glyph-name="four" unicode="4" horiz-adv-x="576" 
d="M305 137h-298l12 121l282 442h157l-279 -442h147l16 146h140l-16 -146h96l-13 -121h-95l-15 -137h-148z" />
    <glyph glyph-name="five" unicode="5" horiz-adv-x="587" 
d="M271 -7q-106 0 -166 40.5t-82 108.5l134 77q21 -54 53.5 -74t77.5 -20q57 0 88 31.5t31 88.5q0 48 -25 70t-64 22t-66 -14t-48 -32h-142l44 409h462l-14 -133h-327l-15 -146q25 23 63.5 35.5t84.5 12.5q96 0 148 -53t52 -148q0 -127 -73.5 -201t-215.5 -74z" />
    <glyph glyph-name="six" unicode="6" horiz-adv-x="604" 
d="M375 428q101 0 148.5 -51t47.5 -132q0 -51 -17.5 -96.5t-52 -80t-87 -54.5t-121.5 -20q-63 0 -110 20.5t-78 59t-46.5 92t-15.5 119.5q0 96 22 174t64 133t104 84.5t143 29.5q39 0 75 -9t64 -29t45 -52t17 -78q0 -23 -3.5 -37.5t-8.5 -26.5h-135q5 22 5 37q0 35 -20.5 52
t-52.5 17t-60 -12t-50 -38t-36.5 -68t-19.5 -102q40 37 86 52.5t93 15.5zM316 121q51 0 80.5 26.5t29.5 71.5q0 40 -23 61.5t-71 21.5q-39 0 -74.5 -17t-61.5 -45q9 -64 40 -91.5t80 -27.5z" />
    <glyph glyph-name="seven" unicode="7" horiz-adv-x="519" 
d="M83 0q8 80 31.5 145.5t53.5 119.5t63.5 97.5t63 79.5t50 66t25.5 56h-320l15 136h488l-7 -64q-6 -56 -29.5 -103t-55.5 -91t-68.5 -88.5t-69 -96.5t-57 -114.5t-33.5 -142.5h-150z" />
    <glyph glyph-name="eight" unicode="8" horiz-adv-x="588" 
d="M464 372q89 -48 89 -153q0 -52 -20 -93.5t-57 -70.5t-89 -45t-116 -16q-116 0 -180 45t-64 129q0 64 33 112.5t86 76.5q-26 24 -42.5 57t-16.5 75q0 49 19 89t53 68.5t81 44t103 15.5q50 0 90 -12t69 -33.5t44.5 -53t15.5 -70.5q0 -54 -25 -96.5t-73 -68.5zM330 587
q-41 0 -68 -22t-27 -64q0 -29 17.5 -46.5t43.5 -25.5l61 -19q29 17 42 44t13 55q0 38 -23 58t-59 20zM283 113q56 0 87.5 23t31.5 68q0 28 -14.5 44.5t-49.5 27.5l-100 32q-29 -20 -45 -47t-16 -63q0 -40 26 -62.5t80 -22.5z" />
    <glyph glyph-name="nine" unicode="9" horiz-adv-x="604" 
d="M321 706q131 0 197 -79t66 -217q0 -100 -23.5 -177.5t-66.5 -130.5t-103.5 -80.5t-135.5 -27.5q-87 0 -142.5 29t-81.5 82l108 87q24 -41 52.5 -56.5t74.5 -15.5q31 0 58.5 11t49.5 35t37 62t21 92q-35 -35 -76 -50.5t-96 -15.5q-94 0 -148.5 53.5t-54.5 148.5
q0 53 17 99t50.5 79.5t83 52.5t113.5 19zM201 471q0 -43 23 -68t74 -25q44 0 76 17.5t60 45.5q-8 75 -42 107t-79 32q-51 0 -81.5 -29.5t-30.5 -79.5z" />
    <glyph glyph-name="colon" unicode=":" horiz-adv-x="264" 
d="M155 412q-36 0 -58 21t-22 58t23.5 64t66.5 27q35 0 57 -22t22 -58q0 -38 -22.5 -64t-66.5 -26zM110 -6q-35 0 -57 21t-22 58t23.5 64t65.5 27q35 0 57 -22t22 -58q0 -38 -22.5 -64t-66.5 -26z" />
    <glyph glyph-name="semicolon" unicode=";" horiz-adv-x="252" 
d="M134 327q-38 0 -59 22.5t-21 56.5q0 43 27 69t65 26q39 0 60 -23t21 -57q0 -43 -26.5 -68.5t-66.5 -25.5zM14 -96q32 17 53.5 38t26.5 52q-36 5 -55.5 26t-19.5 57q0 38 25.5 62.5t63.5 24.5q41 0 64 -26.5t23 -74.5q0 -30 -8 -61.5t-25.5 -61t-45.5 -54.5t-69 -43z" />
    <glyph glyph-name="less" unicode="&#x3c;" horiz-adv-x="413" 
d="M19 198l13 114l366 197l-13 -127l-231 -128l205 -125l-14 -127z" />
    <glyph glyph-name="equal" unicode="=" horiz-adv-x="494" 
d="M69 419h394l-12 -105h-393zM47 206h393l-10 -105h-394z" />
    <glyph glyph-name="greater" unicode="&#x3e;" horiz-adv-x="413" 
d="M32 132l231 126l-205 126l14 127l326 -196l-13 -115l-366 -196z" />
    <glyph glyph-name="question" unicode="?" horiz-adv-x="483" 
d="M163 214q4 43 17.5 73t32 53t38.5 41t37.5 36t28.5 38.5t11 48.5q0 30 -16 46t-45 16q-67 0 -75 -75h-144q10 109 72.5 164.5t165.5 55.5q54 0 91.5 -15.5t61 -41t34.5 -58t11 -65.5q0 -45 -12.5 -78t-32 -58.5t-42 -45.5t-43 -40.5t-35.5 -42.5t-19 -52h-137zM215 -6
q-36 0 -58 21t-22 58t23.5 64t66.5 27q35 0 56.5 -22t21.5 -58q0 -38 -22.5 -64t-65.5 -26z" />
    <glyph glyph-name="at" unicode="@" horiz-adv-x="877" 
d="M693 458q-36 -94 -56 -148.5t-29.5 -83.5t-12 -40.5t-2.5 -20.5q-1 -15 7 -21.5t19 -6.5q23 0 45 18t39.5 48.5t28 70.5t10.5 84q0 94 -54.5 145t-156.5 51q-78 0 -146.5 -31t-119.5 -84t-80.5 -124t-29.5 -151q0 -110 59.5 -171t165.5 -61q75 0 138.5 22t118.5 64
l60 -86q-61 -54 -146.5 -85.5t-185.5 -31.5q-78 0 -140.5 23.5t-107 67t-68.5 106t-24 139.5q0 109 41 204t112 165t168 110t209 40q72 0 129.5 -21t98 -59.5t62 -93.5t21.5 -124t-22 -130.5t-59.5 -107t-88.5 -72t-108 -26.5q-98 0 -106 76q-25 -40 -59 -57.5t-76 -17.5
q-57 0 -88.5 35.5t-31.5 101.5q0 60 19.5 112t53.5 90.5t78.5 60t95.5 21.5q32 0 56 -8.5t46 -25.5l11 34h106zM398 141q17 0 32.5 8t32 29.5t33.5 58t35 93.5q-14 25 -56 25q-25 0 -46.5 -13t-38 -35t-26 -51t-9.5 -62q0 -53 43 -53z" />
    <glyph glyph-name="A" unicode="A" horiz-adv-x="644" 
d="M434 163h-239l-69 -163h-153l323 700h150l175 -700h-153zM410 277l-55 262l-111 -262h166z" />
    <glyph glyph-name="B" unicode="B" horiz-adv-x="615" 
d="M470 381q47 -14 80 -51t33 -105q0 -58 -21.5 -100.5t-59 -70.5t-87 -41t-106.5 -13h-264l74 700h259q98 0 152.5 -38t54.5 -118q0 -60 -32 -102t-83 -61zM324 412q60 0 86 27.5t26 72.5q0 38 -22.5 58.5t-70.5 20.5h-88l-20 -179h89zM312 108q58 0 90.5 27t32.5 86
q0 44 -26.5 64t-72.5 20h-111l-21 -197h108z" />
    <glyph glyph-name="C" unicode="C" horiz-adv-x="608" 
d="M315 -11q-128 0 -200 79t-72 226q0 94 23 171t67 131.5t107.5 84.5t143.5 30q47 0 87.5 -11.5t71 -34.5t48 -58.5t17.5 -83.5q0 -42 -15 -84h-138q5 13 7.5 27t2.5 26q0 44 -26.5 66t-72.5 22q-39 0 -70 -19t-52.5 -54t-33 -85t-11.5 -113q0 -94 36.5 -143t102.5 -49
q51 0 83.5 20t63.5 64l92 -71q-44 -69 -106 -105t-156 -36z" />
    <glyph glyph-name="D" unicode="D" horiz-adv-x="672" 
d="M119 700h220q68 0 125.5 -16.5t99.5 -52.5t65.5 -93t23.5 -139q0 -110 -32 -186t-84.5 -123.5t-119 -68.5t-135.5 -21h-237zM280 121q100 0 159 66t59 197q0 92 -42.5 143.5t-139.5 51.5h-63l-48 -458h75z" />
    <glyph glyph-name="E" unicode="E" horiz-adv-x="551" 
d="M119 700h440l-13 -125h-293l-17 -159h253l-13 -125h-253l-18 -166h295l-13 -125h-442z" />
    <glyph glyph-name="F" unicode="F" horiz-adv-x="531" 
d="M119 700h437l-14 -135h-290l-19 -175h243l-14 -134h-243l-27 -256h-147z" />
    <glyph glyph-name="G" unicode="G" horiz-adv-x="648" 
d="M324 -11q-138 0 -210 78.5t-72 226.5q0 94 24.5 171t70.5 131.5t112 84.5t148 30q50 0 92 -12t72.5 -36t47.5 -58.5t17 -79.5q0 -21 -3 -37.5t-8 -33.5h-141q2 5 3.5 13.5t1.5 24.5q0 39 -25 63.5t-76 24.5q-86 0 -133 -72t-47 -203q0 -94 36.5 -142t106.5 -48
q48 0 78 10.5t46 23.5l10 94h-124l12 118h255l-29 -281q-13 -13 -36.5 -29t-57 -30t-76.5 -23t-95 -9z" />
    <glyph glyph-name="H" unicode="H" horiz-adv-x="659" 
d="M116 700h147l-30 -278h231l30 278h147l-74 -700h-147l30 286h-231l-30 -286h-147z" />
    <glyph glyph-name="I" unicode="I" horiz-adv-x="287" 
d="M119 700h147l-74 -700h-147z" />
    <glyph glyph-name="J" unicode="J" horiz-adv-x="474" 
d="M166 -6q-70 0 -116 23t-67 58l99 102q15 -21 34.5 -35t51.5 -14q39 0 63.5 25.5t31.5 84.5l48 462h147l-49 -465q-13 -125 -75 -183t-168 -58z" />
    <glyph glyph-name="K" unicode="K" horiz-adv-x="647" 
d="M444 335q29 -25 44.5 -61.5t29 -70.5t30.5 -58t49 -24h26l-13 -121q-11 -3 -30 -5t-39 -2q-51 0 -81.5 21.5t-49 53.5t-30.5 69.5t-27 69.5t-37.5 53.5t-62.5 21.5h-31l-30 -282h-147l74 700h147l-31 -290h30q39 0 76 15t67 49t52 89.5t31 136.5h145
q-14 -124 -62.5 -218.5t-129.5 -146.5z" />
    <glyph glyph-name="L" unicode="L" horiz-adv-x="520" 
d="M119 700h147l-60 -567h290l-13 -133h-438z" />
    <glyph glyph-name="M" unicode="M" horiz-adv-x="820" 
d="M119 700h144l151 -445l250 445h135l-74 -700h-137l47 450l-16 -36l-179 -328h-98l-105 329l-7 36l-47 -451h-138z" />
    <glyph glyph-name="N" unicode="N" horiz-adv-x="671" 
d="M119 700h130l199 -416l14 -41l49 457h139l-75 -700h-130l-203 420l-10 32l-48 -452h-139z" />
    <glyph glyph-name="O" unicode="O" horiz-adv-x="694" 
d="M322 -11q-59 0 -110 18t-89 55.5t-59.5 95.5t-21.5 138q0 105 28 182.5t76.5 129.5t112.5 77.5t136 25.5q59 0 110 -18t89 -56t59.5 -96.5t21.5 -138.5q0 -105 -28 -182.5t-76.5 -129t-112.5 -76.5t-136 -25zM338 119q38 0 70.5 15t57 47.5t39 84.5t16.5 126q2 53 -9 89
t-30.5 58t-46 32t-55.5 10q-37 0 -69.5 -15t-57.5 -47.5t-40 -84t-17 -125.5q-1 -52 9.5 -88.5t30 -59t46 -32.5t56.5 -10z" />
    <glyph glyph-name="P" unicode="P" horiz-adv-x="601" 
d="M119 700h239q115 0 181 -51.5t66 -158.5q0 -68 -22.5 -118t-61 -83t-89.5 -49t-108 -16h-108l-24 -224h-147zM313 342q71 0 106.5 34t35.5 98q0 49 -29.5 78.5t-92.5 29.5h-80l-25 -240h85z" />
    <glyph glyph-name="Q" unicode="Q" horiz-adv-x="717" 
d="M675 402q0 -90 -21 -160t-57.5 -120t-86.5 -81.5t-108 -43.5q18 -98 153 -98l-14 -132q-76 0 -128.5 20.5t-85.5 52.5t-48 72.5t-16 81.5q-48 8 -88.5 30t-70 59.5t-46 90.5t-16.5 122q0 105 28 182.5t76.5 129.5t112.5 77.5t136 25.5q59 0 110 -18t89 -56t59.5 -96.5
t21.5 -138.5zM521 392q2 53 -9 89t-30.5 58t-46 32t-55.5 10q-37 0 -69.5 -15t-57.5 -47.5t-40 -84t-17 -125.5q-1 -52 9.5 -88.5t30 -59t46 -32.5t56.5 -10q38 0 70.5 15t57 47.5t39 84.5t16.5 126z" />
    <glyph glyph-name="R" unicode="R" horiz-adv-x="641" 
d="M518 -7q-47 0 -75.5 19.5t-45.5 49t-27.5 63.5t-23 63.5t-30.5 49t-50 19.5h-47l-27 -257h-147l74 700h243q240 0 240 -200q0 -74 -41 -128.5t-112 -74.5q22 -11 33 -40t22 -59t28 -53.5t50 -23.5h25l-13 -121q-11 -3 -32 -5t-44 -2zM309 369q69 0 107.5 29.5t38.5 87.5
q0 45 -28.5 70.5t-83.5 25.5h-90l-22 -213h78z" />
    <glyph glyph-name="S" unicode="S" horiz-adv-x="590" 
d="M274 -11q-91 0 -161 27.5t-108 85.5l102 98q34 -45 77.5 -65.5t106.5 -20.5q56 0 86.5 20t30.5 62q0 20 -7 34t-24 25t-45 20t-69 19q-39 9 -74.5 23t-62.5 36.5t-43.5 56t-16.5 80.5q0 102 71 161.5t202 59.5q46 0 88.5 -8.5t74.5 -28.5t51.5 -52.5t19.5 -79.5
q0 -26 -3.5 -39t-7.5 -24l-132 1q3 8 4.5 15t1.5 18q0 39 -30 56t-77 17q-115 0 -115 -81q0 -21 8.5 -34.5t26.5 -23t45.5 -17.5t64.5 -17q41 -10 77 -25.5t63 -39t42.5 -58t15.5 -82.5q0 -106 -74.5 -162.5t-208.5 -56.5z" />
    <glyph glyph-name="T" unicode="T" horiz-adv-x="558" 
d="M244 567h-198l15 133h536l-15 -133h-191l-59 -567h-147z" />
    <glyph glyph-name="U" unicode="U" horiz-adv-x="655" 
d="M304 -6q-54 0 -101 15t-80 49.5t-48.5 91t-6.5 140.5l44 410h147l-44 -422q-3 -33 0 -61.5t15 -48.5t33.5 -31.5t54.5 -11.5q65 0 95 42t37 111l44 422h146l-43 -410q-9 -85 -35.5 -141.5t-65.5 -91t-88.5 -49t-103.5 -14.5z" />
    <glyph glyph-name="V" unicode="V" horiz-adv-x="627" 
d="M48 700h165l96 -535l210 535h157l-314 -700h-148z" />
    <glyph glyph-name="W" unicode="W" horiz-adv-x="917" 
d="M56 700h168l37 -543l183 543h136l63 -543l158 543h159l-247 -700h-169l-57 491l-165 -491h-168z" />
    <glyph glyph-name="X" unicode="X" horiz-adv-x="610" 
d="M403 360l185 -360h-167l-119 253l-170 -253h-165l264 359l-173 341h168l107 -232l153 232h165z" />
    <glyph glyph-name="Y" unicode="Y" horiz-adv-x="613" 
d="M238 280l-188 420h170l107 -287l168 287h166l-277 -418l-29 -282h-147z" />
    <glyph glyph-name="Z" unicode="Z" horiz-adv-x="584" 
d="M582 585l-390 -463h349l-13 -122h-521l12 115l395 463h-341l13 122h509z" />
    <glyph glyph-name="bracketleft" unicode="[" horiz-adv-x="370" 
d="M116 726h283l-12 -121h-149l-77 -728h149l-13 -121h-283z" />
    <glyph glyph-name="backslash" unicode="\" horiz-adv-x="442" 
d="M64 706h138l175 -934h-138z" />
    <glyph glyph-name="bracketright" unicode="]" horiz-adv-x="370" 
d="M-18 -123h150l77 728h-150l12 121h285l-102 -970h-285z" />
    <glyph glyph-name="asciicircum" unicode="^" horiz-adv-x="390" 
d="M168 734h158l64 -229h-125l-29 124l-54 -124h-126z" />
    <glyph glyph-name="underscore" unicode="_" horiz-adv-x="470" 
d="M11 0h399l-12 -104h-398z" />
    <glyph glyph-name="grave" unicode="`" horiz-adv-x="270" 
d="M64 741h168l57 -200h-121z" />
    <glyph glyph-name="a" unicode="a" horiz-adv-x="553" 
d="M190 -13q-77 0 -120 56.5t-43 157.5q0 66 17 120t47 93t72 60.5t92 21.5q83 0 117 -57l4 43h137l-35 -329q-2 -23 6 -33t28 -10l-12 -110q-10 -4 -28 -6t-38 -2q-46 0 -68.5 20t-24.5 55l-1 1q-23 -38 -58.5 -59.5t-91.5 -21.5zM249 109q33 0 55.5 21t33.5 54l12 119
q-1 12 -5.5 24.5t-13 23t-22 17t-31.5 6.5q-50 0 -76 -45.5t-26 -115.5q0 -51 18.5 -77.5t54.5 -26.5z" />
    <glyph glyph-name="b" unicode="b" horiz-adv-x="543" 
d="M286 -13q-50 0 -79 18t-46 44l-5 -49h-128l76 726h146l-29 -288q6 8 17 18t27 19t38.5 15t50.5 6q78 0 120.5 -53.5t42.5 -154.5q0 -66 -16.5 -121.5t-47 -95.5t-73 -62t-94.5 -22zM267 109q48 0 74.5 43t26.5 119q0 57 -20 80t-53 23q-35 0 -58 -23t-33 -51l-13 -121
q2 -11 7 -23t14 -22.5t22.5 -17.5t32.5 -7z" />
    <glyph glyph-name="c" unicode="c" horiz-adv-x="479" 
d="M235 -13q-100 0 -154.5 56.5t-54.5 159.5q0 68 18.5 122t52 92t80.5 58.5t103 20.5q85 0 133 -35.5t48 -107.5q0 -23 -4.5 -43.5t-11.5 -34.5l-124 -1q4 9 6.5 21.5t2.5 24.5q0 29 -15.5 41.5t-41.5 12.5q-48 0 -73.5 -46.5t-25.5 -120.5q0 -51 22.5 -74.5t61.5 -23.5
q37 0 60.5 15.5t43.5 41.5l81 -76q-31 -45 -83.5 -74t-124.5 -29z" />
    <glyph glyph-name="d" unicode="d" horiz-adv-x="558" 
d="M191 -13q-77 0 -120.5 54t-43.5 162q0 71 17.5 125.5t48 92t72 56.5t89.5 19q43 0 70 -15t40 -35l30 280h146l-60 -573q-3 -23 5 -33t28 -10l-11 -110q-22 -8 -67 -8t-68 20t-25 55v2q-22 -38 -58.5 -60t-92.5 -22zM251 109q32 0 54.5 21t33.5 54l13 119q-1 12 -6 24.5
t-14 23t-22 17t-32 6.5q-26 0 -45.5 -12.5t-32 -35t-18.5 -53t-6 -65.5q0 -51 20 -75t55 -24z" />
    <glyph glyph-name="e" unicode="e" horiz-adv-x="482" 
d="M259 106q36 0 63 14.5t48 41.5l78 -72q-38 -53 -95 -79t-128 -24q-95 2 -147.5 57.5t-52.5 160.5q0 66 20.5 119.5t56 91.5t83 59t102.5 21q86 0 129.5 -36.5t43.5 -99.5q0 -48 -21 -81.5t-58.5 -55t-90 -31.5t-115.5 -12q12 -74 84 -74zM282 378q-38 0 -66 -29t-38 -83
q68 2 106.5 18.5t38.5 54.5q0 39 -41 39z" />
    <glyph glyph-name="f" unicode="f" horiz-adv-x="350" 
d="M101 366h-68l12 116h68l4 39q5 49 23.5 88t46.5 66.5t65 42t80 14.5q39 0 69 -10.5t50 -26.5l-62 -110q-20 17 -51 17q-32 0 -51.5 -20t-24.5 -66l-3 -34h105l-13 -116h-104l-39 -366h-146z" />
    <glyph glyph-name="g" unicode="g" horiz-adv-x="538" 
d="M203 -240q-69 0 -119 21t-83 74l95 83q19 -29 44 -45t68 -16q101 0 113 118l6 56q-20 -29 -51 -46.5t-86 -17.5q-77 0 -120 56.5t-43 158.5q0 68 16.5 122t46.5 92.5t71 59t90 20.5q81 0 125 -61l6 47h129l-52 -489q-12 -112 -79.5 -172.5t-176.5 -60.5zM250 109
q32 0 55 21t34 54l13 119q-1 12 -6 24.5t-14 23t-22 17t-32 6.5q-26 0 -45.5 -12.5t-32 -34t-18.5 -51t-6 -63.5q0 -51 19.5 -77.5t54.5 -26.5z" />
    <glyph glyph-name="h" unicode="h" horiz-adv-x="542" 
d="M435 -4q-61 0 -91.5 30.5t-22.5 105.5l17 157q4 36 -11 56t-43 20q-20 0 -34.5 -7t-24 -18.5t-14.5 -25t-7 -26.5l-30 -288h-146l76 726h146l-29 -282q17 20 47 36t72 16q45 0 75 -15t47 -41t22.5 -61t1.5 -75l-15 -146q-2 -25 5.5 -35t35.5 -10l-12 -110q-9 -3 -28 -5
t-37 -2z" />
    <glyph glyph-name="i" unicode="i" horiz-adv-x="273" 
d="M164 551q-40 0 -61 23.5t-21 58.5q0 39 26 68t73 29q39 0 59 -24.5t20 -57.5q0 -40 -25.5 -68.5t-70.5 -28.5zM158 -4q-70 0 -97.5 33.5t-19.5 102.5l36 350h148l-34 -316q-3 -31 4 -42t36 -11l-12 -110q-2 0 -19.5 -3.5t-41.5 -3.5z" />
    <glyph glyph-name="j" unicode="j" horiz-adv-x="257" 
d="M165 551q-40 0 -61 23.5t-21 58.5q0 39 26 68t73 29q39 0 59 -24.5t20 -57.5q0 -40 -25.5 -68.5t-70.5 -28.5zM-41 -247q-26 0 -44 5t-29 11q-13 7 -21 16l54 107q4 -3 9 -5q6 -2 12.5 -3.5t15.5 -1.5q34 0 51.5 25t22.5 70l53 505h145l-53 -512q-5 -48 -20 -88
t-41.5 -68.5t-65 -44.5t-89.5 -16z" />
    <glyph glyph-name="k" unicode="k" horiz-adv-x="524" 
d="M370 243q24 -16 34.5 -38t18.5 -42.5t20 -35t39 -14.5h11l-12 -112q-9 -3 -26 -6.5t-34 -3.5q-41 0 -65 14.5t-37.5 36.5t-22 47.5t-19 47.5t-28 36.5t-50.5 14.5h-5l-20 -188h-146l76 726h146l-43 -416h21q59 0 94 45.5t45 126.5h136q-3 -30 -10.5 -62.5t-22.5 -64
t-39 -60.5t-61 -52z" />
    <glyph glyph-name="l" unicode="l" horiz-adv-x="271" 
d="M155 -4q-29 0 -52 6.5t-38 22.5t-21.5 41.5t-2.5 64.5l62 595h147l-59 -568q-3 -27 6 -35.5t35 -8.5l-12 -111q-11 -3 -29.5 -5t-35.5 -2z" />
    <glyph glyph-name="m" unicode="m" horiz-adv-x="833" 
d="M719 -7q-62 0 -88.5 30t-19.5 95l18 170q4 36 -10.5 56.5t-44.5 20.5q-31 0 -50.5 -22.5t-22.5 -57.5l-31 -285h-146l31 289q3 35 -12 55.5t-47 20.5t-52 -24t-24 -56l-30 -285h-146l35 330q4 41 -34 41l11 110q11 4 29.5 6t36.5 2q38 0 62.5 -16.5t31.5 -49.5v-1
q19 30 55.5 52t84.5 22q51 0 83.5 -21t49.5 -60q19 30 53 55.5t91 25.5q81 0 117 -52t27 -140l-16 -151q-4 -42 34 -42l-12 -110q-9 -3 -27.5 -5.5t-36.5 -2.5z" />
    <glyph glyph-name="n" unicode="n" horiz-adv-x="558" 
d="M443 -7q-61 0 -87.5 30t-19.5 95l19 170q4 38 -12.5 57.5t-45.5 19.5q-31 0 -52 -22.5t-25 -60.5l-30 -282h-146l35 330q4 41 -34 41l11 110q11 4 29 6t39 2q45 0 66 -19.5t25 -47.5l1 -1q17 28 51 51.5t89 23.5q79 0 117.5 -50t28.5 -142l-15 -151q-6 -42 33 -42
l-12 -110q-9 -3 -27.5 -5.5t-37.5 -2.5z" />
    <glyph glyph-name="o" unicode="o" horiz-adv-x="527" 
d="M241 -13q-53 0 -93.5 16t-67.5 45.5t-40.5 70t-13.5 89.5q0 63 18 115.5t51.5 91t82.5 60t110 21.5q53 0 93 -16t67 -45t40.5 -69.5t13.5 -89.5q0 -62 -18 -115t-51.5 -91.5t-82 -60.5t-109.5 -22zM251 109q52 0 77 43.5t25 114.5q0 51 -19.5 79t-57.5 28
q-48 0 -74.5 -43.5t-26.5 -116.5q0 -50 18.5 -77.5t57.5 -27.5z" />
    <glyph glyph-name="p" unicode="p" horiz-adv-x="559" 
d="M79 331q4 42 -34 42l12 110q9 3 27 5t39 2q44 0 67.5 -19.5t24.5 -58.5l1 -1q24 38 59 61.5t93 23.5q76 0 120.5 -55t44.5 -158q0 -67 -16.5 -121.5t-46.5 -93.5t-72.5 -60t-94.5 -21q-44 0 -70 12.5t-40 29.5l-27 -258h-146zM284 109q50 0 75 44.5t25 120.5q0 54 -20 77
t-53 23q-35 0 -57.5 -21t-33.5 -53l-13 -121q5 -32 23.5 -51t53.5 -19z" />
    <glyph glyph-name="q" unicode="q" horiz-adv-x="541" 
d="M322 42q-4 -6 -13.5 -15.5t-25 -18t-38 -15t-53.5 -6.5q-34 0 -64 13.5t-52.5 40t-35.5 66t-13 92.5q0 74 19 130t50.5 93t72 55.5t84.5 18.5q29 0 50 -7.5t36.5 -18t25.5 -22.5t15 -22l7 56h127l-76 -722h-146zM251 109q20 0 34.5 7.5t25.5 18.5t18 24t10 24l13 120
q-1 11 -5.5 23.5t-13.5 23t-22.5 17.5t-32.5 7q-49 0 -75.5 -42.5t-26.5 -117.5q0 -56 21 -80.5t54 -24.5z" />
    <glyph glyph-name="r" unicode="r" horiz-adv-x="386" 
d="M79 330q4 41 -34 41l11 110q11 4 28.5 6t37.5 2q50 0 72 -22t20 -50v-3q18 37 52.5 58.5t82.5 21.5q20 0 39 -5t28 -13l-64 -134q-10 6 -21 9t-27 3q-35 0 -58.5 -25t-28.5 -71l-27 -258h-146z" />
    <glyph glyph-name="s" unicode="s" horiz-adv-x="481" 
d="M211 -13q-26 0 -54.5 3.5t-56.5 12t-54 23.5t-48 39l82 99q34 -38 72 -51t83 -13q65 0 65 34q0 17 -21 26t-74 21q-30 7 -58 18t-50.5 28.5t-36 43t-13.5 61.5q0 76 57 120t166 44q86 0 135.5 -33.5t49.5 -96.5q0 -17 -5 -33.5t-10 -26.5h-132q3 6 5.5 14.5t2.5 19.5
q0 26 -17 35.5t-43 9.5q-35 0 -51 -12t-16 -32q0 -26 26 -36t83 -23q26 -6 51.5 -14.5t46 -23.5t33.5 -38t13 -57q0 -83 -62 -122.5t-169 -39.5z" />
    <glyph glyph-name="t" unicode="t" horiz-adv-x="420" 
d="M257 -6q-98 0 -139 50.5t-31 144.5l18 176h-79l12 117h84l13 141h143l-14 -141h153l-12 -117h-154l-16 -161q-4 -36 11.5 -57.5t50.5 -21.5q17 0 31 6t25 15l47 -108q-26 -20 -63.5 -32t-79.5 -12z" />
    <glyph glyph-name="u" unicode="u" horiz-adv-x="546" 
d="M179 -13q-75 0 -110.5 43.5t-26.5 130.5l34 321h146l-30 -285q-5 -44 9.5 -62t45.5 -18q38 0 57.5 27t23.5 62l28 276h147l-35 -330q-2 -21 5.5 -31.5t27.5 -10.5l-11 -110q-9 -3 -27 -5.5t-39 -2.5q-48 0 -70.5 20.5t-22.5 56.5v1q-23 -40 -59 -61.5t-93 -21.5z" />
    <glyph glyph-name="v" unicode="v" horiz-adv-x="492" 
d="M514 482l-220 -483h-146l-119 483h157l43 -253l9 -102l29 102l98 253h149z" />
    <glyph glyph-name="w" unicode="w" horiz-adv-x="751" 
d="M771 482l-191 -482h-159l-27 258l-5 91l-25 -88l-89 -261h-154l-90 482h156l26 -247l7 -110l30 110l78 247h156l25 -247l6 -110l30 110l79 247h147z" />
    <glyph glyph-name="x" unicode="x" horiz-adv-x="470" 
d="M318 249l128 -249h-155l-68 151l-98 -151h-149l177 246l-120 236h156l58 -143l91 143h151z" />
    <glyph glyph-name="y" unicode="y" horiz-adv-x="528" 
d="M187 -247q-76 0 -127 27t-74 76l100 76q19 -34 44.5 -48t65.5 -14q59 0 84 32t31 86l7 74q-48 -68 -146 -68q-147 0 -129 174l33 314h145l-29 -278q-5 -42 9 -60.5t44 -18.5q27 0 51 22.5t30 68.5l28 266h147l-52 -489q-12 -110 -77 -175t-185 -65z" />
    <glyph glyph-name="z" unicode="z" horiz-adv-x="486" 
d="M449 370l-205 -127q33 -7 68.5 -23.5t65 -45t48.5 -70.5t19 -100q0 -60 -18.5 -106.5t-50.5 -78.5t-76.5 -48.5t-97.5 -16.5q-95 0 -148 44.5t-53 125.5q0 44 14 79.5t36 63.5t49 49t53 34q-36 6 -78 6l11 100l186 110h-221l12 116h398zM318 -5q0 44 -18.5 74.5
t-53.5 50.5q-51 -27 -82 -68.5t-31 -94.5q0 -40 23 -61.5t58 -21.5q20 0 39 7.5t33.5 22.5t23 37.5t8.5 53.5z" />
    <glyph glyph-name="braceleft" unicode="{" horiz-adv-x="343" 
d="M270 -234q-45 -8 -85 -0.5t-68.5 31.5t-43 67t-8.5 106l14 145q4 36 -14 51.5t-41 15.5h-10l13 118h10q23 0 43.5 15.5t24.5 51.5l16 145q7 63 30.5 106t58 67t76 31.5t84.5 -0.5l-13 -128q-45 15 -74.5 -14.5t-35.5 -87.5l-16 -153q-3 -25 -10 -42t-15 -27.5t-16.5 -15
t-13.5 -6.5q3 -1 10 -7.5t13.5 -18t10.5 -28.5t2 -39l-16 -153q-6 -58 17 -87.5t71 -14.5z" />
    <glyph glyph-name="bar" unicode="|" horiz-adv-x="253" 
d="M117 736h123l-104 -990h-123z" />
    <glyph glyph-name="braceright" unicode="}" horiz-adv-x="352" 
d="M82 716q45 8 85 0.5t68.5 -31.5t43 -67t8.5 -106l-15 -145q-4 -36 14 -51.5t41 -15.5h10l-12 -118h-10q-23 0 -44 -15.5t-25 -51.5l-16 -145q-7 -63 -30.5 -106t-57.5 -67t-75.5 -31.5t-84.5 0.5l13 128q44 -15 73.5 14.5t35.5 87.5l17 153q3 25 10 42t15 27.5t16.5 15.5
t13.5 6q-3 1 -10 7.5t-13.5 18t-10.5 28.5t-2 39l16 153q6 58 -17.5 87.5t-70.5 14.5z" />
    <glyph glyph-name="asciitilde" unicode="~" horiz-adv-x="468" 
d="M54 171q-3 5 -4 13q-2 6 -3.5 15t-1.5 21q0 23 7 43t20.5 36t34.5 25t48 9q25 0 47 -6.5t41.5 -15t36.5 -15t32 -6.5q12 0 18 8.5t6 20.5q0 8 -1.5 15.5t-3.5 13.5q-2 7 -5 13h96q2 -7 4 -15q1 -7 2 -16t1 -20q0 -22 -7 -43t-20.5 -37t-33 -25.5t-45.5 -9.5
q-30 0 -53 6.5t-41.5 15t-33 15t-27.5 6.5q-14 0 -22 -8.5t-8 -24.5q0 -8 1.5 -14.5t3.5 -10.5q2 -5 5 -9h-94z" />
    <glyph glyph-name="exclamdown" unicode="&#xa1;" horiz-adv-x="263" 
d="M159 488q36 0 58 -21t22 -58t-23.5 -63.5t-66.5 -26.5q-35 0 -57 22t-22 57q0 38 22.5 64t66.5 26zM166 -218h-162l69 467h125z" />
    <glyph glyph-name="cent" unicode="&#xa2;" horiz-adv-x="494" 
d="M206 109q-76 14 -118.5 70.5t-42.5 147.5q0 60 16.5 108t45.5 83t68 57t84 30l10 95h85l-10 -93q53 -6 91.5 -34.5t51.5 -60.5l-117 -79q-2 10 -14.5 24.5t-35.5 18.5l-25 -242q17 2 31 8.5t25.5 15.5t19.5 18.5t13 16.5l83 -81q-9 -13 -26 -30.5t-40.5 -33.5
t-51.5 -27.5t-58 -13.5l-11 -107h-86zM256 474q-32 -11 -48.5 -46t-16.5 -89q0 -36 11 -59t30 -34z" />
    <glyph glyph-name="sterling" unicode="&#xa3;" horiz-adv-x="594" 
d="M426 457q3 11 4 18.5t1 17.5q0 20 -7.5 33.5t-20 21t-28 10.5t-31.5 3q-57 0 -85 -28t-28 -74q0 -32 7.5 -58t15.5 -52h201l-10 -97h-174v-3q0 -39 -12.5 -68.5t-35.5 -54.5h327l-13 -127h-520l10 90q40 20 66.5 60.5t26.5 86.5v8t-1 8h-78l11 97h47q-8 26 -14 54.5
t-6 61.5q0 50 17.5 92.5t52 74.5t86.5 50t121 18q45 0 86 -10t72.5 -30t50 -51.5t18.5 -74.5q0 -26 -3 -42t-9 -35h-145z" />
    <glyph glyph-name="currency" unicode="&#xa4;" horiz-adv-x="562" 
d="M27 171l85 80q-15 35 -15 79q0 61 36 114l-66 77l81 74l64 -77q47 30 104 30q53 0 94 -29l82 76l66 -74l-82 -76q8 -17 12 -38t4 -41q0 -63 -36 -117l62 -72l-81 -73l-63 72q-43 -28 -98 -28q-59 0 -100 28l-83 -79zM289 258q43 0 67.5 28.5t24.5 68.5q0 39 -22 60.5
t-57 21.5q-42 0 -67.5 -28.5t-25.5 -69.5q0 -37 22.5 -59t57.5 -22z" />
    <glyph glyph-name="yen" unicode="&#xa5;" horiz-adv-x="656" 
d="M242 124h-154l10 94h154l5 43l-5 16h-148l10 95h105l-150 328h168l113 -285l166 285h171l-223 -328h102l-10 -95h-143l-8 -16l-5 -43h150l-10 -94h-149l-14 -124h-148z" />
    <glyph glyph-name="brokenbar" unicode="&#xa6;" horiz-adv-x="253" 
d="M117 736h123l-43 -412h-123zM57 165h123l-44 -419h-123z" />
    <glyph glyph-name="section" unicode="&#xa7;" horiz-adv-x="601" 
d="M229 -247q-91 0 -152.5 28t-91.5 78l101 98q27 -37 67.5 -57.5t100.5 -20.5q36 0 59.5 6t37.5 17.5t19.5 27t5.5 33.5q0 31 -24 46.5t-60.5 25.5t-79 20t-79 29t-60.5 53t-24 92q0 38 17 79.5t59 72.5q-22 20 -31.5 47t-9.5 58q0 46 21 86t57.5 70t86.5 47t107 17
q55 0 96 -12.5t70.5 -31.5t47 -42t24.5 -44l-106 -71q-5 10 -16.5 22.5t-28.5 24t-39 19.5t-49 8q-66 0 -93.5 -23.5t-27.5 -60.5q0 -31 24.5 -46.5t60.5 -26t79 -20t79 -29.5t60.5 -55t24.5 -95q0 -88 -56 -146q11 -17 16 -39t5 -47q0 -55 -20.5 -99t-59 -75t-94 -47.5
t-124.5 -16.5zM396 151q18 21 18 51q0 24 -12.5 38.5t-37.5 25t-61 19t-83 20.5q-22 -20 -22 -53q0 -21 12 -35.5t37 -25.5t62 -20t87 -20z" />
    <glyph glyph-name="dieresis" unicode="&#xa8;" horiz-adv-x="408" 
d="M128 543q-38 0 -58.5 22.5t-20.5 55.5q0 38 25 66t70 28q38 0 57 -23.5t19 -55.5q0 -38 -24.5 -65.5t-67.5 -27.5zM348 543q-38 0 -58.5 22.5t-20.5 55.5q0 38 25.5 66t70.5 28q38 0 57 -23.5t19 -55.5q0 -38 -25 -65.5t-68 -27.5z" />
    <glyph glyph-name="copyright" unicode="&#xa9;" horiz-adv-x="837" 
d="M399 -37q-79 0 -144.5 27.5t-113 76.5t-74 115t-26.5 144q0 100 34.5 180.5t92.5 137.5t134.5 88t160.5 31q79 0 145 -27.5t113.5 -76.5t74 -115t26.5 -144q0 -100 -34.5 -181t-92.5 -138t-135 -87.5t-161 -30.5zM409 61q63 0 119.5 22.5t100 64.5t69 103.5t25.5 139.5
q0 59 -19.5 109.5t-55.5 87.5t-86 57.5t-110 20.5q-62 0 -119 -22.5t-100 -65t-68.5 -104t-25.5 -139.5q0 -59 19.5 -109t55.5 -87t85.5 -57.5t109.5 -20.5zM412 131q-87 0 -134 53.5t-47 148.5q0 60 15.5 108.5t44.5 83t70 53.5t91 19q75 0 115 -33.5t40 -99.5
q0 -19 -5 -42h-99q3 12 3 24q0 23 -12.5 37.5t-44.5 14.5q-26 0 -45.5 -12t-32.5 -32.5t-19.5 -48.5t-6.5 -60q0 -115 87 -115q32 0 52.5 10t40.5 30l51 -67q-23 -29 -62.5 -50.5t-101.5 -21.5z" />
    <glyph glyph-name="ordfeminine" unicode="&#xaa;" horiz-adv-x="358" 
d="M143 400q-42 0 -65 21t-23 56q0 48 30.5 71.5t95.5 23.5h53l3 25q2 18 -4 25.5t-20 7.5q-27 0 -27 -26q0 -6 1 -6h-98q-2 2 -2.5 8t-0.5 14q0 46 36 71.5t102 25.5q63 0 93 -28t24 -85l-9 -94q-1 -17 18 -17l-9 -80q-7 -5 -21.5 -8.5t-31.5 -3.5q-48 0 -54 42v1
q-14 -20 -37.5 -32t-53.5 -12zM180 472q15 0 28 9t18 20l3 20h-41q-32 0 -32 -27q0 -22 24 -22z" />
    <glyph glyph-name="guillemotleft" unicode="&#xab;" horiz-adv-x="537" 
d="M29 202l12 118l177 143l64 -82l-136 -121l110 -118l-80 -82zM269 202l13 118l177 143l63 -82l-135 -121l110 -118l-80 -82z" />
    <glyph glyph-name="registered" unicode="&#xae;" horiz-adv-x="837" 
d="M399 -37q-79 0 -144.5 27.5t-113 76.5t-74 115t-26.5 144q0 100 34 180.5t92 137.5t134.5 88t161.5 31q79 0 145 -27.5t113.5 -76.5t74 -115t26.5 -144q0 -100 -34 -181t-92 -138t-134.5 -87.5t-162.5 -30.5zM409 61q63 0 119.5 22.5t100 64.5t69 103.5t25.5 139.5
q0 59 -19.5 109.5t-55.5 87.5t-86 57.5t-110 20.5q-62 0 -119 -22.5t-100 -65t-68.5 -104t-25.5 -139.5q0 -59 19.5 -109t55.5 -87t85.5 -57.5t109.5 -20.5zM549 144q-33 0 -52 12t-29.5 29.5t-16.5 38t-13 38t-18 29.5t-32 12h-26l-16 -153h-104l47 441h156q74 0 112 -28
t38 -91q0 -34 -11 -57t-26 -38t-29.5 -22t-21.5 -10q15 -15 22 -34t13.5 -36.5t16 -29.5t29.5 -12h17l-9 -85q-2 0 -13 -2t-34 -2zM412 389q37 0 58.5 16.5t21.5 46.5q0 26 -15.5 37.5t-46.5 11.5h-46l-12 -112h40z" />
    <glyph glyph-name="macron" unicode="&#xaf;" horiz-adv-x="329" 
d="M66 693h293l-12 -109h-293z" />
    <glyph glyph-name="degree" unicode="&#xb0;" horiz-adv-x="307" 
d="M180 453q-59 0 -89.5 34.5t-30.5 88.5q0 65 39 105.5t103 40.5q57 0 88 -35t31 -89q0 -65 -39 -105t-102 -40zM185 530q27 0 43.5 17.5t16.5 44.5q0 23 -13 37.5t-36 14.5q-29 0 -44.5 -18t-15.5 -44q0 -23 12.5 -37.5t36.5 -14.5z" />
    <glyph glyph-name="plusminus" unicode="&#xb1;" horiz-adv-x="481" 
d="M194 317h-140l11 105h140l15 143h105l-15 -143h145l-10 -105h-146l-17 -156h-105zM27 117h400l-11 -106h-400z" />
    <glyph glyph-name="acute" unicode="&#xb4;" horiz-adv-x="272" 
d="M142 741h171l-148 -200h-122z" />
    <glyph glyph-name="paragraph" unicode="&#xb6;" horiz-adv-x="642" 
d="M309 232h-68q-49 0 -85.5 15t-60.5 41.5t-36 63.5t-12 82q0 57 15.5 105.5t46.5 84.5t76.5 56t105.5 20h326l-74 -700h-86l66 632h-87l-66 -632h-86z" />
    <glyph glyph-name="periodcentered" unicode="&#xb7;" horiz-adv-x="236" 
d="M126 271q-36 0 -58 21t-22 58t23.5 63.5t66.5 26.5q35 0 56.5 -22t21.5 -58q0 -37 -22.5 -63t-65.5 -26z" />
    <glyph glyph-name="cedilla" unicode="&#xb8;" horiz-adv-x="252" 
d="M74 -221q-35 0 -64.5 9t-44.5 26l51 63q9 -10 22.5 -16t29.5 -6q35 0 35 28q0 16 -17.5 24.5t-48.5 10.5l38 85h82l-17 -39q29 -8 48 -26.5t19 -54.5q0 -51 -35.5 -77.5t-97.5 -26.5z" />
    <glyph glyph-name="ordmasculine" unicode="&#xba;" horiz-adv-x="352" 
d="M195 400q-69 0 -102.5 39t-33.5 99q0 38 11 70t33 56t53.5 37.5t71.5 13.5q67 0 99.5 -38.5t32.5 -98.5q0 -37 -10.5 -69.5t-31.5 -56.5t-52 -38t-71 -14zM204 490q26 0 37.5 22.5t11.5 60.5q0 22 -7.5 37.5t-27.5 15.5q-26 0 -39.5 -24t-13.5 -61q0 -22 8.5 -36.5
t30.5 -14.5z" />
    <glyph glyph-name="guillemotright" unicode="&#xbb;" horiz-adv-x="536" 
d="M18 141l137 121l-111 119l81 82l147 -143l-12 -118l-177 -142zM259 141l136 121l-111 119l81 82l148 -143l-13 -118l-177 -142z" />
    <glyph glyph-name="onequarter" unicode="&#xbc;" horiz-adv-x="805" 
d="M465 727h100l-288 -727h-101zM158 563q-12 -11 -36.5 -19.5t-56.5 -8.5l4 93q42 0 69 20t35 52h99l-40 -382h-99zM593 76h-178l7 69l136 237h105l-127 -220h75l9 77h91l-8 -77h49l-10 -86h-48l-8 -76h-100z" />
    <glyph glyph-name="onehalf" unicode="&#xbd;" horiz-adv-x="828" 
d="M465 727h100l-288 -727h-101zM158 563q-12 -11 -36.5 -19.5t-56.5 -8.5l4 93q42 0 69 20t35 52h99l-40 -382h-99zM456 34q4 33 21 57.5t40.5 44t50 34.5t49 29.5t37 29.5t14.5 33q0 16 -9.5 25t-32.5 9q-33 0 -44 -15.5t-13 -28.5h-91q3 25 13.5 49t30 43t49.5 30.5
t70 11.5q61 0 93.5 -27.5t32.5 -78.5q0 -33 -13.5 -58t-33.5 -44t-43.5 -33.5t-43.5 -25.5t-33.5 -20t-13.5 -17v-2h171l-8 -80h-297z" />
    <glyph glyph-name="threequarters" unicode="&#xbe;" horiz-adv-x="836" 
d="M497 727h100l-288 -727h-101zM129 315q-56 0 -90 18t-48 59l79 49q14 -29 29.5 -38t38.5 -9q27 0 40 12t13 33q0 16 -10 25.5t-35 9.5h-38l8 71h28q27 0 39.5 11t12.5 31q0 33 -39 33q-19 0 -33 -8.5t-16 -28.5h-91q3 32 17 55.5t35 38.5t47 22.5t53 7.5q62 0 95 -27.5
t33 -72.5q0 -35 -16.5 -58t-42.5 -32q54 -18 54 -79q0 -56 -44 -89.5t-119 -33.5zM625 76h-178l7 69l136 237h105l-127 -220h75l9 77h91l-8 -77h49l-10 -86h-48l-8 -76h-100z" />
    <glyph glyph-name="questiondown" unicode="&#xbf;" horiz-adv-x="488" 
d="M276 484q36 0 58 -21t22 -58t-23.5 -64t-66.5 -27q-35 0 -56.5 22t-21.5 58q0 38 22 64t66 26zM328 264q-4 -42 -17.5 -72.5t-32 -53.5t-38.5 -41t-37.5 -36t-28.5 -38.5t-11 -48.5q0 -30 16 -46t45 -16q66 0 75 75h144q-10 -109 -72.5 -164.5t-165.5 -55.5
q-54 0 -91.5 15.5t-61 41t-34.5 58t-11 65.5q0 45 12.5 78t32 58.5t42 45.5t43 40.5t35.5 42.5t19 52h137z" />
    <glyph glyph-name="Agrave" unicode="&#xc0;" horiz-adv-x="644" 
d="M314 741l-110 161h173l61 -161h-124zM434 163h-239l-69 -163h-153l323 700h150l175 -700h-153zM410 277l-55 262l-111 -262h166z" />
    <glyph glyph-name="Aacute" unicode="&#xc1;" horiz-adv-x="644" 
d="M429 741h-129l95 161h178zM434 163h-239l-69 -163h-153l323 700h150l175 -700h-153zM410 277l-55 262l-111 -262h166z" />
    <glyph glyph-name="Acircumflex" unicode="&#xc2;" horiz-adv-x="644" 
d="M333 741h-126l104 161h157l70 -161h-126l-33 71zM434 163h-239l-69 -163h-153l323 700h150l175 -700h-153zM410 277l-55 262l-111 -262h166z" />
    <glyph glyph-name="Atilde" unicode="&#xc3;" horiz-adv-x="644" 
d="M209 742q-4 8 -6.5 21.5t-2.5 27.5q0 48 30.5 78t78.5 30q22 0 40 -6t34 -13.5t29.5 -14t25.5 -6.5q26 0 26 25q0 10 -3 16h93q5 -9 6.5 -22t1.5 -24q0 -49 -28.5 -79.5t-78.5 -30.5q-25 0 -44.5 6.5t-35 14t-27.5 13.5t-23 6q-12 0 -19.5 -6.5t-7.5 -18.5q0 -9 4 -17
h-93zM434 163h-239l-69 -163h-153l323 700h150l175 -700h-153zM410 277l-55 262l-111 -262h166z" />
    <glyph glyph-name="Adieresis" unicode="&#xc4;" horiz-adv-x="644" 
d="M246 741q-38 0 -59 23t-21 56q0 45 28 70t66 25t58.5 -23t20.5 -57q0 -45 -27 -69.5t-66 -24.5zM493 741q-39 0 -60 22t-21 57q0 45 28.5 70t66.5 25t57.5 -23t19.5 -56q0 -46 -26.5 -70.5t-64.5 -24.5zM434 163h-239l-69 -163h-153l323 700h150l175 -700h-153zM410 277
l-55 262l-111 -262h166z" />
    <glyph glyph-name="Aring" unicode="&#xc5;" horiz-adv-x="644" 
d="M374 713q-54 0 -83 32.5t-29 79.5q0 28 9.5 52.5t27.5 42.5t42.5 28.5t54.5 10.5q53 0 82 -32.5t29 -80.5q0 -28 -9.5 -52.5t-27 -42.5t-42 -28t-54.5 -10zM388 881q-21 0 -33 -14t-12 -36q0 -20 10.5 -30.5t28.5 -10.5q22 0 33.5 15t11.5 36q0 18 -10.5 29t-28.5 11z
M434 163h-239l-69 -163h-153l323 700h150l175 -700h-153zM410 277l-55 262l-111 -262h166z" />
    <glyph glyph-name="AE" unicode="&#xc6;" horiz-adv-x="839" 
d="M295 700h555l-14 -124h-352l42 -175h224l-14 -122h-178l36 -155h195l-13 -124h-311l-35 168h-226l-70 -168h-162zM404 285l-50 237l-98 -237h148z" />
    <glyph glyph-name="Ccedilla" unicode="&#xc7;" horiz-adv-x="608" 
d="M455 439q5 13 7.5 27t2.5 26q0 44 -26.5 66t-72.5 22q-39 0 -70 -19t-52.5 -54t-33 -85t-11.5 -113q0 -94 36.5 -143t102.5 -49q51 0 83.5 20t63.5 64l92 -71q-38 -60 -89.5 -95t-126.5 -44l-12 -27q29 -8 48 -26.5t19 -54.5q0 -51 -35.5 -77.5t-97.5 -26.5
q-35 0 -64.5 9t-44.5 26l51 63q9 -10 22.5 -16t29.5 -6q35 0 35 28q0 16 -17.5 24.5t-48.5 10.5l33 73q-112 11 -174 88.5t-62 214.5q0 94 23 171t67 131.5t107.5 84.5t143.5 30q47 0 87.5 -11.5t71 -34.5t48 -58.5t17.5 -83.5q0 -42 -15 -84h-138z" />
    <glyph glyph-name="Egrave" unicode="&#xc8;" horiz-adv-x="551" 
d="M182 902h173l61 -161h-124zM119 700h440l-13 -125h-293l-17 -159h253l-13 -125h-253l-18 -166h295l-13 -125h-442z" />
    <glyph glyph-name="Eacute" unicode="&#xc9;" horiz-adv-x="551" 
d="M372 902h178l-144 -161h-129zM119 700h440l-13 -125h-293l-17 -159h253l-13 -125h-253l-18 -166h295l-13 -125h-442z" />
    <glyph glyph-name="Ecircumflex" unicode="&#xca;" horiz-adv-x="551" 
d="M289 902h157l70 -161h-126l-33 71l-46 -71h-126zM119 700h440l-13 -125h-293l-17 -159h253l-13 -125h-253l-18 -166h295l-13 -125h-442z" />
    <glyph glyph-name="Edieresis" unicode="&#xcb;" horiz-adv-x="551" 
d="M224 741q-38 0 -59 23t-21 56q0 45 28 70t66 25t58.5 -23t20.5 -57q0 -45 -27 -69.5t-66 -24.5zM471 741q-39 0 -60 22t-21 57q0 45 28.5 70t66.5 25t57.5 -23t19.5 -56q0 -46 -26.5 -70.5t-64.5 -24.5zM119 700h440l-13 -125h-293l-17 -159h253l-13 -125h-253l-18 -166
h295l-13 -125h-442z" />
    <glyph glyph-name="Igrave" unicode="&#xcc;" horiz-adv-x="287" 
d="M26 902h173l61 -161h-124zM119 700h147l-74 -700h-147z" />
    <glyph glyph-name="Iacute" unicode="&#xcd;" horiz-adv-x="287" 
d="M216 902h178l-144 -161h-129zM119 700h147l-74 -700h-147z" />
    <glyph glyph-name="Icircumflex" unicode="&#xce;" horiz-adv-x="287" 
d="M133 902h157l70 -161h-126l-33 71l-46 -71h-126zM119 700h147l-74 -700h-147z" />
    <glyph glyph-name="Idieresis" unicode="&#xcf;" horiz-adv-x="287" 
d="M68 741q-38 0 -59 23t-21 56q0 45 28 70t66 25t58.5 -23t20.5 -57q0 -45 -27 -69.5t-66 -24.5zM315 741q-39 0 -60 22t-21 57q0 45 28.5 70t66.5 25t57.5 -23t19.5 -56q0 -46 -26.5 -70.5t-64.5 -24.5zM119 700h147l-74 -700h-147z" />
    <glyph glyph-name="Eth" unicode="&#xd0;" horiz-adv-x="685" 
d="M344 700q68 0 125.5 -16.5t99 -52.5t65 -93t23.5 -139q0 -110 -32 -186t-84 -123.5t-119 -68.5t-136 -21h-236l32 302h-68l11 105h68l31 293h220zM285 121q99 0 158.5 66t59.5 197q0 92 -42.5 143.5t-139.5 51.5h-63l-18 -172h100l-11 -105h-100l-19 -181h75z" />
    <glyph glyph-name="Ntilde" unicode="&#xd1;" horiz-adv-x="671" 
d="M227 742q-4 8 -6.5 21.5t-2.5 27.5q0 48 30.5 78t78.5 30q22 0 40 -6t34 -13.5t29.5 -14t25.5 -6.5q26 0 26 25q0 10 -3 16h93q5 -9 6.5 -22t1.5 -24q0 -49 -28.5 -79.5t-78.5 -30.5q-25 0 -44.5 6.5t-35 14t-27.5 13.5t-23 6q-12 0 -19.5 -6.5t-7.5 -18.5q0 -9 4 -17
h-93zM119 700h130l199 -416l14 -41l49 457h139l-75 -700h-130l-203 420l-10 32l-48 -452h-139z" />
    <glyph glyph-name="Ograve" unicode="&#xd2;" horiz-adv-x="694" 
d="M229 902h173l61 -161h-124zM322 -11q-59 0 -110 18t-89 55.5t-59.5 95.5t-21.5 138q0 105 28 182.5t76.5 129.5t112.5 77.5t136 25.5q59 0 110 -18t89 -56t59.5 -96.5t21.5 -138.5q0 -105 -28 -182.5t-76.5 -129t-112.5 -76.5t-136 -25zM338 119q38 0 70.5 15t57 47.5
t39 84.5t16.5 126q2 53 -9 89t-30.5 58t-46 32t-55.5 10q-37 0 -69.5 -15t-57.5 -47.5t-40 -84t-17 -125.5q-1 -52 9.5 -88.5t30 -59t46 -32.5t56.5 -10z" />
    <glyph glyph-name="Oacute" unicode="&#xd3;" horiz-adv-x="694" 
d="M419 902h178l-144 -161h-129zM322 -11q-59 0 -110 18t-89 55.5t-59.5 95.5t-21.5 138q0 105 28 182.5t76.5 129.5t112.5 77.5t136 25.5q59 0 110 -18t89 -56t59.5 -96.5t21.5 -138.5q0 -105 -28 -182.5t-76.5 -129t-112.5 -76.5t-136 -25zM338 119q38 0 70.5 15t57 47.5
t39 84.5t16.5 126q2 53 -9 89t-30.5 58t-46 32t-55.5 10q-37 0 -69.5 -15t-57.5 -47.5t-40 -84t-17 -125.5q-1 -52 9.5 -88.5t30 -59t46 -32.5t56.5 -10z" />
    <glyph glyph-name="Ocircumflex" unicode="&#xd4;" horiz-adv-x="694" 
d="M336 902h157l70 -161h-126l-33 71l-46 -71h-126zM322 -11q-59 0 -110 18t-89 55.5t-59.5 95.5t-21.5 138q0 105 28 182.5t76.5 129.5t112.5 77.5t136 25.5q59 0 110 -18t89 -56t59.5 -96.5t21.5 -138.5q0 -105 -28 -182.5t-76.5 -129t-112.5 -76.5t-136 -25zM338 119
q38 0 70.5 15t57 47.5t39 84.5t16.5 126q2 53 -9 89t-30.5 58t-46 32t-55.5 10q-37 0 -69.5 -15t-57.5 -47.5t-40 -84t-17 -125.5q-1 -52 9.5 -88.5t30 -59t46 -32.5t56.5 -10z" />
    <glyph glyph-name="Otilde" unicode="&#xd5;" horiz-adv-x="694" 
d="M234 742q-4 8 -6.5 21.5t-2.5 27.5q0 48 30.5 78t78.5 30q22 0 40 -6t34 -13.5t29.5 -14t25.5 -6.5q26 0 26 25q0 10 -3 16h93q5 -9 6.5 -22t1.5 -24q0 -49 -28.5 -79.5t-78.5 -30.5q-25 0 -44.5 6.5t-35 14t-27.5 13.5t-23 6q-12 0 -19.5 -6.5t-7.5 -18.5q0 -9 4 -17
h-93zM322 -11q-59 0 -110 18t-89 55.5t-59.5 95.5t-21.5 138q0 105 28 182.5t76.5 129.5t112.5 77.5t136 25.5q59 0 110 -18t89 -56t59.5 -96.5t21.5 -138.5q0 -105 -28 -182.5t-76.5 -129t-112.5 -76.5t-136 -25zM338 119q38 0 70.5 15t57 47.5t39 84.5t16.5 126
q2 53 -9 89t-30.5 58t-46 32t-55.5 10q-37 0 -69.5 -15t-57.5 -47.5t-40 -84t-17 -125.5q-1 -52 9.5 -88.5t30 -59t46 -32.5t56.5 -10z" />
    <glyph glyph-name="Odieresis" unicode="&#xd6;" horiz-adv-x="694" 
d="M271 741q-38 0 -59 23t-21 56q0 45 28 70t66 25t58.5 -23t20.5 -57q0 -45 -27 -69.5t-66 -24.5zM518 741q-39 0 -60 22t-21 57q0 45 28.5 70t66.5 25t57.5 -23t19.5 -56q0 -46 -26.5 -70.5t-64.5 -24.5zM322 -11q-59 0 -110 18t-89 55.5t-59.5 95.5t-21.5 138
q0 105 28 182.5t76.5 129.5t112.5 77.5t136 25.5q59 0 110 -18t89 -56t59.5 -96.5t21.5 -138.5q0 -105 -28 -182.5t-76.5 -129t-112.5 -76.5t-136 -25zM338 119q38 0 70.5 15t57 47.5t39 84.5t16.5 126q2 53 -9 89t-30.5 58t-46 32t-55.5 10q-37 0 -69.5 -15t-57.5 -47.5
t-40 -84t-17 -125.5q-1 -52 9.5 -88.5t30 -59t46 -32.5t56.5 -10z" />
    <glyph glyph-name="multiply" unicode="&#xd7;" horiz-adv-x="479" 
d="M20 129l147 136l-117 136l83 74l116 -136l146 136l68 -75l-146 -136l118 -136l-83 -74l-118 136l-146 -136z" />
    <glyph glyph-name="Oslash" unicode="&#xd8;" horiz-adv-x="694" 
d="M613 616q29 -38 45.5 -91t16.5 -123q0 -105 -28 -182.5t-76.5 -129t-112.5 -76.5t-136 -25q-81 0 -144 33l-28 -38h-121l74 101q-29 38 -45 90t-16 121q0 105 28 182.5t76.5 129.5t112.5 77.5t136 25.5q80 0 143 -33l28 38h120zM196 309q-2 -50 9 -85l248 338
q-16 10 -34.5 14.5t-38.5 4.5q-37 0 -69.5 -15t-57.5 -47.5t-40 -84t-17 -125.5zM521 392q2 51 -9 87l-249 -341q32 -19 75 -19q38 0 70.5 15t57 47.5t39 84.5t16.5 126z" />
    <glyph glyph-name="Ugrave" unicode="&#xd9;" horiz-adv-x="655" 
d="M209 902h173l61 -161h-124zM304 -6q-54 0 -101 15t-80 49.5t-48.5 91t-6.5 140.5l44 410h147l-44 -422q-3 -33 0 -61.5t15 -48.5t33.5 -31.5t54.5 -11.5q65 0 95 42t37 111l44 422h146l-43 -410q-9 -85 -35.5 -141.5t-65.5 -91t-88.5 -49t-103.5 -14.5z" />
    <glyph glyph-name="Uacute" unicode="&#xda;" horiz-adv-x="655" 
d="M400 902h178l-144 -161h-129zM304 -6q-54 0 -101 15t-80 49.5t-48.5 91t-6.5 140.5l44 410h147l-44 -422q-3 -33 0 -61.5t15 -48.5t33.5 -31.5t54.5 -11.5q65 0 95 42t37 111l44 422h146l-43 -410q-9 -85 -35.5 -141.5t-65.5 -91t-88.5 -49t-103.5 -14.5z" />
    <glyph glyph-name="Ucircumflex" unicode="&#xdb;" horiz-adv-x="655" 
d="M316 902h157l70 -161h-126l-33 71l-46 -71h-126zM304 -6q-54 0 -101 15t-80 49.5t-48.5 91t-6.5 140.5l44 410h147l-44 -422q-3 -33 0 -61.5t15 -48.5t33.5 -31.5t54.5 -11.5q65 0 95 42t37 111l44 422h146l-43 -410q-9 -85 -35.5 -141.5t-65.5 -91t-88.5 -49
t-103.5 -14.5z" />
    <glyph glyph-name="Udieresis" unicode="&#xdc;" horiz-adv-x="655" 
d="M251 741q-38 0 -59 23t-21 56q0 45 28 70t66 25t58.5 -23t20.5 -57q0 -45 -27 -69.5t-66 -24.5zM498 741q-39 0 -60 22t-21 57q0 45 28.5 70t66.5 25t57.5 -23t19.5 -56q0 -46 -26.5 -70.5t-64.5 -24.5zM304 -6q-54 0 -101 15t-80 49.5t-48.5 91t-6.5 140.5l44 410h147
l-44 -422q-3 -33 0 -61.5t15 -48.5t33.5 -31.5t54.5 -11.5q65 0 95 42t37 111l44 422h146l-43 -410q-9 -85 -35.5 -141.5t-65.5 -91t-88.5 -49t-103.5 -14.5z" />
    <glyph glyph-name="Yacute" unicode="&#xdd;" horiz-adv-x="613" 
d="M380 902h178l-144 -161h-129zM238 280l-188 420h170l107 -287l168 287h166l-277 -418l-29 -282h-147z" />
    <glyph glyph-name="Thorn" unicode="&#xde;" horiz-adv-x="615" 
d="M119 700h155l-12 -106h88q116 0 183 -52.5t67 -160.5q0 -69 -23 -119.5t-62 -83.5t-89.5 -48.5t-105.5 -15.5h-108l-12 -114h-155zM306 238q66 0 101.5 32t35.5 95q0 46 -29 75.5t-90 29.5h-75l-24 -232h81z" />
    <glyph glyph-name="germandbls" unicode="&#xdf;" horiz-adv-x="603" 
d="M365 -13q-39 0 -74 7.5t-54 20.5l58 117q27 -21 71 -21q31 0 49.5 10t18.5 36q0 22 -21 38t-46 33.5t-46 41t-21 59.5q0 39 17 66t38 49t38 44t17 52q0 27 -16.5 43t-48.5 16q-35 0 -56.5 -21.5t-26.5 -67.5l-54 -510h-146l39 367h-68l12 115h68l2 23q10 106 73.5 167.5
t169.5 61.5q93 0 146.5 -41.5t53.5 -113.5q0 -48 -16.5 -78.5t-37 -52.5t-37 -41t-16.5 -46q0 -24 20.5 -41.5t44.5 -38.5t44.5 -49t20.5 -72q0 -78 -55.5 -125.5t-160.5 -47.5z" />
    <glyph glyph-name="agrave" unicode="&#xe0;" horiz-adv-x="553" 
d="M131 741h168l56 -200h-121zM190 -13q-77 0 -120 56.5t-43 157.5q0 66 17 120t47 93t72 60.5t92 21.5q83 0 117 -57l4 43h137l-35 -329q-2 -23 6 -33t28 -10l-12 -110q-10 -4 -28 -6t-38 -2q-46 0 -68.5 20t-24.5 55l-1 1q-23 -38 -58.5 -59.5t-91.5 -21.5zM249 109
q33 0 55.5 21t33.5 54l12 119q-1 12 -5.5 24.5t-13 23t-22 17t-31.5 6.5q-50 0 -76 -45.5t-26 -115.5q0 -51 18.5 -77.5t54.5 -26.5z" />
    <glyph glyph-name="aacute" unicode="&#xe1;" horiz-adv-x="553" 
d="M318 741h171l-149 -200h-122zM190 -13q-77 0 -120 56.5t-43 157.5q0 66 17 120t47 93t72 60.5t92 21.5q83 0 117 -57l4 43h137l-35 -329q-2 -23 6 -33t28 -10l-12 -110q-10 -4 -28 -6t-38 -2q-46 0 -68.5 20t-24.5 55l-1 1q-23 -38 -58.5 -59.5t-91.5 -21.5zM249 109
q33 0 55.5 21t33.5 54l12 119q-1 12 -5.5 24.5t-13 23t-22 17t-31.5 6.5q-50 0 -76 -45.5t-26 -115.5q0 -51 18.5 -77.5t54.5 -26.5z" />
    <glyph glyph-name="acircumflex" unicode="&#xe2;" horiz-adv-x="553" 
d="M238 737h156l67 -194h-126l-30 96l-49 -96h-125zM190 -13q-77 0 -120 56.5t-43 157.5q0 66 17 120t47 93t72 60.5t92 21.5q83 0 117 -57l4 43h137l-35 -329q-2 -23 6 -33t28 -10l-12 -110q-10 -4 -28 -6t-38 -2q-46 0 -68.5 20t-24.5 55l-1 1q-23 -38 -58.5 -59.5
t-91.5 -21.5zM249 109q33 0 55.5 21t33.5 54l12 119q-1 12 -5.5 24.5t-13 23t-22 17t-31.5 6.5q-50 0 -76 -45.5t-26 -115.5q0 -51 18.5 -77.5t54.5 -26.5z" />
    <glyph glyph-name="atilde" unicode="&#xe3;" horiz-adv-x="553" 
d="M139 549q-5 8 -7 22t-2 28q0 48 29.5 78t77.5 30q21 0 38 -6.5t32 -14t27.5 -14t23.5 -6.5t19 6t8 19q0 5 -1 10.5t-4 8.5h88q5 -10 7 -23.5t2 -24.5q0 -49 -29.5 -79.5t-77.5 -30.5q-22 0 -40 6.5t-32 14.5t-25.5 14.5t-20.5 6.5q-28 0 -28 -26q0 -12 5 -19h-90z
M190 -13q-77 0 -120 56.5t-43 157.5q0 66 17 120t47 93t72 60.5t92 21.5q83 0 117 -57l4 43h137l-35 -329q-2 -23 6 -33t28 -10l-12 -110q-10 -4 -28 -6t-38 -2q-46 0 -68.5 20t-24.5 55l-1 1q-23 -38 -58.5 -59.5t-91.5 -21.5zM249 109q33 0 55.5 21t33.5 54l12 119
q-1 12 -5.5 24.5t-13 23t-22 17t-31.5 6.5q-50 0 -76 -45.5t-26 -115.5q0 -51 18.5 -77.5t54.5 -26.5z" />
    <glyph glyph-name="adieresis" unicode="&#xe4;" horiz-adv-x="553" 
d="M187 552q-38 0 -58 22.5t-20 55.5q0 38 25 66t70 28q38 0 57 -23.5t19 -55.5q0 -38 -24.5 -65.5t-68.5 -27.5zM408 552q-38 0 -58.5 22.5t-20.5 55.5q0 38 25 66t70 28q38 0 57.5 -23.5t19.5 -55.5q0 -38 -25 -65.5t-68 -27.5zM190 -13q-77 0 -120 56.5t-43 157.5
q0 66 17 120t47 93t72 60.5t92 21.5q83 0 117 -57l4 43h137l-35 -329q-2 -23 6 -33t28 -10l-12 -110q-10 -4 -28 -6t-38 -2q-46 0 -68.5 20t-24.5 55l-1 1q-23 -38 -58.5 -59.5t-91.5 -21.5zM249 109q33 0 55.5 21t33.5 54l12 119q-1 12 -5.5 24.5t-13 23t-22 17t-31.5 6.5
q-50 0 -76 -45.5t-26 -115.5q0 -51 18.5 -77.5t54.5 -26.5z" />
    <glyph glyph-name="aring" unicode="&#xe5;" horiz-adv-x="553" 
d="M297 520q-51 0 -80.5 31.5t-29.5 77.5q0 58 35.5 95.5t92.5 37.5q51 0 80 -31.5t29 -78.5q0 -28 -9 -52t-26 -42t-40 -28t-52 -10zM304 597q20 0 31.5 14t11.5 35q0 17 -10.5 28t-28.5 11q-20 0 -31.5 -14t-11.5 -35q0 -18 11 -28.5t28 -10.5zM190 -13q-77 0 -120 56.5
t-43 157.5q0 66 17 120t47 93t72 60.5t92 21.5q83 0 117 -57l4 43h137l-35 -329q-2 -23 6 -33t28 -10l-12 -110q-10 -4 -28 -6t-38 -2q-46 0 -68.5 20t-24.5 55l-1 1q-23 -38 -58.5 -59.5t-91.5 -21.5zM249 109q33 0 55.5 21t33.5 54l12 119q-1 12 -5.5 24.5t-13 23t-22 17
t-31.5 6.5q-50 0 -76 -45.5t-26 -115.5q0 -51 18.5 -77.5t54.5 -26.5z" />
    <glyph glyph-name="ae" unicode="&#xe6;" horiz-adv-x="754" 
d="M442 219v-4q0 -57 22 -83t64 -26q35 0 59 18.5t36 35.5l87 -70q-6 -10 -21.5 -27.5t-40.5 -34t-59.5 -29t-78.5 -12.5q-62 0 -106 22t-69 64q-36 -46 -79.5 -65.5t-102.5 -19.5q-73 0 -108.5 34t-35.5 88q0 68 48 108.5t154 40.5h91l5 56q7 68 -52 68q-30 0 -46.5 -15
t-16.5 -46q0 -15 4 -25h-130q-1 2 -3.5 11.5t-2.5 28.5q0 72 54.5 115.5t157.5 43.5q49 0 82.5 -14t54.5 -37q29 23 65 37t79 14q90 0 133 -52.5t43 -143.5q0 -27 -3 -46.5t-7 -34.5h-277zM534 381q-34 0 -54.5 -22t-29.5 -61h142q5 40 -10.5 61.5t-47.5 21.5zM204 98
q30 0 52.5 18.5t35.5 47.5l2 22h-75q-32 0 -46.5 -13.5t-14.5 -34.5q0 -18 11.5 -29t34.5 -11z" />
    <glyph glyph-name="ccedilla" unicode="&#xe7;" horiz-adv-x="479" 
d="M321 274q4 9 6.5 21.5t2.5 24.5q0 29 -15.5 41.5t-41.5 12.5q-48 0 -73.5 -46.5t-25.5 -120.5q0 -51 22.5 -74.5t61.5 -23.5q37 0 60.5 15.5t43.5 41.5l81 -76q-26 -37 -65.5 -63.5t-93.5 -35.5l-12 -27q29 -8 48 -26.5t19 -54.5q0 -51 -35.5 -77.5t-97.5 -26.5
q-35 0 -64.5 9t-44.5 26l51 63q9 -10 22.5 -16t29.5 -6q35 0 35 28q0 16 -17.5 24.5t-48.5 10.5l32 71q-84 10 -129.5 65t-45.5 149q0 68 18.5 122t52 92t80.5 58.5t103 20.5q85 0 133 -35.5t48 -107.5q0 -23 -4.5 -43.5t-11.5 -34.5z" />
    <glyph glyph-name="egrave" unicode="&#xe8;" horiz-adv-x="482" 
d="M219 541l-103 200h168l56 -200h-121zM259 106q36 0 63 14.5t48 41.5l78 -72q-38 -53 -95 -79t-128 -24q-95 2 -147.5 57.5t-52.5 160.5q0 66 20.5 119.5t56 91.5t83 59t102.5 21q86 0 129.5 -36.5t43.5 -99.5q0 -48 -21 -81.5t-58.5 -55t-90 -31.5t-115.5 -12
q12 -74 84 -74zM282 378q-38 0 -66 -29t-38 -83q68 2 106.5 18.5t38.5 54.5q0 39 -41 39z" />
    <glyph glyph-name="eacute" unicode="&#xe9;" horiz-adv-x="482" 
d="M325 541h-122l100 200h171zM460 360q0 -48 -21 -81.5t-58.5 -55t-90 -31.5t-115.5 -12q12 -74 84 -74q36 0 63 14.5t48 41.5l78 -72q-38 -53 -95 -79t-128 -24q-95 2 -147.5 57.5t-52.5 160.5q0 66 20.5 119.5t56 91.5t83 59t102.5 21q86 0 129.5 -36.5t43.5 -99.5z
M178 266q68 2 106.5 18.5t38.5 54.5q0 39 -41 39q-38 0 -66 -29t-38 -83z" />
    <glyph glyph-name="ecircumflex" unicode="&#xea;" horiz-adv-x="482" 
d="M241 543h-125l107 194h156l67 -194h-126l-30 96zM259 106q36 0 63 14.5t48 41.5l78 -72q-38 -53 -95 -79t-128 -24q-95 2 -147.5 57.5t-52.5 160.5q0 66 20.5 119.5t56 91.5t83 59t102.5 21q86 0 129.5 -36.5t43.5 -99.5q0 -48 -21 -81.5t-58.5 -55t-90 -31.5t-115.5 -12
q12 -74 84 -74zM282 378q-38 0 -66 -29t-38 -83q68 2 106.5 18.5t38.5 54.5q0 39 -41 39z" />
    <glyph glyph-name="edieresis" unicode="&#xeb;" horiz-adv-x="482" 
d="M172 552q-38 0 -58 22.5t-20 55.5q0 38 25 66t70 28q38 0 57 -23.5t19 -55.5q0 -38 -24.5 -65.5t-68.5 -27.5zM393 552q-38 0 -58.5 22.5t-20.5 55.5q0 38 25 66t70 28q38 0 57.5 -23.5t19.5 -55.5q0 -38 -25 -65.5t-68 -27.5zM460 360q0 -48 -21 -81.5t-58.5 -55
t-90 -31.5t-115.5 -12q12 -74 84 -74q36 0 63 14.5t48 41.5l78 -72q-38 -53 -95 -79t-128 -24q-95 2 -147.5 57.5t-52.5 160.5q0 66 20.5 119.5t56 91.5t83 59t102.5 21q86 0 129.5 -36.5t43.5 -99.5zM178 266q68 2 106.5 18.5t38.5 54.5q0 39 -41 39q-38 0 -66 -29t-38 -83
z" />
    <glyph glyph-name="igrave" unicode="&#xec;" horiz-adv-x="273" 
d="M-3 741h168l56 -200h-121zM158 -4q-70 0 -97.5 33.5t-19.5 102.5l36 350h148l-34 -316q-3 -31 4 -42t36 -11l-12 -110q-2 0 -19.5 -3.5t-41.5 -3.5z" />
    <glyph glyph-name="iacute" unicode="&#xed;" horiz-adv-x="273" 
d="M184 741h171l-149 -200h-122zM158 -4q-70 0 -97.5 33.5t-19.5 102.5l36 350h148l-34 -316q-3 -31 4 -42t36 -11l-12 -110q-2 0 -19.5 -3.5t-41.5 -3.5z" />
    <glyph glyph-name="icircumflex" unicode="&#xee;" horiz-adv-x="273" 
d="M104 737h156l67 -194h-126l-30 96l-49 -96h-125zM158 -4q-70 0 -97.5 33.5t-19.5 102.5l36 350h148l-34 -316q-3 -31 4 -42t36 -11l-12 -110q-2 0 -19.5 -3.5t-41.5 -3.5z" />
    <glyph glyph-name="idieresis" unicode="&#xef;" horiz-adv-x="273" 
d="M54 552q-38 0 -58 22.5t-20 55.5q0 38 25 66t70 28q38 0 57 -23.5t19 -55.5q0 -38 -24.5 -65.5t-68.5 -27.5zM275 552q-38 0 -58.5 22.5t-20.5 55.5q0 38 25 66t70 28q38 0 57.5 -23.5t19.5 -55.5q0 -38 -25 -65.5t-68 -27.5zM158 -4q-70 0 -97.5 33.5t-19.5 102.5
l36 350h148l-34 -316q-3 -31 4 -42t36 -11l-12 -110q-2 0 -19.5 -3.5t-41.5 -3.5z" />
    <glyph glyph-name="eth" unicode="&#xf0;" horiz-adv-x="538" 
d="M446 622q70 -87 70 -232q0 -94 -17.5 -169.5t-53 -127.5t-89 -80t-125.5 -28q-54 0 -92.5 16t-64 44t-37.5 66t-12 82q0 57 17 105t48 83.5t73 55t92 19.5q46 0 74.5 -13.5t47.5 -33.5q0 92 -51 143l-106 -62l-36 67l70 40q-49 18 -112 18l13 120q144 -1 232 -61l95 55
l36 -65zM247 109q28 0 48 15.5t34 41t22 58t11 67.5q-18 21 -39 31t-50 10q-48 0 -75 -37t-27 -97q0 -40 20 -64.5t56 -24.5z" />
    <glyph glyph-name="ntilde" unicode="&#xf1;" horiz-adv-x="558" 
d="M153 549q-5 8 -7 22t-2 28q0 48 29.5 78t77.5 30q21 0 38 -6.5t32 -14t27.5 -14t23.5 -6.5t19 6t8 19q0 5 -1 10.5t-4 8.5h88q5 -10 7 -23.5t2 -24.5q0 -49 -29.5 -79.5t-77.5 -30.5q-22 0 -40 6.5t-32 14.5t-25.5 14.5t-20.5 6.5q-28 0 -28 -26q0 -12 5 -19h-90zM443 -7
q-61 0 -87.5 30t-19.5 95l19 170q4 38 -12.5 57.5t-45.5 19.5q-31 0 -52 -22.5t-25 -60.5l-30 -282h-146l35 330q4 41 -34 41l11 110q11 4 29 6t39 2q45 0 66 -19.5t25 -47.5l1 -1q17 28 51 51.5t89 23.5q79 0 117.5 -50t28.5 -142l-15 -151q-6 -42 33 -42l-12 -110
q-9 -3 -27.5 -5.5t-37.5 -2.5z" />
    <glyph glyph-name="ograve" unicode="&#xf2;" horiz-adv-x="527" 
d="M131 741h168l56 -200h-121zM241 -13q-53 0 -93.5 16t-67.5 45.5t-40.5 70t-13.5 89.5q0 63 18 115.5t51.5 91t82.5 60t110 21.5q53 0 93 -16t67 -45t40.5 -69.5t13.5 -89.5q0 -62 -18 -115t-51.5 -91.5t-82 -60.5t-109.5 -22zM251 109q52 0 77 43.5t25 114.5
q0 51 -19.5 79t-57.5 28q-48 0 -74.5 -43.5t-26.5 -116.5q0 -50 18.5 -77.5t57.5 -27.5z" />
    <glyph glyph-name="oacute" unicode="&#xf3;" horiz-adv-x="527" 
d="M318 741h171l-149 -200h-122zM241 -13q-53 0 -93.5 16t-67.5 45.5t-40.5 70t-13.5 89.5q0 63 18 115.5t51.5 91t82.5 60t110 21.5q53 0 93 -16t67 -45t40.5 -69.5t13.5 -89.5q0 -62 -18 -115t-51.5 -91.5t-82 -60.5t-109.5 -22zM251 109q52 0 77 43.5t25 114.5
q0 51 -19.5 79t-57.5 28q-48 0 -74.5 -43.5t-26.5 -116.5q0 -50 18.5 -77.5t57.5 -27.5z" />
    <glyph glyph-name="ocircumflex" unicode="&#xf4;" horiz-adv-x="527" 
d="M238 737h156l67 -194h-126l-30 96l-49 -96h-125zM241 -13q-53 0 -93.5 16t-67.5 45.5t-40.5 70t-13.5 89.5q0 63 18 115.5t51.5 91t82.5 60t110 21.5q53 0 93 -16t67 -45t40.5 -69.5t13.5 -89.5q0 -62 -18 -115t-51.5 -91.5t-82 -60.5t-109.5 -22zM251 109q52 0 77 43.5
t25 114.5q0 51 -19.5 79t-57.5 28q-48 0 -74.5 -43.5t-26.5 -116.5q0 -50 18.5 -77.5t57.5 -27.5z" />
    <glyph glyph-name="otilde" unicode="&#xf5;" horiz-adv-x="527" 
d="M139 549q-5 8 -7 22t-2 28q0 48 29.5 78t77.5 30q21 0 38 -6.5t32 -14t27.5 -14t23.5 -6.5t19 6t8 19q0 5 -1 10.5t-4 8.5h88q5 -10 7 -23.5t2 -24.5q0 -49 -29.5 -79.5t-77.5 -30.5q-22 0 -40 6.5t-32 14.5t-25.5 14.5t-20.5 6.5q-28 0 -28 -26q0 -12 5 -19h-90z
M241 -13q-53 0 -93.5 16t-67.5 45.5t-40.5 70t-13.5 89.5q0 63 18 115.5t51.5 91t82.5 60t110 21.5q53 0 93 -16t67 -45t40.5 -69.5t13.5 -89.5q0 -62 -18 -115t-51.5 -91.5t-82 -60.5t-109.5 -22zM251 109q52 0 77 43.5t25 114.5q0 51 -19.5 79t-57.5 28q-48 0 -74.5 -43.5
t-26.5 -116.5q0 -50 18.5 -77.5t57.5 -27.5z" />
    <glyph glyph-name="odieresis" unicode="&#xf6;" horiz-adv-x="527" 
d="M187 552q-38 0 -58 22.5t-20 55.5q0 38 25 66t70 28q38 0 57 -23.5t19 -55.5q0 -38 -24.5 -65.5t-68.5 -27.5zM408 552q-38 0 -58.5 22.5t-20.5 55.5q0 38 25 66t70 28q38 0 57.5 -23.5t19.5 -55.5q0 -38 -25 -65.5t-68 -27.5zM241 -13q-53 0 -93.5 16t-67.5 45.5
t-40.5 70t-13.5 89.5q0 63 18 115.5t51.5 91t82.5 60t110 21.5q53 0 93 -16t67 -45t40.5 -69.5t13.5 -89.5q0 -62 -18 -115t-51.5 -91.5t-82 -60.5t-109.5 -22zM251 109q52 0 77 43.5t25 114.5q0 51 -19.5 79t-57.5 28q-48 0 -74.5 -43.5t-26.5 -116.5q0 -50 18.5 -77.5
t57.5 -27.5z" />
    <glyph glyph-name="divide" unicode="&#xf7;" horiz-adv-x="425" 
d="M226 359q-36 0 -59.5 25t-23.5 61q0 21 8.5 39.5t22.5 32.5t32.5 22t39.5 8q36 0 60.5 -25t24.5 -61q0 -21 -8.5 -39.5t-23 -32.5t-33.5 -22t-40 -8zM37 319h367l-10 -105h-367zM186 -25q-36 0 -59.5 25.5t-23.5 61.5q0 21 8.5 39.5t22.5 32.5t32.5 22t39.5 8
q37 0 60.5 -25t23.5 -61q0 -21 -8.5 -39.5t-22.5 -32.5t-33 -22.5t-40 -8.5z" />
    <glyph glyph-name="oslash" unicode="&#xf8;" horiz-adv-x="527" 
d="M453 429q49 -58 49 -153q0 -62 -18 -115t-51.5 -91.5t-82 -60.5t-109.5 -22t-107 22l-34 -44h-92l67 89q-49 58 -49 154q0 63 18 115.5t51.5 91t82.5 60t110 21.5q60 0 106 -22l33 43h92zM175 214q0 -8 0.5 -14.5t1.5 -12.5l135 178q-15 9 -36 9q-48 0 -74.5 -43.5
t-26.5 -116.5zM353 267q0 8 -0.5 15t-1.5 14l-136 -179q16 -8 36 -8q52 0 77 43.5t25 114.5z" />
    <glyph glyph-name="ugrave" unicode="&#xf9;" horiz-adv-x="546" 
d="M135 741h168l56 -200h-121zM179 -13q-75 0 -110.5 43.5t-26.5 130.5l34 321h146l-30 -285q-5 -44 9.5 -62t45.5 -18q38 0 57.5 27t23.5 62l28 276h147l-35 -330q-2 -21 5.5 -31.5t27.5 -10.5l-11 -110q-9 -3 -27 -5.5t-39 -2.5q-48 0 -70.5 20.5t-22.5 56.5v1
q-23 -40 -59 -61.5t-93 -21.5z" />
    <glyph glyph-name="uacute" unicode="&#xfa;" horiz-adv-x="546" 
d="M322 741h171l-149 -200h-122zM179 -13q-75 0 -110.5 43.5t-26.5 130.5l34 321h146l-30 -285q-5 -44 9.5 -62t45.5 -18q38 0 57.5 27t23.5 62l28 276h147l-35 -330q-2 -21 5.5 -31.5t27.5 -10.5l-11 -110q-9 -3 -27 -5.5t-39 -2.5q-48 0 -70.5 20.5t-22.5 56.5v1
q-23 -40 -59 -61.5t-93 -21.5z" />
    <glyph glyph-name="ucircumflex" unicode="&#xfb;" horiz-adv-x="546" 
d="M242 737h156l67 -194h-126l-30 96l-49 -96h-125zM179 -13q-75 0 -110.5 43.5t-26.5 130.5l34 321h146l-30 -285q-5 -44 9.5 -62t45.5 -18q38 0 57.5 27t23.5 62l28 276h147l-35 -330q-2 -21 5.5 -31.5t27.5 -10.5l-11 -110q-9 -3 -27 -5.5t-39 -2.5q-48 0 -70.5 20.5
t-22.5 56.5v1q-23 -40 -59 -61.5t-93 -21.5z" />
    <glyph glyph-name="udieresis" unicode="&#xfc;" horiz-adv-x="546" 
d="M191 552q-38 0 -58 22.5t-20 55.5q0 38 25 66t70 28q38 0 57 -23.5t19 -55.5q0 -38 -24.5 -65.5t-68.5 -27.5zM412 552q-38 0 -58.5 22.5t-20.5 55.5q0 38 25 66t70 28q38 0 57.5 -23.5t19.5 -55.5q0 -38 -25 -65.5t-68 -27.5zM179 -13q-75 0 -110.5 43.5t-26.5 130.5
l34 321h146l-30 -285q-5 -44 9.5 -62t45.5 -18q38 0 57.5 27t23.5 62l28 276h147l-35 -330q-2 -21 5.5 -31.5t27.5 -10.5l-11 -110q-9 -3 -27 -5.5t-39 -2.5q-48 0 -70.5 20.5t-22.5 56.5v1q-23 -40 -59 -61.5t-93 -21.5z" />
    <glyph glyph-name="yacute" unicode="&#xfd;" horiz-adv-x="528" 
d="M319 741h171l-149 -200h-122zM187 -247q-76 0 -127 27t-74 76l100 76q19 -34 44.5 -48t65.5 -14q59 0 84 32t31 86l7 74q-48 -68 -146 -68q-147 0 -129 174l33 314h145l-29 -278q-5 -42 9 -60.5t44 -18.5q27 0 51 22.5t30 68.5l28 266h147l-52 -489q-12 -110 -77 -175
t-185 -65z" />
    <glyph glyph-name="thorn" unicode="&#xfe;" horiz-adv-x="542" 
d="M104 726h145l-29 -290q23 29 55.5 44.5t78.5 15.5q75 0 118.5 -56t43.5 -158q0 -70 -18.5 -124.5t-50 -92.5t-73 -58t-88.5 -20q-42 0 -69 12t-40 30l-28 -258h-145zM267 109q48 0 74 41t26 117q0 54 -20 80.5t-53 26.5q-34 0 -57 -22t-33 -52l-14 -121q5 -30 23.5 -50
t53.5 -20z" />
    <glyph glyph-name="ydieresis" unicode="&#xff;" horiz-adv-x="528" 
d="M188 552q-38 0 -58 22.5t-20 55.5q0 38 25 66t70 28q38 0 57 -23.5t19 -55.5q0 -38 -24.5 -65.5t-68.5 -27.5zM409 552q-38 0 -58.5 22.5t-20.5 55.5q0 38 25 66t70 28q38 0 57.5 -23.5t19.5 -55.5q0 -38 -25 -65.5t-68 -27.5zM187 -247q-76 0 -127 27t-74 76l100 76
q19 -34 44.5 -48t65.5 -14q59 0 84 32t31 86l7 74q-48 -68 -146 -68q-147 0 -129 174l33 314h145l-29 -278q-5 -42 9 -60.5t44 -18.5q27 0 51 22.5t30 68.5l28 266h147l-52 -489q-12 -110 -77 -175t-185 -65z" />
    <glyph glyph-name="Amacron" unicode="&#x100;" horiz-adv-x="644" 
d="M533 765h-310l11 105h311zM434 163h-239l-69 -163h-153l323 700h150l175 -700h-153zM410 277l-55 262l-111 -262h166z" />
    <glyph glyph-name="amacron" unicode="&#x101;" horiz-adv-x="553" 
d="M165 693h293l-12 -109h-293zM190 -13q-77 0 -120 56.5t-43 157.5q0 66 17 120t47 93t72 60.5t92 21.5q83 0 117 -57l4 43h137l-35 -329q-2 -23 6 -33t28 -10l-12 -110q-10 -4 -28 -6t-38 -2q-46 0 -68.5 20t-24.5 55l-1 1q-23 -38 -58.5 -59.5t-91.5 -21.5zM249 109
q33 0 55.5 21t33.5 54l12 119q-1 12 -5.5 24.5t-13 23t-22 17t-31.5 6.5q-50 0 -76 -45.5t-26 -115.5q0 -51 18.5 -77.5t54.5 -26.5z" />
    <glyph glyph-name="Abreve" unicode="&#x102;" horiz-adv-x="644" 
d="M375 742q-41 0 -69 13.5t-44 35.5t-21.5 50.5t-2.5 59.5h107q-3 -26 6.5 -42t33.5 -16q26 0 38 16t15 42h106q-3 -31 -14.5 -59.5t-32 -50.5t-51 -35.5t-71.5 -13.5zM434 163h-239l-69 -163h-153l323 700h150l175 -700h-153zM410 277l-55 262l-111 -262h166z" />
    <glyph glyph-name="abreve" unicode="&#x103;" horiz-adv-x="553" 
d="M298 557q-46 0 -74.5 14.5t-43 37.5t-18 53t-0.5 61h107q-7 -60 40 -60q46 0 53 60h105q-3 -31 -13.5 -61t-30 -53t-50 -37.5t-75.5 -14.5zM190 -13q-77 0 -120 56.5t-43 157.5q0 66 17 120t47 93t72 60.5t92 21.5q83 0 117 -57l4 43h137l-35 -329q-2 -23 6 -33t28 -10
l-12 -110q-10 -4 -28 -6t-38 -2q-46 0 -68.5 20t-24.5 55l-1 1q-23 -38 -58.5 -59.5t-91.5 -21.5zM249 109q33 0 55.5 21t33.5 54l12 119q-1 12 -5.5 24.5t-13 23t-22 17t-31.5 6.5q-50 0 -76 -45.5t-26 -115.5q0 -51 18.5 -77.5t54.5 -26.5z" />
    <glyph glyph-name="Aogonek" unicode="&#x104;" horiz-adv-x="644" 
d="M550 -118q11 0 17 2.5t11 6.5l25 -68q-14 -13 -37.5 -19.5t-51.5 -6.5q-51 0 -77 23t-26 65q0 32 16.5 61.5t45.5 53.5h-5l-34 163h-239l-69 -163h-153l323 700h150l175 -700h-25q-35 -15 -54 -39.5t-19 -50.5q0 -15 8 -21.5t19 -6.5zM410 277l-55 262l-111 -262h166z
" />
    <glyph glyph-name="aogonek" unicode="&#x105;" horiz-adv-x="553" 
d="M478 153q-2 -23 6 -33t28 -10l-12 -110q-4 -2 -17 -4q-31 -16 -47.5 -39t-16.5 -47q0 -15 8 -21.5t19 -6.5t17 2.5t11 6.5l25 -68q-14 -13 -37.5 -19.5t-51.5 -6.5q-51 0 -77 23t-26 65q0 34 18.5 64.5t50.5 55.5q-33 17 -35 62l-1 1q-23 -38 -58.5 -59.5t-91.5 -21.5
q-77 0 -120 56.5t-43 157.5q0 66 17 120t47 93t72 60.5t92 21.5q83 0 117 -57l4 43h137zM350 303q-1 12 -5.5 24.5t-13 23t-22 17t-31.5 6.5q-50 0 -76 -45.5t-26 -115.5q0 -51 18.5 -77.5t54.5 -26.5q33 0 55.5 21t33.5 54z" />
    <glyph glyph-name="Cacute" unicode="&#x106;" horiz-adv-x="608" 
d="M411 902h178l-144 -161h-129zM315 -11q-128 0 -200 79t-72 226q0 94 23 171t67 131.5t107.5 84.5t143.5 30q47 0 87.5 -11.5t71 -34.5t48 -58.5t17.5 -83.5q0 -42 -15 -84h-138q5 13 7.5 27t2.5 26q0 44 -26.5 66t-72.5 22q-39 0 -70 -19t-52.5 -54t-33 -85t-11.5 -113
q0 -94 36.5 -143t102.5 -49q51 0 83.5 20t63.5 64l92 -71q-44 -69 -106 -105t-156 -36z" />
    <glyph glyph-name="cacute" unicode="&#x107;" horiz-adv-x="479" 
d="M309 741h171l-149 -200h-122zM235 -13q-100 0 -154.5 56.5t-54.5 159.5q0 68 18.5 122t52 92t80.5 58.5t103 20.5q85 0 133 -35.5t48 -107.5q0 -23 -4.5 -43.5t-11.5 -34.5l-124 -1q4 9 6.5 21.5t2.5 24.5q0 29 -15.5 41.5t-41.5 12.5q-48 0 -73.5 -46.5t-25.5 -120.5
q0 -51 22.5 -74.5t61.5 -23.5q37 0 60.5 15.5t43.5 41.5l81 -76q-31 -45 -83.5 -74t-124.5 -29z" />
    <glyph glyph-name="Ccircumflex" unicode="&#x108;" horiz-adv-x="608" 
d="M327 902h157l70 -161h-126l-33 71l-46 -71h-126zM315 -11q-128 0 -200 79t-72 226q0 94 23 171t67 131.5t107.5 84.5t143.5 30q47 0 87.5 -11.5t71 -34.5t48 -58.5t17.5 -83.5q0 -42 -15 -84h-138q5 13 7.5 27t2.5 26q0 44 -26.5 66t-72.5 22q-39 0 -70 -19t-52.5 -54
t-33 -85t-11.5 -113q0 -94 36.5 -143t102.5 -49q51 0 83.5 20t63.5 64l92 -71q-44 -69 -106 -105t-156 -36z" />
    <glyph glyph-name="ccircumflex" unicode="&#x109;" horiz-adv-x="479" 
d="M229 737h156l67 -194h-126l-30 96l-49 -96h-125zM235 -13q-100 0 -154.5 56.5t-54.5 159.5q0 68 18.5 122t52 92t80.5 58.5t103 20.5q85 0 133 -35.5t48 -107.5q0 -23 -4.5 -43.5t-11.5 -34.5l-124 -1q4 9 6.5 21.5t2.5 24.5q0 29 -15.5 41.5t-41.5 12.5
q-48 0 -73.5 -46.5t-25.5 -120.5q0 -51 22.5 -74.5t61.5 -23.5q37 0 60.5 15.5t43.5 41.5l81 -76q-31 -45 -83.5 -74t-124.5 -29z" />
    <glyph glyph-name="Cdotaccent" unicode="&#x10a;" horiz-adv-x="608" 
d="M391 739q-37 0 -58 23t-21 58q0 41 28 68t69 27q37 0 57.5 -24t20.5 -57q0 -40 -26 -67.5t-70 -27.5zM315 -11q-128 0 -200 79t-72 226q0 94 23 171t67 131.5t107.5 84.5t143.5 30q47 0 87.5 -11.5t71 -34.5t48 -58.5t17.5 -83.5q0 -42 -15 -84h-138q5 13 7.5 27t2.5 26
q0 44 -26.5 66t-72.5 22q-39 0 -70 -19t-52.5 -54t-33 -85t-11.5 -113q0 -94 36.5 -143t102.5 -49q51 0 83.5 20t63.5 64l92 -71q-44 -69 -106 -105t-156 -36z" />
    <glyph glyph-name="cdotaccent" unicode="&#x10b;" horiz-adv-x="479" 
d="M289 551q-40 0 -61 23.5t-21 58.5q0 39 26 68t73 29q39 0 59 -24.5t20 -57.5q0 -40 -25.5 -68.5t-70.5 -28.5zM235 -13q-100 0 -154.5 56.5t-54.5 159.5q0 68 18.5 122t52 92t80.5 58.5t103 20.5q85 0 133 -35.5t48 -107.5q0 -23 -4.5 -43.5t-11.5 -34.5l-124 -1
q4 9 6.5 21.5t2.5 24.5q0 29 -15.5 41.5t-41.5 12.5q-48 0 -73.5 -46.5t-25.5 -120.5q0 -51 22.5 -74.5t61.5 -23.5q37 0 60.5 15.5t43.5 41.5l81 -76q-31 -45 -83.5 -74t-124.5 -29z" />
    <glyph glyph-name="Ccaron" unicode="&#x10c;" horiz-adv-x="608" 
d="M244 902h126l31 -72l48 72h126l-104 -161h-158zM315 -11q-128 0 -200 79t-72 226q0 94 23 171t67 131.5t107.5 84.5t143.5 30q47 0 87.5 -11.5t71 -34.5t48 -58.5t17.5 -83.5q0 -42 -15 -84h-138q5 13 7.5 27t2.5 26q0 44 -26.5 66t-72.5 22q-39 0 -70 -19t-52.5 -54
t-33 -85t-11.5 -113q0 -94 36.5 -143t102.5 -49q51 0 83.5 20t63.5 64l92 -71q-44 -69 -106 -105t-156 -36z" />
    <glyph glyph-name="ccaron" unicode="&#x10d;" horiz-adv-x="479" 
d="M142 737h126l29 -96l49 96h126l-107 -194h-156zM235 -13q-100 0 -154.5 56.5t-54.5 159.5q0 68 18.5 122t52 92t80.5 58.5t103 20.5q85 0 133 -35.5t48 -107.5q0 -23 -4.5 -43.5t-11.5 -34.5l-124 -1q4 9 6.5 21.5t2.5 24.5q0 29 -15.5 41.5t-41.5 12.5
q-48 0 -73.5 -46.5t-25.5 -120.5q0 -51 22.5 -74.5t61.5 -23.5q37 0 60.5 15.5t43.5 41.5l81 -76q-31 -45 -83.5 -74t-124.5 -29z" />
    <glyph glyph-name="Dcaron" unicode="&#x10e;" horiz-adv-x="672" 
d="M232 902h126l31 -72l48 72h126l-104 -161h-158zM119 700h220q68 0 125.5 -16.5t99.5 -52.5t65.5 -93t23.5 -139q0 -110 -32 -186t-84.5 -123.5t-119 -68.5t-135.5 -21h-237zM280 121q100 0 159 66t59 197q0 92 -42.5 143.5t-139.5 51.5h-63l-48 -458h75z" />
    <glyph glyph-name="dcaron" unicode="&#x10f;" horiz-adv-x="612" 
d="M579 527q32 11 43 26t13 29q-29 2 -40.5 19.5t-11.5 40.5q0 35 23 59.5t61 24.5q32 0 51.5 -20.5t19.5 -56.5q0 -61 -37 -110t-103 -69zM191 -13q-77 0 -120.5 54t-43.5 162q0 71 17.5 125.5t48 92t72 56.5t89.5 19q43 0 70 -15t40 -35l28 269h147l-59 -562q-3 -23 5 -33
t28 -10l-11 -110q-22 -8 -67 -8t-68 20t-25 55v2q-22 -38 -58.5 -60t-92.5 -22zM251 109q32 0 54.5 21t33.5 54l13 119q-1 12 -6 24.5t-14 23t-22 17t-32 6.5q-26 0 -45.5 -12.5t-32 -35t-18.5 -53t-6 -65.5q0 -51 20 -75t55 -24z" />
    <glyph glyph-name="Dcroat" unicode="&#x110;" horiz-adv-x="685" 
d="M344 700q68 0 125.5 -16.5t99 -52.5t65 -93t23.5 -139q0 -110 -32 -186t-84 -123.5t-119 -68.5t-136 -21h-236l32 302h-68l11 105h68l31 293h220zM285 121q99 0 158.5 66t59.5 197q0 92 -42.5 143.5t-139.5 51.5h-63l-18 -172h100l-11 -105h-100l-19 -181h75z" />
    <glyph glyph-name="dcroat" unicode="&#x111;" horiz-adv-x="558" 
d="M480 153q-3 -23 5 -33t28 -10l-11 -110q-22 -8 -67 -8t-68 20t-25 55v2q-22 -38 -58.5 -60t-92.5 -22q-77 0 -120.5 54t-43.5 162q0 71 17.5 125.5t48 92t72 56.5t89.5 19q43 0 70 -15t40 -35l11 105h-82l11 105h83l7 70h146l-7 -70h86l-10 -105h-87zM352 303
q-1 12 -6 24.5t-14 23t-22 17t-32 6.5q-26 0 -45.5 -12.5t-32 -35t-18.5 -53t-6 -65.5q0 -51 20 -75t55 -24q32 0 54.5 21t33.5 54z" />
    <glyph glyph-name="Emacron" unicode="&#x112;" horiz-adv-x="551" 
d="M212 870h311l-12 -105h-310zM119 700h440l-13 -125h-293l-17 -159h253l-13 -125h-253l-18 -166h295l-13 -125h-442z" />
    <glyph glyph-name="emacron" unicode="&#x113;" horiz-adv-x="482" 
d="M431 584h-293l12 109h293zM259 106q36 0 63 14.5t48 41.5l78 -72q-38 -53 -95 -79t-128 -24q-95 2 -147.5 57.5t-52.5 160.5q0 66 20.5 119.5t56 91.5t83 59t102.5 21q86 0 129.5 -36.5t43.5 -99.5q0 -48 -21 -81.5t-58.5 -55t-90 -31.5t-115.5 -12q12 -74 84 -74z
M282 378q-38 0 -66 -29t-38 -83q68 2 106.5 18.5t38.5 54.5q0 39 -41 39z" />
    <glyph glyph-name="Ebreve" unicode="&#x114;" horiz-adv-x="551" 
d="M353 742q-41 0 -69 13.5t-44 35.5t-21.5 50.5t-2.5 59.5h107q-3 -26 6.5 -42t33.5 -16q26 0 38 16t15 42h106q-3 -31 -14.5 -59.5t-32 -50.5t-51 -35.5t-71.5 -13.5zM119 700h440l-13 -125h-293l-17 -159h253l-13 -125h-253l-18 -166h295l-13 -125h-442z" />
    <glyph glyph-name="ebreve" unicode="&#x115;" horiz-adv-x="482" 
d="M282 557q-46 0 -74.5 14.5t-43 37.5t-18 53t-0.5 61h107q-7 -60 40 -60q46 0 53 60h105q-3 -31 -13.5 -61t-30 -53t-50 -37.5t-75.5 -14.5zM259 106q36 0 63 14.5t48 41.5l78 -72q-38 -53 -95 -79t-128 -24q-95 2 -147.5 57.5t-52.5 160.5q0 66 20.5 119.5t56 91.5t83 59
t102.5 21q86 0 129.5 -36.5t43.5 -99.5q0 -48 -21 -81.5t-58.5 -55t-90 -31.5t-115.5 -12q12 -74 84 -74zM282 378q-38 0 -66 -29t-38 -83q68 2 106.5 18.5t38.5 54.5q0 39 -41 39z" />
    <glyph glyph-name="Edotaccent" unicode="&#x116;" horiz-adv-x="551" 
d="M353 739q-37 0 -58 23t-21 58q0 41 28 68t69 27q37 0 57.5 -24t20.5 -57q0 -40 -26 -67.5t-70 -27.5zM119 700h440l-13 -125h-293l-17 -159h253l-13 -125h-253l-18 -166h295l-13 -125h-442z" />
    <glyph glyph-name="edotaccent" unicode="&#x117;" horiz-adv-x="482" 
d="M283 551q-40 0 -61 23.5t-21 58.5q0 39 26 68t73 29q39 0 59 -24.5t20 -57.5q0 -40 -25.5 -68.5t-70.5 -28.5zM259 106q36 0 63 14.5t48 41.5l78 -72q-38 -53 -95 -79t-128 -24q-95 2 -147.5 57.5t-52.5 160.5q0 66 20.5 119.5t56 91.5t83 59t102.5 21q86 0 129.5 -36.5
t43.5 -99.5q0 -48 -21 -81.5t-58.5 -55t-90 -31.5t-115.5 -12q12 -74 84 -74zM282 378q-38 0 -66 -29t-38 -83q68 2 106.5 18.5t38.5 54.5q0 39 -41 39z" />
    <glyph glyph-name="Eogonek" unicode="&#x118;" horiz-adv-x="551" 
d="M253 575l-17 -159h253l-13 -125h-253l-18 -166h295l-13 -125q-35 -15 -54 -39.5t-19 -50.5q0 -15 8 -21.5t19 -6.5t17 2.5t11 6.5l25 -68q-14 -13 -37.5 -19.5t-51.5 -6.5q-51 0 -77 23t-26 65q0 32 16.5 61.5t45.5 53.5h-319l74 700h440l-13 -125h-293z" />
    <glyph glyph-name="eogonek" unicode="&#x119;" horiz-adv-x="482" 
d="M259 106q36 0 63 14.5t48 41.5l78 -72q-51 -69 -133 -93q-32 -15 -49.5 -38.5t-17.5 -48.5q0 -15 8 -21.5t19 -6.5t17 2.5t11 6.5l25 -68q-14 -13 -37.5 -19.5t-51.5 -6.5q-51 0 -77 23t-26 65q0 29 13.5 55.5t37.5 49.5q-78 12 -120 66.5t-42 148.5q0 66 20.5 119.5
t56 91.5t83 59t102.5 21q86 0 129.5 -36.5t43.5 -99.5q0 -48 -21 -81.5t-58.5 -55t-90 -31.5t-115.5 -12q12 -74 84 -74zM282 378q-38 0 -66 -29t-38 -83q68 2 106.5 18.5t38.5 54.5q0 39 -41 39z" />
    <glyph glyph-name="Ecaron" unicode="&#x11a;" horiz-adv-x="551" 
d="M206 902h126l31 -72l48 72h126l-104 -161h-158zM119 700h440l-13 -125h-293l-17 -159h253l-13 -125h-253l-18 -166h295l-13 -125h-442z" />
    <glyph glyph-name="ecaron" unicode="&#x11b;" horiz-adv-x="482" 
d="M203 543l-67 194h126l29 -96l49 96h126l-107 -194h-156zM460 360q0 -48 -21 -81.5t-58.5 -55t-90 -31.5t-115.5 -12q12 -74 84 -74q36 0 63 14.5t48 41.5l78 -72q-38 -53 -95 -79t-128 -24q-95 2 -147.5 57.5t-52.5 160.5q0 66 20.5 119.5t56 91.5t83 59t102.5 21
q86 0 129.5 -36.5t43.5 -99.5zM178 266q68 2 106.5 18.5t38.5 54.5q0 39 -41 39q-38 0 -66 -29t-38 -83z" />
    <glyph glyph-name="Gcircumflex" unicode="&#x11c;" horiz-adv-x="648" 
d="M325 902h157l70 -161h-126l-33 71l-46 -71h-126zM324 -11q-138 0 -210 78.5t-72 226.5q0 94 24.5 171t70.5 131.5t112 84.5t148 30q50 0 92 -12t72.5 -36t47.5 -58.5t17 -79.5q0 -21 -3 -37.5t-8 -33.5h-141q2 5 3.5 13.5t1.5 24.5q0 39 -25 63.5t-76 24.5
q-86 0 -133 -72t-47 -203q0 -94 36.5 -142t106.5 -48q48 0 78 10.5t46 23.5l10 94h-124l12 118h255l-29 -281q-13 -13 -36.5 -29t-57 -30t-76.5 -23t-95 -9z" />
    <glyph glyph-name="gcircumflex" unicode="&#x11d;" horiz-adv-x="538" 
d="M243 737h156l67 -194h-126l-30 96l-49 -96h-125zM203 -240q-69 0 -119 21t-83 74l95 83q19 -29 44 -45t68 -16q101 0 113 118l6 56q-20 -29 -51 -46.5t-86 -17.5q-77 0 -120 56.5t-43 158.5q0 68 16.5 122t46.5 92.5t71 59t90 20.5q81 0 125 -61l6 47h129l-52 -489
q-12 -112 -79.5 -172.5t-176.5 -60.5zM250 109q32 0 55 21t34 54l13 119q-1 12 -6 24.5t-14 23t-22 17t-32 6.5q-26 0 -45.5 -12.5t-32 -34t-18.5 -51t-6 -63.5q0 -51 19.5 -77.5t54.5 -26.5z" />
    <glyph glyph-name="Gbreve" unicode="&#x11e;" horiz-adv-x="648" 
d="M389 742q-41 0 -69 13.5t-44 35.5t-21.5 50.5t-2.5 59.5h107q-3 -26 6.5 -42t33.5 -16q26 0 38 16t15 42h106q-3 -31 -14.5 -59.5t-32 -50.5t-51 -35.5t-71.5 -13.5zM324 -11q-138 0 -210 78.5t-72 226.5q0 94 24.5 171t70.5 131.5t112 84.5t148 30q50 0 92 -12t72.5 -36
t47.5 -58.5t17 -79.5q0 -21 -3 -37.5t-8 -33.5h-141q2 5 3.5 13.5t1.5 24.5q0 39 -25 63.5t-76 24.5q-86 0 -133 -72t-47 -203q0 -94 36.5 -142t106.5 -48q48 0 78 10.5t46 23.5l10 94h-124l12 118h255l-29 -281q-13 -13 -36.5 -29t-57 -30t-76.5 -23t-95 -9z" />
    <glyph glyph-name="gbreve" unicode="&#x11f;" horiz-adv-x="538" 
d="M303 557q-46 0 -74.5 14.5t-43 37.5t-18 53t-0.5 61h107q-7 -60 40 -60q46 0 53 60h105q-3 -31 -13.5 -61t-30 -53t-50 -37.5t-75.5 -14.5zM203 -240q-69 0 -119 21t-83 74l95 83q19 -29 44 -45t68 -16q101 0 113 118l6 56q-20 -29 -51 -46.5t-86 -17.5q-77 0 -120 56.5
t-43 158.5q0 68 16.5 122t46.5 92.5t71 59t90 20.5q81 0 125 -61l6 47h129l-52 -489q-12 -112 -79.5 -172.5t-176.5 -60.5zM250 109q32 0 55 21t34 54l13 119q-1 12 -6 24.5t-14 23t-22 17t-32 6.5q-26 0 -45.5 -12.5t-32 -34t-18.5 -51t-6 -63.5q0 -51 19.5 -77.5
t54.5 -26.5z" />
    <glyph glyph-name="Gdotaccent" unicode="&#x120;" horiz-adv-x="648" 
d="M389 739q-37 0 -58 23t-21 58q0 41 28 68t69 27q37 0 57.5 -24t20.5 -57q0 -40 -26 -67.5t-70 -27.5zM324 -11q-138 0 -210 78.5t-72 226.5q0 94 24.5 171t70.5 131.5t112 84.5t148 30q50 0 92 -12t72.5 -36t47.5 -58.5t17 -79.5q0 -21 -3 -37.5t-8 -33.5h-141
q2 5 3.5 13.5t1.5 24.5q0 39 -25 63.5t-76 24.5q-86 0 -133 -72t-47 -203q0 -94 36.5 -142t106.5 -48q48 0 78 10.5t46 23.5l10 94h-124l12 118h255l-29 -281q-13 -13 -36.5 -29t-57 -30t-76.5 -23t-95 -9z" />
    <glyph glyph-name="gdotaccent" unicode="&#x121;" horiz-adv-x="538" 
d="M303 551q-40 0 -61 23.5t-21 58.5q0 39 26 68t73 29q39 0 59 -24.5t20 -57.5q0 -40 -25.5 -68.5t-70.5 -28.5zM203 -240q-69 0 -119 21t-83 74l95 83q19 -29 44 -45t68 -16q101 0 113 118l6 56q-20 -29 -51 -46.5t-86 -17.5q-77 0 -120 56.5t-43 158.5q0 68 16.5 122
t46.5 92.5t71 59t90 20.5q81 0 125 -61l6 47h129l-52 -489q-12 -112 -79.5 -172.5t-176.5 -60.5zM250 109q32 0 55 21t34 54l13 119q-1 12 -6 24.5t-14 23t-22 17t-32 6.5q-26 0 -45.5 -12.5t-32 -34t-18.5 -51t-6 -63.5q0 -51 19.5 -77.5t54.5 -26.5z" />
    <glyph glyph-name="uni0122" unicode="&#x122;" horiz-adv-x="648" 
d="M324 -11q-138 0 -210 78.5t-72 226.5q0 94 24.5 171t70.5 131.5t112 84.5t148 30q50 0 92 -12t72.5 -36t47.5 -58.5t17 -79.5q0 -21 -3 -37.5t-8 -33.5h-141q2 5 3.5 13.5t1.5 24.5q0 39 -25 63.5t-76 24.5q-86 0 -133 -72t-47 -203q0 -94 36.5 -142t106.5 -48
q48 0 78 10.5t46 23.5l10 94h-124l12 118h255l-29 -281q-13 -13 -36.5 -29t-57 -30t-76.5 -23t-95 -9zM239 -217q31 8 41.5 19.5t12.5 21.5q-52 13 -52 67q0 33 21.5 55t56.5 22q34 0 55.5 -21t21.5 -60q0 -54 -36.5 -98.5t-101.5 -62.5z" />
    <glyph glyph-name="uni0123" unicode="&#x123;" horiz-adv-x="538" 
d="M300 544q-34 0 -53 19t-19 54q0 26 10 52t27 49t40 40t50 25l26 -55q-24 -7 -39 -21.5t-17 -25.5q26 -2 40 -17.5t14 -41.5q0 -33 -22.5 -55.5t-56.5 -22.5zM203 -240q-69 0 -119 21t-83 74l95 83q19 -29 44 -45t68 -16q101 0 113 118l6 56q-20 -29 -51 -46.5t-86 -17.5
q-77 0 -120 56.5t-43 158.5q0 68 16.5 122t46.5 92.5t71 59t90 20.5q81 0 125 -61l6 47h129l-52 -489q-12 -112 -79.5 -172.5t-176.5 -60.5zM250 109q32 0 55 21t34 54l13 119q-1 12 -6 24.5t-14 23t-22 17t-32 6.5q-26 0 -45.5 -12.5t-32 -34t-18.5 -51t-6 -63.5
q0 -51 19.5 -77.5t54.5 -26.5z" />
    <glyph glyph-name="Hcircumflex" unicode="&#x124;" horiz-adv-x="659" 
d="M319 902h157l70 -161h-126l-33 71l-46 -71h-126zM116 700h147l-30 -278h231l30 278h147l-74 -700h-147l30 286h-231l-30 -286h-147z" />
    <glyph glyph-name="hcircumflex" unicode="&#x125;" horiz-adv-x="542" 
d="M115 902h157l70 -161h-126l-33 71l-46 -71h-126zM435 -4q-61 0 -91.5 30.5t-22.5 105.5l17 157q4 36 -11 56t-43 20q-20 0 -34.5 -7t-24 -18.5t-14.5 -25t-7 -26.5l-30 -288h-146l76 726h146l-29 -282q17 20 47 36t72 16q45 0 75 -15t47 -41t22.5 -61t1.5 -75l-15 -146
q-2 -25 5.5 -35t35.5 -10l-12 -110q-9 -3 -28 -5t-37 -2z" />
    <glyph glyph-name="Hbar" unicode="&#x126;" horiz-adv-x="726" 
d="M728 497h-74l-53 -497h-147l30 286h-231l-30 -286h-147l53 497h-75l10 95h75l11 108h147l-12 -108h231l12 108h147l-11 -108h74zM506 497h-231l-8 -75h231z" />
    <glyph glyph-name="hbar" unicode="&#x127;" horiz-adv-x="542" 
d="M471 158q-2 -25 5.5 -35t35.5 -10l-12 -110q-9 -3 -28 -5t-37 -2q-61 0 -91.5 30.5t-22.5 105.5l17 157q4 36 -11 56t-43 20q-20 0 -34.5 -7t-24 -18.5t-14.5 -25t-7 -26.5l-30 -288h-146l58 551h-58l11 105h58l7 70h146l-7 -70h111l-10 -105h-112l-11 -107q17 20 47 36
t72 16q45 0 75 -15t47 -41t22.5 -61t1.5 -75z" />
    <glyph glyph-name="Itilde" unicode="&#x128;" horiz-adv-x="287" 
d="M31 742q-4 8 -6.5 21.5t-2.5 27.5q0 48 30.5 78t78.5 30q22 0 40 -6t34 -13.5t29.5 -14t25.5 -6.5q26 0 26 25q0 10 -3 16h93q5 -9 6.5 -22t1.5 -24q0 -49 -28.5 -79.5t-78.5 -30.5q-25 0 -44.5 6.5t-35 14t-27.5 13.5t-23 6q-12 0 -19.5 -6.5t-7.5 -18.5q0 -9 4 -17h-93
zM119 700h147l-74 -700h-147z" />
    <glyph glyph-name="itilde" unicode="&#x129;" horiz-adv-x="273" 
d="M5 549q-5 8 -7 22t-2 28q0 48 29.5 78t77.5 30q21 0 38 -6.5t32 -14t27.5 -14t23.5 -6.5t19 6t8 19q0 5 -1 10.5t-4 8.5h88q5 -10 7 -23.5t2 -24.5q0 -49 -29.5 -79.5t-77.5 -30.5q-22 0 -40 6.5t-32 14.5t-25.5 14.5t-20.5 6.5q-28 0 -28 -26q0 -12 5 -19h-90zM158 -4
q-70 0 -97.5 33.5t-19.5 102.5l36 350h148l-34 -316q-3 -31 4 -42t36 -11l-12 -110q-2 0 -19.5 -3.5t-41.5 -3.5z" />
    <glyph glyph-name="Imacron" unicode="&#x12a;" horiz-adv-x="287" 
d="M55 870h311l-12 -105h-310zM119 700h147l-74 -700h-147z" />
    <glyph glyph-name="imacron" unicode="&#x12b;" horiz-adv-x="273" 
d="M32 693h293l-12 -109h-293zM158 -4q-70 0 -97.5 33.5t-19.5 102.5l36 350h148l-34 -316q-3 -31 4 -42t36 -11l-12 -110q-2 0 -19.5 -3.5t-41.5 -3.5z" />
    <glyph glyph-name="Ibreve" unicode="&#x12c;" horiz-adv-x="287" 
d="M197 742q-41 0 -69 13.5t-44 35.5t-21.5 50.5t-2.5 59.5h107q-3 -26 6.5 -42t33.5 -16q26 0 38 16t15 42h106q-3 -31 -14.5 -59.5t-32 -50.5t-51 -35.5t-71.5 -13.5zM119 700h147l-74 -700h-147z" />
    <glyph glyph-name="ibreve" unicode="&#x12d;" horiz-adv-x="273" 
d="M164 557q-46 0 -74.5 14.5t-43 37.5t-18 53t-0.5 61h107q-7 -60 40 -60q46 0 53 60h105q-3 -31 -13.5 -61t-30 -53t-50 -37.5t-75.5 -14.5zM158 -4q-70 0 -97.5 33.5t-19.5 102.5l36 350h148l-34 -316q-3 -31 4 -42t36 -11l-12 -110q-2 0 -19.5 -3.5t-41.5 -3.5z" />
    <glyph glyph-name="Iogonek" unicode="&#x12e;" horiz-adv-x="287" 
d="M146 -118q11 0 17 2.5t11 6.5l25 -68q-14 -13 -37.5 -19.5t-51.5 -6.5q-51 0 -77 23t-26 65q0 32 16.5 61.5t45.5 53.5h-24l74 700h147l-74 -700q-35 -15 -54 -39.5t-19 -50.5q0 -15 8 -21.5t19 -6.5z" />
    <glyph glyph-name="iogonek" unicode="&#x12f;" horiz-adv-x="273" 
d="M181 730q39 0 59 -24.5t20 -57.5q0 -40 -25.5 -68.5t-70.5 -28.5q-40 0 -61 23.5t-21 58.5q0 39 26 68t73 29zM219 3q-35 -15 -54 -39.5t-19 -50.5q0 -15 8 -21.5t19 -6.5t17 2.5t11 6.5l25 -68q-14 -13 -37.5 -19.5t-51.5 -6.5q-51 0 -77 23t-26 65q0 32 17 62t47 55
q-35 12 -48.5 43.5t-8.5 83.5l36 350h148l-34 -316q-3 -31 4 -42t36 -11z" />
    <glyph glyph-name="Idotaccent" unicode="&#x130;" horiz-adv-x="287" 
d="M197 739q-37 0 -58 23t-21 58q0 41 28 68t69 27q37 0 57.5 -24t20.5 -57q0 -40 -26 -67.5t-70 -27.5zM119 700h147l-74 -700h-147z" />
    <glyph glyph-name="dotlessi" unicode="&#x131;" horiz-adv-x="273" 
d="M158 -4q-70 0 -97.5 33.5t-19.5 102.5l36 350h148l-34 -316q-3 -31 4 -42t36 -11l-12 -110q-2 0 -19.5 -3.5t-41.5 -3.5z" />
    <glyph glyph-name="IJ" unicode="&#x132;" horiz-adv-x="762" 
d="M119 700h147l-74 -700h-147zM453 -6q-70 0 -116 23t-67 58l99 102q15 -21 34.5 -35t51.5 -14q39 0 63.5 25.5t31.5 84.5l48 462h147l-49 -465q-13 -125 -75 -183t-168 -58z" />
    <glyph glyph-name="ij" unicode="&#x133;" horiz-adv-x="530" 
d="M164 551q-40 0 -61 23.5t-21 58.5q0 39 26 68t73 29q39 0 59 -24.5t20 -57.5q0 -40 -25.5 -68.5t-70.5 -28.5zM438 551q-41 0 -62 23.5t-21 58.5q0 39 26.5 68t73.5 29q39 0 59 -24.5t20 -57.5q0 -40 -25.5 -68.5t-70.5 -28.5zM158 -4q-70 0 -97.5 33.5t-19.5 102.5
l36 350h148l-34 -316q-3 -31 4 -42t36 -11l-12 -110q-2 0 -19.5 -3.5t-41.5 -3.5zM232 -247q-26 0 -44 5t-29 11q-13 7 -21 16l54 107q4 -3 10 -5q5 -2 11.5 -3.5t15.5 -1.5q34 0 51.5 25t22.5 70l53 505h145l-53 -512q-5 -48 -20 -88t-41.5 -68.5t-65 -44.5t-89.5 -16z" />
    <glyph glyph-name="Jcircumflex" unicode="&#x134;" horiz-adv-x="474" 
d="M317 902h157l70 -161h-126l-33 71l-46 -71h-126zM166 -6q-70 0 -116 23t-67 58l99 102q15 -21 34.5 -35t51.5 -14q39 0 63.5 25.5t31.5 84.5l48 462h147l-49 -465q-13 -125 -75 -183t-168 -58z" />
    <glyph glyph-name="jcircumflex" unicode="&#x135;" horiz-adv-x="257" 
d="M105 737h156l67 -194h-126l-30 96l-49 -96h-125zM-41 -247q-26 0 -44 5t-29 11q-13 7 -21 16l54 107q4 -3 9 -5q6 -2 12.5 -3.5t15.5 -1.5q34 0 51.5 25t22.5 70l53 505h145l-53 -512q-5 -48 -20 -88t-41.5 -68.5t-65 -44.5t-89.5 -16z" />
    <glyph glyph-name="uni0136" unicode="&#x136;" horiz-adv-x="647" 
d="M444 335q29 -25 44.5 -61.5t29 -70.5t30.5 -58t49 -24h26l-13 -121q-11 -3 -30 -5t-39 -2q-51 0 -81.5 21.5t-49 53.5t-30.5 69.5t-27 69.5t-37.5 53.5t-62.5 21.5h-31l-30 -282h-147l74 700h147l-31 -290h30q39 0 76 15t67 49t52 89.5t31 136.5h145
q-14 -124 -62.5 -218.5t-129.5 -146.5zM306 -32q34 0 55.5 -21t21.5 -60q0 -54 -36.5 -98.5t-101.5 -62.5l-19 57q31 8 41.5 19.5t12.5 21.5q-52 13 -52 67q0 33 21.5 55t56.5 22z" />
    <glyph glyph-name="uni0137" unicode="&#x137;" horiz-adv-x="524" 
d="M370 243q24 -16 34.5 -38t18.5 -42.5t20 -35t39 -14.5h11l-12 -112q-9 -3 -26 -6.5t-34 -3.5q-41 0 -65 14.5t-37.5 36.5t-22 47.5t-19 47.5t-28 36.5t-50.5 14.5h-5l-20 -188h-146l76 726h146l-43 -416h21q59 0 94 45.5t45 126.5h136q-3 -30 -10.5 -62.5t-22.5 -64
t-39 -60.5t-61 -52zM255 -32q34 0 55.5 -21t21.5 -60q0 -54 -36.5 -98.5t-101.5 -62.5l-19 57q31 8 41.5 19.5t12.5 21.5q-52 13 -52 67q0 33 21.5 55t56.5 22z" />
    <glyph glyph-name="kgreenlandic" unicode="&#x138;" horiz-adv-x="526" 
d="M371 240q24 -16 34 -37.5t18.5 -41t20.5 -33t39 -13.5h11l-12 -114q-10 -3 -27 -6.5t-33 -3.5q-42 0 -65.5 14.5t-37.5 35.5t-22.5 46.5t-19 46.5t-28.5 35.5t-50 14.5h-6l-19 -184h-146l51 482h146l-19 -176h19q62 0 97 46t45 130h137q-4 -31 -11.5 -64.5t-22.5 -65
t-39 -60.5t-60 -52z" />
    <glyph glyph-name="Lacute" unicode="&#x139;" horiz-adv-x="520" 
d="M225 902h178l-144 -161h-129zM119 700h147l-60 -567h290l-13 -133h-438z" />
    <glyph glyph-name="lacute" unicode="&#x13a;" horiz-adv-x="271" 
d="M189 912h178l-144 -161h-129zM155 -4q-29 0 -52 6.5t-38 22.5t-21.5 41.5t-2.5 64.5l62 595h147l-59 -568q-3 -27 6 -35.5t35 -8.5l-12 -111q-11 -3 -29.5 -5t-35.5 -2z" />
    <glyph glyph-name="uni013B" unicode="&#x13b;" horiz-adv-x="520" 
d="M119 700h147l-60 -567h290l-13 -133h-438zM189 -217q31 8 41.5 19.5t12.5 21.5q-52 13 -52 67q0 33 21.5 55t56.5 22q34 0 55.5 -21t21.5 -60q0 -54 -36.5 -98.5t-101.5 -62.5z" />
    <glyph glyph-name="uni013C" unicode="&#x13c;" horiz-adv-x="271" 
d="M155 -4q-29 0 -52 6.5t-38 22.5t-21.5 41.5t-2.5 64.5l62 595h147l-59 -568q-3 -27 6 -35.5t35 -8.5l-12 -111q-11 -3 -29.5 -5t-35.5 -2zM34 -217q31 8 41.5 19.5t12.5 21.5q-52 13 -52 67q0 33 21.5 55t56.5 22q34 0 55.5 -21t21.5 -60q0 -54 -36.5 -98.5t-101.5 -62.5
z" />
    <glyph glyph-name="Lcaron" unicode="&#x13d;" horiz-adv-x="545" 
d="M374 509q32 11 43 26t13 29q-29 2 -40.5 19.5t-11.5 40.5q0 35 23 59t61 24q32 0 51.5 -20t19.5 -57q0 -60 -37 -109.5t-103 -68.5zM119 700h147l-60 -567h290l-13 -133h-438z" />
    <glyph glyph-name="lcaron" unicode="&#x13e;" horiz-adv-x="310" 
d="M155 -4q-29 0 -52 6.5t-38 22.5t-21.5 41.5t-2.5 64.5l62 595h147l-59 -568q-3 -27 6 -35.5t35 -8.5l-12 -111q-11 -3 -29.5 -5t-35.5 -2zM272 527q32 11 43.5 26t13.5 29q-27 6 -40 23.5t-13 42.5q0 34 22.5 56t57.5 22q34 0 54.5 -21t20.5 -60q0 -59 -37 -107t-103 -68
z" />
    <glyph glyph-name="Ldot" unicode="&#x13f;" horiz-adv-x="545" 
d="M119 700h147l-60 -567h290l-13 -133h-438zM419 325q-36 0 -58 21t-22 58q0 36 23.5 63t66.5 27q35 0 56.5 -22t21.5 -58q0 -37 -22 -63t-66 -26z" />
    <glyph glyph-name="ldot" unicode="&#x140;" horiz-adv-x="363" 
d="M155 -4q-29 0 -52 6.5t-38 22.5t-21.5 41.5t-2.5 64.5l62 595h147l-59 -568q-3 -27 6 -35.5t35 -8.5l-12 -111q-11 -3 -29.5 -5t-35.5 -2zM315 301q-36 0 -58 21t-22 58t23.5 64t66.5 27q35 0 57 -22t22 -58q0 -38 -22.5 -64t-66.5 -26z" />
    <glyph glyph-name="Lslash" unicode="&#x141;" horiz-adv-x="574" 
d="M534 133l-14 -133h-437l24 232l-59 -33l-44 97l117 64l36 340h147l-27 -254l87 48l47 -96l-148 -81l-19 -184h290z" />
    <glyph glyph-name="lslash" unicode="&#x142;" horiz-adv-x="372" 
d="M247 158q-3 -27 6 -35.5t35 -8.5l-12 -111q-11 -3 -29.5 -5t-35.5 -2q-29 0 -52 6.5t-38 22.5t-21.5 41.5t-2.5 64.5l14 134l-58 -32l-43 92l114 65l35 336h147l-26 -248l58 33l47 -93l-118 -66z" />
    <glyph glyph-name="Nacute" unicode="&#x143;" horiz-adv-x="671" 
d="M412 902h178l-144 -161h-129zM119 700h130l199 -416l14 -41l49 457h139l-75 -700h-130l-203 420l-10 32l-48 -452h-139z" />
    <glyph glyph-name="nacute" unicode="&#x144;" horiz-adv-x="558" 
d="M333 741h171l-149 -200h-122zM443 -7q-61 0 -87.5 30t-19.5 95l19 170q4 38 -12.5 57.5t-45.5 19.5q-31 0 -52 -22.5t-25 -60.5l-30 -282h-146l35 330q4 41 -34 41l11 110q11 4 29 6t39 2q45 0 66 -19.5t25 -47.5l1 -1q17 28 51 51.5t89 23.5q79 0 117.5 -50t28.5 -142
l-15 -151q-6 -42 33 -42l-12 -110q-9 -3 -27.5 -5.5t-37.5 -2.5z" />
    <glyph glyph-name="uni0145" unicode="&#x145;" horiz-adv-x="671" 
d="M119 700h130l199 -416l14 -41l49 457h139l-75 -700h-130l-203 420l-10 32l-48 -452h-139zM231 -217q31 8 41.5 19.5t12.5 21.5q-52 13 -52 67q0 33 21.5 55t56.5 22q34 0 55.5 -21t21.5 -60q0 -54 -36.5 -98.5t-101.5 -62.5z" />
    <glyph glyph-name="uni0146" unicode="&#x146;" horiz-adv-x="558" 
d="M443 -7q-61 0 -87.5 30t-19.5 95l19 170q4 38 -12.5 57.5t-45.5 19.5q-31 0 -52 -22.5t-25 -60.5l-30 -282h-146l35 330q4 41 -34 41l11 110q11 4 29 6t39 2q45 0 66 -19.5t25 -47.5l1 -1q17 28 51 51.5t89 23.5q79 0 117.5 -50t28.5 -142l-15 -151q-6 -42 33 -42
l-12 -110q-9 -3 -27.5 -5.5t-37.5 -2.5zM179 -217q31 8 41.5 19.5t12.5 21.5q-52 13 -52 67q0 33 21.5 55t56.5 22q34 0 55.5 -21t21.5 -60q0 -54 -36.5 -98.5t-101.5 -62.5z" />
    <glyph glyph-name="Ncaron" unicode="&#x147;" horiz-adv-x="671" 
d="M246 902h126l31 -72l48 72h126l-104 -161h-158zM119 700h130l199 -416l14 -41l49 457h139l-75 -700h-130l-203 420l-10 32l-48 -452h-139z" />
    <glyph glyph-name="ncaron" unicode="&#x148;" horiz-adv-x="558" 
d="M165 737h126l29 -96l49 96h126l-107 -194h-156zM443 -7q-61 0 -87.5 30t-19.5 95l19 170q4 38 -12.5 57.5t-45.5 19.5q-31 0 -52 -22.5t-25 -60.5l-30 -282h-146l35 330q4 41 -34 41l11 110q11 4 29 6t39 2q45 0 66 -19.5t25 -47.5l1 -1q17 28 51 51.5t89 23.5
q79 0 117.5 -50t28.5 -142l-15 -151q-6 -42 33 -42l-12 -110q-9 -3 -27.5 -5.5t-37.5 -2.5z" />
    <glyph glyph-name="napostrophe" unicode="&#x149;" horiz-adv-x="688" 
d="M18 556q16 7 29 14q11 8 20 16.5t9 18.5q-30 0 -49.5 20t-19.5 51q0 30 20.5 51t50.5 21t54.5 -20t24.5 -64q0 -46 -15.5 -77t-35 -49t-36.5 -25.5t-20 -8.5zM557 -7q-61 0 -87.5 30t-19.5 95l18 170q5 38 -11.5 57.5t-45.5 19.5q-31 0 -52 -22.5t-25 -60.5l-30 -282
h-146l35 330q4 41 -34 41l11 110q11 4 29 6t39 2q45 0 66 -19.5t25 -47.5l1 -1q16 28 50.5 51.5t89.5 23.5q79 0 117.5 -50t28.5 -142l-16 -151q-4 -42 34 -42l-12 -110q-9 -3 -27.5 -5.5t-37.5 -2.5z" />
    <glyph glyph-name="Eng" unicode="&#x14a;" horiz-adv-x="671" 
d="M575 1l1 -1l-2 -12q-11 -110 -67 -168t-170 -58q-43 0 -79 13t-55 41l97 113q19 -25 55 -25q29 0 48.5 19.5t24.5 67.5l4 36l-190 393l-10 32l-48 -452h-139l74 700h130l199 -416l14 -41l49 457h139z" />
    <glyph glyph-name="eng" unicode="&#x14b;" horiz-adv-x="545" 
d="M359 496q78 0 116 -48t27 -144l-32 -304h1l-2 -12q-11 -109 -67 -166.5t-163 -57.5q-45 0 -83 11.5t-58 36.5l96 114q9 -11 22.5 -18t30.5 -7q35 0 53 21t23 69l1 9l31 288q4 40 -12.5 58.5t-45.5 18.5q-31 0 -52 -22t-25 -60l-30 -283h-146l35 330q4 41 -34 41l11 110
q11 4 29 6t39 2q45 0 65.5 -19.5t25.5 -49.5l1 -1q17 31 51.5 54t91.5 23z" />
    <glyph glyph-name="Omacron" unicode="&#x14c;" horiz-adv-x="694" 
d="M258 870h311l-12 -105h-310zM322 -11q-59 0 -110 18t-89 55.5t-59.5 95.5t-21.5 138q0 105 28 182.5t76.5 129.5t112.5 77.5t136 25.5q59 0 110 -18t89 -56t59.5 -96.5t21.5 -138.5q0 -105 -28 -182.5t-76.5 -129t-112.5 -76.5t-136 -25zM338 119q38 0 70.5 15t57 47.5
t39 84.5t16.5 126q2 53 -9 89t-30.5 58t-46 32t-55.5 10q-37 0 -69.5 -15t-57.5 -47.5t-40 -84t-17 -125.5q-1 -52 9.5 -88.5t30 -59t46 -32.5t56.5 -10z" />
    <glyph glyph-name="omacron" unicode="&#x14d;" horiz-adv-x="527" 
d="M165 693h293l-12 -109h-293zM241 -13q-53 0 -93.5 16t-67.5 45.5t-40.5 70t-13.5 89.5q0 63 18 115.5t51.5 91t82.5 60t110 21.5q53 0 93 -16t67 -45t40.5 -69.5t13.5 -89.5q0 -62 -18 -115t-51.5 -91.5t-82 -60.5t-109.5 -22zM251 109q52 0 77 43.5t25 114.5
q0 51 -19.5 79t-57.5 28q-48 0 -74.5 -43.5t-26.5 -116.5q0 -50 18.5 -77.5t57.5 -27.5z" />
    <glyph glyph-name="Obreve" unicode="&#x14e;" horiz-adv-x="694" 
d="M399 742q-41 0 -69 13.5t-44 35.5t-21.5 50.5t-2.5 59.5h107q-3 -26 6.5 -42t33.5 -16q26 0 38 16t15 42h106q-3 -31 -14.5 -59.5t-32 -50.5t-51 -35.5t-71.5 -13.5zM322 -11q-59 0 -110 18t-89 55.5t-59.5 95.5t-21.5 138q0 105 28 182.5t76.5 129.5t112.5 77.5
t136 25.5q59 0 110 -18t89 -56t59.5 -96.5t21.5 -138.5q0 -105 -28 -182.5t-76.5 -129t-112.5 -76.5t-136 -25zM338 119q38 0 70.5 15t57 47.5t39 84.5t16.5 126q2 53 -9 89t-30.5 58t-46 32t-55.5 10q-37 0 -69.5 -15t-57.5 -47.5t-40 -84t-17 -125.5q-1 -52 9.5 -88.5
t30 -59t46 -32.5t56.5 -10z" />
    <glyph glyph-name="obreve" unicode="&#x14f;" horiz-adv-x="527" 
d="M297 557q-46 0 -74.5 14.5t-43 37.5t-18 53t-0.5 61h107q-7 -60 40 -60q46 0 53 60h105q-3 -31 -13.5 -61t-30 -53t-50 -37.5t-75.5 -14.5zM241 -13q-53 0 -93.5 16t-67.5 45.5t-40.5 70t-13.5 89.5q0 63 18 115.5t51.5 91t82.5 60t110 21.5q53 0 93 -16t67 -45
t40.5 -69.5t13.5 -89.5q0 -62 -18 -115t-51.5 -91.5t-82 -60.5t-109.5 -22zM251 109q52 0 77 43.5t25 114.5q0 51 -19.5 79t-57.5 28q-48 0 -74.5 -43.5t-26.5 -116.5q0 -50 18.5 -77.5t57.5 -27.5z" />
    <glyph glyph-name="Ohungarumlaut" unicode="&#x150;" horiz-adv-x="694" 
d="M309 902h161l-133 -161h-111zM519 902h162l-134 -161h-111zM322 -11q-59 0 -110 18t-89 55.5t-59.5 95.5t-21.5 138q0 105 28 182.5t76.5 129.5t112.5 77.5t136 25.5q59 0 110 -18t89 -56t59.5 -96.5t21.5 -138.5q0 -105 -28 -182.5t-76.5 -129t-112.5 -76.5t-136 -25z
M338 119q38 0 70.5 15t57 47.5t39 84.5t16.5 126q2 53 -9 89t-30.5 58t-46 32t-55.5 10q-37 0 -69.5 -15t-57.5 -47.5t-40 -84t-17 -125.5q-1 -52 9.5 -88.5t30 -59t46 -32.5t56.5 -10z" />
    <glyph glyph-name="ohungarumlaut" unicode="&#x151;" horiz-adv-x="527" 
d="M201 741h160l-132 -200h-110zM412 741h158l-131 -200h-110zM241 -13q-53 0 -93.5 16t-67.5 45.5t-40.5 70t-13.5 89.5q0 63 18 115.5t51.5 91t82.5 60t110 21.5q53 0 93 -16t67 -45t40.5 -69.5t13.5 -89.5q0 -62 -18 -115t-51.5 -91.5t-82 -60.5t-109.5 -22zM251 109
q52 0 77 43.5t25 114.5q0 51 -19.5 79t-57.5 28q-48 0 -74.5 -43.5t-26.5 -116.5q0 -50 18.5 -77.5t57.5 -27.5z" />
    <glyph glyph-name="OE" unicode="&#x152;" horiz-adv-x="973" 
d="M310 -6q-57 0 -106 19.5t-85 58.5t-56.5 96t-20.5 132q0 97 27 172.5t73 127.5t107.5 79t131.5 27q53 0 95 -16t69 -54l7 64h430l-14 -126h-283l-16 -159h240l-12 -123h-241l-17 -166h283l-14 -126h-430l7 64q-69 -70 -175 -70zM337 120q74 0 122.5 66t52.5 205
q2 99 -36.5 144t-100.5 45q-38 0 -70.5 -16.5t-56.5 -50.5t-38 -87t-14 -127q0 -92 40.5 -135.5t100.5 -43.5z" />
    <glyph glyph-name="oe" unicode="&#x153;" horiz-adv-x="789" 
d="M208 -13q-97 0 -151 59t-54 166q0 63 17 115.5t49.5 90t79 58t105.5 20.5q53 0 93.5 -20.5t63.5 -62.5q33 48 76.5 65t89.5 17q95 0 140.5 -52.5t45.5 -138.5q0 -21 -2 -44t-7 -44h-279q-1 -4 -1 -7q1 -103 89 -103q35 0 58 15.5t43 41.5l83 -73q-29 -48 -80 -75.5
t-121 -27.5q-116 0 -167 71q-31 -35 -72.5 -53t-98.5 -18zM625 296q5 43 -11.5 63.5t-47.5 20.5t-53 -20t-31 -64h143zM231 109q46 0 72 41t26 116q0 52 -19.5 80t-55.5 28q-48 0 -75 -42t-27 -117q0 -106 79 -106z" />
    <glyph glyph-name="Racute" unicode="&#x154;" horiz-adv-x="641" 
d="M387 902h178l-144 -161h-129zM518 -7q-47 0 -75.5 19.5t-45.5 49t-27.5 63.5t-23 63.5t-30.5 49t-50 19.5h-47l-27 -257h-147l74 700h243q240 0 240 -200q0 -74 -41 -128.5t-112 -74.5q22 -11 33 -40t22 -59t28 -53.5t50 -23.5h25l-13 -121q-11 -3 -32 -5t-44 -2z
M309 369q69 0 107.5 29.5t38.5 87.5q0 45 -28.5 70.5t-83.5 25.5h-90l-22 -213h78z" />
    <glyph glyph-name="racute" unicode="&#x155;" horiz-adv-x="386" 
d="M263 741h171l-149 -200h-122zM79 330q4 41 -34 41l11 110q11 4 28.5 6t37.5 2q50 0 72 -22t20 -50v-3q18 37 52.5 58.5t82.5 21.5q20 0 39 -5t28 -13l-64 -134q-10 6 -21 9t-27 3q-35 0 -58.5 -25t-28.5 -71l-27 -258h-146z" />
    <glyph glyph-name="uni0156" unicode="&#x156;" horiz-adv-x="641" 
d="M518 -7q-47 0 -75.5 19.5t-45.5 49t-27.5 63.5t-23 63.5t-30.5 49t-50 19.5h-47l-27 -257h-147l74 700h243q240 0 240 -200q0 -74 -41 -128.5t-112 -74.5q22 -11 33 -40t22 -59t28 -53.5t50 -23.5h25l-13 -121q-11 -3 -32 -5t-44 -2zM309 369q69 0 107.5 29.5t38.5 87.5
q0 45 -28.5 70.5t-83.5 25.5h-90l-22 -213h78zM223 -217q31 8 41.5 19.5t12.5 21.5q-52 13 -52 67q0 33 21.5 55t56.5 22q34 0 55.5 -21t21.5 -60q0 -54 -36.5 -98.5t-101.5 -62.5z" />
    <glyph glyph-name="uni0157" unicode="&#x157;" horiz-adv-x="386" 
d="M79 330q4 41 -34 41l11 110q11 4 28.5 6t37.5 2q50 0 72 -22t20 -50v-3q18 37 52.5 58.5t82.5 21.5q20 0 39 -5t28 -13l-64 -134q-10 6 -21 9t-27 3q-35 0 -58.5 -25t-28.5 -71l-27 -258h-146zM39 -217q31 8 41.5 19.5t12.5 21.5q-52 13 -52 67q0 33 21.5 55t56.5 22
q34 0 55.5 -21t21.5 -60q0 -54 -36.5 -98.5t-101.5 -62.5z" />
    <glyph glyph-name="Rcaron" unicode="&#x158;" horiz-adv-x="641" 
d="M220 902h126l31 -72l48 72h126l-104 -161h-158zM518 -7q-47 0 -75.5 19.5t-45.5 49t-27.5 63.5t-23 63.5t-30.5 49t-50 19.5h-47l-27 -257h-147l74 700h243q240 0 240 -200q0 -74 -41 -128.5t-112 -74.5q22 -11 33 -40t22 -59t28 -53.5t50 -23.5h25l-13 -121
q-11 -3 -32 -5t-44 -2zM309 369q69 0 107.5 29.5t38.5 87.5q0 45 -28.5 70.5t-83.5 25.5h-90l-22 -213h78z" />
    <glyph glyph-name="rcaron" unicode="&#x159;" horiz-adv-x="386" 
d="M96 737h126l29 -96l49 96h126l-107 -194h-156zM79 330q4 41 -34 41l11 110q11 4 28.5 6t37.5 2q50 0 72 -22t20 -50v-3q18 37 52.5 58.5t82.5 21.5q20 0 39 -5t28 -13l-64 -134q-10 6 -21 9t-27 3q-35 0 -58.5 -25t-28.5 -71l-27 -258h-146z" />
    <glyph glyph-name="Sacute" unicode="&#x15a;" horiz-adv-x="590" 
d="M361 902h178l-144 -161h-129zM274 -11q-91 0 -161 27.5t-108 85.5l102 98q34 -45 77.5 -65.5t106.5 -20.5q56 0 86.5 20t30.5 62q0 20 -7 34t-24 25t-45 20t-69 19q-39 9 -74.5 23t-62.5 36.5t-43.5 56t-16.5 80.5q0 102 71 161.5t202 59.5q46 0 88.5 -8.5t74.5 -28.5
t51.5 -52.5t19.5 -79.5q0 -26 -3.5 -39t-7.5 -24l-132 1q3 8 4.5 15t1.5 18q0 39 -30 56t-77 17q-115 0 -115 -81q0 -21 8.5 -34.5t26.5 -23t45.5 -17.5t64.5 -17q41 -10 77 -25.5t63 -39t42.5 -58t15.5 -82.5q0 -106 -74.5 -162.5t-208.5 -56.5z" />
    <glyph glyph-name="sacute" unicode="&#x15b;" horiz-adv-x="481" 
d="M294 741h171l-149 -200h-122zM211 -13q-26 0 -54.5 3.5t-56.5 12t-54 23.5t-48 39l82 99q34 -38 72 -51t83 -13q65 0 65 34q0 17 -21 26t-74 21q-30 7 -58 18t-50.5 28.5t-36 43t-13.5 61.5q0 76 57 120t166 44q86 0 135.5 -33.5t49.5 -96.5q0 -17 -5 -33.5t-10 -26.5
h-132q3 6 5.5 14.5t2.5 19.5q0 26 -17 35.5t-43 9.5q-35 0 -51 -12t-16 -32q0 -26 26 -36t83 -23q26 -6 51.5 -14.5t46 -23.5t33.5 -38t13 -57q0 -83 -62 -122.5t-169 -39.5z" />
    <glyph glyph-name="Scircumflex" unicode="&#x15c;" horiz-adv-x="590" 
d="M277 902h157l70 -161h-126l-33 71l-46 -71h-126zM274 -11q-91 0 -161 27.5t-108 85.5l102 98q34 -45 77.5 -65.5t106.5 -20.5q56 0 86.5 20t30.5 62q0 20 -7 34t-24 25t-45 20t-69 19q-39 9 -74.5 23t-62.5 36.5t-43.5 56t-16.5 80.5q0 102 71 161.5t202 59.5
q46 0 88.5 -8.5t74.5 -28.5t51.5 -52.5t19.5 -79.5q0 -26 -3.5 -39t-7.5 -24l-132 1q3 8 4.5 15t1.5 18q0 39 -30 56t-77 17q-115 0 -115 -81q0 -21 8.5 -34.5t26.5 -23t45.5 -17.5t64.5 -17q41 -10 77 -25.5t63 -39t42.5 -58t15.5 -82.5q0 -106 -74.5 -162.5t-208.5 -56.5z
" />
    <glyph glyph-name="scircumflex" unicode="&#x15d;" horiz-adv-x="481" 
d="M214 737h156l67 -194h-126l-30 96l-49 -96h-125zM211 -13q-26 0 -54.5 3.5t-56.5 12t-54 23.5t-48 39l82 99q34 -38 72 -51t83 -13q65 0 65 34q0 17 -21 26t-74 21q-30 7 -58 18t-50.5 28.5t-36 43t-13.5 61.5q0 76 57 120t166 44q86 0 135.5 -33.5t49.5 -96.5
q0 -17 -5 -33.5t-10 -26.5h-132q3 6 5.5 14.5t2.5 19.5q0 26 -17 35.5t-43 9.5q-35 0 -51 -12t-16 -32q0 -26 26 -36t83 -23q26 -6 51.5 -14.5t46 -23.5t33.5 -38t13 -57q0 -83 -62 -122.5t-169 -39.5z" />
    <glyph glyph-name="Scedilla" unicode="&#x15e;" horiz-adv-x="590" 
d="M430 480q3 8 4.5 15t1.5 18q0 39 -30 56t-77 17q-115 0 -115 -81q0 -21 8.5 -34.5t26.5 -23t45.5 -17.5t64.5 -17q41 -10 77 -25.5t63 -39t42.5 -58t15.5 -82.5q0 -97 -62 -152t-175 -65l-12 -27q29 -8 48 -26.5t19 -54.5q0 -51 -35.5 -77.5t-97.5 -26.5q-35 0 -64.5 9
t-44.5 26l51 63q9 -10 22.5 -16t29.5 -6q35 0 35 28q0 16 -17.5 24.5t-48.5 10.5l32 72q-78 5 -137.5 32.5t-94.5 79.5l102 98q34 -45 77.5 -65.5t106.5 -20.5q56 0 86.5 20t30.5 62q0 20 -7 34t-24 25t-45 20t-69 19q-39 9 -74.5 23t-62.5 36.5t-43.5 56t-16.5 80.5
q0 102 71 161.5t202 59.5q46 0 88.5 -8.5t74.5 -28.5t51.5 -52.5t19.5 -79.5q0 -26 -3.5 -39t-7.5 -24z" />
    <glyph glyph-name="scedilla" unicode="&#x15f;" horiz-adv-x="481" 
d="M298 282q26 -6 51.5 -14.5t46 -23.5t33.5 -38t13 -57q0 -73 -48.5 -112.5t-133.5 -47.5l-11 -25q29 -8 48 -26.5t19 -54.5q0 -51 -35.5 -77.5t-97.5 -26.5q-35 0 -64.5 9t-44.5 26l51 63q9 -10 22.5 -16t29.5 -6q35 0 35 28q0 16 -17.5 24.5t-48.5 10.5l31 70
q-47 4 -94.5 20.5t-84.5 56.5l82 99q34 -38 72 -51t83 -13q65 0 65 34q0 17 -21 26t-74 21q-30 7 -58 18t-50.5 28.5t-36 43t-13.5 61.5q0 76 57 120t166 44q86 0 135.5 -33.5t49.5 -96.5q0 -17 -5 -33.5t-10 -26.5h-132q3 6 5.5 14.5t2.5 19.5q0 26 -17 35.5t-43 9.5
q-35 0 -51 -12t-16 -32q0 -26 26 -36t83 -23z" />
    <glyph glyph-name="Scaron" unicode="&#x160;" horiz-adv-x="590" 
d="M194 902h126l31 -72l48 72h126l-104 -161h-158zM274 -11q-91 0 -161 27.5t-108 85.5l102 98q34 -45 77.5 -65.5t106.5 -20.5q56 0 86.5 20t30.5 62q0 20 -7 34t-24 25t-45 20t-69 19q-39 9 -74.5 23t-62.5 36.5t-43.5 56t-16.5 80.5q0 102 71 161.5t202 59.5
q46 0 88.5 -8.5t74.5 -28.5t51.5 -52.5t19.5 -79.5q0 -26 -3.5 -39t-7.5 -24l-132 1q3 8 4.5 15t1.5 18q0 39 -30 56t-77 17q-115 0 -115 -81q0 -21 8.5 -34.5t26.5 -23t45.5 -17.5t64.5 -17q41 -10 77 -25.5t63 -39t42.5 -58t15.5 -82.5q0 -106 -74.5 -162.5t-208.5 -56.5z
" />
    <glyph glyph-name="scaron" unicode="&#x161;" horiz-adv-x="481" 
d="M127 737h126l29 -96l49 96h126l-107 -194h-156zM211 -13q-26 0 -54.5 3.5t-56.5 12t-54 23.5t-48 39l82 99q34 -38 72 -51t83 -13q65 0 65 34q0 17 -21 26t-74 21q-30 7 -58 18t-50.5 28.5t-36 43t-13.5 61.5q0 76 57 120t166 44q86 0 135.5 -33.5t49.5 -96.5
q0 -17 -5 -33.5t-10 -26.5h-132q3 6 5.5 14.5t2.5 19.5q0 26 -17 35.5t-43 9.5q-35 0 -51 -12t-16 -32q0 -26 26 -36t83 -23q26 -6 51.5 -14.5t46 -23.5t33.5 -38t13 -57q0 -83 -62 -122.5t-169 -39.5z" />
    <glyph glyph-name="uni0162" unicode="&#x162;" horiz-adv-x="558" 
d="M597 700l-15 -133h-191l-59 -567h-28l-16 -36q29 -8 48 -26.5t19 -54.5q0 -51 -35.5 -77.5t-97.5 -26.5q-35 0 -64.5 9t-44.5 26l51 63q9 -10 22.5 -16t29.5 -6q35 0 35 28q0 16 -17.5 24.5t-48.5 10.5l37 82h-37l59 567h-198l15 133h536z" />
    <glyph glyph-name="uni0163" unicode="&#x163;" horiz-adv-x="420" 
d="M235 204q-4 -36 11.5 -57.5t50.5 -21.5q17 0 31 6t25 15l47 -108q-23 -17 -55.5 -29t-69.5 -14l-13 -31q29 -8 48 -26.5t19 -54.5q0 -51 -35.5 -77.5t-97.5 -26.5q-35 0 -64.5 9t-44.5 26l51 63q9 -10 22.5 -16t29.5 -6q35 0 35 28q0 16 -17.5 24.5t-48.5 10.5l37 82
q-65 15 -91 63t-18 126l18 176h-79l12 117h84l13 141h143l-14 -141h153l-12 -117h-154z" />
    <glyph glyph-name="Tcaron" unicode="&#x164;" horiz-adv-x="558" 
d="M189 902h126l31 -72l48 72h126l-104 -161h-158zM244 567h-198l15 133h536l-15 -133h-191l-59 -567h-147z" />
    <glyph glyph-name="tcaron" unicode="&#x165;" horiz-adv-x="420" 
d="M322 562q32 11 43 26t13 29q-26 6 -39.5 23.5t-13.5 42.5q0 34 22.5 56t58.5 22q33 0 53.5 -21t20.5 -60q0 -59 -36.5 -107t-102.5 -68zM257 -6q-98 0 -139 50.5t-31 144.5l18 176h-79l12 117h84l13 141h143l-14 -141h153l-12 -117h-154l-16 -161q-4 -36 11.5 -57.5
t50.5 -21.5q17 0 31 6t25 15l47 -108q-26 -20 -63.5 -32t-79.5 -12z" />
    <glyph glyph-name="Tbar" unicode="&#x166;" horiz-adv-x="581" 
d="M394 567l-20 -193h86l-11 -104h-86l-28 -270h-147l28 270h-82l11 104h82l20 193h-197l14 133h536l-15 -133h-191z" />
    <glyph glyph-name="tbar" unicode="&#x167;" horiz-adv-x="436" 
d="M253 365l-5 -53h116l-11 -105h-116v-3q-4 -36 11 -57.5t50 -21.5q18 0 31.5 6t25.5 15l47 -108q-26 -20 -63.5 -32t-79.5 -12q-98 0 -139 50.5t-31 144.5l2 18h-53l11 105h53l5 53h-79l12 117h84l13 141h143l-14 -141h153l-12 -117h-154z" />
    <glyph glyph-name="Utilde" unicode="&#x168;" horiz-adv-x="655" 
d="M214 742q-4 8 -6.5 21.5t-2.5 27.5q0 48 30.5 78t78.5 30q22 0 40 -6t34 -13.5t29.5 -14t25.5 -6.5q26 0 26 25q0 10 -3 16h93q5 -9 6.5 -22t1.5 -24q0 -49 -28.5 -79.5t-78.5 -30.5q-25 0 -44.5 6.5t-35 14t-27.5 13.5t-23 6q-12 0 -19.5 -6.5t-7.5 -18.5q0 -9 4 -17
h-93zM304 -6q-54 0 -101 15t-80 49.5t-48.5 91t-6.5 140.5l44 410h147l-44 -422q-3 -33 0 -61.5t15 -48.5t33.5 -31.5t54.5 -11.5q65 0 95 42t37 111l44 422h146l-43 -410q-9 -85 -35.5 -141.5t-65.5 -91t-88.5 -49t-103.5 -14.5z" />
    <glyph glyph-name="utilde" unicode="&#x169;" horiz-adv-x="546" 
d="M143 549q-5 8 -7 22t-2 28q0 48 29.5 78t77.5 30q21 0 38 -6.5t32 -14t27.5 -14t23.5 -6.5t19 6t8 19q0 5 -1 10.5t-4 8.5h88q5 -10 7 -23.5t2 -24.5q0 -49 -29.5 -79.5t-77.5 -30.5q-22 0 -40 6.5t-32 14.5t-25.5 14.5t-20.5 6.5q-28 0 -28 -26q0 -12 5 -19h-90z
M179 -13q-75 0 -110.5 43.5t-26.5 130.5l34 321h146l-30 -285q-5 -44 9.5 -62t45.5 -18q38 0 57.5 27t23.5 62l28 276h147l-35 -330q-2 -21 5.5 -31.5t27.5 -10.5l-11 -110q-9 -3 -27 -5.5t-39 -2.5q-48 0 -70.5 20.5t-22.5 56.5v1q-23 -40 -59 -61.5t-93 -21.5z" />
    <glyph glyph-name="Umacron" unicode="&#x16a;" horiz-adv-x="655" 
d="M239 870h311l-12 -105h-310zM304 -6q-54 0 -101 15t-80 49.5t-48.5 91t-6.5 140.5l44 410h147l-44 -422q-3 -33 0 -61.5t15 -48.5t33.5 -31.5t54.5 -11.5q65 0 95 42t37 111l44 422h146l-43 -410q-9 -85 -35.5 -141.5t-65.5 -91t-88.5 -49t-103.5 -14.5z" />
    <glyph glyph-name="umacron" unicode="&#x16b;" horiz-adv-x="546" 
d="M169 693h293l-12 -109h-293zM179 -13q-75 0 -110.5 43.5t-26.5 130.5l34 321h146l-30 -285q-5 -44 9.5 -62t45.5 -18q38 0 57.5 27t23.5 62l28 276h147l-35 -330q-2 -21 5.5 -31.5t27.5 -10.5l-11 -110q-9 -3 -27 -5.5t-39 -2.5q-48 0 -70.5 20.5t-22.5 56.5v1
q-23 -40 -59 -61.5t-93 -21.5z" />
    <glyph glyph-name="Ubreve" unicode="&#x16c;" horiz-adv-x="655" 
d="M380 742q-41 0 -69 13.5t-44 35.5t-21.5 50.5t-2.5 59.5h107q-3 -26 6.5 -42t33.5 -16q26 0 38 16t15 42h106q-3 -31 -14.5 -59.5t-32 -50.5t-51 -35.5t-71.5 -13.5zM304 -6q-54 0 -101 15t-80 49.5t-48.5 91t-6.5 140.5l44 410h147l-44 -422q-3 -33 0 -61.5t15 -48.5
t33.5 -31.5t54.5 -11.5q65 0 95 42t37 111l44 422h146l-43 -410q-9 -85 -35.5 -141.5t-65.5 -91t-88.5 -49t-103.5 -14.5z" />
    <glyph glyph-name="ubreve" unicode="&#x16d;" horiz-adv-x="546" 
d="M301 557q-46 0 -74.5 14.5t-43 37.5t-18 53t-0.5 61h107q-7 -60 40 -60q46 0 53 60h105q-3 -31 -13.5 -61t-30 -53t-50 -37.5t-75.5 -14.5zM179 -13q-75 0 -110.5 43.5t-26.5 130.5l34 321h146l-30 -285q-5 -44 9.5 -62t45.5 -18q38 0 57.5 27t23.5 62l28 276h147
l-35 -330q-2 -21 5.5 -31.5t27.5 -10.5l-11 -110q-9 -3 -27 -5.5t-39 -2.5q-48 0 -70.5 20.5t-22.5 56.5v1q-23 -40 -59 -61.5t-93 -21.5z" />
    <glyph glyph-name="Uring" unicode="&#x16e;" horiz-adv-x="655" 
d="M379 713q-54 0 -83 32.5t-29 79.5q0 28 9.5 52.5t27.5 42.5t42.5 28.5t54.5 10.5q53 0 82 -32.5t29 -80.5q0 -28 -9.5 -52.5t-27 -42.5t-42 -28t-54.5 -10zM387 790q22 0 33.5 15t11.5 36q0 18 -10.5 29t-28.5 11q-21 0 -33 -14t-12 -36q0 -20 10.5 -30.5t28.5 -10.5z
M304 -6q-54 0 -101 15t-80 49.5t-48.5 91t-6.5 140.5l44 410h147l-44 -422q-3 -33 0 -61.5t15 -48.5t33.5 -31.5t54.5 -11.5q65 0 95 42t37 111l44 422h146l-43 -410q-9 -85 -35.5 -141.5t-65.5 -91t-88.5 -49t-103.5 -14.5z" />
    <glyph glyph-name="uring" unicode="&#x16f;" horiz-adv-x="546" 
d="M301 520q-51 0 -80.5 31.5t-29.5 77.5q0 58 35.5 95.5t92.5 37.5q51 0 80 -31.5t29 -78.5q0 -28 -9 -52t-26 -42t-40 -28t-52 -10zM308 597q20 0 31.5 14t11.5 35q0 17 -10.5 28t-28.5 11q-20 0 -31.5 -14t-11.5 -35q0 -18 11 -28.5t28 -10.5zM179 -13q-75 0 -110.5 43.5
t-26.5 130.5l34 321h146l-30 -285q-5 -44 9.5 -62t45.5 -18q38 0 57.5 27t23.5 62l28 276h147l-35 -330q-2 -21 5.5 -31.5t27.5 -10.5l-11 -110q-9 -3 -27 -5.5t-39 -2.5q-48 0 -70.5 20.5t-22.5 56.5v1q-23 -40 -59 -61.5t-93 -21.5z" />
    <glyph glyph-name="Uhungarumlaut" unicode="&#x170;" horiz-adv-x="655" 
d="M290 902h161l-133 -161h-111zM500 902h162l-134 -161h-111zM304 -6q-54 0 -101 15t-80 49.5t-48.5 91t-6.5 140.5l44 410h147l-44 -422q-3 -33 0 -61.5t15 -48.5t33.5 -31.5t54.5 -11.5q65 0 95 42t37 111l44 422h146l-43 -410q-9 -85 -35.5 -141.5t-65.5 -91t-88.5 -49
t-103.5 -14.5z" />
    <glyph glyph-name="uhungarumlaut" unicode="&#x171;" horiz-adv-x="546" 
d="M205 741h160l-132 -200h-110zM416 741h158l-131 -200h-110zM179 -13q-75 0 -110.5 43.5t-26.5 130.5l34 321h146l-30 -285q-5 -44 9.5 -62t45.5 -18q38 0 57.5 27t23.5 62l28 276h147l-35 -330q-2 -21 5.5 -31.5t27.5 -10.5l-11 -110q-9 -3 -27 -5.5t-39 -2.5
q-48 0 -70.5 20.5t-22.5 56.5v1q-23 -40 -59 -61.5t-93 -21.5z" />
    <glyph glyph-name="Uogonek" unicode="&#x172;" horiz-adv-x="655" 
d="M640 700l-43 -410q-7 -69 -26 -119t-47 -84.5t-63.5 -55t-76.5 -29.5q-31 -15 -48 -38.5t-17 -47.5q0 -15 8 -21.5t19 -6.5t17 2.5t11 6.5l25 -68q-14 -13 -37.5 -19.5t-51.5 -6.5q-51 0 -77 23t-26 65q0 29 13.5 56t38.5 50q-46 5 -84.5 23.5t-65 53.5t-38 88t-3.5 128
l44 410h147l-44 -422q-3 -33 0 -61.5t15 -48.5t33.5 -31.5t54.5 -11.5q65 0 95 42t37 111l44 422h146z" />
    <glyph glyph-name="uogonek" unicode="&#x173;" horiz-adv-x="546" 
d="M490 0q-35 -15 -54 -39.5t-19 -50.5q0 -15 8 -21.5t19 -6.5t17 2.5t11 6.5l25 -68q-14 -13 -37.5 -19.5t-51.5 -6.5q-51 0 -77 23t-26 65q0 33 17.5 63t47.5 54q-20 9 -29.5 26.5t-9.5 40.5v1q-23 -40 -59 -61.5t-93 -21.5q-75 0 -110.5 43.5t-26.5 130.5l34 321h146
l-30 -285q-5 -44 9.5 -62t45.5 -18q38 0 57.5 27t23.5 62l28 276h147l-35 -330q-2 -21 5.5 -31.5t27.5 -10.5z" />
    <glyph glyph-name="Wcircumflex" unicode="&#x174;" horiz-adv-x="917" 
d="M448 902h157l70 -161h-126l-33 71l-46 -71h-126zM56 700h168l37 -543l183 543h136l63 -543l158 543h159l-247 -700h-169l-57 491l-165 -491h-168z" />
    <glyph glyph-name="wcircumflex" unicode="&#x175;" horiz-adv-x="751" 
d="M369 543h-125l107 194h156l67 -194h-126l-30 96zM771 482l-191 -482h-159l-27 258l-5 91l-25 -88l-89 -261h-154l-90 482h156l26 -247l7 -110l30 110l78 247h156l25 -247l6 -110l30 110l79 247h147z" />
    <glyph glyph-name="Ycircumflex" unicode="&#x176;" horiz-adv-x="613" 
d="M296 902h157l70 -161h-126l-33 71l-46 -71h-126zM238 280l-188 420h170l107 -287l168 287h166l-277 -418l-29 -282h-147z" />
    <glyph glyph-name="ycircumflex" unicode="&#x177;" horiz-adv-x="528" 
d="M238 737h156l67 -194h-126l-30 96l-49 -96h-125zM187 -247q-76 0 -127 27t-74 76l100 76q19 -34 44.5 -48t65.5 -14q59 0 84 32t31 86l7 74q-48 -68 -146 -68q-147 0 -129 174l33 314h145l-29 -278q-5 -42 9 -60.5t44 -18.5q27 0 51 22.5t30 68.5l28 266h147l-52 -489
q-12 -110 -77 -175t-185 -65z" />
    <glyph glyph-name="Ydieresis" unicode="&#x178;" horiz-adv-x="613" 
d="M231 741q-38 0 -59 23t-21 56q0 45 28 70t66 25t58.5 -23t20.5 -57q0 -45 -27 -69.5t-66 -24.5zM478 741q-39 0 -60 22t-21 57q0 45 28.5 70t66.5 25t57.5 -23t19.5 -56q0 -46 -26.5 -70.5t-64.5 -24.5zM238 280l-188 420h170l107 -287l168 287h166l-277 -418l-29 -282
h-147z" />
    <glyph glyph-name="Zacute" unicode="&#x179;" horiz-adv-x="584" 
d="M404 741h-129l95 161h178zM582 585l-390 -463h349l-13 -122h-521l12 115l395 463h-341l13 122h509z" />
    <glyph glyph-name="zacute" unicode="&#x17a;" horiz-adv-x="486" 
d="M310 541h-122l100 200h171zM449 370l-205 -127q33 -7 68.5 -23.5t65 -45t48.5 -70.5t19 -100q0 -60 -18.5 -106.5t-50.5 -78.5t-76.5 -48.5t-97.5 -16.5q-95 0 -148 44.5t-53 125.5q0 44 14 79.5t36 63.5t49 49t53 34q-36 6 -78 6l11 100l186 110h-221l12 116h398z
M318 -5q0 44 -18.5 74.5t-53.5 50.5q-51 -27 -82 -68.5t-31 -94.5q0 -40 23 -61.5t58 -21.5q20 0 39 7.5t33.5 22.5t23 37.5t8.5 53.5z" />
    <glyph glyph-name="Zdotaccent" unicode="&#x17b;" horiz-adv-x="584" 
d="M350 739q-37 0 -58 23t-21 58q0 41 28 68t69 27q37 0 57.5 -24t20.5 -57q0 -40 -26 -67.5t-70 -27.5zM582 585l-390 -463h349l-13 -122h-521l12 115l395 463h-341l13 122h509z" />
    <glyph glyph-name="zdotaccent" unicode="&#x17c;" horiz-adv-x="486" 
d="M268 551q-40 0 -61 23.5t-21 58.5q0 39 26 68t73 29q39 0 59 -24.5t20 -57.5q0 -40 -25.5 -68.5t-70.5 -28.5zM449 370l-205 -127q33 -7 68.5 -23.5t65 -45t48.5 -70.5t19 -100q0 -60 -18.5 -106.5t-50.5 -78.5t-76.5 -48.5t-97.5 -16.5q-95 0 -148 44.5t-53 125.5
q0 44 14 79.5t36 63.5t49 49t53 34q-36 6 -78 6l11 100l186 110h-221l12 116h398zM318 -5q0 44 -18.5 74.5t-53.5 50.5q-51 -27 -82 -68.5t-31 -94.5q0 -40 23 -61.5t58 -21.5q20 0 39 7.5t33.5 22.5t23 37.5t8.5 53.5z" />
    <glyph glyph-name="Zcaron" unicode="&#x17d;" horiz-adv-x="584" 
d="M272 741l-69 161h126l31 -72l48 72h126l-104 -161h-158zM582 585l-390 -463h349l-13 -122h-521l12 115l395 463h-341l13 122h509z" />
    <glyph glyph-name="zcaron" unicode="&#x17e;" horiz-adv-x="486" 
d="M187 543l-67 194h126l29 -96l49 96h126l-107 -194h-156zM449 370l-205 -127q33 -7 68.5 -23.5t65 -45t48.5 -70.5t19 -100q0 -60 -18.5 -106.5t-50.5 -78.5t-76.5 -48.5t-97.5 -16.5q-95 0 -148 44.5t-53 125.5q0 44 14 79.5t36 63.5t49 49t53 34q-36 6 -78 6l11 100
l186 110h-221l12 116h398zM318 -5q0 44 -18.5 74.5t-53.5 50.5q-51 -27 -82 -68.5t-31 -94.5q0 -40 23 -61.5t58 -21.5q20 0 39 7.5t33.5 22.5t23 37.5t8.5 53.5z" />
    <glyph glyph-name="uni018F" unicode="&#x18f;" horiz-adv-x="661" 
d="M366 712q63 0 114 -20.5t87 -59t55.5 -94t19.5 -126.5q0 -102 -24 -181t-68.5 -133t-106.5 -82t-138 -28q-61 0 -111 18.5t-85 54.5t-54.5 89.5t-19.5 122.5q0 43 3.5 66.5t8.5 44.5h441v21q0 89 -35.5 132t-98.5 43q-55 0 -89.5 -25t-59.5 -63l-115 64q18 31 43 59.5
t58.5 50t77 34t97.5 12.5zM318 117q60 0 100 41t57 118h-286q-2 -34 4 -63t21.5 -50.5t41 -33.5t62.5 -12z" />
    <glyph glyph-name="florin" unicode="&#x192;" horiz-adv-x="440" 
d="M25 -184q-47 0 -77.5 14.5t-50.5 39.5l77 100q12 -25 45 -25q29 0 47 18.5t23 62.5l33 310h-69l12 115h68l4 38q12 103 67 157t150 54q35 0 67 -12t52 -33l-63 -104q-8 9 -20 14.5t-32 5.5q-65 0 -74 -86l-3 -34h124l-12 -115h-125l-32 -309q-11 -103 -66.5 -157
t-144.5 -54z" />
    <glyph glyph-name="uni019D" unicode="&#x19d;" horiz-adv-x="671" 
d="M650 700l-75 -700h-130l-203 420l-10 32l-48 -452l-3 -28q-24 -210 -233 -210q-44 0 -79 12.5t-57 41.5l97 113q12 -14 26.5 -19.5t34.5 -5.5q25 0 46 15.5t26 52.5l3 28l74 700h130l199 -416l14 -41l49 457h139z" />
    <glyph glyph-name="Gcaron" unicode="&#x1e6;" horiz-adv-x="648" 
d="M242 902h126l31 -72l48 72h126l-104 -161h-158zM324 -11q-138 0 -210 78.5t-72 226.5q0 94 24.5 171t70.5 131.5t112 84.5t148 30q50 0 92 -12t72.5 -36t47.5 -58.5t17 -79.5q0 -21 -3 -37.5t-8 -33.5h-141q2 5 3.5 13.5t1.5 24.5q0 39 -25 63.5t-76 24.5q-86 0 -133 -72
t-47 -203q0 -94 36.5 -142t106.5 -48q48 0 78 10.5t46 23.5l10 94h-124l12 118h255l-29 -281q-13 -13 -36.5 -29t-57 -30t-76.5 -23t-95 -9z" />
    <glyph glyph-name="gcaron" unicode="&#x1e7;" horiz-adv-x="538" 
d="M156 737h126l29 -96l49 96h126l-107 -194h-156zM203 -240q-69 0 -119 21t-83 74l95 83q19 -29 44 -45t68 -16q101 0 113 118l6 56q-20 -29 -51 -46.5t-86 -17.5q-77 0 -120 56.5t-43 158.5q0 68 16.5 122t46.5 92.5t71 59t90 20.5q81 0 125 -61l6 47h129l-52 -489
q-12 -112 -79.5 -172.5t-176.5 -60.5zM250 109q32 0 55 21t34 54l13 119q-1 12 -6 24.5t-14 23t-22 17t-32 6.5q-26 0 -45.5 -12.5t-32 -34t-18.5 -51t-6 -63.5q0 -51 19.5 -77.5t54.5 -26.5z" />
    <glyph glyph-name="uni01EA" unicode="&#x1ea;" horiz-adv-x="694" 
d="M398 -4q-31 -15 -48 -38.5t-17 -47.5q0 -15 8 -21.5t19 -6.5t17 2.5t11 6.5l25 -68q-14 -13 -37.5 -19.5t-51.5 -6.5q-51 0 -77 23t-26 65q0 29 14 56.5t39 50.5q-50 7 -92.5 28.5t-73.5 59t-48.5 91t-17.5 125.5q0 105 28 182.5t76.5 129.5t112.5 77.5t136 25.5
q59 0 110 -18t89 -56t59.5 -96.5t21.5 -138.5q0 -91 -21 -161t-58.5 -120.5t-88 -81.5t-109.5 -43zM196 309q-1 -52 9.5 -88.5t30 -59t46 -32.5t56.5 -10q38 0 70.5 15t57 47.5t39 84.5t16.5 126q2 53 -9 89t-30.5 58t-46 32t-55.5 10q-37 0 -69.5 -15t-57.5 -47.5t-40 -84
t-17 -125.5z" />
    <glyph glyph-name="uni01EB" unicode="&#x1eb;" horiz-adv-x="527" 
d="M302 -7q-28 -15 -43.5 -37.5t-15.5 -45.5q0 -15 8 -21.5t19 -6.5t17 2.5t11 6.5l25 -68q-14 -13 -37.5 -19.5t-51.5 -6.5q-51 0 -77 23t-26 65q0 29 14 56.5t40 50.5q-79 16 -119 73.5t-40 142.5q0 63 18 115.5t51.5 91t82.5 60t110 21.5q53 0 93 -16t67 -45t40.5 -69.5
t13.5 -89.5q0 -54 -13.5 -101t-39 -84t-63 -62.5t-84.5 -35.5zM276 374q-48 0 -74.5 -43.5t-26.5 -116.5q0 -50 18.5 -77.5t57.5 -27.5q52 0 77 43.5t25 114.5q0 51 -19.5 79t-57.5 28z" />
    <glyph glyph-name="Aringacute" unicode="&#x1fa;" horiz-adv-x="644" 
d="M434 163h-239l-69 -163h-153l319 691q-17 15 -26 37t-9 48q0 40 19 71t51 48l81 136h178l-128 -142q44 -31 44 -92q0 -34 -14 -62.5t-39 -45.5l172 -689h-153zM383 832q-21 0 -33.5 -14.5t-12.5 -36.5q0 -19 10.5 -29.5t28.5 -10.5q22 0 33.5 14.5t11.5 35.5
q0 19 -10.5 30t-27.5 11zM410 277l-55 262l-111 -262h166z" />
    <glyph glyph-name="aringacute" unicode="&#x1fb;" horiz-adv-x="556" 
d="M297 520q-51 0 -80.5 31.5t-29.5 77.5q0 51 27.5 86.5t73.5 44.5l69 139h171l-128 -174q24 -32 24 -73q0 -28 -9 -52t-26 -42t-40 -28t-52 -10zM304 597q20 0 31.5 14t11.5 35q0 17 -10.5 28t-28.5 11q-20 0 -31.5 -14t-11.5 -35q0 -18 10.5 -28.5t28.5 -10.5zM478 153
q-2 -23 6 -33t28 -10l-12 -110q-10 -4 -28 -6t-38 -2q-46 0 -68.5 20t-24.5 55l-1 1q-23 -38 -58.5 -59.5t-91.5 -21.5q-77 0 -120 56.5t-43 157.5q0 66 17 120t47 93t72 60.5t92 21.5q83 0 117 -57l4 43h137zM350 303q-1 12 -5.5 24.5t-13 23t-22 17t-31.5 6.5
q-50 0 -76 -45.5t-26 -115.5q0 -51 18.5 -77.5t54.5 -26.5q33 0 55.5 21t33.5 54z" />
    <glyph glyph-name="AEacute" unicode="&#x1fc;" horiz-adv-x="839" 
d="M556 902h178l-144 -161h-129zM295 700h555l-14 -124h-352l42 -175h224l-14 -122h-178l36 -155h195l-13 -124h-311l-35 168h-226l-70 -168h-162zM404 285l-50 237l-98 -237h148z" />
    <glyph glyph-name="aeacute" unicode="&#x1fd;" horiz-adv-x="754" 
d="M454 541h-122l100 200h171zM442 219v-4q0 -57 22 -83t64 -26q35 0 59 18.5t36 35.5l87 -70q-6 -10 -21.5 -27.5t-40.5 -34t-59.5 -29t-78.5 -12.5q-62 0 -106 22t-69 64q-36 -46 -79.5 -65.5t-102.5 -19.5q-73 0 -108.5 34t-35.5 88q0 68 48 108.5t154 40.5h91l5 56
q7 68 -52 68q-30 0 -46.5 -15t-16.5 -46q0 -15 4 -25h-130q-1 2 -3.5 11.5t-2.5 28.5q0 72 54.5 115.5t157.5 43.5q49 0 82.5 -14t54.5 -37q29 23 65 37t79 14q90 0 133 -52.5t43 -143.5q0 -27 -3 -46.5t-7 -34.5h-277zM534 381q-34 0 -54.5 -22t-29.5 -61h142
q5 40 -10.5 61.5t-47.5 21.5zM204 98q30 0 52.5 18.5t35.5 47.5l2 22h-75q-32 0 -46.5 -13.5t-14.5 -34.5q0 -18 11.5 -29t34.5 -11z" />
    <glyph glyph-name="Oslashacute" unicode="&#x1fe;" horiz-adv-x="694" 
d="M416 741h-129l95 161h178zM613 616q29 -38 45.5 -91t16.5 -123q0 -105 -28 -182.5t-76.5 -129t-112.5 -76.5t-136 -25q-81 0 -144 33l-28 -38h-121l74 101q-29 38 -45 90t-16 121q0 105 28 182.5t76.5 129.5t112.5 77.5t136 25.5q80 0 143 -33l28 38h120zM196 309
q-2 -50 9 -85l248 338q-16 10 -34.5 14.5t-38.5 4.5q-37 0 -69.5 -15t-57.5 -47.5t-40 -84t-17 -125.5zM521 392q2 51 -9 87l-249 -341q32 -19 75 -19q38 0 70.5 15t57 47.5t39 84.5t16.5 126z" />
    <glyph glyph-name="oslashacute" unicode="&#x1ff;" horiz-adv-x="527" 
d="M314 541h-122l100 200h171zM453 429q49 -58 49 -153q0 -62 -18 -115t-51.5 -91.5t-82 -60.5t-109.5 -22t-107 22l-34 -44h-92l67 89q-49 58 -49 154q0 63 18 115.5t51.5 91t82.5 60t110 21.5q60 0 106 -22l33 43h92zM175 214q0 -8 0.5 -14.5t1.5 -12.5l135 178
q-15 9 -36 9q-48 0 -74.5 -43.5t-26.5 -116.5zM353 267q0 8 -0.5 15t-1.5 14l-136 -179q16 -8 36 -8q52 0 77 43.5t25 114.5z" />
    <glyph glyph-name="uni0218" unicode="&#x218;" horiz-adv-x="590" 
d="M274 -11q-91 0 -161 27.5t-108 85.5l102 98q34 -45 77.5 -65.5t106.5 -20.5q56 0 86.5 20t30.5 62q0 20 -7 34t-24 25t-45 20t-69 19q-39 9 -74.5 23t-62.5 36.5t-43.5 56t-16.5 80.5q0 102 71 161.5t202 59.5q46 0 88.5 -8.5t74.5 -28.5t51.5 -52.5t19.5 -79.5
q0 -26 -3.5 -39t-7.5 -24l-132 1q3 8 4.5 15t1.5 18q0 39 -30 56t-77 17q-115 0 -115 -81q0 -21 8.5 -34.5t26.5 -23t45.5 -17.5t64.5 -17q41 -10 77 -25.5t63 -39t42.5 -58t15.5 -82.5q0 -106 -74.5 -162.5t-208.5 -56.5zM195 -217q31 8 41.5 19.5t12.5 21.5q-52 13 -52 67
q0 33 21.5 55t56.5 22q34 0 55.5 -21t21.5 -60q0 -54 -36.5 -98.5t-101.5 -62.5z" />
    <glyph glyph-name="uni0219" unicode="&#x219;" horiz-adv-x="481" 
d="M211 -13q-26 0 -54.5 3.5t-56.5 12t-54 23.5t-48 39l82 99q34 -38 72 -51t83 -13q65 0 65 34q0 17 -21 26t-74 21q-30 7 -58 18t-50.5 28.5t-36 43t-13.5 61.5q0 76 57 120t166 44q86 0 135.5 -33.5t49.5 -96.5q0 -17 -5 -33.5t-10 -26.5h-132q3 6 5.5 14.5t2.5 19.5
q0 26 -17 35.5t-43 9.5q-35 0 -51 -12t-16 -32q0 -26 26 -36t83 -23q26 -6 51.5 -14.5t46 -23.5t33.5 -38t13 -57q0 -83 -62 -122.5t-169 -39.5zM135 -217q31 8 41.5 19.5t12.5 21.5q-52 13 -52 67q0 33 21.5 55t56.5 22q34 0 55.5 -21t21.5 -60q0 -54 -36.5 -98.5
t-101.5 -62.5z" />
    <glyph glyph-name="uni021A" unicode="&#x21a;" horiz-adv-x="558" 
d="M244 567h-198l15 133h536l-15 -133h-191l-59 -567h-147zM174 -217q31 8 41.5 19.5t12.5 21.5q-52 13 -52 67q0 33 21.5 55t56.5 22q34 0 55.5 -21t21.5 -60q0 -54 -36.5 -98.5t-101.5 -62.5z" />
    <glyph glyph-name="uni021B" unicode="&#x21b;" horiz-adv-x="420" 
d="M257 -6q-98 0 -139 50.5t-31 144.5l18 176h-79l12 117h84l13 141h143l-14 -141h153l-12 -117h-154l-16 -161q-4 -36 11.5 -57.5t50.5 -21.5q17 0 31 6t25 15l47 -108q-26 -20 -63.5 -32t-79.5 -12zM148 -217q31 8 41.5 19.5t12.5 21.5q-52 13 -52 67q0 33 21.5 55
t56.5 22q34 0 55.5 -21t21.5 -60q0 -54 -36.5 -98.5t-101.5 -62.5z" />
    <glyph glyph-name="uni0232" unicode="&#x232;" horiz-adv-x="613" 
d="M219 870h311l-12 -105h-310zM238 280l-188 420h170l107 -287l168 287h166l-277 -418l-29 -282h-147z" />
    <glyph glyph-name="uni0233" unicode="&#x233;" horiz-adv-x="528" 
d="M166 693h293l-12 -109h-293zM187 -247q-76 0 -127 27t-74 76l100 76q19 -34 44.5 -48t65.5 -14q59 0 84 32t31 86l7 74q-48 -68 -146 -68q-147 0 -129 174l33 314h145l-29 -278q-5 -42 9 -60.5t44 -18.5q27 0 51 22.5t30 68.5l28 266h147l-52 -489q-12 -110 -77 -175
t-185 -65z" />
    <glyph glyph-name="uni0237" unicode="&#x237;" horiz-adv-x="257" 
d="M-41 -247q-26 0 -44 5t-29 11q-13 7 -21 16l54 107q4 -3 9 -5q6 -2 12.5 -3.5t15.5 -1.5q34 0 51.5 25t22.5 70l53 505h145l-53 -512q-5 -48 -20 -88t-41.5 -68.5t-65 -44.5t-89.5 -16z" />
    <glyph glyph-name="uni0259" unicode="&#x259;" horiz-adv-x="486" 
d="M257 495q94 0 149 -52.5t55 -158.5q0 -67 -17.5 -122t-49.5 -94t-77.5 -60.5t-102.5 -21.5q-92 0 -141.5 52t-49.5 146q0 29 3.5 48t6.5 33h282v9q0 57 -19.5 79.5t-54.5 22.5q-32 0 -53.5 -16.5t-35.5 -39.5l-101 55q25 50 76.5 85t129.5 35zM224 101q32 0 53 19t31 65
h-145q-5 -38 11 -61t50 -23z" />
    <glyph glyph-name="uni0272" unicode="&#x272;" horiz-adv-x="558" 
d="M487 153q-6 -42 33 -42l-12 -110q-9 -3 -27.5 -5.5t-37.5 -2.5q-61 0 -87.5 30t-19.5 95l19 170q4 38 -12.5 57.5t-45.5 19.5q-31 0 -52 -22.5t-25 -60.5l-30 -282h1l-4 -31q-14 -101 -70.5 -153t-160.5 -52q-47 0 -83 13t-55 35l96 114q8 -11 22 -18t31 -7q33 0 50 18
t24 56l4 25h-1l35 330q4 41 -34 41l11 110q11 4 29 6t39 2q45 0 66 -19.5t25 -47.5l1 -1q17 28 51 51.5t89 23.5q79 0 117.5 -50t28.5 -142z" />
    <glyph glyph-name="circumflex" unicode="&#x2c6;" horiz-adv-x="353" 
d="M149 737h156l67 -194h-126l-29 96l-49 -96h-125z" />
    <glyph glyph-name="caron" unicode="&#x2c7;" horiz-adv-x="349" 
d="M61 737h126l29 -96l50 96h125l-107 -194h-156z" />
    <glyph glyph-name="breve" unicode="&#x2d8;" horiz-adv-x="327" 
d="M198 557q-46 0 -74 14.5t-43 37.5t-18.5 53t-0.5 61h107q-6 -60 40 -60t53 60h105q-3 -31 -13 -61t-30 -53t-50.5 -37.5t-75.5 -14.5z" />
    <glyph glyph-name="dotaccent" unicode="&#x2d9;" horiz-adv-x="196" 
d="M130 551q-40 0 -61 23.5t-21 58.5q0 39 26 68t73 29q39 0 59 -24.5t20 -57.5q0 -40 -25.5 -68.5t-70.5 -28.5z" />
    <glyph glyph-name="ring" unicode="&#x2da;" horiz-adv-x="251" 
d="M158 520q-51 0 -80.5 31.5t-29.5 77.5q0 58 35.5 95.5t92.5 37.5q51 0 80.5 -31.5t29.5 -78.5q0 -28 -9.5 -52t-26 -42t-40 -28t-52.5 -10zM165 597q20 0 31.5 14t11.5 35q0 17 -10.5 28t-27.5 11q-20 0 -32 -14t-12 -35q0 -18 11 -28.5t28 -10.5z" />
    <glyph glyph-name="ogonek" unicode="&#x2db;" horiz-adv-x="225" 
d="M76 -201q-51 0 -77 23t-26 65q0 51 40.5 94.5t105.5 67.5l39 -47q-35 -15 -54 -39.5t-19 -50.5q0 -15 8 -21.5t19 -6.5t17 2.5t11 6.5l25 -68q-14 -13 -37.5 -19.5t-51.5 -6.5z" />
    <glyph glyph-name="tilde" unicode="&#x2dc;" horiz-adv-x="371" 
d="M63 549q-5 8 -7 22t-2 28q0 48 29.5 78t77.5 30q21 0 38 -6.5t32 -14t27.5 -14t23.5 -6.5t19 6t8 19q0 5 -1.5 10.5t-3.5 8.5h87q5 -10 7.5 -23.5t2.5 -24.5q0 -49 -29.5 -79.5t-77.5 -30.5q-22 0 -40 6.5t-32 14.5t-25.5 14.5t-20.5 6.5q-28 0 -28 -26q0 -12 5 -19h-90z
" />
    <glyph glyph-name="hungarumlaut" unicode="&#x2dd;" horiz-adv-x="453" 
d="M126 741h159l-132 -200h-110zM336 741h159l-132 -200h-110z" />
    <glyph glyph-name="gravecomb" unicode="&#x300;" 
d="M-222 741h168l56 -200h-121z" />
    <glyph glyph-name="acutecomb" unicode="&#x301;" 
d="M-141 741h171l-149 -200h-122z" />
    <glyph glyph-name="uni0302" unicode="&#x302;" 
d="M-219 737h156l67 -194h-126l-30 96l-49 -96h-125z" />
    <glyph glyph-name="tildecomb" unicode="&#x303;" 
d="M-341 549q-5 8 -7 22t-2 28q0 48 29.5 78t77.5 30q21 0 38 -6.5t32 -14t27.5 -14t23.5 -6.5t19 6t8 19q0 5 -1 10.5t-4 8.5h88q5 -10 7 -23.5t2 -24.5q0 -49 -29.5 -79.5t-77.5 -30.5q-23 0 -40.5 6.5t-31.5 14.5t-25.5 14.5t-20.5 6.5q-28 0 -28 -26q0 -12 5 -19h-90z
" />
    <glyph glyph-name="uni0304" unicode="&#x304;" 
d="M-304 693h293l-12 -109h-293z" />
    <glyph glyph-name="uni0306" unicode="&#x306;" 
d="M-142 557q-46 0 -74.5 14.5t-43 37.5t-18 53t-0.5 61h107q-7 -60 40 -60q46 0 53 60h105q-3 -31 -13.5 -61t-30 -53t-50 -37.5t-75.5 -14.5z" />
    <glyph glyph-name="uni0307" unicode="&#x307;" 
d="M-65 551q-40 0 -61 23.5t-21 58.5q0 39 26 68t73 29q39 0 59 -24.5t20 -57.5q0 -40 -25.5 -68.5t-70.5 -28.5z" />
    <glyph glyph-name="uni0308" unicode="&#x308;" 
d="M-286 543q-38 0 -58 22.5t-20 55.5q0 38 25 66t70 28q38 0 57 -23.5t19 -55.5q0 -38 -24.5 -65.5t-68.5 -27.5zM-65 543q-38 0 -58.5 22.5t-20.5 55.5q0 38 25 66t70 28q38 0 57.5 -23.5t19.5 -55.5q0 -38 -25 -65.5t-68 -27.5z" />
    <glyph glyph-name="uni030A" unicode="&#x30a;" 
d="M-110 520q-51 0 -80.5 31.5t-29.5 77.5q0 58 35.5 95.5t92.5 37.5q51 0 80 -31.5t29 -78.5q0 -28 -9 -52t-26 -42t-40.5 -28t-51.5 -10zM-103 597q20 0 31.5 14t11.5 35q0 17 -10.5 28t-28.5 11q-20 0 -31.5 -14t-11.5 -35q0 -18 11 -28.5t28 -10.5z" />
    <glyph glyph-name="uni030B" unicode="&#x30b;" 
d="M-318 741h160l-132 -200h-110zM-107 741h158l-131 -200h-110z" />
    <glyph glyph-name="uni030C" unicode="&#x30c;" 
d="M-293 737h126l29 -96l49 96h126l-107 -194h-156z" />
    <glyph glyph-name="uni0312" unicode="&#x312;" 
d="M-68 544q-34 0 -53 19t-19 54q0 26 10 52t27 49t40 40t50 25l26 -55q-24 -7 -39 -21.5t-17 -25.5q26 -2 40 -17.5t14 -41.5q0 -33 -22.5 -55.5t-56.5 -22.5z" />
    <glyph glyph-name="dotbelowcomb" unicode="&#x323;" 
d="M-148 -215q-41 0 -62 23.5t-21 57.5q0 40 26.5 69t73.5 29q39 0 59 -24.5t20 -57.5q0 -40 -25.5 -68.5t-70.5 -28.5z" />
    <glyph glyph-name="uni0326" unicode="&#x326;" 
d="M-218 -217q31 8 41.5 19.5t12.5 21.5q-52 13 -52 67q0 33 21.5 55t56.5 22q34 0 55.5 -21t21.5 -60q0 -54 -36.5 -98.5t-101.5 -62.5z" />
    <glyph glyph-name="uni0327" unicode="&#x327;" 
d="M-186 -221q-35 0 -64.5 9t-44.5 26l51 63q9 -10 22.5 -16t29.5 -6q35 0 35 28q0 16 -17.5 24.5t-48.5 10.5l38 85h82l-17 -39q29 -8 48 -26.5t19 -54.5q0 -51 -35.5 -77.5t-97.5 -26.5z" />
    <glyph glyph-name="uni0328" unicode="&#x328;" 
d="M-191 -201q-51 0 -77 23t-26 65q0 51 40.5 94.5t105.5 67.5l39 -47q-35 -15 -54 -39.5t-19 -50.5q0 -15 8 -21.5t19 -6.5t17 2.5t11 6.5l25 -68q-14 -13 -37.5 -19.5t-51.5 -6.5z" />
    <glyph glyph-name="uni0335" unicode="&#x335;" 
d="M-320 404h315l-10 -105h-316z" />
    <glyph glyph-name="uni0336" unicode="&#x336;" 
d="M-650 595h675l-10 -96h-675z" />
    <glyph glyph-name="uni0337" unicode="&#x337;" 
d="M-367 345l329 185l46 -93l-331 -185z" />
    <glyph glyph-name="uni0338" unicode="&#x338;" 
d="M-61 518h92l-419 -552h-92z" />
    <glyph glyph-name="Wgrave" unicode="&#x1e80;" horiz-adv-x="917" 
d="M341 902h173l61 -161h-124zM56 700h168l37 -543l183 543h136l63 -543l158 543h159l-247 -700h-169l-57 491l-165 -491h-168z" />
    <glyph glyph-name="wgrave" unicode="&#x1e81;" horiz-adv-x="751" 
d="M347 541l-103 200h168l56 -200h-121zM771 482l-191 -482h-159l-27 258l-5 91l-25 -88l-89 -261h-154l-90 482h156l26 -247l7 -110l30 110l78 247h156l25 -247l6 -110l30 110l79 247h147z" />
    <glyph glyph-name="Wacute" unicode="&#x1e82;" horiz-adv-x="917" 
d="M531 902h178l-144 -161h-129zM56 700h168l37 -543l183 543h136l63 -543l158 543h159l-247 -700h-169l-57 491l-165 -491h-168z" />
    <glyph glyph-name="wacute" unicode="&#x1e83;" horiz-adv-x="751" 
d="M453 541h-122l100 200h171zM771 482l-191 -482h-159l-27 258l-5 91l-25 -88l-89 -261h-154l-90 482h156l26 -247l7 -110l30 110l78 247h156l25 -247l6 -110l30 110l79 247h147z" />
    <glyph glyph-name="Wdieresis" unicode="&#x1e84;" horiz-adv-x="917" 
d="M383 741q-38 0 -59 23t-21 56q0 45 28 70t66 25t58.5 -23t20.5 -57q0 -45 -27 -69.5t-66 -24.5zM630 741q-39 0 -60 22t-21 57q0 45 28.5 70t66.5 25t57.5 -23t19.5 -56q0 -46 -26.5 -70.5t-64.5 -24.5zM56 700h168l37 -543l183 543h136l63 -543l158 543h159l-247 -700
h-169l-57 491l-165 -491h-168z" />
    <glyph glyph-name="wdieresis" unicode="&#x1e85;" horiz-adv-x="751" 
d="M300 552q-38 0 -58 22.5t-20 55.5q0 38 25 66t70 28q38 0 57 -23.5t19 -55.5q0 -38 -24.5 -65.5t-68.5 -27.5zM521 552q-38 0 -58.5 22.5t-20.5 55.5q0 38 25 66t70 28q38 0 57.5 -23.5t19.5 -55.5q0 -38 -25 -65.5t-68 -27.5zM771 482l-191 -482h-159l-27 258l-5 91
l-25 -88l-89 -261h-154l-90 482h156l26 -247l7 -110l30 110l78 247h156l25 -247l6 -110l30 110l79 247h147z" />
    <glyph glyph-name="uni1E9E" unicode="&#x1e9e;" horiz-adv-x="663" 
d="M468 393q46 -9 77.5 -26.5t50.5 -41.5t27 -53.5t8 -62.5q0 -53 -18 -94t-51 -69t-79.5 -42.5t-102.5 -14.5q-52 0 -96.5 12.5t-67.5 38.5l78 107q20 -18 42 -26t49 -8q48 0 72.5 22.5t24.5 62.5q0 18 -7.5 34.5t-26 29.5t-50.5 20.5t-81 8.5l8 109l150 160q-36 16 -96 16
q-61 0 -101 -36t-47 -105l-46 -435h-146l47 445q7 65 33 114t66.5 81.5t94 49t114.5 16.5q69 0 131.5 -17.5t106.5 -52.5l-10 -85z" />
    <glyph glyph-name="uni1EA0" unicode="&#x1ea0;" horiz-adv-x="644" 
d="M468 0l-34 163h-239l-69 -163h-153l323 700h150l175 -700h-153zM410 277l-55 262l-111 -262h166zM298 -36q39 0 59 -24.5t20 -57.5q0 -40 -25.5 -68.5t-70.5 -28.5q-41 0 -62 23.5t-21 57.5q0 40 26.5 69t73.5 29z" />
    <glyph glyph-name="uni1EA1" unicode="&#x1ea1;" horiz-adv-x="553" 
d="M190 -13q-77 0 -120 56.5t-43 157.5q0 66 17 120t47 93t72 60.5t92 21.5q83 0 117 -57l4 43h137l-35 -329q-2 -23 6 -33t28 -10l-12 -110q-10 -4 -28 -6t-38 -2q-46 0 -68.5 20t-24.5 55l-1 1q-23 -38 -58.5 -59.5t-91.5 -21.5zM249 109q33 0 55.5 21t33.5 54l12 119
q-1 12 -5.5 24.5t-13 23t-22 17t-31.5 6.5q-50 0 -76 -45.5t-26 -115.5q0 -51 18.5 -77.5t54.5 -26.5zM227 -215q-41 0 -62 23.5t-21 57.5q0 40 26.5 69t73.5 29q39 0 59 -24.5t20 -57.5q0 -40 -25.5 -68.5t-70.5 -28.5z" />
    <glyph glyph-name="uni1EB8" unicode="&#x1eb8;" horiz-adv-x="551" 
d="M119 700h440l-13 -125h-293l-17 -159h253l-13 -125h-253l-18 -166h295l-13 -125h-442zM266 -215q-41 0 -62 23.5t-21 57.5q0 40 26.5 69t73.5 29q39 0 59 -24.5t20 -57.5q0 -40 -25.5 -68.5t-70.5 -28.5z" />
    <glyph glyph-name="uni1EB9" unicode="&#x1eb9;" horiz-adv-x="482" 
d="M259 106q36 0 63 14.5t48 41.5l78 -72q-38 -53 -95 -79t-128 -24q-95 2 -147.5 57.5t-52.5 160.5q0 66 20.5 119.5t56 91.5t83 59t102.5 21q86 0 129.5 -36.5t43.5 -99.5q0 -48 -21 -81.5t-58.5 -55t-90 -31.5t-115.5 -12q12 -74 84 -74zM282 378q-38 0 -66 -29t-38 -83
q68 2 106.5 18.5t38.5 54.5q0 39 -41 39zM219 -36q39 0 59 -24.5t20 -57.5q0 -40 -25.5 -68.5t-70.5 -28.5q-41 0 -62 23.5t-21 57.5q0 40 26.5 69t73.5 29z" />
    <glyph glyph-name="uni1EBC" unicode="&#x1ebc;" horiz-adv-x="551" 
d="M187 742q-4 8 -6.5 21.5t-2.5 27.5q0 48 30.5 78t78.5 30q22 0 40 -6t34 -13.5t29.5 -14t25.5 -6.5q26 0 26 25q0 10 -3 16h93q5 -9 6.5 -22t1.5 -24q0 -49 -28.5 -79.5t-78.5 -30.5q-25 0 -44.5 6.5t-35 14t-27.5 13.5t-23 6q-12 0 -19.5 -6.5t-7.5 -18.5q0 -9 4 -17
h-93zM119 700h440l-13 -125h-293l-17 -159h253l-13 -125h-253l-18 -166h295l-13 -125h-442z" />
    <glyph glyph-name="uni1EBD" unicode="&#x1ebd;" horiz-adv-x="482" 
d="M124 549q-5 8 -7 22t-2 28q0 48 29.5 78t77.5 30q21 0 38 -6.5t32 -14t27.5 -14t23.5 -6.5t19 6t8 19q0 5 -1 10.5t-4 8.5h88q5 -10 7 -23.5t2 -24.5q0 -49 -29.5 -79.5t-77.5 -30.5q-22 0 -40 6.5t-32 14.5t-25.5 14.5t-20.5 6.5q-28 0 -28 -26q0 -12 5 -19h-90z
M460 360q0 -48 -21 -81.5t-58.5 -55t-90 -31.5t-115.5 -12q12 -74 84 -74q36 0 63 14.5t48 41.5l78 -72q-38 -53 -95 -79t-128 -24q-95 2 -147.5 57.5t-52.5 160.5q0 66 20.5 119.5t56 91.5t83 59t102.5 21q86 0 129.5 -36.5t43.5 -99.5zM178 266q68 2 106.5 18.5t38.5 54.5
q0 39 -41 39q-38 0 -66 -29t-38 -83z" />
    <glyph glyph-name="uni1ECA" unicode="&#x1eca;" horiz-adv-x="287" 
d="M119 700h147l-74 -700h-147zM103 -215q-41 0 -62 23.5t-21 57.5q0 40 26.5 69t73.5 29q39 0 59 -24.5t20 -57.5q0 -40 -25.5 -68.5t-70.5 -28.5z" />
    <glyph glyph-name="uni1ECB" unicode="&#x1ecb;" horiz-adv-x="273" 
d="M164 551q-40 0 -61 23.5t-21 58.5q0 39 26 68t73 29q39 0 59 -24.5t20 -57.5q0 -40 -25.5 -68.5t-70.5 -28.5zM158 -4q-70 0 -97.5 33.5t-19.5 102.5l36 350h148l-34 -316q-3 -31 4 -42t36 -11l-12 -110q-2 0 -19.5 -3.5t-41.5 -3.5zM112 -215q-41 0 -62 23.5t-21 57.5
q0 40 26.5 69t73.5 29q39 0 59 -24.5t20 -57.5q0 -40 -25.5 -68.5t-70.5 -28.5z" />
    <glyph glyph-name="uni1ECC" unicode="&#x1ecc;" horiz-adv-x="694" 
d="M322 -11q-59 0 -110 18t-89 55.5t-59.5 95.5t-21.5 138q0 105 28 182.5t76.5 129.5t112.5 77.5t136 25.5q59 0 110 -18t89 -56t59.5 -96.5t21.5 -138.5q0 -105 -28 -182.5t-76.5 -129t-112.5 -76.5t-136 -25zM338 119q38 0 70.5 15t57 47.5t39 84.5t16.5 126q2 53 -9 89
t-30.5 58t-46 32t-55.5 10q-37 0 -69.5 -15t-57.5 -47.5t-40 -84t-17 -125.5q-1 -52 9.5 -88.5t30 -59t46 -32.5t56.5 -10zM305 -215q-41 0 -62 23.5t-21 57.5q0 40 26.5 69t73.5 29q39 0 59 -24.5t20 -57.5q0 -40 -25.5 -68.5t-70.5 -28.5z" />
    <glyph glyph-name="uni1ECD" unicode="&#x1ecd;" horiz-adv-x="527" 
d="M241 -13q-53 0 -93.5 16t-67.5 45.5t-40.5 70t-13.5 89.5q0 63 18 115.5t51.5 91t82.5 60t110 21.5q53 0 93 -16t67 -45t40.5 -69.5t13.5 -89.5q0 -62 -18 -115t-51.5 -91.5t-82 -60.5t-109.5 -22zM251 109q52 0 77 43.5t25 114.5q0 51 -19.5 79t-57.5 28
q-48 0 -74.5 -43.5t-26.5 -116.5q0 -50 18.5 -77.5t57.5 -27.5zM222 -215q-41 0 -62 23.5t-21 57.5q0 40 26.5 69t73.5 29q39 0 59 -24.5t20 -57.5q0 -40 -25.5 -68.5t-70.5 -28.5z" />
    <glyph glyph-name="uni1EE4" unicode="&#x1ee4;" horiz-adv-x="655" 
d="M304 -6q-54 0 -101 15t-80 49.5t-48.5 91t-6.5 140.5l44 410h147l-44 -422q-3 -33 0 -61.5t15 -48.5t33.5 -31.5t54.5 -11.5q65 0 95 42t37 111l44 422h146l-43 -410q-9 -85 -35.5 -141.5t-65.5 -91t-88.5 -49t-103.5 -14.5zM286 -215q-41 0 -62 23.5t-21 57.5
q0 40 26.5 69t73.5 29q39 0 59 -24.5t20 -57.5q0 -40 -25.5 -68.5t-70.5 -28.5z" />
    <glyph glyph-name="uni1EE5" unicode="&#x1ee5;" horiz-adv-x="546" 
d="M179 -13q-75 0 -110.5 43.5t-26.5 130.5l34 321h146l-30 -285q-5 -44 9.5 -62t45.5 -18q38 0 57.5 27t23.5 62l28 276h147l-35 -330q-2 -21 5.5 -31.5t27.5 -10.5l-11 -110q-9 -3 -27 -5.5t-39 -2.5q-48 0 -70.5 20.5t-22.5 56.5v1q-23 -40 -59 -61.5t-93 -21.5z
M232 -215q-41 0 -62 23.5t-21 57.5q0 40 26.5 69t73.5 29q39 0 59 -24.5t20 -57.5q0 -40 -25.5 -68.5t-70.5 -28.5z" />
    <glyph glyph-name="Ygrave" unicode="&#x1ef2;" horiz-adv-x="613" 
d="M189 902h173l61 -161h-124zM238 280l-188 420h170l107 -287l168 287h166l-277 -418l-29 -282h-147z" />
    <glyph glyph-name="ygrave" unicode="&#x1ef3;" horiz-adv-x="528" 
d="M132 741h168l56 -200h-121zM187 -247q-76 0 -127 27t-74 76l100 76q19 -34 44.5 -48t65.5 -14q59 0 84 32t31 86l7 74q-48 -68 -146 -68q-147 0 -129 174l33 314h145l-29 -278q-5 -42 9 -60.5t44 -18.5q27 0 51 22.5t30 68.5l28 266h147l-52 -489q-12 -110 -77 -175
t-185 -65z" />
    <glyph glyph-name="uni1EF8" unicode="&#x1ef8;" horiz-adv-x="613" 
d="M194 742q-4 8 -6.5 21.5t-2.5 27.5q0 48 30.5 78t78.5 30q22 0 40 -6t34 -13.5t29.5 -14t25.5 -6.5q26 0 26 25q0 10 -3 16h93q5 -9 6.5 -22t1.5 -24q0 -49 -28.5 -79.5t-78.5 -30.5q-25 0 -44.5 6.5t-35 14t-27.5 13.5t-23 6q-12 0 -19.5 -6.5t-7.5 -18.5q0 -9 4 -17
h-93zM238 280l-188 420h170l107 -287l168 287h166l-277 -418l-29 -282h-147z" />
    <glyph glyph-name="uni1EF9" unicode="&#x1ef9;" horiz-adv-x="528" 
d="M139 549q-5 8 -7 22t-2 28q0 48 29.5 78t77.5 30q21 0 38 -6.5t32 -14t27.5 -14t23.5 -6.5t19 6t8 19q0 5 -1 10.5t-4 8.5h88q5 -10 7 -23.5t2 -24.5q0 -49 -29.5 -79.5t-77.5 -30.5q-22 0 -40 6.5t-32 14.5t-25.5 14.5t-20.5 6.5q-28 0 -28 -26q0 -12 5 -19h-90z
M187 -247q-76 0 -127 27t-74 76l100 76q19 -34 44.5 -48t65.5 -14q59 0 84 32t31 86l7 74q-48 -68 -146 -68q-147 0 -129 174l33 314h145l-29 -278q-5 -42 9 -60.5t44 -18.5q27 0 51 22.5t30 68.5l28 266h147l-52 -489q-12 -110 -77 -175t-185 -65z" />
    <glyph glyph-name="endash" unicode="&#x2013;" horiz-adv-x="531" 
d="M57 324h435l-11 -105h-436z" />
    <glyph glyph-name="emdash" unicode="&#x2014;" horiz-adv-x="849" 
d="M57 324h754l-12 -105h-754z" />
    <glyph glyph-name="quoteleft" unicode="&#x2018;" horiz-adv-x="238" 
d="M236 657q-31 -14 -53 -34.5t-24 -39.5q38 -1 56 -23t18 -56q0 -42 -27 -66t-65 -24t-60 23.5t-22 68.5q0 68 34.5 122.5t109.5 85.5z" />
    <glyph glyph-name="quoteright" unicode="&#x2019;" horiz-adv-x="229" 
d="M65 465q31 14 53 34.5t24 39.5q-38 1 -56 23t-18 55q0 42 27 66.5t65 24.5t60 -23.5t22 -68.5q0 -68 -34.5 -122.5t-109.5 -85.5z" />
    <glyph glyph-name="quotesinglbase" unicode="&#x201a;" horiz-adv-x="248" 
d="M19 -80q31 14 53 34.5t24 39.5q-38 1 -56 23t-18 56q0 42 27 66.5t65 24.5t60 -24t22 -69q0 -68 -34.5 -122.5t-109.5 -85.5z" />
    <glyph glyph-name="quotedblleft" unicode="&#x201c;" horiz-adv-x="454" 
d="M235 657q-32 -13 -54 -34t-24 -39q38 -2 56.5 -23.5t18.5 -55.5q0 -42 -27 -66.5t-65 -24.5t-60.5 24t-22.5 69q0 68 35 122t110 86zM451 657q-32 -13 -54 -34t-24 -39q38 -2 56.5 -23.5t18.5 -55.5q0 -42 -27 -66.5t-65 -24.5t-60.5 24t-22.5 69q0 68 35 122t110 86z
" />
    <glyph glyph-name="quotedblright" unicode="&#x201d;" horiz-adv-x="451" 
d="M65 465q31 14 53 34.5t24 39.5q-38 1 -56 23t-18 55q0 42 27 66.5t65 24.5t60 -23.5t22 -68.5q0 -68 -34.5 -122.5t-109.5 -85.5zM281 465q31 14 53 34.5t24 39.5q-38 1 -56 23t-18 55q0 42 27 66.5t65 24.5t60 -23.5t22 -68.5q0 -68 -34.5 -122.5t-109.5 -85.5z" />
    <glyph glyph-name="quotedblbase" unicode="&#x201e;" horiz-adv-x="464" 
d="M22 -80q31 14 53 34.5t24 39.5q-38 1 -56 23t-18 56q0 42 27 66.5t65 24.5t60 -24t22 -69q0 -68 -34.5 -122.5t-109.5 -85.5zM238 -80q31 14 53 34.5t24 39.5q-38 1 -56 23t-18 56q0 42 27 66.5t65 24.5t60 -24t22 -69q0 -68 -34.5 -122.5t-109.5 -85.5z" />
    <glyph glyph-name="dagger" unicode="&#x2020;" horiz-adv-x="396" 
d="M159 482h-101l9 82h101l17 167h129l-17 -167h102l-10 -82h-102l-61 -416h-93z" />
    <glyph glyph-name="daggerdbl" unicode="&#x2021;" horiz-adv-x="396" 
d="M145 262h-109l9 83h105l9 137h-101l9 82h101l17 167h129l-17 -167h102l-10 -82h-102l-19 -137h106l-9 -83h-110l-27 -189h-94z" />
    <glyph glyph-name="bullet" unicode="&#x2022;" horiz-adv-x="380" 
d="M188 150q-60 0 -95 35.5t-35 95.5q0 32 11 59t30.5 47t47 31.5t59.5 11.5q57 0 92 -36.5t35 -95.5q0 -32 -10.5 -59.5t-30 -47t-46 -30.5t-58.5 -11z" />
    <glyph glyph-name="ellipsis" unicode="&#x2026;" horiz-adv-x="590" 
d="M81 -6q-30 0 -49 18t-19 49q0 32 20 55t57 23q29 0 48 -19t19 -49q0 -32 -19.5 -54.5t-56.5 -22.5zM272 -6q-31 0 -49.5 18t-18.5 49q0 32 20 55t57 23q29 0 48 -19t19 -49q0 -32 -19.5 -54.5t-56.5 -22.5zM464 -6q-31 0 -50 18t-19 49q0 32 20 55t58 23q29 0 48 -19
t19 -49q0 -32 -19.5 -54.5t-56.5 -22.5z" />
    <glyph glyph-name="perthousand" unicode="&#x2030;" horiz-adv-x="926" 
d="M165 422q-56 0 -83 33.5t-27 87.5q0 69 36 114t104 45q59 0 87 -34t28 -88q0 -69 -36.5 -113.5t-108.5 -44.5zM420 700h97l-278 -700h-97zM173 493q29 0 40 22.5t11 60.5q0 51 -37 51q-28 0 -39.5 -21t-11.5 -59q0 -54 37 -54zM461 -3q-57 0 -84.5 33.5t-27.5 87.5
q0 69 36 114t105 45q58 0 86.5 -34t28.5 -88q0 -70 -37 -114t-107 -44zM752 -3q-57 0 -84.5 33.5t-27.5 87.5q0 69 36 114t105 45q58 0 86.5 -34t28.5 -88q0 -70 -36.5 -114t-107.5 -44zM468 68q27 0 39 22.5t12 59.5q0 52 -37 52q-29 0 -40 -21.5t-11 -59.5q0 -53 37 -53z
M759 68q28 0 39 22.5t11 60.5q0 51 -36 51q-29 0 -40 -22t-11 -59q0 -53 37 -53z" />
    <glyph glyph-name="guilsinglleft" unicode="&#x2039;" horiz-adv-x="296" 
d="M29 202l12 118l177 143l64 -82l-135 -120l109 -119l-80 -82z" />
    <glyph glyph-name="guilsinglright" unicode="&#x203a;" horiz-adv-x="296" 
d="M18 141l137 121l-111 119l81 82l147 -143l-12 -118l-177 -142z" />
    <glyph glyph-name="fraction" unicode="&#x2044;" horiz-adv-x="120" 
d="M138 727h100l-288 -727h-101z" />
    <glyph glyph-name="Euro" unicode="&#x20ac;" horiz-adv-x="652" 
d="M392 144q48 0 80 17t55 45l88 -91q-18 -24 -43 -45t-55.5 -36.5t-65 -24.5t-69.5 -9q-115 0 -185.5 57.5t-90.5 163.5h-77l11 97h59l3 50h-57l10 97h67q35 112 115.5 173.5t192.5 61.5q88 0 144.5 -31.5t83.5 -86.5l-132 -85q-16 23 -37 41t-65 18q-91 0 -131 -91h172
l-11 -97h-184q-2 -12 -2.5 -24t-1.5 -26h183l-11 -97h-161q14 -41 43.5 -59t71.5 -18z" />
    <glyph glyph-name="trademark" unicode="&#x2122;" horiz-adv-x="811" 
d="M172 630h-107l10 87h319l-10 -87h-99l-31 -297h-113zM417 717h100l70 -214l117 214h98l-40 -384h-93l21 196l-86 -150h-62l-50 150l-21 -196h-94z" />
    <glyph glyph-name="minus" unicode="&#x2212;" horiz-adv-x="468" 
d="M59 321h367l-11 -105h-367z" />
    <glyph glyph-name="uni2215" unicode="&#x2215;" horiz-adv-x="400" 
d="M328 726h142l-369 -726h-144z" />
    <glyph glyph-name="uni2219" unicode="&#x2219;" horiz-adv-x="308" 
d="M151 206q-28 0 -46.5 19t-18.5 46q0 32 24 55.5t56 23.5q28 0 46 -19t18 -47q0 -32 -23.5 -55t-55.5 -23z" />
    <glyph glyph-name="approxequal" unicode="&#x2248;" horiz-adv-x="492" 
d="M64 263q-3 6 -5 14q-2 7 -3.5 16t-1.5 21q0 24 7.5 46t21.5 39.5t35 28t49 10.5q29 0 53.5 -8.5t46.5 -19t41.5 -19.5t36.5 -9q14 0 21 9.5t7 23.5q0 8 -1.5 16t-2.5 14q-2 7 -5 13h93q2 -7 4 -15t3 -17t1 -20q0 -24 -7 -46.5t-21 -40.5t-35 -28.5t-48 -10.5q-33 0 -59 9
t-47 19.5t-37.5 19t-30.5 8.5q-16 0 -25.5 -10t-9.5 -27q0 -8 1.5 -15t4.5 -11q2 -6 5 -10h-92zM44 69q-3 6 -5 13q-3 7 -4.5 16t-1.5 21q0 24 7.5 46t21.5 39.5t35.5 28t49.5 10.5q29 0 53.5 -8.5t46.5 -19t41 -19.5t36 -9q15 0 22 9.5t7 23.5q0 8 -1.5 16t-3.5 14
q-2 7 -5 13h93q3 -7 5 -15q1 -8 2.5 -17t1.5 -20q0 -24 -7 -46.5t-21.5 -40t-35 -28t-47.5 -10.5q-33 0 -59 8.5t-47 18.5t-37.5 18.5t-31.5 8.5q-17 0 -25.5 -9.5t-8.5 -25.5q0 -9 1.5 -15.5t3.5 -11.5t5 -9h-91z" />
    <glyph glyph-name="notequal" unicode="&#x2260;" horiz-adv-x="494" 
d="M125 101h-89l11 105h120l43 108h-152l11 105h184l30 72h118l-29 -72h91l-12 -105h-123l-42 -108h154l-10 -105h-186l-22 -54h-118z" />
    <glyph glyph-name="lessequal" unicode="&#x2264;" horiz-adv-x="449" 
d="M52 315l12 114l367 197l-13 -127l-231 -128l204 -125l-13 -127zM13 83h383l-11 -105h-383z" />
    <glyph glyph-name="greaterequal" unicode="&#x2265;" horiz-adv-x="450" 
d="M59 246l231 125l-205 128l14 126l326 -196l-13 -115l-366 -196zM21 82h383l-11 -105h-383z" />
    <glyph glyph-name="uniF8FF" unicode="&#xf8ff;" horiz-adv-x="1493" 
d="M794 522q-26 0 -43.5 17.5t-17.5 43.5t17.5 44t43.5 18t44 -18t18 -44t-18 -43.5t-44 -17.5zM142 270q0 57 1 108t2.5 91.5t3 70t2.5 44.5h100q2 -30 6 -114t4 -200h-119zM646 264q-82 0 -82 66q0 8 0.5 21.5t1.5 27.5t1.5 25t0.5 13h-22v79l119 30l1 -17h178
q3 -17 4.5 -45t3 -61t2 -68t0.5 -65h-118q0 92 3 147h-61l3 -65q4 -4 15 -4q5 0 10 1t8 4v-74q-8 -8 -27 -11.5t-41 -3.5zM370 265q-43 0 -67.5 27.5t-24.5 86.5q0 64 32.5 99.5t101.5 35.5q64 0 94 -30.5t30 -86.5v-127h-83l-8 61q-6 -31 -22.5 -48.5t-52.5 -17.5zM876 270
q0 30 0.5 65t2 68t3 61t4.5 45h80q2 -17 4 -39t2 -37q1 6 4 19.5t12 27t24 24t40 10.5q45 0 60 -26t17 -80l3 -138h-114q0 35 1 56.5t1 36.5t-2.5 22t-12.5 7q-12 0 -15 -8t-3 -21q0 -15 1.5 -36.5t1.5 -56.5h-114zM1270 265q-64 0 -93 33.5t-29 90.5q0 24 5.5 46.5t19.5 40
t38 28t61 10.5q36 0 59.5 -10.5t37 -27.5t19 -39t5.5 -46q0 -60 -29.5 -93t-93.5 -33zM408 345q24 0 24 30q0 26 -24 26q-22 0 -22 -26q0 -30 22 -30zM1270 345q23 0 23 30q0 26 -23 26q-21 0 -21 -26q0 -30 21 -30zM432 -50q-45 0 -63.5 6.5t-24.5 10.5v83q5 -3 21.5 -9.5
t48.5 -6.5q17 0 27.5 3.5t16.5 8t8 9.5t2 7q-5 -3 -15.5 -7t-33.5 -4q-90 0 -90 83v13h-55l3 -65q2 -2 5.5 -3t9.5 -1q8 0 12 1.5t6 3.5v-73q-4 -3 -17 -9t-51 -6q-46 0 -63.5 17.5t-17.5 53.5q0 6 0.5 17t1 23.5t1 24t0.5 16.5h-18v80l117 29l-1 -18h177v-119
q0 -16 3 -21.5t12 -5.5t12.5 6t3.5 21v119h104q2 -8 3.5 -23t3 -34t2.5 -40t1 -41q0 -79 -33 -114.5t-119 -35.5zM600 -44q0 128 4.5 194.5t5.5 87.5h78q1 -4 2 -14t2 -21.5t2 -22.5t1 -18q1 5 5 18.5t12.5 27.5t23.5 24.5t39 10.5q37 0 58.5 -28.5t21.5 -84.5
q0 -135 -137 -135q1 -11 1 -22.5v-16.5h-119zM1012 -5q-72 0 -106.5 31t-34.5 91q0 59 32.5 92.5t92.5 33.5q55 0 85.5 -29.5t30.5 -86.5q0 -8 -0.5 -18t-2.5 -17h-124q4 -6 15.5 -12t34.5 -6q14 0 29 3t26 9v-75q-8 -5 -27 -10.5t-51 -5.5zM1020 109q3 27 -17 27
q-23 0 -23 -27h40zM712 72q3 0 9 1.5t12 5.5t11 11t5 19q0 23 -20 23q-22 0 -22 -31q0 -12 2 -19.5t3 -9.5zM1140 -10q-11 0 -17.5 6t-6.5 17t6.5 17t17.5 6t17.5 -6t6.5 -17t-6.5 -17t-17.5 -6zM1140 -5q18 0 18 18t-18 18t-18 -18t18 -18zM1130 25h11q10 0 10 -7t-7 -7
l6 -9h-6l-4 9h-5v-9h-5v23zM1142 15q4 0 4 3t-4 3h-7v-6h7z" />
    <glyph glyph-name="Euro.osf" horiz-adv-x="532" 
d="M318 138q26 0 43 7.5t34 24.5l98 -70q-29 -46 -83 -73t-123 -27q-93 0 -150 54.5t-62 148.5h-52l10 91h49q20 95 88 149t169 54q66 0 114.5 -24t71.5 -76l-118 -73q-13 17 -29.5 25.5t-42.5 8.5q-38 0 -59.5 -18t-31.5 -46h99l-10 -91h-97q6 -30 26 -47.5t56 -17.5z" />
    <glyph glyph-name="Euro.sc" horiz-adv-x="532" 
d="M318 138q23 0 41.5 7.5t35.5 24.5l98 -70q-29 -46 -84 -73t-121 -27q-95 0 -152 55t-61 152h-46l8 79h44q18 99 86 155t169 56q68 0 110 -21.5t71 -66.5l-105 -85q-14 18 -31 26t-43 8q-42 0 -64.5 -20.5t-31.5 -51.5h106l-8 -79h-104q5 -32 24.5 -50.5t57.5 -18.5z" />
    <glyph glyph-name="IJacute" horiz-adv-x="778" 
d="M209 902h178l-144 -161h-129zM697 902h178l-144 -161h-129zM119 700h147l-74 -700h-147zM453 -6q-70 0 -116 23t-67 58l99 102q15 -21 34.5 -35t51.5 -14q39 0 63.5 25.5t31.5 84.5l48 462h147l-49 -465q-13 -125 -75 -183t-168 -58z" />
    <glyph glyph-name="a.sc" horiz-adv-x="552" 
d="M346 92h-176l-41 -92h-152l250 497h152l146 -497h-158zM323 189l-37 159l-72 -159h109z" />
    <glyph glyph-name="a.ss01" horiz-adv-x="508" 
d="M437 152q-2 -21 4.5 -31.5t28.5 -10.5l-12 -110q-11 -3 -29 -5.5t-35 -2.5q-27 0 -45 6.5t-28.5 17t-15 24.5t-4.5 28q-9 -15 -22.5 -29t-32.5 -25.5t-44 -18.5t-58 -7q-66 0 -100.5 33.5t-34.5 90.5q0 65 48 106t154 41h91l5 54q7 70 -52 70q-62 0 -62 -61q0 -16 3 -25
h-130q-1 2 -3.5 11.5t-2.5 28.5q0 72 54.5 115.5t157.5 43.5q106 0 148 -49.5t33 -138.5zM201 97q32 0 55.5 18t35.5 50l2 20l-75 -1q-32 0 -46.5 -14t-14.5 -34q0 -18 11.5 -28.5t31.5 -10.5z" />
    <glyph glyph-name="aacute.sc" horiz-adv-x="552" 
d="M353 556h-122l100 200h171zM346 92h-176l-41 -92h-152l250 497h152l146 -497h-158zM323 189l-37 159l-72 -159h109z" />
    <glyph glyph-name="aacute.ss01" horiz-adv-x="508" 
d="M327 541h-122l100 200h171zM437 152q-2 -21 4.5 -31.5t28.5 -10.5l-12 -110q-11 -3 -29 -5.5t-35 -2.5q-27 0 -45 6.5t-28.5 17t-15 24.5t-4.5 28q-9 -15 -22.5 -29t-32.5 -25.5t-44 -18.5t-58 -7q-66 0 -100.5 33.5t-34.5 90.5q0 65 48 106t154 41h91l5 54q7 70 -52 70
q-62 0 -62 -61q0 -16 3 -25h-130q-1 2 -3.5 11.5t-2.5 28.5q0 72 54.5 115.5t157.5 43.5q106 0 148 -49.5t33 -138.5zM201 97q32 0 55.5 18t35.5 50l2 20l-75 -1q-32 0 -46.5 -14t-14.5 -34q0 -18 11.5 -28.5t31.5 -10.5z" />
    <glyph glyph-name="abreve.sc" horiz-adv-x="552" 
d="M311 572q-46 0 -74.5 14.5t-43 37.5t-18 53t-0.5 61h107q-7 -60 40 -60q46 0 53 60h105q-3 -31 -13.5 -61t-30 -53t-50 -37.5t-75.5 -14.5zM346 92h-176l-41 -92h-152l250 497h152l146 -497h-158zM323 189l-37 159l-72 -159h109z" />
    <glyph glyph-name="abreve.ss01" horiz-adv-x="508" 
d="M284 557q-46 0 -74.5 14.5t-43 37.5t-18 53t-0.5 61h107q-7 -60 40 -60q46 0 53 60h105q-3 -31 -13.5 -61t-30 -53t-50 -37.5t-75.5 -14.5zM437 152q-2 -21 4.5 -31.5t28.5 -10.5l-12 -110q-11 -3 -29 -5.5t-35 -2.5q-27 0 -45 6.5t-28.5 17t-15 24.5t-4.5 28
q-9 -15 -22.5 -29t-32.5 -25.5t-44 -18.5t-58 -7q-66 0 -100.5 33.5t-34.5 90.5q0 65 48 106t154 41h91l5 54q7 70 -52 70q-62 0 -62 -61q0 -16 3 -25h-130q-1 2 -3.5 11.5t-2.5 28.5q0 72 54.5 115.5t157.5 43.5q106 0 148 -49.5t33 -138.5zM201 97q32 0 55.5 18t35.5 50
l2 20l-75 -1q-32 0 -46.5 -14t-14.5 -34q0 -18 11.5 -28.5t31.5 -10.5z" />
    <glyph glyph-name="acircumflex.sc" horiz-adv-x="552" 
d="M269 558h-125l107 194h156l67 -194h-126l-30 96zM346 92h-176l-41 -92h-152l250 497h152l146 -497h-158zM323 189l-37 159l-72 -159h109z" />
    <glyph glyph-name="acircumflex.ss01" horiz-adv-x="508" 
d="M242 543h-125l107 194h156l67 -194h-126l-30 96zM437 152q-2 -21 4.5 -31.5t28.5 -10.5l-12 -110q-11 -3 -29 -5.5t-35 -2.5q-27 0 -45 6.5t-28.5 17t-15 24.5t-4.5 28q-9 -15 -22.5 -29t-32.5 -25.5t-44 -18.5t-58 -7q-66 0 -100.5 33.5t-34.5 90.5q0 65 48 106t154 41
h91l5 54q7 70 -52 70q-62 0 -62 -61q0 -16 3 -25h-130q-1 2 -3.5 11.5t-2.5 28.5q0 72 54.5 115.5t157.5 43.5q106 0 148 -49.5t33 -138.5zM201 97q32 0 55.5 18t35.5 50l2 20l-75 -1q-32 0 -46.5 -14t-14.5 -34q0 -18 11.5 -28.5t31.5 -10.5z" />
    <glyph glyph-name="acute.case" horiz-adv-x="274" 
d="M159 902h178l-144 -161h-129z" />
    <glyph glyph-name="acutecomb.case" 
d="M-128 902h178l-144 -161h-129z" />
    <glyph glyph-name="adieresis.sc" horiz-adv-x="552" 
d="M201 567q-38 0 -58 22.5t-20 55.5q0 38 25 66t70 28q38 0 57 -23.5t19 -55.5q0 -38 -24.5 -65.5t-68.5 -27.5zM422 567q-38 0 -58.5 22.5t-20.5 55.5q0 38 25 66t70 28q38 0 57.5 -23.5t19.5 -55.5q0 -38 -25 -65.5t-68 -27.5zM346 92h-176l-41 -92h-152l250 497h152
l146 -497h-158zM323 189l-37 159l-72 -159h109z" />
    <glyph glyph-name="adieresis.ss01" horiz-adv-x="508" 
d="M174 552q-38 0 -58 22.5t-20 55.5q0 38 25 66t70 28q38 0 57 -23.5t19 -55.5q0 -38 -24.5 -65.5t-68.5 -27.5zM395 552q-38 0 -58.5 22.5t-20.5 55.5q0 38 25 66t70 28q38 0 57.5 -23.5t19.5 -55.5q0 -38 -25 -65.5t-68 -27.5zM437 152q-2 -21 4.5 -31.5t28.5 -10.5
l-12 -110q-11 -3 -29 -5.5t-35 -2.5q-27 0 -45 6.5t-28.5 17t-15 24.5t-4.5 28q-9 -15 -22.5 -29t-32.5 -25.5t-44 -18.5t-58 -7q-66 0 -100.5 33.5t-34.5 90.5q0 65 48 106t154 41h91l5 54q7 70 -52 70q-62 0 -62 -61q0 -16 3 -25h-130q-1 2 -3.5 11.5t-2.5 28.5
q0 72 54.5 115.5t157.5 43.5q106 0 148 -49.5t33 -138.5zM201 97q32 0 55.5 18t35.5 50l2 20l-75 -1q-32 0 -46.5 -14t-14.5 -34q0 -18 11.5 -28.5t31.5 -10.5z" />
    <glyph glyph-name="ae.sc" horiz-adv-x="708" 
d="M226 497h471l-11 -113h-270l20 -83h178l-11 -107h-138l20 -81h174l-12 -113h-278l-22 92h-173l-41 -92h-158zM325 191l-36 159l-71 -159h107z" />
    <glyph glyph-name="aeacute.sc" horiz-adv-x="708" 
d="M462 756h171l-149 -200h-122zM226 497h471l-11 -113h-270l20 -83h178l-11 -107h-138l20 -81h174l-12 -113h-278l-22 92h-173l-41 -92h-158zM325 191l-36 159l-71 -159h107z" />
    <glyph glyph-name="agrave.sc" horiz-adv-x="552" 
d="M247 556l-103 200h168l56 -200h-121zM346 92h-176l-41 -92h-152l250 497h152l146 -497h-158zM323 189l-37 159l-72 -159h109z" />
    <glyph glyph-name="agrave.ss01" horiz-adv-x="508" 
d="M221 541l-103 200h168l56 -200h-121zM437 152q-2 -21 4.5 -31.5t28.5 -10.5l-12 -110q-11 -3 -29 -5.5t-35 -2.5q-27 0 -45 6.5t-28.5 17t-15 24.5t-4.5 28q-9 -15 -22.5 -29t-32.5 -25.5t-44 -18.5t-58 -7q-66 0 -100.5 33.5t-34.5 90.5q0 65 48 106t154 41h91l5 54
q7 70 -52 70q-62 0 -62 -61q0 -16 3 -25h-130q-1 2 -3.5 11.5t-2.5 28.5q0 72 54.5 115.5t157.5 43.5q106 0 148 -49.5t33 -138.5zM201 97q32 0 55.5 18t35.5 50l2 20l-75 -1q-32 0 -46.5 -14t-14.5 -34q0 -18 11.5 -28.5t31.5 -10.5z" />
    <glyph glyph-name="amacron.sc" horiz-adv-x="552" 
d="M460 599h-293l12 109h293zM346 92h-176l-41 -92h-152l250 497h152l146 -497h-158zM323 189l-37 159l-72 -159h109z" />
    <glyph glyph-name="amacron.ss01" horiz-adv-x="508" 
d="M433 584h-293l12 109h293zM437 152q-2 -21 4.5 -31.5t28.5 -10.5l-12 -110q-11 -3 -29 -5.5t-35 -2.5q-27 0 -45 6.5t-28.5 17t-15 24.5t-4.5 28q-9 -15 -22.5 -29t-32.5 -25.5t-44 -18.5t-58 -7q-66 0 -100.5 33.5t-34.5 90.5q0 65 48 106t154 41h91l5 54q7 70 -52 70
q-62 0 -62 -61q0 -16 3 -25h-130q-1 2 -3.5 11.5t-2.5 28.5q0 72 54.5 115.5t157.5 43.5q106 0 148 -49.5t33 -138.5zM201 97q32 0 55.5 18t35.5 50l2 20l-75 -1q-32 0 -46.5 -14t-14.5 -34q0 -18 11.5 -28.5t31.5 -10.5z" />
    <glyph glyph-name="ampersand.sc" horiz-adv-x="553" 
d="M470 -7q-23 10 -44 21t-42 23q-36 -26 -81 -38t-96 -12q-88 0 -136.5 34.5t-48.5 103.5q0 48 26.5 86.5t74.5 58.5q-17 37 -17 80q0 40 14 71.5t39.5 54t60.5 34.5t78 12q77 0 115 -31t38 -88q0 -20 -5 -38.5t-11 -29.5h-110q3 5 5.5 13.5t2.5 17.5q0 18 -11.5 28.5
t-34.5 10.5q-58 0 -58 -50q0 -25 17 -49t64 -62q14 -11 30.5 -24.5t36.5 -28.5q5 14 8 28t5 29h104q-6 -64 -29 -113q32 -18 69 -33zM235 83q33 0 60 12q-19 14 -36 27.5t-33 27.5q-30 26 -54 51q-10 -11 -15 -23.5t-5 -29.5q0 -30 20 -47.5t63 -17.5z" />
    <glyph glyph-name="aogonek.sc" horiz-adv-x="552" 
d="M456 -118q11 0 17 2.5t11 6.5l25 -68q-14 -13 -37.5 -19.5t-51.5 -6.5q-51 0 -77 23t-26 65q0 32 16.5 61.5t45.5 53.5h-12l-21 92h-176l-41 -92h-152l250 497h152l146 -497h-23q-35 -15 -54 -39.5t-19 -50.5q0 -15 8 -21.5t19 -6.5zM323 189l-37 159l-72 -159h109z" />
    <glyph glyph-name="aogonek.ss01" horiz-adv-x="508" 
d="M413 -117q11 0 17 2.5t11 6.5l25 -68q-14 -13 -37.5 -19.5t-51.5 -6.5q-51 0 -77 23t-26 65q0 32 17 62t47 55q-21 11 -29 28t-8 37q-9 -15 -22.5 -29t-32.5 -25.5t-44 -18.5t-58 -7q-66 0 -100.5 33.5t-34.5 90.5q0 65 48 106t154 41h91l5 54q7 70 -52 70q-62 0 -62 -61
q0 -16 3 -25h-130q-1 2 -3.5 11.5t-2.5 28.5q0 72 54.5 115.5t157.5 43.5q106 0 148 -49.5t33 -138.5l-16 -156q-2 -21 4.5 -31.5t28.5 -10.5l-12 -108l1 -1h-1v-1q-2 0 -3 -1q-32 -15 -50.5 -39t-18.5 -49q0 -15 8 -21.5t19 -6.5zM201 97q32 0 55.5 18t35.5 50l2 20l-75 -1
q-32 0 -46.5 -14t-14.5 -34q0 -18 11.5 -28.5t31.5 -10.5z" />
    <glyph glyph-name="aring.sc" horiz-adv-x="552" 
d="M310 535q-51 0 -80.5 31.5t-29.5 77.5q0 58 35.5 95.5t92.5 37.5q51 0 80 -31.5t29 -78.5q0 -28 -9 -52t-26 -42t-40 -28t-52 -10zM321 700q-20 0 -31.5 -14t-11.5 -35q0 -18 11 -28.5t28 -10.5q20 0 31.5 14t11.5 35q0 17 -10.5 28t-28.5 11zM346 92h-176l-41 -92h-152
l250 497h152l146 -497h-158zM323 189l-37 159l-72 -159h109z" />
    <glyph glyph-name="aring.ss01" horiz-adv-x="508" 
d="M284 520q-51 0 -80.5 31.5t-29.5 77.5q0 58 35.5 95.5t92.5 37.5q51 0 80 -31.5t29 -78.5q0 -28 -9 -52t-26 -42t-40 -28t-52 -10zM295 685q-20 0 -31.5 -14t-11.5 -35q0 -18 11 -28.5t28 -10.5q20 0 31.5 14t11.5 35q0 17 -10.5 28t-28.5 11zM437 152q-2 -21 4.5 -31.5
t28.5 -10.5l-12 -110q-11 -3 -29 -5.5t-35 -2.5q-27 0 -45 6.5t-28.5 17t-15 24.5t-4.5 28q-9 -15 -22.5 -29t-32.5 -25.5t-44 -18.5t-58 -7q-66 0 -100.5 33.5t-34.5 90.5q0 65 48 106t154 41h91l5 54q7 70 -52 70q-62 0 -62 -61q0 -16 3 -25h-130q-1 2 -3.5 11.5
t-2.5 28.5q0 72 54.5 115.5t157.5 43.5q106 0 148 -49.5t33 -138.5zM201 97q32 0 55.5 18t35.5 50l2 20l-75 -1q-32 0 -46.5 -14t-14.5 -34q0 -18 11.5 -28.5t31.5 -10.5z" />
    <glyph glyph-name="aringacute.sc" horiz-adv-x="562" 
d="M430 596q0 -34 -13 -61.5t-36 -44.5l144 -490h-158l-21 92h-176l-41 -92h-152l248 493q-16 14 -24 35t-8 45q0 47 23 80.5t64 45.5l79 134h178l-140 -156q33 -30 33 -81zM314 628q-20 0 -32 -13.5t-12 -34.5q0 -19 11 -29t29 -10q20 0 31.5 14t11.5 34q0 17 -11 28
t-28 11zM323 189l-37 159l-72 -159h109z" />
    <glyph glyph-name="aringacute.ss01" horiz-adv-x="508" 
d="M284 520q-51 0 -80.5 31.5t-29.5 77.5q0 48 24 82t65 46l70 142h171l-123 -168q30 -30 30 -79q0 -28 -9 -52t-26 -42t-40 -28t-52 -10zM291 597q20 0 31.5 14t11.5 35q0 17 -10.5 28t-28.5 11q-20 0 -31.5 -14t-11.5 -35q0 -18 11 -28.5t28 -10.5zM437 152
q-2 -21 4.5 -31.5t28.5 -10.5l-12 -110q-11 -3 -29 -5.5t-35 -2.5q-27 0 -45 6.5t-28.5 17t-15 24.5t-4.5 28q-9 -15 -22.5 -29t-32.5 -25.5t-44 -18.5t-58 -7q-66 0 -100.5 33.5t-34.5 90.5q0 65 48 106t154 41h91l5 54q7 70 -52 70q-62 0 -62 -61q0 -16 3 -25h-130
q-1 2 -3.5 11.5t-2.5 28.5q0 72 54.5 115.5t157.5 43.5q106 0 148 -49.5t33 -138.5zM201 97q32 0 55.5 18t35.5 50l2 20l-75 -1q-32 0 -46.5 -14t-14.5 -34q0 -18 11.5 -28.5t31.5 -10.5z" />
    <glyph glyph-name="atilde.sc" horiz-adv-x="552" 
d="M140 539q-4 8 -6.5 21.5t-2.5 27.5q0 48 30.5 78t78.5 30q22 0 40 -6t34 -13.5t29.5 -14t25.5 -6.5q26 0 26 25q0 10 -3 16h93q5 -9 6.5 -22t1.5 -24q0 -49 -28.5 -79.5t-78.5 -30.5q-25 0 -44.5 6.5t-35 14t-27.5 13.5t-23 6q-12 0 -19.5 -6.5t-7.5 -18.5q0 -9 4 -17
h-93zM346 92h-176l-41 -92h-152l250 497h152l146 -497h-158zM323 189l-37 159l-72 -159h109z" />
    <glyph glyph-name="atilde.ss01" horiz-adv-x="508" 
d="M125 549q-5 8 -7 22t-2 28q0 48 29.5 78t77.5 30q21 0 38 -6.5t32 -14t27.5 -14t23.5 -6.5t19 6t8 19q0 5 -1 10.5t-4 8.5h88q5 -10 7 -23.5t2 -24.5q0 -49 -29.5 -79.5t-77.5 -30.5q-22 0 -40 6.5t-32 14.5t-25.5 14.5t-20.5 6.5q-28 0 -28 -26q0 -12 5 -19h-90z
M437 152q-2 -21 4.5 -31.5t28.5 -10.5l-12 -110q-11 -3 -29 -5.5t-35 -2.5q-27 0 -45 6.5t-28.5 17t-15 24.5t-4.5 28q-9 -15 -22.5 -29t-32.5 -25.5t-44 -18.5t-58 -7q-66 0 -100.5 33.5t-34.5 90.5q0 65 48 106t154 41h91l5 54q7 70 -52 70q-62 0 -62 -61q0 -16 3 -25
h-130q-1 2 -3.5 11.5t-2.5 28.5q0 72 54.5 115.5t157.5 43.5q106 0 148 -49.5t33 -138.5zM201 97q32 0 55.5 18t35.5 50l2 20l-75 -1q-32 0 -46.5 -14t-14.5 -34q0 -18 11.5 -28.5t31.5 -10.5z" />
    <glyph glyph-name="b.sc" horiz-adv-x="515" 
d="M399 277q35 -11 57.5 -37t22.5 -74q0 -46 -18 -78t-49 -51.5t-71 -28t-85 -8.5h-221l52 497h225q79 0 122 -26.5t43 -83.5q0 -42 -19.5 -70t-58.5 -40zM214 303h53q28 0 44.5 14.5t16.5 40.5q0 20 -12.5 32t-38.5 12h-53zM257 95q30 0 51.5 12.5t21.5 50.5q0 51 -64 51
h-62l-12 -114h65z" />
    <glyph glyph-name="braceleft.sc" horiz-adv-x="312" 
d="M242 -88q-39 -5 -73 1t-59 25.5t-37.5 54t-6.5 85.5l7 70q3 26 -11.5 37t-31.5 11h-8l12 107h8q17 0 33.5 10.5t19.5 36.5l7 70q6 52 25.5 86.5t48 54t64.5 25.5t73 0l-13 -117q-35 11 -57 -9.5t-27 -62.5l-8 -79q-4 -37 -19 -51t-24 -17q3 -1 8.5 -6t10.5 -14t8.5 -21.5
t1.5 -28.5l-8 -78q-5 -41 13.5 -62t54.5 -10z" />
    <glyph glyph-name="braceright.sc" horiz-adv-x="320" 
d="M79 588q38 5 72.5 -0.5t59 -25t37 -54t6.5 -86.5l-7 -70q-3 -26 11.5 -37t31.5 -11h8l-11 -107h-8q-17 0 -33.5 -10.5t-19.5 -36.5l-8 -70q-5 -52 -24.5 -86.5t-48.5 -54t-64.5 -25.5t-72.5 0l13 117q34 -11 56 10t27 63l8 78q4 37 19.5 51.5t23.5 16.5q-3 1 -8.5 6
t-10.5 14t-8 21.5t-2 28.5l9 78q5 42 -13.5 62.5t-54.5 10.5z" />
    <glyph glyph-name="bracketleft.sc" horiz-adv-x="329" 
d="M103 596h231l-12 -110h-105l-49 -469h105l-12 -109h-231z" />
    <glyph glyph-name="bracketright.sc" horiz-adv-x="329" 
d="M8 17h105l50 468h-105l12 110h231l-73 -688h-231z" />
    <glyph glyph-name="breve.case" horiz-adv-x="327" 
d="M216 742q-41 0 -68.5 13.5t-43.5 35.5t-21.5 50.5t-2.5 59.5h106q-3 -26 6.5 -42t34.5 -16t37 16t15 42h106q-3 -31 -14.5 -59.5t-32 -50.5t-50.5 -35.5t-72 -13.5z" />
    <glyph glyph-name="c.sc" horiz-adv-x="513" 
d="M252 -13q-103 0 -163 56t-60 168q0 66 18.5 121t54 94.5t87 61.5t118.5 22q39 0 73 -8.5t59.5 -26t40 -45t14.5 -65.5q0 -20 -3.5 -36.5t-8.5 -30.5h-136q5 15 5 32q0 22 -13.5 34.5t-44.5 12.5q-52 0 -79 -44t-27 -111q0 -54 24.5 -80.5t65.5 -26.5q37 0 60.5 14.5
t43.5 40.5l93 -72q-32 -49 -84.5 -80t-137.5 -31z" />
    <glyph glyph-name="cacute.sc" horiz-adv-x="513" 
d="M329 756h171l-149 -200h-122zM252 -13q-103 0 -163 56t-60 168q0 66 18.5 121t54 94.5t87 61.5t118.5 22q39 0 73 -8.5t59.5 -26t40 -45t14.5 -65.5q0 -20 -3.5 -36.5t-8.5 -30.5h-136q5 15 5 32q0 22 -13.5 34.5t-44.5 12.5q-52 0 -79 -44t-27 -111q0 -54 24.5 -80.5
t65.5 -26.5q37 0 60.5 14.5t43.5 40.5l93 -72q-32 -49 -84.5 -80t-137.5 -31z" />
    <glyph glyph-name="caron.alt" horiz-adv-x="294" 
d="M54 527q32 11 43.5 26t13.5 29q-27 6 -40 23.5t-13 42.5q0 34 22.5 56t57.5 22q34 0 54.5 -21t20.5 -60q0 -59 -37 -107t-103 -68z" />
    <glyph glyph-name="caron.case" horiz-adv-x="349" 
d="M80 902h126l31 -72l48 72h126l-104 -161h-158z" />
    <glyph glyph-name="caroncomb.alt" 
d="M-131 527q32 11 43 26t13 29q-26 6 -39.5 23.5t-13.5 42.5q0 34 22.5 56t58.5 22q33 0 53.5 -21t20.5 -60q0 -59 -36.5 -107t-102.5 -68z" />
    <glyph glyph-name="ccaron.sc" horiz-adv-x="513" 
d="M162 752h126l29 -96l49 96h126l-107 -194h-156zM252 -13q-103 0 -163 56t-60 168q0 66 18.5 121t54 94.5t87 61.5t118.5 22q39 0 73 -8.5t59.5 -26t40 -45t14.5 -65.5q0 -20 -3.5 -36.5t-8.5 -30.5h-136q5 15 5 32q0 22 -13.5 34.5t-44.5 12.5q-52 0 -79 -44t-27 -111
q0 -54 24.5 -80.5t65.5 -26.5q37 0 60.5 14.5t43.5 40.5l93 -72q-32 -49 -84.5 -80t-137.5 -31z" />
    <glyph glyph-name="ccedilla.sc" horiz-adv-x="513" 
d="M346 298q5 15 5 32q0 22 -13.5 34.5t-44.5 12.5q-52 0 -79 -44t-27 -111q0 -54 24.5 -80.5t65.5 -26.5q37 0 60.5 14.5t43.5 40.5l93 -72q-28 -44 -72.5 -73.5t-113.5 -35.5l-11 -25q29 -8 48 -26.5t19 -54.5q0 -51 -35.5 -77.5t-97.5 -26.5q-35 0 -64.5 9t-44.5 26
l51 63q9 -10 22.5 -16t29.5 -6q35 0 35 28q0 16 -17.5 24.5t-48.5 10.5l32 72q-82 12 -129.5 67t-47.5 154q0 66 18.5 121t54 94.5t87 61.5t118.5 22q39 0 73 -8.5t59.5 -26t40 -45t14.5 -65.5q0 -20 -3.5 -36.5t-8.5 -30.5h-136z" />
    <glyph glyph-name="ccircumflex.sc" horiz-adv-x="513" 
d="M249 752h156l67 -194h-126l-30 96l-49 -96h-125zM252 -13q-103 0 -163 56t-60 168q0 66 18.5 121t54 94.5t87 61.5t118.5 22q39 0 73 -8.5t59.5 -26t40 -45t14.5 -65.5q0 -20 -3.5 -36.5t-8.5 -30.5h-136q5 15 5 32q0 22 -13.5 34.5t-44.5 12.5q-52 0 -79 -44t-27 -111
q0 -54 24.5 -80.5t65.5 -26.5q37 0 60.5 14.5t43.5 40.5l93 -72q-32 -49 -84.5 -80t-137.5 -31z" />
    <glyph glyph-name="cdotaccent.sc" horiz-adv-x="513" 
d="M309 566q-40 0 -61 23.5t-21 58.5q0 39 26 68t73 29q39 0 59 -24.5t20 -57.5q0 -40 -25.5 -68.5t-70.5 -28.5zM252 -13q-103 0 -163 56t-60 168q0 66 18.5 121t54 94.5t87 61.5t118.5 22q39 0 73 -8.5t59.5 -26t40 -45t14.5 -65.5q0 -20 -3.5 -36.5t-8.5 -30.5h-136
q5 15 5 32q0 22 -13.5 34.5t-44.5 12.5q-52 0 -79 -44t-27 -111q0 -54 24.5 -80.5t65.5 -26.5q37 0 60.5 14.5t43.5 40.5l93 -72q-32 -49 -84.5 -80t-137.5 -31z" />
    <glyph glyph-name="cent.osf" horiz-adv-x="488" 
d="M274 137q29 0 44.5 8.5t32.5 22.5l98 -70q-23 -35 -61 -60t-86 -34l-7 -75h-130l8 79q-66 20 -103.5 74.5t-37.5 135.5q0 108 53 178t141 91l8 70h127l-7 -67q92 -17 128 -94l-120 -74q-11 15 -27.5 25t-44.5 10q-25 0 -44 -11t-31.5 -28.5t-18.5 -40.5t-6 -47
q0 -45 21 -69t63 -24z" />
    <glyph glyph-name="cent.sc" horiz-adv-x="484" 
d="M302 141q23 5 46 27l99 -70q-23 -35 -61 -60t-86 -34l-8 -75h-129l8 79q-66 20 -104 74.5t-38 135.5q0 108 53.5 178t141.5 91l7 70h128l-7 -67q92 -17 127 -94l-119 -74q-8 11 -16.5 18.5t-19.5 11.5zM242 346q-29 -16 -41.5 -49t-12.5 -71q0 -55 33 -76z" />
    <glyph glyph-name="circumflex.case" horiz-adv-x="353" 
d="M164 902h158l70 -161h-127l-32 71l-47 -71h-125z" />
    <glyph glyph-name="currency.osf" horiz-adv-x="547" 
d="M8 71l86 79q-8 17 -12 37.5t-4 42.5q0 60 36 115l-66 76l82 75l64 -77q48 30 104 30q27 0 51 -7.5t44 -21.5l81 76l66 -75l-81 -75q16 -38 16 -80q0 -32 -8.5 -61.5t-28.5 -57.5l63 -70l-82 -74l-63 70q-22 -14 -48 -20.5t-52 -6.5q-54 0 -98 28l-83 -77zM268 158
q18 0 35 7.5t30 20.5t21 30.5t8 38.5q0 35 -21 58.5t-55 23.5q-19 0 -36 -7.5t-30 -20.5t-21 -31t-8 -39q0 -34 21 -57.5t56 -23.5z" />
    <glyph glyph-name="currency.sc" horiz-adv-x="546" 
d="M9 71l85 80q-8 17 -11.5 37.5t-3.5 41.5q0 62 35 115l-65 76l80 74l64 -76q50 30 104 30t95 -30l82 76l66 -74l-82 -76q16 -37 16 -79q0 -62 -36 -118l62 -71l-81 -73l-62 71q-46 -29 -101 -29t-98 30l-83 -79zM271 158q42 0 66.5 28.5t24.5 68.5q0 38 -21 60t-59 22
q-43 0 -67 -28.5t-24 -69.5q0 -37 21 -59t59 -22z" />
    <glyph glyph-name="d.sc" horiz-adv-x="554" 
d="M87 497h173q56 0 104.5 -11.5t84.5 -37t56.5 -67t20.5 -102.5q0 -80 -26.5 -133.5t-69.5 -86t-98 -46t-112 -13.5h-185zM237 117q69 0 101.5 42.5t32.5 108.5q0 47 -24.5 79.5t-83.5 32.5h-40l-28 -263h42z" />
    <glyph glyph-name="dcaron.sc" horiz-adv-x="554" 
d="M158 752h126l29 -96l49 96h126l-107 -194h-156zM87 497h173q56 0 104.5 -11.5t84.5 -37t56.5 -67t20.5 -102.5q0 -80 -26.5 -133.5t-69.5 -86t-98 -46t-112 -13.5h-185zM237 117q69 0 101.5 42.5t32.5 108.5q0 47 -24.5 79.5t-83.5 32.5h-40l-28 -263h42z" />
    <glyph glyph-name="dcroat.sc" horiz-adv-x="598" 
d="M286 497q56 0 104.5 -11.5t84.5 -37t56.5 -67t20.5 -102.5q0 -80 -26.5 -133.5t-69.5 -86t-98 -46t-112 -13.5h-185l21 197h-59l11 105h59l20 195h173zM263 117q69 0 101.5 42t32.5 108q0 47 -24.5 80t-83.5 33h-40l-8 -78h84l-10 -105h-85l-9 -80h42z" />
    <glyph glyph-name="dieresis.case" horiz-adv-x="425" 
d="M135 741q-38 0 -59 23t-21 56q0 45 28 70t66 25t58.5 -23t20.5 -57q0 -45 -27 -69.5t-66 -24.5zM382 741q-39 0 -60 22t-21 57q0 45 28.5 70t66.5 25t57.5 -23t19.5 -56q0 -46 -26.5 -70.5t-64.5 -24.5z" />
    <glyph glyph-name="dollar.osf" horiz-adv-x="490" 
d="M175 1q-58 5 -103.5 26.5t-65.5 50.5l83 94q29 -32 66.5 -45t87.5 -13q33 0 53 9t20 29q0 18 -21 26.5t-70 16.5q-28 5 -59 12t-56.5 21.5t-42 37.5t-16.5 60q0 72 47.5 110t127.5 47l8 79h93l-8 -80q32 -3 61.5 -13t50 -28.5t27.5 -46.5t-6 -68h-121q9 27 -8 39t-62 12
q-39 0 -56.5 -9.5t-17.5 -29.5q0 -18 20.5 -26t71.5 -16q32 -6 63 -13t56 -21t40 -37t15 -60q0 -72 -50 -113t-134 -48l-9 -84h-93z" />
    <glyph glyph-name="dollar.sc" horiz-adv-x="492" 
d="M331 326q13 35 -23 46l-8 -80q29 -5 56.5 -13t49 -22t34.5 -36t13 -56q0 -72 -49.5 -113t-133.5 -48l-9 -84h-93l8 81q-58 6 -103.5 27t-65.5 50l82 94q22 -23 48.5 -36.5t58.5 -18.5l8 82q-27 5 -54 13t-49 22t-36 36.5t-14 55.5q0 72 48 110t128 47l8 79h93l-8 -80
q32 -3 61.5 -13t50 -28.5t27.5 -46.5t-6 -68h-122zM185 338q0 -21 31 -29l7 65q-38 -7 -38 -36zM316 152q0 19 -28 29l-7 -64q35 8 35 35z" />
    <glyph glyph-name="dotaccent.case" horiz-adv-x="191" 
d="M148 739q-37 0 -57.5 23t-20.5 58q0 41 28 68t68 27q38 0 58.5 -24t20.5 -57q0 -40 -26.5 -67.5t-70.5 -27.5z" />
    <glyph glyph-name="dotlessi.sc" horiz-adv-x="268" 
d="M87 497h148l-52 -497h-148z" />
    <glyph glyph-name="dotlessi.ss01" horiz-adv-x="253" 
d="M79 482h147l-51 -482h-147z" />
    <glyph glyph-name="e.sc" horiz-adv-x="457" 
d="M87 497h357l-11 -113h-210l-9 -79h186l-12 -108h-185l-9 -83h211l-11 -114h-359z" />
    <glyph glyph-name="e.ss01" horiz-adv-x="488" 
d="M173 217v-2q0 -109 87 -109q39 0 60.5 14.5t40.5 42.5l85 -71q-29 -46 -77.5 -75.5t-132.5 -29.5q-99 0 -154.5 58t-55.5 161q0 66 17.5 119.5t50 91.5t79 58.5t104.5 20.5q89 0 137 -51t48 -145q0 -29 -3 -49.5t-6 -33.5h-280zM266 381q-38 0 -58 -23.5t-28 -60.5h144
q5 38 -10 61t-48 23z" />
    <glyph glyph-name="eacute.sc" horiz-adv-x="457" 
d="M300 756h171l-149 -200h-122zM87 497h357l-11 -113h-210l-9 -79h186l-12 -108h-185l-9 -83h211l-11 -114h-359z" />
    <glyph glyph-name="eacute.ss01" horiz-adv-x="488" 
d="M324 541h-122l100 200h171zM277 496q89 0 137 -51t48 -145q0 -29 -3 -49.5t-6 -33.5h-280v-2q0 -109 87 -109q39 0 60.5 14.5t40.5 42.5l85 -71q-29 -46 -77.5 -75.5t-132.5 -29.5q-99 0 -154.5 58t-55.5 161q0 66 17.5 119.5t50 91.5t79 58.5t104.5 20.5zM324 297
q5 38 -10 61t-48 23q-38 0 -58 -23.5t-28 -60.5h144z" />
    <glyph glyph-name="ebreve.sc" horiz-adv-x="457" 
d="M280 572q-46 0 -74.5 14.5t-43 37.5t-18 53t-0.5 61h107q-7 -60 40 -60q46 0 53 60h105q-3 -31 -13.5 -61t-30 -53t-50 -37.5t-75.5 -14.5zM87 497h357l-11 -113h-210l-9 -79h186l-12 -108h-185l-9 -83h211l-11 -114h-359z" />
    <glyph glyph-name="ebreve.ss01" horiz-adv-x="488" 
d="M281 557q-46 0 -74.5 14.5t-43 37.5t-18 53t-0.5 61h107q-7 -60 40 -60q46 0 53 60h105q-3 -31 -13.5 -61t-30 -53t-50 -37.5t-75.5 -14.5zM173 217v-2q0 -109 87 -109q39 0 60.5 14.5t40.5 42.5l85 -71q-29 -46 -77.5 -75.5t-132.5 -29.5q-99 0 -154.5 58t-55.5 161
q0 66 17.5 119.5t50 91.5t79 58.5t104.5 20.5q89 0 137 -51t48 -145q0 -29 -3 -49.5t-6 -33.5h-280zM266 381q-38 0 -58 -23.5t-28 -60.5h144q5 38 -10 61t-48 23z" />
    <glyph glyph-name="ecaron.sc" horiz-adv-x="457" 
d="M133 752h126l29 -96l49 96h126l-107 -194h-156zM87 497h357l-11 -113h-210l-9 -79h186l-12 -108h-185l-9 -83h211l-11 -114h-359z" />
    <glyph glyph-name="ecaron.ss01" horiz-adv-x="488" 
d="M201 543l-67 194h126l29 -96l49 96h126l-107 -194h-156zM277 496q89 0 137 -51t48 -145q0 -29 -3 -49.5t-6 -33.5h-280v-2q0 -109 87 -109q39 0 60.5 14.5t40.5 42.5l85 -71q-29 -46 -77.5 -75.5t-132.5 -29.5q-99 0 -154.5 58t-55.5 161q0 66 17.5 119.5t50 91.5
t79 58.5t104.5 20.5zM324 297q5 38 -10 61t-48 23q-38 0 -58 -23.5t-28 -60.5h144z" />
    <glyph glyph-name="ecircumflex.sc" horiz-adv-x="457" 
d="M220 752h156l67 -194h-126l-30 96l-49 -96h-125zM87 497h357l-11 -113h-210l-9 -79h186l-12 -108h-185l-9 -83h211l-11 -114h-359z" />
    <glyph glyph-name="ecircumflex.ss01" horiz-adv-x="488" 
d="M239 543h-125l107 194h156l67 -194h-126l-30 96zM173 217v-2q0 -109 87 -109q39 0 60.5 14.5t40.5 42.5l85 -71q-29 -46 -77.5 -75.5t-132.5 -29.5q-99 0 -154.5 58t-55.5 161q0 66 17.5 119.5t50 91.5t79 58.5t104.5 20.5q89 0 137 -51t48 -145q0 -29 -3 -49.5t-6 -33.5
h-280zM266 381q-38 0 -58 -23.5t-28 -60.5h144q5 38 -10 61t-48 23z" />
    <glyph glyph-name="edieresis.sc" horiz-adv-x="457" 
d="M170 567q-38 0 -58 22.5t-20 55.5q0 38 25 66t70 28q38 0 57 -23.5t19 -55.5q0 -38 -24.5 -65.5t-68.5 -27.5zM391 567q-38 0 -58.5 22.5t-20.5 55.5q0 38 25 66t70 28q38 0 57.5 -23.5t19.5 -55.5q0 -38 -25 -65.5t-68 -27.5zM87 497h357l-11 -113h-210l-9 -79h186
l-12 -108h-185l-9 -83h211l-11 -114h-359z" />
    <glyph glyph-name="edieresis.ss01" horiz-adv-x="488" 
d="M171 552q-38 0 -58 22.5t-20 55.5q0 38 25 66t70 28q38 0 57 -23.5t19 -55.5q0 -38 -24.5 -65.5t-68.5 -27.5zM392 552q-38 0 -58.5 22.5t-20.5 55.5q0 38 25 66t70 28q38 0 57.5 -23.5t19.5 -55.5q0 -38 -25 -65.5t-68 -27.5zM277 496q89 0 137 -51t48 -145
q0 -29 -3 -49.5t-6 -33.5h-280v-2q0 -109 87 -109q39 0 60.5 14.5t40.5 42.5l85 -71q-29 -46 -77.5 -75.5t-132.5 -29.5q-99 0 -154.5 58t-55.5 161q0 66 17.5 119.5t50 91.5t79 58.5t104.5 20.5zM324 297q5 38 -10 61t-48 23q-38 0 -58 -23.5t-28 -60.5h144z" />
    <glyph glyph-name="edotaccent.sc" horiz-adv-x="457" 
d="M281 566q-40 0 -61 23.5t-21 58.5q0 39 26 68t73 29q39 0 59 -24.5t20 -57.5q0 -40 -25.5 -68.5t-70.5 -28.5zM87 497h357l-11 -113h-210l-9 -79h186l-12 -108h-185l-9 -83h211l-11 -114h-359z" />
    <glyph glyph-name="edotaccent.ss01" horiz-adv-x="488" 
d="M282 551q-40 0 -61 23.5t-21 58.5q0 39 26 68t73 29q39 0 59 -24.5t20 -57.5q0 -40 -25.5 -68.5t-70.5 -28.5zM173 217v-2q0 -109 87 -109q39 0 60.5 14.5t40.5 42.5l85 -71q-29 -46 -77.5 -75.5t-132.5 -29.5q-99 0 -154.5 58t-55.5 161q0 66 17.5 119.5t50 91.5
t79 58.5t104.5 20.5q89 0 137 -51t48 -145q0 -29 -3 -49.5t-6 -33.5h-280zM266 381q-38 0 -58 -23.5t-28 -60.5h144q5 38 -10 61t-48 23z" />
    <glyph glyph-name="egrave.sc" horiz-adv-x="457" 
d="M114 756h168l56 -200h-121zM87 497h357l-11 -113h-210l-9 -79h186l-12 -108h-185l-9 -83h211l-11 -114h-359z" />
    <glyph glyph-name="egrave.ss01" horiz-adv-x="488" 
d="M218 541l-103 200h168l56 -200h-121zM173 217v-2q0 -109 87 -109q39 0 60.5 14.5t40.5 42.5l85 -71q-29 -46 -77.5 -75.5t-132.5 -29.5q-99 0 -154.5 58t-55.5 161q0 66 17.5 119.5t50 91.5t79 58.5t104.5 20.5q89 0 137 -51t48 -145q0 -29 -3 -49.5t-6 -33.5h-280z
M266 381q-38 0 -58 -23.5t-28 -60.5h144q5 38 -10 61t-48 23z" />
    <glyph glyph-name="eight.dnom" horiz-adv-x="383" 
d="M145 -6q-69 0 -108.5 23t-39.5 71q0 33 19.5 61.5t51.5 42.5q-15 11 -25 30.5t-10 45.5q0 51 40 87.5t118 36.5q60 0 95 -25.5t35 -70.5q0 -34 -16.5 -56.5t-38.5 -33.5q26 -12 38 -34.5t12 -51.5q0 -60 -46.5 -93t-124.5 -33zM197 228q9 7 19 18.5t10 33.5q0 17 -12 29
t-35 12t-37.5 -12t-14.5 -32q0 -12 6.5 -22.5t24.5 -15.5zM153 64q30 0 49 11.5t19 35.5q0 28 -38 37l-57 16q-10 -6 -20.5 -20.5t-10.5 -34.5q0 -45 58 -45z" />
    <glyph glyph-name="eight.numr" horiz-adv-x="383" 
d="M145 314q-69 0 -108.5 23.5t-39.5 71.5q0 32 19.5 60.5t51.5 42.5q-15 12 -25 31t-10 45q0 51 40 87.5t118 36.5q60 0 95 -25.5t35 -70.5q0 -34 -16.5 -56t-38.5 -33q26 -12 38 -35t12 -52q0 -60 -46.5 -93t-124.5 -33zM197 548q9 7 19 18.5t10 33.5q0 18 -12 29.5
t-35 11.5t-37.5 -12t-14.5 -32q0 -11 6.5 -22t24.5 -16zM153 385q30 0 49 11.5t19 34.5q0 27 -38 38l-57 15q-10 -6 -20.5 -20t-10.5 -35q0 -44 58 -44z" />
    <glyph glyph-name="eight.osf" horiz-adv-x="552" 
d="M439 369q39 -25 61 -63.5t22 -88.5q0 -55 -19.5 -96.5t-55 -69.5t-85.5 -42.5t-110 -14.5q-106 0 -166 44t-60 129q0 31 9 59t24 52.5t35 44t42 33.5q-28 25 -46.5 59.5t-18.5 81.5q0 49 18.5 87.5t51.5 65.5t78.5 41.5t99.5 14.5q48 0 87.5 -12t68 -34t44 -53.5
t15.5 -70.5q0 -53 -25 -94.5t-70 -72.5zM309 588q-38 0 -62.5 -19.5t-24.5 -62.5q0 -29 17 -48.5t45 -28.5l53 -18q26 18 38 45t12 57q0 38 -21.5 56.5t-56.5 18.5zM268 111q46 0 73.5 23.5t27.5 66.5q0 30 -14.5 49t-47.5 30l-78 26q-25 -21 -40 -49t-15 -61
q0 -38 23.5 -61.5t70.5 -23.5z" />
    <glyph glyph-name="eight.sc" horiz-adv-x="495" 
d="M385 266q34 -18 52 -46.5t18 -66.5q0 -82 -62 -124t-173 -42q-96 0 -149 32.5t-53 97.5q0 48 26 81t70 53q-23 18 -37 43.5t-14 59.5q0 75 57 115.5t154 40.5q88 0 136 -35t48 -92q0 -32 -15.5 -62.5t-57.5 -54.5zM265 405q-31 0 -47.5 -13.5t-16.5 -37.5
q0 -19 13.5 -29.5t33.5 -15.5l33 -9q23 14 32 29t9 31q0 21 -14 33t-43 12zM232 87q39 0 61.5 13.5t22.5 43.5q0 19 -11.5 30.5t-38.5 19.5l-64 17q-21 -12 -33 -29.5t-12 -39.5q0 -29 20.5 -42t54.5 -13z" />
    <glyph glyph-name="eight.sinf" horiz-adv-x="371" 
d="M145 -141q-69 0 -108.5 23.5t-39.5 71.5q0 32 19.5 60.5t51.5 42.5q-15 12 -25 31t-10 45q0 51 40 87.5t118 36.5q60 0 95 -25.5t35 -70.5q0 -34 -16.5 -56t-38.5 -33q26 -12 38 -35t12 -52q0 -60 -46.5 -93t-124.5 -33zM197 93q9 7 19 18.5t10 33.5q0 18 -12 29.5
t-35 11.5t-37.5 -12t-14.5 -32q0 -11 6.5 -22t24.5 -16zM153 -70q30 0 49 11.5t19 34.5q0 27 -38 38l-57 15q-10 -6 -20.5 -20t-10.5 -35q0 -44 58 -44z" />
    <glyph glyph-name="eight.sups" horiz-adv-x="383" 
d="M145 379q-69 0 -108.5 23.5t-39.5 71.5q0 32 19.5 60.5t51.5 42.5q-15 12 -25 31t-10 45q0 51 40 87.5t118 36.5q60 0 95 -25.5t35 -70.5q0 -34 -16.5 -56t-38.5 -33q26 -12 38 -35t12 -52q0 -60 -46.5 -93t-124.5 -33zM197 613q9 7 19 18.5t10 33.5q0 18 -12 29.5
t-35 11.5t-37.5 -12t-14.5 -32q0 -11 6.5 -22t24.5 -16zM153 450q30 0 49 11.5t19 34.5q0 27 -38 38l-57 15q-10 -6 -20.5 -20t-10.5 -35q0 -44 58 -44z" />
    <glyph glyph-name="emacron.sc" horiz-adv-x="457" 
d="M148 708h293l-12 -109h-293zM87 497h357l-11 -113h-210l-9 -79h186l-12 -108h-185l-9 -83h211l-11 -114h-359z" />
    <glyph glyph-name="emacron.ss01" horiz-adv-x="488" 
d="M430 584h-293l12 109h293zM173 217v-2q0 -109 87 -109q39 0 60.5 14.5t40.5 42.5l85 -71q-29 -46 -77.5 -75.5t-132.5 -29.5q-99 0 -154.5 58t-55.5 161q0 66 17.5 119.5t50 91.5t79 58.5t104.5 20.5q89 0 137 -51t48 -145q0 -29 -3 -49.5t-6 -33.5h-280zM266 381
q-38 0 -58 -23.5t-28 -60.5h144q5 38 -10 61t-48 23z" />
    <glyph glyph-name="eng.sc" horiz-adv-x="568" 
d="M535 497l-52 -497l-1 -12q-11 -110 -75 -168t-162 -58q-43 0 -79 12.5t-55 37.5l96 114q18 -21 53 -21q30 0 54 19t29 67l2 17l-135 257l-10 20l-27 -285h-138l52 497h134l135 -257l15 -31l28 288h136z" />
    <glyph glyph-name="eng.ss01" horiz-adv-x="545" 
d="M359 496q78 0 116 -48t27 -144l-32 -304h1l-2 -12q-11 -109 -67 -166.5t-163 -57.5q-45 0 -83 11.5t-58 36.5l96 114q9 -11 22.5 -18t30.5 -7q35 0 53 21t23 69l1 9l31 288q4 40 -12.5 58.5t-45.5 18.5q-31 0 -52 -22t-25 -60l-30 -283h-146l35 330q4 41 -34 41l11 110
q11 4 29 6t39 2q45 0 65.5 -19.5t25.5 -49.5l1 -1q17 31 51.5 54t91.5 23z" />
    <glyph glyph-name="eogonek.sc" horiz-adv-x="457" 
d="M223 384l-9 -79h186l-12 -108h-185l-9 -83h211l-11 -114q-35 -15 -54 -39.5t-19 -50.5q0 -15 8 -21.5t19 -6.5t17 2.5t11 6.5l25 -68q-14 -13 -37.5 -19.5t-51.5 -6.5q-51 0 -77 23t-26 65q0 32 16.5 61.5t45.5 53.5h-236l52 497h357l-11 -113h-210z" />
    <glyph glyph-name="eogonek.ss01" horiz-adv-x="488" 
d="M173 217v-2q0 -109 87 -109q39 0 60.5 14.5t40.5 42.5l85 -71q-20 -32 -49.5 -57t-74.5 -37q-29 -16 -45.5 -39t-16.5 -46q0 -15 8 -21.5t19 -6.5t17 2.5t11 6.5l25 -68q-14 -13 -37.5 -19.5t-51.5 -6.5q-51 0 -77 23t-26 65q0 28 12.5 53.5t35.5 48.5q-81 11 -125.5 68
t-44.5 148q0 66 17.5 119.5t50 91.5t79 58.5t104.5 20.5q89 0 137 -51t48 -145q0 -29 -3 -49.5t-6 -33.5h-280zM266 381q-38 0 -58 -23.5t-28 -60.5h144q5 38 -10 61t-48 23z" />
    <glyph glyph-name="eth.sc" horiz-adv-x="585" 
d="M286 497q56 0 104.5 -11.5t84.5 -37t56.5 -67t20.5 -102.5q0 -80 -26.5 -133.5t-69.5 -86t-98 -46t-112 -13.5h-185l21 197h-59l10 105h60l20 195h173zM263 117q69 0 101.5 42t32.5 108q0 47 -24.5 80t-83.5 33h-40l-8 -78h84l-10 -105h-85l-9 -80h42z" />
    <glyph glyph-name="exclam.sc" horiz-adv-x="249" 
d="M78 497h150l-54 -333h-116zM96 -19q-29 0 -48 19.5t-19 46.5q0 32 25 56t57 24q27 0 46 -20t19 -48q0 -16 -6.5 -30t-18 -24.5t-26 -17t-29.5 -6.5z" />
    <glyph glyph-name="exclamdown.sc" horiz-adv-x="256" 
d="M160 508q29 0 48 -19.5t19 -46.5q0 -32 -25 -55.5t-57 -23.5q-28 0 -47 19.5t-19 47.5q0 16 7 30t18 24.5t26 17t30 6.5zM178 -8h-150l54 333h115z" />
    <glyph glyph-name="f.sc" horiz-adv-x="442" 
d="M87 497h354l-12 -117h-207l-11 -105h173l-12 -112h-173l-17 -163h-147z" />
    <glyph glyph-name="fi.sc" horiz-adv-x="709" 
d="M87 497h354l-12 -117h-207l-11 -105h173l-12 -112h-173l-17 -163h-147zM529 497h147l-52 -497h-147z" />
    <glyph glyph-name="five.dnom" horiz-adv-x="364" 
d="M135 -7q-49 0 -83 12.5t-55 40.5l63 67q17 -17 36 -27t48 -10q32 0 48 15t16 41q0 20 -10.5 31t-33.5 11q-21 0 -38 -8t-27 -17h-82l25 232h264l-8 -80h-183l-9 -79q16 12 37.5 19.5t53.5 7.5q51 0 79.5 -26.5t28.5 -79.5q0 -70 -46 -110t-124 -40z" />
    <glyph glyph-name="five.numr" horiz-adv-x="364" 
d="M134 315q-48 0 -82.5 12.5t-55.5 40.5l64 67q16 -17 35 -27t49 -10q32 0 47.5 15t15.5 41q0 20 -10.5 31t-33.5 11q-21 0 -38 -8t-27 -17h-82l25 232h264l-8 -80h-183l-9 -79q16 12 37.5 19.5t53.5 7.5q52 0 80 -26.5t28 -79.5q0 -70 -46 -110t-124 -40z" />
    <glyph glyph-name="five.osf" horiz-adv-x="536" 
d="M230 -201q-94 0 -151.5 38.5t-80.5 102.5l130 74q23 -47 49.5 -65t62.5 -18q45 0 74 28.5t29 88.5q0 46 -22 66.5t-55 20.5q-32 0 -55.5 -14.5t-38.5 -33.5h-142l42 410h432l-14 -133h-299l-16 -157q25 28 60 43.5t86 15.5q84 0 128.5 -51.5t44.5 -145.5
q0 -64 -19.5 -114t-54 -84.5t-83 -53t-107.5 -18.5z" />
    <glyph glyph-name="five.sc" horiz-adv-x="498" 
d="M219 -11q-78 0 -132 21t-79 55l80 102q37 -32 70 -44t75 -12q45 0 64 16t19 45q0 22 -14 34.5t-41 12.5q-23 0 -42.5 -5.5t-36.5 -13.5h-132l31 297h385l-13 -117h-262l-9 -88q27 16 59 25.5t78 9.5q68 0 106 -35.5t38 -103.5q0 -101 -63 -150t-181 -49z" />
    <glyph glyph-name="five.sinf" horiz-adv-x="354" 
d="M134 -140q-48 0 -82.5 12.5t-55.5 40.5l64 67q16 -17 35 -27t49 -10q32 0 47.5 15t15.5 41q0 20 -10.5 31t-33.5 11q-21 0 -38 -8t-27 -17h-82l25 232h264l-8 -80h-183l-9 -79q16 12 37.5 19.5t53.5 7.5q52 0 80 -26.5t28 -79.5q0 -70 -46 -110t-124 -40z" />
    <glyph glyph-name="five.sups" horiz-adv-x="364" 
d="M134 380q-48 0 -82.5 12.5t-55.5 40.5l64 67q16 -17 35 -27t49 -10q32 0 47.5 15t15.5 41q0 20 -10.5 31t-33.5 11q-21 0 -38 -8t-27 -17h-82l25 232h264l-8 -80h-183l-9 -79q16 12 37.5 19.5t53.5 7.5q52 0 80 -26.5t28 -79.5q0 -70 -46 -110t-124 -40z" />
    <glyph glyph-name="fiveeighths.alt" horiz-adv-x="621" 
d="M151 332q-36 0 -61 12.5t-38 26.5l43 54q13 -8 26.5 -16t36.5 -8q20 0 29.5 9t9.5 23q0 23 -26 23q-13 0 -23.5 -5t-16.5 -10h-66l18 167h200l-7 -64h-129l-5 -44q8 5 23.5 9t35.5 4q39 0 58 -19.5t19 -54.5q0 -45 -30.5 -76t-96.5 -31zM479 599h99l-412 -501h-100z
M457 75q-54 0 -83 17t-29 51q0 20 13.5 41t40.5 30q-12 8 -20 21t-8 33q0 38 32 61.5t83 23.5q46 0 72.5 -17.5t26.5 -48.5q0 -25 -12.5 -40t-29.5 -22q21 -8 31 -23.5t10 -36.5q0 -42 -34.5 -66t-92.5 -24zM490 245q8 4 13 12.5t5 17.5q0 12 -8.5 17.5t-19.5 5.5
q-14 0 -23 -7t-9 -21q0 -16 17 -20zM464 130q43 0 43 30q0 18 -22 23l-33 7q-12 -4 -20 -13.5t-8 -21.5q0 -25 40 -25z" />
    <glyph glyph-name="fl.sc" horiz-adv-x="868" 
d="M87 497h354l-12 -117h-207l-11 -105h173l-12 -112h-173l-17 -163h-147zM529 497h147l-38 -365h200l-13 -132h-348z" />
    <glyph glyph-name="four.dnom" horiz-adv-x="378" 
d="M167 76h-178l7 69l136 237h105l-127 -220h75l9 77h91l-8 -77h49l-10 -86h-48l-8 -76h-100z" />
    <glyph glyph-name="four.numr" horiz-adv-x="378" 
d="M167 394h-179l8 69l135 237h106l-127 -220h75l8 77h92l-8 -77h48l-9 -86h-49l-7 -76h-101z" />
    <glyph glyph-name="four.osf" horiz-adv-x="583" 
d="M552 119l-12 -120h-96l-18 -173h-148l19 173h-304l12 116l309 384h183l-40 -380h95zM310 119l25 226l-177 -226h152z" />
    <glyph glyph-name="four.sc" horiz-adv-x="489" 
d="M236 86h-231l12 111l215 300h149l-214 -300h92l10 94h129l-10 -94h76l-12 -111h-76l-9 -86h-140z" />
    <glyph glyph-name="four.sinf" horiz-adv-x="367" 
d="M167 -61h-178l7 69l136 237h105l-127 -220h75l9 77h91l-8 -77h49l-10 -86h-48l-8 -76h-100z" />
    <glyph glyph-name="four.sups" horiz-adv-x="378" 
d="M167 459h-178l7 69l136 237h105l-127 -220h75l9 77h91l-8 -77h49l-10 -86h-48l-8 -76h-100z" />
    <glyph glyph-name="g.sc" horiz-adv-x="546" 
d="M265 -13q-118 0 -177 59.5t-59 168.5q0 69 20 123.5t57.5 92.5t91 58.5t119.5 20.5q90 0 143 -37t53 -109q0 -12 -1.5 -24t-6.5 -26h-141q2 5 2.5 8t0.5 11q1 23 -14 37t-50 14q-58 0 -91 -40.5t-33 -118.5q0 -57 26 -87t80 -30t82 15l6 50h-86l10 92h212l-22 -215
q-29 -23 -83 -43t-139 -20z" />
    <glyph glyph-name="g.ss01" horiz-adv-x="507" 
d="M192 -240q-112 0 -161.5 31t-49.5 87q0 42 21 68.5t54 43.5q-44 30 -44 83q0 46 24.5 71.5t60.5 38.5q-17 21 -27.5 47t-10.5 66q0 47 17 83.5t47 62t71.5 39t90.5 13.5q14 0 27 -1.5t28 -4.5q5 0 18 3.5t28 14.5t27.5 31t15.5 52l118 -24q-6 -58 -41.5 -88t-81.5 -35
q23 -23 35.5 -53.5t12.5 -65.5q0 -100 -55.5 -151.5t-158.5 -51.5q-27 0 -47 3t-34 7q-19 -1 -29 -9.5t-10 -21.5q0 -29 41 -29h139q74 0 117.5 -32t43.5 -97q0 -33 -12 -65.5t-44 -58t-87.5 -41.5t-143.5 -16zM263 227q40 0 60 23t20 60q0 34 -18.5 53.5t-50.5 19.5
q-38 0 -59.5 -23.5t-21.5 -61.5q0 -33 18 -52t52 -19zM210 -141q70 0 102.5 13.5t32.5 44.5q0 21 -12.5 31t-44.5 10l-106 -1q-36 0 -53 -15.5t-17 -35.5q0 -25 21 -36t77 -11z" />
    <glyph glyph-name="gbreve.sc" horiz-adv-x="546" 
d="M312 572q-46 0 -74.5 14.5t-43 37.5t-18 53t-0.5 61h107q-7 -60 40 -60q46 0 53 60h105q-3 -31 -13.5 -61t-30 -53t-50 -37.5t-75.5 -14.5zM265 -13q-118 0 -177 59.5t-59 168.5q0 69 20 123.5t57.5 92.5t91 58.5t119.5 20.5q90 0 143 -37t53 -109q0 -12 -1.5 -24
t-6.5 -26h-141q2 5 2.5 8t0.5 11q1 23 -14 37t-50 14q-58 0 -91 -40.5t-33 -118.5q0 -57 26 -87t80 -30t82 15l6 50h-86l10 92h212l-22 -215q-29 -23 -83 -43t-139 -20z" />
    <glyph glyph-name="gbreve.ss01" horiz-adv-x="507" 
d="M280 557q-46 0 -74.5 14.5t-43 37.5t-18 53t-0.5 61h107q-7 -60 40 -60q46 0 53 60h105q-3 -31 -13.5 -61t-30 -53t-50 -37.5t-75.5 -14.5zM192 -240q-112 0 -161.5 31t-49.5 87q0 42 21 68.5t54 43.5q-44 30 -44 83q0 46 24.5 71.5t60.5 38.5q-17 21 -27.5 47t-10.5 66
q0 47 17 83.5t47 62t71.5 39t90.5 13.5q14 0 27 -1.5t28 -4.5q5 0 18 3.5t28 14.5t27.5 31t15.5 52l118 -24q-6 -58 -41.5 -88t-81.5 -35q23 -23 35.5 -53.5t12.5 -65.5q0 -100 -55.5 -151.5t-158.5 -51.5q-27 0 -47 3t-34 7q-19 -1 -29 -9.5t-10 -21.5q0 -29 41 -29h139
q74 0 117.5 -32t43.5 -97q0 -33 -12 -65.5t-44 -58t-87.5 -41.5t-143.5 -16zM263 227q40 0 60 23t20 60q0 34 -18.5 53.5t-50.5 19.5q-38 0 -59.5 -23.5t-21.5 -61.5q0 -33 18 -52t52 -19zM210 -141q70 0 102.5 13.5t32.5 44.5q0 21 -12.5 31t-44.5 10l-106 -1
q-36 0 -53 -15.5t-17 -35.5q0 -25 21 -36t77 -11z" />
    <glyph glyph-name="gcaron.sc" horiz-adv-x="546" 
d="M165 752h126l29 -96l49 96h126l-107 -194h-156zM265 -13q-118 0 -177 59.5t-59 168.5q0 69 20 123.5t57.5 92.5t91 58.5t119.5 20.5q90 0 143 -37t53 -109q0 -12 -1.5 -24t-6.5 -26h-141q2 5 2.5 8t0.5 11q1 23 -14 37t-50 14q-58 0 -91 -40.5t-33 -118.5q0 -57 26 -87
t80 -30t82 15l6 50h-86l10 92h212l-22 -215q-29 -23 -83 -43t-139 -20z" />
    <glyph glyph-name="gcaron.ss01" horiz-adv-x="507" 
d="M133 737h126l29 -96l49 96h126l-107 -194h-156zM192 -240q-112 0 -161.5 31t-49.5 87q0 42 21 68.5t54 43.5q-44 30 -44 83q0 46 24.5 71.5t60.5 38.5q-17 21 -27.5 47t-10.5 66q0 47 17 83.5t47 62t71.5 39t90.5 13.5q14 0 27 -1.5t28 -4.5q5 0 18 3.5t28 14.5t27.5 31
t15.5 52l118 -24q-6 -58 -41.5 -88t-81.5 -35q23 -23 35.5 -53.5t12.5 -65.5q0 -100 -55.5 -151.5t-158.5 -51.5q-27 0 -47 3t-34 7q-19 -1 -29 -9.5t-10 -21.5q0 -29 41 -29h139q74 0 117.5 -32t43.5 -97q0 -33 -12 -65.5t-44 -58t-87.5 -41.5t-143.5 -16zM263 227
q40 0 60 23t20 60q0 34 -18.5 53.5t-50.5 19.5q-38 0 -59.5 -23.5t-21.5 -61.5q0 -33 18 -52t52 -19zM210 -141q70 0 102.5 13.5t32.5 44.5q0 21 -12.5 31t-44.5 10l-106 -1q-36 0 -53 -15.5t-17 -35.5q0 -25 21 -36t77 -11z" />
    <glyph glyph-name="gcircumflex.sc" horiz-adv-x="546" 
d="M252 752h156l67 -194h-126l-30 96l-49 -96h-125zM265 -13q-118 0 -177 59.5t-59 168.5q0 69 20 123.5t57.5 92.5t91 58.5t119.5 20.5q90 0 143 -37t53 -109q0 -12 -1.5 -24t-6.5 -26h-141q2 5 2.5 8t0.5 11q1 23 -14 37t-50 14q-58 0 -91 -40.5t-33 -118.5q0 -57 26 -87
t80 -30t82 15l6 50h-86l10 92h212l-22 -215q-29 -23 -83 -43t-139 -20z" />
    <glyph glyph-name="gcircumflex.ss01" horiz-adv-x="507" 
d="M547 565q-6 -58 -41.5 -88t-81.5 -35q23 -23 35.5 -53.5t12.5 -65.5q0 -100 -55.5 -151.5t-158.5 -51.5q-27 0 -47 3t-34 7q-19 -1 -29 -9.5t-10 -21.5q0 -29 41 -29h139q74 0 117.5 -32t43.5 -97q0 -33 -12 -65.5t-44 -58t-87.5 -41.5t-143.5 -16q-112 0 -161.5 31
t-49.5 87q0 42 21 68.5t54 43.5q-44 30 -44 83q0 46 24.5 71.5t60.5 38.5q-17 21 -27.5 47t-10.5 66q0 47 17 83.5t47 62t71.5 39t90.5 13.5q14 0 27 -1.5t28 -4.5q4 0 13 2t20.5 8t23 17t19.5 28h-99l-30 96l-49 -96h-125l107 194h156l53 -152v4zM263 227q40 0 60 23t20 60
q0 34 -18.5 53.5t-50.5 19.5q-38 0 -59.5 -23.5t-21.5 -61.5q0 -33 18 -52t52 -19zM182 -43q-36 0 -53 -15.5t-17 -35.5q0 -25 21 -36t77 -11q70 0 102.5 13.5t32.5 44.5q0 21 -12.5 31t-44.5 10z" />
    <glyph glyph-name="gdotaccent.sc" horiz-adv-x="546" 
d="M312 566q-40 0 -61 23.5t-21 58.5q0 39 26 68t73 29q39 0 59 -24.5t20 -57.5q0 -40 -25.5 -68.5t-70.5 -28.5zM265 -13q-118 0 -177 59.5t-59 168.5q0 69 20 123.5t57.5 92.5t91 58.5t119.5 20.5q90 0 143 -37t53 -109q0 -12 -1.5 -24t-6.5 -26h-141q2 5 2.5 8t0.5 11
q1 23 -14 37t-50 14q-58 0 -91 -40.5t-33 -118.5q0 -57 26 -87t80 -30t82 15l6 50h-86l10 92h212l-22 -215q-29 -23 -83 -43t-139 -20z" />
    <glyph glyph-name="gdotaccent.ss01" horiz-adv-x="507" 
d="M280 551q-40 0 -61 23.5t-21 58.5q0 39 26 68t73 29q39 0 59 -24.5t20 -57.5q0 -40 -25.5 -68.5t-70.5 -28.5zM192 -240q-112 0 -161.5 31t-49.5 87q0 42 21 68.5t54 43.5q-44 30 -44 83q0 46 24.5 71.5t60.5 38.5q-17 21 -27.5 47t-10.5 66q0 47 17 83.5t47 62t71.5 39
t90.5 13.5q14 0 27 -1.5t28 -4.5q5 0 18 3.5t28 14.5t27.5 31t15.5 52l118 -24q-6 -58 -41.5 -88t-81.5 -35q23 -23 35.5 -53.5t12.5 -65.5q0 -100 -55.5 -151.5t-158.5 -51.5q-27 0 -47 3t-34 7q-19 -1 -29 -9.5t-10 -21.5q0 -29 41 -29h139q74 0 117.5 -32t43.5 -97
q0 -33 -12 -65.5t-44 -58t-87.5 -41.5t-143.5 -16zM263 227q40 0 60 23t20 60q0 34 -18.5 53.5t-50.5 19.5q-38 0 -59.5 -23.5t-21.5 -61.5q0 -33 18 -52t52 -19zM210 -141q70 0 102.5 13.5t32.5 44.5q0 21 -12.5 31t-44.5 10l-106 -1q-36 0 -53 -15.5t-17 -35.5
q0 -25 21 -36t77 -11z" />
    <glyph glyph-name="germandbls.sc" horiz-adv-x="575" 
d="M416 279q68 -11 94 -46.5t26 -85.5q0 -42 -15 -72t-42 -49.5t-64.5 -28.5t-81.5 -9t-72 7.5t-48 21.5l56 105q16 -9 30.5 -13.5t34.5 -4.5q54 0 54 40q0 17 -13 26.5t-43 11.5q-26 1 -60 -3l4 101l84 92q-16 4 -41 4q-47 0 -77 -25t-36 -79l-28 -272h-149l29 287
q6 61 30 103t60.5 68.5t84 38t101.5 11.5q60 0 109.5 -13.5t82.5 -38.5l-7 -66z" />
    <glyph glyph-name="grave.case" horiz-adv-x="274" 
d="M81 902h173l61 -161h-124z" />
    <glyph glyph-name="gravecomb.case" 
d="M-206 902h173l61 -161h-124z" />
    <glyph glyph-name="h.sc" horiz-adv-x="574" 
d="M87 497h147l-19 -190h159l20 190h147l-52 -497h-147l19 183h-160l-19 -183h-147z" />
    <glyph glyph-name="h.ss01" horiz-adv-x="528" 
d="M104 726h146l-29 -282q17 20 47 36t72 16q45 0 75 -15t47 -41t22.5 -61t1.5 -75l-32 -304h-146l30 289q4 35 -11 55.5t-44 20.5q-19 0 -33.5 -7t-24 -18.5t-14.5 -25t-7 -26.5l-30 -288h-146z" />
    <glyph glyph-name="hbar.sc" horiz-adv-x="622" 
d="M611 353h-60l-37 -353h-147l20 187h-160l-20 -187h-147l37 353h-59l8 96h61l5 48h147l-5 -48h160l5 48h147l-5 -48h59zM404 353h-160l-4 -41h160z" />
    <glyph glyph-name="hbar.ss01" horiz-adv-x="528" 
d="M340 496q45 0 75 -15t47 -41t22.5 -61t1.5 -75l-32 -304h-146l30 289q4 35 -11 55.5t-44 20.5q-19 0 -33.5 -7t-24 -18.5t-14.5 -25t-7 -26.5l-30 -288h-146l58 551h-58l11 105h58l7 70h146l-7 -70h111l-10 -105h-112l-11 -107q17 20 47 36t72 16z" />
    <glyph glyph-name="hcircumflex.sc" horiz-adv-x="574" 
d="M264 752h156l67 -194h-126l-30 96l-49 -96h-125zM87 497h147l-19 -190h159l20 190h147l-52 -497h-147l19 183h-160l-19 -183h-147z" />
    <glyph glyph-name="hcircumflex.ss01" horiz-adv-x="528" 
d="M119 902h157l70 -161h-126l-33 71l-46 -71h-126zM104 726h146l-29 -282q17 20 47 36t72 16q45 0 75 -15t47 -41t22.5 -61t1.5 -75l-32 -304h-146l30 289q4 35 -11 55.5t-44 20.5q-19 0 -33.5 -7t-24 -18.5t-14.5 -25t-7 -26.5l-30 -288h-146z" />
    <glyph glyph-name="hungarumlaut.case" horiz-adv-x="460" 
d="M152 902h161l-133 -161h-111zM362 902h162l-134 -161h-111z" />
    <glyph glyph-name="i.loclTRK" horiz-adv-x="273" 
d="M164 551q-40 0 -61 23.5t-21 58.5q0 39 26 68t73 29q39 0 59 -24.5t20 -57.5q0 -40 -25.5 -68.5t-70.5 -28.5zM158 -4q-70 0 -97.5 33.5t-19.5 102.5l36 350h148l-34 -316q-3 -31 4 -42t36 -11l-12 -110q-2 0 -19.5 -3.5t-41.5 -3.5z" />
    <glyph glyph-name="i.loclTRK.ss01" horiz-adv-x="253" 
d="M161 551q-40 0 -61 23.5t-21 58.5q0 39 26 68t73 29q39 0 59 -24.5t20 -57.5q0 -40 -25.5 -68.5t-70.5 -28.5zM79 482h147l-51 -482h-147z" />
    <glyph glyph-name="i.sc" horiz-adv-x="267" 
d="M87 497h147l-52 -497h-147z" />
    <glyph glyph-name="i.sc.loclTRK" horiz-adv-x="267" 
d="M170 566q-40 0 -61 23.5t-21 58.5q0 39 26 68t73 29q39 0 59 -24.5t20 -57.5q0 -40 -25.5 -68.5t-70.5 -28.5zM87 497h147l-52 -497h-147z" />
    <glyph glyph-name="i.ss01" horiz-adv-x="253" 
d="M161 551q-40 0 -61 23.5t-21 58.5q0 39 26 68t73 29q39 0 59 -24.5t20 -57.5q0 -40 -25.5 -68.5t-70.5 -28.5zM79 482h147l-51 -482h-147z" />
    <glyph glyph-name="iacute.sc" horiz-adv-x="267" 
d="M190 756h171l-149 -200h-122zM87 497h147l-52 -497h-147z" />
    <glyph glyph-name="iacute.ss01" horiz-adv-x="253" 
d="M181 741h171l-149 -200h-122zM79 482h147l-51 -482h-147z" />
    <glyph glyph-name="ibreve.sc" horiz-adv-x="267" 
d="M169 572q-46 0 -74.5 14.5t-43 37.5t-18 53t-0.5 61h107q-7 -60 40 -60q46 0 53 60h105q-3 -31 -13.5 -61t-30 -53t-50 -37.5t-75.5 -14.5zM87 497h147l-52 -497h-147z" />
    <glyph glyph-name="ibreve.ss01" horiz-adv-x="253" 
d="M161 557q-46 0 -74.5 14.5t-43 37.5t-18 53t-0.5 61h107q-7 -60 40 -60q46 0 53 60h105q-3 -31 -13.5 -61t-30 -53t-50 -37.5t-75.5 -14.5zM79 482h147l-51 -482h-147z" />
    <glyph glyph-name="icircumflex.sc" horiz-adv-x="267" 
d="M110 752h156l67 -194h-126l-30 96l-49 -96h-125zM87 497h147l-52 -497h-147z" />
    <glyph glyph-name="icircumflex.ss01" horiz-adv-x="253" 
d="M101 737h156l67 -194h-126l-30 96l-49 -96h-125zM79 482h147l-51 -482h-147z" />
    <glyph glyph-name="idieresis.sc" horiz-adv-x="267" 
d="M59 567q-38 0 -58 22.5t-20 55.5q0 38 25 66t70 28q38 0 57 -23.5t19 -55.5q0 -38 -24.5 -65.5t-68.5 -27.5zM280 567q-38 0 -58.5 22.5t-20.5 55.5q0 38 25 66t70 28q38 0 57.5 -23.5t19.5 -55.5q0 -38 -25 -65.5t-68 -27.5zM87 497h147l-52 -497h-147z" />
    <glyph glyph-name="idieresis.ss01" horiz-adv-x="253" 
d="M51 552q-38 0 -58 22.5t-20 55.5q0 38 25 66t70 28q38 0 57 -23.5t19 -55.5q0 -38 -24.5 -65.5t-68.5 -27.5zM272 552q-38 0 -58.5 22.5t-20.5 55.5q0 38 25 66t70 28q38 0 57.5 -23.5t19.5 -55.5q0 -38 -25 -65.5t-68 -27.5zM79 482h147l-51 -482h-147z" />
    <glyph glyph-name="igrave.sc" horiz-adv-x="267" 
d="M3 756h168l56 -200h-121zM87 497h147l-52 -497h-147z" />
    <glyph glyph-name="igrave.ss01" horiz-adv-x="253" 
d="M-6 741h168l56 -200h-121zM79 482h147l-51 -482h-147z" />
    <glyph glyph-name="ij.sc" horiz-adv-x="671" 
d="M87 497h147l-52 -497h-147zM399 -13q-56 0 -93.5 16.5t-54.5 42.5l92 96q11 -14 23.5 -22.5t34.5 -8.5q27 0 42.5 17t18.5 47l34 322h148l-34 -326q-10 -94 -64 -139t-147 -45z" />
    <glyph glyph-name="ij.ss01" horiz-adv-x="510" 
d="M161 551q-40 0 -61 23.5t-21 58.5q0 39 26 68t73 29q39 0 59 -24.5t20 -57.5q0 -40 -25.5 -68.5t-70.5 -28.5zM418 551q-40 0 -61 23.5t-21 58.5q0 39 26 68t73 29q39 0 59 -24.5t20 -57.5q0 -40 -25.5 -68.5t-70.5 -28.5zM79 482h147l-51 -482h-147zM212 -247
q-26 0 -44 5t-29 11q-13 7 -21 16l54 107q4 -3 10 -5q5 -2 11.5 -3.5t15.5 -1.5q34 0 51.5 25t22.5 70l53 505h145l-53 -512q-5 -48 -20 -88t-41.5 -68.5t-65 -44.5t-89.5 -16z" />
    <glyph glyph-name="ijacute" horiz-adv-x="529" 
d="M182 741h171l-149 -200h-122zM464 741h171l-148 -200h-122zM158 -4q-70 0 -97.5 33.5t-19.5 102.5l36 350h148l-34 -316q-3 -31 4 -42t36 -11l-12 -110q-2 0 -19.5 -3.5t-41.5 -3.5zM232 -247q-26 0 -44 5t-29 11q-13 7 -21 16l55 107q4 -3 9 -5t11.5 -3.5t15.5 -1.5
q34 0 51.5 25t22.5 70l54 505h145l-54 -512q-5 -48 -20 -88t-41.5 -68.5t-65 -44.5t-89.5 -16z" />
    <glyph glyph-name="imacron.sc" horiz-adv-x="267" 
d="M37 708h293l-12 -109h-293zM87 497h147l-52 -497h-147z" />
    <glyph glyph-name="imacron.ss01" horiz-adv-x="253" 
d="M29 693h293l-12 -109h-293zM79 482h147l-51 -482h-147z" />
    <glyph glyph-name="iogonek.sc" horiz-adv-x="267" 
d="M136 -118q11 0 17 2.5t11 6.5l25 -68q-14 -13 -37.5 -19.5t-51.5 -6.5q-51 0 -77 23t-26 65q0 32 16.5 61.5t45.5 53.5h-24l52 497h147l-52 -497q-35 -15 -54 -39.5t-19 -50.5q0 -15 8 -21.5t19 -6.5z" />
    <glyph glyph-name="iogonek.ss01" horiz-adv-x="253" 
d="M178 730q39 0 59 -24.5t20 -57.5q0 -40 -25.5 -68.5t-70.5 -28.5q-40 0 -61 23.5t-21 58.5q0 39 26 68t73 29zM169 0q-35 -15 -54 -39.5t-19 -50.5q0 -15 8 -21.5t19 -6.5t17 2.5t11 6.5l25 -68q-14 -13 -37.5 -19.5t-51.5 -6.5q-51 0 -77 23t-26 65q0 32 16.5 61.5
t45.5 53.5h-18l51 482h147l-51 -482h-6z" />
    <glyph glyph-name="itilde.sc" horiz-adv-x="267" 
d="M11 564q-5 8 -7 22t-2 28q0 48 29.5 78t77.5 30q21 0 38 -6.5t32 -14t27.5 -14t23.5 -6.5t19 6t8 19q0 5 -1 10.5t-4 8.5h88q5 -10 7 -23.5t2 -24.5q0 -49 -29.5 -79.5t-77.5 -30.5q-22 0 -40 6.5t-32 14.5t-25.5 14.5t-20.5 6.5q-28 0 -28 -26q0 -12 5 -19h-90zM87 497
h147l-52 -497h-147z" />
    <glyph glyph-name="itilde.ss01" horiz-adv-x="253" 
d="M2 549q-5 8 -7 22t-2 28q0 48 29.5 78t77.5 30q21 0 38 -6.5t32 -14t27.5 -14t23.5 -6.5t19 6t8 19q0 5 -1 10.5t-4 8.5h88q5 -10 7 -23.5t2 -24.5q0 -49 -29.5 -79.5t-77.5 -30.5q-22 0 -40 6.5t-32 14.5t-25.5 14.5t-20.5 6.5q-28 0 -28 -26q0 -12 5 -19h-90zM79 482
h147l-51 -482h-147z" />
    <glyph glyph-name="j.sc" horiz-adv-x="404" 
d="M132 -13q-56 0 -93.5 16.5t-54.5 42.5l92 96q11 -14 23.5 -22.5t34.5 -8.5q27 0 42.5 17t18.5 47l34 322h148l-34 -326q-10 -94 -64 -139t-147 -45z" />
    <glyph glyph-name="jcircumflex.sc" horiz-adv-x="404" 
d="M242 752h156l67 -194h-126l-30 96l-49 -96h-125zM132 -13q-56 0 -93.5 16.5t-54.5 42.5l92 96q11 -14 23.5 -22.5t34.5 -8.5q27 0 42.5 17t18.5 47l34 322h148l-34 -326q-10 -94 -64 -139t-147 -45z" />
    <glyph glyph-name="k.sc" horiz-adv-x="549" 
d="M390 240q16 -15 26 -36t19.5 -40.5t22.5 -33.5t36 -14h17l-12 -118q-11 -2 -26.5 -4t-35.5 -2q-40 0 -64.5 14t-40 35.5t-25 46t-20 46t-25.5 35.5t-40 14h-21l-19 -183h-147l52 497h147l-20 -190h27q24 0 46.5 9t41.5 30.5t32.5 58.5t19.5 92h143q-10 -94 -47 -157
t-87 -100z" />
    <glyph glyph-name="k.ss01" horiz-adv-x="514" 
d="M398 175q20 -37 35 -49t43 -12h10l-12 -111q-9 -4 -26 -6t-33 -2q-44 0 -68 18t-41 51l-70 136l-44 -43l-18 -157h-146l76 726h146l-44 -407l160 163h163l-196 -189z" />
    <glyph glyph-name="kgreenlandic.sc" horiz-adv-x="549" 
d="M390 240q16 -15 26 -36t19.5 -40.5t22.5 -33.5t36 -14h17l-12 -118q-11 -2 -26.5 -4t-35.5 -2q-40 0 -64.5 14t-40 35.5t-25 46t-20 46t-25.5 35.5t-40 14h-21l-19 -183h-147l52 497h147l-20 -190h27q24 0 46.5 9t41.5 30.5t32.5 58.5t19.5 92h143q-10 -94 -47 -157
t-87 -100z" />
    <glyph glyph-name="kgreenlandic.ss01" horiz-adv-x="514" 
d="M398 175q20 -37 35 -49t43 -12h10l-12 -111q-9 -4 -26 -6t-33 -2q-44 0 -68 18t-41 51l-69 133l-46 -45l-17 -152h-146l49 482h146l-18 -168l161 168h163l-196 -191z" />
    <glyph glyph-name="l.sc" horiz-adv-x="426" 
d="M87 497h147l-38 -365h200l-13 -132h-348z" />
    <glyph glyph-name="lacute.sc" horiz-adv-x="426" 
d="M192 756h171l-149 -200h-122zM87 497h147l-38 -365h200l-13 -132h-348z" />
    <glyph glyph-name="lcaron.sc" horiz-adv-x="461" 
d="M306 340q32 11 43 26t13 29q-26 6 -39 23.5t-13 42.5q0 33 22.5 55.5t57.5 22.5q33 0 54 -21t21 -61q0 -58 -37 -106.5t-103 -68.5zM87 497h147l-38 -365h200l-13 -132h-348z" />
    <glyph glyph-name="ldot.sc" horiz-adv-x="460" 
d="M87 497h147l-38 -365h200l-13 -132h-348zM369 236q-36 0 -58 21t-22 58t23.5 64t66.5 27q35 0 57 -22t22 -58q0 -38 -22.5 -64t-66.5 -26z" />
    <glyph glyph-name="lslash.sc" horiz-adv-x="481" 
d="M442 132l-14 -132h-347l18 168l-48 -27l-44 92l105 59l21 205h147l-13 -118l69 39l46 -92l-128 -71l-13 -123h201z" />
    <glyph glyph-name="m.sc" horiz-adv-x="647" 
d="M87 497h155l82 -271l141 271h150l-52 -497h-130l35 302l-10 -23l-111 -217h-87l-63 220l-4 20l-31 -302h-127z" />
    <glyph glyph-name="m.ss01" horiz-adv-x="819" 
d="M79 330q4 41 -34 41l11 110q11 4 29.5 6t36.5 2q38 0 62.5 -17t30.5 -52l1 -1q19 32 55.5 54.5t84.5 22.5q102 0 134 -83q18 31 52.5 57t91.5 26q81 0 116.5 -52t26.5 -140l-32 -304h-147l31 288q4 38 -10.5 57.5t-43.5 19.5q-32 0 -51.5 -22.5t-22.5 -57.5l-31 -285
h-146l31 289q6 76 -58 76q-33 0 -53 -24t-24 -56l-30 -285h-146z" />
    <glyph glyph-name="macron.case" horiz-adv-x="344" 
d="M83 870h311l-12 -105h-310z" />
    <glyph glyph-name="n.sc" horiz-adv-x="568" 
d="M87 497h134l135 -257l15 -31l28 288h136l-52 -497h-134l-139 265l-10 20l-27 -285h-138z" />
    <glyph glyph-name="n.ss01" horiz-adv-x="545" 
d="M79 330q4 41 -34 41l11 110q11 4 29 6t39 2q45 0 65.5 -19.5t25.5 -49.5l1 -1q17 31 51.5 54t91.5 23q78 0 116 -48t27 -144l-32 -304h-146l31 288q4 40 -12.5 58.5t-45.5 18.5q-31 0 -52 -22t-25 -60l-30 -283h-146z" />
    <glyph glyph-name="nacute.sc" horiz-adv-x="568" 
d="M339 756h171l-149 -200h-122zM87 497h134l135 -257l15 -31l28 288h136l-52 -497h-134l-139 265l-10 20l-27 -285h-138z" />
    <glyph glyph-name="nacute.ss01" horiz-adv-x="545" 
d="M328 741h171l-149 -200h-122zM79 330q4 41 -34 41l11 110q11 4 29 6t39 2q45 0 65.5 -19.5t25.5 -49.5l1 -1q17 31 51.5 54t91.5 23q78 0 116 -48t27 -144l-32 -304h-146l31 288q4 40 -12.5 58.5t-45.5 18.5q-31 0 -52 -22t-25 -60l-30 -283h-146z" />
    <glyph glyph-name="napostrophe.sc" horiz-adv-x="662" 
d="M30 556q16 7 29 14q11 8 20 16.5t9 18.5q-33 3 -50.5 21.5t-17.5 49.5q0 32 21 52.5t51 20.5t54 -20t24 -65q0 -46 -15.5 -77t-35 -49.5t-36.5 -26t-20 -8.5zM163 497h134l136 -257l14 -31l28 288h136l-52 -497h-134l-139 265l-9 20l-28 -285h-138z" />
    <glyph glyph-name="napostrophe.ss01" horiz-adv-x="657" 
d="M35 508q31 13 53 34t24 39q-38 2 -56 23.5t-18 55.5q0 42 27 66.5t65 24.5t60 -24t22 -68q0 -69 -34.5 -123t-109.5 -86zM191 330q4 41 -34 41l11 110q11 4 29 6t39 2q45 0 65.5 -19.5t25.5 -49.5l1 -1q17 31 51.5 54t91.5 23q78 0 116 -48t27 -144l-32 -304h-146l31 288
q4 40 -12.5 58.5t-45.5 18.5q-31 0 -51.5 -22t-25.5 -60l-30 -283h-146z" />
    <glyph glyph-name="ncaron.sc" horiz-adv-x="568" 
d="M172 752h126l29 -96l49 96h126l-107 -194h-156zM87 497h134l135 -257l15 -31l28 288h136l-52 -497h-134l-139 265l-10 20l-27 -285h-138z" />
    <glyph glyph-name="ncaron.ss01" horiz-adv-x="545" 
d="M161 737h126l29 -96l49 96h126l-107 -194h-156zM79 330q4 41 -34 41l11 110q11 4 29 6t39 2q45 0 65.5 -19.5t25.5 -49.5l1 -1q17 31 51.5 54t91.5 23q78 0 116 -48t27 -144l-32 -304h-146l31 288q4 40 -12.5 58.5t-45.5 18.5q-31 0 -52 -22t-25 -60l-30 -283h-146z" />
    <glyph glyph-name="nine.dnom" horiz-adv-x="382" 
d="M176 392q68 0 108.5 -42.5t40.5 -126.5q0 -55 -15 -97.5t-41 -71.5t-62.5 -44.5t-78.5 -15.5q-42 -1 -75 14t-48 40l66 60q22 -31 65 -31q35 0 60.5 20t33.5 76q-19 -20 -44.5 -29.5t-52.5 -9.5q-57 0 -88.5 31t-31.5 81q0 67 45 106.5t118 39.5zM154 214q40 0 77 32
q-5 38 -24.5 51t-42.5 13q-29 0 -44 -14.5t-15 -37.5q0 -20 12.5 -32t36.5 -12z" />
    <glyph glyph-name="nine.numr" horiz-adv-x="382" 
d="M176 712q68 0 108.5 -42t40.5 -126q0 -55 -15 -97.5t-41 -72t-62.5 -45t-78.5 -15.5t-75 14.5t-48 39.5l66 61q22 -32 65 -32q35 0 60.5 20t33.5 75q-19 -19 -44.5 -28.5t-52.5 -9.5q-57 0 -88.5 31t-31.5 81q0 67 45 106.5t118 39.5zM154 534q40 0 77 32q-5 38 -24.5 51
t-42.5 13q-29 0 -44 -14.5t-15 -36.5q0 -21 12.5 -33t36.5 -12z" />
    <glyph glyph-name="nine.osf" horiz-adv-x="554" 
d="M288 506q115 0 173 -75.5t58 -212.5q0 -100 -21 -179t-61 -133.5t-98 -83t-132 -28.5q-79 0 -131 29t-74 83l107 83q21 -39 45.5 -54t65.5 -15q27 0 51 10.5t43.5 33.5t33.5 60.5t21 90.5q-31 -30 -68 -43t-88 -13q-84 0 -134.5 51.5t-50.5 142.5q0 53 16.5 99.5t49 80.5
t81 53.5t113.5 19.5zM259 178q33 0 61 12t54 42q-2 42 -10.5 70.5t-22 46t-30.5 25t-37 7.5q-45 0 -73.5 -29t-28.5 -83q0 -40 21 -65.5t66 -25.5z" />
    <glyph glyph-name="nine.sc" horiz-adv-x="508" 
d="M259 510q112 0 166 -60t54 -169q0 -67 -17 -121.5t-51 -93t-85 -59t-119 -20.5q-70 0 -118.5 22.5t-68.5 60.5l99 78q19 -29 41 -39.5t57 -10.5q47 0 80 28t41 102q-26 -21 -59 -33t-82 -12q-70 0 -113.5 37.5t-43.5 107.5q0 38 14 71.5t41.5 58t68.5 38.5t95 14z
M177 335q0 -23 15 -38t53 -15q26 0 47.5 6.5t44.5 23.5q-7 46 -30.5 64t-55.5 18q-33 0 -53.5 -15t-20.5 -44z" />
    <glyph glyph-name="nine.sinf" horiz-adv-x="370" 
d="M176 257q68 0 108.5 -42t40.5 -126q0 -55 -15 -97.5t-41 -72t-62.5 -45t-78.5 -15.5t-75 14.5t-48 39.5l66 61q22 -32 65 -32q35 0 60.5 20t33.5 75q-19 -19 -44.5 -28.5t-52.5 -9.5q-57 0 -88.5 31t-31.5 81q0 67 45 106.5t118 39.5zM154 79q40 0 77 32q-5 38 -24.5 51
t-42.5 13q-29 0 -44 -14.5t-15 -36.5q0 -21 12.5 -33t36.5 -12z" />
    <glyph glyph-name="nine.sups" horiz-adv-x="382" 
d="M176 777q68 0 108.5 -42t40.5 -126q0 -55 -15 -97.5t-41 -72t-62.5 -45t-78.5 -15.5t-75 14.5t-48 39.5l66 61q22 -32 65 -32q35 0 60.5 20t33.5 75q-19 -19 -44.5 -28.5t-52.5 -9.5q-57 0 -88.5 31t-31.5 81q0 67 45 106.5t118 39.5zM154 599q40 0 77 32q-5 38 -24.5 51
t-42.5 13q-29 0 -44 -14.5t-15 -36.5q0 -21 12.5 -33t36.5 -12z" />
    <glyph glyph-name="ntilde.sc" horiz-adv-x="568" 
d="M160 564q-5 8 -7 22t-2 28q0 48 29.5 78t77.5 30q21 0 38 -6.5t32 -14t27.5 -14t23.5 -6.5t19 6t8 19q0 5 -1 10.5t-4 8.5h88q5 -10 7 -23.5t2 -24.5q0 -49 -29.5 -79.5t-77.5 -30.5q-22 0 -40 6.5t-32 14.5t-25.5 14.5t-20.5 6.5q-28 0 -28 -26q0 -12 5 -19h-90zM87 497
h134l135 -257l15 -31l28 288h136l-52 -497h-134l-139 265l-10 20l-27 -285h-138z" />
    <glyph glyph-name="ntilde.ss01" horiz-adv-x="545" 
d="M149 549q-5 8 -7 22t-2 28q0 48 29.5 78t77.5 30q21 0 38 -6.5t32 -14t27.5 -14t23.5 -6.5t19 6t8 19q0 5 -1 10.5t-4 8.5h88q5 -10 7 -23.5t2 -24.5q0 -49 -29.5 -79.5t-77.5 -30.5q-22 0 -40 6.5t-32 14.5t-25.5 14.5t-20.5 6.5q-28 0 -28 -26q0 -12 5 -19h-90zM79 330
q4 41 -34 41l11 110q11 4 29 6t39 2q45 0 65.5 -19.5t25.5 -49.5l1 -1q17 31 51.5 54t91.5 23q78 0 116 -48t27 -144l-32 -304h-146l31 288q4 40 -12.5 58.5t-45.5 18.5q-31 0 -52 -22t-25 -60l-30 -283h-146z" />
    <glyph glyph-name="o.sc" horiz-adv-x="574" 
d="M268 -13q-52 0 -96 14.5t-75.5 43t-49.5 72t-18 101.5q0 70 21.5 124.5t59 91.5t88.5 56.5t111 19.5q52 0 95.5 -14.5t75 -43t49 -72t17.5 -102.5q0 -70 -21 -124.5t-58 -91.5t-88 -56t-111 -19zM278 109q49 0 83.5 37.5t34.5 120.5q0 59 -27 88t-70 29q-24 0 -45.5 -9.5
t-38 -29t-26.5 -49t-10 -70.5q0 -60 27 -88.5t72 -28.5z" />
    <glyph glyph-name="oacute.sc" horiz-adv-x="574" 
d="M343 752h171l-149 -200h-122zM268 -13q-52 0 -96 14.5t-75.5 43t-49.5 72t-18 101.5q0 70 21.5 124.5t59 91.5t88.5 56.5t111 19.5q52 0 95.5 -14.5t75 -43t49 -72t17.5 -102.5q0 -70 -21 -124.5t-58 -91.5t-88 -56t-111 -19zM278 109q49 0 83.5 37.5t34.5 120.5
q0 59 -27 88t-70 29q-24 0 -45.5 -9.5t-38 -29t-26.5 -49t-10 -70.5q0 -60 27 -88.5t72 -28.5z" />
    <glyph glyph-name="obreve.sc" horiz-adv-x="574" 
d="M322 568q-46 0 -74.5 14.5t-43 37.5t-18 53t-0.5 61h107q-7 -60 40 -60q46 0 53 60h105q-3 -31 -13.5 -61t-30 -53t-50 -37.5t-75.5 -14.5zM268 -13q-52 0 -96 14.5t-75.5 43t-49.5 72t-18 101.5q0 70 21.5 124.5t59 91.5t88.5 56.5t111 19.5q52 0 95.5 -14.5t75 -43
t49 -72t17.5 -102.5q0 -70 -21 -124.5t-58 -91.5t-88 -56t-111 -19zM278 109q49 0 83.5 37.5t34.5 120.5q0 59 -27 88t-70 29q-24 0 -45.5 -9.5t-38 -29t-26.5 -49t-10 -70.5q0 -60 27 -88.5t72 -28.5z" />
    <glyph glyph-name="ocircumflex.sc" horiz-adv-x="574" 
d="M262 748h156l67 -194h-126l-30 96l-49 -96h-125zM268 -13q-52 0 -96 14.5t-75.5 43t-49.5 72t-18 101.5q0 70 21.5 124.5t59 91.5t88.5 56.5t111 19.5q52 0 95.5 -14.5t75 -43t49 -72t17.5 -102.5q0 -70 -21 -124.5t-58 -91.5t-88 -56t-111 -19zM278 109q49 0 83.5 37.5
t34.5 120.5q0 59 -27 88t-70 29q-24 0 -45.5 -9.5t-38 -29t-26.5 -49t-10 -70.5q0 -60 27 -88.5t72 -28.5z" />
    <glyph glyph-name="odieresis.sc" horiz-adv-x="574" 
d="M212 562q-38 0 -58 22.5t-20 55.5q0 38 25 66t70 28q38 0 57 -23.5t19 -55.5q0 -38 -24.5 -65.5t-68.5 -27.5zM433 562q-38 0 -58.5 22.5t-20.5 55.5q0 38 25 66t70 28q38 0 57.5 -23.5t19.5 -55.5q0 -38 -25 -65.5t-68 -27.5zM268 -13q-52 0 -96 14.5t-75.5 43t-49.5 72
t-18 101.5q0 70 21.5 124.5t59 91.5t88.5 56.5t111 19.5q52 0 95.5 -14.5t75 -43t49 -72t17.5 -102.5q0 -70 -21 -124.5t-58 -91.5t-88 -56t-111 -19zM278 109q49 0 83.5 37.5t34.5 120.5q0 59 -27 88t-70 29q-24 0 -45.5 -9.5t-38 -29t-26.5 -49t-10 -70.5q0 -60 27 -88.5
t72 -28.5z" />
    <glyph glyph-name="oe.sc" horiz-adv-x="793" 
d="M560 384l-9 -79h185l-11 -108h-185l-9 -83h211l-12 -114h-358v4q-48 -17 -104 -17q-52 0 -96 14.5t-75.5 43t-49.5 72t-18 101.5q0 70 21.5 124.5t59 91.5t88.5 56.5t111 19.5q66 0 114 -22l1 9h357l-12 -113h-209zM278 109q49 0 83.5 37.5t34.5 120.5q0 59 -27 88
t-70 29q-24 0 -45.5 -9.5t-38 -29t-26.5 -49t-10 -70.5q0 -60 27 -88.5t72 -28.5z" />
    <glyph glyph-name="ograve.sc" horiz-adv-x="574" 
d="M156 752h168l56 -200h-121zM268 -13q-52 0 -96 14.5t-75.5 43t-49.5 72t-18 101.5q0 70 21.5 124.5t59 91.5t88.5 56.5t111 19.5q52 0 95.5 -14.5t75 -43t49 -72t17.5 -102.5q0 -70 -21 -124.5t-58 -91.5t-88 -56t-111 -19zM278 109q49 0 83.5 37.5t34.5 120.5
q0 59 -27 88t-70 29q-24 0 -45.5 -9.5t-38 -29t-26.5 -49t-10 -70.5q0 -60 27 -88.5t72 -28.5z" />
    </font>
</defs>
</svg>
