<?xml version="1.0" standalone="no"?>
<!DOCTYPE svg PUBLIC "-//W3C//DTD SVG 1.1//EN" "http://www.w3.org/Graphics/SVG/1.1/DTD/svg11.dtd" >
<svg xmlns="http://www.w3.org/2000/svg" xmlns:xlink="http://www.w3.org/1999/xlink" version="1.1">
<metadata>
Created by FontForge 20170731 at Wed Jul  3 11:38:27 2019
 By Aleksey,,,
Copyright (c) 2017 by Daniel Hernandez. All rights reserved.
</metadata>
<defs>
<font id="AndesNeueAlt2-Bookit" horiz-adv-x="0" >
  <font-face 
    font-family="AndesNeue Alt 2 Book it"
    font-weight="400"
    font-style="italic"
    font-stretch="normal"
    units-per-em="1000"
    panose-1="0 0 5 0 0 0 0 0 0 0"
    ascent="750"
    descent="-250"
    x-height="482"
    cap-height="700"
    bbox="-618 -254 1393 973"
    underline-thickness="50"
    underline-position="-150"
    slope="-6"
    unicode-range="U+000D-FB02"
  />
<missing-glyph horiz-adv-x="530" 
d="M480 730v-730h-430v730h430zM265 408l150 287h-300zM90 657v-584l153 292zM440 73v584l-152 -292zM115 35h300l-150 287z" />
    <glyph glyph-name="fi" unicode="fi" horiz-adv-x="499" 
d="M411 113q-3 -26 5 -37t30 -11l-7 -64q-5 -2 -16 -3t-23 -1q-46 0 -65 27.5t-14 72.5l33 314h-159l-43 -411h-88l43 411h-67l8 71h67l7 71q8 87 51.5 131.5t118.5 44.5q28 0 48 -7.5t33 -19.5l-37 -62q-17 15 -47 15q-68 0 -77 -86l-9 -87h247zM429 699q26 0 40 -16.5
t14 -38.5q0 -26 -16.5 -45.5t-47.5 -19.5q-27 0 -41 16t-14 39q0 26 16.5 45.5t48.5 19.5z" />
    <glyph glyph-name="fl" unicode="fl" horiz-adv-x="500" 
d="M411 113q-3 -26 5 -35t31 -9l-7 -68q-7 -2 -18 -3t-23 -1q-43 0 -63.5 23.5t-14.5 78.5l33 312h-159l-44 -411h-87l43 411h-66l7 71h67l7 68q5 51 20.5 85t38 55t51 30t59.5 9q53 0 82 -27l-37 -62q-8 7 -19.5 11t-28.5 4q-31 0 -50.5 -18.5t-24.5 -60.5l-10 -94h158
l26 244h88z" />
    <glyph glyph-name=".notdef" horiz-adv-x="530" 
d="M480 730v-730h-430v730h430zM265 408l150 287h-300zM90 657v-584l153 292zM440 73v584l-152 -292zM115 35h300l-150 287z" />
    <glyph glyph-name=".null" 
 />
    <glyph glyph-name=".null" 
 />
    <glyph glyph-name="nonmarkingreturn" unicode="&#xd;" horiz-adv-x="250" 
 />
    <glyph glyph-name="space" unicode=" " horiz-adv-x="203" 
 />
    <glyph glyph-name="exclam" unicode="!" horiz-adv-x="241" 
d="M121 700h99l-62 -492h-76zM96 -6q-25 0 -40 14.5t-15 39.5q0 26 16.5 44.5t45.5 18.5q24 0 39 -15t15 -40q0 -26 -15.5 -44t-45.5 -18z" />
    <glyph glyph-name="quotedbl" unicode="&#x22;" horiz-adv-x="291" 
d="M101 750h74l-23 -180h-67zM224 750h74l-23 -180h-67z" />
    <glyph glyph-name="numbersign" unicode="#" horiz-adv-x="572" 
d="M121 139h-104l17 51h104l44 144h-97l18 52h96l33 105h65l-33 -105h127l34 105h65l-33 -105h105l-17 -52h-105l-46 -144h99l-17 -51h-98l-29 -95h-65l30 95h-128l-29 -95h-65zM330 190l44 144h-127l-46 -144h129z" />
    <glyph glyph-name="dollar" unicode="$" horiz-adv-x="549" 
d="M438 482q15 56 -7 86.5t-67 40.5l-23 -221h1q33 -9 64 -21.5t55 -32.5t39 -50.5t15 -75.5q0 -83 -53 -136t-161 -61l-12 -118h-76l12 116q-41 1 -75.5 10.5t-61.5 25.5t-45.5 37t-28.5 44l73 54q23 -48 61.5 -68.5t86.5 -25.5l25 232q-34 8 -67 20t-59 32t-42 52t-16 81
q0 42 17 76t47 59t70.5 38.5t86.5 13.5l12 114h76l-12 -104h1l-1 -11q33 -3 66.5 -16t57 -37.5t32.5 -62t-5 -90.5zM167 507q0 -45 25 -65t77 -35l22 206q-57 -5 -90.5 -30t-33.5 -76zM425 194q0 44 -26.5 67t-67.5 37l-22 -210q51 8 83.5 34t32.5 72z" />
    <glyph glyph-name="percent" unicode="%" horiz-adv-x="606" 
d="M154 421q-48 0 -72.5 30.5t-24.5 88.5q0 78 33 121.5t93 43.5q50 0 75.5 -30.5t25.5 -88.5q0 -79 -34.5 -122t-95.5 -43zM419 700h65l-276 -700h-67zM159 473q33 0 48.5 30.5t15.5 78.5q0 32 -11 50t-35 18q-35 0 -48.5 -30t-13.5 -78q0 -32 10.5 -50.5t33.5 -18.5z
M445 -5q-48 0 -73 30.5t-25 88.5q0 79 33.5 122t93.5 43q49 0 74.5 -30.5t25.5 -88.5q0 -79 -34.5 -122t-94.5 -43zM450 47q34 0 49 31t15 78q0 32 -11 50t-34 18q-35 0 -49.5 -29.5t-14.5 -77.5q0 -32 11 -51t34 -19z" />
    <glyph glyph-name="ampersand" unicode="&#x26;" horiz-adv-x="672" 
d="M607 -14q-38 8 -74 22.5t-69 34.5q-83 -60 -196 -60q-51 0 -93 13.5t-72 38.5t-46.5 61.5t-16.5 82.5q0 33 10.5 66.5t28.5 62.5t43 52.5t53 38.5q-21 60 -21 115q0 50 16.5 90t46.5 69t71.5 44.5t91.5 15.5q86 0 130.5 -39t44.5 -108q0 -29 -8.5 -61.5t-19.5 -51.5h-88
q9 19 15.5 46t6.5 49q0 43 -23 64.5t-65 21.5q-60 0 -94.5 -32.5t-34.5 -101.5q0 -49 22 -107t68 -117q6 -8 18 -23.5t29 -34.5t38 -40.5t46 -42.5q43 67 53 173h92q-14 -134 -81 -221q24 -15 50 -26.5t53 -17.5zM288 62q62 0 110 28q-36 31 -69 67t-64 77
q-19 26 -34.5 50.5t-27.5 49.5q-23 -20 -36.5 -37t-21 -33t-9.5 -32.5t-2 -35.5q0 -64 43 -99t111 -35z" />
    <glyph glyph-name="quotesingle" unicode="'" horiz-adv-x="168" 
d="M101 750h74l-23 -180h-67z" />
    <glyph glyph-name="parenleft" unicode="(" horiz-adv-x="264" 
d="M133 -244q-48 86 -72.5 189t-24.5 213q0 162 49.5 301t149.5 267l60 -41q-37 -52 -69 -111.5t-54.5 -125t-35.5 -137t-13 -148.5q0 -103 21 -198.5t58 -167.5z" />
    <glyph glyph-name="parenright" unicode=")" horiz-adv-x="272" 
d="M139 726q48 -86 72.5 -189t24.5 -213q0 -162 -49.5 -301t-149.5 -267l-60 41q38 52 69.5 111.5t54 125t35.5 137.5t13 148q0 103 -21 198.5t-58 167.5z" />
    <glyph glyph-name="asterisk" unicode="*" horiz-adv-x="414" 
d="M231 546l-84 -107l-46 42l102 102l-128 20l16 65l122 -39l-42 121l63 18l27 -131l88 114l45 -42l-102 -104l129 -20l-13 -64l-128 37l43 -122l-63 -17z" />
    <glyph glyph-name="plus" unicode="+" horiz-adv-x="420" 
d="M172 228h-141l7 68h141l16 151h70l-16 -151h145l-8 -68h-144l-17 -162h-70z" />
    <glyph glyph-name="comma" unicode="," horiz-adv-x="208" 
d="M16 -74q21 11 37.5 27.5t21.5 40.5q-52 8 -52 58q0 26 17 42.5t43 16.5q29 0 44.5 -18.5t15.5 -51.5q0 -30 -10 -56t-26 -46t-34 -34t-35 -20z" />
    <glyph glyph-name="hyphen" unicode="-" horiz-adv-x="372" 
d="M63 306h260l-7 -69h-260z" />
    <glyph glyph-name="period" unicode="." horiz-adv-x="201" 
d="M78 -6q-25 0 -40 14.5t-15 39.5q0 26 16.5 44.5t45.5 18.5q24 0 39 -15t15 -40q0 -26 -15.5 -44t-45.5 -18z" />
    <glyph glyph-name="slash" unicode="/" horiz-adv-x="392" 
d="M339 706h84l-368 -932h-86z" />
    <glyph glyph-name="zero" unicode="0" horiz-adv-x="597" 
d="M271 -6q-112 0 -165 76.5t-53 210.5q0 95 18 173.5t54 134.5t91 86.5t130 30.5q113 0 167 -78t54 -213q0 -94 -18 -172t-54.5 -133t-92 -85.5t-131.5 -30.5zM280 73q51 0 88 24t60 68.5t34 107.5t11 142q0 104 -33 158t-102 54q-50 0 -86 -24t-59.5 -69t-34.5 -108.5
t-11 -142.5q0 -104 32.5 -157t100.5 -53z" />
    <glyph glyph-name="one" unicode="1" horiz-adv-x="439" 
d="M245 546q-32 -27 -72.5 -39t-94.5 -12l9 82q45 0 76.5 10.5t52.5 28t31.5 39.5t13.5 45h89l-74 -700h-89z" />
    <glyph glyph-name="two" unicode="2" horiz-adv-x="536" 
d="M18 20q8 74 40.5 122.5t77 83t94.5 61.5t92 57t69.5 69t27.5 99q0 53 -30.5 84t-88.5 31q-42 0 -68.5 -14.5t-42.5 -34.5t-23 -41t-9 -35h-88q3 27 15.5 62.5t40 67t72 53t110.5 21.5q103 0 153.5 -51.5t50.5 -138.5q0 -70 -27.5 -120t-69 -87t-90 -64t-92 -52t-74 -50.5
t-35.5 -59.5l-1 -6h360l-8 -77h-458z" />
    <glyph glyph-name="three" unicode="3" horiz-adv-x="540" 
d="M243 -6q-182 0 -227 137l83 36q11 -44 52 -69t98 -25q81 0 117 36t36 93q0 23 -8 44t-27 37t-50.5 25.5t-79.5 9.5h-30l8 70h40q76 0 117.5 36.5t41.5 96.5q0 28 -9 48t-24.5 33t-35.5 19t-43 6q-24 0 -47 -5.5t-42 -19.5t-33.5 -38t-21.5 -62h-87q17 102 78 153t161 51
q43 0 78.5 -11.5t61.5 -33.5t40.5 -55t14.5 -75q0 -64 -32.5 -106.5t-76.5 -59.5q53 -22 75 -63t22 -98q0 -47 -16.5 -85.5t-48 -66.5t-78 -43t-107.5 -15z" />
    <glyph glyph-name="four" unicode="4" horiz-adv-x="541" 
d="M328 156h-316l8 77l290 467h93l-287 -467h219l18 165h90l-18 -165h96l-8 -77h-96l-16 -156h-89z" />
    <glyph glyph-name="five" unicode="5" horiz-adv-x="552" 
d="M255 -6q-88 0 -146.5 34.5t-81.5 102.5l83 45q20 -54 58.5 -78.5t98.5 -24.5q74 0 114.5 43.5t40.5 123.5q0 72 -35.5 104t-92.5 32q-48 0 -80.5 -15t-52.5 -34h-86l40 373h415l-9 -83h-329l-22 -210q23 22 59.5 36.5t87.5 14.5q92 0 146 -51.5t54 -152.5
q0 -122 -69 -191t-193 -69z" />
    <glyph glyph-name="six" unicode="6" horiz-adv-x="571" 
d="M333 419q92 0 146 -44.5t54 -137.5q0 -52 -17 -96.5t-49 -77t-77 -51t-101 -18.5t-100 20.5t-74.5 57t-46.5 88.5t-16 115q0 110 24 191t65.5 134t97.5 79.5t121 26.5q83 0 131.5 -37t48.5 -104q0 -16 -4 -35t-9 -33h-85q7 25 7 44q0 43 -26 64.5t-69 21.5
q-88 0 -144 -71t-65 -222q40 47 89.5 66t98.5 19zM300 73q68 0 104 40t36 102q0 121 -126 121q-54 0 -97.5 -28.5t-70.5 -69.5q8 -81 47.5 -123t106.5 -42z" />
    <glyph glyph-name="seven" unicode="7" horiz-adv-x="479" 
d="M94 0q9 82 34 150t58 125t69.5 105t68 89.5t53.5 77.5t26 70h-347l8 83h444l-5 -44q-6 -53 -29 -99.5t-55.5 -92t-69.5 -93t-70 -102.5t-59 -121t-35 -148h-91z" />
    <glyph glyph-name="eight" unicode="8" horiz-adv-x="556" 
d="M418 357q49 -25 71.5 -63t22.5 -91q0 -46 -17.5 -84t-50 -66t-78.5 -43.5t-103 -15.5q-112 0 -169.5 45t-57.5 124q0 70 36 119.5t90 80.5q-32 23 -49.5 57.5t-17.5 79.5t16.5 83t46.5 65.5t72 42.5t93 15q45 0 82 -11t63.5 -32t41 -52t14.5 -70q0 -66 -30.5 -110.5
t-75.5 -73.5zM316 627q-57 0 -94 -28t-37 -87q0 -34 19 -60t51 -37l90 -30q48 26 68 61.5t20 73.5q0 54 -33 80.5t-84 26.5zM267 72q77 0 114 33t37 93q0 35 -19 59.5t-64 39.5l-108 35q-39 -24 -68 -59t-29 -93q0 -48 31.5 -78t105.5 -30z" />
    <glyph glyph-name="nine" unicode="9" horiz-adv-x="571" 
d="M306 706q117 0 177 -74t60 -208q0 -109 -21.5 -190t-61 -134t-94.5 -79.5t-122 -26.5q-74 0 -125 24.5t-77 75.5l74 55q23 -42 53 -59.5t82 -17.5q36 0 69.5 15t59.5 47t44.5 82.5t24.5 121.5q-41 -46 -84.5 -61.5t-103.5 -15.5q-42 0 -78.5 12.5t-63.5 37t-42.5 61.5
t-15.5 86q0 55 18 100.5t50.5 78.5t77.5 51t99 18zM284 343q35 0 61.5 8t47 21t35 28.5t24.5 31.5q-4 103 -43 149t-105 46q-33 0 -60.5 -11t-47.5 -31t-31.5 -48.5t-11.5 -64.5q0 -63 33 -96t98 -33z" />
    <glyph glyph-name="colon" unicode=":" horiz-adv-x="229" 
d="M136 412q-25 0 -40 14.5t-15 39.5q0 26 16.5 44.5t45.5 18.5q24 0 39 -15t15 -40q0 -26 -15.5 -44t-45.5 -18zM92 -6q-25 0 -40 14.5t-15 39.5q0 26 16.5 44.5t45.5 18.5q24 0 39 -15t15 -40q0 -26 -15.5 -44t-45.5 -18z" />
    <glyph glyph-name="semicolon" unicode=";" horiz-adv-x="235" 
d="M133 372q-25 0 -40 14.5t-15 39.5q0 26 16.5 44.5t45.5 18.5q24 0 39 -15t15 -40q0 -26 -15.5 -44t-45.5 -18zM32 -74q21 11 37.5 27.5t21.5 40.5q-52 8 -52 58q0 26 17 42.5t43 16.5q29 0 44.5 -18.5t15.5 -51.5q0 -30 -10 -56t-26 -46t-34 -34t-35 -20z" />
    <glyph glyph-name="less" unicode="&#x3c;" horiz-adv-x="386" 
d="M23 219l8 75l336 198l-9 -82l-250 -155l218 -152l-9 -82z" />
    <glyph glyph-name="equal" unicode="=" horiz-adv-x="484" 
d="M74 394h368l-8 -69h-367zM53 195h368l-7 -68h-367z" />
    <glyph glyph-name="greater" unicode="&#x3e;" horiz-adv-x="386" 
d="M33 107l248 152l-217 151l9 82l294 -198l-8 -75l-336 -198z" />
    <glyph glyph-name="question" unicode="?" horiz-adv-x="442" 
d="M159 187q6 55 22 92.5t37.5 64.5t44.5 47t42 41t31.5 45t12.5 60q0 41 -24 66t-72 25t-78 -27t-38 -87h-84q9 90 61.5 141.5t146.5 51.5q49 0 83.5 -13t56.5 -35t32 -51t10 -60q0 -49 -13.5 -82t-34.5 -58t-45.5 -45.5t-47 -44t-39 -54.5t-21.5 -77h-83zM187 -6
q-25 0 -40 14.5t-15 39.5q0 26 16.5 44.5t45.5 18.5q24 0 39 -15t15 -40q0 -26 -15.5 -44t-45.5 -18z" />
    <glyph glyph-name="at" unicode="@" horiz-adv-x="808" 
d="M543 43q-43 0 -62.5 21.5t-17.5 59.5q-37 -50 -71 -64.5t-66 -14.5q-53 0 -82.5 34t-29.5 96t20.5 113.5t54.5 89t77.5 58.5t89.5 21q38 0 62 -13t37 -35l15 42h72q-36 -97 -57 -155.5t-31.5 -91t-14 -46t-4.5 -21.5q-3 -30 29 -30q25 0 52 22t49.5 58t37 81t14.5 91
q0 48 -14.5 86.5t-42.5 66.5t-68.5 43t-91.5 15q-80 0 -150.5 -32.5t-123 -88t-82.5 -130.5t-30 -161q0 -55 16 -99.5t45.5 -75.5t72 -47.5t94.5 -16.5q93 0 154 24t105 66l43 -52q-48 -48 -126.5 -79.5t-183.5 -31.5q-69 0 -125 21.5t-95 61t-60 96t-21 125.5
q0 104 36.5 193.5t101 156.5t151.5 105t189 38q65 0 117 -19.5t89 -55.5t56.5 -87t19.5 -113q0 -65 -20.5 -124t-55 -103.5t-79.5 -71t-95 -26.5zM355 115q22 0 44 10.5t43.5 36.5t42.5 70.5t42 111.5q-5 23 -25 35t-49 12q-32 0 -60.5 -14.5t-50.5 -40.5t-34.5 -62.5
t-12.5 -80.5q0 -37 15.5 -57.5t44.5 -20.5z" />
    <glyph glyph-name="A" unicode="A" horiz-adv-x="604" 
d="M434 195h-272l-88 -195h-89l322 700h89l173 -700h-90zM417 269l-75 325l-146 -325h221z" />
    <glyph glyph-name="B" unicode="B" horiz-adv-x="599" 
d="M132 700h221q105 0 155.5 -41t50.5 -119q0 -61 -31 -103.5t-76 -62.5v-2q20 -6 39 -18.5t33.5 -31.5t23.5 -44.5t9 -58.5q0 -51 -19 -92t-53.5 -69t-81.5 -43t-103 -15h-242zM321 394q75 0 112 37t37 92q0 51 -30.5 77t-88.5 26h-139l-25 -232h134zM306 74
q85 0 123.5 36.5t38.5 104.5q0 104 -128 104h-160l-26 -245h152z" />
    <glyph glyph-name="C" unicode="C" horiz-adv-x="589" 
d="M314 -6q-60 0 -108.5 19.5t-82.5 57t-52.5 93t-18.5 126.5q0 89 20.5 165t61 132t101.5 87.5t142 31.5q94 0 150.5 -45t56.5 -125q0 -22 -4 -41t-11 -38h-81q7 20 9 35t2 29q0 30 -10.5 51t-29 34t-44 19t-54.5 6q-50 0 -89.5 -25t-67.5 -70t-42.5 -106.5t-14.5 -133.5
q0 -113 48.5 -170t123.5 -57q59 0 99.5 22t78.5 75l52 -48q-48 -66 -104 -95t-131 -29z" />
    <glyph glyph-name="D" unicode="D" horiz-adv-x="661" 
d="M132 700h207q65 0 118.5 -17t92.5 -53.5t60.5 -93t21.5 -134.5q0 -106 -30.5 -182t-81 -125t-116 -72t-135.5 -23h-211zM271 79q60 0 109.5 19t85 57.5t54.5 97.5t19 139q0 119 -56.5 174t-155.5 55h-116l-56 -542h116z" />
    <glyph glyph-name="E" unicode="E" horiz-adv-x="550" 
d="M132 700h425l-9 -82h-337l-23 -221h285l-9 -82h-285l-24 -233h337l-9 -82h-425z" />
    <glyph glyph-name="F" unicode="F" horiz-adv-x="516" 
d="M132 700h411l-7 -82h-325l-25 -235h273l-9 -82h-273l-31 -301h-88z" />
    <glyph glyph-name="G" unicode="G" horiz-adv-x="627" 
d="M316 -10q-125 0 -194.5 75t-69.5 226q0 98 23.5 175.5t66.5 130.5t104 81t136 28q107 0 160 -45.5t53 -123.5q0 -20 -3 -35.5t-8 -24.5h-85q2 5 4.5 16.5t2.5 29.5q0 54 -36 81t-98 27q-106 0 -166 -86t-60 -244q0 -110 47.5 -173t136.5 -63q60 0 96 15.5t50 32.5l16 155
h-152l9 82h238l-29 -271q-15 -15 -37.5 -31t-53 -29t-68.5 -21t-83 -8z" />
    <glyph glyph-name="H" unicode="H" horiz-adv-x="632" 
d="M128 700h88l-32 -304h298l32 304h88l-74 -700h-88l33 312h-298l-33 -312h-88z" />
    <glyph glyph-name="I" unicode="I" horiz-adv-x="254" 
d="M132 700h88l-74 -700h-88z" />
    <glyph glyph-name="J" unicode="J" horiz-adv-x="453" 
d="M169 -6q-69 0 -111 22.5t-64 54.5l63 61q18 -25 44 -43.5t66 -18.5q54 0 82 36t35 102l52 492h87l-53 -503q-11 -98 -59.5 -150.5t-141.5 -52.5z" />
    <glyph glyph-name="K" unicode="K" horiz-adv-x="616" 
d="M380 336q22 -17 36.5 -43t27 -54.5t23.5 -57t25.5 -51.5t34 -37t47.5 -14h18l-9 -78q-8 -2 -20 -3t-21 -1q-49 0 -79 23t-50 57t-34 74t-31.5 74t-42.5 57t-66 23h-60l-33 -305h-88l74 700h88l-33 -311h57q44 0 86.5 15t78.5 51t62 95.5t36 149.5h88
q-15 -140 -72.5 -231.5t-142.5 -132.5z" />
    <glyph glyph-name="L" unicode="L" horiz-adv-x="511" 
d="M132 700h89l-66 -623h325l-8 -77h-414z" />
    <glyph glyph-name="M" unicode="M" horiz-adv-x="787" 
d="M132 700h88l171 -502l279 502h83l-74 -700h-85l54 522l-20 -44l-219 -384h-63l-137 389l-12 48l-55 -531h-84z" />
    <glyph glyph-name="N" unicode="N" horiz-adv-x="648" 
d="M132 700h75l254 -525l10 -29l58 554h85l-75 -700h-76l-256 524l-9 27l-57 -551h-83z" />
    <glyph glyph-name="O" unicode="O" horiz-adv-x="683" 
d="M323 -6q-54 0 -103.5 16.5t-86.5 52t-59 91.5t-22 136q0 111 26.5 190t71.5 129t105.5 73.5t128.5 23.5q54 0 102.5 -17t86 -53t59.5 -93t22 -137q0 -111 -26.5 -189t-71.5 -127.5t-105 -72.5t-128 -23zM331 69q48 0 90 18.5t73 58.5t49 103t18 153q0 65 -15.5 108.5
t-41.5 70.5t-59.5 38.5t-68.5 11.5q-48 0 -90 -19t-73.5 -59.5t-49.5 -104t-18 -153.5q0 -64 15.5 -107.5t41 -69.5t59.5 -37.5t70 -11.5z" />
    <glyph glyph-name="P" unicode="P" horiz-adv-x="570" 
d="M132 700h215q104 0 163 -47t59 -147q0 -63 -20 -110.5t-55.5 -78.5t-84.5 -46.5t-108 -15.5h-128l-27 -255h-88zM304 329q89 0 131 45.5t42 121.5q0 61 -35.5 95t-110.5 34h-120l-30 -296h123z" />
    <glyph glyph-name="Q" unicode="Q" horiz-adv-x="712" 
d="M654 406q0 -101 -22 -175t-60.5 -124t-90.5 -76.5t-112 -33.5q12 -76 54 -109t106 -33l-9 -81q-57 0 -100 17.5t-72 47.5t-45 70.5t-20 86.5q-48 6 -90 25.5t-73.5 55t-49.5 88.5t-18 125q0 111 26.5 190t71.5 129t105.5 73.5t128.5 23.5q54 0 102.5 -17t86 -53t59.5 -93
t22 -137zM331 69q48 0 90 18.5t73 58.5t49 103t18 153q0 65 -15.5 108.5t-41.5 70.5t-59.5 38.5t-68.5 11.5q-48 0 -90 -19t-73.5 -59.5t-49.5 -104t-18 -153.5q0 -64 15.5 -107.5t41 -69.5t59.5 -37.5t70 -11.5z" />
    <glyph glyph-name="R" unicode="R" horiz-adv-x="613" 
d="M514 -3q-39 0 -62.5 21.5t-39 53t-27 69t-26 69t-36 53t-57.5 21.5h-90l-30 -284h-88l74 700h221q102 0 157.5 -45.5t55.5 -138.5q0 -43 -13 -78t-35 -61t-52 -44t-65 -27q20 -11 33 -32t22.5 -46.5t17.5 -52t18 -48t24.5 -35.5t37.5 -14h28l-8 -77q-1 0 -19 -2t-41 -2z
M299 355q36 0 68 9.5t55.5 28t37.5 46.5t14 64q0 57 -34 89.5t-100 32.5h-129l-28 -270h116z" />
    <glyph glyph-name="S" unicode="S" horiz-adv-x="556" 
d="M266 -6q-96 0 -156 28.5t-96 89.5l70 52q28 -48 72.5 -71.5t118.5 -23.5q69 0 109.5 31t40.5 91q0 26 -8 45t-26 34.5t-48 27.5t-75 22q-43 10 -78 24.5t-59.5 36t-38 51t-13.5 70.5q0 96 65 150t179 54q41 0 79 -8.5t67 -27.5t46.5 -49t17.5 -73q0 -22 -3 -32.5
t-7 -20.5l-83 1q7 21 7 38q0 51 -35.5 74t-98.5 23q-74 0 -110 -30.5t-36 -84.5q0 -26 8 -43t26 -29.5t48.5 -22.5t75.5 -22q53 -14 89.5 -31.5t58.5 -41.5t31.5 -54.5t9.5 -70.5q0 -49 -17.5 -88t-50 -65t-78.5 -40t-102 -14z" />
    <glyph glyph-name="T" unicode="T" horiz-adv-x="520" 
d="M256 618h-201l9 82h490l-9 -82h-201l-65 -618h-88z" />
    <glyph glyph-name="U" unicode="U" horiz-adv-x="644" 
d="M300 -6q-52 0 -96.5 14.5t-74.5 48.5t-44 90t-5 140l43 413h89l-44 -419q-11 -109 25 -159.5t114 -50.5q77 0 123 47.5t58 162.5l44 419h85l-43 -413q-9 -87 -33.5 -143.5t-60.5 -90t-82 -46.5t-98 -13z" />
    <glyph glyph-name="V" unicode="V" horiz-adv-x="594" 
d="M59 700h100l125 -593l253 593h96l-318 -700h-85z" />
    <glyph glyph-name="W" unicode="W" horiz-adv-x="891" 
d="M65 700h101l68 -596l221 596h84l94 -596l196 596h95l-254 -700h-98l-88 568l-214 -568h-98z" />
    <glyph glyph-name="X" unicode="X" horiz-adv-x="555" 
d="M344 362l178 -362h-98l-142 296l-206 -296h-107l265 364l-168 336h101l128 -271l187 271h105z" />
    <glyph glyph-name="Y" unicode="Y" horiz-adv-x="572" 
d="M249 291l-185 409h102l136 -324l204 324h102l-272 -409l-31 -291h-87z" />
    <glyph glyph-name="Z" unicode="Z" horiz-adv-x="553" 
d="M559 633l-439 -557h382l-8 -76h-486l7 67l442 557h-382l9 76h483z" />
    <glyph glyph-name="bracketleft" unicode="[" horiz-adv-x="305" 
d="M128 726h208l-8 -77h-121l-86 -816h121l-8 -77h-208z" />
    <glyph glyph-name="backslash" unicode="\" horiz-adv-x="394" 
d="M67 706h87l173 -932h-87z" />
    <glyph glyph-name="bracketright" unicode="]" horiz-adv-x="305" 
d="M-23 -167h121l86 816h-121l8 77h208l-102 -970h-208z" />
    <glyph glyph-name="asciicircum" unicode="^" horiz-adv-x="350" 
d="M177 723h98l70 -205h-78l-48 138l-77 -138h-79z" />
    <glyph glyph-name="underscore" unicode="_" horiz-adv-x="452" 
d="M23 0h356l-7 -65h-356z" />
    <glyph glyph-name="grave" unicode="`" horiz-adv-x="263" 
d="M89 726h104l63 -174h-76z" />
    <glyph glyph-name="a" unicode="a" horiz-adv-x="527" 
d="M202 -12q-81 0 -123.5 58.5t-42.5 154.5q0 63 16 117t45.5 93t71.5 61t94 22q46 0 78.5 -18t51.5 -51l6 57h78l-38 -364q-3 -29 4.5 -41t30.5 -12l-7 -64q-5 -2 -16.5 -3t-22.5 -1q-37 0 -56 19.5t-17 52.5v4q-23 -38 -60 -61.5t-93 -23.5zM231 61q44 0 76.5 28t49.5 75
l16 154q-2 19 -9 37.5t-19.5 33t-31.5 23.5t-44 9q-33 0 -59.5 -15.5t-45 -44t-28.5 -67.5t-10 -87q0 -67 25.5 -106.5t79.5 -39.5z" />
    <glyph glyph-name="b" unicode="b" horiz-adv-x="517" 
d="M258 -12q-35 0 -59 10t-39.5 23.5t-23 28t-10.5 22.5l-8 -72h-78l76 726h88l-31 -302q6 9 18 21.5t29.5 23t40.5 18t51 7.5q81 0 125.5 -57t44.5 -157q0 -64 -16.5 -117.5t-46 -92.5t-70.5 -60.5t-91 -21.5zM249 61q70 0 106.5 59.5t36.5 156.5q0 70 -26.5 106.5
t-77.5 36.5q-25 0 -45.5 -9.5t-36 -24t-27 -32.5t-18.5 -36l-16 -155q1 -4 4.5 -20.5t14 -34.5t31 -32.5t54.5 -14.5z" />
    <glyph glyph-name="c" unicode="c" horiz-adv-x="458" 
d="M229 -12q-91 0 -141.5 51.5t-50.5 152.5q0 69 17 125t47.5 95.5t74 60.5t95.5 21q78 0 120 -34t42 -98q0 -21 -4.5 -40t-9.5 -30h-76q4 9 7 24.5t3 29.5q0 42 -24 58.5t-60 16.5q-66 0 -103.5 -59.5t-37.5 -168.5q0 -66 29.5 -98.5t80.5 -32.5q46 0 75 18.5t50 47.5
l50 -46q-28 -39 -73 -66.5t-111 -27.5z" />
    <glyph glyph-name="d" unicode="d" horiz-adv-x="527" 
d="M207 -12q-81 0 -126 57.5t-45 160.5q0 63 16.5 116t46.5 91t72 59.5t92 21.5q47 0 77 -19.5t44 -46.5l31 298h88l-64 -608q-3 -29 4.5 -41t30.5 -12l-7 -64q-5 -2 -16.5 -3t-22.5 -1q-37 0 -57.5 19.5t-15.5 52.5l1 7q-19 -37 -58 -62.5t-91 -25.5zM237 62
q38 0 70.5 27.5t49.5 74.5l16 154q-2 19 -9 37.5t-19.5 33t-31 23.5t-43.5 9q-70 0 -107 -58t-37 -160q0 -66 28.5 -103.5t82.5 -37.5z" />
    <glyph glyph-name="e" unicode="e" horiz-adv-x="456" 
d="M230 62q43 0 71.5 15t57.5 51l51 -45q-38 -52 -87.5 -73.5t-106.5 -21.5q-86 0 -134 54t-48 152q0 66 18.5 121t51.5 94.5t78.5 62t100.5 22.5q68 0 106 -34.5t38 -93.5q0 -60 -29 -95.5t-73.5 -54t-97.5 -25t-102 -9.5q5 -61 32.5 -90.5t72.5 -29.5zM273 421
q-55 0 -95.5 -46t-50.5 -125q31 1 68 4t69.5 14t54 32.5t21.5 57.5q0 31 -16 47t-51 16z" />
    <glyph glyph-name="f" unicode="f" horiz-adv-x="324" 
d="M107 408h-67l8 74h69l7 67q9 85 57.5 134t124.5 49q34 0 60.5 -10.5t43.5 -27.5l-47 -61q-12 12 -27 17t-35 5q-37 0 -61.5 -24t-30.5 -80l-7 -69h136l-8 -74h-136l-43 -408h-87z" />
    <glyph glyph-name="g" unicode="g" horiz-adv-x="517" 
d="M195 -240q-69 0 -112 25.5t-62 65.5l64 48q14 -27 41.5 -46t77.5 -19q58 0 93 34t42 94l12 110q-16 -32 -50.5 -58t-96.5 -26q-80 0 -124 58.5t-44 154.5q0 62 16.5 115.5t46 93t71 62t91.5 22.5q48 0 79.5 -20t51.5 -57l7 65h79l-55 -520q-10 -92 -65.5 -147t-162.5 -55
zM232 62q47 0 77.5 27.5t47.5 74.5l16 154q-2 19 -9 37.5t-19.5 33t-31 23.5t-43.5 9q-70 0 -107 -59.5t-37 -157.5q0 -66 26.5 -104t79.5 -38z" />
    <glyph glyph-name="h" unicode="h" horiz-adv-x="518" 
d="M425 -3q-45 0 -64.5 27.5t-14.5 72.5l22 212q5 50 -14 79.5t-68 29.5q-30 0 -52.5 -11.5t-38.5 -29.5t-25 -40t-11 -43l-31 -294h-88l76 726h88l-32 -310q18 31 53.5 54.5t88.5 23.5q44 0 73 -15t46 -40.5t22 -60t1 -73.5l-20 -192q-3 -26 5.5 -37t29.5 -11l-7 -64
q-5 -2 -16 -3t-23 -1z" />
    <glyph glyph-name="i" unicode="i" horiz-adv-x="229" 
d="M149 579q-27 0 -41 16t-14 39q0 26 16.5 45.5t48.5 19.5q26 0 40 -16.5t14 -38.5q0 -26 -16.5 -45.5t-47.5 -19.5zM130 -3q-46 0 -65 27.5t-14 72.5l40 385h89l-39 -369q-3 -26 5 -37t30 -11l-7 -64q-5 -2 -16 -3t-23 -1z" />
    <glyph glyph-name="j" unicode="j" horiz-adv-x="225" 
d="M151 579q-27 0 -41 16t-14 39q0 26 16.5 45.5t48.5 19.5q26 0 40 -16.5t14 -38.5q0 -26 -16.5 -45.5t-47.5 -19.5zM-52 -247q-23 0 -39 4.5t-26 9.5q-12 6 -20 14l33 61q6 -4 13 -8q7 -3 16.5 -5t21.5 -2q81 0 93 114l57 541h86l-57 -545q-9 -86 -51.5 -135t-126.5 -49z
" />
    <glyph glyph-name="k" unicode="k" horiz-adv-x="479" 
d="M454 65l-7 -62q-1 0 -11.5 -3t-25.5 -3q-45 0 -69.5 15.5t-38 39.5t-21.5 51t-21 51t-36 39.5t-67 15.5h-7l-22 -209h-88l76 726h88l-46 -444h31q82 0 123 54.5t55 145.5h80q-4 -26 -12 -59.5t-24.5 -67.5t-43.5 -65t-69 -52q31 -19 43.5 -48t23 -57t26.5 -48t53 -20h10z
" />
    <glyph glyph-name="l" unicode="l" horiz-adv-x="230" 
d="M129 -3q-43 0 -63.5 23.5t-14.5 78.5l66 627h88l-64 -613q-3 -26 5 -35t31 -9l-7 -68q-7 -2 -18 -3t-23 -1z" />
    <glyph glyph-name="m" unicode="m" horiz-adv-x="820" 
d="M728 -3q-45 0 -64.5 27.5t-14.5 72.5l22 207q6 54 -13.5 84.5t-71.5 30.5q-26 0 -47 -10.5t-36.5 -28t-25 -40.5t-12.5 -48l-31 -292h-88l32 304q5 54 -15 84.5t-71 30.5q-29 0 -51.5 -11.5t-38 -30t-24 -41.5t-11.5 -46l-30 -290h-88l39 373q3 26 -5 37t-29 11l7 64
q5 2 16 3t23 1q37 0 54 -20.5t17 -55.5v-4q8 13 21 28t31.5 27.5t43 21t56.5 8.5q60 0 90 -25.5t44 -64.5q22 35 60.5 62.5t94.5 27.5q46 0 76 -15t47.5 -41t22.5 -60.5t1 -72.5l-20 -192q-3 -26 5.5 -37t28.5 -11l-7 -64q-5 -2 -16 -3t-22 -1z" />
    <glyph glyph-name="n" unicode="n" horiz-adv-x="527" 
d="M434 -3q-45 0 -64 27.5t-14 72.5l22 207q6 60 -16.5 87.5t-68.5 27.5q-51 0 -86 -38t-41 -100l-29 -281h-88l39 373q3 26 -5 37t-29 11l7 64q5 2 16 3t23 1q38 0 54 -21.5t16 -59.5v-3q48 89 152 89q77 0 115.5 -49t28.5 -140l-20 -192q-3 -26 5 -37t29 -11l-7 -64
q-5 -2 -16 -3t-23 -1z" />
    <glyph glyph-name="o" unicode="o" horiz-adv-x="503" 
d="M233 -12q-94 0 -145 57t-51 159q0 68 17 121.5t48.5 91t75 57.5t95.5 20q91 0 142.5 -57t51.5 -159q0 -67 -17.5 -120.5t-48.5 -91t-74 -58t-94 -20.5zM239 61q62 0 100 55t38 158q0 72 -29 109.5t-83 37.5q-60 0 -99 -54.5t-39 -158.5q0 -72 28.5 -109.5t83.5 -37.5z
" />
    <glyph glyph-name="p" unicode="p" horiz-adv-x="527" 
d="M88 373q3 26 -5 37t-29 11l7 64q5 2 16 3t23 1q73 0 70 -86v-3q24 42 61 68t94 26q78 0 122.5 -54.5t44.5 -153.5q0 -66 -14.5 -121t-42.5 -94.5t-70 -61t-97 -21.5q-48 0 -79.5 20.5t-45.5 46.5l-30 -284h-88zM266 61q71 0 103.5 60t32.5 159q0 69 -28 104.5t-79 35.5
q-46 0 -77 -28.5t-48 -73.5l-16 -155q5 -42 32.5 -72t79.5 -30z" />
    <glyph glyph-name="q" unicode="q" horiz-adv-x="517" 
d="M345 56q-7 -9 -19 -20.5t-30 -22t-41.5 -18t-54.5 -7.5q-38 0 -68.5 15.5t-51.5 42.5t-32.5 64.5t-11.5 81.5q0 75 18 131.5t49 94.5t71 57t85 19q37 0 61.5 -11t39.5 -25t22.5 -27.5t10.5 -18.5l8 70h77l-75 -711h-88zM231 62q45 0 75.5 25.5t50.5 76.5l16 153
q-1 18 -8 36.5t-19.5 33.5t-31.5 24.5t-45 9.5q-34 0 -61 -16t-45 -44.5t-27.5 -68.5t-9.5 -88q0 -69 28.5 -105.5t76.5 -36.5z" />
    <glyph glyph-name="r" unicode="r" horiz-adv-x="351" 
d="M88 373q3 26 -5 37t-29 11l7 64q5 2 16 3t23 1q38 0 56 -21t14 -57l-1 -9q18 43 56.5 67.5t87.5 24.5q18 0 35.5 -4.5t26.5 -12.5l-44 -82q-17 12 -49 12q-25 0 -45.5 -11.5t-35.5 -31t-24 -45t-12 -54.5l-28 -265h-88z" />
    <glyph glyph-name="s" unicode="s" horiz-adv-x="450" 
d="M197 -12q-65 0 -114 22.5t-75 70.5l64 52q26 -43 61 -57.5t71 -14.5q59 0 86 16t27 51q0 17 -9 29t-25 21t-36 15t-43 11q-26 6 -52 15.5t-47 25.5t-34 40t-13 58q0 72 50 111.5t141 39.5q77 0 122.5 -32.5t45.5 -92.5q0 -17 -4 -32t-9 -27h-78q4 8 6.5 21.5t2.5 23.5
q0 35 -25 50.5t-68 15.5q-52 0 -75 -18.5t-23 -47.5q0 -19 7 -31.5t21.5 -20.5t36 -14t51.5 -13q26 -6 51.5 -15t46 -24.5t33 -38t12.5 -55.5q0 -78 -56 -116.5t-150 -38.5z" />
    <glyph glyph-name="t" unicode="t" horiz-adv-x="390" 
d="M237 -6q-84 0 -118 45t-24 141l24 226h-86l8 76h90l13 140h85l-14 -140h173l-8 -76h-174l-23 -223q-6 -56 12.5 -82t60.5 -26q22 0 41 8t33 18l37 -62q-23 -19 -59 -32t-71 -13z" />
    <glyph glyph-name="u" unicode="u" horiz-adv-x="518" 
d="M193 -12q-75 0 -112 45t-28 130l34 319h87l-32 -308q-7 -63 17 -87.5t69 -24.5q29 0 50.5 12t37 30.5t24.5 40.5t11 43l31 294h88l-39 -368q-2 -23 4.5 -36t29.5 -13l-7 -64q-1 0 -11 -2t-29 -2q-37 0 -55.5 20t-13.5 58l1 6q-10 -18 -23.5 -34.5t-32.5 -29.5t-43.5 -21
t-57.5 -8z" />
    <glyph glyph-name="v" unicode="v" horiz-adv-x="470" 
d="M483 482l-227 -484h-92l-125 484h92l80 -333l11 -57l21 57l150 333h90z" />
    <glyph glyph-name="w" unicode="w" horiz-adv-x="710" 
d="M721 482l-199 -482h-95l-49 318l-5 50l-17 -50l-123 -318h-96l-95 482h90l48 -307l13 -88l31 88l118 307h88l46 -306l11 -89l32 89l116 306h86z" />
    <glyph glyph-name="x" unicode="x" horiz-adv-x="444" 
d="M274 246l137 -246h-99l-97 186l-134 -186h-98l188 249l-128 233h103l84 -173l125 173h96z" />
    <glyph glyph-name="y" unicode="y" horiz-adv-x="508" 
d="M186 -247q-75 0 -117.5 25t-57.5 67l64 45q15 -31 43.5 -47t75.5 -16q58 0 93.5 34t41.5 94l14 130q-25 -44 -66.5 -67.5t-95.5 -23.5q-145 0 -127 173l33 315h88l-32 -304q-12 -110 76 -110q22 0 44.5 11t40.5 29.5t30.5 42t15.5 48.5l30 283h88l-55 -527
q-10 -93 -70.5 -147.5t-156.5 -54.5z" />
    <glyph glyph-name="z" unicode="z" horiz-adv-x="472" 
d="M430 410l-230 -168q36 -6 74 -21t69.5 -43t51.5 -72t20 -107q0 -58 -18.5 -103t-49.5 -76t-72.5 -47t-86.5 -16q-86 0 -134.5 44t-48.5 120q0 49 16 89t40.5 70.5t54.5 53.5t57 38q-19 2 -38.5 3.5t-39.5 1.5l8 76l210 154h-249l8 75h366zM336 -15q0 66 -24 105t-64 59
q-25 -13 -53 -32t-51.5 -45t-38.5 -59.5t-15 -76.5q0 -50 28 -77.5t80 -27.5q29 0 54 11t44 31t29.5 48.5t10.5 63.5z" />
    <glyph glyph-name="braceleft" unicode="{" horiz-adv-x="305" 
d="M230 -234q-35 -8 -67 -2t-55 26t-35 55t-7 87l21 204q4 36 -13 51.5t-41 15.5h-10l8 76h10q24 0 44 15.5t24 51.5l22 204q6 52 25 87.5t46.5 55.5t61 25.5t66.5 -2.5l-8 -78q-44 15 -73.5 -14.5t-35.5 -87.5l-22 -211q-3 -24 -10 -39.5t-15.5 -25t-17 -13.5t-13.5 -6
q4 -1 11.5 -6t14 -15t11 -25.5t2.5 -37.5l-23 -211q-6 -58 17.5 -87.5t70.5 -14.5z" />
    <glyph glyph-name="bar" unicode="|" horiz-adv-x="230" 
d="M129 736h76l-104 -990h-76z" />
    <glyph glyph-name="braceright" unicode="}" horiz-adv-x="316" 
d="M86 716q35 8 67 2t55 -26t35 -55t7 -87l-21 -204q-4 -36 13 -51.5t41 -15.5h10l-8 -76h-10q-24 0 -44 -15.5t-24 -51.5l-22 -204q-6 -52 -25 -87.5t-46.5 -55.5t-61 -25.5t-66.5 2.5l8 78q44 -15 73.5 14.5t35.5 87.5l22 211q3 24 10 39.5t15.5 25t17 14t13.5 5.5
q-4 1 -11.5 6t-14 15t-11 25.5t-2.5 37.5l23 211q6 58 -17.5 87.5t-70.5 14.5z" />
    <glyph glyph-name="asciitilde" unicode="~" horiz-adv-x="436" 
d="M64 182q-2 5 -3 11q-2 5 -3 12.5t-1 17.5q0 38 23 65t70 27q22 0 40.5 -5.5t35 -11.5t32.5 -11.5t32 -5.5q24 0 24 26q0 7 -1 13t-2 10q-2 6 -4 10h72q1 -5 3 -12q1 -6 1.5 -13t0.5 -15q0 -37 -22 -63.5t-67 -26.5q-26 0 -46 5.5t-36 11.5t-29.5 11.5t-27.5 5.5
q-29 0 -29 -32q0 -11 4 -22q1 -4 3 -8h-70z" />
    <glyph glyph-name="exclamdown" unicode="&#xa1;" horiz-adv-x="235" 
d="M146 491q25 0 40 -14.5t15 -39.5q0 -26 -16.5 -44.5t-45.5 -18.5q-24 0 -39 15t-15 40q0 26 15.5 44t45.5 18zM121 -215h-99l62 492h76z" />
    <glyph glyph-name="cent" unicode="&#xa2;" horiz-adv-x="460" 
d="M200 104q-31 5 -58.5 21t-47.5 42.5t-31.5 64t-11.5 86.5q0 126 52.5 198.5t148.5 85.5l11 98h68l-11 -97q32 -4 55 -16.5t38.5 -27.5t24 -30.5t11.5 -24.5l-77 -42q0 2 -2.5 10.5t-9 19t-18.5 20.5t-31 14l-37 -350q31 4 52.5 17t35 27.5t19.5 25.5l6 11l43 -46l-9 -15
t-28 -34.5t-50 -36.5t-75 -22l-11 -103h-68zM245 524q-48 -11 -77.5 -60t-29.5 -138q0 -63 22 -96t50 -44z" />
    <glyph glyph-name="sterling" unicode="&#xa3;" horiz-adv-x="550" 
d="M434 474q5 17 7 30.5t2 21.5q0 51 -35 73t-87 22q-30 0 -56 -7t-45.5 -21.5t-31 -37t-11.5 -53.5q0 -40 13 -79t24 -84h224l-9 -78h-201q1 -7 1 -13.5v-14.5q0 -44 -20 -87t-51 -68h341l-8 -78h-465l6 57q45 24 75.5 69t30.5 97q0 10 -0.5 19.5t-1.5 18.5h-87l9 78h59
q-11 35 -21.5 70t-10.5 80q0 52 18 91.5t50.5 66t77 40t97.5 13.5q39 0 76 -8.5t65.5 -27t46 -48t17.5 -71.5q0 -26 -3.5 -41.5t-8.5 -29.5h-87z" />
    <glyph glyph-name="currency" unicode="&#xa4;" horiz-adv-x="546" 
d="M40 179l86 81q-8 16 -11.5 35t-3.5 39q0 59 34 108l-67 80l50 46l66 -79q23 20 51.5 31t59.5 11q30 0 55 -11t44 -31l84 79l41 -46l-85 -80q8 -17 12.5 -37t4.5 -40q0 -56 -36 -106l66 -76l-51 -46l-65 76q-22 -20 -50 -31t-58 -11q-31 0 -57 11t-45 31l-84 -80zM274 240
q23 0 44.5 9.5t38 26t26 38.5t9.5 47q0 43 -26.5 72t-67.5 29q-23 0 -44.5 -9.5t-38 -26t-26.5 -38.5t-10 -47q0 -42 26.5 -71.5t68.5 -29.5z" />
    <glyph glyph-name="yen" unicode="&#xa5;" horiz-adv-x="617" 
d="M259 199h-168l7 67h168l4 36l-22 47h-141l7 68h99l-143 283h108l146 -318l212 318h109l-203 -282h99l-7 -68h-140l-33 -48l-4 -36h168l-7 -67h-168l-21 -199h-91z" />
    <glyph glyph-name="brokenbar" unicode="&#xa6;" horiz-adv-x="230" 
d="M129 736h76l-43 -412h-76zM69 166h76l-44 -420h-76z" />
    <glyph glyph-name="section" unicode="&#xa7;" horiz-adv-x="583" 
d="M234 -248q-87 0 -146.5 29t-93.5 92l64 50q34 -51 78 -71.5t107 -20.5q95 0 134 33t39 89q0 40 -27 61t-67.5 34t-87.5 23t-87.5 28.5t-67.5 50.5t-27 88q0 43 17.5 76t52.5 63q-21 23 -34 54t-13 66q0 45 18 83.5t52 66.5t82.5 43.5t108.5 15.5q73 0 117.5 -20t69.5 -44
t33.5 -44l8.5 -20l-71 -47l-7 15t-25 33t-49 33t-79 15q-87 0 -126 -33.5t-39 -85.5q0 -40 27 -60.5t68 -33t88.5 -23t88.5 -30t68 -54t27 -95.5q0 -43 -15 -77.5t-48 -60.5q18 -21 27.5 -47t9.5 -59q0 -43 -15.5 -82t-48.5 -69t-85.5 -47.5t-126.5 -17.5zM408 115
q34 34 34 83q0 42 -25 64t-63.5 34.5t-84 21t-86.5 24.5q-19 -17 -27.5 -37.5t-8.5 -43.5q0 -38 25.5 -59t64 -34.5t84.5 -24.5t87 -28z" />
    <glyph glyph-name="dieresis" unicode="&#xa8;" horiz-adv-x="348" 
d="M123 575q-27 0 -40.5 15.5t-13.5 38.5q0 25 16 44t48 19q26 0 39 -16t13 -38q0 -26 -16 -44.5t-46 -18.5zM300 575q-27 0 -40.5 15.5t-13.5 38.5q0 25 16 44t48 19q26 0 39 -16t13 -38q0 -26 -16 -44.5t-46 -18.5z" />
    <glyph glyph-name="copyright" unicode="&#xa9;" horiz-adv-x="823" 
d="M393 -23q-78 0 -141 26t-108 72t-69 110t-24 139q0 98 32 177t87 134t128.5 84.5t155.5 29.5q78 0 142 -26t109 -72.5t69.5 -110t24.5 -138.5q0 -99 -32.5 -177.5t-88 -133.5t-129 -84.5t-156.5 -29.5zM400 52q66 0 124.5 23.5t102.5 67.5t70 107.5t26 144.5
q0 62 -19.5 114t-55.5 90t-87.5 59t-114.5 21q-65 0 -123 -23.5t-102 -68.5t-70 -109.5t-26 -146.5q0 -61 19.5 -112t55.5 -88t86.5 -58t113.5 -21zM410 119q-43 0 -77 14.5t-57.5 41.5t-36 64.5t-12.5 83.5q0 65 16 117.5t46 90t72.5 58t94.5 20.5q40 0 68.5 -10.5t47 -29
t27.5 -43t9 -51.5q0 -8 -1.5 -19t-3.5 -19h-78q2 7 2 13.5v11.5q0 36 -18.5 54t-60.5 18q-34 0 -60 -16t-43 -42.5t-25.5 -61t-8.5 -72.5q0 -71 27.5 -109.5t82.5 -38.5q42 0 63 12.5t39 32.5l49 -48q-11 -14 -25 -27t-33 -23t-44 -16t-60 -6z" />
    <glyph glyph-name="ordfeminine" unicode="&#xaa;" horiz-adv-x="346" 
d="M147 406q-35 0 -58 20t-23 55q0 41 27 64t86 23h69l3 31q3 29 -7.5 39.5t-34.5 10.5q-23 0 -34.5 -9.5t-11.5 -32.5q0 -8 1 -8h-66q-1 2 -1 5q-2 7 -2 15q0 38 31 64.5t89 26.5q60 0 84 -26.5t19 -78.5l-13 -118q-2 -12 3 -16.5t18 -4.5l-6 -53q-1 0 -9 -3t-25 -3
q-19 0 -33 10t-13 33v3q-12 -17 -33 -32t-60 -15zM169 458q19 0 32.5 6t22 14.5t13 18t5.5 17.5l1 10h-65q-22 0 -34.5 -9t-12.5 -27q0 -30 38 -30z" />
    <glyph glyph-name="guillemotleft" unicode="&#xab;" horiz-adv-x="464" 
d="M34 216l8 75l162 141l41 -52l-137 -129l110 -123l-51 -53zM226 216l8 75l162 141l41 -52l-137 -129l110 -123l-51 -53z" />
    <glyph glyph-name="registered" unicode="&#xae;" horiz-adv-x="823" 
d="M393 -23q-78 0 -141 26t-108 72t-69 110t-24 139q0 98 32 177t87 134t128.5 84.5t155.5 29.5q78 0 142 -26t109 -72.5t69.5 -110t24.5 -138.5q0 -99 -32.5 -177.5t-88 -133.5t-129 -84.5t-156.5 -29.5zM400 52q66 0 124.5 23.5t102.5 67.5t70 107.5t26 144.5
q0 62 -19.5 114t-55.5 90t-87.5 59t-114.5 21q-65 0 -123 -23.5t-102 -68.5t-70 -109.5t-26 -146.5q0 -61 19.5 -112t55.5 -88t86.5 -58t113.5 -21zM560 132q-30 0 -48 14t-29 34.5t-18 45t-15.5 45t-21 34.5t-35.5 14h-59l-20 -184h-77l49 464h158q66 0 102 -30t36 -90
q0 -39 -13.5 -64.5t-30 -41t-31.5 -22t-18 -7.5q20 -12 29 -36t16 -47.5t17.5 -41t32.5 -17.5h16l-7 -68q-5 -1 -13.5 -1.5t-19.5 -0.5zM403 386q47 0 71.5 20.5t24.5 59.5q0 63 -77 63h-66l-15 -143h62z" />
    <glyph glyph-name="macron" unicode="&#xaf;" horiz-adv-x="372" 
d="M109 671h247l-8 -71h-247z" />
    <glyph glyph-name="degree" unicode="&#xb0;" horiz-adv-x="310" 
d="M181 462q-49 0 -79.5 30.5t-30.5 84.5q0 28 9.5 52.5t26.5 43t41.5 29.5t54.5 11q48 0 79 -30.5t31 -85.5q0 -28 -9.5 -52.5t-27 -43t-41.5 -29t-54 -10.5zM186 511q38 0 58 24t20 58q0 36 -18.5 53.5t-47.5 17.5q-38 0 -58 -24.5t-20 -58.5q0 -35 18.5 -52.5t47.5 -17.5
z" />
    <glyph glyph-name="plusminus" unicode="&#xb1;" horiz-adv-x="463" 
d="M205 333h-141l8 69h141l16 151h70l-16 -151h144l-7 -69h-145l-17 -161h-70zM37 108h360l-7 -69h-360z" />
    <glyph glyph-name="acute" unicode="&#xb4;" horiz-adv-x="263" 
d="M170 726h107l-127 -174h-78z" />
    <glyph glyph-name="paragraph" unicode="&#xb6;" horiz-adv-x="579" 
d="M301 263h-67q-92 0 -137.5 52.5t-45.5 136.5q0 53 15 98.5t44 78.5t71.5 52t98.5 19h264l-74 -700h-56l69 655h-86l-69 -655h-55z" />
    <glyph glyph-name="periodcentered" unicode="&#xb7;" horiz-adv-x="211" 
d="M115 297q-25 0 -40 14.5t-15 39.5q0 26 16.5 44.5t45.5 18.5q24 0 39 -15t15 -40q0 -26 -15.5 -44t-45.5 -18z" />
    <glyph glyph-name="cedilla" unicode="&#xb8;" horiz-adv-x="263" 
d="M92 -203q-32 0 -55.5 8.5t-41.5 25.5l39 48q23 -21 51 -21q17 0 26.5 6.5t9.5 21.5q0 16 -18 25t-47 11l37 82h58l-15 -38q25 -8 46 -27t21 -57q0 -23 -9.5 -39t-25 -26.5t-35.5 -15t-41 -4.5z" />
    <glyph glyph-name="ordmasculine" unicode="&#xba;" horiz-adv-x="340" 
d="M189 406q-57 0 -88 35t-31 96q0 78 40.5 124t109.5 46q56 0 86.5 -34.5t30.5 -95.5q0 -78 -40.5 -124.5t-107.5 -46.5zM195 469q29 0 48 27t19 76q0 35 -13 54.5t-35 19.5q-32 0 -52 -27.5t-20 -78.5q0 -35 14 -53t39 -18z" />
    <glyph glyph-name="guillemotright" unicode="&#xbb;" horiz-adv-x="463" 
d="M29 127l138 129l-111 123l52 53l133 -141l-8 -75l-162 -141zM221 127l138 129l-111 123l52 53l133 -141l-8 -75l-162 -141z" />
    <glyph glyph-name="onequarter" unicode="&#xbc;" horiz-adv-x="727" 
d="M430 726h71l-287 -726h-71zM155 594q-8 -10 -32 -23t-59 -13l2 63q42 0 67 24.5t34 55.5h67l-40 -382h-67zM542 84h-182l6 49l147 249h73l-141 -239h106l9 87h66l-9 -87h48l-7 -59h-48l-8 -84h-68z" />
    <glyph glyph-name="onehalf" unicode="&#xbd;" horiz-adv-x="739" 
d="M430 726h71l-287 -726h-71zM155 594q-8 -10 -32 -23t-59 -13l2 63q42 0 67 24.5t34 55.5h67l-40 -382h-67zM387 33q3 34 20.5 58t41.5 42t51 32.5t50 29.5t38 33.5t15 44.5q0 25 -15.5 38t-42.5 13q-21 0 -35 -6t-22 -14.5t-11.5 -18t-4.5 -16.5h-63q2 20 10.5 40.5
t25.5 37.5t44 28t65 11q58 0 88 -28.5t30 -76.5q0 -36 -15.5 -62.5t-38.5 -46t-50 -34t-50 -27t-39 -25t-16 -27.5v-2h194l-6 -57h-267z" />
    <glyph glyph-name="threequarters" unicode="&#xbe;" horiz-adv-x="775" 
d="M478 726h71l-287 -726h-71zM124 315q-46 0 -78 15.5t-49 60.5l55 34q14 -30 32 -41.5t49 -11.5q35 0 53.5 16.5t18.5 45.5q0 25 -16 37.5t-44 12.5h-34l6 54h23q30 0 48.5 15t18.5 45q0 23 -13.5 35.5t-36.5 12.5t-43 -11t-23 -41h-63q3 30 16.5 52t32.5 35.5t42 20
t44 6.5q52 0 82 -25t30 -70q0 -35 -15 -57t-43 -34q53 -19 53 -81q0 -54 -37 -90t-109 -36zM590 84h-182l6 49l147 249h73l-141 -239h106l9 87h66l-9 -87h48l-7 -59h-48l-8 -84h-68z" />
    <glyph glyph-name="questiondown" unicode="&#xbf;" horiz-adv-x="452" 
d="M267 491q25 0 40 -14.5t15 -39.5q0 -26 -16.5 -44.5t-45.5 -18.5q-24 0 -39 15t-15 40q0 26 15.5 44t45.5 18zM295 298q-6 -55 -22 -92.5t-37.5 -64.5t-44.5 -47t-42 -41t-31.5 -45t-12.5 -60q0 -41 24 -66t72 -25t78 27t38 87h84q-9 -90 -61.5 -141.5t-146.5 -51.5
q-49 0 -83.5 13t-56.5 35t-32 51t-10 60q0 49 13.5 82t34.5 58t45.5 45.5t47 44t39 54.5t21.5 77h83z" />
    <glyph glyph-name="Agrave" unicode="&#xc0;" horiz-adv-x="604" 
d="M322 742l-95 134h114l66 -134h-85zM434 195h-272l-88 -195h-89l322 700h89l173 -700h-90zM417 269l-75 325l-146 -325h221z" />
    <glyph glyph-name="Aacute" unicode="&#xc1;" horiz-adv-x="604" 
d="M388 742h-87l94 134h115zM434 195h-272l-88 -195h-89l322 700h89l173 -700h-90zM417 269l-75 325l-146 -325h221z" />
    <glyph glyph-name="Acircumflex" unicode="&#xc2;" horiz-adv-x="604" 
d="M302 742h-78l99 134h98l70 -134h-80l-47 74zM434 195h-272l-88 -195h-89l322 700h89l173 -700h-90zM417 269l-75 325l-146 -325h221z" />
    <glyph glyph-name="Atilde" unicode="&#xc3;" horiz-adv-x="604" 
d="M214 746q-6 17 -6 39q0 33 23 57t62 24q21 0 38 -6t31.5 -13.5t27 -13.5t25.5 -6q25 0 25 29q0 10 -3 16h66q5 -17 5 -38q0 -33 -22 -57.5t-70 -24.5q-21 0 -38 6t-30.5 13.5t-25 13.5t-23.5 6q-9 0 -16 -6.5t-7 -20.5q0 -10 4 -18h-66zM434 195h-272l-88 -195h-89
l322 700h89l173 -700h-90zM417 269l-75 325l-146 -325h221z" />
    <glyph glyph-name="Adieresis" unicode="&#xc4;" horiz-adv-x="604" 
d="M258 748q-26 0 -40.5 16t-14.5 39q0 29 16.5 48t45.5 19q25 0 40 -15.5t15 -40.5q0 -29 -16.5 -47.5t-45.5 -18.5zM464 748q-25 0 -41 14t-16 42t18 47t46 19q26 0 40 -15.5t14 -39.5q0 -30 -16 -48.5t-45 -18.5zM434 195h-272l-88 -195h-89l322 700h89l173 -700h-90z
M417 269l-75 325l-146 -325h221z" />
    <glyph glyph-name="Aring" unicode="&#xc5;" horiz-adv-x="604" 
d="M354 701q-48 0 -74.5 29t-26.5 72q0 52 32 88t88 36q45 0 72 -29t27 -73q0 -52 -31.5 -87.5t-86.5 -35.5zM367 861q-23 0 -36 -15t-13 -38q0 -20 10.5 -32t30.5 -12q23 0 35.5 15.5t12.5 38.5q0 20 -10.5 31.5t-29.5 11.5zM434 195h-272l-88 -195h-89l322 700h89
l173 -700h-90zM417 269l-75 325l-146 -325h221z" />
    <glyph glyph-name="AE" unicode="&#xc6;" horiz-adv-x="786" 
d="M306 700h489l-9 -75h-378l58 -239h236l-9 -75h-207l57 -236h186l-8 -75h-250l-47 195h-267l-86 -195h-87zM405 269l-73 317l-139 -317h212z" />
    <glyph glyph-name="Ccedilla" unicode="&#xc7;" horiz-adv-x="589" 
d="M488 457q7 20 9 35t2 29q0 30 -10.5 51t-29 34t-44 19t-54.5 6q-50 0 -89.5 -25t-67.5 -70t-42.5 -106.5t-14.5 -133.5q0 -113 48.5 -170t123.5 -57q59 0 99.5 22t78.5 75l52 -48q-45 -62 -96.5 -91t-119.5 -33l-11 -28q25 -8 46 -27t21 -57q0 -23 -9.5 -39t-25 -26.5
t-35.5 -15t-41 -4.5q-32 0 -55.5 8.5t-41.5 25.5l39 48q23 -21 51 -21q17 0 26.5 6.5t9.5 21.5q0 16 -18 25t-47 11l33 74q-103 12 -163 87.5t-60 206.5q0 89 20.5 165t61 132t101.5 87.5t142 31.5q94 0 150.5 -45t56.5 -125q0 -22 -4 -41t-11 -38h-81z" />
    <glyph glyph-name="Egrave" unicode="&#xc8;" horiz-adv-x="550" 
d="M232 876h114l66 -134h-85zM132 700h425l-9 -82h-337l-23 -221h285l-9 -82h-285l-24 -233h337l-9 -82h-425z" />
    <glyph glyph-name="Eacute" unicode="&#xc9;" horiz-adv-x="550" 
d="M400 876h115l-122 -134h-87zM132 700h425l-9 -82h-337l-23 -221h285l-9 -82h-285l-24 -233h337l-9 -82h-425z" />
    <glyph glyph-name="Ecircumflex" unicode="&#xca;" horiz-adv-x="550" 
d="M328 876h98l70 -134h-80l-47 74l-62 -74h-78zM132 700h425l-9 -82h-337l-23 -221h285l-9 -82h-285l-24 -233h337l-9 -82h-425z" />
    <glyph glyph-name="Edieresis" unicode="&#xcb;" horiz-adv-x="550" 
d="M263 748q-26 0 -40.5 16t-14.5 39q0 29 16.5 48t45.5 19q25 0 40 -15.5t15 -40.5q0 -29 -16.5 -47.5t-45.5 -18.5zM469 748q-25 0 -41 14t-16 42t18 47t46 19q26 0 40 -15.5t14 -39.5q0 -30 -16 -48.5t-45 -18.5zM132 700h425l-9 -82h-337l-23 -221h285l-9 -82h-285
l-24 -233h337l-9 -82h-425z" />
    <glyph glyph-name="Igrave" unicode="&#xcc;" horiz-adv-x="254" 
d="M50 876h114l66 -134h-85zM132 700h88l-74 -700h-88z" />
    <glyph glyph-name="Iacute" unicode="&#xcd;" horiz-adv-x="254" 
d="M218 876h115l-122 -134h-87zM132 700h88l-74 -700h-88z" />
    <glyph glyph-name="Icircumflex" unicode="&#xce;" horiz-adv-x="254" 
d="M146 876h98l70 -134h-80l-47 74l-62 -74h-78zM132 700h88l-74 -700h-88z" />
    <glyph glyph-name="Idieresis" unicode="&#xcf;" horiz-adv-x="254" 
d="M81 748q-26 0 -40.5 16t-14.5 39q0 29 16.5 48t45.5 19q25 0 40 -15.5t15 -40.5q0 -29 -16.5 -47.5t-45.5 -18.5zM287 748q-25 0 -41 14t-16 42t18 47t46 19q26 0 40 -15.5t14 -39.5q0 -30 -16 -48.5t-45 -18.5zM132 700h88l-74 -700h-88z" />
    <glyph glyph-name="Eth" unicode="&#xd0;" horiz-adv-x="706" 
d="M355 700q65 0 118.5 -17t92.5 -53.5t60.5 -93t21.5 -134.5q0 -106 -30.5 -182t-81 -125t-116 -72t-135.5 -23h-211l33 313h-88l8 77h88l33 310h207zM287 79q60 0 109.5 19t85 57.5t54.5 97.5t19 139q0 119 -56.5 174t-155.5 55h-116l-24 -231h98l-8 -77h-98l-24 -234h116
z" />
    <glyph glyph-name="Ntilde" unicode="&#xd1;" horiz-adv-x="648" 
d="M244 746q-6 17 -6 39q0 33 23 57t62 24q21 0 38 -6t31.5 -13.5t27 -13.5t25.5 -6q25 0 25 29q0 10 -3 16h66q5 -17 5 -38q0 -33 -22 -57.5t-70 -24.5q-21 0 -38 6t-30.5 13.5t-25 13.5t-23.5 6q-9 0 -16 -6.5t-7 -20.5q0 -10 4 -18h-66zM132 700h75l254 -525l10 -29
l58 554h85l-75 -700h-76l-256 524l-9 27l-57 -551h-83z" />
    <glyph glyph-name="Ograve" unicode="&#xd2;" horiz-adv-x="683" 
d="M265 876h114l66 -134h-85zM323 -6q-54 0 -103.5 16.5t-86.5 52t-59 91.5t-22 136q0 111 26.5 190t71.5 129t105.5 73.5t128.5 23.5q54 0 102.5 -17t86 -53t59.5 -93t22 -137q0 -111 -26.5 -189t-71.5 -127.5t-105 -72.5t-128 -23zM331 69q48 0 90 18.5t73 58.5t49 103
t18 153q0 65 -15.5 108.5t-41.5 70.5t-59.5 38.5t-68.5 11.5q-48 0 -90 -19t-73.5 -59.5t-49.5 -104t-18 -153.5q0 -64 15.5 -107.5t41 -69.5t59.5 -37.5t70 -11.5z" />
    <glyph glyph-name="Oacute" unicode="&#xd3;" horiz-adv-x="683" 
d="M433 876h115l-122 -134h-87zM323 -6q-54 0 -103.5 16.5t-86.5 52t-59 91.5t-22 136q0 111 26.5 190t71.5 129t105.5 73.5t128.5 23.5q54 0 102.5 -17t86 -53t59.5 -93t22 -137q0 -111 -26.5 -189t-71.5 -127.5t-105 -72.5t-128 -23zM331 69q48 0 90 18.5t73 58.5t49 103
t18 153q0 65 -15.5 108.5t-41.5 70.5t-59.5 38.5t-68.5 11.5q-48 0 -90 -19t-73.5 -59.5t-49.5 -104t-18 -153.5q0 -64 15.5 -107.5t41 -69.5t59.5 -37.5t70 -11.5z" />
    <glyph glyph-name="Ocircumflex" unicode="&#xd4;" horiz-adv-x="683" 
d="M361 876h98l70 -134h-80l-47 74l-62 -74h-78zM323 -6q-54 0 -103.5 16.5t-86.5 52t-59 91.5t-22 136q0 111 26.5 190t71.5 129t105.5 73.5t128.5 23.5q54 0 102.5 -17t86 -53t59.5 -93t22 -137q0 -111 -26.5 -189t-71.5 -127.5t-105 -72.5t-128 -23zM331 69q48 0 90 18.5
t73 58.5t49 103t18 153q0 65 -15.5 108.5t-41.5 70.5t-59.5 38.5t-68.5 11.5q-48 0 -90 -19t-73.5 -59.5t-49.5 -104t-18 -153.5q0 -64 15.5 -107.5t41 -69.5t59.5 -37.5t70 -11.5z" />
    <glyph glyph-name="Otilde" unicode="&#xd5;" horiz-adv-x="683" 
d="M252 746q-6 17 -6 39q0 33 23 57t62 24q21 0 38 -6t31.5 -13.5t27 -13.5t25.5 -6q25 0 25 29q0 10 -3 16h66q5 -17 5 -38q0 -33 -22 -57.5t-70 -24.5q-21 0 -38 6t-30.5 13.5t-25 13.5t-23.5 6q-9 0 -16 -6.5t-7 -20.5q0 -10 4 -18h-66zM323 -6q-54 0 -103.5 16.5
t-86.5 52t-59 91.5t-22 136q0 111 26.5 190t71.5 129t105.5 73.5t128.5 23.5q54 0 102.5 -17t86 -53t59.5 -93t22 -137q0 -111 -26.5 -189t-71.5 -127.5t-105 -72.5t-128 -23zM331 69q48 0 90 18.5t73 58.5t49 103t18 153q0 65 -15.5 108.5t-41.5 70.5t-59.5 38.5
t-68.5 11.5q-48 0 -90 -19t-73.5 -59.5t-49.5 -104t-18 -153.5q0 -64 15.5 -107.5t41 -69.5t59.5 -37.5t70 -11.5z" />
    <glyph glyph-name="Odieresis" unicode="&#xd6;" horiz-adv-x="683" 
d="M296 748q-26 0 -40.5 16t-14.5 39q0 29 16.5 48t45.5 19q25 0 40 -15.5t15 -40.5q0 -29 -16.5 -47.5t-45.5 -18.5zM502 748q-25 0 -41 14t-16 42t18 47t46 19q26 0 40 -15.5t14 -39.5q0 -30 -16 -48.5t-45 -18.5zM323 -6q-54 0 -103.5 16.5t-86.5 52t-59 91.5t-22 136
q0 111 26.5 190t71.5 129t105.5 73.5t128.5 23.5q54 0 102.5 -17t86 -53t59.5 -93t22 -137q0 -111 -26.5 -189t-71.5 -127.5t-105 -72.5t-128 -23zM331 69q48 0 90 18.5t73 58.5t49 103t18 153q0 65 -15.5 108.5t-41.5 70.5t-59.5 38.5t-68.5 11.5q-48 0 -90 -19
t-73.5 -59.5t-49.5 -104t-18 -153.5q0 -64 15.5 -107.5t41 -69.5t59.5 -37.5t70 -11.5z" />
    <glyph glyph-name="multiply" unicode="&#xd7;" horiz-adv-x="440" 
d="M33 135l138 128l-108 128l55 48l107 -128l134 128l48 -51l-135 -129l111 -127l-55 -49l-110 130l-137 -130z" />
    <glyph glyph-name="Oslash" unicode="&#xd8;" horiz-adv-x="683" 
d="M591 616q29 -36 46 -88t17 -122q0 -111 -26.5 -189t-71.5 -127.5t-105 -72.5t-128 -23q-45 0 -85 10.5t-74 33.5l-40 -54h-87l75 101q-28 35 -44 86t-16 119q0 111 26.5 190t71.5 129t105.5 73.5t128.5 23.5q43 0 82.5 -10.5t73.5 -32.5l39 53h86zM145 295q0 -42 6.5 -74
t18.5 -57l319 430q-24 20 -53 28.5t-60 8.5q-48 0 -90 -19t-73.5 -59.5t-49.5 -104t-18 -153.5zM561 402q0 44 -7 77t-20 59l-320 -432q25 -20 55 -28.5t62 -8.5q48 0 90 18.5t73 58.5t49 103t18 153z" />
    <glyph glyph-name="Ugrave" unicode="&#xd9;" horiz-adv-x="644" 
d="M247 876h114l66 -134h-85zM300 -6q-52 0 -96.5 14.5t-74.5 48.5t-44 90t-5 140l43 413h89l-44 -419q-11 -109 25 -159.5t114 -50.5q77 0 123 47.5t58 162.5l44 419h85l-43 -413q-9 -87 -33.5 -143.5t-60.5 -90t-82 -46.5t-98 -13z" />
    <glyph glyph-name="Uacute" unicode="&#xda;" horiz-adv-x="644" 
d="M415 876h115l-122 -134h-87zM300 -6q-52 0 -96.5 14.5t-74.5 48.5t-44 90t-5 140l43 413h89l-44 -419q-11 -109 25 -159.5t114 -50.5q77 0 123 47.5t58 162.5l44 419h85l-43 -413q-9 -87 -33.5 -143.5t-60.5 -90t-82 -46.5t-98 -13z" />
    <glyph glyph-name="Ucircumflex" unicode="&#xdb;" horiz-adv-x="644" 
d="M343 876h98l70 -134h-80l-47 74l-62 -74h-78zM300 -6q-52 0 -96.5 14.5t-74.5 48.5t-44 90t-5 140l43 413h89l-44 -419q-11 -109 25 -159.5t114 -50.5q77 0 123 47.5t58 162.5l44 419h85l-43 -413q-9 -87 -33.5 -143.5t-60.5 -90t-82 -46.5t-98 -13z" />
    <glyph glyph-name="Udieresis" unicode="&#xdc;" horiz-adv-x="644" 
d="M278 748q-26 0 -40.5 16t-14.5 39q0 29 16.5 48t45.5 19q25 0 40 -15.5t15 -40.5q0 -29 -16.5 -47.5t-45.5 -18.5zM484 748q-25 0 -41 14t-16 42t18 47t46 19q26 0 40 -15.5t14 -39.5q0 -30 -16 -48.5t-45 -18.5zM300 -6q-52 0 -96.5 14.5t-74.5 48.5t-44 90t-5 140
l43 413h89l-44 -419q-11 -109 25 -159.5t114 -50.5q77 0 123 47.5t58 162.5l44 419h85l-43 -413q-9 -87 -33.5 -143.5t-60.5 -90t-82 -46.5t-98 -13z" />
    <glyph glyph-name="Yacute" unicode="&#xdd;" horiz-adv-x="572" 
d="M380 876h115l-122 -134h-87zM249 291l-185 409h102l136 -324l204 324h102l-272 -409l-31 -291h-87z" />
    <glyph glyph-name="Thorn" unicode="&#xde;" horiz-adv-x="580" 
d="M132 700h88l-13 -122h128q104 0 162.5 -48.5t58.5 -148.5q0 -64 -20 -111t-55.5 -78t-82.5 -46t-101 -15h-137l-14 -131h-88zM292 207q86 0 129 43t43 121q0 59 -35 95.5t-109 36.5h-121l-31 -296h124z" />
    <glyph glyph-name="germandbls" unicode="&#xdf;" horiz-adv-x="540" 
d="M309 -12q-34 0 -68.5 8.5t-55.5 26.5l42 67q16 -13 37.5 -20.5t50.5 -7.5q59 0 82.5 21.5t23.5 59.5q0 24 -12 39t-30.5 26.5t-40 21.5t-40 23.5t-30.5 33t-12 50.5q0 34 11 58t28 42.5t36.5 34t36.5 32t28 36t11 45.5q0 35 -22 53.5t-62 18.5q-48 0 -78.5 -32.5
t-37.5 -99.5l-55 -525h-88l43 411h-67l8 71h67l5 52q5 45 22.5 82t45.5 62.5t65.5 39.5t81.5 14q74 0 117 -37.5t43 -103.5q0 -37 -11 -64t-28 -47t-36 -34.5t-36 -28t-28 -27.5t-11 -33q0 -17 12 -29t30 -22.5t39.5 -22.5t39.5 -29t30 -40.5t12 -57.5q0 -75 -49 -121.5
t-150 -46.5z" />
    <glyph glyph-name="agrave" unicode="&#xe0;" horiz-adv-x="527" 
d="M164 726h104l63 -174h-76zM202 -12q-81 0 -123.5 58.5t-42.5 154.5q0 63 16 117t45.5 93t71.5 61t94 22q46 0 78.5 -18t51.5 -51l6 57h78l-38 -364q-3 -29 4.5 -41t30.5 -12l-7 -64q-5 -2 -16.5 -3t-22.5 -1q-37 0 -56 19.5t-17 52.5v4q-23 -38 -60 -61.5t-93 -23.5z
M231 61q44 0 76.5 28t49.5 75l16 154q-2 19 -9 37.5t-19.5 33t-31.5 23.5t-44 9q-33 0 -59.5 -15.5t-45 -44t-28.5 -67.5t-10 -87q0 -67 25.5 -106.5t79.5 -39.5z" />
    <glyph glyph-name="aacute" unicode="&#xe1;" horiz-adv-x="527" 
d="M341 726h107l-127 -174h-78zM202 -12q-81 0 -123.5 58.5t-42.5 154.5q0 63 16 117t45.5 93t71.5 61t94 22q46 0 78.5 -18t51.5 -51l6 57h78l-38 -364q-3 -29 4.5 -41t30.5 -12l-7 -64q-5 -2 -16.5 -3t-22.5 -1q-37 0 -56 19.5t-17 52.5v4q-23 -38 -60 -61.5t-93 -23.5z
M231 61q44 0 76.5 28t49.5 75l16 154q-2 19 -9 37.5t-19.5 33t-31.5 23.5t-44 9q-33 0 -59.5 -15.5t-45 -44t-28.5 -67.5t-10 -87q0 -67 25.5 -106.5t79.5 -39.5z" />
    <glyph glyph-name="acircumflex" unicode="&#xe2;" horiz-adv-x="527" 
d="M268 726h93l66 -174h-78l-42 108l-65 -108h-77zM202 -12q-81 0 -123.5 58.5t-42.5 154.5q0 63 16 117t45.5 93t71.5 61t94 22q46 0 78.5 -18t51.5 -51l6 57h78l-38 -364q-3 -29 4.5 -41t30.5 -12l-7 -64q-5 -2 -16.5 -3t-22.5 -1q-37 0 -56 19.5t-17 52.5v4
q-23 -38 -60 -61.5t-93 -23.5zM231 61q44 0 76.5 28t49.5 75l16 154q-2 19 -9 37.5t-19.5 33t-31.5 23.5t-44 9q-33 0 -59.5 -15.5t-45 -44t-28.5 -67.5t-10 -87q0 -67 25.5 -106.5t79.5 -39.5z" />
    <glyph glyph-name="atilde" unicode="&#xe3;" horiz-adv-x="527" 
d="M159 572q-6 17 -6 39q0 33 21 56.5t64 23.5q21 0 37.5 -6t31 -13t27 -13t24.5 -6q26 0 26 27q0 10 -4 18h66q6 -15 6 -36q0 -34 -21 -58.5t-65 -24.5q-23 0 -40.5 6t-31.5 13t-25 13t-21 6q-27 0 -27 -27q0 -10 4 -18h-66zM202 -12q-81 0 -123.5 58.5t-42.5 154.5
q0 63 16 117t45.5 93t71.5 61t94 22q46 0 78.5 -18t51.5 -51l6 57h78l-38 -364q-3 -29 4.5 -41t30.5 -12l-7 -64q-5 -2 -16.5 -3t-22.5 -1q-37 0 -56 19.5t-17 52.5v4q-23 -38 -60 -61.5t-93 -23.5zM231 61q44 0 76.5 28t49.5 75l16 154q-2 19 -9 37.5t-19.5 33t-31.5 23.5
t-44 9q-33 0 -59.5 -15.5t-45 -44t-28.5 -67.5t-10 -87q0 -67 25.5 -106.5t79.5 -39.5z" />
    <glyph glyph-name="adieresis" unicode="&#xe4;" horiz-adv-x="527" 
d="M213 580q-27 0 -40.5 15.5t-13.5 38.5q0 25 16 44t48 19q26 0 39 -16t13 -38q0 -26 -16 -44.5t-46 -18.5zM390 580q-27 0 -40.5 15.5t-13.5 38.5q0 25 16 44t48 19q26 0 39 -16t13 -38q0 -26 -16 -44.5t-46 -18.5zM202 -12q-81 0 -123.5 58.5t-42.5 154.5q0 63 16 117
t45.5 93t71.5 61t94 22q46 0 78.5 -18t51.5 -51l6 57h78l-38 -364q-3 -29 4.5 -41t30.5 -12l-7 -64q-5 -2 -16.5 -3t-22.5 -1q-37 0 -56 19.5t-17 52.5v4q-23 -38 -60 -61.5t-93 -23.5zM231 61q44 0 76.5 28t49.5 75l16 154q-2 19 -9 37.5t-19.5 33t-31.5 23.5t-44 9
q-33 0 -59.5 -15.5t-45 -44t-28.5 -67.5t-10 -87q0 -67 25.5 -106.5t79.5 -39.5z" />
    <glyph glyph-name="aring" unicode="&#xe5;" horiz-adv-x="527" 
d="M299 533q-44 0 -70.5 27t-26.5 68q0 49 31 82.5t80 33.5q43 0 69 -27t26 -69q0 -24 -8 -45t-22.5 -36.5t-34.5 -24.5t-44 -9zM304 595q17 0 30 13t13 34q0 17 -10 28t-28 11q-19 0 -32 -12.5t-13 -33.5q0 -18 10.5 -29t29.5 -11zM202 -12q-81 0 -123.5 58.5t-42.5 154.5
q0 63 16 117t45.5 93t71.5 61t94 22q46 0 78.5 -18t51.5 -51l6 57h78l-38 -364q-3 -29 4.5 -41t30.5 -12l-7 -64q-5 -2 -16.5 -3t-22.5 -1q-37 0 -56 19.5t-17 52.5v4q-23 -38 -60 -61.5t-93 -23.5zM231 61q44 0 76.5 28t49.5 75l16 154q-2 19 -9 37.5t-19.5 33t-31.5 23.5
t-44 9q-33 0 -59.5 -15.5t-45 -44t-28.5 -67.5t-10 -87q0 -67 25.5 -106.5t79.5 -39.5z" />
    <glyph glyph-name="ae" unicode="&#xe6;" horiz-adv-x="757" 
d="M417 235q-1 -8 -1 -15v-14q0 -71 29 -107.5t84 -36.5q42 0 70.5 17t51.5 47l49 -43q-27 -42 -74.5 -68.5t-108.5 -26.5q-66 0 -108.5 29t-62.5 83q-41 -61 -89.5 -86.5t-104.5 -25.5q-64 0 -99.5 30t-35.5 85q0 72 49.5 110.5t148.5 38.5h113l7 66q5 49 -16.5 75.5
t-69.5 26.5q-101 0 -101 -89q0 -9 1.5 -17.5t3.5 -13.5h-79q-7 12 -7 40q0 70 52.5 112t141.5 42q55 0 90.5 -20t54.5 -55q29 35 68.5 55t87.5 20q81 0 122 -48t41 -135q0 -35 -2.5 -50t-4.5 -26h-301zM550 421q-28 0 -49.5 -9.5t-36.5 -26t-24.5 -38.5t-14.5 -46h214
q5 51 -15.5 85.5t-73.5 34.5zM174 57q47 0 85 30.5t61 81.5l2 21l-119 -1q-48 0 -71.5 -20t-23.5 -53q0 -29 18 -44t48 -15z" />
    <glyph glyph-name="ccedilla" unicode="&#xe7;" horiz-adv-x="458" 
d="M343 292q4 9 7 24.5t3 29.5q0 42 -24 58.5t-60 16.5q-66 0 -103.5 -59.5t-37.5 -168.5q0 -66 29.5 -98.5t80.5 -32.5q46 0 75 18.5t50 47.5l50 -46q-25 -35 -63 -61t-93 -31l-9 -24q25 -8 46 -27t21 -57q0 -23 -9.5 -39t-25 -26.5t-35.5 -15t-41 -4.5q-32 0 -55.5 8.5
t-41.5 25.5l39 48q23 -21 51 -21q17 0 26.5 6.5t9.5 21.5q0 16 -18 25t-47 11l30 68q-77 8 -119 59t-42 143q0 69 17 125t47.5 95.5t74 60.5t95.5 21q78 0 120 -34t42 -98q0 -21 -4.5 -40t-9.5 -30h-76z" />
    <glyph glyph-name="egrave" unicode="&#xe8;" horiz-adv-x="456" 
d="M232 552l-91 174h104l63 -174h-76zM230 62q43 0 71.5 15t57.5 51l51 -45q-38 -52 -87.5 -73.5t-106.5 -21.5q-86 0 -134 54t-48 152q0 66 18.5 121t51.5 94.5t78.5 62t100.5 22.5q68 0 106 -34.5t38 -93.5q0 -60 -29 -95.5t-73.5 -54t-97.5 -25t-102 -9.5
q5 -61 32.5 -90.5t72.5 -29.5zM273 421q-55 0 -95.5 -46t-50.5 -125q31 1 68 4t69.5 14t54 32.5t21.5 57.5q0 31 -16 47t-51 16z" />
    <glyph glyph-name="eacute" unicode="&#xe9;" horiz-adv-x="456" 
d="M298 552h-78l98 174h107zM230 62q43 0 71.5 15t57.5 51l51 -45q-38 -52 -87.5 -73.5t-106.5 -21.5q-86 0 -134 54t-48 152q0 66 18.5 121t51.5 94.5t78.5 62t100.5 22.5q68 0 106 -34.5t38 -93.5q0 -60 -29 -95.5t-73.5 -54t-97.5 -25t-102 -9.5q5 -61 32.5 -90.5
t72.5 -29.5zM273 421q-55 0 -95.5 -46t-50.5 -125q31 1 68 4t69.5 14t54 32.5t21.5 57.5q0 31 -16 47t-51 16z" />
    <glyph glyph-name="ecircumflex" unicode="&#xea;" horiz-adv-x="456" 
d="M219 552h-77l103 174h93l66 -174h-78l-42 108zM230 62q43 0 71.5 15t57.5 51l51 -45q-38 -52 -87.5 -73.5t-106.5 -21.5q-86 0 -134 54t-48 152q0 66 18.5 121t51.5 94.5t78.5 62t100.5 22.5q68 0 106 -34.5t38 -93.5q0 -60 -29 -95.5t-73.5 -54t-97.5 -25t-102 -9.5
q5 -61 32.5 -90.5t72.5 -29.5zM273 421q-55 0 -95.5 -46t-50.5 -125q31 1 68 4t69.5 14t54 32.5t21.5 57.5q0 31 -16 47t-51 16z" />
    <glyph glyph-name="edieresis" unicode="&#xeb;" horiz-adv-x="456" 
d="M190 580q-27 0 -40.5 15.5t-13.5 38.5q0 25 16 44t48 19q26 0 39 -16t13 -38q0 -26 -16 -44.5t-46 -18.5zM367 580q-27 0 -40.5 15.5t-13.5 38.5q0 25 16 44t48 19q26 0 39 -16t13 -38q0 -26 -16 -44.5t-46 -18.5zM427 366q0 -60 -29 -95.5t-73.5 -54t-97.5 -25
t-102 -9.5q5 -61 32.5 -90.5t72.5 -29.5q43 0 71.5 15t57.5 51l51 -45q-38 -52 -87.5 -73.5t-106.5 -21.5q-86 0 -134 54t-48 152q0 66 18.5 121t51.5 94.5t78.5 62t100.5 22.5q68 0 106 -34.5t38 -93.5zM127 250q31 1 68 4t69.5 14t54 32.5t21.5 57.5q0 31 -16 47t-51 16
q-55 0 -95.5 -46t-50.5 -125z" />
    <glyph glyph-name="igrave" unicode="&#xec;" horiz-adv-x="229" 
d="M11 726h104l63 -174h-76zM130 -3q-46 0 -65 27.5t-14 72.5l40 385h89l-39 -369q-3 -26 5 -37t30 -11l-7 -64q-5 -2 -16 -3t-23 -1z" />
    <glyph glyph-name="iacute" unicode="&#xed;" horiz-adv-x="229" 
d="M188 726h107l-127 -174h-78zM130 -3q-46 0 -65 27.5t-14 72.5l40 385h89l-39 -369q-3 -26 5 -37t30 -11l-7 -64q-5 -2 -16 -3t-23 -1z" />
    <glyph glyph-name="icircumflex" unicode="&#xee;" horiz-adv-x="229" 
d="M115 726h93l66 -174h-78l-42 108l-65 -108h-77zM130 -3q-46 0 -65 27.5t-14 72.5l40 385h89l-39 -369q-3 -26 5 -37t30 -11l-7 -64q-5 -2 -16 -3t-23 -1z" />
    <glyph glyph-name="idieresis" unicode="&#xef;" horiz-adv-x="229" 
d="M60 580q-27 0 -40.5 15.5t-13.5 38.5q0 25 16 44t48 19q26 0 39 -16t13 -38q0 -26 -16 -44.5t-46 -18.5zM237 580q-27 0 -40.5 15.5t-13.5 38.5q0 25 16 44t48 19q26 0 39 -16t13 -38q0 -26 -16 -44.5t-46 -18.5zM130 -3q-46 0 -65 27.5t-14 72.5l40 385h89l-39 -369
q-3 -26 5 -37t30 -11l-7 -64q-5 -2 -16 -3t-23 -1z" />
    <glyph glyph-name="eth" unicode="&#xf0;" horiz-adv-x="517" 
d="M420 616q32 -41 48.5 -98t16.5 -133q0 -193 -70 -295t-193 -102q-88 0 -138 51.5t-50 148.5q0 63 18.5 112t50 83t73.5 52t90 18q55 0 89.5 -19.5t49.5 -45.5q-5 121 -55 186l-124 -76l-29 58l105 62q-61 38 -151 38l8 74q66 -3 120 -20t96 -49l105 62l27 -53zM231 61
q36 0 65 18t50.5 50.5t34.5 76t17 94.5q-20 35 -51.5 57t-79.5 22q-62 0 -104 -45.5t-42 -137.5q0 -66 30.5 -100.5t79.5 -34.5z" />
    <glyph glyph-name="ntilde" unicode="&#xf1;" horiz-adv-x="527" 
d="M158 572q-6 17 -6 39q0 33 21 56.5t64 23.5q21 0 37.5 -6t31 -13t27 -13t24.5 -6q26 0 26 27q0 10 -4 18h66q6 -15 6 -36q0 -34 -21 -58.5t-65 -24.5q-23 0 -40.5 6t-31.5 13t-25 13t-21 6q-27 0 -27 -27q0 -10 4 -18h-66zM434 -3q-45 0 -64 27.5t-14 72.5l22 207
q6 60 -16.5 87.5t-68.5 27.5q-51 0 -86 -38t-41 -100l-29 -281h-88l39 373q3 26 -5 37t-29 11l7 64q5 2 16 3t23 1q38 0 54 -21.5t16 -59.5v-3q48 89 152 89q77 0 115.5 -49t28.5 -140l-20 -192q-3 -26 5 -37t29 -11l-7 -64q-5 -2 -16 -3t-23 -1z" />
    <glyph glyph-name="ograve" unicode="&#xf2;" horiz-adv-x="503" 
d="M151 726h104l63 -174h-76zM233 -12q-94 0 -145 57t-51 159q0 68 17 121.5t48.5 91t75 57.5t95.5 20q91 0 142.5 -57t51.5 -159q0 -67 -17.5 -120.5t-48.5 -91t-74 -58t-94 -20.5zM239 61q62 0 100 55t38 158q0 72 -29 109.5t-83 37.5q-60 0 -99 -54.5t-39 -158.5
q0 -72 28.5 -109.5t83.5 -37.5z" />
    <glyph glyph-name="oacute" unicode="&#xf3;" horiz-adv-x="503" 
d="M328 726h107l-127 -174h-78zM233 -12q-94 0 -145 57t-51 159q0 68 17 121.5t48.5 91t75 57.5t95.5 20q91 0 142.5 -57t51.5 -159q0 -67 -17.5 -120.5t-48.5 -91t-74 -58t-94 -20.5zM239 61q62 0 100 55t38 158q0 72 -29 109.5t-83 37.5q-60 0 -99 -54.5t-39 -158.5
q0 -72 28.5 -109.5t83.5 -37.5z" />
    <glyph glyph-name="ocircumflex" unicode="&#xf4;" horiz-adv-x="503" 
d="M255 726h93l66 -174h-78l-42 108l-65 -108h-77zM233 -12q-94 0 -145 57t-51 159q0 68 17 121.5t48.5 91t75 57.5t95.5 20q91 0 142.5 -57t51.5 -159q0 -67 -17.5 -120.5t-48.5 -91t-74 -58t-94 -20.5zM239 61q62 0 100 55t38 158q0 72 -29 109.5t-83 37.5
q-60 0 -99 -54.5t-39 -158.5q0 -72 28.5 -109.5t83.5 -37.5z" />
    <glyph glyph-name="otilde" unicode="&#xf5;" horiz-adv-x="503" 
d="M146 572q-6 17 -6 39q0 33 21 56.5t64 23.5q21 0 37.5 -6t31 -13t27 -13t24.5 -6q26 0 26 27q0 10 -4 18h66q6 -15 6 -36q0 -34 -21 -58.5t-65 -24.5q-23 0 -40.5 6t-31.5 13t-25 13t-21 6q-27 0 -27 -27q0 -10 4 -18h-66zM233 -12q-94 0 -145 57t-51 159q0 68 17 121.5
t48.5 91t75 57.5t95.5 20q91 0 142.5 -57t51.5 -159q0 -67 -17.5 -120.5t-48.5 -91t-74 -58t-94 -20.5zM239 61q62 0 100 55t38 158q0 72 -29 109.5t-83 37.5q-60 0 -99 -54.5t-39 -158.5q0 -72 28.5 -109.5t83.5 -37.5z" />
    <glyph glyph-name="odieresis" unicode="&#xf6;" horiz-adv-x="503" 
d="M200 580q-27 0 -40.5 15.5t-13.5 38.5q0 25 16 44t48 19q26 0 39 -16t13 -38q0 -26 -16 -44.5t-46 -18.5zM377 580q-27 0 -40.5 15.5t-13.5 38.5q0 25 16 44t48 19q26 0 39 -16t13 -38q0 -26 -16 -44.5t-46 -18.5zM233 -12q-94 0 -145 57t-51 159q0 68 17 121.5t48.5 91
t75 57.5t95.5 20q91 0 142.5 -57t51.5 -159q0 -67 -17.5 -120.5t-48.5 -91t-74 -58t-94 -20.5zM239 61q62 0 100 55t38 158q0 72 -29 109.5t-83 37.5q-60 0 -99 -54.5t-39 -158.5q0 -72 28.5 -109.5t83.5 -37.5z" />
    <glyph glyph-name="divide" unicode="&#xf7;" horiz-adv-x="419" 
d="M223 356q-24 0 -40.5 17.5t-16.5 43.5q0 29 21.5 49.5t50.5 20.5q24 0 40.5 -17t16.5 -42q0 -29 -21.5 -50.5t-50.5 -21.5zM45 302h343l-8 -69h-342zM192 37q-26 0 -43 18.5t-17 44.5q0 29 22.5 50t50.5 21q26 0 43 -17.5t17 -43.5q0 -29 -22 -51t-51 -22z" />
    <glyph glyph-name="oslash" unicode="&#xf8;" horiz-adv-x="503" 
d="M424 426q43 -57 43 -148q0 -67 -17.5 -120.5t-48.5 -91t-74 -58t-94 -20.5q-64 0 -108 27l-26 -36h-77l57 78q-42 54 -42 147q0 68 17 121.5t48.5 91t75 57.5t95.5 20q63 0 106 -27l26 35h75zM127 208q0 -43 10 -72l194 265q-28 20 -66 20q-60 0 -99 -54.5t-39 -158.5z
M377 274q0 21 -2.5 39t-7.5 34l-194 -266q26 -20 66 -20q62 0 100 55t38 158z" />
    <glyph glyph-name="ugrave" unicode="&#xf9;" horiz-adv-x="518" 
d="M160 726h104l63 -174h-76zM193 -12q-75 0 -112 45t-28 130l34 319h87l-32 -308q-7 -63 17 -87.5t69 -24.5q29 0 50.5 12t37 30.5t24.5 40.5t11 43l31 294h88l-39 -368q-2 -23 4.5 -36t29.5 -13l-7 -64q-1 0 -11 -2t-29 -2q-37 0 -55.5 20t-13.5 58l1 6
q-10 -18 -23.5 -34.5t-32.5 -29.5t-43.5 -21t-57.5 -8z" />
    <glyph glyph-name="uacute" unicode="&#xfa;" horiz-adv-x="518" 
d="M337 726h107l-127 -174h-78zM193 -12q-75 0 -112 45t-28 130l34 319h87l-32 -308q-7 -63 17 -87.5t69 -24.5q29 0 50.5 12t37 30.5t24.5 40.5t11 43l31 294h88l-39 -368q-2 -23 4.5 -36t29.5 -13l-7 -64q-1 0 -11 -2t-29 -2q-37 0 -55.5 20t-13.5 58l1 6
q-10 -18 -23.5 -34.5t-32.5 -29.5t-43.5 -21t-57.5 -8z" />
    <glyph glyph-name="ucircumflex" unicode="&#xfb;" horiz-adv-x="518" 
d="M264 726h93l66 -174h-78l-42 108l-65 -108h-77zM193 -12q-75 0 -112 45t-28 130l34 319h87l-32 -308q-7 -63 17 -87.5t69 -24.5q29 0 50.5 12t37 30.5t24.5 40.5t11 43l31 294h88l-39 -368q-2 -23 4.5 -36t29.5 -13l-7 -64q-1 0 -11 -2t-29 -2q-37 0 -55.5 20t-13.5 58
l1 6q-10 -18 -23.5 -34.5t-32.5 -29.5t-43.5 -21t-57.5 -8z" />
    <glyph glyph-name="udieresis" unicode="&#xfc;" horiz-adv-x="518" 
d="M209 580q-27 0 -40.5 15.5t-13.5 38.5q0 25 16 44t48 19q26 0 39 -16t13 -38q0 -26 -16 -44.5t-46 -18.5zM386 580q-27 0 -40.5 15.5t-13.5 38.5q0 25 16 44t48 19q26 0 39 -16t13 -38q0 -26 -16 -44.5t-46 -18.5zM193 -12q-75 0 -112 45t-28 130l34 319h87l-32 -308
q-7 -63 17 -87.5t69 -24.5q29 0 50.5 12t37 30.5t24.5 40.5t11 43l31 294h88l-39 -368q-2 -23 4.5 -36t29.5 -13l-7 -64q-1 0 -11 -2t-29 -2q-37 0 -55.5 20t-13.5 58l1 6q-10 -18 -23.5 -34.5t-32.5 -29.5t-43.5 -21t-57.5 -8z" />
    <glyph glyph-name="yacute" unicode="&#xfd;" horiz-adv-x="508" 
d="M331 726h107l-127 -174h-78zM186 -247q-75 0 -117.5 25t-57.5 67l64 45q15 -31 43.5 -47t75.5 -16q58 0 93.5 34t41.5 94l14 130q-25 -44 -66.5 -67.5t-95.5 -23.5q-145 0 -127 173l33 315h88l-32 -304q-12 -110 76 -110q22 0 44.5 11t40.5 29.5t30.5 42t15.5 48.5
l30 283h88l-55 -527q-10 -93 -70.5 -147.5t-156.5 -54.5z" />
    <glyph glyph-name="thorn" unicode="&#xfe;" horiz-adv-x="517" 
d="M116 726h88l-32 -308q26 42 64 59t82 17q39 0 69.5 -15.5t51.5 -43.5t32 -67.5t11 -87.5q0 -67 -17.5 -121t-47.5 -92t-70.5 -58.5t-87.5 -20.5q-43 0 -77.5 19t-47.5 48l-30 -284h-88zM253 61q66 0 103 53.5t37 158.5q0 70 -28 108.5t-79 38.5q-45 0 -76.5 -28.5
t-48.5 -73.5l-16 -155q5 -42 31 -72t77 -30z" />
    <glyph glyph-name="ydieresis" unicode="&#xff;" horiz-adv-x="508" 
d="M203 580q-27 0 -40.5 15.5t-13.5 38.5q0 25 16 44t48 19q26 0 39 -16t13 -38q0 -26 -16 -44.5t-46 -18.5zM380 580q-27 0 -40.5 15.5t-13.5 38.5q0 25 16 44t48 19q26 0 39 -16t13 -38q0 -26 -16 -44.5t-46 -18.5zM186 -247q-75 0 -117.5 25t-57.5 67l64 45
q15 -31 43.5 -47t75.5 -16q58 0 93.5 34t41.5 94l14 130q-25 -44 -66.5 -67.5t-95.5 -23.5q-145 0 -127 173l33 315h88l-32 -304q-12 -110 76 -110q22 0 44.5 11t40.5 29.5t30.5 42t15.5 48.5l30 283h88l-55 -527q-10 -93 -70.5 -147.5t-156.5 -54.5z" />
    <glyph glyph-name="Amacron" unicode="&#x100;" horiz-adv-x="604" 
d="M489 769h-257l7 73h257zM434 195h-272l-88 -195h-89l322 700h89l173 -700h-90zM417 269l-75 325l-146 -325h221z" />
    <glyph glyph-name="amacron" unicode="&#x101;" horiz-adv-x="527" 
d="M187 671h247l-8 -71h-247zM202 -12q-81 0 -123.5 58.5t-42.5 154.5q0 63 16 117t45.5 93t71.5 61t94 22q46 0 78.5 -18t51.5 -51l6 57h78l-38 -364q-3 -29 4.5 -41t30.5 -12l-7 -64q-5 -2 -16.5 -3t-22.5 -1q-37 0 -56 19.5t-17 52.5v4q-23 -38 -60 -61.5t-93 -23.5z
M231 61q44 0 76.5 28t49.5 75l16 154q-2 19 -9 37.5t-19.5 33t-31.5 23.5t-44 9q-33 0 -59.5 -15.5t-45 -44t-28.5 -67.5t-10 -87q0 -67 25.5 -106.5t79.5 -39.5z" />
    <glyph glyph-name="Abreve" unicode="&#x102;" horiz-adv-x="604" 
d="M355 741q-53 0 -83 35.5t-23 99.5h68q-3 -27 8.5 -45.5t37.5 -18.5q32 0 45 18.5t16 45.5h68q-7 -63 -42 -99t-95 -36zM434 195h-272l-88 -195h-89l322 700h89l173 -700h-90zM417 269l-75 325l-146 -325h221z" />
    <glyph glyph-name="abreve" unicode="&#x103;" horiz-adv-x="527" 
d="M298 566q-34 0 -56 10.5t-34.5 29t-16 43.5t-0.5 53h68q-7 -67 46 -67q54 0 61 67h68q-3 -28 -12.5 -53t-26 -43.5t-40.5 -29t-57 -10.5zM202 -12q-81 0 -123.5 58.5t-42.5 154.5q0 63 16 117t45.5 93t71.5 61t94 22q46 0 78.5 -18t51.5 -51l6 57h78l-38 -364
q-3 -29 4.5 -41t30.5 -12l-7 -64q-5 -2 -16.5 -3t-22.5 -1q-37 0 -56 19.5t-17 52.5v4q-23 -38 -60 -61.5t-93 -23.5zM231 61q44 0 76.5 28t49.5 75l16 154q-2 19 -9 37.5t-19.5 33t-31.5 23.5t-44 9q-33 0 -59.5 -15.5t-45 -44t-28.5 -67.5t-10 -87q0 -67 25.5 -106.5
t79.5 -39.5z" />
    <glyph glyph-name="Aogonek" unicode="&#x104;" horiz-adv-x="604" 
d="M514 -120q10 0 18 3.5t13 7.5l23 -46q-13 -13 -33 -20t-43 -7q-42 0 -63.5 19.5t-21.5 55.5q0 32 19 62.5t51 53.5l-43 186h-272l-88 -195h-89l322 700h89l173 -700h-13q-30 -10 -50.5 -34.5t-20.5 -53.5q0 -32 29 -32zM417 269l-75 325l-146 -325h221z" />
    <glyph glyph-name="aogonek" unicode="&#x105;" horiz-adv-x="527" 
d="M461 0q-29 -11 -49.5 -35t-20.5 -53q0 -32 29 -32q10 0 18 3.5t13 7.5l23 -46q-13 -13 -33 -20t-43 -7q-42 0 -63.5 19.5t-21.5 55.5q0 32 18.5 62.5t50.5 53.5q-29 18 -27 60v4q-23 -38 -60 -61.5t-93 -23.5q-81 0 -123.5 58.5t-42.5 154.5q0 63 16 117t45.5 93t71.5 61
t94 22q46 0 78.5 -18t51.5 -51l6 57h78l-38 -364q-3 -29 4.5 -41t30.5 -12l-7 -64q-2 0 -3 -0.5t-3 -0.5zM373 318q-2 19 -9 37.5t-19.5 33t-31.5 23.5t-44 9q-33 0 -59.5 -15.5t-45 -44t-28.5 -67.5t-10 -87q0 -67 25.5 -106.5t79.5 -39.5q44 0 76.5 28t49.5 75z" />
    <glyph glyph-name="Cacute" unicode="&#x106;" horiz-adv-x="589" 
d="M421 876h115l-122 -134h-87zM314 -6q-60 0 -108.5 19.5t-82.5 57t-52.5 93t-18.5 126.5q0 89 20.5 165t61 132t101.5 87.5t142 31.5q94 0 150.5 -45t56.5 -125q0 -22 -4 -41t-11 -38h-81q7 20 9 35t2 29q0 30 -10.5 51t-29 34t-44 19t-54.5 6q-50 0 -89.5 -25t-67.5 -70
t-42.5 -106.5t-14.5 -133.5q0 -113 48.5 -170t123.5 -57q59 0 99.5 22t78.5 75l52 -48q-48 -66 -104 -95t-131 -29z" />
    <glyph glyph-name="cacute" unicode="&#x107;" horiz-adv-x="458" 
d="M325 726h107l-127 -174h-78zM229 -12q-91 0 -141.5 51.5t-50.5 152.5q0 69 17 125t47.5 95.5t74 60.5t95.5 21q78 0 120 -34t42 -98q0 -21 -4.5 -40t-9.5 -30h-76q4 9 7 24.5t3 29.5q0 42 -24 58.5t-60 16.5q-66 0 -103.5 -59.5t-37.5 -168.5q0 -66 29.5 -98.5
t80.5 -32.5q46 0 75 18.5t50 47.5l50 -46q-28 -39 -73 -66.5t-111 -27.5z" />
    <glyph glyph-name="Ccircumflex" unicode="&#x108;" horiz-adv-x="589" 
d="M349 876h98l70 -134h-80l-47 74l-62 -74h-78zM314 -6q-60 0 -108.5 19.5t-82.5 57t-52.5 93t-18.5 126.5q0 89 20.5 165t61 132t101.5 87.5t142 31.5q94 0 150.5 -45t56.5 -125q0 -22 -4 -41t-11 -38h-81q7 20 9 35t2 29q0 30 -10.5 51t-29 34t-44 19t-54.5 6
q-50 0 -89.5 -25t-67.5 -70t-42.5 -106.5t-14.5 -133.5q0 -113 48.5 -170t123.5 -57q59 0 99.5 22t78.5 75l52 -48q-48 -66 -104 -95t-131 -29z" />
    <glyph glyph-name="ccircumflex" unicode="&#x109;" horiz-adv-x="458" 
d="M252 726h93l66 -174h-78l-42 108l-65 -108h-77zM229 -12q-91 0 -141.5 51.5t-50.5 152.5q0 69 17 125t47.5 95.5t74 60.5t95.5 21q78 0 120 -34t42 -98q0 -21 -4.5 -40t-9.5 -30h-76q4 9 7 24.5t3 29.5q0 42 -24 58.5t-60 16.5q-66 0 -103.5 -59.5t-37.5 -168.5
q0 -66 29.5 -98.5t80.5 -32.5q46 0 75 18.5t50 47.5l50 -46q-28 -39 -73 -66.5t-111 -27.5z" />
    <glyph glyph-name="Cdotaccent" unicode="&#x10a;" horiz-adv-x="589" 
d="M383 746q-23 0 -39 16.5t-16 41.5q0 27 21.5 47.5t47.5 20.5q23 0 39 -17t16 -41q0 -28 -21.5 -48t-47.5 -20zM314 -6q-60 0 -108.5 19.5t-82.5 57t-52.5 93t-18.5 126.5q0 89 20.5 165t61 132t101.5 87.5t142 31.5q94 0 150.5 -45t56.5 -125q0 -22 -4 -41t-11 -38h-81
q7 20 9 35t2 29q0 30 -10.5 51t-29 34t-44 19t-54.5 6q-50 0 -89.5 -25t-67.5 -70t-42.5 -106.5t-14.5 -133.5q0 -113 48.5 -170t123.5 -57q59 0 99.5 22t78.5 75l52 -48q-48 -66 -104 -95t-131 -29z" />
    <glyph glyph-name="cdotaccent" unicode="&#x10b;" horiz-adv-x="458" 
d="M286 579q-27 0 -41 16t-14 39q0 26 16.5 45.5t48.5 19.5q26 0 40 -16.5t14 -38.5q0 -26 -16.5 -45.5t-47.5 -19.5zM229 -12q-91 0 -141.5 51.5t-50.5 152.5q0 69 17 125t47.5 95.5t74 60.5t95.5 21q78 0 120 -34t42 -98q0 -21 -4.5 -40t-9.5 -30h-76q4 9 7 24.5t3 29.5
q0 42 -24 58.5t-60 16.5q-66 0 -103.5 -59.5t-37.5 -168.5q0 -66 29.5 -98.5t80.5 -32.5q46 0 75 18.5t50 47.5l50 -46q-28 -39 -73 -66.5t-111 -27.5z" />
    <glyph glyph-name="Ccaron" unicode="&#x10c;" horiz-adv-x="589" 
d="M265 876h80l46 -74l63 74h78l-99 -134h-98zM314 -6q-60 0 -108.5 19.5t-82.5 57t-52.5 93t-18.5 126.5q0 89 20.5 165t61 132t101.5 87.5t142 31.5q94 0 150.5 -45t56.5 -125q0 -22 -4 -41t-11 -38h-81q7 20 9 35t2 29q0 30 -10.5 51t-29 34t-44 19t-54.5 6
q-50 0 -89.5 -25t-67.5 -70t-42.5 -106.5t-14.5 -133.5q0 -113 48.5 -170t123.5 -57q59 0 99.5 22t78.5 75l52 -48q-48 -66 -104 -95t-131 -29z" />
    <glyph glyph-name="ccaron" unicode="&#x10d;" horiz-adv-x="458" 
d="M167 726h78l43 -108l64 108h77l-103 -174h-92zM229 -12q-91 0 -141.5 51.5t-50.5 152.5q0 69 17 125t47.5 95.5t74 60.5t95.5 21q78 0 120 -34t42 -98q0 -21 -4.5 -40t-9.5 -30h-76q4 9 7 24.5t3 29.5q0 42 -24 58.5t-60 16.5q-66 0 -103.5 -59.5t-37.5 -168.5
q0 -66 29.5 -98.5t80.5 -32.5q46 0 75 18.5t50 47.5l50 -46q-28 -39 -73 -66.5t-111 -27.5z" />
    <glyph glyph-name="Dcaron" unicode="&#x10e;" horiz-adv-x="661" 
d="M255 876h80l46 -74l63 74h78l-99 -134h-98zM132 700h207q65 0 118.5 -17t92.5 -53.5t60.5 -93t21.5 -134.5q0 -106 -30.5 -182t-81 -125t-116 -72t-135.5 -23h-211zM271 79q60 0 109.5 19t85 57.5t54.5 97.5t19 139q0 119 -56.5 174t-155.5 55h-116l-56 -542h116z" />
    <glyph glyph-name="dcaron" unicode="&#x10f;" horiz-adv-x="550" 
d="M567 571q21 7 35.5 20t16.5 27q-21 0 -34 14.5t-13 37.5q0 27 19 46t45 19t41.5 -17t15.5 -43q0 -24 -8 -47.5t-22.5 -43t-33.5 -34t-41 -20.5zM207 -12q-81 0 -126 57.5t-45 160.5q0 63 16.5 116t46.5 91t72 59.5t92 21.5q47 0 77 -19.5t44 -46.5l31 298h88l-64 -608
q-3 -29 4.5 -41t30.5 -12l-7 -64q-5 -2 -16.5 -3t-22.5 -1q-37 0 -57.5 19.5t-15.5 52.5l1 7q-19 -37 -58 -62.5t-91 -25.5zM237 62q38 0 70.5 27.5t49.5 74.5l16 154q-2 19 -9 37.5t-19.5 33t-31 23.5t-43.5 9q-70 0 -107 -58t-37 -160q0 -66 28.5 -103.5t82.5 -37.5z" />
    <glyph glyph-name="Dcroat" unicode="&#x110;" horiz-adv-x="706" 
d="M355 700q65 0 118.5 -17t92.5 -53.5t60.5 -93t21.5 -134.5q0 -106 -30.5 -182t-81 -125t-116 -72t-135.5 -23h-211l33 313h-88l8 77h88l33 310h207zM287 79q60 0 109.5 19t85 57.5t54.5 97.5t19 139q0 119 -56.5 174t-155.5 55h-116l-24 -231h98l-8 -77h-98l-24 -234h116
z" />
    <glyph glyph-name="dcroat" unicode="&#x111;" horiz-adv-x="527" 
d="M439 118q-3 -29 4.5 -41t30.5 -12l-7 -64q-5 -2 -16.5 -3t-22.5 -1q-37 0 -57.5 19.5t-15.5 52.5l1 7q-19 -37 -58 -62.5t-91 -25.5q-81 0 -126 57.5t-45 160.5q0 63 16.5 116t46.5 91t72 59.5t92 21.5q47 0 77 -19.5t44 -46.5l15 141h-110l8 77h110l8 80h88l-8 -80h76
l-8 -77h-77zM373 318q-2 19 -9 37.5t-19.5 33t-31 23.5t-43.5 9q-70 0 -107 -58t-37 -160q0 -66 28.5 -103.5t82.5 -37.5q38 0 70.5 27.5t49.5 74.5z" />
    <glyph glyph-name="Emacron" unicode="&#x112;" horiz-adv-x="550" 
d="M244 842h257l-7 -73h-257zM132 700h425l-9 -82h-337l-23 -221h285l-9 -82h-285l-24 -233h337l-9 -82h-425z" />
    <glyph glyph-name="emacron" unicode="&#x113;" horiz-adv-x="456" 
d="M403 600h-247l8 71h247zM230 62q43 0 71.5 15t57.5 51l51 -45q-38 -52 -87.5 -73.5t-106.5 -21.5q-86 0 -134 54t-48 152q0 66 18.5 121t51.5 94.5t78.5 62t100.5 22.5q68 0 106 -34.5t38 -93.5q0 -60 -29 -95.5t-73.5 -54t-97.5 -25t-102 -9.5q5 -61 32.5 -90.5
t72.5 -29.5zM273 421q-55 0 -95.5 -46t-50.5 -125q31 1 68 4t69.5 14t54 32.5t21.5 57.5q0 31 -16 47t-51 16z" />
    <glyph glyph-name="Ebreve" unicode="&#x114;" horiz-adv-x="550" 
d="M360 741q-53 0 -83 35.5t-23 99.5h68q-3 -27 8.5 -45.5t37.5 -18.5q32 0 45 18.5t16 45.5h68q-7 -63 -42 -99t-95 -36zM132 700h425l-9 -82h-337l-23 -221h285l-9 -82h-285l-24 -233h337l-9 -82h-425z" />
    <glyph glyph-name="ebreve" unicode="&#x115;" horiz-adv-x="456" 
d="M275 566q-34 0 -56 10.5t-34.5 29t-16 43.5t-0.5 53h68q-7 -67 46 -67q54 0 61 67h68q-3 -28 -12.5 -53t-26 -43.5t-40.5 -29t-57 -10.5zM230 62q43 0 71.5 15t57.5 51l51 -45q-38 -52 -87.5 -73.5t-106.5 -21.5q-86 0 -134 54t-48 152q0 66 18.5 121t51.5 94.5t78.5 62
t100.5 22.5q68 0 106 -34.5t38 -93.5q0 -60 -29 -95.5t-73.5 -54t-97.5 -25t-102 -9.5q5 -61 32.5 -90.5t72.5 -29.5zM273 421q-55 0 -95.5 -46t-50.5 -125q31 1 68 4t69.5 14t54 32.5t21.5 57.5q0 31 -16 47t-51 16z" />
    <glyph glyph-name="Edotaccent" unicode="&#x116;" horiz-adv-x="550" 
d="M362 746q-23 0 -39 16.5t-16 41.5q0 27 21.5 47.5t47.5 20.5q23 0 39 -17t16 -41q0 -28 -21.5 -48t-47.5 -20zM132 700h425l-9 -82h-337l-23 -221h285l-9 -82h-285l-24 -233h337l-9 -82h-425z" />
    <glyph glyph-name="edotaccent" unicode="&#x117;" horiz-adv-x="456" 
d="M279 579q-27 0 -41 16t-14 39q0 26 16.5 45.5t48.5 19.5q26 0 40 -16.5t14 -38.5q0 -26 -16.5 -45.5t-47.5 -19.5zM230 62q43 0 71.5 15t57.5 51l51 -45q-38 -52 -87.5 -73.5t-106.5 -21.5q-86 0 -134 54t-48 152q0 66 18.5 121t51.5 94.5t78.5 62t100.5 22.5
q68 0 106 -34.5t38 -93.5q0 -60 -29 -95.5t-73.5 -54t-97.5 -25t-102 -9.5q5 -61 32.5 -90.5t72.5 -29.5zM273 421q-55 0 -95.5 -46t-50.5 -125q31 1 68 4t69.5 14t54 32.5t21.5 57.5q0 31 -16 47t-51 16z" />
    <glyph glyph-name="Eogonek" unicode="&#x118;" horiz-adv-x="550" 
d="M211 618l-23 -221h285l-9 -82h-285l-24 -233h337l-9 -82q-30 -10 -50.5 -34.5t-20.5 -53.5q0 -32 29 -32q10 0 18 3.5t13 7.5l23 -46q-13 -13 -33 -20t-43 -7q-42 0 -63.5 19.5t-21.5 55.5q0 29 15.5 56.5t42.5 50.5h-334l74 700h425l-9 -82h-337z" />
    <glyph glyph-name="eogonek" unicode="&#x119;" horiz-adv-x="456" 
d="M230 62q43 0 71.5 15t57.5 51l51 -45q-25 -34 -54.5 -54.5t-63.5 -30.5q-29 -11 -47.5 -34.5t-18.5 -51.5q0 -32 29 -32q10 0 18 3.5t13 7.5l23 -46q-13 -13 -33 -20t-43 -7q-42 0 -63.5 19.5t-21.5 55.5q0 26 12 50.5t34 45.5q-76 7 -118 60.5t-42 144.5q0 66 18.5 121
t51.5 94.5t78.5 62t100.5 22.5q68 0 106 -34.5t38 -93.5q0 -60 -29 -95.5t-73.5 -54t-97.5 -25t-102 -9.5q5 -61 32.5 -90.5t72.5 -29.5zM273 421q-55 0 -95.5 -46t-50.5 -125q31 1 68 4t69.5 14t54 32.5t21.5 57.5q0 31 -16 47t-51 16z" />
    <glyph glyph-name="Ecaron" unicode="&#x11a;" horiz-adv-x="550" 
d="M244 876h80l46 -74l63 74h78l-99 -134h-98zM132 700h425l-9 -82h-337l-23 -221h285l-9 -82h-285l-24 -233h337l-9 -82h-425z" />
    <glyph glyph-name="ecaron" unicode="&#x11b;" horiz-adv-x="456" 
d="M227 552l-67 174h78l43 -108l64 108h77l-103 -174h-92zM230 62q43 0 71.5 15t57.5 51l51 -45q-38 -52 -87.5 -73.5t-106.5 -21.5q-86 0 -134 54t-48 152q0 66 18.5 121t51.5 94.5t78.5 62t100.5 22.5q68 0 106 -34.5t38 -93.5q0 -60 -29 -95.5t-73.5 -54t-97.5 -25
t-102 -9.5q5 -61 32.5 -90.5t72.5 -29.5zM273 421q-55 0 -95.5 -46t-50.5 -125q31 1 68 4t69.5 14t54 32.5t21.5 57.5q0 31 -16 47t-51 16z" />
    <glyph glyph-name="Gcircumflex" unicode="&#x11c;" horiz-adv-x="627" 
d="M346 876h98l70 -134h-80l-47 74l-62 -74h-78zM316 -10q-125 0 -194.5 75t-69.5 226q0 98 23.5 175.5t66.5 130.5t104 81t136 28q107 0 160 -45.5t53 -123.5q0 -20 -3 -35.5t-8 -24.5h-85q2 5 4.5 16.5t2.5 29.5q0 54 -36 81t-98 27q-106 0 -166 -86t-60 -244
q0 -110 47.5 -173t136.5 -63q60 0 96 15.5t50 32.5l16 155h-152l9 82h238l-29 -271q-15 -15 -37.5 -31t-53 -29t-68.5 -21t-83 -8z" />
    <glyph glyph-name="gcircumflex" unicode="&#x11d;" horiz-adv-x="517" 
d="M261 726h93l66 -174h-78l-42 108l-65 -108h-77zM195 -240q-69 0 -112 25.5t-62 65.5l64 48q14 -27 41.5 -46t77.5 -19q58 0 93 34t42 94l12 110q-16 -32 -50.5 -58t-96.5 -26q-80 0 -124 58.5t-44 154.5q0 62 16.5 115.5t46 93t71 62t91.5 22.5q48 0 79.5 -20t51.5 -57
l7 65h79l-55 -520q-10 -92 -65.5 -147t-162.5 -55zM232 62q47 0 77.5 27.5t47.5 74.5l16 154q-2 19 -9 37.5t-19.5 33t-31 23.5t-43.5 9q-70 0 -107 -59.5t-37 -157.5q0 -66 26.5 -104t79.5 -38z" />
    <glyph glyph-name="Gbreve" unicode="&#x11e;" horiz-adv-x="627" 
d="M378 741q-53 0 -83 35.5t-23 99.5h68q-3 -27 8.5 -45.5t37.5 -18.5q32 0 45 18.5t16 45.5h68q-7 -63 -42 -99t-95 -36zM316 -10q-125 0 -194.5 75t-69.5 226q0 98 23.5 175.5t66.5 130.5t104 81t136 28q107 0 160 -45.5t53 -123.5q0 -20 -3 -35.5t-8 -24.5h-85
q2 5 4.5 16.5t2.5 29.5q0 54 -36 81t-98 27q-106 0 -166 -86t-60 -244q0 -110 47.5 -173t136.5 -63q60 0 96 15.5t50 32.5l16 155h-152l9 82h238l-29 -271q-15 -15 -37.5 -31t-53 -29t-68.5 -21t-83 -8z" />
    <glyph glyph-name="gbreve" unicode="&#x11f;" horiz-adv-x="517" 
d="M291 566q-34 0 -56 10.5t-34.5 29t-16 43.5t-0.5 53h68q-7 -67 46 -67q54 0 61 67h68q-3 -28 -12.5 -53t-26 -43.5t-40.5 -29t-57 -10.5zM195 -240q-69 0 -112 25.5t-62 65.5l64 48q14 -27 41.5 -46t77.5 -19q58 0 93 34t42 94l12 110q-16 -32 -50.5 -58t-96.5 -26
q-80 0 -124 58.5t-44 154.5q0 62 16.5 115.5t46 93t71 62t91.5 22.5q48 0 79.5 -20t51.5 -57l7 65h79l-55 -520q-10 -92 -65.5 -147t-162.5 -55zM232 62q47 0 77.5 27.5t47.5 74.5l16 154q-2 19 -9 37.5t-19.5 33t-31 23.5t-43.5 9q-70 0 -107 -59.5t-37 -157.5
q0 -66 26.5 -104t79.5 -38z" />
    <glyph glyph-name="Gdotaccent" unicode="&#x120;" horiz-adv-x="627" 
d="M380 746q-23 0 -39 16.5t-16 41.5q0 27 21.5 47.5t47.5 20.5q23 0 39 -17t16 -41q0 -28 -21.5 -48t-47.5 -20zM316 -10q-125 0 -194.5 75t-69.5 226q0 98 23.5 175.5t66.5 130.5t104 81t136 28q107 0 160 -45.5t53 -123.5q0 -20 -3 -35.5t-8 -24.5h-85q2 5 4.5 16.5
t2.5 29.5q0 54 -36 81t-98 27q-106 0 -166 -86t-60 -244q0 -110 47.5 -173t136.5 -63q60 0 96 15.5t50 32.5l16 155h-152l9 82h238l-29 -271q-15 -15 -37.5 -31t-53 -29t-68.5 -21t-83 -8z" />
    <glyph glyph-name="gdotaccent" unicode="&#x121;" horiz-adv-x="517" 
d="M295 579q-27 0 -41 16t-14 39q0 26 16.5 45.5t48.5 19.5q26 0 40 -16.5t14 -38.5q0 -26 -16.5 -45.5t-47.5 -19.5zM195 -240q-69 0 -112 25.5t-62 65.5l64 48q14 -27 41.5 -46t77.5 -19q58 0 93 34t42 94l12 110q-16 -32 -50.5 -58t-96.5 -26q-80 0 -124 58.5t-44 154.5
q0 62 16.5 115.5t46 93t71 62t91.5 22.5q48 0 79.5 -20t51.5 -57l7 65h79l-55 -520q-10 -92 -65.5 -147t-162.5 -55zM232 62q47 0 77.5 27.5t47.5 74.5l16 154q-2 19 -9 37.5t-19.5 33t-31 23.5t-43.5 9q-70 0 -107 -59.5t-37 -157.5q0 -66 26.5 -104t79.5 -38z" />
    <glyph glyph-name="uni0122" unicode="&#x122;" horiz-adv-x="627" 
d="M316 -10q-125 0 -194.5 75t-69.5 226q0 98 23.5 175.5t66.5 130.5t104 81t136 28q107 0 160 -45.5t53 -123.5q0 -20 -3 -35.5t-8 -24.5h-85q2 5 4.5 16.5t2.5 29.5q0 54 -36 81t-98 27q-106 0 -166 -86t-60 -244q0 -110 47.5 -173t136.5 -63q60 0 96 15.5t50 32.5l16 155
h-152l9 82h238l-29 -271q-15 -15 -37.5 -31t-53 -29t-68.5 -21t-83 -8zM234 -202q21 7 35.5 20t16.5 27q-47 12 -47 55q0 29 18 45.5t44 16.5t42.5 -17.5t16.5 -49.5q0 -21 -8 -43t-22.5 -41t-33.5 -33.5t-41 -20.5z" />
    <glyph glyph-name="uni0123" unicode="&#x123;" horiz-adv-x="517" 
d="M290 540q-26 0 -40.5 16.5t-14.5 42.5q0 23 8 45t21.5 41t32 34t40.5 22l21 -41q-23 -8 -38.5 -19.5t-17.5 -23.5q22 0 36.5 -15.5t14.5 -37.5q0 -26 -18.5 -45t-44.5 -19zM195 -240q-69 0 -112 25.5t-62 65.5l64 48q14 -27 41.5 -46t77.5 -19q58 0 93 34t42 94l12 110
q-16 -32 -50.5 -58t-96.5 -26q-80 0 -124 58.5t-44 154.5q0 62 16.5 115.5t46 93t71 62t91.5 22.5q48 0 79.5 -20t51.5 -57l7 65h79l-55 -520q-10 -92 -65.5 -147t-162.5 -55zM232 62q47 0 77.5 27.5t47.5 74.5l16 154q-2 19 -9 37.5t-19.5 33t-31 23.5t-43.5 9
q-70 0 -107 -59.5t-37 -157.5q0 -66 26.5 -104t79.5 -38z" />
    <glyph glyph-name="Hcircumflex" unicode="&#x124;" horiz-adv-x="632" 
d="M336 876h98l70 -134h-80l-47 74l-62 -74h-78zM128 700h88l-32 -304h298l32 304h88l-74 -700h-88l33 312h-298l-33 -312h-88z" />
    <glyph glyph-name="hcircumflex" unicode="&#x125;" horiz-adv-x="518" 
d="M125 876h98l70 -134h-80l-47 74l-62 -74h-78zM425 -3q-45 0 -64.5 27.5t-14.5 72.5l22 212q5 50 -14 79.5t-68 29.5q-30 0 -52.5 -11.5t-38.5 -29.5t-25 -40t-11 -43l-31 -294h-88l76 726h88l-32 -310q18 31 53.5 54.5t88.5 23.5q44 0 73 -15t46 -40.5t22 -60t1 -73.5
l-20 -192q-3 -26 5.5 -37t29.5 -11l-7 -64q-5 -2 -16 -3t-23 -1z" />
    <glyph glyph-name="Hbar" unicode="&#x126;" horiz-adv-x="666" 
d="M673 508h-70l-54 -508h-88l33 312h-298l-33 -312h-88l54 508h-70l7 66h70l13 126h88l-13 -126h298l13 126h88l-13 -126h70zM515 508h-298l-12 -112h298z" />
    <glyph glyph-name="hbar" unicode="&#x127;" horiz-adv-x="518" 
d="M436 113q-3 -26 5.5 -37t29.5 -11l-7 -64q-5 -2 -16 -3t-23 -1q-45 0 -64.5 27.5t-14.5 72.5l22 212q5 50 -14 79.5t-68 29.5q-30 0 -52.5 -11.5t-38.5 -29.5t-25 -40t-11 -43l-31 -294h-88l60 569h-77l8 77h77l8 80h88l-8 -80h109l-8 -77h-109l-16 -153q18 31 53.5 54.5
t88.5 23.5q44 0 73 -15t46 -40.5t22 -60t1 -73.5z" />
    <glyph glyph-name="Itilde" unicode="&#x128;" horiz-adv-x="254" 
d="M37 746q-6 17 -6 39q0 33 23 57t62 24q21 0 38 -6t31.5 -13.5t27 -13.5t25.5 -6q25 0 25 29q0 10 -3 16h66q5 -17 5 -38q0 -33 -22 -57.5t-70 -24.5q-21 0 -38 6t-30.5 13.5t-25 13.5t-23.5 6q-9 0 -16 -6.5t-7 -20.5q0 -10 4 -18h-66zM132 700h88l-74 -700h-88z" />
    <glyph glyph-name="itilde" unicode="&#x129;" horiz-adv-x="229" 
d="M6 572q-6 17 -6 39q0 33 21 56.5t64 23.5q21 0 37.5 -6t31 -13t27 -13t24.5 -6q26 0 26 27q0 10 -4 18h66q6 -15 6 -36q0 -34 -21 -58.5t-65 -24.5q-23 0 -40.5 6t-31.5 13t-25 13t-21 6q-27 0 -27 -27q0 -10 4 -18h-66zM130 -3q-46 0 -65 27.5t-14 72.5l40 385h89
l-39 -369q-3 -26 5 -37t30 -11l-7 -64q-5 -2 -16 -3t-23 -1z" />
    <glyph glyph-name="Imacron" unicode="&#x12a;" horiz-adv-x="254" 
d="M62 842h257l-7 -73h-257zM132 700h88l-74 -700h-88z" />
    <glyph glyph-name="imacron" unicode="&#x12b;" horiz-adv-x="229" 
d="M34 671h247l-8 -71h-247zM130 -3q-46 0 -65 27.5t-14 72.5l40 385h89l-39 -369q-3 -26 5 -37t30 -11l-7 -64q-5 -2 -16 -3t-23 -1z" />
    <glyph glyph-name="Ibreve" unicode="&#x12c;" horiz-adv-x="254" 
d="M178 741q-53 0 -83 35.5t-23 99.5h68q-3 -27 8.5 -45.5t37.5 -18.5q32 0 45 18.5t16 45.5h68q-7 -63 -42 -99t-95 -36zM132 700h88l-74 -700h-88z" />
    <glyph glyph-name="ibreve" unicode="&#x12d;" horiz-adv-x="229" 
d="M145 566q-34 0 -56 10.5t-34.5 29t-16 43.5t-0.5 53h68q-7 -67 46 -67q54 0 61 67h68q-3 -28 -12.5 -53t-26 -43.5t-40.5 -29t-57 -10.5zM130 -3q-46 0 -65 27.5t-14 72.5l40 385h89l-39 -369q-3 -26 5 -37t30 -11l-7 -64q-5 -2 -16 -3t-23 -1z" />
    <glyph glyph-name="Iogonek" unicode="&#x12e;" horiz-adv-x="254" 
d="M104 -120q10 0 18 3.5t13 7.5l23 -46q-13 -13 -33 -20t-43 -7q-42 0 -63.5 19.5t-21.5 55.5q0 30 16.5 58.5t44.5 51.5l74 697h88l-74 -700q-30 -10 -50.5 -34.5t-20.5 -53.5q0 -32 29 -32z" />
    <glyph glyph-name="iogonek" unicode="&#x12f;" horiz-adv-x="229" 
d="M159 699q26 0 40 -16.5t14 -38.5q0 -26 -16.5 -45.5t-47.5 -19.5q-27 0 -41 16t-14 39q0 26 16.5 45.5t48.5 19.5zM127 -119q10 0 18 3.5t13 7.5l23 -46q-13 -13 -33 -20t-43 -7q-42 0 -63.5 19.5t-21.5 55.5q0 32 17.5 61t48.5 52q-22 11 -30 34.5t-5 55.5l40 385h89
l-39 -369q-3 -26 5 -37t30 -11l-7 -64q-30 -10 -50.5 -34.5t-20.5 -53.5q0 -32 29 -32z" />
    <glyph glyph-name="Idotaccent" unicode="&#x130;" horiz-adv-x="254" 
d="M180 746q-23 0 -39 16.5t-16 41.5q0 27 21.5 47.5t47.5 20.5q23 0 39 -17t16 -41q0 -28 -21.5 -48t-47.5 -20zM132 700h88l-74 -700h-88z" />
    <glyph glyph-name="dotlessi" unicode="&#x131;" horiz-adv-x="229" 
d="M130 -3q-46 0 -65 27.5t-14 72.5l40 385h89l-39 -369q-3 -26 5 -37t30 -11l-7 -64q-5 -2 -16 -3t-23 -1z" />
    <glyph glyph-name="IJ" unicode="&#x132;" horiz-adv-x="707" 
d="M132 700h88l-74 -700h-88zM423 -6q-69 0 -111 22.5t-64 54.5l63 61q18 -25 44 -43.5t66 -18.5q54 0 82 36t35 102l52 492h87l-53 -503q-11 -98 -59.5 -150.5t-141.5 -52.5z" />
    <glyph glyph-name="ij" unicode="&#x133;" horiz-adv-x="454" 
d="M149 579q-27 0 -41 16t-14 39q0 26 16.5 45.5t48.5 19.5q26 0 40 -16.5t14 -38.5q0 -26 -16.5 -45.5t-47.5 -19.5zM380 579q-27 0 -41 16t-14 39q0 26 16.5 45.5t48.5 19.5q26 0 40 -16.5t14 -38.5q0 -26 -16.5 -45.5t-47.5 -19.5zM130 -3q-46 0 -65 27.5t-14 72.5
l40 385h89l-39 -369q-3 -26 5 -37t30 -11l-7 -64q-5 -2 -16 -3t-23 -1zM177 -247q-23 0 -39 4.5t-26 9.5q-12 6 -20 14l33 61q6 -4 13 -8q7 -3 16.5 -5t21.5 -2q81 0 93 114l57 541h86l-57 -545q-9 -86 -51.5 -135t-126.5 -49z" />
    <glyph glyph-name="Jcircumflex" unicode="&#x134;" horiz-adv-x="453" 
d="M350 876h98l70 -134h-80l-47 74l-62 -74h-78zM169 -6q-69 0 -111 22.5t-64 54.5l63 61q18 -25 44 -43.5t66 -18.5q54 0 82 36t35 102l52 492h87l-53 -503q-11 -98 -59.5 -150.5t-141.5 -52.5z" />
    <glyph glyph-name="jcircumflex" unicode="&#x135;" horiz-adv-x="225" 
d="M117 726h93l66 -174h-78l-42 108l-65 -108h-77zM-52 -247q-23 0 -39 4.5t-26 9.5q-12 6 -20 14l33 61q6 -4 13 -8q7 -3 16.5 -5t21.5 -2q81 0 93 114l57 541h86l-57 -545q-9 -86 -51.5 -135t-126.5 -49z" />
    <glyph glyph-name="uni0136" unicode="&#x136;" horiz-adv-x="616" 
d="M380 336q22 -17 36.5 -43t27 -54.5t23.5 -57t25.5 -51.5t34 -37t47.5 -14h18l-9 -78q-8 -2 -20 -3t-21 -1q-49 0 -79 23t-50 57t-34 74t-31.5 74t-42.5 57t-66 23h-60l-33 -305h-88l74 700h88l-33 -311h57q44 0 86.5 15t78.5 51t62 95.5t36 149.5h88
q-15 -140 -72.5 -231.5t-142.5 -132.5zM291 -38q26 0 42.5 -17.5t16.5 -49.5q0 -21 -8 -43t-22.5 -41t-33.5 -33.5t-41 -20.5l-21 41q21 7 35.5 20t16.5 27q-47 12 -47 55q0 29 18 45.5t44 16.5z" />
    <glyph glyph-name="uni0137" unicode="&#x137;" horiz-adv-x="479" 
d="M454 65l-7 -62q-1 0 -11.5 -3t-25.5 -3q-45 0 -69.5 15.5t-38 39.5t-21.5 51t-21 51t-36 39.5t-67 15.5h-7l-22 -209h-88l76 726h88l-46 -444h31q82 0 123 54.5t55 145.5h80q-4 -26 -12 -59.5t-24.5 -67.5t-43.5 -65t-69 -52q31 -19 43.5 -48t23 -57t26.5 -48t53 -20h10z
M230 -38q26 0 42.5 -17.5t16.5 -49.5q0 -21 -8 -43t-22.5 -41t-33.5 -33.5t-41 -20.5l-21 41q21 7 35.5 20t16.5 27q-47 12 -47 55q0 29 18 45.5t44 16.5z" />
    <glyph glyph-name="kgreenlandic" unicode="&#x138;" horiz-adv-x="485" 
d="M456 65l-7 -62q-1 0 -11.5 -3t-25.5 -3q-45 0 -69.5 15.5t-38 38t-21.5 49.5t-21.5 49.5t-36.5 38t-67 15.5h-9l-21 -203h-88l51 482h88l-22 -206h25q47 0 79 15t53.5 42t34 65t18.5 84h83q-5 -31 -13.5 -66.5t-25 -70t-43 -64.5t-67.5 -50q30 -19 42.5 -47t23 -54.5
t26.5 -45.5t53 -19h10z" />
    <glyph glyph-name="Lacute" unicode="&#x139;" horiz-adv-x="511" 
d="M238 876h115l-122 -134h-87zM132 700h89l-66 -623h325l-8 -77h-414z" />
    <glyph glyph-name="lacute" unicode="&#x13a;" horiz-adv-x="230" 
d="M191 892h115l-122 -134h-87zM129 -3q-43 0 -63.5 23.5t-14.5 78.5l66 627h88l-64 -613q-3 -26 5 -35t31 -9l-7 -68q-7 -2 -18 -3t-23 -1z" />
    <glyph glyph-name="uni013B" unicode="&#x13b;" horiz-adv-x="511" 
d="M132 700h89l-66 -623h325l-8 -77h-414zM209 -202q21 7 35.5 20t16.5 27q-47 12 -47 55q0 29 18 45.5t44 16.5t42.5 -17.5t16.5 -49.5q0 -21 -8 -43t-22.5 -41t-33.5 -33.5t-41 -20.5z" />
    <glyph glyph-name="uni013C" unicode="&#x13c;" horiz-adv-x="230" 
d="M129 -3q-43 0 -63.5 23.5t-14.5 78.5l66 627h88l-64 -613q-3 -26 5 -35t31 -9l-7 -68q-7 -2 -18 -3t-23 -1zM32 -202q21 7 35.5 20t16.5 27q-47 12 -47 55q0 29 18 45.5t44 16.5t42.5 -17.5t16.5 -49.5q0 -21 -8 -43t-22.5 -41t-33.5 -33.5t-41 -20.5z" />
    <glyph glyph-name="Lcaron" unicode="&#x13d;" horiz-adv-x="536" 
d="M383 543q20 7 34.5 20t16.5 27q-21 0 -33 14.5t-12 35.5q0 27 18 46t44 19t41.5 -17t15.5 -43q0 -23 -8 -46t-22.5 -42.5t-33.5 -34t-41 -20.5zM132 700h89l-66 -623h325l-8 -77h-414z" />
    <glyph glyph-name="lcaron" unicode="&#x13e;" horiz-adv-x="230" 
d="M234 571q21 7 35.5 20t16.5 27q-47 12 -47 55q0 29 18 45.5t44 16.5t42.5 -17.5t16.5 -49.5q0 -21 -8 -43t-22.5 -41t-33.5 -33.5t-41 -20.5zM129 -3q-43 0 -63.5 23.5t-14.5 78.5l66 627h88l-64 -613q-3 -26 5 -35t31 -9l-7 -68q-7 -2 -18 -3t-23 -1z" />
    <glyph glyph-name="Ldot" unicode="&#x13f;" horiz-adv-x="534" 
d="M132 700h89l-66 -623h325l-8 -77h-414zM403 336q-25 0 -40 14.5t-15 39.5q0 26 16 43.5t44 17.5q24 0 39 -15t15 -38q0 -26 -15 -44t-44 -18z" />
    <glyph glyph-name="ldot" unicode="&#x140;" horiz-adv-x="295" 
d="M129 -3q-43 0 -63.5 23.5t-14.5 78.5l66 627h88l-64 -613q-3 -26 5 -35t31 -9l-7 -68q-7 -2 -18 -3t-23 -1zM267 324q-25 0 -40 14.5t-15 39.5q0 26 16.5 44.5t45.5 18.5q24 0 39 -15t15 -40q0 -26 -15.5 -44t-45.5 -18z" />
    <glyph glyph-name="Lslash" unicode="&#x141;" horiz-adv-x="551" 
d="M499 77l-8 -77h-414l29 270l-77 -42l-29 64l115 63l36 345h89l-31 -292l102 56l30 -64l-141 -78l-26 -245h325z" />
    <glyph glyph-name="lslash" unicode="&#x142;" horiz-adv-x="318" 
d="M187 113q-3 -26 5 -35t31 -9l-7 -68q-7 -2 -18 -3t-23 -1q-43 0 -63.5 23.5t-14.5 78.5l22 207l-72 -40l-26 58l106 59l36 343h88l-30 -290l69 39l27 -57l-104 -59z" />
    <glyph glyph-name="Nacute" unicode="&#x143;" horiz-adv-x="648" 
d="M425 876h115l-122 -134h-87zM132 700h75l254 -525l10 -29l58 554h85l-75 -700h-76l-256 524l-9 27l-57 -551h-83z" />
    <glyph glyph-name="nacute" unicode="&#x144;" horiz-adv-x="527" 
d="M340 726h107l-127 -174h-78zM434 -3q-45 0 -64 27.5t-14 72.5l22 207q6 60 -16.5 87.5t-68.5 27.5q-51 0 -86 -38t-41 -100l-29 -281h-88l39 373q3 26 -5 37t-29 11l7 64q5 2 16 3t23 1q38 0 54 -21.5t16 -59.5v-3q48 89 152 89q77 0 115.5 -49t28.5 -140l-20 -192
q-3 -26 5 -37t29 -11l-7 -64q-5 -2 -16 -3t-23 -1z" />
    <glyph glyph-name="uni0145" unicode="&#x145;" horiz-adv-x="648" 
d="M132 700h75l254 -525l10 -29l58 554h85l-75 -700h-76l-256 524l-9 27l-57 -551h-83zM227 -202q21 7 35.5 20t16.5 27q-47 12 -47 55q0 29 18 45.5t44 16.5t42.5 -17.5t16.5 -49.5q0 -21 -8 -43t-22.5 -41t-33.5 -33.5t-41 -20.5z" />
    <glyph glyph-name="uni0146" unicode="&#x146;" horiz-adv-x="527" 
d="M434 -3q-45 0 -64 27.5t-14 72.5l22 207q6 60 -16.5 87.5t-68.5 27.5q-51 0 -86 -38t-41 -100l-29 -281h-88l39 373q3 26 -5 37t-29 11l7 64q5 2 16 3t23 1q38 0 54 -21.5t16 -59.5v-3q48 89 152 89q77 0 115.5 -49t28.5 -140l-20 -192q-3 -26 5 -37t29 -11l-7 -64
q-5 -2 -16 -3t-23 -1zM190 -202q21 7 35.5 20t16.5 27q-47 12 -47 55q0 29 18 45.5t44 16.5t42.5 -17.5t16.5 -49.5q0 -21 -8 -43t-22.5 -41t-33.5 -33.5t-41 -20.5z" />
    <glyph glyph-name="Ncaron" unicode="&#x147;" horiz-adv-x="648" 
d="M269 876h80l46 -74l63 74h78l-99 -134h-98zM132 700h75l254 -525l10 -29l58 554h85l-75 -700h-76l-256 524l-9 27l-57 -551h-83z" />
    <glyph glyph-name="ncaron" unicode="&#x148;" horiz-adv-x="527" 
d="M182 726h78l43 -108l64 108h77l-103 -174h-92zM434 -3q-45 0 -64 27.5t-14 72.5l22 207q6 60 -16.5 87.5t-68.5 27.5q-51 0 -86 -38t-41 -100l-29 -281h-88l39 373q3 26 -5 37t-29 11l7 64q5 2 16 3t23 1q38 0 54 -21.5t16 -59.5v-3q48 89 152 89q77 0 115.5 -49
t28.5 -140l-20 -192q-3 -26 5 -37t29 -11l-7 -64q-5 -2 -16 -3t-23 -1z" />
    <glyph glyph-name="napostrophe" unicode="&#x149;" horiz-adv-x="642" 
d="M23 569q15 5 26 11t19 14t8 19q-24 0 -41 17t-17 43q0 24 16.5 41t41.5 17q26 0 45 -17.5t19 -50.5q0 -42 -14 -68.5t-31 -41.5q-21 -18 -46 -26zM528 -3q-45 0 -64 27.5t-14 72.5l22 207q6 60 -16.5 87.5t-68.5 27.5q-51 0 -86 -38t-41 -100l-29 -281h-88l39 373
q3 26 -5 37t-29 11l7 64q5 2 16 3t23 1q38 0 54 -21.5t16 -59.5v-3q48 89 152 89q77 0 115.5 -49t28.5 -140l-20 -192q-3 -26 5 -37t29 -11l-7 -64q-5 -2 -16 -3t-23 -1z" />
    <glyph glyph-name="Eng" unicode="&#x14a;" horiz-adv-x="648" 
d="M614 700l-75 -700l-3 -26q-9 -91 -57.5 -140t-129.5 -49q-39 0 -66.5 10.5t-41.5 29.5l59 70q9 -11 24 -18.5t38 -7.5q33 0 57 24.5t29 75.5l5 51l-246 504l-9 27l-57 -551h-83l74 700h75l254 -525l10 -29l58 554h85z" />
    <glyph glyph-name="eng" unicode="&#x14b;" horiz-adv-x="520" 
d="M324 494q78 0 115 -49t27 -140l-32 -305l-3 -26q-9 -91 -54.5 -140t-132.5 -49q-39 0 -66.5 10.5t-41.5 29.5l59 70q9 -11 25.5 -18.5t34.5 -7.5q38 0 59 24t28 75l4 32l32 304q6 56 -16 85.5t-69 29.5q-51 0 -85.5 -36t-40.5 -94l-30 -289h-88l39 373q3 26 -5 37t-29 11
l7 64q5 2 16 3t23 1q38 0 54.5 -22t14.5 -64v-3q24 46 64 70t91 24z" />
    <glyph glyph-name="Omacron" unicode="&#x14c;" horiz-adv-x="683" 
d="M277 842h257l-7 -73h-257zM323 -6q-54 0 -103.5 16.5t-86.5 52t-59 91.5t-22 136q0 111 26.5 190t71.5 129t105.5 73.5t128.5 23.5q54 0 102.5 -17t86 -53t59.5 -93t22 -137q0 -111 -26.5 -189t-71.5 -127.5t-105 -72.5t-128 -23zM331 69q48 0 90 18.5t73 58.5t49 103
t18 153q0 65 -15.5 108.5t-41.5 70.5t-59.5 38.5t-68.5 11.5q-48 0 -90 -19t-73.5 -59.5t-49.5 -104t-18 -153.5q0 -64 15.5 -107.5t41 -69.5t59.5 -37.5t70 -11.5z" />
    <glyph glyph-name="omacron" unicode="&#x14d;" horiz-adv-x="503" 
d="M174 671h247l-8 -71h-247zM233 -12q-94 0 -145 57t-51 159q0 68 17 121.5t48.5 91t75 57.5t95.5 20q91 0 142.5 -57t51.5 -159q0 -67 -17.5 -120.5t-48.5 -91t-74 -58t-94 -20.5zM239 61q62 0 100 55t38 158q0 72 -29 109.5t-83 37.5q-60 0 -99 -54.5t-39 -158.5
q0 -72 28.5 -109.5t83.5 -37.5z" />
    <glyph glyph-name="Obreve" unicode="&#x14e;" horiz-adv-x="683" 
d="M393 741q-53 0 -83 35.5t-23 99.5h68q-3 -27 8.5 -45.5t37.5 -18.5q32 0 45 18.5t16 45.5h68q-7 -63 -42 -99t-95 -36zM323 -6q-54 0 -103.5 16.5t-86.5 52t-59 91.5t-22 136q0 111 26.5 190t71.5 129t105.5 73.5t128.5 23.5q54 0 102.5 -17t86 -53t59.5 -93t22 -137
q0 -111 -26.5 -189t-71.5 -127.5t-105 -72.5t-128 -23zM331 69q48 0 90 18.5t73 58.5t49 103t18 153q0 65 -15.5 108.5t-41.5 70.5t-59.5 38.5t-68.5 11.5q-48 0 -90 -19t-73.5 -59.5t-49.5 -104t-18 -153.5q0 -64 15.5 -107.5t41 -69.5t59.5 -37.5t70 -11.5z" />
    <glyph glyph-name="obreve" unicode="&#x14f;" horiz-adv-x="503" 
d="M285 566q-34 0 -56 10.5t-34.5 29t-16 43.5t-0.5 53h68q-7 -67 46 -67q54 0 61 67h68q-3 -28 -12.5 -53t-26 -43.5t-40.5 -29t-57 -10.5zM233 -12q-94 0 -145 57t-51 159q0 68 17 121.5t48.5 91t75 57.5t95.5 20q91 0 142.5 -57t51.5 -159q0 -67 -17.5 -120.5t-48.5 -91
t-74 -58t-94 -20.5zM239 61q62 0 100 55t38 158q0 72 -29 109.5t-83 37.5q-60 0 -99 -54.5t-39 -158.5q0 -72 28.5 -109.5t83.5 -37.5z" />
    <glyph glyph-name="Ohungarumlaut" unicode="&#x150;" horiz-adv-x="683" 
d="M339 876h110l-108 -134h-78zM484 876h110l-108 -134h-77zM323 -6q-54 0 -103.5 16.5t-86.5 52t-59 91.5t-22 136q0 111 26.5 190t71.5 129t105.5 73.5t128.5 23.5q54 0 102.5 -17t86 -53t59.5 -93t22 -137q0 -111 -26.5 -189t-71.5 -127.5t-105 -72.5t-128 -23zM331 69
q48 0 90 18.5t73 58.5t49 103t18 153q0 65 -15.5 108.5t-41.5 70.5t-59.5 38.5t-68.5 11.5q-48 0 -90 -19t-73.5 -59.5t-49.5 -104t-18 -153.5q0 -64 15.5 -107.5t41 -69.5t59.5 -37.5t70 -11.5z" />
    <glyph glyph-name="ohungarumlaut" unicode="&#x151;" horiz-adv-x="503" 
d="M244 726h103l-117 -174h-74zM389 726h103l-117 -174h-73zM233 -12q-94 0 -145 57t-51 159q0 68 17 121.5t48.5 91t75 57.5t95.5 20q91 0 142.5 -57t51.5 -159q0 -67 -17.5 -120.5t-48.5 -91t-74 -58t-94 -20.5zM239 61q62 0 100 55t38 158q0 72 -29 109.5t-83 37.5
q-60 0 -99 -54.5t-39 -158.5q0 -72 28.5 -109.5t83.5 -37.5z" />
    <glyph glyph-name="OE" unicode="&#x152;" horiz-adv-x="979" 
d="M313 -6q-60 0 -108.5 21t-82 61t-52 96.5t-18.5 126.5q0 92 23 167.5t65 128.5t101.5 82t133.5 29q33 0 64 -8t57.5 -23.5t45.5 -38.5t27 -52l13 116h404l-9 -82h-315l-23 -221h263l-9 -82h-263l-24 -234h315l-9 -81h-404l11 109q-29 -54 -82.5 -84.5t-123.5 -30.5z
M322 71q52 0 94 23t71 66t45 103t16 135q0 110 -47.5 170.5t-129.5 60.5q-52 0 -94 -22.5t-71.5 -64.5t-45 -102.5t-15.5 -135.5q0 -110 47 -171.5t130 -61.5z" />
    <glyph glyph-name="oe" unicode="&#x153;" horiz-adv-x="792" 
d="M216 -12q-91 0 -138 57.5t-47 160.5q0 66 16 119t46.5 90.5t74 58t97.5 20.5q51 0 93.5 -23t65.5 -74q32 49 74 71t97 22q78 0 122.5 -48.5t44.5 -128.5q0 -12 -1 -33.5t-8 -53.5h-299q-1 -8 -1 -11v-8q0 -75 29.5 -109.5t82.5 -34.5q49 0 77 18t45 41l51 -43
q-31 -44 -77.5 -67t-103.5 -23q-69 0 -109.5 28t-54.5 66q-29 -47 -74.5 -71t-102.5 -24zM231 61q64 0 100 55.5t36 155.5q0 72 -26.5 110.5t-77.5 38.5q-66 0 -104 -56.5t-38 -154.5q0 -72 28 -110.5t82 -38.5zM675 292q7 60 -16.5 92.5t-71.5 32.5q-49 0 -81 -31t-45 -94
h214z" />
    <glyph glyph-name="Racute" unicode="&#x154;" horiz-adv-x="613" 
d="M395 876h115l-122 -134h-87zM514 -3q-39 0 -62.5 21.5t-39 53t-27 69t-26 69t-36 53t-57.5 21.5h-90l-30 -284h-88l74 700h221q102 0 157.5 -45.5t55.5 -138.5q0 -43 -13 -78t-35 -61t-52 -44t-65 -27q20 -11 33 -32t22.5 -46.5t17.5 -52t18 -48t24.5 -35.5t37.5 -14h28
l-8 -77q-1 0 -19 -2t-41 -2zM299 355q36 0 68 9.5t55.5 28t37.5 46.5t14 64q0 57 -34 89.5t-100 32.5h-129l-28 -270h116z" />
    <glyph glyph-name="racute" unicode="&#x155;" horiz-adv-x="351" 
d="M276 726h107l-127 -174h-78zM88 373q3 26 -5 37t-29 11l7 64q5 2 16 3t23 1q38 0 56 -21t14 -57l-1 -9q18 43 56.5 67.5t87.5 24.5q18 0 35.5 -4.5t26.5 -12.5l-44 -82q-17 12 -49 12q-25 0 -45.5 -11.5t-35.5 -31t-24 -45t-12 -54.5l-28 -265h-88z" />
    <glyph glyph-name="uni0156" unicode="&#x156;" horiz-adv-x="613" 
d="M514 -3q-39 0 -62.5 21.5t-39 53t-27 69t-26 69t-36 53t-57.5 21.5h-90l-30 -284h-88l74 700h221q102 0 157.5 -45.5t55.5 -138.5q0 -43 -13 -78t-35 -61t-52 -44t-65 -27q20 -11 33 -32t22.5 -46.5t17.5 -52t18 -48t24.5 -35.5t37.5 -14h28l-8 -77q-1 0 -19 -2t-41 -2z
M299 355q36 0 68 9.5t55.5 28t37.5 46.5t14 64q0 57 -34 89.5t-100 32.5h-129l-28 -270h116zM226 -202q21 7 35.5 20t16.5 27q-47 12 -47 55q0 29 18 45.5t44 16.5t42.5 -17.5t16.5 -49.5q0 -21 -8 -43t-22.5 -41t-33.5 -33.5t-41 -20.5z" />
    <glyph glyph-name="uni0157" unicode="&#x157;" horiz-adv-x="351" 
d="M88 373q3 26 -5 37t-29 11l7 64q5 2 16 3t23 1q38 0 56 -21t14 -57l-1 -9q18 43 56.5 67.5t87.5 24.5q18 0 35.5 -4.5t26.5 -12.5l-44 -82q-17 12 -49 12q-25 0 -45.5 -11.5t-35.5 -31t-24 -45t-12 -54.5l-28 -265h-88zM23 -202q21 7 35.5 20t16.5 27q-47 12 -47 55
q0 29 18 45.5t44 16.5t42.5 -17.5t16.5 -49.5q0 -21 -8 -43t-22.5 -41t-33.5 -33.5t-41 -20.5z" />
    <glyph glyph-name="Rcaron" unicode="&#x158;" horiz-adv-x="613" 
d="M239 876h80l46 -74l63 74h78l-99 -134h-98zM514 -3q-39 0 -62.5 21.5t-39 53t-27 69t-26 69t-36 53t-57.5 21.5h-90l-30 -284h-88l74 700h221q102 0 157.5 -45.5t55.5 -138.5q0 -43 -13 -78t-35 -61t-52 -44t-65 -27q20 -11 33 -32t22.5 -46.5t17.5 -52t18 -48
t24.5 -35.5t37.5 -14h28l-8 -77q-1 0 -19 -2t-41 -2zM299 355q36 0 68 9.5t55.5 28t37.5 46.5t14 64q0 57 -34 89.5t-100 32.5h-129l-28 -270h116z" />
    <glyph glyph-name="rcaron" unicode="&#x159;" horiz-adv-x="351" 
d="M118 726h78l43 -108l64 108h77l-103 -174h-92zM88 373q3 26 -5 37t-29 11l7 64q5 2 16 3t23 1q38 0 56 -21t14 -57l-1 -9q18 43 56.5 67.5t87.5 24.5q18 0 35.5 -4.5t26.5 -12.5l-44 -82q-17 12 -49 12q-25 0 -45.5 -11.5t-35.5 -31t-24 -45t-12 -54.5l-28 -265h-88z" />
    <glyph glyph-name="Sacute" unicode="&#x15a;" horiz-adv-x="556" 
d="M361 876h115l-122 -134h-87zM266 -6q-96 0 -156 28.5t-96 89.5l70 52q28 -48 72.5 -71.5t118.5 -23.5q69 0 109.5 31t40.5 91q0 26 -8 45t-26 34.5t-48 27.5t-75 22q-43 10 -78 24.5t-59.5 36t-38 51t-13.5 70.5q0 96 65 150t179 54q41 0 79 -8.5t67 -27.5t46.5 -49
t17.5 -73q0 -22 -3 -32.5t-7 -20.5l-83 1q7 21 7 38q0 51 -35.5 74t-98.5 23q-74 0 -110 -30.5t-36 -84.5q0 -26 8 -43t26 -29.5t48.5 -22.5t75.5 -22q53 -14 89.5 -31.5t58.5 -41.5t31.5 -54.5t9.5 -70.5q0 -49 -17.5 -88t-50 -65t-78.5 -40t-102 -14z" />
    <glyph glyph-name="sacute" unicode="&#x15b;" horiz-adv-x="450" 
d="M304 726h107l-127 -174h-78zM197 -12q-65 0 -114 22.5t-75 70.5l64 52q26 -43 61 -57.5t71 -14.5q59 0 86 16t27 51q0 17 -9 29t-25 21t-36 15t-43 11q-26 6 -52 15.5t-47 25.5t-34 40t-13 58q0 72 50 111.5t141 39.5q77 0 122.5 -32.5t45.5 -92.5q0 -17 -4 -32t-9 -27
h-78q4 8 6.5 21.5t2.5 23.5q0 35 -25 50.5t-68 15.5q-52 0 -75 -18.5t-23 -47.5q0 -19 7 -31.5t21.5 -20.5t36 -14t51.5 -13q26 -6 51.5 -15t46 -24.5t33 -38t12.5 -55.5q0 -78 -56 -116.5t-150 -38.5z" />
    <glyph glyph-name="Scircumflex" unicode="&#x15c;" horiz-adv-x="556" 
d="M289 876h98l70 -134h-80l-47 74l-62 -74h-78zM266 -6q-96 0 -156 28.5t-96 89.5l70 52q28 -48 72.5 -71.5t118.5 -23.5q69 0 109.5 31t40.5 91q0 26 -8 45t-26 34.5t-48 27.5t-75 22q-43 10 -78 24.5t-59.5 36t-38 51t-13.5 70.5q0 96 65 150t179 54q41 0 79 -8.5
t67 -27.5t46.5 -49t17.5 -73q0 -22 -3 -32.5t-7 -20.5l-83 1q7 21 7 38q0 51 -35.5 74t-98.5 23q-74 0 -110 -30.5t-36 -84.5q0 -26 8 -43t26 -29.5t48.5 -22.5t75.5 -22q53 -14 89.5 -31.5t58.5 -41.5t31.5 -54.5t9.5 -70.5q0 -49 -17.5 -88t-50 -65t-78.5 -40t-102 -14z
" />
    <glyph glyph-name="scircumflex" unicode="&#x15d;" horiz-adv-x="450" 
d="M231 726h93l66 -174h-78l-42 108l-65 -108h-77zM197 -12q-65 0 -114 22.5t-75 70.5l64 52q26 -43 61 -57.5t71 -14.5q59 0 86 16t27 51q0 17 -9 29t-25 21t-36 15t-43 11q-26 6 -52 15.5t-47 25.5t-34 40t-13 58q0 72 50 111.5t141 39.5q77 0 122.5 -32.5t45.5 -92.5
q0 -17 -4 -32t-9 -27h-78q4 8 6.5 21.5t2.5 23.5q0 35 -25 50.5t-68 15.5q-52 0 -75 -18.5t-23 -47.5q0 -19 7 -31.5t21.5 -20.5t36 -14t51.5 -13q26 -6 51.5 -15t46 -24.5t33 -38t12.5 -55.5q0 -78 -56 -116.5t-150 -38.5z" />
    <glyph glyph-name="Scedilla" unicode="&#x15e;" horiz-adv-x="556" 
d="M440 496q7 21 7 38q0 51 -35.5 74t-98.5 23q-74 0 -110 -30.5t-36 -84.5q0 -26 8 -43t26 -29.5t48.5 -22.5t75.5 -22q53 -14 89.5 -31.5t58.5 -41.5t31.5 -54.5t9.5 -70.5q0 -95 -61.5 -148t-165.5 -58l-11 -29q25 -8 46 -27t21 -57q0 -23 -9.5 -39t-25 -26.5t-35.5 -15
t-41 -4.5q-32 0 -55.5 8.5t-41.5 25.5l39 48q23 -21 51 -21q17 0 26.5 6.5t9.5 21.5q0 16 -18 25t-47 11l33 73q-79 5 -131 33.5t-84 83.5l70 52q28 -48 72.5 -71.5t118.5 -23.5q69 0 109.5 31t40.5 91q0 26 -8 45t-26 34.5t-48 27.5t-75 22q-43 10 -78 24.5t-59.5 36
t-38 51t-13.5 70.5q0 96 65 150t179 54q41 0 79 -8.5t67 -27.5t46.5 -49t17.5 -73q0 -22 -3 -32.5t-7 -20.5z" />
    <glyph glyph-name="scedilla" unicode="&#x15f;" horiz-adv-x="450" 
d="M326 310q4 8 6.5 21.5t2.5 23.5q0 35 -25 50.5t-68 15.5q-52 0 -75 -18.5t-23 -47.5q0 -19 7 -31.5t21.5 -20.5t36 -14t51.5 -13q26 -6 51.5 -15t46 -24.5t33 -38t12.5 -55.5q0 -69 -44.5 -107t-121.5 -46l-9 -24q25 -8 46 -27t21 -57q0 -23 -9.5 -39t-25 -26.5
t-35.5 -15t-41 -4.5q-32 0 -55.5 8.5t-41.5 25.5l39 48q23 -21 51 -21q17 0 26.5 6.5t9.5 21.5q0 16 -18 25t-47 11l30 67q-58 3 -102.5 25.5t-67.5 66.5l64 52q26 -43 61 -57.5t71 -14.5q59 0 86 16t27 51q0 17 -9 29t-25 21t-36 15t-43 11q-26 6 -52 15.5t-47 25.5t-34 40
t-13 58q0 72 50 111.5t141 39.5q77 0 122.5 -32.5t45.5 -92.5q0 -17 -4 -32t-9 -27h-78z" />
    <glyph glyph-name="Scaron" unicode="&#x160;" horiz-adv-x="556" 
d="M205 876h80l46 -74l63 74h78l-99 -134h-98zM266 -6q-96 0 -156 28.5t-96 89.5l70 52q28 -48 72.5 -71.5t118.5 -23.5q69 0 109.5 31t40.5 91q0 26 -8 45t-26 34.5t-48 27.5t-75 22q-43 10 -78 24.5t-59.5 36t-38 51t-13.5 70.5q0 96 65 150t179 54q41 0 79 -8.5t67 -27.5
t46.5 -49t17.5 -73q0 -22 -3 -32.5t-7 -20.5l-83 1q7 21 7 38q0 51 -35.5 74t-98.5 23q-74 0 -110 -30.5t-36 -84.5q0 -26 8 -43t26 -29.5t48.5 -22.5t75.5 -22q53 -14 89.5 -31.5t58.5 -41.5t31.5 -54.5t9.5 -70.5q0 -49 -17.5 -88t-50 -65t-78.5 -40t-102 -14z" />
    <glyph glyph-name="scaron" unicode="&#x161;" horiz-adv-x="450" 
d="M146 726h78l43 -108l64 108h77l-103 -174h-92zM197 -12q-65 0 -114 22.5t-75 70.5l64 52q26 -43 61 -57.5t71 -14.5q59 0 86 16t27 51q0 17 -9 29t-25 21t-36 15t-43 11q-26 6 -52 15.5t-47 25.5t-34 40t-13 58q0 72 50 111.5t141 39.5q77 0 122.5 -32.5t45.5 -92.5
q0 -17 -4 -32t-9 -27h-78q4 8 6.5 21.5t2.5 23.5q0 35 -25 50.5t-68 15.5q-52 0 -75 -18.5t-23 -47.5q0 -19 7 -31.5t21.5 -20.5t36 -14t51.5 -13q26 -6 51.5 -15t46 -24.5t33 -38t12.5 -55.5q0 -78 -56 -116.5t-150 -38.5z" />
    <glyph glyph-name="uni0162" unicode="&#x162;" horiz-adv-x="520" 
d="M554 700l-9 -82h-201l-65 -618h-9l-13 -34q25 -8 46 -27t21 -57q0 -23 -9.5 -39t-25 -26.5t-35.5 -15t-41 -4.5q-32 0 -55.5 8.5t-41.5 25.5l39 48q23 -21 51 -21q17 0 26.5 6.5t9.5 21.5q0 16 -18 25t-47 11l35 78h-21l65 618h-201l9 82h490z" />
    <glyph glyph-name="uni0163" unicode="&#x163;" horiz-adv-x="390" 
d="M183 183q-6 -56 12.5 -82t60.5 -26q22 0 41 8t33 18l37 -62q-20 -17 -53 -29.5t-65 -15.5l-11 -28q25 -8 46 -27t21 -57q0 -23 -9.5 -39t-25 -26.5t-35.5 -15t-41 -4.5q-32 0 -55.5 8.5t-41.5 25.5l39 48q23 -21 51 -21q17 0 26.5 6.5t9.5 21.5q0 16 -18 25t-47 11l34 76
q-59 11 -82 56t-15 126l24 226h-86l8 76h90l13 140h85l-14 -140h173l-8 -76h-174z" />
    <glyph glyph-name="Tcaron" unicode="&#x164;" horiz-adv-x="520" 
d="M193 876h80l46 -74l63 74h78l-99 -134h-98zM256 618h-201l9 82h490l-9 -82h-201l-65 -618h-88z" />
    <glyph glyph-name="tcaron" unicode="&#x165;" horiz-adv-x="390" 
d="M305 571q21 7 35.5 20t16.5 27q-47 12 -47 55q0 29 18 45.5t44 16.5t42.5 -17.5t16.5 -49.5q0 -21 -8 -43t-22.5 -41t-33.5 -33.5t-41 -20.5zM237 -6q-84 0 -118 45t-24 141l24 226h-86l8 76h90l13 140h85l-14 -140h173l-8 -76h-174l-23 -223q-6 -56 12.5 -82t60.5 -26
q22 0 41 8t33 18l37 -62q-23 -19 -59 -32t-71 -13z" />
    <glyph glyph-name="Tbar" unicode="&#x166;" horiz-adv-x="547" 
d="M348 618l-26 -248h97l-8 -75h-97l-31 -295h-88l31 295h-87l8 75h87l26 248h-201l9 82h490l-9 -82h-201z" />
    <glyph glyph-name="tbar" unicode="&#x167;" horiz-adv-x="409" 
d="M210 406l-11 -103h121l-8 -77h-121l-4 -43q-6 -56 12.5 -82t60.5 -26q22 0 41 8t33 18l37 -62q-23 -19 -59 -32t-71 -13q-84 0 -118 45t-24 141l5 46h-66l8 77h66l11 103h-86l8 76h90l13 140h85l-14 -140h173l-8 -76h-174z" />
    <glyph glyph-name="Utilde" unicode="&#x168;" horiz-adv-x="644" 
d="M234 746q-6 17 -6 39q0 33 23 57t62 24q21 0 38 -6t31.5 -13.5t27 -13.5t25.5 -6q25 0 25 29q0 10 -3 16h66q5 -17 5 -38q0 -33 -22 -57.5t-70 -24.5q-21 0 -38 6t-30.5 13.5t-25 13.5t-23.5 6q-9 0 -16 -6.5t-7 -20.5q0 -10 4 -18h-66zM300 -6q-52 0 -96.5 14.5
t-74.5 48.5t-44 90t-5 140l43 413h89l-44 -419q-11 -109 25 -159.5t114 -50.5q77 0 123 47.5t58 162.5l44 419h85l-43 -413q-9 -87 -33.5 -143.5t-60.5 -90t-82 -46.5t-98 -13z" />
    <glyph glyph-name="utilde" unicode="&#x169;" horiz-adv-x="518" 
d="M155 572q-6 17 -6 39q0 33 21 56.5t64 23.5q21 0 37.5 -6t31 -13t27 -13t24.5 -6q26 0 26 27q0 10 -4 18h66q6 -15 6 -36q0 -34 -21 -58.5t-65 -24.5q-23 0 -40.5 6t-31.5 13t-25 13t-21 6q-27 0 -27 -27q0 -10 4 -18h-66zM193 -12q-75 0 -112 45t-28 130l34 319h87
l-32 -308q-7 -63 17 -87.5t69 -24.5q29 0 50.5 12t37 30.5t24.5 40.5t11 43l31 294h88l-39 -368q-2 -23 4.5 -36t29.5 -13l-7 -64q-1 0 -11 -2t-29 -2q-37 0 -55.5 20t-13.5 58l1 6q-10 -18 -23.5 -34.5t-32.5 -29.5t-43.5 -21t-57.5 -8z" />
    <glyph glyph-name="Umacron" unicode="&#x16a;" horiz-adv-x="644" 
d="M259 842h257l-7 -73h-257zM300 -6q-52 0 -96.5 14.5t-74.5 48.5t-44 90t-5 140l43 413h89l-44 -419q-11 -109 25 -159.5t114 -50.5q77 0 123 47.5t58 162.5l44 419h85l-43 -413q-9 -87 -33.5 -143.5t-60.5 -90t-82 -46.5t-98 -13z" />
    <glyph glyph-name="umacron" unicode="&#x16b;" horiz-adv-x="518" 
d="M183 671h247l-8 -71h-247zM193 -12q-75 0 -112 45t-28 130l34 319h87l-32 -308q-7 -63 17 -87.5t69 -24.5q29 0 50.5 12t37 30.5t24.5 40.5t11 43l31 294h88l-39 -368q-2 -23 4.5 -36t29.5 -13l-7 -64q-1 0 -11 -2t-29 -2q-37 0 -55.5 20t-13.5 58l1 6
q-10 -18 -23.5 -34.5t-32.5 -29.5t-43.5 -21t-57.5 -8z" />
    <glyph glyph-name="Ubreve" unicode="&#x16c;" horiz-adv-x="644" 
d="M375 741q-53 0 -83 35.5t-23 99.5h68q-3 -27 8.5 -45.5t37.5 -18.5q32 0 45 18.5t16 45.5h68q-7 -63 -42 -99t-95 -36zM300 -6q-52 0 -96.5 14.5t-74.5 48.5t-44 90t-5 140l43 413h89l-44 -419q-11 -109 25 -159.5t114 -50.5q77 0 123 47.5t58 162.5l44 419h85l-43 -413
q-9 -87 -33.5 -143.5t-60.5 -90t-82 -46.5t-98 -13z" />
    <glyph glyph-name="ubreve" unicode="&#x16d;" horiz-adv-x="518" 
d="M294 566q-34 0 -56 10.5t-34.5 29t-16 43.5t-0.5 53h68q-7 -67 46 -67q54 0 61 67h68q-3 -28 -12.5 -53t-26 -43.5t-40.5 -29t-57 -10.5zM193 -12q-75 0 -112 45t-28 130l34 319h87l-32 -308q-7 -63 17 -87.5t69 -24.5q29 0 50.5 12t37 30.5t24.5 40.5t11 43l31 294h88
l-39 -368q-2 -23 4.5 -36t29.5 -13l-7 -64q-1 0 -11 -2t-29 -2q-37 0 -55.5 20t-13.5 58l1 6q-10 -18 -23.5 -34.5t-32.5 -29.5t-43.5 -21t-57.5 -8z" />
    <glyph glyph-name="Uring" unicode="&#x16e;" horiz-adv-x="644" 
d="M374 701q-48 0 -74.5 29t-26.5 72q0 52 32 88t88 36q45 0 72 -29t27 -73q0 -52 -31.5 -87.5t-86.5 -35.5zM379 764q23 0 35.5 15.5t12.5 38.5q0 20 -10.5 31.5t-29.5 11.5q-23 0 -36 -15t-13 -38q0 -20 10.5 -32t30.5 -12zM300 -6q-52 0 -96.5 14.5t-74.5 48.5t-44 90
t-5 140l43 413h89l-44 -419q-11 -109 25 -159.5t114 -50.5q77 0 123 47.5t58 162.5l44 419h85l-43 -413q-9 -87 -33.5 -143.5t-60.5 -90t-82 -46.5t-98 -13z" />
    <glyph glyph-name="uring" unicode="&#x16f;" horiz-adv-x="518" 
d="M295 533q-44 0 -70.5 27t-26.5 68q0 49 31 82.5t80 33.5q43 0 69 -27t26 -69q0 -24 -8 -45t-22.5 -36.5t-34.5 -24.5t-44 -9zM300 595q17 0 30 13t13 34q0 17 -10 28t-28 11q-19 0 -32 -12.5t-13 -33.5q0 -18 10.5 -29t29.5 -11zM193 -12q-75 0 -112 45t-28 130l34 319
h87l-32 -308q-7 -63 17 -87.5t69 -24.5q29 0 50.5 12t37 30.5t24.5 40.5t11 43l31 294h88l-39 -368q-2 -23 4.5 -36t29.5 -13l-7 -64q-1 0 -11 -2t-29 -2q-37 0 -55.5 20t-13.5 58l1 6q-10 -18 -23.5 -34.5t-32.5 -29.5t-43.5 -21t-57.5 -8z" />
    <glyph glyph-name="Uhungarumlaut" unicode="&#x170;" horiz-adv-x="644" 
d="M321 876h110l-108 -134h-78zM466 876h110l-108 -134h-77zM300 -6q-52 0 -96.5 14.5t-74.5 48.5t-44 90t-5 140l43 413h89l-44 -419q-11 -109 25 -159.5t114 -50.5q77 0 123 47.5t58 162.5l44 419h85l-43 -413q-9 -87 -33.5 -143.5t-60.5 -90t-82 -46.5t-98 -13z" />
    <glyph glyph-name="uhungarumlaut" unicode="&#x171;" horiz-adv-x="518" 
d="M253 726h103l-117 -174h-74zM398 726h103l-117 -174h-73zM193 -12q-75 0 -112 45t-28 130l34 319h87l-32 -308q-7 -63 17 -87.5t69 -24.5q29 0 50.5 12t37 30.5t24.5 40.5t11 43l31 294h88l-39 -368q-2 -23 4.5 -36t29.5 -13l-7 -64q-1 0 -11 -2t-29 -2q-37 0 -55.5 20
t-13.5 58l1 6q-10 -18 -23.5 -34.5t-32.5 -29.5t-43.5 -21t-57.5 -8z" />
    <glyph glyph-name="Uogonek" unicode="&#x172;" horiz-adv-x="644" 
d="M617 700l-43 -413q-8 -75 -27 -127t-47.5 -86t-64.5 -52t-78 -24q-28 -11 -46.5 -34.5t-18.5 -51.5q0 -32 29 -32q10 0 18 3.5t13 7.5l23 -46q-13 -13 -33 -20t-43 -7q-42 0 -63.5 19.5t-21.5 55.5q0 28 14 54t39 48q-46 4 -84 21.5t-63.5 52t-36.5 88t-3 130.5l43 413
h89l-44 -419q-11 -109 25 -159.5t114 -50.5q77 0 123 47.5t58 162.5l44 419h85z" />
    <glyph glyph-name="uogonek" unicode="&#x173;" horiz-adv-x="518" 
d="M416 -119q10 0 18 3.5t13 7.5l23 -46q-13 -13 -33 -20t-43 -7q-42 0 -63.5 19.5t-21.5 55.5q0 32 18 61t48 52q-34 19 -26 68l1 6q-10 -18 -23.5 -34.5t-32.5 -29.5t-43.5 -21t-57.5 -8q-75 0 -112 45t-28 130l34 319h87l-32 -308q-7 -63 17 -87.5t69 -24.5q29 0 50.5 12
t37 30.5t24.5 40.5t11 43l31 294h88l-39 -368q-2 -23 4.5 -36t29.5 -13l-7 -64q-30 -10 -50.5 -34.5t-20.5 -53.5q0 -32 29 -32z" />
    <glyph glyph-name="Wcircumflex" unicode="&#x174;" horiz-adv-x="891" 
d="M466 876h98l70 -134h-80l-47 74l-62 -74h-78zM65 700h101l68 -596l221 596h84l94 -596l196 596h95l-254 -700h-98l-88 568l-214 -568h-98z" />
    <glyph glyph-name="wcircumflex" unicode="&#x175;" horiz-adv-x="710" 
d="M335 552h-77l103 174h93l66 -174h-78l-42 108zM721 482l-199 -482h-95l-49 318l-5 50l-17 -50l-123 -318h-96l-95 482h90l48 -307l13 -88l31 88l118 307h88l46 -306l11 -89l32 89l116 306h86z" />
    <glyph glyph-name="Ycircumflex" unicode="&#x176;" horiz-adv-x="572" 
d="M308 876h98l70 -134h-80l-47 74l-62 -74h-78zM249 291l-185 409h102l136 -324l204 324h102l-272 -409l-31 -291h-87z" />
    <glyph glyph-name="ycircumflex" unicode="&#x177;" horiz-adv-x="508" 
d="M258 726h93l66 -174h-78l-42 108l-65 -108h-77zM186 -247q-75 0 -117.5 25t-57.5 67l64 45q15 -31 43.5 -47t75.5 -16q58 0 93.5 34t41.5 94l14 130q-25 -44 -66.5 -67.5t-95.5 -23.5q-145 0 -127 173l33 315h88l-32 -304q-12 -110 76 -110q22 0 44.5 11t40.5 29.5
t30.5 42t15.5 48.5l30 283h88l-55 -527q-10 -93 -70.5 -147.5t-156.5 -54.5z" />
    <glyph glyph-name="Ydieresis" unicode="&#x178;" horiz-adv-x="572" 
d="M243 748q-26 0 -40.5 16t-14.5 39q0 29 16.5 48t45.5 19q25 0 40 -15.5t15 -40.5q0 -29 -16.5 -47.5t-45.5 -18.5zM449 748q-25 0 -41 14t-16 42t18 47t46 19q26 0 40 -15.5t14 -39.5q0 -30 -16 -48.5t-45 -18.5zM249 291l-185 409h102l136 -324l204 324h102l-272 -409
l-31 -291h-87z" />
    <glyph glyph-name="Zacute" unicode="&#x179;" horiz-adv-x="553" 
d="M356 742h-87l94 134h115zM559 633l-439 -557h382l-8 -76h-486l7 67l442 557h-382l9 76h483z" />
    <glyph glyph-name="zacute" unicode="&#x17a;" horiz-adv-x="472" 
d="M290 552h-78l98 174h107zM430 410l-230 -168q36 -6 74 -21t69.5 -43t51.5 -72t20 -107q0 -58 -18.5 -103t-49.5 -76t-72.5 -47t-86.5 -16q-86 0 -134.5 44t-48.5 120q0 49 16 89t40.5 70.5t54.5 53.5t57 38q-19 2 -38.5 3.5t-39.5 1.5l8 76l210 154h-249l8 75h366z
M336 -15q0 66 -24 105t-64 59q-25 -13 -53 -32t-51.5 -45t-38.5 -59.5t-15 -76.5q0 -50 28 -77.5t80 -27.5q29 0 54 11t44 31t29.5 48.5t10.5 63.5z" />
    <glyph glyph-name="Zdotaccent" unicode="&#x17b;" horiz-adv-x="553" 
d="M325 746q-23 0 -39 16.5t-16 41.5q0 27 21.5 47.5t47.5 20.5q23 0 39 -17t16 -41q0 -28 -21.5 -48t-47.5 -20zM559 633l-439 -557h382l-8 -76h-486l7 67l442 557h-382l9 76h483z" />
    <glyph glyph-name="zdotaccent" unicode="&#x17c;" horiz-adv-x="472" 
d="M271 579q-27 0 -41 16t-14 39q0 26 16.5 45.5t48.5 19.5q26 0 40 -16.5t14 -38.5q0 -26 -16.5 -45.5t-47.5 -19.5zM430 410l-230 -168q36 -6 74 -21t69.5 -43t51.5 -72t20 -107q0 -58 -18.5 -103t-49.5 -76t-72.5 -47t-86.5 -16q-86 0 -134.5 44t-48.5 120q0 49 16 89
t40.5 70.5t54.5 53.5t57 38q-19 2 -38.5 3.5t-39.5 1.5l8 76l210 154h-249l8 75h366zM336 -15q0 66 -24 105t-64 59q-25 -13 -53 -32t-51.5 -45t-38.5 -59.5t-15 -76.5q0 -50 28 -77.5t80 -27.5q29 0 54 11t44 31t29.5 48.5t10.5 63.5z" />
    <glyph glyph-name="Zcaron" unicode="&#x17d;" horiz-adv-x="553" 
d="M277 742l-70 134h80l46 -74l63 74h78l-99 -134h-98zM559 633l-439 -557h382l-8 -76h-486l7 67l442 557h-382l9 76h483z" />
    <glyph glyph-name="zcaron" unicode="&#x17e;" horiz-adv-x="472" 
d="M219 552l-67 174h78l43 -108l64 108h77l-103 -174h-92zM430 410l-230 -168q36 -6 74 -21t69.5 -43t51.5 -72t20 -107q0 -58 -18.5 -103t-49.5 -76t-72.5 -47t-86.5 -16q-86 0 -134.5 44t-48.5 120q0 49 16 89t40.5 70.5t54.5 53.5t57 38q-19 2 -38.5 3.5t-39.5 1.5l8 76
l210 154h-249l8 75h366zM336 -15q0 66 -24 105t-64 59q-25 -13 -53 -32t-51.5 -45t-38.5 -59.5t-15 -76.5q0 -50 28 -77.5t80 -27.5q29 0 54 11t44 31t29.5 48.5t10.5 63.5z" />
    <glyph glyph-name="uni018F" unicode="&#x18f;" horiz-adv-x="629" 
d="M347 706q120 0 186.5 -75t66.5 -217q0 -102 -22 -180t-62.5 -131.5t-98.5 -81t-131 -27.5q-121 0 -183.5 73.5t-62.5 198.5q0 31 3 52t8 45h456q1 11 1 23v25q0 106 -45.5 162.5t-122.5 56.5q-65 0 -104 -26.5t-72 -73.5l-66 37q20 30 44 55.5t54 44t67 29t84 10.5z
M299 69q79 0 130.5 56.5t69.5 165.5h-370q-6 -106 34 -164t136 -58z" />
    <glyph glyph-name="florin" unicode="&#x192;" horiz-adv-x="397" 
d="M-9 -177q-41 0 -66 15.5t-39 41.5l56 49q10 -18 22 -25t26 -7q38 0 63 27.5t30 78.5l40 379h-68l8 71h68l7 71q8 85 55 130.5t125 45.5q37 0 65.5 -12t46.5 -34l-51 -53q-14 14 -26 19.5t-35 5.5q-38 0 -62.5 -27.5t-29.5 -78.5l-7 -67h162l-8 -71h-162l-40 -383
q-9 -85 -56 -130.5t-124 -45.5z" />
    <glyph glyph-name="uni019D" unicode="&#x19d;" horiz-adv-x="648" 
d="M614 700l-75 -700h-76l-256 524l-9 27l-60 -580q-11 -100 -61.5 -143t-122.5 -43q-40 0 -68.5 11t-41.5 29l59 70q8 -11 23.5 -18.5t38.5 -7.5q31 0 56 20.5t31 64.5l6 46l74 700h75l254 -525l10 -29l58 554h85z" />
    <glyph glyph-name="Gcaron" unicode="&#x1e6;" horiz-adv-x="627" 
d="M262 876h80l46 -74l63 74h78l-99 -134h-98zM316 -10q-125 0 -194.5 75t-69.5 226q0 98 23.5 175.5t66.5 130.5t104 81t136 28q107 0 160 -45.5t53 -123.5q0 -20 -3 -35.5t-8 -24.5h-85q2 5 4.5 16.5t2.5 29.5q0 54 -36 81t-98 27q-106 0 -166 -86t-60 -244
q0 -110 47.5 -173t136.5 -63q60 0 96 15.5t50 32.5l16 155h-152l9 82h238l-29 -271q-15 -15 -37.5 -31t-53 -29t-68.5 -21t-83 -8z" />
    <glyph glyph-name="gcaron" unicode="&#x1e7;" horiz-adv-x="517" 
d="M176 726h78l43 -108l64 108h77l-103 -174h-92zM195 -240q-69 0 -112 25.5t-62 65.5l64 48q14 -27 41.5 -46t77.5 -19q58 0 93 34t42 94l12 110q-16 -32 -50.5 -58t-96.5 -26q-80 0 -124 58.5t-44 154.5q0 62 16.5 115.5t46 93t71 62t91.5 22.5q48 0 79.5 -20t51.5 -57
l7 65h79l-55 -520q-10 -92 -65.5 -147t-162.5 -55zM232 62q47 0 77.5 27.5t47.5 74.5l16 154q-2 19 -9 37.5t-19.5 33t-31 23.5t-43.5 9q-70 0 -107 -59.5t-37 -157.5q0 -66 26.5 -104t79.5 -38z" />
    <glyph glyph-name="uni01EA" unicode="&#x1ea;" horiz-adv-x="683" 
d="M365 -4q-26 -11 -43.5 -34t-17.5 -50q0 -32 29 -32q10 0 18 3.5t13 7.5l23 -46q-13 -13 -33 -20t-43 -7q-42 0 -63.5 19.5t-21.5 55.5q0 28 14.5 54.5t39.5 49.5q-47 6 -88.5 25.5t-72.5 55t-49 88t-18 124.5q0 111 26.5 190t71.5 129t105.5 73.5t128.5 23.5
q54 0 102.5 -17t86 -53t59.5 -93t22 -137q0 -102 -22.5 -176.5t-61.5 -124t-91.5 -76.5t-113.5 -33zM145 295q0 -64 15.5 -107.5t41 -69.5t59.5 -37.5t70 -11.5q48 0 90 18.5t73 58.5t49 103t18 153q0 65 -15.5 108.5t-41.5 70.5t-59.5 38.5t-68.5 11.5q-48 0 -90 -19
t-73.5 -59.5t-49.5 -104t-18 -153.5z" />
    <glyph glyph-name="uni01EB" unicode="&#x1eb;" horiz-adv-x="503" 
d="M275 -8q-23 -13 -37.5 -34t-14.5 -46q0 -32 29 -32q10 0 18 3.5t13 7.5l23 -46q-13 -13 -33 -20t-43 -7q-42 0 -63.5 19.5t-21.5 55.5q0 26 12.5 51.5t35.5 46.5q-75 12 -115.5 67t-40.5 146q0 68 17 121.5t48.5 91t75 57.5t95.5 20q91 0 142.5 -57t51.5 -159
q0 -60 -14 -109t-39.5 -85.5t-60.5 -60t-78 -31.5zM127 208q0 -72 28.5 -109.5t83.5 -37.5q62 0 100 55t38 158q0 72 -29 109.5t-83 37.5q-60 0 -99 -54.5t-39 -158.5z" />
    <glyph glyph-name="Aringacute" unicode="&#x1fa;" horiz-adv-x="604" 
d="M434 195h-272l-88 -195h-89l310 673q-22 14 -33 36t-11 50q0 43 22.5 75.5t62.5 43.5l66 95h115l-94 -103q47 -28 47 -89q0 -38 -17 -68t-49 -44l165 -669h-90zM357 721q23 0 35.5 15.5t12.5 38.5q0 20 -10.5 31.5t-29.5 11.5q-23 0 -36 -15t-13 -38q0 -20 10.5 -32
t30.5 -12zM417 269l-75 325l-146 -325h221z" />
    <glyph glyph-name="aringacute" unicode="&#x1fb;" horiz-adv-x="527" 
d="M299 533q-44 0 -70.5 27t-26.5 68q0 44 25 75.5t66 38.5l74 131h107l-106 -145q19 -13 29.5 -33.5t10.5 -46.5q0 -24 -8 -45t-22.5 -36.5t-34.5 -24.5t-44 -9zM309 681q-19 0 -32 -12.5t-13 -33.5q0 -18 10.5 -29t29.5 -11q17 0 30 13t13 34q0 17 -10 28t-28 11zM439 118
q-3 -29 4.5 -41t30.5 -12l-7 -64q-5 -2 -16.5 -3t-22.5 -1q-37 0 -56 19.5t-17 52.5v4q-23 -38 -60 -61.5t-93 -23.5q-81 0 -123.5 58.5t-42.5 154.5q0 63 16 117t45.5 93t71.5 61t94 22q46 0 78.5 -18t51.5 -51l6 57h78zM373 318q-2 19 -9 37.5t-19.5 33t-31.5 23.5t-44 9
q-33 0 -59.5 -15.5t-45 -44t-28.5 -67.5t-10 -87q0 -67 25.5 -106.5t79.5 -39.5q44 0 76.5 28t49.5 75z" />
    <glyph glyph-name="AEacute" unicode="&#x1fc;" horiz-adv-x="786" 
d="M531 876h115l-122 -134h-87zM306 700h489l-9 -75h-378l58 -239h236l-9 -75h-207l57 -236h186l-8 -75h-250l-47 195h-267l-86 -195h-87zM405 269l-73 317l-139 -317h212z" />
    <glyph glyph-name="aeacute" unicode="&#x1fd;" horiz-adv-x="757" 
d="M435 552h-78l98 174h107zM417 235q-1 -8 -1 -15v-14q0 -71 29 -107.5t84 -36.5q42 0 70.5 17t51.5 47l49 -43q-27 -42 -74.5 -68.5t-108.5 -26.5q-66 0 -108.5 29t-62.5 83q-41 -61 -89.5 -86.5t-104.5 -25.5q-64 0 -99.5 30t-35.5 85q0 72 49.5 110.5t148.5 38.5h113
l7 66q5 49 -16.5 75.5t-69.5 26.5q-101 0 -101 -89q0 -9 1.5 -17.5t3.5 -13.5h-79q-7 12 -7 40q0 70 52.5 112t141.5 42q55 0 90.5 -20t54.5 -55q29 35 68.5 55t87.5 20q81 0 122 -48t41 -135q0 -35 -2.5 -50t-4.5 -26h-301zM550 421q-28 0 -49.5 -9.5t-36.5 -26
t-24.5 -38.5t-14.5 -46h214q5 51 -15.5 85.5t-73.5 34.5zM174 57q47 0 85 30.5t61 81.5l2 21l-119 -1q-48 0 -71.5 -20t-23.5 -53q0 -29 18 -44t48 -15z" />
    <glyph glyph-name="Oslashacute" unicode="&#x1fe;" horiz-adv-x="683" 
d="M392 742h-87l94 134h115zM591 616q29 -36 46 -88t17 -122q0 -111 -26.5 -189t-71.5 -127.5t-105 -72.5t-128 -23q-45 0 -85 10.5t-74 33.5l-40 -54h-87l75 101q-28 35 -44 86t-16 119q0 111 26.5 190t71.5 129t105.5 73.5t128.5 23.5q43 0 82.5 -10.5t73.5 -32.5l39 53
h86zM145 295q0 -42 6.5 -74t18.5 -57l319 430q-24 20 -53 28.5t-60 8.5q-48 0 -90 -19t-73.5 -59.5t-49.5 -104t-18 -153.5zM561 402q0 44 -7 77t-20 59l-320 -432q25 -20 55 -28.5t62 -8.5q48 0 90 18.5t73 58.5t49 103t18 153z" />
    <glyph glyph-name="oslashacute" unicode="&#x1ff;" horiz-adv-x="503" 
d="M292 552h-78l98 174h107zM424 426q43 -57 43 -148q0 -67 -17.5 -120.5t-48.5 -91t-74 -58t-94 -20.5q-64 0 -108 27l-26 -36h-77l57 78q-42 54 -42 147q0 68 17 121.5t48.5 91t75 57.5t95.5 20q63 0 106 -27l26 35h75zM127 208q0 -43 10 -72l194 265q-28 20 -66 20
q-60 0 -99 -54.5t-39 -158.5zM377 274q0 21 -2.5 39t-7.5 34l-194 -266q26 -20 66 -20q62 0 100 55t38 158z" />
    <glyph glyph-name="uni0218" unicode="&#x218;" horiz-adv-x="556" 
d="M266 -6q-96 0 -156 28.5t-96 89.5l70 52q28 -48 72.5 -71.5t118.5 -23.5q69 0 109.5 31t40.5 91q0 26 -8 45t-26 34.5t-48 27.5t-75 22q-43 10 -78 24.5t-59.5 36t-38 51t-13.5 70.5q0 96 65 150t179 54q41 0 79 -8.5t67 -27.5t46.5 -49t17.5 -73q0 -22 -3 -32.5
t-7 -20.5l-83 1q7 21 7 38q0 51 -35.5 74t-98.5 23q-74 0 -110 -30.5t-36 -84.5q0 -26 8 -43t26 -29.5t48.5 -22.5t75.5 -22q53 -14 89.5 -31.5t58.5 -41.5t31.5 -54.5t9.5 -70.5q0 -49 -17.5 -88t-50 -65t-78.5 -40t-102 -14zM180 -202q21 7 35.5 20t16.5 27q-47 12 -47 55
q0 29 18 45.5t44 16.5t42.5 -17.5t16.5 -49.5q0 -21 -8 -43t-22.5 -41t-33.5 -33.5t-41 -20.5z" />
    <glyph glyph-name="uni0219" unicode="&#x219;" horiz-adv-x="450" 
d="M197 -12q-65 0 -114 22.5t-75 70.5l64 52q26 -43 61 -57.5t71 -14.5q59 0 86 16t27 51q0 17 -9 29t-25 21t-36 15t-43 11q-26 6 -52 15.5t-47 25.5t-34 40t-13 58q0 72 50 111.5t141 39.5q77 0 122.5 -32.5t45.5 -92.5q0 -17 -4 -32t-9 -27h-78q4 8 6.5 21.5t2.5 23.5
q0 35 -25 50.5t-68 15.5q-52 0 -75 -18.5t-23 -47.5q0 -19 7 -31.5t21.5 -20.5t36 -14t51.5 -13q26 -6 51.5 -15t46 -24.5t33 -38t12.5 -55.5q0 -78 -56 -116.5t-150 -38.5zM132 -202q21 7 35.5 20t16.5 27q-47 12 -47 55q0 29 18 45.5t44 16.5t42.5 -17.5t16.5 -49.5
q0 -21 -8 -43t-22.5 -41t-33.5 -33.5t-41 -20.5z" />
    <glyph glyph-name="uni021A" unicode="&#x21a;" horiz-adv-x="520" 
d="M256 618h-201l9 82h490l-9 -82h-201l-65 -618h-88zM161 -202q21 7 35.5 20t16.5 27q-47 12 -47 55q0 29 18 45.5t44 16.5t42.5 -17.5t16.5 -49.5q0 -21 -8 -43t-22.5 -41t-33.5 -33.5t-41 -20.5z" />
    <glyph glyph-name="uni021B" unicode="&#x21b;" horiz-adv-x="390" 
d="M237 -6q-84 0 -118 45t-24 141l24 226h-86l8 76h90l13 140h85l-14 -140h173l-8 -76h-174l-23 -223q-6 -56 12.5 -82t60.5 -26q22 0 41 8t33 18l37 -62q-23 -19 -59 -32t-71 -13zM142 -202q21 7 35.5 20t16.5 27q-47 12 -47 55q0 29 18 45.5t44 16.5t42.5 -17.5
t16.5 -49.5q0 -21 -8 -43t-22.5 -41t-33.5 -33.5t-41 -20.5z" />
    <glyph glyph-name="uni0232" unicode="&#x232;" horiz-adv-x="572" 
d="M224 842h257l-7 -73h-257zM249 291l-185 409h102l136 -324l204 324h102l-272 -409l-31 -291h-87z" />
    <glyph glyph-name="uni0233" unicode="&#x233;" horiz-adv-x="508" 
d="M177 671h247l-8 -71h-247zM186 -247q-75 0 -117.5 25t-57.5 67l64 45q15 -31 43.5 -47t75.5 -16q58 0 93.5 34t41.5 94l14 130q-25 -44 -66.5 -67.5t-95.5 -23.5q-145 0 -127 173l33 315h88l-32 -304q-12 -110 76 -110q22 0 44.5 11t40.5 29.5t30.5 42t15.5 48.5l30 283
h88l-55 -527q-10 -93 -70.5 -147.5t-156.5 -54.5z" />
    <glyph glyph-name="uni0237" unicode="&#x237;" horiz-adv-x="225" 
d="M-52 -247q-23 0 -39 4.5t-26 9.5q-12 6 -20 14l33 61q6 -4 13 -8q7 -3 16.5 -5t21.5 -2q81 0 93 114l57 541h86l-57 -545q-9 -86 -51.5 -135t-126.5 -49z" />
    <glyph glyph-name="uni0259" unicode="&#x259;" horiz-adv-x="463" 
d="M250 494q83 0 130.5 -51t47.5 -155q0 -67 -16.5 -122t-46.5 -94.5t-72.5 -61.5t-94.5 -22q-84 0 -127.5 49.5t-43.5 135.5q0 34 3 49l6 30h301q1 8 1 16.5v17.5q0 73 -26 103.5t-72 30.5q-39 0 -64.5 -16.5t-46.5 -45.5l-60 38q26 42 72 70t109 28zM205 61q99 0 124 125
h-214q-6 -55 15 -90t75 -35z" />
    <glyph glyph-name="uni0272" unicode="&#x272;" horiz-adv-x="527" 
d="M446 113q-3 -26 5 -37t29 -11l-7 -64q-5 -2 -16 -3t-23 -1q-45 0 -64 27.5t-14 72.5l22 207q6 60 -16.5 87.5t-68.5 27.5q-51 0 -86 -38t-41 -100l-29 -281l-4 -37q-11 -91 -59 -134.5t-126 -43.5q-38 0 -66.5 10t-42.5 30l59 70q9 -11 25 -18.5t36 -7.5q35 0 56 21
t29 69l5 41l39 373q3 26 -5 37t-29 11l7 64q5 2 16 3t23 1q38 0 54 -21.5t16 -59.5v-3q48 89 152 89q77 0 115.5 -49t28.5 -140z" />
    <glyph glyph-name="circumflex" unicode="&#x2c6;" horiz-adv-x="342" 
d="M174 726h93l66 -174h-78l-42 108l-65 -108h-77z" />
    <glyph glyph-name="caron" unicode="&#x2c7;" horiz-adv-x="328" 
d="M82 726h78l43 -108l64 108h77l-103 -174h-92z" />
    <glyph glyph-name="breve" unicode="&#x2d8;" horiz-adv-x="317" 
d="M193 566q-34 0 -56 10.5t-34.5 29t-16 43.5t-0.5 53h68q-7 -67 46 -67q54 0 61 67h68q-3 -28 -12.5 -53t-26 -43.5t-40.5 -29t-57 -10.5z" />
    <glyph glyph-name="dotaccent" unicode="&#x2d9;" horiz-adv-x="180" 
d="M117 579q-27 0 -41 16t-14 39q0 26 16.5 45.5t48.5 19.5q26 0 40 -16.5t14 -38.5q0 -26 -16.5 -45.5t-47.5 -19.5z" />
    <glyph glyph-name="ring" unicode="&#x2da;" horiz-adv-x="255" 
d="M161 533q-44 0 -70.5 27t-26.5 68q0 49 31 82.5t80 33.5q43 0 69 -27t26 -69q0 -24 -8 -45t-22.5 -36.5t-34.5 -24.5t-44 -9zM166 595q17 0 30 13t13 34q0 17 -10 28t-28 11q-19 0 -32 -12.5t-13 -33.5q0 -18 10.5 -29t29.5 -11z" />
    <glyph glyph-name="ogonek" unicode="&#x2db;" horiz-adv-x="254" 
d="M83 -181q-42 0 -63.5 19.5t-21.5 55.5q0 45 35.5 85.5t91.5 60.5l22 -39q-30 -10 -50.5 -34.5t-20.5 -53.5q0 -32 29 -32q10 0 18 3.5t13 7.5l23 -46q-13 -13 -33 -20t-43 -7z" />
    <glyph glyph-name="tilde" unicode="&#x2dc;" horiz-adv-x="393" 
d="M98 572q-6 17 -6 39q0 33 21 56.5t64 23.5q21 0 37.5 -6t31 -13t27 -13t24.5 -6q26 0 26 27q0 10 -4 18h66q6 -15 6 -36q0 -34 -21 -58.5t-65 -24.5q-23 0 -40.5 6t-31.5 13t-25 13t-21 6q-27 0 -27 -27q0 -10 4 -18h-66z" />
    <glyph glyph-name="hungarumlaut" unicode="&#x2dd;" horiz-adv-x="395" 
d="M162 726h103l-117 -174h-74zM307 726h103l-117 -174h-73z" />
    <glyph glyph-name="gravecomb" unicode="&#x300;" 
d="M-175 726h104l63 -174h-76z" />
    <glyph glyph-name="acutecomb" unicode="&#x301;" 
d="M-94 726h107l-127 -174h-78z" />
    <glyph glyph-name="uni0302" unicode="&#x302;" 
d="M-167 726h93l66 -174h-78l-42 108l-65 -108h-77z" />
    <glyph glyph-name="tildecomb" unicode="&#x303;" 
d="M-294 572q-6 17 -6 39q0 33 21 56.5t64 23.5q21 0 37.5 -6t30.5 -13t27 -13t25 -6q26 0 26 27q0 10 -4 18h66q6 -15 6 -36q0 -34 -21 -58.5t-65 -24.5q-23 0 -40.5 6t-31.5 13t-25 13t-21 6q-27 0 -27 -27q0 -10 4 -18h-66z" />
    <glyph glyph-name="uni0304" unicode="&#x304;" 
d="M-264 671h247l-8 -71h-247z" />
    <glyph glyph-name="uni0306" unicode="&#x306;" 
d="M-124 566q-34 0 -56 10.5t-34.5 29t-16 43.5t-0.5 53h68q-7 -67 46 -67q54 0 61 67h68q-3 -28 -12.5 -53t-26 -43.5t-40.5 -29t-57 -10.5z" />
    <glyph glyph-name="uni0307" unicode="&#x307;" 
d="M-42 579q-27 0 -41 16t-14 39q0 26 16.5 45.5t48.5 19.5q26 0 40 -16.5t14 -38.5q0 -26 -16.5 -45.5t-47.5 -19.5z" />
    <glyph glyph-name="uni0308" unicode="&#x308;" 
d="M-226 575q-27 0 -40.5 15.5t-13.5 38.5q0 25 16 44t48 19q26 0 39 -16t13 -38q0 -26 -16 -44.5t-46 -18.5zM-49 575q-27 0 -40.5 15.5t-13.5 38.5q0 25 16 44t48 19q26 0 39 -16t13 -38q0 -26 -16 -44.5t-46 -18.5z" />
    <glyph glyph-name="uni030A" unicode="&#x30a;" 
d="M-94 533q-44 0 -70.5 27t-26.5 68q0 49 31 82.5t80 33.5q43 0 69 -27t26 -69q0 -24 -8 -45t-22.5 -36.5t-34.5 -24.5t-44 -9zM-89 595q17 0 30 13t13 34q0 17 -10 28t-28 11q-19 0 -32 -12.5t-13 -33.5q0 -18 10.5 -29t29.5 -11z" />
    <glyph glyph-name="uni030B" unicode="&#x30b;" 
d="M-234 726h103l-117 -174h-74zM-89 726h103l-117 -174h-73z" />
    <glyph glyph-name="uni030C" unicode="&#x30c;" 
d="M-244 726h78l43 -108l64 108h77l-103 -174h-92z" />
    <glyph glyph-name="uni0312" unicode="&#x312;" 
d="M-45 540q-26 0 -40.5 16.5t-14.5 42.5q0 23 8 45t21.5 41t32 34t40.5 22l21 -41q-23 -8 -38.5 -19.5t-17.5 -23.5q22 0 36.5 -15.5t14.5 -37.5q0 -26 -18.5 -45t-44.5 -19z" />
    <glyph glyph-name="dotbelowcomb" unicode="&#x323;" 
d="M-123 -181q-27 0 -41 16t-14 39q0 26 16.5 45.5t48.5 19.5q26 0 40 -16.5t14 -38.5q0 -26 -16.5 -45.5t-47.5 -19.5z" />
    <glyph glyph-name="uni0326" unicode="&#x326;" 
d="M-196 -202q21 7 35.5 20t16.5 27q-47 12 -47 55q0 29 18 45.5t44 16.5t42.5 -17.5t16.5 -49.5q0 -21 -8.5 -43t-22.5 -41t-33 -33.5t-41 -20.5z" />
    <glyph glyph-name="uni0327" unicode="&#x327;" 
d="M-170 -203q-32 0 -55.5 8.5t-41.5 25.5l39 48q22 -21 51 -21q17 0 26.5 6.5t9.5 21.5q0 16 -18 25t-47 11l37 82h58l-15 -38q25 -8 46 -27t21 -57q0 -23 -9.5 -39t-25 -26.5t-35.5 -15t-41 -4.5z" />
    <glyph glyph-name="uni0328" unicode="&#x328;" 
d="M-172 -181q-42 0 -63.5 19.5t-21.5 55.5q0 45 35.5 85.5t91.5 60.5l22 -39q-30 -10 -50.5 -34.5t-20.5 -53.5q0 -32 29 -32q10 0 18 3.5t13 7.5l23 -46q-13 -13 -33 -20t-43 -7z" />
    <glyph glyph-name="uni0335" unicode="&#x335;" 
d="M-272 397h274l-8 -77h-274z" />
    <glyph glyph-name="uni0336" unicode="&#x336;" 
d="M-611 581h616l-7 -68h-616z" />
    <glyph glyph-name="uni0337" unicode="&#x337;" 
d="M-290 341l269 151l27 -57l-270 -152z" />
    <glyph glyph-name="uni0338" unicode="&#x338;" 
d="M-57 503h75l-381 -523h-77z" />
    <glyph glyph-name="Wgrave" unicode="&#x1e80;" horiz-adv-x="891" 
d="M370 876h114l66 -134h-85zM65 700h101l68 -596l221 596h84l94 -596l196 596h95l-254 -700h-98l-88 568l-214 -568h-98z" />
    <glyph glyph-name="wgrave" unicode="&#x1e81;" horiz-adv-x="710" 
d="M348 552l-91 174h104l63 -174h-76zM721 482l-199 -482h-95l-49 318l-5 50l-17 -50l-123 -318h-96l-95 482h90l48 -307l13 -88l31 88l118 307h88l46 -306l11 -89l32 89l116 306h86z" />
    <glyph glyph-name="Wacute" unicode="&#x1e82;" horiz-adv-x="891" 
d="M538 876h115l-122 -134h-87zM65 700h101l68 -596l221 596h84l94 -596l196 596h95l-254 -700h-98l-88 568l-214 -568h-98z" />
    <glyph glyph-name="wacute" unicode="&#x1e83;" horiz-adv-x="710" 
d="M414 552h-78l98 174h107zM721 482l-199 -482h-95l-49 318l-5 50l-17 -50l-123 -318h-96l-95 482h90l48 -307l13 -88l31 88l118 307h88l46 -306l11 -89l32 89l116 306h86z" />
    <glyph glyph-name="Wdieresis" unicode="&#x1e84;" horiz-adv-x="891" 
d="M401 748q-26 0 -40.5 16t-14.5 39q0 29 16.5 48t45.5 19q25 0 40 -15.5t15 -40.5q0 -29 -16.5 -47.5t-45.5 -18.5zM607 748q-25 0 -41 14t-16 42t18 47t46 19q26 0 40 -15.5t14 -39.5q0 -30 -16 -48.5t-45 -18.5zM65 700h101l68 -596l221 596h84l94 -596l196 596h95
l-254 -700h-98l-88 568l-214 -568h-98z" />
    <glyph glyph-name="wdieresis" unicode="&#x1e85;" horiz-adv-x="710" 
d="M306 580q-27 0 -40.5 15.5t-13.5 38.5q0 25 16 44t48 19q26 0 39 -16t13 -38q0 -26 -16 -44.5t-46 -18.5zM483 580q-27 0 -40.5 15.5t-13.5 38.5q0 25 16 44t48 19q26 0 39 -16t13 -38q0 -26 -16 -44.5t-46 -18.5zM721 482l-199 -482h-95l-49 318l-5 50l-17 -50
l-123 -318h-96l-95 482h90l48 -307l13 -88l31 88l118 307h88l46 -306l11 -89l32 89l116 306h86z" />
    <glyph glyph-name="uni1E9E" unicode="&#x1e9e;" horiz-adv-x="611" 
d="M388 396q52 -10 87.5 -30t57 -45.5t31 -55.5t9.5 -62q0 -98 -60 -153.5t-166 -55.5q-63 0 -109 20t-68 55l60 57q23 -30 53.5 -43.5t72.5 -13.5q64 0 97 32.5t33 89.5q0 29 -10.5 52t-34 41t-61.5 30t-94 18l8 73l199 195q-27 14 -61.5 21.5t-80.5 7.5q-32 0 -60.5 -9.5
t-50.5 -28t-36.5 -45t-17.5 -61.5l-51 -485h-85l53 486q5 48 26 88.5t55 70t78 46t96 16.5q75 0 126.5 -17t90.5 -45l-8 -76z" />
    <glyph glyph-name="uni1EA0" unicode="&#x1ea0;" horiz-adv-x="604" 
d="M479 0l-45 195h-272l-88 -195h-89l322 700h89l173 -700h-90zM417 269l-75 325l-146 -325h221zM276 -61q26 0 40 -16.5t14 -38.5q0 -26 -16.5 -45.5t-47.5 -19.5q-27 0 -41 16t-14 39q0 26 16.5 45.5t48.5 19.5z" />
    <glyph glyph-name="uni1EA1" unicode="&#x1ea1;" horiz-adv-x="527" 
d="M202 -12q-81 0 -123.5 58.5t-42.5 154.5q0 63 16 117t45.5 93t71.5 61t94 22q46 0 78.5 -18t51.5 -51l6 57h78l-38 -364q-3 -29 4.5 -41t30.5 -12l-7 -64q-5 -2 -16.5 -3t-22.5 -1q-37 0 -56 19.5t-17 52.5v4q-23 -38 -60 -61.5t-93 -23.5zM231 61q44 0 76.5 28t49.5 75
l16 154q-2 19 -9 37.5t-19.5 33t-31.5 23.5t-44 9q-33 0 -59.5 -15.5t-45 -44t-28.5 -67.5t-10 -87q0 -67 25.5 -106.5t79.5 -39.5zM226 -181q-27 0 -41 16t-14 39q0 26 16.5 45.5t48.5 19.5q26 0 40 -16.5t14 -38.5q0 -26 -16.5 -45.5t-47.5 -19.5z" />
    <glyph glyph-name="uni1EB8" unicode="&#x1eb8;" horiz-adv-x="550" 
d="M132 700h425l-9 -82h-337l-23 -221h285l-9 -82h-285l-24 -233h337l-9 -82h-425zM273 -181q-27 0 -41 16t-14 39q0 26 16.5 45.5t48.5 19.5q26 0 40 -16.5t14 -38.5q0 -26 -16.5 -45.5t-47.5 -19.5z" />
    <glyph glyph-name="uni1EB9" unicode="&#x1eb9;" horiz-adv-x="456" 
d="M230 62q43 0 71.5 15t57.5 51l51 -45q-38 -52 -87.5 -73.5t-106.5 -21.5q-86 0 -134 54t-48 152q0 66 18.5 121t51.5 94.5t78.5 62t100.5 22.5q68 0 106 -34.5t38 -93.5q0 -60 -29 -95.5t-73.5 -54t-97.5 -25t-102 -9.5q5 -61 32.5 -90.5t72.5 -29.5zM273 421
q-55 0 -95.5 -46t-50.5 -125q31 1 68 4t69.5 14t54 32.5t21.5 57.5q0 31 -16 47t-51 16zM204 -61q26 0 40 -16.5t14 -38.5q0 -26 -16.5 -45.5t-47.5 -19.5q-27 0 -41 16t-14 39q0 26 16.5 45.5t48.5 19.5z" />
    <glyph glyph-name="uni1EBC" unicode="&#x1ebc;" horiz-adv-x="550" 
d="M219 746q-6 17 -6 39q0 33 23 57t62 24q21 0 38 -6t31.5 -13.5t27 -13.5t25.5 -6q25 0 25 29q0 10 -3 16h66q5 -17 5 -38q0 -33 -22 -57.5t-70 -24.5q-21 0 -38 6t-30.5 13.5t-25 13.5t-23.5 6q-9 0 -16 -6.5t-7 -20.5q0 -10 4 -18h-66zM132 700h425l-9 -82h-337
l-23 -221h285l-9 -82h-285l-24 -233h337l-9 -82h-425z" />
    <glyph glyph-name="uni1EBD" unicode="&#x1ebd;" horiz-adv-x="456" 
d="M136 572q-6 17 -6 39q0 33 21 56.5t64 23.5q21 0 37.5 -6t31 -13t27 -13t24.5 -6q26 0 26 27q0 10 -4 18h66q6 -15 6 -36q0 -34 -21 -58.5t-65 -24.5q-23 0 -40.5 6t-31.5 13t-25 13t-21 6q-27 0 -27 -27q0 -10 4 -18h-66zM427 366q0 -60 -29 -95.5t-73.5 -54t-97.5 -25
t-102 -9.5q5 -61 32.5 -90.5t72.5 -29.5q43 0 71.5 15t57.5 51l51 -45q-38 -52 -87.5 -73.5t-106.5 -21.5q-86 0 -134 54t-48 152q0 66 18.5 121t51.5 94.5t78.5 62t100.5 22.5q68 0 106 -34.5t38 -93.5zM127 250q31 1 68 4t69.5 14t54 32.5t21.5 57.5q0 31 -16 47t-51 16
q-55 0 -95.5 -46t-50.5 -125z" />
    <glyph glyph-name="uni1ECA" unicode="&#x1eca;" horiz-adv-x="254" 
d="M132 700h88l-74 -700h-88zM90 -181q-27 0 -41 16t-14 39q0 26 16.5 45.5t48.5 19.5q26 0 40 -16.5t14 -38.5q0 -26 -16.5 -45.5t-47.5 -19.5z" />
    <glyph glyph-name="uni1ECB" unicode="&#x1ecb;" horiz-adv-x="229" 
d="M149 579q-27 0 -41 16t-14 39q0 26 16.5 45.5t48.5 19.5q26 0 40 -16.5t14 -38.5q0 -26 -16.5 -45.5t-47.5 -19.5zM130 -3q-46 0 -65 27.5t-14 72.5l40 385h89l-39 -369q-3 -26 5 -37t30 -11l-7 -64q-5 -2 -16 -3t-23 -1zM80 -181q-27 0 -41 16t-14 39q0 26 16.5 45.5
t48.5 19.5q26 0 40 -16.5t14 -38.5q0 -26 -16.5 -45.5t-47.5 -19.5z" />
    <glyph glyph-name="uni1ECC" unicode="&#x1ecc;" horiz-adv-x="683" 
d="M323 -6q-54 0 -103.5 16.5t-86.5 52t-59 91.5t-22 136q0 111 26.5 190t71.5 129t105.5 73.5t128.5 23.5q54 0 102.5 -17t86 -53t59.5 -93t22 -137q0 -111 -26.5 -189t-71.5 -127.5t-105 -72.5t-128 -23zM331 69q48 0 90 18.5t73 58.5t49 103t18 153q0 65 -15.5 108.5
t-41.5 70.5t-59.5 38.5t-68.5 11.5q-48 0 -90 -19t-73.5 -59.5t-49.5 -104t-18 -153.5q0 -64 15.5 -107.5t41 -69.5t59.5 -37.5t70 -11.5zM304 -181q-27 0 -41 16t-14 39q0 26 16.5 45.5t48.5 19.5q26 0 40 -16.5t14 -38.5q0 -26 -16.5 -45.5t-47.5 -19.5z" />
    <glyph glyph-name="uni1ECD" unicode="&#x1ecd;" horiz-adv-x="503" 
d="M233 -12q-94 0 -145 57t-51 159q0 68 17 121.5t48.5 91t75 57.5t95.5 20q91 0 142.5 -57t51.5 -159q0 -67 -17.5 -120.5t-48.5 -91t-74 -58t-94 -20.5zM239 61q62 0 100 55t38 158q0 72 -29 109.5t-83 37.5q-60 0 -99 -54.5t-39 -158.5q0 -72 28.5 -109.5t83.5 -37.5z
M215 -181q-27 0 -41 16t-14 39q0 26 16.5 45.5t48.5 19.5q26 0 40 -16.5t14 -38.5q0 -26 -16.5 -45.5t-47.5 -19.5z" />
    <glyph glyph-name="uni1EE4" unicode="&#x1ee4;" horiz-adv-x="644" 
d="M300 -6q-52 0 -96.5 14.5t-74.5 48.5t-44 90t-5 140l43 413h89l-44 -419q-11 -109 25 -159.5t114 -50.5q77 0 123 47.5t58 162.5l44 419h85l-43 -413q-9 -87 -33.5 -143.5t-60.5 -90t-82 -46.5t-98 -13zM286 -181q-27 0 -41 16t-14 39q0 26 16.5 45.5t48.5 19.5
q26 0 40 -16.5t14 -38.5q0 -26 -16.5 -45.5t-47.5 -19.5z" />
    <glyph glyph-name="uni1EE5" unicode="&#x1ee5;" horiz-adv-x="518" 
d="M193 -12q-75 0 -112 45t-28 130l34 319h87l-32 -308q-7 -63 17 -87.5t69 -24.5q29 0 50.5 12t37 30.5t24.5 40.5t11 43l31 294h88l-39 -368q-2 -23 4.5 -36t29.5 -13l-7 -64q-1 0 -11 -2t-29 -2q-37 0 -55.5 20t-13.5 58l1 6q-10 -18 -23.5 -34.5t-32.5 -29.5t-43.5 -21
t-57.5 -8zM222 -181q-27 0 -41 16t-14 39q0 26 16.5 45.5t48.5 19.5q26 0 40 -16.5t14 -38.5q0 -26 -16.5 -45.5t-47.5 -19.5z" />
    <glyph glyph-name="Ygrave" unicode="&#x1ef2;" horiz-adv-x="572" 
d="M212 876h114l66 -134h-85zM249 291l-185 409h102l136 -324l204 324h102l-272 -409l-31 -291h-87z" />
    <glyph glyph-name="ygrave" unicode="&#x1ef3;" horiz-adv-x="508" 
d="M154 726h104l63 -174h-76zM186 -247q-75 0 -117.5 25t-57.5 67l64 45q15 -31 43.5 -47t75.5 -16q58 0 93.5 34t41.5 94l14 130q-25 -44 -66.5 -67.5t-95.5 -23.5q-145 0 -127 173l33 315h88l-32 -304q-12 -110 76 -110q22 0 44.5 11t40.5 29.5t30.5 42t15.5 48.5l30 283
h88l-55 -527q-10 -93 -70.5 -147.5t-156.5 -54.5z" />
    <glyph glyph-name="uni1EF8" unicode="&#x1ef8;" horiz-adv-x="572" 
d="M199 746q-6 17 -6 39q0 33 23 57t62 24q21 0 38 -6t31.5 -13.5t27 -13.5t25.5 -6q25 0 25 29q0 10 -3 16h66q5 -17 5 -38q0 -33 -22 -57.5t-70 -24.5q-21 0 -38 6t-30.5 13.5t-25 13.5t-23.5 6q-9 0 -16 -6.5t-7 -20.5q0 -10 4 -18h-66zM249 291l-185 409h102l136 -324
l204 324h102l-272 -409l-31 -291h-87z" />
    <glyph glyph-name="uni1EF9" unicode="&#x1ef9;" horiz-adv-x="508" 
d="M149 572q-6 17 -6 39q0 33 21 56.5t64 23.5q21 0 37.5 -6t31 -13t27 -13t24.5 -6q26 0 26 27q0 10 -4 18h66q6 -15 6 -36q0 -34 -21 -58.5t-65 -24.5q-23 0 -40.5 6t-31.5 13t-25 13t-21 6q-27 0 -27 -27q0 -10 4 -18h-66zM186 -247q-75 0 -117.5 25t-57.5 67l64 45
q15 -31 43.5 -47t75.5 -16q58 0 93.5 34t41.5 94l14 130q-25 -44 -66.5 -67.5t-95.5 -23.5q-145 0 -127 173l33 315h88l-32 -304q-12 -110 76 -110q22 0 44.5 11t40.5 29.5t30.5 42t15.5 48.5l30 283h88l-55 -527q-10 -93 -70.5 -147.5t-156.5 -54.5z" />
    <glyph glyph-name="endash" unicode="&#x2013;" horiz-adv-x="515" 
d="M63 306h403l-7 -69h-403z" />
    <glyph glyph-name="emdash" unicode="&#x2014;" horiz-adv-x="844" 
d="M63 306h732l-7 -69h-732z" />
    <glyph glyph-name="quoteleft" unicode="&#x2018;" horiz-adv-x="204" 
d="M203 671q-23 -9 -39 -25.5t-18 -32.5q23 0 37 -14.5t14 -36.5q0 -28 -18.5 -47t-44.5 -19t-41 17t-15 44q0 26 7.5 50.5t21.5 45.5t33 36.5t41 22.5z" />
    <glyph glyph-name="quoteright" unicode="&#x2019;" horiz-adv-x="196" 
d="M74 531q23 9 39 25.5t18 32.5q-23 0 -37 14.5t-14 36.5q0 28 18.5 47t44.5 19t41 -17t15 -44q0 -25 -7.5 -50t-21.5 -46t-32.5 -36.5t-41.5 -22.5z" />
    <glyph glyph-name="quotesinglbase" unicode="&#x201a;" horiz-adv-x="217" 
d="M30 -64q23 9 39 25.5t18 32.5q-23 0 -37 14.5t-14 36.5q0 28 18.5 47t44.5 19t41 -17t15 -44q0 -25 -7.5 -50t-21.5 -46t-32.5 -36.5t-41.5 -22.5z" />
    <glyph glyph-name="quotedblleft" unicode="&#x201c;" horiz-adv-x="361" 
d="M196 671q-23 -9 -39 -25.5t-18 -32.5q23 0 37 -14.5t14 -36.5q0 -28 -18.5 -47t-44.5 -19t-41 17t-15 44q0 26 7.5 50.5t21.5 45.5t33 36.5t41 22.5zM353 671q-23 -9 -39 -25.5t-18 -32.5q23 0 37 -14.5t14 -36.5q0 -28 -18.5 -47t-44.5 -19t-41 17t-15 44q0 26 7.5 50.5
t21.5 45.5t33 36.5t41 22.5z" />
    <glyph glyph-name="quotedblright" unicode="&#x201d;" horiz-adv-x="359" 
d="M74 531q23 9 39 25.5t18 32.5q-23 0 -37 14.5t-14 36.5q0 28 18.5 47t44.5 19t41 -17t15 -44q0 -25 -7.5 -50t-21.5 -46t-32.5 -36.5t-41.5 -22.5zM231 531q23 9 39 25.5t18 32.5q-23 0 -37 14.5t-14 36.5q0 28 18.5 47t44.5 19t41 -17t15 -44q0 -25 -7.5 -50t-21.5 -46
t-32.5 -36.5t-41.5 -22.5z" />
    <glyph glyph-name="quotedblbase" unicode="&#x201e;" horiz-adv-x="374" 
d="M40 -64q23 9 39 25.5t18 32.5q-23 0 -37 14.5t-14 36.5q0 28 18.5 47t44.5 19t41 -17t15 -44q0 -25 -7.5 -50t-21.5 -46t-32.5 -36.5t-41.5 -22.5zM197 -64q23 9 39 25.5t18 32.5q-23 0 -37 14.5t-14 36.5q0 28 18.5 47t44.5 19t41 -17t15 -44q0 -25 -7.5 -50t-21.5 -46
t-32.5 -36.5t-41.5 -22.5z" />
    <glyph glyph-name="dagger" unicode="&#x2020;" horiz-adv-x="384" 
d="M176 488h-111l7 65h111l17 164h83l-17 -164h112l-7 -65h-112l-51 -387h-61z" />
    <glyph glyph-name="daggerdbl" unicode="&#x2021;" horiz-adv-x="384" 
d="M161 288h-112l7 66h110l10 134h-111l7 65h111l17 164h83l-17 -164h112l-7 -65h-112l-17 -134h110l-7 -66h-113l-24 -187h-61z" />
    <glyph glyph-name="bullet" unicode="&#x2022;" horiz-adv-x="332" 
d="M166 187q-44 0 -69.5 26t-25.5 70q0 46 30 77.5t78 31.5q42 0 67.5 -26.5t25.5 -69.5q0 -48 -29.5 -78.5t-76.5 -30.5z" />
    <glyph glyph-name="ellipsis" unicode="&#x2026;" horiz-adv-x="516" 
d="M72 -6q-23 0 -36 13t-13 35q0 23 14.5 39t40.5 16q21 0 34.5 -13t13.5 -35q0 -23 -14 -39t-40 -16zM235 -6q-23 0 -36 13t-13 35q0 23 14.5 39t40.5 16q21 0 34.5 -13t13.5 -35q0 -23 -14 -39t-40 -16zM399 -6q-23 0 -36 13t-13 35q0 23 14.5 39t40.5 16q21 0 34.5 -13
t13.5 -35q0 -23 -14 -39t-40 -16z" />
    <glyph glyph-name="perthousand" unicode="&#x2030;" horiz-adv-x="873" 
d="M154 421q-48 0 -72.5 31.5t-24.5 89.5q0 78 33 120.5t93 42.5q50 0 75.5 -31.5t25.5 -89.5q0 -79 -34.5 -121t-95.5 -42zM419 700h65l-276 -700h-67zM159 473q33 0 48.5 29.5t15.5 77.5q0 32 -11 51t-35 19q-35 0 -48.5 -29t-13.5 -77q0 -32 10.5 -51.5t33.5 -19.5z
M445 -5q-48 0 -73 31.5t-25 89.5q0 79 33.5 121t93.5 42q49 0 74.5 -31.5t25.5 -89.5q0 -79 -34.5 -121t-94.5 -42zM712 -5q-48 0 -73 31.5t-25 89.5q0 79 33.5 121t93.5 42q50 0 75 -31.5t25 -89.5q0 -79 -34 -121t-95 -42zM450 47q34 0 49 30t15 77q0 32 -11 51t-34 19
q-35 0 -49.5 -28.5t-14.5 -76.5q0 -32 11 -52t34 -20zM717 47q34 0 49 30t15 77q0 32 -11 51t-34 19q-35 0 -49 -30t-14 -76q0 -32 10.5 -51.5t33.5 -19.5z" />
    <glyph glyph-name="guilsinglleft" unicode="&#x2039;" horiz-adv-x="272" 
d="M34 216l8 75l162 141l41 -52l-136 -128l109 -124l-51 -53z" />
    <glyph glyph-name="guilsinglright" unicode="&#x203a;" horiz-adv-x="271" 
d="M29 127l138 129l-111 123l52 53l133 -141l-8 -75l-162 -141z" />
    <glyph glyph-name="fraction" unicode="&#x2044;" horiz-adv-x="84" 
d="M130 726h71l-287 -726h-71z" />
    <glyph glyph-name="Euro" unicode="&#x20ac;" horiz-adv-x="611" 
d="M374 79q47 0 84.5 23.5t62.5 50.5l49 -58q-15 -16 -34.5 -33t-45.5 -31t-57.5 -22.5t-70.5 -8.5q-105 0 -169.5 60t-78.5 177h-82l8 78h71l3 50h-69l9 78h74q31 125 109.5 191t186.5 66q41 0 72.5 -8.5t54.5 -22.5t39.5 -32.5t26.5 -38.5l-77 -50q-14 27 -42.5 50
t-81.5 23q-68 0 -119 -45t-75 -133h234l-9 -78h-239l-3 -50h237l-8 -78h-225q13 -80 55.5 -119t109.5 -39z" />
    <glyph glyph-name="trademark" unicode="&#x2122;" horiz-adv-x="754" 
d="M183 654h-114l6 55h294l-6 -55h-110l-33 -313h-70zM393 709h70l78 -234l128 234h67l-39 -368h-59l26 252l-112 -201h-43l-67 201l-26 -252h-62z" />
    <glyph glyph-name="minus" unicode="&#x2212;" horiz-adv-x="459" 
d="M64 298h343l-8 -69h-342z" />
    <glyph glyph-name="uni2215" unicode="&#x2215;" horiz-adv-x="367" 
d="M342 726h87l-375 -726h-88z" />
    <glyph glyph-name="uni2219" unicode="&#x2219;" horiz-adv-x="292" 
d="M145 227q-19 0 -31 12.5t-12 31.5q0 23 15.5 38t37.5 15q19 0 31 -12.5t12 -31.5q0 -23 -15.5 -38t-37.5 -15z" />
    <glyph glyph-name="approxequal" unicode="&#x2248;" horiz-adv-x="477" 
d="M72 262q-3 5 -4 12q-2 6 -3.5 14t-1.5 19q0 20 6.5 38.5t19.5 33t32 23t44 8.5q27 0 49.5 -8t42.5 -18t39.5 -18t39.5 -8q41 0 41 41q0 8 -1 14.5t-2 11.5l-4 10h62q2 -6 4 -13q1 -6 2 -14t1 -17q0 -41 -24.5 -71.5t-74.5 -30.5q-31 0 -54.5 8t-43 17.5t-36.5 17.5t-34 8
q-23 0 -35.5 -11.5t-12.5 -30.5q0 -8 1.5 -15t3.5 -11q1 -6 4 -10h-61zM53 85q-3 5 -4 12q-2 6 -3.5 14t-1.5 19q0 20 6.5 38.5t19.5 33t32 23t44 8.5q27 0 49.5 -8t42.5 -17.5t39.5 -17.5t40.5 -8q40 0 40 39q0 8 -1 14.5t-2 11.5l-4 10h62q2 -5 4 -12q1 -6 2 -13.5
t1 -16.5q0 -40 -24 -71.5t-74 -31.5q-31 0 -55 8t-43.5 17t-36.5 17t-34 8q-24 0 -36 -11.5t-12 -29.5q0 -8 1.5 -15t3.5 -11q1 -6 4 -10h-61z" />
    <glyph glyph-name="notequal" unicode="&#x2260;" horiz-adv-x="484" 
d="M155 127h-108l6 68h130l52 130h-168l7 69h189l36 88h76l-35 -88h102l-8 -69h-123l-51 -130h161l-7 -68h-181l-32 -78h-77z" />
    <glyph glyph-name="lessequal" unicode="&#x2264;" horiz-adv-x="428" 
d="M54 289l8 74l336 199l-8 -82l-250 -154l217 -153l-8 -82zM12 41h351l-7 -69h-351z" />
    <glyph glyph-name="greaterequal" unicode="&#x2265;" horiz-adv-x="429" 
d="M58 174l248 150l-217 154l9 82l294 -199l-8 -74l-336 -198zM23 39h351l-7 -68h-351z" />
    <glyph glyph-name="uniF8FF" unicode="&#xf8ff;" horiz-adv-x="1493" 
d="M794 522q-26 0 -43.5 17.5t-17.5 43.5t17.5 44t43.5 18t44 -18t18 -44t-18 -43.5t-44 -17.5zM142 270q0 57 1 108t2.5 91.5t3 70t2.5 44.5h100q2 -30 6 -114t4 -200h-119zM646 264q-82 0 -82 66q0 8 0.5 21.5t1.5 27.5t1.5 25t0.5 13h-22v79l119 30l1 -17h178
q3 -17 4.5 -45t3 -61t2 -68t0.5 -65h-118q0 92 3 147h-61l3 -65q4 -4 15 -4q5 0 10 1t8 4v-74q-8 -8 -27 -11.5t-41 -3.5zM370 265q-43 0 -67.5 27.5t-24.5 86.5q0 64 32.5 99.5t101.5 35.5q64 0 94 -30.5t30 -86.5v-127h-83l-8 61q-6 -31 -22.5 -48.5t-52.5 -17.5zM876 270
q0 30 0.5 65t2 68t3 61t4.5 45h80q2 -17 4 -39t2 -37q1 6 4 19.5t12 27t24 24t40 10.5q45 0 60 -26t17 -80l3 -138h-114q0 35 1 56.5t1 36.5t-2.5 22t-12.5 7q-12 0 -15 -8t-3 -21q0 -15 1.5 -36.5t1.5 -56.5h-114zM1270 265q-64 0 -93 33.5t-29 90.5q0 24 5.5 46.5t19.5 40
t38 28t61 10.5q36 0 59.5 -10.5t37 -27.5t19 -39t5.5 -46q0 -60 -29.5 -93t-93.5 -33zM408 345q24 0 24 30q0 26 -24 26q-22 0 -22 -26q0 -30 22 -30zM1270 345q23 0 23 30q0 26 -23 26q-21 0 -21 -26q0 -30 21 -30zM432 -50q-45 0 -63.5 6.5t-24.5 10.5v83q5 -3 21.5 -9.5
t48.5 -6.5q17 0 27.5 3.5t16.5 8t8 9.5t2 7q-5 -3 -15.5 -7t-33.5 -4q-90 0 -90 83v13h-55l3 -65q2 -2 5.5 -3t9.5 -1q8 0 12 1.5t6 3.5v-73q-4 -3 -17 -9t-51 -6q-46 0 -63.5 17.5t-17.5 53.5q0 6 0.5 17t1 23.5t1 24t0.5 16.5h-18v80l117 29l-1 -18h177v-119
q0 -16 3 -21.5t12 -5.5t12.5 6t3.5 21v119h104q2 -8 3.5 -23t3 -34t2.5 -40t1 -41q0 -79 -33 -114.5t-119 -35.5zM600 -44q0 128 4.5 194.5t5.5 87.5h78q1 -4 2 -14t2 -21.5t2 -22.5t1 -18q1 5 5 18.5t12.5 27.5t23.5 24.5t39 10.5q37 0 58.5 -28.5t21.5 -84.5
q0 -135 -137 -135q1 -11 1 -22.5v-16.5h-119zM1012 -5q-72 0 -106.5 31t-34.5 91q0 59 32.5 92.5t92.5 33.5q55 0 85.5 -29.5t30.5 -86.5q0 -8 -0.5 -18t-2.5 -17h-124q4 -6 15.5 -12t34.5 -6q14 0 29 3t26 9v-75q-8 -5 -27 -10.5t-51 -5.5zM1020 109q3 27 -17 27
q-23 0 -23 -27h40zM712 72q3 0 9 1.5t12 5.5t11 11t5 19q0 23 -20 23q-22 0 -22 -31q0 -12 2 -19.5t3 -9.5zM1140 -10q-11 0 -17.5 6t-6.5 17t6.5 17t17.5 6t17.5 -6t6.5 -17t-6.5 -17t-17.5 -6zM1140 -5q18 0 18 18t-18 18t-18 -18t18 -18zM1130 25h11q10 0 10 -7t-7 -7
l6 -9h-6l-4 9h-5v-9h-5v23zM1142 15q4 0 4 3t-4 3h-7v-6h7z" />
    <glyph glyph-name="Euro.osf" horiz-adv-x="505" 
d="M301 80q33 0 62 15t47 34l48 -55q-24 -29 -69 -51.5t-103 -22.5q-83 0 -134 42t-63 121h-63l6 60h53q0 20 3 39h-51l6 59h56q25 85 85 130t141 45q69 0 106 -20.5t59 -55.5l-74 -52q-11 21 -33 34.5t-64 13.5q-45 0 -77 -23t-49 -72h164l-6 -59h-171q-1 -9 -1.5 -18.5
t-0.5 -20.5h168l-6 -60h-156q11 -44 41 -63.5t76 -19.5z" />
    <glyph glyph-name="Euro.sc" horiz-adv-x="503" 
d="M300 80q33 0 62 15t47 34l48 -55q-24 -29 -66.5 -51.5t-101.5 -22.5q-83 0 -135 42t-66 121h-63l6 60h53q0 20 3 39h-51l6 59h57q26 81 87 128t146 47q63 0 101 -21t56 -55l-74 -52q-11 21 -32 34.5t-57 13.5q-47 0 -80.5 -24.5t-50.5 -70.5h161l-6 -59h-170
q-3 -18 -3 -39h168l-6 -60h-156q11 -44 41 -63.5t76 -19.5z" />
    <glyph glyph-name="IJacute" horiz-adv-x="727" 
d="M223 876h115l-122 -134h-87zM683 876h115l-122 -134h-87zM132 700h88l-74 -700h-88zM423 -6q-69 0 -111 22.5t-64 54.5l63 61q18 -25 44 -43.5t66 -18.5q54 0 82 36t35 102l52 492h87l-53 -503q-11 -98 -59.5 -150.5t-141.5 -52.5z" />
    <glyph glyph-name="a.sc" horiz-adv-x="514" 
d="M348 123h-208l-59 -123h-93l250 497h93l145 -497h-95zM329 195l-54 207l-100 -207h154z" />
    <glyph glyph-name="a.ss01" horiz-adv-x="484" 
d="M402 115q-3 -27 5.5 -38.5t29.5 -11.5l-7 -64q-7 -2 -17.5 -3t-20.5 -1q-38 0 -56.5 19t-15.5 65q-26 -45 -70.5 -69t-104.5 -24t-94 29.5t-34 86.5q0 69 49.5 108.5t148.5 39.5h113l7 66q5 49 -16.5 75.5t-69.5 26.5q-101 0 -101 -89q0 -9 1.5 -17.5t3.5 -13.5h-79
q-7 12 -7 40q0 70 52.5 112t141.5 42q91 0 131 -45.5t31 -134.5zM169 58q53 0 90.5 31.5t60.5 82.5l2 17l-119 -1q-48 0 -71.5 -21t-23.5 -54q0 -26 16 -40.5t45 -14.5z" />
    <glyph glyph-name="aacute.sc" horiz-adv-x="514" 
d="M315 567h-78l98 174h107zM348 123h-208l-59 -123h-93l250 497h93l145 -497h-95zM329 195l-54 207l-100 -207h154z" />
    <glyph glyph-name="aacute.ss01" horiz-adv-x="484" 
d="M297 552h-78l98 174h107zM402 115q-3 -27 5.5 -38.5t29.5 -11.5l-7 -64q-7 -2 -17.5 -3t-20.5 -1q-38 0 -56.5 19t-15.5 65q-26 -45 -70.5 -69t-104.5 -24t-94 29.5t-34 86.5q0 69 49.5 108.5t148.5 39.5h113l7 66q5 49 -16.5 75.5t-69.5 26.5q-101 0 -101 -89
q0 -9 1.5 -17.5t3.5 -13.5h-79q-7 12 -7 40q0 70 52.5 112t141.5 42q91 0 131 -45.5t31 -134.5zM169 58q53 0 90.5 31.5t60.5 82.5l2 17l-119 -1q-48 0 -71.5 -21t-23.5 -54q0 -26 16 -40.5t45 -14.5z" />
    <glyph glyph-name="abreve.sc" horiz-adv-x="514" 
d="M292 581q-34 0 -56 10.5t-34.5 29t-16 43.5t-0.5 53h68q-7 -67 46 -67q54 0 61 67h68q-3 -28 -12.5 -53t-26 -43.5t-40.5 -29t-57 -10.5zM348 123h-208l-59 -123h-93l250 497h93l145 -497h-95zM329 195l-54 207l-100 -207h154z" />
    <glyph glyph-name="abreve.ss01" horiz-adv-x="484" 
d="M274 566q-34 0 -56 10.5t-34.5 29t-16 43.5t-0.5 53h68q-7 -67 46 -67q54 0 61 67h68q-3 -28 -12.5 -53t-26 -43.5t-40.5 -29t-57 -10.5zM402 115q-3 -27 5.5 -38.5t29.5 -11.5l-7 -64q-7 -2 -17.5 -3t-20.5 -1q-38 0 -56.5 19t-15.5 65q-26 -45 -70.5 -69t-104.5 -24
t-94 29.5t-34 86.5q0 69 49.5 108.5t148.5 39.5h113l7 66q5 49 -16.5 75.5t-69.5 26.5q-101 0 -101 -89q0 -9 1.5 -17.5t3.5 -13.5h-79q-7 12 -7 40q0 70 52.5 112t141.5 42q91 0 131 -45.5t31 -134.5zM169 58q53 0 90.5 31.5t60.5 82.5l2 17l-119 -1q-48 0 -71.5 -21
t-23.5 -54q0 -26 16 -40.5t45 -14.5z" />
    <glyph glyph-name="acircumflex.sc" horiz-adv-x="514" 
d="M236 567h-77l103 174h93l66 -174h-78l-42 108zM348 123h-208l-59 -123h-93l250 497h93l145 -497h-95zM329 195l-54 207l-100 -207h154z" />
    <glyph glyph-name="acircumflex.ss01" horiz-adv-x="484" 
d="M218 552h-77l103 174h93l66 -174h-78l-42 108zM402 115q-3 -27 5.5 -38.5t29.5 -11.5l-7 -64q-7 -2 -17.5 -3t-20.5 -1q-38 0 -56.5 19t-15.5 65q-26 -45 -70.5 -69t-104.5 -24t-94 29.5t-34 86.5q0 69 49.5 108.5t148.5 39.5h113l7 66q5 49 -16.5 75.5t-69.5 26.5
q-101 0 -101 -89q0 -9 1.5 -17.5t3.5 -13.5h-79q-7 12 -7 40q0 70 52.5 112t141.5 42q91 0 131 -45.5t31 -134.5zM169 58q53 0 90.5 31.5t60.5 82.5l2 17l-119 -1q-48 0 -71.5 -21t-23.5 -54q0 -26 16 -40.5t45 -14.5z" />
    <glyph glyph-name="acute.case" horiz-adv-x="263" 
d="M186 876h115l-122 -134h-87z" />
    <glyph glyph-name="acutecomb.case" 
d="M-76 876h115l-122 -134h-87z" />
    <glyph glyph-name="adieresis.sc" horiz-adv-x="514" 
d="M207 595q-27 0 -40.5 15.5t-13.5 38.5q0 25 16 44t48 19q26 0 39 -16t13 -38q0 -26 -16 -44.5t-46 -18.5zM384 595q-27 0 -40.5 15.5t-13.5 38.5q0 25 16 44t48 19q26 0 39 -16t13 -38q0 -26 -16 -44.5t-46 -18.5zM348 123h-208l-59 -123h-93l250 497h93l145 -497h-95z
M329 195l-54 207l-100 -207h154z" />
    <glyph glyph-name="adieresis.ss01" horiz-adv-x="484" 
d="M189 580q-27 0 -40.5 15.5t-13.5 38.5q0 25 16 44t48 19q26 0 39 -16t13 -38q0 -26 -16 -44.5t-46 -18.5zM366 580q-27 0 -40.5 15.5t-13.5 38.5q0 25 16 44t48 19q26 0 39 -16t13 -38q0 -26 -16 -44.5t-46 -18.5zM402 115q-3 -27 5.5 -38.5t29.5 -11.5l-7 -64
q-7 -2 -17.5 -3t-20.5 -1q-38 0 -56.5 19t-15.5 65q-26 -45 -70.5 -69t-104.5 -24t-94 29.5t-34 86.5q0 69 49.5 108.5t148.5 39.5h113l7 66q5 49 -16.5 75.5t-69.5 26.5q-101 0 -101 -89q0 -9 1.5 -17.5t3.5 -13.5h-79q-7 12 -7 40q0 70 52.5 112t141.5 42q91 0 131 -45.5
t31 -134.5zM169 58q53 0 90.5 31.5t60.5 82.5l2 17l-119 -1q-48 0 -71.5 -21t-23.5 -54q0 -26 16 -40.5t45 -14.5z" />
    <glyph glyph-name="ae.sc" horiz-adv-x="665" 
d="M238 497h413l-8 -77h-294l37 -134h190l-8 -76h-161l40 -133h160l-8 -77h-220l-36 125h-199l-61 -125h-95zM326 198l-54 203l-95 -203h149z" />
    <glyph glyph-name="aeacute.sc" horiz-adv-x="665" 
d="M455 741h107l-127 -174h-78zM238 497h413l-8 -77h-294l37 -134h190l-8 -76h-161l40 -133h160l-8 -77h-220l-36 125h-199l-61 -125h-95zM326 198l-54 203l-95 -203h149z" />
    <glyph glyph-name="agrave.sc" horiz-adv-x="514" 
d="M249 567l-91 174h104l63 -174h-76zM348 123h-208l-59 -123h-93l250 497h93l145 -497h-95zM329 195l-54 207l-100 -207h154z" />
    <glyph glyph-name="agrave.ss01" horiz-adv-x="484" 
d="M231 552l-91 174h104l63 -174h-76zM402 115q-3 -27 5.5 -38.5t29.5 -11.5l-7 -64q-7 -2 -17.5 -3t-20.5 -1q-38 0 -56.5 19t-15.5 65q-26 -45 -70.5 -69t-104.5 -24t-94 29.5t-34 86.5q0 69 49.5 108.5t148.5 39.5h113l7 66q5 49 -16.5 75.5t-69.5 26.5q-101 0 -101 -89
q0 -9 1.5 -17.5t3.5 -13.5h-79q-7 12 -7 40q0 70 52.5 112t141.5 42q91 0 131 -45.5t31 -134.5zM169 58q53 0 90.5 31.5t60.5 82.5l2 17l-119 -1q-48 0 -71.5 -21t-23.5 -54q0 -26 16 -40.5t45 -14.5z" />
    <glyph glyph-name="amacron.sc" horiz-adv-x="514" 
d="M420 615h-247l8 71h247zM348 123h-208l-59 -123h-93l250 497h93l145 -497h-95zM329 195l-54 207l-100 -207h154z" />
    <glyph glyph-name="amacron.ss01" horiz-adv-x="484" 
d="M402 600h-247l8 71h247zM402 115q-3 -27 5.5 -38.5t29.5 -11.5l-7 -64q-7 -2 -17.5 -3t-20.5 -1q-38 0 -56.5 19t-15.5 65q-26 -45 -70.5 -69t-104.5 -24t-94 29.5t-34 86.5q0 69 49.5 108.5t148.5 39.5h113l7 66q5 49 -16.5 75.5t-69.5 26.5q-101 0 -101 -89
q0 -9 1.5 -17.5t3.5 -13.5h-79q-7 12 -7 40q0 70 52.5 112t141.5 42q91 0 131 -45.5t31 -134.5zM169 58q53 0 90.5 31.5t60.5 82.5l2 17l-119 -1q-48 0 -71.5 -21t-23.5 -54q0 -26 16 -40.5t45 -14.5z" />
    <glyph glyph-name="ampersand.sc" horiz-adv-x="547" 
d="M479 -8q-26 7 -51 17t-48 23q-64 -44 -162 -44q-91 0 -139.5 40t-48.5 104q0 53 29.5 92.5t75.5 57.5q-7 19 -11 38.5t-4 39.5q0 73 45.5 117t129.5 44q67 0 105 -32t38 -84q0 -20 -5.5 -40.5t-13.5 -33.5h-75q6 11 10.5 27t4.5 29q0 29 -19 45.5t-54 16.5q-41 0 -64 -20
t-23 -60q0 -38 19 -76t56 -78q14 -15 40.5 -40t61.5 -51q24 40 32 111h75q-9 -88 -49 -148q34 -19 74 -30zM234 56q49 0 83 15q-57 42 -100 89q-33 36 -56 72q-27 -20 -37.5 -39t-10.5 -47q0 -39 30 -64.5t91 -25.5z" />
    <glyph glyph-name="aogonek.sc" horiz-adv-x="514" 
d="M486 -155q-13 -13 -33 -20t-43 -7q-42 0 -63.5 19.5t-21.5 55.5q0 29 15.5 56.5t42.5 50.5h-2l-33 123h-208l-59 -123h-93l250 497h93l145 -497h-2q-30 -10 -50.5 -34.5t-20.5 -53.5q0 -32 29 -32q10 0 18 3.5t13 7.5zM329 195l-54 207l-100 -207h154z" />
    <glyph glyph-name="aogonek.ss01" horiz-adv-x="484" 
d="M442 -154q-13 -13 -33 -20t-43 -7q-42 0 -63.5 19.5t-21.5 55.5q0 32 17.5 61t48.5 52q-15 9 -22 27t-5 47q-26 -45 -70.5 -69t-104.5 -24t-94 29.5t-34 86.5q0 69 49.5 108.5t148.5 39.5h113l7 66q5 49 -16.5 75.5t-69.5 26.5q-101 0 -101 -89q0 -9 1.5 -17.5t3.5 -13.5
h-79q-7 12 -7 40q0 70 52.5 112t141.5 42q91 0 131 -45.5t31 -134.5l-21 -199q-3 -27 5.5 -38.5t29.5 -11.5l-7 -64q-30 -10 -50.5 -34.5t-20.5 -53.5q0 -32 29 -32q10 0 18 3.5t13 7.5zM169 58q53 0 90.5 31.5t60.5 82.5l2 17l-119 -1q-48 0 -71.5 -21t-23.5 -54
q0 -26 16 -40.5t45 -14.5z" />
    <glyph glyph-name="aring.sc" horiz-adv-x="514" 
d="M293 548q-44 0 -70.5 27t-26.5 68q0 49 31 82.5t80 33.5q43 0 69 -27t26 -69q0 -24 -8 -45t-22.5 -36.5t-34.5 -24.5t-44 -9zM303 696q-19 0 -32 -12.5t-13 -33.5q0 -18 10.5 -29t29.5 -11q17 0 30 13t13 34q0 17 -10 28t-28 11zM348 123h-208l-59 -123h-93l250 497h93
l145 -497h-95zM329 195l-54 207l-100 -207h154z" />
    <glyph glyph-name="aring.ss01" horiz-adv-x="484" 
d="M275 533q-44 0 -70.5 27t-26.5 68q0 49 31 82.5t80 33.5q43 0 69 -27t26 -69q0 -24 -8 -45t-22.5 -36.5t-34.5 -24.5t-44 -9zM285 681q-19 0 -32 -12.5t-13 -33.5q0 -18 10.5 -29t29.5 -11q17 0 30 13t13 34q0 17 -10 28t-28 11zM402 115q-3 -27 5.5 -38.5t29.5 -11.5
l-7 -64q-7 -2 -17.5 -3t-20.5 -1q-38 0 -56.5 19t-15.5 65q-26 -45 -70.5 -69t-104.5 -24t-94 29.5t-34 86.5q0 69 49.5 108.5t148.5 39.5h113l7 66q5 49 -16.5 75.5t-69.5 26.5q-101 0 -101 -89q0 -9 1.5 -17.5t3.5 -13.5h-79q-7 12 -7 40q0 70 52.5 112t141.5 42
q91 0 131 -45.5t31 -134.5zM169 58q53 0 90.5 31.5t60.5 82.5l2 17l-119 -1q-48 0 -71.5 -21t-23.5 -54q0 -26 16 -40.5t45 -14.5z" />
    <glyph glyph-name="aringacute.sc" horiz-adv-x="514" 
d="M400 595q0 -36 -18 -64.5t-49 -42.5l143 -488h-95l-33 123h-208l-59 -123h-93l249 495q-20 12 -31.5 33t-11.5 47q0 43 24 74.5t64 39.5l85 121h115l-122 -134h-1q41 -27 41 -81zM301 628q-19 0 -32 -12.5t-13 -33.5q0 -18 10.5 -29t29.5 -11q17 0 30 13t13 34
q0 17 -10 28t-28 11zM329 195l-54 207l-100 -207h154z" />
    <glyph glyph-name="aringacute.ss01" horiz-adv-x="484" 
d="M275 533q-44 0 -70.5 27t-26.5 68q0 45 25.5 76.5t67.5 38.5l73 130h107l-106 -145q18 -13 28.5 -33.5t10.5 -46.5q0 -24 -8 -45t-22.5 -36.5t-34.5 -24.5t-44 -9zM285 681q-19 0 -32 -12.5t-13 -33.5q0 -18 10.5 -29t29.5 -11q17 0 30 13t13 34q0 17 -10 28t-28 11z
M402 115q-3 -27 5.5 -38.5t29.5 -11.5l-7 -64q-7 -2 -17.5 -3t-20.5 -1q-38 0 -56.5 19t-15.5 65q-26 -45 -70.5 -69t-104.5 -24t-94 29.5t-34 86.5q0 69 49.5 108.5t148.5 39.5h113l7 66q5 49 -16.5 75.5t-69.5 26.5q-101 0 -101 -89q0 -9 1.5 -17.5t3.5 -13.5h-79
q-7 12 -7 40q0 70 52.5 112t141.5 42q91 0 131 -45.5t31 -134.5zM169 58q53 0 90.5 31.5t60.5 82.5l2 17l-119 -1q-48 0 -71.5 -21t-23.5 -54q0 -26 16 -40.5t45 -14.5z" />
    <glyph glyph-name="atilde.sc" horiz-adv-x="514" 
d="M145 543q-6 17 -6 39q0 33 23 57t62 24q21 0 38 -6t31.5 -13.5t27 -13.5t25.5 -6q25 0 25 29q0 10 -3 16h66q5 -17 5 -38q0 -33 -22 -57.5t-70 -24.5q-21 0 -38 6t-30.5 13.5t-25 13.5t-23.5 6q-9 0 -16 -6.5t-7 -20.5q0 -10 4 -18h-66zM348 123h-208l-59 -123h-93
l250 497h93l145 -497h-95zM329 195l-54 207l-100 -207h154z" />
    <glyph glyph-name="atilde.ss01" horiz-adv-x="484" 
d="M135 572q-6 17 -6 39q0 33 21 56.5t64 23.5q21 0 37.5 -6t31 -13t27 -13t24.5 -6q26 0 26 27q0 10 -4 18h66q6 -15 6 -36q0 -34 -21 -58.5t-65 -24.5q-23 0 -40.5 6t-31.5 13t-25 13t-21 6q-27 0 -27 -27q0 -10 4 -18h-66zM402 115q-3 -27 5.5 -38.5t29.5 -11.5l-7 -64
q-7 -2 -17.5 -3t-20.5 -1q-38 0 -56.5 19t-15.5 65q-26 -45 -70.5 -69t-104.5 -24t-94 29.5t-34 86.5q0 69 49.5 108.5t148.5 39.5h113l7 66q5 49 -16.5 75.5t-69.5 26.5q-101 0 -101 -89q0 -9 1.5 -17.5t3.5 -13.5h-79q-7 12 -7 40q0 70 52.5 112t141.5 42q91 0 131 -45.5
t31 -134.5zM169 58q53 0 90.5 31.5t60.5 82.5l2 17l-119 -1q-48 0 -71.5 -21t-23.5 -54q0 -26 16 -40.5t45 -14.5z" />
    <glyph glyph-name="b.sc" horiz-adv-x="501" 
d="M372 270q32 -9 57.5 -36t25.5 -76q0 -39 -16 -69t-44 -49.5t-66 -29.5t-82 -10h-200l52 497h187q166 0 166 -113q0 -43 -22.5 -73t-57.5 -41zM166 288h105q45 0 67.5 22t22.5 56q0 61 -73 61h-107zM250 69q59 0 86.5 21t27.5 65q0 65 -89 65h-116l-16 -151h107z" />
    <glyph glyph-name="braceleft.sc" horiz-adv-x="279" 
d="M206 -87q-29 -5 -56 -0.5t-46.5 20t-29 43t-5.5 68.5l13 124q3 26 -11 37t-32 11h-8l7 68h8q18 0 34 11t19 37l13 124q4 41 20 68.5t38.5 43t50.5 20t56 -0.5l-8 -72q-35 10 -57 -10.5t-27 -62.5l-13 -130q-2 -17 -7.5 -28.5t-12 -18.5t-13 -10.5t-10.5 -4.5q3 -1 8.5 -5
t10.5 -11.5t9 -19t2 -26.5l-14 -130q-5 -42 13.5 -62.5t54.5 -10.5z" />
    <glyph glyph-name="braceright.sc" horiz-adv-x="289" 
d="M83 588q29 5 56 0.5t46.5 -20t29.5 -43t5 -68.5l-13 -124q-3 -26 11 -37t32 -11h8l-7 -68h-8q-18 0 -34 -11t-19 -37l-13 -124q-4 -41 -20 -68.5t-38.5 -43t-50.5 -20t-56 0.5l8 72q35 -10 57 10.5t27 62.5l13 130q2 17 7.5 28.5t12 18.5t13 10.5t10.5 4.5q-3 1 -8.5 5
t-10.5 11.5t-8.5 19t-2.5 26.5l14 130q5 42 -13.5 62.5t-54.5 10.5z" />
    <glyph glyph-name="bracketleft.sc" horiz-adv-x="293" 
d="M116 595h180l-8 -69h-100l-58 -550h100l-7 -69h-180z" />
    <glyph glyph-name="bracketright.sc" horiz-adv-x="293" 
d="M7 -24h100l58 550h-100l8 69h180l-73 -688h-180z" />
    <glyph glyph-name="breve.case" horiz-adv-x="317" 
d="M210 741q-53 0 -83 35.5t-23 99.5h68q-3 -27 8.5 -45.5t37.5 -18.5q32 0 45 18.5t16 45.5h68q-7 -63 -42 -99t-95 -36z" />
    <glyph glyph-name="c.sc" horiz-adv-x="497" 
d="M260 -12q-101 0 -160.5 54.5t-59.5 172.5q0 63 18 116.5t51.5 93t82.5 62t111 22.5q76 0 123.5 -34t47.5 -101q0 -18 -3.5 -32t-8.5 -26h-85q7 20 7 44q0 33 -20.5 54t-69.5 21q-40 0 -69.5 -17.5t-49 -47.5t-29.5 -70t-10 -84q0 -40 10 -69.5t27 -49t40 -28.5t49 -9
q47 0 75.5 19.5t57.5 56.5l55 -47q-35 -51 -81.5 -76t-108.5 -25z" />
    <glyph glyph-name="cacute.sc" horiz-adv-x="497" 
d="M353 741h107l-127 -174h-78zM260 -12q-101 0 -160.5 54.5t-59.5 172.5q0 63 18 116.5t51.5 93t82.5 62t111 22.5q76 0 123.5 -34t47.5 -101q0 -18 -3.5 -32t-8.5 -26h-85q7 20 7 44q0 33 -20.5 54t-69.5 21q-40 0 -69.5 -17.5t-49 -47.5t-29.5 -70t-10 -84
q0 -40 10 -69.5t27 -49t40 -28.5t49 -9q47 0 75.5 19.5t57.5 56.5l55 -47q-35 -51 -81.5 -76t-108.5 -25z" />
    <glyph glyph-name="caron.alt" horiz-adv-x="600" 
d="M92 571q21 7 35.5 20t16.5 27q-47 12 -47 55q0 29 18 45.5t44 16.5t42.5 -17.5t16.5 -49.5q0 -21 -8 -43t-22.5 -41t-33.5 -33.5t-41 -20.5z" />
    <glyph glyph-name="caron.case" horiz-adv-x="328" 
d="M102 876h80l46 -74l63 74h78l-99 -134h-98z" />
    <glyph glyph-name="caroncomb.alt" 
d="M-66 571q21 7 35.5 20t16.5 27q-47 12 -47 55q0 29 18 45.5t44 16.5t42.5 -17.5t16.5 -49.5q0 -21 -8 -43t-22.5 -41t-33.5 -33.5t-41 -20.5z" />
    <glyph glyph-name="ccaron.sc" horiz-adv-x="497" 
d="M195 741h78l43 -108l64 108h77l-103 -174h-92zM260 -12q-101 0 -160.5 54.5t-59.5 172.5q0 63 18 116.5t51.5 93t82.5 62t111 22.5q76 0 123.5 -34t47.5 -101q0 -18 -3.5 -32t-8.5 -26h-85q7 20 7 44q0 33 -20.5 54t-69.5 21q-40 0 -69.5 -17.5t-49 -47.5t-29.5 -70
t-10 -84q0 -40 10 -69.5t27 -49t40 -28.5t49 -9q47 0 75.5 19.5t57.5 56.5l55 -47q-35 -51 -81.5 -76t-108.5 -25z" />
    <glyph glyph-name="ccedilla.sc" horiz-adv-x="497" 
d="M377 316q7 20 7 44q0 33 -20.5 54t-69.5 21q-40 0 -69.5 -17.5t-49 -47.5t-29.5 -70t-10 -84q0 -40 10 -69.5t27 -49t40 -28.5t49 -9q47 0 75.5 19.5t57.5 56.5l55 -47q-34 -48 -77 -73t-100 -28l-9 -22q25 -8 46 -27t21 -57q0 -23 -9.5 -39t-25 -26.5t-35.5 -15
t-41 -4.5q-32 0 -55.5 8.5t-41.5 25.5l39 48q23 -21 51 -21q17 0 26.5 6.5t9.5 21.5q0 16 -18 25t-47 11l31 69q-82 11 -128.5 65t-46.5 159q0 63 18 116.5t51.5 93t82.5 62t111 22.5q76 0 123.5 -34t47.5 -101q0 -18 -3.5 -32t-8.5 -26h-85z" />
    <glyph glyph-name="ccircumflex.sc" horiz-adv-x="497" 
d="M280 741h93l66 -174h-78l-42 108l-65 -108h-77zM260 -12q-101 0 -160.5 54.5t-59.5 172.5q0 63 18 116.5t51.5 93t82.5 62t111 22.5q76 0 123.5 -34t47.5 -101q0 -18 -3.5 -32t-8.5 -26h-85q7 20 7 44q0 33 -20.5 54t-69.5 21q-40 0 -69.5 -17.5t-49 -47.5t-29.5 -70
t-10 -84q0 -40 10 -69.5t27 -49t40 -28.5t49 -9q47 0 75.5 19.5t57.5 56.5l55 -47q-35 -51 -81.5 -76t-108.5 -25z" />
    <glyph glyph-name="cdotaccent.sc" horiz-adv-x="497" 
d="M314 594q-27 0 -41 16t-14 39q0 26 16.5 45.5t48.5 19.5q26 0 40 -16.5t14 -38.5q0 -26 -16.5 -45.5t-47.5 -19.5zM260 -12q-101 0 -160.5 54.5t-59.5 172.5q0 63 18 116.5t51.5 93t82.5 62t111 22.5q76 0 123.5 -34t47.5 -101q0 -18 -3.5 -32t-8.5 -26h-85q7 20 7 44
q0 33 -20.5 54t-69.5 21q-40 0 -69.5 -17.5t-49 -47.5t-29.5 -70t-10 -84q0 -40 10 -69.5t27 -49t40 -28.5t49 -9q47 0 75.5 19.5t57.5 56.5l55 -47q-35 -51 -81.5 -76t-108.5 -25z" />
    <glyph glyph-name="cent.osf" horiz-adv-x="455" 
d="M272 75q28 5 51 18t39 30l49 -55q-22 -26 -59 -47t-88 -26l-7 -70h-74l8 74q-72 14 -112.5 68t-40.5 142q0 57 14.5 104.5t41.5 83.5t64.5 59t83.5 30l8 71h74l-7 -68q49 -5 79.5 -25.5t47.5 -49.5l-75 -52q-8 17 -23.5 28.5t-38.5 16.5zM130 210q0 -55 19 -86t54 -43
l34 323q-50 -16 -78.5 -66t-28.5 -128z" />
    <glyph glyph-name="cent.sc" horiz-adv-x="449" 
d="M269 75q28 5 51 18t39 30l49 -55q-22 -26 -59 -47t-88 -26l-7 -70h-74l8 74q-72 14 -112.5 68t-40.5 142q0 57 14.5 104.5t41.5 83.5t64.5 59t83.5 30l8 71h74l-7 -68q49 -5 79.5 -25.5t47.5 -49.5l-75 -52q-8 17 -23.5 28.5t-38.5 16.5zM127 210q0 -55 19 -86t54 -43
l34 323q-50 -16 -78.5 -66t-28.5 -128z" />
    <glyph glyph-name="circumflex.case" horiz-adv-x="343" 
d="M188 876h98l70 -134h-80l-47 74l-62 -74h-78z" />
    <glyph glyph-name="currency.osf" horiz-adv-x="530" 
d="M19 78l86 78q-16 35 -16 78q0 57 34 110l-66 78l53 48l65 -77q24 21 52 30.5t59 9.5q30 0 56 -11t45 -28l81 76l44 -48l-83 -77q7 -19 11 -39.5t4 -40.5q0 -29 -8.5 -58.5t-25.5 -53.5l64 -70l-53 -49l-64 70q-23 -19 -51.5 -27t-57.5 -8q-31 0 -57 10.5t-45 27.5
l-84 -77zM257 142q23 0 43.5 8t36 23.5t25 37.5t9.5 50q0 42 -24.5 70.5t-69.5 28.5q-22 0 -42.5 -8t-36.5 -23.5t-25.5 -37.5t-9.5 -50q0 -42 24 -70.5t70 -28.5z" />
    <glyph glyph-name="currency.sc" horiz-adv-x="528" 
d="M20 79l87 81q-8 16 -12 35t-4 39q0 29 7.5 56.5t24.5 54.5l-65 77l50 46l64 -76q26 20 52 29.5t57 9.5q30 0 58 -11t46 -31l83 79l41 -46l-84 -80q16 -35 16 -77q0 -29 -9 -56t-24 -53l64 -73l-51 -46l-63 73q-24 -21 -52.5 -30t-58.5 -9q-31 0 -57.5 11t-43.5 31
l-85 -80zM255 140q27 0 48.5 9.5t37 26t23.5 38.5t8 47q0 43 -23 72t-71 29q-54 0 -86 -35t-32 -86q0 -42 23 -71.5t72 -29.5z" />
    <glyph glyph-name="d.sc" horiz-adv-x="541" 
d="M99 497h165q50 0 94 -12t76.5 -38.5t51 -67.5t18.5 -99q0 -76 -25.5 -129.5t-66 -87t-91.5 -48.5t-102 -15h-172zM220 76q85 0 136 49t51 148q0 72 -39.5 110t-115.5 38h-72l-36 -345h76z" />
    <glyph glyph-name="dcaron.sc" horiz-adv-x="541" 
d="M188 741h78l43 -108l64 108h77l-103 -174h-92zM99 497h165q50 0 94 -12t76.5 -38.5t51 -67.5t18.5 -99q0 -76 -25.5 -129.5t-66 -87t-91.5 -48.5t-102 -15h-172zM220 76q85 0 136 49t51 148q0 72 -39.5 110t-115.5 38h-72l-36 -345h76z" />
    <glyph glyph-name="dcroat.sc" horiz-adv-x="594" 
d="M295 497q50 0 94 -12t76.5 -38.5t51 -67.5t18.5 -99q0 -76 -25.5 -129.5t-66.5 -87t-92 -48.5t-101 -15h-172l22 211h-73l8 77h73l22 209h165zM251 76q85 0 136 48t51 145q0 74 -39.5 113t-115.5 39h-72l-14 -133h112l-8 -77h-112l-14 -135h76z" />
    <glyph glyph-name="dieresis.case" horiz-adv-x="348" 
d="M124 748q-26 0 -40.5 16t-14.5 39q0 29 16.5 48t45.5 19q25 0 40 -15.5t15 -40.5q0 -29 -16.5 -47.5t-45.5 -18.5zM330 748q-25 0 -41 14t-16 42t18 47t46 19q26 0 40 -15.5t14 -39.5q0 -30 -16 -48.5t-45 -18.5z" />
    <glyph glyph-name="dollar.osf" horiz-adv-x="457" 
d="M335 327q11 38 -5 57t-48 26l-14 -134q27 -5 52.5 -13t46 -22.5t33 -36t12.5 -54.5q0 -63 -42.5 -102.5t-130.5 -45.5l-9 -86h-65l9 83q-61 2 -105 25t-61 56l63 54q17 -28 46 -43t65 -19l15 139q-30 7 -56.5 16t-46 23.5t-31 36t-11.5 53.5q0 65 47 101.5t126 40.5l8 80
h65l-8 -81q27 -3 54.5 -12t46.5 -27t27 -46t-4 -68zM134 349q0 -26 18 -38.5t53 -21.5l13 123q-84 -6 -84 -63zM327 136q0 26 -16.5 39t-50.5 22l-14 -126q42 4 61.5 19.5t19.5 45.5z" />
    <glyph glyph-name="dollar.sc" horiz-adv-x="459" 
d="M335 327q11 38 -5 57t-48 26l-14 -134q27 -5 52.5 -12.5t46 -21t33 -34.5t12.5 -54q0 -66 -47.5 -105t-125.5 -47l-9 -86h-65l9 83q-60 5 -104.5 26.5t-61.5 54.5l63 54q17 -28 46 -43t65 -19l15 139q-26 5 -52 12.5t-46.5 21t-33.5 34.5t-13 53q0 66 46 104t127 46l8 80
h65l-8 -81q27 -3 54.5 -12t46.5 -27t27 -46t-4 -68zM137 346q0 -26 19 -37.5t49 -19.5l13 123q-38 -5 -59.5 -21t-21.5 -45zM327 141q0 25 -19 37t-48 20l-14 -126q38 5 59.5 21t21.5 48z" />
    <glyph glyph-name="dotaccent.case" horiz-adv-x="180" 
d="M143 746q-23 0 -39 16.5t-16 41.5q0 27 21.5 47.5t47.5 20.5q23 0 39 -17t16 -41q0 -28 -21.5 -48t-47.5 -20z" />
    <glyph glyph-name="dotlessi.sc" horiz-adv-x="235" 
d="M99 497h91l-52 -497h-91z" />
    <glyph glyph-name="dotlessi.ss01" horiz-adv-x="222" 
d="M93 482h88l-51 -482h-88z" />
    <glyph glyph-name="e.sc" horiz-adv-x="458" 
d="M99 497h343l-8 -79h-254l-14 -126h218l-9 -80h-217l-14 -133h254l-8 -79h-343z" />
    <glyph glyph-name="e.ss01" horiz-adv-x="468" 
d="M127 229v-23q0 -71 29 -107.5t84 -36.5q41 0 68 15t52 50l51 -44q-28 -42 -70 -68.5t-109 -26.5q-92 0 -143.5 57t-51.5 157q0 65 15.5 118.5t45 92t72.5 60t98 21.5q78 0 123 -48t45 -135q0 -20 -2 -42.5t-6 -39.5h-301zM261 421q-29 0 -50.5 -10t-36.5 -27t-24.5 -39.5
t-14.5 -46.5h214q6 54 -14.5 88.5t-73.5 34.5z" />
    <glyph glyph-name="eacute.sc" horiz-adv-x="458" 
d="M325 741h107l-127 -174h-78zM99 497h343l-8 -79h-254l-14 -126h218l-9 -80h-217l-14 -133h254l-8 -79h-343z" />
    <glyph glyph-name="eacute.ss01" horiz-adv-x="468" 
d="M299 552h-78l98 174h107zM127 229v-23q0 -71 29 -107.5t84 -36.5q41 0 68 15t52 50l51 -44q-28 -42 -70 -68.5t-109 -26.5q-92 0 -143.5 57t-51.5 157q0 65 15.5 118.5t45 92t72.5 60t98 21.5q78 0 123 -48t45 -135q0 -20 -2 -42.5t-6 -39.5h-301zM261 421
q-29 0 -50.5 -10t-36.5 -27t-24.5 -39.5t-14.5 -46.5h214q6 54 -14.5 88.5t-73.5 34.5z" />
    <glyph glyph-name="ebreve.sc" horiz-adv-x="458" 
d="M282 581q-34 0 -56 10.5t-34.5 29t-16 43.5t-0.5 53h68q-7 -67 46 -67q54 0 61 67h68q-3 -28 -12.5 -53t-26 -43.5t-40.5 -29t-57 -10.5zM99 497h343l-8 -79h-254l-14 -126h218l-9 -80h-217l-14 -133h254l-8 -79h-343z" />
    <glyph glyph-name="ebreve.ss01" horiz-adv-x="468" 
d="M276 566q-34 0 -56 10.5t-34.5 29t-16 43.5t-0.5 53h68q-7 -67 46 -67q54 0 61 67h68q-3 -28 -12.5 -53t-26 -43.5t-40.5 -29t-57 -10.5zM127 229v-23q0 -71 29 -107.5t84 -36.5q41 0 68 15t52 50l51 -44q-28 -42 -70 -68.5t-109 -26.5q-92 0 -143.5 57t-51.5 157
q0 65 15.5 118.5t45 92t72.5 60t98 21.5q78 0 123 -48t45 -135q0 -20 -2 -42.5t-6 -39.5h-301zM261 421q-29 0 -50.5 -10t-36.5 -27t-24.5 -39.5t-14.5 -46.5h214q6 54 -14.5 88.5t-73.5 34.5z" />
    <glyph glyph-name="ecaron.sc" horiz-adv-x="458" 
d="M167 741h78l43 -108l64 108h77l-103 -174h-92zM99 497h343l-8 -79h-254l-14 -126h218l-9 -80h-217l-14 -133h254l-8 -79h-343z" />
    <glyph glyph-name="ecaron.ss01" horiz-adv-x="468" 
d="M228 552l-67 174h78l43 -108l64 108h77l-103 -174h-92zM127 229v-23q0 -71 29 -107.5t84 -36.5q41 0 68 15t52 50l51 -44q-28 -42 -70 -68.5t-109 -26.5q-92 0 -143.5 57t-51.5 157q0 65 15.5 118.5t45 92t72.5 60t98 21.5q78 0 123 -48t45 -135q0 -20 -2 -42.5t-6 -39.5
h-301zM261 421q-29 0 -50.5 -10t-36.5 -27t-24.5 -39.5t-14.5 -46.5h214q6 54 -14.5 88.5t-73.5 34.5z" />
    <glyph glyph-name="ecircumflex.sc" horiz-adv-x="458" 
d="M252 741h93l66 -174h-78l-42 108l-65 -108h-77zM99 497h343l-8 -79h-254l-14 -126h218l-9 -80h-217l-14 -133h254l-8 -79h-343z" />
    <glyph glyph-name="ecircumflex.ss01" horiz-adv-x="468" 
d="M220 552h-77l103 174h93l66 -174h-78l-42 108zM127 229v-23q0 -71 29 -107.5t84 -36.5q41 0 68 15t52 50l51 -44q-28 -42 -70 -68.5t-109 -26.5q-92 0 -143.5 57t-51.5 157q0 65 15.5 118.5t45 92t72.5 60t98 21.5q78 0 123 -48t45 -135q0 -20 -2 -42.5t-6 -39.5h-301z
M261 421q-29 0 -50.5 -10t-36.5 -27t-24.5 -39.5t-14.5 -46.5h214q6 54 -14.5 88.5t-73.5 34.5z" />
    <glyph glyph-name="edieresis.sc" horiz-adv-x="458" 
d="M197 595q-27 0 -40.5 15.5t-13.5 38.5q0 25 16 44t48 19q26 0 39 -16t13 -38q0 -26 -16 -44.5t-46 -18.5zM374 595q-27 0 -40.5 15.5t-13.5 38.5q0 25 16 44t48 19q26 0 39 -16t13 -38q0 -26 -16 -44.5t-46 -18.5zM99 497h343l-8 -79h-254l-14 -126h218l-9 -80h-217
l-14 -133h254l-8 -79h-343z" />
    <glyph glyph-name="edieresis.ss01" horiz-adv-x="468" 
d="M191 580q-27 0 -40.5 15.5t-13.5 38.5q0 25 16 44t48 19q26 0 39 -16t13 -38q0 -26 -16 -44.5t-46 -18.5zM368 580q-27 0 -40.5 15.5t-13.5 38.5q0 25 16 44t48 19q26 0 39 -16t13 -38q0 -26 -16 -44.5t-46 -18.5zM127 229v-23q0 -71 29 -107.5t84 -36.5q41 0 68 15
t52 50l51 -44q-28 -42 -70 -68.5t-109 -26.5q-92 0 -143.5 57t-51.5 157q0 65 15.5 118.5t45 92t72.5 60t98 21.5q78 0 123 -48t45 -135q0 -20 -2 -42.5t-6 -39.5h-301zM261 421q-29 0 -50.5 -10t-36.5 -27t-24.5 -39.5t-14.5 -46.5h214q6 54 -14.5 88.5t-73.5 34.5z" />
    <glyph glyph-name="edotaccent.sc" horiz-adv-x="458" 
d="M286 594q-27 0 -41 16t-14 39q0 26 16.5 45.5t48.5 19.5q26 0 40 -16.5t14 -38.5q0 -26 -16.5 -45.5t-47.5 -19.5zM99 497h343l-8 -79h-254l-14 -126h218l-9 -80h-217l-14 -133h254l-8 -79h-343z" />
    <glyph glyph-name="edotaccent.ss01" horiz-adv-x="468" 
d="M280 579q-27 0 -41 16t-14 39q0 26 16.5 45.5t48.5 19.5q26 0 40 -16.5t14 -38.5q0 -26 -16.5 -45.5t-47.5 -19.5zM127 229v-23q0 -71 29 -107.5t84 -36.5q41 0 68 15t52 50l51 -44q-28 -42 -70 -68.5t-109 -26.5q-92 0 -143.5 57t-51.5 157q0 65 15.5 118.5t45 92
t72.5 60t98 21.5q78 0 123 -48t45 -135q0 -20 -2 -42.5t-6 -39.5h-301zM261 421q-29 0 -50.5 -10t-36.5 -27t-24.5 -39.5t-14.5 -46.5h214q6 54 -14.5 88.5t-73.5 34.5z" />
    <glyph glyph-name="egrave.sc" horiz-adv-x="458" 
d="M148 741h104l63 -174h-76zM99 497h343l-8 -79h-254l-14 -126h218l-9 -80h-217l-14 -133h254l-8 -79h-343z" />
    <glyph glyph-name="egrave.ss01" horiz-adv-x="468" 
d="M233 552l-91 174h104l63 -174h-76zM127 229v-23q0 -71 29 -107.5t84 -36.5q41 0 68 15t52 50l51 -44q-28 -42 -70 -68.5t-109 -26.5q-92 0 -143.5 57t-51.5 157q0 65 15.5 118.5t45 92t72.5 60t98 21.5q78 0 123 -48t45 -135q0 -20 -2 -42.5t-6 -39.5h-301zM261 421
q-29 0 -50.5 -10t-36.5 -27t-24.5 -39.5t-14.5 -46.5h214q6 54 -14.5 88.5t-73.5 34.5z" />
    <glyph glyph-name="eight.dnom" horiz-adv-x="376" 
d="M140 -10q-66 0 -100 24.5t-34 69.5q0 36 19.5 63t53.5 44q-17 13 -28.5 32.5t-11.5 48.5q0 52 38.5 85t105.5 33q54 0 88 -24.5t34 -69.5q0 -36 -17.5 -59.5t-42.5 -36.5q27 -12 40 -34t13 -51q0 -58 -40 -91.5t-118 -33.5zM196 216q18 11 32 27t14 42t-18.5 39.5
t-48.5 13.5q-35 0 -54.5 -15.5t-19.5 -40.5q0 -40 38 -50zM147 41q41 0 63 16t22 48q0 23 -13.5 34.5t-36.5 17.5l-58 16q-20 -11 -37 -30.5t-17 -45.5q0 -29 21.5 -42.5t55.5 -13.5z" />
    <glyph glyph-name="eight.numr" horiz-adv-x="376" 
d="M140 311q-66 0 -100 24.5t-34 69.5q0 36 19.5 63t53.5 44q-17 13 -28.5 32.5t-11.5 48.5q0 52 38.5 85t105.5 33q54 0 88 -24.5t34 -69.5q0 -36 -17.5 -59.5t-42.5 -36.5q27 -12 40 -34t13 -51q0 -58 -40 -91.5t-118 -33.5zM196 537q18 11 32 27t14 42t-18.5 39.5
t-48.5 13.5q-35 0 -54.5 -15.5t-19.5 -40.5q0 -40 38 -50zM147 362q41 0 63 16t22 48q0 23 -13.5 34.5t-36.5 17.5l-58 16q-20 -11 -37 -30.5t-17 -45.5q0 -29 21.5 -42.5t55.5 -13.5z" />
    <glyph glyph-name="eight.osf" horiz-adv-x="533" 
d="M399 357q45 -26 65.5 -64.5t20.5 -86.5q0 -97 -61.5 -154.5t-175.5 -57.5q-103 0 -158 43.5t-55 124.5q0 69 35.5 120.5t89.5 83.5q-32 23 -52.5 58t-20.5 81q0 45 16 82t44.5 63.5t69.5 41t90 14.5q90 0 143 -46t53 -124q0 -66 -29 -109t-75 -70zM302 631
q-60 0 -95 -28.5t-35 -88.5q0 -35 20 -61.5t53 -37.5l87 -31q48 26 67 62t19 78q0 50 -30.5 78.5t-85.5 28.5zM254 68q65 0 105 32.5t40 94.5q0 37 -19.5 64t-61.5 42l-97 35q-40 -26 -68.5 -62t-28.5 -90q0 -52 31 -84t99 -32z" />
    <glyph glyph-name="eight.sc" horiz-adv-x="467" 
d="M348 258q36 -18 52.5 -47t16.5 -64q0 -75 -55.5 -117t-149.5 -42q-88 0 -136.5 33t-48.5 95q0 48 27 83t69 56q-23 17 -37 43.5t-14 64.5q0 66 50 106t135 40q81 0 122.5 -34.5t41.5 -94.5q0 -41 -20 -71.5t-53 -50.5zM251 440q-42 0 -68 -18t-26 -57q0 -23 12.5 -41
t42.5 -26l66 -17q32 14 46.5 37t14.5 49q0 35 -24 54t-64 19zM219 56q56 0 85 20t29 61q0 24 -15.5 41.5t-51.5 26.5l-85 23q-29 -16 -48.5 -39t-19.5 -55q0 -36 25.5 -57t80.5 -21z" />
    <glyph glyph-name="eight.sinf" horiz-adv-x="362" 
d="M140 -144q-66 0 -100 24.5t-34 69.5q0 36 19.5 63t53.5 44q-17 13 -28.5 32.5t-11.5 48.5q0 52 38.5 85t105.5 33q54 0 88 -24.5t34 -69.5q0 -36 -17.5 -59.5t-42.5 -36.5q27 -12 40 -34t13 -51q0 -58 -40 -91.5t-118 -33.5zM196 82q18 11 32 27t14 42t-18.5 39.5
t-48.5 13.5q-35 0 -54.5 -15.5t-19.5 -40.5q0 -40 38 -50zM147 -93q41 0 63 16t22 48q0 23 -13.5 34.5t-36.5 17.5l-58 16q-20 -11 -37 -30.5t-17 -45.5q0 -29 21.5 -42.5t55.5 -13.5z" />
    <glyph glyph-name="eight.sups" horiz-adv-x="376" 
d="M140 376q-66 0 -100 24.5t-34 69.5q0 36 19.5 63t53.5 44q-17 13 -28.5 32.5t-11.5 48.5q0 52 38.5 85t105.5 33q54 0 88 -24.5t34 -69.5q0 -36 -17.5 -59.5t-42.5 -36.5q27 -12 40 -34t13 -51q0 -58 -40 -91.5t-118 -33.5zM196 602q18 11 32 27t14 42t-18.5 39.5
t-48.5 13.5q-35 0 -54.5 -15.5t-19.5 -40.5q0 -40 38 -50zM147 427q41 0 63 16t22 48q0 23 -13.5 34.5t-36.5 17.5l-58 16q-20 -11 -37 -30.5t-17 -45.5q0 -29 21.5 -42.5t55.5 -13.5z" />
    <glyph glyph-name="emacron.sc" horiz-adv-x="458" 
d="M171 686h247l-8 -71h-247zM99 497h343l-8 -79h-254l-14 -126h218l-9 -80h-217l-14 -133h254l-8 -79h-343z" />
    <glyph glyph-name="emacron.ss01" horiz-adv-x="468" 
d="M404 600h-247l8 71h247zM127 229v-23q0 -71 29 -107.5t84 -36.5q41 0 68 15t52 50l51 -44q-28 -42 -70 -68.5t-109 -26.5q-92 0 -143.5 57t-51.5 157q0 65 15.5 118.5t45 92t72.5 60t98 21.5q78 0 123 -48t45 -135q0 -20 -2 -42.5t-6 -39.5h-301zM261 421
q-29 0 -50.5 -10t-36.5 -27t-24.5 -39.5t-14.5 -46.5h214q6 54 -14.5 88.5t-73.5 34.5z" />
    <glyph glyph-name="eng.sc" horiz-adv-x="544" 
d="M499 497l-52 -497l-3 -26q-9 -91 -57.5 -140t-129.5 -49q-39 0 -66.5 10.5t-41.5 29.5l59 70q9 -11 23 -18.5t36 -7.5q35 0 58.5 24.5t28.5 75.5l4 39l-181 334l-8 17l-36 -359h-85l51 497h85l183 -336l10 -22l37 358h85z" />
    <glyph glyph-name="eng.ss01" horiz-adv-x="520" 
d="M324 494q78 0 115 -49t27 -140l-32 -305l-3 -26q-9 -91 -54.5 -140t-132.5 -49q-39 0 -66.5 10.5t-41.5 29.5l59 70q9 -11 25.5 -18.5t34.5 -7.5q38 0 59 24t28 75l4 32l32 304q6 56 -16 85.5t-69 29.5q-51 0 -85.5 -36t-40.5 -94l-30 -289h-88l39 373q3 26 -5 37t-29 11
l7 64q5 2 16 3t23 1q38 0 54.5 -22t14.5 -64v-3q24 46 64 70t91 24z" />
    <glyph glyph-name="eogonek.sc" horiz-adv-x="458" 
d="M180 418l-14 -126h218l-9 -80h-217l-14 -133h254l-8 -79q-30 -10 -50.5 -34.5t-20.5 -53.5q0 -32 29 -32q10 0 18 3.5t13 7.5l23 -46q-13 -13 -33 -20t-43 -7q-42 0 -63.5 19.5t-21.5 55.5q0 29 15.5 56.5t42.5 50.5h-252l52 497h343l-8 -79h-254z" />
    <glyph glyph-name="eogonek.ss01" horiz-adv-x="468" 
d="M127 229v-23q0 -71 29 -107.5t84 -36.5q41 0 68 15t52 50l51 -44q-21 -32 -50 -55t-71 -33q-19 -14 -30.5 -33t-11.5 -41q0 -32 29 -32q10 0 18 3.5t13 7.5l23 -46q-13 -13 -33 -20t-43 -7q-42 0 -63.5 19.5t-21.5 55.5q0 23 10 45t27 42q-81 8 -125.5 63.5t-44.5 149.5
q0 65 15.5 118.5t45 92t72.5 60t98 21.5q78 0 123 -48t45 -135q0 -20 -2 -42.5t-6 -39.5h-301zM261 421q-29 0 -50.5 -10t-36.5 -27t-24.5 -39.5t-14.5 -46.5h214q6 54 -14.5 88.5t-73.5 34.5z" />
    <glyph glyph-name="eth.sc" horiz-adv-x="594" 
d="M295 497q50 0 94 -12t76.5 -38.5t51 -67.5t18.5 -99q0 -76 -25.5 -129.5t-66.5 -87t-92 -48.5t-101 -15h-172l22 211h-73l8 77h73l22 209h165zM251 76q85 0 136 48t51 145q0 74 -39.5 113t-115.5 39h-72l-14 -133h112l-8 -77h-112l-14 -135h76z" />
    <glyph glyph-name="exclam.sc" horiz-adv-x="226" 
d="M95 497h92l-49 -350h-71zM85 -12q-19 0 -31.5 13t-12.5 32q0 21 17 37t37 16t32.5 -13.5t12.5 -31.5q0 -22 -16 -37.5t-39 -15.5z" />
    <glyph glyph-name="exclamdown.sc" horiz-adv-x="233" 
d="M148 504q19 0 31.5 -13t12.5 -32q0 -21 -17 -37t-37 -16t-32.5 13.5t-12.5 31.5q0 22 16 37.5t39 15.5zM138 -5h-92l49 350h71z" />
    <glyph glyph-name="f.sc" horiz-adv-x="436" 
d="M99 497h335l-9 -84h-246l-14 -138h206l-9 -83h-206l-20 -192h-89z" />
    <glyph glyph-name="fi.sc" horiz-adv-x="669" 
d="M99 497h335l-9 -84h-246l-14 -138h206l-9 -83h-206l-20 -192h-89zM535 497h89l-52 -497h-89z" />
    <glyph glyph-name="five.dnom" horiz-adv-x="352" 
d="M132 -11q-46 0 -77.5 15t-51.5 50l53 37q17 -25 34.5 -34t44.5 -9q40 0 60 20.5t20 58.5q0 64 -58 64q-26 0 -44 -8.5t-31 -20.5h-57l23 219h239l-6 -60h-182l-11 -102q13 11 32.5 19.5t51.5 8.5q51 0 79.5 -30t28.5 -84q0 -67 -41 -105.5t-107 -38.5z" />
    <glyph glyph-name="five.numr" horiz-adv-x="352" 
d="M132 311q-46 0 -77.5 15t-51.5 50l53 37q17 -25 34.5 -34t44.5 -9q40 0 60 20.5t20 58.5q0 64 -58 64q-26 0 -44 -8.5t-31 -20.5h-57l23 219h239l-6 -60h-182l-11 -102q13 11 32.5 19.5t51.5 8.5q51 0 79.5 -30t28.5 -84q0 -67 -41 -105.5t-107 -38.5z" />
    <glyph glyph-name="five.osf" horiz-adv-x="509" 
d="M212 -200q-77 0 -127.5 30t-79.5 95l79 43q21 -46 53.5 -68.5t80.5 -22.5q67 0 109 42.5t42 127.5q0 65 -31 97t-85 32q-46 0 -77 -16.5t-51 -34.5h-83l39 371h393l-8 -79h-311l-23 -219q29 28 63.5 41.5t82.5 13.5q86 0 134 -51t48 -145q0 -60 -17.5 -107.5t-50 -80.5
t-78 -51t-102.5 -18z" />
    <glyph glyph-name="five.sc" horiz-adv-x="460" 
d="M201 -5q-72 0 -115.5 27t-63.5 73l75 43q14 -35 43.5 -51.5t69.5 -16.5q59 0 90.5 26.5t31.5 77.5q0 39 -24.5 59t-66.5 20q-35 0 -61.5 -10.5t-43.5 -24.5h-79l29 279h339l-8 -76h-263l-13 -130q24 19 57 28t71 9q72 0 110.5 -36t38.5 -103q0 -91 -56.5 -142.5
t-160.5 -51.5z" />
    <glyph glyph-name="five.sinf" horiz-adv-x="338" 
d="M132 -144q-46 0 -77.5 15t-51.5 50l53 37q17 -25 34.5 -34t44.5 -9q40 0 60 20.5t20 58.5q0 64 -58 64q-26 0 -44 -8.5t-31 -20.5h-57l23 219h239l-6 -60h-182l-11 -102q13 11 32.5 19.5t51.5 8.5q51 0 79.5 -30t28.5 -84q0 -67 -41 -105.5t-107 -38.5z" />
    <glyph glyph-name="five.sups" horiz-adv-x="352" 
d="M132 376q-46 0 -77.5 15t-51.5 50l53 37q17 -25 34.5 -34t44.5 -9q40 0 60 20.5t20 58.5q0 64 -58 64q-26 0 -44 -8.5t-31 -20.5h-57l23 219h239l-6 -60h-182l-11 -102q13 11 32.5 19.5t51.5 8.5q51 0 79.5 -30t28.5 -84q0 -67 -41 -105.5t-107 -38.5z" />
    <glyph glyph-name="fiveeighths.alt" horiz-adv-x="612" 
d="M153 326q-23 0 -39.5 5.5t-27.5 13t-17 14t-8 8.5l38 42q3 -2 17 -14t43 -12q24 0 37.5 12.5t13.5 28.5q0 14 -10 23.5t-30 9.5t-31.5 -9t-13.5 -11h-51l17 165h181l-5 -52h-126l-6 -56q2 2 15 8t35 6q42 0 64.5 -21t22.5 -59q0 -42 -29.5 -72t-89.5 -30zM490 600h73
l-403 -501h-76zM446 75q-103 0 -103 67q0 21 13 42t42 32q-16 9 -22.5 23.5t-6.5 31.5q0 37 28.5 59.5t76.5 22.5q44 0 67.5 -18.5t23.5 -48.5q0 -23 -12.5 -39t-28.5 -24q20 -8 30 -24t10 -36q0 -40 -33.5 -64t-84.5 -24zM481 240q10 3 16.5 14t6.5 22q0 14 -10 21t-26 7
q-38 0 -38 -30q0 -18 17 -23zM451 121q24 0 37.5 9.5t13.5 26.5q0 22 -27 29l-37 10q-14 -5 -24.5 -17t-10.5 -26q0 -32 48 -32z" />
    <glyph glyph-name="fl.sc" horiz-adv-x="838" 
d="M99 497h335l-9 -84h-246l-14 -138h206l-9 -83h-206l-20 -192h-89zM535 497h89l-44 -418h221l-8 -79h-310z" />
    <glyph glyph-name="four.dnom" horiz-adv-x="362" 
d="M177 84h-182l6 49l147 249h73l-141 -239h106l9 87h66l-9 -87h48l-7 -59h-48l-8 -84h-68z" />
    <glyph glyph-name="four.numr" horiz-adv-x="362" 
d="M176 402h-182l6 49l147 249h73l-141 -239h106l9 87h66l-9 -87h48l-7 -59h-48l-8 -84h-68z" />
    <glyph glyph-name="four.osf" horiz-adv-x="551" 
d="M513 77l-8 -77h-97l-17 -158h-85l17 158h-327l8 77l353 420h104l-45 -420h97zM330 77l38 323l-267 -323h229z" />
    <glyph glyph-name="four.sc" horiz-adv-x="459" 
d="M259 104h-248l7 70l225 323h88l-223 -323h161l12 111h81l-12 -111h77l-7 -70h-77l-11 -104h-84z" />
    <glyph glyph-name="four.sinf" horiz-adv-x="349" 
d="M177 -53h-182l6 49l147 249h73l-141 -239h106l9 87h66l-9 -87h48l-7 -59h-48l-8 -84h-68z" />
    <glyph glyph-name="four.sups" horiz-adv-x="362" 
d="M177 467h-182l6 49l147 249h73l-141 -239h106l9 87h66l-9 -87h48l-7 -59h-48l-8 -84h-68z" />
    <glyph glyph-name="g.sc" horiz-adv-x="525" 
d="M263 -12q-112 0 -168 58t-56 167q0 68 19.5 122.5t55 93t85.5 59.5t112 21q85 0 129 -34.5t44 -94.5q0 -5 -1 -19.5t-7 -27.5h-82q1 4 1 8t1 13q3 38 -20.5 59.5t-68.5 21.5q-81 0 -126.5 -56.5t-45.5 -162.5q0 -76 34 -116t105 -40q38 0 65.5 7.5t41.5 18.5l10 92h-115
l8 76h197l-21 -201q-29 -26 -77 -45.5t-120 -19.5z" />
    <glyph glyph-name="g.ss01" horiz-adv-x="489" 
d="M190 -240q-109 0 -155.5 32.5t-46.5 88.5q0 28 9 49t22.5 36.5t29 25t28.5 15.5q-21 9 -36.5 27t-15.5 50q0 40 23 63t56 35q-17 19 -30.5 44t-13.5 76q0 45 16 80t43.5 59.5t65.5 37.5t82 13q26 0 48.5 -4.5t36.5 -10.5q15 0 30.5 4.5t28 15t22 29.5t12.5 47l76 -17
q-4 -37 -17 -59.5t-30 -35.5t-34.5 -18.5t-31.5 -7.5q17 -19 29 -48t12 -68q0 -91 -55 -139t-152 -48q-29 0 -52 4t-31 6q-23 0 -35.5 -12.5t-12.5 -29.5q0 -22 16.5 -30.5t47.5 -8.5h115q83 0 123 -33.5t40 -96.5q0 -37 -15 -68.5t-47 -54t-81.5 -35.5t-119.5 -13zM251 202
q60 0 87.5 32.5t27.5 84.5q0 50 -27.5 76t-77.5 26q-57 0 -86.5 -31.5t-29.5 -85.5q0 -48 26.5 -75t79.5 -27zM201 -174q164 0 164 90q0 34 -19 50t-61 16h-99q-59 0 -85.5 -24.5t-26.5 -59.5q0 -38 29 -55t98 -17z" />
    <glyph glyph-name="gbreve.sc" horiz-adv-x="525" 
d="M308 581q-34 0 -56 10.5t-34.5 29t-16 43.5t-0.5 53h68q-7 -67 46 -67q54 0 61 67h68q-3 -28 -12.5 -53t-26 -43.5t-40.5 -29t-57 -10.5zM263 -12q-112 0 -168 58t-56 167q0 68 19.5 122.5t55 93t85.5 59.5t112 21q85 0 129 -34.5t44 -94.5q0 -5 -1 -19.5t-7 -27.5h-82
q1 4 1 8t1 13q3 38 -20.5 59.5t-68.5 21.5q-81 0 -126.5 -56.5t-45.5 -162.5q0 -76 34 -116t105 -40q38 0 65.5 7.5t41.5 18.5l10 92h-115l8 76h197l-21 -201q-29 -26 -77 -45.5t-120 -19.5z" />
    <glyph glyph-name="gbreve.ss01" horiz-adv-x="489" 
d="M274 566q-34 0 -56 10.5t-34.5 29t-16 43.5t-0.5 53h68q-7 -67 46 -67q54 0 61 67h68q-3 -28 -12.5 -53t-26 -43.5t-40.5 -29t-57 -10.5zM190 -240q-109 0 -155.5 32.5t-46.5 88.5q0 28 9 49t22.5 36.5t29 25t28.5 15.5q-21 9 -36.5 27t-15.5 50q0 40 23 63t56 35
q-17 19 -30.5 44t-13.5 76q0 45 16 80t43.5 59.5t65.5 37.5t82 13q26 0 48.5 -4.5t36.5 -10.5q15 0 30.5 4.5t28 15t22 29.5t12.5 47l76 -17q-4 -37 -17 -59.5t-30 -35.5t-34.5 -18.5t-31.5 -7.5q17 -19 29 -48t12 -68q0 -91 -55 -139t-152 -48q-29 0 -52 4t-31 6
q-23 0 -35.5 -12.5t-12.5 -29.5q0 -22 16.5 -30.5t47.5 -8.5h115q83 0 123 -33.5t40 -96.5q0 -37 -15 -68.5t-47 -54t-81.5 -35.5t-119.5 -13zM251 202q60 0 87.5 32.5t27.5 84.5q0 50 -27.5 76t-77.5 26q-57 0 -86.5 -31.5t-29.5 -85.5q0 -48 26.5 -75t79.5 -27zM201 -174
q164 0 164 90q0 34 -19 50t-61 16h-99q-59 0 -85.5 -24.5t-26.5 -59.5q0 -38 29 -55t98 -17z" />
    <glyph glyph-name="gcaron.sc" horiz-adv-x="525" 
d="M193 741h78l43 -108l64 108h77l-103 -174h-92zM263 -12q-112 0 -168 58t-56 167q0 68 19.5 122.5t55 93t85.5 59.5t112 21q85 0 129 -34.5t44 -94.5q0 -5 -1 -19.5t-7 -27.5h-82q1 4 1 8t1 13q3 38 -20.5 59.5t-68.5 21.5q-81 0 -126.5 -56.5t-45.5 -162.5q0 -76 34 -116
t105 -40q38 0 65.5 7.5t41.5 18.5l10 92h-115l8 76h197l-21 -201q-29 -26 -77 -45.5t-120 -19.5z" />
    <glyph glyph-name="gcaron.ss01" horiz-adv-x="489" 
d="M159 726h78l43 -108l64 108h77l-103 -174h-92zM190 -240q-109 0 -155.5 32.5t-46.5 88.5q0 28 9 49t22.5 36.5t29 25t28.5 15.5q-21 9 -36.5 27t-15.5 50q0 40 23 63t56 35q-17 19 -30.5 44t-13.5 76q0 45 16 80t43.5 59.5t65.5 37.5t82 13q26 0 48.5 -4.5t36.5 -10.5
q15 0 30.5 4.5t28 15t22 29.5t12.5 47l76 -17q-4 -37 -17 -59.5t-30 -35.5t-34.5 -18.5t-31.5 -7.5q17 -19 29 -48t12 -68q0 -91 -55 -139t-152 -48q-29 0 -52 4t-31 6q-23 0 -35.5 -12.5t-12.5 -29.5q0 -22 16.5 -30.5t47.5 -8.5h115q83 0 123 -33.5t40 -96.5
q0 -37 -15 -68.5t-47 -54t-81.5 -35.5t-119.5 -13zM251 202q60 0 87.5 32.5t27.5 84.5q0 50 -27.5 76t-77.5 26q-57 0 -86.5 -31.5t-29.5 -85.5q0 -48 26.5 -75t79.5 -27zM201 -174q164 0 164 90q0 34 -19 50t-61 16h-99q-59 0 -85.5 -24.5t-26.5 -59.5q0 -38 29 -55t98 -17
z" />
    <glyph glyph-name="gcircumflex.sc" horiz-adv-x="525" 
d="M278 741h93l66 -174h-78l-42 108l-65 -108h-77zM263 -12q-112 0 -168 58t-56 167q0 68 19.5 122.5t55 93t85.5 59.5t112 21q85 0 129 -34.5t44 -94.5q0 -5 -1 -19.5t-7 -27.5h-82q1 4 1 8t1 13q3 38 -20.5 59.5t-68.5 21.5q-81 0 -126.5 -56.5t-45.5 -162.5
q0 -76 34 -116t105 -40q38 0 65.5 7.5t41.5 18.5l10 92h-115l8 76h197l-21 -201q-29 -26 -77 -45.5t-120 -19.5z" />
    <glyph glyph-name="gcircumflex.ss01" horiz-adv-x="489" 
d="M244 726h93l66 -174h-78l-42 108l-65 -108h-77zM190 -240q-109 0 -155.5 32.5t-46.5 88.5q0 28 9 49t22.5 36.5t29 25t28.5 15.5q-21 9 -36.5 27t-15.5 50q0 40 23 63t56 35q-17 19 -30.5 44t-13.5 76q0 45 16 80t43.5 59.5t65.5 37.5t82 13q26 0 48.5 -4.5t36.5 -10.5
q15 0 30.5 4.5t28 15t22 29.5t12.5 47l76 -17q-4 -37 -17 -59.5t-30 -35.5t-34.5 -18.5t-31.5 -7.5q17 -19 29 -48t12 -68q0 -91 -55 -139t-152 -48q-29 0 -52 4t-31 6q-23 0 -35.5 -12.5t-12.5 -29.5q0 -22 16.5 -30.5t47.5 -8.5h115q83 0 123 -33.5t40 -96.5
q0 -37 -15 -68.5t-47 -54t-81.5 -35.5t-119.5 -13zM251 202q60 0 87.5 32.5t27.5 84.5q0 50 -27.5 76t-77.5 26q-57 0 -86.5 -31.5t-29.5 -85.5q0 -48 26.5 -75t79.5 -27zM201 -174q164 0 164 90q0 34 -19 50t-61 16h-99q-59 0 -85.5 -24.5t-26.5 -59.5q0 -38 29 -55t98 -17
z" />
    <glyph glyph-name="gdotaccent.sc" horiz-adv-x="525" 
d="M312 594q-27 0 -41 16t-14 39q0 26 16.5 45.5t48.5 19.5q26 0 40 -16.5t14 -38.5q0 -26 -16.5 -45.5t-47.5 -19.5zM263 -12q-112 0 -168 58t-56 167q0 68 19.5 122.5t55 93t85.5 59.5t112 21q85 0 129 -34.5t44 -94.5q0 -5 -1 -19.5t-7 -27.5h-82q1 4 1 8t1 13
q3 38 -20.5 59.5t-68.5 21.5q-81 0 -126.5 -56.5t-45.5 -162.5q0 -76 34 -116t105 -40q38 0 65.5 7.5t41.5 18.5l10 92h-115l8 76h197l-21 -201q-29 -26 -77 -45.5t-120 -19.5z" />
    <glyph glyph-name="gdotaccent.ss01" horiz-adv-x="489" 
d="M278 579q-27 0 -41 16t-14 39q0 26 16.5 45.5t48.5 19.5q26 0 40 -16.5t14 -38.5q0 -26 -16.5 -45.5t-47.5 -19.5zM190 -240q-109 0 -155.5 32.5t-46.5 88.5q0 28 9 49t22.5 36.5t29 25t28.5 15.5q-21 9 -36.5 27t-15.5 50q0 40 23 63t56 35q-17 19 -30.5 44t-13.5 76
q0 45 16 80t43.5 59.5t65.5 37.5t82 13q26 0 48.5 -4.5t36.5 -10.5q15 0 30.5 4.5t28 15t22 29.5t12.5 47l76 -17q-4 -37 -17 -59.5t-30 -35.5t-34.5 -18.5t-31.5 -7.5q17 -19 29 -48t12 -68q0 -91 -55 -139t-152 -48q-29 0 -52 4t-31 6q-23 0 -35.5 -12.5t-12.5 -29.5
q0 -22 16.5 -30.5t47.5 -8.5h115q83 0 123 -33.5t40 -96.5q0 -37 -15 -68.5t-47 -54t-81.5 -35.5t-119.5 -13zM251 202q60 0 87.5 32.5t27.5 84.5q0 50 -27.5 76t-77.5 26q-57 0 -86.5 -31.5t-29.5 -85.5q0 -48 26.5 -75t79.5 -27zM201 -174q164 0 164 90q0 34 -19 50
t-61 16h-99q-59 0 -85.5 -24.5t-26.5 -59.5q0 -38 29 -55t98 -17z" />
    <glyph glyph-name="germandbls.sc" horiz-adv-x="532" 
d="M343 279q79 -13 109.5 -48.5t30.5 -82.5q0 -76 -50 -115.5t-136 -39.5q-52 0 -84.5 11t-51.5 32l55 64q17 -16 37.5 -24t52.5 -8q47 0 68 20t21 52q0 24 -19 43t-67 27q-14 2 -29 3.5t-34 2.5l5 69l136 121q-17 8 -38 11.5t-50 3.5q-24 0 -47.5 -7t-42.5 -21.5t-32 -37.5
t-16 -55l-31 -300h-89l33 309q5 48 25 84.5t51 60.5t70.5 36t84.5 12q66 0 108 -14.5t68 -34.5l-7 -59z" />
    <glyph glyph-name="grave.case" horiz-adv-x="263" 
d="M106 876h114l66 -134h-85z" />
    <glyph glyph-name="gravecomb.case" 
d="M-157 876h114l66 -134h-85z" />
    <glyph glyph-name="h.sc" horiz-adv-x="551" 
d="M99 497h89l-21 -206h229l21 206h89l-52 -497h-89l22 208h-229l-22 -208h-89z" />
    <glyph glyph-name="h.ss01" horiz-adv-x="510" 
d="M116 726h88l-32 -310q18 31 53.5 54.5t88.5 23.5q44 0 73 -15t46 -40.5t22 -60t1 -73.5l-32 -305h-88l32 309q5 48 -15 79t-70 31q-28 0 -50.5 -11.5t-38 -29.5t-24.5 -40.5t-11 -43.5l-31 -294h-88z" />
    <glyph glyph-name="hbar.sc" horiz-adv-x="597" 
d="M573 351h-59l-37 -351h-89l22 208h-229l-22 -208h-89l37 351h-58l6 68h59l8 78h89l-8 -78h229l8 78h89l-8 -78h58zM425 351h-229l-6 -60h229z" />
    <glyph glyph-name="hbar.ss01" horiz-adv-x="510" 
d="M314 494q44 0 73 -15t46 -40.5t22 -60t1 -73.5l-32 -305h-88l32 309q5 48 -15 79t-70 31q-28 0 -50.5 -11.5t-38 -29.5t-24.5 -40.5t-11 -43.5l-31 -294h-88l60 569h-77l8 77h77l8 80h88l-8 -80h109l-8 -77h-109l-16 -153q18 31 53.5 54.5t88.5 23.5z" />
    <glyph glyph-name="hcircumflex.sc" horiz-adv-x="551" 
d="M281 741h93l66 -174h-78l-42 108l-65 -108h-77zM99 497h89l-21 -206h229l21 206h89l-52 -497h-89l22 208h-229l-22 -208h-89z" />
    <glyph glyph-name="hcircumflex.ss01" horiz-adv-x="510" 
d="M131 876h98l70 -134h-80l-47 74l-62 -74h-78zM116 726h88l-32 -310q18 31 53.5 54.5t88.5 23.5q44 0 73 -15t46 -40.5t22 -60t1 -73.5l-32 -305h-88l32 309q5 48 -15 79t-70 31q-28 0 -50.5 -11.5t-38 -29.5t-24.5 -40.5t-11 -43.5l-31 -294h-88z" />
    <glyph glyph-name="hungarumlaut.case" horiz-adv-x="395" 
d="M184 876h110l-108 -134h-78zM329 876h110l-108 -134h-77z" />
    <glyph glyph-name="i.loclTRK" horiz-adv-x="229" 
d="M149 579q-27 0 -41 16t-14 39q0 26 16.5 45.5t48.5 19.5q26 0 40 -16.5t14 -38.5q0 -26 -16.5 -45.5t-47.5 -19.5zM130 -3q-46 0 -65 27.5t-14 72.5l40 385h89l-39 -369q-3 -26 5 -37t30 -11l-7 -64q-5 -2 -16 -3t-23 -1z" />
    <glyph glyph-name="i.loclTRK.ss01" horiz-adv-x="222" 
d="M149 579q-27 0 -41 16t-14 39q0 26 16.5 45.5t48.5 19.5q26 0 40 -16.5t14 -38.5q0 -26 -16.5 -45.5t-47.5 -19.5zM93 482h88l-51 -482h-88z" />
    <glyph glyph-name="i.sc" horiz-adv-x="233" 
d="M99 497h89l-52 -497h-89z" />
    <glyph glyph-name="i.sc.loclTRK" horiz-adv-x="233" 
d="M156 594q-27 0 -41 16t-14 39q0 26 16.5 45.5t48.5 19.5q26 0 40 -16.5t14 -38.5q0 -26 -16.5 -45.5t-47.5 -19.5zM99 497h89l-52 -497h-89z" />
    <glyph glyph-name="i.ss01" horiz-adv-x="222" 
d="M149 579q-27 0 -41 16t-14 39q0 26 16.5 45.5t48.5 19.5q26 0 40 -16.5t14 -38.5q0 -26 -16.5 -45.5t-47.5 -19.5zM93 482h88l-51 -482h-88z" />
    <glyph glyph-name="iacute.sc" horiz-adv-x="233" 
d="M195 741h107l-127 -174h-78zM99 497h89l-52 -497h-89z" />
    <glyph glyph-name="iacute.ss01" horiz-adv-x="222" 
d="M188 726h107l-127 -174h-78zM93 482h88l-51 -482h-88z" />
    <glyph glyph-name="ibreve.sc" horiz-adv-x="233" 
d="M152 581q-34 0 -56 10.5t-34.5 29t-16 43.5t-0.5 53h68q-7 -67 46 -67q54 0 61 67h68q-3 -28 -12.5 -53t-26 -43.5t-40.5 -29t-57 -10.5zM99 497h89l-52 -497h-89z" />
    <glyph glyph-name="ibreve.ss01" horiz-adv-x="222" 
d="M145 566q-34 0 -56 10.5t-34.5 29t-16 43.5t-0.5 53h68q-7 -67 46 -67q54 0 61 67h68q-3 -28 -12.5 -53t-26 -43.5t-40.5 -29t-57 -10.5zM93 482h88l-51 -482h-88z" />
    <glyph glyph-name="icircumflex.sc" horiz-adv-x="233" 
d="M122 741h93l66 -174h-78l-42 108l-65 -108h-77zM99 497h89l-52 -497h-89z" />
    <glyph glyph-name="icircumflex.ss01" horiz-adv-x="222" 
d="M115 726h93l66 -174h-78l-42 108l-65 -108h-77zM93 482h88l-51 -482h-88z" />
    <glyph glyph-name="idieresis.sc" horiz-adv-x="233" 
d="M67 595q-27 0 -40.5 15.5t-13.5 38.5q0 25 16 44t48 19q26 0 39 -16t13 -38q0 -26 -16 -44.5t-46 -18.5zM244 595q-27 0 -40.5 15.5t-13.5 38.5q0 25 16 44t48 19q26 0 39 -16t13 -38q0 -26 -16 -44.5t-46 -18.5zM99 497h89l-52 -497h-89z" />
    <glyph glyph-name="idieresis.ss01" horiz-adv-x="222" 
d="M60 580q-27 0 -40.5 15.5t-13.5 38.5q0 25 16 44t48 19q26 0 39 -16t13 -38q0 -26 -16 -44.5t-46 -18.5zM237 580q-27 0 -40.5 15.5t-13.5 38.5q0 25 16 44t48 19q26 0 39 -16t13 -38q0 -26 -16 -44.5t-46 -18.5zM93 482h88l-51 -482h-88z" />
    <glyph glyph-name="igrave.sc" horiz-adv-x="233" 
d="M18 741h104l63 -174h-76zM99 497h89l-52 -497h-89z" />
    <glyph glyph-name="igrave.ss01" horiz-adv-x="222" 
d="M11 726h104l63 -174h-76zM93 482h88l-51 -482h-88z" />
    <glyph glyph-name="ij.sc" horiz-adv-x="618" 
d="M99 497h89l-52 -497h-89zM360 -12q-50 0 -82.5 17t-49.5 40l62 64q14 -17 32 -28.5t46 -11.5q38 0 59.5 22t26.5 63l36 343h89l-36 -341q-8 -81 -55 -124.5t-128 -43.5z" />
    <glyph glyph-name="ij.ss01" horiz-adv-x="447" 
d="M149 579q-27 0 -41 16t-14 39q0 26 16.5 45.5t48.5 19.5q26 0 40 -16.5t14 -38.5q0 -26 -16.5 -45.5t-47.5 -19.5zM373 579q-27 0 -41 16t-14 39q0 26 16.5 45.5t48.5 19.5q26 0 40 -16.5t14 -38.5q0 -26 -16.5 -45.5t-47.5 -19.5zM93 482h88l-51 -482h-88zM170 -247
q-23 0 -39 4.5t-26 9.5q-12 6 -20 14l33 61q6 -4 13 -8q7 -3 16.5 -5t21.5 -2q81 0 93 114l57 541h86l-57 -545q-9 -86 -51.5 -135t-126.5 -49z" />
    <glyph glyph-name="ijacute" horiz-adv-x="472" 
d="M191 726h107l-127 -174h-78zM431 726h107l-127 -174h-78zM130 -3q-46 0 -65 27.5t-14 72.5l40 385h89l-39 -369q-3 -26 5 -37t30 -11l-7 -64q-5 -2 -16 -3t-23 -1zM177 -247q-23 0 -39 4.5t-26 9.5q-12 6 -20 14l33 61q6 -4 13 -8q7 -3 16.5 -5t21.5 -2q81 0 93 114
l57 541h86l-57 -545q-9 -86 -51.5 -135t-126.5 -49z" />
    <glyph glyph-name="imacron.sc" horiz-adv-x="233" 
d="M41 686h247l-8 -71h-247zM99 497h89l-52 -497h-89z" />
    <glyph glyph-name="imacron.ss01" horiz-adv-x="222" 
d="M34 671h247l-8 -71h-247zM93 482h88l-51 -482h-88z" />
    <glyph glyph-name="iogonek.sc" horiz-adv-x="233" 
d="M94 -120q10 0 18 3.5t13 7.5l23 -46q-13 -13 -33 -20t-43 -7q-42 0 -63.5 19.5t-21.5 55.5q0 30 16 58t44 51l52 495h89l-52 -497q-30 -10 -50.5 -34.5t-20.5 -53.5q0 -32 29 -32z" />
    <glyph glyph-name="iogonek.ss01" horiz-adv-x="222" 
d="M159 699q26 0 40 -16.5t14 -38.5q0 -26 -16.5 -45.5t-47.5 -19.5q-27 0 -41 16t-14 39q0 26 16.5 45.5t48.5 19.5zM130 0q-30 -10 -50.5 -34.5t-20.5 -53.5q0 -32 29 -32q10 0 18 3.5t13 7.5l23 -46q-13 -13 -33 -20t-43 -7q-42 0 -63.5 19.5t-21.5 55.5q0 30 16.5 58.5
t44.5 51.5l51 479h88z" />
    <glyph glyph-name="itilde.sc" horiz-adv-x="233" 
d="M13 587q-6 17 -6 39q0 33 21 56.5t64 23.5q21 0 37.5 -6t31 -13t27 -13t24.5 -6q26 0 26 27q0 10 -4 18h66q6 -15 6 -36q0 -34 -21 -58.5t-65 -24.5q-23 0 -40.5 6t-31.5 13t-25 13t-21 6q-27 0 -27 -27q0 -10 4 -18h-66zM99 497h89l-52 -497h-89z" />
    <glyph glyph-name="itilde.ss01" horiz-adv-x="222" 
d="M6 572q-6 17 -6 39q0 33 21 56.5t64 23.5q21 0 37.5 -6t31 -13t27 -13t24.5 -6q26 0 26 27q0 10 -4 18h66q6 -15 6 -36q0 -34 -21 -58.5t-65 -24.5q-23 0 -40.5 6t-31.5 13t-25 13t-21 6q-27 0 -27 -27q0 -10 4 -18h-66zM93 482h88l-51 -482h-88z" />
    <glyph glyph-name="j.sc" horiz-adv-x="385" 
d="M127 -12q-50 0 -82.5 17t-49.5 40l62 64q14 -17 32 -28.5t46 -11.5q38 0 59.5 22t26.5 63l36 343h89l-36 -341q-8 -81 -55 -124.5t-128 -43.5z" />
    <glyph glyph-name="jcircumflex.sc" horiz-adv-x="385" 
d="M277 741h93l66 -174h-78l-42 108l-65 -108h-77zM127 -12q-50 0 -82.5 17t-49.5 40l62 64q14 -17 32 -28.5t46 -11.5q38 0 59.5 22t26.5 63l36 343h89l-36 -341q-8 -81 -55 -124.5t-128 -43.5z" />
    <glyph glyph-name="k.sc" horiz-adv-x="516" 
d="M330 243q24 -20 36 -49t22.5 -56t25.5 -46t44 -19h19l-8 -76q-2 -1 -14 -2.5t-30 -1.5q-40 0 -63 16t-37 40t-22.5 52t-20.5 52t-31.5 40t-54.5 16h-38l-22 -209h-89l52 497h89l-22 -213h48q26 0 55 11t55 36t45.5 65.5t25.5 100.5h88q-10 -91 -51 -155.5t-102 -98.5z
" />
    <glyph glyph-name="k.ss01" horiz-adv-x="464" 
d="M360 107q15 -27 26.5 -34t31.5 -7h10l-7 -63q-1 0 -11.5 -3t-25.5 -3q-21 0 -36 4.5t-25.5 13.5t-19.5 22.5t-18 31.5l-81 155l-59 -57l-17 -167h-88l76 726h88l-50 -458l213 214h104l-209 -202z" />
    <glyph glyph-name="kgreenlandic.sc" horiz-adv-x="516" 
d="M330 243q24 -20 36 -49t22.5 -56t25.5 -46t44 -19h19l-8 -76q-2 -1 -14 -2.5t-30 -1.5q-40 0 -63 16t-37 40t-22.5 52t-20.5 52t-31.5 40t-54.5 16h-38l-22 -209h-89l52 497h89l-22 -213h48q26 0 55 11t55 36t45.5 65.5t25.5 100.5h88q-10 -91 -51 -155.5t-102 -98.5z
" />
    <glyph glyph-name="kgreenlandic.ss01" horiz-adv-x="464" 
d="M360 107q15 -27 26.5 -34t31.5 -7h10l-7 -63q-1 0 -11.5 -3t-25.5 -3q-21 0 -36 4.5t-25.5 13.5t-19.5 22.5t-18 31.5l-81 155l-59 -57l-17 -167h-88l50 482h88l-24 -214l213 214h104l-209 -202z" />
    <glyph glyph-name="l.sc" horiz-adv-x="402" 
d="M99 497h89l-44 -418h221l-8 -79h-310z" />
    <glyph glyph-name="lacute.sc" horiz-adv-x="402" 
d="M209 741h107l-127 -174h-78zM99 497h89l-44 -418h221l-8 -79h-310z" />
    <glyph glyph-name="lcaron.sc" horiz-adv-x="427" 
d="M272 366q21 7 35.5 20t16.5 27q-47 12 -47 55q0 29 18 45.5t44 16.5t42.5 -17.5t16.5 -49.5q0 -21 -8 -43t-22.5 -41t-33.5 -33.5t-41 -20.5zM99 497h89l-44 -418h221l-8 -79h-310z" />
    <glyph glyph-name="ldot.sc" horiz-adv-x="436" 
d="M99 497h89l-44 -418h221l-8 -79h-310zM335 234q-25 0 -40 14.5t-15 39.5q0 26 16.5 44.5t45.5 18.5q24 0 39 -15t15 -40q0 -26 -15.5 -44t-45.5 -18z" />
    <glyph glyph-name="lslash.sc" horiz-adv-x="422" 
d="M385 79l-8 -79h-310l18 170l-48 -27l-26 58l82 46l26 250h89l-21 -197l93 52l27 -57l-128 -72l-15 -144h221z" />
    <glyph glyph-name="m.sc" horiz-adv-x="624" 
d="M99 497h90l118 -326l187 326h85l-52 -497h-82l38 340l-15 -30l-142 -247h-65l-87 249l-9 29l-36 -341h-82z" />
    <glyph glyph-name="m.ss01" horiz-adv-x="813" 
d="M88 373q3 26 -5 37t-29 11l7 64q5 2 16 3t23 1q72 0 69 -86v-4q9 17 22 34t32 30.5t43.5 22t56.5 8.5q60 0 93 -27t44 -72q17 40 58.5 69.5t97.5 29.5q46 0 75.5 -15t46 -41t21 -60.5t0.5 -72.5l-32 -305h-88l32 304q5 51 -14 83t-71 32q-26 0 -47 -10.5t-36.5 -28
t-25 -40.5t-12.5 -48l-31 -292h-88l32 304q5 51 -15 83t-71 32q-29 0 -51.5 -11.5t-38 -30t-24 -41.5t-11.5 -46l-30 -290h-88z" />
    <glyph glyph-name="macron.case" horiz-adv-x="372" 
d="M121 842h257l-7 -73h-257z" />
    <glyph glyph-name="n.sc" horiz-adv-x="544" 
d="M99 497h85l183 -336l10 -22l37 358h85l-52 -497h-85l-185 342l-8 17l-36 -359h-85z" />
    <glyph glyph-name="n.ss01" horiz-adv-x="520" 
d="M88 373q3 26 -5 37t-29 11l7 64q5 2 16 3t23 1q38 0 54.5 -22t14.5 -64v-3q24 46 64 70t91 24q78 0 115 -49t27 -140l-32 -305h-88l32 304q6 56 -16 85.5t-69 29.5q-51 0 -85.5 -36t-40.5 -94l-30 -289h-88z" />
    <glyph glyph-name="nacute.sc" horiz-adv-x="544" 
d="M349 741h107l-127 -174h-78zM99 497h85l183 -336l10 -22l37 358h85l-52 -497h-85l-185 342l-8 17l-36 -359h-85z" />
    <glyph glyph-name="nacute.ss01" horiz-adv-x="520" 
d="M339 726h107l-127 -174h-78zM88 373q3 26 -5 37t-29 11l7 64q5 2 16 3t23 1q38 0 54.5 -22t14.5 -64v-3q24 46 64 70t91 24q78 0 115 -49t27 -140l-32 -305h-88l32 304q6 56 -16 85.5t-69 29.5q-51 0 -85.5 -36t-40.5 -94l-30 -289h-88z" />
    <glyph glyph-name="napostrophe.sc" horiz-adv-x="633" 
d="M43 569q15 5 26 11t19 14t8 19q-24 0 -41 17t-17 43q0 24 16.5 41.5t41.5 17.5q26 0 45.5 -17.5t19.5 -51.5q0 -42 -14 -68.5t-31.5 -42t-32 -21l-14.5 -5.5zM166 497h85l183 -336l10 -22l37 358h85l-52 -497h-85l-185 342l-8 17l-36 -359h-85z" />
    <glyph glyph-name="napostrophe.ss01" horiz-adv-x="610" 
d="M44 531q23 9 39 25.5t18 32.5q-23 0 -37 14.5t-14 36.5q0 28 18.5 47t44.5 19t41 -17t15 -44q0 -25 -7.5 -50t-21.5 -46t-32.5 -36.5t-41.5 -22.5zM178 373q3 26 -5 37t-29 11l7 64q5 2 16 3t23 1q38 0 53.5 -22t15.5 -64v-3q24 46 64 70t91 24q78 0 115 -49t27 -140
l-32 -305h-88l32 304q6 56 -16 85.5t-69 29.5q-51 0 -85.5 -36t-40.5 -94l-30 -289h-88z" />
    <glyph glyph-name="ncaron.sc" horiz-adv-x="544" 
d="M191 741h78l43 -108l64 108h77l-103 -174h-92zM99 497h85l183 -336l10 -22l37 358h85l-52 -497h-85l-185 342l-8 17l-36 -359h-85z" />
    <glyph glyph-name="ncaron.ss01" horiz-adv-x="520" 
d="M181 726h78l43 -108l64 108h77l-103 -174h-92zM88 373q3 26 -5 37t-29 11l7 64q5 2 16 3t23 1q38 0 54.5 -22t14.5 -64v-3q24 46 64 70t91 24q78 0 115 -49t27 -140l-32 -305h-88l32 304q6 56 -16 85.5t-69 29.5q-51 0 -85.5 -36t-40.5 -94l-30 -289h-88z" />
    <glyph glyph-name="nine.dnom" horiz-adv-x="375" 
d="M167 390q67 0 103.5 -43.5t36.5 -119.5q0 -110 -47.5 -172.5t-132.5 -64.5q-48 -1 -75.5 16.5t-41.5 44.5l55 39q21 -38 66 -38q39 0 68 28t37 97q-24 -21 -50 -28.5t-52 -7.5q-55 0 -85 31.5t-30 78.5q0 33 11.5 59t31.5 43.5t47 27t58 9.5zM84 259q0 -29 18 -45t49 -16
q30 0 51 11.5t37 25.5q-3 54 -24.5 74.5t-54.5 20.5q-38 0 -57 -21.5t-19 -49.5z" />
    <glyph glyph-name="nine.numr" horiz-adv-x="375" 
d="M167 711q67 0 103.5 -43.5t36.5 -119.5q0 -110 -47.5 -172.5t-132.5 -64.5q-48 -1 -75.5 16.5t-41.5 44.5l55 39q21 -38 66 -38q39 0 68 28t37 97q-24 -21 -50 -28.5t-52 -7.5q-55 0 -85 31.5t-30 78.5q0 33 11.5 59t31.5 43.5t47 27t58 9.5zM84 580q0 -29 18 -45t49 -16
q30 0 51 11.5t37 25.5q-3 54 -24.5 74.5t-54.5 20.5q-38 0 -57 -21.5t-19 -49.5z" />
    <glyph glyph-name="nine.osf" horiz-adv-x="542" 
d="M280 497q106 0 161.5 -71t55.5 -206q0 -109 -20.5 -190.5t-58 -136t-91 -81.5t-119.5 -27t-114.5 24.5t-72.5 75.5l70 51q23 -41 50 -58t77 -17q35 0 66.5 15.5t56.5 48t42.5 83.5t23.5 121q-38 -43 -80 -59.5t-93 -16.5q-42 0 -77 13t-60.5 38.5t-40 62.5t-14.5 85
q0 56 17 101t48.5 77t75.5 49.5t97 17.5zM261 133q54 0 91 24.5t58 51.5q-1 112 -38.5 162.5t-97.5 50.5q-63 0 -103.5 -41.5t-40.5 -117.5q0 -60 32 -95t99 -35z" />
    <glyph glyph-name="nine.sc" horiz-adv-x="477" 
d="M245 509q95 0 145 -55.5t50 -156.5q0 -75 -18 -132.5t-50 -97t-77 -59.5t-99 -20q-63 0 -103.5 21t-61.5 61l66 49q18 -33 41.5 -46t63.5 -13q59 0 100.5 42t50.5 139q-32 -32 -70 -45.5t-77 -13.5q-72 0 -116.5 37.5t-44.5 107.5q0 39 14 72.5t39.5 57.5t63 38t83.5 14z
M231 254q38 0 69.5 16.5t53.5 39.5q-5 67 -35 97t-78 30q-50 0 -80.5 -26.5t-30.5 -72.5q0 -39 24 -61.5t77 -22.5z" />
    <glyph glyph-name="nine.sinf" horiz-adv-x="360" 
d="M167 256q67 0 103.5 -43.5t36.5 -119.5q0 -110 -47.5 -172.5t-132.5 -64.5q-48 -1 -75.5 16.5t-41.5 44.5l55 39q21 -38 66 -38q39 0 68 28t37 97q-24 -21 -50 -28.5t-52 -7.5q-55 0 -85 31.5t-30 78.5q0 33 11.5 59t31.5 43.5t47 27t58 9.5zM84 125q0 -29 18 -45t49 -16
q30 0 51 11.5t37 25.5q-3 54 -24.5 74.5t-54.5 20.5q-38 0 -57 -21.5t-19 -49.5z" />
    <glyph glyph-name="nine.sups" horiz-adv-x="375" 
d="M167 776q67 0 103.5 -43.5t36.5 -119.5q0 -110 -47.5 -172.5t-132.5 -64.5q-48 -1 -75.5 16.5t-41.5 44.5l55 39q21 -38 66 -38q39 0 68 28t37 97q-24 -21 -50 -28.5t-52 -7.5q-55 0 -85 31.5t-30 78.5q0 33 11.5 59t31.5 43.5t47 27t58 9.5zM84 645q0 -29 18 -45t49 -16
q30 0 51 11.5t37 25.5q-3 54 -24.5 74.5t-54.5 20.5q-38 0 -57 -21.5t-19 -49.5z" />
    <glyph glyph-name="ntilde.sc" horiz-adv-x="544" 
d="M167 587q-6 17 -6 39q0 33 21 56.5t64 23.5q21 0 37.5 -6t31 -13t27 -13t24.5 -6q26 0 26 27q0 10 -4 18h66q6 -15 6 -36q0 -34 -21 -58.5t-65 -24.5q-23 0 -40.5 6t-31.5 13t-25 13t-21 6q-27 0 -27 -27q0 -10 4 -18h-66zM99 497h85l183 -336l10 -22l37 358h85l-52 -497
h-85l-185 342l-8 17l-36 -359h-85z" />
    <glyph glyph-name="ntilde.ss01" horiz-adv-x="520" 
d="M157 572q-6 17 -6 39q0 33 21 56.5t64 23.5q21 0 37.5 -6t31 -13t27 -13t24.5 -6q26 0 26 27q0 10 -4 18h66q6 -15 6 -36q0 -34 -21 -58.5t-65 -24.5q-23 0 -40.5 6t-31.5 13t-25 13t-21 6q-27 0 -27 -27q0 -10 4 -18h-66zM88 373q3 26 -5 37t-29 11l7 64q5 2 16 3t23 1
q38 0 54.5 -22t14.5 -64v-3q24 46 64 70t91 24q78 0 115 -49t27 -140l-32 -305h-88l32 304q6 56 -16 85.5t-69 29.5q-51 0 -85.5 -36t-40.5 -94l-30 -289h-88z" />
    <glyph glyph-name="o.sc" horiz-adv-x="565" 
d="M263 -12q-44 0 -84.5 12t-71.5 39t-49.5 71t-18.5 107q0 74 21.5 129t57.5 91t84 54t102 18q44 0 84.5 -12t71.5 -39.5t49.5 -71.5t18.5 -108q0 -74 -21 -128.5t-57.5 -90.5t-84.5 -53.5t-102 -17.5zM272 61q30 0 59 12.5t51.5 38.5t36 66t13.5 96q0 43 -11 73.5t-29 50
t-42.5 29t-51.5 9.5q-31 0 -60.5 -12.5t-52 -38.5t-36.5 -66.5t-14 -96.5q0 -84 39.5 -122.5t97.5 -38.5z" />
    <glyph glyph-name="oacute.sc" horiz-adv-x="565" 
d="M360 726h107l-127 -174h-78zM263 -12q-44 0 -84.5 12t-71.5 39t-49.5 71t-18.5 107q0 74 21.5 129t57.5 91t84 54t102 18q44 0 84.5 -12t71.5 -39.5t49.5 -71.5t18.5 -108q0 -74 -21 -128.5t-57.5 -90.5t-84.5 -53.5t-102 -17.5zM272 61q30 0 59 12.5t51.5 38.5t36 66
t13.5 96q0 43 -11 73.5t-29 50t-42.5 29t-51.5 9.5q-31 0 -60.5 -12.5t-52 -38.5t-36.5 -66.5t-14 -96.5q0 -84 39.5 -122.5t97.5 -38.5z" />
    <glyph glyph-name="obreve.sc" horiz-adv-x="565" 
d="M317 566q-34 0 -56 10.5t-34.5 29t-16 43.5t-0.5 53h68q-7 -67 46 -67q54 0 61 67h68q-3 -28 -12.5 -53t-26 -43.5t-40.5 -29t-57 -10.5zM263 -12q-44 0 -84.5 12t-71.5 39t-49.5 71t-18.5 107q0 74 21.5 129t57.5 91t84 54t102 18q44 0 84.5 -12t71.5 -39.5t49.5 -71.5
t18.5 -108q0 -74 -21 -128.5t-57.5 -90.5t-84.5 -53.5t-102 -17.5zM272 61q30 0 59 12.5t51.5 38.5t36 66t13.5 96q0 43 -11 73.5t-29 50t-42.5 29t-51.5 9.5q-31 0 -60.5 -12.5t-52 -38.5t-36.5 -66.5t-14 -96.5q0 -84 39.5 -122.5t97.5 -38.5z" />
    <glyph glyph-name="ocircumflex.sc" horiz-adv-x="565" 
d="M287 726h93l66 -174h-78l-42 108l-65 -108h-77zM263 -12q-44 0 -84.5 12t-71.5 39t-49.5 71t-18.5 107q0 74 21.5 129t57.5 91t84 54t102 18q44 0 84.5 -12t71.5 -39.5t49.5 -71.5t18.5 -108q0 -74 -21 -128.5t-57.5 -90.5t-84.5 -53.5t-102 -17.5zM272 61q30 0 59 12.5
t51.5 38.5t36 66t13.5 96q0 43 -11 73.5t-29 50t-42.5 29t-51.5 9.5q-31 0 -60.5 -12.5t-52 -38.5t-36.5 -66.5t-14 -96.5q0 -84 39.5 -122.5t97.5 -38.5z" />
    <glyph glyph-name="odieresis.sc" horiz-adv-x="565" 
d="M232 580q-27 0 -40.5 15.5t-13.5 38.5q0 25 16 44t48 19q26 0 39 -16t13 -38q0 -26 -16 -44.5t-46 -18.5zM409 580q-27 0 -40.5 15.5t-13.5 38.5q0 25 16 44t48 19q26 0 39 -16t13 -38q0 -26 -16 -44.5t-46 -18.5zM263 -12q-44 0 -84.5 12t-71.5 39t-49.5 71t-18.5 107
q0 74 21.5 129t57.5 91t84 54t102 18q44 0 84.5 -12t71.5 -39.5t49.5 -71.5t18.5 -108q0 -74 -21 -128.5t-57.5 -90.5t-84.5 -53.5t-102 -17.5zM272 61q30 0 59 12.5t51.5 38.5t36 66t13.5 96q0 43 -11 73.5t-29 50t-42.5 29t-51.5 9.5q-31 0 -60.5 -12.5t-52 -38.5
t-36.5 -66.5t-14 -96.5q0 -84 39.5 -122.5t97.5 -38.5z" />
    </font>
</defs>
</svg>
