<?xml version="1.0" standalone="no"?>
<!DOCTYPE svg PUBLIC "-//W3C//DTD SVG 1.1//EN" "http://www.w3.org/Graphics/SVG/1.1/DTD/svg11.dtd" >
<svg xmlns="http://www.w3.org/2000/svg" xmlns:xlink="http://www.w3.org/1999/xlink" version="1.1">
<metadata>
Created by FontForge 20170731 at Wed Jul  3 11:38:47 2019
 By Aleksey,,,
Copyright (c) 2017 by Daniel Hernandez. All rights reserved.
</metadata>
<defs>
<font id="AndesNeueAlt2-Bold" horiz-adv-x="0" >
  <font-face 
    font-family="AndesNeue Alt 2 Bold"
    font-weight="700"
    font-stretch="normal"
    units-per-em="1000"
    panose-1="0 0 8 0 0 0 0 0 0 0"
    ascent="750"
    descent="-250"
    x-height="482"
    cap-height="700"
    bbox="-709 -274 1351 1031"
    underline-thickness="50"
    underline-position="-150"
    unicode-range="U+000D-FB02"
  />
<missing-glyph horiz-adv-x="530" 
d="M480 730v-730h-430v730h430zM265 408l150 287h-300zM90 657v-584l153 292zM440 73v584l-152 -292zM115 35h300l-150 287z" />
    <glyph glyph-name="fi" unicode="fi" horiz-adv-x="572" 
d="M90 366h-70v116h71v32q0 101 50.5 159.5t146.5 58.5q35 0 57 -9l-19 -126q-9 5 -27 5q-30 0 -46.5 -19.5t-16.5 -53.5v-47h280v-482h-147v366h-133v-366h-146v366zM442 552q-37 0 -63 25t-26 63t27 64t62 26q36 0 62.5 -25.5t26.5 -64.5q0 -38 -25.5 -63t-63.5 -25z" />
    <glyph glyph-name="fl" unicode="fl" horiz-adv-x="582" 
d="M511 154q0 -20 8.5 -30.5t31.5 -10.5v-111q-7 -2 -17 -4q-8 -1 -20 -2t-27 -1q-122 0 -122 134v237h-129v-366h-146v366h-70v116h71v32q0 101 50.5 159.5t146.5 58.5q15 0 30 -2t26 -7l-18 -126q-5 2 -11 3.5t-16 1.5q-30 0 -46.5 -19t-16.5 -57v-44h129v244h146v-572z
" />
    <glyph glyph-name=".notdef" horiz-adv-x="530" 
d="M480 730v-730h-430v730h430zM265 408l150 287h-300zM90 657v-584l153 292zM440 73v584l-152 -292zM115 35h300l-150 287z" />
    <glyph glyph-name=".null" 
 />
    <glyph glyph-name=".null" 
 />
    <glyph glyph-name="nonmarkingreturn" unicode="&#xd;" horiz-adv-x="250" 
 />
    <glyph glyph-name="space" unicode=" " horiz-adv-x="194" 
 />
    <glyph glyph-name="exclam" unicode="!" horiz-adv-x="276" 
d="M58 700h164l-22 -484h-125zM136 -21q-34 0 -58.5 24t-24.5 58t24.5 58t58.5 24t58 -24t24 -58t-24 -58t-58 -24z" />
    <glyph glyph-name="quotedbl" unicode="&#x22;" horiz-adv-x="359" 
d="M41 786h116l-6 -223h-106zM203 786h116l-5 -223h-107z" />
    <glyph glyph-name="numbersign" unicode="#" horiz-adv-x="620" 
d="M118 116h-94l18 79h93l28 130h-84l18 79h83l19 88h103l-18 -88h111l20 88h103l-19 -88h97l-18 -79h-95l-29 -130h87l-18 -79h-85l-15 -68h-104l14 68h-111l-14 -68h-105zM351 195l27 130h-111l-28 -130h112z" />
    <glyph glyph-name="dollar" unicode="$" horiz-adv-x="610" 
d="M364 408q38 -8 76.5 -20t69 -34t49.5 -56t19 -86q0 -88 -57.5 -138.5t-156.5 -64.5v-118h-106v115q-81 5 -143.5 37.5t-91.5 74.5l93 99q50 -66 142 -81v157q-38 8 -76 20t-68.5 33.5t-49.5 55t-19 85.5q0 88 56.5 138t156.5 61v112h106v-113q40 -4 79 -18t67.5 -41
t42.5 -67.5t3 -98.5l-134 -1q9 42 -8 66.5t-50 33.5v-151zM192 495q0 -26 17 -40.5t49 -23.5v131q-66 -14 -66 -67zM364 135q67 12 67 68q0 29 -17.5 43.5t-49.5 24.5v-136z" />
    <glyph glyph-name="percent" unicode="%" horiz-adv-x="655" 
d="M150 423q-63 0 -95 38t-32 101q0 62 32 100.5t95 38.5q66 0 98.5 -38.5t32.5 -100.5q0 -63 -32.5 -101t-98.5 -38zM384 700h97l-210 -700h-99zM150 493q46 0 46 69q0 65 -46 65q-24 0 -34.5 -16.5t-10.5 -48.5q0 -34 10.5 -51.5t34.5 -17.5zM501 -2q-63 0 -95 38t-32 101
q0 62 32 100.5t95 38.5q66 0 98 -38.5t32 -100.5q0 -63 -32.5 -101t-97.5 -38zM501 68q24 0 34.5 17.5t10.5 51.5q0 32 -10.5 48.5t-34.5 16.5t-34.5 -16.5t-10.5 -48.5q0 -34 10.5 -51.5t34.5 -17.5z" />
    <glyph glyph-name="ampersand" unicode="&#x26;" horiz-adv-x="713" 
d="M649 -11q-67 23 -128 57q-82 -64 -212 -64q-59 0 -108.5 15t-85 43.5t-55 69.5t-19.5 94q0 63 30.5 116t84.5 88q-14 29 -21.5 58t-7.5 56q0 48 16 87t44.5 66.5t68.5 43t89 15.5q100 0 156 -50t56 -136q0 -21 -4.5 -44.5t-12.5 -37.5h-125q5 10 8 26.5t3 30.5
q0 40 -20 60.5t-55 20.5q-41 0 -62.5 -21.5t-21.5 -64.5q0 -49 27 -97.5t81 -102.5q19 -18 49 -45t69 -57q15 48 15 118h130q-1 -110 -38 -188q23 -13 47 -24t50 -19zM323 100q26 0 48 4t40 13q-33 24 -63 50.5t-58 53.5q-18 19 -37.5 41t-37.5 48q-17 -22 -24 -41t-7 -43
q0 -60 38 -93t101 -33z" />
    <glyph glyph-name="quotesingle" unicode="'" horiz-adv-x="197" 
d="M41 786h116l-6 -223h-106z" />
    <glyph glyph-name="parenleft" unicode="(" horiz-adv-x="311" 
d="M189 -244q-36 45 -65 100.5t-49 118.5t-31 130.5t-11 135.5q0 72 10.5 142.5t31 136t49.5 123.5t65 104l116 -56q-66 -98 -96 -209.5t-30 -240.5q0 -122 30 -226.5t96 -202.5z" />
    <glyph glyph-name="parenright" unicode=")" horiz-adv-x="311" 
d="M122 747q36 -44 65 -99.5t49.5 -118.5t31 -130.5t10.5 -136.5q0 -71 -10.5 -142t-31 -136.5t-49.5 -123.5t-65 -104l-116 56q66 98 96 209.5t30 240.5q0 123 -30 227t-96 202z" />
    <glyph glyph-name="asterisk" unicode="*" horiz-adv-x="467" 
d="M223 501l-69 -107l-84 61l99 100l-136 4l9 104l135 -38l-60 125l93 41l38 -138l72 114l83 -59l-96 -100l132 -4l-9 -104l-135 34l59 -121l-92 -39z" />
    <glyph glyph-name="plus" unicode="+" horiz-adv-x="457" 
d="M173 217h-144v104h144v141h105v-141h150v-104h-150v-159h-105v159z" />
    <glyph glyph-name="comma" unicode="," horiz-adv-x="247" 
d="M47 -96q12 7 24.5 17t23 22t17.5 25t7 26q-35 0 -60 24.5t-25 59.5t24.5 60.5t60.5 25.5q40 0 66 -26.5t26 -71.5t-9.5 -79t-26 -60.5t-39.5 -47t-50 -36.5z" />
    <glyph glyph-name="hyphen" unicode="-" horiz-adv-x="390" 
d="M50 324h290v-105h-290v105z" />
    <glyph glyph-name="period" unicode="." horiz-adv-x="236" 
d="M118 -6q-35 0 -60 24.5t-25 59.5t25 60.5t60 25.5t60 -25.5t25 -60.5t-25 -59.5t-60 -24.5z" />
    <glyph glyph-name="slash" unicode="/" horiz-adv-x="423" 
d="M300 706h107l-282 -934h-108z" />
    <glyph glyph-name="zero" unicode="0" horiz-adv-x="662" 
d="M329 -6q-74 0 -129 26t-91 73t-53.5 112.5t-17.5 143.5t18 144t54 113t90.5 73.5t128.5 26.5q76 0 131.5 -26.5t92 -73.5t54 -113t17.5 -144t-17.5 -143.5t-54 -112.5t-92 -73t-131.5 -26zM329 126q69 0 101 56t32 167q0 112 -32 168.5t-101 56.5q-67 0 -98 -56.5
t-31 -168.5q0 -111 31 -167t98 -56z" />
    <glyph glyph-name="one" unicode="1" horiz-adv-x="412" 
d="M189 491q-9 -10 -21.5 -18.5t-32 -15t-47.5 -10.5t-68 -4l-3 141q88 0 130 34.5t42 81.5h149v-700h-149v491z" />
    <glyph glyph-name="two" unicode="2" horiz-adv-x="588" 
d="M35 29q0 71 26 120.5t65 85.5t85 63t85 53.5t65 56t26 70.5q0 45 -26 70.5t-76 25.5q-30 0 -50 -9t-32.5 -23.5t-18 -31.5t-5.5 -32h-144q0 37 12.5 77t41.5 73.5t77 55.5t120 22q63 0 110 -16.5t78.5 -45.5t47.5 -70t16 -90q0 -58 -24 -101t-60 -76t-77.5 -57.5
t-77.5 -45t-60 -39.5t-24 -41v-3h340v-121h-520v29z" />
    <glyph glyph-name="three" unicode="3" horiz-adv-x="597" 
d="M289 -6q-94 0 -165 34.5t-104 110.5l112 72q44 -93 153 -93q59 0 88 23t29 66q0 18 -6 34t-21 28t-40 19t-62 7h-64v109h58q63 0 91 23.5t28 63.5q0 42 -27 63t-72 21q-42 0 -71 -22t-31 -68h-147q1 56 21 97.5t54.5 69t80.5 41t98 13.5q55 0 100.5 -13t78 -37.5
t50.5 -61t18 -83.5q0 -55 -29 -93.5t-78 -53.5q38 -9 62.5 -26.5t39 -41t20.5 -50t6 -53.5q0 -45 -19 -82t-54 -63t-85.5 -40t-112.5 -14z" />
    <glyph glyph-name="four" unicode="4" horiz-adv-x="593" 
d="M329 137h-311v121l244 442h156l-240 -442h159v146h140v-146h99v-121h-99v-137h-148v137z" />
    <glyph glyph-name="five" unicode="5" horiz-adv-x="604" 
d="M299 -7q-108 0 -172 41t-93 108l126 77q26 -53 62.5 -73.5t81.5 -20.5q56 0 87.5 27t31.5 81t-30.5 79t-76.5 25q-41 0 -68 -14t-47 -32h-142v409h475v-133h-339v-146q27 24 66.5 36t84.5 12q109 0 168 -60t59 -166q0 -118 -71.5 -184t-202.5 -66z" />
    <glyph glyph-name="six" unicode="6" horiz-adv-x="622" 
d="M372 428q55 0 95.5 -15t67 -42t39.5 -64.5t13 -82.5q0 -47 -16 -89t-49 -73.5t-82.5 -49.5t-115.5 -18q-145 0 -215 91.5t-70 253.5q0 86 19.5 154t57 115.5t93.5 72.5t129 25q43 0 83 -10t71 -32.5t50 -58.5t19 -88q0 -10 -1 -21t-4 -22h-136q3 14 3 28q0 41 -25 59.5
t-62 18.5q-31 0 -58 -11t-46.5 -37t-31 -68.5t-12.5 -105.5q40 38 88 54t96 16zM332 121q54 0 83 24.5t29 68.5q0 41 -26 64.5t-80 23.5q-43 0 -79 -17.5t-61 -46.5q15 -65 49 -91t85 -26z" />
    <glyph glyph-name="seven" unicode="7" horiz-adv-x="534" 
d="M113 0q0 80 17 145.5t43 119.5t56 97.5t56.5 79.5t45 66t20.5 56h-334v136h501v-64q0 -56 -19 -102.5t-47 -90.5t-61.5 -88.5t-61.5 -96.5t-47 -114.5t-19 -143.5h-150z" />
    <glyph glyph-name="eight" unicode="8" horiz-adv-x="606" 
d="M462 373q107 -52 107 -173q0 -48 -18.5 -86t-53.5 -64.5t-84 -41t-111 -14.5q-125 0 -196 49.5t-71 143.5q0 55 28 99t74 70q-32 26 -52.5 62.5t-20.5 84.5q0 46 17.5 83.5t49 64t75.5 41t98 14.5t99 -13t76.5 -37t49 -58.5t17.5 -77.5q0 -48 -21.5 -86t-62.5 -61z
M303 587q-41 0 -66.5 -20.5t-25.5 -60.5q0 -32 20.5 -50.5t49.5 -26.5l69 -19q26 15 37.5 39t11.5 50q0 44 -27 66t-69 22zM302 113q57 0 88.5 21t31.5 60q0 33 -17.5 51.5t-59.5 30.5l-108 32q-26 -18 -40.5 -42.5t-14.5 -54.5q0 -47 30 -72.5t90 -25.5z" />
    <glyph glyph-name="nine" unicode="9" horiz-adv-x="622" 
d="M296 706q144 0 215.5 -92t71.5 -258q0 -87 -20.5 -154.5t-59 -113.5t-92.5 -70t-122 -24q-90 0 -150 29t-92 82l100 87q29 -41 60 -56.5t80 -15.5q30 0 55.5 10t45.5 34t32.5 63t15.5 97q-69 -70 -183 -70q-48 0 -88 14t-69 41.5t-45 68t-16 93.5q0 49 17 91.5t50 74.5
t81.5 50.5t112.5 18.5zM289 378q42 0 76.5 18t63.5 47q-16 74 -54 105.5t-86 31.5q-51 0 -81 -27t-30 -75q0 -45 25.5 -72.5t85.5 -27.5z" />
    <glyph glyph-name="colon" unicode=":" horiz-adv-x="270" 
d="M135 412q-36 0 -60.5 24.5t-24.5 59.5t24.5 60.5t60.5 25.5q35 0 60 -25.5t25 -60.5t-25 -59.5t-60 -24.5zM135 -6q-36 0 -60.5 24.5t-24.5 59.5t24.5 60.5t60.5 25.5q35 0 60 -25.5t25 -60.5t-25 -59.5t-60 -24.5z" />
    <glyph glyph-name="semicolon" unicode=";" horiz-adv-x="260" 
d="M126 327q-37 0 -62 25t-25 62q0 36 25 61.5t62 25.5q36 0 61.5 -25.5t25.5 -61.5q0 -37 -25.5 -62t-61.5 -25zM57 -96q20 12 35 26q15 13 25.5 29t10.5 35q-35 0 -59.5 24.5t-24.5 59.5t24.5 60.5t59.5 25.5q36 0 64 -24.5t28 -73.5q0 -67 -19.5 -110t-42.5 -68
q-28 -30 -63 -45z" />
    <glyph glyph-name="less" unicode="&#x3c;" horiz-adv-x="424" 
d="M25 198v114l354 196v-125l-227 -128l227 -127v-126z" />
    <glyph glyph-name="equal" unicode="=" horiz-adv-x="509" 
d="M53 418h404v-104h-404v104zM53 206h404v-104h-404v104z" />
    <glyph glyph-name="greater" unicode="&#x3e;" horiz-adv-x="424" 
d="M45 130l227 127l-227 128v126l354 -197v-114l-354 -195v125z" />
    <glyph glyph-name="question" unicode="?" horiz-adv-x="496" 
d="M170 214q0 41 10 70t26 51t34.5 39.5t34.5 35t26.5 37t10.5 46.5q0 35 -18.5 54t-52.5 19q-35 0 -55 -21.5t-20 -59.5h-143q0 56 17 98t46.5 70.5t70 43t88.5 14.5q60 0 102 -17.5t68.5 -46t38.5 -64.5t12 -73q0 -41 -11.5 -71.5t-29 -54t-38 -42.5t-38 -38t-29 -40.5
t-12.5 -49.5h-138zM232 -23q-35 0 -59 24t-24 59t24 59.5t59 24.5t59.5 -24.5t24.5 -59.5t-24.5 -59t-59.5 -24z" />
    <glyph glyph-name="at" unicode="@" horiz-adv-x="902" 
d="M690 458q-15 -53 -28 -102t-23 -88t-16 -65.5t-6 -34.5q0 -31 27 -31q22 0 42 15t35 41t24 61.5t9 76.5q0 49 -14.5 90t-44.5 70.5t-75.5 46t-106.5 16.5q-75 0 -139 -28.5t-110 -78.5t-72 -117t-26 -145q0 -64 19.5 -111.5t54.5 -79t82.5 -47t102.5 -15.5q85 0 151.5 27
t107.5 61l66 -88q-24 -23 -57 -44t-75 -37.5t-91.5 -26t-105.5 -9.5q-85 0 -155.5 25.5t-121.5 72.5t-79 115.5t-28 153.5q0 103 35 192t99 155t153.5 103.5t198.5 37.5q79 0 144 -23t111.5 -66t72.5 -105.5t26 -141.5q0 -56 -17 -109.5t-49 -95.5t-78.5 -67.5t-105.5 -25.5
q-51 0 -79.5 20t-35.5 55q-23 -37 -56.5 -56.5t-78.5 -19.5q-28 0 -53 9.5t-43.5 30t-29.5 51.5t-11 74q0 57 18.5 104t50.5 81.5t74 53.5t89 19q42 0 66 -10.5t36 -23.5l9 34h107zM422 141q44 0 69.5 44.5t47.5 144.5q-2 7 -17.5 16t-42.5 9q-51 0 -82 -39t-31 -100
q0 -35 14 -55t42 -20z" />
    <glyph glyph-name="A" unicode="A" horiz-adv-x="664" 
d="M458 162h-252l-54 -162h-153l257 700h152l257 -700h-154zM420 277l-88 266l-88 -266h176z" />
    <glyph glyph-name="B" unicode="B" horiz-adv-x="635" 
d="M472 381q27 -8 51 -21.5t41.5 -35t28 -51.5t10.5 -70q0 -52 -20 -90.5t-54.5 -63.5t-81.5 -37t-102 -12h-272v700h265q112 0 172.5 -42.5t60.5 -133.5q0 -51 -27 -88.5t-72 -54.5zM221 412h95q57 0 82.5 24t25.5 65q0 43 -26 66.5t-81 23.5h-96v-179zM337 109
q57 0 87.5 23.5t30.5 75.5q0 51 -31 74t-85 23h-118v-196h116z" />
    <glyph glyph-name="C" unicode="C" horiz-adv-x="629" 
d="M352 -11q-72 0 -130.5 24t-99.5 70t-63 112t-22 151q0 84 22 151.5t63 115t99.5 73t130.5 25.5q50 0 94.5 -12.5t78 -38.5t53 -66t19.5 -94q0 -27 -8 -61h-138q3 12 4 19t1 19q0 47 -28.5 74.5t-79.5 27.5q-74 0 -115 -58t-41 -172q0 -111 46 -171t127 -60q51 0 83 19.5
t59 63.5l100 -71q-38 -69 -98.5 -105t-156.5 -36z" />
    <glyph glyph-name="D" unicode="D" horiz-adv-x="694" 
d="M73 700h227q77 0 142.5 -19t113.5 -60.5t75 -108t27 -162.5t-29 -163t-76.5 -108.5t-109 -60t-126.5 -18.5h-244v700zM302 122q94 0 148 55t54 165t-49.5 173t-163.5 63h-70v-456h81z" />
    <glyph glyph-name="E" unicode="E" horiz-adv-x="570" 
d="M73 700h455v-125h-307v-158h265v-126h-265v-165h309v-126h-457v700z" />
    <glyph glyph-name="F" unicode="F" horiz-adv-x="549" 
d="M73 700h451v-136h-303v-174h254v-134h-254v-256h-148v700z" />
    <glyph glyph-name="G" unicode="G" horiz-adv-x="669" 
d="M359 -11q-158 0 -240.5 92t-82.5 267q0 82 22 149t63.5 114.5t102 73.5t136.5 26q56 0 102.5 -13.5t80.5 -40t52.5 -65t18.5 -88.5q0 -23 -5 -50h-140q1 5 1 11v17q0 42 -28 69.5t-87 27.5q-80 0 -121.5 -58.5t-41.5 -170.5q0 -234 172 -234q50 0 81.5 10t47.5 23v94
h-131v118h263v-281q-12 -13 -35 -29t-56.5 -30t-77 -23t-97.5 -9z" />
    <glyph glyph-name="H" unicode="H" horiz-adv-x="701" 
d="M73 700h148v-278h259v278h148v-700h-148v286h-259v-286h-148v700z" />
    <glyph glyph-name="I" unicode="I" horiz-adv-x="295" 
d="M73 700h148v-700h-148v700z" />
    <glyph glyph-name="J" unicode="J" horiz-adv-x="488" 
d="M187 -6q-66 0 -113 23t-73 58l88 103q19 -22 40.5 -36t55.5 -14q42 0 65.5 28.5t23.5 81.5v462h147v-460q0 -117 -60 -181.5t-174 -64.5z" />
    <glyph glyph-name="K" unicode="K" horiz-adv-x="668" 
d="M655 122v-122q-8 -2 -28 -4.5t-46 -2.5q-55 0 -89.5 21.5t-56.5 54t-37.5 70t-33.5 70t-43 54t-67 21.5h-33v-284h-148v700h148v-290h40q42 0 78 15t62.5 49t41.5 89.5t15 136.5h146q0 -122 -40.5 -215t-116.5 -145q35 -27 54 -64t35 -71.5t34.5 -58.5t52.5 -24h32z" />
    <glyph glyph-name="L" unicode="L" horiz-adv-x="537" 
d="M73 700h148v-566h303v-134h-451v700z" />
    <glyph glyph-name="M" unicode="M" horiz-adv-x="846" 
d="M73 700h144l209 -445l213 445h134v-700h-138v452l-14 -38l-151 -328h-100l-146 328l-13 36v-450h-138v700z" />
    <glyph glyph-name="N" unicode="N" horiz-adv-x="691" 
d="M73 700h131l256 -427l19 -42v469h139v-700h-130l-261 427l-14 33v-460h-140v700z" />
    <glyph glyph-name="O" unicode="O" horiz-adv-x="717" 
d="M357 -11q-66 0 -124.5 21t-102 64.5t-69 111.5t-25.5 162q0 91 25.5 159t69.5 113.5t103 68t126 22.5q66 0 124.5 -21t102 -65.5t69 -112.5t25.5 -163q0 -91 -25.5 -158.5t-69.5 -112.5t-103 -67t-126 -22zM357 118q34 0 64.5 12t54 39.5t37 71.5t13.5 108
q0 65 -13.5 109t-36 71t-53 38.5t-63.5 11.5q-34 0 -64.5 -12t-53.5 -39t-37 -71t-14 -109q0 -64 13.5 -108t36 -71t52.5 -39t64 -12z" />
    <glyph glyph-name="P" unicode="P" horiz-adv-x="620" 
d="M73 700h246q128 0 203 -58t75 -181q0 -61 -20.5 -105.5t-56 -73.5t-83.5 -43.5t-102 -14.5h-114v-224h-148v700zM312 342q136 0 136 118q0 54 -34.5 87.5t-106.5 33.5h-86v-239h91z" />
    <glyph glyph-name="Q" unicode="Q" horiz-adv-x="717" 
d="M439 -2q30 -99 170 -99v-132q-77 0 -133 20.5t-93 52.5t-57 72.5t-26 80.5q-56 8 -104.5 33t-84 68.5t-55.5 106.5t-20 147q0 91 25.5 159t69.5 113.5t103 68t126 22.5q66 0 124.5 -21t102 -65.5t69 -112.5t25.5 -163q0 -76 -18.5 -136t-50.5 -103.5t-76.5 -71.5
t-96.5 -40zM191 348q0 -64 13.5 -108t36 -71t52.5 -39t64 -12t64.5 12t54 39.5t37 71.5t13.5 108q0 65 -13.5 109t-36 71t-53 38.5t-63.5 11.5q-34 0 -64.5 -12t-53.5 -39t-37 -71t-14 -109z" />
    <glyph glyph-name="R" unicode="R" horiz-adv-x="661" 
d="M562 -7q-50 0 -82 19.5t-53 49t-35.5 63.5t-30 63.5t-36.5 49t-55 19.5h-49v-257h-148v700h250q136 0 202 -53.5t66 -167.5q0 -63 -36 -112.5t-102 -67.5q27 -14 42.5 -43.5t30 -59.5t32.5 -52.5t49 -22.5h32v-121q-10 -3 -31.5 -5t-45.5 -2zM307 369q66 0 102.5 26.5
t36.5 77.5t-33 79.5t-96 28.5h-96v-212h86z" />
    <glyph glyph-name="S" unicode="S" horiz-adv-x="608" 
d="M299 -11q-193 0 -279 113l93 99q38 -45 85 -66t103 -21q66 0 96.5 20t30.5 58q0 21 -8.5 36t-27.5 26.5t-50 20.5t-75 18q-45 9 -85.5 23.5t-71.5 38t-49.5 59t-18.5 87.5q0 46 18.5 84.5t52.5 66.5t82.5 43.5t107.5 15.5q50 0 96.5 -9.5t81.5 -31.5t56 -58.5t21 -89.5
q0 -11 -1 -21.5t-4 -21.5l-134 1q2 8 2 13v13q0 42 -34 61t-81 19q-117 0 -117 -79q0 -21 9.5 -35t29.5 -24.5t50 -18.5t72 -17q48 -10 89 -25t71 -38.5t47.5 -59t17.5 -86.5q0 -50 -19.5 -90t-55.5 -67.5t-87 -42t-114 -14.5z" />
    <glyph glyph-name="T" unicode="T" horiz-adv-x="575" 
d="M218 566h-205v134h551v-134h-198v-566h-148v566z" />
    <glyph glyph-name="U" unicode="U" horiz-adv-x="677" 
d="M340 -6q-56 0 -106 15t-87.5 49.5t-59 91t-21.5 140.5l1 410h147v-422q0 -67 29 -109.5t98 -42.5q34 0 57.5 11t38 31.5t21 48.5t6.5 61v422h146v-410q0 -84 -21.5 -140.5t-58 -91t-85.5 -49.5t-105 -15z" />
    <glyph glyph-name="V" unicode="V" horiz-adv-x="647" 
d="M0 700h166l161 -535l163 535h156l-249 -700h-148z" />
    <glyph glyph-name="W" unicode="W" horiz-adv-x="947" 
d="M8 700h168l101 -542l132 542h137l128 -542l106 542h160l-179 -700h-170l-115 492l-121 -492h-168z" />
    <glyph glyph-name="X" unicode="X" horiz-adv-x="627" 
d="M462 0l-153 256l-150 -256h-163l231 357l-217 343h170l140 -235l136 235h164l-219 -340l229 -360h-168z" />
    <glyph glyph-name="Y" unicode="Y" horiz-adv-x="631" 
d="M242 280l-240 420h173l145 -286l145 286h164l-240 -417v-283h-147v280z" />
    <glyph glyph-name="Z" unicode="Z" horiz-adv-x="602" 
d="M570 123v-123h-537v116l359 461h-354v123h525v-116l-357 -461h364z" />
    <glyph glyph-name="bracketleft" unicode="[" horiz-adv-x="377" 
d="M68 726h291v-121h-152v-728h152v-121h-291v970z" />
    <glyph glyph-name="backslash" unicode="\" horiz-adv-x="453" 
d="M16 706h138l283 -934h-139z" />
    <glyph glyph-name="bracketright" unicode="]" horiz-adv-x="377" 
d="M18 -123h153v728h-153v121h291v-970h-291v121z" />
    <glyph glyph-name="asciicircum" unicode="^" horiz-adv-x="399" 
d="M121 734h158l91 -229h-126l-45 124l-44 -124h-126z" />
    <glyph glyph-name="underscore" unicode="_" horiz-adv-x="485" 
d="M38 0h409v-104h-409v104z" />
    <glyph glyph-name="grave" unicode="`" horiz-adv-x="308" 
d="M25 768h175l81 -200h-126z" />
    <glyph glyph-name="a" unicode="a" horiz-adv-x="573" 
d="M223 -13q-43 0 -78.5 18t-60.5 50.5t-39 78.5t-14 103q0 58 15.5 105.5t43.5 81.5t66 53t83 19q85 0 125 -57v43h137v-329q0 -23 9 -33t31 -10v-110q-10 -4 -28 -6t-38 -2q-47 0 -72 20t-30 55l-1 1q-20 -38 -55 -59.5t-94 -21.5zM272 109q36 0 57 21t29 54v119
q-3 12 -9.5 24.5t-17 23t-25 17t-34.5 6.5q-47 0 -70 -35t-23 -100q0 -63 24 -96.5t69 -33.5z" />
    <glyph glyph-name="b" unicode="b" horiz-adv-x="560" 
d="M321 -13q-53 0 -85 18t-52 44v-49h-128v726h146v-290q6 8 16 18.5t26 19.5t39 15.5t53 6.5q44 0 79.5 -18t60.5 -50.5t39 -79t14 -103.5q0 -58 -16 -105.5t-44 -81.5t-66 -52.5t-82 -18.5zM290 109q43 0 67 33.5t24 99.5q0 65 -25 98.5t-66 33.5q-40 0 -60.5 -23
t-28.5 -51v-121q3 -11 9.5 -23t17 -22.5t25.5 -17.5t37 -7z" />
    <glyph glyph-name="c" unicode="c" horiz-adv-x="493" 
d="M270 -13q-112 0 -176 66.5t-64 187.5t64 188t175 67q89 0 141.5 -40t52.5 -121q0 -16 -2 -32.5t-7 -27.5l-124 -1q5 15 5 37q0 63 -68 63q-90 0 -90 -129q0 -67 27.5 -101.5t78.5 -34.5q42 0 64.5 16.5t39.5 40.5l84 -76q-26 -45 -77 -74t-124 -29z" />
    <glyph glyph-name="d" unicode="d" horiz-adv-x="574" 
d="M223 -13q-43 0 -78.5 18t-60.5 51t-39 79t-14 102q0 58 15.5 106t43.5 82t66.5 52.5t83.5 18.5q44 0 71.5 -14t44.5 -36v280h146v-573q0 -23 9.5 -33t30.5 -10v-110q-10 -4 -27.5 -6t-38.5 -2q-46 0 -71.5 20t-30.5 55v3q-20 -38 -56 -60.5t-95 -22.5zM272 109
q34 0 56.5 21t30.5 54v119q-3 12 -9.5 24.5t-17 23t-25.5 17t-35 6.5q-48 0 -70.5 -35t-22.5 -100q0 -63 24.5 -96.5t68.5 -33.5z" />
    <glyph glyph-name="e" unicode="e" horiz-adv-x="496" 
d="M476 90q-33 -53 -89 -79t-129 -24q-106 2 -167 64t-61 177q0 62 18.5 111.5t51.5 84t78.5 53.5t99.5 19q85 0 134 -40t49 -113q0 -43 -21 -73.5t-58.5 -49.5t-88 -28.5t-110.5 -11.5q18 -74 98 -74q38 0 64.5 14.5t46.5 41.5zM276 378q-41 0 -66.5 -28.5t-30.5 -82.5
q66 2 106.5 16.5t40.5 49.5q0 45 -50 45z" />
    <glyph glyph-name="f" unicode="f" horiz-adv-x="359" 
d="M90 366h-70v116h71v39q0 49 14.5 88t40.5 66.5t62.5 42t80.5 14.5q40 0 71.5 -11t51.5 -28l-50 -108q-23 17 -56 17t-51.5 -20t-18.5 -66v-34h111v-116h-111v-366h-146v366z" />
    <glyph glyph-name="g" unicode="g" horiz-adv-x="555" 
d="M262 -240q-71 0 -125.5 20.5t-91.5 74.5l87 83q25 -32 51.5 -46.5t71.5 -14.5q51 0 78.5 29.5t27.5 88.5v61q-11 -27 -45 -48t-93 -21q-43 0 -78.5 18t-60.5 51t-39 79t-14 102q0 59 15.5 106.5t43.5 81.5t66.5 52.5t83.5 18.5q85 0 130 -61v47h129v-489q0 -53 -17 -95.5
t-48 -73.5t-75 -47.5t-97 -16.5zM272 109q34 0 56.5 21t30.5 54v119q-3 12 -9.5 24.5t-17 23t-25.5 17t-35 6.5q-48 0 -70.5 -35t-22.5 -100q0 -63 24.5 -96.5t68.5 -33.5z" />
    <glyph glyph-name="h" unicode="h" horiz-adv-x="559" 
d="M469 -7q-62 0 -92 30t-30 95v171q0 35 -18.5 55.5t-49.5 20.5q-21 0 -35.5 -7t-24 -18.5t-13.5 -25t-4 -26.5v-288h-146v726h146v-282q16 20 46 36t74 16q46 0 78.5 -15t53 -41t30 -61t9.5 -75v-151q0 -42 40 -42v-110q-9 -3 -27 -5.5t-37 -2.5z" />
    <glyph glyph-name="i" unicode="i" horiz-adv-x="260" 
d="M130 552q-36 0 -63 25.5t-27 62.5q0 18 7.5 34.5t19.5 29t28.5 19.5t34.5 7q37 0 63 -26.5t26 -63.5t-26 -62.5t-63 -25.5zM57 482h146v-482h-146v482z" />
    <glyph glyph-name="j" unicode="j" horiz-adv-x="264" 
d="M134 552q-37 0 -63.5 25.5t-26.5 62.5t26.5 63.5t63.5 26.5t62.5 -26.5t25.5 -63.5t-25.5 -62.5t-62.5 -25.5zM9 -247q-26 0 -45 5t-31 11q-15 7 -24 16l43 107q5 -3 11 -5t13.5 -3.5t16.5 -1.5q35 0 51.5 25t16.5 70v505h146v-512q0 -48 -11 -88t-35 -68.5t-61.5 -44.5
t-90.5 -16z" />
    <glyph glyph-name="k" unicode="k" horiz-adv-x="541" 
d="M522 113v-112q-9 -3 -25.5 -6.5t-33.5 -3.5q-43 0 -69.5 14.5t-43 36.5t-28 47.5t-25 47.5t-33.5 36.5t-54 14.5h-8v-188h-146v726h146v-416h24q64 0 95 45.5t32 126.5h137q0 -30 -4.5 -62.5t-16.5 -64t-33.5 -60.5t-56.5 -52q26 -16 39 -38t24 -42.5t25.5 -35
t43.5 -14.5h11z" />
    <glyph glyph-name="l" unicode="l" horiz-adv-x="276" 
d="M178 -7q-62 0 -92 29t-30 97v607h146v-572q0 -22 10 -31t33 -9v-113q-11 -3 -30 -5.5t-37 -2.5z" />
    <glyph glyph-name="m" unicode="m" horiz-adv-x="861" 
d="M771 -7q-63 0 -92.5 30t-29.5 95v170q0 35 -18 56t-50 21q-34 0 -53 -22.5t-19 -57.5v-285h-147v289q0 34 -18 55t-52 21q-36 0 -55 -24t-19 -56v-285h-146v330q0 41 -40 41v110q10 4 28.5 6t36.5 2q40 0 66.5 -17t35.5 -52v-1q17 32 52.5 54.5t86.5 22.5q106 0 147 -83
q15 31 49 57t92 26q86 0 127.5 -52t41.5 -140v-151q0 -42 40 -42v-110q-9 -3 -27.5 -5.5t-36.5 -2.5z" />
    <glyph glyph-name="n" unicode="n" horiz-adv-x="574" 
d="M484 -7q-62 0 -92 30t-30 95v170q0 37 -18.5 57t-50.5 20q-34 0 -54.5 -22t-20.5 -59v-284h-146v330q0 41 -40 41v110q10 4 28 6t39 2q45 0 70 -20t30 -49v-1q15 29 49 53t91 24q81 0 125.5 -50t44.5 -142v-151q0 -42 39 -42v-110q-9 -3 -27 -5.5t-37 -2.5z" />
    <glyph glyph-name="o" unicode="o" horiz-adv-x="543" 
d="M269 -13q-59 0 -103.5 18.5t-74.5 52t-45.5 80.5t-15.5 103t16.5 103t47.5 81t77 52.5t104 18.5t102.5 -18.5t74.5 -52t45.5 -80.5t15.5 -103q0 -55 -16 -102t-47.5 -81t-76.5 -53t-104 -19zM272 109q47 0 70 34.5t23 97.5t-24 98t-69 35q-46 0 -69.5 -35t-23.5 -98
t22.5 -97.5t70.5 -34.5z" />
    <glyph glyph-name="p" unicode="p" horiz-adv-x="575" 
d="M72 331q0 42 -40 42v110q10 3 27.5 5t38.5 2q45 0 71.5 -19.5t30.5 -58.5v-1q21 38 56.5 61.5t95.5 23.5q44 0 79.5 -18t60.5 -50.5t39 -79t14 -103.5q0 -58 -16 -105.5t-43.5 -81.5t-66 -52.5t-83.5 -18.5t-73.5 12.5t-44.5 29.5v-258h-146v560zM304 109q45 0 68.5 33
t23.5 101q0 66 -25 98.5t-66 32.5q-36 0 -58 -21t-31 -53v-121q9 -30 30.5 -50t57.5 -20z" />
    <glyph glyph-name="q" unicode="q" horiz-adv-x="559" 
d="M356 45q-4 -7 -13.5 -17t-25 -19t-39 -15.5t-56.5 -6.5q-37 0 -71.5 15.5t-61 47t-42.5 79t-16 110.5q0 61 17 109t45.5 81t66.5 50t80 17q30 0 52 -7.5t38.5 -18t27 -22.5t17.5 -22v56h127v-722h-146v285zM272 109q21 0 36 7.5t25.5 18.5t16.5 24t9 24v120
q-3 11 -9 23.5t-16.5 23t-26 17.5t-35.5 7q-45 0 -69 -33.5t-24 -99.5q0 -69 26.5 -100.5t66.5 -31.5z" />
    <glyph glyph-name="r" unicode="r" horiz-adv-x="396" 
d="M72 330q0 41 -40 41v110q10 4 27.5 6t37.5 2q51 0 75.5 -22t25.5 -50l1 -3q14 37 48 58.5t83 21.5q21 0 40.5 -5t29.5 -13l-51 -134q-18 12 -49 12q-40 0 -61 -28t-21 -77v-249h-146v330z" />
    <glyph glyph-name="s" unicode="s" horiz-adv-x="495" 
d="M243 -13q-27 0 -57 3.5t-59 12t-57.5 23.5t-52.5 38l73 100q44 -42 83 -53t77 -11q39 0 56 8.5t17 24.5q0 20 -23.5 27.5t-81.5 20.5q-33 8 -65 18t-57 27t-40.5 44t-15.5 69q0 34 14 62.5t41 49.5t67 33t91 12q94 0 147.5 -37t53.5 -107q0 -11 -2.5 -24.5t-6.5 -21.5
h-132q2 5 3 14t1 17q0 48 -66 48q-70 0 -70 -44q0 -27 29.5 -37t89.5 -23q29 -6 58 -14.5t52.5 -24t38.5 -40t15 -62.5q0 -78 -58.5 -115.5t-162.5 -37.5z" />
    <glyph glyph-name="t" unicode="t" horiz-adv-x="432" 
d="M291 -6q-100 0 -147.5 53t-47.5 165v153h-83v117h87v141h142v-141h160v-117h-160v-144q0 -96 73 -96q20 0 39 7t32 16l45 -108q-23 -20 -62.5 -33t-77.5 -13z" />
    <glyph glyph-name="u" unicode="u" horiz-adv-x="561" 
d="M209 -13q-77 0 -116.5 43.5t-39.5 130.5v321h146v-285q0 -44 17.5 -62t49.5 -18q36 0 57 25.5t21 58.5v281h146v-330q0 -21 9 -31.5t30 -10.5v-110q-8 -3 -25.5 -5.5t-38.5 -2.5q-49 0 -73.5 20.5t-29.5 56.5l-1 1q-22 -41 -57 -62t-95 -21z" />
    <glyph glyph-name="v" unicode="v" horiz-adv-x="507" 
d="M502 482l-175 -483h-147l-176 483h157l77 -253l19 -103l20 103l76 253h149z" />
    <glyph glyph-name="w" unicode="w" horiz-adv-x="773" 
d="M767 482l-146 -482h-158l-58 258l-15 92l-18 -92l-66 -258h-154l-146 482h158l56 -247l19 -110l19 110l57 247h153l56 -247l19 -110l19 110l56 247h149z" />
    <glyph glyph-name="x" unicode="x" horiz-adv-x="485" 
d="M330 0l-90 156l-88 -156h-150l156 245l-150 237h157l79 -145l81 145h151l-150 -233l159 -249h-155z" />
    <glyph glyph-name="y" unicode="y" horiz-adv-x="545" 
d="M246 -247q-78 0 -133.5 27t-82.5 76l92 76q23 -34 48.5 -48t72.5 -14q61 0 84.5 32t23.5 86v74q-42 -68 -145 -68q-153 0 -153 174v314h146v-278q0 -79 59 -79q34 0 58.5 26.5t26.5 64.5v266h146v-489q0 -110 -60.5 -175t-182.5 -65z" />
    <glyph glyph-name="z" unicode="z" horiz-adv-x="506" 
d="M257 247q36 -8 76 -25.5t74.5 -49t56.5 -79.5t22 -116q0 -50 -16.5 -91t-46.5 -70t-73 -45.5t-97 -16.5q-49 0 -89.5 13t-69.5 37t-44.5 59.5t-15.5 80.5q0 39 12 71.5t31.5 58t43.5 44.5t48 32q-37 6 -81 6v100l182 110h-231v116h409v-112zM255 -125q42 0 70.5 26
t28.5 81q0 48 -22 82t-63 56q-45 -26 -74.5 -63.5t-29.5 -89.5q0 -46 26 -69t64 -23z" />
    <glyph glyph-name="braceleft" unicode="{" horiz-adv-x="352" 
d="M328 -234q-45 -8 -87 -0.5t-74 31.5t-51.5 67t-19.5 106v145q0 36 -20.5 51.5t-43.5 15.5h-10v118h10q23 0 43.5 15.5t20.5 51.5v145q0 63 19.5 106t51.5 67t74 31.5t87 -0.5v-128q-48 15 -75 -14.5t-27 -87.5v-153q0 -25 -5.5 -42t-13 -27.5t-16 -15t-13.5 -6.5
q4 -1 12 -7.5t16 -18t14 -28.5t6 -39v-153q0 -58 27 -87.5t75 -14.5v-128z" />
    <glyph glyph-name="bar" unicode="|" horiz-adv-x="259" 
d="M68 736h123v-990h-123v990z" />
    <glyph glyph-name="braceright" unicode="}" horiz-adv-x="352" 
d="M24 716q45 8 86.5 0.5t74 -31.5t52 -67t19.5 -106v-145q0 -36 20 -51.5t44 -15.5h10v-118h-10q-24 0 -44 -15.5t-20 -51.5v-145q0 -63 -19.5 -106t-52 -67t-74 -31.5t-86.5 0.5v128q48 -15 75 14.5t27 87.5v153q0 25 5.5 42t13 27.5t15.5 15.5t13 6q-4 1 -11.5 7.5
t-15.5 18t-14 28.5t-6 39v153q0 58 -27 87.5t-75 14.5v128z" />
    <glyph glyph-name="asciitilde" unicode="~" horiz-adv-x="479" 
d="M64 171q-4 7 -8 16q-3 8 -5.5 19.5t-2.5 26.5q0 40 25 70t76 30q26 0 49 -7t43.5 -15t38.5 -15t34 -7q11 0 16.5 7t5.5 18q0 9 -2.5 17t-4.5 15l-8 14h97q4 -8 7 -18q2 -9 4 -20t2 -24q0 -42 -24 -72.5t-73 -30.5q-30 0 -54.5 6.5t-44 15t-35 15t-28.5 6.5q-28 0 -28 -27
q0 -9 2.5 -16.5t5.5 -12.5q3 -6 7 -11h-95z" />
    <glyph glyph-name="exclamdown" unicode="&#xa1;" horiz-adv-x="263" 
d="M135 503q34 0 58 -24t24 -58t-24 -58t-58 -24q-35 0 -59 24t-24 58t24 58t59 24zM212 -218h-163l21 484h125z" />
    <glyph glyph-name="cent" unicode="&#xa2;" horiz-adv-x="508" 
d="M227 109q-88 15 -139 80t-51 170q0 53 14.5 95.5t40 73.5t60.5 50.5t76 26.5v95h86v-93q57 -6 99 -34.5t59 -60.5l-110 -79q-3 10 -18 24.5t-39 18.5v-242q19 2 33 8.5t24.5 15.5t18 18.5t11.5 16.5l91 -81q-7 -13 -22.5 -30.5t-37 -33.5t-49.5 -27.5t-60 -13.5v-107h-87
v109zM238 474q-27 -9 -42 -37t-15 -78q0 -46 16 -73t41 -40v228z" />
    <glyph glyph-name="sterling" unicode="&#xa3;" horiz-adv-x="611" 
d="M578 126v-127h-533v90q36 19 57.5 55.5t23.5 75.5v7h-81v97h54q-14 33 -28 68.5t-14 81.5q0 47 16.5 88t50.5 71.5t84.5 48.5t117.5 18q43 0 86.5 -11t78 -34t56 -59t21.5 -87q0 -23 -6 -52h-144q1 6 1.5 11t0.5 10q0 24 -8.5 39.5t-22.5 25.5t-31.5 14t-35.5 4
q-57 0 -84 -26.5t-27 -71.5q0 -21 4.5 -39t11 -34.5t14.5 -32t15 -33.5h204v-97h-184v-1q0 -24 -8.5 -50t-29.5 -50h340z" />
    <glyph glyph-name="currency" unicode="&#xa4;" horiz-adv-x="579" 
d="M36 171l80 80q-25 44 -25 96q0 53 25 97l-76 77l72 74l76 -77q47 31 104 31q55 0 102 -30l76 76l74 -74l-77 -76q26 -44 26 -98t-26 -98l73 -72l-74 -73l-72 72q-46 -30 -102 -30q-57 0 -104 30l-78 -79zM292 258q38 0 64 26t26 63q0 38 -26 64t-64 26t-64 -26t-26 -64
q0 -37 26 -63t64 -26z" />
    <glyph glyph-name="yen" unicode="&#xa5;" horiz-adv-x="676" 
d="M264 124h-161v94h161v43l-8 16h-153v95h109l-191 328h174l147 -285l149 285h166l-194 -328h105v-95h-147l-9 -16v-43h156v-94h-156v-124h-148v124z" />
    <glyph glyph-name="brokenbar" unicode="&#xa6;" horiz-adv-x="259" 
d="M68 736h123v-412h-123v412zM68 165h123v-419h-123v419z" />
    <glyph glyph-name="section" unicode="&#xa7;" horiz-adv-x="620" 
d="M290 -247q-93 0 -162 29.5t-102 76.5l90 99q28 -35 75.5 -57t110.5 -22q64 0 92.5 21.5t28.5 56.5q0 34 -27.5 51t-69 27.5t-90 20.5t-90 31.5t-69 60t-27.5 105.5q0 26 14 63t49 65q-29 24 -41 55t-12 71t19 76t53 63.5t81 43.5t103 16q58 0 102 -12.5t76 -31.5
t52.5 -42t29.5 -44l-101 -71q-6 10 -18.5 22.5t-31 24t-43.5 19.5t-55 8q-63 0 -90.5 -22t-27.5 -57t27.5 -51.5t69 -27t90 -21t90 -32t69 -61.5t27.5 -109q0 -34 -11 -65.5t-33 -55.5q17 -23 25.5 -50t8.5 -62q0 -48 -19.5 -87.5t-56 -67t-89 -42.5t-117.5 -15zM421 151
q14 17 14 42q0 27 -14.5 43t-42 27t-68 20t-93.5 22q-18 -16 -18 -44q0 -24 13.5 -40t41.5 -27.5t69.5 -21t97.5 -21.5z" />
    <glyph glyph-name="dieresis" unicode="&#xa8;" horiz-adv-x="400" 
d="M95 566q-30 0 -51.5 21t-21.5 51t21.5 51.5t51.5 21.5t51.5 -21.5t21.5 -51.5t-21.5 -51t-51.5 -21zM307 566q-31 0 -52.5 21t-21.5 51t21.5 51.5t52.5 21.5q30 0 51 -21.5t21 -51.5t-21 -51t-51 -21z" />
    <glyph glyph-name="copyright" unicode="&#xa9;" horiz-adv-x="865" 
d="M432 -37q-84 0 -157 31t-127 85t-85 127t-31 157t31 157t85 127t127 85t157 31t157 -31t127 -85t85 -127t31 -157t-31 -157t-85 -127t-127 -85t-157 -31zM432 61q64 0 119 23.5t95.5 64t63.5 95.5t23 119t-23.5 119.5t-64 96t-95.5 64t-118 23.5t-118 -23.5t-95.5 -64
t-63.5 -96t-23 -119.5t23 -119t63.5 -95.5t95.5 -64t118 -23.5zM436 131q-50 0 -89 17.5t-65.5 48.5t-40.5 73.5t-14 92.5q0 56 14.5 99.5t41.5 73.5t64.5 45.5t83.5 15.5q56 0 90 -19t53 -44.5t25.5 -52.5t6.5 -44l-99 -18q-1 6 -3.5 19.5t-10 26.5t-21.5 23t-40 10
q-16 0 -32.5 -7t-29 -22.5t-20.5 -41t-8 -62.5q0 -61 25.5 -98t76.5 -37q23 0 40.5 5.5t29.5 12t18.5 13l8.5 8.5l57 -69q-3 -4 -13 -15.5t-29.5 -23.5t-49 -21t-70.5 -9z" />
    <glyph glyph-name="ordfeminine" unicode="&#xaa;" horiz-adv-x="370" 
d="M130 400q-46 0 -72.5 23t-26.5 61q0 45 29.5 66.5t92.5 21.5h54v25q0 18 -7.5 25.5t-21.5 7.5q-28 0 -28 -22q0 -10 2 -10h-98q-2 3 -4.5 12t-2.5 20q0 42 34 64.5t97 22.5q66 0 100 -28t34 -85v-94q0 -17 21 -17v-80q-7 -5 -21.5 -8.5t-31.5 -3.5q-50 0 -59 42l-1 1
q-11 -20 -34.5 -32t-55.5 -12zM160 473q17 0 29.5 8.5t17.5 19.5v20h-45q-31 0 -31 -25q0 -11 8 -17t21 -6z" />
    <glyph glyph-name="guillemotleft" unicode="&#xab;" horiz-adv-x="549" 
d="M34 202v118l166 143l73 -82l-128 -120l128 -119l-73 -82zM278 202v118l167 143l72 -82l-127 -120l127 -119l-72 -82z" />
    <glyph glyph-name="registered" unicode="&#xae;" horiz-adv-x="865" 
d="M432 -37q-84 0 -157 31t-127 85t-85 127t-31 157t31 157t85 127t127 85t157 31t157 -31t127 -85t85 -127t31 -157t-31 -157t-85 -127t-127 -85t-157 -31zM432 61q64 0 119 23.5t95.5 64t63.5 96t23 118.5q0 64 -23 119t-63.5 96t-95.5 64.5t-119 23.5q-63 0 -118 -23.5
t-95.5 -64t-63.5 -96t-23 -119.5t23 -119t63.5 -95.5t95 -64t118.5 -23.5zM579 144q-34 0 -54.5 12t-34 29.5t-21.5 38t-17.5 38t-22 29.5t-34.5 12h-30v-153h-105v441h162q82 0 124.5 -32.5t42.5 -105.5q0 -28 -10 -47.5t-22.5 -32.5t-25.5 -19.5t-19 -8.5q18 -15 27.5 -34
l18 -36t19 -29t31.5 -12h18v-85q-2 -1 -13 -3t-34 -2zM409 389q37 0 57 15t20 41q0 30 -18 43t-53 13h-50v-112h44z" />
    <glyph glyph-name="macron" unicode="&#xaf;" horiz-adv-x="423" 
d="M43 689h337v-103h-337v103z" />
    <glyph glyph-name="degree" unicode="&#xb0;" horiz-adv-x="319" 
d="M159 453q-28 0 -52 10.5t-42 28.5t-28.5 42.5t-10.5 52.5q0 27 10.5 51.5t28.5 43t42 29.5t52 11q27 0 51.5 -11t43 -29.5t29 -43t10.5 -51.5q0 -28 -10.5 -52.5t-29 -42.5t-43 -28.5t-51.5 -10.5zM159 530q24 0 41 17t17 40q0 24 -17 41t-41 17q-23 0 -40 -17t-17 -41
q0 -23 17 -40t40 -17z" />
    <glyph glyph-name="plusminus" unicode="&#xb1;" horiz-adv-x="495" 
d="M193 317h-145v104h145v144h105v-144h150v-104h-150v-156h-105v156zM42 116h409v-104h-409v104z" />
    <glyph glyph-name="acute" unicode="&#xb4;" horiz-adv-x="308" 
d="M107 768h175l-130 -200h-126z" />
    <glyph glyph-name="paragraph" unicode="&#xb6;" horiz-adv-x="658" 
d="M319 232h-70q-55 0 -97 17t-70 48t-42 74t-14 94q0 52 14 95t42 74t70 48.5t97 17.5h332v-700h-86v632h-90v-632h-86v232z" />
    <glyph glyph-name="periodcentered" unicode="&#xb7;" horiz-adv-x="242" 
d="M121 271q-36 0 -60.5 24.5t-24.5 59.5t24.5 60t60.5 25q35 0 60 -25t25 -60t-25 -59.5t-60 -24.5z" />
    <glyph glyph-name="cedilla" unicode="&#xb8;" horiz-adv-x="290" 
d="M143 -190q-25 0 -43.5 6.5t-30.5 14.5q-15 10 -26 22l33 52q8 -8 17 -15q9 -6 20.5 -10.5t26.5 -4.5q20 0 28.5 7.5t8.5 19.5t-15.5 22t-62.5 10l30 73h69l-16 -34q10 0 21.5 -4.5t21 -14t16 -23.5t6.5 -32q0 -23 -8.5 -40t-23 -28t-33.5 -16t-39 -5z" />
    <glyph glyph-name="ordmasculine" unicode="&#xba;" horiz-adv-x="364" 
d="M183 400q-76 0 -115 45t-39 113t39.5 112.5t114.5 44.5t113.5 -44.5t38.5 -112.5q0 -34 -9.5 -63t-29 -50t-47.5 -33t-66 -12zM183 490q26 0 35 20t9 47q0 26 -9 47.5t-35 21.5t-36.5 -21.5t-10.5 -47.5q0 -28 9.5 -47.5t37.5 -19.5z" />
    <glyph glyph-name="guillemotright" unicode="&#xbb;" horiz-adv-x="549" 
d="M31 141l128 120l-128 120l73 82l166 -143v-118l-166 -142zM276 141l127 120l-127 120l72 82l167 -143v-118l-167 -142z" />
    <glyph glyph-name="onequarter" unicode="&#xbc;" horiz-adv-x="688" 
d="M386 727h101l-220 -727h-101zM111 564q-11 -12 -35 -20.5t-58 -8.5l-6 93q44 0 69 20t30 52h99v-382h-99v246zM536 76h-185v69l115 237h106l-108 -220h81v77h92v-77h50v-86h-50v-76h-101v76z" />
    <glyph glyph-name="onehalf" unicode="&#xbd;" horiz-adv-x="696" 
d="M383 727h101l-219 -727h-102zM108 564q-11 -12 -35 -20.5t-58 -8.5l-6 93q44 0 69 20t30 52h99v-382h-99v246zM375 34q0 32 14.5 56.5t36 43.5t46.5 34t46.5 29t36 28t14.5 32t-11.5 28.5t-37.5 10.5q-18 0 -28.5 -4.5t-16.5 -11t-8 -14.5t-2 -14h-91q0 25 8 49t26 43
t47 30.5t71 11.5q68 0 105 -31t37 -89q0 -44 -26.5 -74t-58 -50.5t-58 -34t-26.5 -25.5v-2h180v-80h-304v34z" />
    <glyph glyph-name="threequarters" unicode="&#xbe;" horiz-adv-x="744" 
d="M449 727h100l-219 -727h-101zM157 315q-57 0 -94 18t-57 59l75 49q17 -29 34.5 -38t41.5 -9q26 0 39 10.5t13 28.5q0 19 -12 30t-40 11h-40v71h30q50 0 50 38q0 37 -45 37q-20 0 -34 -8.5t-14 -28.5h-92q0 32 12 55.5t32 38.5t46 22.5t54 7.5q66 0 104 -30.5t38 -80.5
q0 -30 -14.5 -50.5t-37.5 -28.5q64 -19 64 -91q0 -51 -40.5 -81t-112.5 -30zM598 76h-185v69l115 237h107l-109 -220h81v77h93v-77h50v-86h-50v-76h-102v76z" />
    <glyph glyph-name="questiondown" unicode="&#xbf;" horiz-adv-x="488" 
d="M259 501q35 0 59 -24.5t24 -59.5t-24 -59t-59 -24t-59.5 24t-24.5 59t24.5 59.5t59.5 24.5zM321 264q1 -41 -9.5 -70t-26.5 -51t-34.5 -39.5t-34.5 -35t-26.5 -37t-10.5 -46.5q0 -35 18.5 -54t52.5 -19q35 0 55 21.5t20 59.5h143q0 -56 -17 -98t-46.5 -70.5t-70.5 -43
t-89 -14.5q-59 0 -101 17.5t-68.5 46t-38.5 64.5t-12 73q0 41 11.5 71.5t29 54t38 42.5t38 38t29.5 40.5t12 49.5h138z" />
    <glyph glyph-name="Agrave" unicode="&#xc0;" horiz-adv-x="664" 
d="M271 741l-129 161h177l82 -161h-130zM458 162h-252l-54 -162h-153l257 700h152l257 -700h-154zM420 277l-88 266l-88 -266h176z" />
    <glyph glyph-name="Aacute" unicode="&#xc1;" horiz-adv-x="664" 
d="M384 741h-129l81 161h177zM458 162h-252l-54 -162h-153l257 700h152l257 -700h-154zM420 277l-88 266l-88 -266h176z" />
    <glyph glyph-name="Acircumflex" unicode="&#xc2;" horiz-adv-x="664" 
d="M289 741h-125l89 161h158l89 -161h-126l-42 71zM458 162h-252l-54 -162h-153l257 700h152l257 -700h-154zM420 277l-88 266l-88 -266h176z" />
    <glyph glyph-name="Atilde" unicode="&#xc3;" horiz-adv-x="664" 
d="M164 742q-6 11 -10 27.5t-4 33.5q0 42 27 69t72 27q23 0 42 -6t36 -13.5t31.5 -14t27.5 -6.5q25 0 25 22q0 12 -6 19h94q7 -11 11 -27t4 -30q0 -45 -26 -72t-74 -27q-25 0 -45.5 6.5t-37 14t-30 13.5t-24.5 6q-25 0 -25 -22q0 -6 2 -11t4 -9h-94zM458 162h-252l-54 -162
h-153l257 700h152l257 -700h-154zM420 277l-88 266l-88 -266h176z" />
    <glyph glyph-name="Adieresis" unicode="&#xc4;" horiz-adv-x="664" 
d="M208 741q-36 0 -61 25t-25 61t25 62t61 26t61.5 -26t25.5 -62t-25.5 -61t-61.5 -25zM459 741q-36 0 -61.5 25t-25.5 61t25.5 62t61.5 26q37 0 61.5 -26t24.5 -62t-24.5 -61t-61.5 -25zM458 162h-252l-54 -162h-153l257 700h152l257 -700h-154zM420 277l-88 266l-88 -266
h176z" />
    <glyph glyph-name="Aring" unicode="&#xc5;" horiz-adv-x="664" 
d="M332 710q-27 0 -50 9.5t-40 26.5t-26.5 40t-9.5 50t9.5 50t26.5 40t40 26.5t50 9.5t50 -9.5t40 -26.5t26.5 -40t9.5 -50t-9.5 -50t-26.5 -40t-40 -26.5t-50 -9.5zM332 880q-19 0 -31 -12t-12 -32t12 -32.5t31 -12.5t31 12.5t12 32.5t-12 32t-31 12zM458 162h-252
l-54 -162h-153l257 700h152l257 -700h-154zM420 277l-88 266l-88 -266h176z" />
    <glyph glyph-name="AE" unicode="&#xc6;" horiz-adv-x="863" 
d="M255 700h570v-125h-367l64 -174h233v-123h-188l57 -153h201v-125h-317l-57 168h-236l-56 -168h-161zM413 285l-80 236l-79 -236h159z" />
    <glyph glyph-name="Ccedilla" unicode="&#xc7;" horiz-adv-x="628" 
d="M607 130q-35 -60 -85.5 -95.5t-126.5 -43.5l-10 -29q35 -5 58.5 -24t23.5 -59q0 -47 -35.5 -73.5t-98.5 -26.5q-29 0 -58 8.5t-46 25.5l43 64q11 -10 24 -16t29 -6q36 0 36 26q0 17 -19 26t-52 11l26 73q-65 6 -117 32t-88 71.5t-55.5 109t-19.5 142.5q0 84 22 151.5
t63.5 115t99.5 73t130 25.5q50 0 94.5 -12.5t78 -38.5t53 -66t19.5 -94q0 -14 -1.5 -29.5t-6.5 -31.5h-137q3 12 3.5 19t0.5 19q0 47 -28 74.5t-79 27.5q-75 0 -115.5 -58t-40.5 -172q0 -111 45.5 -171t126.5 -60q51 0 83 19.5t59 63.5z" />
    <glyph glyph-name="Egrave" unicode="&#xc8;" horiz-adv-x="570" 
d="M122 902h177l81 -161h-129zM73 700h455v-125h-307v-158h265v-126h-265v-165h309v-126h-457v700z" />
    <glyph glyph-name="Eacute" unicode="&#xc9;" horiz-adv-x="570" 
d="M316 902h177l-129 -161h-129zM73 700h455v-125h-307v-158h265v-126h-265v-165h309v-126h-457v700z" />
    <glyph glyph-name="Ecircumflex" unicode="&#xca;" horiz-adv-x="570" 
d="M233 902h158l89 -161h-126l-42 71l-43 -71h-125zM73 700h455v-125h-307v-158h265v-126h-265v-165h309v-126h-457v700z" />
    <glyph glyph-name="Edieresis" unicode="&#xcb;" horiz-adv-x="570" 
d="M188 741q-36 0 -61.5 25t-25.5 61t25.5 62t61.5 26t61 -26t25 -62t-25 -61t-61 -25zM439 741q-36 0 -61.5 25t-25.5 61t25.5 62t61.5 26t61 -26t25 -62t-25 -61t-61 -25zM73 700h455v-125h-307v-158h265v-126h-265v-165h309v-126h-457v700z" />
    <glyph glyph-name="Igrave" unicode="&#xcc;" horiz-adv-x="295" 
d="M-43 902h178l81 -161h-129zM73 700h148v-700h-148v700z" />
    <glyph glyph-name="Iacute" unicode="&#xcd;" horiz-adv-x="295" 
d="M152 902h177l-130 -161h-128zM73 700h148v-700h-148v700z" />
    <glyph glyph-name="Icircumflex" unicode="&#xce;" horiz-adv-x="295" 
d="M69 902h158l89 -161h-126l-43 71l-42 -71h-126zM73 700h148v-700h-148v700z" />
    <glyph glyph-name="Idieresis" unicode="&#xcf;" horiz-adv-x="295" 
d="M24 741q-36 0 -61.5 25t-25.5 61t25.5 62t61.5 26t61 -26t25 -62t-25 -61t-61 -25zM275 741q-36 0 -61.5 25t-25.5 61t25.5 62t61.5 26t61 -26t25 -62t-25 -61t-61 -25zM73 700h148v-700h-148v700z" />
    <glyph glyph-name="Eth" unicode="&#xd0;" horiz-adv-x="706" 
d="M312 700q77 0 142.5 -19t113.5 -60.5t75 -108t27 -162.5t-29 -163t-76.5 -108.5t-109 -60t-126.5 -18.5h-244v302h-72v105h72v293h227zM314 122q94 0 148 55t54 165t-49.5 173t-163.5 63h-70v-171h103v-105h-103v-180h81z" />
    <glyph glyph-name="Ntilde" unicode="&#xd1;" horiz-adv-x="691" 
d="M184 742q-7 11 -11 27.5t-4 33.5q0 42 27 69t72 27q23 0 42.5 -6t36.5 -13.5t31.5 -14t26.5 -6.5q26 0 26 22q0 5 -2 10t-4 9h94q7 -11 10.5 -27t3.5 -30q0 -45 -26 -72t-74 -27q-25 0 -45.5 6.5t-37 14t-30 13.5t-24.5 6q-24 0 -24 -22q0 -12 6 -20h-94zM73 700h131
l256 -427l19 -42v469h139v-700h-130l-261 427l-14 33v-460h-140v700z" />
    <glyph glyph-name="Ograve" unicode="&#xd2;" horiz-adv-x="717" 
d="M168 902h178l81 -161h-129zM357 -11q-66 0 -124.5 21t-102 64.5t-69 111.5t-25.5 162q0 91 25.5 159t69.5 113.5t103 68t126 22.5q66 0 124.5 -21t102 -65.5t69 -112.5t25.5 -163q0 -91 -25.5 -158.5t-69.5 -112.5t-103 -67t-126 -22zM357 118q34 0 64.5 12t54 39.5
t37 71.5t13.5 108q0 65 -13.5 109t-36 71t-53 38.5t-63.5 11.5q-34 0 -64.5 -12t-53.5 -39t-37 -71t-14 -109q0 -64 13.5 -108t36 -71t52.5 -39t64 -12z" />
    <glyph glyph-name="Oacute" unicode="&#xd3;" horiz-adv-x="717" 
d="M363 902h177l-130 -161h-128zM357 -11q-66 0 -124.5 21t-102 64.5t-69 111.5t-25.5 162q0 91 25.5 159t69.5 113.5t103 68t126 22.5q66 0 124.5 -21t102 -65.5t69 -112.5t25.5 -163q0 -91 -25.5 -158.5t-69.5 -112.5t-103 -67t-126 -22zM357 118q34 0 64.5 12t54 39.5
t37 71.5t13.5 108q0 65 -13.5 109t-36 71t-53 38.5t-63.5 11.5q-34 0 -64.5 -12t-53.5 -39t-37 -71t-14 -109q0 -64 13.5 -108t36 -71t52.5 -39t64 -12z" />
    <glyph glyph-name="Ocircumflex" unicode="&#xd4;" horiz-adv-x="717" 
d="M280 902h158l89 -161h-126l-42 71l-43 -71h-125zM357 -11q-66 0 -124.5 21t-102 64.5t-69 111.5t-25.5 162q0 91 25.5 159t69.5 113.5t103 68t126 22.5q66 0 124.5 -21t102 -65.5t69 -112.5t25.5 -163q0 -91 -25.5 -158.5t-69.5 -112.5t-103 -67t-126 -22zM357 118
q34 0 64.5 12t54 39.5t37 71.5t13.5 108q0 65 -13.5 109t-36 71t-53 38.5t-63.5 11.5q-34 0 -64.5 -12t-53.5 -39t-37 -71t-14 -109q0 -64 13.5 -108t36 -71t52.5 -39t64 -12z" />
    <glyph glyph-name="Otilde" unicode="&#xd5;" horiz-adv-x="717" 
d="M191 742q-6 11 -10 27.5t-4 33.5q0 42 26.5 69t72.5 27q23 0 42 -6t36 -13.5t31.5 -14t27.5 -6.5q25 0 25 22q0 12 -6 19h94q7 -11 11 -27t4 -30q0 -45 -26.5 -72t-73.5 -27q-25 0 -45.5 6.5t-37 14t-30 13.5t-24.5 6q-25 0 -25 -22q0 -6 2 -11t4 -9h-94zM357 -11
q-66 0 -124.5 21t-102 64.5t-69 111.5t-25.5 162q0 91 25.5 159t69.5 113.5t103 68t126 22.5q66 0 124.5 -21t102 -65.5t69 -112.5t25.5 -163q0 -91 -25.5 -158.5t-69.5 -112.5t-103 -67t-126 -22zM357 118q34 0 64.5 12t54 39.5t37 71.5t13.5 108q0 65 -13.5 109t-36 71
t-53 38.5t-63.5 11.5q-34 0 -64.5 -12t-53.5 -39t-37 -71t-14 -109q0 -64 13.5 -108t36 -71t52.5 -39t64 -12z" />
    <glyph glyph-name="Odieresis" unicode="&#xd6;" horiz-adv-x="717" 
d="M235 741q-36 0 -61.5 25t-25.5 61t25.5 62t61.5 26t61 -26t25 -62t-25 -61t-61 -25zM486 741q-36 0 -61.5 25t-25.5 61t25.5 62t61.5 26t61 -26t25 -62t-25 -61t-61 -25zM357 -11q-66 0 -124.5 21t-102 64.5t-69 111.5t-25.5 162q0 91 25.5 159t69.5 113.5t103 68
t126 22.5q66 0 124.5 -21t102 -65.5t69 -112.5t25.5 -163q0 -91 -25.5 -158.5t-69.5 -112.5t-103 -67t-126 -22zM357 118q34 0 64.5 12t54 39.5t37 71.5t13.5 108q0 65 -13.5 109t-36 71t-53 38.5t-63.5 11.5q-34 0 -64.5 -12t-53.5 -39t-37 -71t-14 -109q0 -64 13.5 -108
t36 -71t52.5 -39t64 -12z" />
    <glyph glyph-name="multiply" unicode="&#xd7;" horiz-adv-x="491" 
d="M35 128l136 137l-136 136l74 73l136 -135l136 135l74 -73l-136 -136l136 -137l-74 -73l-136 136l-136 -136z" />
    <glyph glyph-name="Oslash" unicode="&#xd8;" horiz-adv-x="717" 
d="M593 618q42 -45 65 -111.5t23 -157.5t-25.5 -158.5t-69.5 -112.5t-103 -67t-125 -22q-42 0 -80 7.5t-72 24.5l-24 -37h-123l64 98q-41 45 -64 110t-23 156t25.5 159t69.5 113.5t103 68t126 22.5q42 0 80 -7.5t72 -24.5l24 37h121zM191 348q0 -41 5.5 -72.5t15.5 -57.5
l224 344q-17 9 -36.5 13t-39.5 4q-34 0 -64.5 -12t-53.5 -39t-37 -71t-14 -109zM358 118q34 0 64.5 12t54 39.5t37 71.5t13.5 108q0 42 -5.5 74.5t-16.5 58.5l-224 -346q17 -10 36.5 -14t40.5 -4z" />
    <glyph glyph-name="Ugrave" unicode="&#xd9;" horiz-adv-x="677" 
d="M148 902h178l81 -161h-129zM340 -6q-56 0 -106 15t-87.5 49.5t-59 91t-21.5 140.5l1 410h147v-422q0 -67 29 -109.5t98 -42.5q34 0 57.5 11t38 31.5t21 48.5t6.5 61v422h146v-410q0 -84 -21.5 -140.5t-58 -91t-85.5 -49.5t-105 -15z" />
    <glyph glyph-name="Uacute" unicode="&#xda;" horiz-adv-x="677" 
d="M343 902h177l-130 -161h-128zM340 -6q-56 0 -106 15t-87.5 49.5t-59 91t-21.5 140.5l1 410h147v-422q0 -67 29 -109.5t98 -42.5q34 0 57.5 11t38 31.5t21 48.5t6.5 61v422h146v-410q0 -84 -21.5 -140.5t-58 -91t-85.5 -49.5t-105 -15z" />
    <glyph glyph-name="Ucircumflex" unicode="&#xdb;" horiz-adv-x="677" 
d="M260 902h158l89 -161h-127l-42 71l-42 -71h-126zM340 -6q-56 0 -106 15t-87.5 49.5t-59 91t-21.5 140.5l1 410h147v-422q0 -67 29 -109.5t98 -42.5q34 0 57.5 11t38 31.5t21 48.5t6.5 61v422h146v-410q0 -84 -21.5 -140.5t-58 -91t-85.5 -49.5t-105 -15z" />
    <glyph glyph-name="Udieresis" unicode="&#xdc;" horiz-adv-x="677" 
d="M215 741q-37 0 -62 25t-25 61t25 62t62 26q36 0 61 -26t25 -62t-25 -61t-61 -25zM466 741q-36 0 -62 25t-26 61t26 62t62 26t61 -26t25 -62t-25 -61t-61 -25zM340 -6q-56 0 -106 15t-87.5 49.5t-59 91t-21.5 140.5l1 410h147v-422q0 -67 29 -109.5t98 -42.5q34 0 57.5 11
t38 31.5t21 48.5t6.5 61v422h146v-410q0 -84 -21.5 -140.5t-58 -91t-85.5 -49.5t-105 -15z" />
    <glyph glyph-name="Yacute" unicode="&#xdd;" horiz-adv-x="631" 
d="M320 902h177l-129 -161h-129zM242 280l-240 420h173l145 -286l145 286h164l-240 -417v-283h-147v280z" />
    <glyph glyph-name="Thorn" unicode="&#xde;" horiz-adv-x="634" 
d="M73 700h156v-106h93q130 0 205.5 -59.5t75.5 -183.5q0 -61 -21 -106t-56.5 -74t-82.5 -43t-100 -14h-114v-114h-156v700zM315 238q64 0 97.5 28t33.5 85q0 53 -33 86t-104 33h-80v-232h86z" />
    <glyph glyph-name="germandbls" unicode="&#xdf;" horiz-adv-x="619" 
d="M400 -13q-40 0 -77 7.5t-58 20.5l46 117q16 -11 35 -16t38 -5q33 0 53 9.5t20 34.5q0 23 -25 39.5t-55.5 35t-55.5 43.5t-25 65q0 35 15 60t33 45.5t33 40.5t15 46q0 31 -19.5 50t-54.5 19q-38 0 -60 -24.5t-22 -70.5v-504h-146v367h-70v115h70v23q0 106 62 167.5
t175 61.5q96 0 152 -46t56 -127q0 -40 -14 -65.5t-31.5 -46t-31.5 -39.5t-14 -46q0 -17 12 -30.5t29.5 -26.5t38.5 -27.5t38.5 -33t29.5 -43t12 -58.5q0 -72 -52.5 -115t-151.5 -43z" />
    <glyph glyph-name="agrave" unicode="&#xe0;" horiz-adv-x="573" 
d="M93 741h171l81 -200h-123zM223 -13q-43 0 -78.5 18t-60.5 50.5t-39 78.5t-14 103q0 58 15.5 105.5t43.5 81.5t66 53t83 19q85 0 125 -57v43h137v-329q0 -23 9 -33t31 -10v-110q-10 -4 -28 -6t-38 -2q-47 0 -72 20t-30 55l-1 1q-20 -38 -55 -59.5t-94 -21.5zM272 109
q36 0 57 21t29 54v119q-3 12 -9.5 24.5t-17 23t-25 17t-34.5 6.5q-47 0 -70 -35t-23 -100q0 -63 24 -96.5t69 -33.5z" />
    <glyph glyph-name="aacute" unicode="&#xe1;" horiz-adv-x="573" 
d="M286 741h171l-130 -200h-122zM223 -13q-43 0 -78.5 18t-60.5 50.5t-39 78.5t-14 103q0 58 15.5 105.5t43.5 81.5t66 53t83 19q85 0 125 -57v43h137v-329q0 -23 9 -33t31 -10v-110q-10 -4 -28 -6t-38 -2q-47 0 -72 20t-30 55l-1 1q-20 -38 -55 -59.5t-94 -21.5zM272 109
q36 0 57 21t29 54v119q-3 12 -9.5 24.5t-17 23t-25 17t-34.5 6.5q-47 0 -70 -35t-23 -100q0 -63 24 -96.5t69 -33.5z" />
    <glyph glyph-name="acircumflex" unicode="&#xe2;" horiz-adv-x="573" 
d="M204 737h156l90 -194h-126l-42 96l-42 -96h-125zM223 -13q-43 0 -78.5 18t-60.5 50.5t-39 78.5t-14 103q0 58 15.5 105.5t43.5 81.5t66 53t83 19q85 0 125 -57v43h137v-329q0 -23 9 -33t31 -10v-110q-10 -4 -28 -6t-38 -2q-47 0 -72 20t-30 55l-1 1q-20 -38 -55 -59.5
t-94 -21.5zM272 109q36 0 57 21t29 54v119q-3 12 -9.5 24.5t-17 23t-25 17t-34.5 6.5q-47 0 -70 -35t-23 -100q0 -63 24 -96.5t69 -33.5z" />
    <glyph glyph-name="atilde" unicode="&#xe3;" horiz-adv-x="573" 
d="M123 549q-7 11 -11 27.5t-4 34.5q0 43 26.5 70t73.5 27q21 0 39 -6.5t33.5 -14.5t29 -14.5t25.5 -6.5q11 0 18.5 5t7.5 16q0 5 -1.5 12t-5.5 11h89q7 -12 11 -28.5t4 -30.5q0 -45 -26 -72.5t-73 -27.5q-23 0 -42 6.5t-34 15t-27 15t-22 6.5q-12 0 -19.5 -6t-7.5 -17
q0 -13 7 -22h-91zM223 -13q-43 0 -78.5 18t-60.5 50.5t-39 78.5t-14 103q0 58 15.5 105.5t43.5 81.5t66 53t83 19q85 0 125 -57v43h137v-329q0 -23 9 -33t31 -10v-110q-10 -4 -28 -6t-38 -2q-47 0 -72 20t-30 55l-1 1q-20 -38 -55 -59.5t-94 -21.5zM272 109q36 0 57 21
t29 54v119q-3 12 -9.5 24.5t-17 23t-25 17t-34.5 6.5q-47 0 -70 -35t-23 -100q0 -63 24 -96.5t69 -33.5z" />
    <glyph glyph-name="adieresis" unicode="&#xe4;" horiz-adv-x="573" 
d="M170 552q-35 0 -60 25.5t-25 60.5t25 60.5t60 25.5q36 0 60.5 -25.5t24.5 -60.5t-24.5 -60.5t-60.5 -25.5zM396 552q-36 0 -61 25.5t-25 60.5t25 60.5t61 25.5q35 0 59.5 -25.5t24.5 -60.5t-24.5 -60.5t-59.5 -25.5zM223 -13q-43 0 -78.5 18t-60.5 50.5t-39 78.5t-14 103
q0 58 15.5 105.5t43.5 81.5t66 53t83 19q85 0 125 -57v43h137v-329q0 -23 9 -33t31 -10v-110q-10 -4 -28 -6t-38 -2q-47 0 -72 20t-30 55l-1 1q-20 -38 -55 -59.5t-94 -21.5zM272 109q36 0 57 21t29 54v119q-3 12 -9.5 24.5t-17 23t-25 17t-34.5 6.5q-47 0 -70 -35t-23 -100
q0 -63 24 -96.5t69 -33.5z" />
    <glyph glyph-name="aring" unicode="&#xe5;" horiz-adv-x="573" 
d="M283 520q-26 0 -48 9.5t-38.5 25.5t-25.5 38.5t-9 47.5q0 26 9 48t25.5 38t38.5 25.5t48 9.5t47.5 -9.5t38 -25.5t25.5 -38t9 -48q0 -25 -9 -47.5t-25.5 -38.5t-38 -25.5t-47.5 -9.5zM283 597q19 0 30.5 12.5t11.5 31.5t-12 31.5t-30 12.5q-19 0 -31 -12.5t-12 -31.5
t12 -31.5t31 -12.5zM223 -13q-43 0 -78.5 18t-60.5 50.5t-39 78.5t-14 103q0 58 15.5 105.5t43.5 81.5t66 53t83 19q85 0 125 -57v43h137v-329q0 -23 9 -33t31 -10v-110q-10 -4 -28 -6t-38 -2q-47 0 -72 20t-30 55l-1 1q-20 -38 -55 -59.5t-94 -21.5zM272 109q36 0 57 21
t29 54v119q-3 12 -9.5 24.5t-17 23t-25 17t-34.5 6.5q-47 0 -70 -35t-23 -100q0 -63 24 -96.5t69 -33.5z" />
    <glyph glyph-name="ae" unicode="&#xe6;" horiz-adv-x="783" 
d="M752 90q-4 -6 -17 -23t-37 -34.5t-60.5 -31.5t-87.5 -14q-66 0 -115.5 25t-78.5 71q-32 -49 -75.5 -72t-102.5 -23q-75 0 -114.5 37.5t-39.5 95.5q0 66 46 102t147 36h95v56q0 68 -65 68q-61 0 -61 -55q0 -14 2.5 -21.5t4.5 -9.5h-131q-2 2 -6.5 15.5t-4.5 39.5
q0 65 51 104.5t150 39.5q51 0 88 -14.5t62 -38.5q28 24 64 38.5t81 14.5q101 0 152 -63t51 -168v-21.5t-2 -24.5h-288q4 -59 30 -86t73 -27q26 0 45.5 7.5t34 17.5t23 20t11.5 14zM543 381q-38 0 -56 -22t-24 -61h149q0 40 -18 61.5t-51 21.5zM222 98q36 0 58 18.5t32 47.5
v22h-81q-32 0 -46 -12.5t-14 -32.5t12.5 -31.5t38.5 -11.5z" />
    <glyph glyph-name="ccedilla" unicode="&#xe7;" horiz-adv-x="494" 
d="M472 90q-22 -38 -61.5 -65t-94.5 -35l-10 -28q35 -5 58 -24t23 -59q0 -47 -35 -73.5t-98 -26.5q-29 0 -58 8.5t-46 25.5l42 64q11 -10 24.5 -16t29.5 -6q36 0 36 26q0 17 -19 26t-53 11l26 71q-97 11 -151 76t-54 176q0 121 64 188t175 67q88 0 141 -40t53 -121
q0 -16 -2.5 -32.5t-6.5 -27.5l-124 -1q5 15 5 37q0 63 -68 63q-90 0 -90 -129q0 -67 27.5 -101.5t78.5 -34.5q42 0 64 16.5t39 40.5z" />
    <glyph glyph-name="egrave" unicode="&#xe8;" horiz-adv-x="496" 
d="M194 541l-129 200h171l81 -200h-123zM476 90q-33 -53 -89 -79t-129 -24q-106 2 -167 64t-61 177q0 62 18.5 111.5t51.5 84t78.5 53.5t99.5 19q85 0 134 -40t49 -113q0 -43 -21 -73.5t-58.5 -49.5t-88 -28.5t-110.5 -11.5q18 -74 98 -74q38 0 64.5 14.5t46.5 41.5z
M276 378q-41 0 -66.5 -28.5t-30.5 -82.5q66 2 106.5 16.5t40.5 49.5q0 45 -50 45z" />
    <glyph glyph-name="eacute" unicode="&#xe9;" horiz-adv-x="496" 
d="M299 541h-122l81 200h171zM476 90q-33 -53 -89 -79t-129 -24q-106 2 -167 64t-61 177q0 62 18.5 111.5t51.5 84t78.5 53.5t99.5 19q85 0 134 -40t49 -113q0 -43 -21 -73.5t-58.5 -49.5t-88 -28.5t-110.5 -11.5q18 -74 98 -74q38 0 64.5 14.5t46.5 41.5zM276 378
q-41 0 -66.5 -28.5t-30.5 -82.5q66 2 106.5 16.5t40.5 49.5q0 45 -50 45z" />
    <glyph glyph-name="ecircumflex" unicode="&#xea;" horiz-adv-x="496" 
d="M212 543h-125l89 194h156l90 -194h-126l-42 96zM476 90q-33 -53 -89 -79t-129 -24q-106 2 -167 64t-61 177q0 62 18.5 111.5t51.5 84t78.5 53.5t99.5 19q85 0 134 -40t49 -113q0 -43 -21 -73.5t-58.5 -49.5t-88 -28.5t-110.5 -11.5q18 -74 98 -74q38 0 64.5 14.5
t46.5 41.5zM276 378q-41 0 -66.5 -28.5t-30.5 -82.5q66 2 106.5 16.5t40.5 49.5q0 45 -50 45z" />
    <glyph glyph-name="edieresis" unicode="&#xeb;" horiz-adv-x="496" 
d="M142 552q-35 0 -60 25.5t-25 60.5t25 60.5t60 25.5q36 0 60.5 -25.5t24.5 -60.5t-24.5 -60.5t-60.5 -25.5zM368 552q-36 0 -61 25.5t-25 60.5t25 60.5t61 25.5q35 0 59.5 -25.5t24.5 -60.5t-24.5 -60.5t-59.5 -25.5zM476 90q-33 -53 -89 -79t-129 -24q-106 2 -167 64
t-61 177q0 62 18.5 111.5t51.5 84t78.5 53.5t99.5 19q85 0 134 -40t49 -113q0 -43 -21 -73.5t-58.5 -49.5t-88 -28.5t-110.5 -11.5q18 -74 98 -74q38 0 64.5 14.5t46.5 41.5zM276 378q-41 0 -66.5 -28.5t-30.5 -82.5q66 2 106.5 16.5t40.5 49.5q0 45 -50 45z" />
    <glyph glyph-name="igrave" unicode="&#xec;" horiz-adv-x="260" 
d="M-60 741h171l81 -200h-122zM57 482h146v-482h-146v482z" />
    <glyph glyph-name="iacute" unicode="&#xed;" horiz-adv-x="260" 
d="M133 741h171l-129 -200h-123zM57 482h146v-482h-146v482z" />
    <glyph glyph-name="icircumflex" unicode="&#xee;" horiz-adv-x="260" 
d="M52 737h156l89 -194h-126l-42 96l-42 -96h-125zM57 482h146v-482h-146v482z" />
    <glyph glyph-name="idieresis" unicode="&#xef;" horiz-adv-x="260" 
d="M17 552q-35 0 -60 25.5t-25 60.5t25 60.5t60 25.5q36 0 60.5 -25.5t24.5 -60.5t-24.5 -60.5t-60.5 -25.5zM243 552q-35 0 -60.5 25.5t-25.5 60.5t25.5 60.5t60.5 25.5t60 -25.5t25 -60.5t-25 -60.5t-60 -25.5zM57 482h146v-482h-146v482z" />
    <glyph glyph-name="eth" unicode="&#xf0;" horiz-adv-x="555" 
d="M419 622q99 -99 99 -287q0 -174 -63 -262t-189 -88q-61 0 -105.5 18.5t-73.5 50.5t-43 75.5t-14 93.5t15.5 92.5t43 73.5t66.5 49t86 18q48 0 79 -13t54 -34q-2 48 -20.5 83.5t-49.5 59.5l-103 -62l-44 67l62 37q-23 7 -48.5 10t-52.5 3v120q71 -1 129 -14.5t105 -39.5
l94 56l43 -65zM269 109q32 0 51.5 15.5t31 41t15.5 58t4 67.5q-20 21 -43.5 31t-55.5 10q-47 0 -71.5 -29t-24.5 -77q0 -54 25 -85.5t68 -31.5z" />
    <glyph glyph-name="ntilde" unicode="&#xf1;" horiz-adv-x="574" 
d="M127 549q-16 24 -16 62q0 43 26.5 70t74.5 27q20 0 38 -6.5t34 -14.5t29.5 -14.5t25.5 -6.5q11 0 18 5t7 16q0 5 -1.5 12t-4.5 11h88q8 -12 11.5 -28.5t3.5 -30.5q0 -45 -26 -72.5t-73 -27.5q-23 0 -42 6.5t-34 15t-27 15t-22 6.5q-12 0 -19.5 -6t-7.5 -17q0 -13 7 -22
h-90zM484 -7q-62 0 -92 30t-30 95v170q0 37 -18.5 57t-50.5 20q-34 0 -54.5 -22t-20.5 -59v-284h-146v330q0 41 -40 41v110q10 4 28 6t39 2q45 0 70 -20t30 -49v-1q15 29 49 53t91 24q81 0 125.5 -50t44.5 -142v-151q0 -42 39 -42v-110q-9 -3 -27 -5.5t-37 -2.5z" />
    <glyph glyph-name="ograve" unicode="&#xf2;" horiz-adv-x="543" 
d="M82 741h171l81 -200h-122zM269 -13q-59 0 -103.5 18.5t-74.5 52t-45.5 80.5t-15.5 103t16.5 103t47.5 81t77 52.5t104 18.5t102.5 -18.5t74.5 -52t45.5 -80.5t15.5 -103q0 -55 -16 -102t-47.5 -81t-76.5 -53t-104 -19zM272 109q47 0 70 34.5t23 97.5t-24 98t-69 35
q-46 0 -69.5 -35t-23.5 -98t22.5 -97.5t70.5 -34.5z" />
    <glyph glyph-name="oacute" unicode="&#xf3;" horiz-adv-x="543" 
d="M275 741h171l-130 -200h-122zM269 -13q-59 0 -103.5 18.5t-74.5 52t-45.5 80.5t-15.5 103t16.5 103t47.5 81t77 52.5t104 18.5t102.5 -18.5t74.5 -52t45.5 -80.5t15.5 -103q0 -55 -16 -102t-47.5 -81t-76.5 -53t-104 -19zM272 109q47 0 70 34.5t23 97.5t-24 98t-69 35
q-46 0 -69.5 -35t-23.5 -98t22.5 -97.5t70.5 -34.5z" />
    <glyph glyph-name="ocircumflex" unicode="&#xf4;" horiz-adv-x="543" 
d="M193 737h156l90 -194h-126l-42 96l-42 -96h-125zM269 -13q-59 0 -103.5 18.5t-74.5 52t-45.5 80.5t-15.5 103t16.5 103t47.5 81t77 52.5t104 18.5t102.5 -18.5t74.5 -52t45.5 -80.5t15.5 -103q0 -55 -16 -102t-47.5 -81t-76.5 -53t-104 -19zM272 109q47 0 70 34.5
t23 97.5t-24 98t-69 35q-46 0 -69.5 -35t-23.5 -98t22.5 -97.5t70.5 -34.5z" />
    <glyph glyph-name="otilde" unicode="&#xf5;" horiz-adv-x="543" 
d="M112 549q-7 11 -11 27.5t-4 34.5q0 43 26.5 70t74.5 27q20 0 38 -6.5t33.5 -14.5t29 -14.5t25.5 -6.5q11 0 18.5 5t7.5 16q0 5 -1.5 12t-5.5 11h89q8 -12 11.5 -28.5t3.5 -30.5q0 -45 -26 -72.5t-73 -27.5q-23 0 -42 6.5t-34 15t-27 15t-22 6.5q-12 0 -19.5 -6t-7.5 -17
q0 -13 7 -22h-91zM269 -13q-59 0 -103.5 18.5t-74.5 52t-45.5 80.5t-15.5 103t16.5 103t47.5 81t77 52.5t104 18.5t102.5 -18.5t74.5 -52t45.5 -80.5t15.5 -103q0 -55 -16 -102t-47.5 -81t-76.5 -53t-104 -19zM272 109q47 0 70 34.5t23 97.5t-24 98t-69 35q-46 0 -69.5 -35
t-23.5 -98t22.5 -97.5t70.5 -34.5z" />
    <glyph glyph-name="odieresis" unicode="&#xf6;" horiz-adv-x="543" 
d="M159 552q-35 0 -60 25.5t-25 60.5t25 60.5t60 25.5q36 0 60.5 -25.5t24.5 -60.5t-24.5 -60.5t-60.5 -25.5zM385 552q-36 0 -61 25.5t-25 60.5t25 60.5t61 25.5q35 0 59.5 -25.5t24.5 -60.5t-24.5 -60.5t-59.5 -25.5zM269 -13q-59 0 -103.5 18.5t-74.5 52t-45.5 80.5
t-15.5 103t16.5 103t47.5 81t77 52.5t104 18.5t102.5 -18.5t74.5 -52t45.5 -80.5t15.5 -103q0 -55 -16 -102t-47.5 -81t-76.5 -53t-104 -19zM272 109q47 0 70 34.5t23 97.5t-24 98t-69 35q-46 0 -69.5 -35t-23.5 -98t22.5 -97.5t70.5 -34.5z" />
    <glyph glyph-name="divide" unicode="&#xf7;" horiz-adv-x="439" 
d="M220 359q-38 0 -64.5 27.5t-26.5 66.5q0 38 26.5 65t64.5 27q39 0 66.5 -27t27.5 -65q0 -39 -27.5 -66.5t-66.5 -27.5zM31 318h377v-104h-377v104zM221 -23q-38 0 -65 28t-27 66t27 65.5t65 27.5q39 0 66.5 -27.5t27.5 -65.5q0 -19 -7.5 -36t-20 -30t-29.5 -20.5
t-37 -7.5z" />
    <glyph glyph-name="oslash" unicode="&#xf8;" horiz-adv-x="543" 
d="M446 432q33 -34 50 -82t17 -108q0 -55 -16 -102t-47.5 -81t-76.5 -53t-104 -19q-60 0 -108 20l-28 -42h-94l58 86q-33 34 -50 82t-17 108q0 56 16.5 103t47.5 81t77 52.5t104 18.5q62 0 107 -21l28 42h93zM179 241q0 -32 6 -58l124 183q-18 8 -37 8q-46 0 -69.5 -35
t-23.5 -98zM272 109q47 0 70 34.5t23 97.5q0 35 -7 60l-124 -185q15 -7 38 -7z" />
    <glyph glyph-name="ugrave" unicode="&#xf9;" horiz-adv-x="561" 
d="M82 741h171l81 -200h-122zM209 -13q-77 0 -116.5 43.5t-39.5 130.5v321h146v-285q0 -44 17.5 -62t49.5 -18q36 0 57 25.5t21 58.5v281h146v-330q0 -21 9 -31.5t30 -10.5v-110q-8 -3 -25.5 -5.5t-38.5 -2.5q-49 0 -73.5 20.5t-29.5 56.5l-1 1q-22 -41 -57 -62t-95 -21z
" />
    <glyph glyph-name="uacute" unicode="&#xfa;" horiz-adv-x="561" 
d="M276 741h171l-130 -200h-123zM209 -13q-77 0 -116.5 43.5t-39.5 130.5v321h146v-285q0 -44 17.5 -62t49.5 -18q36 0 57 25.5t21 58.5v281h146v-330q0 -21 9 -31.5t30 -10.5v-110q-8 -3 -25.5 -5.5t-38.5 -2.5q-49 0 -73.5 20.5t-29.5 56.5l-1 1q-22 -41 -57 -62t-95 -21z
" />
    <glyph glyph-name="ucircumflex" unicode="&#xfb;" horiz-adv-x="561" 
d="M194 737h156l89 -194h-125l-42 96l-43 -96h-125zM209 -13q-77 0 -116.5 43.5t-39.5 130.5v321h146v-285q0 -44 17.5 -62t49.5 -18q36 0 57 25.5t21 58.5v281h146v-330q0 -21 9 -31.5t30 -10.5v-110q-8 -3 -25.5 -5.5t-38.5 -2.5q-49 0 -73.5 20.5t-29.5 56.5l-1 1
q-22 -41 -57 -62t-95 -21z" />
    <glyph glyph-name="udieresis" unicode="&#xfc;" horiz-adv-x="561" 
d="M160 552q-35 0 -60.5 25.5t-25.5 60.5t25.5 60.5t60.5 25.5t60 -25.5t25 -60.5t-25 -60.5t-60 -25.5zM385 552q-35 0 -60.5 25.5t-25.5 60.5t25.5 60.5t60.5 25.5t60 -25.5t25 -60.5t-25 -60.5t-60 -25.5zM209 -13q-77 0 -116.5 43.5t-39.5 130.5v321h146v-285
q0 -44 17.5 -62t49.5 -18q36 0 57 25.5t21 58.5v281h146v-330q0 -21 9 -31.5t30 -10.5v-110q-8 -3 -25.5 -5.5t-38.5 -2.5q-49 0 -73.5 20.5t-29.5 56.5l-1 1q-22 -41 -57 -62t-95 -21z" />
    <glyph glyph-name="yacute" unicode="&#xfd;" horiz-adv-x="545" 
d="M276 741h171l-130 -200h-122zM246 -247q-78 0 -133.5 27t-82.5 76l92 76q23 -34 48.5 -48t72.5 -14q61 0 84.5 32t23.5 86v74q-42 -68 -145 -68q-153 0 -153 174v314h146v-278q0 -79 59 -79q34 0 58.5 26.5t26.5 64.5v266h146v-489q0 -110 -60.5 -175t-182.5 -65z" />
    <glyph glyph-name="thorn" unicode="&#xfe;" horiz-adv-x="559" 
d="M56 726h146v-290q21 29 53.5 44.5t79.5 15.5q44 0 79.5 -18t61 -51t39.5 -79t14 -103q0 -58 -16 -105.5t-44 -81.5t-66.5 -52.5t-82.5 -18.5t-73 12t-45 30v-258h-146v955zM289 109q44 0 67.5 33.5t23.5 99.5t-25 99t-66 33q-36 0 -58.5 -22t-30.5 -52v-121
q9 -30 30.5 -50t58.5 -20z" />
    <glyph glyph-name="ydieresis" unicode="&#xff;" horiz-adv-x="545" 
d="M160 552q-35 0 -60 25.5t-25 60.5t25 60.5t60 25.5q36 0 60.5 -25.5t24.5 -60.5t-24.5 -60.5t-60.5 -25.5zM386 552q-36 0 -61 25.5t-25 60.5t25 60.5t61 25.5q35 0 59.5 -25.5t24.5 -60.5t-24.5 -60.5t-59.5 -25.5zM246 -247q-78 0 -133.5 27t-82.5 76l92 76
q23 -34 48.5 -48t72.5 -14q61 0 84.5 32t23.5 86v74q-42 -68 -145 -68q-153 0 -153 174v314h146v-278q0 -79 59 -79q34 0 58.5 26.5t26.5 64.5v266h146v-489q0 -110 -60.5 -175t-182.5 -65z" />
    <glyph glyph-name="Amacron" unicode="&#x100;" horiz-adv-x="664" 
d="M490 765h-316v105h316v-105zM458 162h-252l-54 -162h-153l257 700h152l257 -700h-154zM420 277l-88 266l-88 -266h176z" />
    <glyph glyph-name="amacron" unicode="&#x101;" horiz-adv-x="573" 
d="M133 693h299v-109h-299v109zM223 -13q-43 0 -78.5 18t-60.5 50.5t-39 78.5t-14 103q0 58 15.5 105.5t43.5 81.5t66 53t83 19q85 0 125 -57v43h137v-329q0 -23 9 -33t31 -10v-110q-10 -4 -28 -6t-38 -2q-47 0 -72 20t-30 55l-1 1q-20 -38 -55 -59.5t-94 -21.5zM272 109
q36 0 57 21t29 54v119q-3 12 -9.5 24.5t-17 23t-25 17t-34.5 6.5q-47 0 -70 -35t-23 -100q0 -63 24 -96.5t69 -33.5z" />
    <glyph glyph-name="Abreve" unicode="&#x102;" horiz-adv-x="664" 
d="M331 743q-41 0 -70.5 13t-48 35t-27.5 50.5t-9 59.5h106q0 -26 12 -41.5t37 -15.5q26 0 37.5 15.5t11.5 41.5h107q0 -31 -9 -59.5t-28 -50.5t-48.5 -35t-70.5 -13zM458 162h-252l-54 -162h-153l257 700h152l257 -700h-154zM420 277l-88 266l-88 -266h176z" />
    <glyph glyph-name="abreve" unicode="&#x103;" horiz-adv-x="573" 
d="M283 557q-46 0 -76 14.5t-48 37.5t-25 53t-7 61h107q0 -60 49 -60q26 0 37 14.5t11 45.5h107q0 -31 -7 -61t-25 -53t-48 -37.5t-75 -14.5zM223 -13q-43 0 -78.5 18t-60.5 50.5t-39 78.5t-14 103q0 58 15.5 105.5t43.5 81.5t66 53t83 19q85 0 125 -57v43h137v-329
q0 -23 9 -33t31 -10v-110q-10 -4 -28 -6t-38 -2q-47 0 -72 20t-30 55l-1 1q-20 -38 -55 -59.5t-94 -21.5zM272 109q36 0 57 21t29 54v119q-3 12 -9.5 24.5t-17 23t-25 17t-34.5 6.5q-47 0 -70 -35t-23 -100q0 -63 24 -96.5t69 -33.5z" />
    <glyph glyph-name="Aogonek" unicode="&#x104;" horiz-adv-x="664" 
d="M667 -176q-30 -27 -89 -27q-57 0 -85.5 25t-28.5 72q0 29 14 56t39 50h-6l-53 162h-252l-54 -162h-153l257 700h152l257 -700h-25q-32 -14 -48.5 -36t-16.5 -45q0 -20 8.5 -28.5t22.5 -8.5q10 0 16 3t11 7zM420 277l-88 266l-88 -266h176z" />
    <glyph glyph-name="aogonek" unicode="&#x105;" horiz-adv-x="573" 
d="M559 -176q-30 -27 -89 -27q-56 0 -85 25t-29 72q0 30 15.5 58.5t43.5 52.5q-19 9 -29 25t-13 37l-1 1q-20 -38 -55 -59.5t-94 -21.5q-43 0 -78.5 18t-60.5 50.5t-39 78.5t-14 103q0 58 15.5 105.5t43.5 81.5t66 53t83 19q85 0 125 -57v43h137v-329q0 -23 9 -33t31 -10
v-110q-4 -2 -8.5 -2.5t-10.5 -2.5q-27 -14 -41 -34t-14 -42q0 -20 8.5 -28.5t22.5 -8.5q10 0 16.5 3t11.5 7zM358 303q-3 12 -9.5 24.5t-17 23t-25 17t-34.5 6.5q-47 0 -70 -35t-23 -100q0 -63 24 -96.5t69 -33.5q36 0 57 21t29 54v119z" />
    <glyph glyph-name="Cacute" unicode="&#x106;" horiz-adv-x="629" 
d="M354 902h177l-130 -161h-129zM352 -11q-72 0 -130.5 24t-99.5 70t-63 112t-22 151q0 84 22 151.5t63 115t99.5 73t130.5 25.5q50 0 94.5 -12.5t78 -38.5t53 -66t19.5 -94q0 -27 -8 -61h-138q3 12 4 19t1 19q0 47 -28.5 74.5t-79.5 27.5q-74 0 -115 -58t-41 -172
q0 -111 46 -171t127 -60q51 0 83 19.5t59 63.5l100 -71q-38 -69 -98.5 -105t-156.5 -36z" />
    <glyph glyph-name="cacute" unicode="&#x107;" horiz-adv-x="493" 
d="M266 741h171l-129 -200h-123zM270 -13q-112 0 -176 66.5t-64 187.5t64 188t175 67q89 0 141.5 -40t52.5 -121q0 -16 -2 -32.5t-7 -27.5l-124 -1q5 15 5 37q0 63 -68 63q-90 0 -90 -129q0 -67 27.5 -101.5t78.5 -34.5q42 0 64.5 16.5t39.5 40.5l84 -76q-26 -45 -77 -74
t-124 -29z" />
    <glyph glyph-name="Ccircumflex" unicode="&#x108;" horiz-adv-x="629" 
d="M271 902h158l89 -161h-127l-42 71l-42 -71h-126zM352 -11q-72 0 -130.5 24t-99.5 70t-63 112t-22 151q0 84 22 151.5t63 115t99.5 73t130.5 25.5q50 0 94.5 -12.5t78 -38.5t53 -66t19.5 -94q0 -27 -8 -61h-138q3 12 4 19t1 19q0 47 -28.5 74.5t-79.5 27.5q-74 0 -115 -58
t-41 -172q0 -111 46 -171t127 -60q51 0 83 19.5t59 63.5l100 -71q-38 -69 -98.5 -105t-156.5 -36z" />
    <glyph glyph-name="ccircumflex" unicode="&#x109;" horiz-adv-x="493" 
d="M185 737h156l89 -194h-126l-42 96l-42 -96h-125zM270 -13q-112 0 -176 66.5t-64 187.5t64 188t175 67q89 0 141.5 -40t52.5 -121q0 -16 -2 -32.5t-7 -27.5l-124 -1q5 15 5 37q0 63 -68 63q-90 0 -90 -129q0 -67 27.5 -101.5t78.5 -34.5q42 0 64.5 16.5t39.5 40.5l84 -76
q-26 -45 -77 -74t-124 -29z" />
    <glyph glyph-name="Cdotaccent" unicode="&#x10a;" horiz-adv-x="629" 
d="M352 739q-36 0 -62.5 25.5t-26.5 62.5q0 18 7 34t19.5 28t28.5 19t34 7q36 0 61.5 -26.5t25.5 -61.5q0 -37 -25.5 -62.5t-61.5 -25.5zM352 -11q-72 0 -130.5 24t-99.5 70t-63 112t-22 151q0 84 22 151.5t63 115t99.5 73t130.5 25.5q50 0 94.5 -12.5t78 -38.5t53 -66
t19.5 -94q0 -27 -8 -61h-138q3 12 4 19t1 19q0 47 -28.5 74.5t-79.5 27.5q-74 0 -115 -58t-41 -172q0 -111 46 -171t127 -60q51 0 83 19.5t59 63.5l100 -71q-38 -69 -98.5 -105t-156.5 -36z" />
    <glyph glyph-name="cdotaccent" unicode="&#x10b;" horiz-adv-x="493" 
d="M263 552q-36 0 -63 25.5t-27 62.5q0 18 7.5 34.5t19.5 29t28.5 19.5t34.5 7q37 0 63 -26.5t26 -63.5t-26 -62.5t-63 -25.5zM270 -13q-112 0 -176 66.5t-64 187.5t64 188t175 67q89 0 141.5 -40t52.5 -121q0 -16 -2 -32.5t-7 -27.5l-124 -1q5 15 5 37q0 63 -68 63
q-90 0 -90 -129q0 -67 27.5 -101.5t78.5 -34.5q42 0 64.5 16.5t39.5 40.5l84 -76q-26 -45 -77 -74t-124 -29z" />
    <glyph glyph-name="Ccaron" unicode="&#x10c;" horiz-adv-x="629" 
d="M181 902h127l42 -72l42 72h126l-89 -161h-158zM352 -11q-72 0 -130.5 24t-99.5 70t-63 112t-22 151q0 84 22 151.5t63 115t99.5 73t130.5 25.5q50 0 94.5 -12.5t78 -38.5t53 -66t19.5 -94q0 -27 -8 -61h-138q3 12 4 19t1 19q0 47 -28.5 74.5t-79.5 27.5q-74 0 -115 -58
t-41 -172q0 -111 46 -171t127 -60q51 0 83 19.5t59 63.5l100 -71q-38 -69 -98.5 -105t-156.5 -36z" />
    <glyph glyph-name="ccaron" unicode="&#x10d;" horiz-adv-x="493" 
d="M95 737h126l42 -96l42 96h125l-89 -194h-156zM270 -13q-112 0 -176 66.5t-64 187.5t64 188t175 67q89 0 141.5 -40t52.5 -121q0 -16 -2 -32.5t-7 -27.5l-124 -1q5 15 5 37q0 63 -68 63q-90 0 -90 -129q0 -67 27.5 -101.5t78.5 -34.5q42 0 64.5 16.5t39.5 40.5l84 -76
q-26 -45 -77 -74t-124 -29z" />
    <glyph glyph-name="Dcaron" unicode="&#x10e;" horiz-adv-x="694" 
d="M169 902h126l43 -72l42 72h126l-90 -161h-158zM73 700h227q77 0 142.5 -19t113.5 -60.5t75 -108t27 -162.5t-29 -163t-76.5 -108.5t-109 -60t-126.5 -18.5h-244v700zM302 122q94 0 148 55t54 165t-49.5 173t-163.5 63h-70v-456h81z" />
    <glyph glyph-name="dcaron" unicode="&#x10f;" horiz-adv-x="612" 
d="M223 -13q-43 0 -78.5 18t-60.5 51t-39 79t-14 102q0 58 15.5 106t43.5 82t66.5 52.5t83.5 18.5q44 0 71.5 -14t44.5 -36v280h146v-573q0 -23 9.5 -33t30.5 -10v-110q-10 -4 -27.5 -6t-38.5 -2q-46 0 -71.5 20t-30.5 55v3q-20 -38 -56 -60.5t-95 -22.5zM551 527
q31 11 40.5 26t10.5 29q-32 3 -46 23.5t-14 46.5q0 31 21 52.5t56 21.5q36 0 58 -23.5t22 -65.5q0 -60 -31.5 -105t-90.5 -62zM272 109q34 0 56.5 21t30.5 54v119q-3 12 -9.5 24.5t-17 23t-25.5 17t-35 6.5q-48 0 -70.5 -35t-22.5 -100q0 -63 24.5 -96.5t68.5 -33.5z" />
    <glyph glyph-name="Dcroat" unicode="&#x110;" horiz-adv-x="706" 
d="M312 700q77 0 142.5 -19t113.5 -60.5t75 -108t27 -162.5t-29 -163t-76.5 -108.5t-109 -60t-126.5 -18.5h-244v302h-72v105h72v293h227zM314 122q94 0 148 55t54 165t-49.5 173t-163.5 63h-70v-171h103v-105h-103v-180h81z" />
    <glyph glyph-name="dcroat" unicode="&#x111;" horiz-adv-x="574" 
d="M502 551v-398q0 -23 9.5 -33t30.5 -10v-110q-10 -4 -27.5 -6t-38.5 -2q-46 0 -71.5 20t-30.5 55v3q-20 -38 -56 -60.5t-95 -22.5q-43 0 -78.5 18t-60.5 51t-39 79t-14 102q0 58 15.5 106t43.5 82t66.5 52.5t83.5 18.5q44 0 71.5 -14t44.5 -36v105h-88v105h88v70h146v-70
h89v-105h-89zM359 303q-3 12 -9.5 24.5t-17 23t-25.5 17t-35 6.5q-48 0 -70.5 -35t-22.5 -100q0 -63 24.5 -96.5t68.5 -33.5q34 0 56.5 21t30.5 54v119z" />
    <glyph glyph-name="Emacron" unicode="&#x112;" horiz-adv-x="570" 
d="M154 870h316v-105h-316v105zM73 700h455v-125h-307v-158h265v-126h-265v-165h309v-126h-457v700z" />
    <glyph glyph-name="emacron" unicode="&#x113;" horiz-adv-x="496" 
d="M404 584h-299v109h299v-109zM476 90q-33 -53 -89 -79t-129 -24q-106 2 -167 64t-61 177q0 62 18.5 111.5t51.5 84t78.5 53.5t99.5 19q85 0 134 -40t49 -113q0 -43 -21 -73.5t-58.5 -49.5t-88 -28.5t-110.5 -11.5q18 -74 98 -74q38 0 64.5 14.5t46.5 41.5zM276 378
q-41 0 -66.5 -28.5t-30.5 -82.5q66 2 106.5 16.5t40.5 49.5q0 45 -50 45z" />
    <glyph glyph-name="Ebreve" unicode="&#x114;" horiz-adv-x="570" 
d="M311 743q-41 0 -70.5 13t-48 35t-27.5 50.5t-9 59.5h106q0 -26 11.5 -41.5t37.5 -15.5t37 15.5t11 41.5h107q0 -31 -9 -59.5t-27.5 -50.5t-48 -35t-70.5 -13zM73 700h455v-125h-307v-158h265v-126h-265v-165h309v-126h-457v700z" />
    <glyph glyph-name="ebreve" unicode="&#x115;" horiz-adv-x="496" 
d="M255 557q-46 0 -76 14.5t-48 37.5t-25 53t-7 61h107q0 -60 49 -60q26 0 37 14.5t11 45.5h107q0 -31 -7 -61t-25 -53t-48 -37.5t-75 -14.5zM476 90q-33 -53 -89 -79t-129 -24q-106 2 -167 64t-61 177q0 62 18.5 111.5t51.5 84t78.5 53.5t99.5 19q85 0 134 -40t49 -113
q0 -43 -21 -73.5t-58.5 -49.5t-88 -28.5t-110.5 -11.5q18 -74 98 -74q38 0 64.5 14.5t46.5 41.5zM276 378q-41 0 -66.5 -28.5t-30.5 -82.5q66 2 106.5 16.5t40.5 49.5q0 45 -50 45z" />
    <glyph glyph-name="Edotaccent" unicode="&#x116;" horiz-adv-x="570" 
d="M314 739q-18 0 -34 7t-28 19t-19.5 28t-7.5 34t7.5 34t19.5 28t28 19t34 7t34 -7t28 -19t19 -28t7 -34q0 -37 -26 -62.5t-62 -25.5zM73 700h455v-125h-307v-158h265v-126h-265v-165h309v-126h-457v700z" />
    <glyph glyph-name="edotaccent" unicode="&#x117;" horiz-adv-x="496" 
d="M255 552q-37 0 -63.5 25.5t-26.5 62.5t26.5 63.5t63.5 26.5t62.5 -26.5t25.5 -63.5t-25.5 -62.5t-62.5 -25.5zM476 90q-33 -53 -89 -79t-129 -24q-106 2 -167 64t-61 177q0 62 18.5 111.5t51.5 84t78.5 53.5t99.5 19q85 0 134 -40t49 -113q0 -43 -21 -73.5t-58.5 -49.5
t-88 -28.5t-110.5 -11.5q18 -74 98 -74q38 0 64.5 14.5t46.5 41.5zM276 378q-41 0 -66.5 -28.5t-30.5 -82.5q66 2 106.5 16.5t40.5 49.5q0 45 -50 45z" />
    <glyph glyph-name="Eogonek" unicode="&#x118;" horiz-adv-x="570" 
d="M556 -176q-29 -27 -88 -27q-57 0 -86 25t-29 72q0 29 14 56t40 50h-334v700h455v-125h-307v-158h265v-126h-265v-165h309v-126q-32 -14 -48.5 -36t-16.5 -45q0 -20 8 -28.5t22 -8.5q11 0 17 3t11 7z" />
    <glyph glyph-name="eogonek" unicode="&#x119;" horiz-adv-x="496" 
d="M353 -2q-30 -14 -45.5 -35t-15.5 -44q0 -20 8 -28.5t22 -8.5q11 0 17 3t11 7l34 -68q-30 -27 -89 -27q-57 0 -85.5 25t-28.5 72q0 51 42 95q-91 11 -142 72t-51 167q0 62 18.5 111.5t51.5 84t78.5 53.5t99.5 19q85 0 134 -40t49 -113q0 -43 -21 -73.5t-58.5 -49.5
t-88 -28.5t-110.5 -11.5q18 -74 98 -74q38 0 64.5 14.5t46.5 41.5l84 -72q-21 -34 -52.5 -57t-70.5 -35zM276 378q-41 0 -66.5 -28.5t-30.5 -82.5q66 2 106.5 16.5t40.5 49.5q0 45 -50 45z" />
    <glyph glyph-name="Ecaron" unicode="&#x11a;" horiz-adv-x="570" 
d="M144 902h126l42 -72l43 72h125l-89 -161h-158zM73 700h455v-125h-307v-158h265v-126h-265v-165h309v-126h-457v700z" />
    <glyph glyph-name="ecaron" unicode="&#x11b;" horiz-adv-x="496" 
d="M176 543l-89 194h125l43 -96l42 96h125l-90 -194h-156zM476 90q-33 -53 -89 -79t-129 -24q-106 2 -167 64t-61 177q0 62 18.5 111.5t51.5 84t78.5 53.5t99.5 19q85 0 134 -40t49 -113q0 -43 -21 -73.5t-58.5 -49.5t-88 -28.5t-110.5 -11.5q18 -74 98 -74q38 0 64.5 14.5
t46.5 41.5zM276 378q-41 0 -66.5 -28.5t-30.5 -82.5q66 2 106.5 16.5t40.5 49.5q0 45 -50 45z" />
    <glyph glyph-name="Gcircumflex" unicode="&#x11c;" horiz-adv-x="669" 
d="M269 902h158l89 -161h-127l-42 71l-42 -71h-126zM359 -11q-158 0 -240.5 92t-82.5 267q0 82 22 149t63.5 114.5t102 73.5t136.5 26q56 0 102.5 -13.5t80.5 -40t52.5 -65t18.5 -88.5q0 -23 -5 -50h-140q1 5 1 11v17q0 42 -28 69.5t-87 27.5q-80 0 -121.5 -58.5
t-41.5 -170.5q0 -234 172 -234q50 0 81.5 10t47.5 23v94h-131v118h263v-281q-12 -13 -35 -29t-56.5 -30t-77 -23t-97.5 -9z" />
    <glyph glyph-name="gcircumflex" unicode="&#x11d;" horiz-adv-x="555" 
d="M199 737h156l89 -194h-126l-42 96l-42 -96h-125zM262 -240q-71 0 -125.5 20.5t-91.5 74.5l87 83q25 -32 51.5 -46.5t71.5 -14.5q51 0 78.5 29.5t27.5 88.5v61q-11 -27 -45 -48t-93 -21q-43 0 -78.5 18t-60.5 51t-39 79t-14 102q0 59 15.5 106.5t43.5 81.5t66.5 52.5
t83.5 18.5q85 0 130 -61v47h129v-489q0 -53 -17 -95.5t-48 -73.5t-75 -47.5t-97 -16.5zM272 109q34 0 56.5 21t30.5 54v119q-3 12 -9.5 24.5t-17 23t-25.5 17t-35 6.5q-48 0 -70.5 -35t-22.5 -100q0 -63 24.5 -96.5t68.5 -33.5z" />
    <glyph glyph-name="Gbreve" unicode="&#x11e;" horiz-adv-x="669" 
d="M347 743q-41 0 -70.5 13t-48.5 35t-28 50.5t-9 59.5h107q0 -26 11.5 -41.5t36.5 -15.5q26 0 37.5 15.5t11.5 41.5h107q0 -31 -9 -59.5t-27.5 -50.5t-48 -35t-70.5 -13zM359 -11q-158 0 -240.5 92t-82.5 267q0 82 22 149t63.5 114.5t102 73.5t136.5 26q56 0 102.5 -13.5
t80.5 -40t52.5 -65t18.5 -88.5q0 -23 -5 -50h-140q1 5 1 11v17q0 42 -28 69.5t-87 27.5q-80 0 -121.5 -58.5t-41.5 -170.5q0 -234 172 -234q50 0 81.5 10t47.5 23v94h-131v118h263v-281q-12 -13 -35 -29t-56.5 -30t-77 -23t-97.5 -9z" />
    <glyph glyph-name="gbreve" unicode="&#x11f;" horiz-adv-x="555" 
d="M278 557q-46 0 -76.5 14.5t-48.5 37.5t-25 53t-7 61h107q0 -60 49 -60t49 60h106q0 -31 -7 -61t-24.5 -53t-47.5 -37.5t-75 -14.5zM262 -240q-71 0 -125.5 20.5t-91.5 74.5l87 83q25 -32 51.5 -46.5t71.5 -14.5q51 0 78.5 29.5t27.5 88.5v61q-11 -27 -45 -48t-93 -21
q-43 0 -78.5 18t-60.5 51t-39 79t-14 102q0 59 15.5 106.5t43.5 81.5t66.5 52.5t83.5 18.5q85 0 130 -61v47h129v-489q0 -53 -17 -95.5t-48 -73.5t-75 -47.5t-97 -16.5zM272 109q34 0 56.5 21t30.5 54v119q-3 12 -9.5 24.5t-17 23t-25.5 17t-35 6.5q-48 0 -70.5 -35
t-22.5 -100q0 -63 24.5 -96.5t68.5 -33.5z" />
    <glyph glyph-name="Gdotaccent" unicode="&#x120;" horiz-adv-x="669" 
d="M350 739q-36 0 -62.5 25.5t-26.5 62.5q0 18 7 34t19.5 28t28.5 19t34 7q36 0 61.5 -26.5t25.5 -61.5q0 -37 -25.5 -62.5t-61.5 -25.5zM359 -11q-158 0 -240.5 92t-82.5 267q0 82 22 149t63.5 114.5t102 73.5t136.5 26q56 0 102.5 -13.5t80.5 -40t52.5 -65t18.5 -88.5
q0 -23 -5 -50h-140q1 5 1 11v17q0 42 -28 69.5t-87 27.5q-80 0 -121.5 -58.5t-41.5 -170.5q0 -234 172 -234q50 0 81.5 10t47.5 23v94h-131v118h263v-281q-12 -13 -35 -29t-56.5 -30t-77 -23t-97.5 -9z" />
    <glyph glyph-name="gdotaccent" unicode="&#x121;" horiz-adv-x="555" 
d="M277 552q-36 0 -63 25.5t-27 62.5q0 18 7.5 34.5t19.5 29t28.5 19.5t34.5 7q37 0 63 -26.5t26 -63.5t-26 -62.5t-63 -25.5zM262 -240q-71 0 -125.5 20.5t-91.5 74.5l87 83q25 -32 51.5 -46.5t71.5 -14.5q51 0 78.5 29.5t27.5 88.5v61q-11 -27 -45 -48t-93 -21
q-43 0 -78.5 18t-60.5 51t-39 79t-14 102q0 59 15.5 106.5t43.5 81.5t66.5 52.5t83.5 18.5q85 0 130 -61v47h129v-489q0 -53 -17 -95.5t-48 -73.5t-75 -47.5t-97 -16.5zM272 109q34 0 56.5 21t30.5 54v119q-3 12 -9.5 24.5t-17 23t-25.5 17t-35 6.5q-48 0 -70.5 -35
t-22.5 -100q0 -63 24.5 -96.5t68.5 -33.5z" />
    <glyph glyph-name="uni0122" unicode="&#x122;" horiz-adv-x="669" 
d="M359 -11q-158 0 -240.5 92t-82.5 267q0 82 22 149t63.5 114.5t102 73.5t136.5 26q56 0 102.5 -13.5t80.5 -40t52.5 -65t18.5 -88.5q0 -23 -5 -50h-140q1 5 1 11v17q0 42 -28 69.5t-87 27.5q-80 0 -121.5 -58.5t-41.5 -170.5q0 -234 172 -234q50 0 81.5 10t47.5 23v94
h-131v118h263v-281q-12 -13 -35 -29t-56.5 -30t-77 -23t-97.5 -9zM298 -220q46 15 48 45q-26 2 -43.5 20.5t-17.5 48.5q0 32 21.5 53t54.5 21q38 0 60 -22.5t22 -64.5q0 -59 -32 -99.5t-87 -55.5z" />
    <glyph glyph-name="uni0123" unicode="&#x123;" horiz-adv-x="555" 
d="M277 544q-38 0 -60 21.5t-22 63.5q0 24 8.5 48.5t23.5 45.5t35.5 37t44.5 23l32 -55q-24 -7 -37.5 -21.5t-14.5 -25.5q29 -2 45.5 -20.5t16.5 -47.5t-20 -49t-52 -20zM262 -240q-71 0 -125.5 20.5t-91.5 74.5l87 83q25 -32 51.5 -46.5t71.5 -14.5q51 0 78.5 29.5
t27.5 88.5v61q-11 -27 -45 -48t-93 -21q-43 0 -78.5 18t-60.5 51t-39 79t-14 102q0 59 15.5 106.5t43.5 81.5t66.5 52.5t83.5 18.5q85 0 130 -61v47h129v-489q0 -53 -17 -95.5t-48 -73.5t-75 -47.5t-97 -16.5zM272 109q34 0 56.5 21t30.5 54v119q-3 12 -9.5 24.5t-17 23
t-25.5 17t-35 6.5q-48 0 -70.5 -35t-22.5 -100q0 -63 24.5 -96.5t68.5 -33.5z" />
    <glyph glyph-name="Hcircumflex" unicode="&#x124;" horiz-adv-x="701" 
d="M272 902h158l89 -161h-126l-42 71l-43 -71h-125zM73 700h148v-278h259v278h148v-700h-148v286h-259v-286h-148v700z" />
    <glyph glyph-name="hcircumflex" unicode="&#x125;" horiz-adv-x="559" 
d="M51 902h158l89 -161h-126l-42 71l-43 -71h-125zM469 -7q-62 0 -92 30t-30 95v171q0 35 -18.5 55.5t-49.5 20.5q-21 0 -35.5 -7t-24 -18.5t-13.5 -25t-4 -26.5v-288h-146v726h146v-282q16 20 46 36t74 16q46 0 78.5 -15t53 -41t30 -61t9.5 -75v-151q0 -42 40 -42v-110
q-9 -3 -27 -5.5t-37 -2.5z" />
    <glyph glyph-name="Hbar" unicode="&#x126;" horiz-adv-x="734" 
d="M714 496h-70v-496h-148v286h-259v-286h-147v496h-70v96h70v108h147v-108h259v108h148v-108h70v-96zM496 496h-259v-74h259v74z" />
    <glyph glyph-name="hbar" unicode="&#x127;" horiz-adv-x="559" 
d="M493 153q0 -42 40 -42v-110q-9 -3 -27 -5.5t-37 -2.5q-62 0 -92 30t-30 95v171q0 35 -18.5 55.5t-49.5 20.5q-21 0 -35.5 -7t-24 -18.5t-13.5 -25t-4 -26.5v-288h-146v551h-62v105h62v70h146v-70h115v-105h-115v-107q16 20 46 36t74 16q46 0 78.5 -15t53 -41t30 -61
t9.5 -75v-151z" />
    <glyph glyph-name="Itilde" unicode="&#x128;" horiz-adv-x="295" 
d="M-20 742q-6 11 -10.5 27.5t-4.5 33.5q0 42 27 69t72 27q23 0 42.5 -6t36.5 -13.5t31.5 -14t27.5 -6.5q25 0 25 22q0 12 -6 19h94q7 -11 10.5 -27t3.5 -30q0 -45 -26 -72t-73 -27q-25 0 -45.5 6.5t-37 14t-30 13.5t-24.5 6q-25 0 -25 -22q0 -12 6 -20h-94zM73 700h148
v-700h-148v700z" />
    <glyph glyph-name="itilde" unicode="&#x129;" horiz-adv-x="260" 
d="M-29 549q-7 11 -11.5 27.5t-4.5 34.5q0 43 26.5 70t74.5 27q20 0 38 -6.5t34 -14.5t29.5 -14.5t25.5 -6.5q11 0 18 5t7 16q0 5 -1.5 12t-4.5 11h88q8 -12 11.5 -28.5t3.5 -30.5q0 -45 -26 -72.5t-73 -27.5q-23 0 -41.5 6.5t-34 15t-27.5 15t-21 6.5q-28 0 -28 -23
q0 -13 7 -22h-90zM57 482h146v-482h-146v482z" />
    <glyph glyph-name="Imacron" unicode="&#x12a;" horiz-adv-x="295" 
d="M-11 870h317v-105h-317v105zM73 700h148v-700h-148v700z" />
    <glyph glyph-name="imacron" unicode="&#x12b;" horiz-adv-x="260" 
d="M-20 693h300v-109h-300v109zM57 482h146v-482h-146v482z" />
    <glyph glyph-name="Ibreve" unicode="&#x12c;" horiz-adv-x="295" 
d="M147 743q-41 0 -70.5 13t-48.5 35t-28 50.5t-9 59.5h107q0 -26 11.5 -41.5t37.5 -15.5q25 0 36.5 15.5t11.5 41.5h107q0 -31 -9 -59.5t-27.5 -50.5t-48 -35t-70.5 -13zM73 700h148v-700h-148v700z" />
    <glyph glyph-name="ibreve" unicode="&#x12d;" horiz-adv-x="260" 
d="M131 557q-46 0 -76.5 14.5t-48.5 37.5t-25 53t-7 61h107q0 -60 49 -60t49 60h106q0 -31 -7 -61t-24.5 -53t-47.5 -37.5t-75 -14.5zM57 482h146v-482h-146v482z" />
    <glyph glyph-name="Iogonek" unicode="&#x12e;" horiz-adv-x="295" 
d="M247 -176q-30 -27 -88 -27q-57 0 -86 25t-29 72q0 29 14 56t40 50h-25v700h148v-700h-1q-32 -14 -48.5 -36t-16.5 -45q0 -20 8.5 -28.5t22.5 -8.5q11 0 17 3t11 7z" />
    <glyph glyph-name="iogonek" unicode="&#x12f;" horiz-adv-x="260" 
d="M130 552q-36 0 -63 25.5t-27 62.5q0 18 7.5 34.5t19.5 29t28.5 19.5t34.5 7q37 0 63 -26.5t26 -63.5t-26 -62.5t-63 -25.5zM224 -176q-30 -27 -89 -27q-57 0 -85.5 25t-28.5 72q0 29 14 56t39 50h-17v482h146v-482h-6q-32 -14 -48.5 -36t-16.5 -45q0 -20 8 -28.5t22 -8.5
q11 0 17 3t11 7z" />
    <glyph glyph-name="Idotaccent" unicode="&#x130;" horiz-adv-x="295" 
d="M150 739q-36 0 -62.5 25.5t-26.5 62.5q0 18 7 34t19.5 28t28.5 19t34 7t34 -7t28 -19t19 -28t7 -34q0 -37 -26 -62.5t-62 -25.5zM73 700h148v-700h-148v700z" />
    <glyph glyph-name="dotlessi" unicode="&#x131;" horiz-adv-x="260" 
d="M57 482h146v-482h-146v482z" />
    <glyph glyph-name="IJ" unicode="&#x132;" horiz-adv-x="778" 
d="M73 700h148v-700h-148v700zM476 -6q-65 0 -112 23t-73 58l88 103q19 -22 40.5 -36t54.5 -14q43 0 66 28.5t23 81.5v462h148v-460q0 -117 -60.5 -181.5t-174.5 -64.5z" />
    <glyph glyph-name="ij" unicode="&#x133;" horiz-adv-x="529" 
d="M130 552q-36 0 -63 25.5t-27 62.5q0 18 7.5 34.5t19.5 29t28.5 19.5t34.5 7q37 0 63 -26.5t26 -63.5t-26 -62.5t-63 -25.5zM393 552q-37 0 -63.5 25.5t-26.5 62.5t26.5 63.5t63.5 26.5t62.5 -26.5t25.5 -63.5t-25.5 -62.5t-62.5 -25.5zM57 482h146v-482h-146v482z
M268 -247q-26 0 -45 5t-31 11q-15 7 -24 16l43 107q5 -3 11 -5q5 -2 12.5 -3.5t17.5 -1.5q35 0 51.5 25t16.5 70v505h146v-512q0 -48 -11 -88t-35 -68.5t-61.5 -44.5t-90.5 -16z" />
    <glyph glyph-name="Jcircumflex" unicode="&#x134;" horiz-adv-x="488" 
d="M261 902h158l89 -161h-126l-42 71l-43 -71h-125zM187 -6q-66 0 -113 23t-73 58l88 103q19 -22 40.5 -36t55.5 -14q42 0 65.5 28.5t23.5 81.5v462h147v-460q0 -117 -60 -181.5t-174 -64.5z" />
    <glyph glyph-name="jcircumflex" unicode="&#x135;" horiz-adv-x="264" 
d="M55 737h156l90 -194h-126l-42 96l-42 -96h-125zM9 -247q-26 0 -45 5t-31 11q-15 7 -24 16l43 107q5 -3 11 -5t13.5 -3.5t16.5 -1.5q35 0 51.5 25t16.5 70v505h146v-512q0 -48 -11 -88t-35 -68.5t-61.5 -44.5t-90.5 -16z" />
    <glyph glyph-name="uni0136" unicode="&#x136;" horiz-adv-x="668" 
d="M655 122v-122q-8 -2 -28 -4.5t-46 -2.5q-55 0 -89.5 21.5t-56.5 54t-37.5 70t-33.5 70t-43 54t-67 21.5h-33v-284h-148v700h148v-290h40q42 0 78 15t62.5 49t41.5 89.5t15 136.5h146q0 -122 -40.5 -215t-116.5 -145q35 -27 54 -64t35 -71.5t34.5 -58.5t52.5 -24h32z
M348 -32q37 0 59 -22.5t22 -64.5q0 -59 -32 -99.5t-87 -55.5l-26 54q48 15 48 45q-26 2 -43.5 20.5t-17.5 48.5q0 32 21.5 53t55.5 21z" />
    <glyph glyph-name="uni0137" unicode="&#x137;" horiz-adv-x="541" 
d="M522 113v-112q-9 -3 -25.5 -6.5t-33.5 -3.5q-43 0 -69.5 14.5t-43 36.5t-28 47.5t-25 47.5t-33.5 36.5t-54 14.5h-8v-188h-146v726h146v-416h24q64 0 95 45.5t32 126.5h137q0 -30 -4.5 -62.5t-16.5 -64t-33.5 -60.5t-56.5 -52q26 -16 39 -38t24 -42.5t25.5 -35
t43.5 -14.5h11zM295 -32q38 0 60 -22.5t22 -64.5q0 -59 -32 -99.5t-88 -55.5l-26 54q48 15 48 45q-26 2 -43 20.5t-17 48.5q0 32 21.5 53t54.5 21z" />
    <glyph glyph-name="kgreenlandic" unicode="&#x138;" horiz-adv-x="541" 
d="M522 115v-114q-9 -3 -25.5 -6.5t-33.5 -3.5q-43 0 -69.5 14.5t-43 35.5t-28 46.5t-25 46.5t-33.5 35.5t-54 14.5h-8v-184h-146v482h146v-176h24q64 0 95 46t32 130h137q0 -30 -4.5 -63t-16.5 -65t-33.5 -61.5t-56.5 -52.5q26 -16 39 -37.5t24 -41t25.5 -33t43.5 -13.5h11
z" />
    <glyph glyph-name="Lacute" unicode="&#x139;" horiz-adv-x="537" 
d="M163 902h177l-130 -161h-128zM73 700h148v-566h303v-134h-451v700z" />
    <glyph glyph-name="lacute" unicode="&#x13a;" horiz-adv-x="276" 
d="M124 912h177l-130 -160h-128zM178 -7q-62 0 -92 29t-30 97v607h146v-572q0 -22 10 -31t33 -9v-113q-11 -3 -30 -5.5t-37 -2.5z" />
    <glyph glyph-name="uni013B" unicode="&#x13b;" horiz-adv-x="537" 
d="M73 700h148v-566h303v-134h-451v700zM248 -220q46 15 48 45q-26 2 -43.5 20.5t-17.5 48.5q0 32 21.5 53t54.5 21q38 0 60 -22.5t22 -64.5q0 -59 -32 -99.5t-87 -55.5z" />
    <glyph glyph-name="uni013C" unicode="&#x13c;" horiz-adv-x="276" 
d="M178 -7q-62 0 -92 29t-30 97v607h146v-572q0 -22 10 -31t33 -9v-113q-11 -3 -30 -5.5t-37 -2.5zM86 -220q48 15 48 45q-26 2 -43 20.5t-17 48.5q0 32 21 53t55 21q37 0 59 -22.5t22 -64.5q0 -59 -32 -99.5t-87 -55.5z" />
    <glyph glyph-name="Lcaron" unicode="&#x13d;" horiz-adv-x="545" 
d="M347 508q31 11 40.5 26t10.5 29q-32 3 -46.5 23.5t-14.5 46.5q0 31 21 52.5t56 21.5q36 0 58.5 -23t22.5 -65q0 -60 -32 -105.5t-91 -62.5zM73 700h148v-566h303v-134h-451v700z" />
    <glyph glyph-name="lcaron" unicode="&#x13e;" horiz-adv-x="314" 
d="M178 -7q-62 0 -92 29t-30 97v607h146v-572q0 -22 10 -31t33 -9v-113q-11 -3 -30 -5.5t-37 -2.5zM247 527q30 11 40 26t11 29q-32 3 -46.5 23.5t-14.5 46.5q0 31 21 52.5t56 21.5q36 0 58.5 -23.5t22.5 -65.5q0 -60 -32 -105t-91 -62z" />
    <glyph glyph-name="Ldot" unicode="&#x13f;" horiz-adv-x="545" 
d="M73 700h148v-566h303v-134h-451v700zM414 325q-35 0 -59.5 24.5t-24.5 59.5t24.5 60t59.5 25t60 -25t25 -60t-25 -59.5t-60 -24.5z" />
    <glyph glyph-name="ldot" unicode="&#x140;" horiz-adv-x="363" 
d="M178 -7q-62 0 -92 29t-30 97v607h146v-572q0 -22 10 -31t33 -9v-113q-11 -3 -30 -5.5t-37 -2.5zM310 301q-35 0 -59.5 25t-24.5 60t24.5 60t59.5 25t60 -25t25 -60t-25 -60t-60 -25z" />
    <glyph glyph-name="Lslash" unicode="&#x141;" horiz-adv-x="574" 
d="M562 134v-134h-451v229l-54 -31l-55 98l109 62v342h148v-258l91 52l57 -96l-148 -85v-179h303z" />
    <glyph glyph-name="lslash" unicode="&#x142;" horiz-adv-x="372" 
d="M258 154q0 -22 10 -31t33 -9v-113q-11 -3 -30 -5.5t-37 -2.5q-62 0 -92 29t-30 97v149l-60 -35l-52 92l112 66v335h146v-248l56 33l56 -93l-112 -65v-199z" />
    <glyph glyph-name="Nacute" unicode="&#x143;" horiz-adv-x="691" 
d="M356 902h177l-130 -161h-129zM73 700h131l256 -427l19 -42v469h139v-700h-130l-261 427l-14 33v-460h-140v700z" />
    <glyph glyph-name="nacute" unicode="&#x144;" horiz-adv-x="574" 
d="M289 741h171l-130 -200h-122zM484 -7q-62 0 -92 30t-30 95v170q0 37 -18.5 57t-50.5 20q-34 0 -54.5 -22t-20.5 -59v-284h-146v330q0 41 -40 41v110q10 4 28 6t39 2q45 0 70 -20t30 -49v-1q15 29 49 53t91 24q81 0 125.5 -50t44.5 -142v-151q0 -42 39 -42v-110
q-9 -3 -27 -5.5t-37 -2.5z" />
    <glyph glyph-name="uni0145" unicode="&#x145;" horiz-adv-x="691" 
d="M73 700h131l256 -427l19 -42v469h139v-700h-130l-261 427l-14 33v-460h-140v700zM289 -220q48 15 48 45q-26 2 -43 20.5t-17 48.5q0 32 21 53t55 21q37 0 59 -22.5t22 -64.5q0 -59 -32 -99.5t-87 -55.5z" />
    <glyph glyph-name="uni0146" unicode="&#x146;" horiz-adv-x="574" 
d="M484 -7q-62 0 -92 30t-30 95v170q0 37 -18.5 57t-50.5 20q-34 0 -54.5 -22t-20.5 -59v-284h-146v330q0 41 -40 41v110q10 4 28 6t39 2q45 0 70 -20t30 -49v-1q15 29 49 53t91 24q81 0 125.5 -50t44.5 -142v-151q0 -42 39 -42v-110q-9 -3 -27 -5.5t-37 -2.5zM236 -220
q48 15 48 45q-26 2 -43 20.5t-17 48.5q0 32 21.5 53t54.5 21q38 0 60 -22.5t22 -64.5q0 -59 -32 -99.5t-88 -55.5z" />
    <glyph glyph-name="Ncaron" unicode="&#x147;" horiz-adv-x="691" 
d="M183 902h126l43 -72l42 72h126l-90 -161h-158zM73 700h131l256 -427l19 -42v469h139v-700h-130l-261 427l-14 33v-460h-140v700z" />
    <glyph glyph-name="ncaron" unicode="&#x148;" horiz-adv-x="574" 
d="M118 737h126l42 -96l42 96h125l-90 -194h-155zM484 -7q-62 0 -92 30t-30 95v170q0 37 -18.5 57t-50.5 20q-34 0 -54.5 -22t-20.5 -59v-284h-146v330q0 41 -40 41v110q10 4 28 6t39 2q45 0 70 -20t30 -49v-1q15 29 49 53t91 24q81 0 125.5 -50t44.5 -142v-151
q0 -42 39 -42v-110q-9 -3 -27 -5.5t-37 -2.5z" />
    <glyph glyph-name="napostrophe" unicode="&#x149;" horiz-adv-x="689" 
d="M19 533q14 6 25 14q10 7 17.5 15t7.5 18q-26 0 -43.5 20t-17.5 49q0 28 19 48t51 20q29 0 51 -19t22 -60q0 -46 -15.5 -76t-34.5 -48q-23 -20 -51 -31zM599 -5q-122 0 -122 134v151q0 36 -18.5 56.5t-50.5 20.5q-21 0 -35 -8t-23 -20t-13 -26t-4 -27v-276h-147v328
q0 20 -8 30.5t-31 10.5v111q7 2 16 4q9 1 20.5 2t27.5 1q31 0 50.5 -8.5t31 -20t16 -22.5t4.5 -17v-8q5 14 15 27.5t26.5 24.5t40.5 18t57 7q46 0 78.5 -15t53.5 -41t30.5 -61t9.5 -75v-142q0 -20 8 -30.5t31 -10.5v-111q-7 -2 -16 -4q-9 -1 -20.5 -2t-27.5 -1z" />
    <glyph glyph-name="Eng" unicode="&#x14a;" horiz-adv-x="691" 
d="M618 700v-712q0 -110 -58.5 -168t-158.5 -58q-44 0 -81.5 13t-60.5 41l85 113q20 -24 59 -24q28 0 48.5 19t20.5 67v35l-245 401l-14 33v-460h-140v700h131l256 -427l19 -42v469h139z" />
    <glyph glyph-name="eng" unicode="&#x14b;" horiz-adv-x="556" 
d="M340 496q81 0 125 -50t44 -142v-316q0 -110 -58.5 -168t-158.5 -58q-44 0 -82 12.5t-60 37.5l85 114q21 -21 58 -21q29 0 49 19t20 67v297q0 36 -18.5 56.5t-50.5 20.5q-34 0 -54.5 -22t-20.5 -60v-283h-146v330q0 41 -40 41v110q10 4 28 6t39 2q45 0 70 -20t30 -49v-1
q15 29 49.5 53t91.5 24z" />
    <glyph glyph-name="Omacron" unicode="&#x14c;" horiz-adv-x="717" 
d="M201 870h316v-105h-316v105zM357 -11q-66 0 -124.5 21t-102 64.5t-69 111.5t-25.5 162q0 91 25.5 159t69.5 113.5t103 68t126 22.5q66 0 124.5 -21t102 -65.5t69 -112.5t25.5 -163q0 -91 -25.5 -158.5t-69.5 -112.5t-103 -67t-126 -22zM357 118q34 0 64.5 12t54 39.5
t37 71.5t13.5 108q0 65 -13.5 109t-36 71t-53 38.5t-63.5 11.5q-34 0 -64.5 -12t-53.5 -39t-37 -71t-14 -109q0 -64 13.5 -108t36 -71t52.5 -39t64 -12z" />
    <glyph glyph-name="omacron" unicode="&#x14d;" horiz-adv-x="543" 
d="M122 693h299v-109h-299v109zM269 -13q-59 0 -103.5 18.5t-74.5 52t-45.5 80.5t-15.5 103t16.5 103t47.5 81t77 52.5t104 18.5t102.5 -18.5t74.5 -52t45.5 -80.5t15.5 -103q0 -55 -16 -102t-47.5 -81t-76.5 -53t-104 -19zM272 109q47 0 70 34.5t23 97.5t-24 98t-69 35
q-46 0 -69.5 -35t-23.5 -98t22.5 -97.5t70.5 -34.5z" />
    <glyph glyph-name="Obreve" unicode="&#x14e;" horiz-adv-x="717" 
d="M358 743q-41 0 -70.5 13t-48 35t-27.5 50.5t-9 59.5h106q0 -26 11.5 -41.5t37.5 -15.5t37 15.5t11 41.5h107q0 -31 -9 -59.5t-27.5 -50.5t-48 -35t-70.5 -13zM357 -11q-66 0 -124.5 21t-102 64.5t-69 111.5t-25.5 162q0 91 25.5 159t69.5 113.5t103 68t126 22.5
q66 0 124.5 -21t102 -65.5t69 -112.5t25.5 -163q0 -91 -25.5 -158.5t-69.5 -112.5t-103 -67t-126 -22zM357 118q34 0 64.5 12t54 39.5t37 71.5t13.5 108q0 65 -13.5 109t-36 71t-53 38.5t-63.5 11.5q-34 0 -64.5 -12t-53.5 -39t-37 -71t-14 -109q0 -64 13.5 -108t36 -71
t52.5 -39t64 -12z" />
    <glyph glyph-name="obreve" unicode="&#x14f;" horiz-adv-x="543" 
d="M272 557q-46 0 -76 14.5t-48 37.5t-25 53t-7 61h107q0 -60 49 -60t49 60h106q0 -31 -7 -61t-25 -53t-48 -37.5t-75 -14.5zM269 -13q-59 0 -103.5 18.5t-74.5 52t-45.5 80.5t-15.5 103t16.5 103t47.5 81t77 52.5t104 18.5t102.5 -18.5t74.5 -52t45.5 -80.5t15.5 -103
q0 -55 -16 -102t-47.5 -81t-76.5 -53t-104 -19zM272 109q47 0 70 34.5t23 97.5t-24 98t-69 35q-46 0 -69.5 -35t-23.5 -98t22.5 -97.5t70.5 -34.5z" />
    <glyph glyph-name="Ohungarumlaut" unicode="&#x150;" horiz-adv-x="717" 
d="M254 902h163l-119 -161h-112zM458 902h163l-119 -161h-112zM357 -11q-66 0 -124.5 21t-102 64.5t-69 111.5t-25.5 162q0 91 25.5 159t69.5 113.5t103 68t126 22.5q66 0 124.5 -21t102 -65.5t69 -112.5t25.5 -163q0 -91 -25.5 -158.5t-69.5 -112.5t-103 -67t-126 -22z
M357 118q34 0 64.5 12t54 39.5t37 71.5t13.5 108q0 65 -13.5 109t-36 71t-53 38.5t-63.5 11.5q-34 0 -64.5 -12t-53.5 -39t-37 -71t-14 -109q0 -64 13.5 -108t36 -71t52.5 -39t64 -12z" />
    <glyph glyph-name="ohungarumlaut" unicode="&#x151;" horiz-adv-x="543" 
d="M162 741h159l-112 -200h-111zM366 741h159l-112 -200h-110zM269 -13q-59 0 -103.5 18.5t-74.5 52t-45.5 80.5t-15.5 103t16.5 103t47.5 81t77 52.5t104 18.5t102.5 -18.5t74.5 -52t45.5 -80.5t15.5 -103q0 -55 -16 -102t-47.5 -81t-76.5 -53t-104 -19zM272 109
q47 0 70 34.5t23 97.5t-24 98t-69 35q-46 0 -69.5 -35t-23.5 -98t22.5 -97.5t70.5 -34.5z" />
    <glyph glyph-name="OE" unicode="&#x152;" horiz-adv-x="1007" 
d="M346 -6q-66 0 -122.5 22.5t-98.5 67t-65.5 111t-23.5 154.5q0 86 23.5 152.5t65.5 112t98.5 69t122.5 23.5q55 0 100 -15.5t77 -50.5v60h443v-127h-295v-157h250v-124h-250v-166h295v-126h-443v64q-32 -37 -77.5 -53.5t-99.5 -16.5zM355 128q68 0 111.5 53t43.5 168
q0 116 -43.5 168t-111.5 52q-34 0 -63 -12.5t-50 -39.5t-32.5 -68.5t-11.5 -99.5q0 -115 44 -168t113 -53z" />
    <glyph glyph-name="oe" unicode="&#x153;" horiz-adv-x="817" 
d="M259 -6q-55 0 -97.5 18t-71.5 51t-44 78.5t-15 100.5q0 54 15 99.5t44 78t71.5 50.5t97.5 18q49 0 88 -15t67 -43q58 58 165 58q54 0 92.5 -16.5t63 -46.5t36 -71.5t11.5 -91.5v-43h-292v-3q3 -27 14 -45t26.5 -29t33.5 -16t36 -5q29 0 50.5 8t35.5 18q17 11 29 26
l74 -76q-18 -29 -47 -51q-27 -22 -66 -37t-97 -15q-49 0 -90.5 15t-71.5 46q-29 -29 -68 -45t-90 -16zM643 297q0 32 -18 51t-55 19q-29 0 -49 -16.5t-28 -53.5h150zM259 123q47 0 65.5 31t18.5 86q0 56 -19 87.5t-65 31.5t-64.5 -31.5t-18.5 -86.5t18 -86.5t65 -31.5z" />
    <glyph glyph-name="Racute" unicode="&#x154;" horiz-adv-x="661" 
d="M329 902h177l-130 -161h-128zM562 -7q-50 0 -82 19.5t-53 49t-35.5 63.5t-30 63.5t-36.5 49t-55 19.5h-49v-257h-148v700h250q136 0 202 -53.5t66 -167.5q0 -63 -36 -112.5t-102 -67.5q27 -14 42.5 -43.5t30 -59.5t32.5 -52.5t49 -22.5h32v-121q-10 -3 -31.5 -5t-45.5 -2
zM307 369q66 0 102.5 26.5t36.5 77.5t-33 79.5t-96 28.5h-96v-212h86z" />
    <glyph glyph-name="racute" unicode="&#x155;" horiz-adv-x="396" 
d="M218 741h171l-130 -200h-122zM72 330q0 41 -40 41v110q10 4 27.5 6t37.5 2q51 0 75.5 -22t25.5 -50l1 -3q14 37 48 58.5t83 21.5q21 0 40.5 -5t29.5 -13l-51 -134q-18 12 -49 12q-40 0 -61 -28t-21 -77v-249h-146v330z" />
    <glyph glyph-name="uni0156" unicode="&#x156;" horiz-adv-x="661" 
d="M562 -7q-50 0 -82 19.5t-53 49t-35.5 63.5t-30 63.5t-36.5 49t-55 19.5h-49v-257h-148v700h250q136 0 202 -53.5t66 -167.5q0 -63 -36 -112.5t-102 -67.5q27 -14 42.5 -43.5t30 -59.5t32.5 -52.5t49 -22.5h32v-121q-10 -3 -31.5 -5t-45.5 -2zM307 369q66 0 102.5 26.5
t36.5 77.5t-33 79.5t-96 28.5h-96v-212h86zM282 -220q46 15 48 45q-26 2 -43.5 20.5t-17.5 48.5q0 32 21.5 53t54.5 21q38 0 60 -22.5t22 -64.5q0 -59 -32 -99.5t-87 -55.5z" />
    <glyph glyph-name="uni0157" unicode="&#x157;" horiz-adv-x="396" 
d="M72 330q0 41 -40 41v110q10 4 27.5 6t37.5 2q51 0 75.5 -22t25.5 -50l1 -3q14 37 48 58.5t83 21.5q21 0 40.5 -5t29.5 -13l-51 -134q-18 12 -49 12q-40 0 -61 -28t-21 -77v-249h-146v330zM89 -220q46 15 48 45q-26 2 -43.5 20.5t-17.5 48.5q0 32 21.5 53t54.5 21
q38 0 60 -22.5t22 -64.5q0 -59 -32 -99.5t-87 -55.5z" />
    <glyph glyph-name="Rcaron" unicode="&#x158;" horiz-adv-x="661" 
d="M157 902h126l42 -72l42 72h126l-89 -161h-158zM562 -7q-50 0 -82 19.5t-53 49t-35.5 63.5t-30 63.5t-36.5 49t-55 19.5h-49v-257h-148v700h250q136 0 202 -53.5t66 -167.5q0 -63 -36 -112.5t-102 -67.5q27 -14 42.5 -43.5t30 -59.5t32.5 -52.5t49 -22.5h32v-121
q-10 -3 -31.5 -5t-45.5 -2zM307 369q66 0 102.5 26.5t36.5 77.5t-33 79.5t-96 28.5h-96v-212h86z" />
    <glyph glyph-name="rcaron" unicode="&#x159;" horiz-adv-x="396" 
d="M47 737h126l42 -96l42 96h125l-89 -194h-156zM72 330q0 41 -40 41v110q10 4 27.5 6t37.5 2q51 0 75.5 -22t25.5 -50l1 -3q14 37 48 58.5t83 21.5q21 0 40.5 -5t29.5 -13l-51 -134q-18 12 -49 12q-40 0 -61 -28t-21 -77v-249h-146v330z" />
    <glyph glyph-name="Sacute" unicode="&#x15a;" horiz-adv-x="608" 
d="M301 902h177l-130 -161h-128zM299 -11q-193 0 -279 113l93 99q38 -45 85 -66t103 -21q66 0 96.5 20t30.5 58q0 21 -8.5 36t-27.5 26.5t-50 20.5t-75 18q-45 9 -85.5 23.5t-71.5 38t-49.5 59t-18.5 87.5q0 46 18.5 84.5t52.5 66.5t82.5 43.5t107.5 15.5q50 0 96.5 -9.5
t81.5 -31.5t56 -58.5t21 -89.5q0 -11 -1 -21.5t-4 -21.5l-134 1q2 8 2 13v13q0 42 -34 61t-81 19q-117 0 -117 -79q0 -21 9.5 -35t29.5 -24.5t50 -18.5t72 -17q48 -10 89 -25t71 -38.5t47.5 -59t17.5 -86.5q0 -50 -19.5 -90t-55.5 -67.5t-87 -42t-114 -14.5z" />
    <glyph glyph-name="sacute" unicode="&#x15b;" horiz-adv-x="495" 
d="M256 741h171l-129 -200h-123zM243 -13q-27 0 -57 3.5t-59 12t-57.5 23.5t-52.5 38l73 100q44 -42 83 -53t77 -11q39 0 56 8.5t17 24.5q0 20 -23.5 27.5t-81.5 20.5q-33 8 -65 18t-57 27t-40.5 44t-15.5 69q0 34 14 62.5t41 49.5t67 33t91 12q94 0 147.5 -37t53.5 -107
q0 -11 -2.5 -24.5t-6.5 -21.5h-132q2 5 3 14t1 17q0 48 -66 48q-70 0 -70 -44q0 -27 29.5 -37t89.5 -23q29 -6 58 -14.5t52.5 -24t38.5 -40t15 -62.5q0 -78 -58.5 -115.5t-162.5 -37.5z" />
    <glyph glyph-name="Scircumflex" unicode="&#x15c;" horiz-adv-x="608" 
d="M218 902h158l89 -161h-126l-43 71l-42 -71h-126zM299 -11q-193 0 -279 113l93 99q38 -45 85 -66t103 -21q66 0 96.5 20t30.5 58q0 21 -8.5 36t-27.5 26.5t-50 20.5t-75 18q-45 9 -85.5 23.5t-71.5 38t-49.5 59t-18.5 87.5q0 46 18.5 84.5t52.5 66.5t82.5 43.5t107.5 15.5
q50 0 96.5 -9.5t81.5 -31.5t56 -58.5t21 -89.5q0 -11 -1 -21.5t-4 -21.5l-134 1q2 8 2 13v13q0 42 -34 61t-81 19q-117 0 -117 -79q0 -21 9.5 -35t29.5 -24.5t50 -18.5t72 -17q48 -10 89 -25t71 -38.5t47.5 -59t17.5 -86.5q0 -50 -19.5 -90t-55.5 -67.5t-87 -42t-114 -14.5z
" />
    <glyph glyph-name="scircumflex" unicode="&#x15d;" horiz-adv-x="495" 
d="M175 737h156l89 -194h-125l-43 96l-42 -96h-125zM243 -13q-27 0 -57 3.5t-59 12t-57.5 23.5t-52.5 38l73 100q44 -42 83 -53t77 -11q39 0 56 8.5t17 24.5q0 20 -23.5 27.5t-81.5 20.5q-33 8 -65 18t-57 27t-40.5 44t-15.5 69q0 34 14 62.5t41 49.5t67 33t91 12
q94 0 147.5 -37t53.5 -107q0 -11 -2.5 -24.5t-6.5 -21.5h-132q2 5 3 14t1 17q0 48 -66 48q-70 0 -70 -44q0 -27 29.5 -37t89.5 -23q29 -6 58 -14.5t52.5 -24t38.5 -40t15 -62.5q0 -78 -58.5 -115.5t-162.5 -37.5z" />
    <glyph glyph-name="Scedilla" unicode="&#x15e;" horiz-adv-x="608" 
d="M575 203q0 -90 -59.5 -145t-163.5 -66l-10 -30q35 -5 58.5 -24t23.5 -59q0 -47 -35 -73.5t-99 -26.5q-29 0 -58 8.5t-45 25.5l42 64q11 -10 24.5 -16t29.5 -6q35 0 35 26q0 17 -19 26t-52 11l26 72q-172 6 -253 112l93 99q38 -45 85 -66t103 -21q66 0 96.5 20t30.5 58
q0 21 -8.5 36t-27.5 26.5t-50 20.5t-75 18q-45 9 -85.5 23.5t-71.5 38t-49.5 59t-18.5 87.5q0 46 18.5 84.5t52.5 66.5t82.5 43.5t107.5 15.5q50 0 96.5 -9.5t81.5 -31.5t56 -58.5t21 -89.5q0 -11 -1 -21.5t-4 -21.5l-134 1q2 8 2 13v13q0 42 -34 61t-81 19q-117 0 -117 -79
q0 -21 9.5 -35t29.5 -24.5t50 -18.5t72 -17q48 -10 89 -25t71 -38.5t47.5 -59t17.5 -86.5z" />
    <glyph glyph-name="scedilla" unicode="&#x15f;" horiz-adv-x="495" 
d="M464 140q0 -68 -45.5 -105.5t-127.5 -45.5l-9 -27q35 -5 58.5 -24t23.5 -59q0 -47 -35 -73.5t-99 -26.5q-29 0 -58 8.5t-45 25.5l42 64q11 -10 24.5 -16t29.5 -6q35 0 35 26q0 17 -19 26t-52 11l25 70q-49 3 -101 19t-94 57l73 100q44 -42 83 -53t77 -11q39 0 56 8.5
t17 24.5q0 20 -23.5 27.5t-81.5 20.5q-33 8 -65 18t-57 27t-40.5 44t-15.5 69q0 34 14 62.5t41 49.5t67 33t91 12q94 0 147.5 -37t53.5 -107q0 -11 -2.5 -24.5t-6.5 -21.5h-132q2 5 3 14t1 17q0 48 -66 48q-70 0 -70 -44q0 -27 29.5 -37t89.5 -23q29 -6 58 -14.5t52.5 -24
t38.5 -40t15 -62.5z" />
    <glyph glyph-name="Scaron" unicode="&#x160;" horiz-adv-x="608" 
d="M129 902h126l42 -72l43 72h125l-89 -161h-158zM299 -11q-193 0 -279 113l93 99q38 -45 85 -66t103 -21q66 0 96.5 20t30.5 58q0 21 -8.5 36t-27.5 26.5t-50 20.5t-75 18q-45 9 -85.5 23.5t-71.5 38t-49.5 59t-18.5 87.5q0 46 18.5 84.5t52.5 66.5t82.5 43.5t107.5 15.5
q50 0 96.5 -9.5t81.5 -31.5t56 -58.5t21 -89.5q0 -11 -1 -21.5t-4 -21.5l-134 1q2 8 2 13v13q0 42 -34 61t-81 19q-117 0 -117 -79q0 -21 9.5 -35t29.5 -24.5t50 -18.5t72 -17q48 -10 89 -25t71 -38.5t47.5 -59t17.5 -86.5q0 -50 -19.5 -90t-55.5 -67.5t-87 -42t-114 -14.5z
" />
    <glyph glyph-name="scaron" unicode="&#x161;" horiz-adv-x="495" 
d="M85 737h126l42 -96l42 96h125l-89 -194h-156zM243 -13q-27 0 -57 3.5t-59 12t-57.5 23.5t-52.5 38l73 100q44 -42 83 -53t77 -11q39 0 56 8.5t17 24.5q0 20 -23.5 27.5t-81.5 20.5q-33 8 -65 18t-57 27t-40.5 44t-15.5 69q0 34 14 62.5t41 49.5t67 33t91 12
q94 0 147.5 -37t53.5 -107q0 -11 -2.5 -24.5t-6.5 -21.5h-132q2 5 3 14t1 17q0 48 -66 48q-70 0 -70 -44q0 -27 29.5 -37t89.5 -23q29 -6 58 -14.5t52.5 -24t38.5 -40t15 -62.5q0 -78 -58.5 -115.5t-162.5 -37.5z" />
    <glyph glyph-name="uni0162" unicode="&#x162;" horiz-adv-x="575" 
d="M335 0l-13 -38q35 -5 58.5 -24t23.5 -59q0 -47 -35 -73.5t-99 -26.5q-29 0 -58 8.5t-45 25.5l42 64q11 -10 24.5 -16t29.5 -6q35 0 35 26q0 17 -19 26t-52 11l30 82h-39v566h-205v134h551v-134h-198v-566h-31z" />
    <glyph glyph-name="uni0163" unicode="&#x163;" horiz-adv-x="432" 
d="M295 -38q35 -5 58.5 -24t23.5 -59q0 -47 -35.5 -73.5t-98.5 -26.5q-29 0 -58 8.5t-46 25.5l43 64q11 -10 24.5 -16t29.5 -6q35 0 35 26q0 17 -19 26t-52 11l29 82q-133 30 -133 212v153h-83v117h87v141h142v-141h160v-117h-160v-144q0 -96 73 -96q20 0 39 7t32 16
l45 -108q-21 -17 -55.5 -30t-69.5 -15z" />
    <glyph glyph-name="Tcaron" unicode="&#x164;" horiz-adv-x="575" 
d="M123 902h127l42 -72l42 72h126l-89 -161h-158zM218 566h-205v134h551v-134h-198v-566h-148v566z" />
    <glyph glyph-name="tcaron" unicode="&#x165;" horiz-adv-x="432" 
d="M297 562q31 11 40.5 26t10.5 29q-32 3 -46 23.5t-14 46.5q0 30 20.5 52t55.5 22q36 0 58.5 -23.5t22.5 -65.5q0 -60 -32 -105t-91 -63zM291 -6q-100 0 -147.5 53t-47.5 165v153h-83v117h87v141h142v-141h160v-117h-160v-144q0 -96 73 -96q20 0 39 7t32 16l45 -108
q-23 -20 -62.5 -33t-77.5 -13z" />
    <glyph glyph-name="Tbar" unicode="&#x166;" horiz-adv-x="582" 
d="M369 566v-192h87v-104h-87v-270h-148v270h-88v104h88v192h-205v134h551v-134h-198z" />
    <glyph glyph-name="tbar" unicode="&#x167;" horiz-adv-x="436" 
d="M433 40q-23 -20 -62.5 -33t-77.5 -13q-99 0 -146.5 52t-48.5 161h-57v105h57v53h-83v117h87v141h142v-141h160v-117h-160v-53h120v-105h-120q6 -82 73 -82q20 0 39 7t32 16z" />
    <glyph glyph-name="Utilde" unicode="&#x168;" horiz-adv-x="677" 
d="M171 742q-7 11 -11 27.5t-4 33.5q0 42 27 69t72 27q23 0 42.5 -6t36.5 -13.5t31.5 -14t27.5 -6.5q25 0 25 22q0 5 -2 10t-4 9h94q7 -11 10.5 -27t3.5 -30q0 -45 -26 -72t-74 -27q-25 0 -45 6.5t-37 14t-30.5 13.5t-24.5 6t-17.5 -5.5t-6.5 -16.5q0 -12 6 -20h-94zM340 -6
q-56 0 -106 15t-87.5 49.5t-59 91t-21.5 140.5l1 410h147v-422q0 -67 29 -109.5t98 -42.5q34 0 57.5 11t38 31.5t21 48.5t6.5 61v422h146v-410q0 -84 -21.5 -140.5t-58 -91t-85.5 -49.5t-105 -15z" />
    <glyph glyph-name="utilde" unicode="&#x169;" horiz-adv-x="561" 
d="M113 549q-7 11 -11 27.5t-4 34.5q0 43 26 70t74 27q20 0 38 -6.5t34 -14.5t29.5 -14.5t25.5 -6.5q11 0 18.5 5t7.5 16q0 5 -2 12t-5 11h88q8 -12 11.5 -28.5t3.5 -30.5q0 -45 -26 -72.5t-72 -27.5q-23 0 -42 6.5t-34 15t-27 15t-22 6.5q-27 0 -27 -23q0 -6 2 -12t4 -10
h-90zM209 -13q-77 0 -116.5 43.5t-39.5 130.5v321h146v-285q0 -44 17.5 -62t49.5 -18q36 0 57 25.5t21 58.5v281h146v-330q0 -21 9 -31.5t30 -10.5v-110q-8 -3 -25.5 -5.5t-38.5 -2.5q-49 0 -73.5 20.5t-29.5 56.5l-1 1q-22 -41 -57 -62t-95 -21z" />
    <glyph glyph-name="Umacron" unicode="&#x16a;" horiz-adv-x="677" 
d="M180 870h317v-105h-317v105zM340 -6q-56 0 -106 15t-87.5 49.5t-59 91t-21.5 140.5l1 410h147v-422q0 -67 29 -109.5t98 -42.5q34 0 57.5 11t38 31.5t21 48.5t6.5 61v422h146v-410q0 -84 -21.5 -140.5t-58 -91t-85.5 -49.5t-105 -15z" />
    <glyph glyph-name="umacron" unicode="&#x16b;" horiz-adv-x="561" 
d="M122 693h300v-109h-300v109zM209 -13q-77 0 -116.5 43.5t-39.5 130.5v321h146v-285q0 -44 17.5 -62t49.5 -18q36 0 57 25.5t21 58.5v281h146v-330q0 -21 9 -31.5t30 -10.5v-110q-8 -3 -25.5 -5.5t-38.5 -2.5q-49 0 -73.5 20.5t-29.5 56.5l-1 1q-22 -41 -57 -62t-95 -21z
" />
    <glyph glyph-name="Ubreve" unicode="&#x16c;" horiz-adv-x="677" 
d="M338 743q-41 0 -70.5 13t-48.5 35t-28 50.5t-9 59.5h107q0 -26 11.5 -41.5t36.5 -15.5q26 0 37.5 15.5t11.5 41.5h107q0 -31 -9 -59.5t-27.5 -50.5t-48 -35t-70.5 -13zM340 -6q-56 0 -106 15t-87.5 49.5t-59 91t-21.5 140.5l1 410h147v-422q0 -67 29 -109.5t98 -42.5
q34 0 57.5 11t38 31.5t21 48.5t6.5 61v422h146v-410q0 -84 -21.5 -140.5t-58 -91t-85.5 -49.5t-105 -15z" />
    <glyph glyph-name="ubreve" unicode="&#x16d;" horiz-adv-x="561" 
d="M273 557q-46 0 -76.5 14.5t-48 37.5t-24.5 53t-7 61h107q0 -60 49 -60q48 0 48 60h106q0 -31 -7 -61t-24.5 -53t-47.5 -37.5t-75 -14.5zM209 -13q-77 0 -116.5 43.5t-39.5 130.5v321h146v-285q0 -44 17.5 -62t49.5 -18q36 0 57 25.5t21 58.5v281h146v-330q0 -21 9 -31.5
t30 -10.5v-110q-8 -3 -25.5 -5.5t-38.5 -2.5q-49 0 -73.5 20.5t-29.5 56.5l-1 1q-22 -41 -57 -62t-95 -21z" />
    <glyph glyph-name="Uring" unicode="&#x16e;" horiz-adv-x="677" 
d="M338 710q-27 0 -49.5 9.5t-39.5 26.5t-26.5 40t-9.5 50t9.5 50t26.5 40t39.5 26.5t49.5 9.5t50 -9.5t40 -26.5t26.5 -40t9.5 -50t-9.5 -50t-26.5 -40t-40 -26.5t-50 -9.5zM338 791q19 0 31.5 12.5t12.5 32.5t-12.5 32t-31.5 12t-31 -12t-12 -32t12 -32.5t31 -12.5z
M340 -6q-56 0 -106 15t-87.5 49.5t-59 91t-21.5 140.5l1 410h147v-422q0 -67 29 -109.5t98 -42.5q34 0 57.5 11t38 31.5t21 48.5t6.5 61v422h146v-410q0 -84 -21.5 -140.5t-58 -91t-85.5 -49.5t-105 -15z" />
    <glyph glyph-name="uring" unicode="&#x16f;" horiz-adv-x="561" 
d="M272 520q-25 0 -47.5 9.5t-38.5 25.5t-25.5 38.5t-9.5 47.5q0 26 9.5 48t25.5 38t38.5 25.5t47.5 9.5q26 0 48 -9.5t38 -25.5t25.5 -38t9.5 -48q0 -25 -9.5 -47.5t-25.5 -38.5t-38 -25.5t-48 -9.5zM272 597q19 0 30.5 12.5t11.5 31.5t-12 31.5t-30 12.5t-30 -12.5
t-12 -31.5t12 -31.5t30 -12.5zM209 -13q-77 0 -116.5 43.5t-39.5 130.5v321h146v-285q0 -44 17.5 -62t49.5 -18q36 0 57 25.5t21 58.5v281h146v-330q0 -21 9 -31.5t30 -10.5v-110q-8 -3 -25.5 -5.5t-38.5 -2.5q-49 0 -73.5 20.5t-29.5 56.5l-1 1q-22 -41 -57 -62t-95 -21z
" />
    <glyph glyph-name="Uhungarumlaut" unicode="&#x170;" horiz-adv-x="677" 
d="M234 902h162l-119 -161h-112zM438 902h162l-119 -161h-111zM340 -6q-56 0 -106 15t-87.5 49.5t-59 91t-21.5 140.5l1 410h147v-422q0 -67 29 -109.5t98 -42.5q34 0 57.5 11t38 31.5t21 48.5t6.5 61v422h146v-410q0 -84 -21.5 -140.5t-58 -91t-85.5 -49.5t-105 -15z" />
    <glyph glyph-name="uhungarumlaut" unicode="&#x171;" horiz-adv-x="561" 
d="M162 741h160l-113 -200h-111zM367 741h159l-113 -200h-110zM209 -13q-77 0 -116.5 43.5t-39.5 130.5v321h146v-285q0 -44 17.5 -62t49.5 -18q36 0 57 25.5t21 58.5v281h146v-330q0 -21 9 -31.5t30 -10.5v-110q-8 -3 -25.5 -5.5t-38.5 -2.5q-49 0 -73.5 20.5t-29.5 56.5
l-1 1q-22 -41 -57 -62t-95 -21z" />
    <glyph glyph-name="Uogonek" unicode="&#x172;" horiz-adv-x="677" 
d="M610 700v-410q0 -66 -13.5 -115.5t-38 -84t-58 -55.5t-72.5 -31q-29 -14 -45 -35t-16 -44q0 -20 8.5 -28.5t22.5 -8.5q10 0 16 2.5t11 6.5l34 -68q-14 -12 -37 -19t-52 -7q-57 0 -85.5 25t-28.5 71q0 26 11.5 50.5t31.5 46.5q-49 5 -91.5 23t-74 53t-49.5 88.5t-18 129.5
l1 410h147v-422q0 -67 29 -109.5t98 -42.5q34 0 57.5 11t38 31.5t21 48.5t6.5 61v422h146z" />
    <glyph glyph-name="uogonek" unicode="&#x173;" horiz-adv-x="561" 
d="M556 -177q-14 -12 -36.5 -19t-51.5 -7q-57 0 -86 25t-29 71q0 29 15 57.5t42 51.5q-42 17 -48 67l-1 1q-22 -41 -57 -62t-95 -21q-77 0 -116.5 43.5t-39.5 130.5v321h146v-285q0 -44 17.5 -62t49.5 -18q36 0 57 25.5t21 58.5v281h146v-330q0 -21 9 -31.5t30 -10.5v-110
q-32 -14 -48.5 -36t-16.5 -45q0 -20 8.5 -28.5t22.5 -8.5q11 0 17 2.5t11 6.5z" />
    <glyph glyph-name="Wcircumflex" unicode="&#x174;" horiz-adv-x="945" 
d="M394 902h158l89 -161h-126l-42 71l-43 -71h-125zM6 700h169l101 -542l132 542h137l127 -542l106 542h160l-178 -700h-170l-116 492l-120 -492h-169z" />
    <glyph glyph-name="wcircumflex" unicode="&#x175;" horiz-adv-x="773" 
d="M344 543h-125l90 194h156l89 -194h-125l-43 96zM767 482l-146 -482h-158l-58 258l-15 92l-18 -92l-66 -258h-154l-146 482h158l56 -247l19 -110l19 110l57 247h153l56 -247l19 -110l19 110l56 247h149z" />
    <glyph glyph-name="Ycircumflex" unicode="&#x176;" horiz-adv-x="631" 
d="M237 902h158l89 -161h-126l-42 71l-43 -71h-125zM242 280l-240 420h173l145 -286l145 286h164l-240 -417v-283h-147v280z" />
    <glyph glyph-name="ycircumflex" unicode="&#x177;" horiz-adv-x="545" 
d="M194 737h156l90 -194h-126l-42 96l-42 -96h-125zM246 -247q-78 0 -133.5 27t-82.5 76l92 76q23 -34 48.5 -48t72.5 -14q61 0 84.5 32t23.5 86v74q-42 -68 -145 -68q-153 0 -153 174v314h146v-278q0 -79 59 -79q34 0 58.5 26.5t26.5 64.5v266h146v-489q0 -110 -60.5 -175
t-182.5 -65z" />
    <glyph glyph-name="Ydieresis" unicode="&#x178;" horiz-adv-x="631" 
d="M192 741q-36 0 -61 25t-25 61t25 62t61 26t61.5 -26t25.5 -62t-25.5 -61t-61.5 -25zM443 741q-36 0 -61.5 25t-25.5 61t25.5 62t61.5 26q37 0 61.5 -26t24.5 -62t-24.5 -61t-61.5 -25zM242 280l-240 420h173l145 -286l145 286h164l-240 -417v-283h-147v280z" />
    <glyph glyph-name="Zacute" unicode="&#x179;" horiz-adv-x="602" 
d="M357 741h-128l81 161h177zM570 123v-123h-537v116l359 461h-354v123h525v-116l-357 -461h364z" />
    <glyph glyph-name="zacute" unicode="&#x17a;" horiz-adv-x="506" 
d="M294 541h-123l82 200h170zM257 247q36 -8 76 -25.5t74.5 -49t56.5 -79.5t22 -116q0 -50 -16.5 -91t-46.5 -70t-73 -45.5t-97 -16.5q-49 0 -89.5 13t-69.5 37t-44.5 59.5t-15.5 80.5q0 39 12 71.5t31.5 58t43.5 44.5t48 32q-37 6 -81 6v100l182 110h-231v116h409v-112z
M255 -125q42 0 70.5 26t28.5 81q0 48 -22 82t-63 56q-45 -26 -74.5 -63.5t-29.5 -89.5q0 -46 26 -69t64 -23z" />
    <glyph glyph-name="Zdotaccent" unicode="&#x17b;" horiz-adv-x="602" 
d="M308 739q-36 0 -62.5 25.5t-26.5 62.5q0 18 7 34t19.5 28t28.5 19t34 7q36 0 61.5 -26.5t25.5 -61.5q0 -37 -25.5 -62.5t-61.5 -25.5zM570 123v-123h-537v116l359 461h-354v123h525v-116l-357 -461h364z" />
    <glyph glyph-name="zdotaccent" unicode="&#x17c;" horiz-adv-x="506" 
d="M249 552q-36 0 -62.5 25.5t-26.5 62.5t26.5 63.5t62.5 26.5q37 0 63 -26.5t26 -63.5t-26 -62.5t-63 -25.5zM257 247q36 -8 76 -25.5t74.5 -49t56.5 -79.5t22 -116q0 -50 -16.5 -91t-46.5 -70t-73 -45.5t-97 -16.5q-49 0 -89.5 13t-69.5 37t-44.5 59.5t-15.5 80.5
q0 39 12 71.5t31.5 58t43.5 44.5t48 32q-37 6 -81 6v100l182 110h-231v116h409v-112zM255 -125q42 0 70.5 26t28.5 81q0 48 -22 82t-63 56q-45 -26 -74.5 -63.5t-29.5 -89.5q0 -46 26 -69t64 -23z" />
    <glyph glyph-name="Zcaron" unicode="&#x17d;" horiz-adv-x="602" 
d="M227 741l-90 161h127l42 -72l42 72h126l-89 -161h-158zM570 123v-123h-537v116l359 461h-354v123h525v-116l-357 -461h364z" />
    <glyph glyph-name="zcaron" unicode="&#x17e;" horiz-adv-x="506" 
d="M171 543l-90 194h126l42 -96l42 96h126l-90 -194h-156zM257 247q36 -8 76 -25.5t74.5 -49t56.5 -79.5t22 -116q0 -50 -16.5 -91t-46.5 -70t-73 -45.5t-97 -16.5q-49 0 -89.5 13t-69.5 37t-44.5 59.5t-15.5 80.5q0 39 12 71.5t31.5 58t43.5 44.5t48 32q-37 6 -81 6v100
l182 110h-231v116h409v-112zM255 -125q42 0 70.5 26t28.5 81q0 48 -22 82t-63 56q-45 -26 -74.5 -63.5t-29.5 -89.5q0 -46 26 -69t64 -23z" />
    <glyph glyph-name="uni018F" unicode="&#x18f;" horiz-adv-x="681" 
d="M644 355q0 -85 -21.5 -153t-63 -115.5t-100.5 -73t-133 -25.5q-65 0 -119 22t-93 64t-61 103t-22 138q0 22 0.5 36.5t2.5 33.5h455q-6 100 -47 146.5t-110 46.5q-63 0 -96.5 -24t-56.5 -62l-120 64q16 29 40 57t58 50t79 35.5t102 13.5q143 0 224.5 -92t81.5 -265z
M333 118q130 0 152 158h-297q1 -34 10.5 -63t27.5 -50t44.5 -33t62.5 -12z" />
    <glyph glyph-name="florin" unicode="&#x192;" horiz-adv-x="452" 
d="M69 -184q-48 0 -81 14.5t-55 39.5l66 100q19 -25 51 -25q31 0 47.5 18.5t16.5 62.5v310h-70v115h70v38q0 103 51 157t148 54q36 0 70.5 -12t57.5 -33l-54 -104q-11 9 -24 14.5t-33 5.5q-69 0 -69 -86v-34h126v-115h-126v-309q0 -103 -50.5 -157t-141.5 -54z" />
    <glyph glyph-name="uni019D" unicode="&#x19d;" horiz-adv-x="691" 
d="M618 700v-700h-130l-261 427l-14 33v-491q0 -115 -59.5 -172.5t-160.5 -57.5q-45 0 -82.5 14t-60.5 38l85 111q11 -11 27 -16.5t33 -5.5q33 0 55.5 20.5t22.5 71.5v728h131l256 -427l19 -42v469h139z" />
    <glyph glyph-name="Gcaron" unicode="&#x1e6;" horiz-adv-x="669" 
d="M179 902h127l42 -72l42 72h126l-89 -161h-158zM359 -11q-158 0 -240.5 92t-82.5 267q0 82 22 149t63.5 114.5t102 73.5t136.5 26q56 0 102.5 -13.5t80.5 -40t52.5 -65t18.5 -88.5q0 -23 -5 -50h-140q1 5 1 11v17q0 42 -28 69.5t-87 27.5q-80 0 -121.5 -58.5t-41.5 -170.5
q0 -234 172 -234q50 0 81.5 10t47.5 23v94h-131v118h263v-281q-12 -13 -35 -29t-56.5 -30t-77 -23t-97.5 -9z" />
    <glyph glyph-name="gcaron" unicode="&#x1e7;" horiz-adv-x="522" 
d="M117 737h125l42 -96l42 96h126l-90 -194h-156zM262 -240q-71 0 -125.5 20.5t-91.5 74.5l87 83q25 -32 51.5 -46.5t71.5 -14.5q51 0 78.5 29.5t27.5 88.5v61q-11 -27 -45 -48t-93 -21q-43 0 -78.5 18t-60.5 51t-39 79t-14 102q0 59 15.5 106.5t43.5 81.5t66.5 52.5
t83.5 18.5q85 0 130 -61v47h129v-489q0 -53 -17 -95.5t-48 -73.5t-75 -47.5t-97 -16.5zM272 109q34 0 56.5 21t30.5 54v119q-3 12 -9.5 24.5t-17 23t-25.5 17t-35 6.5q-48 0 -70.5 -35t-22.5 -100q0 -63 24.5 -96.5t68.5 -33.5z" />
    <glyph glyph-name="uni01EA" unicode="&#x1ea;" horiz-adv-x="717" 
d="M438 -2q-30 -14 -45 -35t-15 -44q0 -20 8 -28.5t22 -8.5q11 0 17 3t11 7l34 -68q-30 -27 -89 -27q-57 0 -85.5 25t-28.5 72q0 26 11.5 51t32.5 46q-58 7 -108.5 31.5t-87.5 68t-58 107.5t-21 150q0 91 25.5 159t69.5 113.5t103 68t126 22.5q66 0 124.5 -21t102 -65.5
t69 -112.5t25.5 -163q0 -76 -18.5 -136.5t-51 -104t-77 -71t-96.5 -39.5zM191 348q0 -64 13.5 -108t36 -71t52.5 -39t64 -12t64.5 12t54 39.5t37 71.5t13.5 108q0 65 -13.5 109t-36 71t-53 38.5t-63.5 11.5q-34 0 -64.5 -12t-53.5 -39t-37 -71t-14 -109z" />
    <glyph glyph-name="uni01EB" unicode="&#x1eb;" horiz-adv-x="543" 
d="M340 -5q-27 -14 -41 -34.5t-14 -41.5q0 -20 8.5 -28.5t22.5 -8.5q11 0 17 3t11 7l33 -68q-30 -27 -88 -27q-57 0 -86 25t-29 72q0 26 11.5 50.5t32.5 46.5q-94 15 -141 82.5t-47 167.5q0 56 16.5 103t47.5 81t77 52.5t104 18.5t102.5 -18.5t74.5 -52t45.5 -80.5
t15.5 -103q0 -94 -44.5 -160t-128.5 -87zM179 241q0 -63 22.5 -97.5t70.5 -34.5q47 0 70 34.5t23 97.5t-24 98t-69 35q-46 0 -69.5 -35t-23.5 -98z" />
    <glyph glyph-name="Aringacute" unicode="&#x1fa;" horiz-adv-x="664" 
d="M458 162h-252l-54 -162h-153l253 690q-21 17 -33.5 42.5t-12.5 55.5q0 38 20 69t52 45l65 129h178l-114 -141q23 -17 37 -43.5t14 -58.5q0 -30 -12.5 -55.5t-33.5 -42.5l253 -690h-154zM332 832q-19 0 -31 -12t-12 -32t12 -32.5t31 -12.5t31 12.5t12 32.5t-12 32t-31 12z
M420 277l-88 266l-88 -266h176z" />
    <glyph glyph-name="aringacute" unicode="&#x1fb;" horiz-adv-x="524" 
d="M261 520q-25 0 -47.5 9.5t-38.5 25.5t-25.5 38.5t-9.5 47.5q0 35 17 63t45 43l61 152h171l-103 -159q23 -16 37 -41.5t14 -57.5q0 -25 -9 -47.5t-25.5 -38.5t-38.5 -25.5t-48 -9.5zM261 597q19 0 31 12.5t12 31.5t-12 31.5t-31 12.5q-18 0 -30 -12.5t-12 -31.5t12 -31.5
t30 -12.5zM501 153q0 -23 9 -33t31 -10v-110q-10 -4 -28 -6t-38 -2q-47 0 -72 20t-30 55l-1 1q-20 -38 -55 -59.5t-94 -21.5q-43 0 -78.5 18t-60.5 50.5t-39 78.5t-14 103q0 58 15.5 105.5t43.5 81.5t66 53t83 19q85 0 125 -57v43h137v-329zM358 303q-3 12 -9.5 24.5t-17 23
t-25 17t-34.5 6.5q-47 0 -70 -35t-23 -100q0 -63 24 -96.5t69 -33.5q36 0 57 21t29 54v119z" />
    <glyph glyph-name="AEacute" unicode="&#x1fc;" horiz-adv-x="863" 
d="M502 902h177l-130 -161h-128zM255 700h570v-125h-367l64 -174h233v-123h-188l57 -153h201v-125h-317l-57 168h-236l-56 -168h-161zM413 285l-80 236l-79 -236h159z" />
    <glyph glyph-name="aeacute" unicode="&#x1fd;" horiz-adv-x="780" 
d="M435 541h-122l81 200h171zM752 90q-4 -6 -17 -23t-37 -34.5t-60.5 -31.5t-87.5 -14q-66 0 -115.5 25t-78.5 71q-32 -49 -75.5 -72t-102.5 -23q-75 0 -114.5 37.5t-39.5 95.5q0 66 46 102t147 36h95v56q0 68 -65 68q-61 0 -61 -55q0 -14 2.5 -21.5t4.5 -9.5h-131
q-2 2 -6.5 15.5t-4.5 39.5q0 65 51 104.5t150 39.5q51 0 88 -14.5t62 -38.5q28 24 64 38.5t81 14.5q101 0 152 -63t51 -168v-21.5t-2 -24.5h-288q4 -59 30 -86t73 -27q26 0 45.5 7.5t34 17.5t23 20t11.5 14zM543 381q-38 0 -56 -22t-24 -61h149q0 40 -18 61.5t-51 21.5z
M222 98q36 0 58 18.5t32 47.5v22h-81q-32 0 -46 -12.5t-14 -32.5t12.5 -31.5t38.5 -11.5z" />
    <glyph glyph-name="Oslashacute" unicode="&#x1fe;" horiz-adv-x="717" 
d="M411 741h-129l81 161h178zM593 618q42 -45 65 -111.5t23 -157.5t-25.5 -158.5t-69.5 -112.5t-103 -67t-125 -22q-42 0 -80 7.5t-72 24.5l-24 -37h-123l64 98q-41 45 -64 110t-23 156t25.5 159t69.5 113.5t103 68t126 22.5q42 0 80 -7.5t72 -24.5l24 37h121zM191 348
q0 -41 5.5 -72.5t15.5 -57.5l224 344q-17 9 -36.5 13t-39.5 4q-34 0 -64.5 -12t-53.5 -39t-37 -71t-14 -109zM358 118q34 0 64.5 12t54 39.5t37 71.5t13.5 108q0 42 -5.5 74.5t-16.5 58.5l-224 -346q17 -10 36.5 -14t40.5 -4z" />
    <glyph glyph-name="oslashacute" unicode="&#x1ff;" horiz-adv-x="543" 
d="M308 541h-123l82 200h171zM446 432q33 -34 50 -82t17 -108q0 -55 -16 -102t-47.5 -81t-76.5 -53t-104 -19q-60 0 -108 20l-28 -42h-94l58 86q-33 34 -50 82t-17 108q0 56 16.5 103t47.5 81t77 52.5t104 18.5q62 0 107 -21l28 42h93zM179 241q0 -32 6 -58l124 183
q-18 8 -37 8q-46 0 -69.5 -35t-23.5 -98zM272 109q47 0 70 34.5t23 97.5q0 35 -7 60l-124 -185q15 -7 38 -7z" />
    <glyph glyph-name="uni0218" unicode="&#x218;" horiz-adv-x="608" 
d="M299 -11q-193 0 -279 113l93 99q38 -45 85 -66t103 -21q66 0 96.5 20t30.5 58q0 21 -8.5 36t-27.5 26.5t-50 20.5t-75 18q-45 9 -85.5 23.5t-71.5 38t-49.5 59t-18.5 87.5q0 46 18.5 84.5t52.5 66.5t82.5 43.5t107.5 15.5q50 0 96.5 -9.5t81.5 -31.5t56 -58.5t21 -89.5
q0 -11 -1 -21.5t-4 -21.5l-134 1q2 8 2 13v13q0 42 -34 61t-81 19q-117 0 -117 -79q0 -21 9.5 -35t29.5 -24.5t50 -18.5t72 -17q48 -10 89 -25t71 -38.5t47.5 -59t17.5 -86.5q0 -50 -19.5 -90t-55.5 -67.5t-87 -42t-114 -14.5zM251 -220q46 15 48 45q-26 2 -43.5 20.5
t-17.5 48.5q0 32 21.5 53t54.5 21q38 0 60 -22.5t22 -64.5q0 -59 -32 -99.5t-87 -55.5z" />
    <glyph glyph-name="uni0219" unicode="&#x219;" horiz-adv-x="495" 
d="M243 -13q-27 0 -57 3.5t-59 12t-57.5 23.5t-52.5 38l73 100q44 -42 83 -53t77 -11q39 0 56 8.5t17 24.5q0 20 -23.5 27.5t-81.5 20.5q-33 8 -65 18t-57 27t-40.5 44t-15.5 69q0 34 14 62.5t41 49.5t67 33t91 12q94 0 147.5 -37t53.5 -107q0 -11 -2.5 -24.5t-6.5 -21.5
h-132q2 5 3 14t1 17q0 48 -66 48q-70 0 -70 -44q0 -27 29.5 -37t89.5 -23q29 -6 58 -14.5t52.5 -24t38.5 -40t15 -62.5q0 -78 -58.5 -115.5t-162.5 -37.5zM191 -220q46 15 48 45q-26 2 -43.5 20.5t-17.5 48.5q0 32 21.5 53t54.5 21q38 0 60 -22.5t22 -64.5q0 -59 -32 -99.5
t-87 -55.5z" />
    <glyph glyph-name="uni021A" unicode="&#x21a;" horiz-adv-x="575" 
d="M218 566h-205v134h551v-134h-198v-566h-148v566zM231 -220q46 15 48 45q-26 2 -43.5 20.5t-17.5 48.5q0 32 21.5 53t54.5 21q38 0 60 -22.5t22 -64.5q0 -59 -32 -99.5t-87 -55.5z" />
    <glyph glyph-name="uni021B" unicode="&#x21b;" horiz-adv-x="432" 
d="M291 -6q-100 0 -147.5 53t-47.5 165v153h-83v117h87v141h142v-141h160v-117h-160v-144q0 -96 73 -96q20 0 39 7t32 16l45 -108q-23 -20 -62.5 -33t-77.5 -13zM204 -220q46 15 48 45q-26 2 -43.5 20.5t-17.5 48.5q0 32 21.5 53t54.5 21q38 0 60 -22.5t22 -64.5
q0 -59 -32 -99.5t-87 -55.5z" />
    <glyph glyph-name="uni0232" unicode="&#x232;" horiz-adv-x="631" 
d="M158 870h316v-105h-316v105zM242 280l-240 420h173l145 -286l145 286h164l-240 -417v-283h-147v280z" />
    <glyph glyph-name="uni0233" unicode="&#x233;" horiz-adv-x="545" 
d="M119 693h299v-109h-299v109zM246 -247q-78 0 -133.5 27t-82.5 76l92 76q23 -34 48.5 -48t72.5 -14q61 0 84.5 32t23.5 86v74q-42 -68 -145 -68q-153 0 -153 174v314h146v-278q0 -79 59 -79q34 0 58.5 26.5t26.5 64.5v266h146v-489q0 -110 -60.5 -175t-182.5 -65z" />
    <glyph glyph-name="uni0237" unicode="&#x237;" horiz-adv-x="264" 
d="M9 -247q-26 0 -45 5t-31 11q-15 7 -24 16l43 107q5 -3 11 -5t13.5 -3.5t16.5 -1.5q35 0 51.5 25t16.5 70v505h146v-512q0 -48 -11 -88t-35 -68.5t-61.5 -44.5t-90.5 -16z" />
    <glyph glyph-name="uni0259" unicode="&#x259;" horiz-adv-x="502" 
d="M244 495q104 0 165.5 -61.5t61.5 -185.5q0 -60 -15.5 -108.5t-45.5 -82.5t-72.5 -52.5t-96.5 -18.5q-101 0 -156.5 60.5t-55.5 170.5q0 17 0.5 26t2.5 22h291q-3 63 -26.5 87t-62.5 24q-35 0 -55 -17t-34 -39l-106 55q23 51 74 85.5t131 34.5zM243 101q37 0 55 20.5
t23 63.5h-151q0 -38 18.5 -61t54.5 -23z" />
    <glyph glyph-name="uni0272" unicode="&#x272;" horiz-adv-x="574" 
d="M509 153q0 -42 39 -42v-110q-9 -3 -27 -5.5t-37 -2.5q-62 0 -92 30t-30 95v170q0 37 -18.5 57t-50.5 20q-34 0 -54.5 -22t-20.5 -59v-315q0 -57 -17 -100t-47 -72t-72 -43.5t-92 -14.5q-45 0 -83.5 14.5t-58.5 37.5l84 109q11 -10 25 -17t35 -7q33 0 56.5 20t23.5 72v362
q0 41 -40 41v110q10 4 28 6t39 2q45 0 70 -20t30 -49v-1q15 29 49 53t91 24q81 0 125.5 -50t44.5 -142v-151z" />
    <glyph glyph-name="circumflex" unicode="&#x2c6;" horiz-adv-x="391" 
d="M115 789h158l89 -201h-126l-43 95l-42 -95h-126z" />
    <glyph glyph-name="caron" unicode="&#x2c7;" horiz-adv-x="367" 
d="M14 757h125l43 -95l42 95h126l-89 -200h-158z" />
    <glyph glyph-name="breve" unicode="&#x2d8;" horiz-adv-x="362" 
d="M182 579q-46 0 -76.5 13.5t-48.5 35.5t-25 50t-7 58h107q0 -32 11.5 -46t37.5 -15q26 0 37 14.5t11 46.5h107q0 -30 -7 -58t-24.5 -50t-47.5 -35.5t-75 -13.5z" />
    <glyph glyph-name="dotaccent" unicode="&#x2d9;" horiz-adv-x="205" 
d="M103 582q-30 0 -51.5 21t-21.5 51t21.5 52t51.5 22t51.5 -22t21.5 -52t-21.5 -51t-51.5 -21z" />
    <glyph glyph-name="ring" unicode="&#x2da;" horiz-adv-x="288" 
d="M144 544q-45 0 -75 30t-30 75t30 75t75 30t75 -30t30 -75t-30 -75t-75 -30zM144 610q17 0 27.5 11t10.5 28t-10.5 27.5t-27.5 10.5t-27.5 -10.5t-10.5 -27.5t10.5 -28t27.5 -11z" />
    <glyph glyph-name="ogonek" unicode="&#x2db;" horiz-adv-x="287" 
d="M147 -188q-20 0 -38.5 5t-33 16t-23.5 28t-9 41q0 44 21.5 72.5t47.5 45.5q30 19 68 30l13 -48q-20 -7 -36 -18q-15 -9 -26 -23.5t-11 -35.5q0 -17 11 -28t31 -11q12 0 21.5 4.5t15.5 9.5q8 7 13 15l32 -60q-10 -12 -25 -22q-13 -8 -30.5 -14.5t-41.5 -6.5z" />
    <glyph glyph-name="tilde" unicode="&#x2dc;" horiz-adv-x="449" 
d="M49 541q-4 7 -8 16q-3 8 -5.5 19.5t-2.5 26.5q0 41 25 70.5t76 29.5q26 0 49 -6.5t43.5 -15t38.5 -15t34 -6.5q11 0 16.5 6.5t5.5 17.5q0 9 -2.5 17t-4.5 15l-8 14h97q4 -8 7 -18q2 -9 4 -20t2 -24q0 -42 -24 -72t-73 -30q-30 0 -54.5 6.5t-44 15t-35 15t-29.5 6.5
q-12 0 -19.5 -7.5t-7.5 -20.5q0 -9 2.5 -16.5t5.5 -12.5q3 -6 7 -11h-95z" />
    <glyph glyph-name="hungarumlaut" unicode="&#x2dd;" horiz-adv-x="474" 
d="M105 756h175l-130 -201h-126zM309 756h175l-130 -201h-126z" />
    <glyph glyph-name="gravecomb" unicode="&#x300;" 
d="M-282 741h171l81 -200h-122z" />
    <glyph glyph-name="acutecomb" unicode="&#x301;" 
d="M-197 741h171l-130 -200h-122z" />
    <glyph glyph-name="uni0302" unicode="&#x302;" 
d="M-276 737h156l90 -194h-126l-42 96l-42 -96h-125z" />
    <glyph glyph-name="tildecomb" unicode="&#x303;" 
d="M-383 549q-7 11 -11 27.5t-4 34.5q0 43 26.5 70t74.5 27q20 0 38 -6.5t33.5 -14.5t29 -14.5t25.5 -6.5q11 0 18.5 5t7.5 16q0 5 -1.5 12t-5.5 11h89q8 -12 11.5 -28.5t3.5 -30.5q0 -45 -26 -72.5t-73 -27.5q-23 0 -42 6.5t-34 15t-27 15t-22 6.5q-12 0 -19.5 -6t-7.5 -17
q0 -13 7 -22h-91z" />
    <glyph glyph-name="uni0304" unicode="&#x304;" 
d="M-361 693h299v-109h-299v109z" />
    <glyph glyph-name="uni0306" unicode="&#x306;" 
d="M-180 557q-47 0 -77 14.5t-48 37.5t-25 53t-7 61h108q0 -60 48 -60q49 0 49 60h106q0 -31 -7 -61t-24.5 -53t-47.5 -37.5t-75 -14.5z" />
    <glyph glyph-name="uni0307" unicode="&#x307;" 
d="M-101 552q-36 0 -63 25.5t-27 62.5q0 18 7.5 34.5t19.5 29t28.5 19.5t34.5 7q37 0 63 -26.5t26 -63.5t-26 -62.5t-63 -25.5z" />
    <glyph glyph-name="uni0308" unicode="&#x308;" 
d="M-326 544q-35 0 -60.5 25t-25.5 60t25.5 60.5t60.5 25.5t60 -25.5t25 -60.5t-25 -60t-60 -25zM-101 544q-35 0 -60.5 25t-25.5 60t25.5 60.5t60.5 25.5t60 -25.5t25 -60.5t-25 -60t-60 -25z" />
    <glyph glyph-name="uni030A" unicode="&#x30a;" 
d="M-147 520q-26 0 -48 9.5t-38 25.5t-25.5 38.5t-9.5 47.5q0 26 9.5 48t25.5 38t38 25.5t48 9.5t48 -9.5t38.5 -25.5t25.5 -38t9 -48q0 -25 -9 -47.5t-25.5 -38.5t-38.5 -25.5t-48 -9.5zM-147 597q19 0 31 12.5t12 31.5t-12 31.5t-31 12.5q-18 0 -30 -12.5t-12 -31.5
t12 -31.5t30 -12.5z" />
    <glyph glyph-name="uni030B" unicode="&#x30b;" 
d="M-372 741h159l-112 -200h-111zM-168 741h159l-112 -200h-110z" />
    <glyph glyph-name="uni030C" unicode="&#x30c;" 
d="M-353 737h126l42 -96l42 96h125l-90 -194h-155z" />
    <glyph glyph-name="uni0312" unicode="&#x312;" 
d="M-101 544q-38 0 -59.5 21.5t-21.5 63.5q0 24 8 48.5t23 45.5t35.5 37t44.5 23l33 -55q-24 -7 -38 -21.5t-15 -25.5q29 -2 45.5 -20.5t16.5 -47.5t-20 -49t-52 -20z" />
    <glyph glyph-name="dotbelowcomb" unicode="&#x323;" 
d="M-101 -215q-18 0 -34.5 7t-28.5 19t-19.5 28.5t-7.5 34.5t7.5 34.5t19.5 28.5t28.5 19.5t34.5 7.5t34.5 -7.5t28.5 -19.5t19 -28.5t7 -34.5q0 -37 -26 -63t-63 -26z" />
    <glyph glyph-name="uni0326" unicode="&#x326;" 
d="M-173 -220q48 15 48 45q-26 2 -43 20.5t-17 48.5q0 32 21 53t55 21q37 0 59 -22.5t22 -64.5q0 -59 -32 -99.5t-87 -55.5z" />
    <glyph glyph-name="uni0327" unicode="&#x327;" 
d="M-150 -221q-29 0 -58 8.5t-46 25.5l43 64q11 -10 24 -16t29 -6q36 0 36 26q0 17 -19 26t-52 11l30 85h79l-14 -41q35 -5 58.5 -24t23.5 -59q0 -47 -35.5 -73.5t-98.5 -26.5z" />
    <glyph glyph-name="uni0328" unicode="&#x328;" 
d="M-149 -201q-56 0 -85 25t-29 71q0 48 36 89.5t97 64.5l43 -47q-32 -14 -48.5 -36t-16.5 -45q0 -20 8.5 -28.5t22.5 -8.5q17 0 28 9l33 -68q-14 -12 -37 -19t-52 -7z" />
    <glyph glyph-name="uni0335" unicode="&#x335;" 
d="M-344 404h322v-105h-322v105z" />
    <glyph glyph-name="uni0336" unicode="&#x336;" 
d="M-709 595h694v-96h-694v96z" />
    <glyph glyph-name="uni0337" unicode="&#x337;" 
d="M-385 345l315 185l56 -93l-318 -185z" />
    <glyph glyph-name="uni0338" unicode="&#x338;" 
d="M-92 518h93l-370 -552h-94z" />
    <glyph glyph-name="Wgrave" unicode="&#x1e80;" horiz-adv-x="945" 
d="M282 902h178l81 -161h-129zM6 700h169l101 -542l132 542h137l127 -542l106 542h160l-178 -700h-170l-116 492l-120 -492h-169z" />
    <glyph glyph-name="wgrave" unicode="&#x1e81;" horiz-adv-x="773" 
d="M327 541l-130 200h171l81 -200h-122zM767 482l-146 -482h-158l-58 258l-15 92l-18 -92l-66 -258h-154l-146 482h158l56 -247l19 -110l19 110l57 247h153l56 -247l19 -110l19 110l56 247h149z" />
    <glyph glyph-name="Wacute" unicode="&#x1e82;" horiz-adv-x="945" 
d="M477 902h177l-130 -161h-128zM6 700h169l101 -542l132 542h137l127 -542l106 542h160l-178 -700h-170l-116 492l-120 -492h-169z" />
    <glyph glyph-name="wacute" unicode="&#x1e83;" horiz-adv-x="773" 
d="M432 541h-123l81 200h171zM767 482l-146 -482h-158l-58 258l-15 92l-18 -92l-66 -258h-154l-146 482h158l56 -247l19 -110l19 110l57 247h153l56 -247l19 -110l19 110l56 247h149z" />
    <glyph glyph-name="Wdieresis" unicode="&#x1e84;" horiz-adv-x="945" 
d="M349 741q-36 0 -61.5 25t-25.5 61t25.5 62t61.5 26t61 -26t25 -62t-25 -61t-61 -25zM600 741q-36 0 -61.5 25t-25.5 61t25.5 62t61.5 26t61 -26t25 -62t-25 -61t-61 -25zM6 700h169l101 -542l132 542h137l127 -542l106 542h160l-178 -700h-170l-116 492l-120 -492h-169z
" />
    <glyph glyph-name="wdieresis" unicode="&#x1e85;" horiz-adv-x="773" 
d="M274 552q-35 0 -60 25.5t-25 60.5t25 60.5t60 25.5q36 0 60.5 -25.5t24.5 -60.5t-24.5 -60.5t-60.5 -25.5zM500 552q-35 0 -60.5 25.5t-25.5 60.5t25.5 60.5t60.5 25.5t60 -25.5t25 -60.5t-25 -60.5t-60 -25.5zM767 482l-146 -482h-158l-58 258l-15 92l-18 -92l-66 -258
h-154l-146 482h158l56 -247l19 -110l19 110l57 247h153l56 -247l19 -110l19 110l56 247h149z" />
    <glyph glyph-name="uni1E9E" unicode="&#x1e9e;" horiz-adv-x="682" 
d="M465 394q54 -9 90 -27.5t57.5 -44.5t30 -58t8.5 -69q0 -99 -64 -152.5t-171 -53.5q-58 0 -103 12.5t-72 38.5l69 107q23 -17 45 -25t54 -8q47 0 71 21t24 57q0 20 -8 37.5t-29 31t-57 21.5t-91 9l-4 109l140 154q-40 21 -103 21t-100.5 -35.5t-37.5 -104.5v-435h-147v445
q0 65 21.5 114t59.5 81.5t90.5 49t114.5 16.5q74 0 137.5 -18.5t112.5 -63.5v-85z" />
    <glyph glyph-name="uni1EA0" unicode="&#x1ea0;" horiz-adv-x="664" 
d="M511 0l-53 162h-252l-54 -162h-153l257 700h152l257 -700h-154zM420 277l-88 266l-88 -266h176zM332 -36q18 0 34.5 -7.5t28.5 -19.5t19 -28.5t7 -34.5q0 -37 -26 -63t-63 -26q-18 0 -34.5 7t-28.5 19t-19.5 28.5t-7.5 34.5t7.5 34.5t19.5 28.5t28.5 19.5t34.5 7.5z" />
    <glyph glyph-name="uni1EA1" unicode="&#x1ea1;" horiz-adv-x="524" 
d="M223 -13q-43 0 -78.5 18t-60.5 50.5t-39 78.5t-14 103q0 58 15.5 105.5t43.5 81.5t66 53t83 19q85 0 125 -57v43h137v-329q0 -23 9 -33t31 -10v-110q-10 -4 -28 -6t-38 -2q-47 0 -72 20t-30 55l-1 1q-20 -38 -55 -59.5t-94 -21.5zM272 109q36 0 57 21t29 54v119
q-3 12 -9.5 24.5t-17 23t-25 17t-34.5 6.5q-47 0 -70 -35t-23 -100q0 -63 24 -96.5t69 -33.5zM299 -215q-37 0 -63.5 26t-26.5 63q0 18 7 34.5t19.5 28.5t29 19.5t34.5 7.5q37 0 62.5 -27t25.5 -63q0 -37 -25.5 -63t-62.5 -26z" />
    <glyph glyph-name="uni1EB8" unicode="&#x1eb8;" horiz-adv-x="570" 
d="M73 700h455v-125h-307v-158h265v-126h-265v-165h309v-126h-457v700zM319 -215q-18 0 -34.5 7t-28.5 19t-19.5 28.5t-7.5 34.5t7.5 34.5t19.5 28.5t28.5 19.5t34.5 7.5t34.5 -7.5t28.5 -19.5t19 -28.5t7 -34.5q0 -37 -26 -63t-63 -26z" />
    <glyph glyph-name="uni1EB9" unicode="&#x1eb9;" horiz-adv-x="496" 
d="M476 90q-33 -53 -89 -79t-129 -24q-106 2 -167 64t-61 177q0 62 18.5 111.5t51.5 84t78.5 53.5t99.5 19q85 0 134 -40t49 -113q0 -43 -21 -73.5t-58.5 -49.5t-88 -28.5t-110.5 -11.5q18 -74 98 -74q38 0 64.5 14.5t46.5 41.5zM276 378q-41 0 -66.5 -28.5t-30.5 -82.5
q66 2 106.5 16.5t40.5 49.5q0 45 -50 45zM258 -36q18 0 34.5 -7.5t28.5 -19.5t19 -28.5t7 -34.5q0 -37 -26 -63t-63 -26q-18 0 -34.5 7t-28.5 19t-19.5 28.5t-7.5 34.5t7.5 34.5t19.5 28.5t28.5 19.5t34.5 7.5z" />
    <glyph glyph-name="uni1EBC" unicode="&#x1ebc;" horiz-adv-x="570" 
d="M144 742q-6 11 -10 27.5t-4 33.5q0 42 26.5 69t72.5 27q23 0 42 -6t36 -13.5t31.5 -14t27.5 -6.5q25 0 25 22q0 12 -6 19h94q7 -11 11 -27t4 -30q0 -45 -26.5 -72t-73.5 -27q-25 0 -45.5 6.5t-37 14t-30 13.5t-24.5 6q-25 0 -25 -22q0 -6 2 -11t4 -9h-94zM73 700h455
v-125h-307v-158h265v-126h-265v-165h309v-126h-457v700z" />
    <glyph glyph-name="uni1EBD" unicode="&#x1ebd;" horiz-adv-x="496" 
d="M101 549q-7 11 -11 27.5t-4 34.5q0 43 26.5 70t73.5 27q20 0 38 -6.5t34 -14.5t29.5 -14.5t25.5 -6.5q11 0 18.5 5t7.5 16q0 5 -2 12t-5 11h88q8 -12 12 -28.5t4 -30.5q0 -45 -26.5 -72.5t-72.5 -27.5q-23 0 -42 6.5t-34 15t-27 15t-22 6.5q-27 0 -27 -23q0 -13 7 -22
h-91zM476 90q-33 -53 -89 -79t-129 -24q-106 2 -167 64t-61 177q0 62 18.5 111.5t51.5 84t78.5 53.5t99.5 19q85 0 134 -40t49 -113q0 -43 -21 -73.5t-58.5 -49.5t-88 -28.5t-110.5 -11.5q18 -74 98 -74q38 0 64.5 14.5t46.5 41.5zM276 378q-41 0 -66.5 -28.5t-30.5 -82.5
q66 2 106.5 16.5t40.5 49.5q0 45 -50 45z" />
    <glyph glyph-name="uni1ECA" unicode="&#x1eca;" horiz-adv-x="295" 
d="M73 700h148v-700h-148v700zM148 -215q-37 0 -63.5 26t-26.5 63q0 18 7 34.5t19.5 28.5t29 19.5t34.5 7.5q37 0 62.5 -27t25.5 -63q0 -37 -25.5 -63t-62.5 -26z" />
    <glyph glyph-name="uni1ECB" unicode="&#x1ecb;" horiz-adv-x="260" 
d="M130 552q-36 0 -63 25.5t-27 62.5q0 18 7.5 34.5t19.5 29t28.5 19.5t34.5 7q37 0 63 -26.5t26 -63.5t-26 -62.5t-63 -25.5zM57 482h146v-482h-146v482zM130 -215q-18 0 -34.5 7t-28.5 19t-19.5 28.5t-7.5 34.5t7.5 34.5t19.5 28.5t28.5 19.5t34.5 7.5t34.5 -7.5
t28.5 -19.5t19 -28.5t7 -34.5q0 -37 -26 -63t-63 -26z" />
    <glyph glyph-name="uni1ECC" unicode="&#x1ecc;" horiz-adv-x="717" 
d="M357 -11q-66 0 -124.5 21t-102 64.5t-69 111.5t-25.5 162q0 91 25.5 159t69.5 113.5t103 68t126 22.5q66 0 124.5 -21t102 -65.5t69 -112.5t25.5 -163q0 -91 -25.5 -158.5t-69.5 -112.5t-103 -67t-126 -22zM357 118q34 0 64.5 12t54 39.5t37 71.5t13.5 108
q0 65 -13.5 109t-36 71t-53 38.5t-63.5 11.5q-34 0 -64.5 -12t-53.5 -39t-37 -71t-14 -109q0 -64 13.5 -108t36 -71t52.5 -39t64 -12zM359 -215q-37 0 -63.5 26t-26.5 63q0 18 7 34.5t19.5 28.5t29 19.5t34.5 7.5t34.5 -7.5t28.5 -19.5t19 -28.5t7 -34.5q0 -37 -26 -63
t-63 -26z" />
    <glyph glyph-name="uni1ECD" unicode="&#x1ecd;" horiz-adv-x="543" 
d="M269 -13q-59 0 -103.5 18.5t-74.5 52t-45.5 80.5t-15.5 103t16.5 103t47.5 81t77 52.5t104 18.5t102.5 -18.5t74.5 -52t45.5 -80.5t15.5 -103q0 -55 -16 -102t-47.5 -81t-76.5 -53t-104 -19zM272 109q47 0 70 34.5t23 97.5t-24 98t-69 35q-46 0 -69.5 -35t-23.5 -98
t22.5 -97.5t70.5 -34.5zM272 -215q-37 0 -63.5 26t-26.5 63q0 18 7 34.5t19.5 28.5t29 19.5t34.5 7.5t34.5 -7.5t28.5 -19.5t19 -28.5t7 -34.5q0 -37 -26 -63t-63 -26z" />
    <glyph glyph-name="uni1EE4" unicode="&#x1ee4;" horiz-adv-x="677" 
d="M340 -6q-56 0 -106 15t-87.5 49.5t-59 91t-21.5 140.5l1 410h147v-422q0 -67 29 -109.5t98 -42.5q34 0 57.5 11t38 31.5t21 48.5t6.5 61v422h146v-410q0 -84 -21.5 -140.5t-58 -91t-85.5 -49.5t-105 -15zM338 -215q-36 0 -62.5 26t-26.5 63q0 18 7 34.5t19.5 28.5
t28.5 19.5t34 7.5t34.5 -7.5t28.5 -19.5t19 -28.5t7 -34.5q0 -37 -26 -63t-63 -26z" />
    <glyph glyph-name="uni1EE5" unicode="&#x1ee5;" horiz-adv-x="561" 
d="M209 -13q-77 0 -116.5 43.5t-39.5 130.5v321h146v-285q0 -44 17.5 -62t49.5 -18q36 0 57 25.5t21 58.5v281h146v-330q0 -21 9 -31.5t30 -10.5v-110q-8 -3 -25.5 -5.5t-38.5 -2.5q-49 0 -73.5 20.5t-29.5 56.5l-1 1q-22 -41 -57 -62t-95 -21zM281 -215q-36 0 -62.5 26
t-26.5 63q0 18 7 34.5t19.5 28.5t28.5 19.5t34 7.5t34.5 -7.5t28.5 -19.5t19 -28.5t7 -34.5q0 -37 -26 -63t-63 -26z" />
    <glyph glyph-name="Ygrave" unicode="&#x1ef2;" horiz-adv-x="631" 
d="M126 902h177l82 -161h-130zM242 280l-240 420h173l145 -286l145 286h164l-240 -417v-283h-147v280z" />
    <glyph glyph-name="ygrave" unicode="&#x1ef3;" horiz-adv-x="545" 
d="M83 741h171l81 -200h-123zM246 -247q-78 0 -133.5 27t-82.5 76l92 76q23 -34 48.5 -48t72.5 -14q61 0 84.5 32t23.5 86v74q-42 -68 -145 -68q-153 0 -153 174v314h146v-278q0 -79 59 -79q34 0 58.5 26.5t26.5 64.5v266h146v-489q0 -110 -60.5 -175t-182.5 -65z" />
    <glyph glyph-name="uni1EF8" unicode="&#x1ef8;" horiz-adv-x="631" 
d="M148 742q-6 11 -10 27.5t-4 33.5q0 42 27 69t72 27q23 0 42 -6t36 -13.5t31.5 -14t27.5 -6.5q25 0 25 22q0 12 -6 19h94q7 -11 11 -27t4 -30q0 -45 -26 -72t-74 -27q-25 0 -45.5 6.5t-37 14t-30 13.5t-24.5 6q-25 0 -25 -22q0 -6 2 -11t4 -9h-94zM242 280l-240 420h173
l145 -286l145 286h164l-240 -417v-283h-147v280z" />
    <glyph glyph-name="uni1EF9" unicode="&#x1ef9;" horiz-adv-x="545" 
d="M110 549q-16 24 -16 62q0 43 26.5 70t74.5 27q20 0 38 -6.5t34 -14.5t29.5 -14.5t25.5 -6.5q11 0 18 5t7 16q0 5 -1.5 12t-4.5 11h88q8 -12 11.5 -28.5t3.5 -30.5q0 -45 -26 -72.5t-73 -27.5q-23 0 -42 6.5t-34 15t-27 15t-22 6.5q-12 0 -19.5 -6t-7.5 -17q0 -13 7 -22
h-90zM246 -247q-78 0 -133.5 27t-82.5 76l92 76q23 -34 48.5 -48t72.5 -14q61 0 84.5 32t23.5 86v74q-42 -68 -145 -68q-153 0 -153 174v314h146v-278q0 -79 59 -79q34 0 58.5 26.5t26.5 64.5v266h146v-489q0 -110 -60.5 -175t-182.5 -65z" />
    <glyph glyph-name="endash" unicode="&#x2013;" horiz-adv-x="547" 
d="M50 324h448v-105h-448v105z" />
    <glyph glyph-name="emdash" unicode="&#x2014;" horiz-adv-x="878" 
d="M50 324h778v-105h-778v105z" />
    <glyph glyph-name="quoteleft" unicode="&#x2018;" horiz-adv-x="238" 
d="M194 657q-30 -14 -50 -34.5t-21 -39.5q39 0 61.5 -24t22.5 -59q0 -36 -23.5 -61t-60.5 -25q-42 0 -67 25.5t-25 78.5q0 67 30.5 118t93.5 78z" />
    <glyph glyph-name="quoteright" unicode="&#x2019;" horiz-adv-x="235" 
d="M44 465q30 14 50.5 34.5t20.5 39.5q-39 0 -61.5 24t-22.5 59t24 60.5t60 25.5q42 0 67.5 -25.5t25.5 -78.5q0 -67 -30.5 -118t-93.5 -78z" />
    <glyph glyph-name="quotesinglbase" unicode="&#x201a;" horiz-adv-x="248" 
d="M47 -80q30 14 50.5 34.5t21.5 39.5q-40 0 -62.5 24t-22.5 59q0 36 24 61.5t61 25.5q42 0 67 -26t25 -79q0 -66 -30.5 -117t-93.5 -79z" />
    <glyph glyph-name="quotedblleft" unicode="&#x201c;" horiz-adv-x="454" 
d="M194 657q-30 -13 -50 -34t-21 -39q39 0 61.5 -24t22.5 -59q0 -36 -23.5 -61.5t-60.5 -25.5q-42 0 -67 26t-25 78q0 67 30.5 118t93.5 79zM410 657q-30 -13 -50 -34t-21 -39q39 0 61.5 -24t22.5 -59q0 -36 -23.5 -61.5t-60.5 -25.5q-42 0 -67 26t-25 78q0 67 30.5 118
t93.5 79z" />
    <glyph glyph-name="quotedblright" unicode="&#x201d;" horiz-adv-x="451" 
d="M44 465q30 14 50.5 34.5t20.5 39.5q-39 0 -61.5 24t-22.5 59t24 60.5t60 25.5q42 0 67.5 -25.5t25.5 -78.5q0 -67 -30.5 -118t-93.5 -78zM260 465q30 14 50.5 34.5t20.5 39.5q-39 0 -61.5 24t-22.5 59t24 60.5t60 25.5q42 0 67.5 -25.5t25.5 -78.5q0 -67 -30.5 -118
t-93.5 -78z" />
    <glyph glyph-name="quotedblbase" unicode="&#x201e;" horiz-adv-x="464" 
d="M47 -80q30 14 50.5 34.5t21.5 39.5q-40 0 -62.5 24t-22.5 59q0 36 24 61.5t61 25.5q42 0 67 -26t25 -79q0 -66 -30.5 -117t-93.5 -79zM263 -80q30 14 50.5 34.5t21.5 39.5q-40 0 -62.5 24t-22.5 59q0 36 24 61.5t61 25.5q42 0 67 -26t25 -79q0 -66 -30.5 -117t-93.5 -79z
" />
    <glyph glyph-name="dagger" unicode="&#x2020;" horiz-adv-x="409" 
d="M140 482h-105v82h105v167h129v-167h106v-82h-106l-18 -416h-94z" />
    <glyph glyph-name="daggerdbl" unicode="&#x2021;" horiz-adv-x="409" 
d="M149 262h-113v83h109l-5 137h-105v82h105v167h129v-167h106v-82h-106l-5 -137h110v-83h-115l-8 -189h-94z" />
    <glyph glyph-name="bullet" unicode="&#x2022;" horiz-adv-x="390" 
d="M195 150q-29 0 -54.5 11t-44.5 30t-30 44.5t-11 54.5t11 54.5t30 44.5t44.5 30t54.5 11t54.5 -11t44.5 -30t30 -44.5t11 -54.5t-11 -54.5t-30 -44.5t-44.5 -30t-54.5 -11z" />
    <glyph glyph-name="ellipsis" unicode="&#x2026;" horiz-adv-x="604" 
d="M107 -6q-31 0 -52.5 21t-21.5 52q0 30 21.5 51.5t52.5 21.5q30 0 51 -21.5t21 -51.5q0 -31 -21 -52t-51 -21zM302 -6q-30 0 -51.5 21t-21.5 52q0 30 21.5 51.5t51.5 21.5t51 -21.5t21 -51.5q0 -31 -21 -52t-51 -21zM498 -6q-30 0 -51.5 21t-21.5 52q0 30 21.5 51.5
t51.5 21.5t51 -21.5t21 -51.5q0 -31 -21 -52t-51 -21z" />
    <glyph glyph-name="perthousand" unicode="&#x2030;" horiz-adv-x="953" 
d="M150 423q-63 0 -95 38t-32 101q0 62 32 100.5t95 38.5q66 0 98.5 -38.5t32.5 -100.5q0 -63 -32.5 -101t-98.5 -38zM384 700h97l-210 -700h-99zM150 493q46 0 46 69q0 65 -46 65q-24 0 -34.5 -16.5t-10.5 -48.5q0 -34 10.5 -51.5t34.5 -17.5zM501 -2q-63 0 -95 38t-32 101
q0 62 32 100.5t95 38.5q66 0 98 -38.5t32 -100.5q0 -63 -32.5 -101t-97.5 -38zM800 -2q-63 0 -95 38t-32 101q0 62 32 100.5t95 38.5q66 0 98 -38.5t32 -100.5q0 -63 -32.5 -101t-97.5 -38zM501 68q24 0 34.5 17.5t10.5 51.5q0 32 -10.5 48.5t-34.5 16.5t-34.5 -16.5
t-10.5 -48.5q0 -34 10.5 -51.5t34.5 -17.5zM800 68q24 0 34.5 17.5t10.5 51.5q0 32 -10.5 48.5t-34.5 16.5t-34.5 -16.5t-10.5 -48.5q0 -34 10.5 -51.5t34.5 -17.5z" />
    <glyph glyph-name="guilsinglleft" unicode="&#x2039;" horiz-adv-x="304" 
d="M34 202v118l166 143l73 -82l-128 -120l128 -119l-73 -82z" />
    <glyph glyph-name="guilsinglright" unicode="&#x203a;" horiz-adv-x="304" 
d="M31 141l128 120l-128 120l73 82l166 -143v-118l-166 -142z" />
    <glyph glyph-name="fraction" unicode="&#x2044;" horiz-adv-x="187" 
d="M154 727h101l-220 -727h-101z" />
    <glyph glyph-name="Euro" unicode="&#x20ac;" horiz-adv-x="670" 
d="M645 115q-15 -24 -38.5 -45t-52.5 -36.5t-63.5 -24.5t-71.5 -9q-119 0 -199 57t-110 164h-78v97h63q-1 8 -1 15.5v15.5v19h-62v97h75q26 111 102.5 173t191.5 62q88 0 147 -31.5t91 -86.5l-124 -89q-15 27 -42.5 45t-69.5 18q-91 0 -124 -91h176v-97h-193q-1 -6 -1 -12
v-13v-13t1 -12h193v-97h-175q18 -43 53 -60t87 -17q38 0 73 20t55 49z" />
    <glyph glyph-name="trademark" unicode="&#x2122;" horiz-adv-x="835" 
d="M136 630h-111v87h328v-87h-104v-297h-113v297zM378 717h100l97 -215l98 215h99v-384h-93v198l-74 -152h-62l-71 151v-197h-94v384z" />
    <glyph glyph-name="minus" unicode="&#x2212;" horiz-adv-x="483" 
d="M53 321h377v-105h-377v105z" />
    <glyph glyph-name="uni2215" unicode="&#x2215;" horiz-adv-x="411" 
d="M288 726h142l-304 -726h-144z" />
    <glyph glyph-name="uni2219" unicode="&#x2219;" horiz-adv-x="317" 
d="M159 206q-30 0 -51 20.5t-21 50.5t21 51.5t51 21.5t51 -21.5t21 -51.5t-21 -50.5t-51 -20.5z" />
    <glyph glyph-name="approxequal" unicode="&#x2248;" horiz-adv-x="507" 
d="M64 263q-4 7 -8 17q-3 8 -5.5 19.5t-2.5 26.5q0 44 25.5 77.5t77.5 33.5q29 0 55.5 -8.5t50 -19t44.5 -19t39 -8.5q14 0 21 8t7 19q0 9 -2.5 17.5t-4.5 15.5q-4 8 -8 15h93q4 -9 7 -19q3 -9 5 -20t2 -23q0 -46 -24.5 -80t-74.5 -34q-35 0 -62.5 8.5t-50 19t-41 19
t-33.5 8.5q-17 0 -25.5 -8t-8.5 -22q0 -10 2.5 -18t5.5 -14t7 -11h-91zM64 69q-4 7 -8 16q-3 9 -5.5 20.5t-2.5 26.5q0 22 6.5 42t19 35.5t32 24.5t45.5 9q29 0 55.5 -8.5t50 -19t44.5 -19.5t39 -9q14 0 21 8t7 19q0 9 -2.5 18t-4.5 16q-4 8 -8 15h93q4 -9 7 -19q3 -9 5 -20
t2 -24q0 -22 -6 -43t-18.5 -36.5t-31 -25t-43.5 -9.5q-35 0 -62.5 8.5t-50 19t-41 19t-33.5 8.5q-17 0 -25.5 -8.5t-8.5 -20.5q0 -10 2.5 -18t5.5 -14t7 -11h-91z" />
    <glyph glyph-name="notequal" unicode="&#x2260;" horiz-adv-x="509" 
d="M147 102h-94v104h126l33 108h-159v104h190l23 72h117l-22 -72h96v-104h-128l-32 -108h160v-104h-192l-17 -55h-117z" />
    <glyph glyph-name="lessequal" unicode="&#x2264;" horiz-adv-x="462" 
d="M46 314v113l355 197v-125l-227 -129l227 -127v-125zM31 82h392v-104h-392v104z" />
    <glyph glyph-name="greaterequal" unicode="&#x2265;" horiz-adv-x="462" 
d="M62 243l226 127l-226 128v126l354 -197v-114l-354 -196v126zM39 81h392v-104h-392v104z" />
    <glyph glyph-name="uniF8FF" unicode="&#xf8ff;" horiz-adv-x="1451" 
d="M752 522q-26 0 -43.5 17.5t-17.5 43.5t17.5 44t43.5 18t44 -18t18 -44t-18 -43.5t-44 -17.5zM100 270q0 57 1 108t2.5 91.5t3 70t2.5 44.5h100q2 -30 6 -114t4 -200h-119zM604 264q-82 0 -82 66q0 8 0.5 21.5t1.5 27.5t1.5 25t0.5 13h-22v79l119 30l1 -17h178
q3 -17 4.5 -45t3 -61t2 -68t0.5 -65h-118q0 92 3 147h-61l3 -65q4 -4 15 -4q5 0 10 1t8 4v-74q-8 -8 -27 -11.5t-41 -3.5zM328 265q-43 0 -67.5 27.5t-24.5 86.5q0 64 32.5 99.5t101.5 35.5q64 0 94 -30.5t30 -86.5v-127h-83l-8 61q-6 -31 -22.5 -48.5t-52.5 -17.5zM834 270
q0 30 0.5 65t2 68t3 61t4.5 45h80q2 -17 4 -39t2 -37q1 6 4 19.5t12 27t24 24t40 10.5q45 0 60 -26t17 -80l3 -138h-114q0 35 1 56.5t1 36.5t-2.5 22t-12.5 7q-12 0 -15 -8t-3 -21q0 -15 1.5 -36.5t1.5 -56.5h-114zM1228 265q-64 0 -93 33.5t-29 90.5q0 24 5.5 46.5t19.5 40
t38 28t61 10.5q36 0 59.5 -10.5t37 -27.5t19 -39t5.5 -46q0 -60 -29.5 -93t-93.5 -33zM366 345q24 0 24 30q0 26 -24 26q-22 0 -22 -26q0 -30 22 -30zM1228 345q23 0 23 30q0 26 -23 26q-21 0 -21 -26q0 -30 21 -30zM390 -50q-45 0 -63.5 6.5t-24.5 10.5v83q5 -3 21.5 -9.5
t48.5 -6.5q17 0 27.5 3.5t16.5 8t8 9.5t2 7q-5 -3 -15.5 -7t-33.5 -4q-90 0 -90 83v13h-55l3 -65q2 -2 5.5 -3t9.5 -1q8 0 12 1.5t6 3.5v-73q-4 -3 -17 -9t-51 -6q-46 0 -63.5 17.5t-17.5 53.5q0 6 0.5 17t1 23.5t1 24t0.5 16.5h-18v80l117 29l-1 -18h177v-119
q0 -16 3 -21.5t12 -5.5t12.5 6t3.5 21v119h104q2 -8 3.5 -23t3 -34t2.5 -40t1 -41q0 -79 -33 -114.5t-119 -35.5zM558 -44q0 128 4.5 194.5t5.5 87.5h78q1 -4 2 -14t2 -21.5t2 -22.5t1 -18q1 5 5 18.5t12.5 27.5t23.5 24.5t39 10.5q37 0 58.5 -28.5t21.5 -84.5
q0 -135 -137 -135q1 -11 1 -22.5v-16.5h-119zM970 -5q-72 0 -106.5 31t-34.5 91q0 59 32.5 92.5t92.5 33.5q55 0 85.5 -29.5t30.5 -86.5q0 -8 -0.5 -18t-2.5 -17h-124q4 -6 15.5 -12t34.5 -6q14 0 29 3t26 9v-75q-8 -5 -27 -10.5t-51 -5.5zM978 109q3 27 -17 27
q-23 0 -23 -27h40zM670 72q3 0 9 1.5t12 5.5t11 11t5 19q0 23 -20 23q-22 0 -22 -31q0 -12 2 -19.5t3 -9.5zM1098 -10q-11 0 -17.5 6t-6.5 17t6.5 17t17.5 6t17.5 -6t6.5 -17t-6.5 -17t-17.5 -6zM1098 -5q18 0 18 18t-18 18t-18 -18t18 -18zM1088 25h11q10 0 10 -7t-7 -7
l6 -9h-6l-4 9h-5v-9h-5v23zM1100 15q4 0 4 3t-4 3h-7v-6h7z" />
    <glyph glyph-name="Euro.osf" horiz-adv-x="548" 
d="M339 138q47 0 79 32l103 -70q-23 -46 -76.5 -73t-121.5 -27q-98 0 -162.5 53.5t-78.5 147.5h-48v96h48q14 95 77 147.5t163 52.5q72 0 121.5 -24t78.5 -76l-110 -73q-15 18 -33 26t-44 8q-37 0 -59 -16.5t-31 -44.5h110v-96h-112q9 -30 33 -46.5t63 -16.5z" />
    <glyph glyph-name="Euro.sc" horiz-adv-x="548" 
d="M338 138q48 0 79 32l104 -70q-24 -46 -76.5 -73t-120.5 -27q-98 0 -163 53.5t-79 147.5h-49v93h49q13 97 76 150t163 53q72 0 122 -24t79 -76l-110 -73q-16 18 -33.5 26t-43.5 8q-38 0 -60 -17.5t-31 -46.5h111v-93h-112q9 -30 33 -46.5t62 -16.5z" />
    <glyph glyph-name="IJacute" horiz-adv-x="778" 
d="M145 902h177l-130 -161h-129zM632 902h177l-129 -161h-129zM73 700h148v-700h-148v700zM476 -6q-65 0 -112 23t-73 58l88 103q19 -22 40.5 -36t54.5 -14q43 0 66 28.5t23 81.5v462h148v-460q0 -117 -60.5 -181.5t-174.5 -64.5z" />
    <glyph glyph-name="a.sc" horiz-adv-x="568" 
d="M373 92h-185l-33 -92h-152l205 497h152l205 -497h-159zM338 189l-57 162l-58 -162h115z" />
    <glyph glyph-name="a.ss01" horiz-adv-x="524" 
d="M458 152q0 -21 8.5 -31.5t31.5 -10.5v-110q-11 -3 -29 -5.5t-35 -2.5q-28 0 -47 6.5t-31 17.5t-17.5 24.5t-7.5 28.5q-8 -15 -20.5 -29.5t-31 -26t-43 -18.5t-57.5 -7q-75 0 -115 37t-40 95q0 66 46 102.5t147 36.5h95v54q0 70 -65 70q-61 0 -61 -55q0 -19 7 -31h-131
q-2 2 -6.5 15.5t-4.5 39.5q0 65 51 104.5t150 39.5q109 0 157.5 -49.5t48.5 -138.5v-156zM223 97q34 0 56 18t33 50v20l-81 -1q-32 0 -46.5 -12.5t-14.5 -32.5t14 -31t39 -11z" />
    <glyph glyph-name="aacute.sc" horiz-adv-x="568" 
d="M327 556h-122l81 200h171zM373 92h-185l-33 -92h-152l205 497h152l205 -497h-159zM338 189l-57 162l-58 -162h115z" />
    <glyph glyph-name="aacute.ss01" horiz-adv-x="524" 
d="M302 541h-122l81 200h171zM458 152q0 -21 8.5 -31.5t31.5 -10.5v-110q-11 -3 -29 -5.5t-35 -2.5q-28 0 -47 6.5t-31 17.5t-17.5 24.5t-7.5 28.5q-8 -15 -20.5 -29.5t-31 -26t-43 -18.5t-57.5 -7q-75 0 -115 37t-40 95q0 66 46 102.5t147 36.5h95v54q0 70 -65 70
q-61 0 -61 -55q0 -19 7 -31h-131q-2 2 -6.5 15.5t-4.5 39.5q0 65 51 104.5t150 39.5q109 0 157.5 -49.5t48.5 -138.5v-156zM223 97q34 0 56 18t33 50v20l-81 -1q-32 0 -46.5 -12.5t-14.5 -32.5t14 -31t39 -11z" />
    <glyph glyph-name="abreve.sc" horiz-adv-x="568" 
d="M283 572q-46 0 -76 14.5t-48 37.5t-25 53t-7 61h107q0 -60 49 -60t49 60h106q0 -31 -7 -61t-25 -53t-48 -37.5t-75 -14.5zM373 92h-185l-33 -92h-152l205 497h152l205 -497h-159zM338 189l-57 162l-58 -162h115z" />
    <glyph glyph-name="abreve.ss01" horiz-adv-x="524" 
d="M259 557q-46 0 -76.5 14.5t-48.5 37.5t-25 53t-7 61h107q0 -60 49 -60t49 60h106q0 -31 -7 -61t-24.5 -53t-47.5 -37.5t-75 -14.5zM458 152q0 -21 8.5 -31.5t31.5 -10.5v-110q-11 -3 -29 -5.5t-35 -2.5q-28 0 -47 6.5t-31 17.5t-17.5 24.5t-7.5 28.5q-8 -15 -20.5 -29.5
t-31 -26t-43 -18.5t-57.5 -7q-75 0 -115 37t-40 95q0 66 46 102.5t147 36.5h95v54q0 70 -65 70q-61 0 -61 -55q0 -19 7 -31h-131q-2 2 -6.5 15.5t-4.5 39.5q0 65 51 104.5t150 39.5q109 0 157.5 -49.5t48.5 -138.5v-156zM223 97q34 0 56 18t33 50v20l-81 -1
q-32 0 -46.5 -12.5t-14.5 -32.5t14 -31t39 -11z" />
    <glyph glyph-name="acircumflex.sc" horiz-adv-x="568" 
d="M240 558h-125l89 194h156l90 -194h-126l-42 96zM373 92h-185l-33 -92h-152l205 497h152l205 -497h-159zM338 189l-57 162l-58 -162h115z" />
    <glyph glyph-name="acircumflex.ss01" horiz-adv-x="524" 
d="M215 543h-125l90 194h156l89 -194h-126l-42 96zM458 152q0 -21 8.5 -31.5t31.5 -10.5v-110q-11 -3 -29 -5.5t-35 -2.5q-28 0 -47 6.5t-31 17.5t-17.5 24.5t-7.5 28.5q-8 -15 -20.5 -29.5t-31 -26t-43 -18.5t-57.5 -7q-75 0 -115 37t-40 95q0 66 46 102.5t147 36.5h95v54
q0 70 -65 70q-61 0 -61 -55q0 -19 7 -31h-131q-2 2 -6.5 15.5t-4.5 39.5q0 65 51 104.5t150 39.5q109 0 157.5 -49.5t48.5 -138.5v-156zM223 97q34 0 56 18t33 50v20l-81 -1q-32 0 -46.5 -12.5t-14.5 -32.5t14 -31t39 -11z" />
    <glyph glyph-name="acute.case" horiz-adv-x="308" 
d="M108 680h174l-129 -160h-127z" />
    <glyph glyph-name="acutecomb.case" 
d="M-200 902h177l-130 -161h-129z" />
    <glyph glyph-name="adieresis.sc" horiz-adv-x="568" 
d="M170 567q-35 0 -60 25.5t-25 60.5t25 60.5t60 25.5q36 0 60.5 -25.5t24.5 -60.5t-24.5 -60.5t-60.5 -25.5zM396 567q-36 0 -61 25.5t-25 60.5t25 60.5t61 25.5q35 0 59.5 -25.5t24.5 -60.5t-24.5 -60.5t-59.5 -25.5zM373 92h-185l-33 -92h-152l205 497h152l205 -497h-159
zM338 189l-57 162l-58 -162h115z" />
    <glyph glyph-name="adieresis.ss01" horiz-adv-x="524" 
d="M145 552q-35 0 -60 25.5t-25 60.5t25 60.5t60 25.5q36 0 60.5 -25.5t24.5 -60.5t-24.5 -60.5t-60.5 -25.5zM371 552q-35 0 -60.5 25.5t-25.5 60.5t25.5 60.5t60.5 25.5t60 -25.5t25 -60.5t-25 -60.5t-60 -25.5zM458 152q0 -21 8.5 -31.5t31.5 -10.5v-110q-11 -3 -29 -5.5
t-35 -2.5q-28 0 -47 6.5t-31 17.5t-17.5 24.5t-7.5 28.5q-8 -15 -20.5 -29.5t-31 -26t-43 -18.5t-57.5 -7q-75 0 -115 37t-40 95q0 66 46 102.5t147 36.5h95v54q0 70 -65 70q-61 0 -61 -55q0 -19 7 -31h-131q-2 2 -6.5 15.5t-4.5 39.5q0 65 51 104.5t150 39.5
q109 0 157.5 -49.5t48.5 -138.5v-156zM223 97q34 0 56 18t33 50v20l-81 -1q-32 0 -46.5 -12.5t-14.5 -32.5t14 -31t39 -11z" />
    <glyph glyph-name="ae.sc" horiz-adv-x="729" 
d="M206 497h484v-113h-282l33 -83h184v-107h-145l33 -81h178v-113h-283l-34 92h-181l-34 -92h-158zM341 191l-56 159l-58 -159h114z" />
    <glyph glyph-name="aeacute.sc" horiz-adv-x="729" 
d="M428 756h171l-130 -200h-122zM206 497h484v-113h-282l33 -83h184v-107h-145l33 -81h178v-113h-283l-34 92h-181l-34 -92h-158zM341 191l-56 159l-58 -159h114z" />
    <glyph glyph-name="agrave.sc" horiz-adv-x="568" 
d="M223 556l-130 200h171l81 -200h-122zM373 92h-185l-33 -92h-152l205 497h152l205 -497h-159zM338 189l-57 162l-58 -162h115z" />
    <glyph glyph-name="agrave.ss01" horiz-adv-x="524" 
d="M198 541l-130 200h171l81 -200h-122zM458 152q0 -21 8.5 -31.5t31.5 -10.5v-110q-11 -3 -29 -5.5t-35 -2.5q-28 0 -47 6.5t-31 17.5t-17.5 24.5t-7.5 28.5q-8 -15 -20.5 -29.5t-31 -26t-43 -18.5t-57.5 -7q-75 0 -115 37t-40 95q0 66 46 102.5t147 36.5h95v54
q0 70 -65 70q-61 0 -61 -55q0 -19 7 -31h-131q-2 2 -6.5 15.5t-4.5 39.5q0 65 51 104.5t150 39.5q109 0 157.5 -49.5t48.5 -138.5v-156zM223 97q34 0 56 18t33 50v20l-81 -1q-32 0 -46.5 -12.5t-14.5 -32.5t14 -31t39 -11z" />
    <glyph glyph-name="amacron.sc" horiz-adv-x="568" 
d="M432 599h-299v109h299v-109zM373 92h-185l-33 -92h-152l205 497h152l205 -497h-159zM338 189l-57 162l-58 -162h115z" />
    <glyph glyph-name="amacron.ss01" horiz-adv-x="524" 
d="M408 584h-300v109h300v-109zM458 152q0 -21 8.5 -31.5t31.5 -10.5v-110q-11 -3 -29 -5.5t-35 -2.5q-28 0 -47 6.5t-31 17.5t-17.5 24.5t-7.5 28.5q-8 -15 -20.5 -29.5t-31 -26t-43 -18.5t-57.5 -7q-75 0 -115 37t-40 95q0 66 46 102.5t147 36.5h95v54q0 70 -65 70
q-61 0 -61 -55q0 -19 7 -31h-131q-2 2 -6.5 15.5t-4.5 39.5q0 65 51 104.5t150 39.5q109 0 157.5 -49.5t48.5 -138.5v-156zM223 97q34 0 56 18t33 50v20l-81 -1q-32 0 -46.5 -12.5t-14.5 -32.5t14 -31t39 -11z" />
    <glyph glyph-name="ampersand.sc" horiz-adv-x="585" 
d="M517 -7q-24 10 -47 21l-46 22q-33 -25 -76 -37t-94 -12q-100 0 -158 36t-58 112q0 42 23 78.5t67 56.5q-13 21 -20.5 45t-7.5 50q0 73 49.5 115t130.5 42q85 0 127.5 -35.5t42.5 -99.5q0 -13 -2.5 -27.5t-6.5 -24.5h-111q5 10 5 27q0 43 -53 43q-58 0 -58 -46
q0 -26 21.5 -51.5t73.5 -63.5q16 -11 36 -25.5t43 -29.5q7 25 7 59h107q0 -66 -18 -114q17 -9 35 -16.5t38 -15.5zM273 83q28 0 53 10q-22 14 -42.5 28.5t-38.5 28.5q-15 11 -31 24.5t-31 27.5q-17 -20 -17 -48q0 -34 26 -52.5t81 -18.5z" />
    <glyph glyph-name="aogonek.sc" horiz-adv-x="568" 
d="M504 -118q11 0 17 3t11 7l33 -68q-30 -27 -88 -27q-57 0 -86 25t-29 72q0 29 14 56t40 50h-10l-33 92h-185l-33 -92h-152l205 497h152l205 -497h-27q-32 -14 -48.5 -36t-16.5 -45q0 -20 8.5 -28.5t22.5 -8.5zM338 189l-57 162l-58 -162h115z" />
    <glyph glyph-name="aogonek.ss01" horiz-adv-x="524" 
d="M524 -176q-14 -12 -36.5 -19t-51.5 -7q-57 0 -86 24.5t-29 71.5q0 29 15 57t42 51q-24 11 -34.5 29t-12.5 38q-8 -15 -20.5 -29.5t-31 -26t-43 -18.5t-57.5 -7q-75 0 -115 37t-40 95q0 66 46 102.5t147 36.5h95v54q0 70 -65 70q-61 0 -61 -55q0 -19 7 -31h-131
q-2 2 -6.5 15.5t-4.5 39.5q0 65 51 104.5t150 39.5q109 0 157.5 -49.5t48.5 -138.5v-156q0 -21 8.5 -31.5t31.5 -10.5v-110q-32 -14 -48.5 -35.5t-16.5 -44.5q0 -20 8 -29t22 -9q11 0 17 3t11 7zM223 97q34 0 56 18t33 50v20l-81 -1q-32 0 -46.5 -12.5t-14.5 -32.5t14 -31
t39 -11z" />
    <glyph glyph-name="aring.sc" horiz-adv-x="568" 
d="M283 535q-26 0 -48 9.5t-38.5 25.5t-25.5 38.5t-9 47.5q0 26 9 48t25.5 38t38.5 25.5t48 9.5t47.5 -9.5t38 -25.5t25.5 -38t9 -48q0 -25 -9 -47.5t-25.5 -38.5t-38 -25.5t-47.5 -9.5zM283 700q-19 0 -31 -12.5t-12 -31.5t12 -31.5t31 -12.5t30.5 12.5t11.5 31.5t-12 31.5
t-30 12.5zM373 92h-185l-33 -92h-152l205 497h152l205 -497h-159zM338 189l-57 162l-58 -162h115z" />
    <glyph glyph-name="aring.ss01" horiz-adv-x="524" 
d="M258 520q-26 0 -48 9.5t-38.5 25.5t-25.5 38.5t-9 47.5q0 26 9 48t25.5 38t38.5 25.5t48 9.5t47.5 -9.5t38 -25.5t25.5 -38t9 -48q0 -25 -9 -47.5t-25.5 -38.5t-38 -25.5t-47.5 -9.5zM258 685q-19 0 -30.5 -12.5t-11.5 -31.5t11.5 -31.5t30.5 -12.5t30.5 12.5t11.5 31.5
t-12 31.5t-30 12.5zM458 152q0 -21 8.5 -31.5t31.5 -10.5v-110q-11 -3 -29 -5.5t-35 -2.5q-28 0 -47 6.5t-31 17.5t-17.5 24.5t-7.5 28.5q-8 -15 -20.5 -29.5t-31 -26t-43 -18.5t-57.5 -7q-75 0 -115 37t-40 95q0 66 46 102.5t147 36.5h95v54q0 70 -65 70q-61 0 -61 -55
q0 -19 7 -31h-131q-2 2 -6.5 15.5t-4.5 39.5q0 65 51 104.5t150 39.5q109 0 157.5 -49.5t48.5 -138.5v-156zM223 97q34 0 56 18t33 50v20l-81 -1q-32 0 -46.5 -12.5t-14.5 -32.5t14 -31t39 -11z" />
    <glyph glyph-name="aringacute.sc" horiz-adv-x="568" 
d="M373 92h-185l-33 -92h-152l203 491q-20 17 -31.5 41t-11.5 52q0 35 17 63.5t46 43.5l72 142h178l-122 -150q23 -16 37 -41.5t14 -57.5q0 -28 -11.5 -51.5t-31.5 -40.5l203 -492h-159zM284 628q-19 0 -30.5 -12.5t-11.5 -31.5t11.5 -31t30.5 -12t30.5 12t11.5 31t-12 31.5
t-30 12.5zM338 189l-57 162l-58 -162h115z" />
    <glyph glyph-name="aringacute.ss01" horiz-adv-x="524" 
d="M258 520q-26 0 -48 9.5t-38.5 25.5t-25.5 38.5t-9 47.5q0 35 16.5 63t45.5 43l61 152h171l-103 -159q23 -17 36.5 -42.5t13.5 -56.5q0 -25 -9 -47.5t-25.5 -38.5t-38 -25.5t-47.5 -9.5zM258 597q19 0 30.5 12.5t11.5 31.5t-12 31.5t-30 12.5q-19 0 -30.5 -12.5
t-11.5 -31.5t11.5 -31.5t30.5 -12.5zM458 152q0 -21 8.5 -31.5t31.5 -10.5v-110q-11 -3 -29 -5.5t-35 -2.5q-28 0 -47 6.5t-31 17.5t-17.5 24.5t-7.5 28.5q-8 -15 -20.5 -29.5t-31 -26t-43 -18.5t-57.5 -7q-75 0 -115 37t-40 95q0 66 46 102.5t147 36.5h95v54q0 70 -65 70
q-61 0 -61 -55q0 -19 7 -31h-131q-2 2 -6.5 15.5t-4.5 39.5q0 65 51 104.5t150 39.5q109 0 157.5 -49.5t48.5 -138.5v-156zM223 97q34 0 56 18t33 50v20l-81 -1q-32 0 -46.5 -12.5t-14.5 -32.5t14 -31t39 -11z" />
    <glyph glyph-name="atilde.sc" horiz-adv-x="568" 
d="M115 539q-6 11 -10.5 27.5t-4.5 33.5q0 42 27 69t72 27q23 0 42.5 -6t36.5 -13.5t31.5 -14t27.5 -6.5q25 0 25 22q0 12 -6 19h94q7 -11 10.5 -27t3.5 -30q0 -45 -26 -72t-73 -27q-25 0 -45.5 6.5t-37 14t-30 13.5t-24.5 6q-25 0 -25 -22q0 -12 6 -20h-94zM373 92h-185
l-33 -92h-152l205 497h152l205 -497h-159zM338 189l-57 162l-58 -162h115z" />
    <glyph glyph-name="atilde.ss01" horiz-adv-x="524" 
d="M99 549q-16 24 -16 62q0 43 26.5 70t74.5 27q20 0 38 -6.5t34 -14.5t29.5 -14.5t25.5 -6.5q11 0 18 5t7 16q0 5 -1.5 12t-4.5 11h88q8 -12 11.5 -28.5t3.5 -30.5q0 -45 -26 -72.5t-73 -27.5q-23 0 -41.5 6.5t-34 15t-27.5 15t-21 6.5q-28 0 -28 -23q0 -13 7 -22h-90z
M458 152q0 -21 8.5 -31.5t31.5 -10.5v-110q-11 -3 -29 -5.5t-35 -2.5q-28 0 -47 6.5t-31 17.5t-17.5 24.5t-7.5 28.5q-8 -15 -20.5 -29.5t-31 -26t-43 -18.5t-57.5 -7q-75 0 -115 37t-40 95q0 66 46 102.5t147 36.5h95v54q0 70 -65 70q-61 0 -61 -55q0 -19 7 -31h-131
q-2 2 -6.5 15.5t-4.5 39.5q0 65 51 104.5t150 39.5q109 0 157.5 -49.5t48.5 -138.5v-156zM223 97q34 0 56 18t33 50v20l-81 -1q-32 0 -46.5 -12.5t-14.5 -32.5t14 -31t39 -11z" />
    <glyph glyph-name="b.sc" horiz-adv-x="532" 
d="M408 277q42 -12 68.5 -41.5t26.5 -86.5q0 -41 -17 -69.5t-46 -46t-68 -25.5t-83 -8h-226v497h229q89 0 136.5 -29t47.5 -95q0 -35 -17 -60t-51 -36zM210 303h59q28 0 44 13t16 37q0 49 -60 49h-59v-99zM281 95q31 0 52 11.5t21 43.5q0 31 -19.5 45t-55.5 14h-69v-114h71z
" />
    <glyph glyph-name="braceleft.sc" horiz-adv-x="320" 
d="M282 -88q-38 -5 -73.5 1t-62.5 25.5t-43.5 54t-16.5 85.5v70q0 26 -16.5 37t-33.5 11h-8v107h8q17 0 33.5 10.5t16.5 36.5v70q0 52 16.5 86.5t43.5 54t62.5 25.5t73.5 0v-117q-37 11 -58 -9.5t-21 -62.5v-79q0 -18 -4 -30.5t-10 -20.5t-12 -11.5t-10 -5.5q3 -1 9 -6
t12 -14t10.5 -21.5t4.5 -28.5v-78q0 -41 21 -62t58 -10v-118z" />
    <glyph glyph-name="braceright.sc" horiz-adv-x="320" 
d="M38 588q38 5 73.5 -0.5t62.5 -25t43.5 -54t16.5 -86.5v-70q0 -26 16.5 -37t33.5 -11h8v-107h-8q-17 0 -33.5 -10.5t-16.5 -36.5v-70q0 -52 -16.5 -86.5t-43.5 -54t-62.5 -25.5t-73.5 0v117q37 -11 58 10t21 63v78q0 18 4 30.5t10 20.5t12.5 12t10.5 5q-3 1 -9 6t-12.5 14
t-11 21.5t-4.5 28.5v78q0 42 -21 62.5t-58 10.5v117z" />
    <glyph glyph-name="bracketleft.sc" horiz-adv-x="336" 
d="M68 596h235v-110h-108v-469h108v-109h-235v688z" />
    <glyph glyph-name="bracketright.sc" horiz-adv-x="336" 
d="M33 17h109v468h-109v110h235v-688h-235v110z" />
    <glyph glyph-name="breve.case" horiz-adv-x="362" 
d="M182 522q-42 0 -72 13t-49 33.5t-27.5 47t-8.5 53.5h107q0 -50 49 -50q26 0 37 13t11 37h107q0 -27 -8.5 -53.5t-27 -47t-47.5 -33.5t-71 -13z" />
    <glyph glyph-name="c.sc" horiz-adv-x="529" 
d="M285 -13q-115 0 -183.5 65.5t-68.5 192.5q0 61 18 110t51 83.5t80.5 53t106.5 18.5q39 0 76.5 -9t67 -28.5t47.5 -51.5t18 -78q0 -9 -1 -20.5t-5 -24.5h-139q1 5 1.5 10t0.5 11q0 27 -16 42.5t-52 15.5q-45 0 -71.5 -31.5t-26.5 -97.5q0 -64 28.5 -98t80.5 -34
q40 0 64.5 13.5t42.5 39.5l99 -71q-28 -49 -79 -80t-140 -31z" />
    <glyph glyph-name="cacute.sc" horiz-adv-x="529" 
d="M289 756h171l-130 -200h-122zM285 -13q-115 0 -183.5 65.5t-68.5 192.5q0 61 18 110t51 83.5t80.5 53t106.5 18.5q39 0 76.5 -9t67 -28.5t47.5 -51.5t18 -78q0 -9 -1 -20.5t-5 -24.5h-139q1 5 1.5 10t0.5 11q0 27 -16 42.5t-52 15.5q-45 0 -71.5 -31.5t-26.5 -97.5
q0 -64 28.5 -98t80.5 -34q40 0 64.5 13.5t42.5 39.5l99 -71q-28 -49 -79 -80t-140 -31z" />
    <glyph glyph-name="caron.alt" horiz-adv-x="248" 
d="M55 527q31 11 40.5 26t10.5 29q-32 3 -46.5 23.5t-14.5 46.5q0 31 21 52.5t56 21.5q36 0 58.5 -23.5t22.5 -65.5q0 -60 -32 -105t-91 -62z" />
    <glyph glyph-name="caron.case" horiz-adv-x="367" 
d="M14 698h125l43 -87l42 87h126l-89 -178h-158z" />
    <glyph glyph-name="caroncomb.alt" 
d="M-161 527q31 11 40.5 26t10.5 29q-32 3 -46.5 23.5t-14.5 46.5q0 31 21 52.5t56 21.5q36 0 58.5 -23.5t22.5 -65.5q0 -60 -32 -105t-91 -62z" />
    <glyph glyph-name="ccaron.sc" horiz-adv-x="529" 
d="M118 752h125l42 -96l42 96h126l-90 -194h-156zM285 -13q-115 0 -183.5 65.5t-68.5 192.5q0 61 18 110t51 83.5t80.5 53t106.5 18.5q39 0 76.5 -9t67 -28.5t47.5 -51.5t18 -78q0 -9 -1 -20.5t-5 -24.5h-139q1 5 1.5 10t0.5 11q0 27 -16 42.5t-52 15.5q-45 0 -71.5 -31.5
t-26.5 -97.5q0 -64 28.5 -98t80.5 -34q40 0 64.5 13.5t42.5 39.5l99 -71q-28 -49 -79 -80t-140 -31z" />
    <glyph glyph-name="ccedilla.sc" horiz-adv-x="529" 
d="M504 98q-23 -42 -62.5 -71t-105.5 -37l-10 -28q35 -5 58 -24t23 -59q0 -47 -35 -73.5t-98 -26.5q-29 0 -58 8.5t-46 25.5l42 64q11 -10 24.5 -16t29.5 -6q36 0 36 26q0 17 -19 26t-53 11l26 70q-103 8 -163 73t-60 184q0 61 18 110t51 83.5t80.5 53t106.5 18.5
q39 0 76.5 -9t67 -28.5t47.5 -51.5t18 -78q0 -9 -1 -20.5t-5 -24.5h-139q1 5 1.5 10t0.5 11q0 27 -16 42.5t-52 15.5q-45 0 -71.5 -31.5t-26.5 -97.5q0 -64 28.5 -98t80.5 -34q40 0 64.5 13.5t42.5 39.5z" />
    <glyph glyph-name="ccircumflex.sc" horiz-adv-x="529" 
d="M207 752h156l89 -194h-125l-42 96l-42 -96h-126zM285 -13q-115 0 -183.5 65.5t-68.5 192.5q0 61 18 110t51 83.5t80.5 53t106.5 18.5q39 0 76.5 -9t67 -28.5t47.5 -51.5t18 -78q0 -9 -1 -20.5t-5 -24.5h-139q1 5 1.5 10t0.5 11q0 27 -16 42.5t-52 15.5q-45 0 -71.5 -31.5
t-26.5 -97.5q0 -64 28.5 -98t80.5 -34q40 0 64.5 13.5t42.5 39.5l99 -71q-28 -49 -79 -80t-140 -31z" />
    <glyph glyph-name="cdotaccent.sc" horiz-adv-x="529" 
d="M285 567q-36 0 -62.5 25.5t-26.5 62.5t26.5 63.5t62.5 26.5q37 0 63 -26.5t26 -63.5t-26 -62.5t-63 -25.5zM285 -13q-115 0 -183.5 65.5t-68.5 192.5q0 61 18 110t51 83.5t80.5 53t106.5 18.5q39 0 76.5 -9t67 -28.5t47.5 -51.5t18 -78q0 -9 -1 -20.5t-5 -24.5h-139
q1 5 1.5 10t0.5 11q0 27 -16 42.5t-52 15.5q-45 0 -71.5 -31.5t-26.5 -97.5q0 -64 28.5 -98t80.5 -34q40 0 64.5 13.5t42.5 39.5l99 -71q-28 -49 -79 -80t-140 -31z" />
    <glyph glyph-name="cent.osf" horiz-adv-x="503" 
d="M323 140q28 6 49 28l105 -70q-19 -36 -56 -60.5t-85 -34.5v-74h-130v78q-78 21 -124.5 83t-46.5 156q0 97 46 159t127 82v70h128v-66q96 -17 142 -95l-112 -74q-20 23 -43 31v-213zM240 346q-25 -14 -36 -41t-11 -62q0 -34 11.5 -58.5t35.5 -36.5v198z" />
    <glyph glyph-name="cent.sc" horiz-adv-x="497" 
d="M320 140q28 6 49 28l105 -70q-19 -36 -56 -60.5t-85 -34.5v-74h-130v78q-78 21 -124.5 83t-46.5 156q0 97 46 159t127 82v70h128v-66q96 -17 142 -95l-112 -74q-20 23 -43 31v-213zM237 346q-25 -14 -36 -41t-11 -62q0 -34 11.5 -58.5t35.5 -36.5v198z" />
    <glyph glyph-name="circumflex.case" horiz-adv-x="392" 
d="M115 690h158l89 -177h-126l-43 86l-42 -86h-126z" />
    <glyph glyph-name="currency.osf" horiz-adv-x="564" 
d="M28 71l80 80q-25 44 -25 96q0 53 25 97l-76 77l72 74l76 -77q47 31 104 31q55 0 102 -30l76 76l74 -74l-76 -76q12 -22 19 -46.5t7 -51.5q0 -54 -26 -98l72 -72l-73 -73l-73 72q-46 -30 -102 -30q-57 0 -104 30l-78 -79zM284 158q38 0 64 26t26 63q0 38 -26 64t-64 26
q-37 0 -63 -26t-26 -64q0 -37 25.5 -63t63.5 -26z" />
    <glyph glyph-name="currency.sc" horiz-adv-x="563" 
d="M28 71l80 80q-25 44 -25 96q0 53 25 97l-76 77l72 74l76 -77q47 31 104 31q55 0 102 -30l76 76l74 -74l-76 -76q12 -22 19 -46.5t7 -51.5q0 -54 -26 -98l72 -72l-73 -73l-73 72q-46 -30 -102 -30q-57 0 -104 30l-78 -79zM284 158q38 0 64 26t26 63q0 38 -26 64t-64 26
q-37 0 -63 -26t-26 -64q0 -37 25.5 -63t63.5 -26z" />
    <glyph glyph-name="d.sc" horiz-adv-x="572" 
d="M63 497h178q62 0 116 -12.5t94.5 -42t64 -77t23.5 -117.5q0 -71 -24 -119t-64 -76.5t-91.5 -40.5t-106.5 -12h-190v497zM257 117q65 0 96.5 35.5t31.5 93.5q0 27 -7 51.5t-22 42.5t-39.5 29t-60.5 11h-45v-263h46z" />
    <glyph glyph-name="dcaron.sc" horiz-adv-x="572" 
d="M116 699h126l43 -72l42 72h126l-90 -161h-158zM63 497h178q62 0 116 -12.5t94.5 -42t64 -77t23.5 -117.5q0 -71 -24 -119t-64 -76.5t-91.5 -40.5t-106.5 -12h-190v497zM257 117q65 0 96.5 35.5t31.5 93.5q0 27 -7 51.5t-22 42.5t-39.5 29t-60.5 11h-45v-263h46z" />
    <glyph glyph-name="dcroat.sc" horiz-adv-x="598" 
d="M267 497q62 0 116.5 -12.5t95 -42t64 -77t23.5 -117.5q0 -71 -24.5 -119t-64.5 -76.5t-91.5 -40.5t-106.5 -12h-190v197h-72v105h72v195h178zM283 117q65 0 96.5 35.5t31.5 93.5q0 27 -7 51.5t-22 42.5t-39.5 29t-60.5 11h-45v-78h80v-105h-80v-80h46z" />
    <glyph glyph-name="dieresis.case" horiz-adv-x="400" 
d="M95 533q-30 0 -51.5 21t-21.5 51t21.5 52t51.5 22t51.5 -22t21.5 -52t-21.5 -51t-51.5 -21zM307 533q-31 0 -52.5 21t-21.5 51t21.5 52t52.5 22q30 0 51 -22t21 -52t-21 -51t-51 -21z" />
    <glyph glyph-name="dollar.osf" horiz-adv-x="505" 
d="M207 1q-61 5 -110 26.5t-73 50.5l74 94q33 -32 73 -45t91 -13q35 0 55 8.5t20 26.5q0 20 -23.5 28.5t-77.5 17.5q-32 5 -66 13t-62.5 23.5t-46.5 41t-18 66.5q0 66 44 101t120 43v79h94v-80q33 -3 64.5 -13t54.5 -28.5t33.5 -46.5t1.5 -68h-121q6 27 -14.5 39t-66.5 12
q-74 0 -74 -36q0 -20 22 -28t80 -17q35 -6 69.5 -14t62 -23t44.5 -41t17 -68q0 -65 -46.5 -102.5t-126.5 -43.5v-84h-94v81z" />
    <glyph glyph-name="dollar.sc" horiz-adv-x="507" 
d="M301 293q33 -6 64 -14.5t55.5 -24t39 -40.5t14.5 -64q0 -66 -46 -103t-127 -43v-84h-93v81q-61 6 -110 27t-73 50l73 94q46 -43 110 -54v82q-30 6 -59.5 14.5t-53 24t-38 40t-14.5 60.5q0 66 44.5 101t120.5 43v79h93v-80q33 -3 65 -13t55 -28.5t33.5 -46.5t1.5 -68h-122
q9 37 -33 47v-80zM180 342q0 -21 28 -31v61q-28 -7 -28 -30zM301 117q37 8 37 32q0 22 -37 33v-65z" />
    <glyph glyph-name="dotaccent.case" horiz-adv-x="205" 
d="M103 552q-30 0 -51.5 21t-21.5 51t21.5 52t51.5 22t51.5 -22t21.5 -52t-21.5 -51t-51.5 -21z" />
    <glyph glyph-name="dotlessi.sc" horiz-adv-x="275" 
d="M63 497h149v-497h-149v497z" />
    <glyph glyph-name="dotlessi.ss01" horiz-adv-x="279" 
d="M188 -4q-70 0 -101 33.5t-31 102.5v350h146v-316q0 -31 9 -42t38 -11v-110q-2 0 -19.5 -3.5t-41.5 -3.5z" />
    <glyph glyph-name="e.sc" horiz-adv-x="473" 
d="M63 497h369v-113h-222v-79h194v-108h-194v-83h223v-114h-370v497z" />
    <glyph glyph-name="e.ss01" horiz-adv-x="503" 
d="M474 92q-25 -46 -79 -75.5t-127 -29.5q-55 0 -99 17.5t-75 50t-47.5 79t-16.5 104.5q0 121 62.5 189.5t173.5 68.5q99 0 152 -60t53 -171v-26t-2 -22h-292q9 -111 105 -111q44 0 67 15.5t40 39.5zM261 381q-36 0 -55 -21t-26 -63h151q0 38 -17.5 61t-52.5 23z" />
    <glyph glyph-name="eacute.sc" horiz-adv-x="473" 
d="M259 756h171l-130 -200h-123zM63 497h369v-113h-222v-79h194v-108h-194v-83h223v-114h-370v497z" />
    <glyph glyph-name="eacute.ss01" horiz-adv-x="503" 
d="M305 541h-123l82 200h171zM474 92q-25 -46 -79 -75.5t-127 -29.5q-55 0 -99 17.5t-75 50t-47.5 79t-16.5 104.5q0 121 62.5 189.5t173.5 68.5q99 0 152 -60t53 -171v-26t-2 -22h-292q9 -111 105 -111q44 0 67 15.5t40 39.5zM261 381q-36 0 -55 -21t-26 -63h151
q0 38 -17.5 61t-52.5 23z" />
    <glyph glyph-name="ebreve.sc" horiz-adv-x="473" 
d="M256 572q-46 0 -76.5 14.5t-48 37.5t-24.5 53t-7 61h107q0 -60 49 -60q48 0 48 60h106q0 -31 -7 -61t-24.5 -53t-47.5 -37.5t-75 -14.5zM63 497h369v-113h-222v-79h194v-108h-194v-83h223v-114h-370v497z" />
    <glyph glyph-name="ebreve.ss01" horiz-adv-x="503" 
d="M261 557q-46 0 -76.5 14.5t-48 37.5t-24.5 53t-7 61h107q0 -60 49 -60q48 0 48 60h107q0 -31 -7 -61t-25 -53t-48 -37.5t-75 -14.5zM474 92q-25 -46 -79 -75.5t-127 -29.5q-55 0 -99 17.5t-75 50t-47.5 79t-16.5 104.5q0 121 62.5 189.5t173.5 68.5q99 0 152 -60t53 -171
v-26t-2 -22h-292q9 -111 105 -111q44 0 67 15.5t40 39.5zM261 381q-36 0 -55 -21t-26 -63h151q0 38 -17.5 61t-52.5 23z" />
    <glyph glyph-name="ecaron.sc" horiz-adv-x="473" 
d="M88 752h125l42 -96l42 96h126l-90 -194h-156zM63 497h369v-113h-222v-79h194v-108h-194v-83h223v-114h-370v497z" />
    <glyph glyph-name="ecaron.ss01" horiz-adv-x="503" 
d="M182 543l-89 194h125l42 -96l42 96h126l-90 -194h-156zM474 92q-25 -46 -79 -75.5t-127 -29.5q-55 0 -99 17.5t-75 50t-47.5 79t-16.5 104.5q0 121 62.5 189.5t173.5 68.5q99 0 152 -60t53 -171v-26t-2 -22h-292q9 -111 105 -111q44 0 67 15.5t40 39.5zM261 381
q-36 0 -55 -21t-26 -63h151q0 38 -17.5 61t-52.5 23z" />
    <glyph glyph-name="ecircumflex.sc" horiz-adv-x="473" 
d="M177 752h156l89 -194h-125l-42 96l-42 -96h-126zM63 497h369v-113h-222v-79h194v-108h-194v-83h223v-114h-370v497z" />
    <glyph glyph-name="ecircumflex.ss01" horiz-adv-x="503" 
d="M218 543h-126l90 194h156l89 -194h-125l-42 96zM474 92q-25 -46 -79 -75.5t-127 -29.5q-55 0 -99 17.5t-75 50t-47.5 79t-16.5 104.5q0 121 62.5 189.5t173.5 68.5q99 0 152 -60t53 -171v-26t-2 -22h-292q9 -111 105 -111q44 0 67 15.5t40 39.5zM261 381q-36 0 -55 -21
t-26 -63h151q0 38 -17.5 61t-52.5 23z" />
    <glyph glyph-name="edieresis.sc" horiz-adv-x="473" 
d="M143 567q-35 0 -60.5 25.5t-25.5 60.5t25.5 60.5t60.5 25.5t60 -25.5t25 -60.5t-25 -60.5t-60 -25.5zM369 567q-36 0 -61 25.5t-25 60.5t25 60.5t61 25.5q35 0 59.5 -25.5t24.5 -60.5t-24.5 -60.5t-59.5 -25.5zM63 497h369v-113h-222v-79h194v-108h-194v-83h223v-114
h-370v497z" />
    <glyph glyph-name="edieresis.ss01" horiz-adv-x="503" 
d="M148 552q-35 0 -60.5 25.5t-25.5 60.5t25.5 60.5t60.5 25.5t60 -25.5t25 -60.5t-25 -60.5t-60 -25.5zM374 552q-36 0 -61 25.5t-25 60.5t25 60.5t61 25.5q35 0 59.5 -25.5t24.5 -60.5t-24.5 -60.5t-59.5 -25.5zM474 92q-25 -46 -79 -75.5t-127 -29.5q-55 0 -99 17.5
t-75 50t-47.5 79t-16.5 104.5q0 121 62.5 189.5t173.5 68.5q99 0 152 -60t53 -171v-26t-2 -22h-292q9 -111 105 -111q44 0 67 15.5t40 39.5zM261 381q-36 0 -55 -21t-26 -63h151q0 38 -17.5 61t-52.5 23z" />
    <glyph glyph-name="edotaccent.sc" horiz-adv-x="473" 
d="M255 567q-36 0 -62.5 25.5t-26.5 62.5t26.5 63.5t62.5 26.5q37 0 63 -26.5t26 -63.5t-26 -62.5t-63 -25.5zM63 497h369v-113h-222v-79h194v-108h-194v-83h223v-114h-370v497z" />
    <glyph glyph-name="edotaccent.ss01" horiz-adv-x="503" 
d="M260 552q-36 0 -62.5 25.5t-26.5 62.5t26.5 63.5t62.5 26.5q37 0 63 -26.5t26 -63.5t-26 -62.5t-63 -25.5zM474 92q-25 -46 -79 -75.5t-127 -29.5q-55 0 -99 17.5t-75 50t-47.5 79t-16.5 104.5q0 121 62.5 189.5t173.5 68.5q99 0 152 -60t53 -171v-26t-2 -22h-292
q9 -111 105 -111q44 0 67 15.5t40 39.5zM261 381q-36 0 -55 -21t-26 -63h151q0 38 -17.5 61t-52.5 23z" />
    <glyph glyph-name="egrave.sc" horiz-adv-x="473" 
d="M65 756h171l81 -200h-122zM63 497h369v-113h-222v-79h194v-108h-194v-83h223v-114h-370v497z" />
    <glyph glyph-name="egrave.ss01" horiz-adv-x="503" 
d="M200 541l-130 200h171l81 -200h-122zM474 92q-25 -46 -79 -75.5t-127 -29.5q-55 0 -99 17.5t-75 50t-47.5 79t-16.5 104.5q0 121 62.5 189.5t173.5 68.5q99 0 152 -60t53 -171v-26t-2 -22h-292q9 -111 105 -111q44 0 67 15.5t40 39.5zM261 381q-36 0 -55 -21t-26 -63h151
q0 38 -17.5 61t-52.5 23z" />
    <glyph glyph-name="eight.dnom" horiz-adv-x="383" 
d="M190 -6q-76 0 -118.5 25t-42.5 79q0 29 16.5 55t45.5 39q-19 13 -32 33.5t-13 52.5q0 48 37.5 81t112.5 33q66 0 105 -28.5t39 -76.5q0 -30 -15 -50t-34 -31q32 -14 47 -39t15 -59q0 -54 -44 -84t-119 -30zM220 228q8 6 16.5 16.5t8.5 30.5t-13.5 33t-39.5 13
q-24 0 -37.5 -11t-13.5 -30q0 -11 7 -23.5t29 -17.5zM191 64q30 0 48.5 10.5t18.5 31.5q0 32 -44 42l-62 16q-8 -6 -17.5 -19t-9.5 -30q0 -26 17 -38.5t49 -12.5z" />
    <glyph glyph-name="eight.numr" horiz-adv-x="383" 
d="M190 314q-76 0 -118.5 25.5t-42.5 78.5q0 29 16.5 55t45.5 39q-19 13 -32 33.5t-13 52.5q0 48 37.5 81t112.5 33q66 0 105 -28.5t39 -76.5q0 -30 -15 -49.5t-34 -30.5q32 -14 47 -39.5t15 -59.5q0 -54 -44 -84t-119 -30zM220 548q8 6 16.5 17t8.5 31t-13.5 32.5
t-39.5 12.5q-24 0 -37.5 -11t-13.5 -30q0 -11 7 -23t29 -18zM191 385q30 0 48.5 10t18.5 31q0 17 -10.5 27t-33.5 16l-62 15q-8 -5 -17.5 -18t-9.5 -31q0 -26 17 -38t49 -12z" />
    <glyph glyph-name="eight.osf" horiz-adv-x="569" 
d="M435 371q98 -54 98 -172q0 -47 -17.5 -85t-50 -64.5t-78.5 -41t-103 -14.5q-116 0 -182.5 49t-66.5 143q0 56 25 100t68 70q-32 26 -54 63.5t-22 86.5q0 46 17 83t47.5 63t74 40t95.5 14q53 0 96 -12.5t73.5 -36.5t47 -58.5t16.5 -77.5q0 -49 -21 -87.5t-63 -62.5z
M284 588q-39 0 -63 -19.5t-24 -57.5q0 -34 22 -53.5t51 -28.5l59 -19q24 17 34.5 41.5t10.5 50.5q0 45 -24.5 65.5t-65.5 20.5zM286 111q48 0 74.5 22t26.5 61q0 33 -16 53t-52 31l-92 27q-22 -19 -34.5 -44.5t-12.5 -54.5q0 -44 27.5 -69.5t78.5 -25.5z" />
    <glyph glyph-name="eight.sc" horiz-adv-x="510" 
d="M391 267q42 -18 64 -47.5t22 -73.5q0 -78 -60.5 -118.5t-169.5 -40.5q-101 0 -158 36.5t-57 108.5q0 42 22 72t58 47q-26 18 -42 44t-16 62q0 73 55.5 113t149.5 40t146 -37t52 -99q0 -29 -15 -57.5t-51 -49.5zM256 405q-64 0 -64 -49q0 -21 16 -31.5t38 -15.5l37 -10
q21 12 30 26t9 29q0 24 -17 37.5t-49 13.5zM254 87q40 0 62.5 14t22.5 40q0 22 -13 33.5t-42 18.5l-74 18q-41 -24 -41 -62q0 -33 23 -47.5t62 -14.5z" />
    <glyph glyph-name="eight.sinf" horiz-adv-x="383" 
d="M190 -141q-76 0 -118.5 25.5t-42.5 78.5q0 29 16.5 55t45.5 39q-19 13 -32 33.5t-13 52.5q0 48 37.5 81t112.5 33q66 0 105 -28.5t39 -76.5q0 -30 -15 -49.5t-34 -30.5q32 -14 47 -39.5t15 -59.5q0 -54 -44 -84t-119 -30zM220 93q8 6 16.5 17t8.5 31t-13.5 32.5
t-39.5 12.5q-24 0 -37.5 -11t-13.5 -30q0 -11 7 -23t29 -18zM191 -70q30 0 48.5 10t18.5 31q0 17 -10.5 27t-33.5 16l-62 15q-8 -5 -17.5 -18t-9.5 -31q0 -26 17 -38t49 -12z" />
    <glyph glyph-name="eight.sups" horiz-adv-x="383" 
d="M190 379q-76 0 -118.5 25.5t-42.5 78.5q0 29 16.5 55t45.5 39q-19 13 -32 33.5t-13 52.5q0 48 37.5 81t112.5 33q66 0 105 -28.5t39 -76.5q0 -30 -15 -49.5t-34 -30.5q32 -14 47 -39.5t15 -59.5q0 -54 -44 -84t-119 -30zM220 613q8 6 16.5 17t8.5 31t-13.5 32.5
t-39.5 12.5q-24 0 -37.5 -11t-13.5 -30q0 -11 7 -23t29 -18zM191 450q30 0 48.5 10t18.5 31q0 17 -10.5 27t-33.5 16l-62 15q-8 -5 -17.5 -18t-9.5 -31q0 -26 17 -38t49 -12z" />
    <glyph glyph-name="emacron.sc" horiz-adv-x="473" 
d="M105 708h300v-109h-300v109zM63 497h369v-113h-222v-79h194v-108h-194v-83h223v-114h-370v497z" />
    <glyph glyph-name="emacron.ss01" horiz-adv-x="503" 
d="M410 584h-300v109h300v-109zM474 92q-25 -46 -79 -75.5t-127 -29.5q-55 0 -99 17.5t-75 50t-47.5 79t-16.5 104.5q0 121 62.5 189.5t173.5 68.5q99 0 152 -60t53 -171v-26t-2 -22h-292q9 -111 105 -111q44 0 67 15.5t40 39.5zM261 381q-36 0 -55 -21t-26 -63h151
q0 38 -17.5 61t-52.5 23z" />
    <glyph glyph-name="eng.sc" horiz-adv-x="586" 
d="M523 497v-509q0 -110 -58.5 -168t-158.5 -58q-44 0 -82 12.5t-60 37.5l85 114q21 -21 57 -21q32 0 55 19t23 67v18l-171 243l-12 21v-273h-138v497h133l173 -247l17 -31v278h137z" />
    <glyph glyph-name="eng.ss01" horiz-adv-x="561" 
d="M340 496q81 0 125 -50t44 -142v-316q0 -110 -58.5 -168t-158.5 -58q-44 0 -82 12.5t-60 37.5l85 114q21 -21 58 -21q29 0 49 19t20 67v297q0 36 -18.5 56.5t-50.5 20.5q-34 0 -54.5 -22t-20.5 -60v-283h-146v330q0 41 -40 41v110q10 4 28 6t39 2q45 0 70 -20t30 -49v-1
q15 29 49.5 53t91.5 24z" />
    <glyph glyph-name="eogonek.sc" horiz-adv-x="473" 
d="M460 -176q-30 -27 -89 -27q-56 0 -85 25t-29 72q0 29 14 56t39 50h-247v497h369v-113h-222v-79h194v-108h-194v-83h223v-114q-32 -14 -48.5 -36t-16.5 -45q0 -20 8.5 -28.5t22.5 -8.5q10 0 16.5 3t11.5 7z" />
    <glyph glyph-name="eogonek.ss01" horiz-adv-x="504" 
d="M355 0q-29 -14 -43.5 -35t-14.5 -43q0 -20 8.5 -28.5t22.5 -8.5q17 0 28 9l33 -68q-14 -12 -37 -19t-52 -7q-56 0 -85 25t-29 71q0 25 10.5 49t30.5 45q-93 13 -144.5 77.5t-51.5 170.5q0 121 62.5 189.5t173.5 68.5q99 0 152 -60t53 -171v-26t-2 -22h-292
q9 -111 105 -111q44 0 67 15.5t40 39.5l85 -69q-17 -31 -47.5 -55t-72.5 -37zM262 381q-37 0 -56 -21t-25 -63h151q0 38 -17.5 61t-52.5 23z" />
    <glyph glyph-name="eth.sc" horiz-adv-x="598" 
d="M267 497q62 0 116.5 -12.5t95 -42t64 -77t23.5 -117.5q0 -71 -24.5 -119t-64.5 -76.5t-91.5 -40.5t-106.5 -12h-190v197h-72v105h72v195h178zM283 117q65 0 96.5 35.5t31.5 93.5q0 27 -7 51.5t-22 42.5t-39.5 29t-60.5 11h-45v-78h80v-105h-80v-80h46z" />
    <glyph glyph-name="exclam.sc" horiz-adv-x="256" 
d="M54 497h151l-20 -333h-115zM126 -19q-31 0 -53 21.5t-22 50.5q0 31 22 52.5t53 21.5q30 0 51.5 -21.5t21.5 -52.5q0 -29 -21.5 -50.5t-51.5 -21.5z" />
    <glyph glyph-name="exclamdown.sc" horiz-adv-x="256" 
d="M130 508q31 0 52.5 -21t21.5 -51t-21.5 -51.5t-52.5 -21.5q-30 0 -51.5 21.5t-21.5 51.5t21.5 51t51.5 21zM202 -8h-151l19 333h116z" />
    <glyph glyph-name="f.sc" horiz-adv-x="457" 
d="M63 497h365v-117h-218v-105h182v-112h-182v-163h-147v497z" />
    <glyph glyph-name="fi.sc" horiz-adv-x="710" 
d="M63 497h365v-117h-218v-105h182v-112h-182v-163h-147v497zM499 497h147v-497h-147v497z" />
    <glyph glyph-name="five.dnom" horiz-adv-x="364" 
d="M178 -7q-48 0 -84.5 12t-61.5 41l57 70q20 -20 40.5 -30t51.5 -10t46 14t15 37q0 21 -13 34t-39 13q-22 0 -39 -8t-26 -17h-83v232h272v-80h-190v-79q15 12 37 19.5t54 7.5q59 0 91 -29.5t32 -90.5q0 -63 -42 -99.5t-118 -36.5z" />
    <glyph glyph-name="five.numr" horiz-adv-x="364" 
d="M177 315q-48 0 -84 12t-62 41l57 70q20 -20 41 -30t52 -10q30 0 45 14t15 37q0 21 -13 34t-39 13q-21 0 -38.5 -8t-26.5 -17h-83v232h272v-80h-190v-79q15 12 37.5 19.5t54.5 7.5q58 0 90.5 -29.5t32.5 -90.5q0 -63 -42.5 -99.5t-118.5 -36.5z" />
    <glyph glyph-name="five.osf" horiz-adv-x="552" 
d="M277 -201q-97 0 -157 39t-89 102l123 74q26 -46 57.5 -65t69.5 -19q44 0 70.5 24.5t26.5 78.5t-26 78t-64 24q-36 0 -59.5 -15.5t-38.5 -32.5h-142v410h443v-133h-310v-156q23 26 61.5 42t84.5 16q97 0 149 -59t52 -170q0 -56 -18.5 -100t-51.5 -75t-79 -47t-102 -16z
" />
    <glyph glyph-name="five.sc" horiz-adv-x="513" 
d="M258 -11q-87 0 -144 21t-86 55l71 102q41 -32 76 -44t79 -12t63 14t19 42q0 23 -15.5 37.5t-48.5 14.5q-26 0 -46.5 -5.5t-37.5 -13.5h-132v297h394v-117h-271v-88q26 17 58 26t80 9q76 0 120.5 -39.5t44.5 -117.5q0 -83 -58.5 -132t-165.5 -49z" />
    <glyph glyph-name="five.sinf" horiz-adv-x="364" 
d="M177 -140q-48 0 -84 12t-62 41l57 70q20 -20 41 -30t52 -10q30 0 45 14t15 37q0 21 -13 34t-39 13q-21 0 -38.5 -8t-26.5 -17h-83v232h272v-80h-190v-79q15 12 37.5 19.5t54.5 7.5q58 0 90.5 -29.5t32.5 -90.5q0 -63 -42.5 -99.5t-118.5 -36.5z" />
    <glyph glyph-name="five.sups" horiz-adv-x="364" 
d="M177 380q-48 0 -84 12t-62 41l57 70q20 -20 41 -30t52 -10q30 0 45 14t15 37q0 21 -13 34t-39 13q-21 0 -38.5 -8t-26.5 -17h-83v232h272v-80h-190v-79q15 12 37.5 19.5t54.5 7.5q58 0 90.5 -29.5t32.5 -90.5q0 -63 -42.5 -99.5t-118.5 -36.5z" />
    <glyph glyph-name="fiveeighths.alt" horiz-adv-x="642" 
d="M146 332q-38 0 -65 12.5t-41 26.5l38 54q14 -8 29 -16t39 -8q38 0 38 29q0 11 -8 18.5t-23 7.5q-14 0 -24.5 -5t-15.5 -10h-67v167h206v-64h-134v-44q7 5 22 9t36 4q46 0 68 -22t22 -63t-28.5 -68.5t-91.5 -27.5zM457 599h100l-371 -501h-101zM490 75q-59 0 -91 18.5
t-32 56.5q0 18 11.5 37t37.5 27q-15 9 -25 23.5t-10 37.5q0 35 29 56.5t79 21.5q51 0 80 -19t29 -52q0 -23 -11 -37t-25 -20q25 -8 36.5 -26t11.5 -42q0 -38 -32 -60t-88 -22zM505 245q16 8 16 27q0 14 -9.5 20t-22.5 6t-21.5 -6t-8.5 -19q0 -19 20 -23zM490 130q43 0 43 27
q0 21 -26 26l-35 7q-11 -4 -18.5 -12.5t-7.5 -19.5q0 -28 44 -28z" />
    <glyph glyph-name="fl.sc" horiz-adv-x="875" 
d="M63 497h365v-117h-218v-105h182v-112h-182v-163h-147v497zM499 497h147v-365h210v-132h-357v497z" />
    <glyph glyph-name="four.dnom" horiz-adv-x="378" 
d="M206 76h-185v69l115 237h107l-109 -220h81v77h93v-77h50v-86h-50v-76h-102v76z" />
    <glyph glyph-name="four.numr" horiz-adv-x="378" 
d="M206 394h-185v69l115 237h107l-109 -220h81v77h93v-77h50v-86h-50v-76h-102v76z" />
    <glyph glyph-name="four.osf" horiz-adv-x="600" 
d="M581 118v-119h-99v-173h-147v173h-316v115l281 385h182v-381h99zM336 118v233l-166 -233h166z" />
    <glyph glyph-name="four.sc" horiz-adv-x="503" 
d="M263 86h-241v111l191 300h149l-190 -300h101v94h130v-94h78v-111h-78v-86h-140v86z" />
    <glyph glyph-name="four.sinf" horiz-adv-x="378" 
d="M206 -61h-185v69l115 237h107l-109 -220h81v77h93v-77h50v-86h-50v-76h-102v76z" />
    <glyph glyph-name="four.sups" horiz-adv-x="378" 
d="M206 459h-185v69l115 237h107l-109 -220h81v77h93v-77h50v-86h-50v-76h-102v76z" />
    <glyph glyph-name="g.sc" horiz-adv-x="563" 
d="M295 -13q-131 0 -197 67.5t-66 192.5q0 58 18 106t52.5 83t85 54.5t114.5 19.5q47 0 86.5 -10.5t67.5 -31t43.5 -50.5t15.5 -70q0 -7 -1 -15.5t-3 -18.5h-140q1 5 1 7.5v7.5q0 24 -18 39.5t-56 15.5q-56 0 -86 -35.5t-30 -101.5q0 -139 123 -139q31 0 51.5 4t37.5 12v49
h-90v92h218v-215q-25 -21 -81 -42t-146 -21z" />
    <glyph glyph-name="g.ss01" horiz-adv-x="522" 
d="M250 -240q-122 0 -176 32t-54 93q0 41 20.5 67t46.5 38q-26 16 -41 38.5t-15 54.5q0 42 20.5 65t47.5 34q-18 19 -31.5 51t-13.5 74q0 45 16.5 79.5t45.5 58.5t68 36.5t83 12.5q17 0 30 -1.5t28 -4.5q6 0 19.5 3.5t27.5 14.5t24.5 31t10.5 52l121 -24q0 -29 -9 -50.5
t-24.5 -36.5t-35.5 -22.5t-42 -9.5q28 -21 45.5 -56t17.5 -83q0 -45 -17 -80t-46 -59t-67 -36t-81 -12q-23 0 -42.5 3t-34.5 7q-17 -1 -27.5 -8t-10.5 -23q0 -17 13 -23t34 -6h147q77 0 126 -35.5t49 -108.5q0 -32 -12 -62t-43 -53t-84 -37t-134 -14zM267 229q37 0 58 21.5
t21 56.5t-21 56t-57 21t-57 -21t-21 -56t20 -56.5t57 -21.5zM258 -141q71 0 103 13t32 40q0 24 -16 35t-52 11l-109 -1q-66 0 -66 -49q0 -26 22.5 -37.5t85.5 -11.5z" />
    <glyph glyph-name="gbreve.sc" horiz-adv-x="563" 
d="M291 572q-46 0 -76 14.5t-48 37.5t-25 53t-7 61h107q0 -60 49 -60q26 0 37 14.5t11 45.5h107q0 -31 -7 -61t-25 -53t-48 -37.5t-75 -14.5zM295 -13q-131 0 -197 67.5t-66 192.5q0 58 18 106t52.5 83t85 54.5t114.5 19.5q47 0 86.5 -10.5t67.5 -31t43.5 -50.5t15.5 -70
q0 -7 -1 -15.5t-3 -18.5h-140q1 5 1 7.5v7.5q0 24 -18 39.5t-56 15.5q-56 0 -86 -35.5t-30 -101.5q0 -139 123 -139q31 0 51.5 4t37.5 12v49h-90v92h218v-215q-25 -21 -81 -42t-146 -21z" />
    <glyph glyph-name="gbreve.ss01" horiz-adv-x="522" 
d="M254 557q-46 0 -76.5 14.5t-48 37.5t-24.5 53t-7 61h107q0 -60 49 -60q48 0 48 60h107q0 -31 -7 -61t-25 -53t-48 -37.5t-75 -14.5zM250 -240q-122 0 -176 32t-54 93q0 41 20.5 67t46.5 38q-26 16 -41 38.5t-15 54.5q0 42 20.5 65t47.5 34q-18 19 -31.5 51t-13.5 74
q0 45 16.5 79.5t45.5 58.5t68 36.5t83 12.5q17 0 30 -1.5t28 -4.5q6 0 19.5 3.5t27.5 14.5t24.5 31t10.5 52l121 -24q0 -29 -9 -50.5t-24.5 -36.5t-35.5 -22.5t-42 -9.5q28 -21 45.5 -56t17.5 -83q0 -45 -17 -80t-46 -59t-67 -36t-81 -12q-23 0 -42.5 3t-34.5 7
q-17 -1 -27.5 -8t-10.5 -23q0 -17 13 -23t34 -6h147q77 0 126 -35.5t49 -108.5q0 -32 -12 -62t-43 -53t-84 -37t-134 -14zM267 229q37 0 58 21.5t21 56.5t-21 56t-57 21t-57 -21t-21 -56t20 -56.5t57 -21.5zM258 -141q71 0 103 13t32 40q0 24 -16 35t-52 11l-109 -1
q-66 0 -66 -49q0 -26 22.5 -37.5t85.5 -11.5z" />
    <glyph glyph-name="gcaron.sc" horiz-adv-x="563" 
d="M123 752h125l42 -96l42 96h126l-90 -194h-156zM295 -13q-131 0 -197 67.5t-66 192.5q0 58 18 106t52.5 83t85 54.5t114.5 19.5q47 0 86.5 -10.5t67.5 -31t43.5 -50.5t15.5 -70q0 -7 -1 -15.5t-3 -18.5h-140q1 5 1 7.5v7.5q0 24 -18 39.5t-56 15.5q-56 0 -86 -35.5
t-30 -101.5q0 -139 123 -139q31 0 51.5 4t37.5 12v49h-90v92h218v-215q-25 -21 -81 -42t-146 -21z" />
    <glyph glyph-name="gcaron.ss01" horiz-adv-x="522" 
d="M86 737h125l42 -96l42 96h126l-90 -194h-156zM250 -240q-122 0 -176 32t-54 93q0 41 20.5 67t46.5 38q-26 16 -41 38.5t-15 54.5q0 42 20.5 65t47.5 34q-18 19 -31.5 51t-13.5 74q0 45 16.5 79.5t45.5 58.5t68 36.5t83 12.5q17 0 30 -1.5t28 -4.5q6 0 19.5 3.5t27.5 14.5
t24.5 31t10.5 52l121 -24q0 -29 -9 -50.5t-24.5 -36.5t-35.5 -22.5t-42 -9.5q28 -21 45.5 -56t17.5 -83q0 -45 -17 -80t-46 -59t-67 -36t-81 -12q-23 0 -42.5 3t-34.5 7q-17 -1 -27.5 -8t-10.5 -23q0 -17 13 -23t34 -6h147q77 0 126 -35.5t49 -108.5q0 -32 -12 -62t-43 -53
t-84 -37t-134 -14zM267 229q37 0 58 21.5t21 56.5t-21 56t-57 21t-57 -21t-21 -56t20 -56.5t57 -21.5zM258 -141q71 0 103 13t32 40q0 24 -16 35t-52 11l-109 -1q-66 0 -66 -49q0 -26 22.5 -37.5t85.5 -11.5z" />
    <glyph glyph-name="gcircumflex.sc" horiz-adv-x="563" 
d="M212 752h156l90 -194h-126l-42 96l-42 -96h-126zM295 -13q-131 0 -197 67.5t-66 192.5q0 58 18 106t52.5 83t85 54.5t114.5 19.5q47 0 86.5 -10.5t67.5 -31t43.5 -50.5t15.5 -70q0 -7 -1 -15.5t-3 -18.5h-140q1 5 1 7.5v7.5q0 24 -18 39.5t-56 15.5q-56 0 -86 -35.5
t-30 -101.5q0 -139 123 -139q31 0 51.5 4t37.5 12v49h-90v92h218v-215q-25 -21 -81 -42t-146 -21z" />
    <glyph glyph-name="gcircumflex.ss01" horiz-adv-x="522" 
d="M348 70q77 0 126 -35.5t49 -108.5q0 -32 -12 -62t-43 -53t-84 -37t-134 -14q-122 0 -176 32t-54 93q0 41 20.5 67t46.5 38q-26 16 -41 38.5t-15 54.5q0 42 20.5 65t47.5 34q-18 19 -31.5 51t-13.5 74q0 45 16.5 79.5t45.5 58.5t68 36.5t83 12.5q17 0 30 -1.5t28 -4.5
q5 0 14.5 2t20.5 8t21.5 17t17.5 28h-104l-42 96l-42 -96h-126l90 194h156l75 -164q1 5 1 16l121 -24q0 -29 -9 -50.5t-24.5 -36.5t-35.5 -22.5t-42 -9.5q28 -21 45.5 -56t17.5 -83q0 -45 -17 -80t-46 -59t-67 -36t-81 -12q-23 0 -42.5 3t-34.5 7q-17 -1 -27.5 -8t-10.5 -23
q0 -17 13 -23t34 -6h147zM268 384q-36 0 -57 -21t-21 -56t20 -56.5t57 -21.5t58 21.5t21 56.5t-21 56t-57 21zM258 -141q71 0 103 13t32 40q0 24 -16 35t-52 11l-109 -1q-66 0 -66 -49q0 -26 22.5 -37.5t85.5 -11.5z" />
    <glyph glyph-name="gdotaccent.sc" horiz-adv-x="563" 
d="M290 567q-36 0 -62.5 25.5t-26.5 62.5t26.5 63.5t62.5 26.5q37 0 63 -26.5t26 -63.5t-26 -62.5t-63 -25.5zM295 -13q-131 0 -197 67.5t-66 192.5q0 58 18 106t52.5 83t85 54.5t114.5 19.5q47 0 86.5 -10.5t67.5 -31t43.5 -50.5t15.5 -70q0 -7 -1 -15.5t-3 -18.5h-140
q1 5 1 7.5v7.5q0 24 -18 39.5t-56 15.5q-56 0 -86 -35.5t-30 -101.5q0 -139 123 -139q31 0 51.5 4t37.5 12v49h-90v92h218v-215q-25 -21 -81 -42t-146 -21z" />
    <glyph glyph-name="gdotaccent.ss01" horiz-adv-x="522" 
d="M253 552q-36 0 -62.5 25.5t-26.5 62.5t26.5 63.5t62.5 26.5q37 0 63 -26.5t26 -63.5t-26 -62.5t-63 -25.5zM250 -240q-122 0 -176 32t-54 93q0 41 20.5 67t46.5 38q-26 16 -41 38.5t-15 54.5q0 42 20.5 65t47.5 34q-18 19 -31.5 51t-13.5 74q0 45 16.5 79.5t45.5 58.5
t68 36.5t83 12.5q17 0 30 -1.5t28 -4.5q6 0 19.5 3.5t27.5 14.5t24.5 31t10.5 52l121 -24q0 -29 -9 -50.5t-24.5 -36.5t-35.5 -22.5t-42 -9.5q28 -21 45.5 -56t17.5 -83q0 -45 -17 -80t-46 -59t-67 -36t-81 -12q-23 0 -42.5 3t-34.5 7q-17 -1 -27.5 -8t-10.5 -23
q0 -17 13 -23t34 -6h147q77 0 126 -35.5t49 -108.5q0 -32 -12 -62t-43 -53t-84 -37t-134 -14zM267 229q37 0 58 21.5t21 56.5t-21 56t-57 21t-57 -21t-21 -56t20 -56.5t57 -21.5zM258 -141q71 0 103 13t32 40q0 24 -16 35t-52 11l-109 -1q-66 0 -66 -49q0 -26 22.5 -37.5
t85.5 -11.5z" />
    <glyph glyph-name="germandbls.sc" horiz-adv-x="590" 
d="M425 281q39 -5 65 -17t41.5 -30t22 -41t6.5 -50q0 -79 -54.5 -117t-144.5 -38q-41 0 -70 5.5t-52 19.5l49 107q17 -9 31.5 -12.5t31.5 -3.5q60 0 60 39q0 17 -12.5 27t-44.5 12q-32 1 -69 -3l-6 101l81 91q-23 5 -51 5q-48 0 -75.5 -24.5t-27.5 -73.5v-278h-149l-1 292
q0 59 19.5 100.5t53.5 67t81 37t102 11.5q56 0 114.5 -14t98.5 -43v-66z" />
    <glyph glyph-name="grave.case" horiz-adv-x="308" 
d="M26 673h175l81 -160h-126z" />
    <glyph glyph-name="gravecomb.case" 
d="M-282 902h178l81 -161h-129z" />
    <glyph glyph-name="h.sc" horiz-adv-x="592" 
d="M63 497h147v-185h172v185h147v-497h-147v187h-172v-187h-147v497z" />
    <glyph glyph-name="h.ss01" horiz-adv-x="545" 
d="M56 726h146v-282q16 20 46 36t74 16q46 0 78.5 -15t53 -41t30 -61t9.5 -75v-304h-146v289q0 35 -18.5 55.5t-49.5 20.5q-21 0 -35.5 -7t-24 -18.5t-13.5 -25t-4 -26.5v-288h-146v726z" />
    <glyph glyph-name="hbar.sc" horiz-adv-x="636" 
d="M613 353h-62v-353h-147v187h-172v-187h-147v353h-61v96h61v48h147v-48h172v48h147v-48h62v-96zM404 353h-172v-41h172v41z" />
    <glyph glyph-name="hbar.ss01" horiz-adv-x="545" 
d="M322 496q46 0 78.5 -15t53 -41t30 -61t9.5 -75v-304h-146v289q0 35 -18.5 55.5t-49.5 20.5q-21 0 -35.5 -7t-24 -18.5t-13.5 -25t-4 -26.5v-288h-146v551h-62v105h62v70h146v-70h115v-105h-115v-107q16 20 46 36t74 16z" />
    <glyph glyph-name="hcircumflex.sc" horiz-adv-x="592" 
d="M217 699h158l90 -161h-127l-42 71l-42 -71h-126zM63 497h147v-185h172v185h147v-497h-147v187h-172v-187h-147v497z" />
    <glyph glyph-name="hcircumflex.ss01" horiz-adv-x="545" 
d="M51 902h158l89 -161h-126l-42 71l-42 -71h-126zM56 726h146v-282q16 20 46 36t74 16q46 0 78.5 -15t53 -41t30 -61t9.5 -75v-304h-146v289q0 35 -18.5 55.5t-49.5 20.5q-21 0 -35.5 -7t-24 -18.5t-13.5 -25t-4 -26.5v-288h-146v726z" />
    <glyph glyph-name="hungarumlaut.case" horiz-adv-x="474" 
d="M105 683h175l-130 -170h-126zM309 683h175l-130 -170h-126z" />
    <glyph glyph-name="i.loclTRK" horiz-adv-x="260" 
d="M130 552q-36 0 -63 25.5t-27 62.5q0 18 7.5 34.5t19.5 29t28.5 19.5t34.5 7q37 0 63 -26.5t26 -63.5t-26 -62.5t-63 -25.5zM57 482h146v-482h-146v482z" />
    <glyph glyph-name="i.loclTRK.ss01" horiz-adv-x="279" 
d="M135 552q-37 0 -63.5 25.5t-26.5 62.5t26.5 63.5t63.5 26.5t62.5 -26.5t25.5 -63.5t-25.5 -62.5t-62.5 -25.5zM188 -4q-70 0 -101 33.5t-31 102.5v350h146v-316q0 -31 9 -42t38 -11v-110q-2 0 -19.5 -3.5t-41.5 -3.5z" />
    <glyph glyph-name="i.sc" horiz-adv-x="274" 
d="M63 497h147v-497h-147v497z" />
    <glyph glyph-name="i.sc.loclTRK" horiz-adv-x="274" 
d="M137 567q-36 0 -62.5 25.5t-26.5 62.5t26.5 63.5t62.5 26.5q37 0 63 -26.5t26 -63.5t-26 -62.5t-63 -25.5zM63 497h147v-497h-147v497z" />
    <glyph glyph-name="i.ss01" horiz-adv-x="279" 
d="M135 552q-37 0 -63.5 25.5t-26.5 62.5t26.5 63.5t63.5 26.5t62.5 -26.5t25.5 -63.5t-25.5 -62.5t-62.5 -25.5zM188 -4q-70 0 -101 33.5t-31 102.5v350h146v-316q0 -31 9 -42t38 -11v-110q-2 0 -19.5 -3.5t-41.5 -3.5z" />
    <glyph glyph-name="iacute.sc" horiz-adv-x="274" 
d="M141 756h171l-130 -200h-122zM63 497h147v-497h-147v497z" />
    <glyph glyph-name="iacute.ss01" horiz-adv-x="279" 
d="M138 741h171l-130 -200h-122zM188 -4q-70 0 -101 33.5t-31 102.5v350h146v-316q0 -31 9 -42t38 -11v-110q-2 0 -19.5 -3.5t-41.5 -3.5z" />
    <glyph glyph-name="ibreve.sc" horiz-adv-x="274" 
d="M138 572q-46 0 -76.5 14.5t-48 37.5t-24.5 53t-7 61h107q0 -60 49 -60q26 0 37 14.5t11 45.5h107q0 -31 -7 -61t-25 -53t-48 -37.5t-75 -14.5zM63 497h147v-497h-147v497z" />
    <glyph glyph-name="ibreve.ss01" horiz-adv-x="279" 
d="M135 557q-46 0 -76 14.5t-48 37.5t-25 53t-7 61h107q0 -60 49 -60q26 0 37 14.5t11 45.5h107q0 -31 -7 -61t-25 -53t-48 -37.5t-75 -14.5zM188 -4q-70 0 -101 33.5t-31 102.5v350h146v-316q0 -31 9 -42t38 -11v-110q-2 0 -19.5 -3.5t-41.5 -3.5z" />
    <glyph glyph-name="icircumflex.sc" horiz-adv-x="274" 
d="M59 752h156l89 -194h-125l-42 96l-42 -96h-126zM63 497h147v-497h-147v497z" />
    <glyph glyph-name="icircumflex.ss01" horiz-adv-x="279" 
d="M56 737h156l90 -194h-126l-42 96l-42 -96h-125zM188 -4q-70 0 -101 33.5t-31 102.5v350h146v-316q0 -31 9 -42t38 -11v-110q-2 0 -19.5 -3.5t-41.5 -3.5z" />
    <glyph glyph-name="idieresis.sc" horiz-adv-x="274" 
d="M25 567q-35 0 -60 25.5t-25 60.5t25 60.5t60 25.5t60 -25.5t25 -60.5t-25 -60.5t-60 -25.5zM251 567q-36 0 -61 25.5t-25 60.5t25 60.5t61 25.5q35 0 59.5 -25.5t24.5 -60.5t-24.5 -60.5t-59.5 -25.5zM63 497h147v-497h-147v497z" />
    <glyph glyph-name="idieresis.ss01" horiz-adv-x="279" 
d="M22 552q-35 0 -60 25.5t-25 60.5t25 60.5t60 25.5q36 0 60.5 -25.5t24.5 -60.5t-24.5 -60.5t-60.5 -25.5zM248 552q-36 0 -61 25.5t-25 60.5t25 60.5t61 25.5q35 0 59.5 -25.5t24.5 -60.5t-24.5 -60.5t-59.5 -25.5zM188 -4q-70 0 -101 33.5t-31 102.5v350h146v-316
q0 -31 9 -42t38 -11v-110q-2 0 -19.5 -3.5t-41.5 -3.5z" />
    <glyph glyph-name="igrave.sc" horiz-adv-x="274" 
d="M-52 756h170l81 -200h-122zM63 497h147v-497h-147v497z" />
    <glyph glyph-name="igrave.ss01" horiz-adv-x="279" 
d="M-55 741h171l81 -200h-123zM188 -4q-70 0 -101 33.5t-31 102.5v350h146v-316q0 -31 9 -42t38 -11v-110q-2 0 -19.5 -3.5t-41.5 -3.5z" />
    <glyph glyph-name="ij.sc" horiz-adv-x="661" 
d="M63 497h147v-497h-147v497zM407 -13q-57 0 -97.5 16.5t-60.5 42.5l84 96q11 -13 26 -22t38 -9q29 0 44 17t15 47v322h147v-326q0 -88 -50.5 -136t-145.5 -48z" />
    <glyph glyph-name="ij.ss01" horiz-adv-x="529" 
d="M135 552q-37 0 -63.5 25.5t-26.5 62.5t26.5 63.5t63.5 26.5t62.5 -26.5t25.5 -63.5t-25.5 -62.5t-62.5 -25.5zM399 552q-36 0 -63 25.5t-27 62.5q0 18 7.5 34.5t19.5 29t28.5 19.5t34.5 7q37 0 63 -26.5t26 -63.5t-26 -62.5t-63 -25.5zM188 -4q-70 0 -101 33.5t-31 102.5
v350h146v-316q0 -31 9 -42t38 -11v-110q-2 0 -19.5 -3.5t-41.5 -3.5zM274 -247q-26 0 -45 5t-31 11q-15 7 -24 16l44 107q5 -3 11 -5q5 -2 12.5 -3.5t16.5 -1.5q36 0 52 25t16 70v505h146v-512q0 -48 -11 -88t-35 -68.5t-61.5 -44.5t-90.5 -16z" />
    <glyph glyph-name="ijacute" horiz-adv-x="529" 
d="M134 741h171l-130 -200h-122zM417 741h171l-130 -200h-123zM188 -4q-70 0 -101 33.5t-31 102.5v350h146v-316q0 -31 9 -42t38 -11v-110q-2 0 -19.5 -3.5t-41.5 -3.5zM274 -247q-26 0 -45 5t-31 11q-15 7 -24 16l44 107q5 -3 11 -5q5 -2 12.5 -3.5t16.5 -1.5q36 0 52 25
t16 70v505h146v-512q0 -48 -11 -88t-35 -68.5t-61.5 -44.5t-90.5 -16z" />
    <glyph glyph-name="imacron.sc" horiz-adv-x="274" 
d="M-12 708h299v-109h-299v109zM63 497h147v-497h-147v497z" />
    <glyph glyph-name="imacron.ss01" horiz-adv-x="279" 
d="M-15 693h299v-109h-299v109zM188 -4q-70 0 -101 33.5t-31 102.5v350h146v-316q0 -31 9 -42t38 -11v-110q-2 0 -19.5 -3.5t-41.5 -3.5z" />
    <glyph glyph-name="iogonek.sc" horiz-adv-x="274" 
d="M237 -176q-30 -27 -89 -27q-57 0 -85.5 25t-28.5 72q0 29 14 56t39 50h-24v497h147v-497q-32 -14 -48.5 -36t-16.5 -45q0 -20 8.5 -28.5t22.5 -8.5q10 0 16 3t11 7z" />
    <glyph glyph-name="iogonek.ss01" horiz-adv-x="279" 
d="M135 552q-37 0 -63.5 25.5t-26.5 62.5t26.5 63.5t63.5 26.5t62.5 -26.5t25.5 -63.5t-25.5 -62.5t-62.5 -25.5zM275 -173q-14 -12 -37 -19t-52 -7q-56 0 -85 24.5t-29 71.5q0 29 14.5 57t40.5 51q-71 25 -71 127v350h146v-316q0 -31 9 -42t38 -11v-110h-2
q-31 -14 -47.5 -35.5t-16.5 -44.5q0 -20 8.5 -29t22.5 -9q10 0 16.5 3t11.5 7z" />
    <glyph glyph-name="itilde.sc" horiz-adv-x="274" 
d="M-22 564q-7 11 -11 27.5t-4 34.5q0 43 26.5 70t73.5 27q20 0 38 -6.5t34 -14.5t29.5 -14.5t25.5 -6.5q11 0 18.5 5t7.5 16q0 5 -1.5 12t-5.5 11h88q8 -12 12 -28.5t4 -30.5q0 -45 -26 -72.5t-73 -27.5q-23 0 -42 6.5t-34 15t-27 15t-22 6.5q-27 0 -27 -23q0 -13 7 -22
h-91zM63 497h147v-497h-147v497z" />
    <glyph glyph-name="itilde.ss01" horiz-adv-x="279" 
d="M-25 549q-7 11 -11 27.5t-4 34.5q0 43 26.5 70t73.5 27q21 0 39 -6.5t33.5 -14.5t29 -14.5t25.5 -6.5q11 0 18.5 5t7.5 16q0 5 -1.5 12t-5.5 11h89q7 -12 11 -28.5t4 -30.5q0 -45 -26 -72.5t-73 -27.5q-23 0 -42 6.5t-34 15t-27 15t-22 6.5q-27 0 -27 -23q0 -13 7 -22
h-91zM188 -4q-70 0 -101 33.5t-31 102.5v350h146v-316q0 -31 9 -42t38 -11v-110q-2 0 -19.5 -3.5t-41.5 -3.5z" />
    <glyph glyph-name="j.sc" horiz-adv-x="417" 
d="M163 -13q-57 0 -97.5 16.5t-60.5 42.5l84 96q11 -13 25.5 -22t38.5 -9q29 0 44 17t15 47v322h147v-326q0 -88 -50.5 -136t-145.5 -48z" />
    <glyph glyph-name="jcircumflex.sc" horiz-adv-x="417" 
d="M198 752h156l89 -194h-125l-42 96l-42 -96h-126zM163 -13q-57 0 -97.5 16.5t-60.5 42.5l84 96q11 -13 25.5 -22t38.5 -9q29 0 44 17t15 47v322h147v-326q0 -88 -50.5 -136t-145.5 -48z" />
    <glyph glyph-name="k.sc" horiz-adv-x="566" 
d="M539 116v-118q-9 -2 -25 -4t-36 -2q-43 0 -70.5 14t-46 35.5t-31 46t-24 46t-26 35.5t-37.5 14h-33v-183h-147v497h147v-190h29q56 0 92 43.5t36 146.5h144q1 -93 -31 -155.5t-78 -99.5q19 -15 30.5 -37t23.5 -41.5t26.5 -33.5t39.5 -14h17z" />
    <glyph glyph-name="k.ss01" horiz-adv-x="528" 
d="M416 174q13 -18 22.5 -29.5t19 -18.5t20 -9.5t24.5 -2.5h10v-111q-9 -4 -25.5 -6t-33.5 -2q-45 0 -72 17t-50 50l-88 129l-41 -43v-148h-146v726h146v-408l153 164h169l-188 -195z" />
    <glyph glyph-name="kgreenlandic.sc" horiz-adv-x="566" 
d="M539 116v-118q-9 -2 -25 -4t-36 -2q-43 0 -70.5 14t-46 35.5t-31 46t-24 46t-26 35.5t-37.5 14h-33v-183h-147v497h147v-190h29q56 0 92 43.5t36 146.5h144q1 -93 -31 -155.5t-78 -99.5q19 -15 30.5 -37t23.5 -41.5t26.5 -33.5t39.5 -14h17z" />
    <glyph glyph-name="kgreenlandic.ss01" horiz-adv-x="528" 
d="M416 174q13 -18 22.5 -29.5t19 -18.5t20 -9.5t24.5 -2.5h10v-111q-9 -4 -25.5 -6t-33.5 -2q-45 0 -72 17t-50 50l-88 129l-41 -43v-148h-146v482h146v-164l146 164h169l-182 -193z" />
    <glyph glyph-name="l.sc" horiz-adv-x="439" 
d="M63 497h147v-365h210v-132h-357v497z" />
    <glyph glyph-name="lacute.sc" horiz-adv-x="439" 
d="M144 756h171l-130 -200h-122zM63 497h147v-365h210v-132h-357v497z" />
    <glyph glyph-name="lcaron.sc" horiz-adv-x="461" 
d="M289 354q31 11 40.5 26t10.5 29q-32 3 -46 23.5t-14 46.5q0 31 21 52.5t55 21.5q36 0 58.5 -23.5t22.5 -65.5q0 -60 -32 -105t-90 -62zM63 497h147v-365h210v-132h-357v497z" />
    <glyph glyph-name="ldot.sc" horiz-adv-x="460" 
d="M63 497h147v-365h210v-132h-357v497zM344 236q-36 0 -60.5 24.5t-24.5 59.5t24.5 60.5t60.5 25.5q35 0 60 -25.5t25 -60.5t-25 -59.5t-60 -24.5z" />
    <glyph glyph-name="lslash.sc" horiz-adv-x="486" 
d="M465 132v-132h-356v175l-59 -34l-53 92l112 66v198h147v-112l56 33l56 -92l-112 -65v-129h209z" />
    <glyph glyph-name="m.sc" horiz-adv-x="671" 
d="M63 497h150l127 -275l130 275h137v-497h-133v272l-9 -22l-91 -195h-84l-88 194l-7 20v-269h-132v497z" />
    <glyph glyph-name="m.ss01" horiz-adv-x="847" 
d="M72 330q0 41 -40 41v110q10 4 28.5 6t36.5 2q40 0 66.5 -17t35.5 -52v-1q17 32 52.5 54.5t86.5 22.5q106 0 147 -83q15 31 49 57t92 26q86 0 127.5 -52t41.5 -140v-304h-146v288q0 35 -18 56t-50 21q-34 0 -53 -22.5t-19 -57.5v-285h-147v289q0 34 -18 55t-52 21
q-36 0 -55 -24t-19 -56v-285h-146v330z" />
    <glyph glyph-name="macron.case" horiz-adv-x="423" 
d="M43 632h337v-103h-337v103z" />
    <glyph glyph-name="n.sc" horiz-adv-x="586" 
d="M63 497h133l173 -247l17 -31v278h137v-497h-133l-177 252l-12 21v-273h-138v497z" />
    <glyph glyph-name="n.ss01" horiz-adv-x="561" 
d="M72 330q0 41 -40 41v110q10 4 28 6t39 2q45 0 70 -20t30 -49v-1q15 29 49.5 53t91.5 24q81 0 125 -50t44 -142v-304h-147v288q0 36 -18.5 56.5t-50.5 20.5q-34 0 -54.5 -22t-20.5 -60v-283h-146v330z" />
    <glyph glyph-name="nacute.sc" horiz-adv-x="586" 
d="M298 756h171l-129 -200h-123zM63 497h133l173 -247l17 -31v278h137v-497h-133l-177 252l-12 21v-273h-138v497z" />
    <glyph glyph-name="nacute.ss01" horiz-adv-x="561" 
d="M285 741h171l-130 -200h-122zM72 330q0 41 -40 41v110q10 4 28 6t39 2q45 0 70 -20t30 -49v-1q15 29 49.5 53t91.5 24q81 0 125 -50t44 -142v-304h-147v288q0 36 -18.5 56.5t-50.5 20.5q-34 0 -54.5 -22t-20.5 -60v-283h-146v330z" />
    <glyph glyph-name="napostrophe.sc" horiz-adv-x="703" 
d="M27 556q16 7 29 14q11 8 20 16.5t9 18.5q-30 0 -49 20t-19 51q0 30 20 51.5t50 21.5q31 0 55.5 -20t24.5 -65q0 -46 -15.5 -77t-34.5 -49.5t-36.5 -26t-20.5 -8.5zM181 497h132l173 -247l18 -31v278h136v-497h-132l-178 252l-11 21v-273h-138v497z" />
    <glyph glyph-name="napostrophe.ss01" horiz-adv-x="675" 
d="M18 556q16 7 29 14q11 8 20 16.5t9 18.5q-30 0 -49.5 20t-19.5 51q0 30 20.5 51t50.5 21t54.5 -20t24.5 -64q0 -46 -15.5 -77t-35 -49t-36.5 -25.5t-20 -8.5zM186 330q0 22 -9 31.5t-31 9.5v110q11 4 29 6t39 2q45 0 69.5 -20t29.5 -49l1 -1q14 29 48.5 53t91.5 24
q82 0 125.5 -50t43.5 -142v-304h-146v288q0 36 -19 56.5t-51 20.5q-34 0 -54.5 -22t-20.5 -60v-283h-146v330z" />
    <glyph glyph-name="ncaron.sc" horiz-adv-x="586" 
d="M127 752h126l42 -96l42 96h125l-89 -194h-156zM63 497h133l173 -247l17 -31v278h137v-497h-133l-177 252l-12 21v-273h-138v497z" />
    <glyph glyph-name="ncaron.ss01" horiz-adv-x="561" 
d="M114 737h125l43 -96l42 96h125l-90 -194h-156zM72 330q0 41 -40 41v110q10 4 28 6t39 2q45 0 70 -20t30 -49v-1q15 29 49.5 53t91.5 24q81 0 125 -50t44 -142v-304h-147v288q0 36 -18.5 56.5t-50.5 20.5q-34 0 -54.5 -22t-20.5 -60v-283h-146v330z" />
    <glyph glyph-name="nine.dnom" horiz-adv-x="382" 
d="M182 392q77 0 123.5 -49t46.5 -146q0 -100 -49.5 -151.5t-128.5 -51.5q-43 0 -79 14.5t-54 39.5l61 61q23 -32 71 -32q33 0 56.5 19t28.5 74q-19 -18 -44.5 -27t-51.5 -9q-64 0 -99 32t-35 89q0 62 42.5 99.5t111.5 37.5zM119 260q0 -46 59 -46q41 0 76 32q-9 38 -31 51
t-45 13q-29 0 -44 -13.5t-15 -36.5z" />
    <glyph glyph-name="nine.numr" horiz-adv-x="382" 
d="M182 712q77 0 123.5 -49t46.5 -146q0 -99 -49.5 -151t-128.5 -52q-43 0 -79 14.5t-54 39.5l61 61q23 -32 71 -32q33 0 56.5 19t28.5 74q-19 -18 -44.5 -27t-51.5 -9q-64 0 -99 32.5t-35 88.5q0 62 42.5 99.5t111.5 37.5zM119 580q0 -21 15 -33.5t44 -12.5q41 0 76 32
q-9 38 -31 51t-45 13q-29 0 -44 -13.5t-15 -36.5z" />
    <glyph glyph-name="nine.osf" horiz-adv-x="573" 
d="M273 506q134 0 200 -92t66 -258q0 -87 -19 -154.5t-55 -113.5t-87 -70t-115 -24q-84 0 -139 29t-84 83l99 83q26 -39 53.5 -54t70.5 -15q26 0 49 10t40.5 34t28.5 63t13 96q-60 -64 -162 -64q-92 0 -147.5 54.5t-55.5 158.5q0 49 15.5 91.5t46 74t76 50t106.5 18.5z
M267 178q70 0 122 62q-12 80 -45.5 110.5t-74.5 30.5q-45 0 -71.5 -27.5t-26.5 -75.5q0 -45 22.5 -72.5t73.5 -27.5z" />
    <glyph glyph-name="nine.sc" horiz-adv-x="522" 
d="M246 510q122 0 182 -67.5t60 -195.5q0 -59 -16 -107t-48 -82t-79 -52.5t-110 -18.5q-75 0 -122.5 22.5t-71.5 60.5l90 78q23 -29 47 -39.5t61 -10.5q23 0 42.5 6.5t34 21.5t23.5 40t11 63q-25 -22 -58.5 -34t-84.5 -12q-76 0 -125.5 38t-49.5 113q0 37 13.5 69t40 56
t66.5 37.5t94 13.5zM168 337q0 -24 17 -39.5t59 -15.5q29 0 52 7t46 24q-13 45 -40.5 63t-59.5 18q-35 0 -54.5 -15t-19.5 -42z" />
    <glyph glyph-name="nine.sinf" horiz-adv-x="382" 
d="M182 257q77 0 123.5 -49t46.5 -146q0 -99 -49.5 -151t-128.5 -52q-43 0 -79 14.5t-54 39.5l61 61q23 -32 71 -32q33 0 56.5 18.5t28.5 74.5q-19 -18 -44.5 -27t-51.5 -9q-64 0 -99 32.5t-35 88.5q0 62 42.5 99.5t111.5 37.5zM119 125q0 -21 15 -33.5t44 -12.5q41 0 76 32
q-9 38 -31 51t-45 13q-29 0 -44 -13.5t-15 -36.5z" />
    <glyph glyph-name="nine.sups" horiz-adv-x="382" 
d="M182 777q77 0 123.5 -49t46.5 -146q0 -99 -49.5 -151t-128.5 -52q-43 0 -79 14.5t-54 39.5l61 61q23 -32 71 -32q33 0 56.5 19t28.5 74q-19 -18 -44.5 -27t-51.5 -9q-64 0 -99 32.5t-35 88.5q0 62 42.5 99.5t111.5 37.5zM119 645q0 -21 15 -33.5t44 -12.5q41 0 76 32
q-9 38 -31 51t-45 13q-29 0 -44 -13.5t-15 -36.5z" />
    <glyph glyph-name="ntilde.sc" horiz-adv-x="586" 
d="M136 564q-7 11 -11 27.5t-4 34.5q0 43 26 70t74 27q20 0 38 -6.5t34 -14.5t29.5 -14.5t25.5 -6.5q11 0 18 5t7 16q0 5 -1.5 12t-4.5 11h88q8 -12 11.5 -28.5t3.5 -30.5q0 -45 -26 -72.5t-73 -27.5q-23 0 -41.5 6.5t-33.5 15t-27 15t-22 6.5q-27 0 -27 -23q0 -6 2 -12
t4 -10h-90zM63 497h133l173 -247l17 -31v278h137v-497h-133l-177 252l-12 21v-273h-138v497z" />
    <glyph glyph-name="ntilde.ss01" horiz-adv-x="561" 
d="M122 549q-7 11 -11 27.5t-4 34.5q0 43 26.5 70t73.5 27q21 0 39 -6.5t33.5 -14.5t29 -14.5t25.5 -6.5q11 0 18.5 5t7.5 16q0 5 -1.5 12t-5.5 11h89q7 -12 11 -28.5t4 -30.5q0 -45 -26 -72.5t-73 -27.5q-23 0 -42 6.5t-34 15t-27 15t-22 6.5q-12 0 -19.5 -6t-7.5 -17
q0 -13 7 -22h-91zM72 330q0 41 -40 41v110q10 4 28 6t39 2q45 0 70 -20t30 -49v-1q15 29 49.5 53t91.5 24q81 0 125 -50t44 -142v-304h-147v288q0 36 -18.5 56.5t-50.5 20.5q-34 0 -54.5 -22t-20.5 -60v-283h-146v330z" />
    <glyph glyph-name="o.sc" horiz-adv-x="593" 
d="M296 -13q-55 0 -103 16.5t-84 49.5t-56.5 82t-20.5 113q0 63 20.5 112t56.5 82t84.5 50.5t103.5 17.5q56 0 104 -17t83.5 -50t56 -82t20.5 -114q0 -63 -20.5 -111.5t-56 -81.5t-84 -50t-104.5 -17zM296 108q49 0 82.5 32t33.5 107q0 70 -33.5 103.5t-81.5 33.5
q-47 0 -81.5 -33t-34.5 -105q0 -73 34 -105.5t81 -32.5z" />
    <glyph glyph-name="oacute.sc" horiz-adv-x="593" 
d="M300 752h171l-130 -201h-122zM296 -13q-55 0 -103 16.5t-84 49.5t-56.5 82t-20.5 113q0 63 20.5 112t56.5 82t84.5 50.5t103.5 17.5q56 0 104 -17t83.5 -50t56 -82t20.5 -114q0 -63 -20.5 -111.5t-56 -81.5t-84 -50t-104.5 -17zM296 108q49 0 82.5 32t33.5 107
q0 70 -33.5 103.5t-81.5 33.5q-47 0 -81.5 -33t-34.5 -105q0 -73 34 -105.5t81 -32.5z" />
    <glyph glyph-name="obreve.sc" horiz-adv-x="593" 
d="M298 568q-46 0 -76.5 14.5t-48.5 37.5t-25 53t-7 61h107q0 -32 12 -46t37 -14q26 0 37.5 14t11.5 46h106q0 -31 -7 -61t-24.5 -53t-47.5 -37.5t-75 -14.5zM296 -13q-55 0 -103 16.5t-84 49.5t-56.5 82t-20.5 113q0 63 20.5 112t56.5 82t84.5 50.5t103.5 17.5
q56 0 104 -17t83.5 -50t56 -82t20.5 -114q0 -63 -20.5 -111.5t-56 -81.5t-84 -50t-104.5 -17zM296 108q49 0 82.5 32t33.5 107q0 70 -33.5 103.5t-81.5 33.5q-47 0 -81.5 -33t-34.5 -105q0 -73 34 -105.5t81 -32.5z" />
    <glyph glyph-name="ocircumflex.sc" horiz-adv-x="593" 
d="M219 747h156l89 -193h-126l-42 95l-42 -95h-125zM296 -13q-55 0 -103 16.5t-84 49.5t-56.5 82t-20.5 113q0 63 20.5 112t56.5 82t84.5 50.5t103.5 17.5q56 0 104 -17t83.5 -50t56 -82t20.5 -114q0 -63 -20.5 -111.5t-56 -81.5t-84 -50t-104.5 -17zM296 108q49 0 82.5 32
t33.5 107q0 70 -33.5 103.5t-81.5 33.5q-47 0 -81.5 -33t-34.5 -105q0 -73 34 -105.5t81 -32.5z" />
    <glyph glyph-name="odieresis.sc" horiz-adv-x="593" 
d="M184 563q-35 0 -60 25t-25 60t25 60.5t60 25.5q36 0 60.5 -25.5t24.5 -60.5t-24.5 -60t-60.5 -25zM410 563q-35 0 -60.5 25t-25.5 60t25.5 60.5t60.5 25.5t60 -25.5t25 -60.5t-25 -60t-60 -25zM296 -13q-55 0 -103 16.5t-84 49.5t-56.5 82t-20.5 113q0 63 20.5 112
t56.5 82t84.5 50.5t103.5 17.5q56 0 104 -17t83.5 -50t56 -82t20.5 -114q0 -63 -20.5 -111.5t-56 -81.5t-84 -50t-104.5 -17zM296 108q49 0 82.5 32t33.5 107q0 70 -33.5 103.5t-81.5 33.5q-47 0 -81.5 -33t-34.5 -105q0 -73 34 -105.5t81 -32.5z" />
    <glyph glyph-name="oe.sc" horiz-adv-x="831" 
d="M791 114v-114h-370v13q-57 -26 -125 -26q-55 0 -103 16.5t-84 49.5t-56.5 82t-20.5 113q0 63 20.5 112t56.5 82t84.5 50.5t103.5 17.5q70 0 124 -25v12h369v-113h-222v-79h194v-108h-194v-83h223zM296 108q49 0 82.5 32t33.5 107q0 70 -33.5 103.5t-81.5 33.5
q-47 0 -81.5 -33t-34.5 -105q0 -73 34 -105.5t81 -32.5z" />
    <glyph glyph-name="ograve.sc" horiz-adv-x="593" 
d="M107 752h171l81 -201h-122zM296 -13q-55 0 -103 16.5t-84 49.5t-56.5 82t-20.5 113q0 63 20.5 112t56.5 82t84.5 50.5t103.5 17.5q56 0 104 -17t83.5 -50t56 -82t20.5 -114q0 -63 -20.5 -111.5t-56 -81.5t-84 -50t-104.5 -17zM296 108q49 0 82.5 32t33.5 107
q0 70 -33.5 103.5t-81.5 33.5q-47 0 -81.5 -33t-34.5 -105q0 -73 34 -105.5t81 -32.5z" />
    <glyph glyph-name="ohungarumlaut.sc" horiz-adv-x="593" 
d="M187 752h159l-112 -201h-111zM391 752h160l-113 -201h-110zM296 -13q-55 0 -103 16.5t-84 49.5t-56.5 82t-20.5 113q0 63 20.5 112t56.5 82t84.5 50.5t103.5 17.5q56 0 104 -17t83.5 -50t56 -82t20.5 -114q0 -63 -20.5 -111.5t-56 -81.5t-84 -50t-104.5 -17zM296 108
q49 0 82.5 32t33.5 107q0 70 -33.5 103.5t-81.5 33.5q-47 0 -81.5 -33t-34.5 -105q0 -73 34 -105.5t81 -32.5z" />
    <glyph glyph-name="omacron.sc" horiz-adv-x="593" 
d="M147 704h300v-109h-300v109zM296 -13q-55 0 -103 16.5t-84 49.5t-56.5 82t-20.5 113q0 63 20.5 112t56.5 82t84.5 50.5t103.5 17.5q56 0 104 -17t83.5 -50t56 -82t20.5 -114q0 -63 -20.5 -111.5t-56 -81.5t-84 -50t-104.5 -17zM296 108q49 0 82.5 32t33.5 107
q0 70 -33.5 103.5t-81.5 33.5q-47 0 -81.5 -33t-34.5 -105q0 -73 34 -105.5t81 -32.5z" />
    <glyph glyph-name="one.dnom" horiz-adv-x="269" 
d="M118 246q-11 -12 -35 -21t-58 -9l-6 94q44 0 69 20t30 52h99v-382h-99v246z" />
    <glyph glyph-name="one.numr" horiz-adv-x="269" 
d="M118 564q-11 -12 -35 -20.5t-58 -8.5l-6 93q44 0 69 20t30 52h99v-382h-99v246z" />
    <glyph glyph-name="one.osf" horiz-adv-x="361" 
d="M161 311q-5 -4 -13.5 -8.5t-24 -8t-39.5 -6t-60 -2.5l-2 133q72 0 105.5 23t33.5 55h139v-497h-139v311z" />
    <glyph glyph-name="one.sc" horiz-adv-x="362" 
d="M161 310q-5 -4 -13.5 -8.5t-24 -8t-39.5 -6t-60 -2.5l-2 134q72 0 105.5 23t33.5 55h140v-497h-140v310z" />
    <glyph glyph-name="one.sinf" horiz-adv-x="269" 
d="M118 109q-11 -12 -35 -21t-58 -9l-6 94q44 0 69 20t30 52h99v-382h-99v246z" />
    <glyph glyph-name="one.sups" horiz-adv-x="269" 
d="M118 629q-11 -12 -35 -20.5t-58 -8.5l-6 93q44 0 69 20t30 52h99v-382h-99v246z" />
    <glyph glyph-name="oneeighth.alt" horiz-adv-x="611" 
d="M119 500q-8 -11 -28.5 -19.5t-49.5 -10.5l-12 78q35 5 60 22t30 40h84v-273h-84v163zM438 599h100l-371 -501h-102zM456 74q-58 0 -90.5 19t-32.5 57q0 18 11.5 36.5t37.5 26.5q-15 9 -25 24t-10 38q0 35 29.5 56t78.5 21q51 0 80.5 -19t29.5 -52q0 -23 -11.5 -37
t-25.5 -20q25 -8 37 -26t12 -42q0 -38 -32.5 -60t-88.5 -22zM471 244q16 7 16 28q0 13 -9 19t-22 6t-22 -6t-9 -18q0 -8 4.5 -14.5t12.5 -8.5zM456 129q43 0 43 27q0 23 -25 26l-35 7q-12 -4 -19.5 -12.5t-7.5 -19.5q0 -28 44 -28z" />
    <glyph glyph-name="onehalf.alt" horiz-adv-x="635" 
d="M120 500q-8 -11 -27.5 -19.5t-50.5 -10.5l-12 78q35 5 60 22.5t30 39.5h84v-273h-84v163zM455 599h103l-382 -501h-104zM376 97q0 38 20.5 60.5t45 38.5t45 29.5t20.5 32.5q0 23 -28 23q-17 0 -23.5 -8.5t-6.5 -17.5h-74q0 18 6 36t18.5 32.5t33 23.5t49.5 9q49 0 77 -23
t28 -69q0 -30 -15 -50t-33 -33t-33.5 -20.5t-16.5 -12.5v-2h104v-66h-217v17z" />
    <glyph glyph-name="onequarter.alt" horiz-adv-x="628" 
d="M119 500q-8 -11 -28 -19.5t-50 -10.5l-12 78q35 5 60 22.5t30 39.5h84v-273h-84v163zM443 599h100l-371 -501h-101zM477 150h-128v56l76 165h87l-71 -151h47v53h73v-53h38v-70h-38v-52h-84v52z" />
    <glyph glyph-name="oslash.sc" horiz-adv-x="593" 
d="M479 448q38 -33 60 -83t22 -118q0 -63 -20.5 -111.5t-56 -81.5t-84 -50t-104.5 -17q-59 0 -113 20l-25 -38h-94l52 78q-39 32 -61.5 82.5t-22.5 118.5q0 63 20.5 112t56.5 82t84.5 50.5t103.5 17.5q65 0 116 -22l22 33h93zM181 246q0 -47 16 -79l141 210q-18 7 -41 7
q-47 0 -81.5 -33t-34.5 -105zM296 108q49 0 82.5 32t33.5 107q0 45 -16 77l-141 -210q20 -6 41 -6z" />
    <glyph glyph-name="oslashacute.sc" horiz-adv-x="593" 
d="M341 541h-122l81 200h171zM479 448q38 -33 60 -83t22 -118q0 -63 -20.5 -111.5t-56 -81.5t-84 -50t-104.5 -17q-59 0 -113 20l-25 -38h-94l52 78q-39 32 -61.5 82.5t-22.5 118.5q0 63 20.5 112t56.5 82t84.5 50.5t103.5 17.5q65 0 116 -22l22 33h93zM181 246
q0 -47 16 -79l141 210q-18 7 -41 7q-47 0 -81.5 -33t-34.5 -105zM296 108q49 0 82.5 32t33.5 107q0 45 -16 77l-141 -210q20 -6 41 -6z" />
    <glyph glyph-name="otilde.sc" horiz-adv-x="593" 
d="M138 560q-7 11 -11.5 27.5t-4.5 34.5q0 42 26.5 69.5t74.5 27.5q20 0 38 -6.5t34 -15t29.5 -15t25.5 -6.5q11 0 18 5.5t7 15.5q0 5 -1.5 12.5t-4.5 11.5h88q8 -12 11.5 -28.5t3.5 -30.5q0 -45 -26 -72.5t-73 -27.5q-23 0 -41.5 6.5t-34 14.5t-27.5 14.5t-21 6.5
q-28 0 -28 -22q0 -15 7 -22h-90zM296 -13q-55 0 -103 16.5t-84 49.5t-56.5 82t-20.5 113q0 63 20.5 112t56.5 82t84.5 50.5t103.5 17.5q56 0 104 -17t83.5 -50t56 -82t20.5 -114q0 -63 -20.5 -111.5t-56 -81.5t-84 -50t-104.5 -17zM296 108q49 0 82.5 32t33.5 107
q0 70 -33.5 103.5t-81.5 33.5q-47 0 -81.5 -33t-34.5 -105q0 -73 34 -105.5t81 -32.5z" />
    <glyph glyph-name="p.sc" horiz-adv-x="521" 
d="M63 497h208q108 0 167 -43.5t59 -138.5q0 -46 -17.5 -79.5t-48 -55.5t-70.5 -32.5t-85 -10.5h-65v-137h-148v497zM268 253q80 0 80 63q0 29 -19.5 47t-64.5 18h-53v-128h57z" />
    <glyph glyph-name="parenleft.sc" horiz-adv-x="290" 
d="M160 -118q-31 34 -54.5 77.5t-39.5 89.5t-24 92t-8 85q0 44 8 94.5t24 100t39.5 95.5t54.5 82l107 -49q-23 -31 -41 -71.5t-31 -83.5t-19.5 -86.5t-6.5 -81.5q0 -34 6.5 -73.5t19.5 -79t31 -76.5t41 -66z" />
    <glyph glyph-name="parenright.sc" horiz-adv-x="290" 
d="M23 -70q23 29 41.5 66.5t31 77.5t19 79t6.5 72q0 37 -6.5 80.5t-19 87t-31 84t-41.5 71.5l108 49q31 -36 54.5 -82t39 -96.5t23.5 -100.5t8 -93q0 -39 -8 -85t-24 -92.5t-39.5 -89.5t-53.5 -77z" />
    <glyph glyph-name="q.sc" horiz-adv-x="593" 
d="M561 247q0 -101 -51.5 -165t-133.5 -85q8 -36 30.5 -53t61.5 -20l-22 -114q-51 1 -88 17.5t-61.5 41.5t-37.5 57t-16 65q-45 7 -84 27t-67 52t-44 76.5t-16 101.5q0 63 20.5 112t56.5 82t84.5 50.5t103.5 17.5q56 0 104 -17t83.5 -50t56 -82t20.5 -114zM296 108
q49 0 82.5 32t33.5 107q0 70 -33.5 103.5t-81.5 33.5q-47 0 -81.5 -33t-34.5 -105q0 -73 34 -105.5t81 -32.5z" />
    </font>
</defs>
</svg>
