<?xml version="1.0" standalone="no"?>
<!DOCTYPE svg PUBLIC "-//W3C//DTD SVG 1.1//EN" "http://www.w3.org/Graphics/SVG/1.1/DTD/svg11.dtd" >
<svg xmlns="http://www.w3.org/2000/svg" xmlns:xlink="http://www.w3.org/1999/xlink" version="1.1">
<metadata>
Created by FontForge 20170731 at Wed Jul  3 11:38:16 2019
 By Aleksey,,,
Copyright (c) 2017 by Daniel Hernandez. All rights reserved.
</metadata>
<defs>
<font id="AndesNeueAlt2-Light" horiz-adv-x="0" >
  <font-face 
    font-family="AndesNeue Alt 2 Light"
    font-weight="300"
    font-stretch="normal"
    units-per-em="1000"
    panose-1="0 0 4 0 0 0 0 0 0 0"
    ascent="750"
    descent="-250"
    x-height="482"
    cap-height="700"
    bbox="-654 -254 1351 963"
    underline-thickness="50"
    underline-position="-150"
    unicode-range="U+000D-FB02"
  />
<missing-glyph horiz-adv-x="530" 
d="M480 730v-730h-430v730h430zM265 408l150 287h-300zM90 657v-584l153 292zM440 73v584l-152 -292zM115 35h300l-150 287z" />
    <glyph glyph-name="fi" unicode="fi" horiz-adv-x="471" 
d="M93 428h-70v54h71v86q0 77 41 119.5t110 42.5q21 0 38.5 -4.5t30.5 -12.5l-24 -49q-10 5 -20 8t-26 3q-41 0 -65 -26t-24 -77v-90h240v-482h-63v428h-177v-428h-62v428zM364 590q-20 0 -33.5 13.5t-13.5 33.5t13.5 34t33.5 14t34 -14t14 -34t-14 -33.5t-34 -13.5z" />
    <glyph glyph-name="fl" unicode="fl" horiz-adv-x="475" 
d="M395 98q0 -25 9.5 -37.5t32.5 -12.5v-47q-1 0 -8.5 -1.5t-21.5 -1.5q-35 0 -55 23t-20 71v336h-177v-428h-62v428h-70v54h71v85q0 77 40 120t109 43q43 0 69 -16l-22 -50q-9 5 -20 8t-27 3q-41 0 -64.5 -26.5t-23.5 -77.5v-89h177v244h63v-628z" />
    <glyph glyph-name=".notdef" horiz-adv-x="530" 
d="M480 730v-730h-430v730h430zM265 408l150 287h-300zM90 657v-584l153 292zM440 73v584l-152 -292zM115 35h300l-150 287z" />
    <glyph glyph-name=".null" 
 />
    <glyph glyph-name=".null" 
 />
    <glyph glyph-name="nonmarkingreturn" unicode="&#xd;" horiz-adv-x="250" 
 />
    <glyph glyph-name="space" unicode=" " horiz-adv-x="223" 
 />
    <glyph glyph-name="exclam" unicode="!" horiz-adv-x="233" 
d="M82 700h71l-9 -511h-55zM116 -11q-18 0 -31.5 13.5t-13.5 32.5q0 18 13.5 31t31.5 13q19 0 32 -13t13 -31q0 -19 -13 -32.5t-32 -13.5z" />
    <glyph glyph-name="quotedbl" unicode="&#x22;" horiz-adv-x="271" 
d="M53 734h56l-4 -160h-49zM163 734h55l-3 -160h-50z" />
    <glyph glyph-name="numbersign" unicode="#" horiz-adv-x="588" 
d="M148 149h-116l9 39h116l33 150h-110l9 40h110l24 113h49l-25 -113h144l25 113h48l-24 -113h117l-9 -40h-117l-33 -150h111l-9 -39h-111l-23 -106h-49l24 106h-144l-24 -106h-48zM349 188l33 150h-144l-33 -150h144z" />
    <glyph glyph-name="dollar" unicode="$" horiz-adv-x="566" 
d="M322 379q39 -8 76 -19t66 -31.5t47 -52.5t18 -83q0 -78 -55.5 -127.5t-152.5 -56.5v-121h-56v120q-83 2 -143 32t-88 85l50 38q30 -55 78 -76t104 -23v263q-39 7 -77 17t-68 29t-48 50.5t-18 80.5q0 80 55 129.5t155 55.5v113h56v-114q35 -3 71.5 -14t65 -34.5t43.5 -61
t6 -91.5l-62 -1q6 36 -2 62t-25.5 43.5t-42.5 27t-54 13.5v-253h1zM120 510q0 -30 11.5 -50t31.5 -33.5t46.5 -22t56.5 -14.5v243q-68 -4 -107 -36.5t-39 -86.5zM321 64q69 7 106.5 40t37.5 87q0 31 -11.5 52t-31 35t-46 23t-55.5 15v-252z" />
    <glyph glyph-name="percent" unicode="%" horiz-adv-x="601" 
d="M135 424q-50 0 -78 34.5t-28 104.5t28 104.5t78 34.5q51 0 79.5 -34.5t28.5 -104.5t-28.5 -104.5t-79.5 -34.5zM380 700h49l-211 -700h-50zM135 461q34 0 49 27t15 75q0 47 -15 73.5t-49 26.5t-48.5 -26.5t-14.5 -73.5q0 -48 14.5 -75t48.5 -27zM465 -2q-50 0 -78 34.5
t-28 104.5t28 104.5t78 34.5q51 0 79.5 -34.5t28.5 -104.5t-28.5 -104.5t-79.5 -34.5zM465 35q34 0 48.5 27t14.5 75q0 47 -14.5 73.5t-48.5 26.5t-48.5 -26.5t-14.5 -73.5q0 -48 14.5 -75t48.5 -27z" />
    <glyph glyph-name="ampersand" unicode="&#x26;" horiz-adv-x="687" 
d="M656 -10q-37 8 -74.5 23.5t-74.5 37.5q-74 -67 -202 -67q-56 0 -102.5 15.5t-80 44t-52 70t-18.5 92.5q0 31 9 61t24.5 56.5t37.5 47.5t48 34q-33 71 -33 137q0 88 54.5 139.5t145.5 51.5q88 0 137.5 -43.5t49.5 -117.5q0 -26 -4.5 -53t-12.5 -43h-64q7 17 11 41.5
t4 45.5q0 54 -33 83.5t-88 29.5q-63 0 -99 -33.5t-36 -97.5q0 -123 129 -263q11 -12 27.5 -29t38.5 -36.5t47.5 -41t53.5 -41.5q41 70 41 191h66q-3 -141 -57 -225q31 -18 62 -32t62 -21zM312 41q91 0 144 43q-47 34 -90 73t-79 80q-58 64 -92 122q-76 -57 -76 -147
q0 -39 14.5 -70.5t40.5 -54t61.5 -34.5t76.5 -12z" />
    <glyph glyph-name="quotesingle" unicode="'" horiz-adv-x="162" 
d="M53 734h56l-4 -160h-49z" />
    <glyph glyph-name="parenleft" unicode="(" horiz-adv-x="259" 
d="M196 -244q-24 34 -50 81.5t-48 108.5t-36.5 135t-14.5 160t14.5 160t36.5 135t48 108.5t50 81.5l46 -31q-18 -28 -41 -71.5t-43.5 -101t-34.5 -128t-14 -153.5t14 -153.5t34.5 -128t43.5 -101t41 -71.5z" />
    <glyph glyph-name="parenright" unicode=")" horiz-adv-x="259" 
d="M63 726q24 -34 50 -81.5t48 -108.5t36.5 -135t14.5 -160t-14.5 -160t-36.5 -135t-48 -108.5t-50 -81.5l-46 31q18 28 41 71.5t43.5 101t34.5 128t14 153.5t-14 153.5t-34.5 128t-43.5 101t-41 71.5z" />
    <glyph glyph-name="asterisk" unicode="*" horiz-adv-x="415" 
d="M202 563l-79 -107l-40 30l92 102l-134 15l6 49l132 -29l-56 121l45 21l46 -129l83 114l38 -30l-93 -105l138 -16l-6 -47l-136 27l58 -123l-46 -20z" />
    <glyph glyph-name="plus" unicode="+" horiz-adv-x="424" 
d="M186 237h-148v48h148v157h50v-157h150v-48h-150v-164h-50v164z" />
    <glyph glyph-name="comma" unicode="," horiz-adv-x="198" 
d="M52 -72q3 1 10.5 6.5t15 13.5t13 19.5t5.5 26.5q-19 0 -33 13t-14 34q0 20 13.5 33.5t33.5 13.5q22 0 36.5 -15t14.5 -43q0 -36 -10 -61t-23 -41t-25.5 -23.5t-16.5 -8.5z" />
    <glyph glyph-name="hyphen" unicode="-" horiz-adv-x="387" 
d="M63 298h261v-51h-261v51z" />
    <glyph glyph-name="period" unicode="." horiz-adv-x="195" 
d="M98 -6q-20 0 -33.5 13.5t-13.5 33.5q0 19 13.5 33t33.5 14q19 0 32.5 -14t13.5 -33q0 -20 -13.5 -33.5t-32.5 -13.5z" />
    <glyph glyph-name="slash" unicode="/" horiz-adv-x="391" 
d="M306 706h63l-283 -931h-63z" />
    <glyph glyph-name="zero" unicode="0" horiz-adv-x="606" 
d="M302 -6q-128 0 -188.5 91t-60.5 264t60.5 265t188.5 92t189.5 -93t61.5 -264t-61.5 -263t-189.5 -92zM302 51q96 0 140 74.5t44 223.5t-44 224.5t-140 75.5q-94 0 -137.5 -75.5t-43.5 -224.5t43.5 -223.5t137.5 -74.5z" />
    <glyph glyph-name="one" unicode="1" horiz-adv-x="341" 
d="M185 590q-24 -35 -67 -55.5t-96 -20.5v59q37 0 67 10.5t51 28t32.5 40.5t12.5 48h65v-700h-65v590z" />
    <glyph glyph-name="two" unicode="2" horiz-adv-x="546" 
d="M46 27q0 64 28 108.5t69.5 79.5t90 64t90 60t69.5 69.5t28 92.5q0 69 -41 108.5t-114 39.5q-41 0 -70 -13t-48 -33t-28.5 -43.5t-11.5 -44.5h-62q2 31 15 64.5t40 61.5t69 46.5t100 18.5q104 0 161 -55.5t57 -150.5q0 -58 -27.5 -102t-69 -80t-90 -65.5t-90 -58
t-69 -59.5t-27.5 -68v-11h392v-56h-461v27z" />
    <glyph glyph-name="three" unicode="3" horiz-adv-x="549" 
d="M263 -6q-83 0 -143.5 34t-87.5 98l56 32q20 -50 68 -78t106 -28q85 0 128 36t43 104q0 61 -43.5 100t-141.5 39h-36v51h33q77 0 121.5 35t44.5 104q0 64 -41 96t-104 32q-27 0 -53.5 -7.5t-48 -24t-36 -42t-17.5 -60.5h-62q4 46 22.5 81.5t48 60t68 37t81.5 12.5
q94 0 150.5 -48t56.5 -134q0 -67 -33 -106.5t-84 -53.5q74 -13 107 -62t33 -112q0 -46 -16.5 -82t-47.5 -61.5t-74.5 -39t-97.5 -13.5z" />
    <glyph glyph-name="four" unicode="4" horiz-adv-x="546" 
d="M361 165h-338v56l251 479h67l-249 -479h268v174h65v-174h100v-56h-100v-165h-64v165z" />
    <glyph glyph-name="five" unicode="5" horiz-adv-x="557" 
d="M269 -6q-81 0 -138.5 32t-85.5 91l56 33q20 -48 66 -73.5t103 -25.5q84 0 131 44.5t47 129.5q0 80 -44.5 121.5t-119.5 41.5q-50 0 -88 -15t-61 -40h-63v367h412v-60h-349v-247q30 29 72 41.5t88 12.5q103 0 161.5 -57.5t58.5 -160.5q0 -113 -65 -174t-181 -61z" />
    <glyph glyph-name="six" unicode="6" horiz-adv-x="585" 
d="M337 415q95 0 149.5 -49.5t54.5 -149.5q0 -50 -16.5 -91t-47 -70t-74 -45t-98.5 -16q-118 0 -185 85.5t-67 256.5q0 94 19.5 163.5t55 115.5t84.5 68.5t109 22.5q90 0 141 -41t51 -113q0 -28 -6 -54h-61q2 12 3 21.5t1 18.5q0 52 -34 81.5t-94 29.5q-94 0 -149 -73.5
t-54 -234.5v-21.5t1 -20.5q20 32 45.5 54t54 35.5t58.5 20t59 6.5zM306 51q81 0 125 42t44 114q0 73 -39 110.5t-113 37.5q-66 0 -117 -35t-78 -91q18 -95 65 -136.5t113 -41.5z" />
    <glyph glyph-name="seven" unicode="7" horiz-adv-x="484" 
d="M130 0q0 82 19.5 151t48.5 127.5t63.5 107.5t63.5 93t49 83.5t20 77.5h-378v60h445v-35q0 -51 -19.5 -97t-49.5 -92t-64 -94.5t-64 -105.5t-49.5 -124.5t-19.5 -151.5h-65z" />
    <glyph glyph-name="eight" unicode="8" horiz-adv-x="572" 
d="M403 355q65 -26 92 -70t27 -101q0 -42 -17 -77t-48 -60t-75 -39t-99 -14q-114 0 -174.5 49.5t-60.5 137.5q0 63 34.5 110.5t83.5 75.5q-43 24 -65.5 62.5t-22.5 89.5q0 41 15 75t42 59t65.5 39t85.5 14q48 0 87.5 -12.5t67 -36t43 -57.5t15.5 -77q0 -56 -28 -99t-68 -69z
M285 648q-63 0 -103 -33t-40 -94q0 -44 25.5 -74t73.5 -44l104 -30q43 24 66.5 61.5t23.5 78.5q0 66 -41.5 100.5t-108.5 34.5zM283 51q86 0 130 35t44 95q0 50 -27 81.5t-87 48.5l-122 34l-4 1q-20 -12 -38.5 -27.5t-32.5 -35t-22.5 -43t-8.5 -51.5q0 -63 40.5 -100.5
t127.5 -37.5z" />
    <glyph glyph-name="nine" unicode="9" horiz-adv-x="581" 
d="M276 706q125 0 188.5 -87.5t63.5 -252.5q0 -191 -70 -281.5t-190 -90.5q-69 0 -119.5 21.5t-82.5 69.5l49 39q29 -41 65.5 -57t87.5 -16q45 0 81 17.5t61.5 55t39 96.5t13.5 143q-41 -57 -94.5 -78.5t-106.5 -21.5q-48 0 -88.5 13.5t-69.5 40.5t-45 67t-16 92t17 94.5
t47.5 72.5t73.5 46.5t95 16.5zM271 322q31 0 59.5 8.5t53 23t44 33.5t32.5 40q-12 114 -61 168t-125 54q-75 0 -119.5 -45t-44.5 -120q0 -78 40.5 -120t120.5 -42z" />
    <glyph glyph-name="colon" unicode=":" horiz-adv-x="221" 
d="M111 412q-20 0 -33.5 13.5t-13.5 33.5q0 19 13.5 33t33.5 14q19 0 32.5 -14t13.5 -33q0 -20 -13.5 -33.5t-32.5 -13.5zM111 -6q-20 0 -33.5 13.5t-13.5 33.5q0 19 13.5 33t33.5 14q19 0 32.5 -14t13.5 -33q0 -20 -13.5 -33.5t-32.5 -13.5z" />
    <glyph glyph-name="semicolon" unicode=";" horiz-adv-x="228" 
d="M113 386q-20 0 -34 13.5t-14 33.5q0 19 14 33t34 14q19 0 32.5 -14t13.5 -33q0 -20 -13.5 -33.5t-32.5 -13.5zM69 -72q3 1 10 6.5t15 13.5t13.5 19.5t5.5 26.5q-19 0 -33 13t-14 34q0 20 13.5 33.5t33.5 13.5q21 0 36 -15t15 -43q0 -36 -10 -61t-23.5 -41t-25.5 -23.5
t-17 -8.5z" />
    <glyph glyph-name="less" unicode="&#x3c;" horiz-adv-x="387" 
d="M28 233v53l310 199v-58l-255 -168l255 -167v-58z" />
    <glyph glyph-name="equal" unicode="=" horiz-adv-x="501" 
d="M66 380h369v-49h-369v49zM66 189h369v-49h-369v49z" />
    <glyph glyph-name="greater" unicode="&#x3e;" horiz-adv-x="387" 
d="M50 91l253 168l-253 168v58l310 -199v-54l-310 -199v58z" />
    <glyph glyph-name="question" unicode="?" horiz-adv-x="442" 
d="M171 182q0 55 12.5 91.5t31.5 62t41.5 44.5t41.5 39t31.5 46t12.5 65q0 52 -31 86t-94 34q-59 0 -95 -33.5t-36 -91.5h-60q0 42 15 75.5t41 57t61.5 36.5t75.5 13q51 0 86.5 -15t58.5 -39t33.5 -55.5t10.5 -64.5q0 -46 -13 -77t-33 -53.5t-42.5 -42t-42.5 -43t-33 -55.5
t-13 -80h-60zM199 -11q-18 0 -31.5 13.5t-13.5 31.5q0 19 13.5 32t31.5 13q19 0 32 -13t13 -32q0 -18 -13 -31.5t-32 -13.5z" />
    <glyph glyph-name="at" unicode="@" horiz-adv-x="828" 
d="M575 45q-78 0 -80 74q0 3 3 15q-32 -50 -67.5 -68t-70.5 -18q-59 0 -94 38t-35 111q0 53 17 100t46 82.5t69 56.5t85 21q42 0 70.5 -15.5t45.5 -39.5l12 45h55q-25 -86 -41 -143.5t-25.5 -94t-13 -55.5t-3.5 -28q-1 -34 38 -34q28 0 55 21t48 56t33.5 79.5t12.5 91.5
q0 54 -18.5 99.5t-52.5 77.5t-81.5 50t-106.5 18q-80 0 -148 -30.5t-117.5 -83.5t-77.5 -126t-28 -158q0 -65 19.5 -117t56 -88.5t88 -56t114.5 -19.5q43 0 84 7.5t77 21t66 32t49 39.5l29 -42q-22 -24 -55 -44t-72.5 -35t-85 -23.5t-93.5 -8.5q-76 0 -138 23.5t-105.5 66.5
t-67.5 105t-24 138q0 98 32 181t89.5 143t136.5 94t173 34q69 0 126.5 -21.5t99 -60.5t64 -93.5t22.5 -121.5q0 -60 -17 -113.5t-46 -94t-68.5 -64.5t-83.5 -24zM375 99q25 0 48.5 12t45.5 40t41 74t35 115v-1l3 14q-8 22 -33.5 39t-63.5 17q-35 0 -65 -16.5t-51.5 -44.5
t-33.5 -65t-12 -79q0 -51 23 -78t63 -27z" />
    <glyph glyph-name="A" unicode="A" horiz-adv-x="620" 
d="M464 206h-308l-75 -206h-66l262 700h66l262 -700h-66zM443 262l-133 365l-133 -365h266z" />
    <glyph glyph-name="B" unicode="B" horiz-adv-x="618" 
d="M92 700h222q224 0 224 -180q0 -34 -10 -59t-25 -43t-33.5 -30t-35.5 -18v-2q21 -4 45.5 -15.5t45.5 -32t35 -51.5t14 -75q0 -49 -19 -85.5t-52 -60.5t-77.5 -36t-95.5 -12h-238v700zM327 385q39 0 66.5 10t45.5 28t26 41.5t8 50.5q0 61 -38.5 95.5t-115.5 34.5h-162v-260
h170zM328 55q39 0 72 7.5t57 24.5t37.5 43.5t13.5 64.5q0 70 -44 102.5t-119 32.5h-188v-275h171z" />
    <glyph glyph-name="C" unicode="C" horiz-adv-x="609" 
d="M346 -6q-68 0 -122.5 25t-93 71t-59.5 111.5t-21 146.5q0 83 20.5 149t59 112.5t93.5 71.5t123 25q102 0 161.5 -50t59.5 -138q0 -34 -8 -58h-59q3 17 4 26t1 22q0 67 -43.5 104.5t-118.5 37.5q-53 0 -94.5 -20.5t-70.5 -59.5t-44 -95t-15 -127q0 -69 16.5 -124
t46.5 -93.5t72.5 -59.5t93.5 -21q63 0 107.5 25t75.5 74l44 -36q-41 -60 -96.5 -89.5t-132.5 -29.5z" />
    <glyph glyph-name="D" unicode="D" horiz-adv-x="684" 
d="M92 700h198q74 0 137.5 -20.5t109.5 -63t72 -108.5t26 -157t-26.5 -157.5t-73 -109.5t-108 -63.5t-132.5 -20.5h-203v700zM291 59q62 0 112.5 17t86.5 52.5t56 90t20 130.5q0 77 -21 132.5t-58 91t-88 52.5t-111 17h-131v-583h134z" />
    <glyph glyph-name="E" unicode="E" horiz-adv-x="560" 
d="M92 700h424v-60h-359v-254h310v-61h-310v-265h359v-60h-424v700z" />
    <glyph glyph-name="F" unicode="F" horiz-adv-x="529" 
d="M92 700h415v-60h-350v-266h300v-60h-300v-314h-65v700z" />
    <glyph glyph-name="G" unicode="G" horiz-adv-x="649" 
d="M347 -9q-140 0 -218 90.5t-78 266.5q0 83 21 149.5t60 113t94 71t123 24.5q114 0 171.5 -51t58.5 -133q1 -13 -0.5 -24t-3.5 -20h-62q2 8 2.5 16t0.5 23q-2 61 -45.5 97t-122.5 36q-109 0 -169 -78.5t-60 -223.5q0 -70 15.5 -125.5t45.5 -94.5t73 -60t98 -21
q68 0 112 17.5t64 39.5v177h-174v60h239v-261q-31 -34 -92 -61.5t-153 -27.5z" />
    <glyph glyph-name="H" unicode="H" horiz-adv-x="680" 
d="M92 700h65v-316h366v316h65v-700h-65v323h-366v-323h-65v700z" />
    <glyph glyph-name="I" unicode="I" horiz-adv-x="248" 
d="M92 700h65v-700h-65v700z" />
    <glyph glyph-name="J" unicode="J" horiz-adv-x="461" 
d="M184 -6q-59 0 -99.5 22.5t-65.5 55.5l42 45q22 -27 53 -46.5t72 -19.5q63 0 94 38.5t31 110.5v500h65v-495q0 -105 -50.5 -158t-141.5 -53z" />
    <glyph glyph-name="K" unicode="K" horiz-adv-x="636" 
d="M630 59v-58q-2 0 -15 -1.5t-29 -1.5q-42 0 -70.5 24t-50.5 59.5t-41 77t-44 77t-58.5 59.5t-84.5 24h-80v-319h-65v700h65v-324h94q42 0 85 17t78 55t57.5 100t22.5 152h65q0 -69 -15 -126t-42 -102t-63.5 -77t-79.5 -51q31 -15 54 -42t41.5 -58.5t34.5 -64.5t32.5 -59.5
t35 -43.5t43.5 -17h30z" />
    <glyph glyph-name="L" unicode="L" horiz-adv-x="531" 
d="M92 700h65v-643h358v-57h-423v700z" />
    <glyph glyph-name="M" unicode="M" horiz-adv-x="813" 
d="M92 700h66l250 -525l251 525h62v-700h-63v582l-15 -39l-213 -445h-49l-213 446l-14 38v-582h-62v700z" />
    <glyph glyph-name="N" unicode="N" horiz-adv-x="672" 
d="M92 700h57l358 -568l12 -23v591h61v-700h-57l-361 570l-9 19v-589h-61v700z" />
    <glyph glyph-name="O" unicode="O" horiz-adv-x="708" 
d="M352 -6q-59 0 -113.5 19t-96.5 61t-67 109t-25 164q0 96 25.5 164t68.5 111.5t98 63.5t114 20t113.5 -19t96 -61.5t66.5 -110.5t25 -165q0 -96 -25.5 -163.5t-68 -110t-97.5 -62.5t-114 -20zM352 50q45 0 88 15.5t76 51t53 92.5t20 140q0 85 -19.5 142.5t-52 93
t-74.5 50.5t-87 15t-88 -15.5t-76 -51.5t-53 -93.5t-20 -141.5t19.5 -141t51.5 -92t74.5 -50t87.5 -15z" />
    <glyph glyph-name="P" unicode="P" horiz-adv-x="582" 
d="M92 700h214q115 0 179 -52t64 -162q0 -109 -66.5 -163.5t-176.5 -54.5h-149v-268h-65v700zM304 323q92 0 135 42.5t43 118.5q0 75 -43.5 117.5t-136.5 42.5h-145v-321h147z" />
    <glyph glyph-name="Q" unicode="Q" horiz-adv-x="708" 
d="M391 -4q27 -89 75 -123.5t112 -34.5v-58q-103 0 -164 57t-84 158q-56 3 -106.5 24t-89 63t-61.5 107.5t-23 157.5q0 96 25.5 164t68.5 111.5t98 63.5t114 20t113.5 -19t96 -61.5t66.5 -110.5t25 -165q0 -88 -21.5 -152t-58 -107t-85 -66t-101.5 -29zM119 348
q0 -84 19.5 -141t51.5 -92t74.5 -50t87.5 -15t88 15.5t76 51t53 92.5t20 140q0 85 -19.5 142.5t-52 93t-74.5 50.5t-87 15t-88 -15.5t-76 -51.5t-53 -93.5t-20 -141.5z" />
    <glyph glyph-name="R" unicode="R" horiz-adv-x="624" 
d="M561 -3q-36 0 -60.5 22t-43 55.5t-34 72t-34 72t-42 55.5t-58.5 22h-132v-296h-65v700h222q108 0 169.5 -50t61.5 -154q0 -75 -43 -121t-110 -60q22 -10 38.5 -33t30 -51.5t26 -59t27 -56t32 -41.5t41.5 -16h23v-58q-2 0 -16.5 -1.5t-32.5 -1.5zM306 348q36 0 67.5 9.5
t55 28t36.5 45.5t13 63q0 69 -42.5 109.5t-125.5 40.5h-153v-296h149z" />
    <glyph glyph-name="S" unicode="S" horiz-adv-x="575" 
d="M282 -6q-94 0 -154.5 30t-92.5 88l50 38q52 -100 197 -100q93 0 138.5 34t45.5 96q0 31 -10 54.5t-33 41.5t-60 31.5t-91 23.5q-108 22 -162 64.5t-54 125.5q0 43 16.5 77t47 58t73 37t93.5 13q45 0 86 -9.5t72 -29.5t49.5 -52.5t18.5 -79.5q0 -17 -4 -34l-62 1
q3 17 3 28q0 32 -13 54.5t-35 37t-52 21.5t-63 7q-79 0 -122 -33t-43 -92q0 -29 9.5 -50t31.5 -36.5t57 -27.5t87 -23q63 -13 105.5 -31t69 -42.5t38 -56t11.5 -73.5q0 -89 -64.5 -140t-183.5 -51z" />
    <glyph glyph-name="T" unicode="T" horiz-adv-x="529" 
d="M232 640h-215v60h495v-60h-215v-640h-65v640z" />
    <glyph glyph-name="U" unicode="U" horiz-adv-x="671" 
d="M337 -6q-54 0 -100.5 14.5t-80.5 48t-53.5 89.5t-19.5 140v414h65v-418q0 -124 50.5 -177.5t138.5 -53.5q44 0 78.5 13t59 40.5t37.5 71.5t13 106v418h63v-414q0 -84 -19 -140t-52.5 -89.5t-79.5 -48t-100 -14.5z" />
    <glyph glyph-name="V" unicode="V" horiz-adv-x="607" 
d="M16 700h73l216 -625l217 625h69l-256 -700h-63z" />
    <glyph glyph-name="W" unicode="W" horiz-adv-x="917" 
d="M21 700h74l157 -625l176 625h64l177 -625l156 625h71l-192 -700h-73l-171 605l-173 -605h-73z" />
    <glyph glyph-name="X" unicode="X" horiz-adv-x="563" 
d="M478 0l-198 309l-198 -309h-72l233 352l-224 348h75l191 -300l189 300h72l-224 -345l228 -355h-72z" />
    <glyph glyph-name="Y" unicode="Y" horiz-adv-x="585" 
d="M260 293l-239 407h77l196 -344l197 344h74l-240 -405v-295h-65v293z" />
    <glyph glyph-name="Z" unicode="Z" horiz-adv-x="565" 
d="M531 649l-422 -592h422v-57h-497v51l422 592h-421v57h496v-51z" />
    <glyph glyph-name="bracketleft" unicode="[" horiz-adv-x="282" 
d="M86 726h175v-56h-112v-858h112v-56h-175v970z" />
    <glyph glyph-name="backslash" unicode="\" horiz-adv-x="391" 
d="M23 706h63l283 -931h-64z" />
    <glyph glyph-name="bracketright" unicode="]" horiz-adv-x="282" 
d="M22 -188h112v858h-112v56h175v-970h-175v56z" />
    <glyph glyph-name="asciicircum" unicode="^" horiz-adv-x="350" 
d="M138 718h74l98 -195h-59l-76 145l-76 -145h-58z" />
    <glyph glyph-name="underscore" unicode="_" horiz-adv-x="444" 
d="M46 0h351v-48h-351v48z" />
    <glyph glyph-name="grave" unicode="`" horiz-adv-x="256" 
d="M45 731h79l84 -163h-59z" />
    <glyph glyph-name="a" unicode="a" horiz-adv-x="538" 
d="M240 -12q-43 0 -79.5 17.5t-62 49.5t-40 77.5t-14.5 102.5t14.5 104.5t41 81.5t64.5 53t86 19q51 0 89 -21t61 -59v69h57v-380q0 -29 9.5 -41.5t32.5 -12.5v-47q-5 -2 -13 -2.5t-16 -0.5q-32 0 -51 19t-19 53v15q-19 -42 -59 -69.5t-101 -27.5zM256 41q54 0 90 32.5
t48 85.5v173q-12 45 -46.5 76.5t-87.5 31.5q-73 0 -112 -53.5t-39 -151.5q0 -89 39 -141.5t108 -52.5z" />
    <glyph glyph-name="b" unicode="b" horiz-adv-x="531" 
d="M282 -12q-33 0 -58.5 9t-44.5 22.5t-31 29.5t-18 30v-79h-57v726h63v-326q7 17 20 33.5t32 29.5t44.5 21.5t57.5 8.5q43 0 79 -17t62 -49.5t40.5 -78.5t14.5 -103q0 -59 -15 -106.5t-42 -81t-64.5 -51.5t-82.5 -18zM272 41q70 0 110 52t40 151q0 91 -40.5 143t-106.5 52
q-30 0 -53 -9.5t-40.5 -26t-28.5 -37.5t-17 -44v-172q5 -13 14.5 -31.5t25.5 -35.5t39.5 -29.5t56.5 -12.5z" />
    <glyph glyph-name="c" unicode="c" horiz-adv-x="470" 
d="M262 -12q-100 0 -158.5 66.5t-58.5 187.5q0 60 15.5 106.5t43 78.5t67 49t87.5 17q81 0 125.5 -37.5t44.5 -108.5q0 -13 -2 -27t-4 -22h-56q5 17 5 41q0 50 -29.5 75.5t-84.5 25.5q-67 0 -107.5 -50.5t-40.5 -146.5t42.5 -149t111.5 -53q51 0 81 19.5t50 49.5l40 -33
q-23 -37 -64.5 -63t-107.5 -26z" />
    <glyph glyph-name="d" unicode="d" horiz-adv-x="538" 
d="M240 -12q-43 0 -79.5 17.5t-62 49.5t-40 77.5t-14.5 102.5t14.5 104.5t41 81.5t64.5 53t86 19q51 0 88 -22.5t56 -56.5v312h63v-624q0 -29 9.5 -41.5t32.5 -12.5v-47q-5 -2 -13 -2.5t-16 -0.5q-32 0 -51 19t-19 53v20q-20 -43 -59.5 -72.5t-100.5 -29.5zM256 42
q53 0 89 32t49 85v173q-12 45 -46.5 76.5t-87.5 31.5q-73 0 -112 -53.5t-39 -151.5q0 -88 39 -140.5t108 -52.5z" />
    <glyph glyph-name="e" unicode="e" horiz-adv-x="471" 
d="M432 78q-58 -90 -180 -90q-97 0 -152.5 60.5t-55.5 178.5q0 57 16.5 105.5t46.5 84.5t72 56t93 20q70 0 111 -35t41 -96q0 -53 -29 -85.5t-75 -50.5t-101.5 -25t-108.5 -10q10 -78 48.5 -113.5t98.5 -35.5q51 0 81 18t54 51zM270 440q-37 0 -66.5 -14.5t-50.5 -41
t-32.5 -63t-12.5 -81.5q41 2 86 7.5t83 18t63 35t25 59.5q0 42 -25.5 61t-69.5 19z" />
    <glyph glyph-name="f" unicode="f" horiz-adv-x="319" 
d="M93 428h-70v54h71v80q0 78 40.5 123t112.5 45q38 0 65 -12t46 -32l-32 -44q-14 17 -32.5 25t-45.5 8q-42 0 -67.5 -27.5t-25.5 -83.5v-82h152v-54h-152v-428h-62v428z" />
    <glyph glyph-name="g" unicode="g" horiz-adv-x="529" 
d="M254 -240q-69 0 -115 26t-67 67l44 34q17 -32 52.5 -52.5t87.5 -20.5q66 0 103 36.5t37 101.5v134q-17 -39 -57.5 -67.5t-100.5 -28.5q-43 0 -79 17.5t-61.5 50t-39.5 78t-14 101.5q0 57 14 103.5t40 80.5t63.5 52.5t84.5 18.5q51 0 90.5 -22.5t62.5 -60.5v73h57v-530
q0 -88 -54.5 -140t-147.5 -52zM255 44q54 0 89.5 32t48.5 84v172q-5 21 -17 40.5t-30 34t-41 23.5t-50 9q-70 0 -108 -52.5t-38 -149.5q0 -88 38 -140.5t108 -52.5z" />
    <glyph glyph-name="h" unicode="h" horiz-adv-x="529" 
d="M468 -2q-39 0 -57.5 23.5t-18.5 65.5v220q0 54 -29 92t-91 38q-35 0 -61 -14t-42.5 -36t-24.5 -48.5t-8 -51.5v-287h-63v726h63v-334q15 40 53 70t98 30q45 0 77 -14.5t52.5 -40t29.5 -60t9 -73.5v-205q0 -30 9.5 -41t32.5 -11v-46q-5 -2 -13 -2.5t-16 -0.5z" />
    <glyph glyph-name="i" unicode="i" horiz-adv-x="215" 
d="M108 590q-19 0 -33 13.5t-14 33.5t14 34t33 14q20 0 34 -14t14 -34t-14 -33.5t-34 -13.5zM76 482h63v-482h-63v482z" />
    <glyph glyph-name="j" unicode="j" horiz-adv-x="218" 
d="M111 590q-20 0 -34 13.5t-14 33.5t14 34t34 14q19 0 33 -14t14 -34t-14 -33.5t-33 -13.5zM-7 -247q-22 0 -38 4t-27 9q-13 6 -22 13l20 45q7 -5 16 -9q8 -3 19 -5.5t26 -2.5q46 0 69.5 28.5t23.5 90.5v556h62v-558q0 -82 -35.5 -126.5t-113.5 -44.5z" />
    <glyph glyph-name="k" unicode="k" horiz-adv-x="496" 
d="M488 48v-46l-8 -2t-9 -1.5t-11 -0.5q-45 0 -70.5 16.5t-42 41.5t-28.5 53.5t-30 53.5t-46.5 41.5t-77.5 16.5h-29v-221h-63v726h63v-452h51q48 0 82 14.5t55.5 41.5t32 65.5t11.5 86.5h59q-1 -27 -5.5 -61.5t-19.5 -68.5t-42.5 -63.5t-73.5 -47.5q40 -18 59.5 -50.5
t35.5 -64t36 -55t61 -23.5h10z" />
    <glyph glyph-name="l" unicode="l" horiz-adv-x="221" 
d="M152 -3q-38 0 -57 21t-19 66v642h63v-631q0 -28 10 -37t33 -9v-49q-5 -2 -13.5 -2.5t-16.5 -0.5z" />
    <glyph glyph-name="m" unicode="m" horiz-adv-x="850" 
d="M789 -2q-39 0 -57.5 23.5t-18.5 65.5v217q0 56 -28 95t-90 39q-32 0 -57 -13t-42 -34.5t-26 -49.5t-9 -57v-284h-63v304q0 56 -28.5 95t-90.5 39q-35 0 -60.5 -14t-42 -36.5t-24.5 -50t-8 -53.5v-284h-63v385q0 31 -9.5 41.5t-32.5 10.5v47q4 1 12 2t17 1q69 0 69 -81
v-25q7 21 19.5 41t31.5 35.5t45 25t60 9.5q69 0 106.5 -32.5t50.5 -84.5q6 23 19.5 44t34 37t47 26t57.5 10q47 0 79 -15t52 -40.5t28.5 -60t8.5 -72.5v-205q0 -30 9.5 -41t32.5 -11v-46q-4 -2 -12 -2.5t-17 -0.5z" />
    <glyph glyph-name="n" unicode="n" horiz-adv-x="537" 
d="M476 -2q-40 0 -58.5 23.5t-18.5 65.5v218q0 63 -30.5 98.5t-88.5 35.5q-31 0 -56 -12t-43 -32.5t-27.5 -48.5t-9.5 -61v-285h-63v386q0 30 -9.5 41t-32.5 11v46q9 3 29 3q69 0 69 -80v-23q19 52 60 80.5t98 28.5q80 0 123.5 -49t43.5 -139v-206q0 -30 9.5 -41t32.5 -11
v-46q-9 -3 -28 -3z" />
    <glyph glyph-name="o" unicode="o" horiz-adv-x="519" 
d="M257 -12q-97 0 -154.5 65.5t-57.5 187.5q0 61 16 108t45 79t68.5 48.5t87.5 16.5q97 0 154.5 -65t57.5 -187q0 -60 -16 -107.5t-44.5 -79.5t-68.5 -49t-88 -17zM259 41q65 0 108 50t43 150t-42 149.5t-108 49.5q-64 0 -107.5 -49.5t-43.5 -149.5t42.5 -150t107.5 -50z
" />
    <glyph glyph-name="p" unicode="p" horiz-adv-x="538" 
d="M81 385q0 31 -9.5 41.5t-32.5 10.5v47q4 1 12 2t17 1q70 0 70 -81v-15q20 44 59.5 73t100.5 29q44 0 80 -17.5t62 -49.5t40 -78t14 -102q0 -57 -14.5 -104.5t-41.5 -81.5t-65 -53t-86 -19q-49 0 -87 22.5t-56 57.5v-297h-63v614zM279 41q72 0 111.5 53.5t39.5 151.5
q0 91 -41 142t-107 51q-54 0 -89.5 -32.5t-48.5 -84.5v-172q14 -47 48.5 -78t86.5 -31z" />
    <glyph glyph-name="q" unicode="q" horiz-adv-x="531" 
d="M394 80q-7 -16 -20 -32t-32 -29.5t-44 -22t-57 -8.5q-45 0 -81 17.5t-62 49.5t-40 78.5t-14 103.5q0 59 15.5 106t42.5 80.5t65 51.5t83 18q33 0 59 -9.5t44.5 -23t30 -29t17.5 -27.5v78h56v-716h-63v314zM255 42q52 0 88.5 31t50.5 87v171q-6 22 -17.5 41.5t-29 34.5
t-39.5 24t-49 9q-72 0 -111 -54.5t-39 -147.5q0 -95 40.5 -145.5t105.5 -50.5z" />
    <glyph glyph-name="r" unicode="r" horiz-adv-x="349" 
d="M81 386q0 29 -9.5 40.5t-32.5 11.5v47q5 1 12.5 2t16.5 1q69 0 69 -76v-28q14 51 54 80t94 29q17 0 34 -4t26 -9l-25 -59q-8 4 -21.5 7t-27.5 3q-30 0 -53.5 -13t-40 -35.5t-25 -52.5t-8.5 -65v-265h-63v386z" />
    <glyph glyph-name="s" unicode="s" horiz-adv-x="457" 
d="M229 -12q-65 0 -117 21t-81 75l45 37q29 -49 68 -64.5t85 -15.5q62 0 93.5 21.5t31.5 61.5q0 24 -11.5 39t-30 24.5t-43 15.5t-51.5 11q-30 6 -59.5 14.5t-53 24t-38 40t-14.5 61.5q0 63 47 101t130 38q81 0 128 -35t47 -100q0 -11 -2 -23.5t-6 -21.5h-56q2 7 4 18t2 22
q0 42 -31.5 64.5t-86.5 22.5q-57 0 -86 -22t-29 -62q0 -24 11.5 -38.5t31 -24.5t44.5 -15.5t51 -11.5q30 -6 59 -14.5t52 -23.5t37.5 -39t14.5 -61q0 -69 -50.5 -104.5t-135.5 -35.5z" />
    <glyph glyph-name="t" unicode="t" horiz-adv-x="387" 
d="M259 -8q-79 0 -116 41.5t-37 129.5v264h-90v55h92v140h61v-140h192v-55h-192v-262q0 -60 23.5 -87.5t73.5 -27.5q27 0 51.5 11.5t40.5 27.5l26 -48q-20 -21 -55 -35t-70 -14z" />
    <glyph glyph-name="u" unicode="u" horiz-adv-x="527" 
d="M229 -12q-74 0 -117.5 42t-43.5 129v323h63v-316q0 -69 31.5 -96.5t83.5 -27.5q35 0 60.5 14.5t42.5 36t25.5 47t8.5 47.5v295h63v-382q0 -29 9.5 -41t32.5 -12v-46q-2 -1 -9 -2t-20 -1q-69 0 -69 75v22q-9 -21 -22.5 -40t-33 -34t-45.5 -24t-60 -9z" />
    <glyph glyph-name="v" unicode="v" horiz-adv-x="473" 
d="M454 482l-183 -483h-69l-183 483h68l135 -366l17 -53l17 53l135 366h63z" />
    <glyph glyph-name="w" unicode="w" horiz-adv-x="713" 
d="M693 482l-152 -483h-71l-99 349l-11 48l-12 -48l-104 -349h-72l-150 483h69l99 -348l19 -73l19 73l104 348h56l101 -347l18 -74l19 74l102 347h65z" />
    <glyph glyph-name="x" unicode="x" horiz-adv-x="445" 
d="M360 0l-138 206l-138 -206h-71l170 248l-160 234h75l124 -192l129 192h71l-160 -235l170 -247h-72z" />
    <glyph glyph-name="y" unicode="y" horiz-adv-x="520" 
d="M247 -247q-76 0 -121 25.5t-64 67.5l44 32q17 -33 51 -52t90 -19q65 0 102 36.5t37 101.5v155q-18 -50 -61 -78.5t-100 -28.5q-157 0 -157 170v319h63v-312q0 -123 113 -123q27 0 52.5 12.5t44.5 33.5t30.5 48.5t11.5 57.5v283h63v-541q-1 -87 -54.5 -137.5t-144.5 -50.5
z" />
    <glyph glyph-name="z" unicode="z" horiz-adv-x="481" 
d="M191 246q36 -5 80.5 -21t84 -47.5t66.5 -81.5t27 -124q0 -53 -17 -92.5t-46 -66.5t-67 -40.5t-81 -13.5t-79 12.5t-62 36t-41 57.5t-15 78q0 50 17 89t42.5 68t55.5 49.5t55 32.5q-48 11 -97 14v56l221 176h-282v54h366v-53zM239 -188q65 0 107.5 40.5t42.5 119.5
q0 74 -33.5 119.5t-88.5 70.5q-25 -11 -54 -28.5t-54 -43.5t-41.5 -61t-16.5 -80q0 -66 39 -101.5t99 -35.5z" />
    <glyph glyph-name="braceleft" unicode="{" horiz-adv-x="291" 
d="M267 -234q-30 -6 -59.5 -1t-52.5 23t-37 49.5t-14 78.5v231q0 36 -19.5 51.5t-44.5 15.5h-10v54h10q25 0 44.5 15.5t19.5 51.5v231q0 47 14 78.5t37 49.5t52.5 23t59.5 -1v-57q-48 13 -75 -15.5t-27 -86.5v-235q0 -23 -6 -38t-14 -24t-16 -13.5t-13 -5.5q4 -1 12 -5.5
t16.5 -14t14.5 -24.5t6 -37v-235q0 -59 27 -87t75 -15v-57z" />
    <glyph glyph-name="bar" unicode="|" horiz-adv-x="227" 
d="M86 736h56v-990h-56v990z" />
    <glyph glyph-name="braceright" unicode="}" horiz-adv-x="291" 
d="M24 716q30 6 59.5 1t52.5 -23t37 -49.5t14 -78.5v-231q0 -36 20 -51.5t44 -15.5h10v-54h-10q-24 0 -44 -15.5t-20 -51.5v-231q0 -47 -14 -78.5t-37 -49.5t-52.5 -23t-59.5 1v57q48 -13 75 15.5t27 86.5v235q0 23 6 38t14 24t16.5 13.5t12.5 5.5q-4 1 -12 6t-16 14.5
t-14.5 24.5t-6.5 36v235q0 59 -27 87t-75 15v57z" />
    <glyph glyph-name="asciitilde" unicode="~" horiz-adv-x="424" 
d="M76 193q-3 5 -5 12q-2 6 -3.5 14t-1.5 18q0 29 18.5 49t55.5 20q21 0 39 -5.5t34.5 -12t33 -12t33.5 -5.5q25 0 25 23q0 7 -1.5 13t-2.5 11q-2 5 -5 9h53q3 -5 5 -12q1 -6 2.5 -13t1.5 -16q0 -28 -17.5 -47t-53.5 -19q-24 0 -43.5 5.5t-36 12t-30.5 12t-29 5.5
q-13 0 -21.5 -7.5t-8.5 -21.5q0 -7 1.5 -13t4.5 -11q2 -5 5 -9h-53z" />
    <glyph glyph-name="exclamdown" unicode="&#xa1;" horiz-adv-x="218" 
d="M110 497q18 0 31.5 -13t13.5 -32q0 -18 -13.5 -31.5t-31.5 -13.5q-19 0 -32.5 13.5t-13.5 31.5q0 19 13.5 32t32.5 13zM144 -213h-71l9 511h54z" />
    <glyph glyph-name="cent" unicode="&#xa2;" horiz-adv-x="469" 
d="M227 107q-38 5 -71 22t-57 47.5t-38 75t-14 103.5q0 116 46.5 179.5t133.5 71.5v94h51v-93q30 -2 55 -12.5t43.5 -24.5t30.5 -29.5t18 -28.5l-52 -30q-3 7 -10 17.5t-19 21t-28.5 19t-37.5 11.5v-392q32 3 54.5 14t36.5 25t21.5 27.5t8.5 21.5l37 -31q-2 -9 -11.5 -26
t-28 -35t-47.5 -32t-71 -17v-106h-51v107zM227 550q-56 -8 -87 -55t-31 -139q0 -45 9.5 -78.5t25.5 -56.5t37.5 -37t45.5 -19v385z" />
    <glyph glyph-name="sterling" unicode="&#xa3;" horiz-adv-x="563" 
d="M529 57v-57h-470v43q39 25 66 68.5t27 91.5q0 8 -0.5 15.5t-1.5 15.5h-97v56h84q-9 27 -21 51t-23 49t-18.5 53t-7.5 63q0 42 15.5 78t44.5 62.5t71 41t96 14.5q38 0 76 -8t69 -27.5t50 -52t19 -81.5q0 -11 -1 -22.5t-3 -23.5h-62q3 20 3 37q0 35 -13 58.5t-34.5 37.5
t-48.5 19.5t-54 5.5q-77 0 -119.5 -36.5t-42.5 -99.5q0 -30 8 -56.5t19.5 -52.5t24 -52.5t21.5 -57.5h231v-56h-221q1 -7 1 -13.5v-13.5q0 -21 -5.5 -43t-14.5 -42t-21.5 -37t-26.5 -28h380z" />
    <glyph glyph-name="currency" unicode="&#xa4;" horiz-adv-x="557" 
d="M52 183l81 82q-24 39 -24 89q0 23 6.5 45.5t17.5 42.5l-80 81l33 34l79 -80q22 22 51 34.5t63 12.5q33 0 62 -12.5t51 -34.5l78 80l34 -34l-80 -81q12 -20 19 -42.5t7 -46.5q0 -49 -26 -89l79 -78l-34 -34l-77 77q-21 -21 -50.5 -33.5t-62.5 -12.5q-34 -1 -63 12t-51 35
l-79 -81zM279 233q25 0 46.5 9.5t38 26t26 38t9.5 46.5q0 26 -9.5 48t-26 38t-38 25.5t-46.5 9.5t-46.5 -9.5t-38 -26t-26 -38t-9.5 -46.5t9.5 -47t25.5 -38.5t38 -26t47 -9.5z" />
    <glyph glyph-name="yen" unicode="&#xa5;" horiz-adv-x="610" 
d="M272 223h-179v50h179v31l-38 59h-141v50h109l-179 287h78l204 -339l204 339h78l-180 -287h110v-50h-141l-38 -59v-31h179v-50h-179v-223h-66v223z" />
    <glyph glyph-name="brokenbar" unicode="&#xa6;" horiz-adv-x="227" 
d="M86 736h56v-412h-56v412zM86 166h56v-420h-56v420z" />
    <glyph glyph-name="section" unicode="&#xa7;" horiz-adv-x="603" 
d="M297 -247q-44 0 -84.5 9t-74.5 24.5t-59.5 37.5t-40.5 49l42 38q14 -23 36.5 -41t51 -31.5t62 -20.5t67.5 -7q92 0 141 35.5t49 95.5q0 52 -32 78.5t-79.5 40.5t-103.5 23t-103.5 27.5t-79.5 53.5t-32 101q0 67 56 121q-56 50 -56 130q0 41 16 75.5t46.5 59.5t75 39.5
t101.5 14.5q64 0 109 -16t74 -37.5t44 -42.5t18 -31l-49 -34q-3 9 -16 26.5t-36.5 35t-58 30t-81.5 12.5q-90 0 -133 -37.5t-43 -94.5q0 -52 32 -77.5t79.5 -39t103.5 -22.5t103.5 -28.5t79.5 -56.5t32 -106q0 -35 -13.5 -66.5t-36.5 -51.5q23 -22 36.5 -53t13.5 -72
q0 -39 -16 -73.5t-48.5 -61t-80.5 -41.5t-112 -15zM454 99q15 16 24 39t9 47q0 37 -15.5 60t-41.5 38t-59.5 23.5t-70 16t-72.5 15.5t-67 22q-17 -15 -27 -37.5t-10 -48.5q0 -35 15.5 -57.5t42 -36.5t60.5 -22.5t70.5 -16.5t73 -17.5t68.5 -24.5z" />
    <glyph glyph-name="dieresis" unicode="&#xa8;" horiz-adv-x="341" 
d="M86 592q-17 0 -30 12.5t-13 30.5q0 17 13 30t30 13t29.5 -13t12.5 -30q0 -18 -12.5 -30.5t-29.5 -12.5zM256 592q-17 0 -30 12.5t-13 30.5q0 17 13 30t30 13t29.5 -13t12.5 -30q0 -18 -12.5 -30.5t-29.5 -12.5z" />
    <glyph glyph-name="copyright" unicode="&#xa9;" horiz-adv-x="852" 
d="M425 -17q-83 0 -152.5 28t-120 78.5t-78.5 120.5t-28 153t28 152.5t78.5 120t120 79t152.5 28.5t153 -28.5t120.5 -79t79 -120t28.5 -152.5t-28 -153t-78.5 -120.5t-120.5 -78.5t-154 -28zM425 38q71 0 130.5 24t102.5 67.5t67 103t24 130.5q0 72 -24 132t-67.5 104
t-102.5 68.5t-130 24.5q-70 0 -129.5 -24.5t-102.5 -68.5t-67 -104t-24 -132q0 -71 24 -131t67 -103t102.5 -67t129.5 -24zM430 114q-48 0 -86.5 17t-65.5 48.5t-41.5 76t-14.5 99.5q0 122 55.5 190.5t154.5 68.5q37 0 68 -11t53.5 -30.5t35 -46t12.5 -56.5l-51 -7
q-15 97 -119 97q-70 0 -109 -53.5t-39 -149.5q0 -88 40.5 -138.5t112.5 -50.5q29 0 48.5 5t34 12.5t24 18t17.5 20.5l38 -34q-19 -29 -58 -52.5t-110 -23.5z" />
    <glyph glyph-name="ordfeminine" unicode="&#xaa;" horiz-adv-x="353" 
d="M135 413q-39 0 -63.5 20t-24.5 55q0 36 26 57t83 21h74v35q0 33 -15 47t-46 14q-56 0 -56 -40q0 -18 2 -20h-49q0 1 -2 7.5t-2 20.5q0 33 27.5 55t78.5 22q112 0 112 -102v-123q0 -14 4.5 -18.5t18.5 -4.5v-40q-2 -1 -5 -2q-8 -2 -18 -2q-20 0 -33.5 10t-13.5 32v8
q-12 -21 -35.5 -36.5t-62.5 -15.5zM146 454q21 0 37 6.5t26.5 16.5t15.5 21t5 21v13h-74q-32 0 -46 -10.5t-14 -29.5q0 -20 13.5 -29t36.5 -9z" />
    <glyph glyph-name="guillemotleft" unicode="&#xab;" horiz-adv-x="451" 
d="M39 228v55l149 143l35 -39l-132 -131l132 -132l-35 -39zM216 228v55l149 143l35 -39l-133 -131l133 -132l-35 -39z" />
    <glyph glyph-name="registered" unicode="&#xae;" horiz-adv-x="852" 
d="M425 -17q-83 0 -152.5 28t-120 78.5t-78.5 120t-28 153.5t28.5 153.5t78.5 120t120 78.5t152 28q83 0 153 -28t120.5 -78.5t79 -120t28.5 -153.5t-28.5 -153.5t-79 -120t-120.5 -78.5t-153 -28zM425 38q71 0 130.5 24.5t102.5 67.5t67 103t24 130q0 71 -24 131.5
t-67 104.5t-102.5 68.5t-130.5 24.5q-70 0 -129.5 -24.5t-102.5 -68.5t-67 -104t-24 -132q0 -71 24 -130.5t66.5 -103t102 -67.5t130.5 -24zM601 127q-30 0 -49.5 14.5t-33 37t-23.5 48t-21.5 48t-26.5 37t-39 14.5h-93v-197h-58v473h166q72 0 112 -34t40 -104
q0 -37 -13 -60t-29 -36.5t-30.5 -18.5t-17.5 -5q24 -12 37 -39.5t24 -55.5t25 -49.5t40 -21.5h17v-50q-5 0 -12 -0.5t-15 -0.5zM411 375q104 0 104 86q0 90 -102 90h-98v-176h96z" />
    <glyph glyph-name="macron" unicode="&#xaf;" horiz-adv-x="370" 
d="M54 662h261v-48h-261v48z" />
    <glyph glyph-name="degree" unicode="&#xb0;" horiz-adv-x="324" 
d="M162 466q-25 0 -47 9.5t-38.5 26t-26 38.5t-9.5 47t9.5 47.5t26 39t38.5 26t47 9.5t47.5 -9.5t39 -26t26 -39t9.5 -47.5t-9.5 -47t-26 -38.5t-39 -26t-47.5 -9.5zM162 503q35 0 60 24.5t25 59.5t-25 60t-60 25t-59.5 -25t-24.5 -60t24.5 -59.5t59.5 -24.5z" />
    <glyph glyph-name="plusminus" unicode="&#xb1;" horiz-adv-x="467" 
d="M208 314h-149v48h149v157h50v-157h150v-48h-150v-163h-50v163zM58 75h350v-48h-350v48z" />
    <glyph glyph-name="acute" unicode="&#xb4;" horiz-adv-x="256" 
d="M133 731h79l-105 -163h-59z" />
    <glyph glyph-name="paragraph" unicode="&#xb6;" horiz-adv-x="574" 
d="M308 276h-70q-51 0 -90 15.5t-65 43.5t-39 67t-13 85q0 47 13 86t39 67.5t65 44t90 15.5h244v-700h-43v665h-90v-665h-41v276z" />
    <glyph glyph-name="periodcentered" unicode="&#xb7;" horiz-adv-x="209" 
d="M105 308q-20 0 -33.5 13.5t-13.5 33.5t13.5 33.5t33.5 13.5t33.5 -13.5t13.5 -33.5t-13.5 -33.5t-33.5 -13.5z" />
    <glyph glyph-name="cedilla" unicode="&#xb8;" horiz-adv-x="266" 
d="M127 -175q-18 0 -31.5 4.5t-22.5 9.5q-11 7 -19 15l17 32q7 -6 15 -12q8 -4 18 -7.5t23 -3.5q45 0 45 33q0 14 -17.5 27t-62.5 13l28 67h40l-17 -40q24 -2 46.5 -18.5t22.5 -49.5q0 -34 -23.5 -52t-61.5 -18z" />
    <glyph glyph-name="ordmasculine" unicode="&#xba;" horiz-adv-x="349" 
d="M175 413q-60 0 -95.5 38t-35.5 109q0 69 35.5 107t95.5 38q58 0 93.5 -37.5t35.5 -107.5t-35.5 -108.5t-93.5 -38.5zM175 460q31 0 52.5 24.5t21.5 74.5q0 51 -22 76t-52 25q-32 0 -54 -25t-22 -76t21.5 -75t54.5 -24z" />
    <glyph glyph-name="guillemotright" unicode="&#xbb;" horiz-adv-x="451" 
d="M51 123l132 131l-132 132l35 40l149 -144v-55l-149 -143zM228 123l132 131l-132 132l35 40l148 -144v-55l-148 -143z" />
    <glyph glyph-name="onequarter" unicode="&#xbc;" horiz-adv-x="620" 
d="M366 726h53l-220 -726h-53zM115 616q-7 -15 -32 -32.5t-63 -17.5l-4 46q45 2 69 29t30 60h51v-382h-51v297zM499 88h-191v39l131 255h56l-128 -250h133v93h51v-93h51v-44h-51v-88h-52v88z" />
    <glyph glyph-name="onehalf" unicode="&#xbd;" horiz-adv-x="620" 
d="M359 726h54l-221 -726h-53zM109 616q-8 -15 -33 -32.5t-63 -17.5l-3 46q44 2 68.5 29t29.5 60h51v-382h-50v297zM335 28q0 31 15 53.5t38 40t49 32.5t49 31.5t38 36.5t15 47q0 34 -19.5 52.5t-56.5 18.5q-25 0 -41 -7t-25 -17t-12 -21t-3 -19h-48q0 17 6 36t21 35.5
t40 27.5t64 11q63 0 94.5 -31t31.5 -85q0 -34 -15 -59t-37.5 -44t-48.5 -34t-48.5 -28t-37.5 -27t-15 -31v-4h213v-43h-267v28z" />
    <glyph glyph-name="threequarters" unicode="&#xbe;" horiz-adv-x="707" 
d="M466 726h54l-220 -726h-54zM164 315q-48 0 -81 16.5t-53 55.5l40 26q16 -29 38.5 -42t57.5 -13q82 0 82 67q0 35 -22.5 52t-58.5 17h-31v42h24q34 0 53 16.5t19 45.5q0 30 -19 46.5t-51 16.5q-31 0 -52.5 -14.5t-21.5 -48.5h-48q0 28 10.5 48.5t27.5 34t38.5 20t44.5 6.5
q57 0 89.5 -27t32.5 -75q0 -34 -16.5 -54t-39.5 -29q70 -21 70 -97q0 -50 -33.5 -80t-99.5 -30zM600 88h-191v39l131 255h56l-129 -250h134v93h50v-93h52v-44h-52v-88h-51v88z" />
    <glyph glyph-name="questiondown" unicode="&#xbf;" horiz-adv-x="436" 
d="M240 497q18 0 31.5 -13t13.5 -31q0 -19 -13.5 -32.5t-31.5 -13.5q-19 0 -32 13.5t-13 32.5q0 18 13 31t32 13zM268 304q0 -55 -12.5 -91t-31.5 -61.5t-41.5 -44.5t-41.5 -39.5t-31.5 -46t-12.5 -64.5q0 -52 31 -86t94 -34q59 0 95 33.5t36 90.5h60q0 -41 -15 -74.5
t-41 -57t-61 -36.5t-76 -13q-51 0 -86.5 15t-58.5 39t-33.5 55.5t-10.5 64.5q0 47 13 77.5t33 53t42.5 41.5t42.5 42.5t33 55.5t13 80h60z" />
    <glyph glyph-name="Agrave" unicode="&#xc0;" horiz-adv-x="620" 
d="M292 742l-104 123h86l83 -123h-65zM464 206h-308l-75 -206h-66l262 700h66l262 -700h-66zM443 262l-133 365l-133 -365h266z" />
    <glyph glyph-name="Aacute" unicode="&#xc1;" horiz-adv-x="620" 
d="M319 742h-63l83 123h84zM464 206h-308l-75 -206h-66l262 700h66l262 -700h-66zM443 262l-133 365l-133 -365h266z" />
    <glyph glyph-name="Acircumflex" unicode="&#xc2;" horiz-adv-x="620" 
d="M245 742h-58l88 123h72l87 -123h-59l-66 77zM464 206h-308l-75 -206h-66l262 700h66l262 -700h-66zM443 262l-133 365l-133 -365h266z" />
    <glyph glyph-name="Atilde" unicode="&#xc3;" horiz-adv-x="620" 
d="M180 749q-5 8 -7.5 18t-2.5 23q0 26 18.5 44.5t52.5 18.5q21 0 38 -7t32.5 -16t30 -16t29.5 -7q25 0 25 27q0 8 -2 13.5t-4 9.5h50q5 -8 7.5 -18t2.5 -24q0 -26 -18.5 -44.5t-56.5 -18.5q-22 0 -39.5 7.5t-32.5 16t-28 16t-26 7.5q-11 0 -18.5 -7.5t-7.5 -20.5t7 -22h-50
zM464 206h-308l-75 -206h-66l262 700h66l262 -700h-66zM443 262l-133 365l-133 -365h266z" />
    <glyph glyph-name="Adieresis" unicode="&#xc4;" horiz-adv-x="620" 
d="M219 756q-20 0 -34 14t-14 34t14 34.5t34 14.5t34 -14.5t14 -34.5t-14 -34t-34 -14zM407 756q-20 0 -34 14t-14 34t14 34.5t34 14.5t34 -14.5t14 -34.5t-14 -34t-34 -14zM464 206h-308l-75 -206h-66l262 700h66l262 -700h-66zM443 262l-133 365l-133 -365h266z" />
    <glyph glyph-name="Aring" unicode="&#xc5;" horiz-adv-x="620" 
d="M310 704q-45 0 -74 28.5t-29 73.5t29 74.5t74 29.5t74 -29.5t29 -74.5q0 -44 -29 -73t-74 -29zM310 862q-25 0 -39 -15t-14 -41t14 -41t39 -15t39.5 15t14.5 41t-14.5 41t-39.5 15zM464 206h-308l-75 -206h-66l262 700h66l262 -700h-66zM443 262l-133 365l-133 -365h266z
" />
    <glyph glyph-name="AE" unicode="&#xc6;" horiz-adv-x="803" 
d="M278 700h484v-56h-402l98 -263h245v-57h-223l100 -268h182v-56h-228l-76 207h-304l-76 -207h-64zM438 261l-131 356l-132 -356h263z" />
    <glyph glyph-name="Ccedilla" unicode="&#xc7;" horiz-adv-x="609" 
d="M575 113q-38 -56 -89.5 -85.5t-121.5 -33.5l-12 -34q35 -5 56.5 -22t21.5 -52q0 -37 -28 -56.5t-71 -19.5q-23 0 -44 6.5t-35 20.5l22 39q24 -21 55 -21q19 0 30 8t11 25q0 18 -19.5 28.5t-55.5 12.5l25 66q-62 5 -112 31.5t-85 72.5t-54 109t-19 140q0 83 20.5 149
t59 112.5t93.5 71.5t123 25q102 0 161.5 -50t59.5 -138q0 -34 -8 -58h-59q3 17 4 26t1 22q0 67 -43.5 104.5t-118.5 37.5q-53 0 -94.5 -20.5t-70.5 -59.5t-44 -95t-15 -127q0 -69 16.5 -124t46.5 -93.5t72.5 -59.5t93.5 -21q63 0 107.5 25t75.5 74z" />
    <glyph glyph-name="Egrave" unicode="&#xc8;" horiz-adv-x="560" 
d="M193 865h86l83 -123h-65zM92 700h424v-60h-359v-254h310v-61h-310v-265h359v-60h-424v700z" />
    <glyph glyph-name="Eacute" unicode="&#xc9;" horiz-adv-x="560" 
d="M344 865h84l-104 -123h-63zM92 700h424v-60h-359v-254h310v-61h-310v-265h359v-60h-424v700z" />
    <glyph glyph-name="Ecircumflex" unicode="&#xca;" horiz-adv-x="560" 
d="M279 865h73l87 -123h-60l-65 77l-65 -77h-57zM92 700h424v-60h-359v-254h310v-61h-310v-265h359v-60h-424v700z" />
    <glyph glyph-name="Edieresis" unicode="&#xcb;" horiz-adv-x="560" 
d="M223 756q-20 0 -33.5 14t-13.5 34t13.5 34.5t33.5 14.5t34 -14.5t14 -34.5t-14 -34t-34 -14zM412 756q-20 0 -34 14t-14 34t14 34.5t34 14.5t33.5 -14.5t13.5 -34.5t-13.5 -34t-33.5 -14zM92 700h424v-60h-359v-254h310v-61h-310v-265h359v-60h-424v700z" />
    <glyph glyph-name="Igrave" unicode="&#xcc;" horiz-adv-x="248" 
d="M2 865h86l83 -123h-65zM92 700h65v-700h-65v700z" />
    <glyph glyph-name="Iacute" unicode="&#xcd;" horiz-adv-x="248" 
d="M153 865h84l-104 -123h-63zM92 700h65v-700h-65v700z" />
    <glyph glyph-name="Icircumflex" unicode="&#xce;" horiz-adv-x="248" 
d="M88 865h73l87 -123h-60l-65 77l-65 -77h-57zM92 700h65v-700h-65v700z" />
    <glyph glyph-name="Idieresis" unicode="&#xcf;" horiz-adv-x="248" 
d="M32 756q-20 0 -33.5 14t-13.5 34t13.5 34.5t33.5 14.5t34 -14.5t14 -34.5t-14 -34t-34 -14zM221 756q-20 0 -34 14t-14 34t14 34.5t34 14.5t33.5 -14.5t13.5 -34.5t-13.5 -34t-33.5 -14zM92 700h65v-700h-65v700z" />
    <glyph glyph-name="Eth" unicode="&#xd0;" horiz-adv-x="697" 
d="M303 700q74 0 137.5 -20.5t109.5 -63t72 -108.5t26 -157t-26.5 -157.5t-73 -109.5t-108 -63.5t-132.5 -20.5h-203v323h-94v56h94v321h198zM304 59q62 0 112.5 17t86.5 52.5t56 90t20 130.5q0 77 -21 132.5t-58 91t-88 52.5t-111 17h-131v-263h101v-56h-101v-264h134z" />
    <glyph glyph-name="Ntilde" unicode="&#xd1;" horiz-adv-x="672" 
d="M216 749q-5 8 -7.5 18t-2.5 23q0 26 18.5 44.5t52.5 18.5q21 0 38 -7t32.5 -16t30 -16t29.5 -7q25 0 25 27q0 8 -2 13.5t-4 9.5h50q9 -16 9 -42t-18 -44.5t-56 -18.5q-22 0 -39.5 7.5t-32.5 16t-28 16t-26 7.5q-11 0 -18.5 -7.5t-7.5 -20.5t7 -22h-50zM92 700h57
l358 -568l12 -23v591h61v-700h-57l-361 570l-9 19v-589h-61v700z" />
    <glyph glyph-name="Ograve" unicode="&#xd2;" horiz-adv-x="708" 
d="M232 865h86l82 -123h-64zM352 -6q-59 0 -113.5 19t-96.5 61t-67 109t-25 164q0 96 25.5 164t68.5 111.5t98 63.5t114 20t113.5 -19t96 -61.5t66.5 -110.5t25 -165q0 -96 -25.5 -163.5t-68 -110t-97.5 -62.5t-114 -20zM352 50q45 0 88 15.5t76 51t53 92.5t20 140
q0 85 -19.5 142.5t-52 93t-74.5 50.5t-87 15t-88 -15.5t-76 -51.5t-53 -93.5t-20 -141.5t19.5 -141t51.5 -92t74.5 -50t87.5 -15z" />
    <glyph glyph-name="Oacute" unicode="&#xd3;" horiz-adv-x="708" 
d="M382 865h85l-104 -123h-64zM352 -6q-59 0 -113.5 19t-96.5 61t-67 109t-25 164q0 96 25.5 164t68.5 111.5t98 63.5t114 20t113.5 -19t96 -61.5t66.5 -110.5t25 -165q0 -96 -25.5 -163.5t-68 -110t-97.5 -62.5t-114 -20zM352 50q45 0 88 15.5t76 51t53 92.5t20 140
q0 85 -19.5 142.5t-52 93t-74.5 50.5t-87 15t-88 -15.5t-76 -51.5t-53 -93.5t-20 -141.5t19.5 -141t51.5 -92t74.5 -50t87.5 -15z" />
    <glyph glyph-name="Ocircumflex" unicode="&#xd4;" horiz-adv-x="708" 
d="M318 865h72l87 -123h-59l-65 77l-65 -77h-58zM352 -6q-59 0 -113.5 19t-96.5 61t-67 109t-25 164q0 96 25.5 164t68.5 111.5t98 63.5t114 20t113.5 -19t96 -61.5t66.5 -110.5t25 -165q0 -96 -25.5 -163.5t-68 -110t-97.5 -62.5t-114 -20zM352 50q45 0 88 15.5t76 51
t53 92.5t20 140q0 85 -19.5 142.5t-52 93t-74.5 50.5t-87 15t-88 -15.5t-76 -51.5t-53 -93.5t-20 -141.5t19.5 -141t51.5 -92t74.5 -50t87.5 -15z" />
    <glyph glyph-name="Otilde" unicode="&#xd5;" horiz-adv-x="708" 
d="M223 749q-9 17 -9 41q0 26 18 44.5t52 18.5q21 0 38 -7t32.5 -16t30 -16t29.5 -7q26 0 26 27q0 8 -2 13.5t-4 9.5h50q9 -16 9 -42t-18 -44.5t-56 -18.5q-22 0 -39.5 7.5t-32.5 16t-28 16t-26 7.5q-11 0 -18.5 -7.5t-7.5 -20.5q0 -7 2 -12.5t4 -9.5h-50zM352 -6
q-59 0 -113.5 19t-96.5 61t-67 109t-25 164q0 96 25.5 164t68.5 111.5t98 63.5t114 20t113.5 -19t96 -61.5t66.5 -110.5t25 -165q0 -96 -25.5 -163.5t-68 -110t-97.5 -62.5t-114 -20zM352 50q45 0 88 15.5t76 51t53 92.5t20 140q0 85 -19.5 142.5t-52 93t-74.5 50.5t-87 15
t-88 -15.5t-76 -51.5t-53 -93.5t-20 -141.5t19.5 -141t51.5 -92t74.5 -50t87.5 -15z" />
    <glyph glyph-name="Odieresis" unicode="&#xd6;" horiz-adv-x="708" 
d="M262 756q-20 0 -33.5 14t-13.5 34t13.5 34.5t33.5 14.5t34 -14.5t14 -34.5t-14 -34t-34 -14zM451 756q-20 0 -34.5 14t-14.5 34t14.5 34.5t34.5 14.5t33.5 -14.5t13.5 -34.5t-13.5 -34t-33.5 -14zM352 -6q-59 0 -113.5 19t-96.5 61t-67 109t-25 164q0 96 25.5 164
t68.5 111.5t98 63.5t114 20t113.5 -19t96 -61.5t66.5 -110.5t25 -165q0 -96 -25.5 -163.5t-68 -110t-97.5 -62.5t-114 -20zM352 50q45 0 88 15.5t76 51t53 92.5t20 140q0 85 -19.5 142.5t-52 93t-74.5 50.5t-87 15t-88 -15.5t-76 -51.5t-53 -93.5t-20 -141.5t19.5 -141
t51.5 -92t74.5 -50t87.5 -15z" />
    <glyph glyph-name="multiply" unicode="&#xd7;" horiz-adv-x="438" 
d="M59 133l125 126l-125 126l34 34l126 -125l125 125l35 -34l-126 -126l126 -126l-35 -34l-125 126l-126 -126z" />
    <glyph glyph-name="Oslash" unicode="&#xd8;" horiz-adv-x="708" 
d="M567 624q42 -43 66.5 -110t24.5 -164q0 -96 -25.5 -163.5t-68 -110t-97.5 -62.5t-114 -20q-48 0 -91.5 11.5t-81.5 37.5l-40 -59h-64l63 94q-41 42 -64.5 108t-23.5 161q0 96 25.5 164t68 111.5t97.5 63.5t114 20q47 0 90 -11.5t81 -36.5l39 58h63zM119 348
q0 -75 15.5 -127.5t41.5 -87.5l317 474q-30 23 -65 33t-72 10q-45 0 -87.5 -15.5t-76 -51.5t-53.5 -93.5t-20 -141.5zM353 50q45 0 87.5 15.5t76 51t53.5 92.5t20 140q0 76 -16 130.5t-43 89.5l-317 -475q30 -23 65.5 -33.5t73.5 -10.5z" />
    <glyph glyph-name="Ugrave" unicode="&#xd9;" horiz-adv-x="671" 
d="M214 865h87l82 -123h-65zM337 -6q-54 0 -100.5 14.5t-80.5 48t-53.5 89.5t-19.5 140v414h65v-418q0 -124 50.5 -177.5t138.5 -53.5q44 0 78.5 13t59 40.5t37.5 71.5t13 106v418h63v-414q0 -84 -19 -140t-52.5 -89.5t-79.5 -48t-100 -14.5z" />
    <glyph glyph-name="Uacute" unicode="&#xda;" horiz-adv-x="671" 
d="M365 865h85l-104 -123h-64zM337 -6q-54 0 -100.5 14.5t-80.5 48t-53.5 89.5t-19.5 140v414h65v-418q0 -124 50.5 -177.5t138.5 -53.5q44 0 78.5 13t59 40.5t37.5 71.5t13 106v418h63v-414q0 -84 -19 -140t-52.5 -89.5t-79.5 -48t-100 -14.5z" />
    <glyph glyph-name="Ucircumflex" unicode="&#xdb;" horiz-adv-x="671" 
d="M301 865h72l87 -123h-59l-65 77l-65 -77h-58zM337 -6q-54 0 -100.5 14.5t-80.5 48t-53.5 89.5t-19.5 140v414h65v-418q0 -124 50.5 -177.5t138.5 -53.5q44 0 78.5 13t59 40.5t37.5 71.5t13 106v418h63v-414q0 -84 -19 -140t-52.5 -89.5t-79.5 -48t-100 -14.5z" />
    <glyph glyph-name="Udieresis" unicode="&#xdc;" horiz-adv-x="671" 
d="M245 756q-20 0 -33.5 14t-13.5 34t13.5 34.5t33.5 14.5t34 -14.5t14 -34.5t-14 -34t-34 -14zM434 756q-20 0 -34.5 14t-14.5 34t14.5 34.5t34.5 14.5t33.5 -14.5t13.5 -34.5t-13.5 -34t-33.5 -14zM337 -6q-54 0 -100.5 14.5t-80.5 48t-53.5 89.5t-19.5 140v414h65v-418
q0 -124 50.5 -177.5t138.5 -53.5q44 0 78.5 13t59 40.5t37.5 71.5t13 106v418h63v-414q0 -84 -19 -140t-52.5 -89.5t-79.5 -48t-100 -14.5z" />
    <glyph glyph-name="Yacute" unicode="&#xdd;" horiz-adv-x="585" 
d="M322 865h84l-104 -123h-63zM260 293l-239 407h77l196 -344l197 344h74l-240 -405v-295h-65v293z" />
    <glyph glyph-name="Thorn" unicode="&#xde;" horiz-adv-x="593" 
d="M92 700h65v-128h149q115 0 179 -54.5t64 -164.5q0 -55 -17.5 -95t-49 -66.5t-75.5 -39.5t-96 -13h-154v-139h-65v700zM301 195q91 0 136 41t45 117q0 75 -43.5 119t-136.5 44h-145v-321h144z" />
    <glyph glyph-name="germandbls" unicode="&#xdf;" horiz-adv-x="545" 
d="M340 -12q-38 0 -74.5 9.5t-65.5 35.5l28 48q21 -20 47 -29.5t61 -9.5q63 0 91.5 23t28.5 64q0 32 -15.5 51t-38.5 31t-50.5 21.5t-50.5 23.5t-38.5 36t-15.5 59q0 42 22 69t48 51t48 49.5t22 63.5q0 45 -29 69.5t-79 24.5q-60 0 -91.5 -36.5t-31.5 -109.5v-532h-63v430
h-70v52h70v56q0 91 50.5 142.5t137.5 51.5q77 0 123 -39.5t46 -108.5q0 -49 -22 -80t-48.5 -54t-48.5 -43t-22 -49q0 -24 15.5 -38.5t38.5 -25.5t50 -22t50 -28.5t38.5 -44t15.5 -68.5q0 -65 -45.5 -104t-131.5 -39z" />
    <glyph glyph-name="agrave" unicode="&#xe0;" horiz-adv-x="538" 
d="M141 720h78l84 -162h-58zM240 -12q-43 0 -79.5 17.5t-62 49.5t-40 77.5t-14.5 102.5t14.5 104.5t41 81.5t64.5 53t86 19q51 0 89 -21t61 -59v69h57v-380q0 -29 9.5 -41.5t32.5 -12.5v-47q-5 -2 -13 -2.5t-16 -0.5q-32 0 -51 19t-19 53v15q-19 -42 -59 -69.5t-101 -27.5z
M256 41q54 0 90 32.5t48 85.5v173q-12 45 -46.5 76.5t-87.5 31.5q-73 0 -112 -53.5t-39 -151.5q0 -89 39 -141.5t108 -52.5z" />
    <glyph glyph-name="aacute" unicode="&#xe1;" horiz-adv-x="538" 
d="M306 720h78l-105 -162h-58zM240 -12q-43 0 -79.5 17.5t-62 49.5t-40 77.5t-14.5 102.5t14.5 104.5t41 81.5t64.5 53t86 19q51 0 89 -21t61 -59v69h57v-380q0 -29 9.5 -41.5t32.5 -12.5v-47q-5 -2 -13 -2.5t-16 -0.5q-32 0 -51 19t-19 53v15q-19 -42 -59 -69.5t-101 -27.5
zM256 41q54 0 90 32.5t48 85.5v173q-12 45 -46.5 76.5t-87.5 31.5q-73 0 -112 -53.5t-39 -151.5q0 -89 39 -141.5t108 -52.5z" />
    <glyph glyph-name="acircumflex" unicode="&#xe2;" horiz-adv-x="538" 
d="M235 720h67l88 -162h-58l-64 113l-64 -113h-57zM240 -12q-43 0 -79.5 17.5t-62 49.5t-40 77.5t-14.5 102.5t14.5 104.5t41 81.5t64.5 53t86 19q51 0 89 -21t61 -59v69h57v-380q0 -29 9.5 -41.5t32.5 -12.5v-47q-5 -2 -13 -2.5t-16 -0.5q-32 0 -51 19t-19 53v15
q-19 -42 -59 -69.5t-101 -27.5zM256 41q54 0 90 32.5t48 85.5v173q-12 45 -46.5 76.5t-87.5 31.5q-73 0 -112 -53.5t-39 -151.5q0 -89 39 -141.5t108 -52.5z" />
    <glyph glyph-name="atilde" unicode="&#xe3;" horiz-adv-x="538" 
d="M140 583q-9 18 -9 41q0 27 17.5 45.5t55.5 18.5q19 0 35.5 -7.5t31.5 -16t29 -16t29 -7.5q27 0 27 27q0 17 -6 24h51q9 -16 9 -42t-17.5 -45t-54.5 -19q-22 0 -40 7.5t-33 16t-27.5 16t-24.5 7.5q-29 0 -29 -27q0 -7 2 -12.5t4 -10.5h-50zM240 -12q-43 0 -79.5 17.5
t-62 49.5t-40 77.5t-14.5 102.5t14.5 104.5t41 81.5t64.5 53t86 19q51 0 89 -21t61 -59v69h57v-380q0 -29 9.5 -41.5t32.5 -12.5v-47q-5 -2 -13 -2.5t-16 -0.5q-32 0 -51 19t-19 53v15q-19 -42 -59 -69.5t-101 -27.5zM256 41q54 0 90 32.5t48 85.5v173q-12 45 -46.5 76.5
t-87.5 31.5q-73 0 -112 -53.5t-39 -151.5q0 -89 39 -141.5t108 -52.5z" />
    <glyph glyph-name="adieresis" unicode="&#xe4;" horiz-adv-x="538" 
d="M184 590q-20 0 -32.5 13.5t-12.5 33.5q0 19 12.5 33t32.5 14q19 0 32.5 -14t13.5 -33q0 -20 -13.5 -33.5t-32.5 -13.5zM355 590q-20 0 -34 13.5t-14 33.5q0 19 14 33t34 14q19 0 32 -14t13 -33q0 -20 -13 -33.5t-32 -13.5zM240 -12q-43 0 -79.5 17.5t-62 49.5t-40 77.5
t-14.5 102.5t14.5 104.5t41 81.5t64.5 53t86 19q51 0 89 -21t61 -59v69h57v-380q0 -29 9.5 -41.5t32.5 -12.5v-47q-5 -2 -13 -2.5t-16 -0.5q-32 0 -51 19t-19 53v15q-19 -42 -59 -69.5t-101 -27.5zM256 41q54 0 90 32.5t48 85.5v173q-12 45 -46.5 76.5t-87.5 31.5
q-73 0 -112 -53.5t-39 -151.5q0 -89 39 -141.5t108 -52.5z" />
    <glyph glyph-name="aring" unicode="&#xe5;" horiz-adv-x="538" 
d="M269 532q-42 0 -70.5 28.5t-28.5 70.5q0 43 28.5 71.5t70.5 28.5q43 0 71 -28.5t28 -71.5q0 -42 -28 -70.5t-71 -28.5zM269 579q24 0 38 14.5t14 37.5t-14 38t-38 15t-38 -15t-14 -38t14 -37.5t38 -14.5zM240 -12q-43 0 -79.5 17.5t-62 49.5t-40 77.5t-14.5 102.5
t14.5 104.5t41 81.5t64.5 53t86 19q51 0 89 -21t61 -59v69h57v-380q0 -29 9.5 -41.5t32.5 -12.5v-47q-5 -2 -13 -2.5t-16 -0.5q-32 0 -51 19t-19 53v15q-19 -42 -59 -69.5t-101 -27.5zM256 41q54 0 90 32.5t48 85.5v173q-12 45 -46.5 76.5t-87.5 31.5q-73 0 -112 -53.5
t-39 -151.5q0 -89 39 -141.5t108 -52.5z" />
    <glyph glyph-name="ae" unicode="&#xe6;" horiz-adv-x="792" 
d="M421 244v-4q0 -97 41.5 -147.5t111.5 -50.5q46 0 78 18t54 49l39 -31q-25 -39 -69.5 -64.5t-103.5 -25.5q-72 0 -121 33.5t-72 96.5q-35 -69 -84.5 -98.5t-109.5 -29.5q-70 0 -109 32.5t-39 92.5q0 62 46 95.5t135 34.5h138v77q0 57 -29.5 87t-89.5 30q-57 0 -86.5 -24
t-29.5 -71q0 -26 10 -43h-58q-5 8 -8 22.5t-3 31.5q0 63 48 100.5t129 37.5q63 0 103.5 -24.5t60.5 -67.5q26 43 67 67.5t94 24.5q91 0 138 -55.5t47 -158.5v-17.5t-1 -17.5h-327zM562 440q-63 0 -96 -41t-42 -106h263q0 30 -6.5 57t-21.5 47t-39 31.5t-58 11.5zM194 41
q62 0 101.5 35t60.5 95v28l-140 -1q-58 0 -86 -21.5t-28 -58.5q0 -38 23.5 -57.5t68.5 -19.5z" />
    <glyph glyph-name="ccedilla" unicode="&#xe7;" horiz-adv-x="470" 
d="M434 77q-22 -35 -59 -59.5t-95 -28.5l-10 -29q35 -5 57 -22t22 -52q0 -37 -28 -56.5t-71 -19.5q-24 0 -45 6.5t-34 20.5l21 39q24 -21 55 -21q19 0 30 8t11 25q0 18 -19.5 28.5t-54.5 12.5l22 60q-89 9 -140 74.5t-51 178.5q0 60 15.5 106.5t43 78.5t67 49t87.5 17
q81 0 125.5 -37.5t44.5 -108.5q0 -13 -2 -27t-4 -22h-56q5 17 5 41q0 50 -29.5 75.5t-84.5 25.5q-67 0 -107.5 -50.5t-40.5 -146.5t42.5 -149t111.5 -53q51 0 81 19.5t50 49.5z" />
    <glyph glyph-name="egrave" unicode="&#xe8;" horiz-adv-x="471" 
d="M220 558l-104 162h78l84 -162h-58zM432 78q-58 -90 -180 -90q-97 0 -152.5 60.5t-55.5 178.5q0 57 16.5 105.5t46.5 84.5t72 56t93 20q70 0 111 -35t41 -96q0 -53 -29 -85.5t-75 -50.5t-101.5 -25t-108.5 -10q10 -78 48.5 -113.5t98.5 -35.5q51 0 81 18t54 51zM270 440
q-37 0 -66.5 -14.5t-50.5 -41t-32.5 -63t-12.5 -81.5q41 2 86 7.5t83 18t63 35t25 59.5q0 42 -25.5 61t-69.5 19z" />
    <glyph glyph-name="eacute" unicode="&#xe9;" horiz-adv-x="471" 
d="M254 558h-58l85 162h78zM432 78q-58 -90 -180 -90q-97 0 -152.5 60.5t-55.5 178.5q0 57 16.5 105.5t46.5 84.5t72 56t93 20q70 0 111 -35t41 -96q0 -53 -29 -85.5t-75 -50.5t-101.5 -25t-108.5 -10q10 -78 48.5 -113.5t98.5 -35.5q51 0 81 18t54 51zM270 440
q-37 0 -66.5 -14.5t-50.5 -41t-32.5 -63t-12.5 -81.5q41 2 86 7.5t83 18t63 35t25 59.5q0 42 -25.5 61t-69.5 19z" />
    <glyph glyph-name="ecircumflex" unicode="&#xea;" horiz-adv-x="471" 
d="M178 558h-57l89 162h67l88 -162h-58l-64 113zM432 78q-58 -90 -180 -90q-97 0 -152.5 60.5t-55.5 178.5q0 57 16.5 105.5t46.5 84.5t72 56t93 20q70 0 111 -35t41 -96q0 -53 -29 -85.5t-75 -50.5t-101.5 -25t-108.5 -10q10 -78 48.5 -113.5t98.5 -35.5q51 0 81 18t54 51z
M270 440q-37 0 -66.5 -14.5t-50.5 -41t-32.5 -63t-12.5 -81.5q41 2 86 7.5t83 18t63 35t25 59.5q0 42 -25.5 61t-69.5 19z" />
    <glyph glyph-name="edieresis" unicode="&#xeb;" horiz-adv-x="471" 
d="M159 590q-20 0 -33 13.5t-13 33.5q0 19 13 33t33 14q19 0 32.5 -14t13.5 -33q0 -20 -13.5 -33.5t-32.5 -13.5zM329 590q-19 0 -33 13.5t-14 33.5q0 19 14 33t33 14q20 0 33 -14t13 -33q0 -20 -13 -33.5t-33 -13.5zM432 78q-58 -90 -180 -90q-97 0 -152.5 60.5
t-55.5 178.5q0 57 16.5 105.5t46.5 84.5t72 56t93 20q70 0 111 -35t41 -96q0 -53 -29 -85.5t-75 -50.5t-101.5 -25t-108.5 -10q10 -78 48.5 -113.5t98.5 -35.5q51 0 81 18t54 51zM270 440q-37 0 -66.5 -14.5t-50.5 -41t-32.5 -63t-12.5 -81.5q41 2 86 7.5t83 18t63 35
t25 59.5q0 42 -25.5 61t-69.5 19z" />
    <glyph glyph-name="igrave" unicode="&#xec;" horiz-adv-x="215" 
d="M-20 720h78l84 -162h-58zM76 482h63v-482h-63v482z" />
    <glyph glyph-name="iacute" unicode="&#xed;" horiz-adv-x="215" 
d="M145 720h78l-105 -162h-58zM76 482h63v-482h-63v482z" />
    <glyph glyph-name="icircumflex" unicode="&#xee;" horiz-adv-x="215" 
d="M74 720h67l88 -162h-58l-64 113l-65 -113h-57zM76 482h63v-482h-63v482z" />
    <glyph glyph-name="idieresis" unicode="&#xef;" horiz-adv-x="215" 
d="M23 590q-20 0 -33 13.5t-13 33.5q0 19 13 33t33 14q19 0 32.5 -14t13.5 -33q0 -20 -13.5 -33.5t-32.5 -13.5zM193 590q-19 0 -33 13.5t-14 33.5q0 19 14 33t33 14q20 0 33 -14t13 -33q0 -20 -13 -33.5t-33 -13.5zM76 482h63v-482h-63v482z" />
    <glyph glyph-name="eth" unicode="&#xf0;" horiz-adv-x="533" 
d="M377 618q51 -50 77 -123.5t26 -170.5q0 -170 -58 -253t-167 -83q-97 0 -154 61t-57 171q0 51 15.5 94t43.5 73.5t66.5 47.5t84.5 17q61 0 101 -24t65 -59q0 66 -23.5 122.5t-67.5 95.5l-123 -77l-26 42l106 65q-29 17 -64 26.5t-76 9.5v54q115 -5 193 -57l106 65l25 -39z
M258 41q83 0 122.5 71t37.5 192q-23 42 -62 68.5t-96 26.5q-34 0 -62.5 -13t-48.5 -36.5t-31.5 -56.5t-11.5 -73q0 -85 43 -132t109 -47z" />
    <glyph glyph-name="ntilde" unicode="&#xf1;" horiz-adv-x="537" 
d="M138 583q-9 18 -9 41q0 27 17.5 45.5t55.5 18.5q20 0 36.5 -7.5t31.5 -16t29 -16t29 -7.5q27 0 27 27q0 8 -2 14t-4 10h50q9 -16 9 -42t-17.5 -45t-54.5 -19q-22 0 -40 7.5t-33 16t-27.5 16t-24.5 7.5q-29 0 -29 -27q0 -7 2 -12.5t4 -10.5h-50zM476 -2q-40 0 -58.5 23.5
t-18.5 65.5v218q0 63 -30.5 98.5t-88.5 35.5q-31 0 -56 -12t-43 -32.5t-27.5 -48.5t-9.5 -61v-285h-63v386q0 30 -9.5 41t-32.5 11v46q9 3 29 3q69 0 69 -80v-23q19 52 60 80.5t98 28.5q80 0 123.5 -49t43.5 -139v-206q0 -30 9.5 -41t32.5 -11v-46q-9 -3 -28 -3z" />
    <glyph glyph-name="ograve" unicode="&#xf2;" horiz-adv-x="519" 
d="M131 720h78l84 -162h-58zM257 -12q-97 0 -154.5 65.5t-57.5 187.5q0 61 16 108t45 79t68.5 48.5t87.5 16.5q97 0 154.5 -65t57.5 -187q0 -60 -16 -107.5t-44.5 -79.5t-68.5 -49t-88 -17zM259 41q65 0 108 50t43 150t-42 149.5t-108 49.5q-64 0 -107.5 -49.5t-43.5 -149.5
t42.5 -150t107.5 -50z" />
    <glyph glyph-name="oacute" unicode="&#xf3;" horiz-adv-x="519" 
d="M296 720h78l-104 -162h-59zM257 -12q-97 0 -154.5 65.5t-57.5 187.5q0 61 16 108t45 79t68.5 48.5t87.5 16.5q97 0 154.5 -65t57.5 -187q0 -60 -16 -107.5t-44.5 -79.5t-68.5 -49t-88 -17zM259 41q65 0 108 50t43 150t-42 149.5t-108 49.5q-64 0 -107.5 -49.5
t-43.5 -149.5t42.5 -150t107.5 -50z" />
    <glyph glyph-name="ocircumflex" unicode="&#xf4;" horiz-adv-x="519" 
d="M225 720h67l88 -162h-58l-64 113l-64 -113h-57zM257 -12q-97 0 -154.5 65.5t-57.5 187.5q0 61 16 108t45 79t68.5 48.5t87.5 16.5q97 0 154.5 -65t57.5 -187q0 -60 -16 -107.5t-44.5 -79.5t-68.5 -49t-88 -17zM259 41q65 0 108 50t43 150t-42 149.5t-108 49.5
q-64 0 -107.5 -49.5t-43.5 -149.5t42.5 -150t107.5 -50z" />
    <glyph glyph-name="otilde" unicode="&#xf5;" horiz-adv-x="519" 
d="M130 583q-9 18 -9 41q0 27 17.5 45.5t55.5 18.5q20 0 36 -7.5t31 -16t29 -16t29 -7.5q28 0 28 27q0 8 -2 14t-4 10h50q9 -16 9 -42t-17.5 -45t-54.5 -19q-22 0 -40 7.5t-33 16t-27.5 16t-24.5 7.5q-29 0 -29 -27q0 -7 2 -12.5t4 -10.5h-50zM257 -12q-97 0 -154.5 65.5
t-57.5 187.5q0 61 16 108t45 79t68.5 48.5t87.5 16.5q97 0 154.5 -65t57.5 -187q0 -60 -16 -107.5t-44.5 -79.5t-68.5 -49t-88 -17zM259 41q65 0 108 50t43 150t-42 149.5t-108 49.5q-64 0 -107.5 -49.5t-43.5 -149.5t42.5 -150t107.5 -50z" />
    <glyph glyph-name="odieresis" unicode="&#xf6;" horiz-adv-x="519" 
d="M174 590q-20 0 -32.5 13.5t-12.5 33.5q0 19 12.5 33t32.5 14t33.5 -14t13.5 -33q0 -20 -13.5 -33.5t-33.5 -13.5zM345 590q-20 0 -33.5 13.5t-13.5 33.5q0 19 13.5 33t33.5 14q19 0 32 -14t13 -33q0 -20 -13 -33.5t-32 -13.5zM257 -12q-97 0 -154.5 65.5t-57.5 187.5
q0 61 16 108t45 79t68.5 48.5t87.5 16.5q97 0 154.5 -65t57.5 -187q0 -60 -16 -107.5t-44.5 -79.5t-68.5 -49t-88 -17zM259 41q65 0 108 50t43 150t-42 149.5t-108 49.5q-64 0 -107.5 -49.5t-43.5 -149.5t42.5 -150t107.5 -50z" />
    <glyph glyph-name="divide" unicode="&#xf7;" horiz-adv-x="448" 
d="M225 352q-20 0 -34.5 15t-14.5 36q0 20 14.5 34.5t34.5 14.5q21 0 35.5 -14.5t14.5 -34.5q0 -21 -14.5 -36t-35.5 -15zM52 289h343v-48h-343v48zM228 69q-21 0 -36.5 15.5t-15.5 36.5t15.5 36.5t36.5 15.5t36 -15.5t15 -36.5t-15 -36.5t-36 -15.5z" />
    <glyph glyph-name="oslash" unicode="&#xf8;" horiz-adv-x="519" 
d="M412 432q29 -32 45.5 -80t16.5 -111q0 -60 -16 -107.5t-44.5 -79.5t-68.5 -49t-88 -17q-65 0 -112 30l-25 -39h-58l45 70q-29 32 -45.5 80.5t-16.5 111.5q0 61 16 108t45 79t68.5 48.5t87.5 16.5q65 0 113 -30l25 39h57zM109 241q0 -86 33 -138l201 311q-35 26 -83 26
q-64 0 -107.5 -49.5t-43.5 -149.5zM259 41q65 0 108 50t43 150q0 85 -33 137l-201 -311q35 -26 83 -26z" />
    <glyph glyph-name="ugrave" unicode="&#xf9;" horiz-adv-x="527" 
d="M136 720h78l84 -162h-58zM229 -12q-74 0 -117.5 42t-43.5 129v323h63v-316q0 -69 31.5 -96.5t83.5 -27.5q35 0 60.5 14.5t42.5 36t25.5 47t8.5 47.5v295h63v-382q0 -29 9.5 -41t32.5 -12v-46q-2 -1 -9 -2t-20 -1q-69 0 -69 75v22q-9 -21 -22.5 -40t-33 -34t-45.5 -24
t-60 -9z" />
    <glyph glyph-name="uacute" unicode="&#xfa;" horiz-adv-x="527" 
d="M301 720h78l-105 -162h-58zM229 -12q-74 0 -117.5 42t-43.5 129v323h63v-316q0 -69 31.5 -96.5t83.5 -27.5q35 0 60.5 14.5t42.5 36t25.5 47t8.5 47.5v295h63v-382q0 -29 9.5 -41t32.5 -12v-46q-2 -1 -9 -2t-20 -1q-69 0 -69 75v22q-9 -21 -22.5 -40t-33 -34t-45.5 -24
t-60 -9z" />
    <glyph glyph-name="ucircumflex" unicode="&#xfb;" horiz-adv-x="527" 
d="M230 720h67l88 -162h-58l-64 113l-64 -113h-57zM229 -12q-74 0 -117.5 42t-43.5 129v323h63v-316q0 -69 31.5 -96.5t83.5 -27.5q35 0 60.5 14.5t42.5 36t25.5 47t8.5 47.5v295h63v-382q0 -29 9.5 -41t32.5 -12v-46q-2 -1 -9 -2t-20 -1q-69 0 -69 75v22q-9 -21 -22.5 -40
t-33 -34t-45.5 -24t-60 -9z" />
    <glyph glyph-name="udieresis" unicode="&#xfc;" horiz-adv-x="527" 
d="M179 590q-20 0 -33 13.5t-13 33.5q0 19 13 33t33 14q19 0 32.5 -14t13.5 -33q0 -20 -13.5 -33.5t-32.5 -13.5zM350 590q-20 0 -34 13.5t-14 33.5q0 19 14 33t34 14q19 0 32 -14t13 -33q0 -20 -13 -33.5t-32 -13.5zM229 -12q-74 0 -117.5 42t-43.5 129v323h63v-316
q0 -69 31.5 -96.5t83.5 -27.5q35 0 60.5 14.5t42.5 36t25.5 47t8.5 47.5v295h63v-382q0 -29 9.5 -41t32.5 -12v-46q-2 -1 -9 -2t-20 -1q-69 0 -69 75v22q-9 -21 -22.5 -40t-33 -34t-45.5 -24t-60 -9z" />
    <glyph glyph-name="yacute" unicode="&#xfd;" horiz-adv-x="520" 
d="M296 720h78l-105 -162h-58zM247 -247q-76 0 -121 25.5t-64 67.5l44 32q17 -33 51 -52t90 -19q65 0 102 36.5t37 101.5v155q-18 -50 -61 -78.5t-100 -28.5q-157 0 -157 170v319h63v-312q0 -123 113 -123q27 0 52.5 12.5t44.5 33.5t30.5 48.5t11.5 57.5v283h63v-541
q-1 -87 -54.5 -137.5t-144.5 -50.5z" />
    <glyph glyph-name="thorn" unicode="&#xfe;" horiz-adv-x="529" 
d="M73 726h63v-324q21 42 60.5 66t93.5 24q44 0 80 -17.5t61.5 -49.5t39.5 -77.5t14 -102.5t-14.5 -103.5t-41 -80.5t-64 -52.5t-83.5 -18.5q-49 0 -88 21.5t-58 56.5v-302h-63v960zM273 43q70 0 109 53.5t39 147.5q0 92 -40 143t-106 51q-54 0 -90.5 -32.5t-48.5 -83.5
v-172q14 -47 49 -77t88 -30z" />
    <glyph glyph-name="ydieresis" unicode="&#xff;" horiz-adv-x="520" 
d="M174 590q-20 0 -32.5 13.5t-12.5 33.5q0 19 12.5 33t32.5 14q19 0 32.5 -14t13.5 -33q0 -20 -13.5 -33.5t-32.5 -13.5zM345 590q-20 0 -34 13.5t-14 33.5q0 19 14 33t34 14q19 0 32 -14t13 -33q0 -20 -13 -33.5t-32 -13.5zM247 -247q-76 0 -121 25.5t-64 67.5l44 32
q17 -33 51 -52t90 -19q65 0 102 36.5t37 101.5v155q-18 -50 -61 -78.5t-100 -28.5q-157 0 -157 170v319h63v-312q0 -123 113 -123q27 0 52.5 12.5t44.5 33.5t30.5 48.5t11.5 57.5v283h63v-541q-1 -87 -54.5 -137.5t-144.5 -50.5z" />
    <glyph glyph-name="Amacron" unicode="&#x100;" horiz-adv-x="620" 
d="M435 772h-249v54h249v-54zM464 206h-308l-75 -206h-66l262 700h66l262 -700h-66zM443 262l-133 365l-133 -365h266z" />
    <glyph glyph-name="amacron" unicode="&#x101;" horiz-adv-x="538" 
d="M148 662h242v-52h-242v52zM240 -12q-43 0 -79.5 17.5t-62 49.5t-40 77.5t-14.5 102.5t14.5 104.5t41 81.5t64.5 53t86 19q51 0 89 -21t61 -59v69h57v-380q0 -29 9.5 -41.5t32.5 -12.5v-47q-5 -2 -13 -2.5t-16 -0.5q-32 0 -51 19t-19 53v15q-19 -42 -59 -69.5t-101 -27.5z
M256 41q54 0 90 32.5t48 85.5v173q-12 45 -46.5 76.5t-87.5 31.5q-73 0 -112 -53.5t-39 -151.5q0 -89 39 -141.5t108 -52.5z" />
    <glyph glyph-name="Abreve" unicode="&#x102;" horiz-adv-x="620" 
d="M309 745q-48 0 -79 30.5t-31 86.5h51q0 -29 15.5 -47t44.5 -18t44.5 18t15.5 47h51q0 -55 -31.5 -86t-80.5 -31zM464 206h-308l-75 -206h-66l262 700h66l262 -700h-66zM443 262l-133 365l-133 -365h266z" />
    <glyph glyph-name="abreve" unicode="&#x103;" horiz-adv-x="538" 
d="M269 571q-60 0 -87 34t-27 91h51q0 -74 63 -74q64 -2 64 74h50q0 -57 -27.5 -91t-86.5 -34zM240 -12q-43 0 -79.5 17.5t-62 49.5t-40 77.5t-14.5 102.5t14.5 104.5t41 81.5t64.5 53t86 19q51 0 89 -21t61 -59v69h57v-380q0 -29 9.5 -41.5t32.5 -12.5v-47q-5 -2 -13 -2.5
t-16 -0.5q-32 0 -51 19t-19 53v15q-19 -42 -59 -69.5t-101 -27.5zM256 41q54 0 90 32.5t48 85.5v173q-12 45 -46.5 76.5t-87.5 31.5q-73 0 -112 -53.5t-39 -151.5q0 -89 39 -141.5t108 -52.5z" />
    <glyph glyph-name="Aogonek" unicode="&#x104;" horiz-adv-x="620" 
d="M617 -151q-11 -11 -28 -17.5t-38 -6.5q-42 0 -64.5 20.5t-22.5 57.5q0 32 19.5 60.5t51.5 47.5l-71 195h-308l-75 -206h-66l262 700h66l262 -700h-11q-32 -9 -52.5 -32t-20.5 -54q0 -23 11 -33t30 -10q11 0 19.5 3.5t13.5 8.5zM443 262l-133 365l-133 -365h266z" />
    <glyph glyph-name="aogonek" unicode="&#x105;" horiz-adv-x="538" 
d="M518 -151q-10 -11 -27.5 -17.5t-37.5 -6.5q-42 0 -64.5 20.5t-22.5 57.5q0 31 17.5 58t47.5 47q-31 19 -31 62v15q-19 -42 -59 -69.5t-101 -27.5q-43 0 -79.5 17.5t-62 49.5t-40 77.5t-14.5 102.5t14.5 104.5t41 81.5t64.5 53t86 19q51 0 89 -21t61 -59v69h57v-380
q0 -29 9.5 -41.5t32.5 -12.5v-47q-1 0 -1.5 -0.5t-1.5 -0.5q-32 -9 -53 -32t-21 -54q0 -23 11 -33t30 -10q11 0 19.5 3.5t13.5 8.5zM394 332q-12 45 -46.5 76.5t-87.5 31.5q-73 0 -112 -53.5t-39 -151.5q0 -89 39 -141.5t108 -52.5q54 0 90 32.5t48 85.5v173z" />
    <glyph glyph-name="Cacute" unicode="&#x106;" horiz-adv-x="609" 
d="M368 865h84l-104 -123h-63zM346 -6q-68 0 -122.5 25t-93 71t-59.5 111.5t-21 146.5q0 83 20.5 149t59 112.5t93.5 71.5t123 25q102 0 161.5 -50t59.5 -138q0 -34 -8 -58h-59q3 17 4 26t1 22q0 67 -43.5 104.5t-118.5 37.5q-53 0 -94.5 -20.5t-70.5 -59.5t-44 -95
t-15 -127q0 -69 16.5 -124t46.5 -93.5t72.5 -59.5t93.5 -21q63 0 107.5 25t75.5 74l44 -36q-41 -60 -96.5 -89.5t-132.5 -29.5z" />
    <glyph glyph-name="cacute" unicode="&#x107;" horiz-adv-x="470" 
d="M291 720h78l-105 -162h-58zM262 -12q-100 0 -158.5 66.5t-58.5 187.5q0 60 15.5 106.5t43 78.5t67 49t87.5 17q81 0 125.5 -37.5t44.5 -108.5q0 -13 -2 -27t-4 -22h-56q5 17 5 41q0 50 -29.5 75.5t-84.5 25.5q-67 0 -107.5 -50.5t-40.5 -146.5t42.5 -149t111.5 -53
q51 0 81 19.5t50 49.5l40 -33q-23 -37 -64.5 -63t-107.5 -26z" />
    <glyph glyph-name="Ccircumflex" unicode="&#x108;" horiz-adv-x="609" 
d="M304 865h72l87 -123h-59l-66 77l-64 -77h-58zM346 -6q-68 0 -122.5 25t-93 71t-59.5 111.5t-21 146.5q0 83 20.5 149t59 112.5t93.5 71.5t123 25q102 0 161.5 -50t59.5 -138q0 -34 -8 -58h-59q3 17 4 26t1 22q0 67 -43.5 104.5t-118.5 37.5q-53 0 -94.5 -20.5
t-70.5 -59.5t-44 -95t-15 -127q0 -69 16.5 -124t46.5 -93.5t72.5 -59.5t93.5 -21q63 0 107.5 25t75.5 74l44 -36q-41 -60 -96.5 -89.5t-132.5 -29.5z" />
    <glyph glyph-name="ccircumflex" unicode="&#x109;" horiz-adv-x="470" 
d="M220 720h67l88 -162h-58l-65 113l-64 -113h-57zM262 -12q-100 0 -158.5 66.5t-58.5 187.5q0 60 15.5 106.5t43 78.5t67 49t87.5 17q81 0 125.5 -37.5t44.5 -108.5q0 -13 -2 -27t-4 -22h-56q5 17 5 41q0 50 -29.5 75.5t-84.5 25.5q-67 0 -107.5 -50.5t-40.5 -146.5
t42.5 -149t111.5 -53q51 0 81 19.5t50 49.5l40 -33q-23 -37 -64.5 -63t-107.5 -26z" />
    <glyph glyph-name="Cdotaccent" unicode="&#x10a;" horiz-adv-x="609" 
d="M339 754q-20 0 -34.5 15t-14.5 35t14.5 35t34.5 15t35 -15t15 -35t-15 -35t-35 -15zM346 -6q-68 0 -122.5 25t-93 71t-59.5 111.5t-21 146.5q0 83 20.5 149t59 112.5t93.5 71.5t123 25q102 0 161.5 -50t59.5 -138q0 -34 -8 -58h-59q3 17 4 26t1 22q0 67 -43.5 104.5
t-118.5 37.5q-53 0 -94.5 -20.5t-70.5 -59.5t-44 -95t-15 -127q0 -69 16.5 -124t46.5 -93.5t72.5 -59.5t93.5 -21q63 0 107.5 25t75.5 74l44 -36q-41 -60 -96.5 -89.5t-132.5 -29.5z" />
    <glyph glyph-name="cdotaccent" unicode="&#x10b;" horiz-adv-x="470" 
d="M254 590q-19 0 -33 13.5t-14 33.5t14 34t33 14q20 0 34 -14t14 -34t-14 -33.5t-34 -13.5zM262 -12q-100 0 -158.5 66.5t-58.5 187.5q0 60 15.5 106.5t43 78.5t67 49t87.5 17q81 0 125.5 -37.5t44.5 -108.5q0 -13 -2 -27t-4 -22h-56q5 17 5 41q0 50 -29.5 75.5t-84.5 25.5
q-67 0 -107.5 -50.5t-40.5 -146.5t42.5 -149t111.5 -53q51 0 81 19.5t50 49.5l40 -33q-23 -37 -64.5 -63t-107.5 -26z" />
    <glyph glyph-name="Ccaron" unicode="&#x10c;" horiz-adv-x="609" 
d="M216 865h60l64 -77l66 77h57l-87 -123h-73zM346 -6q-68 0 -122.5 25t-93 71t-59.5 111.5t-21 146.5q0 83 20.5 149t59 112.5t93.5 71.5t123 25q102 0 161.5 -50t59.5 -138q0 -34 -8 -58h-59q3 17 4 26t1 22q0 67 -43.5 104.5t-118.5 37.5q-53 0 -94.5 -20.5t-70.5 -59.5
t-44 -95t-15 -127q0 -69 16.5 -124t46.5 -93.5t72.5 -59.5t93.5 -21q63 0 107.5 25t75.5 74l44 -36q-41 -60 -96.5 -89.5t-132.5 -29.5z" />
    <glyph glyph-name="ccaron" unicode="&#x10d;" horiz-adv-x="470" 
d="M132 720h58l64 -114l64 114h57l-88 -162h-68zM262 -12q-100 0 -158.5 66.5t-58.5 187.5q0 60 15.5 106.5t43 78.5t67 49t87.5 17q81 0 125.5 -37.5t44.5 -108.5q0 -13 -2 -27t-4 -22h-56q5 17 5 41q0 50 -29.5 75.5t-84.5 25.5q-67 0 -107.5 -50.5t-40.5 -146.5
t42.5 -149t111.5 -53q51 0 81 19.5t50 49.5l40 -33q-23 -37 -64.5 -63t-107.5 -26z" />
    <glyph glyph-name="Dcaron" unicode="&#x10e;" horiz-adv-x="684" 
d="M208 865h59l65 -77l65 77h58l-88 -123h-72zM92 700h198q74 0 137.5 -20.5t109.5 -63t72 -108.5t26 -157t-26.5 -157.5t-73 -109.5t-108 -63.5t-132.5 -20.5h-203v700zM291 59q62 0 112.5 17t86.5 52.5t56 90t20 130.5q0 77 -21 132.5t-58 91t-88 52.5t-111 17h-131v-583
h134z" />
    <glyph glyph-name="dcaron" unicode="&#x10f;" horiz-adv-x="540" 
d="M515 587q20 8 32.5 21.5t12.5 29.5q-20 0 -32.5 14t-12.5 34t13.5 33.5t33.5 13.5q23 0 37.5 -15t14.5 -41q0 -44 -23 -77.5t-56 -44.5zM240 -12q-43 0 -79.5 17.5t-62 49.5t-40 77.5t-14.5 102.5t14.5 104.5t41 81.5t64.5 53t86 19q51 0 88 -22.5t56 -56.5v312h63v-624
q0 -29 9.5 -41.5t32.5 -12.5v-47q-5 -2 -13 -2.5t-16 -0.5q-32 0 -51 19t-19 53v20q-20 -43 -59.5 -72.5t-100.5 -29.5zM256 42q53 0 89 32t49 85v173q-12 45 -46.5 76.5t-87.5 31.5q-73 0 -112 -53.5t-39 -151.5q0 -88 39 -140.5t108 -52.5z" />
    <glyph glyph-name="Dcroat" unicode="&#x110;" horiz-adv-x="697" 
d="M303 700q74 0 137.5 -20.5t109.5 -63t72 -108.5t26 -157t-26.5 -157.5t-73 -109.5t-108 -63.5t-132.5 -20.5h-203v323h-94v56h94v321h198zM304 59q62 0 112.5 17t86.5 52.5t56 90t20 130.5q0 77 -21 132.5t-58 91t-88 52.5t-111 17h-131v-263h101v-56h-101v-264h134z" />
    <glyph glyph-name="dcroat" unicode="&#x111;" horiz-adv-x="538" 
d="M457 583v-481q0 -29 9.5 -41.5t32.5 -12.5v-47q-5 -2 -13 -2.5t-16 -0.5q-32 0 -51 19t-19 53v20q-20 -43 -59.5 -72.5t-100.5 -29.5q-43 0 -79.5 17.5t-62 49.5t-40 77.5t-14.5 102.5t14.5 104.5t41 81.5t64.5 53t86 19q51 0 88 -22.5t56 -56.5v169h-120v56h120v87h63
v-87h78v-56h-78zM394 332q-12 45 -46.5 76.5t-87.5 31.5q-73 0 -112 -53.5t-39 -151.5q0 -88 39 -140.5t108 -52.5q53 0 89 32t49 85v173z" />
    <glyph glyph-name="Emacron" unicode="&#x112;" horiz-adv-x="560" 
d="M191 826h248v-54h-248v54zM92 700h424v-60h-359v-254h310v-61h-310v-265h359v-60h-424v700z" />
    <glyph glyph-name="emacron" unicode="&#x113;" horiz-adv-x="471" 
d="M365 610h-242v52h242v-52zM432 78q-58 -90 -180 -90q-97 0 -152.5 60.5t-55.5 178.5q0 57 16.5 105.5t46.5 84.5t72 56t93 20q70 0 111 -35t41 -96q0 -53 -29 -85.5t-75 -50.5t-101.5 -25t-108.5 -10q10 -78 48.5 -113.5t98.5 -35.5q51 0 81 18t54 51zM270 440
q-37 0 -66.5 -14.5t-50.5 -41t-32.5 -63t-12.5 -81.5q41 2 86 7.5t83 18t63 35t25 59.5q0 42 -25.5 61t-69.5 19z" />
    <glyph glyph-name="Ebreve" unicode="&#x114;" horiz-adv-x="560" 
d="M314 745q-48 0 -79 30.5t-31 86.5h51q0 -29 15 -47t44 -18q30 0 45.5 18t15.5 47h51q0 -55 -31.5 -86t-80.5 -31zM92 700h424v-60h-359v-254h310v-61h-310v-265h359v-60h-424v700z" />
    <glyph glyph-name="ebreve" unicode="&#x115;" horiz-adv-x="471" 
d="M244 571q-60 0 -87 34t-27 91h50q0 -74 64 -74q63 -2 63 74h51q0 -57 -27.5 -91t-86.5 -34zM432 78q-58 -90 -180 -90q-97 0 -152.5 60.5t-55.5 178.5q0 57 16.5 105.5t46.5 84.5t72 56t93 20q70 0 111 -35t41 -96q0 -53 -29 -85.5t-75 -50.5t-101.5 -25t-108.5 -10
q10 -78 48.5 -113.5t98.5 -35.5q51 0 81 18t54 51zM270 440q-37 0 -66.5 -14.5t-50.5 -41t-32.5 -63t-12.5 -81.5q41 2 86 7.5t83 18t63 35t25 59.5q0 42 -25.5 61t-69.5 19z" />
    <glyph glyph-name="Edotaccent" unicode="&#x116;" horiz-adv-x="560" 
d="M315 754q-20 0 -35 15t-15 35t15 35t35 15t35 -15t15 -35t-15 -35t-35 -15zM92 700h424v-60h-359v-254h310v-61h-310v-265h359v-60h-424v700z" />
    <glyph glyph-name="edotaccent" unicode="&#x117;" horiz-adv-x="471" 
d="M244 590q-19 0 -33 13.5t-14 33.5t14 34t33 14q20 0 34 -14t14 -34t-14 -33.5t-34 -13.5zM432 78q-58 -90 -180 -90q-97 0 -152.5 60.5t-55.5 178.5q0 57 16.5 105.5t46.5 84.5t72 56t93 20q70 0 111 -35t41 -96q0 -53 -29 -85.5t-75 -50.5t-101.5 -25t-108.5 -10
q10 -78 48.5 -113.5t98.5 -35.5q51 0 81 18t54 51zM270 440q-37 0 -66.5 -14.5t-50.5 -41t-32.5 -63t-12.5 -81.5q41 2 86 7.5t83 18t63 35t25 59.5q0 42 -25.5 61t-69.5 19z" />
    <glyph glyph-name="Eogonek" unicode="&#x118;" horiz-adv-x="560" 
d="M539 -151q-11 -11 -28 -17.5t-38 -6.5q-42 0 -64.5 20.5t-22.5 57.5q0 28 14 53t40 44h-348v700h424v-60h-359v-254h310v-61h-310v-265h359v-60q-32 -9 -52.5 -32t-20.5 -54q0 -23 11 -33t30 -10q11 0 19.5 3.5t13.5 8.5z" />
    <glyph glyph-name="eogonek" unicode="&#x119;" horiz-adv-x="471" 
d="M317 -5q-27 -11 -43.5 -32t-16.5 -49q0 -43 41 -43q11 0 19 3.5t14 8.5l22 -34q-11 -11 -28.5 -17.5t-37.5 -6.5q-42 0 -64.5 20.5t-22.5 57.5q0 24 10.5 46t29.5 39q-92 4 -144 64t-52 175q0 57 16.5 105.5t46.5 84.5t72 56t93 20q70 0 111 -35t41 -96q0 -53 -29 -85.5
t-75 -50.5t-101.5 -25t-108.5 -10q10 -78 48.5 -113.5t98.5 -35.5q51 0 81 18t54 51l40 -33q-41 -63 -115 -83zM270 440q-37 0 -66.5 -14.5t-50.5 -41t-32.5 -63t-12.5 -81.5q41 2 86 7.5t83 18t63 35t25 59.5q0 42 -25.5 61t-69.5 19z" />
    <glyph glyph-name="Ecaron" unicode="&#x11a;" horiz-adv-x="560" 
d="M192 865h59l65 -77l65 77h58l-88 -123h-72zM92 700h424v-60h-359v-254h310v-61h-310v-265h359v-60h-424v700z" />
    <glyph glyph-name="ecaron" unicode="&#x11b;" horiz-adv-x="471" 
d="M209 558l-87 162h58l64 -114l64 114h57l-88 -162h-68zM432 78q-58 -90 -180 -90q-97 0 -152.5 60.5t-55.5 178.5q0 57 16.5 105.5t46.5 84.5t72 56t93 20q70 0 111 -35t41 -96q0 -53 -29 -85.5t-75 -50.5t-101.5 -25t-108.5 -10q10 -78 48.5 -113.5t98.5 -35.5
q51 0 81 18t54 51zM270 440q-37 0 -66.5 -14.5t-50.5 -41t-32.5 -63t-12.5 -81.5q41 2 86 7.5t83 18t63 35t25 59.5q0 42 -25.5 61t-69.5 19z" />
    <glyph glyph-name="Gcircumflex" unicode="&#x11c;" horiz-adv-x="649" 
d="M302 865h73l87 -123h-60l-65 77l-65 -77h-57zM347 -9q-140 0 -218 90.5t-78 266.5q0 83 21 149.5t60 113t94 71t123 24.5q114 0 171.5 -51t58.5 -133q1 -13 -0.5 -24t-3.5 -20h-62q2 8 2.5 16t0.5 23q-2 61 -45.5 97t-122.5 36q-109 0 -169 -78.5t-60 -223.5
q0 -70 15.5 -125.5t45.5 -94.5t73 -60t98 -21q68 0 112 17.5t64 39.5v177h-174v60h239v-261q-31 -34 -92 -61.5t-153 -27.5z" />
    <glyph glyph-name="gcircumflex" unicode="&#x11d;" horiz-adv-x="529" 
d="M228 720h68l87 -162h-57l-65 113l-64 -113h-57zM254 -240q-69 0 -115 26t-67 67l44 34q17 -32 52.5 -52.5t87.5 -20.5q66 0 103 36.5t37 101.5v134q-17 -39 -57.5 -67.5t-100.5 -28.5q-43 0 -79 17.5t-61.5 50t-39.5 78t-14 101.5q0 57 14 103.5t40 80.5t63.5 52.5
t84.5 18.5q51 0 90.5 -22.5t62.5 -60.5v73h57v-530q0 -88 -54.5 -140t-147.5 -52zM255 44q54 0 89.5 32t48.5 84v172q-5 21 -17 40.5t-30 34t-41 23.5t-50 9q-70 0 -108 -52.5t-38 -149.5q0 -88 38 -140.5t108 -52.5z" />
    <glyph glyph-name="Gbreve" unicode="&#x11e;" horiz-adv-x="649" 
d="M337 745q-48 0 -79 30.5t-31 86.5h51q0 -29 15.5 -47t44.5 -18t44.5 18t15.5 47h51q0 -55 -31.5 -86t-80.5 -31zM347 -9q-140 0 -218 90.5t-78 266.5q0 83 21 149.5t60 113t94 71t123 24.5q114 0 171.5 -51t58.5 -133q1 -13 -0.5 -24t-3.5 -20h-62q2 8 2.5 16t0.5 23
q-2 61 -45.5 97t-122.5 36q-109 0 -169 -78.5t-60 -223.5q0 -70 15.5 -125.5t45.5 -94.5t73 -60t98 -21q68 0 112 17.5t64 39.5v177h-174v60h239v-261q-31 -34 -92 -61.5t-153 -27.5z" />
    <glyph glyph-name="gbreve" unicode="&#x11f;" horiz-adv-x="529" 
d="M263 571q-61 0 -88 34t-27 91h51q0 -74 63 -74q64 -2 64 74h51q0 -57 -27.5 -91t-86.5 -34zM254 -240q-69 0 -115 26t-67 67l44 34q17 -32 52.5 -52.5t87.5 -20.5q66 0 103 36.5t37 101.5v134q-17 -39 -57.5 -67.5t-100.5 -28.5q-43 0 -79 17.5t-61.5 50t-39.5 78
t-14 101.5q0 57 14 103.5t40 80.5t63.5 52.5t84.5 18.5q51 0 90.5 -22.5t62.5 -60.5v73h57v-530q0 -88 -54.5 -140t-147.5 -52zM255 44q54 0 89.5 32t48.5 84v172q-5 21 -17 40.5t-30 34t-41 23.5t-50 9q-70 0 -108 -52.5t-38 -149.5q0 -88 38 -140.5t108 -52.5z" />
    <glyph glyph-name="Gdotaccent" unicode="&#x120;" horiz-adv-x="649" 
d="M338 754q-20 0 -35 15t-15 35t15 35t35 15t35 -15t15 -35t-15 -35t-35 -15zM347 -9q-140 0 -218 90.5t-78 266.5q0 83 21 149.5t60 113t94 71t123 24.5q114 0 171.5 -51t58.5 -133q1 -13 -0.5 -24t-3.5 -20h-62q2 8 2.5 16t0.5 23q-2 61 -45.5 97t-122.5 36
q-109 0 -169 -78.5t-60 -223.5q0 -70 15.5 -125.5t45.5 -94.5t73 -60t98 -21q68 0 112 17.5t64 39.5v177h-174v60h239v-261q-31 -34 -92 -61.5t-153 -27.5z" />
    <glyph glyph-name="gdotaccent" unicode="&#x121;" horiz-adv-x="529" 
d="M263 590q-20 0 -34 13.5t-14 33.5t14 34t34 14q19 0 33 -14t14 -34t-14 -33.5t-33 -13.5zM254 -240q-69 0 -115 26t-67 67l44 34q17 -32 52.5 -52.5t87.5 -20.5q66 0 103 36.5t37 101.5v134q-17 -39 -57.5 -67.5t-100.5 -28.5q-43 0 -79 17.5t-61.5 50t-39.5 78
t-14 101.5q0 57 14 103.5t40 80.5t63.5 52.5t84.5 18.5q51 0 90.5 -22.5t62.5 -60.5v73h57v-530q0 -88 -54.5 -140t-147.5 -52zM255 44q54 0 89.5 32t48.5 84v172q-5 21 -17 40.5t-30 34t-41 23.5t-50 9q-70 0 -108 -52.5t-38 -149.5q0 -88 38 -140.5t108 -52.5z" />
    <glyph glyph-name="uni0122" unicode="&#x122;" horiz-adv-x="649" 
d="M347 -9q-140 0 -218 90.5t-78 266.5q0 83 21 149.5t60 113t94 71t123 24.5q114 0 171.5 -51t58.5 -133q1 -13 -0.5 -24t-3.5 -20h-62q2 8 2.5 16t0.5 23q-2 61 -45.5 97t-122.5 36q-109 0 -169 -78.5t-60 -223.5q0 -70 15.5 -125.5t45.5 -94.5t73 -60t98 -21
q68 0 112 17.5t64 39.5v177h-174v60h239v-261q-31 -34 -92 -61.5t-153 -27.5zM295 -192q20 11 32 25.5t13 32.5q-23 1 -34.5 14t-11.5 33t13.5 34t33.5 14q23 0 37 -15.5t14 -42.5q0 -46 -23 -80t-55 -45z" />
    <glyph glyph-name="uni0123" unicode="&#x123;" horiz-adv-x="529" 
d="M263 554q-23 0 -36 15t-13 41q0 40 21 71.5t51 42.5l21 -30q-20 -8 -32.5 -20t-13.5 -26q23 1 36.5 -13.5t13.5 -33.5q0 -20 -14 -33.5t-34 -13.5zM254 -240q-69 0 -115 26t-67 67l44 34q17 -32 52.5 -52.5t87.5 -20.5q66 0 103 36.5t37 101.5v134q-17 -39 -57.5 -67.5
t-100.5 -28.5q-43 0 -79 17.5t-61.5 50t-39.5 78t-14 101.5q0 57 14 103.5t40 80.5t63.5 52.5t84.5 18.5q51 0 90.5 -22.5t62.5 -60.5v73h57v-530q0 -88 -54.5 -140t-147.5 -52zM255 44q54 0 89.5 32t48.5 84v172q-5 21 -17 40.5t-30 34t-41 23.5t-50 9q-70 0 -108 -52.5
t-38 -149.5q0 -88 38 -140.5t108 -52.5z" />
    <glyph glyph-name="Hcircumflex" unicode="&#x124;" horiz-adv-x="680" 
d="M304 865h73l87 -123h-60l-65 77l-65 -77h-57zM92 700h65v-316h366v316h65v-700h-65v323h-366v-323h-65v700z" />
    <glyph glyph-name="hcircumflex" unicode="&#x125;" horiz-adv-x="529" 
d="M69 865h72l87 -123h-60l-65 77l-64 -77h-58zM468 -2q-39 0 -57.5 23.5t-18.5 65.5v220q0 54 -29 92t-91 38q-35 0 -61 -14t-42.5 -36t-24.5 -48.5t-8 -51.5v-287h-63v726h63v-334q15 40 53 70t98 30q45 0 77 -14.5t52.5 -40t29.5 -60t9 -73.5v-205q0 -30 9.5 -41
t32.5 -11v-46q-5 -2 -13 -2.5t-16 -0.5z" />
    <glyph glyph-name="Hbar" unicode="&#x126;" horiz-adv-x="685" 
d="M650 520h-59v-520h-65v323h-367v-323h-65v520h-58v50h58v130h65v-130h367v130h65v-130h59v-50zM526 520h-367v-136h367v136z" />
    <glyph glyph-name="hbar" unicode="&#x127;" horiz-adv-x="529" 
d="M455 99q0 -30 9.5 -41t32.5 -11v-46q-5 -2 -13 -2.5t-16 -0.5q-39 0 -57.5 23.5t-18.5 65.5v220q0 54 -29 92t-91 38q-35 0 -61 -14t-42.5 -36t-24.5 -48.5t-8 -51.5v-287h-63v583h-80v56h80v87h63v-87h117v-56h-117v-191q15 40 53 70t98 30q45 0 77 -14.5t52.5 -40
t29.5 -60t9 -73.5v-205z" />
    <glyph glyph-name="Itilde" unicode="&#x128;" horiz-adv-x="248" 
d="M-6 749q-5 8 -7.5 18t-2.5 23q0 26 18.5 44.5t51.5 18.5q21 0 38.5 -7t33 -16t29.5 -16t29 -7q26 0 26 27q0 8 -2 13.5t-4 9.5h50q9 -16 9 -42t-18 -44.5t-56 -18.5q-22 0 -39.5 7.5t-32.5 16t-28 16t-26 7.5q-11 0 -18.5 -7.5t-7.5 -20.5q0 -7 2 -12.5t4 -9.5h-49z
M92 700h65v-700h-65v700z" />
    <glyph glyph-name="itilde" unicode="&#x129;" horiz-adv-x="215" 
d="M-21 583q-5 9 -7.5 18.5t-2.5 22.5q0 27 18 45.5t56 18.5q19 0 35.5 -7.5t31.5 -16t29 -16t29 -7.5q27 0 27 27q0 17 -6 24h50q5 -8 7.5 -18t2.5 -24q0 -26 -17.5 -45t-55.5 -19q-22 0 -39.5 7.5t-32.5 16t-28 16t-25 7.5q-13 0 -21 -7t-8 -20q0 -12 7 -23h-50zM76 482
h63v-482h-63v482z" />
    <glyph glyph-name="Imacron" unicode="&#x12a;" horiz-adv-x="248" 
d="M0 826h248v-54h-248v54zM92 700h65v-700h-65v700z" />
    <glyph glyph-name="imacron" unicode="&#x12b;" horiz-adv-x="215" 
d="M-13 662h242v-52h-242v52zM76 482h63v-482h-63v482z" />
    <glyph glyph-name="Ibreve" unicode="&#x12c;" horiz-adv-x="248" 
d="M123 745q-48 0 -79 30.5t-31 86.5h51q0 -29 15.5 -47t44.5 -18t44.5 18t15.5 47h51q0 -55 -31.5 -86t-80.5 -31zM92 700h65v-700h-65v700z" />
    <glyph glyph-name="ibreve" unicode="&#x12d;" horiz-adv-x="215" 
d="M108 571q-60 0 -87 34t-27 91h50q0 -74 64 -74q63 -2 63 74h51q0 -57 -27.5 -91t-86.5 -34zM76 482h63v-482h-63v482z" />
    <glyph glyph-name="Iogonek" unicode="&#x12e;" horiz-adv-x="249" 
d="M180 -151q-11 -11 -28.5 -17.5t-37.5 -6.5q-42 0 -64.5 20.5t-22.5 57.5q0 31 17.5 58t47.5 47v692h65v-700q-32 -9 -53 -32t-21 -54q0 -23 11 -33t31 -10q11 0 19 3.5t14 8.5z" />
    <glyph glyph-name="iogonek" unicode="&#x12f;" horiz-adv-x="216" 
d="M109 590q-20 0 -34 13.5t-14 33.5t14 34t34 14t34 -14t14 -34t-14 -33.5t-34 -13.5zM162 -151q-10 -11 -27.5 -17.5t-37.5 -6.5q-42 0 -64.5 20.5t-22.5 57.5q0 32 18 59.5t49 46.5v473h63v-482q-32 -9 -53 -32t-21 -54q0 -23 11 -33t30 -10q11 0 19.5 3.5t13.5 8.5z" />
    <glyph glyph-name="Idotaccent" unicode="&#x130;" horiz-adv-x="248" 
d="M124 754q-20 0 -35 15t-15 35t15 35t35 15t35 -15t15 -35t-15 -35t-35 -15zM92 700h65v-700h-65v700z" />
    <glyph glyph-name="dotlessi" unicode="&#x131;" horiz-adv-x="215" 
d="M76 482h63v-482h-63v482z" />
    <glyph glyph-name="IJ" unicode="&#x132;" horiz-adv-x="700" 
d="M92 700h65v-700h-65v700zM423 -6q-59 0 -99.5 22.5t-65.5 55.5l42 45q22 -27 53 -46.5t72 -19.5q63 0 94 38.5t31 110.5v500h65v-495q0 -105 -50.5 -158t-141.5 -53z" />
    <glyph glyph-name="ij" unicode="&#x133;" horiz-adv-x="439" 
d="M108 590q-19 0 -33 13.5t-14 33.5t14 34t33 14q20 0 34 -14t14 -34t-14 -33.5t-34 -13.5zM324 590q-20 0 -34 13.5t-14 33.5t14 34t34 14q19 0 33 -14t14 -34t-14 -33.5t-33 -13.5zM76 482h63v-482h-63v482zM206 -247q-22 0 -38.5 4t-27.5 9q-12 6 -21 13l20 45
q7 -5 16 -9q8 -3 19 -5.5t26 -2.5q46 0 69.5 28.5t23.5 90.5v556h62v-558q0 -82 -35.5 -126.5t-113.5 -44.5z" />
    <glyph glyph-name="Jcircumflex" unicode="&#x134;" horiz-adv-x="461" 
d="M304 865h72l87 -123h-59l-65 77l-65 -77h-57zM184 -6q-59 0 -99.5 22.5t-65.5 55.5l42 45q22 -27 53 -46.5t72 -19.5q63 0 94 38.5t31 110.5v500h65v-495q0 -105 -50.5 -158t-141.5 -53z" />
    <glyph glyph-name="jcircumflex" unicode="&#x135;" horiz-adv-x="218" 
d="M76 720h68l87 -162h-57l-65 113l-64 -113h-57zM-7 -247q-22 0 -38 4t-27 9q-13 6 -22 13l20 45q7 -5 16 -9q8 -3 19 -5.5t26 -2.5q46 0 69.5 28.5t23.5 90.5v556h62v-558q0 -82 -35.5 -126.5t-113.5 -44.5z" />
    <glyph glyph-name="uni0136" unicode="&#x136;" horiz-adv-x="636" 
d="M630 59v-58q-2 0 -15 -1.5t-29 -1.5q-42 0 -70.5 24t-50.5 59.5t-41 77t-44 77t-58.5 59.5t-84.5 24h-80v-319h-65v700h65v-324h94q42 0 85 17t78 55t57.5 100t22.5 152h65q0 -69 -15 -126t-42 -102t-63.5 -77t-79.5 -51q31 -15 54 -42t41.5 -58.5t34.5 -64.5t32.5 -59.5
t35 -43.5t43.5 -17h30zM333 -39q23 0 37 -15.5t14 -42.5q0 -46 -22.5 -80t-54.5 -45l-20 30q43 22 45 58q-23 1 -34.5 14t-11.5 33t13.5 34t33.5 14z" />
    <glyph glyph-name="uni0137" unicode="&#x137;" horiz-adv-x="496" 
d="M488 48v-46l-8 -2t-9 -1.5t-11 -0.5q-45 0 -70.5 16.5t-42 41.5t-28.5 53.5t-30 53.5t-46.5 41.5t-77.5 16.5h-29v-221h-63v726h63v-452h51q48 0 82 14.5t55.5 41.5t32 65.5t11.5 86.5h59q-1 -27 -5.5 -61.5t-19.5 -68.5t-42.5 -63.5t-73.5 -47.5q40 -18 59.5 -50.5
t35.5 -64t36 -55t61 -23.5h10zM264 -39q24 0 37.5 -15.5t13.5 -42.5q0 -46 -22.5 -80t-54.5 -45l-20 30q43 21 46 58q-24 1 -35.5 14t-11.5 33t13.5 34t33.5 14z" />
    <glyph glyph-name="kgreenlandic" unicode="&#x138;" horiz-adv-x="496" 
d="M488 48v-46l-8 -2t-9 -1.5t-11 -0.5q-45 0 -70.5 16t-42 40t-28.5 52t-30 52t-46.5 40t-77.5 16h-29v-214h-63v482h63v-215h51q48 0 82 15.5t56 44t32 68t11 87.5h60q-1 -27 -6 -62.5t-20 -70.5t-42.5 -66t-74.5 -49q41 -18 60.5 -49t35 -61.5t35.5 -53t62 -22.5h10z" />
    <glyph glyph-name="Lacute" unicode="&#x139;" horiz-adv-x="531" 
d="M167 865h85l-105 -123h-63zM92 700h65v-643h358v-57h-423v700z" />
    <glyph glyph-name="lacute" unicode="&#x13a;" horiz-adv-x="221" 
d="M118 879h84l-104 -123h-63zM152 -3q-38 0 -57 21t-19 66v642h63v-631q0 -28 10 -37t33 -9v-49q-5 -2 -13.5 -2.5t-16.5 -0.5z" />
    <glyph glyph-name="uni013B" unicode="&#x13b;" horiz-adv-x="531" 
d="M92 700h65v-643h358v-57h-423v700zM275 -192q42 22 45 58q-23 1 -35 14t-12 33t13.5 34t33.5 14q24 0 38 -15.5t14 -42.5q0 -46 -23 -80t-55 -45z" />
    <glyph glyph-name="uni013C" unicode="&#x13c;" horiz-adv-x="221" 
d="M152 -3q-38 0 -57 21t-19 66v642h63v-631q0 -28 10 -37t33 -9v-49q-5 -2 -13.5 -2.5t-16.5 -0.5zM80 -192q42 22 45 58q-23 1 -35 14t-12 33t13.5 34t33.5 14q24 0 38 -15.5t14 -42.5q0 -46 -23 -80t-55 -45z" />
    <glyph glyph-name="Lcaron" unicode="&#x13d;" horiz-adv-x="534" 
d="M342 559q20 8 32 21.5t13 29.5q-21 0 -33.5 13.5t-12.5 33.5t14 34t34 14q23 0 37 -15t14 -41q0 -44 -23 -77.5t-55 -44.5zM92 700h65v-643h358v-57h-423v700z" />
    <glyph glyph-name="lcaron" unicode="&#x13e;" horiz-adv-x="223" 
d="M185 587q20 8 32.5 21.5t12.5 29.5q-20 0 -32.5 14t-12.5 34t13.5 33.5t33.5 13.5q23 0 37.5 -15t14.5 -41q0 -44 -23 -77.5t-56 -44.5zM152 -3q-38 0 -57 21t-19 66v642h63v-631q0 -28 10 -37t33 -9v-49q-5 -2 -13.5 -2.5t-16.5 -0.5z" />
    <glyph glyph-name="Ldot" unicode="&#x13f;" horiz-adv-x="532" 
d="M92 700h65v-643h358v-57h-423v700zM390 340q-20 0 -33.5 13.5t-13.5 33.5q0 19 13.5 33t33.5 14q19 0 32.5 -14t13.5 -33q0 -20 -13.5 -33.5t-32.5 -13.5z" />
    <glyph glyph-name="ldot" unicode="&#x140;" horiz-adv-x="267" 
d="M152 -3q-38 0 -57 21t-19 66v642h63v-631q0 -28 10 -37t33 -9v-49q-5 -2 -13.5 -2.5t-16.5 -0.5zM240 330q-20 0 -33.5 13.5t-13.5 33.5t13.5 33.5t33.5 13.5t33.5 -13.5t13.5 -33.5t-13.5 -33.5t-33.5 -13.5z" />
    <glyph glyph-name="Lslash" unicode="&#x141;" horiz-adv-x="549" 
d="M533 57v-57h-423v292l-88 -50l-26 48l114 65v345h66v-307l104 59l27 -47l-131 -75v-273h357z" />
    <glyph glyph-name="lslash" unicode="&#x142;" horiz-adv-x="284" 
d="M173 95q0 -28 10 -37t33 -9v-49q-5 -2 -13.5 -2.5t-16.5 -0.5q-38 0 -57 21t-19 66v240l-69 -40l-24 43l93 54v345h63v-308l68 39l24 -42l-92 -54v-266z" />
    <glyph glyph-name="Nacute" unicode="&#x143;" horiz-adv-x="672" 
d="M375 865h84l-104 -123h-63zM92 700h57l358 -568l12 -23v591h61v-700h-57l-361 570l-9 19v-589h-61v700z" />
    <glyph glyph-name="nacute" unicode="&#x144;" horiz-adv-x="537" 
d="M304 720h78l-104 -162h-59zM476 -2q-40 0 -58.5 23.5t-18.5 65.5v218q0 63 -30.5 98.5t-88.5 35.5q-31 0 -56 -12t-43 -32.5t-27.5 -48.5t-9.5 -61v-285h-63v386q0 30 -9.5 41t-32.5 11v46q9 3 29 3q69 0 69 -80v-23q19 52 60 80.5t98 28.5q80 0 123.5 -49t43.5 -139
v-206q0 -30 9.5 -41t32.5 -11v-46q-9 -3 -28 -3z" />
    <glyph glyph-name="uni0145" unicode="&#x145;" horiz-adv-x="672" 
d="M92 700h57l358 -568l12 -23v591h61v-700h-57l-361 570l-9 19v-589h-61v700zM291 -192q20 11 32 25.5t13 32.5q-23 1 -35 14t-12 33t14 34t34 14q23 0 37 -15.5t14 -42.5q0 -46 -23 -80t-55 -45z" />
    <glyph glyph-name="uni0146" unicode="&#x146;" horiz-adv-x="537" 
d="M476 -2q-40 0 -58.5 23.5t-18.5 65.5v218q0 63 -30.5 98.5t-88.5 35.5q-31 0 -56 -12t-43 -32.5t-27.5 -48.5t-9.5 -61v-285h-63v386q0 30 -9.5 41t-32.5 11v46q9 3 29 3q69 0 69 -80v-23q19 52 60 80.5t98 28.5q80 0 123.5 -49t43.5 -139v-206q0 -30 9.5 -41t32.5 -11
v-46q-9 -3 -28 -3zM240 -192q42 22 45 58q-23 1 -35 14t-12 33t13.5 34t33.5 14q24 0 38 -15.5t14 -42.5q0 -46 -23 -80t-55 -45z" />
    <glyph glyph-name="Ncaron" unicode="&#x147;" horiz-adv-x="672" 
d="M223 865h59l65 -77l65 77h58l-88 -123h-72zM92 700h57l358 -568l12 -23v591h61v-700h-57l-361 570l-9 19v-589h-61v700z" />
    <glyph glyph-name="ncaron" unicode="&#x148;" horiz-adv-x="537" 
d="M146 720h57l65 -114l64 114h57l-89 -162h-67zM476 -2q-40 0 -58.5 23.5t-18.5 65.5v218q0 63 -30.5 98.5t-88.5 35.5q-31 0 -56 -12t-43 -32.5t-27.5 -48.5t-9.5 -61v-285h-63v386q0 30 -9.5 41t-32.5 11v46q9 3 29 3q69 0 69 -80v-23q19 52 60 80.5t98 28.5
q80 0 123.5 -49t43.5 -139v-206q0 -30 9.5 -41t32.5 -11v-46q-9 -3 -28 -3z" />
    <glyph glyph-name="napostrophe" unicode="&#x149;" horiz-adv-x="618" 
d="M20 608q11 3 19 8q8 4 14 10t6 15q-17 0 -29 12t-12 29t12 29t29 12q18 0 31 -12.5t13 -35.5q0 -31 -10.5 -49.5t-22.5 -28.5q-15 -13 -33 -18zM556 -2q-34 0 -55 21.5t-21 72.5v208q0 57 -29 95.5t-91 38.5q-35 0 -60.5 -15.5t-42 -38.5t-24.5 -51t-8 -54v-275h-63v385
q0 23 -8.5 36t-33.5 13v47q3 1 8 2q4 0 9.5 0.5t12.5 0.5q27 0 47.5 -18t20.5 -54v-39q6 23 18.5 44t32 36.5t46 25t60.5 9.5q45 0 77.5 -14.5t52.5 -40t29.5 -60t9.5 -73.5v-202q0 -24 8.5 -37t33.5 -13v-47q-3 -1 -8 -2q-4 0 -9.5 -0.5t-12.5 -0.5z" />
    <glyph glyph-name="Eng" unicode="&#x14a;" horiz-adv-x="672" 
d="M580 700v-747q0 -81 -38 -124t-110 -43q-38 0 -64.5 11.5t-42.5 29.5l39 50q26 -30 71 -30q38 0 60 25.5t22 77.5v59l-355 561l-9 19v-589h-61v700h57l358 -568l12 -23v591h61z" />
    <glyph glyph-name="eng" unicode="&#x14b;" horiz-adv-x="528" 
d="M295 493q80 0 123.5 -49t43.5 -139v-352q0 -81 -38 -124t-110 -43q-38 0 -64.5 11.5t-42.5 29.5l39 50q27 -30 71 -30q38 0 60 25.5t22 77.5v355q0 63 -30.5 98.5t-88.5 35.5q-31 0 -56 -12t-43 -32.5t-27.5 -48.5t-9.5 -61v-285h-63v386q0 30 -9.5 41t-32.5 11v46
q9 3 29 3q69 0 69 -80v-23q19 52 60 80.5t98 28.5z" />
    <glyph glyph-name="Omacron" unicode="&#x14c;" horiz-adv-x="708" 
d="M230 826h248v-54h-248v54zM352 -6q-59 0 -113.5 19t-96.5 61t-67 109t-25 164q0 96 25.5 164t68.5 111.5t98 63.5t114 20t113.5 -19t96 -61.5t66.5 -110.5t25 -165q0 -96 -25.5 -163.5t-68 -110t-97.5 -62.5t-114 -20zM352 50q45 0 88 15.5t76 51t53 92.5t20 140
q0 85 -19.5 142.5t-52 93t-74.5 50.5t-87 15t-88 -15.5t-76 -51.5t-53 -93.5t-20 -141.5t19.5 -141t51.5 -92t74.5 -50t87.5 -15z" />
    <glyph glyph-name="omacron" unicode="&#x14d;" horiz-adv-x="519" 
d="M139 662h242v-52h-242v52zM257 -12q-97 0 -154.5 65.5t-57.5 187.5q0 61 16 108t45 79t68.5 48.5t87.5 16.5q97 0 154.5 -65t57.5 -187q0 -60 -16 -107.5t-44.5 -79.5t-68.5 -49t-88 -17zM259 41q65 0 108 50t43 150t-42 149.5t-108 49.5q-64 0 -107.5 -49.5
t-43.5 -149.5t42.5 -150t107.5 -50z" />
    <glyph glyph-name="Obreve" unicode="&#x14e;" horiz-adv-x="708" 
d="M353 745q-49 0 -80 30.5t-31 86.5h51q0 -29 15.5 -47t44.5 -18q30 0 45.5 18t15.5 47h51q0 -55 -32 -86t-80 -31zM352 -6q-59 0 -113.5 19t-96.5 61t-67 109t-25 164q0 96 25.5 164t68.5 111.5t98 63.5t114 20t113.5 -19t96 -61.5t66.5 -110.5t25 -165
q0 -96 -25.5 -163.5t-68 -110t-97.5 -62.5t-114 -20zM352 50q45 0 88 15.5t76 51t53 92.5t20 140q0 85 -19.5 142.5t-52 93t-74.5 50.5t-87 15t-88 -15.5t-76 -51.5t-53 -93.5t-20 -141.5t19.5 -141t51.5 -92t74.5 -50t87.5 -15z" />
    <glyph glyph-name="obreve" unicode="&#x14f;" horiz-adv-x="519" 
d="M260 571q-61 0 -88 34t-27 91h51q0 -74 63 -74q64 -2 64 74h51q0 -57 -27.5 -91t-86.5 -34zM257 -12q-97 0 -154.5 65.5t-57.5 187.5q0 61 16 108t45 79t68.5 48.5t87.5 16.5q97 0 154.5 -65t57.5 -187q0 -60 -16 -107.5t-44.5 -79.5t-68.5 -49t-88 -17zM259 41
q65 0 108 50t43 150t-42 149.5t-108 49.5q-64 0 -107.5 -49.5t-43.5 -149.5t42.5 -150t107.5 -50z" />
    <glyph glyph-name="Ohungarumlaut" unicode="&#x150;" horiz-adv-x="708" 
d="M289 865h82l-88 -123h-58zM442 865h81l-88 -123h-57zM352 -6q-59 0 -113.5 19t-96.5 61t-67 109t-25 164q0 96 25.5 164t68.5 111.5t98 63.5t114 20t113.5 -19t96 -61.5t66.5 -110.5t25 -165q0 -96 -25.5 -163.5t-68 -110t-97.5 -62.5t-114 -20zM352 50q45 0 88 15.5
t76 51t53 92.5t20 140q0 85 -19.5 142.5t-52 93t-74.5 50.5t-87 15t-88 -15.5t-76 -51.5t-53 -93.5t-20 -141.5t19.5 -141t51.5 -92t74.5 -50t87.5 -15z" />
    <glyph glyph-name="ohungarumlaut" unicode="&#x151;" horiz-adv-x="519" 
d="M208 720h75l-90 -162h-54zM360 720h75l-90 -162h-53zM257 -12q-97 0 -154.5 65.5t-57.5 187.5q0 61 16 108t45 79t68.5 48.5t87.5 16.5q97 0 154.5 -65t57.5 -187q0 -60 -16 -107.5t-44.5 -79.5t-68.5 -49t-88 -17zM259 41q65 0 108 50t43 150t-42 149.5t-108 49.5
q-64 0 -107.5 -49.5t-43.5 -149.5t42.5 -150t107.5 -50z" />
    <glyph glyph-name="OE" unicode="&#x152;" horiz-adv-x="1024" 
d="M344 -6q-63 0 -117 22.5t-93.5 66.5t-61.5 111t-22 155q0 89 22 155.5t61.5 111.5t93.5 67.5t117 22.5q51 0 90 -16.5t67 -40t45.5 -48t25.5 -40.5v139h408v-60h-343v-254h294v-61h-294v-265h343v-60h-408v141q-9 -20 -27 -45.5t-46.5 -48t-66.5 -38t-88 -15.5zM344 51
q48 0 89.5 18.5t72 55.5t48 93t17.5 131q0 76 -17.5 132.5t-48 93.5t-72 55.5t-89.5 18.5q-49 0 -90.5 -18.5t-71.5 -56t-47 -93.5t-17 -132q0 -75 17 -131t47 -93t71.5 -55.5t90.5 -18.5z" />
    <glyph glyph-name="oe" unicode="&#x153;" horiz-adv-x="830" 
d="M253 -6q-46 0 -84.5 16t-66 47.5t-42.5 77.5t-15 106t15 106t42.5 77.5t66 47.5t84.5 16q39 0 68 -12.5t50 -30t35 -37.5t24 -35q9 15 22 35t33.5 37.5t50.5 30t72 12.5q50 0 83.5 -16.5t54.5 -46t30 -69t9 -84.5v-27h-321v-12q1 -56 17 -92t39 -56.5t49.5 -28.5t49.5 -8
q34 0 58.5 10.5t41.5 24.5q18 15 31 34l36 -36q-15 -24 -39 -43q-22 -18 -54.5 -31t-80.5 -13q-38 0 -67.5 12t-51 29.5t-37 38t-25.5 37.5q-9 -16 -23.5 -36t-35.5 -38t-50.5 -30.5t-68.5 -12.5zM253 48q62 0 104 47.5t42 145.5t-42 145.5t-104 47.5q-31 0 -57.5 -11.5
t-46 -35.5t-31 -60.5t-11.5 -85.5t11.5 -85.5t31 -60.5t46 -35.5t57.5 -11.5zM725 290q0 30 -6 56.5t-20.5 46t-37.5 30.5t-57 11q-55 0 -92.5 -33.5t-45.5 -110.5h259z" />
    <glyph glyph-name="Racute" unicode="&#x154;" horiz-adv-x="624" 
d="M339 865h84l-104 -123h-63zM561 -3q-36 0 -60.5 22t-43 55.5t-34 72t-34 72t-42 55.5t-58.5 22h-132v-296h-65v700h222q108 0 169.5 -50t61.5 -154q0 -75 -43 -121t-110 -60q22 -10 38.5 -33t30 -51.5t26 -59t27 -56t32 -41.5t41.5 -16h23v-58q-2 0 -16.5 -1.5
t-32.5 -1.5zM306 348q36 0 67.5 9.5t55 28t36.5 45.5t13 63q0 69 -42.5 109.5t-125.5 40.5h-153v-296h149z" />
    <glyph glyph-name="racute" unicode="&#x155;" horiz-adv-x="349" 
d="M239 720h78l-105 -162h-58zM81 386q0 29 -9.5 40.5t-32.5 11.5v47q5 1 12.5 2t16.5 1q69 0 69 -76v-28q14 51 54 80t94 29q17 0 34 -4t26 -9l-25 -59q-8 4 -21.5 7t-27.5 3q-30 0 -53.5 -13t-40 -35.5t-25 -52.5t-8.5 -65v-265h-63v386z" />
    <glyph glyph-name="uni0156" unicode="&#x156;" horiz-adv-x="624" 
d="M561 -3q-36 0 -60.5 22t-43 55.5t-34 72t-34 72t-42 55.5t-58.5 22h-132v-296h-65v700h222q108 0 169.5 -50t61.5 -154q0 -75 -43 -121t-110 -60q22 -10 38.5 -33t30 -51.5t26 -59t27 -56t32 -41.5t41.5 -16h23v-58q-2 0 -16.5 -1.5t-32.5 -1.5zM306 348q36 0 67.5 9.5
t55 28t36.5 45.5t13 63q0 69 -42.5 109.5t-125.5 40.5h-153v-296h149zM288 -192q43 22 45 58q-23 1 -34.5 14t-11.5 33t13.5 34t33.5 14q23 0 37 -15.5t14 -42.5q0 -46 -22.5 -80t-54.5 -45z" />
    <glyph glyph-name="uni0157" unicode="&#x157;" horiz-adv-x="349" 
d="M81 386q0 29 -9.5 40.5t-32.5 11.5v47q5 1 12.5 2t16.5 1q69 0 69 -76v-28q14 51 54 80t94 29q17 0 34 -4t26 -9l-25 -59q-8 4 -21.5 7t-27.5 3q-30 0 -53.5 -13t-40 -35.5t-25 -52.5t-8.5 -65v-265h-63v386zM68 -192q43 22 45 58q-23 1 -34.5 14t-11.5 33t13.5 34
t33.5 14q24 0 37.5 -15.5t13.5 -42.5q0 -46 -22.5 -80t-54.5 -45z" />
    <glyph glyph-name="Rcaron" unicode="&#x158;" horiz-adv-x="624" 
d="M187 865h59l65 -77l65 77h58l-88 -123h-72zM561 -3q-36 0 -60.5 22t-43 55.5t-34 72t-34 72t-42 55.5t-58.5 22h-132v-296h-65v700h222q108 0 169.5 -50t61.5 -154q0 -75 -43 -121t-110 -60q22 -10 38.5 -33t30 -51.5t26 -59t27 -56t32 -41.5t41.5 -16h23v-58
q-2 0 -16.5 -1.5t-32.5 -1.5zM306 348q36 0 67.5 9.5t55 28t36.5 45.5t13 63q0 69 -42.5 109.5t-125.5 40.5h-153v-296h149z" />
    <glyph glyph-name="rcaron" unicode="&#x159;" horiz-adv-x="349" 
d="M80 720h58l64 -114l64 114h57l-88 -162h-68zM81 386q0 29 -9.5 40.5t-32.5 11.5v47q5 1 12.5 2t16.5 1q69 0 69 -76v-28q14 51 54 80t94 29q17 0 34 -4t26 -9l-25 -59q-8 4 -21.5 7t-27.5 3q-30 0 -53.5 -13t-40 -35.5t-25 -52.5t-8.5 -65v-265h-63v386z" />
    <glyph glyph-name="Sacute" unicode="&#x15a;" horiz-adv-x="575" 
d="M306 865h85l-104 -123h-64zM282 -6q-94 0 -154.5 30t-92.5 88l50 38q52 -100 197 -100q93 0 138.5 34t45.5 96q0 31 -10 54.5t-33 41.5t-60 31.5t-91 23.5q-108 22 -162 64.5t-54 125.5q0 43 16.5 77t47 58t73 37t93.5 13q45 0 86 -9.5t72 -29.5t49.5 -52.5t18.5 -79.5
q0 -17 -4 -34l-62 1q3 17 3 28q0 32 -13 54.5t-35 37t-52 21.5t-63 7q-79 0 -122 -33t-43 -92q0 -29 9.5 -50t31.5 -36.5t57 -27.5t87 -23q63 -13 105.5 -31t69 -42.5t38 -56t11.5 -73.5q0 -89 -64.5 -140t-183.5 -51z" />
    <glyph glyph-name="sacute" unicode="&#x15b;" horiz-adv-x="457" 
d="M267 720h78l-104 -162h-59zM229 -12q-65 0 -117 21t-81 75l45 37q29 -49 68 -64.5t85 -15.5q62 0 93.5 21.5t31.5 61.5q0 24 -11.5 39t-30 24.5t-43 15.5t-51.5 11q-30 6 -59.5 14.5t-53 24t-38 40t-14.5 61.5q0 63 47 101t130 38q81 0 128 -35t47 -100q0 -11 -2 -23.5
t-6 -21.5h-56q2 7 4 18t2 22q0 42 -31.5 64.5t-86.5 22.5q-57 0 -86 -22t-29 -62q0 -24 11.5 -38.5t31 -24.5t44.5 -15.5t51 -11.5q30 -6 59 -14.5t52 -23.5t37.5 -39t14.5 -61q0 -69 -50.5 -104.5t-135.5 -35.5z" />
    <glyph glyph-name="Scircumflex" unicode="&#x15c;" horiz-adv-x="575" 
d="M242 865h72l87 -123h-59l-65 77l-65 -77h-58zM282 -6q-94 0 -154.5 30t-92.5 88l50 38q52 -100 197 -100q93 0 138.5 34t45.5 96q0 31 -10 54.5t-33 41.5t-60 31.5t-91 23.5q-108 22 -162 64.5t-54 125.5q0 43 16.5 77t47 58t73 37t93.5 13q45 0 86 -9.5t72 -29.5
t49.5 -52.5t18.5 -79.5q0 -17 -4 -34l-62 1q3 17 3 28q0 32 -13 54.5t-35 37t-52 21.5t-63 7q-79 0 -122 -33t-43 -92q0 -29 9.5 -50t31.5 -36.5t57 -27.5t87 -23q63 -13 105.5 -31t69 -42.5t38 -56t11.5 -73.5q0 -89 -64.5 -140t-183.5 -51z" />
    <glyph glyph-name="scircumflex" unicode="&#x15d;" horiz-adv-x="457" 
d="M196 720h68l87 -162h-57l-65 113l-64 -113h-57zM229 -12q-65 0 -117 21t-81 75l45 37q29 -49 68 -64.5t85 -15.5q62 0 93.5 21.5t31.5 61.5q0 24 -11.5 39t-30 24.5t-43 15.5t-51.5 11q-30 6 -59.5 14.5t-53 24t-38 40t-14.5 61.5q0 63 47 101t130 38q81 0 128 -35
t47 -100q0 -11 -2 -23.5t-6 -21.5h-56q2 7 4 18t2 22q0 42 -31.5 64.5t-86.5 22.5q-57 0 -86 -22t-29 -62q0 -24 11.5 -38.5t31 -24.5t44.5 -15.5t51 -11.5q30 -6 59 -14.5t52 -23.5t37.5 -39t14.5 -61q0 -69 -50.5 -104.5t-135.5 -35.5z" />
    <glyph glyph-name="Scedilla" unicode="&#x15e;" horiz-adv-x="575" 
d="M530 185q0 -83 -56.5 -133t-161.5 -57l-12 -35q35 -5 56.5 -22t21.5 -52q0 -37 -28 -56.5t-71 -19.5q-23 0 -44 6.5t-35 20.5l22 39q24 -21 55 -21q19 0 30 8t11 25q0 18 -19.5 28.5t-55.5 12.5l25 65q-88 2 -145.5 32t-87.5 86l50 38q52 -100 197 -100q93 0 138.5 34
t45.5 96q0 31 -10 54.5t-33 41.5t-60 31.5t-91 23.5q-108 22 -162 64.5t-54 125.5q0 43 16.5 77t47 58t73 37t93.5 13q45 0 86 -9.5t72 -29.5t49.5 -52.5t18.5 -79.5q0 -17 -4 -34l-62 1q3 17 3 28q0 32 -13 54.5t-35 37t-52 21.5t-63 7q-79 0 -122 -33t-43 -92
q0 -29 9.5 -50t31.5 -36.5t57 -27.5t87 -23q63 -13 105.5 -31t69 -42.5t38 -56t11.5 -73.5z" />
    <glyph glyph-name="scedilla" unicode="&#x15f;" horiz-adv-x="457" 
d="M415 128q0 -63 -42.5 -98t-114.5 -41l-10 -29q35 -5 57 -22t22 -52q0 -37 -28 -56.5t-71 -19.5q-24 0 -45 6.5t-34 20.5l22 39q24 -21 55 -21q40 0 40 33q0 38 -74 41l22 59q-60 2 -107.5 23.5t-75.5 72.5l45 37q29 -49 68 -64.5t85 -15.5q62 0 93.5 21.5t31.5 61.5
q0 24 -11.5 39t-30 24.5t-43 15.5t-51.5 11q-30 6 -59.5 14.5t-53 24t-38 40t-14.5 61.5q0 63 47 101t130 38q81 0 128 -35t47 -100q0 -11 -2 -23.5t-6 -21.5h-56q2 7 4 18t2 22q0 42 -31.5 64.5t-86.5 22.5q-57 0 -86 -22t-29 -62q0 -24 11.5 -38.5t31 -24.5t44.5 -15.5
t51 -11.5q30 -6 59 -14.5t52 -23.5t37.5 -39t14.5 -61z" />
    <glyph glyph-name="Scaron" unicode="&#x160;" horiz-adv-x="575" 
d="M155 865h59l65 -77l65 77h58l-88 -123h-72zM282 -6q-94 0 -154.5 30t-92.5 88l50 38q52 -100 197 -100q93 0 138.5 34t45.5 96q0 31 -10 54.5t-33 41.5t-60 31.5t-91 23.5q-108 22 -162 64.5t-54 125.5q0 43 16.5 77t47 58t73 37t93.5 13q45 0 86 -9.5t72 -29.5
t49.5 -52.5t18.5 -79.5q0 -17 -4 -34l-62 1q3 17 3 28q0 32 -13 54.5t-35 37t-52 21.5t-63 7q-79 0 -122 -33t-43 -92q0 -29 9.5 -50t31.5 -36.5t57 -27.5t87 -23q63 -13 105.5 -31t69 -42.5t38 -56t11.5 -73.5q0 -89 -64.5 -140t-183.5 -51z" />
    <glyph glyph-name="scaron" unicode="&#x161;" horiz-adv-x="457" 
d="M109 720h57l65 -114l64 114h57l-89 -162h-67zM229 -12q-65 0 -117 21t-81 75l45 37q29 -49 68 -64.5t85 -15.5q62 0 93.5 21.5t31.5 61.5q0 24 -11.5 39t-30 24.5t-43 15.5t-51.5 11q-30 6 -59.5 14.5t-53 24t-38 40t-14.5 61.5q0 63 47 101t130 38q81 0 128 -35t47 -100
q0 -11 -2 -23.5t-6 -21.5h-56q2 7 4 18t2 22q0 42 -31.5 64.5t-86.5 22.5q-57 0 -86 -22t-29 -62q0 -24 11.5 -38.5t31 -24.5t44.5 -15.5t51 -11.5q30 -6 59 -14.5t52 -23.5t37.5 -39t14.5 -61q0 -69 -50.5 -104.5t-135.5 -35.5z" />
    <glyph glyph-name="uni0162" unicode="&#x162;" horiz-adv-x="529" 
d="M291 0l-14 -40q35 -5 56.5 -22t21.5 -52q0 -37 -28 -56.5t-71 -19.5q-23 0 -44.5 6.5t-34.5 20.5l22 39q24 -21 55 -21q19 0 30 8t11 25q0 18 -19.5 28.5t-55.5 12.5l27 71h-15v640h-215v60h495v-60h-215v-640h-6z" />
    <glyph glyph-name="uni0163" unicode="&#x163;" horiz-adv-x="387" 
d="M384 41q-19 -20 -51.5 -33.5t-66.5 -15.5l-11 -32q35 -5 57 -22t22 -52q0 -37 -28 -56.5t-71 -19.5q-24 0 -45 6.5t-34 20.5l21 39q24 -21 55 -21q19 0 30 8t11 25q0 18 -19.5 28.5t-54.5 12.5l24 65q-60 9 -88.5 50t-28.5 119v264h-90v55h92v140h61v-140h192v-55h-192
v-262q0 -60 23.5 -87.5t73.5 -27.5q27 0 51.5 11.5t40.5 27.5z" />
    <glyph glyph-name="Tcaron" unicode="&#x164;" horiz-adv-x="529" 
d="M137 865h59l65 -77l65 77h58l-88 -123h-72zM232 640h-215v60h495v-60h-215v-640h-65v640z" />
    <glyph glyph-name="tcaron" unicode="&#x165;" horiz-adv-x="387" 
d="M263 587q20 8 32.5 21.5t12.5 29.5q-20 0 -32.5 14t-12.5 34t13.5 33.5t33.5 13.5q23 0 37.5 -15t14.5 -41q0 -44 -23 -77.5t-56 -44.5zM259 -8q-79 0 -116 41.5t-37 129.5v264h-90v55h92v140h61v-140h192v-55h-192v-262q0 -60 23.5 -87.5t73.5 -27.5q27 0 51.5 11.5
t40.5 27.5l26 -48q-20 -21 -55 -35t-70 -14z" />
    <glyph glyph-name="Tbar" unicode="&#x166;" horiz-adv-x="535" 
d="M300 640v-274h96v-55h-96v-311h-65v311h-100v55h100v274h-215v60h496v-60h-216z" />
    <glyph glyph-name="tbar" unicode="&#x167;" horiz-adv-x="390" 
d="M388 41q-20 -21 -55 -35t-70 -14q-79 0 -116.5 41.5t-37.5 129.5v69h-66v56h66v139h-90v55h93l-1 140h61v-140h192v-55h-192v-139h131v-56h-131v-67q0 -60 24 -87.5t73 -27.5q28 0 52 11.5t40 27.5z" />
    <glyph glyph-name="Utilde" unicode="&#x168;" horiz-adv-x="671" 
d="M206 749q-9 17 -9 41q0 26 18 44.5t52 18.5q21 0 38 -7t32.5 -16t30 -16t29.5 -7q25 0 25 27q0 16 -6 23h51q9 -16 9 -42t-18 -44.5t-56 -18.5q-22 0 -39.5 7.5t-32.5 16t-28 16t-26 7.5q-26 0 -26 -28q0 -7 2 -12.5t4 -9.5h-50zM337 -6q-54 0 -100.5 14.5t-80.5 48
t-53.5 89.5t-19.5 140v414h65v-418q0 -124 50.5 -177.5t138.5 -53.5q44 0 78.5 13t59 40.5t37.5 71.5t13 106v418h63v-414q0 -84 -19 -140t-52.5 -89.5t-79.5 -48t-100 -14.5z" />
    <glyph glyph-name="utilde" unicode="&#x169;" horiz-adv-x="527" 
d="M135 583q-5 9 -7.5 18.5t-2.5 22.5q0 27 18 45.5t56 18.5q19 0 35.5 -7.5t31.5 -16t29 -16t29 -7.5q27 0 27 27q0 17 -6 24h51q4 -8 6.5 -18t2.5 -24q0 -26 -17.5 -45t-54.5 -19q-22 0 -40 7.5t-33 16t-28 16t-25 7.5q-28 0 -28 -27q0 -7 2 -12.5t4 -10.5h-50zM229 -12
q-74 0 -117.5 42t-43.5 129v323h63v-316q0 -69 31.5 -96.5t83.5 -27.5q35 0 60.5 14.5t42.5 36t25.5 47t8.5 47.5v295h63v-382q0 -29 9.5 -41t32.5 -12v-46q-2 -1 -9 -2t-20 -1q-69 0 -69 75v22q-9 -21 -22.5 -40t-33 -34t-45.5 -24t-60 -9z" />
    <glyph glyph-name="Umacron" unicode="&#x16a;" horiz-adv-x="671" 
d="M213 826h248v-54h-248v54zM337 -6q-54 0 -100.5 14.5t-80.5 48t-53.5 89.5t-19.5 140v414h65v-418q0 -124 50.5 -177.5t138.5 -53.5q44 0 78.5 13t59 40.5t37.5 71.5t13 106v418h63v-414q0 -84 -19 -140t-52.5 -89.5t-79.5 -48t-100 -14.5z" />
    <glyph glyph-name="umacron" unicode="&#x16b;" horiz-adv-x="527" 
d="M143 662h242v-52h-242v52zM229 -12q-74 0 -117.5 42t-43.5 129v323h63v-316q0 -69 31.5 -96.5t83.5 -27.5q35 0 60.5 14.5t42.5 36t25.5 47t8.5 47.5v295h63v-382q0 -29 9.5 -41t32.5 -12v-46q-2 -1 -9 -2t-20 -1q-69 0 -69 75v22q-9 -21 -22.5 -40t-33 -34t-45.5 -24
t-60 -9z" />
    <glyph glyph-name="Ubreve" unicode="&#x16c;" horiz-adv-x="671" 
d="M335 745q-48 0 -79 30.5t-31 86.5h51q0 -29 15.5 -47t44.5 -18t45 18t16 47h50q0 -55 -31.5 -86t-80.5 -31zM337 -6q-54 0 -100.5 14.5t-80.5 48t-53.5 89.5t-19.5 140v414h65v-418q0 -124 50.5 -177.5t138.5 -53.5q44 0 78.5 13t59 40.5t37.5 71.5t13 106v418h63v-414
q0 -84 -19 -140t-52.5 -89.5t-79.5 -48t-100 -14.5z" />
    <glyph glyph-name="ubreve" unicode="&#x16d;" horiz-adv-x="527" 
d="M264 571q-60 0 -87 34t-27 91h51q0 -74 63 -74q63 -2 63 74h51q0 -57 -27.5 -91t-86.5 -34zM229 -12q-74 0 -117.5 42t-43.5 129v323h63v-316q0 -69 31.5 -96.5t83.5 -27.5q35 0 60.5 14.5t42.5 36t25.5 47t8.5 47.5v295h63v-382q0 -29 9.5 -41t32.5 -12v-46q-2 -1 -9 -2
t-20 -1q-69 0 -69 75v22q-9 -21 -22.5 -40t-33 -34t-45.5 -24t-60 -9z" />
    <glyph glyph-name="Uring" unicode="&#x16e;" horiz-adv-x="671" 
d="M337 704q-45 0 -74 28.5t-30 73.5q1 45 30 74.5t74 29.5q44 0 73 -29.5t29 -74.5q0 -44 -29 -73t-73 -29zM337 750q24 0 38.5 15t14.5 41t-14.5 41t-38.5 15q-26 0 -39.5 -15t-13.5 -41t13.5 -41t39.5 -15zM337 -6q-54 0 -100.5 14.5t-80.5 48t-53.5 89.5t-19.5 140v414
h65v-418q0 -124 50.5 -177.5t138.5 -53.5q44 0 78.5 13t59 40.5t37.5 71.5t13 106v418h63v-414q0 -84 -19 -140t-52.5 -89.5t-79.5 -48t-100 -14.5z" />
    <glyph glyph-name="uring" unicode="&#x16f;" horiz-adv-x="527" 
d="M264 532q-42 0 -70.5 28.5t-28.5 70.5q0 43 28.5 71.5t70.5 28.5t70.5 -28.5t28.5 -71.5q0 -42 -28.5 -70.5t-70.5 -28.5zM264 579q24 0 38 14.5t14 37.5t-14 38t-38 15t-38 -15t-14 -38t14 -37.5t38 -14.5zM229 -12q-74 0 -117.5 42t-43.5 129v323h63v-316
q0 -69 31.5 -96.5t83.5 -27.5q35 0 60.5 14.5t42.5 36t25.5 47t8.5 47.5v295h63v-382q0 -29 9.5 -41t32.5 -12v-46q-2 -1 -9 -2t-20 -1q-69 0 -69 75v22q-9 -21 -22.5 -40t-33 -34t-45.5 -24t-60 -9z" />
    <glyph glyph-name="Uhungarumlaut" unicode="&#x170;" horiz-adv-x="671" 
d="M272 865h82l-89 -123h-57zM424 865h82l-88 -123h-57zM337 -6q-54 0 -100.5 14.5t-80.5 48t-53.5 89.5t-19.5 140v414h65v-418q0 -124 50.5 -177.5t138.5 -53.5q44 0 78.5 13t59 40.5t37.5 71.5t13 106v418h63v-414q0 -84 -19 -140t-52.5 -89.5t-79.5 -48t-100 -14.5z" />
    <glyph glyph-name="uhungarumlaut" unicode="&#x171;" horiz-adv-x="527" 
d="M212 720h75l-89 -162h-55zM365 720h75l-90 -162h-54zM229 -12q-74 0 -117.5 42t-43.5 129v323h63v-316q0 -69 31.5 -96.5t83.5 -27.5q35 0 60.5 14.5t42.5 36t25.5 47t8.5 47.5v295h63v-382q0 -29 9.5 -41t32.5 -12v-46q-2 -1 -9 -2t-20 -1q-69 0 -69 75v22
q-9 -21 -22.5 -40t-33 -34t-45.5 -24t-60 -9z" />
    <glyph glyph-name="Uogonek" unicode="&#x172;" horiz-adv-x="671" 
d="M588 700v-414q0 -72 -14 -123.5t-39.5 -86t-61.5 -53t-79 -25.5q-32 -10 -51 -32.5t-19 -52.5q0 -22 11 -32.5t30 -10.5q11 0 19.5 3.5t13.5 8.5l22 -34q-11 -11 -28 -17.5t-38 -6.5q-42 0 -64.5 20.5t-22.5 57.5q0 26 12.5 50t35.5 43q-50 3 -92.5 19t-73.5 50
t-48.5 88.5t-17.5 133.5v414h65v-418q0 -124 50.5 -177.5t138.5 -53.5q44 0 78.5 13t59 40.5t37.5 71.5t13 106v418h63z" />
    <glyph glyph-name="uogonek" unicode="&#x173;" horiz-adv-x="527" 
d="M511 -150q-22 -24 -66 -24q-42 0 -64.5 20t-22.5 58q0 30 16.5 57t45.5 46q-30 18 -30 66v22q-9 -21 -22.5 -40t-33 -34t-45.5 -24t-60 -9q-74 0 -117.5 42t-43.5 129v323h63v-316q0 -69 31.5 -96.5t83.5 -27.5q35 0 60.5 14.5t42.5 36t25.5 47t8.5 47.5v295h63v-382
q0 -29 9.5 -41t32.5 -12v-46q-1 0 -1.5 -0.5t-1.5 -0.5q-31 -10 -50.5 -33t-19.5 -52q0 -43 41 -43q19 0 33 12z" />
    <glyph glyph-name="Wcircumflex" unicode="&#x174;" horiz-adv-x="917" 
d="M423 865h72l87 -123h-59l-65 77l-65 -77h-57zM21 700h74l157 -625l176 625h64l177 -625l156 625h71l-192 -700h-73l-171 605l-173 -605h-73z" />
    <glyph glyph-name="wcircumflex" unicode="&#x175;" horiz-adv-x="713" 
d="M292 558h-57l88 162h67l88 -162h-58l-64 113zM693 482l-152 -483h-71l-99 349l-11 48l-12 -48l-104 -349h-72l-150 483h69l99 -348l19 -73l19 73l104 348h56l101 -347l18 -74l19 74l102 347h65z" />
    <glyph glyph-name="Ycircumflex" unicode="&#x176;" horiz-adv-x="585" 
d="M258 865h72l87 -123h-60l-65 77l-64 -77h-58zM260 293l-239 407h77l196 -344l197 344h74l-240 -405v-295h-65v293z" />
    <glyph glyph-name="ycircumflex" unicode="&#x177;" horiz-adv-x="520" 
d="M225 720h67l88 -162h-58l-64 113l-64 -113h-57zM247 -247q-76 0 -121 25.5t-64 67.5l44 32q17 -33 51 -52t90 -19q65 0 102 36.5t37 101.5v155q-18 -50 -61 -78.5t-100 -28.5q-157 0 -157 170v319h63v-312q0 -123 113 -123q27 0 52.5 12.5t44.5 33.5t30.5 48.5t11.5 57.5
v283h63v-541q-1 -87 -54.5 -137.5t-144.5 -50.5z" />
    <glyph glyph-name="Ydieresis" unicode="&#x178;" horiz-adv-x="585" 
d="M202 756q-20 0 -34 14t-14 34t14 34.5t34 14.5t33.5 -14.5t13.5 -34.5t-13.5 -34t-33.5 -14zM390 756q-20 0 -34 14t-14 34t14 34.5t34 14.5t34 -14.5t14 -34.5t-14 -34t-34 -14zM260 293l-239 407h77l196 -344l197 344h74l-240 -405v-295h-65v293z" />
    <glyph glyph-name="Zacute" unicode="&#x179;" horiz-adv-x="565" 
d="M292 742h-64l83 123h85zM531 649l-422 -592h422v-57h-497v51l422 592h-421v57h496v-51z" />
    <glyph glyph-name="zacute" unicode="&#x17a;" horiz-adv-x="481" 
d="M248 558h-58l85 162h78zM191 246q36 -5 80.5 -21t84 -47.5t66.5 -81.5t27 -124q0 -53 -17 -92.5t-46 -66.5t-67 -40.5t-81 -13.5t-79 12.5t-62 36t-41 57.5t-15 78q0 50 17 89t42.5 68t55.5 49.5t55 32.5q-48 11 -97 14v56l221 176h-282v54h366v-53zM239 -188
q65 0 107.5 40.5t42.5 119.5q0 74 -33.5 119.5t-88.5 70.5q-25 -11 -54 -28.5t-54 -43.5t-41.5 -61t-16.5 -80q0 -66 39 -101.5t99 -35.5z" />
    <glyph glyph-name="Zdotaccent" unicode="&#x17b;" horiz-adv-x="565" 
d="M283 754q-20 0 -35 15t-15 35t15 35t35 15t35 -15t15 -35t-15 -35t-35 -15zM531 649l-422 -592h422v-57h-497v51l422 592h-421v57h496v-51z" />
    <glyph glyph-name="zdotaccent" unicode="&#x17c;" horiz-adv-x="481" 
d="M238 590q-19 0 -33 13.5t-14 33.5t14 34t33 14q20 0 34 -14t14 -34t-14 -33.5t-34 -13.5zM191 246q36 -5 80.5 -21t84 -47.5t66.5 -81.5t27 -124q0 -53 -17 -92.5t-46 -66.5t-67 -40.5t-81 -13.5t-79 12.5t-62 36t-41 57.5t-15 78q0 50 17 89t42.5 68t55.5 49.5t55 32.5
q-48 11 -97 14v56l221 176h-282v54h366v-53zM239 -188q65 0 107.5 40.5t42.5 119.5q0 74 -33.5 119.5t-88.5 70.5q-25 -11 -54 -28.5t-54 -43.5t-41.5 -61t-16.5 -80q0 -66 39 -101.5t99 -35.5z" />
    <glyph glyph-name="Zcaron" unicode="&#x17d;" horiz-adv-x="565" 
d="M247 742l-87 123h59l65 -77l65 77h57l-87 -123h-72zM531 649l-422 -592h422v-57h-497v51l422 592h-421v57h496v-51z" />
    <glyph glyph-name="zcaron" unicode="&#x17e;" horiz-adv-x="481" 
d="M203 558l-87 162h58l64 -114l64 114h57l-88 -162h-68zM191 246q36 -5 80.5 -21t84 -47.5t66.5 -81.5t27 -124q0 -53 -17 -92.5t-46 -66.5t-67 -40.5t-81 -13.5t-79 12.5t-62 36t-41 57.5t-15 78q0 50 17 89t42.5 68t55.5 49.5t55 32.5q-48 11 -97 14v56l221 176h-282v54
h366v-53zM239 -188q65 0 107.5 40.5t42.5 119.5q0 74 -33.5 119.5t-88.5 70.5q-25 -11 -54 -28.5t-54 -43.5t-41.5 -61t-16.5 -80q0 -66 39 -101.5t99 -35.5z" />
    <glyph glyph-name="uni018F" unicode="&#x18f;" horiz-adv-x="650" 
d="M314 706q137 0 211 -90t74 -261q0 -82 -20 -148.5t-57 -114t-89.5 -73t-118.5 -25.5q-65 0 -116 21.5t-86 62t-53.5 98t-18.5 130.5q0 22 3 43h487v3q0 149 -58 223t-156 74q-75 0 -120.5 -27.5t-77.5 -77.5l-49 29q36 60 98 96.5t147 36.5zM317 50q90 0 144.5 63.5
t65.5 181.5h-419q2 -118 55 -181.5t154 -63.5z" />
    <glyph glyph-name="florin" unicode="&#x192;" horiz-adv-x="401" 
d="M27 -174q-38 0 -65.5 14.5t-41.5 38.5l37 35q12 -17 29 -26t36 -9q44 0 69 29.5t25 81.5v422h-70v51h70v85q0 77 41.5 119.5t113.5 42.5q38 0 68.5 -13.5t48.5 -36.5l-36 -37q-15 17 -32.5 25t-44.5 8q-44 0 -70 -29t-26 -81v-83h165v-51h-165v-425q0 -76 -40 -118.5
t-112 -42.5z" />
    <glyph glyph-name="uni019D" unicode="&#x19d;" horiz-adv-x="672" 
d="M580 700v-700h-57l-361 570l-9 19v-649q0 -91 -40.5 -134.5t-112.5 -43.5q-38 0 -67.5 13t-43.5 33l39 43q25 -30 73 -30q44 0 67.5 27.5t23.5 88.5v763h57l358 -568l12 -23v591h61z" />
    <glyph glyph-name="Gcaron" unicode="&#x1e6;" horiz-adv-x="649" 
d="M215 865h59l65 -77l65 77h58l-88 -123h-72zM347 -9q-140 0 -218 90.5t-78 266.5q0 83 21 149.5t60 113t94 71t123 24.5q114 0 171.5 -51t58.5 -133q1 -13 -0.5 -24t-3.5 -20h-62q2 8 2.5 16t0.5 23q-2 61 -45.5 97t-122.5 36q-109 0 -169 -78.5t-60 -223.5
q0 -70 15.5 -125.5t45.5 -94.5t73 -60t98 -21q68 0 112 17.5t64 39.5v177h-174v60h239v-261q-31 -34 -92 -61.5t-153 -27.5z" />
    <glyph glyph-name="gcaron" unicode="&#x1e7;" horiz-adv-x="497" 
d="M149 720h58l64 -114l64 114h57l-88 -162h-68zM254 -240q-69 0 -115 26t-67 67l44 34q17 -32 52.5 -52.5t87.5 -20.5q66 0 103 36.5t37 101.5v134q-17 -39 -57.5 -67.5t-100.5 -28.5q-43 0 -79 17.5t-61.5 50t-39.5 78t-14 101.5q0 57 14 103.5t40 80.5t63.5 52.5
t84.5 18.5q51 0 90.5 -22.5t62.5 -60.5v73h57v-530q0 -88 -54.5 -140t-147.5 -52zM255 44q54 0 89.5 32t48.5 84v172q-5 21 -17 40.5t-30 34t-41 23.5t-50 9q-70 0 -108 -52.5t-38 -149.5q0 -88 38 -140.5t108 -52.5z" />
    <glyph glyph-name="uni01EA" unicode="&#x1ea;" horiz-adv-x="708" 
d="M404 -2q-29 -11 -47.5 -33t-18.5 -51q0 -23 11 -33t30 -10q11 0 19.5 3.5t13.5 8.5l22 -34q-10 -11 -27.5 -17.5t-38.5 -6.5q-42 0 -64.5 20.5t-22.5 57.5q0 26 12.5 49.5t34.5 42.5q-55 3 -105.5 24t-89 63.5t-61 107.5t-22.5 157q0 96 25.5 164t68.5 111.5t98 63.5
t114 20t113.5 -19t96 -61.5t66.5 -110.5t25 -165q0 -85 -20.5 -148t-55 -105.5t-80.5 -66.5t-97 -32zM119 348q0 -84 19.5 -141t51.5 -92t74.5 -50t87.5 -15t88 15.5t76 51t53 92.5t20 140q0 85 -19.5 142.5t-52 93t-74.5 50.5t-87 15t-88 -15.5t-76 -51.5t-53 -93.5
t-20 -141.5z" />
    <glyph glyph-name="uni01EB" unicode="&#x1eb;" horiz-adv-x="519" 
d="M311 -6q-26 -11 -41 -32.5t-15 -47.5q0 -43 41 -43q11 0 19 3.5t14 8.5l22 -34q-11 -11 -28 -17.5t-38 -6.5q-42 0 -64.5 20.5t-22.5 57.5q0 24 10.5 46t29.5 40q-88 6 -140.5 71t-52.5 181q0 61 16 108t45 79t68.5 48.5t87.5 16.5q97 0 154.5 -65t57.5 -187
q0 -103 -44.5 -166.5t-118.5 -80.5zM109 241q0 -100 42.5 -150t107.5 -50t108 50t43 150t-42 149.5t-108 49.5q-64 0 -107.5 -49.5t-43.5 -149.5z" />
    <glyph glyph-name="Aringacute" unicode="&#x1fa;" horiz-adv-x="620" 
d="M464 206h-308l-75 -206h-66l253 675q-28 12 -44.5 37t-16.5 58q0 39 23 67t60 34l62 92h84l-83 -98q27 -12 43.5 -37t16.5 -58q0 -32 -16.5 -57.5t-44.5 -37.5l253 -675h-66zM310 826q-25 0 -39 -15t-14 -41t14 -41t39 -15t39.5 15t14.5 41t-14.5 41t-39.5 15zM443 262
l-133 365l-133 -365h266z" />
    <glyph glyph-name="aringacute" unicode="&#x1fb;" horiz-adv-x="493" 
d="M257 532q-43 0 -71.5 28.5t-28.5 70.5q0 36 21 62.5t53 34.5l68 131h78l-85 -134q29 -10 46.5 -35t17.5 -59q0 -42 -28.5 -70.5t-70.5 -28.5zM257 684q-24 0 -38 -15t-14 -38t14 -37.5t38 -14.5q23 0 37.5 14.5t14.5 37.5t-14.5 38t-37.5 15zM457 102q0 -29 9.5 -41.5
t32.5 -12.5v-47q-5 -2 -13 -2.5t-16 -0.5q-32 0 -51 19t-19 53v15q-19 -42 -59 -69.5t-101 -27.5q-43 0 -79.5 17.5t-62 49.5t-40 77.5t-14.5 102.5t14.5 104.5t41 81.5t64.5 53t86 19q51 0 89 -21t61 -59v69h57v-380zM394 332q-12 45 -46.5 76.5t-87.5 31.5
q-73 0 -112 -53.5t-39 -151.5q0 -89 39 -141.5t108 -52.5q54 0 90 32.5t48 85.5v173z" />
    <glyph glyph-name="AEacute" unicode="&#x1fc;" horiz-adv-x="803" 
d="M470 865h85l-105 -123h-63zM278 700h484v-56h-402l98 -263h245v-57h-223l100 -268h182v-56h-228l-76 207h-304l-76 -207h-64zM438 261l-131 356l-132 -356h263z" />
    <glyph glyph-name="aeacute" unicode="&#x1fd;" horiz-adv-x="792" 
d="M404 558h-58l85 162h78zM421 244v-4q0 -97 41.5 -147.5t111.5 -50.5q46 0 78 18t54 49l39 -31q-25 -39 -69.5 -64.5t-103.5 -25.5q-72 0 -121 33.5t-72 96.5q-35 -69 -84.5 -98.5t-109.5 -29.5q-70 0 -109 32.5t-39 92.5q0 62 46 95.5t135 34.5h138v77q0 57 -29.5 87
t-89.5 30q-57 0 -86.5 -24t-29.5 -71q0 -26 10 -43h-58q-5 8 -8 22.5t-3 31.5q0 63 48 100.5t129 37.5q63 0 103.5 -24.5t60.5 -67.5q26 43 67 67.5t94 24.5q91 0 138 -55.5t47 -158.5v-17.5t-1 -17.5h-327zM562 440q-63 0 -96 -41t-42 -106h263q0 30 -6.5 57t-21.5 47
t-39 31.5t-58 11.5zM194 41q62 0 101.5 35t60.5 95v28l-140 -1q-58 0 -86 -21.5t-28 -58.5q0 -38 23.5 -57.5t68.5 -19.5z" />
    <glyph glyph-name="Oslashacute" unicode="&#x1fe;" horiz-adv-x="708" 
d="M363 742h-64l83 123h85zM567 624q42 -43 66.5 -110t24.5 -164q0 -96 -25.5 -163.5t-68 -110t-97.5 -62.5t-114 -20q-48 0 -91.5 11.5t-81.5 37.5l-40 -59h-64l63 94q-41 42 -64.5 108t-23.5 161q0 96 25.5 164t68 111.5t97.5 63.5t114 20q47 0 90 -11.5t81 -36.5l39 58
h63zM119 348q0 -75 15.5 -127.5t41.5 -87.5l317 474q-30 23 -65 33t-72 10q-45 0 -87.5 -15.5t-76 -51.5t-53.5 -93.5t-20 -141.5zM353 50q45 0 87.5 15.5t76 51t53.5 92.5t20 140q0 76 -16 130.5t-43 89.5l-317 -475q30 -23 65.5 -33.5t73.5 -10.5z" />
    <glyph glyph-name="oslashacute" unicode="&#x1ff;" horiz-adv-x="519" 
d="M270 558h-59l85 162h78zM412 432q29 -32 45.5 -80t16.5 -111q0 -60 -16 -107.5t-44.5 -79.5t-68.5 -49t-88 -17q-65 0 -112 30l-25 -39h-58l45 70q-29 32 -45.5 80.5t-16.5 111.5q0 61 16 108t45 79t68.5 48.5t87.5 16.5q65 0 113 -30l25 39h57zM109 241q0 -86 33 -138
l201 311q-35 26 -83 26q-64 0 -107.5 -49.5t-43.5 -149.5zM259 41q65 0 108 50t43 150q0 85 -33 137l-201 -311q35 -26 83 -26z" />
    <glyph glyph-name="uni0218" unicode="&#x218;" horiz-adv-x="575" 
d="M282 -6q-94 0 -154.5 30t-92.5 88l50 38q52 -100 197 -100q93 0 138.5 34t45.5 96q0 31 -10 54.5t-33 41.5t-60 31.5t-91 23.5q-108 22 -162 64.5t-54 125.5q0 43 16.5 77t47 58t73 37t93.5 13q45 0 86 -9.5t72 -29.5t49.5 -52.5t18.5 -79.5q0 -17 -4 -34l-62 1
q3 17 3 28q0 32 -13 54.5t-35 37t-52 21.5t-63 7q-79 0 -122 -33t-43 -92q0 -29 9.5 -50t31.5 -36.5t57 -27.5t87 -23q63 -13 105.5 -31t69 -42.5t38 -56t11.5 -73.5q0 -89 -64.5 -140t-183.5 -51zM240 -192q43 21 46 58q-24 1 -35.5 14t-11.5 33t13.5 34t33.5 14
q24 0 37.5 -15.5t13.5 -42.5q0 -46 -22.5 -80t-54.5 -45z" />
    <glyph glyph-name="uni0219" unicode="&#x219;" horiz-adv-x="457" 
d="M229 -12q-65 0 -117 21t-81 75l45 37q29 -49 68 -64.5t85 -15.5q62 0 93.5 21.5t31.5 61.5q0 24 -11.5 39t-30 24.5t-43 15.5t-51.5 11q-30 6 -59.5 14.5t-53 24t-38 40t-14.5 61.5q0 63 47 101t130 38q81 0 128 -35t47 -100q0 -11 -2 -23.5t-6 -21.5h-56q2 7 4 18t2 22
q0 42 -31.5 64.5t-86.5 22.5q-57 0 -86 -22t-29 -62q0 -24 11.5 -38.5t31 -24.5t44.5 -15.5t51 -11.5q30 -6 59 -14.5t52 -23.5t37.5 -39t14.5 -61q0 -69 -50.5 -104.5t-135.5 -35.5zM189 -192q20 11 32 25.5t13 32.5q-23 1 -34.5 14t-11.5 33t13.5 34t33.5 14
q23 0 37 -15.5t14 -42.5q0 -46 -22.5 -80t-54.5 -45z" />
    <glyph glyph-name="uni021A" unicode="&#x21a;" horiz-adv-x="529" 
d="M232 640h-215v60h495v-60h-215v-640h-65v640zM217 -192q43 22 45 58q-23 1 -34.5 14t-11.5 33t13.5 34t33.5 14q24 0 37.5 -15.5t13.5 -42.5q0 -46 -22.5 -80t-54.5 -45z" />
    <glyph glyph-name="uni021B" unicode="&#x21b;" horiz-adv-x="387" 
d="M259 -8q-79 0 -116 41.5t-37 129.5v264h-90v55h92v140h61v-140h192v-55h-192v-262q0 -60 23.5 -87.5t73.5 -27.5q27 0 51.5 11.5t40.5 27.5l26 -48q-20 -21 -55 -35t-70 -14zM196 -192q20 11 32 25.5t13 32.5q-23 1 -35 14t-12 33t14 34t34 14q23 0 37 -15.5t14 -42.5
q0 -46 -23 -80t-55 -45z" />
    <glyph glyph-name="uni0232" unicode="&#x232;" horiz-adv-x="585" 
d="M169 826h248v-54h-248v54zM260 293l-239 407h77l196 -344l197 344h74l-240 -405v-295h-65v293z" />
    <glyph glyph-name="uni0233" unicode="&#x233;" horiz-adv-x="520" 
d="M136 662h242v-52h-242v52zM247 -247q-76 0 -121 25.5t-64 67.5l44 32q17 -33 51 -52t90 -19q65 0 102 36.5t37 101.5v155q-18 -50 -61 -78.5t-100 -28.5q-157 0 -157 170v319h63v-312q0 -123 113 -123q27 0 52.5 12.5t44.5 33.5t30.5 48.5t11.5 57.5v283h63v-541
q-1 -87 -54.5 -137.5t-144.5 -50.5z" />
    <glyph glyph-name="uni0237" unicode="&#x237;" horiz-adv-x="218" 
d="M-7 -247q-22 0 -38 4t-27 9q-13 6 -22 13l20 45q7 -5 16 -9q8 -3 19 -5.5t26 -2.5q46 0 69.5 28.5t23.5 90.5v556h62v-558q0 -82 -35.5 -126.5t-113.5 -44.5z" />
    <glyph glyph-name="uni0259" unicode="&#x259;" horiz-adv-x="477" 
d="M230 494q91 0 146.5 -61t55.5 -187q0 -58 -14 -105.5t-40 -81.5t-63 -52t-84 -18q-91 0 -141.5 56t-50.5 158v18t2 20h327v3q0 106 -38.5 151t-101.5 45q-45 0 -75.5 -19t-50.5 -51l-46 27q23 42 67 69.5t107 27.5zM231 42q63 0 94.5 40.5t39.5 109.5h-263
q0 -31 7.5 -58.5t23.5 -48t40 -32t58 -11.5z" />
    <glyph glyph-name="uni0272" unicode="&#x272;" horiz-adv-x="537" 
d="M462 99q0 -30 9.5 -41t32.5 -11v-46q-9 -3 -28 -3q-40 0 -58.5 23.5t-18.5 65.5v218q0 63 -30.5 98.5t-88.5 35.5q-31 0 -56 -12t-43 -32.5t-27.5 -48.5t-9.5 -61v-345q0 -91 -41 -134.5t-113 -43.5q-40 0 -68.5 13t-42.5 33l38 44q27 -31 74 -31q42 0 66 27t24 89v449
q0 30 -9.5 41t-32.5 11v46q9 3 29 3q69 0 69 -80v-23q19 52 60 80.5t98 28.5q80 0 123.5 -49t43.5 -139v-206z" />
    <glyph glyph-name="circumflex" unicode="&#x2c6;" horiz-adv-x="336" 
d="M131 751h73l88 -162h-59l-66 112l-65 -112h-58z" />
    <glyph glyph-name="caron" unicode="&#x2c7;" horiz-adv-x="327" 
d="M40 721h59l64 -112l65 112h59l-87 -163h-73z" />
    <glyph glyph-name="breve" unicode="&#x2d8;" horiz-adv-x="312" 
d="M156 590q-58 0 -84.5 32.5t-26.5 86.5h51q0 -38 15.5 -54.5t44.5 -17.5q29 0 44.5 17t15.5 55h51q0 -54 -26.5 -86.5t-84.5 -32.5z" />
    <glyph glyph-name="dotaccent" unicode="&#x2d9;" horiz-adv-x="177" 
d="M89 598q-17 0 -30 12.5t-13 30.5q0 17 13 29.5t30 12.5t29.5 -12.5t12.5 -29.5q0 -18 -12.5 -30.5t-29.5 -12.5z" />
    <glyph glyph-name="ring" unicode="&#x2da;" horiz-adv-x="253" 
d="M127 575q-32 0 -53.5 20.5t-21.5 52.5t21.5 53.5t53.5 21.5t52.5 -21.5t20.5 -53.5t-20.5 -52.5t-52.5 -20.5zM127 609q17 0 28 11t11 28q0 18 -11 29t-28 11q-19 0 -29.5 -11t-10.5 -29q0 -17 10.5 -28t29.5 -11z" />
    <glyph glyph-name="ogonek" unicode="&#x2db;" horiz-adv-x="254" 
d="M134 -165q-33 0 -56.5 17.5t-23.5 55.5q0 36 17.5 59.5t38.5 37.5q25 17 56 26l5 -30q-21 -7 -37 -18q-15 -10 -26 -25.5t-11 -38.5q0 -43 42 -43q10 0 18 3t14 7q7 4 12 10l16 -34q-7 -8 -16 -14q-9 -5 -21 -9t-28 -4z" />
    <glyph glyph-name="tilde" unicode="&#x2dc;" horiz-adv-x="387" 
d="M58 570q-3 5 -5 12q-2 6 -3.5 13.5t-1.5 17.5q0 29 18.5 49.5t54.5 20.5q21 0 39.5 -5.5t35 -12t33 -12t33.5 -5.5q25 0 25 23q0 7 -1.5 13t-2.5 11q-2 5 -5 9h53q3 -5 5 -12q1 -6 2.5 -13.5t1.5 -16.5q0 -27 -17.5 -46.5t-53.5 -19.5q-24 0 -43.5 5.5t-36 12t-30.5 12
t-29 5.5q-14 0 -22 -7t-8 -21q0 -7 1.5 -13t4.5 -11q2 -5 5 -9h-53z" />
    <glyph glyph-name="hungarumlaut" unicode="&#x2dd;" horiz-adv-x="379" 
d="M122 726h79l-104 -162h-60zM274 726h79l-104 -162h-59z" />
    <glyph glyph-name="gravecomb" unicode="&#x300;" 
d="M-210 720h78l84 -162h-58z" />
    <glyph glyph-name="acutecomb" unicode="&#x301;" 
d="M-123 720h78l-105 -162h-58z" />
    <glyph glyph-name="uni0302" unicode="&#x302;" 
d="M-202 720h67l88 -162h-58l-64 113l-65 -113h-57z" />
    <glyph glyph-name="tildecomb" unicode="&#x303;" 
d="M-321 583q-5 9 -7.5 18.5t-2.5 22.5q0 27 18 45.5t56 18.5q19 0 35.5 -7.5t31.5 -16t29 -16t29 -7.5q27 0 27 27q0 8 -2 14t-4 10h50q9 -16 9 -42t-17 -45t-55 -19q-23 0 -40.5 7.5t-32 16t-27.5 16t-25 7.5q-29 0 -29 -27q0 -12 7 -23h-50z" />
    <glyph glyph-name="uni0304" unicode="&#x304;" 
d="M-306 662h242v-52h-242v52z" />
    <glyph glyph-name="uni0306" unicode="&#x306;" 
d="M-156 571q-60 0 -87 34t-27 91h50q0 -74 64 -74q63 -2 63 74h51q0 -57 -27.5 -91t-86.5 -34z" />
    <glyph glyph-name="uni0307" unicode="&#x307;" 
d="M-81 590q-20 0 -34 13.5t-14 33.5t14 34t34 14q19 0 33 -14t14 -34t-14 -33.5t-33 -13.5z" />
    <glyph glyph-name="uni0308" unicode="&#x308;" 
d="M-255 586q-20 0 -33 14t-13 34q0 19 13 33t33 14q19 0 32.5 -14t13.5 -33q0 -20 -13.5 -34t-32.5 -14zM-85 586q-19 0 -33 14t-14 34q0 19 14 33t33 14q20 0 33 -14t13 -33q0 -20 -13 -34t-33 -14z" />
    <glyph glyph-name="uni030A" unicode="&#x30a;" 
d="M-128 532q-43 0 -71.5 28.5t-28.5 70.5q0 43 28.5 71.5t71.5 28.5q42 0 70.5 -28.5t28.5 -71.5q0 -42 -28.5 -70.5t-70.5 -28.5zM-128 579q23 0 37.5 14.5t14.5 37.5t-14.5 38t-37.5 15q-24 0 -38 -15t-14 -38t14 -37.5t38 -14.5z" />
    <glyph glyph-name="uni030B" unicode="&#x30b;" 
d="M-270 720h75l-90 -162h-54zM-118 720h76l-90 -162h-54z" />
    <glyph glyph-name="uni030C" unicode="&#x30c;" 
d="M-285 720h57l65 -114l64 114h57l-89 -162h-67z" />
    <glyph glyph-name="uni0312" unicode="&#x312;" 
d="M-69 554q-23 0 -36.5 15t-13.5 41q0 40 21 71.5t52 42.5l21 -30q-20 -8 -32.5 -20t-13.5 -26q23 1 36.5 -13.5t13.5 -33.5q0 -20 -14 -33.5t-34 -13.5z" />
    <glyph glyph-name="dotbelowcomb" unicode="&#x323;" 
d="M-81 -167q-20 0 -34 13.5t-14 33.5t14 34t34 14q19 0 33 -14t14 -34t-14 -33.5t-33 -13.5z" />
    <glyph glyph-name="uni0326" unicode="&#x326;" 
d="M-140 -192q43 22 45 58q-23 1 -34.5 14t-11.5 33t13.5 34t33.5 14q23 0 37 -15.5t14 -42.5q0 -46 -22.5 -80t-54.5 -45z" />
    <glyph glyph-name="uni0327" unicode="&#x327;" 
d="M-135 -190q-24 0 -45 6.5t-34 20.5l22 39q24 -21 55 -21q40 0 40 33q0 38 -74 41l27 74h44l-15 -43q35 -5 57 -22t22 -52q0 -37 -28 -56.5t-71 -19.5z" />
    <glyph glyph-name="uni0328" unicode="&#x328;" 
d="M-126 -174q-42 0 -64.5 20.5t-22.5 57.5q0 42 30.5 76t79.5 50l20 -29q-32 -9 -52.5 -32t-20.5 -54q0 -43 41 -43q11 0 19.5 3.5t13.5 8.5l22 -34q-11 -11 -28 -17.5t-38 -6.5z" />
    <glyph glyph-name="uni0335" unicode="&#x335;" 
d="M-283 383h261v-55h-261v55z" />
    <glyph glyph-name="uni0336" unicode="&#x336;" 
d="M-654 575h614v-49h-614v49z" />
    <glyph glyph-name="uni0337" unicode="&#x337;" 
d="M-266 340l224 131l24 -43l-224 -131z" />
    <glyph glyph-name="uni0338" unicode="&#x338;" 
d="M-69 503h57l-338 -523h-58z" />
    <glyph glyph-name="Wgrave" unicode="&#x1e80;" horiz-adv-x="917" 
d="M337 865h86l82 -123h-64zM21 700h74l157 -625l176 625h64l177 -625l156 625h71l-192 -700h-73l-171 605l-173 -605h-73z" />
    <glyph glyph-name="wgrave" unicode="&#x1e81;" horiz-adv-x="713" 
d="M333 558l-104 162h78l84 -162h-58zM693 482l-152 -483h-71l-99 349l-11 48l-12 -48l-104 -349h-72l-150 483h69l99 -348l19 -73l19 73l104 348h56l101 -347l18 -74l19 74l102 347h65z" />
    <glyph glyph-name="Wacute" unicode="&#x1e82;" horiz-adv-x="917" 
d="M487 865h85l-104 -123h-64zM21 700h74l157 -625l176 625h64l177 -625l156 625h71l-192 -700h-73l-171 605l-173 -605h-73z" />
    <glyph glyph-name="wacute" unicode="&#x1e83;" horiz-adv-x="713" 
d="M368 558h-59l85 162h78zM693 482l-152 -483h-71l-99 349l-11 48l-12 -48l-104 -349h-72l-150 483h69l99 -348l19 -73l19 73l104 348h56l101 -347l18 -74l19 74l102 347h65z" />
    <glyph glyph-name="Wdieresis" unicode="&#x1e84;" horiz-adv-x="917" 
d="M367 756q-20 0 -33.5 14t-13.5 34t13.5 34.5t33.5 14.5t34 -14.5t14 -34.5t-14 -34t-34 -14zM556 756q-20 0 -34 14t-14 34t14 34.5t34 14.5t33.5 -14.5t13.5 -34.5t-13.5 -34t-33.5 -14zM21 700h74l157 -625l176 625h64l177 -625l156 625h71l-192 -700h-73l-171 605
l-173 -605h-73z" />
    <glyph glyph-name="wdieresis" unicode="&#x1e85;" horiz-adv-x="713" 
d="M272 590q-20 0 -32.5 13.5t-12.5 33.5q0 19 12.5 33t32.5 14t33.5 -14t13.5 -33q0 -20 -13.5 -33.5t-33.5 -13.5zM443 590q-20 0 -33.5 13.5t-13.5 33.5q0 19 13.5 33t33.5 14q19 0 32 -14t13 -33q0 -20 -13 -33.5t-32 -13.5zM693 482l-152 -483h-71l-99 349l-11 48
l-12 -48l-104 -349h-72l-150 483h69l99 -348l19 -73l19 73l104 348h56l101 -347l18 -74l19 74l102 347h65z" />
    <glyph glyph-name="uni1E9E" unicode="&#x1e9e;" horiz-adv-x="626" 
d="M361 392q66 -9 109.5 -28.5t70 -46.5t37 -61t10.5 -72q0 -43 -15 -78t-42.5 -60t-66.5 -38.5t-87 -13.5q-69 0 -114.5 18.5t-72.5 52.5l42 42q26 -29 60.5 -43t85.5 -14q66 0 106 36t40 95q0 36 -11.5 63.5t-38.5 47.5t-71.5 33t-110.5 19v54l191 191q-26 27 -68 43
t-99 16q-36 0 -67 -11t-53.5 -31.5t-35.5 -49.5t-13 -66v-490h-63l1 491q0 48 17 87.5t47 68t72.5 44t93.5 15.5q78 0 131 -24.5t91 -62.5v-55z" />
    <glyph glyph-name="uni1EA0" unicode="&#x1ea0;" horiz-adv-x="620" 
d="M539 0l-75 206h-308l-75 -206h-66l262 700h66l262 -700h-66zM443 262l-133 365l-133 -365h266zM310 -72q20 0 34 -14t14 -34t-14 -33.5t-34 -13.5q-19 0 -33 13.5t-14 33.5t14 34t33 14z" />
    <glyph glyph-name="uni1EA1" unicode="&#x1ea1;" horiz-adv-x="493" 
d="M240 -12q-43 0 -79.5 17.5t-62 49.5t-40 77.5t-14.5 102.5t14.5 104.5t41 81.5t64.5 53t86 19q51 0 89 -21t61 -59v69h57v-380q0 -29 9.5 -41.5t32.5 -12.5v-47q-5 -2 -13 -2.5t-16 -0.5q-32 0 -51 19t-19 53v15q-19 -42 -59 -69.5t-101 -27.5zM256 41q54 0 90 32.5
t48 85.5v173q-12 45 -46.5 76.5t-87.5 31.5q-73 0 -112 -53.5t-39 -151.5q0 -89 39 -141.5t108 -52.5zM278 -167q-20 0 -34 13.5t-14 33.5t14 34t34 14t34 -14t14 -34t-14 -33.5t-34 -13.5z" />
    <glyph glyph-name="uni1EB8" unicode="&#x1eb8;" horiz-adv-x="560" 
d="M92 700h424v-60h-359v-254h310v-61h-310v-265h359v-60h-424v700zM315 -167q-19 0 -33 13.5t-14 33.5t14 34t33 14q20 0 34 -14t14 -34t-14 -33.5t-34 -13.5z" />
    <glyph glyph-name="uni1EB9" unicode="&#x1eb9;" horiz-adv-x="471" 
d="M432 78q-58 -90 -180 -90q-97 0 -152.5 60.5t-55.5 178.5q0 57 16.5 105.5t46.5 84.5t72 56t93 20q70 0 111 -35t41 -96q0 -53 -29 -85.5t-75 -50.5t-101.5 -25t-108.5 -10q10 -78 48.5 -113.5t98.5 -35.5q51 0 81 18t54 51zM270 440q-37 0 -66.5 -14.5t-50.5 -41
t-32.5 -63t-12.5 -81.5q41 2 86 7.5t83 18t63 35t25 59.5q0 42 -25.5 61t-69.5 19zM256 -72q19 0 33 -14t14 -34t-14 -33.5t-33 -13.5q-20 0 -34 13.5t-14 33.5t14 34t34 14z" />
    <glyph glyph-name="uni1EBC" unicode="&#x1ebc;" horiz-adv-x="560" 
d="M185 749q-5 8 -7.5 18t-2.5 23q0 26 18 44.5t52 18.5q21 0 38.5 -7t32.5 -16t29.5 -16t29.5 -7q26 0 26 27q0 8 -2 13.5t-4 9.5h50q9 -16 9 -42t-18 -44.5t-56 -18.5q-22 0 -39.5 7.5t-32.5 16t-28 16t-26 7.5q-11 0 -18.5 -7.5t-7.5 -20.5q0 -7 2 -12.5t4 -9.5h-49z
M92 700h424v-60h-359v-254h310v-61h-310v-265h359v-60h-424v700z" />
    <glyph glyph-name="uni1EBD" unicode="&#x1ebd;" horiz-adv-x="471" 
d="M120 583q-9 18 -9 41q0 27 17.5 45.5t55.5 18.5q20 0 36 -7.5t31 -16t29 -16t29 -7.5q28 0 28 27q0 8 -2 14t-4 10h50q9 -16 9 -42t-17.5 -45t-54.5 -19q-22 0 -40 7.5t-33 16t-27.5 16t-24.5 7.5q-29 0 -29 -27q0 -7 2 -12.5t4 -10.5h-50zM432 78q-58 -90 -180 -90
q-97 0 -152.5 60.5t-55.5 178.5q0 57 16.5 105.5t46.5 84.5t72 56t93 20q70 0 111 -35t41 -96q0 -53 -29 -85.5t-75 -50.5t-101.5 -25t-108.5 -10q10 -78 48.5 -113.5t98.5 -35.5q51 0 81 18t54 51zM270 440q-37 0 -66.5 -14.5t-50.5 -41t-32.5 -63t-12.5 -81.5q41 2 86 7.5
t83 18t63 35t25 59.5q0 42 -25.5 61t-69.5 19z" />
    <glyph glyph-name="uni1ECA" unicode="&#x1eca;" horiz-adv-x="248" 
d="M92 700h65v-700h-65v700zM124 -167q-19 0 -33 13.5t-14 33.5t14 34t33 14q20 0 34 -14t14 -34t-14 -33.5t-34 -13.5z" />
    <glyph glyph-name="uni1ECB" unicode="&#x1ecb;" horiz-adv-x="215" 
d="M108 590q-19 0 -33 13.5t-14 33.5t14 34t33 14q20 0 34 -14t14 -34t-14 -33.5t-34 -13.5zM76 482h63v-482h-63v482zM108 -167q-19 0 -33 13.5t-14 33.5t14 34t33 14q20 0 34 -14t14 -34t-14 -33.5t-34 -13.5z" />
    <glyph glyph-name="uni1ECC" unicode="&#x1ecc;" horiz-adv-x="708" 
d="M352 -6q-59 0 -113.5 19t-96.5 61t-67 109t-25 164q0 96 25.5 164t68.5 111.5t98 63.5t114 20t113.5 -19t96 -61.5t66.5 -110.5t25 -165q0 -96 -25.5 -163.5t-68 -110t-97.5 -62.5t-114 -20zM352 50q45 0 88 15.5t76 51t53 92.5t20 140q0 85 -19.5 142.5t-52 93
t-74.5 50.5t-87 15t-88 -15.5t-76 -51.5t-53 -93.5t-20 -141.5t19.5 -141t51.5 -92t74.5 -50t87.5 -15zM354 -167q-20 0 -34 13.5t-14 33.5t14 34t34 14q19 0 33 -14t14 -34t-14 -33.5t-33 -13.5z" />
    <glyph glyph-name="uni1ECD" unicode="&#x1ecd;" horiz-adv-x="519" 
d="M257 -12q-97 0 -154.5 65.5t-57.5 187.5q0 61 16 108t45 79t68.5 48.5t87.5 16.5q97 0 154.5 -65t57.5 -187q0 -60 -16 -107.5t-44.5 -79.5t-68.5 -49t-88 -17zM259 41q65 0 108 50t43 150t-42 149.5t-108 49.5q-64 0 -107.5 -49.5t-43.5 -149.5t42.5 -150t107.5 -50z
M260 -167q-20 0 -34 13.5t-14 33.5t14 34t34 14q19 0 33 -14t14 -34t-14 -33.5t-33 -13.5z" />
    <glyph glyph-name="uni1EE4" unicode="&#x1ee4;" horiz-adv-x="671" 
d="M337 -6q-54 0 -100.5 14.5t-80.5 48t-53.5 89.5t-19.5 140v414h65v-418q0 -124 50.5 -177.5t138.5 -53.5q44 0 78.5 13t59 40.5t37.5 71.5t13 106v418h63v-414q0 -84 -19 -140t-52.5 -89.5t-79.5 -48t-100 -14.5zM337 -167q-20 0 -34 13.5t-14 33.5t14 34t34 14
q19 0 33 -14t14 -34t-14 -33.5t-33 -13.5z" />
    <glyph glyph-name="uni1EE5" unicode="&#x1ee5;" horiz-adv-x="527" 
d="M229 -12q-74 0 -117.5 42t-43.5 129v323h63v-316q0 -69 31.5 -96.5t83.5 -27.5q35 0 60.5 14.5t42.5 36t25.5 47t8.5 47.5v295h63v-382q0 -29 9.5 -41t32.5 -12v-46q-2 -1 -9 -2t-20 -1q-69 0 -69 75v22q-9 -21 -22.5 -40t-33 -34t-45.5 -24t-60 -9zM264 -167
q-19 0 -33 13.5t-14 33.5t14 34t33 14q20 0 34 -14t14 -34t-14 -33.5t-34 -13.5z" />
    <glyph glyph-name="Ygrave" unicode="&#x1ef2;" horiz-adv-x="585" 
d="M171 865h86l83 -123h-65zM260 293l-239 407h77l196 -344l197 344h74l-240 -405v-295h-65v293z" />
    <glyph glyph-name="ygrave" unicode="&#x1ef3;" horiz-adv-x="520" 
d="M131 720h78l84 -162h-58zM247 -247q-76 0 -121 25.5t-64 67.5l44 32q17 -33 51 -52t90 -19q65 0 102 36.5t37 101.5v155q-18 -50 -61 -78.5t-100 -28.5q-157 0 -157 170v319h63v-312q0 -123 113 -123q27 0 52.5 12.5t44.5 33.5t30.5 48.5t11.5 57.5v283h63v-541
q-1 -87 -54.5 -137.5t-144.5 -50.5z" />
    <glyph glyph-name="uni1EF8" unicode="&#x1ef8;" horiz-adv-x="585" 
d="M163 749q-5 8 -7.5 18t-2.5 23q0 26 18.5 44.5t52.5 18.5q21 0 38 -7t32.5 -16t30 -16t29.5 -7q25 0 25 27q0 8 -2 13.5t-4 9.5h50q9 -16 9 -42t-18 -44.5t-56 -18.5q-22 0 -39.5 7.5t-32.5 16t-28 16t-26 7.5q-11 0 -18.5 -7.5t-7.5 -20.5t7 -22h-50zM260 293l-239 407
h77l196 -344l197 344h74l-240 -405v-295h-65v293z" />
    <glyph glyph-name="uni1EF9" unicode="&#x1ef9;" horiz-adv-x="520" 
d="M124 583q-5 9 -7.5 18.5t-2.5 22.5q0 27 18 45.5t56 18.5q19 0 35.5 -7.5t31.5 -16t29 -16t29 -7.5q27 0 27 27q0 8 -2 14t-4 10h50q9 -16 9 -42t-17.5 -45t-54.5 -19q-22 0 -40 7.5t-32.5 16t-27.5 16t-25 7.5q-29 0 -29 -27q0 -7 2 -12.5t4 -10.5h-49zM247 -247
q-76 0 -121 25.5t-64 67.5l44 32q17 -33 51 -52t90 -19q65 0 102 36.5t37 101.5v155q-18 -50 -61 -78.5t-100 -28.5q-157 0 -157 170v319h63v-312q0 -123 113 -123q27 0 52.5 12.5t44.5 33.5t30.5 48.5t11.5 57.5v283h63v-541q-1 -87 -54.5 -137.5t-144.5 -50.5z" />
    <glyph glyph-name="endash" unicode="&#x2013;" horiz-adv-x="531" 
d="M63 298h405v-51h-405v51z" />
    <glyph glyph-name="emdash" unicode="&#x2014;" horiz-adv-x="881" 
d="M63 298h755v-51h-755v51z" />
    <glyph glyph-name="quoteleft" unicode="&#x2018;" horiz-adv-x="190" 
d="M140 681q-20 -8 -33 -23.5t-13 -34.5q22 0 35.5 -13t13.5 -34q0 -20 -13 -33.5t-33 -13.5q-23 0 -37.5 15.5t-14.5 41.5q0 45 20.5 80.5t55.5 46.5z" />
    <glyph glyph-name="quoteright" unicode="&#x2019;" horiz-adv-x="188" 
d="M52 552q20 8 32.5 24t12.5 34q-21 0 -34.5 13.5t-13.5 33.5q0 21 13 34.5t33 13.5q23 0 37.5 -15.5t14.5 -42.5q0 -45 -20.5 -80t-55.5 -46z" />
    <glyph glyph-name="quotesinglbase" unicode="&#x201a;" horiz-adv-x="199" 
d="M53 -65q20 8 33 24t13 34q-22 0 -35.5 13.5t-13.5 33.5q0 21 13 34.5t33 13.5q23 0 37.5 -15.5t14.5 -42.5q0 -45 -20.5 -80t-55.5 -46z" />
    <glyph glyph-name="quotedblleft" unicode="&#x201c;" horiz-adv-x="321" 
d="M140 681q-20 -8 -33 -23.5t-13 -34.5q22 0 35.5 -13t13.5 -34q0 -20 -13 -33.5t-33 -13.5q-23 0 -37.5 15.5t-14.5 41.5q0 45 20.5 80.5t55.5 46.5zM271 681q-20 -8 -32.5 -23.5t-12.5 -34.5q21 0 34.5 -13t13.5 -34q0 -20 -13 -33.5t-33 -13.5q-23 0 -37.5 15.5
t-14.5 41.5q0 45 20.5 80.5t55.5 46.5z" />
    <glyph glyph-name="quotedblright" unicode="&#x201d;" horiz-adv-x="320" 
d="M52 552q20 8 32.5 24t12.5 34q-21 0 -34.5 13.5t-13.5 33.5q0 21 13 34.5t33 13.5q23 0 37.5 -15.5t14.5 -42.5q0 -45 -20.5 -80t-55.5 -46zM183 552q20 8 33 24t13 34q-22 0 -35.5 13.5t-13.5 33.5q0 21 13.5 34.5t33.5 13.5q23 0 37 -15.5t14 -42.5q0 -45 -20.5 -80
t-55.5 -46z" />
    <glyph glyph-name="quotedblbase" unicode="&#x201e;" horiz-adv-x="330" 
d="M53 -65q20 8 33 24t13 34q-22 0 -35.5 13.5t-13.5 33.5q0 21 13 34.5t33 13.5q23 0 37.5 -15.5t14.5 -42.5q0 -45 -20.5 -80t-55.5 -46zM184 -65q20 8 33 24t13 34q-21 0 -35 13.5t-14 33.5q0 21 13.5 34.5t33.5 13.5q23 0 37.5 -15.5t14.5 -42.5q0 -45 -20.5 -80
t-55.5 -46z" />
    <glyph glyph-name="dagger" unicode="&#x2020;" horiz-adv-x="389" 
d="M164 501h-121v47h121v163h61v-163h122v-47h-122l-8 -393h-45z" />
    <glyph glyph-name="daggerdbl" unicode="&#x2021;" horiz-adv-x="389" 
d="M168 301h-118v48h117l-3 152h-121v47h121v163h61v-163h122v-47h-122l-2 -152h117v-48h-119l-4 -193h-45z" />
    <glyph glyph-name="bullet" unicode="&#x2022;" horiz-adv-x="328" 
d="M164 203q-36 0 -61 25.5t-25 60.5q0 36 25 61t61 25q35 0 60 -25t25 -61q0 -35 -25 -60.5t-60 -25.5z" />
    <glyph glyph-name="ellipsis" unicode="&#x2026;" horiz-adv-x="501" 
d="M94 -6q-18 0 -30.5 12.5t-12.5 30.5q0 17 12.5 29.5t30.5 12.5q17 0 29.5 -12.5t12.5 -29.5q0 -18 -12.5 -30.5t-29.5 -12.5zM251 -6q-17 0 -30 12.5t-13 30.5q0 17 13 29.5t30 12.5t29.5 -12.5t12.5 -29.5q0 -18 -12.5 -30.5t-29.5 -12.5zM408 -6q-17 0 -30 12.5
t-13 30.5q0 17 13 29.5t30 12.5t30 -12.5t13 -29.5q0 -18 -13 -30.5t-30 -12.5z" />
    <glyph glyph-name="perthousand" unicode="&#x2030;" horiz-adv-x="870" 
d="M135 424q-50 0 -78 34.5t-28 104.5t28 104.5t78 34.5q51 0 79.5 -34.5t28.5 -104.5t-28.5 -104.5t-79.5 -34.5zM380 700h49l-211 -700h-50zM135 461q34 0 49 27t15 75q0 47 -15 73.5t-49 26.5t-48.5 -26.5t-14.5 -73.5q0 -48 14.5 -75t48.5 -27zM465 -2q-50 0 -78 34.5
t-28 104.5t28 104.5t78 34.5q51 0 79.5 -34.5t28.5 -104.5t-28.5 -104.5t-79.5 -34.5zM734 -2q-49 0 -77.5 34.5t-28.5 104.5t28 104.5t78 34.5q51 0 79.5 -34.5t28.5 -104.5t-28.5 -104.5t-79.5 -34.5zM465 35q34 0 48.5 27t14.5 75q0 47 -14.5 73.5t-48.5 26.5
t-48.5 -26.5t-14.5 -73.5q0 -48 14.5 -75t48.5 -27zM734 35q34 0 49 27t15 75q0 47 -15 73.5t-49 26.5q-33 0 -48 -26.5t-15 -73.5q0 -48 15 -75t48 -27z" />
    <glyph glyph-name="guilsinglleft" unicode="&#x2039;" horiz-adv-x="275" 
d="M39 227v55l149 144l35 -39l-132 -132l132 -131l-35 -40z" />
    <glyph glyph-name="guilsinglright" unicode="&#x203a;" horiz-adv-x="274" 
d="M51 123l132 131l-132 132l35 40l149 -144v-55l-149 -143z" />
    <glyph glyph-name="fraction" unicode="&#x2044;" horiz-adv-x="143" 
d="M155 726h54l-221 -726h-53z" />
    <glyph glyph-name="Euro" unicode="&#x20ac;" horiz-adv-x="625" 
d="M595 84q-13 -14 -30.5 -28.5t-41.5 -26.5t-54 -19.5t-68 -7.5q-110 0 -183 62.5t-95 183.5h-89v56h82q-1 10 -1 20v21v14t1 14h-82v56h87q10 62 34 111.5t59.5 84t81 52.5t99.5 18q76 0 121 -25t71 -59l-50 -37q-20 25 -53.5 44.5t-87.5 19.5q-79 0 -134.5 -55
t-72.5 -154h260v-56h-266q-1 -7 -1 -13.5v-14.5v-21t1 -20h266v-56h-258q19 -95 74.5 -142t138.5 -47q51 0 89.5 22t62.5 46z" />
    <glyph glyph-name="trademark" unicode="&#x2122;" horiz-adv-x="759" 
d="M149 664h-123v42h296v-42h-121v-320h-52v320zM350 706h55l113 -251l112 251h53v-362h-44v285l-105 -232h-35l-104 230v-283h-45v362z" />
    <glyph glyph-name="minus" unicode="&#x2212;" horiz-adv-x="475" 
d="M66 286h343v-50h-343v50z" />
    <glyph glyph-name="uni2215" unicode="&#x2215;" horiz-adv-x="368" 
d="M312 726h63l-316 -726h-64z" />
    <glyph glyph-name="uni2219" unicode="&#x2219;" horiz-adv-x="290" 
d="M145 236q-17 0 -27.5 11t-10.5 27q0 17 10.5 28t27.5 11t27.5 -11t10.5 -28q0 -16 -10.5 -27t-27.5 -11z" />
    <glyph glyph-name="approxequal" unicode="&#x2248;" horiz-adv-x="496" 
d="M77 265q-4 6 -6 14q-3 7 -5 16t-2 21q0 34 22.5 59.5t67.5 25.5q27 0 51 -9t46 -19.5t43.5 -19.5t45.5 -9q47 0 47 40q0 9 -1.5 17t-3.5 13q-3 7 -6 12h46q3 -6 6 -13q2 -7 3.5 -15.5t1.5 -18.5q0 -35 -20.5 -60t-65.5 -25q-32 0 -57 9t-47 19.5t-41.5 19t-39.5 8.5
q-27 0 -40 -11.5t-13 -29.5q0 -10 2 -18t5 -14q2 -7 6 -12h-45zM77 91q-4 6 -6 14q-3 7 -5 16t-2 21q0 34 22.5 59.5t67.5 25.5q27 0 51 -8.5t46 -19t43.5 -19.5t45.5 -9q47 0 47 38q0 10 -1.5 18t-3.5 13q-3 7 -6 12h46q3 -6 6 -13q2 -7 3.5 -15.5t1.5 -19.5
q0 -35 -20.5 -59.5t-65.5 -24.5q-32 0 -57 9t-47 19.5t-41.5 19t-39.5 8.5q-27 0 -40 -12t-13 -29q0 -10 2 -18t5 -14q2 -7 6 -12h-45z" />
    <glyph glyph-name="notequal" unicode="&#x2260;" horiz-adv-x="501" 
d="M188 140h-122v49h137l45 142h-182v49h196l31 97h54l-30 -97h118v-49h-133l-44 -142h177v-49h-192l-28 -90h-54z" />
    <glyph glyph-name="lessequal" unicode="&#x2264;" horiz-adv-x="430" 
d="M55 287v52l310 200v-58l-254 -168l254 -168v-57zM37 30h348v-48h-348v48z" />
    <glyph glyph-name="greaterequal" unicode="&#x2265;" horiz-adv-x="431" 
d="M66 144l253 168l-253 168v58l309 -199v-54l-309 -199v58zM45 29h348v-48h-348v48z" />
    <glyph glyph-name="uniF8FF" unicode="&#xf8ff;" horiz-adv-x="1451" 
d="M752 522q-26 0 -43.5 17.5t-17.5 43.5t17.5 44t43.5 18t44 -18t18 -44t-18 -43.5t-44 -17.5zM100 270q0 57 1 108t2.5 91.5t3 70t2.5 44.5h100q2 -30 6 -114t4 -200h-119zM604 264q-82 0 -82 66q0 8 0.5 21.5t1.5 27.5t1.5 25t0.5 13h-22v79l119 30l1 -17h178
q3 -17 4.5 -45t3 -61t2 -68t0.5 -65h-118q0 92 3 147h-61l3 -65q4 -4 15 -4q5 0 10 1t8 4v-74q-8 -8 -27 -11.5t-41 -3.5zM328 265q-43 0 -67.5 27.5t-24.5 86.5q0 64 32.5 99.5t101.5 35.5q64 0 94 -30.5t30 -86.5v-127h-83l-8 61q-6 -31 -22.5 -48.5t-52.5 -17.5zM834 270
q0 30 0.5 65t2 68t3 61t4.5 45h80q2 -17 4 -39t2 -37q1 6 4 19.5t12 27t24 24t40 10.5q45 0 60 -26t17 -80l3 -138h-114q0 35 1 56.5t1 36.5t-2.5 22t-12.5 7q-12 0 -15 -8t-3 -21q0 -15 1.5 -36.5t1.5 -56.5h-114zM1228 265q-64 0 -93 33.5t-29 90.5q0 24 5.5 46.5t19.5 40
t38 28t61 10.5q36 0 59.5 -10.5t37 -27.5t19 -39t5.5 -46q0 -60 -29.5 -93t-93.5 -33zM366 345q24 0 24 30q0 26 -24 26q-22 0 -22 -26q0 -30 22 -30zM1228 345q23 0 23 30q0 26 -23 26q-21 0 -21 -26q0 -30 21 -30zM390 -50q-45 0 -63.5 6.5t-24.5 10.5v83q5 -3 21.5 -9.5
t48.5 -6.5q17 0 27.5 3.5t16.5 8t8 9.5t2 7q-5 -3 -15.5 -7t-33.5 -4q-90 0 -90 83v13h-55l3 -65q2 -2 5.5 -3t9.5 -1q8 0 12 1.5t6 3.5v-73q-4 -3 -17 -9t-51 -6q-46 0 -63.5 17.5t-17.5 53.5q0 6 0.5 17t1 23.5t1 24t0.5 16.5h-18v80l117 29l-1 -18h177v-119
q0 -16 3 -21.5t12 -5.5t12.5 6t3.5 21v119h104q2 -8 3.5 -23t3 -34t2.5 -40t1 -41q0 -79 -33 -114.5t-119 -35.5zM558 -44q0 128 4.5 194.5t5.5 87.5h78q1 -4 2 -14t2 -21.5t2 -22.5t1 -18q1 5 5 18.5t12.5 27.5t23.5 24.5t39 10.5q37 0 58.5 -28.5t21.5 -84.5
q0 -135 -137 -135q1 -11 1 -22.5v-16.5h-119zM970 -5q-72 0 -106.5 31t-34.5 91q0 59 32.5 92.5t92.5 33.5q55 0 85.5 -29.5t30.5 -86.5q0 -8 -0.5 -18t-2.5 -17h-124q4 -6 15.5 -12t34.5 -6q14 0 29 3t26 9v-75q-8 -5 -27 -10.5t-51 -5.5zM978 109q3 27 -17 27
q-23 0 -23 -27h40zM670 72q3 0 9 1.5t12 5.5t11 11t5 19q0 23 -20 23q-22 0 -22 -31q0 -12 2 -19.5t3 -9.5zM1098 -10q-11 0 -17.5 6t-6.5 17t6.5 17t17.5 6t17.5 -6t6.5 -17t-6.5 -17t-17.5 -6zM1098 -5q18 0 18 18t-18 18t-18 -18t18 -18zM1088 25h11q10 0 10 -7t-7 -7
l6 -9h-6l-4 9h-5v-9h-5v23zM1100 15q4 0 4 3t-4 3h-7v-6h7z" />
    <glyph glyph-name="Euro.osf" horiz-adv-x="519" 
d="M486 65q-21 -25 -61.5 -44.5t-97.5 -19.5q-87 0 -143.5 43.5t-74.5 124.5h-71v45h64q-1 8 -1 15.5v15.5v13.5t1 12.5h-64v44h70q17 83 73.5 131t141.5 48q58 0 96.5 -18t60.5 -46l-49 -38q-16 19 -42 31.5t-65 12.5q-57 0 -95 -31.5t-53 -89.5h186v-44h-193
q-1 -7 -1 -13.5v-14.5v-15t1 -14h193v-45h-185q16 -57 55.5 -83.5t99.5 -26.5q38 0 68 14.5t47 31.5z" />
    <glyph glyph-name="Euro.sc" horiz-adv-x="515" 
d="M481 65q-21 -25 -60 -44.5t-96 -19.5q-88 0 -145.5 44t-76.5 127h-68v45h62q-1 7 -1 13.5v14.5v10.5t1 10.5h-62v44h67q16 87 73 135.5t142 48.5q58 0 96.5 -18t61.5 -46l-50 -38q-16 19 -42 31.5t-65 12.5q-57 0 -96 -33t-53 -93h191v-44h-197q-1 -5 -1 -11v-12v-13.5
t1 -12.5h197v-45h-190q16 -58 56.5 -85.5t100.5 -27.5q38 0 68 14.5t47 31.5z" />
    <glyph glyph-name="IJacute" horiz-adv-x="700" 
d="M165 865h84l-104 -123h-63zM611 865h84l-104 -123h-63zM92 700h65v-700h-65v700zM423 -6q-59 0 -99.5 22.5t-65.5 55.5l42 45q22 -27 53 -46.5t72 -19.5q63 0 94 38.5t31 110.5v500h65v-495q0 -105 -50.5 -158t-141.5 -53z" />
    <glyph glyph-name="a.sc" horiz-adv-x="522" 
d="M380 137h-239l-56 -137h-67l210 497h66l209 -497h-67zM359 189l-98 243l-99 -243h197z" />
    <glyph glyph-name="a.ss01" horiz-adv-x="493" 
d="M419 101q0 -32 9.5 -42.5t32.5 -10.5v-47q-12 -3 -28 -3q-35 0 -53 19t-18 64v18q-25 -51 -70 -80t-105 -29q-69 0 -109.5 31t-40.5 91q0 63 46 97.5t135 35.5h138v77q0 57 -29.5 87t-89.5 30q-57 0 -86.5 -24t-29.5 -71q0 -26 10 -43h-58q-5 8 -8 22.5t-3 31.5
q0 63 48 100.5t129 37.5q180 0 180 -174v-218zM195 41q58 0 99.5 36t61.5 96v25h-140q-58 0 -86 -22t-28 -60q0 -36 24.5 -55.5t68.5 -19.5z" />
    <glyph glyph-name="aacute.sc" horiz-adv-x="522" 
d="M271 573h-58l85 162h78zM380 137h-239l-56 -137h-67l210 497h66l209 -497h-67zM359 189l-98 243l-99 -243h197z" />
    <glyph glyph-name="aacute.ss01" horiz-adv-x="493" 
d="M255 558h-58l85 162h78zM419 101q0 -32 9.5 -42.5t32.5 -10.5v-47q-12 -3 -28 -3q-35 0 -53 19t-18 64v18q-25 -51 -70 -80t-105 -29q-69 0 -109.5 31t-40.5 91q0 63 46 97.5t135 35.5h138v77q0 57 -29.5 87t-89.5 30q-57 0 -86.5 -24t-29.5 -71q0 -26 10 -43h-58
q-5 8 -8 22.5t-3 31.5q0 63 48 100.5t129 37.5q180 0 180 -174v-218zM195 41q58 0 99.5 36t61.5 96v25h-140q-58 0 -86 -22t-28 -60q0 -36 24.5 -55.5t68.5 -19.5z" />
    <glyph glyph-name="abreve.sc" horiz-adv-x="522" 
d="M261 586q-60 0 -87 34t-27 91h51q0 -74 63 -74q63 -2 63 74h51q0 -57 -27.5 -91t-86.5 -34zM380 137h-239l-56 -137h-67l210 497h66l209 -497h-67zM359 189l-98 243l-99 -243h197z" />
    <glyph glyph-name="abreve.ss01" horiz-adv-x="493" 
d="M245 571q-60 0 -87 34t-27 91h51q0 -74 63 -74q64 -2 64 74h50q0 -57 -27.5 -91t-86.5 -34zM419 101q0 -32 9.5 -42.5t32.5 -10.5v-47q-12 -3 -28 -3q-35 0 -53 19t-18 64v18q-25 -51 -70 -80t-105 -29q-69 0 -109.5 31t-40.5 91q0 63 46 97.5t135 35.5h138v77
q0 57 -29.5 87t-89.5 30q-57 0 -86.5 -24t-29.5 -71q0 -26 10 -43h-58q-5 8 -8 22.5t-3 31.5q0 63 48 100.5t129 37.5q180 0 180 -174v-218zM195 41q58 0 99.5 36t61.5 96v25h-140q-58 0 -86 -22t-28 -60q0 -36 24.5 -55.5t68.5 -19.5z" />
    <glyph glyph-name="acircumflex.sc" horiz-adv-x="522" 
d="M196 573h-57l88 162h67l88 -162h-58l-64 113zM380 137h-239l-56 -137h-67l210 497h66l209 -497h-67zM359 189l-98 243l-99 -243h197z" />
    <glyph glyph-name="acircumflex.ss01" horiz-adv-x="493" 
d="M180 558h-57l88 162h67l88 -162h-58l-64 113zM419 101q0 -32 9.5 -42.5t32.5 -10.5v-47q-12 -3 -28 -3q-35 0 -53 19t-18 64v18q-25 -51 -70 -80t-105 -29q-69 0 -109.5 31t-40.5 91q0 63 46 97.5t135 35.5h138v77q0 57 -29.5 87t-89.5 30q-57 0 -86.5 -24t-29.5 -71
q0 -26 10 -43h-58q-5 8 -8 22.5t-3 31.5q0 63 48 100.5t129 37.5q180 0 180 -174v-218zM195 41q58 0 99.5 36t61.5 96v25h-140q-58 0 -86 -22t-28 -60q0 -36 24.5 -55.5t68.5 -19.5z" />
    <glyph glyph-name="acute.case" horiz-adv-x="256" 
d="M133 636h79l-104 -123h-58z" />
    <glyph glyph-name="acutecomb.case" 
d="M-123 865h85l-104 -123h-64z" />
    <glyph glyph-name="adieresis.sc" horiz-adv-x="522" 
d="M176 605q-20 0 -33 13.5t-13 33.5q0 19 13 33t33 14q19 0 32.5 -14t13.5 -33q0 -20 -13.5 -33.5t-32.5 -13.5zM347 605q-20 0 -34 13.5t-14 33.5q0 19 14 33t34 14q19 0 32 -14t13 -33q0 -20 -13 -33.5t-32 -13.5zM380 137h-239l-56 -137h-67l210 497h66l209 -497h-67z
M359 189l-98 243l-99 -243h197z" />
    <glyph glyph-name="adieresis.ss01" horiz-adv-x="493" 
d="M160 590q-20 0 -33 13.5t-13 33.5q0 19 13 33t33 14q19 0 32.5 -14t13.5 -33q0 -20 -13.5 -33.5t-32.5 -13.5zM331 590q-20 0 -34 13.5t-14 33.5q0 19 14 33t34 14q19 0 32 -14t13 -33q0 -20 -13 -33.5t-32 -13.5zM419 101q0 -32 9.5 -42.5t32.5 -10.5v-47q-12 -3 -28 -3
q-35 0 -53 19t-18 64v18q-25 -51 -70 -80t-105 -29q-69 0 -109.5 31t-40.5 91q0 63 46 97.5t135 35.5h138v77q0 57 -29.5 87t-89.5 30q-57 0 -86.5 -24t-29.5 -71q0 -26 10 -43h-58q-5 8 -8 22.5t-3 31.5q0 63 48 100.5t129 37.5q180 0 180 -174v-218zM195 41q58 0 99.5 36
t61.5 96v25h-140q-58 0 -86 -22t-28 -60q0 -36 24.5 -55.5t68.5 -19.5z" />
    <glyph glyph-name="ae.sc" horiz-adv-x="673" 
d="M229 497h401v-55h-316l69 -164h197v-54h-176l73 -169h153v-55h-195l-59 138h-233l-57 -138h-68zM358 190l-98 238l-98 -238h196z" />
    <glyph glyph-name="aeacute.sc" horiz-adv-x="673" 
d="M408 735h78l-104 -162h-58zM229 497h401v-55h-316l69 -164h197v-54h-176l73 -169h153v-55h-195l-59 138h-233l-57 -138h-68zM358 190l-98 238l-98 -238h196z" />
    <glyph glyph-name="agrave.sc" horiz-adv-x="522" 
d="M237 573l-104 162h78l84 -162h-58zM380 137h-239l-56 -137h-67l210 497h66l209 -497h-67zM359 189l-98 243l-99 -243h197z" />
    <glyph glyph-name="agrave.ss01" horiz-adv-x="493" 
d="M221 558l-104 162h78l84 -162h-58zM419 101q0 -32 9.5 -42.5t32.5 -10.5v-47q-12 -3 -28 -3q-35 0 -53 19t-18 64v18q-25 -51 -70 -80t-105 -29q-69 0 -109.5 31t-40.5 91q0 63 46 97.5t135 35.5h138v77q0 57 -29.5 87t-89.5 30q-57 0 -86.5 -24t-29.5 -71q0 -26 10 -43
h-58q-5 8 -8 22.5t-3 31.5q0 63 48 100.5t129 37.5q180 0 180 -174v-218zM195 41q58 0 99.5 36t61.5 96v25h-140q-58 0 -86 -22t-28 -60q0 -36 24.5 -55.5t68.5 -19.5z" />
    <glyph glyph-name="amacron.sc" horiz-adv-x="522" 
d="M382 625h-242v52h242v-52zM380 137h-239l-56 -137h-67l210 497h66l209 -497h-67zM359 189l-98 243l-99 -243h197z" />
    <glyph glyph-name="amacron.ss01" horiz-adv-x="493" 
d="M366 610h-242v52h242v-52zM419 101q0 -32 9.5 -42.5t32.5 -10.5v-47q-12 -3 -28 -3q-35 0 -53 19t-18 64v18q-25 -51 -70 -80t-105 -29q-69 0 -109.5 31t-40.5 91q0 63 46 97.5t135 35.5h138v77q0 57 -29.5 87t-89.5 30q-57 0 -86.5 -24t-29.5 -71q0 -26 10 -43h-58
q-5 8 -8 22.5t-3 31.5q0 63 48 100.5t129 37.5q180 0 180 -174v-218zM195 41q58 0 99.5 36t61.5 96v25h-140q-58 0 -86 -22t-28 -60q0 -36 24.5 -55.5t68.5 -19.5z" />
    <glyph glyph-name="ampersand.sc" horiz-adv-x="559" 
d="M521 -6q-28 10 -54.5 21t-51.5 25q-61 -52 -168 -52q-99 0 -149.5 42t-50.5 111q0 50 25.5 88t67.5 57q-23 44 -23 94q0 66 43 103.5t115 37.5q69 0 110.5 -32.5t41.5 -87.5q0 -17 -3.5 -33t-8.5 -26h-55q10 20 10 51q0 36 -25.5 55.5t-67.5 19.5q-48 0 -75 -22.5
t-27 -65.5q0 -46 25 -87t76 -89q21 -20 54 -46t75 -52q29 47 29 126h56q0 -47 -10 -85t-29 -68q20 -11 41.5 -20t44.5 -17zM253 38q71 0 114 29q-36 23 -68 47t-60 50q-23 21 -42.5 42t-35.5 44q-54 -39 -54 -102q0 -48 36.5 -79t109.5 -31z" />
    <glyph glyph-name="aogonek.sc" horiz-adv-x="522" 
d="M517 -151q-11 -11 -28 -17.5t-38 -6.5q-42 0 -64.5 20.5t-22.5 57.5q0 32 18 59.5t50 47.5l-52 127h-239l-56 -137h-67l210 497h66l209 -497h-9q-32 -9 -52.5 -32t-20.5 -54q0 -23 11 -33t30 -10q11 0 19.5 3.5t13.5 8.5zM359 189l-98 243l-99 -243h197z" />
    <glyph glyph-name="aogonek.ss01" horiz-adv-x="493" 
d="M483 -150q-10 -11 -27.5 -17.5t-38.5 -6.5q-42 0 -64.5 20.5t-22.5 57.5q0 30 17 57t46 46q-15 9 -23 27t-8 47v18q-25 -51 -70 -80t-105 -29q-69 0 -109.5 31t-40.5 91q0 63 46 97.5t135 35.5h138v77q0 57 -29.5 87t-89.5 30q-57 0 -86.5 -24t-29.5 -71q0 -26 10 -43
h-58q-5 8 -8 22.5t-3 31.5q0 63 48 100.5t129 37.5q180 0 180 -174v-218q0 -32 9.5 -42.5t32.5 -10.5v-47q-32 -9 -53 -32t-21 -54q0 -23 11 -33t30 -10q11 0 19.5 3.5t13.5 8.5zM195 41q58 0 99.5 36t61.5 96v25h-140q-58 0 -86 -22t-28 -60q0 -36 24.5 -55.5t68.5 -19.5z
" />
    <glyph glyph-name="aring.sc" horiz-adv-x="522" 
d="M261 547q-42 0 -70.5 28.5t-28.5 70.5q0 43 28.5 71.5t70.5 28.5t70.5 -28.5t28.5 -71.5q0 -42 -28.5 -70.5t-70.5 -28.5zM261 699q-24 0 -38 -15t-14 -38t14 -37.5t38 -14.5t38 14.5t14 37.5t-14 38t-38 15zM380 137h-239l-56 -137h-67l210 497h66l209 -497h-67z
M359 189l-98 243l-99 -243h197z" />
    <glyph glyph-name="aring.ss01" horiz-adv-x="493" 
d="M245 532q-42 0 -70.5 28.5t-28.5 70.5q0 43 28.5 71.5t70.5 28.5q43 0 71 -28.5t28 -71.5q0 -42 -28 -70.5t-71 -28.5zM245 684q-24 0 -38 -15t-14 -38t14 -37.5t38 -14.5t38 14.5t14 37.5t-14 38t-38 15zM419 101q0 -32 9.5 -42.5t32.5 -10.5v-47q-12 -3 -28 -3
q-35 0 -53 19t-18 64v18q-25 -51 -70 -80t-105 -29q-69 0 -109.5 31t-40.5 91q0 63 46 97.5t135 35.5h138v77q0 57 -29.5 87t-89.5 30q-57 0 -86.5 -24t-29.5 -71q0 -26 10 -43h-58q-5 8 -8 22.5t-3 31.5q0 63 48 100.5t129 37.5q180 0 180 -174v-218zM195 41q58 0 99.5 36
t61.5 96v25h-140q-58 0 -86 -22t-28 -60q0 -36 24.5 -55.5t68.5 -19.5z" />
    <glyph glyph-name="aringacute.sc" horiz-adv-x="522" 
d="M380 137h-239l-56 -137h-67l206 488q-28 11 -44.5 35.5t-16.5 56.5q0 35 19.5 61t51.5 34l76 113h85l-97 -115q28 -11 45.5 -36t17.5 -57t-17.5 -57t-45.5 -36l205 -487h-67zM262 632q-24 0 -38 -14.5t-14 -37.5t14 -38t38 -15t38 15t14 38t-14 37.5t-38 14.5zM359 189
l-98 243l-99 -243h197z" />
    <glyph glyph-name="aringacute.ss01" horiz-adv-x="493" 
d="M245 532q-42 0 -70.5 28.5t-28.5 70.5q0 36 21 62.5t53 34.5l68 131h78l-86 -134q29 -11 46.5 -36t17.5 -58q0 -42 -28 -70.5t-71 -28.5zM245 684q-24 0 -38 -15t-14 -38t14 -37.5t38 -14.5t38 14.5t14 37.5t-14 38t-38 15zM419 101q0 -32 9.5 -42.5t32.5 -10.5v-47
q-12 -3 -28 -3q-35 0 -53 19t-18 64v18q-25 -51 -70 -80t-105 -29q-69 0 -109.5 31t-40.5 91q0 63 46 97.5t135 35.5h138v77q0 57 -29.5 87t-89.5 30q-57 0 -86.5 -24t-29.5 -71q0 -26 10 -43h-58q-5 8 -8 22.5t-3 31.5q0 63 48 100.5t129 37.5q180 0 180 -174v-218zM195 41
q58 0 99.5 36t61.5 96v25h-140q-58 0 -86 -22t-28 -60q0 -36 24.5 -55.5t68.5 -19.5z" />
    <glyph glyph-name="atilde.sc" horiz-adv-x="522" 
d="M131 546q-5 8 -7.5 18t-2.5 23q0 26 18.5 44.5t52.5 18.5q21 0 38 -7t32.5 -16t30 -16t29.5 -7q25 0 25 27q0 8 -2 13.5t-4 9.5h50q9 -16 9 -42t-18 -44.5t-56 -18.5q-22 0 -39.5 7.5t-32.5 16t-28 16t-26 7.5q-11 0 -18.5 -7.5t-7.5 -20.5t7 -22h-50zM380 137h-239
l-56 -137h-67l210 497h66l209 -497h-67zM359 189l-98 243l-99 -243h197z" />
    <glyph glyph-name="atilde.ss01" horiz-adv-x="493" 
d="M116 583q-9 18 -9 41q0 27 17.5 45.5t55.5 18.5q19 0 35.5 -7.5t31.5 -16t29 -16t29 -7.5q27 0 27 27q0 17 -6 24h51q9 -16 9 -42t-17.5 -45t-54.5 -19q-22 0 -40 7.5t-33 16t-27.5 16t-24.5 7.5q-29 0 -29 -27q0 -7 2 -12.5t4 -10.5h-50zM419 101q0 -32 9.5 -42.5
t32.5 -10.5v-47q-12 -3 -28 -3q-35 0 -53 19t-18 64v18q-25 -51 -70 -80t-105 -29q-69 0 -109.5 31t-40.5 91q0 63 46 97.5t135 35.5h138v77q0 57 -29.5 87t-89.5 30q-57 0 -86.5 -24t-29.5 -71q0 -26 10 -43h-58q-5 8 -8 22.5t-3 31.5q0 63 48 100.5t129 37.5
q180 0 180 -174v-218zM195 41q58 0 99.5 36t61.5 96v25h-140q-58 0 -86 -22t-28 -60q0 -36 24.5 -55.5t68.5 -19.5z" />
    <glyph glyph-name="b.sc" horiz-adv-x="515" 
d="M364 265q17 -3 36 -11.5t35 -23.5t26.5 -37t10.5 -54q0 -36 -14.5 -62.5t-40.5 -43.5t-60.5 -25t-75.5 -8h-200v497h184q88 0 132.5 -31t44.5 -95q0 -24 -7.5 -42t-18.5 -31t-25 -21t-27 -12zM144 279h133q54 0 78 24.5t24 59.5q0 39 -26 61t-81 22h-128v-167zM278 50
q58 0 93.5 20t35.5 71q0 48 -31.5 68.5t-87.5 20.5h-144v-180h134z" />
    <glyph glyph-name="braceleft.sc" horiz-adv-x="269" 
d="M228 -87q-25 -5 -49 -1t-43 18t-30.5 38.5t-11.5 60.5v149q0 26 -16 37t-34 11h-8v49h8q18 0 34 11t16 37v149q0 36 11.5 60.5t30.5 38t43 17.5t49 -1v-52q-37 8 -58 -11.5t-21 -61.5v-152q0 -17 -4.5 -28t-10.5 -17.5t-12.5 -10t-10.5 -4.5q3 -1 9.5 -4.5t12.5 -10.5
t11 -18t5 -26v-152q0 -42 21 -62t58 -11v-53z" />
    <glyph glyph-name="braceright.sc" horiz-adv-x="269" 
d="M41 588q26 5 50 1t42.5 -18t30 -38.5t11.5 -60.5v-149q0 -26 16 -36.5t34 -10.5h8v-50h-8q-18 0 -34 -11t-16 -37v-148q0 -36 -11.5 -60.5t-30 -38.5t-42.5 -18t-50 1v52q37 -8 58 11.5t21 61.5v153q0 17 4.5 27.5t10.5 17.5t12.5 10t10.5 4q-3 1 -9.5 4.5t-12.5 10.5
t-11 18t-5 26v153q0 42 -21 61.5t-58 11.5v52z" />
    <glyph glyph-name="bracketleft.sc" horiz-adv-x="276" 
d="M87 595h150v-50h-92v-588h92v-50h-150v688z" />
    <glyph glyph-name="bracketright.sc" horiz-adv-x="276" 
d="M38 -43h93v588h-93v50h151v-688h-151v50z" />
    <glyph glyph-name="breve.case" horiz-adv-x="312" 
d="M156 523q-53 0 -82 31.5t-29 76.5h51q0 -61 60 -61t60 61h51q0 -45 -29 -76.5t-82 -31.5z" />
    <glyph glyph-name="c.sc" horiz-adv-x="510" 
d="M283 -12q-53 0 -96.5 17t-74.5 49.5t-48 81t-17 111.5q0 60 16.5 108.5t47.5 82.5t75.5 52.5t99.5 18.5q80 0 131 -37.5t51 -108.5q0 -11 -2 -21.5t-4 -20.5h-60q2 11 2.5 17t0.5 17q0 46 -30.5 73t-90.5 27q-78 0 -123.5 -53.5t-45.5 -154.5q0 -98 47.5 -152t123.5 -54
q51 0 87 19.5t59 55.5l42 -33q-31 -45 -76 -70t-115 -25z" />
    <glyph glyph-name="cacute.sc" horiz-adv-x="510" 
d="M319 735h78l-105 -162h-58zM283 -12q-53 0 -96.5 17t-74.5 49.5t-48 81t-17 111.5q0 60 16.5 108.5t47.5 82.5t75.5 52.5t99.5 18.5q80 0 131 -37.5t51 -108.5q0 -11 -2 -21.5t-4 -20.5h-60q2 11 2.5 17t0.5 17q0 46 -30.5 73t-90.5 27q-78 0 -123.5 -53.5t-45.5 -154.5
q0 -98 47.5 -152t123.5 -54q51 0 87 19.5t59 55.5l42 -33q-31 -45 -76 -70t-115 -25z" />
    <glyph glyph-name="caron.alt" horiz-adv-x="189" 
d="M47 580q20 8 32.5 21.5t12.5 29.5q-20 0 -32.5 14t-12.5 34q0 19 13.5 33t33.5 14q23 0 37.5 -15t14.5 -41q0 -44 -23 -77.5t-56 -44.5z" />
    <glyph glyph-name="caron.case" horiz-adv-x="327" 
d="M40 646h59l64 -82l65 82h59l-87 -133h-73z" />
    <glyph glyph-name="caroncomb.alt" 
d="M-91 580q20 8 32.5 21.5t12.5 29.5q-20 0 -32.5 14t-12.5 34q0 19 13.5 33t33.5 14q23 0 37.5 -15t14.5 -41q0 -44 -23 -77.5t-56 -44.5z" />
    <glyph glyph-name="ccaron.sc" horiz-adv-x="510" 
d="M160 735h58l64 -114l64 114h57l-88 -162h-68zM283 -12q-53 0 -96.5 17t-74.5 49.5t-48 81t-17 111.5q0 60 16.5 108.5t47.5 82.5t75.5 52.5t99.5 18.5q80 0 131 -37.5t51 -108.5q0 -11 -2 -21.5t-4 -20.5h-60q2 11 2.5 17t0.5 17q0 46 -30.5 73t-90.5 27
q-78 0 -123.5 -53.5t-45.5 -154.5q0 -98 47.5 -152t123.5 -54q51 0 87 19.5t59 55.5l42 -33q-31 -45 -76 -70t-115 -25z" />
    <glyph glyph-name="ccedilla.sc" horiz-adv-x="510" 
d="M474 83q-28 -42 -67.5 -66t-99.5 -28l-10 -29q35 -5 56.5 -22t21.5 -52q0 -37 -28 -56.5t-71 -19.5q-23 0 -44.5 6.5t-34.5 20.5l22 39q24 -21 55 -21q19 0 30 8t11 25q0 18 -19.5 28.5t-55.5 12.5l23 60q-97 6 -156.5 72t-59.5 186q0 60 16.5 108.5t47.5 82.5t75.5 52.5
t99.5 18.5q80 0 131 -37.5t51 -108.5q0 -11 -2 -21.5t-4 -20.5h-60q2 11 2.5 17t0.5 17q0 46 -30.5 73t-90.5 27q-78 0 -123.5 -53.5t-45.5 -154.5q0 -98 47.5 -152t123.5 -54q51 0 87 19.5t59 55.5z" />
    <glyph glyph-name="ccircumflex.sc" horiz-adv-x="510" 
d="M248 735h67l88 -162h-58l-65 113l-64 -113h-57zM283 -12q-53 0 -96.5 17t-74.5 49.5t-48 81t-17 111.5q0 60 16.5 108.5t47.5 82.5t75.5 52.5t99.5 18.5q80 0 131 -37.5t51 -108.5q0 -11 -2 -21.5t-4 -20.5h-60q2 11 2.5 17t0.5 17q0 46 -30.5 73t-90.5 27
q-78 0 -123.5 -53.5t-45.5 -154.5q0 -98 47.5 -152t123.5 -54q51 0 87 19.5t59 55.5l42 -33q-31 -45 -76 -70t-115 -25z" />
    <glyph glyph-name="cdotaccent.sc" horiz-adv-x="510" 
d="M282 605q-19 0 -33 13.5t-14 33.5t14 34t33 14q20 0 34 -14t14 -34t-14 -33.5t-34 -13.5zM283 -12q-53 0 -96.5 17t-74.5 49.5t-48 81t-17 111.5q0 60 16.5 108.5t47.5 82.5t75.5 52.5t99.5 18.5q80 0 131 -37.5t51 -108.5q0 -11 -2 -21.5t-4 -20.5h-60q2 11 2.5 17
t0.5 17q0 46 -30.5 73t-90.5 27q-78 0 -123.5 -53.5t-45.5 -154.5q0 -98 47.5 -152t123.5 -54q51 0 87 19.5t59 55.5l42 -33q-31 -45 -76 -70t-115 -25z" />
    <glyph glyph-name="cent.osf" horiz-adv-x="463" 
d="M431 60q-20 -24 -56 -43t-90 -21v-69h-53v72q-86 13 -136 74.5t-50 166.5q0 104 50 169.5t136 77.5v69h53v-67q51 -3 85 -20.5t55 -43.5l-50 -38q-14 17 -36 29t-54 14v-376q35 2 62.5 15.5t44.5 30.5zM112 238q0 -80 32 -124t88 -55v368q-56 -12 -88 -61t-32 -128z" />
    <glyph glyph-name="cent.sc" horiz-adv-x="456" 
d="M427 60q-20 -24 -56 -43t-89 -21v-69h-54v72q-86 13 -135.5 74.5t-49.5 166.5q0 104 50 169.5t135 77.5v69h54v-68q51 -2 85 -19.5t54 -43.5l-49 -38q-14 17 -36 29t-54 14v-376q35 2 62 15.5t44 30.5zM109 238q0 -81 31.5 -124.5t88.5 -55.5v369q-57 -12 -88.5 -61
t-31.5 -128z" />
    <glyph glyph-name="circumflex.case" horiz-adv-x="337" 
d="M131 646h73l87 -133h-59l-65 82l-65 -82h-58z" />
    <glyph glyph-name="currency.osf" horiz-adv-x="543" 
d="M45 83l81 82q-24 39 -24 89q0 23 6.5 45.5t17.5 42.5l-80 81l34 34l78 -80q22 22 51 34.5t63 12.5q33 0 62 -12.5t51 -34.5l78 80l34 -34l-80 -81q12 -20 19 -42.5t7 -46.5q0 -49 -26 -89l79 -78l-34 -34l-77 77q-21 -21 -50.5 -33.5t-61.5 -12.5q-35 -1 -64 12t-51 35
l-79 -81zM273 133q25 0 46.5 9.5t37.5 26t25.5 38t9.5 46.5q0 26 -9.5 48t-25.5 38t-38 25.5t-47 9.5t-46.5 -9.5t-38 -26t-26 -38t-9.5 -46.5t9.5 -47t25.5 -38.5t38.5 -26t47.5 -9.5z" />
    <glyph glyph-name="currency.sc" horiz-adv-x="543" 
d="M45 83l81 82q-24 39 -24 89q0 23 6.5 45.5t17.5 42.5l-80 81l34 34l78 -80q22 22 51 34.5t63 12.5q33 0 62 -12.5t51 -34.5l78 80l34 -34l-80 -81q12 -20 19 -42.5t7 -46.5q0 -49 -26 -89l79 -78l-34 -34l-77 77q-21 -21 -50.5 -33.5t-61.5 -12.5q-35 -1 -64 12t-51 35
l-79 -81zM273 133q25 0 46.5 9.5t37.5 26t25.5 38t9.5 46.5q0 26 -9.5 48t-25.5 38t-38 25.5t-47 9.5t-46.5 -9.5t-38 -26t-26 -38t-9.5 -46.5t9.5 -47t25.5 -38.5t38.5 -26t47.5 -9.5z" />
    <glyph glyph-name="d.sc" horiz-adv-x="556" 
d="M81 497h157q57 0 106.5 -14t86 -44.5t58 -77.5t21.5 -113t-22 -113t-58.5 -77t-84.5 -44t-100 -14h-164v497zM240 55q45 0 82 11.5t64 34.5t41.5 59.5t14.5 85.5q0 99 -57.5 147.5t-149.5 48.5h-91v-387h96z" />
    <glyph glyph-name="dcaron.sc" horiz-adv-x="556" 
d="M153 662h59l65 -77l65 77h58l-88 -123h-72zM81 497h157q57 0 106.5 -14t86 -44.5t58 -77.5t21.5 -113t-22 -113t-58.5 -77t-84.5 -44t-100 -14h-164v497zM240 55q45 0 82 11.5t64 34.5t41.5 59.5t14.5 85.5q0 99 -57.5 147.5t-149.5 48.5h-91v-387h96z" />
    <glyph glyph-name="dcroat.sc" horiz-adv-x="587" 
d="M268 497q57 0 107 -14t86.5 -44.5t58 -77.5t21.5 -113t-22 -113t-58.5 -77t-84.5 -44t-101 -14h-164v222h-93v55h93v220h157zM270 55q45 0 82 11.5t64 34.5t41.5 59.5t14.5 85.5q0 99 -57.5 147.5t-149.5 48.5h-90v-165h103v-55h-103v-167h95z" />
    <glyph glyph-name="dieresis.case" horiz-adv-x="341" 
d="M86 549q-17 0 -30 12.5t-13 29.5t13 30t30 13t29.5 -13t12.5 -30t-12.5 -29.5t-29.5 -12.5zM256 549q-17 0 -30 12.5t-13 29.5t13 30t30 13t29.5 -13t12.5 -30t-12.5 -29.5t-29.5 -12.5z" />
    <glyph glyph-name="dollar.osf" horiz-adv-x="467" 
d="M261 268q30 -5 60 -12.5t53.5 -22t38 -38t14.5 -60.5q0 -57 -44.5 -93t-121.5 -41v-87h-49v85q-63 2 -110 23t-70 59l43 38q23 -35 59 -50t79 -17v168q-30 5 -60 12.5t-53 21.5t-37.5 36.5t-14.5 58.5q0 59 43 93.5t121 39.5v80h49v-80q28 -2 57.5 -10.5t52 -26
t34.5 -44.5t5 -67l-57 -1q4 24 -2 41.5t-19 29t-31.5 18t-39.5 8.5v-162zM108 353q0 -19 8 -32t22.5 -21t33.5 -13.5t41 -9.5v154q-50 -3 -77.5 -23.5t-27.5 -54.5zM261 52q51 5 78 25t27 55q0 20 -8 33t-22.5 22t-33.5 14.5t-41 9.5v-159z" />
    <glyph glyph-name="dollar.sc" horiz-adv-x="467" 
d="M261 268q30 -5 60 -12.5t53.5 -22t38 -38t14.5 -60.5q0 -59 -43 -94t-123 -40v-87h-49v85q-63 4 -110 24t-70 58l43 38q23 -35 59 -50t79 -17v168q-30 5 -60 12.5t-53 21.5t-37.5 37t-14.5 59q0 60 43 93.5t121 38.5v80h49v-80q29 -2 58 -10t51.5 -25t34 -44.5t4.5 -68.5
l-56 -1q4 25 -2 42.5t-19 29t-31.5 18t-39.5 8.5v-163zM108 355q0 -20 8 -33t22.5 -22t33.5 -14t41 -10v155q-50 -3 -77.5 -22.5t-27.5 -53.5zM261 52q105 8 105 80q0 20 -8 33t-22.5 22t-33.5 14.5t-41 9.5v-159z" />
    <glyph glyph-name="dotaccent.case" horiz-adv-x="177" 
d="M89 568q-17 0 -30 12.5t-13 30.5q0 17 13 29.5t30 12.5t29.5 -12.5t12.5 -29.5q0 -18 -12.5 -30.5t-29.5 -12.5z" />
    <glyph glyph-name="dotlessi.sc" horiz-adv-x="226" 
d="M81 497h65v-497h-65v497z" />
    <glyph glyph-name="dotlessi.ss01" horiz-adv-x="220" 
d="M152 -2q-38 0 -57 23t-19 67v394h63v-384q0 -26 9 -38.5t32 -12.5v-46q-3 -2 -11 -2.5t-17 -0.5z" />
    <glyph glyph-name="e.sc" horiz-adv-x="467" 
d="M81 497h341v-57h-278v-159h241v-58h-241v-166h278v-57h-341v497z" />
    <glyph glyph-name="e.ss01" horiz-adv-x="481" 
d="M109 241v-1q0 -97 42 -147.5t112 -50.5q45 0 77.5 18t54.5 49l39 -31q-25 -39 -69.5 -64.5t-104.5 -25.5q-99 0 -157 66t-58 184q0 59 14.5 106t41.5 80t66 51t88 18q88 0 135 -55.5t47 -158.5v-38h-328zM250 440q-63 0 -96.5 -42t-41.5 -108h263q0 32 -6.5 59
t-21.5 47.5t-39 32t-58 11.5z" />
    <glyph glyph-name="eacute.sc" horiz-adv-x="467" 
d="M298 735h78l-105 -162h-58zM81 497h341v-57h-278v-159h241v-58h-241v-166h278v-57h-341v497z" />
    <glyph glyph-name="eacute.ss01" horiz-adv-x="481" 
d="M260 558h-59l85 162h78zM109 241v-1q0 -97 42 -147.5t112 -50.5q45 0 77.5 18t54.5 49l39 -31q-25 -39 -69.5 -64.5t-104.5 -25.5q-99 0 -157 66t-58 184q0 59 14.5 106t41.5 80t66 51t88 18q88 0 135 -55.5t47 -158.5v-38h-328zM250 440q-63 0 -96.5 -42t-41.5 -108h263
q0 32 -6.5 59t-21.5 47.5t-39 32t-58 11.5z" />
    <glyph glyph-name="ebreve.sc" horiz-adv-x="467" 
d="M261 586q-60 0 -87 34t-27 91h50q0 -74 64 -74q63 -2 63 74h51q0 -57 -27.5 -91t-86.5 -34zM81 497h341v-57h-278v-159h241v-58h-241v-166h278v-57h-341v497z" />
    <glyph glyph-name="ebreve.ss01" horiz-adv-x="481" 
d="M250 571q-61 0 -88 34t-27 91h51q0 -74 63 -74q64 -2 64 74h51q0 -57 -27.5 -91t-86.5 -34zM109 241v-1q0 -97 42 -147.5t112 -50.5q45 0 77.5 18t54.5 49l39 -31q-25 -39 -69.5 -64.5t-104.5 -25.5q-99 0 -157 66t-58 184q0 59 14.5 106t41.5 80t66 51t88 18
q88 0 135 -55.5t47 -158.5v-38h-328zM250 440q-63 0 -96.5 -42t-41.5 -108h263q0 32 -6.5 59t-21.5 47.5t-39 32t-58 11.5z" />
    <glyph glyph-name="ecaron.sc" horiz-adv-x="467" 
d="M139 735h58l64 -114l64 114h57l-88 -162h-68zM81 497h341v-57h-278v-159h241v-58h-241v-166h278v-57h-341v497z" />
    <glyph glyph-name="ecaron.ss01" horiz-adv-x="481" 
d="M215 558l-88 162h58l65 -114l64 114h57l-89 -162h-67zM109 241v-1q0 -97 42 -147.5t112 -50.5q45 0 77.5 18t54.5 49l39 -31q-25 -39 -69.5 -64.5t-104.5 -25.5q-99 0 -157 66t-58 184q0 59 14.5 106t41.5 80t66 51t88 18q88 0 135 -55.5t47 -158.5v-38h-328zM250 440
q-63 0 -96.5 -42t-41.5 -108h263q0 32 -6.5 59t-21.5 47.5t-39 32t-58 11.5z" />
    <glyph glyph-name="ecircumflex.sc" horiz-adv-x="467" 
d="M227 735h67l88 -162h-58l-64 113l-65 -113h-57zM81 497h341v-57h-278v-159h241v-58h-241v-166h278v-57h-341v497z" />
    <glyph glyph-name="ecircumflex.ss01" horiz-adv-x="481" 
d="M184 558h-57l88 162h67l88 -162h-58l-64 113zM109 241v-1q0 -97 42 -147.5t112 -50.5q45 0 77.5 18t54.5 49l39 -31q-25 -39 -69.5 -64.5t-104.5 -25.5q-99 0 -157 66t-58 184q0 59 14.5 106t41.5 80t66 51t88 18q88 0 135 -55.5t47 -158.5v-38h-328zM250 440
q-63 0 -96.5 -42t-41.5 -108h263q0 32 -6.5 59t-21.5 47.5t-39 32t-58 11.5z" />
    <glyph glyph-name="edieresis.sc" horiz-adv-x="467" 
d="M176 605q-20 0 -33 13.5t-13 33.5q0 19 13 33t33 14q19 0 32.5 -14t13.5 -33q0 -20 -13.5 -33.5t-32.5 -13.5zM346 605q-19 0 -33 13.5t-14 33.5q0 19 14 33t33 14q20 0 33 -14t13 -33q0 -20 -13 -33.5t-33 -13.5zM81 497h341v-57h-278v-159h241v-58h-241v-166h278v-57
h-341v497z" />
    <glyph glyph-name="edieresis.ss01" horiz-adv-x="481" 
d="M164 590q-20 0 -32.5 13.5t-12.5 33.5q0 19 12.5 33t32.5 14t33.5 -14t13.5 -33q0 -20 -13.5 -33.5t-33.5 -13.5zM335 590q-20 0 -33.5 13.5t-13.5 33.5q0 19 13.5 33t33.5 14q19 0 32 -14t13 -33q0 -20 -13 -33.5t-32 -13.5zM109 241v-1q0 -97 42 -147.5t112 -50.5
q45 0 77.5 18t54.5 49l39 -31q-25 -39 -69.5 -64.5t-104.5 -25.5q-99 0 -157 66t-58 184q0 59 14.5 106t41.5 80t66 51t88 18q88 0 135 -55.5t47 -158.5v-38h-328zM250 440q-63 0 -96.5 -42t-41.5 -108h263q0 32 -6.5 59t-21.5 47.5t-39 32t-58 11.5z" />
    <glyph glyph-name="edotaccent.sc" horiz-adv-x="467" 
d="M261 605q-19 0 -33 13.5t-14 33.5t14 34t33 14q20 0 34 -14t14 -34t-14 -33.5t-34 -13.5zM81 497h341v-57h-278v-159h241v-58h-241v-166h278v-57h-341v497z" />
    <glyph glyph-name="edotaccent.ss01" horiz-adv-x="481" 
d="M250 590q-20 0 -34 13.5t-14 33.5t14 34t34 14q19 0 33 -14t14 -34t-14 -33.5t-33 -13.5zM109 241v-1q0 -97 42 -147.5t112 -50.5q45 0 77.5 18t54.5 49l39 -31q-25 -39 -69.5 -64.5t-104.5 -25.5q-99 0 -157 66t-58 184q0 59 14.5 106t41.5 80t66 51t88 18
q88 0 135 -55.5t47 -158.5v-38h-328zM250 440q-63 0 -96.5 -42t-41.5 -108h263q0 32 -6.5 59t-21.5 47.5t-39 32t-58 11.5z" />
    <glyph glyph-name="egrave.sc" horiz-adv-x="467" 
d="M133 735h78l84 -162h-58zM81 497h341v-57h-278v-159h241v-58h-241v-166h278v-57h-341v497z" />
    <glyph glyph-name="egrave.ss01" horiz-adv-x="481" 
d="M225 558l-104 162h78l84 -162h-58zM109 241v-1q0 -97 42 -147.5t112 -50.5q45 0 77.5 18t54.5 49l39 -31q-25 -39 -69.5 -64.5t-104.5 -25.5q-99 0 -157 66t-58 184q0 59 14.5 106t41.5 80t66 51t88 18q88 0 135 -55.5t47 -158.5v-38h-328zM250 440q-63 0 -96.5 -42
t-41.5 -108h263q0 32 -6.5 59t-21.5 47.5t-39 32t-58 11.5z" />
    <glyph glyph-name="eight.dnom" horiz-adv-x="371" 
d="M183 -8q-72 0 -107 27.5t-35 76.5q0 34 18 60t50 43q-24 13 -38.5 33.5t-14.5 52.5q0 45 35.5 74.5t95.5 29.5q57 0 93 -26t36 -78q0 -32 -17 -53.5t-37 -32.5q67 -26 67 -97q0 -51 -38.5 -80.5t-107.5 -29.5zM222 212q13 8 29.5 23.5t16.5 45.5q0 34 -22.5 51t-58.5 17
q-40 0 -61.5 -17.5t-21.5 -44.5q0 -20 13 -35.5t42 -23.5zM185 32q44 0 69.5 17t25.5 49q0 31 -17 46t-48 23l-68 17q-23 -11 -40 -31.5t-17 -50.5q0 -34 25 -52t70 -18z" />
    <glyph glyph-name="eight.numr" horiz-adv-x="371" 
d="M183 312q-72 0 -107 27.5t-35 76.5q0 34 18 59.5t50 42.5q-24 14 -38.5 34.5t-14.5 52.5q0 45 35.5 74.5t95.5 29.5q57 0 93 -26t36 -78q0 -32 -17 -53.5t-37 -32.5q67 -26 67 -97q0 -51 -38.5 -80.5t-107.5 -29.5zM222 532q13 7 29.5 23t16.5 46q0 34 -22.5 51t-58.5 17
q-40 0 -61.5 -17.5t-21.5 -44.5q0 -20 13 -36t42 -23zM185 352q44 0 69.5 17t25.5 49q0 31 -17 46t-48 23l-68 17q-23 -11 -40 -32t-17 -50q0 -35 25 -52.5t70 -17.5z" />
    <glyph glyph-name="eight.osf" horiz-adv-x="547" 
d="M384 353q62 -29 88 -71.5t26 -100.5q0 -41 -15.5 -75.5t-45 -59t-71 -38.5t-92.5 -14q-109 0 -167.5 47t-58.5 138q0 66 33 115.5t81 78.5q-45 24 -70.5 60.5t-25.5 90.5q0 40 15 73.5t42.5 57.5t66 37.5t84.5 13.5q97 0 153 -46.5t56 -132.5q0 -57 -28.5 -102t-70.5 -72
zM126 526q0 -48 29.5 -77.5t81.5 -45.5l95 -31q45 26 68 65.5t23 82.5q0 64 -40.5 98t-109.5 34q-66 0 -106.5 -33.5t-40.5 -92.5zM274 48q80 0 122 35.5t42 94.5q0 52 -27.5 84t-87.5 52l-103 34q-6 2 -11 4q-39 -27 -69 -67t-30 -96q0 -63 41.5 -102t122.5 -39z" />
    <glyph glyph-name="eight.sc" horiz-adv-x="477" 
d="M338 256q51 -18 72.5 -49.5t21.5 -73.5q0 -66 -52.5 -105.5t-143.5 -39.5q-92 0 -141.5 37t-49.5 105q0 45 26 77t64 52q-31 17 -48.5 44.5t-17.5 63.5q0 63 46 102.5t124 39.5t126 -36.5t48 -101.5q0 -37 -21.5 -67t-53.5 -48zM238 458q-48 0 -78.5 -23.5t-30.5 -66.5
q0 -30 20.5 -50t57.5 -29l79 -18q31 14 48.5 39.5t17.5 52.5q0 46 -31.5 70.5t-82.5 24.5zM236 38q66 0 100.5 25t34.5 67q0 34 -21 54.5t-67 31.5l-95 22q-2 1 -3 1t-3 1q-31 -16 -53.5 -41.5t-22.5 -60.5q0 -46 32 -73t98 -27z" />
    <glyph glyph-name="eight.sinf" horiz-adv-x="371" 
d="M183 -143q-72 0 -107 27.5t-35 76.5q0 34 18 59.5t50 42.5q-24 14 -38.5 34.5t-14.5 52.5q0 45 35.5 74.5t95.5 29.5q57 0 93 -26t36 -78q0 -32 -17 -53.5t-37 -32.5q67 -26 67 -97q0 -51 -38.5 -80.5t-107.5 -29.5zM222 77q13 7 29.5 23t16.5 46q0 34 -22.5 51t-58.5 17
q-40 0 -61.5 -17.5t-21.5 -44.5q0 -20 13 -36t42 -23zM185 -103q44 0 69.5 17t25.5 49q0 31 -17 46t-48 23l-68 17q-23 -11 -40 -32t-17 -50q0 -35 25 -52.5t70 -17.5z" />
    <glyph glyph-name="eight.sups" horiz-adv-x="371" 
d="M183 377q-72 0 -107 27.5t-35 76.5q0 34 18 59.5t50 42.5q-24 14 -38.5 34.5t-14.5 52.5q0 45 35.5 74.5t95.5 29.5q57 0 93 -26t36 -78q0 -32 -17 -53.5t-37 -32.5q67 -26 67 -97q0 -51 -38.5 -80.5t-107.5 -29.5zM222 597q13 7 29.5 23t16.5 46q0 34 -22.5 51t-58.5 17
q-40 0 -61.5 -17.5t-21.5 -44.5q0 -20 13 -36t42 -23zM185 417q44 0 69.5 17t25.5 49q0 31 -17 46t-48 23l-68 17q-23 -11 -40 -32t-17 -50q0 -35 25 -52.5t70 -17.5z" />
    <glyph glyph-name="emacron.sc" horiz-adv-x="467" 
d="M140 677h242v-52h-242v52zM81 497h341v-57h-278v-159h241v-58h-241v-166h278v-57h-341v497z" />
    <glyph glyph-name="emacron.ss01" horiz-adv-x="481" 
d="M371 610h-242v52h242v-52zM109 241v-1q0 -97 42 -147.5t112 -50.5q45 0 77.5 18t54.5 49l39 -31q-25 -39 -69.5 -64.5t-104.5 -25.5q-99 0 -157 66t-58 184q0 59 14.5 106t41.5 80t66 51t88 18q88 0 135 -55.5t47 -158.5v-38h-328zM250 440q-63 0 -96.5 -42t-41.5 -108
h263q0 32 -6.5 59t-21.5 47.5t-39 32t-58 11.5z" />
    <glyph glyph-name="eng.sc" horiz-adv-x="562" 
d="M481 497v-543q0 -81 -38 -124.5t-110 -43.5q-38 0 -64.5 11t-42.5 30l39 50q26 -30 69 -30q39 0 61.5 25.5t22.5 77.5v60l-266 367l-10 18v-395h-61v497h58l271 -375l10 -18v393h61z" />
    <glyph glyph-name="eng.ss01" horiz-adv-x="531" 
d="M295 493q80 0 123.5 -49t43.5 -139v-352q0 -81 -38 -124t-110 -43q-38 0 -64.5 11.5t-42.5 29.5l39 50q27 -30 71 -30q38 0 60 25.5t22 77.5v355q0 63 -30.5 98.5t-88.5 35.5q-31 0 -56 -12t-43 -32.5t-27.5 -48.5t-9.5 -61v-285h-63v386q0 30 -9.5 41t-32.5 11v46
q9 3 29 3q69 0 69 -80v-23q19 52 60 80.5t98 28.5z" />
    <glyph glyph-name="eogonek.sc" horiz-adv-x="467" 
d="M445 -151q-11 -11 -28.5 -17.5t-37.5 -6.5q-42 0 -64.5 20.5t-22.5 57.5q0 28 14 53t40 44h-265v497h341v-57h-278v-159h241v-58h-241v-166h278v-57q-32 -9 -53 -32t-21 -54q0 -23 11 -33t30 -10q11 0 19.5 3.5t14.5 8.5z" />
    <glyph glyph-name="eogonek.ss01" horiz-adv-x="481" 
d="M109 241v-1q0 -97 42 -147.5t112 -50.5q45 0 77.5 18t54.5 49l39 -31q-18 -29 -47 -50.5t-67 -31.5q-23 -12 -36 -32t-13 -44q0 -23 11 -33t30 -10q20 0 34 12l21 -34q-10 -11 -27.5 -17.5t-37.5 -6.5q-42 0 -64.5 20t-22.5 58q0 45 34 79q-94 4 -149 69.5t-55 180.5
q0 59 14.5 106t41.5 80t66 51t88 18q88 0 135 -55.5t47 -158.5v-38h-328zM250 440q-63 0 -96.5 -42t-41.5 -108h263q0 32 -6.5 59t-21.5 47.5t-39 32t-58 11.5z" />
    <glyph glyph-name="eth.sc" horiz-adv-x="587" 
d="M268 497q57 0 107 -14t86.5 -44.5t58 -77.5t21.5 -113t-22 -113t-58.5 -77t-84.5 -44t-101 -14h-164v222h-93v55h93v220h157zM270 55q45 0 82 11.5t64 34.5t41.5 59.5t14.5 85.5q0 99 -57.5 147.5t-149.5 48.5h-90v-165h103v-55h-103v-167h95z" />
    <glyph glyph-name="exclam.sc" horiz-adv-x="219" 
d="M77 497h67l-9 -358h-51zM109 -10q-17 0 -28.5 11.5t-11.5 28.5q0 15 11.5 27t28.5 12t28.5 -12t11.5 -27q0 -17 -11.5 -28.5t-28.5 -11.5z" />
    <glyph glyph-name="exclamdown.sc" horiz-adv-x="219" 
d="M111 504q16 0 28 -11.5t12 -27.5t-12 -27.5t-28 -11.5q-17 0 -28.5 11.5t-11.5 27.5t11.5 27.5t28.5 11.5zM142 -3h-67l9 358h51z" />
    <glyph glyph-name="f.sc" horiz-adv-x="445" 
d="M81 497h335v-60h-272v-168h234v-60h-234v-209h-63v497z" />
    <glyph glyph-name="fi.sc" horiz-adv-x="653" 
d="M81 497h335v-60h-272v-168h234v-60h-234v-209h-63v497zM509 497h64v-497h-64v497z" />
    <glyph glyph-name="five.dnom" horiz-adv-x="346" 
d="M167 -8q-40 0 -72 13.5t-53 45.5l37 34q19 -28 40.5 -38.5t51.5 -10.5q42 0 64.5 24t22.5 62t-21 59t-60 21q-26 0 -46.5 -8t-33.5 -21h-44v209h235v-45h-192v-122q13 13 36 21.5t53 8.5q57 0 89.5 -30.5t32.5 -90.5t-37.5 -96t-102.5 -36z" />
    <glyph glyph-name="five.numr" horiz-adv-x="346" 
d="M168 313q-41 0 -72.5 13.5t-53.5 45.5l38 34q19 -28 40.5 -38.5t50.5 -10.5q43 0 65 24t22 62q0 37 -20.5 58.5t-60.5 21.5q-26 0 -46.5 -8t-33.5 -21h-44v209h236v-45h-192v-122q12 13 35 21.5t53 8.5q57 0 90 -30.5t33 -90.5t-37.5 -96t-102.5 -36z" />
    <glyph glyph-name="five.osf" horiz-adv-x="516" 
d="M250 -200q-78 0 -130 30.5t-78 85.5l52 30q20 -43 62 -67.5t96 -24.5q79 0 122 43.5t43 126.5q0 86 -42 126.5t-112 40.5q-47 0 -83.5 -16t-58.5 -40h-60v361h390v-56h-331v-249q28 27 68 41t85 14q97 0 152 -54.5t55 -162.5q0 -107 -60 -168t-170 -61z" />
    <glyph glyph-name="five.sc" horiz-adv-x="465" 
d="M226 -7q-68 0 -114 25t-69 67l52 31q17 -34 53 -51.5t79 -17.5q64 0 99.5 29t35.5 85q0 51 -33 78t-90 27q-38 0 -68.5 -10.5t-48.5 -28.5h-57v270h334v-55h-279v-161q24 20 59 29.5t74 9.5q80 0 125.5 -40.5t45.5 -115.5q0 -81 -52 -126t-146 -45z" />
    <glyph glyph-name="five.sinf" horiz-adv-x="346" 
d="M167 -142q-40 0 -72 13t-53 46l37 34q19 -28 40.5 -38.5t51.5 -10.5q42 0 64.5 24t22.5 62q0 37 -21 58.5t-60 21.5q-26 0 -46.5 -8t-33.5 -21h-44v209h235v-45h-192v-122q13 13 36 21.5t53 8.5q57 0 89.5 -30.5t32.5 -90.5t-37.5 -96t-102.5 -36z" />
    <glyph glyph-name="five.sups" horiz-adv-x="346" 
d="M167 378q-40 0 -72 13.5t-53 45.5l37 34q19 -28 40.5 -38.5t51.5 -10.5q42 0 64.5 24t22.5 62q0 37 -21 58.5t-60 21.5q-26 0 -46.5 -8t-33.5 -21h-44v209h235v-45h-192v-122q13 13 36 21.5t53 8.5q57 0 89.5 -30.5t32.5 -90.5t-37.5 -96t-102.5 -36z" />
    <glyph glyph-name="fiveeighths.alt" horiz-adv-x="621" 
d="M146 329q-21 0 -37 4.5t-27.5 11t-18 13t-9.5 10.5l27 31q5 -7 21.5 -17.5t43.5 -10.5q29 0 44 14.5t15 36.5q0 21 -14 34.5t-40 13.5q-22 0 -34.5 -8t-17.5 -13h-40v156h176v-39h-133v-75q4 5 18 11t37 6q45 0 70 -23.5t25 -65.5q0 -38 -27 -64t-79 -26zM475 600h56
l-372 -501h-57zM467 74q-109 0 -109 75q0 22 13 41t38 29q-38 18 -38 61q0 32 25.5 52t69.5 20q46 0 71 -20t25 -52q0 -20 -10 -36t-26 -25q25 -8 36.5 -26t11.5 -42q0 -35 -29 -56t-78 -21zM492 233q11 5 17.5 16.5t6.5 25.5q0 20 -14 30t-37 10q-22 0 -34.5 -9.5
t-12.5 -26.5q0 -12 7 -21t25 -14zM467 109q29 0 45 11t16 31q0 32 -40 41l-45 12q-17 -6 -28 -20t-11 -30q0 -45 63 -45z" />
    <glyph glyph-name="fl.sc" horiz-adv-x="851" 
d="M81 497h335v-60h-272v-168h234v-60h-234v-209h-63v497zM509 497h64v-440h256v-57h-320v497z" />
    <glyph glyph-name="four.dnom" horiz-adv-x="351" 
d="M220 88h-191v39l131 255h56l-129 -250h134v93h50v-93h52v-44h-52v-88h-51v88z" />
    <glyph glyph-name="four.numr" horiz-adv-x="351" 
d="M219 406h-190v39l130 255h56l-128 -250h134v93h50v-93h52v-44h-52v-88h-52v88z" />
    <glyph glyph-name="four.osf" horiz-adv-x="558" 
d="M536 53v-53h-100v-167h-61v167h-353v53l338 444h76v-444h100zM374 53v379l-286 -379h286z" />
    <glyph glyph-name="four.sc" horiz-adv-x="462" 
d="M295 113h-268v50l200 334h64l-199 -334h204v119h59v-119h80v-50h-80v-113h-60v113z" />
    <glyph glyph-name="four.sinf" horiz-adv-x="351" 
d="M220 -49h-191v39l131 255h56l-129 -250h134v93h50v-93h52v-44h-52v-88h-51v88z" />
    <glyph glyph-name="four.sups" horiz-adv-x="351" 
d="M220 471h-191v39l131 255h56l-129 -250h134v93h50v-93h52v-44h-52v-88h-51v88z" />
    <glyph glyph-name="g.sc" horiz-adv-x="539" 
d="M288 -12q-114 0 -177.5 67t-63.5 192q0 60 17 108.5t48.5 82.5t76.5 52.5t101 18.5q89 0 137.5 -37t50.5 -102q0 -21 -4 -34h-58q1 5 1 11v14q-2 44 -35 69t-90 25q-82 0 -129.5 -53.5t-47.5 -154.5q0 -99 46 -153t130 -54q51 0 85.5 10.5t51.5 24.5v117h-135v54h194
v-194q-24 -23 -73.5 -43.5t-125.5 -20.5z" />
    <glyph glyph-name="g.ss01" horiz-adv-x="497" 
d="M246 -240q-116 0 -167 35t-51 97q0 31 11 53t26 36t29.5 22t21.5 10q-7 3 -19 8t-23 14t-19 23.5t-8 35.5q0 33 19.5 54.5t48.5 29.5q-4 3 -14 13t-19.5 27t-17 40.5t-7.5 53.5q0 41 15 74.5t41 56.5t61 35.5t75 12.5q35 0 57.5 -8t31.5 -12q43 0 68.5 18t25.5 67l58 -12
q0 -30 -9.5 -49.5t-24.5 -31t-33.5 -16t-35.5 -5.5q6 -5 15.5 -15.5t18.5 -26.5t15 -38t6 -50q0 -42 -15.5 -74.5t-42 -55.5t-61.5 -35t-74 -12q-35 0 -58.5 7t-28.5 8q-23 0 -39.5 -12t-16.5 -37q0 -31 27.5 -40.5t69.5 -9.5h116q73 0 119 -33t46 -102q0 -70 -57 -113
t-181 -43zM249 186q58 0 95.5 34.5t37.5 91.5t-37.5 91.5t-95.5 34.5t-94.5 -34t-36.5 -92q0 -57 36.5 -91.5t94.5 -34.5zM250 -191q89 0 131 26t42 75q0 44 -30 65t-82 21h-104q-56 0 -86.5 -25t-30.5 -71q0 -45 37.5 -68t122.5 -23z" />
    <glyph glyph-name="gbreve.sc" horiz-adv-x="539" 
d="M280 586q-60 0 -87 34t-27 91h51q0 -74 63 -74q64 -2 64 74h50q0 -57 -27.5 -91t-86.5 -34zM288 -12q-114 0 -177.5 67t-63.5 192q0 60 17 108.5t48.5 82.5t76.5 52.5t101 18.5q89 0 137.5 -37t50.5 -102q0 -21 -4 -34h-58q1 5 1 11v14q-2 44 -35 69t-90 25
q-82 0 -129.5 -53.5t-47.5 -154.5q0 -99 46 -153t130 -54q51 0 85.5 10.5t51.5 24.5v117h-135v54h194v-194q-24 -23 -73.5 -43.5t-125.5 -20.5z" />
    <glyph glyph-name="gbreve.ss01" horiz-adv-x="497" 
d="M245 571q-60 0 -87 34t-27 91h51q0 -74 63 -74q64 -2 64 74h50q0 -57 -27.5 -91t-86.5 -34zM246 -240q-116 0 -167 35t-51 97q0 31 11 53t26 36t29.5 22t21.5 10q-7 3 -19 8t-23 14t-19 23.5t-8 35.5q0 33 19.5 54.5t48.5 29.5q-4 3 -14 13t-19.5 27t-17 40.5t-7.5 53.5
q0 41 15 74.5t41 56.5t61 35.5t75 12.5q35 0 57.5 -8t31.5 -12q43 0 68.5 18t25.5 67l58 -12q0 -30 -9.5 -49.5t-24.5 -31t-33.5 -16t-35.5 -5.5q6 -5 15.5 -15.5t18.5 -26.5t15 -38t6 -50q0 -42 -15.5 -74.5t-42 -55.5t-61.5 -35t-74 -12q-35 0 -58.5 7t-28.5 8
q-23 0 -39.5 -12t-16.5 -37q0 -31 27.5 -40.5t69.5 -9.5h116q73 0 119 -33t46 -102q0 -70 -57 -113t-181 -43zM249 186q58 0 95.5 34.5t37.5 91.5t-37.5 91.5t-95.5 34.5t-94.5 -34t-36.5 -92q0 -57 36.5 -91.5t94.5 -34.5zM250 -191q89 0 131 26t42 75q0 44 -30 65t-82 21
h-104q-56 0 -86.5 -25t-30.5 -71q0 -45 37.5 -68t122.5 -23z" />
    <glyph glyph-name="gcaron.sc" horiz-adv-x="539" 
d="M158 735h58l64 -114l65 114h57l-89 -162h-67zM288 -12q-114 0 -177.5 67t-63.5 192q0 60 17 108.5t48.5 82.5t76.5 52.5t101 18.5q89 0 137.5 -37t50.5 -102q0 -21 -4 -34h-58q1 5 1 11v14q-2 44 -35 69t-90 25q-82 0 -129.5 -53.5t-47.5 -154.5q0 -99 46 -153t130 -54
q51 0 85.5 10.5t51.5 24.5v117h-135v54h194v-194q-24 -23 -73.5 -43.5t-125.5 -20.5z" />
    <glyph glyph-name="gcaron.ss01" horiz-adv-x="497" 
d="M123 720h58l64 -114l65 114h57l-89 -162h-67zM246 -240q-116 0 -167 35t-51 97q0 31 11 53t26 36t29.5 22t21.5 10q-7 3 -19 8t-23 14t-19 23.5t-8 35.5q0 33 19.5 54.5t48.5 29.5q-4 3 -14 13t-19.5 27t-17 40.5t-7.5 53.5q0 41 15 74.5t41 56.5t61 35.5t75 12.5
q35 0 57.5 -8t31.5 -12q43 0 68.5 18t25.5 67l58 -12q0 -30 -9.5 -49.5t-24.5 -31t-33.5 -16t-35.5 -5.5q6 -5 15.5 -15.5t18.5 -26.5t15 -38t6 -50q0 -42 -15.5 -74.5t-42 -55.5t-61.5 -35t-74 -12q-35 0 -58.5 7t-28.5 8q-23 0 -39.5 -12t-16.5 -37q0 -31 27.5 -40.5
t69.5 -9.5h116q73 0 119 -33t46 -102q0 -70 -57 -113t-181 -43zM249 186q58 0 95.5 34.5t37.5 91.5t-37.5 91.5t-95.5 34.5t-94.5 -34t-36.5 -92q0 -57 36.5 -91.5t94.5 -34.5zM250 -191q89 0 131 26t42 75q0 44 -30 65t-82 21h-104q-56 0 -86.5 -25t-30.5 -71
q0 -45 37.5 -68t122.5 -23z" />
    <glyph glyph-name="gcircumflex.sc" horiz-adv-x="539" 
d="M246 735h67l88 -162h-58l-64 113l-64 -113h-57zM288 -12q-114 0 -177.5 67t-63.5 192q0 60 17 108.5t48.5 82.5t76.5 52.5t101 18.5q89 0 137.5 -37t50.5 -102q0 -21 -4 -34h-58q1 5 1 11v14q-2 44 -35 69t-90 25q-82 0 -129.5 -53.5t-47.5 -154.5q0 -99 46 -153t130 -54
q51 0 85.5 10.5t51.5 24.5v117h-135v54h194v-194q-24 -23 -73.5 -43.5t-125.5 -20.5z" />
    <glyph glyph-name="gcircumflex.ss01" horiz-adv-x="497" 
d="M211 720h67l88 -162h-58l-64 113l-64 -113h-57zM246 -240q-116 0 -167 35t-51 97q0 31 11 53t26 36t29.5 22t21.5 10q-7 3 -19 8t-23 14t-19 23.5t-8 35.5q0 33 19.5 54.5t48.5 29.5q-4 3 -14 13t-19.5 27t-17 40.5t-7.5 53.5q0 41 15 74.5t41 56.5t61 35.5t75 12.5
q35 0 57.5 -8t31.5 -12q43 0 68.5 18t25.5 67l58 -12q0 -30 -9.5 -49.5t-24.5 -31t-33.5 -16t-35.5 -5.5q6 -5 15.5 -15.5t18.5 -26.5t15 -38t6 -50q0 -42 -15.5 -74.5t-42 -55.5t-61.5 -35t-74 -12q-35 0 -58.5 7t-28.5 8q-23 0 -39.5 -12t-16.5 -37q0 -31 27.5 -40.5
t69.5 -9.5h116q73 0 119 -33t46 -102q0 -70 -57 -113t-181 -43zM249 186q58 0 95.5 34.5t37.5 91.5t-37.5 91.5t-95.5 34.5t-94.5 -34t-36.5 -92q0 -57 36.5 -91.5t94.5 -34.5zM250 -191q89 0 131 26t42 75q0 44 -30 65t-82 21h-104q-56 0 -86.5 -25t-30.5 -71
q0 -45 37.5 -68t122.5 -23z" />
    <glyph glyph-name="gdotaccent.sc" horiz-adv-x="539" 
d="M280 605q-19 0 -33 13.5t-14 33.5t14 34t33 14q20 0 34 -14t14 -34t-14 -33.5t-34 -13.5zM288 -12q-114 0 -177.5 67t-63.5 192q0 60 17 108.5t48.5 82.5t76.5 52.5t101 18.5q89 0 137.5 -37t50.5 -102q0 -21 -4 -34h-58q1 5 1 11v14q-2 44 -35 69t-90 25
q-82 0 -129.5 -53.5t-47.5 -154.5q0 -99 46 -153t130 -54q51 0 85.5 10.5t51.5 24.5v117h-135v54h194v-194q-24 -23 -73.5 -43.5t-125.5 -20.5z" />
    <glyph glyph-name="gdotaccent.ss01" horiz-adv-x="497" 
d="M245 590q-19 0 -33 13.5t-14 33.5t14 34t33 14q20 0 34 -14t14 -34t-14 -33.5t-34 -13.5zM246 -240q-116 0 -167 35t-51 97q0 31 11 53t26 36t29.5 22t21.5 10q-7 3 -19 8t-23 14t-19 23.5t-8 35.5q0 33 19.5 54.5t48.5 29.5q-4 3 -14 13t-19.5 27t-17 40.5t-7.5 53.5
q0 41 15 74.5t41 56.5t61 35.5t75 12.5q35 0 57.5 -8t31.5 -12q43 0 68.5 18t25.5 67l58 -12q0 -30 -9.5 -49.5t-24.5 -31t-33.5 -16t-35.5 -5.5q6 -5 15.5 -15.5t18.5 -26.5t15 -38t6 -50q0 -42 -15.5 -74.5t-42 -55.5t-61.5 -35t-74 -12q-35 0 -58.5 7t-28.5 8
q-23 0 -39.5 -12t-16.5 -37q0 -31 27.5 -40.5t69.5 -9.5h116q73 0 119 -33t46 -102q0 -70 -57 -113t-181 -43zM249 186q58 0 95.5 34.5t37.5 91.5t-37.5 91.5t-95.5 34.5t-94.5 -34t-36.5 -92q0 -57 36.5 -91.5t94.5 -34.5zM250 -191q89 0 131 26t42 75q0 44 -30 65t-82 21
h-104q-56 0 -86.5 -25t-30.5 -71q0 -45 37.5 -68t122.5 -23z" />
    <glyph glyph-name="germandbls.sc" horiz-adv-x="535" 
d="M322 277q50 -6 83.5 -18.5t53.5 -31.5t28.5 -43t8.5 -52q0 -66 -47.5 -103t-126.5 -37q-102 0 -147 46l37 45q21 -19 46.5 -28t62.5 -9q50 0 79.5 23t29.5 62q0 35 -24 58.5t-85 34.5q-15 2 -31.5 4t-35.5 3l-1 50l141 136q-21 14 -51.5 21.5t-70.5 7.5
q-57 0 -95.5 -29.5t-38.5 -85.5v-331h-64l1 334q0 41 15 72.5t41 53.5t62 33t79 11q60 0 106.5 -16t77.5 -44v-43z" />
    <glyph glyph-name="grave.case" horiz-adv-x="256" 
d="M50 636h79l83 -123h-57z" />
    <glyph glyph-name="gravecomb.case" 
d="M-206 865h86l83 -123h-65z" />
    <glyph glyph-name="h.sc" horiz-adv-x="567" 
d="M81 497h63v-217h278v217h64v-497h-64v220h-278v-220h-63v497z" />
    <glyph glyph-name="h.ss01" horiz-adv-x="523" 
d="M73 726h63v-334q15 40 53 70t98 30q45 0 77 -14.5t52.5 -40t29.5 -60t9 -73.5v-304h-63v307q0 55 -29 93t-91 38q-35 0 -60.5 -14.5t-42.5 -36.5t-25 -48.5t-8 -51.5v-287h-63v726z" />
    <glyph glyph-name="hbar.sc" horiz-adv-x="598" 
d="M578 363h-76v-363h-63v220h-278v-220h-64v363h-74v50h74v84h64v-84h278v84h63v-84h76v-50zM439 363h-278v-83h278v83z" />
    <glyph glyph-name="hbar.ss01" horiz-adv-x="523" 
d="M287 492q45 0 77 -14.5t52.5 -40t29.5 -60t9 -73.5v-304h-63v307q0 55 -29 93t-91 38q-35 0 -60.5 -14.5t-42.5 -36.5t-25 -48.5t-8 -51.5v-287h-63v583h-80v56h80v87h63v-87h117v-56h-117v-191q15 40 53 70t98 30z" />
    <glyph glyph-name="hcircumflex.sc" horiz-adv-x="567" 
d="M248 662h72l87 -123h-59l-66 77l-64 -77h-58zM81 497h63v-217h278v217h64v-497h-64v220h-278v-220h-63v497z" />
    <glyph glyph-name="hcircumflex.ss01" horiz-adv-x="523" 
d="M69 865h72l87 -123h-59l-65 77l-65 -77h-58zM73 726h63v-334q15 40 53 70t98 30q45 0 77 -14.5t52.5 -40t29.5 -60t9 -73.5v-304h-63v307q0 55 -29 93t-91 38q-35 0 -60.5 -14.5t-42.5 -36.5t-25 -48.5t-8 -51.5v-287h-63v726z" />
    <glyph glyph-name="hungarumlaut.case" horiz-adv-x="379" 
d="M122 646h79l-104 -133h-60zM274 646h79l-104 -133h-59z" />
    <glyph glyph-name="i.loclTRK" horiz-adv-x="215" 
d="M108 590q-19 0 -33 13.5t-14 33.5t14 34t33 14q20 0 34 -14t14 -34t-14 -33.5t-34 -13.5zM76 482h63v-482h-63v482z" />
    <glyph glyph-name="i.loclTRK.ss01" horiz-adv-x="220" 
d="M112 590q-19 0 -33 13.5t-14 33.5t14 34t33 14q20 0 34 -14t14 -34t-14 -33.5t-34 -13.5zM152 -2q-38 0 -57 23t-19 67v394h63v-384q0 -26 9 -38.5t32 -12.5v-46q-3 -2 -11 -2.5t-17 -0.5z" />
    <glyph glyph-name="i.sc" horiz-adv-x="225" 
d="M81 497h63v-497h-63v497z" />
    <glyph glyph-name="i.sc.loclTRK" horiz-adv-x="225" 
d="M113 605q-20 0 -34 13.5t-14 33.5t14 34t34 14q19 0 33 -14t14 -34t-14 -33.5t-33 -13.5zM81 497h63v-497h-63v497z" />
    <glyph glyph-name="i.ss01" horiz-adv-x="220" 
d="M112 590q-19 0 -33 13.5t-14 33.5t14 34t33 14q20 0 34 -14t14 -34t-14 -33.5t-34 -13.5zM152 -2q-38 0 -57 23t-19 67v394h63v-384q0 -26 9 -38.5t32 -12.5v-46q-3 -2 -11 -2.5t-17 -0.5z" />
    <glyph glyph-name="iacute.sc" horiz-adv-x="225" 
d="M149 735h78l-104 -162h-58zM81 497h63v-497h-63v497z" />
    <glyph glyph-name="iacute.ss01" horiz-adv-x="220" 
d="M149 720h78l-105 -162h-58zM152 -2q-38 0 -57 23t-19 67v394h63v-384q0 -26 9 -38.5t32 -12.5v-46q-3 -2 -11 -2.5t-17 -0.5z" />
    <glyph glyph-name="ibreve.sc" horiz-adv-x="225" 
d="M113 586q-61 0 -88 34t-27 91h51q0 -74 63 -74q64 -2 64 74h51q0 -57 -27.5 -91t-86.5 -34zM81 497h63v-497h-63v497z" />
    <glyph glyph-name="ibreve.ss01" horiz-adv-x="220" 
d="M112 571q-60 0 -87.5 34t-27.5 91h51q0 -38 16.5 -56t46.5 -18q64 -2 64 74h51q0 -57 -27.5 -91t-86.5 -34zM152 -2q-38 0 -57 23t-19 67v394h63v-384q0 -26 9 -38.5t32 -12.5v-46q-3 -2 -11 -2.5t-17 -0.5z" />
    <glyph glyph-name="icircumflex.sc" horiz-adv-x="225" 
d="M78 735h68l87 -162h-57l-65 113l-64 -113h-57zM81 497h63v-497h-63v497z" />
    <glyph glyph-name="icircumflex.ss01" horiz-adv-x="220" 
d="M78 720h67l88 -162h-58l-65 113l-64 -113h-57zM152 -2q-38 0 -57 23t-19 67v394h63v-384q0 -26 9 -38.5t32 -12.5v-46q-3 -2 -11 -2.5t-17 -0.5z" />
    <glyph glyph-name="idieresis.sc" horiz-adv-x="225" 
d="M27 605q-19 0 -32 13.5t-13 33.5q0 19 13 33t32 14q20 0 33.5 -14t13.5 -33q0 -20 -13.5 -33.5t-33.5 -13.5zM198 605q-20 0 -33.5 13.5t-13.5 33.5q0 19 13.5 33t33.5 14t32.5 -14t12.5 -33q0 -20 -12.5 -33.5t-32.5 -13.5zM81 497h63v-497h-63v497z" />
    <glyph glyph-name="idieresis.ss01" horiz-adv-x="220" 
d="M27 590q-20 0 -33 13.5t-13 33.5q0 19 13 33t33 14q19 0 32.5 -14t13.5 -33q0 -20 -13.5 -33.5t-32.5 -13.5zM197 590q-19 0 -33 13.5t-14 33.5q0 19 14 33t33 14q20 0 33 -14t13 -33q0 -20 -13 -33.5t-33 -13.5zM152 -2q-38 0 -57 23t-19 67v394h63v-384q0 -26 9 -38.5
t32 -12.5v-46q-3 -2 -11 -2.5t-17 -0.5z" />
    <glyph glyph-name="igrave.sc" horiz-adv-x="225" 
d="M-16 735h78l84 -162h-58zM81 497h63v-497h-63v497z" />
    <glyph glyph-name="igrave.ss01" horiz-adv-x="220" 
d="M-17 720h79l84 -162h-58zM152 -2q-38 0 -57 23t-19 67v394h63v-384q0 -26 9 -38.5t32 -12.5v-46q-3 -2 -11 -2.5t-17 -0.5z" />
    <glyph glyph-name="ij.sc" horiz-adv-x="581" 
d="M81 497h63v-497h-63v497zM347 -12q-48 0 -81.5 17t-53.5 42l42 45q16 -19 39 -32.5t54 -13.5q47 0 71.5 26t24.5 74v351h64v-348q0 -78 -41.5 -119.5t-118.5 -41.5z" />
    <glyph glyph-name="ij.ss01" horiz-adv-x="439" 
d="M112 590q-19 0 -33 13.5t-14 33.5t14 34t33 14q20 0 34 -14t14 -34t-14 -33.5t-34 -13.5zM332 590q-20 0 -34 13.5t-14 33.5t14 34t34 14q19 0 33 -14t14 -34t-14 -33.5t-33 -13.5zM152 -2q-38 0 -57 23t-19 67v394h63v-384q0 -26 9 -38.5t32 -12.5v-46q-3 -2 -11 -2.5
t-17 -0.5zM214 -247q-22 0 -38.5 4t-27.5 9q-12 6 -21 13l20 45q7 -5 16 -9q8 -3 19 -5.5t26 -2.5q46 0 69.5 28.5t23.5 90.5v556h62v-558q0 -82 -35.5 -126.5t-113.5 -44.5z" />
    <glyph glyph-name="ijacute" horiz-adv-x="439" 
d="M146 720h78l-105 -162h-58zM364 720h78l-104 -162h-58zM152 -2q-38 0 -57 23t-19 67v394h63v-384q0 -26 9 -38.5t32 -12.5v-46q-3 -2 -11 -2.5t-17 -0.5zM214 -247q-22 0 -38.5 4t-27.5 9q-12 6 -21 13l20 45q7 -5 16 -9q8 -3 19 -5.5t26 -2.5q46 0 69.5 28.5t23.5 90.5
v556h62v-558q0 -82 -35.5 -126.5t-113.5 -44.5z" />
    <glyph glyph-name="imacron.sc" horiz-adv-x="225" 
d="M-8 677h242v-52h-242v52zM81 497h63v-497h-63v497z" />
    <glyph glyph-name="imacron.ss01" horiz-adv-x="220" 
d="M-9 662h242v-52h-242v52zM152 -2q-38 0 -57 23t-19 67v394h63v-384q0 -26 9 -38.5t32 -12.5v-46q-3 -2 -11 -2.5t-17 -0.5z" />
    <glyph glyph-name="iogonek.sc" horiz-adv-x="225" 
d="M167 -151q-10 -11 -27.5 -17.5t-38.5 -6.5q-42 0 -64.5 20.5t-22.5 57.5q0 32 18 59t49 47v488h64v-497q-32 -9 -53 -32t-21 -54q0 -23 11 -33t30 -10q11 0 19.5 3.5t13.5 8.5z" />
    <glyph glyph-name="iogonek.ss01" horiz-adv-x="220" 
d="M112 590q-19 0 -33 13.5t-14 33.5t14 34t33 14q20 0 34 -14t14 -34t-14 -33.5t-34 -13.5zM203 -150q-10 -11 -27.5 -17.5t-38.5 -6.5q-42 0 -64.5 20t-22.5 58q0 30 16.5 57t45.5 46q-36 20 -36 81v394h63v-384q0 -26 9 -38.5t32 -12.5v-46q-1 -1 -4 -1q-31 -10 -50 -33
t-19 -52q0 -23 11 -33t30 -10q21 0 33 12z" />
    <glyph glyph-name="itilde.sc" horiz-adv-x="225" 
d="M-17 598q-4 9 -6.5 18.5t-2.5 22.5q0 27 18 45.5t56 18.5q19 0 35.5 -7.5t31.5 -16t29 -16t29 -7.5q27 0 27 27q0 8 -2 14t-4 10h50q9 -16 9 -42t-17.5 -45t-54.5 -19q-22 0 -40 7.5t-32.5 16t-27.5 16t-25 7.5q-29 0 -29 -27q0 -7 2 -12.5t4 -10.5h-50zM81 497h63v-497
h-63v497z" />
    <glyph glyph-name="itilde.ss01" horiz-adv-x="220" 
d="M-17 583q-5 9 -7.5 18.5t-2.5 22.5q0 27 18 45.5t56 18.5q19 0 35.5 -7.5t31.5 -16t29 -16t29 -7.5q27 0 27 27q0 8 -2 14t-4 10h50q5 -8 7.5 -18t2.5 -24q0 -26 -17.5 -45t-55.5 -19q-22 0 -40 7.5t-32.5 16t-27.5 16t-25 7.5q-29 0 -29 -27q0 -12 7 -23h-50zM152 -2
q-38 0 -57 23t-19 67v394h63v-384q0 -26 9 -38.5t32 -12.5v-46q-3 -2 -11 -2.5t-17 -0.5z" />
    <glyph glyph-name="j.sc" horiz-adv-x="391" 
d="M157 -12q-48 0 -82 17t-54 42l42 45q16 -19 39.5 -32.5t54.5 -13.5q47 0 71 26t24 74v351h64v-348q0 -78 -41.5 -119.5t-117.5 -41.5z" />
    <glyph glyph-name="jcircumflex.sc" horiz-adv-x="391" 
d="M246 735h67l88 -162h-58l-65 113l-64 -113h-57zM157 -12q-48 0 -82 17t-54 42l42 45q16 -19 39.5 -32.5t54.5 -13.5q47 0 71 26t24 74v351h64v-348q0 -78 -41.5 -119.5t-117.5 -41.5z" />
    <glyph glyph-name="k.sc" horiz-adv-x="525" 
d="M505 53v-55q-3 -1 -12.5 -2t-23.5 -1q-36 0 -59 16.5t-39 41.5t-29.5 54t-31 54t-43 41.5t-66.5 16.5h-57v-219h-63v497h63v-224h69q33 0 65.5 12t58.5 39t42.5 69.5t16.5 103.5h63q0 -94 -39 -159t-105 -95q34 -19 53.5 -51t35.5 -63t33.5 -53.5t47.5 -22.5h20z" />
    <glyph glyph-name="k.ss01" horiz-adv-x="476" 
d="M462 49v-47l-8 -2t-9 -1.5t-11 -0.5q-21 0 -35.5 4.5t-26 12.5t-21.5 21t-22 29l-125 177l-68 -68v-174h-63v726h63v-478l230 234h78l-199 -199l139 -192q19 -25 32 -33.5t36 -8.5h10z" />
    <glyph glyph-name="kgreenlandic.sc" horiz-adv-x="525" 
d="M505 53v-55q-3 -1 -12.5 -2t-23.5 -1q-36 0 -59 16.5t-39 41.5t-29.5 54t-31 54t-43 41.5t-66.5 16.5h-57v-219h-63v497h63v-224h69q33 0 65.5 12t58.5 39t42.5 69.5t16.5 103.5h63q0 -94 -39 -159t-105 -95q34 -19 53.5 -51t35.5 -63t33.5 -53.5t47.5 -22.5h20z" />
    <glyph glyph-name="kgreenlandic.ss01" horiz-adv-x="476" 
d="M462 49v-47l-8 -2t-9 -1.5t-11 -0.5q-21 0 -35.5 4.5t-26 12.5t-21.5 21t-22 29l-125 177l-68 -68v-174h-63v482h63v-234l230 234h78l-199 -199l139 -192q19 -25 32 -33.5t36 -8.5h10z" />
    <glyph glyph-name="l.sc" horiz-adv-x="422" 
d="M81 497h63v-440h256v-57h-319v497z" />
    <glyph glyph-name="lacute.sc" horiz-adv-x="422" 
d="M159 735h78l-104 -162h-59zM81 497h63v-440h256v-57h-319v497z" />
    <glyph glyph-name="lcaron.sc" horiz-adv-x="428" 
d="M274 406q20 8 32 21.5t13 29.5q-20 0 -33 14t-13 34t14 33.5t34 13.5q23 0 37.5 -15t14.5 -41q0 -44 -23 -77.5t-56 -44.5zM81 497h63v-440h256v-57h-319v497z" />
    <glyph glyph-name="ldot.sc" horiz-adv-x="433" 
d="M81 497h63v-440h256v-57h-319v497zM320 234q-20 0 -33.5 13.5t-13.5 33.5q0 19 13.5 33t33.5 14t33.5 -14t13.5 -33q0 -20 -13.5 -33.5t-33.5 -13.5z" />
    <glyph glyph-name="lslash.sc" horiz-adv-x="438" 
d="M416 57v-57h-320v198l-63 -37l-24 43l87 51v242h64v-205l73 43l25 -43l-98 -57v-178h256z" />
    <glyph glyph-name="m.sc" horiz-adv-x="658" 
d="M81 497h66l184 -353l184 353h62v-497h-62v382l-11 -24l-153 -291h-46l-152 291l-11 24v-382h-61v497z" />
    <glyph glyph-name="m.ss01" horiz-adv-x="845" 
d="M81 385q0 31 -9.5 41.5t-32.5 10.5v47q4 1 12 2t17 1q69 0 69 -81v-25q7 21 19.5 41t31.5 35.5t45 25t60 9.5q69 0 106.5 -32.5t50.5 -84.5q6 23 19.5 44t34 37t47 26t57.5 10q47 0 79 -15t52 -40.5t28.5 -60t8.5 -72.5v-304h-63v304q0 56 -28 95t-90 39q-32 0 -57 -13
t-42 -34.5t-26 -49.5t-9 -57v-284h-63v304q0 56 -28.5 95t-90.5 39q-35 0 -60.5 -14t-42 -36.5t-24.5 -50t-8 -53.5v-284h-63v385z" />
    <glyph glyph-name="macron.case" horiz-adv-x="370" 
d="M54 579h261v-49h-261v49z" />
    <glyph glyph-name="n.sc" horiz-adv-x="562" 
d="M81 497h58l271 -375l10 -18v393h61v-497h-56l-273 377l-10 18v-395h-61v497z" />
    <glyph glyph-name="n.ss01" horiz-adv-x="531" 
d="M81 386q0 30 -9.5 41t-32.5 11v46q9 3 29 3q69 0 69 -80v-23q19 52 60 80.5t98 28.5q80 0 123.5 -49t43.5 -139v-305h-63v305q0 63 -30.5 98.5t-88.5 35.5q-31 0 -56 -12t-43 -32.5t-27.5 -48.5t-9.5 -61v-285h-63v386z" />
    <glyph glyph-name="nacute.sc" horiz-adv-x="562" 
d="M325 735h78l-105 -162h-58zM81 497h58l271 -375l10 -18v393h61v-497h-56l-273 377l-10 18v-395h-61v497z" />
    <glyph glyph-name="nacute.ss01" horiz-adv-x="531" 
d="M304 720h78l-104 -162h-59zM81 386q0 30 -9.5 41t-32.5 11v46q9 3 29 3q69 0 69 -80v-23q19 52 60 80.5t98 28.5q80 0 123.5 -49t43.5 -139v-305h-63v305q0 63 -30.5 98.5t-88.5 35.5q-31 0 -56 -12t-43 -32.5t-27.5 -48.5t-9.5 -61v-285h-63v386z" />
    <glyph glyph-name="napostrophe.sc" horiz-adv-x="640" 
d="M34 576q4 3 11.5 7t15.5 10.5t14 15t6 18.5q-20 0 -34.5 13.5t-14.5 33.5t13.5 34t33.5 14q22 0 37 -15t15 -43q0 -31 -10 -53t-23 -36.5t-25.5 -21.5t-18.5 -10zM158 497h58l271 -375l10 -18v393h62v-497h-56l-274 377l-9 18v-395h-62v497z" />
    <glyph glyph-name="napostrophe.ss01" horiz-adv-x="615" 
d="M24 576q4 3 11.5 7t15.5 10.5t14 15t6 18.5q-20 0 -34.5 13.5t-14.5 33.5t13.5 33.5t33.5 13.5q22 0 36.5 -14.5t14.5 -42.5q0 -31 -10 -53t-23 -36t-25.5 -21t-17.5 -10zM165 386q0 30 -9.5 41t-32.5 11v46q9 3 29 3q69 0 69 -80v-23q19 52 60 80.5t98 28.5
q80 0 123.5 -49t43.5 -139v-305h-63v305q0 63 -30.5 98.5t-88.5 35.5q-31 0 -56 -12t-43 -32.5t-27.5 -48.5t-9.5 -61v-285h-63v386z" />
    <glyph glyph-name="ncaron.sc" horiz-adv-x="562" 
d="M166 735h58l64 -114l64 114h57l-88 -162h-68zM81 497h58l271 -375l10 -18v393h61v-497h-56l-273 377l-10 18v-395h-61v497z" />
    <glyph glyph-name="ncaron.ss01" horiz-adv-x="531" 
d="M146 720h57l65 -114l64 114h57l-89 -162h-67zM81 386q0 30 -9.5 41t-32.5 11v46q9 3 29 3q69 0 69 -80v-23q19 52 60 80.5t98 28.5q80 0 123.5 -49t43.5 -139v-305h-63v305q0 63 -30.5 98.5t-88.5 35.5q-31 0 -56 -12t-43 -32.5t-27.5 -48.5t-9.5 -61v-285h-63v386z" />
    <glyph glyph-name="nine.dnom" horiz-adv-x="368" 
d="M174 389q72 0 111.5 -48.5t39.5 -136.5q0 -101 -39 -156.5t-116 -55.5q-42 0 -71.5 15.5t-46.5 42.5l38 30q12 -20 31 -31t48 -11q46 0 75 35.5t31 115.5q-26 -26 -55 -36.5t-59 -10.5q-59 0 -91.5 31.5t-32.5 85.5q0 60 39 95t98 35zM168 184q36 0 62 15t43 35
q-7 60 -35 85t-66 25q-42 0 -64 -23t-22 -61q0 -37 22.5 -56.5t59.5 -19.5z" />
    <glyph glyph-name="nine.numr" horiz-adv-x="368" 
d="M174 709q72 0 111.5 -48.5t39.5 -136.5q0 -101 -39 -156.5t-116 -55.5q-42 0 -71.5 15.5t-46.5 42.5l38 29q12 -20 31 -30.5t48 -10.5q46 0 75 35.5t31 115.5q-26 -26 -55 -36.5t-59 -10.5q-59 0 -91.5 31.5t-32.5 85.5q0 60 39 95t98 35zM168 504q36 0 62 15t43 35
q-7 60 -35 85t-66 25q-42 0 -64 -23t-22 -61q0 -37 22.5 -56.5t59.5 -19.5z" />
    <glyph glyph-name="nine.osf" horiz-adv-x="548" 
d="M262 501q118 0 178.5 -88t60.5 -252q0 -191 -64.5 -281.5t-180.5 -90.5q-64 0 -112 21t-78 69l47 37q27 -39 61.5 -55.5t83.5 -16.5q42 0 76 17.5t58 56t36.5 98.5t12.5 144q-38 -57 -89.5 -79t-104.5 -22q-45 0 -82.5 14t-64.5 41.5t-42 67.5t-15 92q0 51 16 93
t44.5 71.5t69 46t89.5 16.5zM259 117q29 0 55.5 8.5t50 22.5t42.5 33.5t31 40.5q-11 114 -58.5 169.5t-119.5 55.5q-69 0 -112 -45.5t-43 -123.5t39.5 -119.5t114.5 -41.5z" />
    <glyph glyph-name="nine.sc" horiz-adv-x="484" 
d="M230 509q102 0 154 -65.5t52 -186.5q0 -135 -56.5 -202t-156.5 -67q-56 0 -98 18.5t-67 56.5l44 35q23 -32 52 -45t68 -13q71 0 111.5 48.5t41.5 163.5q-32 -36 -73 -51.5t-86 -15.5q-78 0 -126.5 39.5t-48.5 114.5q0 37 13 68.5t38 54t60 35t78 12.5zM226 237
q47 0 85 18.5t61 48.5q-9 78 -47.5 115.5t-96.5 37.5q-57 0 -91.5 -31.5t-34.5 -82.5t31.5 -78.5t92.5 -27.5z" />
    <glyph glyph-name="nine.sinf" horiz-adv-x="368" 
d="M174 254q72 0 111.5 -48.5t39.5 -136.5q0 -101 -39 -156.5t-116 -55.5q-42 0 -71.5 15t-46.5 42l38 30q12 -20 31 -30.5t48 -10.5q46 0 75 35.5t31 115.5q-26 -26 -55 -36.5t-59 -10.5q-59 0 -91.5 31.5t-32.5 85.5q0 60 39 95t98 35zM168 49q36 0 62 15t43 35
q-7 60 -35 85t-66 25q-42 0 -64 -23t-22 -61q0 -37 22.5 -56.5t59.5 -19.5z" />
    <glyph glyph-name="nine.sups" horiz-adv-x="368" 
d="M174 774q72 0 111.5 -48.5t39.5 -136.5q0 -101 -39 -156.5t-116 -55.5q-42 0 -71.5 15.5t-46.5 42.5l38 29q12 -20 31 -30.5t48 -10.5q46 0 75 35.5t31 115.5q-26 -26 -55 -36.5t-59 -10.5q-59 0 -91.5 31.5t-32.5 85.5q0 60 39 95t98 35zM168 569q36 0 62 15t43 35
q-7 60 -35 85t-66 25q-42 0 -64 -23t-22 -61q0 -37 22.5 -56.5t59.5 -19.5z" />
    <glyph glyph-name="ntilde.sc" horiz-adv-x="562" 
d="M159 598q-5 9 -7.5 18.5t-2.5 22.5q0 27 18 45.5t56 18.5q19 0 35.5 -7.5t31.5 -16t29 -16t29 -7.5q27 0 27 27q0 17 -6 24h50q5 -8 7.5 -18t2.5 -24q0 -26 -17.5 -45t-55.5 -19q-22 0 -39.5 7.5t-32.5 16t-28 16t-25 7.5q-13 0 -21 -7t-8 -20q0 -12 7 -23h-50zM81 497
h58l271 -375l10 -18v393h61v-497h-56l-273 377l-10 18v-395h-61v497z" />
    <glyph glyph-name="ntilde.ss01" horiz-adv-x="531" 
d="M138 583q-9 18 -9 41q0 27 17.5 45.5t55.5 18.5q20 0 36.5 -7.5t31.5 -16t29 -16t29 -7.5q27 0 27 27q0 8 -2 14t-4 10h50q9 -16 9 -42t-17.5 -45t-54.5 -19q-22 0 -40 7.5t-33 16t-27.5 16t-24.5 7.5q-29 0 -29 -27q0 -7 2 -12.5t4 -10.5h-50zM81 386q0 30 -9.5 41
t-32.5 11v46q9 3 29 3q69 0 69 -80v-23q19 52 60 80.5t98 28.5q80 0 123.5 -49t43.5 -139v-305h-63v305q0 63 -30.5 98.5t-88.5 35.5q-31 0 -56 -12t-43 -32.5t-27.5 -48.5t-9.5 -61v-285h-63v386z" />
    <glyph glyph-name="o.sc" horiz-adv-x="584" 
d="M291 -12q-48 0 -92 14.5t-78 45.5t-54.5 80.5t-20.5 118.5q0 68 20.5 117.5t54.5 81.5t79 47.5t93 15.5t92 -15t77.5 -46.5t54 -81t20.5 -118.5q0 -68 -20.5 -117t-54.5 -81t-78.5 -47t-92.5 -15zM291 40q35 0 67 11t56.5 35.5t39.5 64.5t15 97t-15 96.5t-39.5 64
t-56 35.5t-65.5 11t-66.5 -11t-57.5 -36t-40 -64.5t-15 -96.5t15 -96.5t40 -64t57 -35.5t65 -11z" />
    <glyph glyph-name="oacute.sc" horiz-adv-x="584" 
d="M328 726h78l-104 -163h-58zM291 -12q-48 0 -92 14.5t-78 45.5t-54.5 80.5t-20.5 118.5q0 68 20.5 117.5t54.5 81.5t79 47.5t93 15.5t92 -15t77.5 -46.5t54 -81t20.5 -118.5q0 -68 -20.5 -117t-54.5 -81t-78.5 -47t-92.5 -15zM291 40q35 0 67 11t56.5 35.5t39.5 64.5
t15 97t-15 96.5t-39.5 64t-56 35.5t-65.5 11t-66.5 -11t-57.5 -36t-40 -64.5t-15 -96.5t15 -96.5t40 -64t57 -35.5t65 -11z" />
    <glyph glyph-name="obreve.sc" horiz-adv-x="584" 
d="M292 576q-61 0 -88 34.5t-27 91.5h51q0 -39 16 -56.5t47 -18.5q32 0 48 18t16 57h51q0 -57 -27.5 -91.5t-86.5 -34.5zM291 -12q-48 0 -92 14.5t-78 45.5t-54.5 80.5t-20.5 118.5q0 68 20.5 117.5t54.5 81.5t79 47.5t93 15.5t92 -15t77.5 -46.5t54 -81t20.5 -118.5
q0 -68 -20.5 -117t-54.5 -81t-78.5 -47t-92.5 -15zM291 40q35 0 67 11t56.5 35.5t39.5 64.5t15 97t-15 96.5t-39.5 64t-56 35.5t-65.5 11t-66.5 -11t-57.5 -36t-40 -64.5t-15 -96.5t15 -96.5t40 -64t57 -35.5t65 -11z" />
    <glyph glyph-name="ocircumflex.sc" horiz-adv-x="584" 
d="M257 726h68l87 -163h-57l-65 114l-64 -114h-57zM291 -12q-48 0 -92 14.5t-78 45.5t-54.5 80.5t-20.5 118.5q0 68 20.5 117.5t54.5 81.5t79 47.5t93 15.5t92 -15t77.5 -46.5t54 -81t20.5 -118.5q0 -68 -20.5 -117t-54.5 -81t-78.5 -47t-92.5 -15zM291 40q35 0 67 11
t56.5 35.5t39.5 64.5t15 97t-15 96.5t-39.5 64t-56 35.5t-65.5 11t-66.5 -11t-57.5 -36t-40 -64.5t-15 -96.5t15 -96.5t40 -64t57 -35.5t65 -11z" />
    <glyph glyph-name="odieresis.sc" horiz-adv-x="584" 
d="M206 595q-19 0 -32 14t-13 33t13 33t32 14q20 0 33.5 -14t13.5 -33t-13.5 -33t-33.5 -14zM377 595q-19 0 -33 14t-14 33t14 33t33 14q20 0 32.5 -14t12.5 -33t-12.5 -33t-32.5 -14zM291 -12q-48 0 -92 14.5t-78 45.5t-54.5 80.5t-20.5 118.5q0 68 20.5 117.5t54.5 81.5
t79 47.5t93 15.5t92 -15t77.5 -46.5t54 -81t20.5 -118.5q0 -68 -20.5 -117t-54.5 -81t-78.5 -47t-92.5 -15zM291 40q35 0 67 11t56.5 35.5t39.5 64.5t15 97t-15 96.5t-39.5 64t-56 35.5t-65.5 11t-66.5 -11t-57.5 -36t-40 -64.5t-15 -96.5t15 -96.5t40 -64t57 -35.5t65 -11z
" />
    <glyph glyph-name="oe.sc" horiz-adv-x="860" 
d="M537 440v-159h240v-58h-240v-166h277v-57h-341v61q-35 -38 -82.5 -55.5t-99.5 -17.5q-48 0 -92 14.5t-78 45.5t-54.5 80.5t-20.5 118.5q0 68 20.5 117.5t54.5 81.5t79 47.5t93 15.5q52 0 98.5 -17t81.5 -55v60h341v-57h-277zM291 40q35 0 67 11t56.5 35.5t39.5 64.5
t15 97t-15 96.5t-39.5 64t-56 35.5t-65.5 11t-66.5 -11t-57.5 -36t-40 -64.5t-15 -96.5t15 -96.5t40 -64t57 -35.5t65 -11z" />
    <glyph glyph-name="ograve.sc" horiz-adv-x="584" 
d="M163 726h78l84 -163h-58zM291 -12q-48 0 -92 14.5t-78 45.5t-54.5 80.5t-20.5 118.5q0 68 20.5 117.5t54.5 81.5t79 47.5t93 15.5t92 -15t77.5 -46.5t54 -81t20.5 -118.5q0 -68 -20.5 -117t-54.5 -81t-78.5 -47t-92.5 -15zM291 40q35 0 67 11t56.5 35.5t39.5 64.5t15 97
t-15 96.5t-39.5 64t-56 35.5t-65.5 11t-66.5 -11t-57.5 -36t-40 -64.5t-15 -96.5t15 -96.5t40 -64t57 -35.5t65 -11z" />
    <glyph glyph-name="ohungarumlaut.sc" horiz-adv-x="584" 
d="M240 726h75l-90 -163h-54zM392 726h75l-90 -163h-53zM291 -12q-48 0 -92 14.5t-78 45.5t-54.5 80.5t-20.5 118.5q0 68 20.5 117.5t54.5 81.5t79 47.5t93 15.5t92 -15t77.5 -46.5t54 -81t20.5 -118.5q0 -68 -20.5 -117t-54.5 -81t-78.5 -47t-92.5 -15zM291 40q35 0 67 11
t56.5 35.5t39.5 64.5t15 97t-15 96.5t-39.5 64t-56 35.5t-65.5 11t-66.5 -11t-57.5 -36t-40 -64.5t-15 -96.5t15 -96.5t40 -64t57 -35.5t65 -11z" />
    <glyph glyph-name="omacron.sc" horiz-adv-x="584" 
d="M171 668h242v-52h-242v52zM291 -12q-48 0 -92 14.5t-78 45.5t-54.5 80.5t-20.5 118.5q0 68 20.5 117.5t54.5 81.5t79 47.5t93 15.5t92 -15t77.5 -46.5t54 -81t20.5 -118.5q0 -68 -20.5 -117t-54.5 -81t-78.5 -47t-92.5 -15zM291 40q35 0 67 11t56.5 35.5t39.5 64.5t15 97
t-15 96.5t-39.5 64t-56 35.5t-65.5 11t-66.5 -11t-57.5 -36t-40 -64.5t-15 -96.5t15 -96.5t40 -64t57 -35.5t65 -11z" />
    <glyph glyph-name="one.dnom" horiz-adv-x="240" 
d="M126 297q-8 -16 -32.5 -33.5t-63.5 -17.5l-3 47q44 1 68.5 28.5t29.5 60.5h52v-382h-51v297z" />
    <glyph glyph-name="one.numr" horiz-adv-x="240" 
d="M126 616q-8 -15 -32.5 -32.5t-63.5 -17.5l-3 46q44 2 68.5 29t29.5 60h52v-382h-51v297z" />
    <glyph glyph-name="one.osf" horiz-adv-x="294" 
d="M158 406q-17 -20 -49.5 -35.5t-81.5 -15.5v54q60 0 94.5 26.5t36.5 61.5h57v-497h-57v406z" />
    <glyph glyph-name="one.sc" horiz-adv-x="297" 
d="M158 402q-17 -20 -49.5 -35t-81.5 -15v57q60 0 94.5 26.5t36.5 61.5h61v-497h-61v402z" />
    <glyph glyph-name="one.sinf" horiz-adv-x="240" 
d="M126 160q-8 -16 -32.5 -33.5t-63.5 -17.5l-3 47q44 1 68.5 28.5t29.5 60.5h52v-382h-51v297z" />
    <glyph glyph-name="one.sups" horiz-adv-x="240" 
d="M126 681q-8 -15 -32.5 -32.5t-63.5 -17.5l-3 46q44 2 68.5 29t29.5 60h52v-382h-51v297z" />
    <glyph glyph-name="oneeighth.alt" horiz-adv-x="595" 
d="M123 536q-6 -13 -26 -25.5t-49 -12.5l-8 42q35 2 57.5 24.5t25.5 45.5h48v-273h-48v199zM440 600h56l-371 -501h-58zM443 74q-52 0 -80 19t-28 56q0 22 12.5 41t37.5 29q-37 18 -37 61q0 32 25.5 52t68.5 20q47 0 72 -20t25 -52q0 -20 -10 -36t-26 -25q25 -8 36 -25.5
t11 -42.5q0 -35 -29 -56t-78 -21zM468 232q12 6 18 17.5t6 25.5q0 20 -13.5 30t-36.5 10q-22 0 -35 -9.5t-13 -26.5q0 -25 32 -35zM443 109q29 0 45 11t16 31q0 18 -9 27t-29 14l-45 12q-18 -6 -29.5 -20t-11.5 -30q0 -45 63 -45z" />
    <glyph glyph-name="onehalf.alt" horiz-adv-x="618" 
d="M125 535q-7 -14 -27 -25.5t-48 -11.5l-6 43q32 2 55 23t26 46h49v-273h-49v198zM467 599h62l-405 -500h-62zM376 102q0 37 21.5 56.5t47.5 34.5t47.5 31t21.5 46q0 23 -13 34t-35 11q-25 0 -36.5 -12.5t-11.5 -29.5h-43q0 32 22 57.5t71 25.5q43 0 67 -21.5t24 -65.5
q0 -36 -19 -57t-42.5 -34.5t-42.5 -25t-19 -29.5v-2h129v-40h-189v21z" />
    <glyph glyph-name="onequarter.alt" horiz-adv-x="591" 
d="M119 536q-6 -14 -26 -26t-49 -12l-6 42q34 2 56 24.5t25 45.5h49v-273h-49v199zM446 600h57l-372 -501h-57zM468 152h-134v34l91 179h51l-88 -173h82v64h46v-64h38v-40h-38v-60h-48v60z" />
    <glyph glyph-name="oslash.sc" horiz-adv-x="584" 
d="M455 455q37 -32 59.5 -82.5t22.5 -124.5q0 -68 -20.5 -117t-54.5 -81t-78.5 -47t-92.5 -15q-32 0 -62.5 6t-57.5 20l-21 -32h-58l38 58q-38 31 -61 82t-23 125q0 68 20.5 117.5t54.5 81.5t79 47.5t93 15.5q68 0 123 -28l15 23h56zM114 247q0 -54 13.5 -92t36.5 -63
l220 340q-20 12 -43.5 17.5t-47.5 5.5q-34 0 -66.5 -11t-57.5 -36t-40 -64.5t-15 -96.5zM291 40q35 0 67 11t56.5 35.5t39.5 64.5t15 97q0 54 -13 91.5t-35 62.5l-219 -340q20 -11 43 -16.5t46 -5.5z" />
    <glyph glyph-name="oslashacute.sc" horiz-adv-x="584" 
d="M302 558h-58l84 162h78zM455 455q37 -32 59.5 -82.5t22.5 -124.5q0 -68 -20.5 -117t-54.5 -81t-78.5 -47t-92.5 -15q-32 0 -62.5 6t-57.5 20l-21 -32h-58l38 58q-38 31 -61 82t-23 125q0 68 20.5 117.5t54.5 81.5t79 47.5t93 15.5q68 0 123 -28l15 23h56zM114 247
q0 -54 13.5 -92t36.5 -63l220 340q-20 12 -43.5 17.5t-47.5 5.5q-34 0 -66.5 -11t-57.5 -36t-40 -64.5t-15 -96.5zM291 40q35 0 67 11t56.5 35.5t39.5 64.5t15 97q0 54 -13 91.5t-35 62.5l-219 -340q20 -11 43 -16.5t46 -5.5z" />
    <glyph glyph-name="otilde.sc" horiz-adv-x="584" 
d="M163 588q-5 9 -7.5 19t-2.5 23q0 26 18 45t56 19q19 0 35.5 -7.5t31.5 -16t29 -16t29 -7.5q27 0 27 27q0 8 -2 13.5t-4 9.5h50q9 -16 9 -42t-17.5 -45t-54.5 -19q-22 0 -40 7.5t-32.5 16.5t-27.5 16.5t-25 7.5q-29 0 -29 -28q0 -7 2 -12.5t4 -10.5h-49zM291 -12
q-48 0 -92 14.5t-78 45.5t-54.5 80.5t-20.5 118.5q0 68 20.5 117.5t54.5 81.5t79 47.5t93 15.5t92 -15t77.5 -46.5t54 -81t20.5 -118.5q0 -68 -20.5 -117t-54.5 -81t-78.5 -47t-92.5 -15zM291 40q35 0 67 11t56.5 35.5t39.5 64.5t15 97t-15 96.5t-39.5 64t-56 35.5t-65.5 11
t-66.5 -11t-57.5 -36t-40 -64.5t-15 -96.5t15 -96.5t40 -64t57 -35.5t65 -11z" />
    <glyph glyph-name="p.sc" horiz-adv-x="485" 
d="M81 497h174q94 0 145 -39t51 -120q0 -79 -54.5 -118t-141.5 -39h-109v-181h-65v497zM252 233q69 0 101 26.5t32 77.5q0 49 -32 77.5t-103 28.5h-104v-210h106z" />
    </font>
</defs>
</svg>
