<?xml version="1.0" standalone="no"?>
<!DOCTYPE svg PUBLIC "-//W3C//DTD SVG 1.1//EN" "http://www.w3.org/Graphics/SVG/1.1/DTD/svg11.dtd" >
<svg xmlns="http://www.w3.org/2000/svg" xmlns:xlink="http://www.w3.org/1999/xlink" version="1.1">
<metadata>
Created by FontForge 20170731 at Wed Jul  3 11:38:07 2019
 By Aleksey,,,
Copyright (c) 2017 by Daniel Hernandez. All rights reserved.
</metadata>
<defs>
<font id="AndesNeueAlt2-Thin" horiz-adv-x="0" >
  <font-face 
    font-family="AndesNeue Alt 2 Thin"
    font-weight="200"
    font-stretch="normal"
    units-per-em="1000"
    panose-1="0 0 3 0 0 0 0 0 0 0"
    ascent="750"
    descent="-250"
    x-height="482"
    cap-height="700"
    bbox="-625 -254 1351 945"
    underline-thickness="50"
    underline-position="-150"
    unicode-range="U+000D-FB02"
  />
<missing-glyph horiz-adv-x="530" 
d="M480 730v-730h-430v730h430zM265 408l150 287h-300zM90 657v-584l153 292zM440 73v584l-152 -292zM115 35h300l-150 287z" />
    <glyph glyph-name="fi" unicode="fi" horiz-adv-x="415" 
d="M93 465h-70v17h70v107q0 63 35.5 100.5t95.5 37.5q32 0 58 -13l-6 -15q-14 5 -25.5 8t-27.5 3q-51 0 -81.5 -33t-30.5 -88v-107h219v-482h-18v465h-201v-465h-18v465zM323 607q-11 0 -19 8t-8 19t8 19t19 8t19 -8t8 -19t-8 -19t-19 -8z" />
    <glyph glyph-name="fl" unicode="fl" horiz-adv-x="415" 
d="M330 72q0 -29 10 -42t33 -13v-17q-2 0 -4.5 -0.5t-5.5 -0.5q-24 0 -37.5 19t-13.5 54v393h-201v-465h-18v465h-70v17h70v104q0 63 35 102t92 39q35 0 62 -13l-6 -15q-27 11 -57 11q-49 0 -78.5 -33.5t-29.5 -90.5v-104h201v244h18v-654z" />
    <glyph glyph-name=".notdef" horiz-adv-x="530" 
d="M480 730v-730h-430v730h430zM265 408l150 287h-300zM90 657v-584l153 292zM440 73v584l-152 -292zM115 35h300l-150 287z" />
    <glyph glyph-name=".null" 
 />
    <glyph glyph-name=".null" 
 />
    <glyph glyph-name="nonmarkingreturn" unicode="&#xd;" horiz-adv-x="250" 
 />
    <glyph glyph-name="space" unicode=" " horiz-adv-x="238" 
 />
    <glyph glyph-name="exclam" unicode="!" horiz-adv-x="206" 
d="M93 700h20l-2 -526h-16zM103 -6q-11 0 -18.5 7.5t-7.5 18.5t7.5 18.5t18.5 7.5t18.5 -7.5t7.5 -18.5t-7.5 -18.5t-18.5 -7.5z" />
    <glyph glyph-name="quotedbl" unicode="&#x22;" horiz-adv-x="220" 
d="M59 706h22l-2 -126h-18zM139 706h22l-2 -126h-18z" />
    <glyph glyph-name="numbersign" unicode="#" horiz-adv-x="578" 
d="M168 166h-128l4 18h128l36 162h-124l4 18h124l28 126h18l-28 -126h162l28 126h18l-28 -126h128l-4 -18h-128l-36 -162h124l-4 -18h-124l-28 -126h-18l28 126h-162l-28 -126h-18zM352 184l36 162h-162l-36 -162h162z" />
    <glyph glyph-name="dollar" unicode="$" horiz-adv-x="560" 
d="M293 361q41 -7 81 -16.5t71.5 -28.5t50.5 -50.5t19 -83.5q0 -80 -59 -127.5t-163 -49.5v-126h-18v126q-38 1 -72 6.5t-63.5 18.5t-53 35.5t-40.5 58.5l17 9q16 -34 39 -55.5t50.5 -33.5t59 -16.5t63.5 -4.5v320q-40 7 -78.5 16.5t-68.5 28.5t-48.5 49.5t-18.5 79.5
q0 76 55.5 122.5t158.5 47.5v110h18v-110q35 -1 73.5 -10.5t69 -31t47.5 -58t8 -93.5h-16q6 51 -9 84.5t-42 53t-62 28t-69 9.5v-308zM81 518q0 -43 16 -70t43 -43.5t62 -25t73 -15.5v305q-93 0 -143.5 -42t-50.5 -109zM293 23q99 2 150.5 45.5t51.5 113.5q0 45 -17 73
t-45.5 44.5t-64.5 25.5t-75 15v-317z" />
    <glyph glyph-name="percent" unicode="%" horiz-adv-x="550" 
d="M128 424q-42 0 -68.5 32t-26.5 107t26 107t69 32t69 -32t26 -107t-26.5 -107t-68.5 -32zM371 700h19l-212 -700h-19zM128 439q42 0 59.5 33.5t17.5 90.5t-17.5 90.5t-59.5 33.5t-59.5 -33.5t-17.5 -90.5t17.5 -90.5t59.5 -33.5zM423 -2q-42 0 -68.5 32t-26.5 107t26 107
t69 32t69 -32t26 -107t-26.5 -107t-68.5 -32zM423 13q42 0 59.5 33.5t17.5 90.5t-17.5 90.5t-59.5 33.5t-59.5 -33.5t-17.5 -90.5t17.5 -90.5t59.5 -33.5z" />
    <glyph glyph-name="ampersand" unicode="&#x26;" horiz-adv-x="665" 
d="M636 -2q-30 7 -64.5 25t-69.5 44q-67 -82 -200 -82q-54 0 -98 16.5t-75.5 46.5t-49 72.5t-17.5 94.5q0 69 33 123.5t89 80.5q-30 66 -30 135q0 82 48 130t130 48q37 0 68 -11.5t53 -31.5t34.5 -48.5t12.5 -62.5q0 -26 -4.5 -53t-12.5 -43h-18q8 20 12.5 47t4.5 49
q0 61 -42 99t-108 38q-74 0 -117 -43.5t-43 -116.5q0 -77 38.5 -150t107.5 -148q33 -36 81 -81.5t100 -83.5q55 77 55 227h18q0 -153 -58 -237q34 -25 66.5 -42.5t61.5 -24.5zM302 2q123 0 186 75q-51 38 -98.5 83.5t-80.5 80.5q-39 42 -68.5 82.5t-49.5 81.5
q-24 -11 -44.5 -31t-35 -45.5t-23 -54.5t-8.5 -59q0 -46 16.5 -85t46.5 -67.5t70.5 -44.5t88.5 -16z" />
    <glyph glyph-name="quotesingle" unicode="'" horiz-adv-x="140" 
d="M59 706h22l-2 -126h-18z" />
    <glyph glyph-name="parenleft" unicode="(" horiz-adv-x="235" 
d="M203 -244q-42 52 -74 124q-20 41 -31.5 76t-21 78.5t-16 95.5t-6.5 111q0 119 23 209t52 152q32 72 74 124l15 -12q-41 -50 -73 -120q-19 -39 -30.5 -73t-21 -77t-15.5 -94t-6 -109q0 -117 22.5 -205t50.5 -148q32 -70 73 -120z" />
    <glyph glyph-name="parenright" unicode=")" horiz-adv-x="235" 
d="M32 726q42 -52 75 -124q19 -41 30.5 -76t21 -78.5t16 -95.5t6.5 -111q0 -119 -23 -209t-51 -152q-33 -72 -75 -124l-15 12q41 50 73 120q19 39 30.5 73t21 77t15.5 94t6 109q0 117 -22.5 205t-50.5 148q-32 70 -73 120z" />
    <glyph glyph-name="asterisk" unicode="*" horiz-adv-x="389" 
d="M190 588l-85 -108l-16 14l89 104l-134 20l4 20l132 -25l-54 119l18 10l51 -123l88 113l14 -14l-90 -107l140 -22l-3 -18l-138 23l58 -124l-20 -9z" />
    <glyph glyph-name="plus" unicode="+" horiz-adv-x="406" 
d="M193 250h-150v18h150v166h20v-166h150v-18h-150v-165h-20v165z" />
    <glyph glyph-name="comma" unicode="," horiz-adv-x="165" 
d="M52 -67q16 7 24 22.5t5 38.5q-11 0 -18.5 6.5t-7.5 19.5q0 12 7.5 19t18.5 7q14 0 21.5 -9.5t7.5 -26.5q0 -33 -13 -59t-37 -34z" />
    <glyph glyph-name="hyphen" unicode="-" horiz-adv-x="385" 
d="M70 284h245v-18h-245v18z" />
    <glyph glyph-name="period" unicode="." horiz-adv-x="170" 
d="M85 -6q-11 0 -18.5 7.5t-7.5 18.5t7.5 18.5t18.5 7.5t18.5 -7.5t7.5 -18.5t-7.5 -18.5t-18.5 -7.5z" />
    <glyph glyph-name="slash" unicode="/" horiz-adv-x="361" 
d="M312 706h20l-283 -930h-20z" />
    <glyph glyph-name="zero" unicode="0" horiz-adv-x="582" 
d="M291 -6q-118 0 -174 87.5t-56 267.5q0 357 230 357t230 -357q0 -180 -56 -267.5t-174 -87.5zM291 12q109 0 159.5 83t50.5 254t-50.5 255t-159.5 84t-159.5 -84t-50.5 -255t50.5 -254t159.5 -83z" />
    <glyph glyph-name="one" unicode="1" horiz-adv-x="300" 
d="M180 646q-6 -15 -19.5 -32.5t-33.5 -31.5t-46 -23.5t-58 -9.5v18q32 0 59.5 12t48 31t33.5 42.5t16 47.5h20v-700h-20v646z" />
    <glyph glyph-name="two" unicode="2" horiz-adv-x="528" 
d="M50 39q0 49 29.5 87.5t73 73t95 66.5t95 68t73 78.5t29.5 96.5q0 88 -50 133.5t-137 45.5q-36 0 -68.5 -10.5t-57.5 -30t-41 -47t-20 -61.5h-20q5 38 23 69t45.5 53t63 33.5t75.5 11.5q96 0 151.5 -50.5t55.5 -146.5q0 -58 -29.5 -102.5t-73 -81.5t-95 -69t-95 -65
t-73 -69.5t-29.5 -82.5v-21h420v-18h-440v39z" />
    <glyph glyph-name="three" unicode="3" horiz-adv-x="529" 
d="M249 -6q-36 0 -70 9t-62 25.5t-48.5 38.5t-30.5 49l16 10q11 -25 30.5 -45.5t45.5 -35.5t56.5 -23.5t62.5 -8.5q92 0 147.5 45t55.5 127q0 39 -14.5 70t-40 53t-58.5 34t-71 12h-47v18h37q36 0 67.5 10t55 29.5t36.5 49t13 68.5q0 72 -47.5 115.5t-128.5 43.5
q-33 0 -64 -10t-56 -29t-41 -47t-20 -63h-20q5 40 23 71t45 52.5t61.5 32.5t71.5 11q45 0 81 -12.5t61.5 -36t39.5 -56t14 -72.5q0 -36 -10.5 -64.5t-28.5 -49t-42 -33.5t-51 -19q67 -12 110.5 -57t43.5 -121q0 -93 -60 -142t-163 -49z" />
    <glyph glyph-name="four" unicode="4" horiz-adv-x="517" 
d="M376 182h-352v18l253 500h22l-253 -500h330v190h20v-190h99v-18h-99v-182h-20v182z" />
    <glyph glyph-name="five" unicode="5" horiz-adv-x="528" 
d="M253 -6q-31 0 -62 7t-57.5 20t-47.5 31.5t-33 40.5l15 9q11 -19 30 -35.5t43.5 -28.5t53 -19t58.5 -7q96 0 152 54.5t56 151.5q0 88 -51.5 139.5t-141.5 51.5q-48 0 -94.5 -15t-75.5 -49h-20v355h378v-19h-360v-314q31 32 77 46t95 14q98 0 155.5 -56t57.5 -153
q0 -52 -16 -93.5t-46 -70.5t-72 -44.5t-94 -15.5z" />
    <glyph glyph-name="six" unicode="6" horiz-adv-x="569" 
d="M316 407q94 0 148 -49.5t54 -149.5t-59 -157t-162 -57q-48 0 -91 18.5t-75.5 59t-51.5 105t-19 155.5q0 184 67.5 279t187.5 95q86 0 131 -42.5t45 -107.5q0 -16 -1.5 -28t-4.5 -27h-18q2 14 3.5 25.5t1.5 25.5q0 59 -39 97.5t-119 38.5q-113 0 -174 -91.5t-60 -266.5
q0 -48 6 -89q16 42 41 73t56 51.5t65 31t68 10.5zM297 12q94 0 147.5 52.5t53.5 143.5q0 94 -49.5 137.5t-133.5 43.5q-72 0 -131.5 -43.5t-92.5 -131.5q11 -55 32 -93.5t48.5 -62.5t60 -35t65.5 -11z" />
    <glyph glyph-name="seven" unicode="7" horiz-adv-x="460" 
d="M138 0q0 84 20.5 154t51.5 130.5t66.5 113t66.5 100t51.5 93t20.5 91.5h-402v18h422v-18q0 -48 -20.5 -94.5t-51.5 -94t-66.5 -99.5t-66.5 -111.5t-51.5 -129t-20.5 -153.5h-20z" />
    <glyph glyph-name="eight" unicode="8" horiz-adv-x="561" 
d="M374 348q72 -24 102 -70t30 -106q0 -39 -16 -72t-46 -56.5t-72 -36.5t-95 -13q-110 0 -166.5 48t-56.5 136q0 40 12 71.5t31.5 56t43 42.5t47.5 30q-100 45 -100 154q0 37 13.5 69t39 55t61 36.5t78.5 13.5q44 0 80.5 -12.5t62.5 -36t40.5 -56.5t14.5 -75q0 -27 -9 -53.5
t-23.5 -50.5t-33 -43t-38.5 -31zM108 532q0 -57 32.5 -96t95.5 -54l106 -25l11 -3q20 11 39 29t33.5 41t23.5 49t9 53q0 75 -49 118t-129 43q-38 0 -69.5 -11t-54.5 -31.5t-35.5 -49t-12.5 -63.5zM277 13q97 0 153 43.5t56 115.5q0 64 -36 105.5t-105 58.5l-109 26
q-15 3 -30 9q-23 -12 -46.5 -29.5t-42.5 -41t-31 -54t-12 -68.5q0 -77 51.5 -121t151.5 -44z" />
    <glyph glyph-name="nine" unicode="9" horiz-adv-x="558" 
d="M264 706q113 0 173 -87.5t60 -252.5q0 -189 -60.5 -280.5t-187.5 -91.5q-48 0 -95.5 16.5t-76.5 58.5l14 10q28 -38 71.5 -52.5t86.5 -14.5q116 0 172 87t56 272v11q-37 -62 -93 -89t-118 -27q-98 0 -157.5 56.5t-59.5 160.5q0 49 15.5 90t43.5 70.5t68 46t88 16.5z
M266 284q62 0 119.5 29.5t90.5 93.5q-7 136 -62 208.5t-150 72.5q-43 0 -79 -15.5t-62 -42.5t-40 -64.5t-14 -82.5q0 -98 53 -148.5t144 -50.5z" />
    <glyph glyph-name="colon" unicode=":" horiz-adv-x="192" 
d="M96 412q-11 0 -18.5 7.5t-7.5 18.5t7.5 18.5t18.5 7.5t18.5 -7.5t7.5 -18.5t-7.5 -18.5t-18.5 -7.5zM96 -6q-11 0 -18.5 7.5t-7.5 18.5t7.5 18.5t18.5 7.5t18.5 -7.5t7.5 -18.5t-7.5 -18.5t-18.5 -7.5z" />
    <glyph glyph-name="semicolon" unicode=";" horiz-adv-x="199" 
d="M99 412q-11 0 -18.5 7.5t-7.5 18.5t7.5 18.5t18.5 7.5t18.5 -7.5t7.5 -18.5t-7.5 -18.5t-18.5 -7.5zM70 -67q16 7 24 22.5t5 38.5q-11 0 -18.5 6.5t-7.5 19.5q0 12 7.5 19t18.5 7q14 0 21.5 -9.5t7.5 -26.5q0 -33 -13 -59t-37 -34z" />
    <glyph glyph-name="less" unicode="&#x3c;" horiz-adv-x="370" 
d="M31 254v22l286 201v-22l-269 -190l269 -190v-22z" />
    <glyph glyph-name="equal" unicode="=" horiz-adv-x="496" 
d="M73 359h350v-18h-350v18zM73 179h350v-18h-350v18z" />
    <glyph glyph-name="greater" unicode="&#x3e;" horiz-adv-x="370" 
d="M53 73l269 190l-269 190v22l286 -201v-22l-286 -201v22z" />
    <glyph glyph-name="question" unicode="?" horiz-adv-x="415" 
d="M172 174q0 60 14 98t35 64.5t45 46t45 40.5t35 49.5t14 72.5q0 29 -9.5 55.5t-28.5 46t-48.5 31t-68.5 11.5q-34 0 -63 -10t-50 -29t-33 -45t-12 -59h-18q0 36 13.5 65.5t37.5 50.5t56 32.5t69 11.5q47 0 79.5 -14t53.5 -37t30.5 -51.5t9.5 -58.5q0 -47 -14 -76.5
t-35 -51.5t-45 -40.5t-45 -44.5t-35 -63t-14 -95h-18zM181 -6q-11 0 -18.5 7.5t-7.5 18.5t7.5 18.5t18.5 7.5t18.5 -7.5t7.5 -18.5t-7.5 -18.5t-18.5 -7.5z" />
    <glyph glyph-name="at" unicode="@" horiz-adv-x="813" 
d="M371 -117q97 0 172 30t112 75l12 -11q-42 -48 -119 -79.5t-177 -31.5q-73 0 -131.5 21.5t-100 62t-63.5 99t-22 132.5q0 98 30.5 180t84.5 141.5t129.5 92.5t165.5 33q64 0 117.5 -20t92 -56.5t60 -87t21.5 -111.5q0 -60 -16 -115t-43 -97t-62 -67t-74 -25q-61 0 -61 52
q0 8 2 20.5t11 44.5q-29 -56 -68 -84t-81 -28q-58 0 -92 34t-34 108q0 50 15 96.5t42.5 83.5t66 59t85.5 22q46 0 78.5 -20t49.5 -48l14 51h20q-19 -66 -36 -122t-29.5 -99t-19.5 -72t-7 -42q-1 -21 11 -30t35 -9q35 0 67 23.5t56 63t38.5 91.5t14.5 109q0 56 -20.5 103.5
t-57 82t-86.5 53.5t-110 19q-84 0 -156 -32.5t-124.5 -90t-82 -136t-29.5 -171.5q0 -70 21 -125t59.5 -93.5t94 -59t124.5 -20.5zM363 71q57 0 106 56t86 189l13 52q-5 10 -15 22.5t-25 23.5t-35.5 18.5t-46.5 7.5q-43 0 -78.5 -21t-60.5 -55.5t-38.5 -78t-13.5 -89.5
q0 -63 29.5 -94t78.5 -31z" />
    <glyph glyph-name="A" unicode="A" horiz-adv-x="604" 
d="M474 230h-344l-88 -230h-20l269 700h22l269 -700h-20zM467 248l-165 431l-165 -431h330z" />
    <glyph glyph-name="B" unicode="B" horiz-adv-x="605" 
d="M100 700h213q95 0 148 -43t53 -131q0 -52 -15 -83.5t-35.5 -49t-41 -23.5t-31.5 -8v-2q17 0 45 -7t54.5 -26t45.5 -53.5t19 -89.5q0 -53 -21 -88.5t-55.5 -56.5t-78.5 -30t-89 -9h-211v700zM345 369q43 0 71.5 12.5t46 34t24.5 50t7 60.5q0 69 -43 112.5t-140 43.5h-191
v-313h225zM311 18q37 0 76.5 6.5t72.5 24.5t54 50.5t21 84.5q0 46 -15 78t-40.5 51.5t-60.5 28.5t-74 9h-225v-333h191z" />
    <glyph glyph-name="C" unicode="C" horiz-adv-x="599" 
d="M334 -6q-62 0 -113 26t-87.5 73.5t-56.5 112.5t-20 143q0 83 19.5 149t56.5 112.5t89 71t118 24.5q48 0 87 -12.5t67 -36.5t43.5 -58t15.5 -78q0 -16 -1.5 -28t-4.5 -27h-18q2 14 3.5 25.5t1.5 25.5q0 81 -52.5 126t-141.5 45q-61 0 -109.5 -23.5t-82.5 -67.5t-52.5 -107
t-18.5 -141q0 -73 19 -134.5t53 -106.5t81 -70.5t104 -25.5q77 0 127.5 30t77.5 73l15 -10q-32 -49 -85.5 -80t-134.5 -31z" />
    <glyph glyph-name="D" unicode="D" horiz-adv-x="674" 
d="M100 700h165q76 0 140.5 -21.5t112 -65.5t74 -110.5t26.5 -155.5q0 -88 -25 -153.5t-70 -108.5t-109 -64t-142 -21h-172v700zM272 18q72 0 131.5 19t103 58.5t67.5 102t24 149.5q0 89 -27 152.5t-72.5 104t-106 59.5t-127.5 19h-145v-664h152z" />
    <glyph glyph-name="E" unicode="E" horiz-adv-x="533" 
d="M100 700h390v-18h-370v-320h330v-18h-330v-326h370v-18h-390v700z" />
    <glyph glyph-name="F" unicode="F" horiz-adv-x="511" 
d="M100 700h390v-18h-370v-323h330v-18h-330v-341h-20v700z" />
    <glyph glyph-name="G" unicode="G" horiz-adv-x="641" 
d="M341 -6q-64 0 -116.5 25t-90 71t-57.5 111t-20 146q0 85 21 152t58.5 113t90.5 70t116 24q102 0 160.5 -46.5t63.5 -127.5q2 -27 -4 -53h-20q2 13 3.5 25.5t0.5 23.5q-5 75 -57 117.5t-147 42.5q-58 0 -107 -23t-84.5 -66.5t-55 -107t-19.5 -144.5q0 -75 19 -136.5
t53.5 -106t83 -68.5t108.5 -24q76 0 130.5 21t85.5 55v219h-201v18h221v-244q-35 -39 -92.5 -63t-143.5 -24z" />
    <glyph glyph-name="H" unicode="H" horiz-adv-x="670" 
d="M100 700h20v-338h430v338h20v-700h-20v344h-430v-344h-20v700z" />
    <glyph glyph-name="I" unicode="I" horiz-adv-x="220" 
d="M100 700h20v-700h-20v700z" />
    <glyph glyph-name="J" unicode="J" horiz-adv-x="445" 
d="M180 -6q-48 0 -87.5 22.5t-63.5 57.5l15 12q21 -32 57.5 -53t78.5 -21q71 0 111.5 44.5t40.5 128.5v515h20v-512q0 -94 -45.5 -144t-126.5 -50z" />
    <glyph glyph-name="K" unicode="K" horiz-adv-x="625" 
d="M626 18v-18h-25q-35 0 -59 25t-44.5 62t-41 81t-50 81t-71 62t-103.5 25h-112v-336h-20v700h20v-346h118q51 0 102 20t91.5 62.5t65.5 108t25 155.5h20q0 -72 -18 -132.5t-50 -106.5t-77 -76t-99 -42q46 -10 79 -38t58 -64.5t44.5 -75.5t38 -72t38 -54t45.5 -21h25z" />
    <glyph glyph-name="L" unicode="L" horiz-adv-x="528" 
d="M100 700h20v-682h390v-18h-410v700z" />
    <glyph glyph-name="M" unicode="M" horiz-adv-x="800" 
d="M100 700h33l268 -570l268 570h31v-700h-20v680l-8 -19l-263 -557h-18l-265 561l-6 15v-680h-20v700z" />
    <glyph glyph-name="N" unicode="N" horiz-adv-x="670" 
d="M100 700h21l429 -666v666h20v-700h-22l-426 661l-2 4v-665h-20v700z" />
    <glyph glyph-name="O" unicode="O" horiz-adv-x="700" 
d="M350 -6q-54 0 -106.5 18t-94 59.5t-66.5 109.5t-25 168t25 168t66.5 110t94 60.5t106.5 18.5t106.5 -18.5t94 -60.5t66.5 -110t25 -168t-25 -168t-66.5 -109.5t-94 -59.5t-106.5 -18zM350 12q51 0 100 17.5t87 57.5t61.5 104t23.5 158t-23.5 158.5t-61.5 104.5t-87 58
t-100 18t-100 -18t-87 -58t-61.5 -104.5t-23.5 -158.5t23.5 -158t61.5 -104t87 -57.5t100 -17.5z" />
    <glyph glyph-name="P" unicode="P" horiz-adv-x="561" 
d="M100 700h200q106 0 164 -51.5t58 -154.5t-58 -151.5t-164 -48.5h-180v-294h-20v700zM300 312q106 0 154 47.5t48 134.5q0 86 -48.5 137t-153.5 51h-180v-370h180z" />
    <glyph glyph-name="Q" unicode="Q" horiz-adv-x="700" 
d="M361 -6q18 -56 39 -92t45.5 -57t52 -29t57.5 -8v-18q-38 0 -70 10t-58 34t-47.5 63t-38.5 97q-53 1 -104 20t-90.5 61t-64 109t-24.5 165q0 100 25 168t66.5 110t94 60.5t106.5 18.5t106.5 -18.5t94 -60.5t66.5 -110t25 -168q0 -97 -24 -164t-63.5 -109t-90 -61.5
t-103.5 -20.5zM78 349q0 -94 23.5 -158t61.5 -104t87 -57.5t100 -17.5t100 17.5t87 57.5t61.5 104t23.5 158t-23.5 158.5t-61.5 104.5t-87 58t-100 18t-100 -18t-87 -58t-61.5 -104.5t-23.5 -158.5z" />
    <glyph glyph-name="R" unicode="R" horiz-adv-x="596" 
d="M562 -2q-29 0 -50.5 23.5t-38.5 59.5t-31.5 77t-31.5 77t-38.5 59.5t-50.5 23.5h-201v-318h-20v700h209q47 0 85.5 -11.5t66 -35t43 -60t15.5 -86.5q0 -78 -43 -123t-112 -60q22 -7 38.5 -33t31.5 -60t29 -71.5t30 -69.5t34.5 -52.5t42.5 -20.5h12v-19h-20zM310 336
q40 0 74.5 11t60 33t40 53.5t14.5 73.5q0 81 -48.5 128t-143.5 47h-187v-346h190z" />
    <glyph glyph-name="S" unicode="S" horiz-adv-x="565" 
d="M276 -6q-94 0 -149.5 29.5t-81.5 89.5l17 9q24 -55 76 -82.5t138 -27.5q111 0 164.5 43t53.5 120q0 38 -11 66.5t-37 49.5t-69 36t-107 26q-57 10 -97 24.5t-65 36t-36.5 51t-11.5 69.5q0 81 58.5 126.5t157.5 45.5q45 0 85 -9t69 -28.5t46 -50.5t17 -75q0 -7 -0.5 -14.5
t-1.5 -15.5h-17q1 8 1.5 15t0.5 14q0 39 -15.5 66.5t-42.5 45.5t-63.5 26t-78.5 8q-91 0 -143.5 -40.5t-52.5 -112.5q0 -36 10 -62.5t33.5 -46t61.5 -32.5t95 -23q66 -12 111 -28t72.5 -39t39 -55t11.5 -74q0 -84 -60 -132.5t-178 -48.5z" />
    <glyph glyph-name="T" unicode="T" horiz-adv-x="506" 
d="M243 682h-225v18h470v-18h-225v-682h-20v682z" />
    <glyph glyph-name="U" unicode="U" horiz-adv-x="672" 
d="M336 -6q-54 0 -99.5 14t-77.5 47t-50 89t-18 140v416h20v-416q0 -79 16.5 -131t46.5 -83.5t71.5 -44.5t90.5 -13t90.5 13t71.5 44.5t47 83.5t17 131v416h19v-416q0 -84 -18 -140t-50 -89t-77.5 -47t-99.5 -14z" />
    <glyph glyph-name="V" unicode="V" horiz-adv-x="584" 
d="M25 700h22l245 -680l245 680h22l-256 -700h-22z" />
    <glyph glyph-name="W" unicode="W" horiz-adv-x="896" 
d="M28 700h22l190 -680l197 680h22l197 -680l190 680h22l-200 -700h-24l-196 670l-196 -670h-24z" />
    <glyph glyph-name="X" unicode="X" horiz-adv-x="538" 
d="M281 349l237 -349h-22l-227 334l-227 -334h-22l237 349l-237 351h22l227 -336l227 336h22z" />
    <glyph glyph-name="Y" unicode="Y" horiz-adv-x="566" 
d="M273 297l-243 403h24l229 -383l230 383h23l-243 -403v-297h-20v297z" />
    <glyph glyph-name="Z" unicode="Z" horiz-adv-x="547" 
d="M516 682l-461 -664h461v-18h-485v18l461 664h-461v18h485v-18z" />
    <glyph glyph-name="bracketleft" unicode="[" horiz-adv-x="225" 
d="M94 726h108v-17h-90v-936h90v-17h-108v970z" />
    <glyph glyph-name="backslash" unicode="\" horiz-adv-x="361" 
d="M29 706h20l283 -930h-20z" />
    <glyph glyph-name="bracketright" unicode="]" horiz-adv-x="225" 
d="M23 -227h90v936h-90v17h108v-970h-108v17z" />
    <glyph glyph-name="asciicircum" unicode="^" horiz-adv-x="327" 
d="M150 710h27l101 -177h-22l-93 156l-92 -156h-22z" />
    <glyph glyph-name="underscore" unicode="_" horiz-adv-x="396" 
d="M38 0h320v-18h-320v18z" />
    <glyph glyph-name="grave" unicode="`" horiz-adv-x="228" 
d="M55 710h27l86 -142h-22z" />
    <glyph glyph-name="a" unicode="a" horiz-adv-x="522" 
d="M250 -11q-44 0 -80.5 16.5t-62.5 47.5t-40.5 77t-14.5 104q0 59 14 106.5t40 81t64.5 51.5t86.5 18q54 0 97.5 -27.5t63.5 -73.5v91h18v-409q0 -29 10 -42t33 -13v-17q-3 -1 -5.5 -1h-4.5q-24 0 -37.5 19t-13.5 54v34q-8 -24 -23.5 -45t-37.5 -37t-49 -25.5t-58 -9.5z
M250 6q30 0 57.5 10.5t50.5 29.5t38.5 46t21.5 59v205q-20 57 -63.5 87.5t-97.5 30.5q-44 0 -78.5 -17t-58.5 -48.5t-37 -76t-13 -98.5q0 -53 13.5 -95.5t37.5 -72t57 -45t72 -15.5z" />
    <glyph glyph-name="b" unicode="b" horiz-adv-x="517" 
d="M259 -11q-54 0 -96 27.5t-64 75.5v-92h-18v726h18v-352q9 24 24.5 45t37.5 37t49 25.5t59 9.5q42 0 78 -16.5t62 -47.5t41 -76.5t15 -103.5q0 -64 -15 -112.5t-42 -80.5t-65 -48.5t-84 -16.5zM259 6q41 0 75.5 15.5t59.5 46t39 75.5t14 104q0 53 -13.5 95.5t-37.5 71.5
t-56.5 44.5t-70.5 15.5q-31 0 -59.5 -10.5t-51 -30t-38 -45.5t-21.5 -58v-203q20 -57 63.5 -89t96.5 -32z" />
    <glyph glyph-name="c" unicode="c" horiz-adv-x="458" 
d="M257 -11q-46 0 -84 17.5t-65 50t-41.5 79t-14.5 105.5q0 60 15 106.5t41.5 78.5t63 48.5t79.5 16.5q77 0 119.5 -37t42.5 -102q0 -12 -1.5 -24t-3.5 -18h-17q2 8 3 19t1 21q0 60 -38.5 92t-105.5 32q-39 0 -72 -15.5t-57.5 -45.5t-38 -73t-13.5 -99q0 -53 14 -96.5
t39 -74t59.5 -47.5t74.5 -17q54 0 87.5 20t53.5 52l15 -10q-20 -33 -57.5 -56t-98.5 -23z" />
    <glyph glyph-name="d" unicode="d" horiz-adv-x="523" 
d="M250 -11q-44 0 -80.5 16.5t-62.5 47.5t-40.5 77t-14.5 104q0 59 14 106.5t40 81t64.5 51.5t86.5 18q54 0 97.5 -27.5t63.5 -73.5v336h18v-654q0 -29 10 -42t33 -13v-17q-3 -1 -5.5 -1h-4.5q-24 0 -37.5 19t-13.5 54v34q-9 -23 -24.5 -44.5t-37 -37.5t-48.5 -25.5
t-58 -9.5zM250 6q30 0 57.5 10.5t50.5 29.5t38.5 46t21.5 59v205q-20 57 -63.5 87.5t-97.5 30.5q-44 0 -78.5 -17t-58.5 -48.5t-37 -76t-13 -98.5q0 -53 13.5 -95.5t37.5 -72t57 -45t72 -15.5z" />
    <glyph glyph-name="e" unicode="e" horiz-adv-x="466" 
d="M417 68q-20 -29 -59 -54t-105 -25q-92 0 -146.5 60.5t-54.5 182.5q0 54 16 101.5t45.5 82.5t71 55t92.5 20q60 0 99.5 -27t39.5 -83q0 -49 -30 -81.5t-79 -52t-111 -28.5t-125 -13q8 -102 58 -151t124 -49q62 0 96.5 23t53.5 50zM277 474q-45 0 -83 -18t-65.5 -50
t-43 -74.5t-15.5 -92.5v-15q59 4 117.5 12t105.5 25.5t76 46t29 73.5q0 49 -35.5 71t-85.5 22z" />
    <glyph glyph-name="f" unicode="f" horiz-adv-x="289" 
d="M93 465h-70v17h70v104q0 64 34 102.5t92 38.5q42 0 66.5 -15t40.5 -40l-12 -13q-14 23 -36 37t-60 14q-50 0 -78.5 -33.5t-28.5 -90.5v-104h168v-17h-168v-465h-18v465z" />
    <glyph glyph-name="g" unicode="g" horiz-adv-x="514" 
d="M257 -239q-64 0 -110 27t-63 69l16 8q16 -39 60 -63t97 -24q75 0 116.5 42t41.5 114v178q-7 -26 -23.5 -47.5t-39 -37.5t-50 -24.5t-57.5 -8.5q-90 0 -141.5 65t-51.5 179q0 118 51 184t142 66q28 0 54.5 -7t49 -19.5t40 -29.5t26.5 -37v87h18v-547q0 -81 -47 -127.5
t-129 -46.5zM245 11q31 0 59.5 10.5t51 29.5t38 44.5t21.5 56.5v206q-8 25 -24.5 45.5t-39.5 35.5t-50 23.5t-56 8.5q-40 0 -72.5 -16.5t-55 -47t-35 -73.5t-12.5 -96q0 -52 12.5 -94t35 -71.5t55 -45.5t72.5 -16z" />
    <glyph glyph-name="h" unicode="h" horiz-adv-x="511" 
d="M466 -1q-28 0 -39.5 17t-11.5 54v233q0 34 -9 64.5t-27.5 53.5t-46.5 36.5t-66 13.5q-43 0 -75 -19t-52 -48.5t-30 -64t-10 -65.5v-274h-18v726h18v-377q6 28 20.5 53.5t35.5 44.5t49 30t62 11q45 0 76.5 -14.5t52 -39.5t29.5 -59t9 -72v-228q0 -40 10 -50t33 -10v-15
q-3 -1 -5.5 -1h-4.5z" />
    <glyph glyph-name="i" unicode="i" horiz-adv-x="188" 
d="M96 607q-11 0 -19 8t-8 19t8 19t19 8t19 -8t8 -19t-8 -19t-19 -8zM85 482h18v-482h-18v482z" />
    <glyph glyph-name="j" unicode="j" horiz-adv-x="192" 
d="M98 607q-11 0 -19 8t-8 19t8 19t19 8t19 -8t8 -19t-8 -19t-19 -8zM-16 -247q-20 0 -34.5 3.5t-24.5 7.5q-12 6 -20 12l6 16q8 -6 19 -11q10 -4 23.5 -7.5t30.5 -3.5q51 0 78 29t27 101v582h18v-582q0 -75 -30 -111t-93 -36z" />
    <glyph glyph-name="k" unicode="k" horiz-adv-x="482" 
d="M480 17v-17q-1 0 -3 -1h-8q-40 0 -63.5 18t-39.5 45t-30 59t-35 59t-53.5 45t-87.5 18h-61v-243h-18v726h18v-466h79q106 0 159 58t53 164h18q0 -31 -6 -68t-24.5 -70t-54 -59t-94.5 -36q38 -9 62 -29.5t40.5 -46.5t28.5 -53.5t26.5 -50.5t34 -37.5t50.5 -14.5h9z" />
    <glyph glyph-name="l" unicode="l" horiz-adv-x="190" 
d="M137 -4q-28 0 -39.5 16.5t-11.5 45.5v668h18v-663q0 -32 10 -41.5t34 -9.5v-15q-4 -1 -7 -1h-4z" />
    <glyph glyph-name="m" unicode="m" horiz-adv-x="842" 
d="M797 -1q-28 0 -39.5 17t-11.5 54v233q0 34 -8.5 64.5t-26.5 53.5t-46 36.5t-66 13.5q-39 0 -70 -18t-52 -46.5t-32 -65t-11 -72.5v-269h-18v303q0 34 -8.5 64.5t-26.5 53.5t-46 36.5t-66 13.5q-42 0 -73 -19t-51.5 -48t-30.5 -63.5t-10 -66.5v-274h-18v407q0 40 -10 50
t-33 10v15q1 0 3.5 0.5t6.5 0.5q28 0 39.5 -17t11.5 -54v-63q6 28 19.5 53.5t34 44.5t48.5 30t63 11q39 0 68 -11.5t48.5 -31t31 -46.5t15.5 -59q4 27 17 53.5t34 47.5t50.5 34t65.5 13q45 0 76.5 -14.5t51 -39.5t28.5 -59t9 -72v-228q0 -40 10 -50t33 -10v-15
q-1 0 -3.5 -0.5t-6.5 -0.5z" />
    <glyph glyph-name="n" unicode="n" horiz-adv-x="516" 
d="M471 -1q-28 0 -39.5 17t-11.5 54v236q0 78 -38 123t-111 45q-39 0 -69.5 -15.5t-52.5 -42.5t-33.5 -63t-11.5 -76v-277h-18v408q0 40 -10 50t-33 10v15q4 1 10 1q28 0 39.5 -17t11.5 -54v-59q14 63 59 100t109 37q79 0 122.5 -48.5t43.5 -136.5v-231q0 -40 10 -50t33 -10
v-15q-5 -1 -6.5 -1h-3.5z" />
    <glyph glyph-name="o" unicode="o" horiz-adv-x="514" 
d="M255 -11q-43 0 -80.5 15.5t-64.5 47t-42.5 78.5t-15.5 110t16.5 110t44.5 78.5t65.5 47t80.5 15.5q44 0 81 -15.5t64 -47t42.5 -78.5t15.5 -110t-16 -110t-44 -78.5t-65.5 -47t-81.5 -15.5zM255 6q37 0 71 14t60.5 43t42 73t15.5 104t-15 104t-40.5 73t-59 43t-70.5 14
t-71 -14t-60.5 -43t-42 -73t-15.5 -104t15 -104t40.5 -73t59 -43t70.5 -14z" />
    <glyph glyph-name="p" unicode="p" horiz-adv-x="522" 
d="M86 407q0 40 -10 50t-33 10v15q1 0 3.5 0.5t6.5 0.5q28 0 39.5 -17t11.5 -54v-38q9 24 24.5 45t37.5 37t49 25.5t59 9.5q42 0 78 -16.5t62.5 -47.5t41 -76.5t14.5 -103.5q0 -119 -54 -188.5t-152 -69.5q-54 0 -96 27.5t-64 75.5v-321h-18v636zM264 6q45 0 80 17t59 48.5
t36.5 76t12.5 99.5q0 53 -13.5 95t-37.5 71.5t-56.5 45t-70.5 15.5q-31 0 -59 -10.5t-50.5 -30t-38.5 -45.5t-22 -58v-203q20 -57 63.5 -89t96.5 -32z" />
    <glyph glyph-name="q" unicode="q" horiz-adv-x="517" 
d="M418 106q-9 -23 -24.5 -44.5t-37 -37.5t-48 -25.5t-58.5 -9.5q-44 0 -80.5 16.5t-62.5 48t-40.5 77t-14.5 104.5t14 106.5t40.5 80.5t64.5 51t87 18q52 0 95.5 -26.5t64.5 -74.5v92h18v-726h-18v350zM250 6q30 0 58 11t50.5 30.5t38.5 46t21 58.5v204q-20 57 -64 87.5
t-96 30.5q-44 0 -79 -17t-59 -48.5t-37 -75.5t-13 -98q0 -53 13.5 -95.5t37.5 -72t57 -45.5t72 -16z" />
    <glyph glyph-name="r" unicode="r" horiz-adv-x="323" 
d="M86 409q0 36 -8.5 48t-34.5 12v15q4 1 10 1q27 0 39 -16.5t12 -54.5v-63q14 64 58 102t104 38q14 0 27.5 -2t21.5 -5l-6 -17q-7 2 -19.5 4t-24.5 2q-35 0 -64.5 -15t-51 -43t-33.5 -66t-12 -85v-264h-18v409z" />
    <glyph glyph-name="s" unicode="s" horiz-adv-x="440" 
d="M223 -11q-28 0 -55 3.5t-51 14.5t-43.5 31t-33.5 52l17 9q13 -31 31 -49t39.5 -28t46 -13t49.5 -3q71 0 110.5 29.5t39.5 83.5q0 32 -13 51.5t-34 31.5t-48 18.5t-56 12.5q-30 6 -59 13.5t-52.5 21.5t-37.5 36t-14 58q0 57 43 93t117 36q72 0 116.5 -33t44.5 -96
q0 -11 -2 -23.5t-5 -20.5h-18q3 7 5 19.5t2 25.5q0 53 -38.5 82t-104.5 29q-65 0 -103.5 -30t-38.5 -82q0 -31 13 -50.5t35 -31t49.5 -18t56.5 -12.5q30 -6 59 -13.5t51.5 -21.5t36 -36.5t13.5 -59.5q0 -63 -46.5 -96.5t-121.5 -33.5z" />
    <glyph glyph-name="t" unicode="t" horiz-adv-x="354" 
d="M235 -11q-67 0 -98.5 34.5t-31.5 108.5v333h-90v17h90v140h18v-140h210v-17h-210v-333q0 -66 27 -96t85 -30q29 0 58 14t46 36l12 -11q-19 -25 -51.5 -40.5t-64.5 -15.5z" />
    <glyph glyph-name="u" unicode="u" horiz-adv-x="508" 
d="M229 -11q-33 0 -61.5 8.5t-48.5 27.5t-31.5 50t-11.5 76v331h18v-331q0 -79 38 -112t97 -33q41 0 73.5 18.5t55 46t34.5 59t12 56.5v296h18v-407q0 -40 10 -50t33 -10v-15q-5 -1 -6.5 -1h-3.5q-28 0 -39.5 17t-11.5 54v51q-10 -26 -26.5 -50t-38.5 -42t-49.5 -29
t-60.5 -11z" />
    <glyph glyph-name="v" unicode="v" horiz-adv-x="446" 
d="M418 482l-181 -482h-28l-181 482h22l159 -425l14 -39l16 39l158 425h21z" />
    <glyph glyph-name="w" unicode="w" horiz-adv-x="670" 
d="M640 482l-146 -485h-28l-121 406l-10 34l-10 -34l-121 -406h-28l-146 485h20l126 -422l14 -46l14 46l125 422h12l125 -420l14 -48l14 48l126 420h20z" />
    <glyph glyph-name="x" unicode="x" horiz-adv-x="416" 
d="M373 0l-165 233l-166 -233h-23l176 247l-166 235h23l156 -221l155 221h23l-165 -235l175 -247h-23z" />
    <glyph glyph-name="y" unicode="y" horiz-adv-x="503" 
d="M246 -247q-73 0 -114.5 27t-58.5 69l15 8q15 -37 52.5 -62t105.5 -25q73 0 115.5 42t42.5 114v202q-13 -62 -58.5 -99.5t-105.5 -37.5q-164 0 -164 165v326h18v-326q0 -148 146 -148q35 0 64.5 15t52 40.5t35 60.5t12.5 75v283h18v-565q-3 -77 -50 -120.5t-126 -43.5z
" />
    <glyph glyph-name="z" unicode="z" horiz-adv-x="464" 
d="M149 243q34 -6 82 -22t91.5 -48.5t74 -83.5t30.5 -127q0 -54 -15.5 -92t-42.5 -62t-62.5 -35t-75.5 -11q-38 0 -72 11.5t-59.5 34.5t-40.5 57.5t-15 80.5q0 60 24 104t57 74t68 47.5t57 24.5q-28 13 -58.5 21.5t-63.5 13.5v18l253 216h-320v17h342v-20zM231 -221
q36 0 68.5 10t56.5 32t38.5 57t14.5 84q0 79 -38 135t-103 90q-25 -7 -60 -24.5t-67.5 -46.5t-55.5 -71t-23 -99q0 -41 14 -72.5t37.5 -52.5t54 -31.5t63.5 -10.5z" />
    <glyph glyph-name="braceleft" unicode="{" horiz-adv-x="247" 
d="M226 -234q-22 -4 -44 0t-38.5 18t-27 39t-10.5 63v280q0 36 -20.5 51.5t-43.5 15.5h-10v16h10q23 0 43.5 15.5t20.5 51.5v280q0 38 10.5 63t27 39t38.5 18t44 0v-18q-48 8 -75 -18t-27 -84v-280q0 -21 -6 -35.5t-14 -23t-16 -12t-13 -4.5q4 -1 12 -5.5t16.5 -12.5
t14.5 -22t6 -35v-280q0 -59 27 -84.5t75 -17.5v-18z" />
    <glyph glyph-name="bar" unicode="|" horiz-adv-x="208" 
d="M94 736h20v-990h-20v990z" />
    <glyph glyph-name="braceright" unicode="}" horiz-adv-x="247" 
d="M21 716q23 4 44.5 0t38 -18t27 -39t10.5 -63v-280q0 -36 20.5 -51.5t43.5 -15.5h10v-16h-10q-23 0 -43.5 -15.5t-20.5 -51.5v-280q0 -38 -10.5 -63t-27 -39t-38 -18t-44.5 0v18q48 -8 75 18t27 84v280q0 21 6 35.5t14 23t16.5 12t12.5 4.5l-12 6t-16.5 12t-14.5 22t-6 35
v280q0 59 -27 84.5t-75 17.5v18z" />
    <glyph glyph-name="asciitilde" unicode="~" horiz-adv-x="381" 
d="M80 212q-2 4 -3 8q-2 4 -3 9.5t-1 11.5q0 23 14 38t41 15q18 0 33.5 -6t30 -13.5t30 -13.5t33.5 -6q13 0 22 6t9 20q0 11 -3 19q-1 4 -3 7h21q2 -3 3 -7t2 -8.5t1 -10.5q0 -20 -12.5 -33t-39.5 -13q-21 0 -38 6t-31.5 13.5t-28.5 13.5t-29 6t-25 -8.5t-10 -24.5
q0 -10 4 -20q2 -5 4 -9h-21z" />
    <glyph glyph-name="exclamdown" unicode="&#xa1;" horiz-adv-x="186" 
d="M93 496q11 0 18.5 -7.5t7.5 -18.5t-7.5 -18.5t-18.5 -7.5t-18.5 7.5t-7.5 18.5t7.5 18.5t18.5 7.5zM103 -210h-20l2 526h16z" />
    <glyph glyph-name="cent" unicode="&#xa2;" horiz-adv-x="454" 
d="M235 111q-82 6 -131.5 66.5t-49.5 181.5q0 120 46.5 185t134.5 70v86h18v-86q48 0 90.5 -25t61.5 -64l-15 -7q-14 32 -52.5 55t-84.5 24v-469q62 1 97.5 28.5t45.5 71.5l16 -4q-11 -51 -51.5 -81.5t-107.5 -31.5v-111h-18v111zM235 597q-81 -5 -122 -65t-41 -173
q0 -112 44 -167.5t119 -63.5v469z" />
    <glyph glyph-name="sterling" unicode="&#xa3;" horiz-adv-x="548" 
d="M517 18v-18h-448v18q17 14 33.5 33.5t29.5 43.5t21 51.5t8 57.5q0 29 -4 49h-107v18h104q-7 35 -20.5 64t-26 57.5t-22 60t-9.5 72.5q0 40 14 73.5t40.5 57.5t65 37t87.5 13q32 0 67.5 -6t66 -23.5t50.5 -49t20 -83.5v-16.5t-2 -17.5h-17q2 9 2 17v16q0 47 -18.5 75
t-46.5 44t-61 21t-61 5q-89 0 -138 -45t-49 -117q0 -40 9.5 -70.5t22.5 -59t26.5 -58t20.5 -67.5h241v-18h-238q3 -24 3 -51q0 -30 -8 -58t-20.5 -52t-27.5 -43t-29 -31h421z" />
    <glyph glyph-name="currency" unicode="&#xa4;" horiz-adv-x="536" 
d="M57 191l82 83q-24 36 -24 84q0 23 6.5 44t17.5 39l-82 83l12 12l80 -81q21 26 52 41.5t67 15.5t66.5 -15.5t52.5 -41.5l80 81l12 -12l-82 -83q11 -19 18 -40t7 -44q0 -46 -25 -84l82 -82l-12 -12l-80 80q-21 -26 -52 -40t-66 -15q-37 -1 -68 14.5t-52 41.5l-80 -81z
M269 221q28 0 53 10.5t43.5 29t29 43.5t10.5 53q0 29 -10.5 54t-29.5 44t-43.5 29.5t-53.5 10.5q-28 0 -53 -11t-43.5 -29.5t-29 -43.5t-10.5 -53t10.5 -53t29 -43.5t43.5 -29.5t54 -11z" />
    <glyph glyph-name="yen" unicode="&#xa5;" horiz-adv-x="554" 
d="M267 267h-185v18h185v22l-52 80h-133v18h121l-178 296h21l231 -379l231 379h21l-179 -296h122v-18h-133l-52 -80v-22h185v-18h-185v-267h-20v267z" />
    <glyph glyph-name="brokenbar" unicode="&#xa6;" horiz-adv-x="208" 
d="M94 736h20v-412h-20v412zM94 166h20v-420h-20v420z" />
    <glyph glyph-name="section" unicode="&#xa7;" horiz-adv-x="597" 
d="M294 -244q-88 0 -152.5 30.5t-95.5 85.5l15 12q29 -52 90.5 -81t142.5 -29q116 0 172 45t56 119q0 50 -19.5 80t-52 47.5t-73.5 26t-84.5 15t-84.5 15t-73.5 27t-52 50t-19.5 83.5q0 33 14 65t39 57q-29 24 -41 55.5t-12 67.5q0 84 61.5 131.5t168.5 47.5q41 0 79 -9.5
t69 -26t53 -40t32 -50.5l-17 -9q-10 26 -31 47t-49.5 37t-63.5 24.5t-72 8.5q-98 0 -154 -43t-56 -118q0 -49 19.5 -78.5t52 -46.5t73.5 -26t84.5 -16.5t84.5 -16.5t73.5 -28t52 -50.5t19.5 -82.5q0 -18 -4.5 -36t-12 -34.5t-15.5 -30.5t-16 -22q20 -16 34 -49.5t14 -71.5
q0 -80 -62 -131t-186 -51zM479 71q19 19 31 50.5t12 60.5q0 47 -20 75.5t-52.5 45.5t-74 26t-84.5 16.5t-84.5 17.5t-73.5 29q-22 -14 -36 -44.5t-14 -65.5q0 -48 20 -77t53 -45t75.5 -24t86.5 -15.5t86 -18t75 -31.5z" />
    <glyph glyph-name="dieresis" unicode="&#xa8;" horiz-adv-x="309" 
d="M81 607q-11 0 -18.5 7.5t-7.5 18.5t7.5 18.5t18.5 7.5t18.5 -7.5t7.5 -18.5t-7.5 -18.5t-18.5 -7.5zM228 607q-11 0 -18.5 7.5t-7.5 18.5t7.5 18.5t18.5 7.5t18.5 -7.5t7.5 -18.5t-7.5 -18.5t-18.5 -7.5z" />
    <glyph glyph-name="copyright" unicode="&#xa9;" horiz-adv-x="845" 
d="M422 -6q-83 0 -151 26.5t-116 75t-74.5 116.5t-26.5 151t26.5 150.5t75 116.5t116.5 75.5t150 26.5q83 0 150.5 -26.5t116.5 -75.5t75.5 -116.5t26.5 -150.5t-26.5 -151t-75 -116.5t-116.5 -75t-151 -26.5zM422 12q77 0 141.5 25.5t110.5 72t71.5 111t25.5 142.5
t-25.5 142.5t-72 111t-110.5 72t-141 25.5t-141 -25.5t-110 -72t-71.5 -111t-25.5 -142.5t25.5 -143t71 -111t109.5 -71.5t142 -25.5zM424 105q-46 0 -84.5 16.5t-66 48.5t-42.5 78.5t-15 105.5q0 129 54 199t151 70q71 0 117.5 -34.5t46.5 -103.5h-18q0 57 -40 89t-106 32
q-88 0 -137.5 -66t-49.5 -186q0 -55 14 -98.5t39 -73t60 -45t77 -15.5q66 0 102 22.5t53 53.5l13 -9q-19 -33 -59 -58.5t-109 -25.5z" />
    <glyph glyph-name="ordfeminine" unicode="&#xaa;" horiz-adv-x="343" 
d="M137 426q-82 0 -82 66q0 34 26.5 52t77.5 18h84v42q0 81 -80 81q-35 0 -55.5 -15t-20.5 -40q0 -16 4 -24h-19q-4 8 -4 25q0 32 26.5 51.5t68.5 19.5q100 0 100 -98v-132q0 -16 4.5 -21t18.5 -5v-17q-1 0 -2 -0.5t-3 -0.5q-38 0 -38 41v18q-15 -29 -43 -45t-63 -16z
M137 442q27 0 46.5 8.5t33 22t20 29.5t6.5 30v13h-83q-48 0 -67 -14.5t-19 -38.5q0 -27 17 -38.5t46 -11.5z" />
    <glyph glyph-name="guillemotleft" unicode="&#xab;" horiz-adv-x="400" 
d="M42 249v19l141 147l13 -15l-138 -141l138 -142l-13 -15zM182 249v19l141 147l13 -15l-138 -141l138 -142l-13 -15z" />
    <glyph glyph-name="registered" unicode="&#xae;" horiz-adv-x="845" 
d="M422 -6q-82 0 -150 26.5t-116.5 75t-75 116.5t-26.5 151t27 151t75.5 116.5t116 75t149.5 26.5t150 -26.5t116.5 -75t75.5 -116.5t27 -151t-26.5 -151t-75.5 -116.5t-116.5 -75t-150.5 -26.5zM422 12q78 0 142.5 26t110 72.5t71 111t25.5 141.5t-25.5 141.5t-71.5 111
t-110.5 72.5t-141.5 26t-141 -25.5t-110 -72t-71.5 -111t-25.5 -142.5t25 -142.5t71 -111t110 -72t142 -25.5zM609 116q-27 0 -44 16.5t-29.5 41t-21.5 53.5t-20.5 53.5t-27.5 41t-41 16.5h-151v-221h-18v491h168q66 0 105 -34.5t39 -103.5q0 -43 -15.5 -68.5t-34.5 -38.5
t-36 -16.5t-20 -3.5q27 -12 42 -46t28.5 -70.5t30 -64.5t46.5 -28h17v-18h-17zM425 355q65 0 95.5 29t30.5 86q0 59 -30.5 90t-95.5 31h-151v-236h151z" />
    <glyph glyph-name="macron" unicode="&#xaf;" horiz-adv-x="340" 
d="M60 647h220v-18h-220v18z" />
    <glyph glyph-name="degree" unicode="&#xb0;" horiz-adv-x="327" 
d="M163 473q-24 0 -44.5 9t-36 24.5t-24.5 36t-9 44.5t9 44.5t24.5 36.5t36 25t44.5 9t44.5 -9t36.5 -25t25 -36.5t9 -44.5t-9 -44.5t-25 -36t-36.5 -24.5t-44.5 -9zM163 488q21 0 39 7.5t31.5 21t21.5 31.5t8 39t-8 39t-21.5 31.5t-31.5 21.5t-39 8t-39 -8t-31.5 -21.5
t-21 -31.5t-7.5 -39q0 -42 28.5 -70.5t70.5 -28.5z" />
    <glyph glyph-name="plusminus" unicode="&#xb1;" horiz-adv-x="444" 
d="M212 276h-150v18h150v166h20v-166h150v-18h-150v-165h-20v165zM62 18h320v-18h-320v18z" />
    <glyph glyph-name="acute" unicode="&#xb4;" horiz-adv-x="228" 
d="M146 710h27l-91 -142h-22z" />
    <glyph glyph-name="paragraph" unicode="&#xb6;" horiz-adv-x="529" 
d="M303 300h-70q-49 0 -86 14.5t-62 41t-37.5 63t-12.5 80.5t12.5 81t37.5 63.5t62 41.5t86 15h196v-700h-18v683h-90v-683h-18v300z" />
    <glyph glyph-name="periodcentered" unicode="&#xb7;" horiz-adv-x="192" 
d="M96 329q-11 0 -18.5 7.5t-7.5 18.5t7.5 18.5t18.5 7.5t18.5 -7.5t7.5 -18.5t-7.5 -18.5t-18.5 -7.5z" />
    <glyph glyph-name="cedilla" unicode="&#xb8;" horiz-adv-x="253" 
d="M119 -167q-15 0 -26 3.5t-18 7.5q-9 5 -15 11l8 16q6 -6 14 -10q7 -4 16.5 -7t21.5 -3q25 0 39 11t14 31q0 17 -16 33t-61 16l23 59h20l-17 -44q26 -2 48.5 -17.5t22.5 -46.5q0 -26 -19 -43t-55 -17z" />
    <glyph glyph-name="ordmasculine" unicode="&#xba;" horiz-adv-x="341" 
d="M171 426q-51 0 -85 33t-34 105q0 69 34 103.5t85 34.5q50 0 84 -33.5t34 -104.5q0 -70 -34 -104t-84 -34zM171 443q38 0 68 29t30 92q0 32 -8.5 54.5t-22 37.5t-31 22t-36.5 7t-37 -7t-31.5 -21.5t-21.5 -37.5t-8 -55q0 -64 29.5 -92.5t68.5 -28.5z" />
    <glyph glyph-name="guillemotright" unicode="&#xbb;" horiz-adv-x="400" 
d="M64 116l138 141l-138 142l13 15l141 -147v-19l-141 -147zM204 116l138 141l-138 142l13 15l141 -147v-19l-141 -147z" />
    <glyph glyph-name="onequarter" unicode="&#xbc;" horiz-adv-x="533" 
d="M337 726h20l-221 -726h-20zM104 648q-3 -10 -11.5 -22.5t-21.5 -22.5t-30 -17t-38 -7l-2 18q23 1 40.5 10.5t30.5 24.5t20.5 33t10.5 37h21v-382h-20v328zM465 94h-192v22l138 266h23l-140 -270h171v105h20v-105h55v-18h-55v-94h-20v94z" />
    <glyph glyph-name="onehalf" unicode="&#xbd;" horiz-adv-x="531" 
d="M336 726h20l-221 -726h-20zM104 648q-3 -10 -11.5 -22.5t-21.5 -22.5t-30 -17t-38 -7l-2 18q23 1 40.5 10.5t30.5 24.5t20.5 33t10.5 37h21v-382h-20v328zM289 20q0 28 16 48t39.5 37t51 33t51 35.5t39.5 43.5t16 58q0 42 -23 68t-71 26q-30 0 -49 -8.5t-29.5 -21
t-14.5 -26.5t-4 -25h-19q0 12 4.5 28.5t17.5 32t35.5 26.5t58.5 11q59 0 86.5 -29.5t27.5 -81.5q0 -36 -16 -62.5t-40 -47t-51.5 -36.5t-51.5 -32t-40 -33t-16 -39v-7h231v-18h-249v20z" />
    <glyph glyph-name="threequarters" unicode="&#xbe;" horiz-adv-x="683" 
d="M487 726h20l-221 -726h-20zM167 315q-51 0 -80.5 17t-43.5 49l17 9q13 -28 39 -42.5t68 -14.5q103 0 103 88q0 46 -28.5 68.5t-73.5 22.5h-24v19h24q43 0 65 22t22 55q0 38 -23.5 59.5t-67.5 21.5q-43 0 -67.5 -22t-24.5 -61h-19q0 48 31 74t80 26q52 0 81.5 -25.5
t29.5 -70.5q0 -20 -6 -35.5t-16 -26t-21 -16.5t-22 -9q38 -11 59 -35.5t21 -66.5q0 -53 -33 -79.5t-90 -26.5zM615 94h-192v22l138 266h23l-140 -270h171v105h20v-105h55v-18h-55v-94h-20v94z" />
    <glyph glyph-name="questiondown" unicode="&#xbf;" horiz-adv-x="408" 
d="M231 496q11 0 18.5 -7.5t7.5 -18.5t-7.5 -18.5t-18.5 -7.5t-18.5 7.5t-7.5 18.5t7.5 18.5t18.5 7.5zM240 316q0 -60 -14 -98t-35 -64.5t-45 -46t-45 -40.5t-35 -49.5t-14 -72.5q0 -29 9.5 -55.5t28.5 -46t48.5 -31t68.5 -11.5q34 0 63 10t50 29t33 45t12 59h18
q0 -36 -13.5 -65.5t-37.5 -50.5t-56 -32.5t-69 -11.5q-46 0 -79 14t-54 37t-30.5 51.5t-9.5 58.5q0 47 14 76.5t35 51.5t45 40.5t45 44.5t35 63t14 95h18z" />
    <glyph glyph-name="Agrave" unicode="&#xc0;" horiz-adv-x="604" 
d="M314 743l-90 102h29l80 -102h-19zM474 230h-344l-88 -230h-20l269 700h22l269 -700h-20zM467 248l-165 431l-165 -431h330z" />
    <glyph glyph-name="Aacute" unicode="&#xc1;" horiz-adv-x="604" 
d="M271 743h-19l81 102h28zM474 230h-344l-88 -230h-20l269 700h22l269 -700h-20zM467 248l-165 431l-165 -431h330z" />
    <glyph glyph-name="Acircumflex" unicode="&#xc2;" horiz-adv-x="604" 
d="M224 743h-21l87 102h24l87 -102h-22l-78 82zM474 230h-344l-88 -230h-20l269 700h22l269 -700h-20zM467 248l-165 431l-165 -431h330z" />
    <glyph glyph-name="Atilde" unicode="&#xc3;" horiz-adv-x="604" 
d="M192 753q-3 4 -5 11t-2 13q0 24 14.5 38.5t40.5 14.5q18 0 33.5 -9t30.5 -20.5t30.5 -20.5t33.5 -9q14 0 22 9t8 24q0 19 -6 26h20q6 -7 6 -26q0 -24 -13.5 -37.5t-37.5 -13.5q-21 0 -38 9t-32 20.5t-29 20.5t-29 9q-16 0 -25.5 -9.5t-9.5 -25.5q0 -12 7 -24h-19z
M474 230h-344l-88 -230h-20l269 700h22l269 -700h-20zM467 248l-165 431l-165 -431h330z" />
    <glyph glyph-name="Adieresis" unicode="&#xc4;" horiz-adv-x="604" 
d="M227 769q-11 0 -18.5 7.5t-7.5 18.5t7.5 18.5t18.5 7.5t18.5 -7.5t7.5 -18.5t-7.5 -18.5t-18.5 -7.5zM374 769q-11 0 -18.5 7.5t-7.5 18.5t7.5 18.5t18.5 7.5t18.5 -7.5t7.5 -18.5t-7.5 -18.5t-18.5 -7.5zM474 230h-344l-88 -230h-20l269 700h22l269 -700h-20zM467 248
l-165 431l-165 -431h330z" />
    <glyph glyph-name="Aring" unicode="&#xc5;" horiz-adv-x="604" 
d="M302 708q-38 0 -61.5 23t-24.5 63q1 38 24.5 62t61.5 24t61.5 -23t24.5 -63q-1 -38 -24.5 -62t-61.5 -24zM302 863q-32 0 -49 -18.5t-17 -50.5t17 -50.5t49 -18.5t49 18.5t17 50.5t-17 50.5t-49 18.5zM474 230h-344l-88 -230h-20l269 700h22l269 -700h-20zM467 248
l-165 431l-165 -431h330z" />
    <glyph glyph-name="AE" unicode="&#xc6;" horiz-adv-x="776" 
d="M295 700h441v-19h-411l117 -310h242v-19h-234l127 -333h159v-19h-172l-85 229h-350l-86 -229h-21zM471 247l-165 429l-170 -429h335z" />
    <glyph glyph-name="Ccedilla" unicode="&#xc7;" horiz-adv-x="599" 
d="M554 105q-30 -47 -80 -77t-125 -34l-14 -37q45 -4 60.5 -20.5t15.5 -42.5q0 -30 -19.5 -45.5t-54.5 -15.5q-43 0 -63 22l11 15q20 -19 53 -19q53 0 53 43q0 22 -17 34t-62 14l20 52q-62 0 -112.5 26.5t-86.5 73.5t-56 112t-20 143q0 83 19.5 149t56.5 112.5t89 71
t118 24.5q48 0 87 -12.5t67 -36.5t43.5 -58t15.5 -78q0 -16 -1.5 -28t-4.5 -27h-18q2 14 3.5 25.5t1.5 25.5q0 81 -52.5 126t-141.5 45q-61 0 -109.5 -23.5t-82.5 -67.5t-52.5 -107t-18.5 -141q0 -73 19 -134.5t53 -106.5t81 -70.5t104 -25.5q77 0 127.5 30t77.5 73z" />
    <glyph glyph-name="Egrave" unicode="&#xc8;" horiz-adv-x="533" 
d="M221 845h29l80 -102h-19zM100 700h390v-18h-370v-320h330v-18h-330v-326h370v-18h-390v700z" />
    <glyph glyph-name="Eacute" unicode="&#xc9;" horiz-adv-x="533" 
d="M330 845h28l-90 -102h-19zM100 700h390v-18h-370v-320h330v-18h-330v-326h370v-18h-390v700z" />
    <glyph glyph-name="Ecircumflex" unicode="&#xca;" horiz-adv-x="533" 
d="M287 845h24l87 -102h-22l-78 82l-77 -82h-21zM100 700h390v-18h-370v-320h330v-18h-330v-326h370v-18h-390v700z" />
    <glyph glyph-name="Edieresis" unicode="&#xcb;" horiz-adv-x="533" 
d="M224 769q-11 0 -18.5 7.5t-7.5 18.5t7.5 18.5t18.5 7.5t18.5 -7.5t7.5 -18.5t-7.5 -18.5t-18.5 -7.5zM371 769q-11 0 -18.5 7.5t-7.5 18.5t7.5 18.5t18.5 7.5t18.5 -7.5t7.5 -18.5t-7.5 -18.5t-18.5 -7.5zM100 700h390v-18h-370v-320h330v-18h-330v-326h370v-18h-390v700
z" />
    <glyph glyph-name="Igrave" unicode="&#xcc;" horiz-adv-x="220" 
d="M32 845h29l80 -102h-19zM100 700h20v-700h-20v700z" />
    <glyph glyph-name="Iacute" unicode="&#xcd;" horiz-adv-x="220" 
d="M141 845h28l-90 -102h-19zM100 700h20v-700h-20v700z" />
    <glyph glyph-name="Icircumflex" unicode="&#xce;" horiz-adv-x="220" 
d="M98 845h24l87 -102h-22l-78 82l-77 -82h-21zM100 700h20v-700h-20v700z" />
    <glyph glyph-name="Idieresis" unicode="&#xcf;" horiz-adv-x="220" 
d="M35 769q-11 0 -18.5 7.5t-7.5 18.5t7.5 18.5t18.5 7.5t18.5 -7.5t7.5 -18.5t-7.5 -18.5t-18.5 -7.5zM182 769q-11 0 -18.5 7.5t-7.5 18.5t7.5 18.5t18.5 7.5t18.5 -7.5t7.5 -18.5t-7.5 -18.5t-18.5 -7.5zM100 700h20v-700h-20v700z" />
    <glyph glyph-name="Eth" unicode="&#xd0;" horiz-adv-x="682" 
d="M273 700q76 0 140.5 -21.5t112 -65.5t74 -110.5t26.5 -155.5q0 -88 -25 -153.5t-70 -108.5t-109 -64t-142 -21h-172v342h-100v17h100v341h165zM280 18q72 0 131.5 19t103 58.5t67.5 102t24 149.5q0 89 -27 152.5t-72.5 104t-106 59.5t-127.5 19h-145v-323h100v-17h-100
v-324h152z" />
    <glyph glyph-name="Ntilde" unicode="&#xd1;" horiz-adv-x="670" 
d="M235 753q-3 4 -5 11t-2 13q0 24 14.5 38.5t40.5 14.5q18 0 33.5 -9t30.5 -20.5t30.5 -20.5t33.5 -9q14 0 22 9t8 24q0 19 -6 26h20q6 -7 6 -26q0 -24 -13.5 -37.5t-37.5 -13.5q-21 0 -38 9t-32 20.5t-29 20.5t-29 9q-16 0 -25.5 -9.5t-9.5 -25.5q0 -12 7 -24h-19z
M100 700h21l429 -666v666h20v-700h-22l-426 661l-2 4v-665h-20v700z" />
    <glyph glyph-name="Ograve" unicode="&#xd2;" horiz-adv-x="700" 
d="M272 845h29l80 -102h-19zM350 -6q-54 0 -106.5 18t-94 59.5t-66.5 109.5t-25 168t25 168t66.5 110t94 60.5t106.5 18.5t106.5 -18.5t94 -60.5t66.5 -110t25 -168t-25 -168t-66.5 -109.5t-94 -59.5t-106.5 -18zM350 12q51 0 100 17.5t87 57.5t61.5 104t23.5 158
t-23.5 158.5t-61.5 104.5t-87 58t-100 18t-100 -18t-87 -58t-61.5 -104.5t-23.5 -158.5t23.5 -158t61.5 -104t87 -57.5t100 -17.5z" />
    <glyph glyph-name="Oacute" unicode="&#xd3;" horiz-adv-x="700" 
d="M381 845h28l-90 -102h-19zM350 -6q-54 0 -106.5 18t-94 59.5t-66.5 109.5t-25 168t25 168t66.5 110t94 60.5t106.5 18.5t106.5 -18.5t94 -60.5t66.5 -110t25 -168t-25 -168t-66.5 -109.5t-94 -59.5t-106.5 -18zM350 12q51 0 100 17.5t87 57.5t61.5 104t23.5 158
t-23.5 158.5t-61.5 104.5t-87 58t-100 18t-100 -18t-87 -58t-61.5 -104.5t-23.5 -158.5t23.5 -158t61.5 -104t87 -57.5t100 -17.5z" />
    <glyph glyph-name="Ocircumflex" unicode="&#xd4;" horiz-adv-x="700" 
d="M338 845h24l87 -102h-22l-78 82l-77 -82h-21zM350 -6q-54 0 -106.5 18t-94 59.5t-66.5 109.5t-25 168t25 168t66.5 110t94 60.5t106.5 18.5t106.5 -18.5t94 -60.5t66.5 -110t25 -168t-25 -168t-66.5 -109.5t-94 -59.5t-106.5 -18zM350 12q51 0 100 17.5t87 57.5t61.5 104
t23.5 158t-23.5 158.5t-61.5 104.5t-87 58t-100 18t-100 -18t-87 -58t-61.5 -104.5t-23.5 -158.5t23.5 -158t61.5 -104t87 -57.5t100 -17.5z" />
    <glyph glyph-name="Otilde" unicode="&#xd5;" horiz-adv-x="700" 
d="M240 753q-3 4 -5 11t-2 13q0 24 14.5 38.5t40.5 14.5q18 0 33.5 -9t30.5 -20.5t30.5 -20.5t33.5 -9q14 0 22 9t8 24q0 19 -6 26h20q6 -7 6 -26q0 -24 -13.5 -37.5t-37.5 -13.5q-21 0 -38 9t-32 20.5t-29 20.5t-29 9q-16 0 -25.5 -9.5t-9.5 -25.5q0 -12 7 -24h-19zM350 -6
q-54 0 -106.5 18t-94 59.5t-66.5 109.5t-25 168t25 168t66.5 110t94 60.5t106.5 18.5t106.5 -18.5t94 -60.5t66.5 -110t25 -168t-25 -168t-66.5 -109.5t-94 -59.5t-106.5 -18zM350 12q51 0 100 17.5t87 57.5t61.5 104t23.5 158t-23.5 158.5t-61.5 104.5t-87 58t-100 18
t-100 -18t-87 -58t-61.5 -104.5t-23.5 -158.5t23.5 -158t61.5 -104t87 -57.5t100 -17.5z" />
    <glyph glyph-name="Odieresis" unicode="&#xd6;" horiz-adv-x="700" 
d="M275 769q-11 0 -18.5 7.5t-7.5 18.5t7.5 18.5t18.5 7.5t18.5 -7.5t7.5 -18.5t-7.5 -18.5t-18.5 -7.5zM422 769q-11 0 -18.5 7.5t-7.5 18.5t7.5 18.5t18.5 7.5t18.5 -7.5t7.5 -18.5t-7.5 -18.5t-18.5 -7.5zM350 -6q-54 0 -106.5 18t-94 59.5t-66.5 109.5t-25 168t25 168
t66.5 110t94 60.5t106.5 18.5t106.5 -18.5t94 -60.5t66.5 -110t25 -168t-25 -168t-66.5 -109.5t-94 -59.5t-106.5 -18zM350 12q51 0 100 17.5t87 57.5t61.5 104t23.5 158t-23.5 158.5t-61.5 104.5t-87 58t-100 18t-100 -18t-87 -58t-61.5 -104.5t-23.5 -158.5t23.5 -158
t61.5 -104t87 -57.5t100 -17.5z" />
    <glyph glyph-name="multiply" unicode="&#xd7;" horiz-adv-x="410" 
d="M72 135l120 120l-120 120l13 13l120 -120l120 120l13 -13l-120 -120l120 -120l-13 -13l-120 120l-120 -120z" />
    <glyph glyph-name="Oslash" unicode="&#xd8;" horiz-adv-x="700" 
d="M550 628q42 -42 67 -110.5t25 -168.5t-25 -168t-66.5 -109.5t-94 -59.5t-106.5 -18q-51 0 -99 15t-88 50l-51 -75h-22l60 88q-42 42 -67 109.5t-25 167.5t25 168t66.5 110t94 60.5t106.5 18.5q51 0 99 -15.5t88 -50.5l51 76h22zM78 349q0 -94 22.5 -157t60.5 -103
l364 535q-37 34 -82 49t-93 15q-51 0 -100 -18t-87 -58t-61.5 -104.5t-23.5 -158.5zM350 12q51 0 100 17.5t87 57.5t61.5 104t23.5 158t-23 157.5t-61 104.5l-364 -535q38 -34 83 -49t93 -15z" />
    <glyph glyph-name="Ugrave" unicode="&#xd9;" horiz-adv-x="672" 
d="M258 845h29l80 -102h-19zM336 -6q-54 0 -99.5 14t-77.5 47t-50 89t-18 140v416h20v-416q0 -79 16.5 -131t46.5 -83.5t71.5 -44.5t90.5 -13t90.5 13t71.5 44.5t47 83.5t17 131v416h19v-416q0 -84 -18 -140t-50 -89t-77.5 -47t-99.5 -14z" />
    <glyph glyph-name="Uacute" unicode="&#xda;" horiz-adv-x="672" 
d="M367 845h28l-90 -102h-19zM336 -6q-54 0 -99.5 14t-77.5 47t-50 89t-18 140v416h20v-416q0 -79 16.5 -131t46.5 -83.5t71.5 -44.5t90.5 -13t90.5 13t71.5 44.5t47 83.5t17 131v416h19v-416q0 -84 -18 -140t-50 -89t-77.5 -47t-99.5 -14z" />
    <glyph glyph-name="Ucircumflex" unicode="&#xdb;" horiz-adv-x="672" 
d="M324 845h24l87 -102h-22l-78 82l-77 -82h-21zM336 -6q-54 0 -99.5 14t-77.5 47t-50 89t-18 140v416h20v-416q0 -79 16.5 -131t46.5 -83.5t71.5 -44.5t90.5 -13t90.5 13t71.5 44.5t47 83.5t17 131v416h19v-416q0 -84 -18 -140t-50 -89t-77.5 -47t-99.5 -14z" />
    <glyph glyph-name="Udieresis" unicode="&#xdc;" horiz-adv-x="672" 
d="M261 769q-11 0 -18.5 7.5t-7.5 18.5t7.5 18.5t18.5 7.5t18.5 -7.5t7.5 -18.5t-7.5 -18.5t-18.5 -7.5zM408 769q-11 0 -18.5 7.5t-7.5 18.5t7.5 18.5t18.5 7.5t18.5 -7.5t7.5 -18.5t-7.5 -18.5t-18.5 -7.5zM336 -6q-54 0 -99.5 14t-77.5 47t-50 89t-18 140v416h20v-416
q0 -79 16.5 -131t46.5 -83.5t71.5 -44.5t90.5 -13t90.5 13t71.5 44.5t47 83.5t17 131v416h19v-416q0 -84 -18 -140t-50 -89t-77.5 -47t-99.5 -14z" />
    <glyph glyph-name="Yacute" unicode="&#xdd;" horiz-adv-x="566" 
d="M314 845h28l-90 -102h-19zM273 297l-243 403h24l229 -383l230 383h23l-243 -403v-297h-20v297z" />
    <glyph glyph-name="Thorn" unicode="&#xde;" horiz-adv-x="573" 
d="M100 700h20v-140h180q106 0 164 -51t58 -154q0 -102 -62 -151.5t-168 -49.5h-172v-154h-20v700zM292 172q106 0 158 48t52 135q0 86 -48.5 136.5t-153.5 50.5h-180v-370h172z" />
    <glyph glyph-name="germandbls" unicode="&#xdf;" horiz-adv-x="520" 
d="M330 -11q-44 0 -80 11.5t-73 50.5l13 14q29 -32 61 -45.5t79 -13.5q66 0 102.5 30.5t36.5 79.5q0 42 -17 64.5t-43 35.5t-56 21t-56 20.5t-43 34.5t-17 62q0 38 24 64t52.5 51.5t52 55.5t23.5 76q0 51 -35 82.5t-94 31.5q-73 0 -111 -43t-38 -128v-544h-18v465h-70v17h70
v62q0 91 43 139.5t124 48.5q68 0 107.5 -35.5t39.5 -95.5q0 -49 -23.5 -81t-52 -57.5t-52.5 -50t-24 -58.5q0 -35 17 -54t43 -30.5t56 -19.5t56 -23t43 -40.5t17 -70.5q0 -57 -42.5 -92t-114.5 -35z" />
    <glyph glyph-name="agrave" unicode="&#xe0;" horiz-adv-x="522" 
d="M180 710h26l86 -142h-22zM250 -11q-44 0 -80.5 16.5t-62.5 47.5t-40.5 77t-14.5 104q0 59 14 106.5t40 81t64.5 51.5t86.5 18q54 0 97.5 -27.5t63.5 -73.5v91h18v-409q0 -29 10 -42t33 -13v-17q-3 -1 -5.5 -1h-4.5q-24 0 -37.5 19t-13.5 54v34q-8 -24 -23.5 -45
t-37.5 -37t-49 -25.5t-58 -9.5zM250 6q30 0 57.5 10.5t50.5 29.5t38.5 46t21.5 59v205q-20 57 -63.5 87.5t-97.5 30.5q-44 0 -78.5 -17t-58.5 -48.5t-37 -76t-13 -98.5q0 -53 13.5 -95.5t37.5 -72t57 -45t72 -15.5z" />
    <glyph glyph-name="aacute" unicode="&#xe1;" horiz-adv-x="522" 
d="M311 710h26l-91 -142h-21zM250 -11q-44 0 -80.5 16.5t-62.5 47.5t-40.5 77t-14.5 104q0 59 14 106.5t40 81t64.5 51.5t86.5 18q54 0 97.5 -27.5t63.5 -73.5v91h18v-409q0 -29 10 -42t33 -13v-17q-3 -1 -5.5 -1h-4.5q-24 0 -37.5 19t-13.5 54v34q-8 -24 -23.5 -45
t-37.5 -37t-49 -25.5t-58 -9.5zM250 6q30 0 57.5 10.5t50.5 29.5t38.5 46t21.5 59v205q-20 57 -63.5 87.5t-97.5 30.5q-44 0 -78.5 -17t-58.5 -48.5t-37 -76t-13 -98.5q0 -53 13.5 -95.5t37.5 -72t57 -45t72 -15.5z" />
    <glyph glyph-name="acircumflex" unicode="&#xe2;" horiz-adv-x="522" 
d="M249 710h23l87 -142h-21l-78 124l-77 -124h-21zM250 -11q-44 0 -80.5 16.5t-62.5 47.5t-40.5 77t-14.5 104q0 59 14 106.5t40 81t64.5 51.5t86.5 18q54 0 97.5 -27.5t63.5 -73.5v91h18v-409q0 -29 10 -42t33 -13v-17q-3 -1 -5.5 -1h-4.5q-24 0 -37.5 19t-13.5 54v34
q-8 -24 -23.5 -45t-37.5 -37t-49 -25.5t-58 -9.5zM250 6q30 0 57.5 10.5t50.5 29.5t38.5 46t21.5 59v205q-20 57 -63.5 87.5t-97.5 30.5q-44 0 -78.5 -17t-58.5 -48.5t-37 -76t-13 -98.5q0 -53 13.5 -95.5t37.5 -72t57 -45t72 -15.5z" />
    <glyph glyph-name="atilde" unicode="&#xe3;" horiz-adv-x="522" 
d="M151 603q-3 4 -5 11t-2 13q0 24 14.5 38.5t40.5 14.5q19 0 34 -9.5t29.5 -20.5t30 -20.5t33.5 -9.5q31 0 31 34q0 19 -6 26h20q6 -7 6 -26q0 -24 -13.5 -37.5t-37.5 -13.5q-22 0 -38.5 9.5t-31 20.5t-28.5 20.5t-29 9.5q-16 0 -26 -9.5t-10 -26.5q0 -12 7 -24h-19z
M250 -11q-44 0 -80.5 16.5t-62.5 47.5t-40.5 77t-14.5 104q0 59 14 106.5t40 81t64.5 51.5t86.5 18q54 0 97.5 -27.5t63.5 -73.5v91h18v-409q0 -29 10 -42t33 -13v-17q-3 -1 -5.5 -1h-4.5q-24 0 -37.5 19t-13.5 54v34q-8 -24 -23.5 -45t-37.5 -37t-49 -25.5t-58 -9.5zM250 6
q30 0 57.5 10.5t50.5 29.5t38.5 46t21.5 59v205q-20 57 -63.5 87.5t-97.5 30.5q-44 0 -78.5 -17t-58.5 -48.5t-37 -76t-13 -98.5q0 -53 13.5 -95.5t37.5 -72t57 -45t72 -15.5z" />
    <glyph glyph-name="adieresis" unicode="&#xe4;" horiz-adv-x="522" 
d="M187 607q-11 0 -18.5 7.5t-7.5 18.5t7.5 18.5t18.5 7.5t18.5 -7.5t7.5 -18.5t-7.5 -18.5t-18.5 -7.5zM334 607q-11 0 -18.5 7.5t-7.5 18.5t7.5 18.5t18.5 7.5t18.5 -7.5t7.5 -18.5t-7.5 -18.5t-18.5 -7.5zM250 -11q-44 0 -80.5 16.5t-62.5 47.5t-40.5 77t-14.5 104
q0 59 14 106.5t40 81t64.5 51.5t86.5 18q54 0 97.5 -27.5t63.5 -73.5v91h18v-409q0 -29 10 -42t33 -13v-17q-3 -1 -5.5 -1h-4.5q-24 0 -37.5 19t-13.5 54v34q-8 -24 -23.5 -45t-37.5 -37t-49 -25.5t-58 -9.5zM250 6q30 0 57.5 10.5t50.5 29.5t38.5 46t21.5 59v205
q-20 57 -63.5 87.5t-97.5 30.5q-44 0 -78.5 -17t-58.5 -48.5t-37 -76t-13 -98.5q0 -53 13.5 -95.5t37.5 -72t57 -45t72 -15.5z" />
    <glyph glyph-name="aring" unicode="&#xe5;" horiz-adv-x="522" 
d="M261 531q-38 0 -63 25t-25 63t25 63t63 25t63 -25t25 -63t-25 -63t-63 -25zM261 549q32 0 50 19t18 51t-18 51t-50 19t-50 -19t-18 -51t18 -51t50 -19zM250 -11q-44 0 -80.5 16.5t-62.5 47.5t-40.5 77t-14.5 104q0 59 14 106.5t40 81t64.5 51.5t86.5 18q54 0 97.5 -27.5
t63.5 -73.5v91h18v-409q0 -29 10 -42t33 -13v-17q-3 -1 -5.5 -1h-4.5q-24 0 -37.5 19t-13.5 54v34q-8 -24 -23.5 -45t-37.5 -37t-49 -25.5t-58 -9.5zM250 6q30 0 57.5 10.5t50.5 29.5t38.5 46t21.5 59v205q-20 57 -63.5 87.5t-97.5 30.5q-44 0 -78.5 -17t-58.5 -48.5
t-37 -76t-13 -98.5q0 -53 13.5 -95.5t37.5 -72t57 -45t72 -15.5z" />
    <glyph glyph-name="ae" unicode="&#xe6;" horiz-adv-x="798" 
d="M397 261v-17q0 -58 14 -102.5t38.5 -74.5t58 -45.5t72.5 -15.5q51 0 89 20.5t61 52.5l14 -11q-25 -35 -66.5 -57t-97.5 -22q-72 0 -122.5 42.5t-69.5 123.5q-33 -85 -85 -123t-121 -38q-66 0 -102 30t-36 86q0 57 43.5 89.5t121.5 32.5h170v97q0 144 -147 144
q-69 0 -108 -32t-39 -87q0 -15 3 -27.5t8 -22.5h-18q-5 10 -8 23t-3 30q0 30 12 54.5t34 42t52 27.5t67 10q152 0 164 -139q23 66 70 102.5t110 36.5q85 0 129 -54t44 -159v-17h-352zM576 474q-37 0 -68 -14.5t-54 -40.5t-37 -62t-18 -79h332q0 40 -7.5 75.5t-25 62.5
t-47.5 42.5t-75 15.5zM182 11q72 0 121.5 42t75.5 121v41h-164q-75 0 -113 -27t-38 -78q0 -48 32 -73.5t86 -25.5z" />
    <glyph glyph-name="ccedilla" unicode="&#xe7;" horiz-adv-x="458" 
d="M257 6q54 0 87.5 20t53.5 52l15 -10q-20 -33 -57.5 -56t-98.5 -23l-12 -32q45 -4 60.5 -20.5t15.5 -42.5q0 -30 -19.5 -45.5t-54.5 -15.5q-43 0 -63 22l11 15q20 -19 53 -19q53 0 53 43q0 22 -17 34t-62 14l19 48q-86 6 -137.5 72t-51.5 179q0 60 15 106.5t41.5 78.5
t63 48.5t79.5 16.5q77 0 119.5 -37t42.5 -102q0 -12 -1.5 -24t-3.5 -18h-17q2 8 3 19t1 21q0 60 -38.5 92t-105.5 32q-39 0 -72 -15.5t-57.5 -45.5t-38 -73t-13.5 -99q0 -53 14 -96.5t39 -74t59.5 -47.5t74.5 -17z" />
    <glyph glyph-name="egrave" unicode="&#xe8;" horiz-adv-x="466" 
d="M241 568l-90 142h26l86 -142h-22zM417 68q-20 -29 -59 -54t-105 -25q-92 0 -146.5 60.5t-54.5 182.5q0 54 16 101.5t45.5 82.5t71 55t92.5 20q60 0 99.5 -27t39.5 -83q0 -49 -30 -81.5t-79 -52t-111 -28.5t-125 -13q8 -102 58 -151t124 -49q62 0 96.5 23t53.5 50z
M277 474q-45 0 -83 -18t-65.5 -50t-43 -74.5t-15.5 -92.5v-15q59 4 117.5 12t105.5 25.5t76 46t29 73.5q0 49 -35.5 71t-85.5 22z" />
    <glyph glyph-name="eacute" unicode="&#xe9;" horiz-adv-x="466" 
d="M217 568h-21l86 142h26zM417 68q-20 -29 -59 -54t-105 -25q-92 0 -146.5 60.5t-54.5 182.5q0 54 16 101.5t45.5 82.5t71 55t92.5 20q60 0 99.5 -27t39.5 -83q0 -49 -30 -81.5t-79 -52t-111 -28.5t-125 -13q8 -102 58 -151t124 -49q62 0 96.5 23t53.5 50zM277 474
q-45 0 -83 -18t-65.5 -50t-43 -74.5t-15.5 -92.5v-15q59 4 117.5 12t105.5 25.5t76 46t29 73.5q0 49 -35.5 71t-85.5 22z" />
    <glyph glyph-name="ecircumflex" unicode="&#xea;" horiz-adv-x="466" 
d="M154 568h-21l87 142h23l87 -142h-21l-78 124zM417 68q-20 -29 -59 -54t-105 -25q-92 0 -146.5 60.5t-54.5 182.5q0 54 16 101.5t45.5 82.5t71 55t92.5 20q60 0 99.5 -27t39.5 -83q0 -49 -30 -81.5t-79 -52t-111 -28.5t-125 -13q8 -102 58 -151t124 -49q62 0 96.5 23
t53.5 50zM277 474q-45 0 -83 -18t-65.5 -50t-43 -74.5t-15.5 -92.5v-15q59 4 117.5 12t105.5 25.5t76 46t29 73.5q0 49 -35.5 71t-85.5 22z" />
    <glyph glyph-name="edieresis" unicode="&#xeb;" horiz-adv-x="466" 
d="M158 607q-11 0 -18.5 7.5t-7.5 18.5t7.5 18.5t18.5 7.5t18.5 -7.5t7.5 -18.5t-7.5 -18.5t-18.5 -7.5zM305 607q-11 0 -18.5 7.5t-7.5 18.5t7.5 18.5t18.5 7.5t18.5 -7.5t7.5 -18.5t-7.5 -18.5t-18.5 -7.5zM417 68q-20 -29 -59 -54t-105 -25q-92 0 -146.5 60.5
t-54.5 182.5q0 54 16 101.5t45.5 82.5t71 55t92.5 20q60 0 99.5 -27t39.5 -83q0 -49 -30 -81.5t-79 -52t-111 -28.5t-125 -13q8 -102 58 -151t124 -49q62 0 96.5 23t53.5 50zM277 474q-45 0 -83 -18t-65.5 -50t-43 -74.5t-15.5 -92.5v-15q59 4 117.5 12t105.5 25.5t76 46
t29 73.5q0 49 -35.5 71t-85.5 22z" />
    <glyph glyph-name="igrave" unicode="&#xec;" horiz-adv-x="188" 
d="M15 710h26l86 -142h-22zM85 482h18v-482h-18v482z" />
    <glyph glyph-name="iacute" unicode="&#xed;" horiz-adv-x="188" 
d="M146 710h26l-91 -142h-21zM85 482h18v-482h-18v482z" />
    <glyph glyph-name="icircumflex" unicode="&#xee;" horiz-adv-x="188" 
d="M84 710h23l87 -142h-21l-78 124l-77 -124h-21zM85 482h18v-482h-18v482z" />
    <glyph glyph-name="idieresis" unicode="&#xef;" horiz-adv-x="188" 
d="M22 607q-11 0 -18.5 7.5t-7.5 18.5t7.5 18.5t18.5 7.5t18.5 -7.5t7.5 -18.5t-7.5 -18.5t-18.5 -7.5zM169 607q-11 0 -18.5 7.5t-7.5 18.5t7.5 18.5t18.5 7.5t18.5 -7.5t7.5 -18.5t-7.5 -18.5t-18.5 -7.5zM85 482h18v-482h-18v482z" />
    <glyph glyph-name="eth" unicode="&#xf0;" horiz-adv-x="523" 
d="M352 624q51 -54 80.5 -131.5t29.5 -168.5q0 -172 -51.5 -254t-159.5 -82q-45 0 -82 16.5t-63.5 47.5t-40.5 74t-14 97q0 51 14.5 93t41.5 72t64.5 46.5t83.5 16.5q66 0 113 -32.5t76 -82.5q-1 81 -29.5 154t-78.5 125l-132 -83l-8 14l128 80q-36 35 -80 54.5t-95 20.5v18
q54 0 102.5 -22t88.5 -61l102 64l8 -14zM253 5q191 0 191 306q-29 54 -76 88.5t-113 34.5q-41 0 -75.5 -15.5t-59 -43.5t-38 -66.5t-13.5 -85.5q0 -49 13.5 -89.5t37.5 -69t58 -44t75 -15.5z" />
    <glyph glyph-name="ntilde" unicode="&#xf1;" horiz-adv-x="516" 
d="M148 603q-3 4 -5 11t-2 13q0 24 14.5 38.5t40.5 14.5q19 0 34 -9.5t29.5 -20.5t30 -20.5t33.5 -9.5q31 0 31 34q0 19 -6 26h20q6 -7 6 -26q0 -24 -13.5 -37.5t-37.5 -13.5q-22 0 -38.5 9.5t-31 20.5t-28.5 20.5t-29 9.5q-16 0 -26 -9.5t-10 -26.5q0 -12 7 -24h-19z
M471 -1q-28 0 -39.5 17t-11.5 54v236q0 78 -38 123t-111 45q-39 0 -69.5 -15.5t-52.5 -42.5t-33.5 -63t-11.5 -76v-277h-18v408q0 40 -10 50t-33 10v15q4 1 10 1q28 0 39.5 -17t11.5 -54v-59q14 63 59 100t109 37q79 0 122.5 -48.5t43.5 -136.5v-231q0 -40 10 -50t33 -10
v-15q-5 -1 -6.5 -1h-3.5z" />
    <glyph glyph-name="ograve" unicode="&#xf2;" horiz-adv-x="514" 
d="M176 710h26l86 -142h-22zM255 -11q-43 0 -80.5 15.5t-64.5 47t-42.5 78.5t-15.5 110t16.5 110t44.5 78.5t65.5 47t80.5 15.5q44 0 81 -15.5t64 -47t42.5 -78.5t15.5 -110t-16 -110t-44 -78.5t-65.5 -47t-81.5 -15.5zM255 6q37 0 71 14t60.5 43t42 73t15.5 104t-15 104
t-40.5 73t-59 43t-70.5 14t-71 -14t-60.5 -43t-42 -73t-15.5 -104t15 -104t40.5 -73t59 -43t70.5 -14z" />
    <glyph glyph-name="oacute" unicode="&#xf3;" horiz-adv-x="514" 
d="M307 710h26l-91 -142h-21zM255 -11q-43 0 -80.5 15.5t-64.5 47t-42.5 78.5t-15.5 110t16.5 110t44.5 78.5t65.5 47t80.5 15.5q44 0 81 -15.5t64 -47t42.5 -78.5t15.5 -110t-16 -110t-44 -78.5t-65.5 -47t-81.5 -15.5zM255 6q37 0 71 14t60.5 43t42 73t15.5 104t-15 104
t-40.5 73t-59 43t-70.5 14t-71 -14t-60.5 -43t-42 -73t-15.5 -104t15 -104t40.5 -73t59 -43t70.5 -14z" />
    <glyph glyph-name="ocircumflex" unicode="&#xf4;" horiz-adv-x="514" 
d="M245 710h23l87 -142h-21l-78 124l-77 -124h-21zM255 -11q-43 0 -80.5 15.5t-64.5 47t-42.5 78.5t-15.5 110t16.5 110t44.5 78.5t65.5 47t80.5 15.5q44 0 81 -15.5t64 -47t42.5 -78.5t15.5 -110t-16 -110t-44 -78.5t-65.5 -47t-81.5 -15.5zM255 6q37 0 71 14t60.5 43
t42 73t15.5 104t-15 104t-40.5 73t-59 43t-70.5 14t-71 -14t-60.5 -43t-42 -73t-15.5 -104t15 -104t40.5 -73t59 -43t70.5 -14z" />
    <glyph glyph-name="otilde" unicode="&#xf5;" horiz-adv-x="514" 
d="M147 603q-3 4 -5 11t-2 13q0 24 14.5 38.5t40.5 14.5q19 0 34 -9.5t29.5 -20.5t30 -20.5t33.5 -9.5q31 0 31 34q0 19 -6 26h20q6 -7 6 -26q0 -24 -13.5 -37.5t-37.5 -13.5q-22 0 -38.5 9.5t-31 20.5t-28.5 20.5t-29 9.5q-16 0 -26 -9.5t-10 -26.5q0 -12 7 -24h-19z
M255 -11q-43 0 -80.5 15.5t-64.5 47t-42.5 78.5t-15.5 110t16.5 110t44.5 78.5t65.5 47t80.5 15.5q44 0 81 -15.5t64 -47t42.5 -78.5t15.5 -110t-16 -110t-44 -78.5t-65.5 -47t-81.5 -15.5zM255 6q37 0 71 14t60.5 43t42 73t15.5 104t-15 104t-40.5 73t-59 43t-70.5 14
t-71 -14t-60.5 -43t-42 -73t-15.5 -104t15 -104t40.5 -73t59 -43t70.5 -14z" />
    <glyph glyph-name="odieresis" unicode="&#xf6;" horiz-adv-x="514" 
d="M183 607q-11 0 -18.5 7.5t-7.5 18.5t7.5 18.5t18.5 7.5t18.5 -7.5t7.5 -18.5t-7.5 -18.5t-18.5 -7.5zM330 607q-11 0 -18.5 7.5t-7.5 18.5t7.5 18.5t18.5 7.5t18.5 -7.5t7.5 -18.5t-7.5 -18.5t-18.5 -7.5zM255 -11q-43 0 -80.5 15.5t-64.5 47t-42.5 78.5t-15.5 110
t16.5 110t44.5 78.5t65.5 47t80.5 15.5q44 0 81 -15.5t64 -47t42.5 -78.5t15.5 -110t-16 -110t-44 -78.5t-65.5 -47t-81.5 -15.5zM255 6q37 0 71 14t60.5 43t42 73t15.5 104t-15 104t-40.5 73t-59 43t-70.5 14t-71 -14t-60.5 -43t-42 -73t-15.5 -104t15 -104t40.5 -73
t59 -43t70.5 -14z" />
    <glyph glyph-name="divide" unicode="&#xf7;" horiz-adv-x="470" 
d="M237 345q-11 0 -18.5 7.5t-7.5 18.5t7.5 18.5t18.5 7.5t18.5 -7.5t7.5 -18.5t-7.5 -18.5t-18.5 -7.5zM73 269h324v-18h-324v18zM240 116q-11 0 -20 9t-9 20t9 20t20 9t20 -9t9 -20t-9 -20t-20 -9z" />
    <glyph glyph-name="oslash" unicode="&#xf8;" horiz-adv-x="514" 
d="M394 439q32 -32 50 -81t18 -118q0 -63 -16 -110t-44 -78.5t-65.5 -47t-81.5 -15.5q-35 0 -66.5 10.5t-56.5 31.5l-33 -51h-20l40 62q-32 32 -49.5 81t-17.5 117q0 63 16.5 110t44.5 78.5t65.5 47t80.5 15.5q71 0 123 -41l33 52h20zM70 240q0 -63 16 -107.5t44 -73.5
l241 375q-24 20 -52.5 30t-59.5 10q-37 0 -71 -14t-60.5 -43t-42 -73t-15.5 -104zM255 6q37 0 71 14t60.5 43t42 73t15.5 104q0 63 -16.5 108t-43.5 74l-242 -375q24 -21 52.5 -31t60.5 -10z" />
    <glyph glyph-name="ugrave" unicode="&#xf9;" horiz-adv-x="508" 
d="M173 710h26l86 -142h-22zM229 -11q-33 0 -61.5 8.5t-48.5 27.5t-31.5 50t-11.5 76v331h18v-331q0 -79 38 -112t97 -33q41 0 73.5 18.5t55 46t34.5 59t12 56.5v296h18v-407q0 -40 10 -50t33 -10v-15q-5 -1 -6.5 -1h-3.5q-28 0 -39.5 17t-11.5 54v51q-10 -26 -26.5 -50
t-38.5 -42t-49.5 -29t-60.5 -11z" />
    <glyph glyph-name="uacute" unicode="&#xfa;" horiz-adv-x="508" 
d="M304 710h26l-91 -142h-21zM229 -11q-33 0 -61.5 8.5t-48.5 27.5t-31.5 50t-11.5 76v331h18v-331q0 -79 38 -112t97 -33q41 0 73.5 18.5t55 46t34.5 59t12 56.5v296h18v-407q0 -40 10 -50t33 -10v-15q-5 -1 -6.5 -1h-3.5q-28 0 -39.5 17t-11.5 54v51q-10 -26 -26.5 -50
t-38.5 -42t-49.5 -29t-60.5 -11z" />
    <glyph glyph-name="ucircumflex" unicode="&#xfb;" horiz-adv-x="508" 
d="M242 710h23l87 -142h-21l-78 124l-77 -124h-21zM229 -11q-33 0 -61.5 8.5t-48.5 27.5t-31.5 50t-11.5 76v331h18v-331q0 -79 38 -112t97 -33q41 0 73.5 18.5t55 46t34.5 59t12 56.5v296h18v-407q0 -40 10 -50t33 -10v-15q-5 -1 -6.5 -1h-3.5q-28 0 -39.5 17t-11.5 54v51
q-10 -26 -26.5 -50t-38.5 -42t-49.5 -29t-60.5 -11z" />
    <glyph glyph-name="udieresis" unicode="&#xfc;" horiz-adv-x="508" 
d="M180 607q-11 0 -18.5 7.5t-7.5 18.5t7.5 18.5t18.5 7.5t18.5 -7.5t7.5 -18.5t-7.5 -18.5t-18.5 -7.5zM327 607q-11 0 -18.5 7.5t-7.5 18.5t7.5 18.5t18.5 7.5t18.5 -7.5t7.5 -18.5t-7.5 -18.5t-18.5 -7.5zM229 -11q-33 0 -61.5 8.5t-48.5 27.5t-31.5 50t-11.5 76v331h18
v-331q0 -79 38 -112t97 -33q41 0 73.5 18.5t55 46t34.5 59t12 56.5v296h18v-407q0 -40 10 -50t33 -10v-15q-5 -1 -6.5 -1h-3.5q-28 0 -39.5 17t-11.5 54v51q-10 -26 -26.5 -50t-38.5 -42t-49.5 -29t-60.5 -11z" />
    <glyph glyph-name="yacute" unicode="&#xfd;" horiz-adv-x="503" 
d="M301 710h26l-91 -142h-21zM246 -247q-73 0 -114.5 27t-58.5 69l15 8q15 -37 52.5 -62t105.5 -25q73 0 115.5 42t42.5 114v202q-13 -62 -58.5 -99.5t-105.5 -37.5q-164 0 -164 165v326h18v-326q0 -148 146 -148q35 0 64.5 15t52 40.5t35 60.5t12.5 75v283h18v-565
q-3 -77 -50 -120.5t-126 -43.5z" />
    <glyph glyph-name="thorn" unicode="&#xfe;" horiz-adv-x="514" 
d="M81 726h18v-352q18 46 60.5 80t109.5 34q88 0 140.5 -63t52.5 -178q0 -58 -13.5 -105t-40 -80t-64 -50.5t-85.5 -17.5q-54 0 -96 26t-64 72v-336h-18v970zM259 11q43 0 77 17t58 48t37 74.5t13 96.5q0 52 -13 93.5t-36 70.5t-55 44.5t-71 15.5q-32 0 -60.5 -10.5t-51 -29
t-37.5 -44.5t-21 -57v-203q20 -54 63.5 -85t96.5 -31z" />
    <glyph glyph-name="ydieresis" unicode="&#xff;" horiz-adv-x="503" 
d="M177 607q-11 0 -18.5 7.5t-7.5 18.5t7.5 18.5t18.5 7.5t18.5 -7.5t7.5 -18.5t-7.5 -18.5t-18.5 -7.5zM324 607q-11 0 -18.5 7.5t-7.5 18.5t7.5 18.5t18.5 7.5t18.5 -7.5t7.5 -18.5t-7.5 -18.5t-18.5 -7.5zM246 -247q-73 0 -114.5 27t-58.5 69l15 8q15 -37 52.5 -62
t105.5 -25q73 0 115.5 42t42.5 114v202q-13 -62 -58.5 -99.5t-105.5 -37.5q-164 0 -164 165v326h18v-326q0 -148 146 -148q35 0 64.5 15t52 40.5t35 60.5t12.5 75v283h18v-565q-3 -77 -50 -120.5t-126 -43.5z" />
    <glyph glyph-name="Amacron" unicode="&#x100;" horiz-adv-x="604" 
d="M412 777h-220v19h220v-19zM474 230h-344l-88 -230h-20l269 700h22l269 -700h-20zM467 248l-165 431l-165 -431h330z" />
    <glyph glyph-name="amacron" unicode="&#x101;" horiz-adv-x="522" 
d="M151 647h220v-18h-220v18zM250 -11q-44 0 -80.5 16.5t-62.5 47.5t-40.5 77t-14.5 104q0 59 14 106.5t40 81t64.5 51.5t86.5 18q54 0 97.5 -27.5t63.5 -73.5v91h18v-409q0 -29 10 -42t33 -13v-17q-3 -1 -5.5 -1h-4.5q-24 0 -37.5 19t-13.5 54v34q-8 -24 -23.5 -45
t-37.5 -37t-49 -25.5t-58 -9.5zM250 6q30 0 57.5 10.5t50.5 29.5t38.5 46t21.5 59v205q-20 57 -63.5 87.5t-97.5 30.5q-44 0 -78.5 -17t-58.5 -48.5t-37 -76t-13 -98.5q0 -53 13.5 -95.5t37.5 -72t57 -45t72 -15.5z" />
    <glyph glyph-name="Abreve" unicode="&#x102;" horiz-adv-x="604" 
d="M302 749q-39 0 -63 23.5t-24 63.5h20q0 -30 17.5 -48.5t49.5 -18.5t49.5 18.5t17.5 48.5h20q0 -40 -24 -63.5t-63 -23.5zM474 230h-344l-88 -230h-20l269 700h22l269 -700h-20zM467 248l-165 431l-165 -431h330z" />
    <glyph glyph-name="abreve" unicode="&#x103;" horiz-adv-x="522" 
d="M261 579q-44 0 -70 25.5t-26 81.5h20q0 -47 20 -67t56 -21t56 20.5t20 67.5h20q0 -55 -26 -81t-70 -26zM250 -11q-44 0 -80.5 16.5t-62.5 47.5t-40.5 77t-14.5 104q0 59 14 106.5t40 81t64.5 51.5t86.5 18q54 0 97.5 -27.5t63.5 -73.5v91h18v-409q0 -29 10 -42t33 -13
v-17q-3 -1 -5.5 -1h-4.5q-24 0 -37.5 19t-13.5 54v34q-8 -24 -23.5 -45t-37.5 -37t-49 -25.5t-58 -9.5zM250 6q30 0 57.5 10.5t50.5 29.5t38.5 46t21.5 59v205q-20 57 -63.5 87.5t-97.5 30.5q-44 0 -78.5 -17t-58.5 -48.5t-37 -76t-13 -98.5q0 -53 13.5 -95.5t37.5 -72
t57 -45t72 -15.5z" />
    <glyph glyph-name="Aogonek" unicode="&#x104;" horiz-adv-x="604" 
d="M586 -144q-7 -7 -19.5 -12.5t-29.5 -5.5q-33 0 -52 17t-19 48q0 40 26 67.5t67 38.5l-85 221h-344l-88 -230h-20l269 700h22l269 -700h-7q-39 -9 -64 -33.5t-25 -59.5q0 -52 52 -52q14 0 22.5 3.5t16.5 10.5zM467 248l-165 431l-165 -431h330z" />
    <glyph glyph-name="aogonek" unicode="&#x105;" horiz-adv-x="522" 
d="M490 -144q-7 -7 -19.5 -12.5t-29.5 -5.5q-33 0 -52 17t-19 48q0 35 21.5 61.5t55.5 39.5q-29 16 -29 68v34q-8 -24 -23.5 -45t-37.5 -37t-49 -25.5t-58 -9.5q-44 0 -80.5 16.5t-62.5 47.5t-40.5 77t-14.5 104q0 59 14 106.5t40 81t64.5 51.5t86.5 18q54 0 97.5 -27.5
t63.5 -73.5v91h18v-409q0 -29 10 -42t33 -13v-17h-1q-38 -9 -63 -33.5t-25 -59.5q0 -52 52 -52q14 0 22.5 3.5t16.5 10.5zM418 356q-20 57 -63.5 87.5t-97.5 30.5q-44 0 -78.5 -17t-58.5 -48.5t-37 -76t-13 -98.5q0 -53 13.5 -95.5t37.5 -72t57 -45t72 -15.5q30 0 57.5 10.5
t50.5 29.5t38.5 46t21.5 59v205z" />
    <glyph glyph-name="Cacute" unicode="&#x106;" horiz-adv-x="599" 
d="M364 845h28l-90 -102h-19zM334 -6q-62 0 -113 26t-87.5 73.5t-56.5 112.5t-20 143q0 83 19.5 149t56.5 112.5t89 71t118 24.5q48 0 87 -12.5t67 -36.5t43.5 -58t15.5 -78q0 -16 -1.5 -28t-4.5 -27h-18q2 14 3.5 25.5t1.5 25.5q0 81 -52.5 126t-141.5 45
q-61 0 -109.5 -23.5t-82.5 -67.5t-52.5 -107t-18.5 -141q0 -73 19 -134.5t53 -106.5t81 -70.5t104 -25.5q77 0 127.5 30t77.5 73l15 -10q-32 -49 -85.5 -80t-134.5 -31z" />
    <glyph glyph-name="cacute" unicode="&#x107;" horiz-adv-x="458" 
d="M297 710h26l-91 -142h-21zM257 -11q-46 0 -84 17.5t-65 50t-41.5 79t-14.5 105.5q0 60 15 106.5t41.5 78.5t63 48.5t79.5 16.5q77 0 119.5 -37t42.5 -102q0 -12 -1.5 -24t-3.5 -18h-17q2 8 3 19t1 21q0 60 -38.5 92t-105.5 32q-39 0 -72 -15.5t-57.5 -45.5t-38 -73
t-13.5 -99q0 -53 14 -96.5t39 -74t59.5 -47.5t74.5 -17q54 0 87.5 20t53.5 52l15 -10q-20 -33 -57.5 -56t-98.5 -23z" />
    <glyph glyph-name="Ccircumflex" unicode="&#x108;" horiz-adv-x="599" 
d="M321 845h24l87 -102h-22l-78 82l-77 -82h-21zM334 -6q-62 0 -113 26t-87.5 73.5t-56.5 112.5t-20 143q0 83 19.5 149t56.5 112.5t89 71t118 24.5q48 0 87 -12.5t67 -36.5t43.5 -58t15.5 -78q0 -16 -1.5 -28t-4.5 -27h-18q2 14 3.5 25.5t1.5 25.5q0 81 -52.5 126
t-141.5 45q-61 0 -109.5 -23.5t-82.5 -67.5t-52.5 -107t-18.5 -141q0 -73 19 -134.5t53 -106.5t81 -70.5t104 -25.5q77 0 127.5 30t77.5 73l15 -10q-32 -49 -85.5 -80t-134.5 -31z" />
    <glyph glyph-name="ccircumflex" unicode="&#x109;" horiz-adv-x="458" 
d="M235 710h23l87 -142h-21l-78 124l-77 -124h-21zM257 -11q-46 0 -84 17.5t-65 50t-41.5 79t-14.5 105.5q0 60 15 106.5t41.5 78.5t63 48.5t79.5 16.5q77 0 119.5 -37t42.5 -102q0 -12 -1.5 -24t-3.5 -18h-17q2 8 3 19t1 21q0 60 -38.5 92t-105.5 32q-39 0 -72 -15.5
t-57.5 -45.5t-38 -73t-13.5 -99q0 -53 14 -96.5t39 -74t59.5 -47.5t74.5 -17q54 0 87.5 20t53.5 52l15 -10q-20 -33 -57.5 -56t-98.5 -23z" />
    <glyph glyph-name="Cdotaccent" unicode="&#x10a;" horiz-adv-x="599" 
d="M333 769q-11 0 -18.5 7.5t-7.5 18.5t7.5 18.5t18.5 7.5t18.5 -7.5t7.5 -18.5t-7.5 -18.5t-18.5 -7.5zM334 -6q-62 0 -113 26t-87.5 73.5t-56.5 112.5t-20 143q0 83 19.5 149t56.5 112.5t89 71t118 24.5q48 0 87 -12.5t67 -36.5t43.5 -58t15.5 -78q0 -16 -1.5 -28
t-4.5 -27h-18q2 14 3.5 25.5t1.5 25.5q0 81 -52.5 126t-141.5 45q-61 0 -109.5 -23.5t-82.5 -67.5t-52.5 -107t-18.5 -141q0 -73 19 -134.5t53 -106.5t81 -70.5t104 -25.5q77 0 127.5 30t77.5 73l15 -10q-32 -49 -85.5 -80t-134.5 -31z" />
    <glyph glyph-name="cdotaccent" unicode="&#x10b;" horiz-adv-x="458" 
d="M247 607q-11 0 -19 8t-8 19t8 19t19 8t19 -8t8 -19t-8 -19t-19 -8zM257 -11q-46 0 -84 17.5t-65 50t-41.5 79t-14.5 105.5q0 60 15 106.5t41.5 78.5t63 48.5t79.5 16.5q77 0 119.5 -37t42.5 -102q0 -12 -1.5 -24t-3.5 -18h-17q2 8 3 19t1 21q0 60 -38.5 92t-105.5 32
q-39 0 -72 -15.5t-57.5 -45.5t-38 -73t-13.5 -99q0 -53 14 -96.5t39 -74t59.5 -47.5t74.5 -17q54 0 87.5 20t53.5 52l15 -10q-20 -33 -57.5 -56t-98.5 -23z" />
    <glyph glyph-name="Ccaron" unicode="&#x10c;" horiz-adv-x="599" 
d="M233 845h22l77 -82l78 82h21l-87 -102h-24zM334 -6q-62 0 -113 26t-87.5 73.5t-56.5 112.5t-20 143q0 83 19.5 149t56.5 112.5t89 71t118 24.5q48 0 87 -12.5t67 -36.5t43.5 -58t15.5 -78q0 -16 -1.5 -28t-4.5 -27h-18q2 14 3.5 25.5t1.5 25.5q0 81 -52.5 126t-141.5 45
q-61 0 -109.5 -23.5t-82.5 -67.5t-52.5 -107t-18.5 -141q0 -73 19 -134.5t53 -106.5t81 -70.5t104 -25.5q77 0 127.5 30t77.5 73l15 -10q-32 -49 -85.5 -80t-134.5 -31z" />
    <glyph glyph-name="ccaron" unicode="&#x10d;" horiz-adv-x="458" 
d="M148 710h21l78 -125l77 125h21l-88 -142h-23zM257 -11q-46 0 -84 17.5t-65 50t-41.5 79t-14.5 105.5q0 60 15 106.5t41.5 78.5t63 48.5t79.5 16.5q77 0 119.5 -37t42.5 -102q0 -12 -1.5 -24t-3.5 -18h-17q2 8 3 19t1 21q0 60 -38.5 92t-105.5 32q-39 0 -72 -15.5
t-57.5 -45.5t-38 -73t-13.5 -99q0 -53 14 -96.5t39 -74t59.5 -47.5t74.5 -17q54 0 87.5 20t53.5 52l15 -10q-20 -33 -57.5 -56t-98.5 -23z" />
    <glyph glyph-name="Dcaron" unicode="&#x10e;" horiz-adv-x="674" 
d="M227 845h22l77 -82l78 82h21l-87 -102h-24zM100 700h165q76 0 140.5 -21.5t112 -65.5t74 -110.5t26.5 -155.5q0 -88 -25 -153.5t-70 -108.5t-109 -64t-142 -21h-172v700zM272 18q72 0 131.5 19t103 58.5t67.5 102t24 149.5q0 89 -27 152.5t-72.5 104t-106 59.5t-127.5 19
h-145v-664h152z" />
    <glyph glyph-name="dcaron" unicode="&#x10f;" horiz-adv-x="523" 
d="M480 615q20 12 29 25.5t9 33.5q-16 1 -22.5 9.5t-6.5 19.5q0 10 7.5 18t19.5 8q28 0 28 -36q0 -35 -17.5 -58.5t-37.5 -33.5zM250 -11q-44 0 -80.5 16.5t-62.5 47.5t-40.5 77t-14.5 104q0 59 14 106.5t40 81t64.5 51.5t86.5 18q54 0 97.5 -27.5t63.5 -73.5v336h18v-654
q0 -29 10 -42t33 -13v-17q-3 -1 -5.5 -1h-4.5q-24 0 -37.5 19t-13.5 54v34q-9 -23 -24.5 -44.5t-37 -37.5t-48.5 -25.5t-58 -9.5zM250 6q30 0 57.5 10.5t50.5 29.5t38.5 46t21.5 59v205q-20 57 -63.5 87.5t-97.5 30.5q-44 0 -78.5 -17t-58.5 -48.5t-37 -76t-13 -98.5
q0 -53 13.5 -95.5t37.5 -72t57 -45t72 -15.5z" />
    <glyph glyph-name="Dcroat" unicode="&#x110;" horiz-adv-x="682" 
d="M273 700q76 0 140.5 -21.5t112 -65.5t74 -110.5t26.5 -155.5q0 -88 -25 -153.5t-70 -108.5t-109 -64t-142 -21h-172v342h-100v17h100v341h165zM280 18q72 0 131.5 19t103 58.5t67.5 102t24 149.5q0 89 -27 152.5t-72.5 104t-106 59.5t-127.5 19h-145v-323h100v-17h-100
v-324h152z" />
    <glyph glyph-name="dcroat" unicode="&#x111;" horiz-adv-x="523" 
d="M436 609v-537q0 -29 10 -42t33 -13v-17q-3 -1 -5.5 -1h-4.5q-24 0 -37.5 19t-13.5 54v34q-9 -23 -24.5 -44.5t-37 -37.5t-48.5 -25.5t-58 -9.5q-44 0 -80.5 16.5t-62.5 47.5t-40.5 77t-14.5 104q0 59 14 106.5t40 81t64.5 51.5t86.5 18q54 0 97.5 -27.5t63.5 -73.5v219
h-125v17h125v100h18v-100h77v-17h-77zM418 356q-20 57 -63.5 87.5t-97.5 30.5q-44 0 -78.5 -17t-58.5 -48.5t-37 -76t-13 -98.5q0 -53 13.5 -95.5t37.5 -72t57 -45t72 -15.5q30 0 57.5 10.5t50.5 29.5t38.5 46t21.5 59v205z" />
    <glyph glyph-name="Emacron" unicode="&#x112;" horiz-adv-x="533" 
d="M189 796h220v-19h-220v19zM100 700h390v-18h-370v-320h330v-18h-330v-326h370v-18h-390v700z" />
    <glyph glyph-name="emacron" unicode="&#x113;" horiz-adv-x="466" 
d="M342 629h-220v18h220v-18zM417 68q-20 -29 -59 -54t-105 -25q-92 0 -146.5 60.5t-54.5 182.5q0 54 16 101.5t45.5 82.5t71 55t92.5 20q60 0 99.5 -27t39.5 -83q0 -49 -30 -81.5t-79 -52t-111 -28.5t-125 -13q8 -102 58 -151t124 -49q62 0 96.5 23t53.5 50zM277 474
q-45 0 -83 -18t-65.5 -50t-43 -74.5t-15.5 -92.5v-15q59 4 117.5 12t105.5 25.5t76 46t29 73.5q0 49 -35.5 71t-85.5 22z" />
    <glyph glyph-name="Ebreve" unicode="&#x114;" horiz-adv-x="533" 
d="M299 749q-39 0 -63 23.5t-24 63.5h20q0 -30 17.5 -48.5t49.5 -18.5t49.5 18.5t17.5 48.5h20q0 -40 -24 -63.5t-63 -23.5zM100 700h390v-18h-370v-320h330v-18h-330v-326h370v-18h-390v700z" />
    <glyph glyph-name="ebreve" unicode="&#x115;" horiz-adv-x="466" 
d="M232 579q-44 0 -70 25.5t-26 81.5h20q0 -47 20 -67t56 -21t56 20.5t20 67.5h20q0 -55 -26 -81t-70 -26zM417 68q-20 -29 -59 -54t-105 -25q-92 0 -146.5 60.5t-54.5 182.5q0 54 16 101.5t45.5 82.5t71 55t92.5 20q60 0 99.5 -27t39.5 -83q0 -49 -30 -81.5t-79 -52
t-111 -28.5t-125 -13q8 -102 58 -151t124 -49q62 0 96.5 23t53.5 50zM277 474q-45 0 -83 -18t-65.5 -50t-43 -74.5t-15.5 -92.5v-15q59 4 117.5 12t105.5 25.5t76 46t29 73.5q0 49 -35.5 71t-85.5 22z" />
    <glyph glyph-name="Edotaccent" unicode="&#x116;" horiz-adv-x="533" 
d="M299 769q-11 0 -18.5 7.5t-7.5 18.5t7.5 18.5t18.5 7.5t18.5 -7.5t7.5 -18.5t-7.5 -18.5t-18.5 -7.5zM100 700h390v-18h-370v-320h330v-18h-330v-326h370v-18h-390v700z" />
    <glyph glyph-name="edotaccent" unicode="&#x117;" horiz-adv-x="466" 
d="M232 607q-11 0 -19 8t-8 19t8 19t19 8t19 -8t8 -19t-8 -19t-19 -8zM417 68q-20 -29 -59 -54t-105 -25q-92 0 -146.5 60.5t-54.5 182.5q0 54 16 101.5t45.5 82.5t71 55t92.5 20q60 0 99.5 -27t39.5 -83q0 -49 -30 -81.5t-79 -52t-111 -28.5t-125 -13q8 -102 58 -151
t124 -49q62 0 96.5 23t53.5 50zM277 474q-45 0 -83 -18t-65.5 -50t-43 -74.5t-15.5 -92.5v-15q59 4 117.5 12t105.5 25.5t76 46t29 73.5q0 49 -35.5 71t-85.5 22z" />
    <glyph glyph-name="Eogonek" unicode="&#x118;" horiz-adv-x="533" 
d="M501 -144q-7 -7 -19.5 -12.5t-29.5 -5.5q-33 0 -52 17t-19 48q0 33 18.5 58t49.5 39h-349v700h390v-18h-370v-320h330v-18h-330v-326h370v-18q-39 -9 -64 -33.5t-25 -59.5q0 -52 52 -52q14 0 22.5 3.5t16.5 10.5z" />
    <glyph glyph-name="eogonek" unicode="&#x119;" horiz-adv-x="466" 
d="M302 -6q-31 -12 -49.5 -34.5t-18.5 -52.5q0 -52 52 -52q14 0 22.5 3.5t16.5 10.5l9 -13q-7 -7 -19.5 -12.5t-29.5 -5.5q-33 0 -52 17t-19 48q0 27 13 49t35 37h-9q-92 0 -146.5 60.5t-54.5 182.5q0 54 16 101.5t45.5 82.5t71 55t92.5 20q60 0 99.5 -27t39.5 -83
q0 -49 -30 -81.5t-79 -52t-111 -28.5t-125 -13q8 -102 58 -151t124 -49q62 0 96.5 23t53.5 50l14 -11q-17 -23 -44 -44.5t-71 -29.5zM277 474q-45 0 -83 -18t-65.5 -50t-43 -74.5t-15.5 -92.5v-15q59 4 117.5 12t105.5 25.5t76 46t29 73.5q0 49 -35.5 71t-85.5 22z" />
    <glyph glyph-name="Ecaron" unicode="&#x11a;" horiz-adv-x="533" 
d="M199 845h22l77 -82l78 82h21l-87 -102h-24zM100 700h390v-18h-370v-320h330v-18h-330v-326h370v-18h-390v700z" />
    <glyph glyph-name="ecaron" unicode="&#x11b;" horiz-adv-x="466" 
d="M219 568l-86 142h21l78 -125l77 125h21l-88 -142h-23zM417 68q-20 -29 -59 -54t-105 -25q-92 0 -146.5 60.5t-54.5 182.5q0 54 16 101.5t45.5 82.5t71 55t92.5 20q60 0 99.5 -27t39.5 -83q0 -49 -30 -81.5t-79 -52t-111 -28.5t-125 -13q8 -102 58 -151t124 -49
q62 0 96.5 23t53.5 50zM277 474q-45 0 -83 -18t-65.5 -50t-43 -74.5t-15.5 -92.5v-15q59 4 117.5 12t105.5 25.5t76 46t29 73.5q0 49 -35.5 71t-85.5 22z" />
    <glyph glyph-name="Gcircumflex" unicode="&#x11c;" horiz-adv-x="641" 
d="M321 845h24l87 -102h-22l-78 82l-77 -82h-21zM341 -6q-64 0 -116.5 25t-90 71t-57.5 111t-20 146q0 85 21 152t58.5 113t90.5 70t116 24q102 0 160.5 -46.5t63.5 -127.5q2 -27 -4 -53h-20q2 13 3.5 25.5t0.5 23.5q-5 75 -57 117.5t-147 42.5q-58 0 -107 -23t-84.5 -66.5
t-55 -107t-19.5 -144.5q0 -75 19 -136.5t53.5 -106t83 -68.5t108.5 -24q76 0 130.5 21t85.5 55v219h-201v18h221v-244q-35 -39 -92.5 -63t-143.5 -24z" />
    <glyph glyph-name="gcircumflex" unicode="&#x11d;" horiz-adv-x="514" 
d="M243 710h23l87 -142h-21l-78 124l-77 -124h-21zM257 -239q-64 0 -110 27t-63 69l16 8q16 -39 60 -63t97 -24q75 0 116.5 42t41.5 114v178q-7 -26 -23.5 -47.5t-39 -37.5t-50 -24.5t-57.5 -8.5q-90 0 -141.5 65t-51.5 179q0 118 51 184t142 66q28 0 54.5 -7t49 -19.5
t40 -29.5t26.5 -37v87h18v-547q0 -81 -47 -127.5t-129 -46.5zM245 11q31 0 59.5 10.5t51 29.5t38 44.5t21.5 56.5v206q-8 25 -24.5 45.5t-39.5 35.5t-50 23.5t-56 8.5q-40 0 -72.5 -16.5t-55 -47t-35 -73.5t-12.5 -96q0 -52 12.5 -94t35 -71.5t55 -45.5t72.5 -16z" />
    <glyph glyph-name="Gbreve" unicode="&#x11e;" horiz-adv-x="641" 
d="M333 749q-39 0 -63 23.5t-24 63.5h20q0 -30 17.5 -48.5t49.5 -18.5t49.5 18.5t17.5 48.5h20q0 -40 -24 -63.5t-63 -23.5zM341 -6q-64 0 -116.5 25t-90 71t-57.5 111t-20 146q0 85 21 152t58.5 113t90.5 70t116 24q102 0 160.5 -46.5t63.5 -127.5q2 -27 -4 -53h-20
q2 13 3.5 25.5t0.5 23.5q-5 75 -57 117.5t-147 42.5q-58 0 -107 -23t-84.5 -66.5t-55 -107t-19.5 -144.5q0 -75 19 -136.5t53.5 -106t83 -68.5t108.5 -24q76 0 130.5 21t85.5 55v219h-201v18h221v-244q-35 -39 -92.5 -63t-143.5 -24z" />
    <glyph glyph-name="gbreve" unicode="&#x11f;" horiz-adv-x="514" 
d="M255 579q-44 0 -70 25.5t-26 81.5h20q0 -47 20 -67t56 -21t56 20.5t20 67.5h20q0 -55 -26 -81t-70 -26zM257 -239q-64 0 -110 27t-63 69l16 8q16 -39 60 -63t97 -24q75 0 116.5 42t41.5 114v178q-7 -26 -23.5 -47.5t-39 -37.5t-50 -24.5t-57.5 -8.5q-90 0 -141.5 65
t-51.5 179q0 118 51 184t142 66q28 0 54.5 -7t49 -19.5t40 -29.5t26.5 -37v87h18v-547q0 -81 -47 -127.5t-129 -46.5zM245 11q31 0 59.5 10.5t51 29.5t38 44.5t21.5 56.5v206q-8 25 -24.5 45.5t-39.5 35.5t-50 23.5t-56 8.5q-40 0 -72.5 -16.5t-55 -47t-35 -73.5t-12.5 -96
q0 -52 12.5 -94t35 -71.5t55 -45.5t72.5 -16z" />
    <glyph glyph-name="Gdotaccent" unicode="&#x120;" horiz-adv-x="641" 
d="M333 769q-11 0 -18.5 7.5t-7.5 18.5t7.5 18.5t18.5 7.5t18.5 -7.5t7.5 -18.5t-7.5 -18.5t-18.5 -7.5zM341 -6q-64 0 -116.5 25t-90 71t-57.5 111t-20 146q0 85 21 152t58.5 113t90.5 70t116 24q102 0 160.5 -46.5t63.5 -127.5q2 -27 -4 -53h-20q2 13 3.5 25.5t0.5 23.5
q-5 75 -57 117.5t-147 42.5q-58 0 -107 -23t-84.5 -66.5t-55 -107t-19.5 -144.5q0 -75 19 -136.5t53.5 -106t83 -68.5t108.5 -24q76 0 130.5 21t85.5 55v219h-201v18h221v-244q-35 -39 -92.5 -63t-143.5 -24z" />
    <glyph glyph-name="gdotaccent" unicode="&#x121;" horiz-adv-x="514" 
d="M255 607q-11 0 -19 8t-8 19t8 19t19 8t19 -8t8 -19t-8 -19t-19 -8zM257 -239q-64 0 -110 27t-63 69l16 8q16 -39 60 -63t97 -24q75 0 116.5 42t41.5 114v178q-7 -26 -23.5 -47.5t-39 -37.5t-50 -24.5t-57.5 -8.5q-90 0 -141.5 65t-51.5 179q0 118 51 184t142 66
q28 0 54.5 -7t49 -19.5t40 -29.5t26.5 -37v87h18v-547q0 -81 -47 -127.5t-129 -46.5zM245 11q31 0 59.5 10.5t51 29.5t38 44.5t21.5 56.5v206q-8 25 -24.5 45.5t-39.5 35.5t-50 23.5t-56 8.5q-40 0 -72.5 -16.5t-55 -47t-35 -73.5t-12.5 -96q0 -52 12.5 -94t35 -71.5
t55 -45.5t72.5 -16z" />
    <glyph glyph-name="uni0122" unicode="&#x122;" horiz-adv-x="641" 
d="M341 -6q-64 0 -116.5 25t-90 71t-57.5 111t-20 146q0 85 21 152t58.5 113t90.5 70t116 24q102 0 160.5 -46.5t63.5 -127.5q2 -27 -4 -53h-20q2 13 3.5 25.5t0.5 23.5q-5 75 -57 117.5t-147 42.5q-58 0 -107 -23t-84.5 -66.5t-55 -107t-19.5 -144.5q0 -75 19 -136.5
t53.5 -106t83 -68.5t108.5 -24q76 0 130.5 21t85.5 55v219h-201v18h221v-244q-35 -39 -92.5 -63t-143.5 -24zM300 -166q17 14 27.5 29t12.5 41q-20 0 -26.5 8t-6.5 19t7.5 19t18.5 8q28 0 28 -34q0 -40 -17.5 -64.5t-35.5 -35.5z" />
    <glyph glyph-name="uni0123" unicode="&#x123;" horiz-adv-x="514" 
d="M255 578q-14 0 -21 9.5t-7 26.5q0 32 14 52t30 28l10 -12q-14 -10 -23 -22t-10 -29q20 2 27 -7t7 -20t-8 -18.5t-19 -7.5zM257 -239q-64 0 -110 27t-63 69l16 8q16 -39 60 -63t97 -24q75 0 116.5 42t41.5 114v178q-7 -26 -23.5 -47.5t-39 -37.5t-50 -24.5t-57.5 -8.5
q-90 0 -141.5 65t-51.5 179q0 118 51 184t142 66q28 0 54.5 -7t49 -19.5t40 -29.5t26.5 -37v87h18v-547q0 -81 -47 -127.5t-129 -46.5zM245 11q31 0 59.5 10.5t51 29.5t38 44.5t21.5 56.5v206q-8 25 -24.5 45.5t-39.5 35.5t-50 23.5t-56 8.5q-40 0 -72.5 -16.5t-55 -47
t-35 -73.5t-12.5 -96q0 -52 12.5 -94t35 -71.5t55 -45.5t72.5 -16z" />
    <glyph glyph-name="Hcircumflex" unicode="&#x124;" horiz-adv-x="670" 
d="M323 845h24l87 -102h-22l-78 82l-77 -82h-21zM100 700h20v-338h430v338h20v-700h-20v344h-430v-344h-20v700z" />
    <glyph glyph-name="hcircumflex" unicode="&#x125;" horiz-adv-x="511" 
d="M82 845h24l87 -102h-22l-78 82l-77 -82h-21zM466 -1q-28 0 -39.5 17t-11.5 54v233q0 34 -9 64.5t-27.5 53.5t-46.5 36.5t-66 13.5q-43 0 -75 -19t-52 -48.5t-30 -64t-10 -65.5v-274h-18v726h18v-377q6 28 20.5 53.5t35.5 44.5t49 30t62 11q45 0 76.5 -14.5t52 -39.5
t29.5 -59t9 -72v-228q0 -40 10 -50t33 -10v-15q-3 -1 -5.5 -1h-4.5z" />
    <glyph glyph-name="Hbar" unicode="&#x126;" horiz-adv-x="670" 
d="M620 546h-50v-546h-20v344h-430v-344h-20v546h-50v16h50v138h20v-138h430v138h20v-138h50v-16zM550 546h-430v-184h430v184z" />
    <glyph glyph-name="hbar" unicode="&#x127;" horiz-adv-x="511" 
d="M433 75q0 -40 10 -50t33 -10v-15q-3 -1 -5.5 -1h-4.5q-28 0 -39.5 17t-11.5 54v233q0 34 -9 64.5t-27.5 53.5t-46.5 36.5t-66 13.5q-43 0 -75 -19t-52 -48.5t-30 -64t-10 -65.5v-274h-18v609h-78v17h78v100h18v-100h124v-17h-124v-260q6 28 20.5 53.5t35.5 44.5t49 30
t62 11q45 0 76.5 -14.5t52 -39.5t29.5 -59t9 -72v-228z" />
    <glyph glyph-name="Itilde" unicode="&#x128;" horiz-adv-x="220" 
d="M0 753q-3 4 -5 11t-2 13q0 24 14.5 38.5t40.5 14.5q18 0 33.5 -9t30.5 -20.5t30.5 -20.5t33.5 -9q14 0 22 9t8 24q0 19 -6 26h20q6 -7 6 -26q0 -24 -13.5 -37.5t-37.5 -13.5q-21 0 -38 9t-32 20.5t-29 20.5t-29 9q-16 0 -25.5 -9.5t-9.5 -25.5q0 -12 7 -24h-19zM100 700
h20v-700h-20v700z" />
    <glyph glyph-name="itilde" unicode="&#x129;" horiz-adv-x="188" 
d="M-14 603q-3 4 -5 11t-2 13q0 24 14.5 38.5t40.5 14.5q19 0 34 -9.5t29.5 -20.5t30 -20.5t33.5 -9.5q31 0 31 34q0 19 -6 26h20q6 -7 6 -26q0 -24 -13.5 -37.5t-37.5 -13.5q-22 0 -38.5 9.5t-31 20.5t-28.5 20.5t-29 9.5q-16 0 -26 -9.5t-10 -26.5q0 -12 7 -24h-19z
M85 482h18v-482h-18v482z" />
    <glyph glyph-name="Imacron" unicode="&#x12a;" horiz-adv-x="220" 
d="M0 796h220v-19h-220v19zM100 700h20v-700h-20v700z" />
    <glyph glyph-name="imacron" unicode="&#x12b;" horiz-adv-x="188" 
d="M-14 647h220v-18h-220v18zM85 482h18v-482h-18v482z" />
    <glyph glyph-name="Ibreve" unicode="&#x12c;" horiz-adv-x="220" 
d="M110 749q-39 0 -63 23.5t-24 63.5h20q0 -30 17.5 -48.5t49.5 -18.5t49.5 18.5t17.5 48.5h20q0 -40 -24 -63.5t-63 -23.5zM100 700h20v-700h-20v700z" />
    <glyph glyph-name="ibreve" unicode="&#x12d;" horiz-adv-x="188" 
d="M96 579q-44 0 -70 25.5t-26 81.5h20q0 -47 20 -67t56 -21t56 20.5t20 67.5h20q0 -55 -26 -81t-70 -26zM85 482h18v-482h-18v482z" />
    <glyph glyph-name="Iogonek" unicode="&#x12e;" horiz-adv-x="221" 
d="M132 -144q-7 -7 -19.5 -12.5t-29.5 -5.5q-33 0 -52 17t-19 48q0 38 25.5 66t63.5 39v692h20v-700q-39 -9 -64 -33.5t-25 -59.5q0 -52 52 -52q14 0 22.5 3.5t16.5 10.5z" />
    <glyph glyph-name="iogonek" unicode="&#x12f;" horiz-adv-x="190" 
d="M98 661q11 0 19 -8t8 -19t-8 -19t-19 -8t-19 8t-8 19t8 19t19 8zM68 -145q14 0 22.5 3.5t16.5 10.5l9 -13q-7 -7 -19.5 -12.5t-29.5 -5.5q-33 0 -52 17t-19 48q0 39 26 67t65 39v473h18v-482q-39 -9 -64 -33.5t-25 -59.5q0 -52 52 -52z" />
    <glyph glyph-name="Idotaccent" unicode="&#x130;" horiz-adv-x="220" 
d="M110 769q-11 0 -18.5 7.5t-7.5 18.5t7.5 18.5t18.5 7.5t18.5 -7.5t7.5 -18.5t-7.5 -18.5t-18.5 -7.5zM100 700h20v-700h-20v700z" />
    <glyph glyph-name="dotlessi" unicode="&#x131;" horiz-adv-x="188" 
d="M85 482h18v-482h-18v482z" />
    <glyph glyph-name="IJ" unicode="&#x132;" horiz-adv-x="651" 
d="M100 700h20v-700h-20v700zM386 -6q-48 0 -87.5 22.5t-63.5 57.5l15 12q21 -32 57.5 -53t78.5 -21q71 0 111.5 44.5t40.5 128.5v515h20v-512q0 -94 -45.5 -144t-126.5 -50z" />
    <glyph glyph-name="ij" unicode="&#x133;" horiz-adv-x="380" 
d="M96 607q-11 0 -19 8t-8 19t8 19t19 8t19 -8t8 -19t-8 -19t-19 -8zM285 607q-11 0 -19 8t-8 19t8 19t19 8t19 -8t8 -19t-8 -19t-19 -8zM85 482h18v-482h-18v482zM171 -247q-20 0 -34.5 3.5t-24.5 7.5q-12 6 -20 12l6 16q8 -6 19 -11q10 -4 23.5 -7.5t30.5 -3.5q51 0 78 29
t27 101v582h18v-582q0 -75 -30 -111t-93 -36z" />
    <glyph glyph-name="Jcircumflex" unicode="&#x134;" horiz-adv-x="445" 
d="M319 845h24l87 -102h-22l-78 82l-77 -82h-21zM180 -6q-48 0 -87.5 22.5t-63.5 57.5l15 12q21 -32 57.5 -53t78.5 -21q71 0 111.5 44.5t40.5 128.5v515h20v-512q0 -94 -45.5 -144t-126.5 -50z" />
    <glyph glyph-name="jcircumflex" unicode="&#x135;" horiz-adv-x="192" 
d="M86 710h23l87 -142h-21l-78 124l-77 -124h-21zM-16 -247q-20 0 -34.5 3.5t-24.5 7.5q-12 6 -20 12l6 16q8 -6 19 -11q10 -4 23.5 -7.5t30.5 -3.5q51 0 78 29t27 101v582h18v-582q0 -75 -30 -111t-93 -36z" />
    <glyph glyph-name="uni0136" unicode="&#x136;" horiz-adv-x="625" 
d="M626 18v-18h-25q-35 0 -59 25t-44.5 62t-41 81t-50 81t-71 62t-103.5 25h-112v-336h-20v700h20v-346h118q51 0 102 20t91.5 62.5t65.5 108t25 155.5h20q0 -72 -18 -132.5t-50 -106.5t-77 -76t-99 -42q46 -10 79 -38t58 -64.5t44.5 -75.5t38 -72t38 -54t45.5 -21h25z
M331 -42q28 0 28 -34q0 -40 -17.5 -64.5t-35.5 -35.5l-8 10q17 14 27.5 29t12.5 41q-20 0 -26.5 8t-6.5 19t7.5 19t18.5 8z" />
    <glyph glyph-name="uni0137" unicode="&#x137;" horiz-adv-x="482" 
d="M480 17v-17q-1 0 -3 -1h-8q-40 0 -63.5 18t-39.5 45t-30 59t-35 59t-53.5 45t-87.5 18h-61v-243h-18v726h18v-466h79q106 0 159 58t53 164h18q0 -31 -6 -68t-24.5 -70t-54 -59t-94.5 -36q38 -9 62 -29.5t40.5 -46.5t28.5 -53.5t26.5 -50.5t34 -37.5t50.5 -14.5h9z
M254 -42q28 0 28 -34q0 -40 -17.5 -64.5t-35.5 -35.5l-8 10q17 14 27.5 29t12.5 41q-20 0 -26.5 8t-6.5 19t7.5 19t18.5 8z" />
    <glyph glyph-name="kgreenlandic" unicode="&#x138;" horiz-adv-x="482" 
d="M480 17v-17q-1 0 -3 -1h-8q-40 0 -63.5 17.5t-39.5 43.5t-30 57t-35 57t-53.5 43.5t-87.5 17.5h-61v-235h-18v482h18v-230h79q106 0 159 62.5t53 167.5h18q0 -31 -6 -69t-25 -72.5t-54.5 -61.5t-94.5 -38q38 -9 62 -29t40.5 -45t29 -51.5t27 -48.5t34 -36t50.5 -14h9z
" />
    <glyph glyph-name="Lacute" unicode="&#x139;" horiz-adv-x="528" 
d="M140 845h28l-90 -102h-19zM100 700h20v-682h390v-18h-410v700z" />
    <glyph glyph-name="lacute" unicode="&#x13a;" horiz-adv-x="190" 
d="M97 855h28l-90 -102h-19zM137 -4q-28 0 -39.5 16.5t-11.5 45.5v668h18v-663q0 -32 10 -41.5t34 -9.5v-15q-4 -1 -7 -1h-4z" />
    <glyph glyph-name="uni013B" unicode="&#x13b;" horiz-adv-x="528" 
d="M100 700h20v-682h390v-18h-410v700zM290 -166q17 14 27.5 29t12.5 41q-20 0 -26.5 8t-6.5 19t7.5 19t18.5 8q28 0 28 -34q0 -40 -17.5 -64.5t-35.5 -35.5z" />
    <glyph glyph-name="uni013C" unicode="&#x13c;" horiz-adv-x="190" 
d="M137 -4q-28 0 -39.5 16.5t-11.5 45.5v668h18v-663q0 -32 10 -41.5t34 -9.5v-15q-4 -1 -7 -1h-4zM77 -166q17 14 27.5 29t12.5 41q-20 0 -26.5 8t-6.5 19t7.5 19t18.5 8q28 0 28 -34q0 -40 -17.5 -64.5t-35.5 -35.5z" />
    <glyph glyph-name="Lcaron" unicode="&#x13d;" horiz-adv-x="529" 
d="M323 590q20 12 29 25.5t9 33.5q-16 1 -22.5 9.5t-6.5 19.5q0 10 7.5 18t19.5 8q28 0 28 -36q0 -35 -17.5 -58.5t-37.5 -33.5zM100 700h20v-682h390v-18h-410v700z" />
    <glyph glyph-name="lcaron" unicode="&#x13e;" horiz-adv-x="190" 
d="M150 615q20 12 29 25.5t9 33.5q-16 1 -22.5 9.5t-6.5 19.5q0 10 7.5 18t19.5 8q28 0 28 -36q0 -35 -17.5 -58.5t-37.5 -33.5zM137 -4q-28 0 -39.5 16.5t-11.5 45.5v668h18v-663q0 -32 10 -41.5t34 -9.5v-15q-4 -1 -7 -1h-4z" />
    <glyph glyph-name="Ldot" unicode="&#x13f;" horiz-adv-x="529" 
d="M100 700h20v-682h390v-18h-410v700zM375 348q-11 0 -18.5 7.5t-7.5 18.5t7.5 18.5t18.5 7.5t18.5 -7.5t7.5 -18.5t-7.5 -18.5t-18.5 -7.5z" />
    <glyph glyph-name="ldot" unicode="&#x140;" horiz-adv-x="216" 
d="M137 -4q-28 0 -39.5 16.5t-11.5 45.5v668h18v-663q0 -32 10 -41.5t34 -9.5v-15q-4 -1 -7 -1h-4zM201 342q-11 0 -18.5 7.5t-7.5 18.5t7.5 18.5t18.5 7.5t18.5 -7.5t7.5 -18.5t-7.5 -18.5t-18.5 -7.5z" />
    <glyph glyph-name="Lslash" unicode="&#x141;" horiz-adv-x="545" 
d="M527 18v-18h-410v333l-107 -62l-9 16l116 67v346h20v-334l110 63l9 -16l-119 -69v-326h390z" />
    <glyph glyph-name="lslash" unicode="&#x142;" horiz-adv-x="223" 
d="M117 63q0 -32 10 -41.5t34 -9.5v-15q-4 -1 -7 -1h-4q-28 0 -39.5 16.5t-11.5 45.5v295l-63 -37l-9 16l72 42v352h18v-341l69 40l9 -16l-78 -46v-300z" />
    <glyph glyph-name="Nacute" unicode="&#x143;" horiz-adv-x="670" 
d="M376 845h28l-90 -102h-19zM100 700h21l429 -666v666h20v-700h-22l-426 661l-2 4v-665h-20v700z" />
    <glyph glyph-name="nacute" unicode="&#x144;" horiz-adv-x="516" 
d="M308 710h26l-91 -142h-21zM471 -1q-28 0 -39.5 17t-11.5 54v236q0 78 -38 123t-111 45q-39 0 -69.5 -15.5t-52.5 -42.5t-33.5 -63t-11.5 -76v-277h-18v408q0 40 -10 50t-33 10v15q4 1 10 1q28 0 39.5 -17t11.5 -54v-59q14 63 59 100t109 37q79 0 122.5 -48.5t43.5 -136.5
v-231q0 -40 10 -50t33 -10v-15q-5 -1 -6.5 -1h-3.5z" />
    <glyph glyph-name="uni0145" unicode="&#x145;" horiz-adv-x="670" 
d="M100 700h21l429 -666v666h20v-700h-22l-426 661l-2 4v-665h-20v700zM303 -166q17 14 27.5 29t12.5 41q-20 0 -26.5 8t-6.5 19t7.5 19t18.5 8q28 0 28 -34q0 -40 -17.5 -64.5t-35.5 -35.5z" />
    <glyph glyph-name="uni0146" unicode="&#x146;" horiz-adv-x="516" 
d="M471 -1q-28 0 -39.5 17t-11.5 54v236q0 78 -38 123t-111 45q-39 0 -69.5 -15.5t-52.5 -42.5t-33.5 -63t-11.5 -76v-277h-18v408q0 40 -10 50t-33 10v15q4 1 10 1q28 0 39.5 -17t11.5 -54v-59q14 63 59 100t109 37q79 0 122.5 -48.5t43.5 -136.5v-231q0 -40 10 -50t33 -10
v-15q-5 -1 -6.5 -1h-3.5zM226 -166q17 14 27.5 29t12.5 41q-20 0 -26.5 8t-6.5 19t7.5 19t18.5 8q28 0 28 -34q0 -40 -17.5 -64.5t-35.5 -35.5z" />
    <glyph glyph-name="Ncaron" unicode="&#x147;" horiz-adv-x="670" 
d="M245 845h22l77 -82l78 82h21l-87 -102h-24zM100 700h21l429 -666v666h20v-700h-22l-426 661l-2 4v-665h-20v700z" />
    <glyph glyph-name="ncaron" unicode="&#x148;" horiz-adv-x="516" 
d="M159 710h21l78 -125l77 125h21l-88 -142h-23zM471 -1q-28 0 -39.5 17t-11.5 54v236q0 78 -38 123t-111 45q-39 0 -69.5 -15.5t-52.5 -42.5t-33.5 -63t-11.5 -76v-277h-18v408q0 40 -10 50t-33 10v15q4 1 10 1q28 0 39.5 -17t11.5 -54v-59q14 63 59 100t109 37
q79 0 122.5 -48.5t43.5 -136.5v-231q0 -40 10 -50t33 -10v-15q-5 -1 -6.5 -1h-3.5z" />
    <glyph glyph-name="napostrophe" unicode="&#x149;" horiz-adv-x="577" 
d="M19 648q8 1 15 5q5 3 9.5 8t4.5 13q-10 0 -18 7.5t-8 18.5t7.5 18.5t18.5 7.5q12 0 19.5 -8.5t7.5 -22.5q0 -22 -7 -34.5t-16 -19.5q-10 -7 -23 -10zM532 -1q-20 0 -35.5 16t-15.5 57v231q0 34 -9 64.5t-27.5 53.5t-46.5 36.5t-66 13.5q-42 0 -73.5 -19t-52.5 -48
t-31 -63.5t-10 -66.5v-274h-18v412q0 24 -8.5 38.5t-34.5 14.5v17q1 0 3 1h8q19 0 34.5 -16t15.5 -55v-63q6 28 20 53.5t35 44.5t49 30t63 11q45 0 76.5 -14.5t52 -39.5t29.5 -59t9 -72v-231q0 -27 9 -41t34 -14v-17q-1 0 -3 -1h-7z" />
    <glyph glyph-name="Eng" unicode="&#x14a;" horiz-adv-x="670" 
d="M570 700v-784q0 -62 -28 -94.5t-79 -32.5q-33 0 -56 12.5t-36 30.5l15 13q17 -23 38 -30.5t39 -7.5q44 0 66.5 28t22.5 82v83h-4l-426 661l-2 4v-665h-20v700h21l429 -666v666h20z" />
    <glyph glyph-name="eng" unicode="&#x14b;" horiz-adv-x="514" 
d="M272 491q79 0 122.5 -48.5t43.5 -136.5v-390q0 -62 -28 -94.5t-79 -32.5q-33 0 -56 12.5t-36 30.5l15 13q17 -23 38 -30.5t39 -7.5q44 0 66.5 28t22.5 82v389q0 78 -38 123t-111 45q-39 0 -69.5 -15.5t-52.5 -42.5t-33.5 -63t-11.5 -76v-277h-18v408q0 40 -10 50t-33 10
v15q4 1 10 1q28 0 39.5 -17t11.5 -54v-59q14 63 59 100t109 37z" />
    <glyph glyph-name="Omacron" unicode="&#x14c;" horiz-adv-x="700" 
d="M240 796h220v-19h-220v19zM350 -6q-54 0 -106.5 18t-94 59.5t-66.5 109.5t-25 168t25 168t66.5 110t94 60.5t106.5 18.5t106.5 -18.5t94 -60.5t66.5 -110t25 -168t-25 -168t-66.5 -109.5t-94 -59.5t-106.5 -18zM350 12q51 0 100 17.5t87 57.5t61.5 104t23.5 158
t-23.5 158.5t-61.5 104.5t-87 58t-100 18t-100 -18t-87 -58t-61.5 -104.5t-23.5 -158.5t23.5 -158t61.5 -104t87 -57.5t100 -17.5z" />
    <glyph glyph-name="omacron" unicode="&#x14d;" horiz-adv-x="514" 
d="M147 647h220v-18h-220v18zM255 -11q-43 0 -80.5 15.5t-64.5 47t-42.5 78.5t-15.5 110t16.5 110t44.5 78.5t65.5 47t80.5 15.5q44 0 81 -15.5t64 -47t42.5 -78.5t15.5 -110t-16 -110t-44 -78.5t-65.5 -47t-81.5 -15.5zM255 6q37 0 71 14t60.5 43t42 73t15.5 104t-15 104
t-40.5 73t-59 43t-70.5 14t-71 -14t-60.5 -43t-42 -73t-15.5 -104t15 -104t40.5 -73t59 -43t70.5 -14z" />
    <glyph glyph-name="Obreve" unicode="&#x14e;" horiz-adv-x="700" 
d="M350 749q-39 0 -63 23.5t-24 63.5h20q0 -30 17.5 -48.5t49.5 -18.5t49.5 18.5t17.5 48.5h20q0 -40 -24 -63.5t-63 -23.5zM350 -6q-54 0 -106.5 18t-94 59.5t-66.5 109.5t-25 168t25 168t66.5 110t94 60.5t106.5 18.5t106.5 -18.5t94 -60.5t66.5 -110t25 -168t-25 -168
t-66.5 -109.5t-94 -59.5t-106.5 -18zM350 12q51 0 100 17.5t87 57.5t61.5 104t23.5 158t-23.5 158.5t-61.5 104.5t-87 58t-100 18t-100 -18t-87 -58t-61.5 -104.5t-23.5 -158.5t23.5 -158t61.5 -104t87 -57.5t100 -17.5z" />
    <glyph glyph-name="obreve" unicode="&#x14f;" horiz-adv-x="514" 
d="M257 579q-44 0 -70 25.5t-26 81.5h20q0 -47 20 -67t56 -21t56 20.5t20 67.5h20q0 -55 -26 -81t-70 -26zM255 -11q-43 0 -80.5 15.5t-64.5 47t-42.5 78.5t-15.5 110t16.5 110t44.5 78.5t65.5 47t80.5 15.5q44 0 81 -15.5t64 -47t42.5 -78.5t15.5 -110t-16 -110t-44 -78.5
t-65.5 -47t-81.5 -15.5zM255 6q37 0 71 14t60.5 43t42 73t15.5 104t-15 104t-40.5 73t-59 43t-70.5 14t-71 -14t-60.5 -43t-42 -73t-15.5 -104t15 -104t40.5 -73t59 -43t70.5 -14z" />
    <glyph glyph-name="Ohungarumlaut" unicode="&#x150;" horiz-adv-x="700" 
d="M317 845h27l-73 -102h-19zM441 845h27l-73 -102h-19zM350 -6q-54 0 -106.5 18t-94 59.5t-66.5 109.5t-25 168t25 168t66.5 110t94 60.5t106.5 18.5t106.5 -18.5t94 -60.5t66.5 -110t25 -168t-25 -168t-66.5 -109.5t-94 -59.5t-106.5 -18zM350 12q51 0 100 17.5t87 57.5
t61.5 104t23.5 158t-23.5 158.5t-61.5 104.5t-87 58t-100 18t-100 -18t-87 -58t-61.5 -104.5t-23.5 -158.5t23.5 -158t61.5 -104t87 -57.5t100 -17.5z" />
    <glyph glyph-name="ohungarumlaut" unicode="&#x151;" horiz-adv-x="514" 
d="M232 710h25l-68 -142h-17zM356 710h25l-68 -142h-17zM255 -11q-43 0 -80.5 15.5t-64.5 47t-42.5 78.5t-15.5 110t16.5 110t44.5 78.5t65.5 47t80.5 15.5q44 0 81 -15.5t64 -47t42.5 -78.5t15.5 -110t-16 -110t-44 -78.5t-65.5 -47t-81.5 -15.5zM255 6q37 0 71 14t60.5 43
t42 73t15.5 104t-15 104t-40.5 73t-59 43t-70.5 14t-71 -14t-60.5 -43t-42 -73t-15.5 -104t15 -104t40.5 -73t59 -43t70.5 -14z" />
    <glyph glyph-name="OE" unicode="&#x152;" horiz-adv-x="1031" 
d="M338 -6q-52 0 -102.5 18t-90 59.5t-63.5 109.5t-24 168t24 168t63.5 110t90 60.5t102.5 18.5q41 0 74 -9t59 -23.5t45.5 -33.5t34.5 -38q33 -46 47 -105v203h390v-18h-370v-320h330v-18h-330v-326h370v-18h-390v201q-1 -5 -6 -22t-16 -40t-30 -48.5t-47.5 -47t-68 -35.5
t-92.5 -14zM338 12q47 0 93.5 17t83.5 56.5t60 104.5t23 160t-23 160t-60 104.5t-83.5 56.5t-93.5 17q-49 0 -95.5 -18t-83 -58t-59 -104.5t-22.5 -158.5t22.5 -158t59 -104t83 -57.5t95.5 -17.5z" />
    <glyph glyph-name="oe" unicode="&#x153;" horiz-adv-x="839" 
d="M250 -6q-42 0 -78 15t-63 46t-42 77t-15 109t15 109t42 77t63 46t78 15q60 0 96.5 -24t57 -54t28 -57t8.5 -33q0 3 5 30t24 57.5t55.5 55.5t100.5 25q47 0 78.5 -17t50.5 -45.5t27 -67t8 -80.5v-17h-338v-19q0 -71 18.5 -116t46 -70.5t59 -35t56.5 -9.5q37 0 63.5 11.5
t44.5 25.5q20 16 34 37l13 -12q-13 -22 -34 -39q-20 -17 -49 -28.5t-72 -11.5q-61 0 -98 24t-57.5 54t-27.5 56.5t-8 32.5q-1 -6 -8.5 -32.5t-28 -56.5t-57 -54t-96.5 -24zM250 11q35 0 67.5 13.5t57.5 41.5t40 71.5t15 103.5t-15 103.5t-40 71.5t-57.5 41.5t-67.5 13.5
t-67.5 -13.5t-57.5 -41.5t-40 -71.5t-15 -103.5t15 -103.5t40 -71.5t57.5 -41.5t67.5 -13.5zM771 278q0 39 -7 74t-24 61.5t-45 42t-70 15.5q-70 0 -117.5 -45t-55.5 -148h319z" />
    <glyph glyph-name="Racute" unicode="&#x154;" horiz-adv-x="596" 
d="M331 845h28l-90 -102h-19zM562 -2q-29 0 -50.5 23.5t-38.5 59.5t-31.5 77t-31.5 77t-38.5 59.5t-50.5 23.5h-201v-318h-20v700h209q47 0 85.5 -11.5t66 -35t43 -60t15.5 -86.5q0 -78 -43 -123t-112 -60q22 -7 38.5 -33t31.5 -60t29 -71.5t30 -69.5t34.5 -52.5t42.5 -20.5
h12v-19h-20zM310 336q40 0 74.5 11t60 33t40 53.5t14.5 73.5q0 81 -48.5 128t-143.5 47h-187v-346h190z" />
    <glyph glyph-name="racute" unicode="&#x155;" horiz-adv-x="323" 
d="M243 710h26l-91 -142h-21zM86 409q0 36 -8.5 48t-34.5 12v15q4 1 10 1q27 0 39 -16.5t12 -54.5v-63q14 64 58 102t104 38q14 0 27.5 -2t21.5 -5l-6 -17q-7 2 -19.5 4t-24.5 2q-35 0 -64.5 -15t-51 -43t-33.5 -66t-12 -85v-264h-18v409z" />
    <glyph glyph-name="uni0156" unicode="&#x156;" horiz-adv-x="596" 
d="M562 -2q-29 0 -50.5 23.5t-38.5 59.5t-31.5 77t-31.5 77t-38.5 59.5t-50.5 23.5h-201v-318h-20v700h209q47 0 85.5 -11.5t66 -35t43 -60t15.5 -86.5q0 -78 -43 -123t-112 -60q22 -7 38.5 -33t31.5 -60t29 -71.5t30 -69.5t34.5 -52.5t42.5 -20.5h12v-19h-20zM310 336
q40 0 74.5 11t60 33t40 53.5t14.5 73.5q0 81 -48.5 128t-143.5 47h-187v-346h190zM297 -166q17 14 27.5 29t12.5 41q-20 0 -26.5 8t-6.5 19t7.5 19t18.5 8q28 0 28 -34q0 -40 -17.5 -64.5t-35.5 -35.5z" />
    <glyph glyph-name="uni0157" unicode="&#x157;" horiz-adv-x="323" 
d="M86 409q0 36 -8.5 48t-34.5 12v15q4 1 10 1q27 0 39 -16.5t12 -54.5v-63q14 64 58 102t104 38q14 0 27.5 -2t21.5 -5l-6 -17q-7 2 -19.5 4t-24.5 2q-35 0 -64.5 -15t-51 -43t-33.5 -66t-12 -85v-264h-18v409zM63 -166q17 14 27.5 29t12.5 41q-20 0 -26.5 8t-6.5 19
t7.5 19t18.5 8q28 0 28 -34q0 -40 -17.5 -64.5t-35.5 -35.5z" />
    <glyph glyph-name="Rcaron" unicode="&#x158;" horiz-adv-x="596" 
d="M200 845h22l77 -82l78 82h21l-87 -102h-24zM562 -2q-29 0 -50.5 23.5t-38.5 59.5t-31.5 77t-31.5 77t-38.5 59.5t-50.5 23.5h-201v-318h-20v700h209q47 0 85.5 -11.5t66 -35t43 -60t15.5 -86.5q0 -78 -43 -123t-112 -60q22 -7 38.5 -33t31.5 -60t29 -71.5t30 -69.5
t34.5 -52.5t42.5 -20.5h12v-19h-20zM310 336q40 0 74.5 11t60 33t40 53.5t14.5 73.5q0 81 -48.5 128t-143.5 47h-187v-346h190z" />
    <glyph glyph-name="rcaron" unicode="&#x159;" horiz-adv-x="323" 
d="M94 710h21l78 -125l77 125h21l-88 -142h-23zM86 409q0 36 -8.5 48t-34.5 12v15q4 1 10 1q27 0 39 -16.5t12 -54.5v-63q14 64 58 102t104 38q14 0 27.5 -2t21.5 -5l-6 -17q-7 2 -19.5 4t-24.5 2q-35 0 -64.5 -15t-51 -43t-33.5 -66t-12 -85v-264h-18v409z" />
    <glyph glyph-name="Sacute" unicode="&#x15a;" horiz-adv-x="565" 
d="M303 845h28l-90 -102h-19zM276 -6q-94 0 -149.5 29.5t-81.5 89.5l17 9q24 -55 76 -82.5t138 -27.5q111 0 164.5 43t53.5 120q0 38 -11 66.5t-37 49.5t-69 36t-107 26q-57 10 -97 24.5t-65 36t-36.5 51t-11.5 69.5q0 81 58.5 126.5t157.5 45.5q45 0 85 -9t69 -28.5
t46 -50.5t17 -75q0 -7 -0.5 -14.5t-1.5 -15.5h-17q1 8 1.5 15t0.5 14q0 39 -15.5 66.5t-42.5 45.5t-63.5 26t-78.5 8q-91 0 -143.5 -40.5t-52.5 -112.5q0 -36 10 -62.5t33.5 -46t61.5 -32.5t95 -23q66 -12 111 -28t72.5 -39t39 -55t11.5 -74q0 -84 -60 -132.5t-178 -48.5z
" />
    <glyph glyph-name="sacute" unicode="&#x15b;" horiz-adv-x="440" 
d="M271 710h26l-91 -142h-21zM223 -11q-28 0 -55 3.5t-51 14.5t-43.5 31t-33.5 52l17 9q13 -31 31 -49t39.5 -28t46 -13t49.5 -3q71 0 110.5 29.5t39.5 83.5q0 32 -13 51.5t-34 31.5t-48 18.5t-56 12.5q-30 6 -59 13.5t-52.5 21.5t-37.5 36t-14 58q0 57 43 93t117 36
q72 0 116.5 -33t44.5 -96q0 -11 -2 -23.5t-5 -20.5h-18q3 7 5 19.5t2 25.5q0 53 -38.5 82t-104.5 29q-65 0 -103.5 -30t-38.5 -82q0 -31 13 -50.5t35 -31t49.5 -18t56.5 -12.5q30 -6 59 -13.5t51.5 -21.5t36 -36.5t13.5 -59.5q0 -63 -46.5 -96.5t-121.5 -33.5z" />
    <glyph glyph-name="Scircumflex" unicode="&#x15c;" horiz-adv-x="565" 
d="M260 845h24l87 -102h-22l-78 82l-77 -82h-21zM276 -6q-94 0 -149.5 29.5t-81.5 89.5l17 9q24 -55 76 -82.5t138 -27.5q111 0 164.5 43t53.5 120q0 38 -11 66.5t-37 49.5t-69 36t-107 26q-57 10 -97 24.5t-65 36t-36.5 51t-11.5 69.5q0 81 58.5 126.5t157.5 45.5
q45 0 85 -9t69 -28.5t46 -50.5t17 -75q0 -7 -0.5 -14.5t-1.5 -15.5h-17q1 8 1.5 15t0.5 14q0 39 -15.5 66.5t-42.5 45.5t-63.5 26t-78.5 8q-91 0 -143.5 -40.5t-52.5 -112.5q0 -36 10 -62.5t33.5 -46t61.5 -32.5t95 -23q66 -12 111 -28t72.5 -39t39 -55t11.5 -74
q0 -84 -60 -132.5t-178 -48.5z" />
    <glyph glyph-name="scircumflex" unicode="&#x15d;" horiz-adv-x="440" 
d="M209 710h23l87 -142h-21l-78 124l-77 -124h-21zM223 -11q-28 0 -55 3.5t-51 14.5t-43.5 31t-33.5 52l17 9q13 -31 31 -49t39.5 -28t46 -13t49.5 -3q71 0 110.5 29.5t39.5 83.5q0 32 -13 51.5t-34 31.5t-48 18.5t-56 12.5q-30 6 -59 13.5t-52.5 21.5t-37.5 36t-14 58
q0 57 43 93t117 36q72 0 116.5 -33t44.5 -96q0 -11 -2 -23.5t-5 -20.5h-18q3 7 5 19.5t2 25.5q0 53 -38.5 82t-104.5 29q-65 0 -103.5 -30t-38.5 -82q0 -31 13 -50.5t35 -31t49.5 -18t56.5 -12.5q30 -6 59 -13.5t51.5 -21.5t36 -36.5t13.5 -59.5q0 -63 -46.5 -96.5
t-121.5 -33.5z" />
    <glyph glyph-name="Scedilla" unicode="&#x15e;" horiz-adv-x="565" 
d="M514 175q0 -81 -57 -129.5t-169 -51.5l-14 -37q45 -4 60.5 -20.5t15.5 -42.5q0 -30 -19.5 -45.5t-54.5 -15.5q-43 0 -63 22l11 15q20 -19 53 -19q53 0 53 43q0 22 -17 34t-62 14l20 52q-91 1 -145.5 30.5t-80.5 88.5l17 9q24 -55 76 -82.5t138 -27.5q111 0 164.5 43
t53.5 120q0 38 -11 66.5t-37 49.5t-69 36t-107 26q-57 10 -97 24.5t-65 36t-36.5 51t-11.5 69.5q0 81 58.5 126.5t157.5 45.5q45 0 85 -9t69 -28.5t46 -50.5t17 -75q0 -7 -0.5 -14.5t-1.5 -15.5h-17q1 8 1.5 15t0.5 14q0 39 -15.5 66.5t-42.5 45.5t-63.5 26t-78.5 8
q-91 0 -143.5 -40.5t-52.5 -112.5q0 -36 10 -62.5t33.5 -46t61.5 -32.5t95 -23q66 -12 111 -28t72.5 -39t39 -55t11.5 -74z" />
    <glyph glyph-name="scedilla" unicode="&#x15f;" horiz-adv-x="440" 
d="M391 119q0 -60 -43.5 -94t-115.5 -36l-12 -32q45 -4 60.5 -20.5t15.5 -42.5q0 -30 -19.5 -45.5t-54.5 -15.5q-43 0 -63 22l11 15q20 -19 53 -19q53 0 53 43q0 22 -17 34t-62 14l18 47q-27 0 -53 4.5t-48.5 15.5t-41 30.5t-32.5 50.5l17 9q13 -31 31 -49t39.5 -28t46 -13
t49.5 -3q71 0 110.5 29.5t39.5 83.5q0 32 -13 51.5t-34 31.5t-48 18.5t-56 12.5q-30 6 -59 13.5t-52.5 21.5t-37.5 36t-14 58q0 57 43 93t117 36q72 0 116.5 -33t44.5 -96q0 -11 -2 -23.5t-5 -20.5h-18q3 7 5 19.5t2 25.5q0 53 -38.5 82t-104.5 29q-65 0 -103.5 -30
t-38.5 -82q0 -31 13 -50.5t35 -31t49.5 -18t56.5 -12.5q30 -6 59 -13.5t51.5 -21.5t36 -36.5t13.5 -59.5z" />
    <glyph glyph-name="Scaron" unicode="&#x160;" horiz-adv-x="565" 
d="M172 845h22l77 -82l78 82h21l-87 -102h-24zM276 -6q-94 0 -149.5 29.5t-81.5 89.5l17 9q24 -55 76 -82.5t138 -27.5q111 0 164.5 43t53.5 120q0 38 -11 66.5t-37 49.5t-69 36t-107 26q-57 10 -97 24.5t-65 36t-36.5 51t-11.5 69.5q0 81 58.5 126.5t157.5 45.5q45 0 85 -9
t69 -28.5t46 -50.5t17 -75q0 -7 -0.5 -14.5t-1.5 -15.5h-17q1 8 1.5 15t0.5 14q0 39 -15.5 66.5t-42.5 45.5t-63.5 26t-78.5 8q-91 0 -143.5 -40.5t-52.5 -112.5q0 -36 10 -62.5t33.5 -46t61.5 -32.5t95 -23q66 -12 111 -28t72.5 -39t39 -55t11.5 -74q0 -84 -60 -132.5
t-178 -48.5z" />
    <glyph glyph-name="scaron" unicode="&#x161;" horiz-adv-x="440" 
d="M122 710h21l78 -125l77 125h21l-88 -142h-23zM223 -11q-28 0 -55 3.5t-51 14.5t-43.5 31t-33.5 52l17 9q13 -31 31 -49t39.5 -28t46 -13t49.5 -3q71 0 110.5 29.5t39.5 83.5q0 32 -13 51.5t-34 31.5t-48 18.5t-56 12.5q-30 6 -59 13.5t-52.5 21.5t-37.5 36t-14 58
q0 57 43 93t117 36q72 0 116.5 -33t44.5 -96q0 -11 -2 -23.5t-5 -20.5h-18q3 7 5 19.5t2 25.5q0 53 -38.5 82t-104.5 29q-65 0 -103.5 -30t-38.5 -82q0 -31 13 -50.5t35 -31t49.5 -18t56.5 -12.5q30 -6 59 -13.5t51.5 -21.5t36 -36.5t13.5 -59.5q0 -63 -46.5 -96.5
t-121.5 -33.5z" />
    <glyph glyph-name="uni0162" unicode="&#x162;" horiz-adv-x="506" 
d="M262 0l-17 -43q45 -4 60.5 -20.5t15.5 -42.5q0 -30 -19.5 -45.5t-54.5 -15.5q-43 0 -63 22l11 15q20 -19 53 -19q53 0 53 43q0 22 -17 34t-62 14l23 58h-2v682h-225v18h470v-18h-225v-682h-1z" />
    <glyph glyph-name="uni0163" unicode="&#x163;" horiz-adv-x="354" 
d="M233 -11l-12 -32q45 -4 60.5 -20.5t15.5 -42.5q0 -30 -19.5 -45.5t-54.5 -15.5q-43 0 -63 22l11 15q20 -19 53 -19q53 0 53 43q0 22 -17 34t-62 14l19 48q-58 5 -85 39t-27 103v333h-90v17h90v140h18v-140h210v-17h-210v-333q0 -66 27 -96t85 -30q29 0 58 14t46 36
l12 -11q-19 -25 -51.5 -40.5t-64.5 -15.5h-2z" />
    <glyph glyph-name="Tcaron" unicode="&#x164;" horiz-adv-x="506" 
d="M146 845h22l77 -82l78 82h21l-87 -102h-24zM243 682h-225v18h470v-18h-225v-682h-20v682z" />
    <glyph glyph-name="tcaron" unicode="&#x165;" horiz-adv-x="354" 
d="M233 615q20 12 29 25.5t9 33.5q-16 1 -22.5 9.5t-6.5 19.5q0 10 7.5 18t19.5 8q28 0 28 -36q0 -35 -17.5 -58.5t-37.5 -33.5zM235 -11q-67 0 -98.5 34.5t-31.5 108.5v333h-90v17h90v140h18v-140h210v-17h-210v-333q0 -66 27 -96t85 -30q29 0 58 14t46 36l12 -11
q-19 -25 -51.5 -40.5t-64.5 -15.5z" />
    <glyph glyph-name="Tbar" unicode="&#x166;" horiz-adv-x="510" 
d="M265 682v-323h100v-17h-100v-342h-20v342h-100v17h100v323h-225v18h470v-18h-225z" />
    <glyph glyph-name="tbar" unicode="&#x167;" horiz-adv-x="356" 
d="M353 45q-19 -25 -51.5 -40.5t-64.5 -15.5q-67 0 -98.5 34.5t-31.5 108.5v111h-58v17h58v205h-90v17h90v140h18v-140h210v-17h-210v-205h144v-17h-144v-111q0 -66 27 -96t85 -30q29 0 58 14t46 36z" />
    <glyph glyph-name="Utilde" unicode="&#x168;" horiz-adv-x="672" 
d="M226 753q-3 4 -5 11t-2 13q0 24 14.5 38.5t40.5 14.5q18 0 33.5 -9t30.5 -20.5t30.5 -20.5t33.5 -9q14 0 22 9t8 24q0 19 -6 26h20q6 -7 6 -26q0 -24 -13.5 -37.5t-37.5 -13.5q-21 0 -38 9t-32 20.5t-29 20.5t-29 9q-16 0 -25.5 -9.5t-9.5 -25.5q0 -12 7 -24h-19zM336 -6
q-54 0 -99.5 14t-77.5 47t-50 89t-18 140v416h20v-416q0 -79 16.5 -131t46.5 -83.5t71.5 -44.5t90.5 -13t90.5 13t71.5 44.5t47 83.5t17 131v416h19v-416q0 -84 -18 -140t-50 -89t-77.5 -47t-99.5 -14z" />
    <glyph glyph-name="utilde" unicode="&#x169;" horiz-adv-x="508" 
d="M144 603q-3 4 -5 11t-2 13q0 24 14.5 38.5t40.5 14.5q19 0 34 -9.5t29.5 -20.5t30 -20.5t33.5 -9.5q31 0 31 34q0 19 -6 26h20q6 -7 6 -26q0 -24 -13.5 -37.5t-37.5 -13.5q-22 0 -38.5 9.5t-31 20.5t-28.5 20.5t-29 9.5q-16 0 -26 -9.5t-10 -26.5q0 -12 7 -24h-19z
M229 -11q-33 0 -61.5 8.5t-48.5 27.5t-31.5 50t-11.5 76v331h18v-331q0 -79 38 -112t97 -33q41 0 73.5 18.5t55 46t34.5 59t12 56.5v296h18v-407q0 -40 10 -50t33 -10v-15q-5 -1 -6.5 -1h-3.5q-28 0 -39.5 17t-11.5 54v51q-10 -26 -26.5 -50t-38.5 -42t-49.5 -29t-60.5 -11z
" />
    <glyph glyph-name="Umacron" unicode="&#x16a;" horiz-adv-x="672" 
d="M226 796h220v-19h-220v19zM336 -6q-54 0 -99.5 14t-77.5 47t-50 89t-18 140v416h20v-416q0 -79 16.5 -131t46.5 -83.5t71.5 -44.5t90.5 -13t90.5 13t71.5 44.5t47 83.5t17 131v416h19v-416q0 -84 -18 -140t-50 -89t-77.5 -47t-99.5 -14z" />
    <glyph glyph-name="umacron" unicode="&#x16b;" horiz-adv-x="508" 
d="M144 647h220v-18h-220v18zM229 -11q-33 0 -61.5 8.5t-48.5 27.5t-31.5 50t-11.5 76v331h18v-331q0 -79 38 -112t97 -33q41 0 73.5 18.5t55 46t34.5 59t12 56.5v296h18v-407q0 -40 10 -50t33 -10v-15q-5 -1 -6.5 -1h-3.5q-28 0 -39.5 17t-11.5 54v51q-10 -26 -26.5 -50
t-38.5 -42t-49.5 -29t-60.5 -11z" />
    <glyph glyph-name="Ubreve" unicode="&#x16c;" horiz-adv-x="672" 
d="M336 749q-39 0 -63 23.5t-24 63.5h20q0 -30 17.5 -48.5t49.5 -18.5t49.5 18.5t17.5 48.5h20q0 -40 -24 -63.5t-63 -23.5zM336 -6q-54 0 -99.5 14t-77.5 47t-50 89t-18 140v416h20v-416q0 -79 16.5 -131t46.5 -83.5t71.5 -44.5t90.5 -13t90.5 13t71.5 44.5t47 83.5t17 131
v416h19v-416q0 -84 -18 -140t-50 -89t-77.5 -47t-99.5 -14z" />
    <glyph glyph-name="ubreve" unicode="&#x16d;" horiz-adv-x="508" 
d="M254 579q-44 0 -70 25.5t-26 81.5h20q0 -47 20 -67t56 -21t56 20.5t20 67.5h20q0 -55 -26 -81t-70 -26zM229 -11q-33 0 -61.5 8.5t-48.5 27.5t-31.5 50t-11.5 76v331h18v-331q0 -79 38 -112t97 -33q41 0 73.5 18.5t55 46t34.5 59t12 56.5v296h18v-407q0 -40 10 -50
t33 -10v-15q-5 -1 -6.5 -1h-3.5q-28 0 -39.5 17t-11.5 54v51q-10 -26 -26.5 -50t-38.5 -42t-49.5 -29t-60.5 -11z" />
    <glyph glyph-name="Uring" unicode="&#x16e;" horiz-adv-x="672" 
d="M336 708q-38 0 -61.5 23t-24.5 63q1 38 24.5 62t61.5 24t61.5 -23t24.5 -63q-1 -38 -24.5 -62t-61.5 -24zM336 725q32 0 49 18.5t17 50.5t-17 50.5t-49 18.5t-49 -18.5t-17 -50.5t17 -50.5t49 -18.5zM336 -6q-54 0 -99.5 14t-77.5 47t-50 89t-18 140v416h20v-416
q0 -79 16.5 -131t46.5 -83.5t71.5 -44.5t90.5 -13t90.5 13t71.5 44.5t47 83.5t17 131v416h19v-416q0 -84 -18 -140t-50 -89t-77.5 -47t-99.5 -14z" />
    <glyph glyph-name="uring" unicode="&#x16f;" horiz-adv-x="508" 
d="M254 531q-38 0 -63 25t-25 63t25 63t63 25t63 -25t25 -63t-25 -63t-63 -25zM254 549q32 0 50 19t18 51t-18 51t-50 19t-50 -19t-18 -51t18 -51t50 -19zM229 -11q-33 0 -61.5 8.5t-48.5 27.5t-31.5 50t-11.5 76v331h18v-331q0 -79 38 -112t97 -33q41 0 73.5 18.5t55 46
t34.5 59t12 56.5v296h18v-407q0 -40 10 -50t33 -10v-15q-5 -1 -6.5 -1h-3.5q-28 0 -39.5 17t-11.5 54v51q-10 -26 -26.5 -50t-38.5 -42t-49.5 -29t-60.5 -11z" />
    <glyph glyph-name="Uhungarumlaut" unicode="&#x170;" horiz-adv-x="672" 
d="M303 845h27l-73 -102h-19zM427 845h27l-73 -102h-19zM336 -6q-54 0 -99.5 14t-77.5 47t-50 89t-18 140v416h20v-416q0 -79 16.5 -131t46.5 -83.5t71.5 -44.5t90.5 -13t90.5 13t71.5 44.5t47 83.5t17 131v416h19v-416q0 -84 -18 -140t-50 -89t-77.5 -47t-99.5 -14z" />
    <glyph glyph-name="uhungarumlaut" unicode="&#x171;" horiz-adv-x="508" 
d="M229 710h25l-68 -142h-17zM353 710h25l-68 -142h-17zM229 -11q-33 0 -61.5 8.5t-48.5 27.5t-31.5 50t-11.5 76v331h18v-331q0 -79 38 -112t97 -33q41 0 73.5 18.5t55 46t34.5 59t12 56.5v296h18v-407q0 -40 10 -50t33 -10v-15q-5 -1 -6.5 -1h-3.5q-28 0 -39.5 17
t-11.5 54v51q-10 -26 -26.5 -50t-38.5 -42t-49.5 -29t-60.5 -11z" />
    <glyph glyph-name="Uogonek" unicode="&#x172;" horiz-adv-x="672" 
d="M581 700v-416q0 -74 -14 -126.5t-40 -86t-62 -51.5t-81 -23q-37 -10 -60.5 -34t-23.5 -58q0 -52 52 -52q14 0 22.5 3.5t16.5 10.5l9 -13q-7 -7 -19.5 -12.5t-29.5 -5.5q-33 0 -52 17t-19 48t16.5 55t43.5 38h-4q-54 0 -99.5 14t-77.5 47t-50 89t-18 140v416h20v-416
q0 -79 16.5 -131t46.5 -83.5t71.5 -44.5t90.5 -13t90.5 13t71.5 44.5t47 83.5t17 131v416h19z" />
    <glyph glyph-name="uogonek" unicode="&#x173;" horiz-adv-x="508" 
d="M476 -144q-7 -7 -19.5 -12.5t-29.5 -5.5q-33 0 -52 17t-19 48q0 35 21 61t54 39q-27 13 -27 67v51q-10 -26 -26.5 -50t-38.5 -42t-49.5 -29t-60.5 -11t-61.5 8.5t-48.5 27.5t-31.5 50t-11.5 76v331h18v-331q0 -79 38 -112t97 -33q41 0 73.5 18.5t55 46t34.5 59t12 56.5
v296h18v-407q0 -40 10 -50t33 -10v-15q-39 -9 -64 -33.5t-25 -59.5q0 -52 52 -52q14 0 22.5 3.5t16.5 10.5z" />
    <glyph glyph-name="Wcircumflex" unicode="&#x174;" horiz-adv-x="896" 
d="M436 845h24l87 -102h-22l-78 82l-77 -82h-21zM28 700h22l190 -680l197 680h22l197 -680l190 680h22l-200 -700h-24l-196 670l-196 -670h-24z" />
    <glyph glyph-name="wcircumflex" unicode="&#x175;" horiz-adv-x="670" 
d="M257 568h-21l87 142h23l87 -142h-21l-78 124zM640 482l-146 -485h-28l-121 406l-10 34l-10 -34l-121 -406h-28l-146 485h20l126 -422l14 -46l14 46l125 422h12l125 -420l14 -48l14 48l126 420h20z" />
    <glyph glyph-name="Ycircumflex" unicode="&#x176;" horiz-adv-x="566" 
d="M271 845h24l87 -102h-22l-78 82l-77 -82h-21zM273 297l-243 403h24l229 -383l230 383h23l-243 -403v-297h-20v297z" />
    <glyph glyph-name="ycircumflex" unicode="&#x177;" horiz-adv-x="503" 
d="M239 710h23l87 -142h-21l-78 124l-77 -124h-21zM246 -247q-73 0 -114.5 27t-58.5 69l15 8q15 -37 52.5 -62t105.5 -25q73 0 115.5 42t42.5 114v202q-13 -62 -58.5 -99.5t-105.5 -37.5q-164 0 -164 165v326h18v-326q0 -148 146 -148q35 0 64.5 15t52 40.5t35 60.5t12.5 75
v283h18v-565q-3 -77 -50 -120.5t-126 -43.5z" />
    <glyph glyph-name="Ydieresis" unicode="&#x178;" horiz-adv-x="566" 
d="M208 769q-11 0 -18.5 7.5t-7.5 18.5t7.5 18.5t18.5 7.5t18.5 -7.5t7.5 -18.5t-7.5 -18.5t-18.5 -7.5zM355 769q-11 0 -18.5 7.5t-7.5 18.5t7.5 18.5t18.5 7.5t18.5 -7.5t7.5 -18.5t-7.5 -18.5t-18.5 -7.5zM273 297l-243 403h24l229 -383l230 383h23l-243 -403v-297h-20
v297z" />
    <glyph glyph-name="Zacute" unicode="&#x179;" horiz-adv-x="547" 
d="M253 743h-19l81 102h28zM516 682l-461 -664h461v-18h-485v18l461 664h-461v18h485v-18z" />
    <glyph glyph-name="zacute" unicode="&#x17a;" horiz-adv-x="464" 
d="M216 568h-21l86 142h26zM149 243q34 -6 82 -22t91.5 -48.5t74 -83.5t30.5 -127q0 -54 -15.5 -92t-42.5 -62t-62.5 -35t-75.5 -11q-38 0 -72 11.5t-59.5 34.5t-40.5 57.5t-15 80.5q0 60 24 104t57 74t68 47.5t57 24.5q-28 13 -58.5 21.5t-63.5 13.5v18l253 216h-320v17
h342v-20zM231 -221q36 0 68.5 10t56.5 32t38.5 57t14.5 84q0 79 -38 135t-103 90q-25 -7 -60 -24.5t-67.5 -46.5t-55.5 -71t-23 -99q0 -41 14 -72.5t37.5 -52.5t54 -31.5t63.5 -10.5z" />
    <glyph glyph-name="Zdotaccent" unicode="&#x17b;" horiz-adv-x="547" 
d="M284 769q-11 0 -18.5 7.5t-7.5 18.5t7.5 18.5t18.5 7.5t18.5 -7.5t7.5 -18.5t-7.5 -18.5t-18.5 -7.5zM516 682l-461 -664h461v-18h-485v18l461 664h-461v18h485v-18z" />
    <glyph glyph-name="zdotaccent" unicode="&#x17c;" horiz-adv-x="464" 
d="M231 607q-11 0 -19 8t-8 19t8 19t19 8t19 -8t8 -19t-8 -19t-19 -8zM149 243q34 -6 82 -22t91.5 -48.5t74 -83.5t30.5 -127q0 -54 -15.5 -92t-42.5 -62t-62.5 -35t-75.5 -11q-38 0 -72 11.5t-59.5 34.5t-40.5 57.5t-15 80.5q0 60 24 104t57 74t68 47.5t57 24.5
q-28 13 -58.5 21.5t-63.5 13.5v18l253 216h-320v17h342v-20zM231 -221q36 0 68.5 10t56.5 32t38.5 57t14.5 84q0 79 -38 135t-103 90q-25 -7 -60 -24.5t-67.5 -46.5t-55.5 -71t-23 -99q0 -41 14 -72.5t37.5 -52.5t54 -31.5t63.5 -10.5z" />
    <glyph glyph-name="Zcaron" unicode="&#x17d;" horiz-adv-x="547" 
d="M271 743l-87 102h22l77 -82l78 82h21l-87 -102h-24zM516 682l-461 -664h461v-18h-485v18l461 664h-461v18h485v-18z" />
    <glyph glyph-name="zcaron" unicode="&#x17e;" horiz-adv-x="464" 
d="M218 568l-86 142h21l78 -125l77 125h21l-88 -142h-23zM149 243q34 -6 82 -22t91.5 -48.5t74 -83.5t30.5 -127q0 -54 -15.5 -92t-42.5 -62t-62.5 -35t-75.5 -11q-38 0 -72 11.5t-59.5 34.5t-40.5 57.5t-15 80.5q0 60 24 104t57 74t68 47.5t57 24.5q-28 13 -58.5 21.5
t-63.5 13.5v18l253 216h-320v17h342v-20zM231 -221q36 0 68.5 10t56.5 32t38.5 57t14.5 84q0 79 -38 135t-103 90q-25 -7 -60 -24.5t-67.5 -46.5t-55.5 -71t-23 -99q0 -41 14 -72.5t37.5 -52.5t54 -31.5t63.5 -10.5z" />
    <glyph glyph-name="uni018F" unicode="&#x18f;" horiz-adv-x="640" 
d="M306 706q132 0 204 -93.5t72 -265.5q0 -80 -19 -145t-54.5 -111.5t-85 -71.5t-109.5 -25q-128 0 -198 79t-70 224v14.5t1 8.5h515v24q0 165 -67 254.5t-189 89.5q-70 0 -126.5 -30t-89.5 -84l-15 10q38 60 97 91t134 31zM314 12q51 0 94 20.5t75.5 58.5t52 91.5
t24.5 119.5h-495q2 -142 66 -216t183 -74z" />
    <glyph glyph-name="florin" unicode="&#x192;" horiz-adv-x="382" 
d="M15 -169q-32 0 -59 13t-37 33l13 11q10 -17 33.5 -28.5t50.5 -11.5q49 0 78 32t29 86v499h-70v17h70v110q0 63 38 99t96 36q38 0 67 -15.5t41 -39.5l-14 -9q-30 47 -95 47q-49 0 -82 -32t-33 -86v-110h190v-17h-190v-499q0 -63 -34 -99t-92 -36z" />
    <glyph glyph-name="uni019D" unicode="&#x19d;" horiz-adv-x="670" 
d="M570 700v-700h-22l-426 661l-2 4v-758q0 -61 -28 -94.5t-79 -33.5q-29 0 -53.5 11.5t-37.5 29.5l15 13q17 -21 37.5 -27.5t38.5 -6.5q44 0 65.5 27.5t21.5 80.5v793h21l429 -666v666h20z" />
    <glyph glyph-name="Gcaron" unicode="&#x1e6;" horiz-adv-x="641" 
d="M233 845h22l77 -82l78 82h21l-87 -102h-24zM341 -6q-64 0 -116.5 25t-90 71t-57.5 111t-20 146q0 85 21 152t58.5 113t90.5 70t116 24q102 0 160.5 -46.5t63.5 -127.5q2 -27 -4 -53h-20q2 13 3.5 25.5t0.5 23.5q-5 75 -57 117.5t-147 42.5q-58 0 -107 -23t-84.5 -66.5
t-55 -107t-19.5 -144.5q0 -75 19 -136.5t53.5 -106t83 -68.5t108.5 -24q76 0 130.5 21t85.5 55v219h-201v18h221v-244q-35 -39 -92.5 -63t-143.5 -24z" />
    <glyph glyph-name="gcaron" unicode="&#x1e7;" horiz-adv-x="478" 
d="M160 710h21l78 -125l77 125h21l-88 -142h-23zM257 -239q-64 0 -110 27t-63 69l16 8q16 -39 60 -63t97 -24q75 0 116.5 42t41.5 114v178q-7 -26 -23.5 -47.5t-39 -37.5t-50 -24.5t-57.5 -8.5q-90 0 -141.5 65t-51.5 179q0 118 51 184t142 66q28 0 54.5 -7t49 -19.5
t40 -29.5t26.5 -37v87h18v-547q0 -81 -47 -127.5t-129 -46.5zM245 11q31 0 59.5 10.5t51 29.5t38 44.5t21.5 56.5v206q-8 25 -24.5 45.5t-39.5 35.5t-50 23.5t-56 8.5q-40 0 -72.5 -16.5t-55 -47t-35 -73.5t-12.5 -96q0 -52 12.5 -94t35 -71.5t55 -45.5t72.5 -16z" />
    <glyph glyph-name="uni01EA" unicode="&#x1ea;" horiz-adv-x="700" 
d="M393 -3q-35 -11 -56 -34.5t-21 -55.5q0 -52 52 -52q14 0 22.5 3.5t16.5 10.5l9 -13q-7 -7 -19.5 -12.5t-29.5 -5.5q-33 0 -52 17t-19 48q0 30 15 53t41 38h-2q-54 0 -106.5 18t-94 59.5t-66.5 109.5t-25 168t25 168t66.5 110t94 60.5t106.5 18.5t106.5 -18.5t94 -60.5
t66.5 -110t25 -168q0 -90 -20.5 -154t-55 -106t-79.5 -64t-94 -28zM78 349q0 -94 23.5 -158t61.5 -104t87 -57.5t100 -17.5t100 17.5t87 57.5t61.5 104t23.5 158t-23.5 158.5t-61.5 104.5t-87 58t-100 18t-100 -18t-87 -58t-61.5 -104.5t-23.5 -158.5z" />
    <glyph glyph-name="uni01EB" unicode="&#x1eb;" horiz-adv-x="514" 
d="M304 -6q-32 -11 -51 -33.5t-19 -53.5q0 -52 52 -52q14 0 22.5 3.5t16.5 10.5l9 -13q-7 -7 -19.5 -12.5t-29.5 -5.5q-33 0 -52 17t-19 48q0 27 13 49t35 37h-7q-43 0 -80.5 15.5t-64.5 47t-42.5 78.5t-15.5 110t16.5 110t44.5 78.5t65.5 47t80.5 15.5q44 0 81 -15.5
t64 -47t42.5 -78.5t15.5 -110q0 -107 -44.5 -168.5t-113.5 -77.5zM70 240q0 -60 15 -104t40.5 -73t59 -43t70.5 -14t71 14t60.5 43t42 73t15.5 104t-15 104t-40.5 73t-59 43t-70.5 14t-71 -14t-60.5 -43t-42 -73t-15.5 -104z" />
    <glyph glyph-name="Aringacute" unicode="&#x1fa;" horiz-adv-x="604" 
d="M474 230h-344l-88 -230h-20l263 685q-31 5 -49.5 27.5t-19.5 57.5q1 37 23.5 60.5t58.5 25.5l71 89h28l-80 -90q32 -5 51 -27.5t20 -57.5q-1 -33 -19.5 -56.5t-49.5 -28.5l263 -685h-20zM236 770q0 -32 17 -50.5t49 -18.5t49 18.5t17 50.5t-17 50.5t-49 18.5t-49 -18.5
t-17 -50.5zM467 248l-165 431l-165 -431h330z" />
    <glyph glyph-name="aringacute" unicode="&#x1fb;" horiz-adv-x="476" 
d="M247 531q-38 0 -63 25t-25 63q0 36 21.5 60t56.5 28l77 126h26l-81 -127q34 -4 55 -28t21 -59q0 -38 -25 -63t-63 -25zM247 689q-32 0 -50 -19t-18 -51t18 -51t50 -19t50 19t18 51t-18 51t-50 19zM436 72q0 -29 10 -42t33 -13v-17q-3 -1 -5.5 -1h-4.5q-24 0 -37.5 19
t-13.5 54v34q-8 -24 -23.5 -45t-37.5 -37t-49 -25.5t-58 -9.5q-44 0 -80.5 16.5t-62.5 47.5t-40.5 77t-14.5 104q0 59 14 106.5t40 81t64.5 51.5t86.5 18q54 0 97.5 -27.5t63.5 -73.5v91h18v-409zM418 356q-20 57 -63.5 87.5t-97.5 30.5q-44 0 -78.5 -17t-58.5 -48.5
t-37 -76t-13 -98.5q0 -53 13.5 -95.5t37.5 -72t57 -45t72 -15.5q30 0 57.5 10.5t50.5 29.5t38.5 46t21.5 59v205z" />
    <glyph glyph-name="AEacute" unicode="&#x1fc;" horiz-adv-x="776" 
d="M443 845h28l-90 -102h-19zM295 700h441v-19h-411l117 -310h242v-19h-234l127 -333h159v-19h-172l-85 229h-350l-86 -229h-21zM471 247l-165 429l-170 -429h335z" />
    <glyph glyph-name="aeacute" unicode="&#x1fd;" horiz-adv-x="798" 
d="M380 568h-21l86 142h26zM397 261v-17q0 -58 14 -102.5t38.5 -74.5t58 -45.5t72.5 -15.5q51 0 89 20.5t61 52.5l14 -11q-25 -35 -66.5 -57t-97.5 -22q-72 0 -122.5 42.5t-69.5 123.5q-33 -85 -85 -123t-121 -38q-66 0 -102 30t-36 86q0 57 43.5 89.5t121.5 32.5h170v97
q0 144 -147 144q-69 0 -108 -32t-39 -87q0 -15 3 -27.5t8 -22.5h-18q-5 10 -8 23t-3 30q0 30 12 54.5t34 42t52 27.5t67 10q152 0 164 -139q23 66 70 102.5t110 36.5q85 0 129 -54t44 -159v-17h-352zM576 474q-37 0 -68 -14.5t-54 -40.5t-37 -62t-18 -79h332q0 40 -7.5 75.5
t-25 62.5t-47.5 42.5t-75 15.5zM182 11q72 0 121.5 42t75.5 121v41h-164q-75 0 -113 -27t-38 -78q0 -48 32 -73.5t86 -25.5z" />
    <glyph glyph-name="Oslashacute" unicode="&#x1fe;" horiz-adv-x="700" 
d="M317 743h-19l81 102h28zM550 628q42 -42 67 -110.5t25 -168.5t-25 -168t-66.5 -109.5t-94 -59.5t-106.5 -18q-51 0 -99 15t-88 50l-51 -75h-22l60 88q-42 42 -67 109.5t-25 167.5t25 168t66.5 110t94 60.5t106.5 18.5q51 0 99 -15.5t88 -50.5l51 76h22zM78 349
q0 -94 22.5 -157t60.5 -103l364 535q-37 34 -82 49t-93 15q-51 0 -100 -18t-87 -58t-61.5 -104.5t-23.5 -158.5zM350 12q51 0 100 17.5t87 57.5t61.5 104t23.5 158t-23 157.5t-61 104.5l-364 -535q38 -34 83 -49t93 -15z" />
    <glyph glyph-name="oslashacute" unicode="&#x1ff;" horiz-adv-x="514" 
d="M242 568h-21l86 142h26zM394 439q32 -32 50 -81t18 -118q0 -63 -16 -110t-44 -78.5t-65.5 -47t-81.5 -15.5q-35 0 -66.5 10.5t-56.5 31.5l-33 -51h-20l40 62q-32 32 -49.5 81t-17.5 117q0 63 16.5 110t44.5 78.5t65.5 47t80.5 15.5q71 0 123 -41l33 52h20zM70 240
q0 -63 16 -107.5t44 -73.5l241 375q-24 20 -52.5 30t-59.5 10q-37 0 -71 -14t-60.5 -43t-42 -73t-15.5 -104zM255 6q37 0 71 14t60.5 43t42 73t15.5 104q0 63 -16.5 108t-43.5 74l-242 -375q24 -21 52.5 -31t60.5 -10z" />
    <glyph glyph-name="uni0218" unicode="&#x218;" horiz-adv-x="565" 
d="M276 -6q-94 0 -149.5 29.5t-81.5 89.5l17 9q24 -55 76 -82.5t138 -27.5q111 0 164.5 43t53.5 120q0 38 -11 66.5t-37 49.5t-69 36t-107 26q-57 10 -97 24.5t-65 36t-36.5 51t-11.5 69.5q0 81 58.5 126.5t157.5 45.5q45 0 85 -9t69 -28.5t46 -50.5t17 -75q0 -7 -0.5 -14.5
t-1.5 -15.5h-17q1 8 1.5 15t0.5 14q0 39 -15.5 66.5t-42.5 45.5t-63.5 26t-78.5 8q-91 0 -143.5 -40.5t-52.5 -112.5q0 -36 10 -62.5t33.5 -46t61.5 -32.5t95 -23q66 -12 111 -28t72.5 -39t39 -55t11.5 -74q0 -84 -60 -132.5t-178 -48.5zM250 -166q17 14 27.5 29t12.5 41
q-20 0 -26.5 8t-6.5 19t7.5 19t18.5 8q28 0 28 -34q0 -40 -17.5 -64.5t-35.5 -35.5z" />
    <glyph glyph-name="uni0219" unicode="&#x219;" horiz-adv-x="440" 
d="M223 -11q-28 0 -55 3.5t-51 14.5t-43.5 31t-33.5 52l17 9q13 -31 31 -49t39.5 -28t46 -13t49.5 -3q71 0 110.5 29.5t39.5 83.5q0 32 -13 51.5t-34 31.5t-48 18.5t-56 12.5q-30 6 -59 13.5t-52.5 21.5t-37.5 36t-14 58q0 57 43 93t117 36q72 0 116.5 -33t44.5 -96
q0 -11 -2 -23.5t-5 -20.5h-18q3 7 5 19.5t2 25.5q0 53 -38.5 82t-104.5 29q-65 0 -103.5 -30t-38.5 -82q0 -31 13 -50.5t35 -31t49.5 -18t56.5 -12.5q30 -6 59 -13.5t51.5 -21.5t36 -36.5t13.5 -59.5q0 -63 -46.5 -96.5t-121.5 -33.5zM196 -166q17 14 27.5 29t12.5 41
q-20 0 -26.5 8t-6.5 19t7.5 19t18.5 8q28 0 28 -34q0 -40 -17.5 -64.5t-35.5 -35.5z" />
    <glyph glyph-name="uni021A" unicode="&#x21a;" horiz-adv-x="506" 
d="M243 682h-225v18h470v-18h-225v-682h-20v682zM221 -166q17 14 27.5 29t12.5 41q-20 0 -26.5 8t-6.5 19t7.5 19t18.5 8q28 0 28 -34q0 -40 -17.5 -64.5t-35.5 -35.5z" />
    <glyph glyph-name="uni021B" unicode="&#x21b;" horiz-adv-x="354" 
d="M235 -11q-67 0 -98.5 34.5t-31.5 108.5v333h-90v17h90v140h18v-140h210v-17h-210v-333q0 -66 27 -96t85 -30q29 0 58 14t46 36l12 -11q-19 -25 -51.5 -40.5t-64.5 -15.5zM197 -166q17 14 27.5 29t12.5 41q-20 0 -26.5 8t-6.5 19t7.5 19t18.5 8q28 0 28 -34
q0 -40 -17.5 -64.5t-35.5 -35.5z" />
    <glyph glyph-name="uni0232" unicode="&#x232;" horiz-adv-x="566" 
d="M173 796h220v-19h-220v19zM273 297l-243 403h24l229 -383l230 383h23l-243 -403v-297h-20v297z" />
    <glyph glyph-name="uni0233" unicode="&#x233;" horiz-adv-x="503" 
d="M137 647h220v-18h-220v18zM246 -247q-73 0 -114.5 27t-58.5 69l15 8q15 -37 52.5 -62t105.5 -25q73 0 115.5 42t42.5 114v202q-13 -62 -58.5 -99.5t-105.5 -37.5q-164 0 -164 165v326h18v-326q0 -148 146 -148q35 0 64.5 15t52 40.5t35 60.5t12.5 75v283h18v-565
q-3 -77 -50 -120.5t-126 -43.5z" />
    <glyph glyph-name="uni0237" unicode="&#x237;" horiz-adv-x="192" 
d="M-16 -247q-20 0 -34.5 3.5t-24.5 7.5q-12 6 -20 12l6 16q8 -6 19 -11q10 -4 23.5 -7.5t30.5 -3.5q51 0 78 29t27 101v582h18v-582q0 -75 -30 -111t-93 -36z" />
    <glyph glyph-name="uni0259" unicode="&#x259;" horiz-adv-x="469" 
d="M225 493q86 0 139 -61.5t53 -191.5q0 -57 -13.5 -103.5t-38 -78.5t-59.5 -49.5t-78 -17.5q-82 0 -131.5 54t-49.5 159v17h352v17q0 62 -13 107t-36.5 74t-55 43t-69.5 14q-54 0 -92.5 -23.5t-60.5 -61.5l-16 8q25 42 67.5 68t101.5 26zM228 8q37 0 67 14.5t51.5 40.5
t34.5 62t17 79h-333q0 -40 9 -75.5t28.5 -62.5t50.5 -42.5t75 -15.5z" />
    <glyph glyph-name="uni0272" unicode="&#x272;" horiz-adv-x="516" 
d="M438 75q0 -40 10 -50t33 -10v-15q-5 -1 -6.5 -1h-3.5q-28 0 -39.5 17t-11.5 54v236q0 78 -38 123t-111 45q-39 0 -69.5 -15.5t-52.5 -42.5t-33.5 -63t-11.5 -76v-370q0 -61 -28 -94.5t-79 -33.5q-35 0 -56.5 11.5t-34.5 29.5l14 13q17 -23 37.5 -29.5t39.5 -6.5
q44 0 66.5 28t22.5 82v501q0 40 -10 50t-33 10v15q4 1 10 1q28 0 39.5 -17t11.5 -54v-59q14 63 59 100t109 37q79 0 122.5 -48.5t43.5 -136.5v-231z" />
    <glyph glyph-name="circumflex" unicode="&#x2c6;" horiz-adv-x="306" 
d="M140 730h27l86 -142h-22l-78 121l-77 -121h-22z" />
    <glyph glyph-name="caron" unicode="&#x2c7;" horiz-adv-x="306" 
d="M54 701h22l77 -121l78 121h22l-86 -142h-27z" />
    <glyph glyph-name="breve" unicode="&#x2d8;" horiz-adv-x="284" 
d="M142 600q-39 0 -63 23t-24 74h21q0 -41 17 -58.5t49 -18.5t49 17.5t17 59.5h21q0 -51 -24 -74t-63 -23z" />
    <glyph glyph-name="dotaccent" unicode="&#x2d9;" horiz-adv-x="162" 
d="M81 607q-11 0 -18.5 7.5t-7.5 18.5t7.5 18.5t18.5 7.5t18.5 -7.5t7.5 -18.5t-7.5 -18.5t-18.5 -7.5z" />
    <glyph glyph-name="ring" unicode="&#x2da;" horiz-adv-x="234" 
d="M117 588q-25 0 -41 16t-16 41t16 41t41 16t41 -16t16 -41t-16 -41t-41 -16zM117 605q19 0 29.5 11t10.5 29t-10.5 29t-29.5 11t-29.5 -11t-10.5 -29t10.5 -29t29.5 -11z" />
    <glyph glyph-name="ogonek" unicode="&#x2db;" horiz-adv-x="235" 
d="M127 -152q-30 0 -48.5 16t-18.5 48q0 30 15.5 50t33.5 32q22 14 49 22l1 -15q-22 -7 -39 -19q-17 -10 -28.5 -26t-11.5 -40q0 -50 47 -50q9 0 16.5 2.5t12.5 4.5q7 4 12 8l7 -15q-5 -5 -12 -9q-6 -4 -15 -6.5t-21 -2.5z" />
    <glyph glyph-name="tilde" unicode="&#x2dc;" horiz-adv-x="354" 
d="M67 590q-2 4 -3 8q-2 4 -3 9.5t-1 11.5q0 23 14 38t41 15q18 0 33.5 -6t30 -13.5t30 -13.5t33.5 -6q13 0 22 6t9 20q0 11 -3 19q-1 4 -3 7h21q2 -3 3 -7t2 -8.5t1 -10.5q0 -20 -12.5 -33t-39.5 -13q-21 0 -38 6t-31.5 13.5t-28.5 13.5t-29 6t-25 -8.5t-10 -24.5
q0 -10 4 -20q2 -5 4 -9h-21z" />
    <glyph glyph-name="hungarumlaut" unicode="&#x2dd;" horiz-adv-x="328" 
d="M131 710h27l-91 -142h-22zM255 710h27l-91 -142h-22z" />
    <glyph glyph-name="gravecomb" unicode="&#x300;" 
d="M-172 710h26l86 -142h-22z" />
    <glyph glyph-name="acutecomb" unicode="&#x301;" 
d="M-82 710h26l-91 -142h-21z" />
    <glyph glyph-name="uni0302" unicode="&#x302;" 
d="M-164 710h23l87 -142h-21l-78 124l-77 -124h-21z" />
    <glyph glyph-name="tildecomb" unicode="&#x303;" 
d="M-287 603q-3 4 -5 11t-2 13q0 24 14.5 38.5t40.5 14.5q19 0 34 -9.5t29.5 -20.5t30 -20.5t33.5 -9.5q31 0 31 34q0 19 -6 26h20q6 -7 6 -26q0 -24 -13.5 -37.5t-37.5 -13.5q-22 0 -38.5 9.5t-31 20.5t-28.5 20.5t-29 9.5q-16 0 -26 -9.5t-10 -26.5q0 -12 7 -24h-19z" />
    <glyph glyph-name="uni0304" unicode="&#x304;" 
d="M-280 647h220v-18h-220v18z" />
    <glyph glyph-name="uni0306" unicode="&#x306;" 
d="M-142 579q-44 0 -70 25.5t-26 81.5h20q0 -47 20 -67t56 -21t56 20.5t20 67.5h20q0 -55 -26 -81t-70 -26z" />
    <glyph glyph-name="uni0307" unicode="&#x307;" 
d="M-81 607q-11 0 -19 8t-8 19t8 19t19 8t19 -8t8 -19t-8 -19t-19 -8z" />
    <glyph glyph-name="uni0308" unicode="&#x308;" 
d="M-228 607q-11 0 -18.5 7.5t-7.5 18.5t7.5 18.5t18.5 7.5t18.5 -7.5t7.5 -18.5t-7.5 -18.5t-18.5 -7.5zM-81 607q-11 0 -18.5 7.5t-7.5 18.5t7.5 18.5t18.5 7.5t18.5 -7.5t7.5 -18.5t-7.5 -18.5t-18.5 -7.5z" />
    <glyph glyph-name="uni030A" unicode="&#x30a;" 
d="M-119 531q-38 0 -63 25t-25 63t25 63t63 25t63 -25t25 -63t-25 -63t-63 -25zM-119 549q32 0 50 19t18 51t-18 51t-50 19t-50 -19t-18 -51t18 -51t50 -19z" />
    <glyph glyph-name="uni030B" unicode="&#x30b;" 
d="M-215 710h25l-68 -142h-17zM-91 710h25l-68 -142h-17z" />
    <glyph glyph-name="uni030C" unicode="&#x30c;" 
d="M-251 710h21l78 -125l77 125h21l-88 -142h-23z" />
    <glyph glyph-name="uni0312" unicode="&#x312;" 
d="M-50 578q-14 0 -21 9.5t-7 26.5q0 32 14 52t30 28l10 -12q-14 -10 -23 -22t-10 -29q20 2 27 -7t7 -20t-8 -18.5t-19 -7.5z" />
    <glyph glyph-name="dotbelowcomb" unicode="&#x323;" 
d="M-81 -144q-11 0 -19 8t-8 19t8 19t19 8t19 -8t8 -19t-8 -19t-19 -8z" />
    <glyph glyph-name="uni0326" unicode="&#x326;" 
d="M-114 -166q17 14 27.5 29t12.5 41q-20 0 -26.5 8t-6.5 19t7.5 19t18.5 8q28 0 28 -34q0 -40 -17.5 -64.5t-35.5 -35.5z" />
    <glyph glyph-name="uni0327" unicode="&#x327;" 
d="M-130 -167q-43 0 -63 22l11 15q20 -19 53 -19q53 0 53 43q0 22 -17 34t-62 14l23 59h17l-17 -44q45 -4 60.5 -20.5t15.5 -42.5q0 -30 -19.5 -45.5t-54.5 -15.5z" />
    <glyph glyph-name="uni0328" unicode="&#x328;" 
d="M-114 -161q-33 0 -52 17t-19 48q0 42 28.5 70t71.5 38l9 -11q-39 -9 -64 -33.5t-25 -59.5q0 -52 52 -52q14 0 22.5 3.5t16.5 10.5l9 -13q-7 -7 -19.5 -12.5t-29.5 -5.5z" />
    <glyph glyph-name="uni0335" unicode="&#x335;" 
d="M-255 359h220v-17h-220v17z" />
    <glyph glyph-name="uni0336" unicode="&#x336;" 
d="M-625 564h570v-16h-570v16z" />
    <glyph glyph-name="uni0337" unicode="&#x337;" 
d="M-189 339l159 93l9 -16l-159 -93z" />
    <glyph glyph-name="uni0338" unicode="&#x338;" 
d="M-35 502h20l-336 -522h-20z" />
    <glyph glyph-name="Wgrave" unicode="&#x1e80;" horiz-adv-x="896" 
d="M370 845h29l80 -102h-19zM28 700h22l190 -680l197 680h22l197 -680l190 680h22l-200 -700h-24l-196 670l-196 -670h-24z" />
    <glyph glyph-name="wgrave" unicode="&#x1e81;" horiz-adv-x="670" 
d="M344 568l-90 142h26l86 -142h-22zM640 482l-146 -485h-28l-121 406l-10 34l-10 -34l-121 -406h-28l-146 485h20l126 -422l14 -46l14 46l125 422h12l125 -420l14 -48l14 48l126 420h20z" />
    <glyph glyph-name="Wacute" unicode="&#x1e82;" horiz-adv-x="896" 
d="M479 845h28l-90 -102h-19zM28 700h22l190 -680l197 680h22l197 -680l190 680h22l-200 -700h-24l-196 670l-196 -670h-24z" />
    <glyph glyph-name="wacute" unicode="&#x1e83;" horiz-adv-x="670" 
d="M320 568h-21l86 142h26zM640 482l-146 -485h-28l-121 406l-10 34l-10 -34l-121 -406h-28l-146 485h20l126 -422l14 -46l14 46l125 422h12l125 -420l14 -48l14 48l126 420h20z" />
    <glyph glyph-name="Wdieresis" unicode="&#x1e84;" horiz-adv-x="896" 
d="M373 769q-11 0 -18.5 7.5t-7.5 18.5t7.5 18.5t18.5 7.5t18.5 -7.5t7.5 -18.5t-7.5 -18.5t-18.5 -7.5zM520 769q-11 0 -18.5 7.5t-7.5 18.5t7.5 18.5t18.5 7.5t18.5 -7.5t7.5 -18.5t-7.5 -18.5t-18.5 -7.5zM28 700h22l190 -680l197 680h22l197 -680l190 680h22l-200 -700
h-24l-196 670l-196 -670h-24z" />
    <glyph glyph-name="wdieresis" unicode="&#x1e85;" horiz-adv-x="670" 
d="M261 607q-11 0 -18.5 7.5t-7.5 18.5t7.5 18.5t18.5 7.5t18.5 -7.5t7.5 -18.5t-7.5 -18.5t-18.5 -7.5zM408 607q-11 0 -18.5 7.5t-7.5 18.5t7.5 18.5t18.5 7.5t18.5 -7.5t7.5 -18.5t-7.5 -18.5t-18.5 -7.5zM640 482l-146 -485h-28l-121 406l-10 34l-10 -34l-121 -406h-28
l-146 485h20l126 -422l14 -46l14 46l125 422h12l125 -420l14 -48l14 48l126 420h20z" />
    <glyph glyph-name="uni1E9E" unicode="&#x1e9e;" horiz-adv-x="609" 
d="M322 382q68 -8 114.5 -25.5t75.5 -43.5t42 -61t13 -78q0 -42 -15.5 -75t-42.5 -56.5t-64.5 -36t-81.5 -12.5q-57 0 -103.5 15.5t-75.5 47.5l14 13q27 -29 70.5 -43.5t94.5 -14.5q39 0 72.5 11t58 32t38.5 51t14 68q0 42 -12.5 74.5t-41 56.5t-75.5 39.5t-115 22.5v17
l202 221q-25 31 -76 55.5t-122 24.5q-43 0 -78.5 -13t-61 -37.5t-39.5 -58.5t-14 -76v-500h-20v500q0 47 15.5 84.5t44 64t68 40.5t86.5 14q73 0 129 -27t85 -63v-14z" />
    <glyph glyph-name="uni1EA0" unicode="&#x1ea0;" horiz-adv-x="604" 
d="M562 0l-88 230h-344l-88 -230h-20l269 700h22l269 -700h-20zM467 248l-165 431l-165 -431h330zM302 -90q11 0 19 -8t8 -19t-8 -19t-19 -8t-19 8t-8 19t8 19t19 8z" />
    <glyph glyph-name="uni1EA1" unicode="&#x1ea1;" horiz-adv-x="476" 
d="M250 -11q-44 0 -80.5 16.5t-62.5 47.5t-40.5 77t-14.5 104q0 59 14 106.5t40 81t64.5 51.5t86.5 18q54 0 97.5 -27.5t63.5 -73.5v91h18v-409q0 -29 10 -42t33 -13v-17q-3 -1 -5.5 -1h-4.5q-24 0 -37.5 19t-13.5 54v34q-8 -24 -23.5 -45t-37.5 -37t-49 -25.5t-58 -9.5z
M250 6q30 0 57.5 10.5t50.5 29.5t38.5 46t21.5 59v205q-20 57 -63.5 87.5t-97.5 30.5q-44 0 -78.5 -17t-58.5 -48.5t-37 -76t-13 -98.5q0 -53 13.5 -95.5t37.5 -72t57 -45t72 -15.5zM269 -144q-11 0 -19 8t-8 19t8 19t19 8t19 -8t8 -19t-8 -19t-19 -8z" />
    <glyph glyph-name="uni1EB8" unicode="&#x1eb8;" horiz-adv-x="533" 
d="M100 700h390v-18h-370v-320h330v-18h-330v-326h370v-18h-390v700zM299 -144q-11 0 -19 8t-8 19t8 19t19 8t19 -8t8 -19t-8 -19t-19 -8z" />
    <glyph glyph-name="uni1EB9" unicode="&#x1eb9;" horiz-adv-x="466" 
d="M417 68q-20 -29 -59 -54t-105 -25q-92 0 -146.5 60.5t-54.5 182.5q0 54 16 101.5t45.5 82.5t71 55t92.5 20q60 0 99.5 -27t39.5 -83q0 -49 -30 -81.5t-79 -52t-111 -28.5t-125 -13q8 -102 58 -151t124 -49q62 0 96.5 23t53.5 50zM277 474q-45 0 -83 -18t-65.5 -50
t-43 -74.5t-15.5 -92.5v-15q59 4 117.5 12t105.5 25.5t76 46t29 73.5q0 49 -35.5 71t-85.5 22zM252 -90q11 0 19 -8t8 -19t-8 -19t-19 -8t-19 8t-8 19t8 19t19 8z" />
    <glyph glyph-name="uni1EBC" unicode="&#x1ebc;" horiz-adv-x="533" 
d="M189 753q-3 4 -5 11t-2 13q0 24 14.5 38.5t40.5 14.5q18 0 33.5 -9t30.5 -20.5t30.5 -20.5t33.5 -9q14 0 22 9t8 24q0 19 -6 26h20q6 -7 6 -26q0 -24 -13.5 -37.5t-37.5 -13.5q-21 0 -38 9t-32 20.5t-29 20.5t-29 9q-16 0 -25.5 -9.5t-9.5 -25.5q0 -12 7 -24h-19z
M100 700h390v-18h-370v-320h330v-18h-330v-326h370v-18h-390v700z" />
    <glyph glyph-name="uni1EBD" unicode="&#x1ebd;" horiz-adv-x="466" 
d="M137 603q-3 4 -5 11t-2 13q0 24 14.5 38.5t40.5 14.5q19 0 34 -9.5t29.5 -20.5t30 -20.5t33.5 -9.5q31 0 31 34q0 19 -6 26h20q6 -7 6 -26q0 -24 -13.5 -37.5t-37.5 -13.5q-22 0 -38.5 9.5t-31 20.5t-28.5 20.5t-29 9.5q-16 0 -26 -9.5t-10 -26.5q0 -12 7 -24h-19z
M417 68q-20 -29 -59 -54t-105 -25q-92 0 -146.5 60.5t-54.5 182.5q0 54 16 101.5t45.5 82.5t71 55t92.5 20q60 0 99.5 -27t39.5 -83q0 -49 -30 -81.5t-79 -52t-111 -28.5t-125 -13q8 -102 58 -151t124 -49q62 0 96.5 23t53.5 50zM277 474q-45 0 -83 -18t-65.5 -50t-43 -74.5
t-15.5 -92.5v-15q59 4 117.5 12t105.5 25.5t76 46t29 73.5q0 49 -35.5 71t-85.5 22z" />
    <glyph glyph-name="uni1ECA" unicode="&#x1eca;" horiz-adv-x="220" 
d="M100 700h20v-700h-20v700zM110 -144q-11 0 -19 8t-8 19t8 19t19 8t19 -8t8 -19t-8 -19t-19 -8z" />
    <glyph glyph-name="uni1ECB" unicode="&#x1ecb;" horiz-adv-x="188" 
d="M96 607q-11 0 -19 8t-8 19t8 19t19 8t19 -8t8 -19t-8 -19t-19 -8zM85 482h18v-482h-18v482zM96 -144q-11 0 -19 8t-8 19t8 19t19 8t19 -8t8 -19t-8 -19t-19 -8z" />
    <glyph glyph-name="uni1ECC" unicode="&#x1ecc;" horiz-adv-x="700" 
d="M350 -6q-54 0 -106.5 18t-94 59.5t-66.5 109.5t-25 168t25 168t66.5 110t94 60.5t106.5 18.5t106.5 -18.5t94 -60.5t66.5 -110t25 -168t-25 -168t-66.5 -109.5t-94 -59.5t-106.5 -18zM350 12q51 0 100 17.5t87 57.5t61.5 104t23.5 158t-23.5 158.5t-61.5 104.5t-87 58
t-100 18t-100 -18t-87 -58t-61.5 -104.5t-23.5 -158.5t23.5 -158t61.5 -104t87 -57.5t100 -17.5zM350 -144q-11 0 -19 8t-8 19t8 19t19 8t19 -8t8 -19t-8 -19t-19 -8z" />
    <glyph glyph-name="uni1ECD" unicode="&#x1ecd;" horiz-adv-x="514" 
d="M255 -11q-43 0 -80.5 15.5t-64.5 47t-42.5 78.5t-15.5 110t16.5 110t44.5 78.5t65.5 47t80.5 15.5q44 0 81 -15.5t64 -47t42.5 -78.5t15.5 -110t-16 -110t-44 -78.5t-65.5 -47t-81.5 -15.5zM255 6q37 0 71 14t60.5 43t42 73t15.5 104t-15 104t-40.5 73t-59 43t-70.5 14
t-71 -14t-60.5 -43t-42 -73t-15.5 -104t15 -104t40.5 -73t59 -43t70.5 -14zM257 -144q-11 0 -19 8t-8 19t8 19t19 8t19 -8t8 -19t-8 -19t-19 -8z" />
    <glyph glyph-name="uni1EE4" unicode="&#x1ee4;" horiz-adv-x="672" 
d="M336 -6q-54 0 -99.5 14t-77.5 47t-50 89t-18 140v416h20v-416q0 -79 16.5 -131t46.5 -83.5t71.5 -44.5t90.5 -13t90.5 13t71.5 44.5t47 83.5t17 131v416h19v-416q0 -84 -18 -140t-50 -89t-77.5 -47t-99.5 -14zM336 -144q-11 0 -19 8t-8 19t8 19t19 8t19 -8t8 -19t-8 -19
t-19 -8z" />
    <glyph glyph-name="uni1EE5" unicode="&#x1ee5;" horiz-adv-x="508" 
d="M229 -11q-33 0 -61.5 8.5t-48.5 27.5t-31.5 50t-11.5 76v331h18v-331q0 -79 38 -112t97 -33q41 0 73.5 18.5t55 46t34.5 59t12 56.5v296h18v-407q0 -40 10 -50t33 -10v-15q-5 -1 -6.5 -1h-3.5q-28 0 -39.5 17t-11.5 54v51q-10 -26 -26.5 -50t-38.5 -42t-49.5 -29
t-60.5 -11zM254 -144q-11 0 -19 8t-8 19t8 19t19 8t19 -8t8 -19t-8 -19t-19 -8z" />
    <glyph glyph-name="Ygrave" unicode="&#x1ef2;" horiz-adv-x="566" 
d="M205 845h29l80 -102h-19zM273 297l-243 403h24l229 -383l230 383h23l-243 -403v-297h-20v297z" />
    <glyph glyph-name="ygrave" unicode="&#x1ef3;" horiz-adv-x="503" 
d="M170 710h26l86 -142h-22zM246 -247q-73 0 -114.5 27t-58.5 69l15 8q15 -37 52.5 -62t105.5 -25q73 0 115.5 42t42.5 114v202q-13 -62 -58.5 -99.5t-105.5 -37.5q-164 0 -164 165v326h18v-326q0 -148 146 -148q35 0 64.5 15t52 40.5t35 60.5t12.5 75v283h18v-565
q-3 -77 -50 -120.5t-126 -43.5z" />
    <glyph glyph-name="uni1EF8" unicode="&#x1ef8;" horiz-adv-x="566" 
d="M173 753q-3 4 -5 11t-2 13q0 24 14.5 38.5t40.5 14.5q18 0 33.5 -9t30.5 -20.5t30.5 -20.5t33.5 -9q14 0 22 9t8 24q0 19 -6 26h20q6 -7 6 -26q0 -24 -13.5 -37.5t-37.5 -13.5q-21 0 -38 9t-32 20.5t-29 20.5t-29 9q-16 0 -25.5 -9.5t-9.5 -25.5q0 -12 7 -24h-19z
M273 297l-243 403h24l229 -383l230 383h23l-243 -403v-297h-20v297z" />
    <glyph glyph-name="uni1EF9" unicode="&#x1ef9;" horiz-adv-x="503" 
d="M137 603q-3 4 -5 11t-2 13q0 24 14.5 38.5t40.5 14.5q19 0 34 -9.5t29.5 -20.5t30 -20.5t33.5 -9.5q31 0 31 34q0 19 -6 26h20q6 -7 6 -26q0 -24 -13.5 -37.5t-37.5 -13.5q-22 0 -38.5 9.5t-31 20.5t-28.5 20.5t-29 9.5q-16 0 -26 -9.5t-10 -26.5q0 -12 7 -24h-19z
M246 -247q-73 0 -114.5 27t-58.5 69l15 8q15 -37 52.5 -62t105.5 -25q73 0 115.5 42t42.5 114v202q-13 -62 -58.5 -99.5t-105.5 -37.5q-164 0 -164 165v326h18v-326q0 -148 146 -148q35 0 64.5 15t52 40.5t35 60.5t12.5 75v283h18v-565q-3 -77 -50 -120.5t-126 -43.5z" />
    <glyph glyph-name="endash" unicode="&#x2013;" horiz-adv-x="523" 
d="M70 284h383v-18h-383v18z" />
    <glyph glyph-name="emdash" unicode="&#x2014;" horiz-adv-x="883" 
d="M70 284h743v-18h-743v18z" />
    <glyph glyph-name="quoteleft" unicode="&#x2018;" horiz-adv-x="164" 
d="M111 700q-34 -15 -34 -59q32 0 32 -28q0 -12 -7.5 -19t-18.5 -7q-14 0 -22 9t-8 27q0 33 12 57.5t39 33.5z" />
    <glyph glyph-name="quoteright" unicode="&#x2019;" horiz-adv-x="164" 
d="M57 590q34 15 34 59q-32 0 -32 28q0 12 7.5 19t18.5 7q14 0 22 -9t8 -27q0 -33 -12 -57.5t-39 -33.5z" />
    <glyph glyph-name="quotesinglbase" unicode="&#x201a;" horiz-adv-x="166" 
d="M53 -67q34 15 34 59q-32 0 -32 28q0 12 7.5 19t18.5 7q14 0 22 -9t8 -27q0 -33 -12 -57.5t-39 -33.5z" />
    <glyph glyph-name="quotedblleft" unicode="&#x201c;" horiz-adv-x="249" 
d="M111 700q-34 -15 -34 -59q32 0 32 -28q0 -12 -7.5 -19t-18.5 -7q-14 0 -22 9t-8 27q0 33 12 57.5t39 33.5zM196 700q-34 -15 -34 -59q32 0 32 -28q0 -12 -7.5 -19t-18.5 -7q-14 0 -22 9t-8 27q0 33 12 57.5t39 33.5z" />
    <glyph glyph-name="quotedblright" unicode="&#x201d;" horiz-adv-x="249" 
d="M57 590q34 15 34 59q-32 0 -32 28q0 12 7.5 19t18.5 7q14 0 22 -9t8 -27q0 -33 -12 -57.5t-39 -33.5zM142 590q34 15 34 59q-32 0 -32 28q0 12 7.5 19t18.5 7q14 0 22 -9t8 -27q0 -33 -12 -57.5t-39 -33.5z" />
    <glyph glyph-name="quotedblbase" unicode="&#x201e;" horiz-adv-x="251" 
d="M53 -67q34 15 34 59q-32 0 -32 28q0 12 7.5 19t18.5 7q14 0 22 -9t8 -27q0 -33 -12 -57.5t-39 -33.5zM138 -67q34 15 34 59q-32 0 -32 28q0 12 7.5 19t18.5 7q14 0 22 -9t8 -27q0 -33 -12 -57.5t-39 -33.5z" />
    <glyph glyph-name="dagger" unicode="&#x2020;" horiz-adv-x="372" 
d="M176 523h-130v17h130v160h20v-160h130v-17h-130l-3 -403h-14z" />
    <glyph glyph-name="daggerdbl" unicode="&#x2021;" horiz-adv-x="372" 
d="M177 323h-121v17h121l-1 183h-130v17h130v160h20v-160h130v-17h-130l-1 -183h121v-17h-121l-2 -203h-14z" />
    <glyph glyph-name="bullet" unicode="&#x2022;" horiz-adv-x="298" 
d="M149 233q-23 0 -39.5 16.5t-16.5 39.5t16.5 39.5t39.5 16.5t39.5 -16.5t16.5 -39.5t-16.5 -39.5t-39.5 -16.5z" />
    <glyph glyph-name="ellipsis" unicode="&#x2026;" horiz-adv-x="442" 
d="M85 -6q-11 0 -18.5 7.5t-7.5 18.5t7.5 18.5t18.5 7.5t18.5 -7.5t7.5 -18.5t-7.5 -18.5t-18.5 -7.5zM221 -6q-11 0 -18.5 7.5t-7.5 18.5t7.5 18.5t18.5 7.5t18.5 -7.5t7.5 -18.5t-7.5 -18.5t-18.5 -7.5zM357 -6q-11 0 -18.5 7.5t-7.5 18.5t7.5 18.5t18.5 7.5t18.5 -7.5
t7.5 -18.5t-7.5 -18.5t-18.5 -7.5z" />
    <glyph glyph-name="perthousand" unicode="&#x2030;" horiz-adv-x="805" 
d="M128 424q-42 0 -68.5 32t-26.5 107t26 107t69 32t69 -32t26 -107t-26.5 -107t-68.5 -32zM371 700h19l-212 -700h-19zM128 439q42 0 59.5 33.5t17.5 90.5t-17.5 90.5t-59.5 33.5t-59.5 -33.5t-17.5 -90.5t17.5 -90.5t59.5 -33.5zM423 -2q-42 0 -68.5 32t-26.5 107t26 107
t69 32t69 -32t26 -107t-26.5 -107t-68.5 -32zM679 -2q-42 0 -68.5 32t-26.5 107t26 107t69 32t69 -32t26 -107t-26.5 -107t-68.5 -32zM423 13q42 0 59.5 33.5t17.5 90.5t-17.5 90.5t-59.5 33.5t-59.5 -33.5t-17.5 -90.5t17.5 -90.5t59.5 -33.5zM679 13q42 0 59.5 33.5
t17.5 90.5t-17.5 90.5t-59.5 33.5t-59.5 -33.5t-17.5 -90.5t17.5 -90.5t59.5 -33.5z" />
    <glyph glyph-name="guilsinglleft" unicode="&#x2039;" horiz-adv-x="260" 
d="M42 248v19l141 147l13 -15l-138 -141l138 -142l-13 -15z" />
    <glyph glyph-name="guilsinglright" unicode="&#x203a;" horiz-adv-x="260" 
d="M64 116l138 141l-138 142l13 15l141 -147v-19l-141 -147z" />
    <glyph glyph-name="fraction" unicode="&#x2044;" horiz-adv-x="120" 
d="M161 726h20l-221 -726h-20z" />
    <glyph glyph-name="Euro" unicode="&#x20ac;" horiz-adv-x="610" 
d="M574 65q-25 -21 -68 -40.5t-107 -19.5q-109 0 -180 67t-88 195h-95v18h93q-1 13 -1.5 26.5t-0.5 27.5q0 13 0.5 25t1.5 23h-93v18h95q8 68 31.5 120.5t59.5 88.5t82.5 54.5t100.5 18.5q57 0 94 -14.5t65 -37.5l-14 -14q-26 21 -59.5 34.5t-85.5 13.5q-50 0 -93 -17
t-76.5 -50.5t-55 -83t-29.5 -113.5h295v-18h-297q-1 -11 -1.5 -23t-0.5 -25q0 -28 3 -54h296v-18h-294q16 -119 81.5 -181.5t165.5 -62.5q55 0 97 18.5t66 37.5z" />
    <glyph glyph-name="trademark" unicode="&#x2122;" horiz-adv-x="717" 
d="M157 683h-130v17h278v-17h-130v-333h-18v333zM335 700h30l121 -275l121 275h28v-350h-18v333l-122 -276h-20l-122 276v-333h-18v350z" />
    <glyph glyph-name="minus" unicode="&#x2212;" horiz-adv-x="470" 
d="M73 267h324v-19h-324v19z" />
    <glyph glyph-name="uni2215" unicode="&#x2215;" horiz-adv-x="345" 
d="M325 726h20l-323 -726h-20z" />
    <glyph glyph-name="uni2219" unicode="&#x2219;" horiz-adv-x="266" 
d="M133 253q-20 0 -20 20t20 20t20 -20t-20 -20z" />
    <glyph glyph-name="approxequal" unicode="&#x2248;" horiz-adv-x="498" 
d="M84 271q-3 5 -5 12q-3 6 -4.5 14t-1.5 18q0 30 21 52.5t62 22.5q28 0 51 -10.5t45 -23.5t45 -23.5t51 -10.5q27 0 42.5 14t15.5 39q0 10 -1.5 17t-2.5 12q-2 6 -5 10h20q3 -5 5 -10q1 -6 2.5 -13t1.5 -16q0 -31 -18.5 -52t-59.5 -21q-32 0 -57.5 10.5t-47.5 23t-43 23
t-44 10.5q-33 0 -48.5 -15.5t-15.5 -38.5q0 -9 2 -17t4 -14q3 -7 6 -13h-20zM84 99q-3 5 -5 12q-3 6 -4.5 14t-1.5 18q0 30 20.5 52.5t62.5 22.5q28 0 51 -10.5t45 -23.5t45 -23.5t51 -10.5q27 0 42.5 14t15.5 39q0 10 -1.5 17t-2.5 12q-2 6 -5 10h20q3 -5 5 -10
q1 -6 2.5 -13t1.5 -16q0 -31 -18.5 -52t-59.5 -21q-32 0 -57.5 10.5t-47.5 23t-43 23t-44 10.5q-33 0 -48.5 -15.5t-15.5 -38.5q0 -9 2 -17t4 -14q3 -7 6 -13h-20z" />
    <glyph glyph-name="notequal" unicode="&#x2260;" horiz-adv-x="496" 
d="M207 161h-134v18h139l51 162h-190v18h195l35 110h20l-34 -110h134v-18h-140l-50 -162h190v-18h-196l-34 -110h-20z" />
    <glyph glyph-name="lessequal" unicode="&#x2264;" horiz-adv-x="407" 
d="M60 288v18l286 201v-20l-268 -190l268 -190v-20zM41 18h324v-18h-324v18z" />
    <glyph glyph-name="greaterequal" unicode="&#x2265;" horiz-adv-x="407" 
d="M61 107l268 190l-268 190v23l286 -201v-23l-286 -201v22zM42 18h324v-18h-324v18z" />
    <glyph glyph-name="uniF8FF" unicode="&#xf8ff;" horiz-adv-x="1451" 
d="M752 522q-26 0 -43.5 17.5t-17.5 43.5t17.5 44t43.5 18t44 -18t18 -44t-18 -43.5t-44 -17.5zM100 270q0 57 1 108t2.5 91.5t3 70t2.5 44.5h100q2 -30 6 -114t4 -200h-119zM604 264q-82 0 -82 66q0 8 0.5 21.5t1.5 27.5t1.5 25t0.5 13h-22v79l119 30l1 -17h178
q3 -17 4.5 -45t3 -61t2 -68t0.5 -65h-118q0 92 3 147h-61l3 -65q4 -4 15 -4q5 0 10 1t8 4v-74q-8 -8 -27 -11.5t-41 -3.5zM328 265q-43 0 -67.5 27.5t-24.5 86.5q0 64 32.5 99.5t101.5 35.5q64 0 94 -30.5t30 -86.5v-127h-83l-8 61q-6 -31 -22.5 -48.5t-52.5 -17.5zM834 270
q0 30 0.5 65t2 68t3 61t4.5 45h80q2 -17 4 -39t2 -37q1 6 4 19.5t12 27t24 24t40 10.5q45 0 60 -26t17 -80l3 -138h-114q0 35 1 56.5t1 36.5t-2.5 22t-12.5 7q-12 0 -15 -8t-3 -21q0 -15 1.5 -36.5t1.5 -56.5h-114zM1228 265q-64 0 -93 33.5t-29 90.5q0 24 5.5 46.5t19.5 40
t38 28t61 10.5q36 0 59.5 -10.5t37 -27.5t19 -39t5.5 -46q0 -60 -29.5 -93t-93.5 -33zM366 345q24 0 24 30q0 26 -24 26q-22 0 -22 -26q0 -30 22 -30zM1228 345q23 0 23 30q0 26 -23 26q-21 0 -21 -26q0 -30 21 -30zM390 -50q-45 0 -63.5 6.5t-24.5 10.5v83q5 -3 21.5 -9.5
t48.5 -6.5q17 0 27.5 3.5t16.5 8t8 9.5t2 7q-5 -3 -15.5 -7t-33.5 -4q-90 0 -90 83v13h-55l3 -65q2 -2 5.5 -3t9.5 -1q8 0 12 1.5t6 3.5v-73q-4 -3 -17 -9t-51 -6q-46 0 -63.5 17.5t-17.5 53.5q0 6 0.5 17t1 23.5t1 24t0.5 16.5h-18v80l117 29l-1 -18h177v-119
q0 -16 3 -21.5t12 -5.5t12.5 6t3.5 21v119h104q2 -8 3.5 -23t3 -34t2.5 -40t1 -41q0 -79 -33 -114.5t-119 -35.5zM558 -44q0 128 4.5 194.5t5.5 87.5h78q1 -4 2 -14t2 -21.5t2 -22.5t1 -18q1 5 5 18.5t12.5 27.5t23.5 24.5t39 10.5q37 0 58.5 -28.5t21.5 -84.5
q0 -135 -137 -135q1 -11 1 -22.5v-16.5h-119zM970 -5q-72 0 -106.5 31t-34.5 91q0 59 32.5 92.5t92.5 33.5q55 0 85.5 -29.5t30.5 -86.5q0 -8 -0.5 -18t-2.5 -17h-124q4 -6 15.5 -12t34.5 -6q14 0 29 3t26 9v-75q-8 -5 -27 -10.5t-51 -5.5zM978 109q3 27 -17 27
q-23 0 -23 -27h40zM670 72q3 0 9 1.5t12 5.5t11 11t5 19q0 23 -20 23q-22 0 -22 -31q0 -12 2 -19.5t3 -9.5zM1098 -10q-11 0 -17.5 6t-6.5 17t6.5 17t17.5 6t17.5 -6t6.5 -17t-6.5 -17t-17.5 -6zM1098 -5q18 0 18 18t-18 18t-18 -18t18 -18zM1088 25h11q10 0 10 -7t-7 -7
l6 -9h-6l-4 9h-5v-9h-5v23zM1100 15q4 0 4 3t-4 3h-7v-6h7z" />
    <glyph glyph-name="Euro.osf" horiz-adv-x="511" 
d="M474 48q-20 -16 -54 -30.5t-85 -14.5q-83 0 -138 45.5t-70 131.5h-84v18h82q-3 21 -3 44q0 11 0.5 22t1.5 22h-81v17h84q14 88 69 137t136 49q46 0 79 -12t55 -29l-14 -13q-20 16 -49.5 26t-70.5 10q-73 0 -122 -44t-63 -124h216v-17h-218q-3 -21 -3 -44t3 -44h218v-18
h-215q14 -78 63.5 -118.5t124.5 -40.5q42 0 74.5 13.5t51.5 27.5z" />
    <glyph glyph-name="Euro.sc" horiz-adv-x="503" 
d="M460 48q-20 -16 -54 -30.5t-85 -14.5q-85 0 -140 47.5t-69 136.5h-74v18h72q-1 9 -1.5 18t-0.5 19v15.5t1 15.5h-71v17h73q12 94 67 146.5t140 52.5q46 0 79 -12t55 -29l-14 -13q-20 16 -49.5 26t-70.5 10q-76 0 -126 -47.5t-61 -133.5h227v-17h-229q-1 -8 -1 -15.5
v-15.5q0 -10 0.5 -19t1.5 -18h228v-18h-226q14 -81 64 -123.5t126 -42.5q42 0 74.5 13.5t51.5 27.5z" />
    <glyph glyph-name="IJacute" horiz-adv-x="651" 
d="M168 845h28l-90 -102h-19zM588 845h28l-90 -102h-19zM100 700h20v-700h-20v700zM386 -6q-48 0 -87.5 22.5t-63.5 57.5l15 12q21 -32 57.5 -53t78.5 -21q71 0 111.5 44.5t40.5 128.5v515h20v-512q0 -94 -45.5 -144t-126.5 -50z" />
    <glyph glyph-name="a.sc" horiz-adv-x="501" 
d="M387 161h-273l-70 -161h-18l215 497h19l215 -497h-18zM381 177l-130 301l-131 -301h261z" />
    <glyph glyph-name="a.ss01" horiz-adv-x="476" 
d="M397 76q0 -40 10 -50t33 -10v-15q-5 -1 -10 -1q-28 0 -39.5 17t-11.5 54v63q-26 -65 -77 -102.5t-120 -37.5q-66 0 -102 29.5t-36 85.5q0 57 43.5 90t121.5 33h170v97q0 144 -147 144q-69 0 -108 -32t-39 -87q0 -15 3 -27.5t8 -22.5h-18q-5 10 -8 23t-3 30q0 30 12 54.5
t34 42t52 27.5t67 10q165 0 165 -162v-253zM182 11q71 0 122.5 44.5t74.5 119.5v40h-164q-75 0 -113 -27.5t-38 -78.5q0 -48 32 -73t86 -25z" />
    <glyph glyph-name="aacute.sc" horiz-adv-x="501" 
d="M236 583h-21l86 142h26zM387 161h-273l-70 -161h-18l215 497h19l215 -497h-18zM381 177l-130 301l-131 -301h261z" />
    <glyph glyph-name="aacute.ss01" horiz-adv-x="476" 
d="M222 568h-21l86 142h26zM397 76q0 -40 10 -50t33 -10v-15q-5 -1 -10 -1q-28 0 -39.5 17t-11.5 54v63q-26 -65 -77 -102.5t-120 -37.5q-66 0 -102 29.5t-36 85.5q0 57 43.5 90t121.5 33h170v97q0 144 -147 144q-69 0 -108 -32t-39 -87q0 -15 3 -27.5t8 -22.5h-18
q-5 10 -8 23t-3 30q0 30 12 54.5t34 42t52 27.5t67 10q165 0 165 -162v-253zM182 11q71 0 122.5 44.5t74.5 119.5v40h-164q-75 0 -113 -27.5t-38 -78.5q0 -48 32 -73t86 -25z" />
    <glyph glyph-name="abreve.sc" horiz-adv-x="501" 
d="M251 594q-44 0 -70 25.5t-26 81.5h20q0 -47 20 -67t56 -21t56 20.5t20 67.5h20q0 -55 -26 -81t-70 -26zM387 161h-273l-70 -161h-18l215 497h19l215 -497h-18zM381 177l-130 301l-131 -301h261z" />
    <glyph glyph-name="abreve.ss01" horiz-adv-x="476" 
d="M237 579q-44 0 -70 25.5t-26 81.5h20q0 -47 20 -67t56 -21t56 20.5t20 67.5h20q0 -55 -26 -81t-70 -26zM397 76q0 -40 10 -50t33 -10v-15q-5 -1 -10 -1q-28 0 -39.5 17t-11.5 54v63q-26 -65 -77 -102.5t-120 -37.5q-66 0 -102 29.5t-36 85.5q0 57 43.5 90t121.5 33h170
v97q0 144 -147 144q-69 0 -108 -32t-39 -87q0 -15 3 -27.5t8 -22.5h-18q-5 10 -8 23t-3 30q0 30 12 54.5t34 42t52 27.5t67 10q165 0 165 -162v-253zM182 11q71 0 122.5 44.5t74.5 119.5v40h-164q-75 0 -113 -27.5t-38 -78.5q0 -48 32 -73t86 -25z" />
    <glyph glyph-name="acircumflex.sc" horiz-adv-x="501" 
d="M173 583h-21l87 142h23l87 -142h-21l-78 124zM387 161h-273l-70 -161h-18l215 497h19l215 -497h-18zM381 177l-130 301l-131 -301h261z" />
    <glyph glyph-name="acircumflex.ss01" horiz-adv-x="476" 
d="M159 568h-21l87 142h23l87 -142h-21l-78 124zM397 76q0 -40 10 -50t33 -10v-15q-5 -1 -10 -1q-28 0 -39.5 17t-11.5 54v63q-26 -65 -77 -102.5t-120 -37.5q-66 0 -102 29.5t-36 85.5q0 57 43.5 90t121.5 33h170v97q0 144 -147 144q-69 0 -108 -32t-39 -87q0 -15 3 -27.5
t8 -22.5h-18q-5 10 -8 23t-3 30q0 30 12 54.5t34 42t52 27.5t67 10q165 0 165 -162v-253zM182 11q71 0 122.5 44.5t74.5 119.5v40h-164q-75 0 -113 -27.5t-38 -78.5q0 -48 32 -73t86 -25z" />
    <glyph glyph-name="acute.case" horiz-adv-x="228" 
d="M146 615h27l-91 -102h-17z" />
    <glyph glyph-name="acutecomb.case" 
d="M-82 845h28l-90 -102h-19z" />
    <glyph glyph-name="adieresis.sc" horiz-adv-x="501" 
d="M177 622q-11 0 -18.5 7.5t-7.5 18.5t7.5 18.5t18.5 7.5t18.5 -7.5t7.5 -18.5t-7.5 -18.5t-18.5 -7.5zM324 622q-11 0 -18.5 7.5t-7.5 18.5t7.5 18.5t18.5 7.5t18.5 -7.5t7.5 -18.5t-7.5 -18.5t-18.5 -7.5zM387 161h-273l-70 -161h-18l215 497h19l215 -497h-18zM381 177
l-130 301l-131 -301h261z" />
    <glyph glyph-name="adieresis.ss01" horiz-adv-x="476" 
d="M163 607q-11 0 -18.5 7.5t-7.5 18.5t7.5 18.5t18.5 7.5t18.5 -7.5t7.5 -18.5t-7.5 -18.5t-18.5 -7.5zM310 607q-11 0 -18.5 7.5t-7.5 18.5t7.5 18.5t18.5 7.5t18.5 -7.5t7.5 -18.5t-7.5 -18.5t-18.5 -7.5zM397 76q0 -40 10 -50t33 -10v-15q-5 -1 -10 -1q-28 0 -39.5 17
t-11.5 54v63q-26 -65 -77 -102.5t-120 -37.5q-66 0 -102 29.5t-36 85.5q0 57 43.5 90t121.5 33h170v97q0 144 -147 144q-69 0 -108 -32t-39 -87q0 -15 3 -27.5t8 -22.5h-18q-5 10 -8 23t-3 30q0 30 12 54.5t34 42t52 27.5t67 10q165 0 165 -162v-253zM182 11
q71 0 122.5 44.5t74.5 119.5v40h-164q-75 0 -113 -27.5t-38 -78.5q0 -48 32 -73t86 -25z" />
    <glyph glyph-name="ae.sc" horiz-adv-x="641" 
d="M244 497h354v-16h-328l93 -217h194v-16h-187l100 -232h128v-16h-139l-68 161h-278l-69 -161h-18zM384 176l-131 300l-134 -300h265z" />
    <glyph glyph-name="aeacute.sc" horiz-adv-x="641" 
d="M389 725h26l-91 -142h-21zM244 497h354v-16h-328l93 -217h194v-16h-187l100 -232h128v-16h-139l-68 161h-278l-69 -161h-18zM384 176l-131 300l-134 -300h265z" />
    <glyph glyph-name="agrave.sc" horiz-adv-x="501" 
d="M260 583l-90 142h26l86 -142h-22zM387 161h-273l-70 -161h-18l215 497h19l215 -497h-18zM381 177l-130 301l-131 -301h261z" />
    <glyph glyph-name="agrave.ss01" horiz-adv-x="476" 
d="M246 568l-90 142h26l86 -142h-22zM397 76q0 -40 10 -50t33 -10v-15q-5 -1 -10 -1q-28 0 -39.5 17t-11.5 54v63q-26 -65 -77 -102.5t-120 -37.5q-66 0 -102 29.5t-36 85.5q0 57 43.5 90t121.5 33h170v97q0 144 -147 144q-69 0 -108 -32t-39 -87q0 -15 3 -27.5t8 -22.5h-18
q-5 10 -8 23t-3 30q0 30 12 54.5t34 42t52 27.5t67 10q165 0 165 -162v-253zM182 11q71 0 122.5 44.5t74.5 119.5v40h-164q-75 0 -113 -27.5t-38 -78.5q0 -48 32 -73t86 -25z" />
    <glyph glyph-name="amacron.sc" horiz-adv-x="501" 
d="M361 644h-220v18h220v-18zM387 161h-273l-70 -161h-18l215 497h19l215 -497h-18zM381 177l-130 301l-131 -301h261z" />
    <glyph glyph-name="amacron.ss01" horiz-adv-x="476" 
d="M347 629h-220v18h220v-18zM397 76q0 -40 10 -50t33 -10v-15q-5 -1 -10 -1q-28 0 -39.5 17t-11.5 54v63q-26 -65 -77 -102.5t-120 -37.5q-66 0 -102 29.5t-36 85.5q0 57 43.5 90t121.5 33h170v97q0 144 -147 144q-69 0 -108 -32t-39 -87q0 -15 3 -27.5t8 -22.5h-18
q-5 10 -8 23t-3 30q0 30 12 54.5t34 42t52 27.5t67 10q165 0 165 -162v-253zM182 11q71 0 122.5 44.5t74.5 119.5v40h-164q-75 0 -113 -27.5t-38 -78.5q0 -48 32 -73t86 -25z" />
    <glyph glyph-name="ampersand.sc" horiz-adv-x="540" 
d="M510 -1q-28 14 -52.5 27.5t-47.5 26.5q-56 -64 -168 -64q-93 0 -140.5 43.5t-47.5 109.5q0 54 25.5 93t67.5 60q-20 43 -20 93q0 66 40 99t107 33q60 0 96.5 -26.5t36.5 -77.5q0 -19 -3 -33t-7 -22h-18q10 22 10 54q0 45 -31.5 66.5t-83.5 21.5q-59 0 -94 -28.5
t-35 -85.5q0 -60 28.5 -106t86.5 -99q32 -29 67 -55.5t80 -53.5q40 57 40 152h18q-2 -101 -44 -160q22 -13 46 -26t51 -27zM243 6q100 0 153 56q-47 28 -82.5 55t-64.5 54q-32 30 -55.5 56.5t-39.5 53.5q-35 -18 -58 -55t-23 -84q0 -28 11.5 -53t33 -43.5t53.5 -29t72 -10.5
z" />
    <glyph glyph-name="aogonek.sc" horiz-adv-x="501" 
d="M486 -144q-7 -7 -19.5 -12.5t-29.5 -5.5q-33 0 -52 17t-19 48q0 38 25 65.5t63 39.5l-67 153h-273l-70 -161h-18l215 497h19l215 -497q-39 -9 -64 -33.5t-25 -59.5q0 -52 52 -52q14 0 22.5 3.5t16.5 10.5zM381 177l-130 301l-131 -301h261z" />
    <glyph glyph-name="aogonek.ss01" horiz-adv-x="476" 
d="M451 -143q-7 -7 -19.5 -12.5t-29.5 -5.5q-33 0 -52 17t-19 48q0 35 21 61t54 39q-27 13 -27 67v63q-26 -65 -77 -102.5t-120 -37.5q-66 0 -102 29.5t-36 85.5q0 57 43.5 90t121.5 33h170v97q0 144 -147 144q-69 0 -108 -32t-39 -87q0 -15 3 -27.5t8 -22.5h-18
q-5 10 -8 23t-3 30q0 30 12 54.5t34 42t52 27.5t67 10q165 0 165 -162v-253q0 -40 10 -50t33 -10v-15q-39 -9 -64 -33.5t-25 -59.5q0 -52 52 -52q14 0 22.5 3.5t16.5 10.5zM182 11q71 0 122.5 44.5t74.5 119.5v40h-164q-75 0 -113 -27.5t-38 -78.5q0 -48 32 -73t86 -25z" />
    <glyph glyph-name="aring.sc" horiz-adv-x="501" 
d="M251 546q-38 0 -63 25t-25 63t25 63t63 25t63 -25t25 -63t-25 -63t-63 -25zM251 704q-32 0 -50 -19t-18 -51t18 -51t50 -19t50 19t18 51t-18 51t-50 19zM387 161h-273l-70 -161h-18l215 497h19l215 -497h-18zM381 177l-130 301l-131 -301h261z" />
    <glyph glyph-name="aring.ss01" horiz-adv-x="476" 
d="M237 531q-38 0 -63 25t-25 63t25 63t63 25t63 -25t25 -63t-25 -63t-63 -25zM237 689q-32 0 -50 -19t-18 -51t18 -51t50 -19t50 19t18 51t-18 51t-50 19zM397 76q0 -40 10 -50t33 -10v-15q-5 -1 -10 -1q-28 0 -39.5 17t-11.5 54v63q-26 -65 -77 -102.5t-120 -37.5
q-66 0 -102 29.5t-36 85.5q0 57 43.5 90t121.5 33h170v97q0 144 -147 144q-69 0 -108 -32t-39 -87q0 -15 3 -27.5t8 -22.5h-18q-5 10 -8 23t-3 30q0 30 12 54.5t34 42t52 27.5t67 10q165 0 165 -162v-253zM182 11q71 0 122.5 44.5t74.5 119.5v40h-164q-75 0 -113 -27.5
t-38 -78.5q0 -48 32 -73t86 -25z" />
    <glyph glyph-name="aringacute.sc" horiz-adv-x="501" 
d="M387 161h-273l-70 -161h-18l209 483q-32 5 -52.5 28.5t-20.5 58.5q0 37 23 61.5t59 26.5l72 90h28l-80 -91q33 -5 53.5 -28.5t20.5 -58.5t-20 -58.5t-52 -28.5l209 -483h-18zM182 570q0 -32 18 -51t50 -19t50 19t18 51t-18 51t-50 19t-50 -19t-18 -51zM381 177l-130 301
l-131 -301h261z" />
    <glyph glyph-name="aringacute.ss01" horiz-adv-x="476" 
d="M237 531q-38 0 -63 25t-25 63q0 36 21.5 60t56.5 28l77 126h26l-81 -127q34 -4 55 -28t21 -59q0 -38 -25 -63t-63 -25zM237 689q-32 0 -50 -19t-18 -51t18 -51t50 -19t50 19t18 51t-18 51t-50 19zM397 76q0 -40 10 -50t33 -10v-15q-5 -1 -10 -1q-28 0 -39.5 17t-11.5 54
v63q-26 -65 -77 -102.5t-120 -37.5q-66 0 -102 29.5t-36 85.5q0 57 43.5 90t121.5 33h170v97q0 144 -147 144q-69 0 -108 -32t-39 -87q0 -15 3 -27.5t8 -22.5h-18q-5 10 -8 23t-3 30q0 30 12 54.5t34 42t52 27.5t67 10q165 0 165 -162v-253zM182 11q71 0 122.5 44.5
t74.5 119.5v40h-164q-75 0 -113 -27.5t-38 -78.5q0 -48 32 -73t86 -25z" />
    <glyph glyph-name="atilde.sc" horiz-adv-x="501" 
d="M141 550q-3 4 -5 11t-2 13q0 24 14.5 38.5t40.5 14.5q18 0 33.5 -9t30.5 -20.5t30.5 -20.5t33.5 -9q14 0 22 9t8 24q0 19 -6 26h20q6 -7 6 -26q0 -24 -13.5 -37.5t-37.5 -13.5q-21 0 -38 9t-32 20.5t-29 20.5t-29 9q-16 0 -25.5 -9.5t-9.5 -25.5q0 -12 7 -24h-19z
M387 161h-273l-70 -161h-18l215 497h19l215 -497h-18zM381 177l-130 301l-131 -301h261z" />
    <glyph glyph-name="atilde.ss01" horiz-adv-x="476" 
d="M127 603q-3 4 -5 11t-2 13q0 24 14.5 38.5t40.5 14.5q19 0 34 -9.5t29.5 -20.5t30 -20.5t33.5 -9.5q31 0 31 34q0 19 -6 26h20q6 -7 6 -26q0 -24 -13.5 -37.5t-37.5 -13.5q-22 0 -38.5 9.5t-31 20.5t-28.5 20.5t-29 9.5q-16 0 -26 -9.5t-10 -26.5q0 -12 7 -24h-19z
M397 76q0 -40 10 -50t33 -10v-15q-5 -1 -10 -1q-28 0 -39.5 17t-11.5 54v63q-26 -65 -77 -102.5t-120 -37.5q-66 0 -102 29.5t-36 85.5q0 57 43.5 90t121.5 33h170v97q0 144 -147 144q-69 0 -108 -32t-39 -87q0 -15 3 -27.5t8 -22.5h-18q-5 10 -8 23t-3 30q0 30 12 54.5
t34 42t52 27.5t67 10q165 0 165 -162v-253zM182 11q71 0 122.5 44.5t74.5 119.5v40h-164q-75 0 -113 -27.5t-38 -78.5q0 -48 32 -73t86 -25z" />
    <glyph glyph-name="b.sc" horiz-adv-x="503" 
d="M89 497h171q76 0 118.5 -30.5t42.5 -93.5q0 -36 -12 -58t-28 -34t-32 -17t-25 -6v-2q14 0 36 -5.5t43 -19t36 -37.5t15 -63q0 -37 -14.5 -62.5t-38.5 -40.5t-56.5 -21.5t-68.5 -6.5h-187v497zM275 263q36 0 60.5 9t39.5 24t22 35t7 42q0 48 -34 78t-112 30h-151v-218h168
zM276 16q29 0 58 4.5t51.5 17.5t36.5 35t14 58q0 32 -12 54.5t-32 36t-47.5 19.5t-59.5 6h-178v-231h169z" />
    <glyph glyph-name="braceleft.sc" horiz-adv-x="234" 
d="M193 -86q-18 -3 -35.5 0t-31 13.5t-22 28.5t-8.5 46v194q0 26 -16.5 36.5t-33.5 10.5h-8v16h8q17 0 33.5 11t16.5 37v193q0 28 8.5 46.5t22 28.5t31 13t35.5 0v-17q-37 6 -58 -12.5t-21 -59.5v-194q0 -15 -4.5 -25.5t-11 -16.5t-13 -8.5t-10.5 -3.5q3 -1 9.5 -4t13 -9
t11.5 -16t5 -25v-193q0 -42 21 -60.5t58 -12.5v-17z" />
    <glyph glyph-name="braceright.sc" horiz-adv-x="234" 
d="M41 588q18 3 35.5 0t31 -13.5t22 -28.5t8.5 -46v-194q0 -26 16.5 -36.5t33.5 -10.5h8v-16h-8q-17 0 -33.5 -11t-16.5 -37v-193q0 -28 -8.5 -46.5t-22 -28.5t-31 -13t-35.5 0v17q37 -6 58 12.5t21 59.5v194q0 15 4.5 25.5t11 16.5t13 8.5t10.5 3.5q-3 1 -9.5 4t-13 9
t-11.5 16t-5 25v193q0 42 -21 60.5t-58 12.5v17z" />
    <glyph glyph-name="bracketleft.sc" horiz-adv-x="226" 
d="M95 595h90v-16h-72v-656h72v-16h-90v688z" />
    <glyph glyph-name="bracketright.sc" horiz-adv-x="226" 
d="M41 -77h72v656h-72v16h90v-688h-90v16z" />
    <glyph glyph-name="breve.case" horiz-adv-x="284" 
d="M142 522q-39 0 -63 23.5t-24 63.5h21q0 -30 17 -48.5t49 -18.5t49 18.5t17 48.5h21q0 -40 -24 -63.5t-63 -23.5z" />
    <glyph glyph-name="c.sc" horiz-adv-x="498" 
d="M280 -11q-51 0 -93 18t-71.5 51.5t-45.5 81.5t-16 108t16 108.5t45 82t71.5 51.5t94.5 18q77 0 124 -36.5t47 -101.5q0 -11 -1.5 -20t-3.5 -20h-16q2 11 3 19t1 21q0 56 -42 89t-112 33q-48 0 -86.5 -17t-65.5 -48.5t-41.5 -77t-14.5 -101.5q0 -55 15 -100t42 -77
t65.5 -49t84.5 -17q58 0 98 23t62 56l13 -9q-26 -38 -68.5 -62t-104.5 -24z" />
    <glyph glyph-name="cacute.sc" horiz-adv-x="498" 
d="M325 725h26l-91 -142h-21zM280 -11q-51 0 -93 18t-71.5 51.5t-45.5 81.5t-16 108t16 108.5t45 82t71.5 51.5t94.5 18q77 0 124 -36.5t47 -101.5q0 -11 -1.5 -20t-3.5 -20h-16q2 11 3 19t1 21q0 56 -42 89t-112 33q-48 0 -86.5 -17t-65.5 -48.5t-41.5 -77t-14.5 -101.5
q0 -55 15 -100t42 -77t65.5 -49t84.5 -17q58 0 98 23t62 56l13 -9q-26 -38 -68.5 -62t-104.5 -24z" />
    <glyph glyph-name="caron.alt" horiz-adv-x="112" 
d="M24 595q20 12 29 25.5t9 33.5q-16 1 -22.5 9.5t-6.5 19.5q0 10 7.5 18t19.5 8q28 0 28 -36q0 -35 -17.5 -58.5t-37.5 -33.5z" />
    <glyph glyph-name="caron.case" horiz-adv-x="306" 
d="M54 625h22l77 -91l78 91h22l-86 -112h-27z" />
    <glyph glyph-name="caroncomb.alt" 
d="M-72 595q20 12 29 25.5t9 33.5q-16 1 -22.5 9.5t-6.5 19.5q0 10 7.5 18t19.5 8q28 0 28 -36q0 -35 -17.5 -58.5t-37.5 -33.5z" />
    <glyph glyph-name="ccaron.sc" horiz-adv-x="498" 
d="M176 725h21l78 -125l77 125h21l-88 -142h-23zM280 -11q-51 0 -93 18t-71.5 51.5t-45.5 81.5t-16 108t16 108.5t45 82t71.5 51.5t94.5 18q77 0 124 -36.5t47 -101.5q0 -11 -1.5 -20t-3.5 -20h-16q2 11 3 19t1 21q0 56 -42 89t-112 33q-48 0 -86.5 -17t-65.5 -48.5
t-41.5 -77t-14.5 -101.5q0 -55 15 -100t42 -77t65.5 -49t84.5 -17q58 0 98 23t62 56l13 -9q-26 -38 -68.5 -62t-104.5 -24z" />
    <glyph glyph-name="ccedilla.sc" horiz-adv-x="498" 
d="M453 75q-25 -38 -66 -61t-101 -25l-12 -32q45 -4 60.5 -20.5t15.5 -42.5q0 -30 -19.5 -45.5t-54.5 -15.5q-43 0 -63 22l11 15q20 -19 53 -19q53 0 53 43q0 22 -17 34t-62 14l18 47q-99 4 -157 72.5t-58 186.5q0 60 16 108.5t45 82t71.5 51.5t94.5 18q77 0 124 -36.5
t47 -101.5q0 -11 -1.5 -20t-3.5 -20h-16q2 11 3 19t1 21q0 56 -42 89t-112 33q-48 0 -86.5 -17t-65.5 -48.5t-41.5 -77t-14.5 -101.5q0 -55 15 -100t42 -77t65.5 -49t84.5 -17q58 0 98 23t62 56z" />
    <glyph glyph-name="ccircumflex.sc" horiz-adv-x="498" 
d="M263 725h23l87 -142h-21l-78 124l-77 -124h-21zM280 -11q-51 0 -93 18t-71.5 51.5t-45.5 81.5t-16 108t16 108.5t45 82t71.5 51.5t94.5 18q77 0 124 -36.5t47 -101.5q0 -11 -1.5 -20t-3.5 -20h-16q2 11 3 19t1 21q0 56 -42 89t-112 33q-48 0 -86.5 -17t-65.5 -48.5
t-41.5 -77t-14.5 -101.5q0 -55 15 -100t42 -77t65.5 -49t84.5 -17q58 0 98 23t62 56l13 -9q-26 -38 -68.5 -62t-104.5 -24z" />
    <glyph glyph-name="cdotaccent.sc" horiz-adv-x="498" 
d="M275 622q-11 0 -19 8t-8 19t8 19t19 8t19 -8t8 -19t-8 -19t-19 -8zM280 -11q-51 0 -93 18t-71.5 51.5t-45.5 81.5t-16 108t16 108.5t45 82t71.5 51.5t94.5 18q77 0 124 -36.5t47 -101.5q0 -11 -1.5 -20t-3.5 -20h-16q2 11 3 19t1 21q0 56 -42 89t-112 33q-48 0 -86.5 -17
t-65.5 -48.5t-41.5 -77t-14.5 -101.5q0 -55 15 -100t42 -77t65.5 -49t84.5 -17q58 0 98 23t62 56l13 -9q-26 -38 -68.5 -62t-104.5 -24z" />
    <glyph glyph-name="cent.osf" horiz-adv-x="446" 
d="M405 45q-20 -16 -54 -30.5t-85 -14.5h-7v-68h-17v69q-87 8 -138 68.5t-51 168.5q0 109 51.5 174t137.5 73v69h17v-68h4q46 0 79 -12t55 -29l-14 -13q-20 16 -49.5 26t-70.5 10h-4v-450h11q42 0 73 13.5t50 27.5zM73 238q0 -98 46 -154t123 -64v447q-77 -8 -123 -68
t-46 -161z" />
    <glyph glyph-name="cent.sc" horiz-adv-x="437" 
d="M401 45q-20 -16 -54 -30.5t-85 -14.5h-7v-68h-17v69q-87 8 -138 68.5t-51 168.5q0 109 51.5 174t137.5 73v69h17v-68h4q46 0 79 -12t55 -29l-14 -13q-20 16 -49.5 26t-70.5 10h-4v-450h11q42 0 73 13.5t50 27.5zM69 238q0 -98 46 -154t123 -64v447q-77 -8 -123 -68
t-46 -161z" />
    <glyph glyph-name="circumflex.case" horiz-adv-x="306" 
d="M140 625h27l86 -112h-22l-78 91l-77 -91h-22z" />
    <glyph glyph-name="currency.osf" horiz-adv-x="534" 
d="M56 91l82 83q-24 36 -24 84q0 23 6.5 44t17.5 39l-82 83l12 12l80 -81q21 26 52 41.5t67 15.5t66.5 -15.5t52.5 -41.5l80 81l12 -12l-82 -83q11 -19 18 -40t7 -44q0 -46 -25 -84l82 -82l-12 -12l-80 80q-21 -26 -52 -40t-66 -15q-37 -1 -68 14.5t-52 41.5l-80 -81z
M268 121q28 0 53 10.5t43.5 29t29 43.5t10.5 53q0 29 -10.5 54t-29.5 44t-43.5 29.5t-53.5 10.5q-28 0 -53 -11t-43.5 -29.5t-29 -43.5t-10.5 -53t10.5 -53t29 -43.5t43.5 -29.5t54 -11z" />
    <glyph glyph-name="currency.sc" horiz-adv-x="534" 
d="M56 91l82 83q-24 36 -24 84q0 23 6.5 44t17.5 39l-82 83l12 12l80 -81q21 26 52 41.5t67 15.5t66.5 -15.5t52.5 -41.5l80 81l12 -12l-82 -83q11 -19 18 -40t7 -44q0 -46 -25 -84l82 -82l-12 -12l-80 80q-21 -26 -52 -40t-66 -15q-37 -1 -68 14.5t-52 41.5l-80 -81z
M268 121q28 0 53 10.5t43.5 29t29 43.5t10.5 53q0 29 -10.5 54t-29.5 44t-43.5 29.5t-53.5 10.5q-28 0 -53 -11t-43.5 -29.5t-29 -43.5t-10.5 -53t10.5 -53t29 -43.5t43.5 -29.5t54 -11z" />
    <glyph glyph-name="d.sc" horiz-adv-x="544" 
d="M89 497h133q58 0 107.5 -15.5t85.5 -46.5t56 -78t20 -110t-19 -109.5t-53.5 -77t-83 -45.5t-107.5 -15h-139v497zM228 16q53 0 98 13t77.5 41t51 72t18.5 105q0 62 -20.5 106.5t-55 73t-80 41.5t-95.5 13h-115v-465h121z" />
    <glyph glyph-name="dcaron.sc" horiz-adv-x="544" 
d="M171 642h22l77 -82l78 82h21l-87 -102h-24zM89 497h133q58 0 107.5 -15.5t85.5 -46.5t56 -78t20 -110t-19 -109.5t-53.5 -77t-83 -45.5t-107.5 -15h-139v497zM228 16q53 0 98 13t77.5 41t51 72t18.5 105q0 62 -20.5 106.5t-55 73t-80 41.5t-95.5 13h-115v-465h121z" />
    <glyph glyph-name="dcroat.sc" horiz-adv-x="573" 
d="M251 497q58 0 107.5 -15.5t85.5 -46.5t56 -78t20 -110t-19 -109.5t-53.5 -77t-83 -45.5t-107.5 -15h-139v241h-101v17h101v239h133zM257 16q53 0 98 13t77.5 41t51 72t18.5 105q0 62 -20.5 106.5t-55 73t-80 41.5t-95.5 13h-115v-223h101v-17h-101v-225h121z" />
    <glyph glyph-name="dieresis.case" horiz-adv-x="309" 
d="M81 557q-11 0 -18.5 7.5t-7.5 18.5t7.5 18.5t18.5 7.5t18.5 -7.5t7.5 -18.5t-7.5 -18.5t-18.5 -7.5zM228 557q-11 0 -18.5 7.5t-7.5 18.5t7.5 18.5t18.5 7.5t18.5 -7.5t7.5 -18.5t-7.5 -18.5t-18.5 -7.5z" />
    <glyph glyph-name="dollar.osf" horiz-adv-x="454" 
d="M239 254q32 -5 63 -12t55 -21t39 -36.5t15 -59.5q0 -56 -45.5 -90t-126.5 -36v-89h-17v89q-60 2 -106.5 18.5t-72.5 65.5l16 10q12 -24 30 -38.5t39 -23t45 -12t49 -3.5v220q-31 5 -61 11.5t-53.5 19.5t-38 35t-14.5 57q0 56 43 89t124 35v78h17v-78q27 -1 57 -8
t54 -22.5t37 -41.5t6 -66h-17q5 35 -6 57.5t-31.5 36.5t-47 20t-52.5 7v-212zM75 361q0 -30 12 -48.5t32.5 -29.5t47 -16.5t55.5 -10.5v210q-71 -1 -109 -29t-38 -76zM239 16q75 2 114 31.5t39 77.5q0 30 -13 49t-34 30.5t-48.5 18t-57.5 10.5v-217z" />
    <glyph glyph-name="dollar.sc" horiz-adv-x="452" 
d="M238 254q32 -5 63 -12t55 -21t39 -36.5t15 -59.5q0 -56 -41.5 -90t-130.5 -36v-89h-17v89q-60 2 -106.5 18.5t-72.5 65.5l16 10q12 -24 30 -38.5t39 -23t45 -12t49 -3.5v221q-31 5 -61 11.5t-53.5 19t-38 34.5t-14.5 57q0 56 43 89t124 35v78h17v-78q28 -1 58 -7
t53.5 -21t36 -41.5t6.5 -68.5h-17q5 38 -5.5 61t-31 36t-47 18t-53.5 6v-212zM74 361q0 -30 12 -48.5t32.5 -29.5t47 -16.5t55.5 -10.5v210q-71 -1 -109 -29t-38 -76zM238 16q81 2 117 31.5t36 77.5q0 30 -13 49.5t-34 31t-48.5 18t-57.5 10.5v-218z" />
    <glyph glyph-name="dotaccent.case" horiz-adv-x="162" 
d="M81 577q-11 0 -18.5 7.5t-7.5 18.5t7.5 18.5t18.5 7.5t18.5 -7.5t7.5 -18.5t-7.5 -18.5t-18.5 -7.5z" />
    <glyph glyph-name="dotlessi.sc" horiz-adv-x="196" 
d="M89 497h18v-497h-18v497z" />
    <glyph glyph-name="dotlessi.ss01" horiz-adv-x="190" 
d="M137 -1q-22 0 -36.5 16t-14.5 57v410h18v-410q0 -27 9 -42t34 -15v-15q-1 0 -3 -1h-7z" />
    <glyph glyph-name="e.sc" horiz-adv-x="448" 
d="M89 497h313v-17h-295v-219h263v-18h-263v-226h295v-17h-313v497z" />
    <glyph glyph-name="e.ss01" horiz-adv-x="471" 
d="M70 261v-17q0 -58 14 -102.5t38.5 -74.5t58 -45.5t72.5 -15.5q51 0 89 20.5t61 52.5l14 -11q-25 -35 -66.5 -57t-97.5 -22q-44 0 -81 16.5t-63.5 49t-41.5 79.5t-15 108q0 57 14.5 103.5t40.5 78.5t62.5 49.5t79.5 17.5q85 0 129 -54t44 -159v-17h-352zM249 474
q-37 0 -68 -14.5t-54 -40t-37 -61.5t-18 -79h332q0 39 -7.5 74.5t-25 62.5t-47.5 42.5t-75 15.5z" />
    <glyph glyph-name="eacute.sc" horiz-adv-x="448" 
d="M299 725h26l-91 -142h-21zM89 497h313v-17h-295v-219h263v-18h-263v-226h295v-17h-313v497z" />
    <glyph glyph-name="eacute.ss01" horiz-adv-x="471" 
d="M232 568h-21l86 142h26zM70 261v-17q0 -58 14 -102.5t38.5 -74.5t58 -45.5t72.5 -15.5q51 0 89 20.5t61 52.5l14 -11q-25 -35 -66.5 -57t-97.5 -22q-44 0 -81 16.5t-63.5 49t-41.5 79.5t-15 108q0 57 14.5 103.5t40.5 78.5t62.5 49.5t79.5 17.5q85 0 129 -54t44 -159v-17
h-352zM249 474q-37 0 -68 -14.5t-54 -40t-37 -61.5t-18 -79h332q0 39 -7.5 74.5t-25 62.5t-47.5 42.5t-75 15.5z" />
    <glyph glyph-name="ebreve.sc" horiz-adv-x="448" 
d="M249 594q-44 0 -70 25.5t-26 81.5h20q0 -47 20 -67t56 -21t56 20.5t20 67.5h20q0 -55 -26 -81t-70 -26zM89 497h313v-17h-295v-219h263v-18h-263v-226h295v-17h-313v497z" />
    <glyph glyph-name="ebreve.ss01" horiz-adv-x="471" 
d="M247 579q-44 0 -70 25.5t-26 81.5h20q0 -47 20 -67t56 -21t56 20.5t20 67.5h20q0 -55 -26 -81t-70 -26zM70 261v-17q0 -58 14 -102.5t38.5 -74.5t58 -45.5t72.5 -15.5q51 0 89 20.5t61 52.5l14 -11q-25 -35 -66.5 -57t-97.5 -22q-44 0 -81 16.5t-63.5 49t-41.5 79.5
t-15 108q0 57 14.5 103.5t40.5 78.5t62.5 49.5t79.5 17.5q85 0 129 -54t44 -159v-17h-352zM249 474q-37 0 -68 -14.5t-54 -40t-37 -61.5t-18 -79h332q0 39 -7.5 74.5t-25 62.5t-47.5 42.5t-75 15.5z" />
    <glyph glyph-name="ecaron.sc" horiz-adv-x="448" 
d="M150 725h21l78 -125l77 125h21l-88 -142h-23zM89 497h313v-17h-295v-219h263v-18h-263v-226h295v-17h-313v497z" />
    <glyph glyph-name="ecaron.ss01" horiz-adv-x="471" 
d="M234 568l-86 142h21l78 -125l77 125h21l-88 -142h-23zM70 261v-17q0 -58 14 -102.5t38.5 -74.5t58 -45.5t72.5 -15.5q51 0 89 20.5t61 52.5l14 -11q-25 -35 -66.5 -57t-97.5 -22q-44 0 -81 16.5t-63.5 49t-41.5 79.5t-15 108q0 57 14.5 103.5t40.5 78.5t62.5 49.5
t79.5 17.5q85 0 129 -54t44 -159v-17h-352zM249 474q-37 0 -68 -14.5t-54 -40t-37 -61.5t-18 -79h332q0 39 -7.5 74.5t-25 62.5t-47.5 42.5t-75 15.5z" />
    <glyph glyph-name="ecircumflex.sc" horiz-adv-x="448" 
d="M237 725h23l87 -142h-21l-78 124l-77 -124h-21zM89 497h313v-17h-295v-219h263v-18h-263v-226h295v-17h-313v497z" />
    <glyph glyph-name="ecircumflex.ss01" horiz-adv-x="471" 
d="M169 568h-21l87 142h23l87 -142h-21l-78 124zM70 261v-17q0 -58 14 -102.5t38.5 -74.5t58 -45.5t72.5 -15.5q51 0 89 20.5t61 52.5l14 -11q-25 -35 -66.5 -57t-97.5 -22q-44 0 -81 16.5t-63.5 49t-41.5 79.5t-15 108q0 57 14.5 103.5t40.5 78.5t62.5 49.5t79.5 17.5
q85 0 129 -54t44 -159v-17h-352zM249 474q-37 0 -68 -14.5t-54 -40t-37 -61.5t-18 -79h332q0 39 -7.5 74.5t-25 62.5t-47.5 42.5t-75 15.5z" />
    <glyph glyph-name="edieresis.sc" horiz-adv-x="448" 
d="M175 622q-11 0 -18.5 7.5t-7.5 18.5t7.5 18.5t18.5 7.5t18.5 -7.5t7.5 -18.5t-7.5 -18.5t-18.5 -7.5zM322 622q-11 0 -18.5 7.5t-7.5 18.5t7.5 18.5t18.5 7.5t18.5 -7.5t7.5 -18.5t-7.5 -18.5t-18.5 -7.5zM89 497h313v-17h-295v-219h263v-18h-263v-226h295v-17h-313v497z
" />
    <glyph glyph-name="edieresis.ss01" horiz-adv-x="471" 
d="M173 607q-11 0 -18.5 7.5t-7.5 18.5t7.5 18.5t18.5 7.5t18.5 -7.5t7.5 -18.5t-7.5 -18.5t-18.5 -7.5zM320 607q-11 0 -18.5 7.5t-7.5 18.5t7.5 18.5t18.5 7.5t18.5 -7.5t7.5 -18.5t-7.5 -18.5t-18.5 -7.5zM70 261v-17q0 -58 14 -102.5t38.5 -74.5t58 -45.5t72.5 -15.5
q51 0 89 20.5t61 52.5l14 -11q-25 -35 -66.5 -57t-97.5 -22q-44 0 -81 16.5t-63.5 49t-41.5 79.5t-15 108q0 57 14.5 103.5t40.5 78.5t62.5 49.5t79.5 17.5q85 0 129 -54t44 -159v-17h-352zM249 474q-37 0 -68 -14.5t-54 -40t-37 -61.5t-18 -79h332q0 39 -7.5 74.5t-25 62.5
t-47.5 42.5t-75 15.5z" />
    <glyph glyph-name="edotaccent.sc" horiz-adv-x="448" 
d="M249 622q-11 0 -19 8t-8 19t8 19t19 8t19 -8t8 -19t-8 -19t-19 -8zM89 497h313v-17h-295v-219h263v-18h-263v-226h295v-17h-313v497z" />
    <glyph glyph-name="edotaccent.ss01" horiz-adv-x="471" 
d="M247 607q-11 0 -19 8t-8 19t8 19t19 8t19 -8t8 -19t-8 -19t-19 -8zM70 261v-17q0 -58 14 -102.5t38.5 -74.5t58 -45.5t72.5 -15.5q51 0 89 20.5t61 52.5l14 -11q-25 -35 -66.5 -57t-97.5 -22q-44 0 -81 16.5t-63.5 49t-41.5 79.5t-15 108q0 57 14.5 103.5t40.5 78.5
t62.5 49.5t79.5 17.5q85 0 129 -54t44 -159v-17h-352zM249 474q-37 0 -68 -14.5t-54 -40t-37 -61.5t-18 -79h332q0 39 -7.5 74.5t-25 62.5t-47.5 42.5t-75 15.5z" />
    <glyph glyph-name="egrave.sc" horiz-adv-x="448" 
d="M168 725h26l86 -142h-22zM89 497h313v-17h-295v-219h263v-18h-263v-226h295v-17h-313v497z" />
    <glyph glyph-name="egrave.ss01" horiz-adv-x="471" 
d="M256 568l-90 142h26l86 -142h-22zM70 261v-17q0 -58 14 -102.5t38.5 -74.5t58 -45.5t72.5 -15.5q51 0 89 20.5t61 52.5l14 -11q-25 -35 -66.5 -57t-97.5 -22q-44 0 -81 16.5t-63.5 49t-41.5 79.5t-15 108q0 57 14.5 103.5t40.5 78.5t62.5 49.5t79.5 17.5q85 0 129 -54
t44 -159v-17h-352zM249 474q-37 0 -68 -14.5t-54 -40t-37 -61.5t-18 -79h332q0 39 -7.5 74.5t-25 62.5t-47.5 42.5t-75 15.5z" />
    <glyph glyph-name="eight.dnom" horiz-adv-x="362" 
d="M182 -3q-66 0 -101 29t-35 74q0 38 20 65t54 47q-56 24 -56 79q0 42 32 68.5t86 26.5q51 0 85 -24t34 -78q0 -32 -19 -55.5t-39 -31.5q36 -14 54 -36.5t18 -61.5q0 -47 -37 -74.5t-96 -27.5zM225 204q3 2 11.5 6.5t18.5 14.5t17.5 24.5t7.5 35.5q0 43 -27.5 63t-70.5 20
q-44 0 -71 -20t-27 -56q0 -26 17.5 -44t57.5 -28zM182 15q49 0 81 22t32 61q0 38 -19.5 58.5t-57.5 29.5l-79 19q-29 -14 -50.5 -39t-21.5 -67q0 -35 30 -59.5t85 -24.5z" />
    <glyph glyph-name="eight.numr" horiz-adv-x="362" 
d="M182 315q-66 0 -101 29t-35 74q0 38 20 65t54 47q-56 24 -56 79q0 42 32 68.5t86 26.5q51 0 85 -24t34 -78q0 -32 -19 -55.5t-39 -31.5q36 -14 54 -36.5t18 -61.5q0 -47 -37 -74.5t-96 -27.5zM225 522q3 2 11.5 6.5t18.5 14.5t17.5 24.5t7.5 35.5q0 43 -27.5 63t-70.5 20
q-44 0 -71 -20t-27 -56q0 -26 17.5 -44t57.5 -28zM182 333q49 0 81 22t32 61q0 38 -19.5 58.5t-57.5 29.5l-79 19q-29 -14 -50.5 -39t-21.5 -67q0 -35 30 -59.5t85 -24.5z" />
    <glyph glyph-name="eight.osf" horiz-adv-x="537" 
d="M354 343q72 -29 100.5 -71.5t28.5 -103.5q0 -37 -14.5 -69t-41.5 -55.5t-66.5 -36.5t-89.5 -13q-105 0 -161 48t-56 136q0 38 11 69.5t29 57.5t40.5 46t45.5 35q-53 26 -79 60.5t-26 85.5q0 37 14 69t39 55t61 36.5t79 13.5q44 0 80.5 -12t62.5 -35t40 -56t14 -75
q0 -27 -9 -54.5t-24.5 -52t-35.5 -44.5t-42 -34zM93 532q0 -57 37.5 -93t110.5 -59l74 -23l22 -7q22 13 42 32.5t35 42.5t24 49.5t9 53.5q0 76 -49 118.5t-129 42.5q-39 0 -71 -11.5t-55.5 -32t-36.5 -49.5t-13 -64zM271 11q92 0 143 44t51 113q0 67 -35 107t-110 63l-77 24
q-13 4 -24.5 8t-22.5 9q-23 -15 -45 -35t-39.5 -44.5t-28.5 -55t-11 -66.5q0 -78 52 -122.5t147 -44.5z" />
    <glyph glyph-name="eight.sc" horiz-adv-x="465" 
d="M309 247q57 -17 81 -49.5t24 -74.5q0 -60 -49.5 -97t-134.5 -37q-88 0 -133.5 36t-45.5 102q0 27 9.5 49t24.5 39.5t33.5 30t37.5 21.5q-78 33 -78 110q0 57 42 94t113 37t115 -36t44 -99q0 -19 -7 -38t-18.5 -35.5t-26.5 -30t-31 -22.5zM97 377q0 -40 25 -66.5t75 -37.5
l86 -19q2 0 3 -0.5t3 -0.5q17 8 32 20.5t26.5 28t18.5 34t7 36.5q0 56 -39 87.5t-102 31.5q-60 0 -97.5 -31t-37.5 -83zM230 6q77 0 121 32t44 85q0 89 -111 113l-88 19l-23 6q-18 -8 -36.5 -20.5t-33.5 -29t-24 -37.5t-9 -47q0 -56 40.5 -88.5t119.5 -32.5z" />
    <glyph glyph-name="eight.sinf" horiz-adv-x="362" 
d="M182 -140q-66 0 -101 29t-35 74q0 38 20 65t54 47q-56 24 -56 79q0 42 32 68.5t86 26.5q51 0 85 -24t34 -78q0 -32 -19 -55.5t-39 -31.5q36 -14 54 -36.5t18 -61.5q0 -47 -37 -74.5t-96 -27.5zM225 67q3 2 11.5 6.5t18.5 14.5t17.5 24.5t7.5 35.5q0 43 -27.5 63t-70.5 20
q-44 0 -71 -20t-27 -56q0 -26 17.5 -44t57.5 -28zM182 -122q49 0 81 22t32 61q0 38 -19.5 58.5t-57.5 29.5l-79 19q-29 -14 -50.5 -39t-21.5 -67q0 -35 30 -59.5t85 -24.5z" />
    <glyph glyph-name="eight.sups" horiz-adv-x="362" 
d="M182 380q-66 0 -101 29t-35 74q0 38 20 65t54 47q-56 24 -56 79q0 42 32 68.5t86 26.5q51 0 85 -24t34 -78q0 -32 -19 -55.5t-39 -31.5q36 -14 54 -36.5t18 -61.5q0 -47 -37 -74.5t-96 -27.5zM225 587q3 2 11.5 6.5t18.5 14.5t17.5 24.5t7.5 35.5q0 43 -27.5 63t-70.5 20
q-44 0 -71 -20t-27 -56q0 -26 17.5 -44t57.5 -28zM182 398q49 0 81 22t32 61q0 38 -19.5 58.5t-57.5 29.5l-79 19q-29 -14 -50.5 -39t-21.5 -67q0 -35 30 -59.5t85 -24.5z" />
    <glyph glyph-name="emacron.sc" horiz-adv-x="448" 
d="M139 662h220v-18h-220v18zM89 497h313v-17h-295v-219h263v-18h-263v-226h295v-17h-313v497z" />
    <glyph glyph-name="emacron.ss01" horiz-adv-x="471" 
d="M357 629h-220v18h220v-18zM70 261v-17q0 -58 14 -102.5t38.5 -74.5t58 -45.5t72.5 -15.5q51 0 89 20.5t61 52.5l14 -11q-25 -35 -66.5 -57t-97.5 -22q-44 0 -81 16.5t-63.5 49t-41.5 79.5t-15 108q0 57 14.5 103.5t40.5 78.5t62.5 49.5t79.5 17.5q85 0 129 -54t44 -159
v-17h-352zM249 474q-37 0 -68 -14.5t-54 -40t-37 -61.5t-18 -79h332q0 39 -7.5 74.5t-25 62.5t-47.5 42.5t-75 15.5z" />
    <glyph glyph-name="eng.sc" horiz-adv-x="555" 
d="M466 497v-580q0 -62 -28 -95t-79 -33q-34 0 -56.5 12t-35.5 30l15 13q17 -23 37.5 -30t39.5 -7q44 0 67 28t23 82v86l-334 455l-9 13v-471h-17v497h20l332 -455l7 -11v466h18z" />
    <glyph glyph-name="eng.ss01" horiz-adv-x="514" 
d="M272 491q79 0 122.5 -48.5t43.5 -136.5v-390q0 -62 -28 -94.5t-79 -32.5q-33 0 -56 12.5t-36 30.5l15 13q17 -23 38 -30.5t39 -7.5q44 0 66.5 28t22.5 82v389q0 78 -38 123t-111 45q-39 0 -69.5 -15.5t-52.5 -42.5t-33.5 -63t-11.5 -76v-277h-18v408q0 40 -10 50t-33 10
v15q4 1 10 1q28 0 39.5 -17t11.5 -54v-59q14 63 59 100t109 37z" />
    <glyph glyph-name="eogonek.sc" horiz-adv-x="448" 
d="M413 -144q-7 -7 -19.5 -12.5t-29.5 -5.5q-33 0 -52 17t-19 48q0 33 18.5 58t49.5 39h-272v497h313v-17h-295v-219h263v-18h-263v-226h295v-17q-39 -9 -64 -33.5t-25 -59.5q0 -52 52 -52q14 0 22.5 3.5t16.5 10.5z" />
    <glyph glyph-name="eogonek.ss01" horiz-adv-x="471" 
d="M70 261v-17q0 -58 14 -102.5t38.5 -74.5t58 -45.5t72.5 -15.5q51 0 89 20.5t61 52.5l14 -11q-19 -26 -47 -45.5t-64 -27.5q-32 -11 -52 -33.5t-20 -54.5q0 -52 52 -52q14 0 22.5 3.5t16.5 10.5l9 -13q-7 -7 -19.5 -12.5t-29.5 -5.5q-33 0 -52 17t-19 48q0 28 13 49.5
t35 36.5h-9q-44 0 -81 16.5t-63.5 49t-41.5 79.5t-15 108q0 57 14.5 103.5t40.5 78.5t62.5 49.5t79.5 17.5q85 0 129 -54t44 -159v-17h-352zM249 474q-37 0 -68 -14.5t-54 -40t-37 -61.5t-18 -79h332q0 39 -7.5 74.5t-25 62.5t-47.5 42.5t-75 15.5z" />
    <glyph glyph-name="eth.sc" horiz-adv-x="573" 
d="M251 497q58 0 107.5 -15.5t85.5 -46.5t56 -78t20 -110t-19 -109.5t-53.5 -77t-83 -45.5t-107.5 -15h-139v241h-101v17h101v239h133zM257 16q53 0 98 13t77.5 41t51 72t18.5 105q0 62 -20.5 106.5t-55 73t-80 41.5t-95.5 13h-115v-223h101v-17h-101v-225h121z" />
    <glyph glyph-name="exclam.sc" horiz-adv-x="194" 
d="M87 497h20l-2 -372h-16zM97 -5q-9 0 -15.5 6.5t-6.5 14.5t6.5 14.5t15.5 6.5t15.5 -6.5t6.5 -14.5t-6.5 -14.5t-15.5 -6.5z" />
    <glyph glyph-name="exclamdown.sc" horiz-adv-x="194" 
d="M97 503q9 0 15.5 -6.5t6.5 -14.5t-6.5 -14.5t-15.5 -6.5t-15.5 6.5t-6.5 14.5t6.5 14.5t15.5 6.5zM107 1h-20l2 372h16z" />
    <glyph glyph-name="f.sc" horiz-adv-x="430" 
d="M89 497h313v-17h-295v-223h263v-18h-263v-239h-18v497z" />
    <glyph glyph-name="fi.sc" horiz-adv-x="625" 
d="M89 497h313v-17h-295v-223h263v-18h-263v-239h-18v497zM518 497h18v-497h-18v497z" />
    <glyph glyph-name="five.dnom" horiz-adv-x="334" 
d="M159 -3q-38 0 -66.5 12.5t-43.5 35.5l16 12q14 -20 38 -31t56 -11q54 0 82.5 28.5t28.5 77.5q0 48 -27 75t-75 27q-29 0 -51.5 -8.5t-38.5 -22.5h-20v192h215v-18h-196v-157q14 14 38.5 23t53.5 9q57 0 89 -31t32 -88q0 -60 -35.5 -92.5t-95.5 -32.5z" />
    <glyph glyph-name="five.numr" horiz-adv-x="334" 
d="M160 316q-38 0 -66.5 12.5t-43.5 35.5l16 12q14 -20 38 -31t56 -11q54 0 82.5 28.5t28.5 77.5q0 48 -27 75t-75 27q-29 0 -51.5 -8.5t-38.5 -22.5h-20v192h215v-18h-196v-157q14 14 38.5 23t53.5 9q57 0 89 -31t32 -88q0 -60 -35.5 -92.5t-95.5 -32.5z" />
    <glyph glyph-name="five.osf" horiz-adv-x="493" 
d="M234 -199q-65 0 -115.5 27t-73.5 71l13 8q21 -38 67.5 -64t109.5 -26q98 0 148.5 52.5t50.5 146.5q0 102 -50 151.5t-135 49.5q-46 0 -90 -15t-72 -49h-18v344h359v-17h-343v-307q29 32 73 46t91 14q94 0 148 -53.5t54 -164.5q0 -99 -55.5 -156.5t-161.5 -57.5z" />
    <glyph glyph-name="five.sc" horiz-adv-x="443" 
d="M212 -11q-51 0 -96 22t-65 57l14 9q17 -32 58 -52t89 -20q76 0 120.5 39.5t44.5 110.5q0 62 -41 97.5t-112 35.5q-38 0 -74.5 -10.5t-59.5 -33.5h-19v253h304v-17h-287v-217q25 22 61.5 32t75.5 10q78 0 124.5 -40t46.5 -109q0 -78 -49.5 -122.5t-134.5 -44.5z" />
    <glyph glyph-name="five.sinf" horiz-adv-x="334" 
d="M159 -139q-38 0 -66.5 12.5t-43.5 35.5l16 12q14 -20 38 -31t56 -11q54 0 82.5 28.5t28.5 77.5q0 48 -27 75t-75 27q-29 0 -51.5 -8.5t-38.5 -22.5h-20v192h215v-18h-196v-157q14 14 38.5 23t53.5 9q57 0 89 -31t32 -88q0 -60 -35.5 -92.5t-95.5 -32.5z" />
    <glyph glyph-name="five.sups" horiz-adv-x="334" 
d="M159 381q-38 0 -66.5 12.5t-43.5 35.5l16 12q14 -20 38 -31t56 -11q54 0 82.5 28.5t28.5 77.5q0 48 -27 75t-75 27q-29 0 -51.5 -8.5t-38.5 -22.5h-20v192h215v-18h-196v-157q14 14 38.5 23t53.5 9q57 0 89 -31t32 -88q0 -60 -35.5 -92.5t-95.5 -32.5z" />
    <glyph glyph-name="fiveeighths.alt" horiz-adv-x="594" 
d="M140 334q-29 0 -49 10t-29 27l13 9q9 -14 26 -22.5t39 -8.5q39 0 57.5 20.5t18.5 53.5q0 32 -18.5 51t-49.5 19q-23 0 -38 -6t-26 -17h-17v140h154v-15h-137v-109q8 8 24.5 15t39.5 7q39 0 62 -22t23 -63q0 -42 -25 -65.5t-68 -23.5zM482 599h21l-383 -501h-21zM441 72
q-48 0 -73 20t-25 57q0 26 15.5 45.5t37.5 28.5q-18 8 -29 22t-11 37q0 30 23.5 49t61.5 19q40 0 63 -18.5t23 -52.5q0 -41 -36 -67q47 -16 47 -67q0 -34 -25 -53.5t-72 -19.5zM476 219q33 20 33 60q0 56 -68 56q-30 0 -48.5 -14.5t-18.5 -38.5q0 -19 11.5 -31t39.5 -19z
M441 87q39 0 59.5 16t20.5 42q0 47 -54 59l-54 13q-23 -7 -37.5 -26t-14.5 -42q0 -29 20.5 -45.5t59.5 -16.5z" />
    <glyph glyph-name="fl.sc" horiz-adv-x="859" 
d="M89 497h313v-17h-295v-223h263v-18h-263v-239h-18v497zM518 497h18v-481h299v-16h-317v497z" />
    <glyph glyph-name="four.dnom" horiz-adv-x="331" 
d="M225 94h-192v22l138 266h23l-140 -270h171v105h20v-105h55v-18h-55v-94h-20v94z" />
    <glyph glyph-name="four.numr" horiz-adv-x="331" 
d="M225 412h-192v22l138 266h23l-140 -270h171v105h20v-105h55v-18h-55v-94h-20v94z" />
    <glyph glyph-name="four.osf" horiz-adv-x="532" 
d="M511 17v-17h-99v-182h-18v182h-373v17l363 480h28v-480h99zM394 17v467l-351 -467h351z" />
    <glyph glyph-name="four.sc" horiz-adv-x="437" 
d="M310 128h-281v16l202 353h21l-203 -353h261v133h18v-133h80v-16h-80v-128h-18v128z" />
    <glyph glyph-name="four.sinf" horiz-adv-x="331" 
d="M225 -43h-192v22l138 266h23l-140 -270h171v105h20v-105h55v-18h-55v-94h-20v94z" />
    <glyph glyph-name="four.sups" horiz-adv-x="331" 
d="M225 477h-192v22l138 266h23l-140 -270h171v105h20v-105h55v-18h-55v-94h-20v94z" />
    <glyph glyph-name="g.sc" horiz-adv-x="529" 
d="M281 -11q-52 0 -94 18t-72 51.5t-46 81t-16 106.5q0 62 17 110.5t47 82.5t72 51.5t93 17.5q82 0 128.5 -35t50.5 -96q1 -18 -3 -37h-16q3 20 2 34q-4 55 -45.5 86.5t-116.5 31.5q-46 0 -85 -16.5t-67 -48t-43.5 -77t-15.5 -104.5q0 -54 15 -98.5t42.5 -76t66 -49
t86.5 -17.5q60 0 103.5 14.5t67.5 36.5v160h-160v16h178v-182q-30 -27 -75.5 -44t-113.5 -17z" />
    <glyph glyph-name="g.ss01" horiz-adv-x="478" 
d="M240 -239q-109 0 -158.5 36t-49.5 99q0 36 14 60.5t31.5 39.5t34 21.5t21.5 7.5q-3 0 -16 3t-27.5 11t-25.5 23t-11 40q0 29 19 49.5t50 25.5q-17 13 -31 33q-13 18 -22 43t-9 60q0 40 14 72t38 55t56 35.5t69 12.5q22 0 40 -4t30 -8q15 -6 26 -13q60 0 83.5 13.5
t23.5 48.5l18 -2q0 -39 -25 -56.5t-79 -17.5q2 -1 11.5 -9.5t21 -25.5t20.5 -42t9 -59q0 -40 -14 -72.5t-38.5 -55t-57 -34.5t-69.5 -12q-22 0 -39.5 4t-29.5 9q-15 5 -27 12q-25 0 -47.5 -15t-22.5 -47q0 -21 10.5 -33.5t28.5 -19.5t42.5 -9.5t52.5 -2.5h95q70 0 113 -32.5
t43 -95.5q0 -72 -54.5 -110t-161.5 -38zM237 156q33 0 62.5 11t51 31.5t34.5 49.5t13 65t-13 65t-34.5 49.5t-51 32t-62.5 11.5t-62 -11t-50.5 -32t-34 -50t-12.5 -65t12.5 -65t34 -49.5t50.5 -31.5t62 -11zM240 -222q97 0 147.5 33.5t50.5 97.5q0 54 -38 82.5t-100 28.5
h-100q-66 0 -108 -32t-42 -92q0 -57 47 -87.5t143 -30.5z" />
    <glyph glyph-name="gbreve.sc" horiz-adv-x="529" 
d="M274 594q-44 0 -70 25.5t-26 81.5h20q0 -47 20 -67t56 -21t56 20.5t20 67.5h20q0 -55 -26 -81t-70 -26zM281 -11q-52 0 -94 18t-72 51.5t-46 81t-16 106.5q0 62 17 110.5t47 82.5t72 51.5t93 17.5q82 0 128.5 -35t50.5 -96q1 -18 -3 -37h-16q3 20 2 34q-4 55 -45.5 86.5
t-116.5 31.5q-46 0 -85 -16.5t-67 -48t-43.5 -77t-15.5 -104.5q0 -54 15 -98.5t42.5 -76t66 -49t86.5 -17.5q60 0 103.5 14.5t67.5 36.5v160h-160v16h178v-182q-30 -27 -75.5 -44t-113.5 -17z" />
    <glyph glyph-name="gbreve.ss01" horiz-adv-x="478" 
d="M239 579q-44 0 -70 25.5t-26 81.5h20q0 -47 20 -67t56 -21t56 20.5t20 67.5h20q0 -55 -26 -81t-70 -26zM240 -239q-109 0 -158.5 36t-49.5 99q0 36 14 60.5t31.5 39.5t34 21.5t21.5 7.5q-3 0 -16 3t-27.5 11t-25.5 23t-11 40q0 29 19 49.5t50 25.5q-17 13 -31 33
q-13 18 -22 43t-9 60q0 40 14 72t38 55t56 35.5t69 12.5q22 0 40 -4t30 -8q15 -6 26 -13q60 0 83.5 13.5t23.5 48.5l18 -2q0 -39 -25 -56.5t-79 -17.5q2 -1 11.5 -9.5t21 -25.5t20.5 -42t9 -59q0 -40 -14 -72.5t-38.5 -55t-57 -34.5t-69.5 -12q-22 0 -39.5 4t-29.5 9
q-15 5 -27 12q-25 0 -47.5 -15t-22.5 -47q0 -21 10.5 -33.5t28.5 -19.5t42.5 -9.5t52.5 -2.5h95q70 0 113 -32.5t43 -95.5q0 -72 -54.5 -110t-161.5 -38zM237 156q33 0 62.5 11t51 31.5t34.5 49.5t13 65t-13 65t-34.5 49.5t-51 32t-62.5 11.5t-62 -11t-50.5 -32t-34 -50
t-12.5 -65t12.5 -65t34 -49.5t50.5 -31.5t62 -11zM240 -222q97 0 147.5 33.5t50.5 97.5q0 54 -38 82.5t-100 28.5h-100q-66 0 -108 -32t-42 -92q0 -57 47 -87.5t143 -30.5z" />
    <glyph glyph-name="gcaron.sc" horiz-adv-x="529" 
d="M175 725h21l78 -125l77 125h21l-88 -142h-23zM281 -11q-52 0 -94 18t-72 51.5t-46 81t-16 106.5q0 62 17 110.5t47 82.5t72 51.5t93 17.5q82 0 128.5 -35t50.5 -96q1 -18 -3 -37h-16q3 20 2 34q-4 55 -45.5 86.5t-116.5 31.5q-46 0 -85 -16.5t-67 -48t-43.5 -77
t-15.5 -104.5q0 -54 15 -98.5t42.5 -76t66 -49t86.5 -17.5q60 0 103.5 14.5t67.5 36.5v160h-160v16h178v-182q-30 -27 -75.5 -44t-113.5 -17z" />
    <glyph glyph-name="gcaron.ss01" horiz-adv-x="478" 
d="M140 710h21l78 -125l77 125h21l-88 -142h-23zM240 -239q-109 0 -158.5 36t-49.5 99q0 36 14 60.5t31.5 39.5t34 21.5t21.5 7.5q-3 0 -16 3t-27.5 11t-25.5 23t-11 40q0 29 19 49.5t50 25.5q-17 13 -31 33q-13 18 -22 43t-9 60q0 40 14 72t38 55t56 35.5t69 12.5
q22 0 40 -4t30 -8q15 -6 26 -13q60 0 83.5 13.5t23.5 48.5l18 -2q0 -39 -25 -56.5t-79 -17.5q2 -1 11.5 -9.5t21 -25.5t20.5 -42t9 -59q0 -40 -14 -72.5t-38.5 -55t-57 -34.5t-69.5 -12q-22 0 -39.5 4t-29.5 9q-15 5 -27 12q-25 0 -47.5 -15t-22.5 -47q0 -21 10.5 -33.5
t28.5 -19.5t42.5 -9.5t52.5 -2.5h95q70 0 113 -32.5t43 -95.5q0 -72 -54.5 -110t-161.5 -38zM237 156q33 0 62.5 11t51 31.5t34.5 49.5t13 65t-13 65t-34.5 49.5t-51 32t-62.5 11.5t-62 -11t-50.5 -32t-34 -50t-12.5 -65t12.5 -65t34 -49.5t50.5 -31.5t62 -11zM240 -222
q97 0 147.5 33.5t50.5 97.5q0 54 -38 82.5t-100 28.5h-100q-66 0 -108 -32t-42 -92q0 -57 47 -87.5t143 -30.5z" />
    <glyph glyph-name="gcircumflex.sc" horiz-adv-x="529" 
d="M262 725h23l87 -142h-21l-78 124l-77 -124h-21zM281 -11q-52 0 -94 18t-72 51.5t-46 81t-16 106.5q0 62 17 110.5t47 82.5t72 51.5t93 17.5q82 0 128.5 -35t50.5 -96q1 -18 -3 -37h-16q3 20 2 34q-4 55 -45.5 86.5t-116.5 31.5q-46 0 -85 -16.5t-67 -48t-43.5 -77
t-15.5 -104.5q0 -54 15 -98.5t42.5 -76t66 -49t86.5 -17.5q60 0 103.5 14.5t67.5 36.5v160h-160v16h178v-182q-30 -27 -75.5 -44t-113.5 -17z" />
    <glyph glyph-name="gcircumflex.ss01" horiz-adv-x="478" 
d="M227 710h23l87 -142h-21l-78 124l-77 -124h-21zM240 -239q-109 0 -158.5 36t-49.5 99q0 36 14 60.5t31.5 39.5t34 21.5t21.5 7.5q-3 0 -16 3t-27.5 11t-25.5 23t-11 40q0 29 19 49.5t50 25.5q-17 13 -31 33q-13 18 -22 43t-9 60q0 40 14 72t38 55t56 35.5t69 12.5
q22 0 40 -4t30 -8q15 -6 26 -13q60 0 83.5 13.5t23.5 48.5l18 -2q0 -39 -25 -56.5t-79 -17.5q2 -1 11.5 -9.5t21 -25.5t20.5 -42t9 -59q0 -40 -14 -72.5t-38.5 -55t-57 -34.5t-69.5 -12q-22 0 -39.5 4t-29.5 9q-15 5 -27 12q-25 0 -47.5 -15t-22.5 -47q0 -21 10.5 -33.5
t28.5 -19.5t42.5 -9.5t52.5 -2.5h95q70 0 113 -32.5t43 -95.5q0 -72 -54.5 -110t-161.5 -38zM237 156q33 0 62.5 11t51 31.5t34.5 49.5t13 65t-13 65t-34.5 49.5t-51 32t-62.5 11.5t-62 -11t-50.5 -32t-34 -50t-12.5 -65t12.5 -65t34 -49.5t50.5 -31.5t62 -11zM240 -222
q97 0 147.5 33.5t50.5 97.5q0 54 -38 82.5t-100 28.5h-100q-66 0 -108 -32t-42 -92q0 -57 47 -87.5t143 -30.5z" />
    <glyph glyph-name="gdotaccent.sc" horiz-adv-x="529" 
d="M274 622q-11 0 -19 8t-8 19t8 19t19 8t19 -8t8 -19t-8 -19t-19 -8zM281 -11q-52 0 -94 18t-72 51.5t-46 81t-16 106.5q0 62 17 110.5t47 82.5t72 51.5t93 17.5q82 0 128.5 -35t50.5 -96q1 -18 -3 -37h-16q3 20 2 34q-4 55 -45.5 86.5t-116.5 31.5q-46 0 -85 -16.5
t-67 -48t-43.5 -77t-15.5 -104.5q0 -54 15 -98.5t42.5 -76t66 -49t86.5 -17.5q60 0 103.5 14.5t67.5 36.5v160h-160v16h178v-182q-30 -27 -75.5 -44t-113.5 -17z" />
    <glyph glyph-name="gdotaccent.ss01" horiz-adv-x="478" 
d="M239 607q-11 0 -19 8t-8 19t8 19t19 8t19 -8t8 -19t-8 -19t-19 -8zM240 -239q-109 0 -158.5 36t-49.5 99q0 36 14 60.5t31.5 39.5t34 21.5t21.5 7.5q-3 0 -16 3t-27.5 11t-25.5 23t-11 40q0 29 19 49.5t50 25.5q-17 13 -31 33q-13 18 -22 43t-9 60q0 40 14 72t38 55
t56 35.5t69 12.5q22 0 40 -4t30 -8q15 -6 26 -13q60 0 83.5 13.5t23.5 48.5l18 -2q0 -39 -25 -56.5t-79 -17.5q2 -1 11.5 -9.5t21 -25.5t20.5 -42t9 -59q0 -40 -14 -72.5t-38.5 -55t-57 -34.5t-69.5 -12q-22 0 -39.5 4t-29.5 9q-15 5 -27 12q-25 0 -47.5 -15t-22.5 -47
q0 -21 10.5 -33.5t28.5 -19.5t42.5 -9.5t52.5 -2.5h95q70 0 113 -32.5t43 -95.5q0 -72 -54.5 -110t-161.5 -38zM237 156q33 0 62.5 11t51 31.5t34.5 49.5t13 65t-13 65t-34.5 49.5t-51 32t-62.5 11.5t-62 -11t-50.5 -32t-34 -50t-12.5 -65t12.5 -65t34 -49.5t50.5 -31.5
t62 -11zM240 -222q97 0 147.5 33.5t50.5 97.5q0 54 -38 82.5t-100 28.5h-100q-66 0 -108 -32t-42 -92q0 -57 47 -87.5t143 -30.5z" />
    <glyph glyph-name="germandbls.sc" horiz-adv-x="506" 
d="M270 272q108 -12 151 -50t43 -98q0 -31 -12.5 -56t-34 -42.5t-51.5 -27t-66 -9.5q-46 0 -83.5 13t-60.5 39l13 12q22 -24 56 -36t75 -12q31 0 57.5 8t46 23.5t30.5 37.5t11 50q0 49 -29 80t-100 45q-30 6 -66 9v16l161 163q-20 20 -60 37.5t-95 17.5q-69 0 -112 -37
t-43 -106v-349h-18v349q0 77 48.5 118t124.5 41q59 0 103 -19t68 -44v-14z" />
    <glyph glyph-name="grave.case" horiz-adv-x="228" 
d="M65 615h27l81 -102h-17z" />
    <glyph glyph-name="gravecomb.case" 
d="M-164 845h29l80 -102h-19z" />
    <glyph glyph-name="h.sc" horiz-adv-x="555" 
d="M89 497h18v-238h341v238h18v-497h-18v242h-341v-242h-18v497z" />
    <glyph glyph-name="h.ss01" horiz-adv-x="509" 
d="M81 726h18v-377q6 28 20.5 53.5t36 44.5t49.5 30t62 11q45 0 76.5 -14.5t51.5 -39.5t29 -59t9 -72v-303h-18v303q0 34 -9 64.5t-27 53.5t-46 36.5t-66 13.5q-43 0 -75 -19t-52.5 -48.5t-30.5 -64t-10 -65.5v-274h-18v726z" />
    <glyph glyph-name="hbar.sc" horiz-adv-x="601" 
d="M586 385h-96v-385h-18v242h-341v-242h-18v385h-97v16h97v96h18v-96h341v96h18v-96h96v-16zM472 385h-341v-126h341v126z" />
    <glyph glyph-name="hbar.ss01" horiz-adv-x="509" 
d="M267 488q45 0 76.5 -14.5t51.5 -39.5t29 -59t9 -72v-303h-18v303q0 34 -9 64.5t-27 53.5t-46 36.5t-66 13.5q-43 0 -75 -19t-52.5 -48.5t-30.5 -64t-10 -65.5v-274h-18v609h-78v17h78v100h18v-100h124v-17h-124v-260q6 28 20.5 53.5t36 44.5t49.5 30t62 11z" />
    <glyph glyph-name="hcircumflex.sc" horiz-adv-x="555" 
d="M265 642h24l87 -102h-22l-78 82l-77 -82h-21zM89 497h18v-238h341v238h18v-497h-18v242h-341v-242h-18v497z" />
    <glyph glyph-name="hcircumflex.ss01" horiz-adv-x="509" 
d="M82 845h24l87 -102h-22l-78 82l-77 -82h-21zM81 726h18v-377q6 28 20.5 53.5t36 44.5t49.5 30t62 11q45 0 76.5 -14.5t51.5 -39.5t29 -59t9 -72v-303h-18v303q0 34 -9 64.5t-27 53.5t-46 36.5t-66 13.5q-43 0 -75 -19t-52.5 -48.5t-30.5 -64t-10 -65.5v-274h-18v726z" />
    <glyph glyph-name="hungarumlaut.case" horiz-adv-x="328" 
d="M131 625h27l-91 -112h-22zM255 625h27l-91 -112h-22z" />
    <glyph glyph-name="i.loclTRK" horiz-adv-x="188" 
d="M96 607q-11 0 -19 8t-8 19t8 19t19 8t19 -8t8 -19t-8 -19t-19 -8zM85 482h18v-482h-18v482z" />
    <glyph glyph-name="i.loclTRK.ss01" horiz-adv-x="190" 
d="M96 607q-11 0 -19 8t-8 19t8 19t19 8t19 -8t8 -19t-8 -19t-19 -8zM137 -1q-22 0 -36.5 16t-14.5 57v410h18v-410q0 -27 9 -42t34 -15v-15q-1 0 -3 -1h-7z" />
    <glyph glyph-name="i.sc" horiz-adv-x="196" 
d="M89 497h18v-497h-18v497z" />
    <glyph glyph-name="i.sc.loclTRK" horiz-adv-x="196" 
d="M98 622q-11 0 -19 8t-8 19t8 19t19 8t19 -8t8 -19t-8 -19t-19 -8zM89 497h18v-497h-18v497z" />
    <glyph glyph-name="i.ss01" horiz-adv-x="190" 
d="M96 607q-11 0 -19 8t-8 19t8 19t19 8t19 -8t8 -19t-8 -19t-19 -8zM137 -1q-22 0 -36.5 16t-14.5 57v410h18v-410q0 -27 9 -42t34 -15v-15q-1 0 -3 -1h-7z" />
    <glyph glyph-name="iacute.sc" horiz-adv-x="196" 
d="M148 725h26l-91 -142h-21zM89 497h18v-497h-18v497z" />
    <glyph glyph-name="iacute.ss01" horiz-adv-x="190" 
d="M146 710h26l-91 -142h-21zM137 -1q-22 0 -36.5 16t-14.5 57v410h18v-410q0 -27 9 -42t34 -15v-15q-1 0 -3 -1h-7z" />
    <glyph glyph-name="ibreve.sc" horiz-adv-x="196" 
d="M98 594q-44 0 -70 25.5t-26 81.5h20q0 -47 20 -67t56 -21t56 20.5t20 67.5h20q0 -55 -26 -81t-70 -26zM89 497h18v-497h-18v497z" />
    <glyph glyph-name="ibreve.ss01" horiz-adv-x="190" 
d="M96 579q-44 0 -70 25.5t-26 81.5h20q0 -47 20 -67t56 -21t56 20.5t20 67.5h20q0 -55 -26 -81t-70 -26zM137 -1q-22 0 -36.5 16t-14.5 57v410h18v-410q0 -27 9 -42t34 -15v-15q-1 0 -3 -1h-7z" />
    <glyph glyph-name="icircumflex.sc" horiz-adv-x="196" 
d="M86 725h23l87 -142h-21l-78 124l-77 -124h-21zM89 497h18v-497h-18v497z" />
    <glyph glyph-name="icircumflex.ss01" horiz-adv-x="190" 
d="M84 710h23l87 -142h-21l-78 124l-77 -124h-21zM137 -1q-22 0 -36.5 16t-14.5 57v410h18v-410q0 -27 9 -42t34 -15v-15q-1 0 -3 -1h-7z" />
    <glyph glyph-name="idieresis.sc" horiz-adv-x="196" 
d="M24 622q-11 0 -18.5 7.5t-7.5 18.5t7.5 18.5t18.5 7.5t18.5 -7.5t7.5 -18.5t-7.5 -18.5t-18.5 -7.5zM171 622q-11 0 -18.5 7.5t-7.5 18.5t7.5 18.5t18.5 7.5t18.5 -7.5t7.5 -18.5t-7.5 -18.5t-18.5 -7.5zM89 497h18v-497h-18v497z" />
    <glyph glyph-name="idieresis.ss01" horiz-adv-x="190" 
d="M22 607q-11 0 -18.5 7.5t-7.5 18.5t7.5 18.5t18.5 7.5t18.5 -7.5t7.5 -18.5t-7.5 -18.5t-18.5 -7.5zM169 607q-11 0 -18.5 7.5t-7.5 18.5t7.5 18.5t18.5 7.5t18.5 -7.5t7.5 -18.5t-7.5 -18.5t-18.5 -7.5zM137 -1q-22 0 -36.5 16t-14.5 57v410h18v-410q0 -27 9 -42t34 -15
v-15q-1 0 -3 -1h-7z" />
    <glyph glyph-name="igrave.sc" horiz-adv-x="196" 
d="M17 725h26l86 -142h-22zM89 497h18v-497h-18v497z" />
    <glyph glyph-name="igrave.ss01" horiz-adv-x="190" 
d="M15 710h26l86 -142h-22zM137 -1q-22 0 -36.5 16t-14.5 57v410h18v-410q0 -27 9 -42t34 -15v-15q-1 0 -3 -1h-7z" />
    <glyph glyph-name="ij.sc" horiz-adv-x="542" 
d="M89 497h18v-497h-18v497zM320 -11q-38 0 -69.5 17t-51.5 44l14 11q17 -23 45.5 -39.5t61.5 -16.5q57 0 89 33t32 94v365h18v-362q0 -72 -36.5 -109t-102.5 -37z" />
    <glyph glyph-name="ij.ss01" horiz-adv-x="380" 
d="M96 607q-11 0 -19 8t-8 19t8 19t19 8t19 -8t8 -19t-8 -19t-19 -8zM286 607q-11 0 -19 8t-8 19t8 19t19 8t19 -8t8 -19t-8 -19t-19 -8zM137 -1q-22 0 -36.5 16t-14.5 57v410h18v-410q0 -27 9 -42t34 -15v-15q-1 0 -3 -1h-7zM172 -247q-20 0 -34.5 3.5t-24.5 7.5
q-12 6 -20 12l6 16q8 -6 19 -11q10 -4 23.5 -7.5t30.5 -3.5q51 0 78 29t27 101v582h18v-582q0 -75 -30 -111t-93 -36z" />
    <glyph glyph-name="ijacute" horiz-adv-x="380" 
d="M145 710h26l-91 -142h-21zM325 710h26l-91 -142h-21zM137 -1q-22 0 -36.5 16t-14.5 57v410h18v-410q0 -27 9 -42t34 -15v-15q-1 0 -3 -1h-7zM172 -247q-20 0 -34.5 3.5t-24.5 7.5q-12 6 -20 12l6 16q8 -6 19 -11q10 -4 23.5 -7.5t30.5 -3.5q51 0 78 29t27 101v582h18
v-582q0 -75 -30 -111t-93 -36z" />
    <glyph glyph-name="imacron.sc" horiz-adv-x="196" 
d="M-12 662h220v-18h-220v18zM89 497h18v-497h-18v497z" />
    <glyph glyph-name="imacron.ss01" horiz-adv-x="190" 
d="M-14 647h220v-18h-220v18zM137 -1q-22 0 -36.5 16t-14.5 57v410h18v-410q0 -27 9 -42t34 -15v-15q-1 0 -3 -1h-7z" />
    <glyph glyph-name="iogonek.sc" horiz-adv-x="197" 
d="M119 -144q-7 -7 -19.5 -12.5t-29.5 -5.5q-33 0 -52 17t-19 48q0 39 26 67t65 39v488h18v-497q-39 -9 -64 -33.5t-25 -59.5q0 -52 52 -52q14 0 22.5 3.5t16.5 10.5z" />
    <glyph glyph-name="iogonek.ss01" horiz-adv-x="190" 
d="M96 607q-11 0 -19 8t-8 19t8 19t19 8t19 -8t8 -19t-8 -19t-19 -8zM158 -144q-7 -7 -19.5 -12.5t-29.5 -5.5q-33 0 -52 17t-19 48q0 35 21.5 61t55.5 40q-14 6 -21.5 22.5t-7.5 45.5v410h18v-410q0 -27 9 -42t34 -15v-15q-39 -9 -64 -33.5t-25 -59.5q0 -52 52 -52
q14 0 22.5 3.5t16.5 10.5z" />
    <glyph glyph-name="itilde.sc" horiz-adv-x="196" 
d="M-12 618q-3 4 -5 11t-2 13q0 24 14.5 38.5t40.5 14.5q19 0 34 -9.5t29.5 -20.5t30 -20.5t33.5 -9.5q31 0 31 34q0 19 -6 26h20q6 -7 6 -26q0 -24 -13.5 -37.5t-37.5 -13.5q-22 0 -38.5 9.5t-31 20.5t-28.5 20.5t-29 9.5q-16 0 -26 -9.5t-10 -26.5q0 -12 7 -24h-19z
M89 497h18v-497h-18v497z" />
    <glyph glyph-name="itilde.ss01" horiz-adv-x="190" 
d="M-14 603q-3 4 -5 11t-2 13q0 24 14.5 38.5t40.5 14.5q19 0 34 -9.5t29.5 -20.5t30 -20.5t33.5 -9.5q31 0 31 34q0 19 -6 26h20q6 -7 6 -26q0 -24 -13.5 -37.5t-37.5 -13.5q-22 0 -38.5 9.5t-31 20.5t-28.5 20.5t-29 9.5q-16 0 -26 -9.5t-10 -26.5q0 -12 7 -24h-19z
M137 -1q-22 0 -36.5 16t-14.5 57v410h18v-410q0 -27 9 -42t34 -15v-15q-1 0 -3 -1h-7z" />
    <glyph glyph-name="j.sc" horiz-adv-x="374" 
d="M152 -11q-38 0 -69.5 17t-51.5 44l14 11q17 -23 45.5 -39.5t61.5 -16.5q57 0 89 33t32 94v365h18v-362q0 -72 -36.5 -109t-102.5 -37z" />
    <glyph glyph-name="jcircumflex.sc" horiz-adv-x="374" 
d="M261 725h23l87 -142h-21l-78 124l-77 -124h-21zM152 -11q-38 0 -69.5 17t-51.5 44l14 11q17 -23 45.5 -39.5t61.5 -16.5q57 0 89 33t32 94v365h18v-362q0 -72 -36.5 -109t-102.5 -37z" />
    <glyph glyph-name="k.sc" horiz-adv-x="504" 
d="M490 16v-16h-20q-26 0 -44 17.5t-33.5 44t-31 57t-37 57t-52.5 44t-77 17.5h-88v-237h-18v497h18v-244h100q36 0 73 14t67.5 44t49.5 76t19 110h17q0 -51 -13 -93.5t-37 -75t-57.5 -54.5t-74.5 -31q33 -8 56.5 -27.5t41.5 -45t32.5 -52.5t27.5 -50t27.5 -37.5t33.5 -14.5
h20z" />
    <glyph glyph-name="k.ss01" horiz-adv-x="467" 
d="M461 17v-17q-1 0 -3 -1h-8q-37 0 -55.5 15.5t-39.5 43.5l-159 216l-97 -95v-179h-18v726h18v-523l282 279h27l-199 -195l167 -225q16 -21 32 -33t44 -12h9z" />
    <glyph glyph-name="kgreenlandic.sc" horiz-adv-x="504" 
d="M490 16v-16h-20q-26 0 -44 17.5t-33.5 44t-31 57t-37 57t-52.5 44t-77 17.5h-88v-237h-18v497h18v-244h100q36 0 73 14t67.5 44t49.5 76t19 110h17q0 -51 -13 -93.5t-37 -75t-57.5 -54.5t-74.5 -31q33 -8 56.5 -27.5t41.5 -45t32.5 -52.5t27.5 -50t27.5 -37.5t33.5 -14.5
h20z" />
    <glyph glyph-name="kgreenlandic.ss01" horiz-adv-x="467" 
d="M461 17v-17q-1 0 -3 -1h-8q-37 0 -55.5 15.5t-39.5 43.5l-159 216l-97 -95v-179h-18v482h18v-279l282 279h27l-199 -195l167 -225q16 -21 32 -33t44 -12h9z" />
    <glyph glyph-name="l.sc" horiz-adv-x="430" 
d="M89 497h18v-481h299v-16h-317v497z" />
    <glyph glyph-name="lacute.sc" horiz-adv-x="430" 
d="M148 725h26l-91 -142h-21zM89 497h18v-481h299v-16h-317v497z" />
    <glyph glyph-name="lcaron.sc" horiz-adv-x="431" 
d="M263 389q20 12 29 25.5t9 33.5q-16 1 -22.5 9.5t-6.5 19.5q0 10 7.5 18t19.5 8q28 0 28 -36q0 -35 -17.5 -58.5t-37.5 -33.5zM89 497h18v-481h299v-16h-317v497z" />
    <glyph glyph-name="ldot.sc" horiz-adv-x="428" 
d="M89 497h18v-481h299v-16h-317v497zM303 234q-11 0 -18.5 7.5t-7.5 18.5t7.5 18.5t18.5 7.5t18.5 -7.5t7.5 -18.5t-7.5 -18.5t-18.5 -7.5z" />
    <glyph glyph-name="lslash.sc" horiz-adv-x="438" 
d="M414 16v-16h-317v231l-64 -37l-9 16l73 43v244h18v-234l68 40l9 -16l-77 -45v-226h299z" />
    <glyph glyph-name="m.sc" horiz-adv-x="659" 
d="M89 497h28l214 -400l213 400h26v-497h-18v475l-6 -14l-209 -388h-15l-209 392l-6 14v-479h-18v497z" />
    <glyph glyph-name="m.ss01" horiz-adv-x="840" 
d="M86 407q0 40 -10 50t-33 10v15q1 0 3.5 0.5t6.5 0.5q28 0 39.5 -17t11.5 -54v-63q6 28 19.5 53.5t34 44.5t48.5 30t63 11q39 0 68 -11.5t48.5 -31t31 -46.5t15.5 -59q4 27 17 53.5t34 47.5t50.5 34t65.5 13q45 0 76.5 -14.5t51 -39.5t28.5 -59t9 -72v-303h-18v303
q0 34 -8.5 64.5t-26.5 53.5t-46 36.5t-66 13.5q-39 0 -70 -18t-52 -46.5t-32 -65t-11 -72.5v-269h-18v303q0 34 -8.5 64.5t-26.5 53.5t-46 36.5t-66 13.5q-42 0 -73 -19t-51.5 -48t-30.5 -63.5t-10 -66.5v-274h-18v407z" />
    <glyph glyph-name="macron.case" horiz-adv-x="340" 
d="M60 547h220v-18h-220v18z" />
    <glyph glyph-name="n.sc" horiz-adv-x="555" 
d="M89 497h20l332 -455l7 -11v466h18v-497h-15l-336 458l-9 13v-471h-17v497z" />
    <glyph glyph-name="n.ss01" horiz-adv-x="514" 
d="M86 408q0 40 -10 50t-33 10v15q4 1 10 1q28 0 39.5 -17t11.5 -54v-59q14 63 59 100t109 37q79 0 122.5 -48.5t43.5 -136.5v-306h-18v306q0 78 -38 123t-111 45q-39 0 -69.5 -15.5t-52.5 -42.5t-33.5 -63t-11.5 -76v-277h-18v408z" />
    <glyph glyph-name="nacute.sc" horiz-adv-x="555" 
d="M335 725h26l-91 -142h-21zM89 497h20l332 -455l7 -11v466h18v-497h-15l-336 458l-9 13v-471h-17v497z" />
    <glyph glyph-name="nacute.ss01" horiz-adv-x="514" 
d="M308 710h26l-91 -142h-21zM86 408q0 40 -10 50t-33 10v15q4 1 10 1q28 0 39.5 -17t11.5 -54v-59q14 63 59 100t109 37q79 0 122.5 -48.5t43.5 -136.5v-306h-18v306q0 78 -38 123t-111 45q-39 0 -69.5 -15.5t-52.5 -42.5t-33.5 -63t-11.5 -76v-277h-18v408z" />
    <glyph glyph-name="napostrophe.sc" horiz-adv-x="616" 
d="M37 589q21 14 27.5 29t6.5 33q-14 0 -22.5 6.5t-8.5 19.5q0 12 8 19t19 7q14 0 21 -9.5t7 -26.5q0 -27 -10 -52.5t-39 -40.5zM150 497h20l332 -455l7 -11v466h18v-497h-15l-336 458l-9 13v-471h-17v497z" />
    <glyph glyph-name="napostrophe.ss01" horiz-adv-x="578" 
d="M27 589q21 14 27.5 29t6.5 33q-14 0 -22.5 6.5t-8.5 19.5q0 12 8 19t19 7q14 0 21 -9.5t7 -26.5q0 -27 -10 -52.5t-39 -40.5zM150 408q0 40 -10 50t-33 10v15q4 1 10 1q28 0 39.5 -17t11.5 -54v-59q14 63 59 100t109 37q79 0 122.5 -48.5t43.5 -136.5v-306h-18v306
q0 78 -38 123t-111 45q-39 0 -69.5 -15.5t-52.5 -42.5t-33.5 -63t-11.5 -76v-277h-18v408z" />
    <glyph glyph-name="ncaron.sc" horiz-adv-x="555" 
d="M186 725h21l78 -125l77 125h21l-88 -142h-23zM89 497h20l332 -455l7 -11v466h18v-497h-15l-336 458l-9 13v-471h-17v497z" />
    <glyph glyph-name="ncaron.ss01" horiz-adv-x="514" 
d="M159 710h21l78 -125l77 125h21l-88 -142h-23zM86 408q0 40 -10 50t-33 10v15q4 1 10 1q28 0 39.5 -17t11.5 -54v-59q14 63 59 100t109 37q79 0 122.5 -48.5t43.5 -136.5v-306h-18v306q0 78 -38 123t-111 45q-39 0 -69.5 -15.5t-52.5 -42.5t-33.5 -63t-11.5 -76v-277h-18
v408z" />
    <glyph glyph-name="nine.dnom" horiz-adv-x="355" 
d="M171 386q61 0 98 -45.5t37 -128.5q0 -101 -34 -158t-109 -57q-33 0 -59.5 11.5t-42.5 38.5l15 10q29 -43 87 -43q60 0 92 49t32 141v8q-22 -33 -54.5 -51t-72.5 -18q-51 0 -84 28t-33 85q0 60 35.5 95t92.5 35zM160 160q41 0 73.5 20.5t52.5 50.5q-6 71 -38 104.5
t-77 33.5q-49 0 -78.5 -30t-29.5 -83q0 -48 28 -72t69 -24z" />
    <glyph glyph-name="nine.numr" horiz-adv-x="355" 
d="M171 704q61 0 98 -45.5t37 -128.5q0 -101 -34 -158t-109 -57q-33 0 -59.5 11.5t-42.5 38.5l15 10q29 -43 87 -43q60 0 92 49t32 141v8q-22 -33 -54.5 -51t-72.5 -18q-51 0 -84 28t-33 85q0 60 35.5 95t92.5 35zM160 478q41 0 73.5 20.5t52.5 50.5q-6 71 -38 104.5
t-77 33.5q-49 0 -78.5 -30t-29.5 -83q0 -48 28 -72t69 -24z" />
    <glyph glyph-name="nine.osf" horiz-adv-x="520" 
d="M245 509q107 0 164 -87.5t57 -252.5q0 -189 -55 -280.5t-175 -91.5q-45 0 -90 15t-74 57l14 11q26 -37 67 -51.5t83 -14.5q110 0 161.5 87.5t51.5 273.5v12q-35 -62 -88.5 -90t-113.5 -28q-46 0 -84.5 14.5t-65.5 42.5t-42 68.5t-15 92.5q0 49 15 89.5t42 70t64.5 46
t83.5 16.5zM247 87q29 0 58.5 7t56 22.5t49 39t37.5 56.5q-7 135 -60 208t-143 73q-41 0 -75.5 -15.5t-59 -43.5t-38.5 -65.5t-14 -82.5q0 -98 51.5 -148.5t137.5 -50.5z" />
    <glyph glyph-name="nine.sc" horiz-adv-x="464" 
d="M220 508q91 0 139.5 -63.5t48.5 -184.5q0 -139 -49.5 -205t-150.5 -66q-39 0 -77.5 13.5t-61.5 47.5l13 10q23 -31 57 -43t69 -12q92 0 136.5 62t44.5 196v8q-30 -44 -75 -63t-93 -19q-79 0 -126.5 40.5t-47.5 116.5q0 36 12.5 66t35 51t54.5 33t71 12zM221 205
q50 0 95.5 21.5t71.5 65.5q-6 98 -49.5 149t-118.5 51q-69 0 -111.5 -40.5t-42.5 -104.5q0 -70 41.5 -106t113.5 -36z" />
    <glyph glyph-name="nine.sinf" horiz-adv-x="355" 
d="M171 249q61 0 98 -45.5t37 -128.5q0 -101 -34 -158t-109 -57q-33 0 -59.5 11.5t-42.5 38.5l15 10q29 -43 87 -43q60 0 92 49t32 141v8q-22 -33 -54.5 -51t-72.5 -18q-51 0 -84 28t-33 85q0 60 35.5 95t92.5 35zM160 23q41 0 73.5 20.5t52.5 50.5q-6 71 -38 104.5
t-77 33.5q-49 0 -78.5 -30t-29.5 -83q0 -48 28 -72t69 -24z" />
    <glyph glyph-name="nine.sups" horiz-adv-x="355" 
d="M171 769q61 0 98 -45.5t37 -128.5q0 -101 -34 -158t-109 -57q-33 0 -59.5 11.5t-42.5 38.5l15 10q29 -43 87 -43q60 0 92 49t32 141v8q-22 -33 -54.5 -51t-72.5 -18q-51 0 -84 28t-33 85q0 60 35.5 95t92.5 35zM160 543q41 0 73.5 20.5t52.5 50.5q-6 71 -38 104.5
t-77 33.5q-49 0 -78.5 -30t-29.5 -83q0 -48 28 -72t69 -24z" />
    <glyph glyph-name="ntilde.sc" horiz-adv-x="555" 
d="M175 618q-3 4 -5 11t-2 13q0 24 14.5 38.5t40.5 14.5q19 0 34 -9.5t29.5 -20.5t30 -20.5t33.5 -9.5q31 0 31 34q0 19 -6 26h20q6 -7 6 -26q0 -24 -13.5 -37.5t-37.5 -13.5q-22 0 -38.5 9.5t-31 20.5t-28.5 20.5t-29 9.5q-16 0 -26 -9.5t-10 -26.5q0 -12 7 -24h-19z
M89 497h20l332 -455l7 -11v466h18v-497h-15l-336 458l-9 13v-471h-17v497z" />
    <glyph glyph-name="ntilde.ss01" horiz-adv-x="514" 
d="M148 603q-3 4 -5 11t-2 13q0 24 14.5 38.5t40.5 14.5q19 0 34 -9.5t29.5 -20.5t30 -20.5t33.5 -9.5q31 0 31 34q0 19 -6 26h20q6 -7 6 -26q0 -24 -13.5 -37.5t-37.5 -13.5q-22 0 -38.5 9.5t-31 20.5t-28.5 20.5t-29 9.5q-16 0 -26 -9.5t-10 -26.5q0 -12 7 -24h-19z
M86 408q0 40 -10 50t-33 10v15q4 1 10 1q28 0 39.5 -17t11.5 -54v-59q14 63 59 100t109 37q79 0 122.5 -48.5t43.5 -136.5v-306h-18v306q0 78 -38 123t-111 45q-39 0 -69.5 -15.5t-52.5 -42.5t-33.5 -63t-11.5 -76v-277h-18v408z" />
    <glyph glyph-name="o.sc" horiz-adv-x="576" 
d="M288 -11q-44 0 -86 13t-75 43.5t-53 80t-20 122.5q0 72 20.5 122t53.5 80.5t75 44t85 13.5q44 0 86 -13.5t75 -44t53 -80.5t20 -122t-20 -121.5t-53 -80t-75 -44t-86 -13.5zM288 5q41 0 79.5 12.5t69 41.5t49 75.5t18.5 113.5q0 68 -18.5 114.5t-49 75t-69 41.5t-79.5 13
q-40 0 -79 -13t-69.5 -42t-49 -75.5t-18.5 -113.5t18.5 -113.5t49 -75.5t69.5 -41.5t79 -12.5z" />
    <glyph glyph-name="oacute.sc" horiz-adv-x="576" 
d="M338 725h26l-91 -142h-21zM288 -11q-44 0 -86 13t-75 43.5t-53 80t-20 122.5q0 72 20.5 122t53.5 80.5t75 44t85 13.5q44 0 86 -13.5t75 -44t53 -80.5t20 -122t-20 -121.5t-53 -80t-75 -44t-86 -13.5zM288 5q41 0 79.5 12.5t69 41.5t49 75.5t18.5 113.5q0 68 -18.5 114.5
t-49 75t-69 41.5t-79.5 13q-40 0 -79 -13t-69.5 -42t-49 -75.5t-18.5 -113.5t18.5 -113.5t49 -75.5t69.5 -41.5t79 -12.5z" />
    <glyph glyph-name="obreve.sc" horiz-adv-x="576" 
d="M288 594q-44 0 -70 25.5t-26 81.5h20q0 -47 20 -67t56 -21t56 20.5t20 67.5h20q0 -55 -26 -81t-70 -26zM288 -11q-44 0 -86 13t-75 43.5t-53 80t-20 122.5q0 72 20.5 122t53.5 80.5t75 44t85 13.5q44 0 86 -13.5t75 -44t53 -80.5t20 -122t-20 -121.5t-53 -80t-75 -44
t-86 -13.5zM288 5q41 0 79.5 12.5t69 41.5t49 75.5t18.5 113.5q0 68 -18.5 114.5t-49 75t-69 41.5t-79.5 13q-40 0 -79 -13t-69.5 -42t-49 -75.5t-18.5 -113.5t18.5 -113.5t49 -75.5t69.5 -41.5t79 -12.5z" />
    <glyph glyph-name="ocircumflex.sc" horiz-adv-x="576" 
d="M276 725h23l87 -142h-21l-78 124l-77 -124h-21zM288 -11q-44 0 -86 13t-75 43.5t-53 80t-20 122.5q0 72 20.5 122t53.5 80.5t75 44t85 13.5q44 0 86 -13.5t75 -44t53 -80.5t20 -122t-20 -121.5t-53 -80t-75 -44t-86 -13.5zM288 5q41 0 79.5 12.5t69 41.5t49 75.5
t18.5 113.5q0 68 -18.5 114.5t-49 75t-69 41.5t-79.5 13q-40 0 -79 -13t-69.5 -42t-49 -75.5t-18.5 -113.5t18.5 -113.5t49 -75.5t69.5 -41.5t79 -12.5z" />
    <glyph glyph-name="odieresis.sc" horiz-adv-x="576" 
d="M214 622q-11 0 -18.5 7.5t-7.5 18.5t7.5 18.5t18.5 7.5t18.5 -7.5t7.5 -18.5t-7.5 -18.5t-18.5 -7.5zM361 622q-11 0 -18.5 7.5t-7.5 18.5t7.5 18.5t18.5 7.5t18.5 -7.5t7.5 -18.5t-7.5 -18.5t-18.5 -7.5zM288 -11q-44 0 -86 13t-75 43.5t-53 80t-20 122.5q0 72 20.5 122
t53.5 80.5t75 44t85 13.5q44 0 86 -13.5t75 -44t53 -80.5t20 -122t-20 -121.5t-53 -80t-75 -44t-86 -13.5zM288 5q41 0 79.5 12.5t69 41.5t49 75.5t18.5 113.5q0 68 -18.5 114.5t-49 75t-69 41.5t-79.5 13q-40 0 -79 -13t-69.5 -42t-49 -75.5t-18.5 -113.5t18.5 -113.5
t49 -75.5t69.5 -41.5t79 -12.5z" />
    <glyph glyph-name="oe.sc" horiz-adv-x="863" 
d="M522 480v-219h263v-18h-263v-226h295v-17h-313v132q-14 -39 -37 -66t-51.5 -44.5t-61.5 -25t-66 -7.5q-44 0 -86 13t-75 43.5t-53 80t-20 122.5q0 72 20.5 122t53.5 80.5t75 44t85 13.5q33 0 66 -7.5t61.5 -25t51.5 -45t37 -66.5v133h313v-17h-295zM288 5q41 0 79.5 12.5
t69 41.5t49 75.5t18.5 113.5q0 68 -18.5 114.5t-49 75t-69 41.5t-79.5 13q-40 0 -79 -13t-69.5 -42t-49 -75.5t-18.5 -113.5t18.5 -113.5t49 -75.5t69.5 -41.5t79 -12.5z" />
    <glyph glyph-name="ograve.sc" horiz-adv-x="576" 
d="M207 725h26l86 -142h-22zM288 -11q-44 0 -86 13t-75 43.5t-53 80t-20 122.5q0 72 20.5 122t53.5 80.5t75 44t85 13.5q44 0 86 -13.5t75 -44t53 -80.5t20 -122t-20 -121.5t-53 -80t-75 -44t-86 -13.5zM288 5q41 0 79.5 12.5t69 41.5t49 75.5t18.5 113.5q0 68 -18.5 114.5
t-49 75t-69 41.5t-79.5 13q-40 0 -79 -13t-69.5 -42t-49 -75.5t-18.5 -113.5t18.5 -113.5t49 -75.5t69.5 -41.5t79 -12.5z" />
    </font>
</defs>
</svg>
