<?xml version="1.0" standalone="no"?>
<!DOCTYPE svg PUBLIC "-//W3C//DTD SVG 1.1//EN" "http://www.w3.org/Graphics/SVG/1.1/DTD/svg11.dtd" >
<svg xmlns="http://www.w3.org/2000/svg" xmlns:xlink="http://www.w3.org/1999/xlink" version="1.1">
<metadata>
Created by FontForge 20170731 at Wed Jul  3 11:38:38 2019
 By Aleksey,,,
Copyright (c) 2017 by Daniel Hernandez. All rights reserved.
</metadata>
<defs>
<font id="AndesNeueAlt2-Mediumit" horiz-adv-x="0" >
  <font-face 
    font-family="AndesNeue Alt 2 Medium it"
    font-weight="500"
    font-style="italic"
    font-stretch="normal"
    units-per-em="1000"
    panose-1="0 0 6 0 0 0 0 0 0 0"
    ascent="750"
    descent="-250"
    x-height="482"
    cap-height="700"
    bbox="-634 -255 1393 995"
    underline-thickness="50"
    underline-position="-150"
    slope="-6"
    unicode-range="U+000D-FB02"
  />
<missing-glyph horiz-adv-x="530" 
d="M480 730v-730h-430v730h430zM265 408l150 287h-300zM90 657v-584l153 292zM440 73v584l-152 -292zM115 35h300l-150 287z" />
    <glyph glyph-name="fi" unicode="fi" horiz-adv-x="531" 
d="M446 133q-4 -28 4 -39t33 -11l-9 -81q-4 -2 -17.5 -4t-30.5 -2q-54 0 -76 30t-17 84l30 285h-149l-41 -395h-110l42 395h-68l10 87h67l6 59q9 93 57 141t129 48q24 0 43 -6t32 -17l-36 -84q-15 12 -41 12q-65 0 -72 -77l-8 -76h259zM453 711q32 0 48 -19.5t16 -45.5
q0 -32 -20.5 -54.5t-55.5 -22.5q-32 0 -49 18.5t-17 45.5q0 31 20.5 54.5t57.5 23.5z" />
    <glyph glyph-name="fl" unicode="fl" horiz-adv-x="531" 
d="M445 130q-3 -26 6 -35t32 -9l-9 -84q-8 -2 -22 -4t-28 -2q-48 0 -73 26t-18 89l30 284h-149l-42 -395h-109l42 395h-67l9 87h67l6 57q5 52 21 88t40.5 59t56 33.5t67.5 10.5q25 0 44.5 -6t31.5 -17l-36 -84q-7 5 -16.5 8.5t-24.5 3.5q-30 0 -48.5 -17.5t-23.5 -56.5
l-8 -79h148l26 244h110z" />
    <glyph glyph-name=".notdef" horiz-adv-x="530" 
d="M480 730v-730h-430v730h430zM265 408l150 287h-300zM90 657v-584l153 292zM440 73v584l-152 -292zM115 35h300l-150 287z" />
    <glyph glyph-name=".null" 
 />
    <glyph glyph-name=".null" 
 />
    <glyph glyph-name="nonmarkingreturn" unicode="&#xd;" horiz-adv-x="250" 
 />
    <glyph glyph-name="space" unicode=" " horiz-adv-x="197" 
 />
    <glyph glyph-name="exclam" unicode="!" horiz-adv-x="252" 
d="M115 700h122l-64 -482h-94zM102 -6q-29 0 -46.5 17t-17.5 46q0 30 18.5 52t53.5 22q28 0 45.5 -18t17.5 -47t-18 -50.5t-53 -21.5z" />
    <glyph glyph-name="quotedbl" unicode="&#x22;" horiz-adv-x="314" 
d="M99 764h90l-25 -197h-82zM236 764h89l-25 -197h-81z" />
    <glyph glyph-name="numbersign" unicode="#" horiz-adv-x="583" 
d="M113 131h-99l21 61h98l43 139h-91l21 62h90l31 98h79l-31 -98h119l32 98h79l-31 -98h101l-21 -62h-99l-45 -139h94l-21 -61h-92l-26 -86h-79l26 86h-119l-26 -86h-80zM332 192l43 139h-120l-44 -139h121z" />
    <glyph glyph-name="dollar" unicode="$" horiz-adv-x="565" 
d="M435 474q15 50 -3.5 78t-58.5 39l-20 -196q33 -9 65.5 -21t57.5 -32t40.5 -50.5t15.5 -75.5q0 -88 -56 -142t-164 -64l-12 -118h-87l12 116q-80 3 -135.5 36.5t-77.5 78.5l84 71q23 -42 59 -63t81 -27l22 205q-34 8 -67 20t-59.5 32t-42.5 51.5t-16 79.5q0 44 17 79.5
t47 61t71 40t89 16.5l12 113h87l-13 -112h1v-3q35 -3 69 -16.5t58 -39t33.5 -64t-5.5 -93.5h-104zM186 501q0 -36 20 -54t63 -31l19 178q-48 -5 -75 -27.5t-27 -65.5zM420 199q0 36 -21.5 56t-57.5 33l-19 -183q45 8 71.5 31t26.5 63z" />
    <glyph glyph-name="percent" unicode="%" horiz-adv-x="617" 
d="M158 422q-51 0 -76.5 31t-25.5 88q0 75 34.5 119t97.5 44q53 0 79.5 -31.5t26.5 -88.5q0 -75 -35 -118.5t-101 -43.5zM419 700h77l-276 -700h-79zM164 480q32 0 46 28t14 72q0 29 -10 45.5t-33 16.5q-32 0 -45 -27t-13 -71q0 -30 9.5 -47t31.5 -17zM451 -4q-51 0 -77 31
t-26 88q0 76 34.5 119.5t97.5 43.5q52 0 78.5 -31.5t26.5 -88.5q0 -75 -35 -118.5t-99 -43.5zM457 55q31 0 45 28t14 71q0 62 -42 62q-32 0 -45.5 -26.5t-13.5 -71.5q0 -29 9.5 -46t32.5 -17z" />
    <glyph glyph-name="ampersand" unicode="&#x26;" horiz-adv-x="679" 
d="M604 -13q-35 9 -68 23.5t-65 33.5q-41 -30 -91 -46t-110 -16q-52 0 -95 13.5t-73.5 39t-47 62t-16.5 83.5q0 34 10 67t28 62.5t43 53.5t54 40q-20 58 -20 108t17 90.5t47.5 70t72.5 45.5t92 16q88 0 134 -41t46 -113q0 -28 -8 -59.5t-19 -49.5h-102q8 17 14 41.5t6 44.5
q0 39 -20.5 59t-57.5 20q-54 0 -84 -29.5t-30 -92.5q0 -48 21.5 -101t66.5 -108q14 -17 45 -52.5t75 -73.5q32 60 42 152h105q-13 -124 -71 -209q23 -14 47 -25t50 -18zM292 76q58 0 101 24q-33 29 -63.5 61.5t-58.5 67.5q-17 23 -33 47t-30 49q-19 -17 -30 -32t-17 -29.5
t-8 -29.5t-2 -32q0 -60 39 -93t102 -33z" />
    <glyph glyph-name="quotesingle" unicode="'" horiz-adv-x="177" 
d="M99 764h90l-25 -197h-82z" />
    <glyph glyph-name="parenleft" unicode="(" horiz-adv-x="279" 
d="M132 -244q-48 84 -73.5 188.5t-25.5 216.5q0 165 51.5 308.5t150.5 264.5l79 -47q-84 -114 -128.5 -245.5t-44.5 -276.5q0 -103 21 -195.5t59 -166.5z" />
    <glyph glyph-name="parenright" unicode=")" horiz-adv-x="287" 
d="M154 734q48 -84 74 -188.5t26 -216.5q0 -165 -51.5 -308.5t-151.5 -264.5l-79 47q85 114 129 245.5t44 276.5q0 103 -21 195.5t-59 166.5z" />
    <glyph glyph-name="asterisk" unicode="*" horiz-adv-x="429" 
d="M236 529l-82 -107l-56 50l103 101l-129 15l17 80l122 -41l-46 122l76 26l28 -133l87 114l56 -49l-102 -102l127 -15l-15 -79l-127 37l47 -122l-76 -22z" />
    <glyph glyph-name="plus" unicode="+" horiz-adv-x="429" 
d="M169 224h-140l8 82h141l15 147h83l-15 -147h145l-9 -82h-145l-16 -161h-84z" />
    <glyph glyph-name="comma" unicode="," horiz-adv-x="220" 
d="M14 -82q25 13 43 31.5t23 44.5q-60 9 -60 67q0 31 20.5 50.5t50.5 19.5q33 0 51.5 -22t18.5 -60q0 -30 -9.5 -58t-25.5 -51.5t-38 -42t-48 -28.5z" />
    <glyph glyph-name="hyphen" unicode="-" horiz-adv-x="374" 
d="M61 313h268l-8 -83h-269z" />
    <glyph glyph-name="period" unicode="." horiz-adv-x="212" 
d="M84 -6q-29 0 -47 17t-18 46q0 30 19 52t54 22q28 0 45.5 -18t17.5 -47t-18 -50.5t-53 -21.5z" />
    <glyph glyph-name="slash" unicode="/" horiz-adv-x="399" 
d="M339 706h92l-369 -933h-94z" />
    <glyph glyph-name="zero" unicode="0" horiz-adv-x="614" 
d="M279 -6q-59 0 -102 20.5t-71.5 58.5t-42 92t-13.5 121q0 92 18.5 169.5t56.5 133t95 86.5t134 31q60 0 104 -21t73 -59.5t43 -93t14 -121.5q0 -92 -18.5 -168.5t-57 -132t-96.5 -86t-137 -30.5zM290 93q48 0 81.5 22.5t55 63.5t31.5 100t10 132q0 97 -30 146.5t-94 49.5
q-46 0 -79 -22.5t-54.5 -64.5t-31.5 -101t-10 -132q0 -96 29.5 -145t91.5 -49z" />
    <glyph glyph-name="one" unicode="1" horiz-adv-x="434" 
d="M235 524q-27 -23 -65 -35.5t-103 -12.5l11 104q44 0 76 10t53.5 27t32.5 38.5t14 44.5h111l-74 -700h-111z" />
    <glyph glyph-name="two" unicode="2" horiz-adv-x="549" 
d="M16 27q7 73 39 121.5t76 83.5t93.5 61.5t91 55t68.5 65t27 90.5q0 48 -27 75.5t-80 27.5q-37 0 -61 -12t-38.5 -30t-21.5 -37.5t-9 -34.5h-109q3 32 17 69t42.5 69t75 53.5t113.5 21.5q107 0 160 -53t53 -140q0 -69 -26.5 -118.5t-66.5 -85.5t-87.5 -62.5t-89 -49.5
t-71 -46t-33.5 -53v-5h347l-10 -93h-476z" />
    <glyph glyph-name="three" unicode="3" horiz-adv-x="555" 
d="M254 -6q-97 0 -157.5 34t-83.5 106l97 49q14 -45 52 -69t93 -24q73 0 107 32t34 85q0 21 -7 39.5t-24 32.5t-45 22.5t-70 8.5h-42l9 84h48q71 0 107.5 33t36.5 86q0 49 -30 72t-73 23q-22 0 -43 -5.5t-38.5 -18.5t-29.5 -34.5t-18 -53.5h-109q15 107 80.5 158.5
t168.5 51.5q45 0 83 -11.5t65.5 -34t43 -55.5t15.5 -76q0 -63 -32.5 -105.5t-79.5 -59.5q55 -20 77.5 -61.5t22.5 -95.5q0 -48 -17.5 -87.5t-51 -67.5t-81.5 -43t-108 -15z" />
    <glyph glyph-name="four" unicode="4" horiz-adv-x="554" 
d="M320 149h-310l10 93l287 458h116l-284 -458h193l17 158h109l-18 -158h96l-9 -93h-96l-16 -149h-111z" />
    <glyph glyph-name="five" unicode="5" horiz-adv-x="565" 
d="M261 -7q-95 0 -154 37t-82 105l102 57q21 -54 57.5 -77t90.5 -23q67 0 104 39t37 111q0 63 -31.5 91t-81.5 28q-45 0 -75.5 -14.5t-50.5 -33.5h-107l42 387h432l-11 -102h-328l-19 -186q23 23 60.5 36.5t86.5 13.5q94 0 147 -52t53 -151q0 -125 -70.5 -195.5
t-201.5 -70.5z" />
    <glyph glyph-name="six" unicode="6" horiz-adv-x="583" 
d="M349 422q95 0 146.5 -47t51.5 -135q0 -51 -17 -96t-50 -78.5t-80.5 -52.5t-108.5 -19q-59 0 -104 20.5t-76 58t-46.5 90t-15.5 116.5q0 105 23 184.5t64.5 133.5t100 81.5t129.5 27.5q40 0 74.5 -9.5t59.5 -28t39.5 -47t14.5 -66.5q0 -19 -4 -36t-9 -30h-104q7 21 7 41
q0 40 -24.5 60t-62.5 20q-79 0 -131.5 -63.5t-61.5 -203.5q40 44 88.5 61.5t96.5 17.5zM306 91q62 0 95.5 35t33.5 90q0 107 -114 107q-48 0 -88.5 -24t-68.5 -59q9 -75 45.5 -112t96.5 -37z" />
    <glyph glyph-name="seven" unicode="7" horiz-adv-x="494" 
d="M90 0q8 81 32.5 148t56.5 123t67.5 102.5t66 86t52.5 73t26 64.5h-337l10 103h461l-6 -51q-6 -54 -29 -100.5t-55.5 -91.5t-69 -91.5t-70 -100.5t-58.5 -119t-34 -146h-113z" />
    <glyph glyph-name="eight" unicode="8" horiz-adv-x="568" 
d="M435 363q92 -48 92 -154q0 -48 -18.5 -87.5t-52.5 -68t-82 -44t-108 -15.5q-114 0 -173.5 45t-59.5 126q0 68 34.5 117t88.5 78q-29 23 -46.5 57.5t-17.5 78.5q0 47 17.5 85.5t49 66t75 43t96.5 15.5q47 0 85 -11.5t65.5 -33t42.5 -52.5t15 -70q0 -61 -28.5 -105
t-74.5 -71zM321 612q-51 0 -84 -25.5t-33 -78.5q0 -32 18.5 -54.5t47.5 -33.5l80 -26q41 23 58 55.5t17 66.5q0 48 -29 72t-75 24zM273 87q69 0 104 29.5t35 83.5q0 33 -17 54t-59 35l-105 34q-36 -23 -60 -54.5t-24 -81.5q0 -45 30 -72.5t96 -27.5z" />
    <glyph glyph-name="nine" unicode="9" horiz-adv-x="583" 
d="M312 706q122 0 184 -76t62 -211q0 -106 -22 -185.5t-62.5 -132.5t-98 -80t-127.5 -27q-159 0 -210 104l87 67q23 -42 52 -58.5t80 -16.5q35 0 65.5 13.5t55 42.5t41.5 75t23 110q-38 -42 -81 -57.5t-101 -15.5q-43 0 -80 13t-64 38t-42 62.5t-15 85.5q0 54 17.5 100
t50.5 79t80 51.5t105 18.5zM289 356q60 0 96.5 24.5t59.5 54.5q-5 94 -42.5 134.5t-95.5 40.5q-60 0 -98 -37.5t-38 -100.5q0 -56 29 -86t89 -30z" />
    <glyph glyph-name="colon" unicode=":" horiz-adv-x="242" 
d="M143 412q-29 0 -46.5 17t-17.5 46q0 30 19 52t53 22q29 0 46 -18t17 -47t-18 -50.5t-53 -21.5zM99 -6q-29 0 -46.5 17t-17.5 46q0 30 18.5 52t53.5 22q29 0 46 -18t17 -47t-18 -50.5t-53 -21.5z" />
    <glyph glyph-name="semicolon" unicode=";" horiz-adv-x="241" 
d="M133 355q-29 0 -46.5 17.5t-17.5 46.5q0 32 20.5 53.5t52.5 21.5q30 0 47 -18t17 -47q0 -32 -19.5 -53t-53.5 -21zM25 -82q26 13 44 31.5t23 44.5q-60 9 -60 67q0 31 20 50.5t50 19.5q33 0 52 -22t19 -60q0 -30 -9.5 -58t-26 -51.5t-38.5 -42t-48 -28.5z" />
    <glyph glyph-name="less" unicode="&#x3c;" horiz-adv-x="396" 
d="M22 211l9 90l348 197l-11 -98l-243 -146l213 -141l-11 -99z" />
    <glyph glyph-name="equal" unicode="=" horiz-adv-x="488" 
d="M72 403h378l-10 -82h-376zM51 199h377l-8 -82h-377z" />
    <glyph glyph-name="greater" unicode="&#x3e;" horiz-adv-x="396" 
d="M33 116l241 143l-212 141l11 99l305 -197l-9 -90l-348 -197z" />
    <glyph glyph-name="question" unicode="?" horiz-adv-x="457" 
d="M160 197q5 50 20.5 85t35.5 60.5t42 45t40.5 39t30.5 42.5t12 56q0 37 -21 58.5t-62 21.5q-42 0 -68 -24t-33 -75h-106q9 97 65.5 149.5t153.5 52.5q51 0 87 -14t58.5 -37t32.5 -53t10 -62q0 -48 -13 -81t-33.5 -58t-44.5 -45.5t-45.5 -43t-37.5 -50t-20 -67.5h-104z
M197 -6q-29 0 -46.5 17t-17.5 46q0 30 19 52t53 22q29 0 46.5 -18t17.5 -47t-18.5 -50.5t-53.5 -21.5z" />
    <glyph glyph-name="at" unicode="@" horiz-adv-x="834" 
d="M661 454q-36 -96 -56.5 -153t-31 -88t-13.5 -44t-4 -21q-1 -30 28 -30q24 0 49.5 21t46 54.5t33.5 76.5t13 88q0 95 -56 150.5t-159 55.5q-79 0 -148.5 -32t-121.5 -86.5t-82 -128t-30 -157.5q0 -110 60.5 -173t166.5 -63q87 0 148.5 23t109.5 65l50 -64
q-53 -51 -134 -82t-184 -31q-73 0 -131.5 22t-99.5 63.5t-63 100t-22 130.5q0 105 38 197t105 159.5t158 106.5t196 39q68 0 122 -20t92 -57t58.5 -89t20.5 -117q0 -67 -21 -127t-56.5 -105t-82.5 -71.5t-100 -26.5q-45 0 -67.5 20.5t-23.5 57.5q-32 -46 -66 -61t-69 -15
q-54 0 -84.5 35t-30.5 98q0 61 20 113t54 89.5t78 58.5t92 21q35 0 59 -11t41 -31l13 39h85zM371 125q20 0 39.5 9.5t39 33.5t39.5 65.5t40 105.5q-6 18 -24 28.5t-44 10.5q-29 0 -55.5 -14t-46 -38.5t-31 -58t-11.5 -73.5q0 -34 14 -51.5t40 -17.5z" />
    <glyph glyph-name="A" unicode="A" horiz-adv-x="619" 
d="M434 183h-260l-81 -183h-113l323 700h112l173 -700h-113zM414 272l-67 302l-134 -302h201z" />
    <glyph glyph-name="B" unicode="B" horiz-adv-x="605" 
d="M456 376q22 -6 42 -18t35.5 -31t24.5 -45.5t9 -60.5q0 -54 -20 -95.5t-55.5 -69t-84 -42t-104.5 -14.5h-250l74 700h235q103 0 155 -40t52 -118q0 -62 -32.5 -105t-80.5 -61zM205 401h117q69 0 102 33.5t33 84.5q0 94 -109 94h-120zM308 87q148 0 148 130
q0 48 -30.5 72.5t-87.5 24.5h-141l-24 -227h135z" />
    <glyph glyph-name="C" unicode="C" horiz-adv-x="596" 
d="M314 -8q-61 0 -110 20t-83.5 58t-53 93.5t-18.5 127.5q0 91 21.5 167.5t63 132t103.5 86.5t143 31q47 0 86 -11.5t67 -34t44 -55.5t16 -76q0 -21 -4 -41t-11 -40h-102q6 17 8 32t2 28q0 54 -34.5 78t-88.5 24q-46 0 -82.5 -23t-62 -64t-39 -98t-13.5 -126q0 -106 44 -160
t116 -54q56 0 93.5 21t72.5 71l67 -56q-46 -68 -104 -99.5t-141 -31.5z" />
    <glyph glyph-name="D" unicode="D" horiz-adv-x="665" 
d="M127 700h212q66 0 121 -17t95 -53t62.5 -92.5t22.5 -136.5q0 -108 -31 -184t-82 -124t-117 -70.5t-136 -22.5h-221zM274 95q57 0 103 18t78.5 54.5t50.5 91.5t18 130q0 109 -51 162.5t-150 53.5h-96l-53 -510h100z" />
    <glyph glyph-name="E" unicode="E" horiz-adv-x="550" 
d="M127 700h431l-11 -98h-320l-21 -198h273l-10 -98h-274l-21 -208h321l-11 -98h-431z" />
    <glyph glyph-name="F" unicode="F" horiz-adv-x="522" 
d="M127 700h421l-10 -102h-312l-23 -212h262l-10 -102h-262l-30 -284h-110z" />
    <glyph glyph-name="G" unicode="G" horiz-adv-x="635" 
d="M319 -11q-130 0 -200.5 77t-70.5 226q0 97 24 174t68 131t107 82.5t141 28.5q104 0 161.5 -46.5t57.5 -129.5q0 -20 -3.5 -36t-8.5 -28h-105q2 5 4 15.5t2 28.5q0 48 -32 74t-90 26q-99 0 -154 -80.5t-55 -229.5q0 -104 43.5 -161t125.5 -57q56 0 89.5 13.5t48.5 28.5
l14 133h-142l10 95h245l-30 -275q-14 -15 -36.5 -30.5t-54 -29t-71.5 -22t-88 -8.5z" />
    <glyph glyph-name="H" unicode="H" horiz-adv-x="642" 
d="M123 700h110l-31 -294h273l32 294h110l-74 -700h-110l32 302h-274l-32 -302h-110z" />
    <glyph glyph-name="I" unicode="I" horiz-adv-x="266" 
d="M127 700h110l-74 -700h-110z" />
    <glyph glyph-name="J" unicode="J" horiz-adv-x="461" 
d="M168 -6q-69 0 -113 23t-65 56l76 76q17 -23 40.5 -40.5t60.5 -17.5q95 0 109 128l51 481h109l-51 -489q-24 -217 -217 -217z" />
    <glyph glyph-name="K" unicode="K" horiz-adv-x="628" 
d="M404 336q31 -26 48.5 -67t33.5 -79.5t37 -66.5t59 -28h22l-11 -94q-9 -2 -23.5 -4t-28.5 -2q-50 0 -80 22.5t-49.5 56t-32.5 72.5t-29.5 72.5t-40.5 56t-65 22.5h-49l-32 -297h-110l74 700h110l-32 -303h47q42 0 82.5 15t74.5 50t58.5 93t33.5 145h109
q-14 -134 -67.5 -226.5t-138.5 -137.5z" />
    <glyph glyph-name="L" unicode="L" horiz-adv-x="514" 
d="M127 700h111l-64 -602h312l-10 -98h-423z" />
    <glyph glyph-name="M" unicode="M" horiz-adv-x="799" 
d="M127 700h109l164 -481l268 481h102l-74 -700h-104l51 495l-18 -41l-204 -363h-77l-124 367l-11 43l-52 -501h-104z" />
    <glyph glyph-name="N" unicode="N" horiz-adv-x="656" 
d="M127 700h96l233 -484l12 -34l54 518h105l-74 -700h-97l-236 485l-9 29l-54 -514h-104z" />
    <glyph glyph-name="O" unicode="O" horiz-adv-x="687" 
d="M323 -8q-56 0 -106 17t-87.5 53t-59.5 93t-22 137q0 109 27 187.5t73.5 129.5t108.5 75t131 24q56 0 105.5 -17.5t87 -54.5t59.5 -94.5t22 -137.5q0 -108 -27 -186t-73 -128.5t-108 -74t-131 -23.5zM334 88q44 0 82.5 17t67 54.5t45 96t17.5 142.5q0 60 -14 101t-37 66
t-53.5 36t-63.5 11q-44 0 -82.5 -17t-67.5 -54.5t-46 -97t-18 -143.5q0 -60 13.5 -100.5t37 -65t54.5 -35.5t65 -11z" />
    <glyph glyph-name="P" unicode="P" horiz-adv-x="582" 
d="M127 700h224q109 0 170.5 -48.5t61.5 -151.5q0 -65 -21 -113.5t-57.5 -80t-86.5 -47t-108 -15.5h-121l-26 -244h-110zM307 334q82 0 122 41t40 113q0 57 -33 89t-104 32h-105l-29 -275h109z" />
    <glyph glyph-name="Q" unicode="Q" horiz-adv-x="714" 
d="M662 404q0 -97 -21.5 -169.5t-59.5 -122.5t-89.5 -78.5t-110.5 -37.5q11 -65 51.5 -95t106.5 -30l-11 -100q-64 0 -110.5 18.5t-77 49.5t-46 71.5t-18.5 84.5q-48 6 -89.5 26.5t-72.5 57t-48.5 89.5t-17.5 124q0 109 27 187.5t73.5 129.5t108.5 75t131 24
q56 0 105.5 -17.5t87 -54.5t59.5 -94.5t22 -137.5zM546 398q0 60 -14 101t-37 66t-53.5 36t-63.5 11q-44 0 -82.5 -17t-67.5 -54.5t-46 -97t-18 -143.5q0 -60 13.5 -100.5t37 -65t54.5 -35.5t65 -11q44 0 82.5 17t67 54.5t45 96t17.5 142.5z" />
    <glyph glyph-name="R" unicode="R" horiz-adv-x="623" 
d="M516 -5q-42 0 -67.5 20.5t-41.5 51.5t-27 67.5t-25 67.5t-34 51.5t-55 20.5h-74l-29 -274h-110l74 700h229q109 0 166 -46.5t57 -143.5q0 -82 -45 -135t-115 -72q27 -15 40.5 -49.5t25.5 -70t29 -62.5t51 -27h26l-10 -93q-4 -2 -23.5 -4t-41.5 -2zM303 360q35 0 65 9
t52 26t34.5 42.5t12.5 59.5q0 52 -32 82t-94 30h-114l-26 -249h102z" />
    <glyph glyph-name="S" unicode="S" horiz-adv-x="569" 
d="M269 -8q-94 0 -157.5 28t-100.5 88l81 70q31 -47 75.5 -69.5t113.5 -22.5q63 0 100.5 26.5t37.5 80.5q0 23 -7.5 40.5t-25.5 31t-47 24.5t-73 21q-41 10 -76.5 24t-61 36t-40 53t-14.5 74q0 99 67.5 155t187.5 56q43 0 82.5 -8.5t70 -28t48.5 -50t18 -75.5q0 -24 -3 -35
t-7 -22l-102 1q4 11 5.5 18t1.5 18q0 47 -33.5 67.5t-90.5 20.5q-68 0 -101.5 -27t-33.5 -75q0 -24 8 -40t26.5 -27.5t48 -20.5t71.5 -20q98 -25 145 -69.5t47 -130.5q0 -102 -70.5 -157t-190.5 -55z" />
    <glyph glyph-name="T" unicode="T" horiz-adv-x="534" 
d="M251 599h-199l11 101h507l-11 -101h-198l-62 -599h-110z" />
    <glyph glyph-name="U" unicode="U" horiz-adv-x="648" 
d="M301 -6q-53 0 -98.5 14.5t-76.5 49t-45.5 90.5t-5.5 140l44 412h110l-44 -420q-9 -94 22 -141.5t104 -47.5q72 0 112 45.5t51 143.5l44 420h108l-43 -412q-9 -86 -34.5 -143t-63 -90.5t-84.5 -47t-100 -13.5z" />
    <glyph glyph-name="V" unicode="V" horiz-adv-x="606" 
d="M55 700h124l114 -571l237 571h119l-317 -700h-108z" />
    <glyph glyph-name="W" unicode="W" horiz-adv-x="901" 
d="M62 700h125l57 -576l207 576h103l83 -576l181 576h119l-251 -700h-124l-77 539l-196 -539h-124z" />
    <glyph glyph-name="X" unicode="X" horiz-adv-x="575" 
d="M366 361l181 -361h-124l-134 281l-192 -281h-129l265 362l-170 338h126l120 -257l175 257h127z" />
    <glyph glyph-name="Y" unicode="Y" horiz-adv-x="587" 
d="M245 287l-186 413h127l125 -310l191 310h126l-274 -412l-30 -288h-110z" />
    <glyph glyph-name="Z" unicode="Z" horiz-adv-x="565" 
d="M568 615l-422 -522h371l-10 -93h-500l9 85l426 522h-368l11 93h493z" />
    <glyph glyph-name="bracketleft" unicode="[" horiz-adv-x="329" 
d="M123 726h237l-10 -93h-132l-82 -784h131l-9 -93h-237z" />
    <glyph glyph-name="backslash" unicode="\" horiz-adv-x="412" 
d="M66 706h106l174 -933h-106z" />
    <glyph glyph-name="bracketright" unicode="]" horiz-adv-x="329" 
d="M-21 -151h132l82 784h-132l10 93h237l-102 -970h-237z" />
    <glyph glyph-name="asciicircum" unicode="^" horiz-adv-x="365" 
d="M174 727h120l68 -214h-96l-41 133l-68 -133h-97z" />
    <glyph glyph-name="underscore" unicode="_" horiz-adv-x="459" 
d="M18 0h372l-8 -80h-372z" />
    <glyph glyph-name="grave" unicode="`" horiz-adv-x="266" 
d="M80 732h128l60 -184h-93z" />
    <glyph glyph-name="a" unicode="a" horiz-adv-x="537" 
d="M197 -13q-79 0 -121.5 58t-42.5 156q0 64 16 118t46 93t72 61t93 22q88 0 125 -65l6 52h99l-36 -351q-3 -27 4.5 -38t29.5 -11l-9 -81q-7 -2 -20.5 -4t-28.5 -2q-40 0 -60.5 19.5t-19.5 53.5l-1 3q-23 -38 -59.5 -61t-92.5 -23zM238 79q39 0 68.5 25t43.5 67l15 141
q-2 17 -8 33t-17.5 29.5t-28 21.5t-39.5 8q-30 0 -54 -14.5t-40 -40.5t-24.5 -61.5t-8.5 -78.5q0 -61 22.5 -95.5t70.5 -34.5z" />
    <glyph glyph-name="b" unicode="b" horiz-adv-x="527" 
d="M268 -13q-31 0 -53 8t-37.5 20t-24.5 25t-14 23l-7 -63h-97l76 726h110l-30 -297q6 9 17.5 20.5t28.5 21.5t40 17t51 7q80 0 123.5 -56t43.5 -156q0 -64 -16.5 -118.5t-46.5 -94t-71.5 -61.5t-92.5 -22zM256 79q62 0 94.5 53t32.5 143q0 65 -24 96.5t-68 31.5
q-22 0 -40.5 -8.5t-32.5 -21.5t-24.5 -29.5t-16.5 -32.5l-15 -142q2 -7 6 -22t14 -30t28 -26.5t46 -11.5z" />
    <glyph glyph-name="c" unicode="c" horiz-adv-x="466" 
d="M231 -13q-94 0 -146 53.5t-52 155.5q0 69 17.5 124.5t49.5 94t76 59.5t98 21q81 0 125.5 -35t44.5 -101q0 -22 -5 -41.5t-10 -31.5l-94 -1q4 9 7 23.5t3 27.5q0 37 -21 52.5t-54 15.5q-60 0 -92.5 -55t-32.5 -151q0 -60 26.5 -89.5t73.5 -29.5q43 0 70 17.5t48 45.5
l61 -57q-29 -42 -76.5 -70t-116.5 -28z" />
    <glyph glyph-name="d" unicode="d" horiz-adv-x="538" 
d="M201 -13q-80 0 -124 56.5t-44 161.5q0 66 17 119.5t47 91.5t72 58.5t91 20.5q45 0 74 -18t43 -42l30 291h110l-63 -595q-3 -27 5 -38t30 -11l-9 -82q-7 -2 -21 -3.5t-28 -1.5q-41 0 -62 19.5t-19 53.5l1 5q-20 -37 -58 -61.5t-92 -24.5zM242 79q35 0 64.5 25t43.5 67
l15 141q-1 17 -7 33t-17.5 29.5t-28 21.5t-39.5 8q-63 0 -95.5 -54t-32.5 -145q0 -60 25 -93t72 -33z" />
    <glyph glyph-name="e" unicode="e" horiz-adv-x="466" 
d="M241 78q40 0 68 15t54 48l61 -55q-38 -53 -90 -76t-115 -23q-89 2 -138.5 56.5t-49.5 154.5q0 66 19 120.5t53 93.5t80.5 61t101.5 22q74 0 114 -35.5t40 -95.5q0 -56 -26 -90.5t-68 -54t-95 -27.5t-107 -11q5 -52 30.5 -77.5t67.5 -25.5zM276 405q-48 0 -84 -40
t-47 -109q33 1 67 4.5t61 13.5t44 28.5t17 48.5q0 54 -58 54z" />
    <glyph glyph-name="f" unicode="f" horiz-adv-x="334" 
d="M105 392h-68l10 90h68l6 56q10 91 62.5 142.5t132.5 51.5q35 0 63 -10.5t46 -27.5l-52 -79q-21 20 -58 20q-35 0 -58 -22.5t-28 -74.5l-6 -56h125l-10 -90h-124l-42 -392h-109z" />
    <glyph glyph-name="g" unicode="g" horiz-adv-x="525" 
d="M198 -240q-69 0 -114.5 23.5t-69.5 68.5l75 62q16 -29 42.5 -46.5t74.5 -17.5q54 0 87 32t39 92l10 90q-17 -31 -50.5 -54t-92.5 -23q-79 0 -122.5 58t-43.5 156q0 64 16.5 118t46 93t70.5 61t91 22q45 0 77 -18.5t52 -52.5l7 58h97l-53 -508q-11 -100 -71 -157t-168 -57
zM239 79q42 0 69.5 25t41.5 67l15 141q-1 17 -7 33t-17.5 29.5t-28 21.5t-39.5 8q-31 0 -55 -14.5t-40.5 -41t-24.5 -62.5t-8 -79q0 -60 23.5 -94t70.5 -34z" />
    <glyph glyph-name="h" unicode="h" horiz-adv-x="527" 
d="M429 -4q-51 0 -74.5 29t-17.5 85l20 192q5 45 -12.5 70.5t-59.5 25.5q-26 0 -45.5 -10t-33 -25t-21 -34t-9.5 -37l-31 -292h-110l76 726h110l-31 -300q18 27 51.5 48t82.5 21q44 0 73.5 -15t46 -41t22 -60.5t1.5 -73.5l-18 -175q-3 -26 5.5 -36.5t31.5 -10.5l-9 -81
q-7 -2 -20.5 -4t-27.5 -2z" />
    <glyph glyph-name="i" unicode="i" horiz-adv-x="245" 
d="M155 569q-32 0 -48.5 18.5t-16.5 45.5q0 31 20 54.5t57 23.5q32 0 48 -19.5t16 -45.5q0 -32 -20 -54.5t-56 -22.5zM140 -4q-54 0 -76 30t-17 84l39 372h111l-37 -349q-3 -28 4.5 -39t32.5 -11l-9 -81q-4 -2 -17.5 -4t-30.5 -2z" />
    <glyph glyph-name="j" unicode="j" horiz-adv-x="237" 
d="M156 569q-32 0 -48.5 18.5t-16.5 45.5q0 31 20 54.5t57 23.5q32 0 48 -19.5t16 -45.5q0 -32 -20 -54.5t-56 -22.5zM-48 -247q-24 0 -40.5 4.5t-27.5 10.5q-12 7 -20 15l41 78q5 -4 12 -7q6 -2 14 -4t19 -2q75 0 86 106l56 528h108l-56 -533q-9 -89 -55 -142.5t-137 -53.5
z" />
    <glyph glyph-name="k" unicode="k" horiz-adv-x="496" 
d="M469 83l-9 -81q-5 -1 -17.5 -4t-28.5 -3q-44 0 -68 15.5t-37.5 38t-21.5 49.5t-20 49.5t-33.5 38t-60.5 15.5h-7l-21 -201h-110l76 726h110l-45 -434h28q73 0 111.5 51t51.5 139h101q-4 -27 -12 -60.5t-23.5 -66.5t-41.5 -63t-65 -52q28 -18 39.5 -44.5t21 -51.5t24 -43
t47.5 -18h11z" />
    <glyph glyph-name="l" unicode="l" horiz-adv-x="245" 
d="M139 -4q-49 0 -74 26t-18 89l65 615h110l-62 -596q-3 -26 5.5 -35t31.5 -9l-8 -84q-9 -2 -22.5 -4t-27.5 -2z" />
    <glyph glyph-name="m" unicode="m" horiz-adv-x="825" 
d="M725 -4q-51 0 -73 28t-17 81l20 193q5 47 -12 74t-62 27q-44 0 -71 -32.5t-32 -77.5l-30 -289h-110l31 298q5 47 -13 74t-62 27q-24 0 -43 -9.5t-32.5 -25.5t-21.5 -35.5t-10 -40.5l-30 -288h-110l38 357q2 24 -6 34.5t-28 10.5l8 82q8 2 21.5 3.5t27.5 1.5
q38 0 57.5 -19t22.5 -53v-3q9 14 22 28.5t31 26t41.5 19t52.5 7.5q57 0 88 -24t46 -63q21 33 58 60t93 27q44 0 74 -14.5t47 -40t23 -60.5t2 -75l-19 -177q-6 -46 34 -46l-9 -81q-6 -2 -19.5 -3.5t-27.5 -1.5z" />
    <glyph glyph-name="n" unicode="n" horiz-adv-x="538" 
d="M437 -4q-51 0 -72 28t-16 81l20 193q5 51 -15 76t-59 25q-44 0 -74 -32t-35 -86l-29 -281h-110l38 357q2 24 -6 34.5t-28 10.5l8 82q8 2 21.5 3.5t28.5 1.5q40 0 58 -20.5t20 -55.5v-2q21 38 58 61t90 23q78 0 116.5 -49.5t28.5 -140.5l-19 -177q-6 -46 34 -46l-9 -81
q-7 -2 -20.5 -3.5t-28.5 -1.5z" />
    <glyph glyph-name="o" unicode="o" horiz-adv-x="512" 
d="M236 -13q-99 0 -151 59t-52 159q0 66 17.5 119.5t49.5 91.5t77.5 58.5t101.5 20.5q97 0 149 -59t52 -159q0 -65 -17.5 -118.5t-49.5 -91.5t-77 -59t-100 -21zM244 79q57 0 90.5 50.5t33.5 141.5q0 64 -25.5 98.5t-73.5 34.5q-56 0 -90 -50.5t-34 -143.5q0 -63 24.5 -97
t74.5 -34z" />
    <glyph glyph-name="p" unicode="p" horiz-adv-x="539" 
d="M85 357q2 25 -6 35.5t-28 10.5l8 81q8 2 21 4t29 2q80 0 78 -84v-2q24 40 60.5 65.5t93.5 25.5q77 0 121.5 -55t44.5 -155q0 -66 -15 -121t-44 -94.5t-71 -61t-96 -21.5q-46 0 -75.5 17.5t-43.5 40.5l-29 -274h-110zM273 79q63 0 92.5 54t29.5 145q0 63 -25 94t-69 31
q-42 0 -69.5 -26t-42.5 -66l-15 -142q5 -38 29 -64t70 -26z" />
    <glyph glyph-name="q" unicode="q" horiz-adv-x="526" 
d="M336 51q-6 -8 -17 -19t-28 -21t-40 -17t-54 -7q-36 0 -66.5 14.5t-52 41.5t-33.5 65.5t-12 86.5q0 75 18.5 131t49 93.5t71 56.5t85.5 19q34 0 57.5 -9.5t38.5 -22.5t23.5 -26t11.5 -20l8 65h96l-76 -715h-110zM238 79q44 0 70.5 26t41.5 66l15 141q-1 16 -7 32t-17 29.5
t-28 22t-41 8.5q-61 0 -94 -54t-33 -142q0 -64 25.5 -96.5t67.5 -32.5z" />
    <glyph glyph-name="r" unicode="r" horiz-adv-x="364" 
d="M85 357q2 24 -6 34.5t-28 10.5l8 82q8 2 21 3.5t28 1.5q42 0 62 -21.5t16 -54.5v-6q18 41 55 64t86 23q19 0 36.5 -4.5t26.5 -12.5l-51 -102q-16 12 -49 12q-45 0 -72.5 -35.5t-33.5 -89.5l-27 -262h-110z" />
    <glyph glyph-name="s" unicode="s" horiz-adv-x="461" 
d="M202 -13q-60 0 -113 20t-85 68l71 70q29 -42 65 -55.5t76 -13.5q95 0 95 54q0 29 -29 42t-77 24q-27 6 -54 16.5t-48.5 27t-35 40.5t-13.5 59q0 74 52.5 115t150.5 41q80 0 127 -32.5t47 -94.5q0 -17 -4 -33t-9 -27h-99q4 8 6.5 19.5t2.5 21.5q0 32 -22 45t-59 13
q-45 0 -65.5 -15.5t-20.5 -41.5q0 -17 6.5 -28t20.5 -18.5t35.5 -13t50.5 -12.5q26 -6 51.5 -15t46 -24t33.5 -38t13 -56q0 -79 -58.5 -118.5t-157.5 -39.5z" />
    <glyph glyph-name="t" unicode="t" horiz-adv-x="401" 
d="M244 -6q-89 0 -125.5 47t-26.5 142l22 208h-84l10 91h88l13 140h106l-14 -140h166l-10 -91h-166l-21 -200q-10 -97 69 -97q20 0 37.5 7t30.5 17l40 -79q-23 -20 -60 -32.5t-75 -12.5z" />
    <glyph glyph-name="u" unicode="u" horiz-adv-x="528" 
d="M188 -13q-75 0 -111.5 45t-27.5 130l34 320h109l-31 -300q-6 -55 14 -77t60 -22q25 0 44 10t32.5 26.5t21 36.5t9.5 39l30 287h110l-37 -354q-2 -23 4.5 -34.5t29.5 -11.5l-9 -82q-4 -1 -17 -3t-33 -2q-41 0 -61 20.5t-17 57.5l1 4q-22 -37 -57.5 -63.5t-97.5 -26.5z" />
    <glyph glyph-name="v" unicode="v" horiz-adv-x="478" 
d="M495 482l-225 -483h-112l-123 483h117l66 -303l10 -75l24 75l130 303h113z" />
    <glyph glyph-name="w" unicode="w" horiz-adv-x="725" 
d="M740 482l-197 -482h-118l-41 295l-5 66l-20 -64l-110 -297h-118l-93 482h115l39 -285l11 -96l31 96l103 285h113l38 -284l10 -97l31 97l102 284h109z" />
    <glyph glyph-name="x" unicode="x" horiz-adv-x="454" 
d="M290 247l134 -247h-120l-86 173l-121 -173h-117l184 247l-125 235h123l75 -162l112 162h116z" />
    <glyph glyph-name="y" unicode="y" horiz-adv-x="515" 
d="M186 -247q-75 0 -121 25.5t-63 70.5l77 57q17 -32 44 -47.5t72 -15.5q58 0 89.5 33t37.5 91l12 109q-24 -39 -64.5 -60.5t-91.5 -21.5q-146 0 -128 173l33 315h109l-31 -294q-10 -99 68 -99q19 0 37.5 9t34.5 25t26.5 37t13.5 45l29 277h110l-53 -513q-11 -100 -73 -158
t-168 -58z" />
    <glyph glyph-name="z" unicode="z" horiz-adv-x="477" 
d="M437 395l-221 -153q35 -6 72 -21.5t68 -44t50.5 -71.5t19.5 -104q0 -59 -18.5 -104.5t-50 -76.5t-74 -47.5t-90.5 -16.5q-89 0 -139.5 44t-50.5 122q0 47 15 85.5t38.5 68.5t52.5 51.5t56 36.5q-18 2 -37.5 3.5t-39.5 1.5l9 85l201 138h-239l10 90h378zM329 -11
q0 57 -22 93t-59 56q-25 -13 -50.5 -31t-46 -42t-33 -54t-12.5 -67q0 -46 26.5 -71.5t71.5 -25.5q26 0 48.5 9.5t39.5 27.5t27 44.5t10 60.5z" />
    <glyph glyph-name="braceleft" unicode="{" horiz-adv-x="319" 
d="M245 -234q-39 -8 -74 -1.5t-60.5 28t-38.5 59.5t-7 94l19 182q4 36 -13.5 51.5t-40.5 15.5h-10l9 92h10q24 0 44.5 15.5t24.5 51.5l19 182q6 56 27 94t51 59.5t66.5 28t73.5 -1.5l-10 -97q-44 15 -73.5 -14.5t-35.5 -87.5l-20 -189q-3 -24 -10 -40t-15.5 -26t-17 -14.5
t-13.5 -6.5q4 -1 11 -6.5t14 -16t11 -26.5t2 -38l-20 -189q-6 -58 17 -87.5t71 -14.5z" />
    <glyph glyph-name="bar" unicode="|" horiz-adv-x="238" 
d="M124 736h94l-104 -990h-94z" />
    <glyph glyph-name="braceright" unicode="}" horiz-adv-x="329" 
d="M84 716q39 8 74 1.5t60.5 -28t38.5 -59.5t7 -94l-19 -182q-4 -36 13.5 -51.5t40.5 -15.5h10l-9 -92h-10q-23 0 -43.5 -15.5t-24.5 -51.5l-20 -182q-6 -56 -27 -94t-51 -59.5t-66.5 -28t-73.5 1.5l10 97q45 -15 74.5 14.5t35.5 87.5l19 189q3 24 10 40t15.5 26t17 14.5
t13.5 6.5q-4 1 -11 6.5t-14 16t-11 26.5t-2 38l21 189q6 58 -17.5 87.5t-70.5 14.5z" />
    <glyph glyph-name="asciitilde" unicode="~" horiz-adv-x="448" 
d="M60 178q-2 5 -4 12q-2 6 -3 13.5t-1 18.5q0 41 25 70.5t75 29.5q23 0 42.5 -6t37.5 -13t34 -13t32 -6q24 0 24 28q0 7 -1 13.5t-3 11.5q-2 6 -4 11h81q2 -6 3 -13q1 -6 2 -14t1 -17q0 -40 -24 -70t-72 -30q-27 0 -48 6t-38 13t-31 13t-27 6q-14 0 -22 -8.5t-8 -24.5
q0 -7 1 -13t3 -10l4 -8h-79z" />
    <glyph glyph-name="exclamdown" unicode="&#xa1;" horiz-adv-x="246" 
d="M151 490q29 0 46.5 -17t17.5 -46q0 -30 -19 -52t-53 -22q-29 0 -46.5 18t-17.5 47t18.5 50.5t53.5 21.5zM138 -216h-123l65 482h94z" />
    <glyph glyph-name="cent" unicode="&#xa2;" horiz-adv-x="473" 
d="M202 106q-68 11 -110.5 65.5t-42.5 149.5q0 125 56 196.5t150 85.5l10 97h75l-11 -96q30 -3 53 -14.5t39.5 -26t27 -29.5t14.5 -27l-92 -56q0 3 -3 11t-9.5 17t-17.5 17t-27 11l-32 -310q26 3 44.5 14t31 23t19.5 22.5l9 13.5l58 -58q-4 -5 -16 -21t-32.5 -34t-50 -33.5
t-68.5 -19.5l-11 -104h-75zM249 505q-42 -11 -66.5 -54.5t-24.5 -119.5q0 -54 18 -83t42 -40z" />
    <glyph glyph-name="sterling" unicode="&#xa3;" horiz-adv-x="566" 
d="M431 468q5 14 6 25.5t1 20.5q0 47 -32 66t-77 19q-58 0 -95 -28t-37 -85q0 -38 10.5 -72t21.5 -71h215l-9 -85h-191q1 -5 1 -9.5v-9.5q0 -42 -17 -80t-46 -63h336l-10 -96h-485l7 69q43 23 72 66t29 93q0 8 -0.5 15t-1.5 15h-83l10 85h54q-10 32 -18.5 64.5t-8.5 72.5
q0 51 18 92t51 69.5t80.5 43.5t106.5 15q41 0 79.5 -9t68 -28t47.5 -49t18 -73q0 -26 -3.5 -41.5t-8.5 -31.5h-109z" />
    <glyph glyph-name="currency" unicode="&#xa4;" horiz-adv-x="552" 
d="M35 176l86 81q-8 16 -11.5 35.5t-3.5 39.5q0 60 34 111l-66 79l61 56l66 -78q23 17 50.5 27t57.5 10q29 0 53.5 -10t43.5 -27l84 78l50 -56l-84 -79q8 -17 12.5 -37t4.5 -41q0 -58 -37 -110l65 -74l-62 -56l-64 74q-23 -17 -49.5 -27t-55.5 -10t-55 10t-46 27l-83 -79z
M280 247q23 0 42.5 9t34 24t23 35.5t8.5 43.5q0 42 -25 68t-63 26q-22 0 -42 -9t-35 -24.5t-24 -36t-9 -43.5q0 -40 25 -66.5t65 -26.5z" />
    <glyph glyph-name="yen" unicode="&#xa5;" horiz-adv-x="632" 
d="M253 171h-163l8 77h163l4 39l-15 35h-144l8 78h101l-146 300h131l134 -306l195 306h132l-211 -299h100l-8 -78h-141l-24 -36l-4 -39h161l-8 -77h-161l-18 -171h-112z" />
    <glyph glyph-name="brokenbar" unicode="&#xa6;" horiz-adv-x="238" 
d="M124 736h94l-43 -412h-94zM64 166h94l-44 -420h-94z" />
    <glyph glyph-name="section" unicode="&#xa7;" horiz-adv-x="590" 
d="M232 -248q-176 0 -241 116l77 68q32 -46 74.5 -66.5t104.5 -20.5q86 0 120 29t34 79q0 36 -26 55t-65 31t-84 22t-84 28.5t-65 51.5t-26 90q0 84 72 144q-21 21 -33 51t-12 63q0 46 19.5 85t54.5 67.5t83.5 44.5t107.5 16q66 0 109.5 -17t70 -39.5t38.5 -43.5t15 -29
l-84 -56q-2 4 -10.5 18t-26 29.5t-45 28t-68.5 12.5q-79 0 -114 -29.5t-35 -76.5q0 -36 26 -55t65.5 -30.5t85 -22t85 -30t65.5 -54t26 -95.5q0 -89 -61 -141q31 -40 31 -99q0 -47 -17 -88t-52.5 -71t-89 -47.5t-125.5 -17.5zM403 128q28 28 28 72q0 35 -20.5 54t-53.5 30.5
t-75 20t-85 23.5q-31 -28 -31 -70q0 -32 20.5 -50.5t54 -31.5t76 -23t86.5 -25z" />
    <glyph glyph-name="dieresis" unicode="&#xa8;" horiz-adv-x="370" 
d="M125 563q-32 0 -47.5 18t-15.5 45q0 30 19.5 52t55.5 22q30 0 45.5 -18.5t15.5 -43.5q0 -31 -19 -53t-54 -22zM318 563q-32 0 -47.5 18t-15.5 45q0 30 19.5 52t55.5 22q31 0 46 -18.5t15 -43.5q0 -31 -19 -53t-54 -22z" />
    <glyph glyph-name="copyright" unicode="&#xa9;" horiz-adv-x="828" 
d="M395 -28q-78 0 -142.5 26.5t-110 73.5t-70.5 112t-25 141q0 99 33 178t89 135t130.5 86t157.5 30q79 0 143.5 -26.5t110.5 -74t71 -112t25 -140.5q0 -99 -33 -178.5t-89.5 -135t-131 -85.5t-158.5 -30zM403 55q65 0 123 23t102 66.5t69.5 106.5t25.5 143q0 61 -19.5 112
t-55.5 88.5t-87 58.5t-113 21q-64 0 -121.5 -23t-101 -67t-69.5 -107.5t-26 -144.5q0 -60 19.5 -111t55.5 -87.5t86.5 -57.5t111.5 -21zM411 124q-87 0 -134.5 54.5t-47.5 148.5q0 63 16 114t45.5 87t71 56t93.5 20q78 0 115 -37t37 -96q0 -8 -1.5 -19.5t-3.5 -20.5h-85
q2 7 2 13.5v11.5q0 32 -16.5 48t-54.5 16q-31 0 -54.5 -14.5t-39 -38.5t-23 -56t-7.5 -68q0 -66 25 -101t76 -35q38 0 58.5 12t40.5 31l50 -54q-22 -28 -59.5 -50t-103.5 -22z" />
    <glyph glyph-name="ordfeminine" unicode="&#xaa;" horiz-adv-x="351" 
d="M146 404q-38 0 -61 20t-23 55q0 44 28.5 67t89.5 23h63l3 29q2 25 -6.5 34.5t-28.5 9.5q-40 0 -40 -36q0 -6 2 -8h-78q-1 2 -2 7t-1 14q0 42 32.5 68t93.5 26q120 0 109 -109l-12 -109q-3 -19 20 -19l-7 -63q-3 -2 -13.5 -5t-27.5 -3q-21 0 -34.5 10t-14.5 32v3
q-13 -19 -35 -32.5t-57 -13.5zM173 463q29 0 44.5 16t18.5 30l2 14h-56q-20 0 -31 -8t-11 -25q0 -27 33 -27z" />
    <glyph glyph-name="guillemotleft" unicode="&#xab;" horiz-adv-x="491" 
d="M32 211l10 91l167 141l50 -62l-137 -127l110 -121l-62 -64zM242 211l10 91l167 141l50 -62l-137 -127l110 -121l-62 -64z" />
    <glyph glyph-name="registered" unicode="&#xae;" horiz-adv-x="828" 
d="M395 -28q-78 0 -142.5 26.5t-110 73.5t-70.5 112t-25 141q0 99 33 178t89 135t130.5 86t157.5 30q79 0 143.5 -26.5t110.5 -74t71 -112t25 -140.5q0 -99 -33 -178.5t-89 -135t-131 -85.5t-159 -30zM403 55q65 0 123 23t102 66.5t69.5 106.5t25.5 143q0 61 -19.5 112
t-55.5 88.5t-87 58.5t-113 21q-64 0 -121.5 -23t-101 -67t-69.5 -107.5t-26 -144.5q0 -60 19.5 -111t55.5 -87.5t86.5 -57.5t111.5 -21zM556 137q-31 0 -49.5 13t-29.5 32.5t-17.5 42.5t-14.5 42.5t-20 32.5t-34 13h-46l-19 -172h-87l48 455h158q69 0 105.5 -29t36.5 -91
q0 -37 -12.5 -61.5t-28 -39.5t-30.5 -22t-20 -8q18 -13 26 -35.5t15 -43.5t17 -36.5t31 -15.5h17l-8 -75q-3 0 -13 -1t-25 -1zM406 387q43 0 66.5 19t23.5 55q0 58 -71 58h-59l-14 -132h54z" />
    <glyph glyph-name="macron" unicode="&#xaf;" horiz-adv-x="356" 
d="M93 679h264l-9 -85h-264z" />
    <glyph glyph-name="degree" unicode="&#xb0;" horiz-adv-x="309" 
d="M181 459q-53 0 -83.5 31.5t-30.5 85.5q0 30 9.5 55.5t27.5 44t43 29.5t56 11q51 0 82 -32t31 -86q0 -30 -10 -55t-27.5 -44t-42.5 -29.5t-55 -10.5zM186 518q34 0 52.5 21.5t18.5 53.5q0 31 -16.5 47.5t-43.5 16.5q-35 0 -53 -22t-18 -54q0 -31 16 -47t44 -16z" />
    <glyph glyph-name="plusminus" unicode="&#xb1;" horiz-adv-x="470" 
d="M201 327h-141l9 82h141l16 149h83l-16 -149h145l-9 -82h-145l-17 -159h-83zM33 111h375l-8 -82h-375z" />
    <glyph glyph-name="acute" unicode="&#xb4;" horiz-adv-x="266" 
d="M160 732h131l-135 -184h-95z" />
    <glyph glyph-name="paragraph" unicode="&#xb6;" horiz-adv-x="602" 
d="M304 252h-67q-94 0 -141 54t-47 139q0 55 15 101.5t45 80.5t74 53.5t101 19.5h287l-74 -700h-67l68 647h-86l-68 -647h-67z" />
    <glyph glyph-name="periodcentered" unicode="&#xb7;" horiz-adv-x="220" 
d="M119 287q-29 0 -46.5 17t-17.5 46q0 30 18.5 52t53.5 22q29 0 46 -17.5t17 -46.5q0 -30 -18 -51.5t-53 -21.5z" />
    <glyph glyph-name="cedilla" unicode="&#xb8;" horiz-adv-x="259" 
d="M85 -210q-66 0 -101 35l43 53q23 -21 52 -21q35 0 35 28q0 16 -18 24.5t-47 10.5l37 84h67l-15 -39q26 -8 46.5 -27t20.5 -55q0 -48 -34.5 -70.5t-85.5 -22.5z" />
    <glyph glyph-name="ordmasculine" unicode="&#xba;" horiz-adv-x="345" 
d="M191 404q-62 0 -93.5 36.5t-31.5 97.5q0 77 42 124.5t115 47.5q60 0 91.5 -36.5t31.5 -96.5q0 -38 -10.5 -69.5t-31 -54.5t-49 -36t-64.5 -13zM198 477q29 0 45 25.5t16 70.5q0 30 -11 48t-32 18q-30 0 -48 -26.5t-18 -72.5q0 -29 12.5 -46t35.5 -17z" />
    <glyph glyph-name="guillemotright" unicode="&#xbb;" horiz-adv-x="490" 
d="M25 132l137 126l-111 122l63 63l139 -141l-10 -91l-167 -142zM235 132l138 126l-111 122l62 63l139 -141l-10 -91l-167 -142z" />
    <glyph glyph-name="onequarter" unicode="&#xbc;" horiz-adv-x="756" 
d="M443 726h82l-288 -726h-82zM156 582q-10 -10 -33.5 -21.5t-58.5 -11.5l3 75q42 0 68 22.5t34 54.5h79l-40 -382h-79zM561 81h-180l6 57l143 244h85l-136 -232h95l8 83h76l-9 -83h49l-8 -69h-49l-7 -81h-80z" />
    <glyph glyph-name="onehalf" unicode="&#xbd;" horiz-adv-x="772" 
d="M443 726h82l-288 -726h-82zM156 582q-10 -10 -33.5 -21.5t-58.5 -11.5l3 75q42 0 68 22.5t34 54.5h79l-40 -382h-79zM413 33q4 34 21 58t41 42.5t51 33.5t49.5 29.5t37.5 32t15 40.5q0 21 -13.5 33t-38.5 12q-19 0 -32 -5.5t-20.5 -13.5t-10.5 -16.5t-4 -15.5h-74
q2 21 11.5 43t27.5 40t46 29t67 11q60 0 90.5 -28t30.5 -78q0 -35 -14.5 -61t-36.5 -45t-47.5 -33.5t-48 -26.5t-37 -23t-15.5 -23v-2h186l-7 -66h-278z" />
    <glyph glyph-name="threequarters" unicode="&#xbe;" horiz-adv-x="798" 
d="M485 726h82l-288 -726h-82zM126 315q-50 0 -82.5 16.5t-48.5 60.5l64 39q14 -29 31 -40t45 -11q32 0 48.5 15t16.5 41q0 44 -54 44h-36l6 61h26q29 0 45 13.5t16 39.5q0 21 -12.5 31.5t-33.5 10.5t-39 -10t-21 -36h-73q3 31 16.5 53t33.5 36.5t44 21t47 6.5
q56 0 87 -25.5t31 -70.5q0 -35 -15.5 -57.5t-42.5 -33.5q53 -18 53 -80q0 -54 -39.5 -89.5t-112.5 -35.5zM602 81h-180l6 57l143 244h85l-136 -232h95l8 83h76l-9 -83h49l-8 -69h-49l-7 -81h-80z" />
    <glyph glyph-name="questiondown" unicode="&#xbf;" horiz-adv-x="466" 
d="M270 488q29 0 47 -17t18 -46t-19 -51t-54 -22q-28 0 -45.5 17.5t-17.5 46.5q0 30 18 51t53 21zM307 285q-5 -50 -20.5 -85t-35.5 -60.5t-41.5 -45t-40 -39t-30.5 -42.5t-12 -55q0 -37 21 -59t62 -22q42 0 68 24t32 76h107q-10 -97 -66 -150t-153 -53q-51 0 -86.5 14
t-58 37t-33 53.5t-10.5 62.5q0 47 13 80t33.5 58t44.5 45.5t45.5 43t37.5 50t20 67.5h103z" />
    <glyph glyph-name="Agrave" unicode="&#xc0;" horiz-adv-x="619" 
d="M319 742l-101 144h136l65 -144h-100zM434 183h-260l-81 -183h-113l323 700h112l173 -700h-113zM414 272l-67 302l-134 -302h201z" />
    <glyph glyph-name="Aacute" unicode="&#xc1;" horiz-adv-x="619" 
d="M403 742h-103l95 144h138zM434 183h-260l-81 -183h-113l323 700h112l173 -700h-113zM414 272l-67 302l-134 -302h201z" />
    <glyph glyph-name="Acircumflex" unicode="&#xc2;" horiz-adv-x="619" 
d="M314 742h-96l101 144h120l70 -144h-97l-42 73zM434 183h-260l-81 -183h-113l323 700h112l173 -700h-113zM414 272l-67 302l-134 -302h201z" />
    <glyph glyph-name="Atilde" unicode="&#xc3;" horiz-adv-x="619" 
d="M213 745q-7 15 -7 42q0 39 25.5 65t68.5 26q21 0 38.5 -6t32.5 -13.5t28 -13.5t25 -6q26 0 26 28q0 11 -4 16h77q3 -8 4.5 -19.5t1.5 -22.5q0 -39 -25 -65.5t-73 -26.5q-22 0 -40 6t-32.5 13.5t-26.5 13.5t-23 6q-10 0 -17 -6.5t-7 -19.5q0 -9 4 -17h-76zM434 183h-260
l-81 -183h-113l323 700h112l173 -700h-113zM414 272l-67 302l-134 -302h201z" />
    <glyph glyph-name="Adieresis" unicode="&#xc4;" horiz-adv-x="619" 
d="M254 745q-30 0 -47 18.5t-17 45.5q0 35 21 56.5t53 21.5q30 0 47 -18.5t17 -46.5q0 -35 -21 -56t-53 -21zM475 745q-30 0 -47.5 17.5t-17.5 47.5q0 34 21.5 55.5t53.5 21.5q30 0 46.5 -18.5t16.5 -45.5q0 -36 -20 -57t-53 -21zM434 183h-260l-81 -183h-113l323 700h112
l173 -700h-113zM414 272l-67 302l-134 -302h201z" />
    <glyph glyph-name="Aring" unicode="&#xc5;" horiz-adv-x="619" 
d="M362 706q-51 0 -78 30t-27 75q0 27 9 50t25 40t39.5 27t51.5 10q48 0 76 -30.5t28 -75.5q0 -54 -33.5 -90t-90.5 -36zM375 868q-22 0 -34.5 -14.5t-12.5 -37.5q0 -20 10.5 -31t29.5 -11q23 0 35 15t12 37q0 20 -10.5 31t-29.5 11zM434 183h-260l-81 -183h-113l323 700
h112l173 -700h-113zM414 272l-67 302l-134 -302h201z" />
    <glyph glyph-name="AE" unicode="&#xc6;" horiz-adv-x="806" 
d="M302 700h514l-11 -93h-369l53 -215h231l-11 -93h-196l49 -206h190l-10 -93h-273l-43 185h-252l-80 -185h-115zM404 275l-64 287l-124 -287h188z" />
    <glyph glyph-name="Ccedilla" unicode="&#xc7;" horiz-adv-x="596" 
d="M476 450q6 17 8 32t2 28q0 54 -34.5 78t-88.5 24q-46 0 -82.5 -23t-62 -64t-39 -98t-13.5 -126q0 -106 44 -160t116 -54q56 0 93.5 21t72.5 71l67 -56q-42 -61 -93 -93t-121 -37l-12 -28q26 -8 46.5 -27t20.5 -55q0 -48 -34.5 -70.5t-84.5 -22.5q-67 0 -102 35l43 53
q23 -21 52 -21q35 0 35 28q0 16 -18 24.5t-47 10.5l33 74q-106 11 -167 87.5t-61 209.5q0 91 21.5 167.5t63 132t103.5 86.5t143 31q47 0 86 -11.5t67 -34t44 -55.5t16 -76q0 -21 -4 -41t-11 -40h-102z" />
    <glyph glyph-name="Egrave" unicode="&#xc8;" horiz-adv-x="550" 
d="M213 886h136l65 -144h-100zM127 700h431l-11 -98h-320l-21 -198h273l-10 -98h-274l-21 -208h321l-11 -98h-431z" />
    <glyph glyph-name="Eacute" unicode="&#xc9;" horiz-adv-x="550" 
d="M390 886h138l-130 -144h-103zM127 700h431l-11 -98h-320l-21 -198h273l-10 -98h-274l-21 -208h321l-11 -98h-431z" />
    <glyph glyph-name="Ecircumflex" unicode="&#xca;" horiz-adv-x="550" 
d="M314 886h120l70 -144h-97l-42 73l-56 -73h-96zM127 700h431l-11 -98h-320l-21 -198h273l-10 -98h-274l-21 -208h321l-11 -98h-431z" />
    <glyph glyph-name="Edieresis" unicode="&#xcb;" horiz-adv-x="550" 
d="M248 745q-30 0 -47 18.5t-17 45.5q0 35 21 56.5t53 21.5q30 0 47 -18.5t17 -46.5q0 -35 -21 -56t-53 -21zM469 745q-30 0 -47.5 17.5t-17.5 47.5q0 34 21.5 55.5t53.5 21.5q30 0 46.5 -18.5t16.5 -45.5q0 -36 -20 -57t-53 -21zM127 700h431l-11 -98h-320l-21 -198h273
l-10 -98h-274l-21 -208h321l-11 -98h-431z" />
    <glyph glyph-name="Igrave" unicode="&#xcc;" horiz-adv-x="266" 
d="M40 886h136l65 -144h-100zM127 700h110l-74 -700h-110z" />
    <glyph glyph-name="Iacute" unicode="&#xcd;" horiz-adv-x="266" 
d="M218 886h138l-130 -144h-103zM127 700h110l-74 -700h-110z" />
    <glyph glyph-name="Icircumflex" unicode="&#xce;" horiz-adv-x="266" 
d="M141 886h120l70 -144h-97l-42 73l-56 -73h-96zM127 700h110l-74 -700h-110z" />
    <glyph glyph-name="Idieresis" unicode="&#xcf;" horiz-adv-x="266" 
d="M76 745q-30 0 -47 18.5t-17 45.5q0 35 21 56.5t53 21.5q30 0 47 -18.5t17 -46.5q0 -35 -21 -56t-53 -21zM297 745q-30 0 -47.5 17.5t-17.5 47.5q0 34 21.5 55.5t53.5 21.5q30 0 46.5 -18.5t16.5 -45.5q0 -36 -20 -57t-53 -21zM127 700h110l-74 -700h-110z" />
    <glyph glyph-name="Eth" unicode="&#xd0;" horiz-adv-x="698" 
d="M351 700q66 0 121 -17t94.5 -53t62 -92.5t22.5 -136.5q0 -108 -31 -184t-82 -124t-117 -70.5t-135 -22.5h-221l33 309h-81l9 87h81l32 304h212zM286 95q57 0 103 18t78.5 54.5t50.5 91.5t18 130q0 109 -51 162.5t-150 53.5h-97l-21 -209h99l-9 -87h-99l-22 -214h100z" />
    <glyph glyph-name="Ntilde" unicode="&#xd1;" horiz-adv-x="656" 
d="M238 745q-7 15 -7 42q0 39 25.5 65t68.5 26q21 0 38.5 -6t32.5 -13.5t28 -13.5t25 -6q26 0 26 28q0 11 -4 16h77q3 -8 4.5 -19.5t1.5 -22.5q0 -39 -25 -65.5t-73 -26.5q-22 0 -40 6t-32.5 13.5t-26.5 13.5t-23 6q-10 0 -17 -6.5t-7 -19.5q0 -9 4 -17h-76zM127 700h96
l233 -484l12 -34l54 518h105l-74 -700h-97l-236 485l-9 29l-54 -514h-104z" />
    <glyph glyph-name="Ograve" unicode="&#xd2;" horiz-adv-x="687" 
d="M251 886h136l65 -144h-100zM323 -8q-56 0 -106 17t-87.5 53t-59.5 93t-22 137q0 109 27 187.5t73.5 129.5t108.5 75t131 24q56 0 105.5 -17.5t87 -54.5t59.5 -94.5t22 -137.5q0 -108 -27 -186t-73 -128.5t-108 -74t-131 -23.5zM334 88q44 0 82.5 17t67 54.5t45 96
t17.5 142.5q0 60 -14 101t-37 66t-53.5 36t-63.5 11q-44 0 -82.5 -17t-67.5 -54.5t-46 -97t-18 -143.5q0 -60 13.5 -100.5t37 -65t54.5 -35.5t65 -11z" />
    <glyph glyph-name="Oacute" unicode="&#xd3;" horiz-adv-x="687" 
d="M428 886h138l-130 -144h-103zM323 -8q-56 0 -106 17t-87.5 53t-59.5 93t-22 137q0 109 27 187.5t73.5 129.5t108.5 75t131 24q56 0 105.5 -17.5t87 -54.5t59.5 -94.5t22 -137.5q0 -108 -27 -186t-73 -128.5t-108 -74t-131 -23.5zM334 88q44 0 82.5 17t67 54.5t45 96
t17.5 142.5q0 60 -14 101t-37 66t-53.5 36t-63.5 11q-44 0 -82.5 -17t-67.5 -54.5t-46 -97t-18 -143.5q0 -60 13.5 -100.5t37 -65t54.5 -35.5t65 -11z" />
    <glyph glyph-name="Ocircumflex" unicode="&#xd4;" horiz-adv-x="687" 
d="M352 886h120l70 -144h-97l-42 73l-56 -73h-96zM323 -8q-56 0 -106 17t-87.5 53t-59.5 93t-22 137q0 109 27 187.5t73.5 129.5t108.5 75t131 24q56 0 105.5 -17.5t87 -54.5t59.5 -94.5t22 -137.5q0 -108 -27 -186t-73 -128.5t-108 -74t-131 -23.5zM334 88q44 0 82.5 17
t67 54.5t45 96t17.5 142.5q0 60 -14 101t-37 66t-53.5 36t-63.5 11q-44 0 -82.5 -17t-67.5 -54.5t-46 -97t-18 -143.5q0 -60 13.5 -100.5t37 -65t54.5 -35.5t65 -11z" />
    <glyph glyph-name="Otilde" unicode="&#xd5;" horiz-adv-x="687" 
d="M245 745q-7 15 -7 42q0 39 25.5 65t68.5 26q21 0 38.5 -6t32.5 -13.5t28 -13.5t25 -6q26 0 26 28q0 11 -4 16h77q3 -8 4.5 -19.5t1.5 -22.5q0 -39 -25 -65.5t-73 -26.5q-22 0 -40 6t-32.5 13.5t-26.5 13.5t-23 6q-10 0 -17 -6.5t-7 -19.5q0 -9 4 -17h-76zM323 -8
q-56 0 -106 17t-87.5 53t-59.5 93t-22 137q0 109 27 187.5t73.5 129.5t108.5 75t131 24q56 0 105.5 -17.5t87 -54.5t59.5 -94.5t22 -137.5q0 -108 -27 -186t-73 -128.5t-108 -74t-131 -23.5zM334 88q44 0 82.5 17t67 54.5t45 96t17.5 142.5q0 60 -14 101t-37 66t-53.5 36
t-63.5 11q-44 0 -82.5 -17t-67.5 -54.5t-46 -97t-18 -143.5q0 -60 13.5 -100.5t37 -65t54.5 -35.5t65 -11z" />
    <glyph glyph-name="Odieresis" unicode="&#xd6;" horiz-adv-x="687" 
d="M286 745q-30 0 -47 18.5t-17 45.5q0 35 21 56.5t53 21.5q30 0 47 -18.5t17 -46.5q0 -35 -21 -56t-53 -21zM507 745q-30 0 -47.5 17.5t-17.5 47.5q0 34 21.5 55.5t53.5 21.5q30 0 46.5 -18.5t16.5 -45.5q0 -36 -20 -57t-53 -21zM323 -8q-56 0 -106 17t-87.5 53t-59.5 93
t-22 137q0 109 27 187.5t73.5 129.5t108.5 75t131 24q56 0 105.5 -17.5t87 -54.5t59.5 -94.5t22 -137.5q0 -108 -27 -186t-73 -128.5t-108 -74t-131 -23.5zM334 88q44 0 82.5 17t67 54.5t45 96t17.5 142.5q0 60 -14 101t-37 66t-53.5 36t-63.5 11q-44 0 -82.5 -17
t-67.5 -54.5t-46 -97t-18 -143.5q0 -60 13.5 -100.5t37 -65t54.5 -35.5t65 -11z" />
    <glyph glyph-name="multiply" unicode="&#xd7;" horiz-adv-x="455" 
d="M28 133l141 131l-111 131l66 58l110 -131l139 131l55 -60l-139 -132l113 -130l-65 -59l-113 133l-140 -133z" />
    <glyph glyph-name="Oslash" unicode="&#xd8;" horiz-adv-x="687" 
d="M599 616q29 -37 46 -89.5t17 -122.5q0 -108 -27 -186t-73 -128.5t-108 -74t-131 -23.5q-43 0 -82 9.5t-72 29.5l-35 -47h-100l75 101q-29 36 -45 87t-16 120q0 109 27 187.5t73.5 129.5t108.5 75t131 24q85 0 151 -39l35 47h99zM164 300q0 -71 19 -115l292 397
q-21 16 -46 23t-51 7q-44 0 -82.5 -17t-67.5 -54.5t-46 -97t-18 -143.5zM546 398q0 72 -20 118l-293 -398q21 -16 47 -23t54 -7q44 0 82.5 17t67 54.5t45 96t17.5 142.5z" />
    <glyph glyph-name="Ugrave" unicode="&#xd9;" horiz-adv-x="648" 
d="M232 886h136l65 -144h-100zM301 -6q-53 0 -98.5 14.5t-76.5 49t-45.5 90.5t-5.5 140l44 412h110l-44 -420q-9 -94 22 -141.5t104 -47.5q72 0 112 45.5t51 143.5l44 420h108l-43 -412q-9 -86 -34.5 -143t-63 -90.5t-84.5 -47t-100 -13.5z" />
    <glyph glyph-name="Uacute" unicode="&#xda;" horiz-adv-x="648" 
d="M409 886h138l-130 -144h-103zM301 -6q-53 0 -98.5 14.5t-76.5 49t-45.5 90.5t-5.5 140l44 412h110l-44 -420q-9 -94 22 -141.5t104 -47.5q72 0 112 45.5t51 143.5l44 420h108l-43 -412q-9 -86 -34.5 -143t-63 -90.5t-84.5 -47t-100 -13.5z" />
    <glyph glyph-name="Ucircumflex" unicode="&#xdb;" horiz-adv-x="648" 
d="M333 886h120l70 -144h-97l-42 73l-56 -73h-96zM301 -6q-53 0 -98.5 14.5t-76.5 49t-45.5 90.5t-5.5 140l44 412h110l-44 -420q-9 -94 22 -141.5t104 -47.5q72 0 112 45.5t51 143.5l44 420h108l-43 -412q-9 -86 -34.5 -143t-63 -90.5t-84.5 -47t-100 -13.5z" />
    <glyph glyph-name="Udieresis" unicode="&#xdc;" horiz-adv-x="648" 
d="M268 745q-30 0 -47 18.5t-17 45.5q0 35 21 56.5t53 21.5q30 0 47 -18.5t17 -46.5q0 -35 -21 -56t-53 -21zM489 745q-30 0 -47.5 17.5t-17.5 47.5q0 34 21.5 55.5t53.5 21.5q30 0 46.5 -18.5t16.5 -45.5q0 -36 -20 -57t-53 -21zM301 -6q-53 0 -98.5 14.5t-76.5 49
t-45.5 90.5t-5.5 140l44 412h110l-44 -420q-9 -94 22 -141.5t104 -47.5q72 0 112 45.5t51 143.5l44 420h108l-43 -412q-9 -86 -34.5 -143t-63 -90.5t-84.5 -47t-100 -13.5z" />
    <glyph glyph-name="Yacute" unicode="&#xdd;" horiz-adv-x="587" 
d="M380 886h138l-130 -144h-103zM245 287l-186 413h127l125 -310l191 310h126l-274 -412l-30 -288h-110z" />
    <glyph glyph-name="Thorn" unicode="&#xde;" horiz-adv-x="593" 
d="M127 700h113l-12 -116h113q109 0 170 -50t61 -153q0 -66 -21 -114t-57.5 -79.5t-85 -47t-102.5 -15.5h-127l-13 -125h-113zM297 218q78 0 118.5 39.5t40.5 111.5q0 54 -32.5 88t-101.5 34h-104l-29 -273h108z" />
    <glyph glyph-name="germandbls" unicode="&#xdf;" horiz-adv-x="564" 
d="M330 -13q-36 0 -71 8.5t-55 24.5l48 86q15 -12 35.5 -19t46.5 -7q48 0 70 17.5t22 50.5q0 21 -11.5 34.5t-28.5 25t-37 22t-37 24.5t-28.5 33t-11.5 47q0 46 21.5 75t47 52t46.5 47t21 60q0 32 -20 49.5t-57 17.5q-43 0 -70.5 -28t-33.5 -88l-54 -519h-110l42 395h-68
l10 87h67l4 41q10 97 70.5 153.5t154.5 56.5q81 0 128 -39t47 -108q0 -53 -21 -85t-46 -54.5t-46 -41.5t-21 -47q0 -24 23.5 -40.5t52 -35.5t52 -47.5t23.5 -76.5q0 -77 -51 -124t-154 -47z" />
    <glyph glyph-name="agrave" unicode="&#xe0;" horiz-adv-x="537" 
d="M152 732h128l60 -184h-92zM197 -13q-79 0 -121.5 58t-42.5 156q0 64 16 118t46 93t72 61t93 22q88 0 125 -65l6 52h99l-36 -351q-3 -27 4.5 -38t29.5 -11l-9 -81q-7 -2 -20.5 -4t-28.5 -2q-40 0 -60.5 19.5t-19.5 53.5l-1 3q-23 -38 -59.5 -61t-92.5 -23zM238 79
q39 0 68.5 25t43.5 67l15 141q-2 17 -8 33t-17.5 29.5t-28 21.5t-39.5 8q-30 0 -54 -14.5t-40 -40.5t-24.5 -61.5t-8.5 -78.5q0 -61 22.5 -95.5t70.5 -34.5z" />
    <glyph glyph-name="aacute" unicode="&#xe1;" horiz-adv-x="537" 
d="M332 732h131l-135 -184h-95zM197 -13q-79 0 -121.5 58t-42.5 156q0 64 16 118t46 93t72 61t93 22q88 0 125 -65l6 52h99l-36 -351q-3 -27 4.5 -38t29.5 -11l-9 -81q-7 -2 -20.5 -4t-28.5 -2q-40 0 -60.5 19.5t-19.5 53.5l-1 3q-23 -38 -59.5 -61t-92.5 -23zM238 79
q39 0 68.5 25t43.5 67l15 141q-2 17 -8 33t-17.5 29.5t-28 21.5t-39.5 8q-30 0 -54 -14.5t-40 -40.5t-24.5 -61.5t-8.5 -78.5q0 -61 22.5 -95.5t70.5 -34.5z" />
    <glyph glyph-name="acircumflex" unicode="&#xe2;" horiz-adv-x="537" 
d="M257 730h116l67 -181h-96l-38 103l-59 -103h-95zM197 -13q-79 0 -121.5 58t-42.5 156q0 64 16 118t46 93t72 61t93 22q88 0 125 -65l6 52h99l-36 -351q-3 -27 4.5 -38t29.5 -11l-9 -81q-7 -2 -20.5 -4t-28.5 -2q-40 0 -60.5 19.5t-19.5 53.5l-1 3q-23 -38 -59.5 -61
t-92.5 -23zM238 79q39 0 68.5 25t43.5 67l15 141q-2 17 -8 33t-17.5 29.5t-28 21.5t-39.5 8q-30 0 -54 -14.5t-40 -40.5t-24.5 -61.5t-8.5 -78.5q0 -61 22.5 -95.5t70.5 -34.5z" />
    <glyph glyph-name="atilde" unicode="&#xe3;" horiz-adv-x="537" 
d="M152 564q-8 18 -8 42q0 39 24.5 65t69.5 26q21 0 37.5 -6t31 -13.5t27 -13.5t24.5 -6q11 0 18.5 6.5t7.5 19.5q0 5 -1 10.5t-3 8.5h74q7 -17 7 -41q0 -39 -24 -66t-69 -27q-23 0 -41 6t-31.5 13.5t-24.5 13.5t-21 6q-28 0 -28 -26q0 -12 4 -18h-74zM197 -13
q-79 0 -121.5 58t-42.5 156q0 64 16 118t46 93t72 61t93 22q88 0 125 -65l6 52h99l-36 -351q-3 -27 4.5 -38t29.5 -11l-9 -81q-7 -2 -20.5 -4t-28.5 -2q-40 0 -60.5 19.5t-19.5 53.5l-1 3q-23 -38 -59.5 -61t-92.5 -23zM238 79q39 0 68.5 25t43.5 67l15 141q-2 17 -8 33
t-17.5 29.5t-28 21.5t-39.5 8q-30 0 -54 -14.5t-40 -40.5t-24.5 -61.5t-8.5 -78.5q0 -61 22.5 -95.5t70.5 -34.5z" />
    <glyph glyph-name="adieresis" unicode="&#xe4;" horiz-adv-x="537" 
d="M204 569q-32 0 -47.5 18t-15.5 45q0 30 19.5 52t55.5 22q30 0 45.5 -18.5t15.5 -43.5q0 -31 -19 -53t-54 -22zM397 569q-31 0 -47 18t-16 45q0 30 19.5 52t55.5 22q31 0 46.5 -18.5t15.5 -43.5q0 -31 -19.5 -53t-54.5 -22zM197 -13q-79 0 -121.5 58t-42.5 156
q0 64 16 118t46 93t72 61t93 22q88 0 125 -65l6 52h99l-36 -351q-3 -27 4.5 -38t29.5 -11l-9 -81q-7 -2 -20.5 -4t-28.5 -2q-40 0 -60.5 19.5t-19.5 53.5l-1 3q-23 -38 -59.5 -61t-92.5 -23zM238 79q39 0 68.5 25t43.5 67l15 141q-2 17 -8 33t-17.5 29.5t-28 21.5t-39.5 8
q-30 0 -54 -14.5t-40 -40.5t-24.5 -61.5t-8.5 -78.5q0 -61 22.5 -95.5t70.5 -34.5z" />
    <glyph glyph-name="aring" unicode="&#xe5;" horiz-adv-x="537" 
d="M298 528q-47 0 -74.5 29t-27.5 72q0 52 32.5 87t84.5 35q46 0 73.5 -29t27.5 -72q0 -26 -8.5 -48t-24 -38.5t-37 -26t-46.5 -9.5zM304 596q18 0 30.5 13.5t12.5 33.5q0 17 -10.5 28t-28.5 11q-19 0 -31.5 -12.5t-12.5 -33.5q0 -40 40 -40zM197 -13q-79 0 -121.5 58
t-42.5 156q0 64 16 118t46 93t72 61t93 22q88 0 125 -65l6 52h99l-36 -351q-3 -27 4.5 -38t29.5 -11l-9 -81q-7 -2 -20.5 -4t-28.5 -2q-40 0 -60.5 19.5t-19.5 53.5l-1 3q-23 -38 -59.5 -61t-92.5 -23zM238 79q39 0 68.5 25t43.5 67l15 141q-2 17 -8 33t-17.5 29.5t-28 21.5
t-39.5 8q-30 0 -54 -14.5t-40 -40.5t-24.5 -61.5t-8.5 -78.5q0 -61 22.5 -95.5t70.5 -34.5z" />
    <glyph glyph-name="ae" unicode="&#xe6;" horiz-adv-x="756" 
d="M426 229v-20q0 -131 103 -131q39 0 66 17.5t46 43.5l63 -53q-11 -17 -28.5 -34.5t-41.5 -32t-54 -23.5t-66 -9q-64 0 -107.5 26.5t-65.5 75.5q-38 -55 -85 -78t-104 -23q-67 0 -102.5 31.5t-35.5 86.5q0 70 49 109.5t151 39.5h104l7 62q9 89 -74 89q-87 0 -87 -78
q0 -19 5 -29h-98q-2 4 -4.5 14.5t-2.5 25.5q0 70 53.5 113t147.5 43q53 0 87.5 -18t54.5 -47q29 30 67.5 47.5t84.5 17.5q84 0 125.5 -50t41.5 -138q0 -32 -2.5 -48.5t-4.5 -29.5h-293zM544 406q-49 0 -74 -30.5t-35 -75.5h187q5 47 -14 76.5t-64 29.5zM185 72
q40 0 72.5 25.5t51.5 67.5l2 24l-102 -1q-42 0 -62 -17.5t-20 -46.5q0 -25 15.5 -38.5t42.5 -13.5z" />
    <glyph glyph-name="ccedilla" unicode="&#xe7;" horiz-adv-x="466" 
d="M335 285q4 9 7 23.5t3 27.5q0 37 -21 52.5t-54 15.5q-60 0 -92.5 -55t-32.5 -151q0 -60 26.5 -89.5t73.5 -29.5q43 0 70 17.5t48 45.5l61 -57q-25 -35 -64 -61.5t-93 -34.5l-10 -24q26 -8 46.5 -27t20.5 -55q0 -48 -34.5 -70.5t-84.5 -22.5q-67 0 -102 35l43 53
q23 -21 52 -21q35 0 35 28q0 16 -18 24.5t-47 10.5l31 69q-79 9 -122.5 61.5t-43.5 145.5q0 69 17.5 124.5t49.5 94t76 59.5t98 21q81 0 125.5 -35t44.5 -101q0 -22 -5 -41.5t-10 -31.5z" />
    <glyph glyph-name="egrave" unicode="&#xe8;" horiz-adv-x="466" 
d="M228 548l-96 184h128l60 -184h-92zM241 78q40 0 68 15t54 48l61 -55q-38 -53 -90 -76t-115 -23q-89 2 -138.5 56.5t-49.5 154.5q0 66 19 120.5t53 93.5t80.5 61t101.5 22q74 0 114 -35.5t40 -95.5q0 -56 -26 -90.5t-68 -54t-95 -27.5t-107 -11q5 -52 30.5 -77.5
t67.5 -25.5zM276 405q-48 0 -84 -40t-47 -109q33 1 67 4.5t61 13.5t44 28.5t17 48.5q0 54 -58 54z" />
    <glyph glyph-name="eacute" unicode="&#xe9;" horiz-adv-x="466" 
d="M308 548h-95l99 184h131zM439 364q0 -56 -26 -90.5t-68 -54t-95 -27.5t-107 -11q5 -52 30.5 -77.5t67.5 -25.5q40 0 68 15t54 48l61 -55q-38 -53 -90 -76t-115 -23q-89 2 -138.5 56.5t-49.5 154.5q0 66 19 120.5t53 93.5t80.5 61t101.5 22q74 0 114 -35.5t40 -95.5z
M145 256q33 1 67 4.5t61 13.5t44 28.5t17 48.5q0 54 -58 54q-48 0 -84 -40t-47 -109z" />
    <glyph glyph-name="ecircumflex" unicode="&#xea;" horiz-adv-x="466" 
d="M227 549h-95l105 181h116l67 -181h-96l-38 103zM241 78q40 0 68 15t54 48l61 -55q-38 -53 -90 -76t-115 -23q-89 2 -138.5 56.5t-49.5 154.5q0 66 19 120.5t53 93.5t80.5 61t101.5 22q74 0 114 -35.5t40 -95.5q0 -56 -26 -90.5t-68 -54t-95 -27.5t-107 -11
q5 -52 30.5 -77.5t67.5 -25.5zM276 405q-48 0 -84 -40t-47 -109q33 1 67 4.5t61 13.5t44 28.5t17 48.5q0 54 -58 54z" />
    <glyph glyph-name="edieresis" unicode="&#xeb;" horiz-adv-x="466" 
d="M184 569q-32 0 -47.5 18t-15.5 45q0 30 19.5 52t55.5 22q30 0 45.5 -18.5t15.5 -43.5q0 -31 -19 -53t-54 -22zM377 569q-31 0 -47 18t-16 45q0 30 19.5 52t55.5 22q31 0 46.5 -18.5t15.5 -43.5q0 -31 -19.5 -53t-54.5 -22zM439 364q0 -56 -26 -90.5t-68 -54t-95 -27.5
t-107 -11q5 -52 30.5 -77.5t67.5 -25.5q40 0 68 15t54 48l61 -55q-38 -53 -90 -76t-115 -23q-89 2 -138.5 56.5t-49.5 154.5q0 66 19 120.5t53 93.5t80.5 61t101.5 22q74 0 114 -35.5t40 -95.5zM145 256q33 1 67 4.5t61 13.5t44 28.5t17 48.5q0 54 -58 54q-48 0 -84 -40
t-47 -109z" />
    <glyph glyph-name="igrave" unicode="&#xec;" horiz-adv-x="245" 
d="M6 732h128l60 -184h-92zM140 -4q-54 0 -76 30t-17 84l39 372h111l-37 -349q-3 -28 4.5 -39t32.5 -11l-9 -81q-4 -2 -17.5 -4t-30.5 -2z" />
    <glyph glyph-name="iacute" unicode="&#xed;" horiz-adv-x="245" 
d="M187 732h131l-135 -184h-95zM140 -4q-54 0 -76 30t-17 84l39 372h111l-37 -349q-3 -28 4.5 -39t32.5 -11l-9 -81q-4 -2 -17.5 -4t-30.5 -2z" />
    <glyph glyph-name="icircumflex" unicode="&#xee;" horiz-adv-x="245" 
d="M111 730h116l67 -181h-96l-38 103l-59 -103h-95zM140 -4q-54 0 -76 30t-17 84l39 372h111l-37 -349q-3 -28 4.5 -39t32.5 -11l-9 -81q-4 -2 -17.5 -4t-30.5 -2z" />
    <glyph glyph-name="idieresis" unicode="&#xef;" horiz-adv-x="245" 
d="M58 569q-32 0 -47.5 18t-15.5 45q0 30 19.5 52t55.5 22q30 0 45.5 -18.5t15.5 -43.5q0 -31 -19 -53t-54 -22zM251 569q-31 0 -47 18t-16 45q0 30 19.5 52t55.5 22q31 0 46.5 -18.5t15.5 -43.5q0 -31 -19.5 -53t-54.5 -22zM140 -4q-54 0 -76 30t-17 84l39 372h111
l-37 -349q-3 -28 4.5 -39t32.5 -11l-9 -81q-4 -2 -17.5 -4t-30.5 -2z" />
    <glyph glyph-name="eth" unicode="&#xf0;" horiz-adv-x="525" 
d="M429 619q33 -42 50.5 -99.5t17.5 -132.5q0 -192 -70.5 -296t-201.5 -104q-95 0 -144.5 54.5t-49.5 148.5q0 60 18 109t49 83.5t73.5 53t90.5 18.5q51 0 83.5 -17.5t48.5 -40.5q-1 55 -14.5 97t-38.5 72l-117 -70l-32 61l93 55q-55 30 -137 30l9 91q69 -2 125 -18t98 -48
l101 59l30 -57zM237 79q33 0 59 17t44.5 47t29.5 69.5t15 84.5q-20 29 -47 47t-69 18q-57 0 -93 -42.5t-36 -122.5q0 -57 26 -87.5t71 -30.5z" />
    <glyph glyph-name="ntilde" unicode="&#xf1;" horiz-adv-x="538" 
d="M157 564q-8 18 -8 42q0 39 24.5 65t69.5 26q21 0 37.5 -6t31 -13.5t27 -13.5t24.5 -6q11 0 18.5 6.5t7.5 19.5q0 5 -1 10.5t-3 8.5h74q7 -17 7 -41q0 -39 -24 -66t-69 -27q-23 0 -41 6t-31.5 13.5t-24.5 13.5t-21 6q-28 0 -28 -26q0 -12 4 -18h-74zM437 -4q-51 0 -72 28
t-16 81l20 193q5 51 -15 76t-59 25q-44 0 -74 -32t-35 -86l-29 -281h-110l38 357q2 24 -6 34.5t-28 10.5l8 82q8 2 21.5 3.5t28.5 1.5q40 0 58 -20.5t20 -55.5v-2q21 38 58 61t90 23q78 0 116.5 -49.5t28.5 -140.5l-19 -177q-6 -46 34 -46l-9 -81q-7 -2 -20.5 -3.5
t-28.5 -1.5z" />
    <glyph glyph-name="ograve" unicode="&#xf2;" horiz-adv-x="512" 
d="M144 732h128l60 -184h-92zM236 -13q-99 0 -151 59t-52 159q0 66 17.5 119.5t49.5 91.5t77.5 58.5t101.5 20.5q97 0 149 -59t52 -159q0 -65 -17.5 -118.5t-49.5 -91.5t-77 -59t-100 -21zM244 79q57 0 90.5 50.5t33.5 141.5q0 64 -25.5 98.5t-73.5 34.5q-56 0 -90 -50.5
t-34 -143.5q0 -63 24.5 -97t74.5 -34z" />
    <glyph glyph-name="oacute" unicode="&#xf3;" horiz-adv-x="512" 
d="M324 732h131l-135 -184h-95zM236 -13q-99 0 -151 59t-52 159q0 66 17.5 119.5t49.5 91.5t77.5 58.5t101.5 20.5q97 0 149 -59t52 -159q0 -65 -17.5 -118.5t-49.5 -91.5t-77 -59t-100 -21zM244 79q57 0 90.5 50.5t33.5 141.5q0 64 -25.5 98.5t-73.5 34.5q-56 0 -90 -50.5
t-34 -143.5q0 -63 24.5 -97t74.5 -34z" />
    <glyph glyph-name="ocircumflex" unicode="&#xf4;" horiz-adv-x="512" 
d="M249 730h116l67 -181h-96l-38 103l-59 -103h-95zM236 -13q-99 0 -151 59t-52 159q0 66 17.5 119.5t49.5 91.5t77.5 58.5t101.5 20.5q97 0 149 -59t52 -159q0 -65 -17.5 -118.5t-49.5 -91.5t-77 -59t-100 -21zM244 79q57 0 90.5 50.5t33.5 141.5q0 64 -25.5 98.5
t-73.5 34.5q-56 0 -90 -50.5t-34 -143.5q0 -63 24.5 -97t74.5 -34z" />
    <glyph glyph-name="otilde" unicode="&#xf5;" horiz-adv-x="512" 
d="M144 564q-8 18 -8 42q0 39 24.5 65t69.5 26q21 0 37.5 -6t31 -13.5t27 -13.5t24.5 -6q11 0 18.5 6.5t7.5 19.5q0 5 -1 10.5t-3 8.5h74q7 -17 7 -41q0 -39 -24 -66t-69 -27q-23 0 -41 6t-31.5 13.5t-24.5 13.5t-21 6q-28 0 -28 -26q0 -12 4 -18h-74zM236 -13
q-99 0 -151 59t-52 159q0 66 17.5 119.5t49.5 91.5t77.5 58.5t101.5 20.5q97 0 149 -59t52 -159q0 -65 -17.5 -118.5t-49.5 -91.5t-77 -59t-100 -21zM244 79q57 0 90.5 50.5t33.5 141.5q0 64 -25.5 98.5t-73.5 34.5q-56 0 -90 -50.5t-34 -143.5q0 -63 24.5 -97t74.5 -34z
" />
    <glyph glyph-name="odieresis" unicode="&#xf6;" horiz-adv-x="512" 
d="M196 569q-32 0 -47.5 18t-15.5 45q0 30 19.5 52t55.5 22q30 0 45.5 -18.5t15.5 -43.5q0 -31 -19 -53t-54 -22zM389 569q-31 0 -47 18t-16 45q0 30 19.5 52t55.5 22q31 0 46.5 -18.5t15.5 -43.5q0 -31 -19.5 -53t-54.5 -22zM236 -13q-99 0 -151 59t-52 159
q0 66 17.5 119.5t49.5 91.5t77.5 58.5t101.5 20.5q97 0 149 -59t52 -159q0 -65 -17.5 -118.5t-49.5 -91.5t-77 -59t-100 -21zM244 79q57 0 90.5 50.5t33.5 141.5q0 64 -25.5 98.5t-73.5 34.5q-56 0 -90 -50.5t-34 -143.5q0 -63 24.5 -97t74.5 -34z" />
    <glyph glyph-name="divide" unicode="&#xf7;" horiz-adv-x="421" 
d="M224 357q-29 0 -47.5 20.5t-18.5 49.5q0 34 25 58t58 24q29 0 48 -20t19 -49q0 -16 -7 -31.5t-18.5 -26.5t-26.5 -18t-32 -7zM42 308h352l-9 -82h-351zM190 14q-29 0 -49 21t-20 51q0 17 7 31.5t19 26t27 18t31 6.5q30 0 49.5 -20.5t19.5 -49.5q0 -16 -7 -31.5t-18.5 -27
t-26.5 -18.5t-32 -7z" />
    <glyph glyph-name="oslash" unicode="&#xf8;" horiz-adv-x="512" 
d="M435 428q45 -59 45 -151q0 -65 -17.5 -118.5t-49.5 -91.5t-77 -59t-100 -21q-64 0 -108 26l-29 -39h-83l61 82q-44 56 -44 149q0 66 17.5 119.5t49.5 91.5t77.5 58.5t101.5 20.5q61 0 106 -25l28 38h81zM145 210q0 -31 6 -55l173 233q-22 16 -55 16q-56 0 -90 -50.5
t-34 -143.5zM368 271q0 34 -7 58l-173 -234q22 -16 56 -16q57 0 90.5 50.5t33.5 141.5z" />
    <glyph glyph-name="ugrave" unicode="&#xf9;" horiz-adv-x="528" 
d="M151 732h128l60 -184h-92zM188 -13q-75 0 -111.5 45t-27.5 130l34 320h109l-31 -300q-6 -55 14 -77t60 -22q25 0 44 10t32.5 26.5t21 36.5t9.5 39l30 287h110l-37 -354q-2 -23 4.5 -34.5t29.5 -11.5l-9 -82q-4 -1 -17 -3t-33 -2q-41 0 -61 20.5t-17 57.5l1 4
q-22 -37 -57.5 -63.5t-97.5 -26.5z" />
    <glyph glyph-name="uacute" unicode="&#xfa;" horiz-adv-x="528" 
d="M331 732h131l-135 -184h-95zM188 -13q-75 0 -111.5 45t-27.5 130l34 320h109l-31 -300q-6 -55 14 -77t60 -22q25 0 44 10t32.5 26.5t21 36.5t9.5 39l30 287h110l-37 -354q-2 -23 4.5 -34.5t29.5 -11.5l-9 -82q-4 -1 -17 -3t-33 -2q-41 0 -61 20.5t-17 57.5l1 4
q-22 -37 -57.5 -63.5t-97.5 -26.5z" />
    <glyph glyph-name="ucircumflex" unicode="&#xfb;" horiz-adv-x="528" 
d="M256 730h116l67 -181h-96l-38 103l-59 -103h-95zM188 -13q-75 0 -111.5 45t-27.5 130l34 320h109l-31 -300q-6 -55 14 -77t60 -22q25 0 44 10t32.5 26.5t21 36.5t9.5 39l30 287h110l-37 -354q-2 -23 4.5 -34.5t29.5 -11.5l-9 -82q-4 -1 -17 -3t-33 -2q-41 0 -61 20.5
t-17 57.5l1 4q-22 -37 -57.5 -63.5t-97.5 -26.5z" />
    <glyph glyph-name="udieresis" unicode="&#xfc;" horiz-adv-x="528" 
d="M203 569q-32 0 -47.5 18t-15.5 45q0 30 19.5 52t55.5 22q30 0 45.5 -18.5t15.5 -43.5q0 -31 -19 -53t-54 -22zM396 569q-31 0 -47 18t-16 45q0 30 19.5 52t55.5 22q31 0 46.5 -18.5t15.5 -43.5q0 -31 -19.5 -53t-54.5 -22zM188 -13q-75 0 -111.5 45t-27.5 130l34 320h109
l-31 -300q-6 -55 14 -77t60 -22q25 0 44 10t32.5 26.5t21 36.5t9.5 39l30 287h110l-37 -354q-2 -23 4.5 -34.5t29.5 -11.5l-9 -82q-4 -1 -17 -3t-33 -2q-41 0 -61 20.5t-17 57.5l1 4q-22 -37 -57.5 -63.5t-97.5 -26.5z" />
    <glyph glyph-name="yacute" unicode="&#xfd;" horiz-adv-x="515" 
d="M326 732h131l-135 -184h-95zM186 -247q-75 0 -121 25.5t-63 70.5l77 57q17 -32 44 -47.5t72 -15.5q58 0 89.5 33t37.5 91l12 109q-24 -39 -64.5 -60.5t-91.5 -21.5q-146 0 -128 173l33 315h109l-31 -294q-10 -99 68 -99q19 0 37.5 9t34.5 25t26.5 37t13.5 45l29 277h110
l-53 -513q-11 -100 -73 -158t-168 -58z" />
    <glyph glyph-name="thorn" unicode="&#xfe;" horiz-adv-x="526" 
d="M111 726h110l-31 -301q25 37 60.5 53.5t80.5 16.5q77 0 120.5 -58t43.5 -156q0 -68 -17.5 -122.5t-48.5 -92.5t-72 -58.5t-88 -20.5q-43 0 -74.5 16.5t-44.5 41.5l-29 -274h-110zM258 79q60 0 92.5 49t32.5 143q0 63 -25 97.5t-69 34.5q-42 0 -70 -26t-42 -66l-15 -142
q5 -38 28 -64t68 -26z" />
    <glyph glyph-name="ydieresis" unicode="&#xff;" horiz-adv-x="515" 
d="M198 569q-32 0 -47.5 18t-15.5 45q0 30 19.5 52t55.5 22q30 0 45.5 -18.5t15.5 -43.5q0 -31 -19 -53t-54 -22zM391 569q-31 0 -47 18t-16 45q0 30 19.5 52t55.5 22q31 0 46.5 -18.5t15.5 -43.5q0 -31 -19.5 -53t-54.5 -22zM186 -247q-75 0 -121 25.5t-63 70.5l77 57
q17 -32 44 -47.5t72 -15.5q58 0 89.5 33t37.5 91l12 109q-24 -39 -64.5 -60.5t-91.5 -21.5q-146 0 -128 173l33 315h109l-31 -294q-10 -99 68 -99q19 0 37.5 9t34.5 25t26.5 37t13.5 45l29 277h110l-53 -513q-11 -100 -73 -158t-168 -58z" />
    <glyph glyph-name="Amacron" unicode="&#x100;" horiz-adv-x="619" 
d="M505 767h-277l9 86h277zM434 183h-260l-81 -183h-113l323 700h112l173 -700h-113zM414 272l-67 302l-134 -302h201z" />
    <glyph glyph-name="amacron" unicode="&#x101;" horiz-adv-x="537" 
d="M178 679h265l-10 -85h-264zM197 -13q-79 0 -121.5 58t-42.5 156q0 64 16 118t46 93t72 61t93 22q88 0 125 -65l6 52h99l-36 -351q-3 -27 4.5 -38t29.5 -11l-9 -81q-7 -2 -20.5 -4t-28.5 -2q-40 0 -60.5 19.5t-19.5 53.5l-1 3q-23 -38 -59.5 -61t-92.5 -23zM238 79
q39 0 68.5 25t43.5 67l15 141q-2 17 -8 33t-17.5 29.5t-28 21.5t-39.5 8q-30 0 -54 -14.5t-40 -40.5t-24.5 -61.5t-8.5 -78.5q0 -61 22.5 -95.5t70.5 -34.5z" />
    <glyph glyph-name="Abreve" unicode="&#x102;" horiz-adv-x="619" 
d="M362 742q-63 0 -93.5 40t-23.5 103h82q-3 -26 7.5 -43.5t36.5 -17.5q29 0 42 17.5t16 43.5h82q-7 -63 -43.5 -103t-105.5 -40zM434 183h-260l-81 -183h-113l323 700h112l173 -700h-113zM414 272l-67 302l-134 -302h201z" />
    <glyph glyph-name="abreve" unicode="&#x103;" horiz-adv-x="537" 
d="M298 563q-39 0 -63.5 12t-37.5 32t-16.5 46.5t-0.5 56.5h82q-6 -64 44 -64q51 0 58 64h82q-3 -30 -12.5 -56.5t-27.5 -46.5t-44.5 -32t-63.5 -12zM197 -13q-79 0 -121.5 58t-42.5 156q0 64 16 118t46 93t72 61t93 22q88 0 125 -65l6 52h99l-36 -351q-3 -27 4.5 -38
t29.5 -11l-9 -81q-7 -2 -20.5 -4t-28.5 -2q-40 0 -60.5 19.5t-19.5 53.5l-1 3q-23 -38 -59.5 -61t-92.5 -23zM238 79q39 0 68.5 25t43.5 67l15 141q-2 17 -8 33t-17.5 29.5t-28 21.5t-39.5 8q-30 0 -54 -14.5t-40 -40.5t-24.5 -61.5t-8.5 -78.5q0 -61 22.5 -95.5t70.5 -34.5
z" />
    <glyph glyph-name="Aogonek" unicode="&#x104;" horiz-adv-x="619" 
d="M527 -119q10 0 17.5 3t12.5 7l24 -54q-14 -13 -35 -19.5t-46 -6.5q-45 0 -68.5 20.5t-23.5 58.5q0 32 17.5 62t48.5 53l-40 178h-260l-81 -183h-113l323 700h112l173 -700h-18q-32 -11 -51.5 -35.5t-19.5 -52.5q0 -31 28 -31zM414 272l-67 302l-134 -302h201z" />
    <glyph glyph-name="aogonek" unicode="&#x105;" horiz-adv-x="537" 
d="M469 -1q-30 -12 -48.5 -36t-18.5 -51q0 -31 28 -31q10 0 17.5 3t12.5 7l24 -54q-14 -13 -35 -19.5t-46 -6.5q-45 0 -68.5 20.5t-23.5 58.5q0 32 18.5 63t50.5 54q-32 19 -30 61l-1 3q-23 -38 -59.5 -61t-92.5 -23q-79 0 -121.5 58t-42.5 156q0 64 16 118t46 93t72 61
t93 22q88 0 125 -65l6 52h99l-36 -351q-3 -27 4.5 -38t29.5 -11l-9 -81q-6 -2 -10 -2zM365 312q-2 17 -8 33t-17.5 29.5t-28 21.5t-39.5 8q-30 0 -54 -14.5t-40 -40.5t-24.5 -61.5t-8.5 -78.5q0 -61 22.5 -95.5t70.5 -34.5q39 0 68.5 25t43.5 67z" />
    <glyph glyph-name="Cacute" unicode="&#x106;" horiz-adv-x="596" 
d="M417 886h138l-130 -144h-103zM314 -8q-61 0 -110 20t-83.5 58t-53 93.5t-18.5 127.5q0 91 21.5 167.5t63 132t103.5 86.5t143 31q47 0 86 -11.5t67 -34t44 -55.5t16 -76q0 -21 -4 -41t-11 -40h-102q6 17 8 32t2 28q0 54 -34.5 78t-88.5 24q-46 0 -82.5 -23t-62 -64
t-39 -98t-13.5 -126q0 -106 44 -160t116 -54q56 0 93.5 21t72.5 71l67 -56q-46 -68 -104 -99.5t-141 -31.5z" />
    <glyph glyph-name="cacute" unicode="&#x107;" horiz-adv-x="466" 
d="M319 732h131l-135 -184h-95zM231 -13q-94 0 -146 53.5t-52 155.5q0 69 17.5 124.5t49.5 94t76 59.5t98 21q81 0 125.5 -35t44.5 -101q0 -22 -5 -41.5t-10 -31.5l-94 -1q4 9 7 23.5t3 27.5q0 37 -21 52.5t-54 15.5q-60 0 -92.5 -55t-32.5 -151q0 -60 26.5 -89.5
t73.5 -29.5q43 0 70 17.5t48 45.5l61 -57q-29 -42 -76.5 -70t-116.5 -28z" />
    <glyph glyph-name="Ccircumflex" unicode="&#x108;" horiz-adv-x="596" 
d="M341 886h120l70 -144h-97l-42 73l-56 -73h-96zM314 -8q-61 0 -110 20t-83.5 58t-53 93.5t-18.5 127.5q0 91 21.5 167.5t63 132t103.5 86.5t143 31q47 0 86 -11.5t67 -34t44 -55.5t16 -76q0 -21 -4 -41t-11 -40h-102q6 17 8 32t2 28q0 54 -34.5 78t-88.5 24
q-46 0 -82.5 -23t-62 -64t-39 -98t-13.5 -126q0 -106 44 -160t116 -54q56 0 93.5 21t72.5 71l67 -56q-46 -68 -104 -99.5t-141 -31.5z" />
    <glyph glyph-name="ccircumflex" unicode="&#x109;" horiz-adv-x="466" 
d="M243 730h116l67 -181h-96l-38 103l-59 -103h-95zM231 -13q-94 0 -146 53.5t-52 155.5q0 69 17.5 124.5t49.5 94t76 59.5t98 21q81 0 125.5 -35t44.5 -101q0 -22 -5 -41.5t-10 -31.5l-94 -1q4 9 7 23.5t3 27.5q0 37 -21 52.5t-54 15.5q-60 0 -92.5 -55t-32.5 -151
q0 -60 26.5 -89.5t73.5 -29.5q43 0 70 17.5t48 45.5l61 -57q-29 -42 -76.5 -70t-116.5 -28z" />
    <glyph glyph-name="Cdotaccent" unicode="&#x10a;" horiz-adv-x="596" 
d="M386 743q-29 0 -46.5 19t-17.5 48q0 32 24 55t56 23q28 0 45.5 -19.5t17.5 -47.5q0 -32 -23 -55t-56 -23zM314 -8q-61 0 -110 20t-83.5 58t-53 93.5t-18.5 127.5q0 91 21.5 167.5t63 132t103.5 86.5t143 31q47 0 86 -11.5t67 -34t44 -55.5t16 -76q0 -21 -4 -41t-11 -40
h-102q6 17 8 32t2 28q0 54 -34.5 78t-88.5 24q-46 0 -82.5 -23t-62 -64t-39 -98t-13.5 -126q0 -106 44 -160t116 -54q56 0 93.5 21t72.5 71l67 -56q-46 -68 -104 -99.5t-141 -31.5z" />
    <glyph glyph-name="cdotaccent" unicode="&#x10b;" horiz-adv-x="466" 
d="M287 569q-32 0 -48.5 18.5t-16.5 45.5q0 31 20 54.5t57 23.5q32 0 48 -19.5t16 -45.5q0 -32 -20 -54.5t-56 -22.5zM231 -13q-94 0 -146 53.5t-52 155.5q0 69 17.5 124.5t49.5 94t76 59.5t98 21q81 0 125.5 -35t44.5 -101q0 -22 -5 -41.5t-10 -31.5l-94 -1q4 9 7 23.5
t3 27.5q0 37 -21 52.5t-54 15.5q-60 0 -92.5 -55t-32.5 -151q0 -60 26.5 -89.5t73.5 -29.5q43 0 70 17.5t48 45.5l61 -57q-29 -42 -76.5 -70t-116.5 -28z" />
    <glyph glyph-name="Ccaron" unicode="&#x10c;" horiz-adv-x="596" 
d="M257 886h97l41 -73l57 73h96l-101 -144h-120zM314 -8q-61 0 -110 20t-83.5 58t-53 93.5t-18.5 127.5q0 91 21.5 167.5t63 132t103.5 86.5t143 31q47 0 86 -11.5t67 -34t44 -55.5t16 -76q0 -21 -4 -41t-11 -40h-102q6 17 8 32t2 28q0 54 -34.5 78t-88.5 24
q-46 0 -82.5 -23t-62 -64t-39 -98t-13.5 -126q0 -106 44 -160t116 -54q56 0 93.5 21t72.5 71l67 -56q-46 -68 -104 -99.5t-141 -31.5z" />
    <glyph glyph-name="ccaron" unicode="&#x10d;" horiz-adv-x="466" 
d="M157 730h96l38 -103l59 103h95l-105 -181h-116zM231 -13q-94 0 -146 53.5t-52 155.5q0 69 17.5 124.5t49.5 94t76 59.5t98 21q81 0 125.5 -35t44.5 -101q0 -22 -5 -41.5t-10 -31.5l-94 -1q4 9 7 23.5t3 27.5q0 37 -21 52.5t-54 15.5q-60 0 -92.5 -55t-32.5 -151
q0 -60 26.5 -89.5t73.5 -29.5q43 0 70 17.5t48 45.5l61 -57q-29 -42 -76.5 -70t-116.5 -28z" />
    <glyph glyph-name="Dcaron" unicode="&#x10e;" horiz-adv-x="665" 
d="M246 886h97l41 -73l57 73h96l-101 -144h-120zM127 700h212q66 0 121 -17t95 -53t62.5 -92.5t22.5 -136.5q0 -108 -31 -184t-82 -124t-117 -70.5t-136 -22.5h-221zM274 95q57 0 103 18t78.5 54.5t50.5 91.5t18 130q0 109 -51 162.5t-150 53.5h-96l-53 -510h100z" />
    <glyph glyph-name="dcaron" unicode="&#x10f;" horiz-adv-x="573" 
d="M572 555q25 8 38 21.5t15 27.5q-24 2 -36.5 17.5t-12.5 38.5q0 30 20.5 51t50.5 21q29 0 46 -18.5t17 -48.5q0 -26 -8.5 -51.5t-24.5 -46.5t-37.5 -36.5t-47.5 -23.5zM201 -13q-80 0 -124 56.5t-44 161.5q0 66 17 119.5t47 91.5t72 58.5t91 20.5q45 0 74 -18t43 -42
l30 287h109l-62 -591q-3 -27 5 -38t30 -11l-9 -82q-7 -2 -21 -3.5t-28 -1.5q-41 0 -62 19.5t-19 53.5l1 5q-20 -37 -58 -61.5t-92 -24.5zM242 79q35 0 64.5 25t43.5 67l15 141q-1 17 -7 33t-17.5 29.5t-28 21.5t-39.5 8q-63 0 -95.5 -54t-32.5 -145q0 -60 25 -93t72 -33z
" />
    <glyph glyph-name="Dcroat" unicode="&#x110;" horiz-adv-x="698" 
d="M351 700q66 0 121 -17t94.5 -53t62 -92.5t22.5 -136.5q0 -108 -31 -184t-82 -124t-117 -70.5t-135 -22.5h-221l33 309h-81l9 87h81l32 304h212zM286 95q57 0 103 18t78.5 54.5t50.5 91.5t18 130q0 109 -51 162.5t-150 53.5h-97l-21 -209h99l-9 -87h-99l-22 -214h100z" />
    <glyph glyph-name="dcroat" unicode="&#x111;" horiz-adv-x="538" 
d="M454 131q-3 -27 5 -38t30 -11l-9 -82q-7 -2 -21 -3.5t-28 -1.5q-41 0 -62 19.5t-19 53.5l1 5q-20 -37 -58 -61.5t-92 -24.5q-80 0 -124 56.5t-44 161.5q0 66 17 119.5t47 91.5t72 58.5t91 20.5q45 0 74 -18t43 -42l13 127h-100l9 88h100l8 76h110l-8 -76h80l-9 -88h-80z
M365 312q-1 17 -7 33t-17.5 29.5t-28 21.5t-39.5 8q-63 0 -95.5 -54t-32.5 -145q0 -60 25 -93t72 -33q35 0 64.5 25t43.5 67z" />
    <glyph glyph-name="Emacron" unicode="&#x112;" horiz-adv-x="550" 
d="M232 853h277l-9 -86h-277zM127 700h431l-11 -98h-320l-21 -198h273l-10 -98h-274l-21 -208h321l-11 -98h-431z" />
    <glyph glyph-name="emacron" unicode="&#x113;" horiz-adv-x="466" 
d="M413 594h-264l9 85h265zM241 78q40 0 68 15t54 48l61 -55q-38 -53 -90 -76t-115 -23q-89 2 -138.5 56.5t-49.5 154.5q0 66 19 120.5t53 93.5t80.5 61t101.5 22q74 0 114 -35.5t40 -95.5q0 -56 -26 -90.5t-68 -54t-95 -27.5t-107 -11q5 -52 30.5 -77.5t67.5 -25.5z
M276 405q-48 0 -84 -40t-47 -109q33 1 67 4.5t61 13.5t44 28.5t17 48.5q0 54 -58 54z" />
    <glyph glyph-name="Ebreve" unicode="&#x114;" horiz-adv-x="550" 
d="M357 742q-63 0 -93.5 40t-23.5 103h82q-3 -26 7.5 -43.5t36.5 -17.5q29 0 42 17.5t16 43.5h82q-7 -63 -43.5 -103t-105.5 -40zM127 700h431l-11 -98h-320l-21 -198h273l-10 -98h-274l-21 -208h321l-11 -98h-431z" />
    <glyph glyph-name="ebreve" unicode="&#x115;" horiz-adv-x="466" 
d="M278 563q-39 0 -63.5 12t-37.5 32t-16.5 46.5t-0.5 56.5h82q-6 -64 44 -64q51 0 58 64h82q-3 -30 -12.5 -56.5t-27.5 -46.5t-44.5 -32t-63.5 -12zM241 78q40 0 68 15t54 48l61 -55q-38 -53 -90 -76t-115 -23q-89 2 -138.5 56.5t-49.5 154.5q0 66 19 120.5t53 93.5
t80.5 61t101.5 22q74 0 114 -35.5t40 -95.5q0 -56 -26 -90.5t-68 -54t-95 -27.5t-107 -11q5 -52 30.5 -77.5t67.5 -25.5zM276 405q-48 0 -84 -40t-47 -109q33 1 67 4.5t61 13.5t44 28.5t17 48.5q0 54 -58 54z" />
    <glyph glyph-name="Edotaccent" unicode="&#x116;" horiz-adv-x="550" 
d="M359 743q-29 0 -46.5 19t-17.5 48q0 32 24 55t56 23q28 0 45.5 -19.5t17.5 -47.5q0 -32 -23 -55t-56 -23zM127 700h431l-11 -98h-320l-21 -198h273l-10 -98h-274l-21 -208h321l-11 -98h-431z" />
    <glyph glyph-name="edotaccent" unicode="&#x117;" horiz-adv-x="466" 
d="M281 569q-32 0 -48.5 18.5t-16.5 45.5q0 31 20 54.5t57 23.5q32 0 48 -19.5t16 -45.5q0 -32 -20 -54.5t-56 -22.5zM241 78q40 0 68 15t54 48l61 -55q-38 -53 -90 -76t-115 -23q-89 2 -138.5 56.5t-49.5 154.5q0 66 19 120.5t53 93.5t80.5 61t101.5 22q74 0 114 -35.5
t40 -95.5q0 -56 -26 -90.5t-68 -54t-95 -27.5t-107 -11q5 -52 30.5 -77.5t67.5 -25.5zM276 405q-48 0 -84 -40t-47 -109q33 1 67 4.5t61 13.5t44 28.5t17 48.5q0 54 -58 54z" />
    <glyph glyph-name="Eogonek" unicode="&#x118;" horiz-adv-x="550" 
d="M227 602l-21 -198h273l-10 -98h-274l-21 -208h321l-11 -98q-32 -11 -51.5 -35.5t-19.5 -52.5q0 -31 28 -31q10 0 17.5 3t12.5 7l24 -54q-14 -13 -35 -19.5t-46 -6.5q-45 0 -68.5 20.5t-23.5 58.5q0 30 16 58.5t44 51.5h-329l74 700h431l-11 -98h-320z" />
    <glyph glyph-name="eogonek" unicode="&#x119;" horiz-adv-x="466" 
d="M241 78q40 0 68 15t54 48l61 -55q-25 -35 -56 -56t-67 -32q-29 -12 -47.5 -36t-18.5 -50q0 -31 28 -31q10 0 17.5 3t12.5 7l24 -54q-14 -13 -35 -19.5t-46 -6.5q-45 0 -68.5 20.5t-23.5 58.5q0 27 12.5 52t35.5 47q-77 10 -119 63.5t-42 145.5q0 66 19 120.5t53 93.5
t80.5 61t101.5 22q74 0 114 -35.5t40 -95.5q0 -56 -26 -90.5t-68 -54t-95 -27.5t-107 -11q5 -52 30.5 -77.5t67.5 -25.5zM276 405q-48 0 -84 -40t-47 -109q33 1 67 4.5t61 13.5t44 28.5t17 48.5q0 54 -58 54z" />
    <glyph glyph-name="Ecaron" unicode="&#x11a;" horiz-adv-x="550" 
d="M230 886h97l41 -73l57 73h96l-101 -144h-120zM127 700h431l-11 -98h-320l-21 -198h273l-10 -98h-274l-21 -208h321l-11 -98h-431z" />
    <glyph glyph-name="ecaron" unicode="&#x11b;" horiz-adv-x="466" 
d="M218 549l-67 181h96l38 -103l59 103h95l-105 -181h-116zM439 364q0 -56 -26 -90.5t-68 -54t-95 -27.5t-107 -11q5 -52 30.5 -77.5t67.5 -25.5q40 0 68 15t54 48l61 -55q-38 -53 -90 -76t-115 -23q-89 2 -138.5 56.5t-49.5 154.5q0 66 19 120.5t53 93.5t80.5 61t101.5 22
q74 0 114 -35.5t40 -95.5zM145 256q33 1 67 4.5t61 13.5t44 28.5t17 48.5q0 54 -58 54q-48 0 -84 -40t-47 -109z" />
    <glyph glyph-name="Gcircumflex" unicode="&#x11c;" horiz-adv-x="635" 
d="M338 886h120l70 -144h-97l-42 73l-56 -73h-96zM319 -11q-130 0 -200.5 77t-70.5 226q0 97 24 174t68 131t107 82.5t141 28.5q104 0 161.5 -46.5t57.5 -129.5q0 -20 -3.5 -36t-8.5 -28h-105q2 5 4 15.5t2 28.5q0 48 -32 74t-90 26q-99 0 -154 -80.5t-55 -229.5
q0 -104 43.5 -161t125.5 -57q56 0 89.5 13.5t48.5 28.5l14 133h-142l10 95h245l-30 -275q-14 -15 -36.5 -30.5t-54 -29t-71.5 -22t-88 -8.5z" />
    <glyph glyph-name="gcircumflex" unicode="&#x11d;" horiz-adv-x="525" 
d="M254 730h116l67 -181h-96l-38 103l-59 -103h-95zM198 -240q-69 0 -114.5 23.5t-69.5 68.5l75 62q16 -29 42.5 -46.5t74.5 -17.5q54 0 87 32t39 92l10 90q-17 -31 -50.5 -54t-92.5 -23q-79 0 -122.5 58t-43.5 156q0 64 16.5 118t46 93t70.5 61t91 22q45 0 77 -18.5
t52 -52.5l7 58h97l-53 -508q-11 -100 -71 -157t-168 -57zM239 79q42 0 69.5 25t41.5 67l15 141q-1 17 -7 33t-17.5 29.5t-28 21.5t-39.5 8q-31 0 -55 -14.5t-40.5 -41t-24.5 -62.5t-8 -79q0 -60 23.5 -94t70.5 -34z" />
    <glyph glyph-name="Gbreve" unicode="&#x11e;" horiz-adv-x="635" 
d="M382 742q-63 0 -93.5 40t-23.5 103h82q-3 -26 7.5 -43.5t36.5 -17.5q29 0 42 17.5t16 43.5h82q-7 -63 -43.5 -103t-105.5 -40zM319 -11q-130 0 -200.5 77t-70.5 226q0 97 24 174t68 131t107 82.5t141 28.5q104 0 161.5 -46.5t57.5 -129.5q0 -20 -3.5 -36t-8.5 -28h-105
q2 5 4 15.5t2 28.5q0 48 -32 74t-90 26q-99 0 -154 -80.5t-55 -229.5q0 -104 43.5 -161t125.5 -57q56 0 89.5 13.5t48.5 28.5l14 133h-142l10 95h245l-30 -275q-14 -15 -36.5 -30.5t-54 -29t-71.5 -22t-88 -8.5z" />
    <glyph glyph-name="gbreve" unicode="&#x11f;" horiz-adv-x="525" 
d="M296 563q-39 0 -63.5 12t-37.5 32t-16.5 46.5t-0.5 56.5h82q-6 -64 44 -64q51 0 58 64h82q-3 -30 -12.5 -56.5t-27.5 -46.5t-44.5 -32t-63.5 -12zM198 -240q-69 0 -114.5 23.5t-69.5 68.5l75 62q16 -29 42.5 -46.5t74.5 -17.5q54 0 87 32t39 92l10 90q-17 -31 -50.5 -54
t-92.5 -23q-79 0 -122.5 58t-43.5 156q0 64 16.5 118t46 93t70.5 61t91 22q45 0 77 -18.5t52 -52.5l7 58h97l-53 -508q-11 -100 -71 -157t-168 -57zM239 79q42 0 69.5 25t41.5 67l15 141q-1 17 -7 33t-17.5 29.5t-28 21.5t-39.5 8q-31 0 -55 -14.5t-40.5 -41t-24.5 -62.5
t-8 -79q0 -60 23.5 -94t70.5 -34z" />
    <glyph glyph-name="Gdotaccent" unicode="&#x120;" horiz-adv-x="635" 
d="M383 743q-29 0 -46.5 19t-17.5 48q0 32 24 55t56 23q28 0 45.5 -19.5t17.5 -47.5q0 -32 -23 -55t-56 -23zM319 -11q-130 0 -200.5 77t-70.5 226q0 97 24 174t68 131t107 82.5t141 28.5q104 0 161.5 -46.5t57.5 -129.5q0 -20 -3.5 -36t-8.5 -28h-105q2 5 4 15.5t2 28.5
q0 48 -32 74t-90 26q-99 0 -154 -80.5t-55 -229.5q0 -104 43.5 -161t125.5 -57q56 0 89.5 13.5t48.5 28.5l14 133h-142l10 95h245l-30 -275q-14 -15 -36.5 -30.5t-54 -29t-71.5 -22t-88 -8.5z" />
    <glyph glyph-name="gdotaccent" unicode="&#x121;" horiz-adv-x="525" 
d="M298 569q-32 0 -48.5 18.5t-16.5 45.5q0 31 20 54.5t57 23.5q32 0 48 -19.5t16 -45.5q0 -32 -20 -54.5t-56 -22.5zM198 -240q-69 0 -114.5 23.5t-69.5 68.5l75 62q16 -29 42.5 -46.5t74.5 -17.5q54 0 87 32t39 92l10 90q-17 -31 -50.5 -54t-92.5 -23q-79 0 -122.5 58
t-43.5 156q0 64 16.5 118t46 93t70.5 61t91 22q45 0 77 -18.5t52 -52.5l7 58h97l-53 -508q-11 -100 -71 -157t-168 -57zM239 79q42 0 69.5 25t41.5 67l15 141q-1 17 -7 33t-17.5 29.5t-28 21.5t-39.5 8q-31 0 -55 -14.5t-40.5 -41t-24.5 -62.5t-8 -79q0 -60 23.5 -94
t70.5 -34z" />
    <glyph glyph-name="uni0122" unicode="&#x122;" horiz-adv-x="635" 
d="M319 -11q-130 0 -200.5 77t-70.5 226q0 97 24 174t68 131t107 82.5t141 28.5q104 0 161.5 -46.5t57.5 -129.5q0 -20 -3.5 -36t-8.5 -28h-105q2 5 4 15.5t2 28.5q0 48 -32 74t-90 26q-99 0 -154 -80.5t-55 -229.5q0 -104 43.5 -161t125.5 -57q56 0 89.5 13.5t48.5 28.5
l14 133h-142l10 95h245l-30 -275q-14 -15 -36.5 -30.5t-54 -29t-71.5 -22t-88 -8.5zM236 -208q24 8 37 20.5t15 24.5q-49 14 -49 60q0 30 19.5 48.5t48.5 18.5t47.5 -18.5t18.5 -53.5q0 -23 -8.5 -46t-24.5 -43t-37 -35.5t-47 -22.5z" />
    <glyph glyph-name="uni0123" unicode="&#x123;" horiz-adv-x="525" 
d="M294 542q-29 0 -45 17t-16 47q0 24 8.5 47.5t23.5 44t35 36t44 23.5l23 -47q-23 -7 -38.5 -19.5t-17.5 -24.5q23 -1 37.5 -16.5t14.5 -38.5q0 -29 -20 -49t-49 -20zM198 -240q-69 0 -114.5 23.5t-69.5 68.5l75 62q16 -29 42.5 -46.5t74.5 -17.5q54 0 87 32t39 92l10 90
q-17 -31 -50.5 -54t-92.5 -23q-79 0 -122.5 58t-43.5 156q0 64 16.5 118t46 93t70.5 61t91 22q45 0 77 -18.5t52 -52.5l7 58h97l-53 -508q-11 -100 -71 -157t-168 -57zM239 79q42 0 69.5 25t41.5 67l15 141q-1 17 -7 33t-17.5 29.5t-28 21.5t-39.5 8q-31 0 -55 -14.5
t-40.5 -41t-24.5 -62.5t-8 -79q0 -60 23.5 -94t70.5 -34z" />
    <glyph glyph-name="Hcircumflex" unicode="&#x124;" horiz-adv-x="642" 
d="M330 886h120l70 -144h-97l-42 73l-56 -73h-96zM123 700h110l-31 -294h273l32 294h110l-74 -700h-110l32 302h-274l-32 -302h-110z" />
    <glyph glyph-name="hcircumflex" unicode="&#x125;" horiz-adv-x="527" 
d="M122 886h120l70 -144h-97l-42 73l-56 -73h-96zM429 -4q-51 0 -74.5 29t-17.5 85l20 192q5 45 -12.5 70.5t-59.5 25.5q-26 0 -45.5 -10t-33 -25t-21 -34t-9.5 -37l-31 -292h-110l76 726h110l-31 -300q18 27 51.5 48t82.5 21q44 0 73.5 -15t46 -41t22 -60.5t1.5 -73.5
l-18 -175q-3 -26 5.5 -36.5t31.5 -10.5l-9 -81q-7 -2 -20.5 -4t-27.5 -2z" />
    <glyph glyph-name="Hbar" unicode="&#x126;" horiz-adv-x="688" 
d="M694 504h-73l-53 -504h-110l32 302h-273l-32 -302h-110l53 504h-71l8 77h71l13 119h110l-13 -119h273l13 119h110l-13 -119h73zM511 504h-273l-10 -98h273z" />
    <glyph glyph-name="hbar" unicode="&#x127;" horiz-adv-x="527" 
d="M449 130q-3 -26 5.5 -36.5t31.5 -10.5l-9 -81q-7 -2 -20.5 -4t-27.5 -2q-51 0 -74.5 29t-17.5 85l20 192q5 45 -12.5 70.5t-59.5 25.5q-26 0 -45.5 -10t-33 -25t-21 -34t-9.5 -37l-31 -292h-110l59 562h-69l9 88h69l8 76h110l-8 -76h111l-9 -88h-111l-14 -136
q18 27 51.5 48t82.5 21q44 0 73.5 -15t46 -41t22 -60.5t1.5 -73.5z" />
    <glyph glyph-name="Itilde" unicode="&#x128;" horiz-adv-x="266" 
d="M35 745q-7 15 -7 42q0 39 25.5 65t68.5 26q21 0 38.5 -6t32.5 -13.5t28 -13.5t25 -6q26 0 26 28q0 11 -4 16h77q3 -8 4.5 -19.5t1.5 -22.5q0 -39 -25 -65.5t-73 -26.5q-22 0 -40 6t-32.5 13.5t-26.5 13.5t-23 6q-10 0 -17 -6.5t-7 -19.5q0 -9 4 -17h-76zM127 700h110
l-74 -700h-110z" />
    <glyph glyph-name="itilde" unicode="&#x129;" horiz-adv-x="245" 
d="M6 564q-8 18 -8 42q0 39 24.5 65t69.5 26q21 0 37.5 -6t31 -13.5t27 -13.5t24.5 -6q11 0 18.5 6.5t7.5 19.5q0 5 -1 10.5t-3 8.5h74q7 -17 7 -41q0 -39 -24 -66t-69 -27q-23 0 -41 6t-31.5 13.5t-24.5 13.5t-21 6q-28 0 -28 -26q0 -12 4 -18h-74zM140 -4q-54 0 -76 30
t-17 84l39 372h111l-37 -349q-3 -28 4.5 -39t32.5 -11l-9 -81q-4 -2 -17.5 -4t-30.5 -2z" />
    <glyph glyph-name="Imacron" unicode="&#x12a;" horiz-adv-x="266" 
d="M60 853h277l-9 -86h-277zM127 700h110l-74 -700h-110z" />
    <glyph glyph-name="imacron" unicode="&#x12b;" horiz-adv-x="245" 
d="M32 679h265l-10 -85h-264zM140 -4q-54 0 -76 30t-17 84l39 372h111l-37 -349q-3 -28 4.5 -39t32.5 -11l-9 -81q-4 -2 -17.5 -4t-30.5 -2z" />
    <glyph glyph-name="Ibreve" unicode="&#x12c;" horiz-adv-x="266" 
d="M184 742q-63 0 -93.5 40t-23.5 103h82q-3 -26 7.5 -43.5t36.5 -17.5q29 0 42 17.5t16 43.5h82q-7 -63 -43.5 -103t-105.5 -40zM127 700h110l-74 -700h-110z" />
    <glyph glyph-name="ibreve" unicode="&#x12d;" horiz-adv-x="245" 
d="M152 563q-39 0 -63.5 12t-37.5 32t-16.5 46.5t-0.5 56.5h82q-6 -64 44 -64q51 0 58 64h82q-3 -30 -12.5 -56.5t-27.5 -46.5t-44.5 -32t-63.5 -12zM140 -4q-54 0 -76 30t-17 84l39 372h111l-37 -349q-3 -28 4.5 -39t32.5 -11l-9 -81q-4 -2 -17.5 -4t-30.5 -2z" />
    <glyph glyph-name="Iogonek" unicode="&#x12e;" horiz-adv-x="266" 
d="M119 -119q10 0 17.5 3t12.5 7l24 -54q-14 -13 -35 -19.5t-46 -6.5q-45 0 -68.5 20.5t-23.5 58.5q0 30 16 58.5t44 51.5h-7l74 700h110l-74 -700h-1q-32 -11 -51.5 -35.5t-19.5 -52.5q0 -31 28 -31z" />
    <glyph glyph-name="iogonek" unicode="&#x12f;" horiz-adv-x="245" 
d="M167 711q32 0 48 -19.5t16 -45.5q0 -32 -20 -54.5t-56 -22.5q-32 0 -48.5 18.5t-16.5 45.5q0 31 20 54.5t57 23.5zM144 -117q10 0 17.5 3t12.5 7l24 -54q-14 -13 -35 -19.5t-46 -6.5q-45 0 -68.5 20.5t-23.5 58.5q0 32 17.5 61.5t47.5 52.5q-51 23 -43 104l39 372h111
l-37 -349q-3 -28 4.5 -39t32.5 -11l-9 -81q-1 0 -2 -0.5t-3 -0.5q-30 -12 -48.5 -36t-18.5 -51q0 -31 28 -31z" />
    <glyph glyph-name="Idotaccent" unicode="&#x130;" horiz-adv-x="266" 
d="M186 743q-29 0 -46.5 19t-17.5 48q0 32 24 55t56 23q28 0 45.5 -19.5t17.5 -47.5q0 -32 -23 -55t-56 -23zM127 700h110l-74 -700h-110z" />
    <glyph glyph-name="dotlessi" unicode="&#x131;" horiz-adv-x="245" 
d="M140 -4q-54 0 -76 30t-17 84l39 372h111l-37 -349q-3 -28 4.5 -39t32.5 -11l-9 -81q-4 -2 -17.5 -4t-30.5 -2z" />
    <glyph glyph-name="IJ" unicode="&#x132;" horiz-adv-x="727" 
d="M127 700h110l-74 -700h-110zM434 -6q-69 0 -113 23t-65 56l76 76q17 -23 40.5 -40.5t60.5 -17.5q95 0 109 128l51 481h109l-51 -489q-24 -217 -217 -217z" />
    <glyph glyph-name="ij" unicode="&#x133;" horiz-adv-x="482" 
d="M155 569q-32 0 -48.5 18.5t-16.5 45.5q0 31 20 54.5t57 23.5q32 0 48 -19.5t16 -45.5q0 -32 -20 -54.5t-56 -22.5zM401 569q-32 0 -48.5 18.5t-16.5 45.5q0 31 20 54.5t58 23.5q31 0 47 -19.5t16 -45.5q0 -32 -20 -54.5t-56 -22.5zM140 -4q-54 0 -76 30t-17 84l39 372
h111l-37 -349q-3 -28 4.5 -39t32.5 -11l-9 -81q-4 -2 -17.5 -4t-30.5 -2zM197 -247q-24 0 -40.5 4.5t-27.5 10.5q-12 7 -20 15l41 78q5 -4 12 -7q6 -2 14 -4t19 -2q75 0 86 106l56 528h108l-56 -533q-9 -89 -55 -142.5t-137 -53.5z" />
    <glyph glyph-name="Jcircumflex" unicode="&#x134;" horiz-adv-x="461" 
d="M338 886h120l70 -144h-97l-42 73l-56 -73h-96zM168 -6q-69 0 -113 23t-65 56l76 76q17 -23 40.5 -40.5t60.5 -17.5q95 0 109 128l51 481h109l-51 -489q-24 -217 -217 -217z" />
    <glyph glyph-name="jcircumflex" unicode="&#x135;" horiz-adv-x="237" 
d="M112 730h116l67 -181h-96l-38 103l-59 -103h-95zM-48 -247q-24 0 -40.5 4.5t-27.5 10.5q-12 7 -20 15l41 78q5 -4 12 -7q6 -2 14 -4t19 -2q75 0 86 106l56 528h108l-56 -533q-9 -89 -55 -142.5t-137 -53.5z" />
    <glyph glyph-name="uni0136" unicode="&#x136;" horiz-adv-x="628" 
d="M404 336q31 -26 48.5 -67t33.5 -79.5t37 -66.5t59 -28h22l-11 -94q-9 -2 -23.5 -4t-28.5 -2q-50 0 -80 22.5t-49.5 56t-32.5 72.5t-29.5 72.5t-40.5 56t-65 22.5h-49l-32 -297h-110l74 700h110l-32 -303h47q42 0 82.5 15t74.5 50t58.5 93t33.5 145h109
q-14 -134 -67.5 -226.5t-138.5 -137.5zM296 -36q29 0 47.5 -18.5t18.5 -53.5q0 -23 -8.5 -46t-24.5 -43t-37 -35.5t-47 -22.5l-20 47q24 8 37 20.5t15 24.5q-49 14 -49 60q0 30 19.5 48.5t48.5 18.5z" />
    <glyph glyph-name="uni0137" unicode="&#x137;" horiz-adv-x="496" 
d="M469 83l-9 -81q-5 -1 -17.5 -4t-28.5 -3q-44 0 -68 15.5t-37.5 38t-21.5 49.5t-20 49.5t-33.5 38t-60.5 15.5h-7l-21 -201h-110l76 726h110l-45 -434h28q73 0 111.5 51t51.5 139h101q-4 -27 -12 -60.5t-23.5 -66.5t-41.5 -63t-65 -52q28 -18 39.5 -44.5t21 -51.5t24 -43
t47.5 -18h11zM239 -36q29 0 47.5 -18.5t18.5 -53.5q0 -23 -8.5 -46t-24.5 -43t-37 -35.5t-47 -22.5l-20 47q24 8 37 20.5t15 24.5q-49 14 -49 60q0 30 19.5 48.5t48.5 18.5z" />
    <glyph glyph-name="kgreenlandic" unicode="&#x138;" horiz-adv-x="500" 
d="M327 234q27 -18 39 -43.5t22 -49t24.5 -40.5t47.5 -17h10l-9 -82q-4 -1 -17 -4t-28 -3q-44 0 -68 15t-38 37t-22.5 48.5t-20.5 48.5t-33.5 37t-60.5 15h-8l-20 -196h-110l51 482h110l-21 -195h23q41 0 70 14t49 39.5t32 61.5t18 80h103q-4 -31 -12.5 -65.5t-24 -68
t-41.5 -63.5t-65 -51z" />
    <glyph glyph-name="Lacute" unicode="&#x139;" horiz-adv-x="514" 
d="M234 886h138l-130 -144h-103zM127 700h111l-64 -602h312l-10 -98h-423z" />
    <glyph glyph-name="lacute" unicode="&#x13a;" horiz-adv-x="245" 
d="M191 900h138l-130 -144h-103zM139 -4q-49 0 -74 26t-18 89l65 615h110l-62 -596q-3 -26 5.5 -35t31.5 -9l-8 -84q-9 -2 -22.5 -4t-27.5 -2z" />
    <glyph glyph-name="uni013B" unicode="&#x13b;" horiz-adv-x="514" 
d="M127 700h111l-64 -602h312l-10 -98h-423zM202 -208q24 8 37 20.5t15 24.5q-49 14 -49 60q0 30 19.5 48.5t48.5 18.5t47.5 -18.5t18.5 -53.5q0 -23 -8.5 -46t-24.5 -43t-37 -35.5t-47 -22.5z" />
    <glyph glyph-name="uni013C" unicode="&#x13c;" horiz-adv-x="245" 
d="M139 -4q-49 0 -74 26t-18 89l65 615h110l-62 -596q-3 -26 5.5 -35t31.5 -9l-8 -84q-9 -2 -22.5 -4t-27.5 -2zM33 -208q24 8 37 20.5t15 24.5q-49 14 -49 60q0 30 19.5 48.5t48.5 18.5t47.5 -18.5t18.5 -53.5q0 -23 -8.5 -46t-24.5 -43t-37 -35.5t-47 -22.5z" />
    <glyph glyph-name="Lcaron" unicode="&#x13d;" horiz-adv-x="539" 
d="M380 530q24 8 37.5 22t15.5 28q-24 2 -36 17t-12 37q0 30 20 51t50 21q28 0 45 -18.5t17 -48.5q0 -25 -8.5 -50t-24.5 -46t-37.5 -36.5t-47.5 -23.5zM127 700h111l-64 -602h312l-10 -98h-423z" />
    <glyph glyph-name="lcaron" unicode="&#x13e;" horiz-adv-x="260" 
d="M248 555q26 8 39 21.5t15 27.5q-49 13 -49 60q0 30 20 49t49 19t47 -19t18 -54q0 -24 -8.5 -48t-24.5 -44.5t-37.5 -36t-47.5 -23.5zM139 -4q-49 0 -74 26t-18 89l65 615h110l-62 -596q-3 -26 5.5 -35t31.5 -9l-8 -84q-9 -2 -22.5 -4t-27.5 -2z" />
    <glyph glyph-name="Ldot" unicode="&#x13f;" horiz-adv-x="538" 
d="M127 700h111l-64 -602h312l-10 -98h-423zM409 332q-29 0 -46.5 17t-17.5 46q0 30 19 51t52 21q28 0 45.5 -17.5t17.5 -45.5q0 -30 -18 -51t-52 -21z" />
    <glyph glyph-name="ldot" unicode="&#x140;" horiz-adv-x="320" 
d="M139 -4q-49 0 -74 26t-18 89l65 615h110l-62 -596q-3 -26 5.5 -35t31.5 -9l-8 -84q-9 -2 -22.5 -4t-27.5 -2zM285 316q-29 0 -46.5 17t-17.5 46t18.5 51t53.5 22q29 0 46 -17.5t17 -46.5q0 -30 -18 -51t-53 -21z" />
    <glyph glyph-name="Lslash" unicode="&#x141;" horiz-adv-x="560" 
d="M512 98l-10 -98h-423l27 255l-70 -38l-35 76l116 64l36 343h111l-30 -278l97 53l36 -76l-143 -79l-24 -222h312z" />
    <glyph glyph-name="lslash" unicode="&#x142;" horiz-adv-x="338" 
d="M209 130q-3 -26 6 -35t32 -9l-9 -84q-8 -2 -22 -4t-28 -2q-48 0 -73 26t-18 89l19 181l-67 -38l-32 71l109 61l36 340h109l-29 -275l66 37l34 -70l-109 -61z" />
    <glyph glyph-name="Nacute" unicode="&#x143;" horiz-adv-x="656" 
d="M421 886h138l-130 -144h-103zM127 700h96l233 -484l12 -34l54 518h105l-74 -700h-97l-236 485l-9 29l-54 -514h-104z" />
    <glyph glyph-name="nacute" unicode="&#x144;" horiz-adv-x="538" 
d="M337 732h131l-135 -184h-95zM437 -4q-51 0 -72 28t-16 81l20 193q5 51 -15 76t-59 25q-44 0 -74 -32t-35 -86l-29 -281h-110l38 357q2 24 -6 34.5t-28 10.5l8 82q8 2 21.5 3.5t28.5 1.5q40 0 58 -20.5t20 -55.5v-2q21 38 58 61t90 23q78 0 116.5 -49.5t28.5 -140.5
l-19 -177q-6 -46 34 -46l-9 -81q-7 -2 -20.5 -3.5t-28.5 -1.5z" />
    <glyph glyph-name="uni0145" unicode="&#x145;" horiz-adv-x="656" 
d="M127 700h96l233 -484l12 -34l54 518h105l-74 -700h-97l-236 485l-9 29l-54 -514h-104zM229 -208q24 8 37 20.5t15 24.5q-49 14 -49 60q0 30 19.5 48.5t48.5 18.5t47.5 -18.5t18.5 -53.5q0 -23 -8.5 -46t-24.5 -43t-37 -35.5t-47 -22.5z" />
    <glyph glyph-name="uni0146" unicode="&#x146;" horiz-adv-x="538" 
d="M437 -4q-51 0 -72 28t-16 81l20 193q5 51 -15 76t-59 25q-44 0 -74 -32t-35 -86l-29 -281h-110l38 357q2 24 -6 34.5t-28 10.5l8 82q8 2 21.5 3.5t28.5 1.5q40 0 58 -20.5t20 -55.5v-2q21 38 58 61t90 23q78 0 116.5 -49.5t28.5 -140.5l-19 -177q-6 -46 34 -46l-9 -81
q-7 -2 -20.5 -3.5t-28.5 -1.5zM186 -208q24 8 37 20.5t15 24.5q-49 14 -49 60q0 30 19.5 48.5t48.5 18.5t47.5 -18.5t18.5 -53.5q0 -23 -8.5 -46t-24.5 -43t-37 -35.5t-47 -22.5z" />
    <glyph glyph-name="Ncaron" unicode="&#x147;" horiz-adv-x="656" 
d="M260 886h97l41 -73l57 73h96l-101 -144h-120zM127 700h96l233 -484l12 -34l54 518h105l-74 -700h-97l-236 485l-9 29l-54 -514h-104z" />
    <glyph glyph-name="ncaron" unicode="&#x148;" horiz-adv-x="538" 
d="M176 730h96l38 -103l59 103h95l-105 -181h-116zM437 -4q-51 0 -72 28t-16 81l20 193q5 51 -15 76t-59 25q-44 0 -74 -32t-35 -86l-29 -281h-110l38 357q2 24 -6 34.5t-28 10.5l8 82q8 2 21.5 3.5t28.5 1.5q40 0 58 -20.5t20 -55.5v-2q21 38 58 61t90 23q78 0 116.5 -49.5
t28.5 -140.5l-19 -177q-6 -46 34 -46l-9 -81q-7 -2 -20.5 -3.5t-28.5 -1.5z" />
    <glyph glyph-name="napostrophe" unicode="&#x149;" horiz-adv-x="659" 
d="M21 564q15 5 27 13q11 6 19.5 14t8.5 19q-26 0 -44 18.5t-18 45.5q0 26 18 44.5t45 18.5t48 -18t21 -56q0 -43 -14.5 -71t-32.5 -44.5t-33 -22.5t-16 -6zM539 -4q-51 0 -72.5 28t-16.5 81l21 193q5 51 -15 76t-60 25q-43 0 -73 -32t-35 -86l-30 -281h-109l37 357
q3 24 -5 34.5t-29 10.5l9 82q7 2 20.5 3.5t28.5 1.5q41 0 58.5 -20.5t19.5 -55.5l1 -2q21 38 57.5 61t89.5 23q78 0 116.5 -49.5t28.5 -140.5l-18 -177q-6 -46 33 -46l-9 -81q-6 -2 -20 -3.5t-28 -1.5z" />
    <glyph glyph-name="Eng" unicode="&#x14a;" horiz-adv-x="656" 
d="M627 700l-74 -700l-3 -21q-10 -98 -61 -150t-144 -52q-41 0 -71.5 11t-46.5 34l73 86q20 -26 59 -26q32 0 54.5 22.5t27.5 72.5l5 45l-226 463l-9 29l-54 -514h-104l74 700h96l233 -484l12 -34l54 518h105z" />
    <glyph glyph-name="eng" unicode="&#x14b;" horiz-adv-x="529" 
d="M337 495q78 0 115.5 -49t27.5 -141l-32 -305l-3 -21q-10 -98 -59.5 -150t-143.5 -52q-41 0 -72 11t-48 32l73 86q9 -11 24.5 -18t32.5 -7q37 0 57 22.5t26 72.5l3 24l31 298q5 50 -14.5 75.5t-59.5 25.5q-44 0 -73.5 -30.5t-34.5 -81.5l-30 -287h-110l38 357
q2 24 -6 34.5t-28 10.5l8 82q8 2 21.5 3.5t28.5 1.5q40 0 58 -21t19 -59v-2q22 40 60 64t91 24z" />
    <glyph glyph-name="Omacron" unicode="&#x14c;" horiz-adv-x="687" 
d="M270 853h277l-9 -86h-277zM323 -8q-56 0 -106 17t-87.5 53t-59.5 93t-22 137q0 109 27 187.5t73.5 129.5t108.5 75t131 24q56 0 105.5 -17.5t87 -54.5t59.5 -94.5t22 -137.5q0 -108 -27 -186t-73 -128.5t-108 -74t-131 -23.5zM334 88q44 0 82.5 17t67 54.5t45 96
t17.5 142.5q0 60 -14 101t-37 66t-53.5 36t-63.5 11q-44 0 -82.5 -17t-67.5 -54.5t-46 -97t-18 -143.5q0 -60 13.5 -100.5t37 -65t54.5 -35.5t65 -11z" />
    <glyph glyph-name="omacron" unicode="&#x14d;" horiz-adv-x="512" 
d="M170 679h265l-10 -85h-264zM236 -13q-99 0 -151 59t-52 159q0 66 17.5 119.5t49.5 91.5t77.5 58.5t101.5 20.5q97 0 149 -59t52 -159q0 -65 -17.5 -118.5t-49.5 -91.5t-77 -59t-100 -21zM244 79q57 0 90.5 50.5t33.5 141.5q0 64 -25.5 98.5t-73.5 34.5q-56 0 -90 -50.5
t-34 -143.5q0 -63 24.5 -97t74.5 -34z" />
    <glyph glyph-name="Obreve" unicode="&#x14e;" horiz-adv-x="687" 
d="M395 742q-63 0 -93.5 40t-23.5 103h82q-3 -26 7.5 -43.5t36.5 -17.5q29 0 42 17.5t16 43.5h82q-7 -63 -43.5 -103t-105.5 -40zM323 -8q-56 0 -106 17t-87.5 53t-59.5 93t-22 137q0 109 27 187.5t73.5 129.5t108.5 75t131 24q56 0 105.5 -17.5t87 -54.5t59.5 -94.5
t22 -137.5q0 -108 -27 -186t-73 -128.5t-108 -74t-131 -23.5zM334 88q44 0 82.5 17t67 54.5t45 96t17.5 142.5q0 60 -14 101t-37 66t-53.5 36t-63.5 11q-44 0 -82.5 -17t-67.5 -54.5t-46 -97t-18 -143.5q0 -60 13.5 -100.5t37 -65t54.5 -35.5t65 -11z" />
    <glyph glyph-name="obreve" unicode="&#x14f;" horiz-adv-x="512" 
d="M290 563q-39 0 -63.5 12t-37.5 32t-16.5 46.5t-0.5 56.5h82q-6 -64 44 -64q51 0 58 64h82q-3 -30 -12.5 -56.5t-27.5 -46.5t-44.5 -32t-63.5 -12zM236 -13q-99 0 -151 59t-52 159q0 66 17.5 119.5t49.5 91.5t77.5 58.5t101.5 20.5q97 0 149 -59t52 -159
q0 -65 -17.5 -118.5t-49.5 -91.5t-77 -59t-100 -21zM244 79q57 0 90.5 50.5t33.5 141.5q0 64 -25.5 98.5t-73.5 34.5q-56 0 -90 -50.5t-34 -143.5q0 -63 24.5 -97t74.5 -34z" />
    <glyph glyph-name="Ohungarumlaut" unicode="&#x150;" horiz-adv-x="687" 
d="M328 886h129l-118 -144h-90zM497 886h129l-117 -144h-90zM323 -8q-56 0 -106 17t-87.5 53t-59.5 93t-22 137q0 109 27 187.5t73.5 129.5t108.5 75t131 24q56 0 105.5 -17.5t87 -54.5t59.5 -94.5t22 -137.5q0 -108 -27 -186t-73 -128.5t-108 -74t-131 -23.5zM334 88
q44 0 82.5 17t67 54.5t45 96t17.5 142.5q0 60 -14 101t-37 66t-53.5 36t-63.5 11q-44 0 -82.5 -17t-67.5 -54.5t-46 -97t-18 -143.5q0 -60 13.5 -100.5t37 -65t54.5 -35.5t65 -11z" />
    <glyph glyph-name="ohungarumlaut" unicode="&#x151;" horiz-adv-x="512" 
d="M228 732h124l-122 -184h-88zM398 732h123l-122 -184h-87zM236 -13q-99 0 -151 59t-52 159q0 66 17.5 119.5t49.5 91.5t77.5 58.5t101.5 20.5q97 0 149 -59t52 -159q0 -65 -17.5 -118.5t-49.5 -91.5t-77 -59t-100 -21zM244 79q57 0 90.5 50.5t33.5 141.5q0 64 -25.5 98.5
t-73.5 34.5q-56 0 -90 -50.5t-34 -143.5q0 -63 24.5 -97t74.5 -34z" />
    <glyph glyph-name="OE" unicode="&#x152;" horiz-adv-x="977" 
d="M312 -6q-59 0 -108 20.5t-83.5 60t-53.5 96.5t-19 129q0 94 24.5 169t68 127.5t104 81t132.5 28.5q61 0 112 -26t71 -77l11 97h414l-11 -98h-303l-21 -198h255l-11 -98h-254l-22 -208h303l-10 -98h-414l9 92q-32 -48 -81 -73t-113 -25zM328 89q46 0 84 20.5t65 59.5
t42 96t15 130q2 106 -42.5 161t-118.5 55q-95 0 -152 -79.5t-57 -229.5q0 -103 44.5 -158t119.5 -55z" />
    <glyph glyph-name="oe" unicode="&#x153;" horiz-adv-x="791" 
d="M213 -13q-93 0 -142.5 58.5t-49.5 162.5q0 65 16.5 117.5t47.5 90.5t75.5 58.5t100.5 20.5q51 0 93 -22t65 -70q32 48 75 68.5t94 20.5q85 0 130 -50.5t45 -131.5q0 -16 -2 -37.5t-8 -50.5h-291q-1 -5 -1 -8v-6q0 -67 27 -98t76 -31q44 0 70 17t45 41l62 -54
q-30 -45 -78 -70t-110 -25q-66 0 -106 24t-59 62q-60 -87 -175 -87zM231 79q57 0 89.5 50t32.5 141q0 64 -24 99t-69 35q-60 0 -93.5 -51.5t-33.5 -140.5q0 -65 25 -99t73 -34zM656 293q7 54 -14 82t-63 28t-70.5 -27t-39.5 -83h187z" />
    <glyph glyph-name="Racute" unicode="&#x154;" horiz-adv-x="623" 
d="M392 886h138l-130 -144h-103zM516 -5q-42 0 -67.5 20.5t-41.5 51.5t-27 67.5t-25 67.5t-34 51.5t-55 20.5h-74l-29 -274h-110l74 700h229q109 0 166 -46.5t57 -143.5q0 -82 -45 -135t-115 -72q27 -15 40.5 -49.5t25.5 -70t29 -62.5t51 -27h26l-10 -93q-4 -2 -23.5 -4
t-41.5 -2zM303 360q35 0 65 9t52 26t34.5 42.5t12.5 59.5q0 52 -32 82t-94 30h-114l-26 -249h102z" />
    <glyph glyph-name="racute" unicode="&#x155;" horiz-adv-x="364" 
d="M271 732h131l-135 -184h-95zM85 357q2 24 -6 34.5t-28 10.5l8 82q8 2 21 3.5t28 1.5q42 0 62 -21.5t16 -54.5v-6q18 41 55 64t86 23q19 0 36.5 -4.5t26.5 -12.5l-51 -102q-16 12 -49 12q-45 0 -72.5 -35.5t-33.5 -89.5l-27 -262h-110z" />
    <glyph glyph-name="uni0156" unicode="&#x156;" horiz-adv-x="623" 
d="M516 -5q-42 0 -67.5 20.5t-41.5 51.5t-27 67.5t-25 67.5t-34 51.5t-55 20.5h-74l-29 -274h-110l74 700h229q109 0 166 -46.5t57 -143.5q0 -82 -45 -135t-115 -72q27 -15 40.5 -49.5t25.5 -70t29 -62.5t51 -27h26l-10 -93q-4 -2 -23.5 -4t-41.5 -2zM303 360q35 0 65 9
t52 26t34.5 42.5t12.5 59.5q0 52 -32 82t-94 30h-114l-26 -249h102zM225 -208q24 8 37 20.5t15 24.5q-49 14 -49 60q0 30 19.5 48.5t48.5 18.5t47.5 -18.5t18.5 -53.5q0 -23 -8.5 -46t-24.5 -43t-37 -35.5t-47 -22.5z" />
    <glyph glyph-name="uni0157" unicode="&#x157;" horiz-adv-x="364" 
d="M85 357q2 24 -6 34.5t-28 10.5l8 82q8 2 21 3.5t28 1.5q42 0 62 -21.5t16 -54.5v-6q18 41 55 64t86 23q19 0 36.5 -4.5t26.5 -12.5l-51 -102q-16 12 -49 12q-45 0 -72.5 -35.5t-33.5 -89.5l-27 -262h-110zM29 -208q24 8 37 20.5t15 24.5q-49 14 -49 60q0 30 19.5 48.5
t48.5 18.5t47.5 -18.5t18.5 -53.5q0 -23 -8.5 -46t-24.5 -43t-37 -35.5t-47 -22.5z" />
    <glyph glyph-name="Rcaron" unicode="&#x158;" horiz-adv-x="623" 
d="M232 886h97l41 -73l57 73h96l-101 -144h-120zM516 -5q-42 0 -67.5 20.5t-41.5 51.5t-27 67.5t-25 67.5t-34 51.5t-55 20.5h-74l-29 -274h-110l74 700h229q109 0 166 -46.5t57 -143.5q0 -82 -45 -135t-115 -72q27 -15 40.5 -49.5t25.5 -70t29 -62.5t51 -27h26l-10 -93
q-4 -2 -23.5 -4t-41.5 -2zM303 360q35 0 65 9t52 26t34.5 42.5t12.5 59.5q0 52 -32 82t-94 30h-114l-26 -249h102z" />
    <glyph glyph-name="rcaron" unicode="&#x159;" horiz-adv-x="364" 
d="M109 730h96l38 -103l59 103h95l-105 -181h-116zM85 357q2 24 -6 34.5t-28 10.5l8 82q8 2 21 3.5t28 1.5q42 0 62 -21.5t16 -54.5v-6q18 41 55 64t86 23q19 0 36.5 -4.5t26.5 -12.5l-51 -102q-16 12 -49 12q-45 0 -72.5 -35.5t-33.5 -89.5l-27 -262h-110z" />
    <glyph glyph-name="Sacute" unicode="&#x15a;" horiz-adv-x="569" 
d="M361 886h138l-130 -144h-103zM269 -8q-94 0 -157.5 28t-100.5 88l81 70q31 -47 75.5 -69.5t113.5 -22.5q63 0 100.5 26.5t37.5 80.5q0 23 -7.5 40.5t-25.5 31t-47 24.5t-73 21q-41 10 -76.5 24t-61 36t-40 53t-14.5 74q0 99 67.5 155t187.5 56q43 0 82.5 -8.5t70 -28
t48.5 -50t18 -75.5q0 -24 -3 -35t-7 -22l-102 1q4 11 5.5 18t1.5 18q0 47 -33.5 67.5t-90.5 20.5q-68 0 -101.5 -27t-33.5 -75q0 -24 8 -40t26.5 -27.5t48 -20.5t71.5 -20q98 -25 145 -69.5t47 -130.5q0 -102 -70.5 -157t-190.5 -55z" />
    <glyph glyph-name="sacute" unicode="&#x15b;" horiz-adv-x="461" 
d="M300 732h131l-135 -184h-95zM202 -13q-60 0 -113 20t-85 68l71 70q29 -42 65 -55.5t76 -13.5q95 0 95 54q0 29 -29 42t-77 24q-27 6 -54 16.5t-48.5 27t-35 40.5t-13.5 59q0 74 52.5 115t150.5 41q80 0 127 -32.5t47 -94.5q0 -17 -4 -33t-9 -27h-99q4 8 6.5 19.5
t2.5 21.5q0 32 -22 45t-59 13q-45 0 -65.5 -15.5t-20.5 -41.5q0 -17 6.5 -28t20.5 -18.5t35.5 -13t50.5 -12.5q26 -6 51.5 -15t46 -24t33.5 -38t13 -56q0 -79 -58.5 -118.5t-157.5 -39.5z" />
    <glyph glyph-name="Scircumflex" unicode="&#x15c;" horiz-adv-x="569" 
d="M285 886h120l70 -144h-97l-42 73l-56 -73h-96zM269 -8q-94 0 -157.5 28t-100.5 88l81 70q31 -47 75.5 -69.5t113.5 -22.5q63 0 100.5 26.5t37.5 80.5q0 23 -7.5 40.5t-25.5 31t-47 24.5t-73 21q-41 10 -76.5 24t-61 36t-40 53t-14.5 74q0 99 67.5 155t187.5 56
q43 0 82.5 -8.5t70 -28t48.5 -50t18 -75.5q0 -24 -3 -35t-7 -22l-102 1q4 11 5.5 18t1.5 18q0 47 -33.5 67.5t-90.5 20.5q-68 0 -101.5 -27t-33.5 -75q0 -24 8 -40t26.5 -27.5t48 -20.5t71.5 -20q98 -25 145 -69.5t47 -130.5q0 -102 -70.5 -157t-190.5 -55z" />
    <glyph glyph-name="scircumflex" unicode="&#x15d;" horiz-adv-x="461" 
d="M225 730h116l67 -181h-96l-38 103l-59 -103h-95zM202 -13q-60 0 -113 20t-85 68l71 70q29 -42 65 -55.5t76 -13.5q95 0 95 54q0 29 -29 42t-77 24q-27 6 -54 16.5t-48.5 27t-35 40.5t-13.5 59q0 74 52.5 115t150.5 41q80 0 127 -32.5t47 -94.5q0 -17 -4 -33t-9 -27h-99
q4 8 6.5 19.5t2.5 21.5q0 32 -22 45t-59 13q-45 0 -65.5 -15.5t-20.5 -41.5q0 -17 6.5 -28t20.5 -18.5t35.5 -13t50.5 -12.5q26 -6 51.5 -15t46 -24t33.5 -38t13 -56q0 -79 -58.5 -118.5t-157.5 -39.5z" />
    <glyph glyph-name="Scedilla" unicode="&#x15e;" horiz-adv-x="569" 
d="M436 490q4 11 5.5 18t1.5 18q0 47 -33.5 67.5t-90.5 20.5q-68 0 -101.5 -27t-33.5 -75q0 -24 8 -40t26.5 -27.5t48 -20.5t71.5 -20q98 -25 145 -69.5t47 -130.5q0 -96 -61.5 -150t-169.5 -61l-11 -28q26 -8 46.5 -27t20.5 -55q0 -48 -34.5 -70.5t-84.5 -22.5
q-67 0 -102 35l43 53q23 -21 52 -21q35 0 35 28q0 16 -18 24.5t-47 10.5l33 73q-156 10 -221 115l81 70q31 -47 75.5 -69.5t113.5 -22.5q63 0 100.5 26.5t37.5 80.5q0 23 -7.5 40.5t-25.5 31t-47 24.5t-73 21q-41 10 -76.5 24t-61 36t-40 53t-14.5 74q0 99 67.5 155
t187.5 56q43 0 82.5 -8.5t70 -28t48.5 -50t18 -75.5q0 -24 -3 -35t-7 -22z" />
    <glyph glyph-name="scedilla" unicode="&#x15f;" horiz-adv-x="461" 
d="M319 308q4 8 6.5 19.5t2.5 21.5q0 32 -22 45t-59 13q-45 0 -65.5 -15.5t-20.5 -41.5q0 -17 6.5 -28t20.5 -18.5t35.5 -13t50.5 -12.5q26 -6 51.5 -15t46 -24t33.5 -38t13 -56q0 -70 -46 -109t-126 -47l-10 -24q26 -8 46.5 -27t20.5 -55q0 -48 -34.5 -70.5t-84.5 -22.5
q-67 0 -102 35l43 53q23 -21 52 -21q35 0 35 28q0 16 -18 24.5t-47 10.5l31 68q-54 4 -99.5 24t-74.5 63l71 70q29 -42 65 -55.5t76 -13.5q95 0 95 54q0 29 -29 42t-77 24q-27 6 -54 16.5t-48.5 27t-35 40.5t-13.5 59q0 74 52.5 115t150.5 41q80 0 127 -32.5t47 -94.5
q0 -17 -4 -33t-9 -27h-99z" />
    <glyph glyph-name="Scaron" unicode="&#x160;" horiz-adv-x="569" 
d="M201 886h97l41 -73l57 73h96l-101 -144h-120zM269 -8q-94 0 -157.5 28t-100.5 88l81 70q31 -47 75.5 -69.5t113.5 -22.5q63 0 100.5 26.5t37.5 80.5q0 23 -7.5 40.5t-25.5 31t-47 24.5t-73 21q-41 10 -76.5 24t-61 36t-40 53t-14.5 74q0 99 67.5 155t187.5 56
q43 0 82.5 -8.5t70 -28t48.5 -50t18 -75.5q0 -24 -3 -35t-7 -22l-102 1q4 11 5.5 18t1.5 18q0 47 -33.5 67.5t-90.5 20.5q-68 0 -101.5 -27t-33.5 -75q0 -24 8 -40t26.5 -27.5t48 -20.5t71.5 -20q98 -25 145 -69.5t47 -130.5q0 -102 -70.5 -157t-190.5 -55z" />
    <glyph glyph-name="scaron" unicode="&#x161;" horiz-adv-x="461" 
d="M138 730h96l38 -103l59 103h95l-105 -181h-116zM202 -13q-60 0 -113 20t-85 68l71 70q29 -42 65 -55.5t76 -13.5q95 0 95 54q0 29 -29 42t-77 24q-27 6 -54 16.5t-48.5 27t-35 40.5t-13.5 59q0 74 52.5 115t150.5 41q80 0 127 -32.5t47 -94.5q0 -17 -4 -33t-9 -27h-99
q4 8 6.5 19.5t2.5 21.5q0 32 -22 45t-59 13q-45 0 -65.5 -15.5t-20.5 -41.5q0 -17 6.5 -28t20.5 -18.5t35.5 -13t50.5 -12.5q26 -6 51.5 -15t46 -24t33.5 -38t13 -56q0 -79 -58.5 -118.5t-157.5 -39.5z" />
    <glyph glyph-name="uni0162" unicode="&#x162;" horiz-adv-x="534" 
d="M570 700l-11 -101h-198l-62 -599h-16l-14 -35q26 -8 46.5 -27t20.5 -55q0 -48 -34.5 -70.5t-84.5 -22.5q-67 0 -102 35l43 53q23 -21 52 -21q35 0 35 28q0 16 -18 24.5t-47 10.5l36 80h-27l62 599h-199l11 101h507z" />
    <glyph glyph-name="uni0163" unicode="&#x163;" horiz-adv-x="401" 
d="M202 191q-10 -97 69 -97q20 0 37.5 7t30.5 17l40 -79q-21 -17 -53 -29.5t-67 -14.5l-12 -30q26 -8 46.5 -27t20.5 -55q0 -48 -34.5 -70.5t-84.5 -22.5q-67 0 -102 35l43 53q23 -21 52 -21q35 0 35 28q0 16 -18 24.5t-47 10.5l36 79q-61 12 -85.5 58t-16.5 126l22 208h-84
l10 91h88l13 140h106l-14 -140h166l-10 -91h-166z" />
    <glyph glyph-name="Tcaron" unicode="&#x164;" horiz-adv-x="534" 
d="M192 886h97l41 -73l57 73h96l-101 -144h-120zM251 599h-199l11 101h507l-11 -101h-198l-62 -599h-110z" />
    <glyph glyph-name="tcaron" unicode="&#x165;" horiz-adv-x="401" 
d="M312 568q25 8 38 21.5t15 27.5q-49 14 -49 60q0 30 20 49t49 19t47 -19t18 -54q0 -24 -8.5 -48t-24.5 -44.5t-37.5 -36t-47.5 -23.5zM244 -6q-89 0 -125.5 47t-26.5 142l22 208h-84l10 91h88l13 140h106l-14 -140h166l-10 -91h-166l-21 -200q-10 -97 69 -97q20 0 37.5 7
t30.5 17l40 -79q-23 -20 -60 -32.5t-75 -12.5z" />
    <glyph glyph-name="Tbar" unicode="&#x166;" horiz-adv-x="560" 
d="M365 599l-24 -227h93l-9 -86h-93l-30 -286h-110l30 286h-85l9 86h85l24 227h-199l11 101h507l-11 -101h-198z" />
    <glyph glyph-name="tbar" unicode="&#x167;" horiz-adv-x="419" 
d="M226 391l-8 -85h118l-9 -87h-118l-3 -28q-10 -97 68 -97q20 0 37.5 7t30.5 17l40 -79q-23 -20 -60 -32.5t-74 -12.5q-90 0 -126.5 47t-26.5 142l4 36h-61l9 87h61l9 85h-83l9 91h88l13 140h106l-14 -140h166l-10 -91h-166z" />
    <glyph glyph-name="Utilde" unicode="&#x168;" horiz-adv-x="648" 
d="M227 745q-7 15 -7 42q0 39 25.5 65t68.5 26q21 0 38.5 -6t32.5 -13.5t28 -13.5t25 -6q26 0 26 28q0 11 -4 16h77q3 -8 4.5 -19.5t1.5 -22.5q0 -39 -25 -65.5t-73 -26.5q-22 0 -40 6t-32.5 13.5t-26.5 13.5t-23 6q-10 0 -17 -6.5t-7 -19.5q0 -9 4 -17h-76zM301 -6
q-53 0 -98.5 14.5t-76.5 49t-45.5 90.5t-5.5 140l44 412h110l-44 -420q-9 -94 22 -141.5t104 -47.5q72 0 112 45.5t51 143.5l44 420h108l-43 -412q-9 -86 -34.5 -143t-63 -90.5t-84.5 -47t-100 -13.5z" />
    <glyph glyph-name="utilde" unicode="&#x169;" horiz-adv-x="528" 
d="M151 564q-8 18 -8 42q0 39 24.5 65t69.5 26q21 0 37.5 -6t31 -13.5t27 -13.5t24.5 -6q11 0 18.5 6.5t7.5 19.5q0 5 -1 10.5t-3 8.5h74q7 -17 7 -41q0 -39 -24 -66t-69 -27q-23 0 -41 6t-31.5 13.5t-24.5 13.5t-21 6q-28 0 -28 -26q0 -12 4 -18h-74zM188 -13
q-75 0 -111.5 45t-27.5 130l34 320h109l-31 -300q-6 -55 14 -77t60 -22q25 0 44 10t32.5 26.5t21 36.5t9.5 39l30 287h110l-37 -354q-2 -23 4.5 -34.5t29.5 -11.5l-9 -82q-4 -1 -17 -3t-33 -2q-41 0 -61 20.5t-17 57.5l1 4q-22 -37 -57.5 -63.5t-97.5 -26.5z" />
    <glyph glyph-name="Umacron" unicode="&#x16a;" horiz-adv-x="648" 
d="M252 853h277l-9 -86h-277zM301 -6q-53 0 -98.5 14.5t-76.5 49t-45.5 90.5t-5.5 140l44 412h110l-44 -420q-9 -94 22 -141.5t104 -47.5q72 0 112 45.5t51 143.5l44 420h108l-43 -412q-9 -86 -34.5 -143t-63 -90.5t-84.5 -47t-100 -13.5z" />
    <glyph glyph-name="umacron" unicode="&#x16b;" horiz-adv-x="528" 
d="M177 679h265l-10 -85h-264zM188 -13q-75 0 -111.5 45t-27.5 130l34 320h109l-31 -300q-6 -55 14 -77t60 -22q25 0 44 10t32.5 26.5t21 36.5t9.5 39l30 287h110l-37 -354q-2 -23 4.5 -34.5t29.5 -11.5l-9 -82q-4 -1 -17 -3t-33 -2q-41 0 -61 20.5t-17 57.5l1 4
q-22 -37 -57.5 -63.5t-97.5 -26.5z" />
    <glyph glyph-name="Ubreve" unicode="&#x16c;" horiz-adv-x="648" 
d="M376 742q-63 0 -93.5 40t-23.5 103h82q-3 -26 7.5 -43.5t36.5 -17.5q29 0 42 17.5t16 43.5h82q-7 -63 -43.5 -103t-105.5 -40zM301 -6q-53 0 -98.5 14.5t-76.5 49t-45.5 90.5t-5.5 140l44 412h110l-44 -420q-9 -94 22 -141.5t104 -47.5q72 0 112 45.5t51 143.5l44 420
h108l-43 -412q-9 -86 -34.5 -143t-63 -90.5t-84.5 -47t-100 -13.5z" />
    <glyph glyph-name="ubreve" unicode="&#x16d;" horiz-adv-x="528" 
d="M297 563q-39 0 -63.5 12t-37.5 32t-16.5 46.5t-0.5 56.5h82q-6 -64 44 -64q51 0 58 64h82q-3 -30 -12.5 -56.5t-27.5 -46.5t-44.5 -32t-63.5 -12zM188 -13q-75 0 -111.5 45t-27.5 130l34 320h109l-31 -300q-6 -55 14 -77t60 -22q25 0 44 10t32.5 26.5t21 36.5t9.5 39
l30 287h110l-37 -354q-2 -23 4.5 -34.5t29.5 -11.5l-9 -82q-4 -1 -17 -3t-33 -2q-41 0 -61 20.5t-17 57.5l1 4q-22 -37 -57.5 -63.5t-97.5 -26.5z" />
    <glyph glyph-name="Uring" unicode="&#x16e;" horiz-adv-x="648" 
d="M376 706q-51 0 -78 30t-27 75q0 27 9 50t25 40t39.5 27t51.5 10q48 0 76 -30.5t28 -75.5q0 -54 -33.5 -90t-90.5 -36zM382 774q23 0 35 15t12 37q0 20 -10.5 31t-29.5 11q-22 0 -34.5 -14.5t-12.5 -37.5q0 -20 10.5 -31t29.5 -11zM301 -6q-53 0 -98.5 14.5t-76.5 49
t-45.5 90.5t-5.5 140l44 412h110l-44 -420q-9 -94 22 -141.5t104 -47.5q72 0 112 45.5t51 143.5l44 420h108l-43 -412q-9 -86 -34.5 -143t-63 -90.5t-84.5 -47t-100 -13.5z" />
    <glyph glyph-name="uring" unicode="&#x16f;" horiz-adv-x="528" 
d="M297 528q-47 0 -74.5 29t-27.5 72q0 52 32.5 87t84.5 35q46 0 73.5 -29t27.5 -72q0 -26 -8.5 -48t-24 -38.5t-37 -26t-46.5 -9.5zM303 596q18 0 30.5 13.5t12.5 33.5q0 17 -10.5 28t-28.5 11q-19 0 -31.5 -12.5t-12.5 -33.5q0 -40 40 -40zM188 -13q-75 0 -111.5 45
t-27.5 130l34 320h109l-31 -300q-6 -55 14 -77t60 -22q25 0 44 10t32.5 26.5t21 36.5t9.5 39l30 287h110l-37 -354q-2 -23 4.5 -34.5t29.5 -11.5l-9 -82q-4 -1 -17 -3t-33 -2q-41 0 -61 20.5t-17 57.5l1 4q-22 -37 -57.5 -63.5t-97.5 -26.5z" />
    <glyph glyph-name="Uhungarumlaut" unicode="&#x170;" horiz-adv-x="648" 
d="M309 886h129l-118 -144h-90zM478 886h129l-117 -144h-90zM301 -6q-53 0 -98.5 14.5t-76.5 49t-45.5 90.5t-5.5 140l44 412h110l-44 -420q-9 -94 22 -141.5t104 -47.5q72 0 112 45.5t51 143.5l44 420h108l-43 -412q-9 -86 -34.5 -143t-63 -90.5t-84.5 -47t-100 -13.5z" />
    <glyph glyph-name="uhungarumlaut" unicode="&#x171;" horiz-adv-x="528" 
d="M235 732h124l-122 -184h-88zM405 732h123l-122 -184h-87zM188 -13q-75 0 -111.5 45t-27.5 130l34 320h109l-31 -300q-6 -55 14 -77t60 -22q25 0 44 10t32.5 26.5t21 36.5t9.5 39l30 287h110l-37 -354q-2 -23 4.5 -34.5t29.5 -11.5l-9 -82q-4 -1 -17 -3t-33 -2
q-41 0 -61 20.5t-17 57.5l1 4q-22 -37 -57.5 -63.5t-97.5 -26.5z" />
    <glyph glyph-name="Uogonek" unicode="&#x172;" horiz-adv-x="648" 
d="M626 700l-43 -412q-7 -73 -26.5 -124.5t-48 -85.5t-64.5 -53t-78 -26q-29 -12 -46.5 -35.5t-17.5 -49.5q0 -31 28 -31q10 0 17.5 3t12.5 7l24 -54q-14 -13 -35 -19.5t-46 -6.5q-45 0 -68.5 20.5t-23.5 58.5q0 29 14 55t39 49q-46 5 -84.5 22.5t-64 52t-37 88t-3.5 129.5
l44 412h110l-44 -420q-9 -94 22 -141.5t104 -47.5q72 0 112 45.5t51 143.5l44 420h108z" />
    <glyph glyph-name="uogonek" unicode="&#x173;" horiz-adv-x="528" 
d="M426 -119q10 0 17.5 3t12.5 7l24 -54q-14 -13 -35 -19.5t-46 -6.5q-45 0 -68.5 20.5t-23.5 58.5q0 32 18 62t48 53q-35 20 -31 68l1 4q-22 -37 -57.5 -63.5t-97.5 -26.5q-75 0 -111.5 45t-27.5 130l34 320h109l-31 -300q-6 -55 14 -77t60 -22q25 0 44 10t32.5 26.5
t21 36.5t9.5 39l30 287h110l-37 -354q-2 -23 4.5 -34.5t29.5 -11.5l-9 -82h-2q-32 -12 -51 -36t-19 -52q0 -31 28 -31z" />
    <glyph glyph-name="Wcircumflex" unicode="&#x174;" horiz-adv-x="901" 
d="M459 886h120l70 -144h-97l-42 73l-56 -73h-96zM62 700h125l57 -576l207 576h103l83 -576l181 576h119l-251 -700h-124l-77 539l-196 -539h-124z" />
    <glyph glyph-name="wcircumflex" unicode="&#x175;" horiz-adv-x="725" 
d="M347 549h-95l105 181h116l67 -181h-96l-38 103zM740 482l-197 -482h-118l-41 295l-5 66l-20 -64l-110 -297h-118l-93 482h115l39 -285l11 -96l31 96l103 285h113l38 -284l10 -97l31 97l102 284h109z" />
    <glyph glyph-name="Ycircumflex" unicode="&#x176;" horiz-adv-x="587" 
d="M304 886h120l70 -144h-97l-42 73l-56 -73h-96zM245 287l-186 413h127l125 -310l191 310h126l-274 -412l-30 -288h-110z" />
    <glyph glyph-name="ycircumflex" unicode="&#x177;" horiz-adv-x="515" 
d="M251 730h116l67 -181h-96l-38 103l-59 -103h-95zM186 -247q-75 0 -121 25.5t-63 70.5l77 57q17 -32 44 -47.5t72 -15.5q58 0 89.5 33t37.5 91l12 109q-24 -39 -64.5 -60.5t-91.5 -21.5q-146 0 -128 173l33 315h109l-31 -294q-10 -99 68 -99q19 0 37.5 9t34.5 25t26.5 37
t13.5 45l29 277h110l-53 -513q-11 -100 -73 -158t-168 -58z" />
    <glyph glyph-name="Ydieresis" unicode="&#x178;" horiz-adv-x="587" 
d="M239 745q-30 0 -47 18.5t-17 45.5q0 35 21 56.5t53 21.5q30 0 47 -18.5t17 -46.5q0 -35 -21 -56t-53 -21zM460 745q-30 0 -47.5 17.5t-17.5 47.5q0 34 21.5 55.5t53.5 21.5q30 0 46.5 -18.5t16.5 -45.5q0 -36 -20 -57t-53 -21zM245 287l-186 413h127l125 -310l191 310
h126l-274 -412l-30 -288h-110z" />
    <glyph glyph-name="Zacute" unicode="&#x179;" horiz-adv-x="565" 
d="M374 742h-103l95 144h138zM568 615l-422 -522h371l-10 -93h-500l9 85l426 522h-368l11 93h493z" />
    <glyph glyph-name="zacute" unicode="&#x17a;" horiz-adv-x="477" 
d="M298 548h-95l99 184h131zM437 395l-221 -153q35 -6 72 -21.5t68 -44t50.5 -71.5t19.5 -104q0 -59 -18.5 -104.5t-50 -76.5t-74 -47.5t-90.5 -16.5q-89 0 -139.5 44t-50.5 122q0 47 15 85.5t38.5 68.5t52.5 51.5t56 36.5q-18 2 -37.5 3.5t-39.5 1.5l9 85l201 138h-239
l10 90h378zM329 -11q0 57 -22 93t-59 56q-25 -13 -50.5 -31t-46 -42t-33 -54t-12.5 -67q0 -46 26.5 -71.5t71.5 -25.5q26 0 48.5 9.5t39.5 27.5t27 44.5t10 60.5z" />
    <glyph glyph-name="Zdotaccent" unicode="&#x17b;" horiz-adv-x="565" 
d="M334 743q-29 0 -46.5 19t-17.5 48q0 32 24 55t56 23q28 0 45.5 -19.5t17.5 -47.5q0 -32 -23 -55t-56 -23zM568 615l-422 -522h371l-10 -93h-500l9 85l426 522h-368l11 93h493z" />
    <glyph glyph-name="zdotaccent" unicode="&#x17c;" horiz-adv-x="477" 
d="M270 569q-32 0 -48.5 18.5t-16.5 45.5q0 31 20 54.5t57 23.5q32 0 48 -19.5t16 -45.5q0 -32 -20 -54.5t-56 -22.5zM437 395l-221 -153q35 -6 72 -21.5t68 -44t50.5 -71.5t19.5 -104q0 -59 -18.5 -104.5t-50 -76.5t-74 -47.5t-90.5 -16.5q-89 0 -139.5 44t-50.5 122
q0 47 15 85.5t38.5 68.5t52.5 51.5t56 36.5q-18 2 -37.5 3.5t-39.5 1.5l9 85l201 138h-239l10 90h378zM329 -11q0 57 -22 93t-59 56q-25 -13 -50.5 -31t-46 -42t-33 -54t-12.5 -67q0 -46 26.5 -71.5t71.5 -25.5q26 0 48.5 9.5t39.5 27.5t27 44.5t10 60.5z" />
    <glyph glyph-name="Zcaron" unicode="&#x17d;" horiz-adv-x="565" 
d="M276 742l-70 144h97l41 -73l57 73h96l-101 -144h-120zM568 615l-422 -522h371l-10 -93h-500l9 85l426 522h-368l11 93h493z" />
    <glyph glyph-name="zcaron" unicode="&#x17e;" horiz-adv-x="477" 
d="M207 549l-67 181h96l38 -103l59 103h95l-105 -181h-116zM437 395l-221 -153q35 -6 72 -21.5t68 -44t50.5 -71.5t19.5 -104q0 -59 -18.5 -104.5t-50 -76.5t-74 -47.5t-90.5 -16.5q-89 0 -139.5 44t-50.5 122q0 47 15 85.5t38.5 68.5t52.5 51.5t56 36.5q-18 2 -37.5 3.5
t-39.5 1.5l9 85l201 138h-239l10 90h378zM329 -11q0 57 -22 93t-59 56q-25 -13 -50.5 -31t-46 -42t-33 -54t-12.5 -67q0 -46 26.5 -71.5t71.5 -25.5q26 0 48.5 9.5t39.5 27.5t27 44.5t10 60.5z" />
    <glyph glyph-name="uni018F" unicode="&#x18f;" horiz-adv-x="641" 
d="M354 708q122 0 192 -76.5t70 -218.5q0 -102 -23 -180.5t-65 -132t-101.5 -81t-133.5 -27.5q-122 0 -188.5 73t-66.5 204q0 35 3.5 57t8.5 45h450q1 9 1 18.5v19.5q0 100 -42 151t-114 51q-61 0 -98.5 -26t-67.5 -69l-84 47q19 31 43.5 57.5t56 46t71 30.5t88.5 11z
M306 87q72 0 119.5 50.5t65.5 147.5h-340q-5 -91 31.5 -144.5t123.5 -53.5z" />
    <glyph glyph-name="florin" unicode="&#x192;" horiz-adv-x="413" 
d="M4 -180q-43 0 -70.5 15.5t-43.5 40.5l64 68q15 -29 47 -29q35 0 57 24.5t27 72.5l37 353h-68l10 87h68l6 59q9 91 59 140t135 49q36 0 65.5 -12t48.5 -33l-55 -73q-12 12 -24.5 17.5t-33.5 5.5q-36 0 -58 -25t-27 -73l-6 -55h148l-10 -87h-148l-37 -356q-10 -91 -60 -140
t-131 -49z" />
    <glyph glyph-name="uni019D" unicode="&#x19d;" horiz-adv-x="656" 
d="M627 700l-74 -700h-97l-236 485l-9 29l-54 -514l-3 -28q-11 -103 -64.5 -149t-137.5 -46q-42 0 -73 11.5t-47 33.5l73 86q20 -26 62 -26q29 0 52.5 18.5t28.5 60.5l5 39l74 700h96l233 -484l12 -34l54 518h105z" />
    <glyph glyph-name="Gcaron" unicode="&#x1e6;" horiz-adv-x="635" 
d="M254 886h97l41 -73l57 73h96l-101 -144h-120zM319 -11q-130 0 -200.5 77t-70.5 226q0 97 24 174t68 131t107 82.5t141 28.5q104 0 161.5 -46.5t57.5 -129.5q0 -20 -3.5 -36t-8.5 -28h-105q2 5 4 15.5t2 28.5q0 48 -32 74t-90 26q-99 0 -154 -80.5t-55 -229.5
q0 -104 43.5 -161t125.5 -57q56 0 89.5 13.5t48.5 28.5l14 133h-142l10 95h245l-30 -275q-14 -15 -36.5 -30.5t-54 -29t-71.5 -22t-88 -8.5z" />
    <glyph glyph-name="gcaron" unicode="&#x1e7;" horiz-adv-x="525" 
d="M168 730h96l38 -103l59 103h95l-105 -181h-116zM198 -240q-69 0 -114.5 23.5t-69.5 68.5l75 62q16 -29 42.5 -46.5t74.5 -17.5q54 0 87 32t39 92l10 90q-17 -31 -50.5 -54t-92.5 -23q-79 0 -122.5 58t-43.5 156q0 64 16.5 118t46 93t70.5 61t91 22q45 0 77 -18.5
t52 -52.5l7 58h97l-53 -508q-11 -100 -71 -157t-168 -57zM239 79q42 0 69.5 25t41.5 67l15 141q-1 17 -7 33t-17.5 29.5t-28 21.5t-39.5 8q-31 0 -55 -14.5t-40.5 -41t-24.5 -62.5t-8 -79q0 -60 23.5 -94t70.5 -34z" />
    <glyph glyph-name="uni01EA" unicode="&#x1ea;" horiz-adv-x="687" 
d="M375 -5q-27 -13 -43.5 -35t-16.5 -48q0 -31 28 -31q10 0 17.5 3t12.5 7l24 -54q-14 -13 -35 -19.5t-46 -6.5q-45 0 -68.5 20.5t-23.5 58.5q0 29 14 55.5t40 49.5q-48 6 -90 26.5t-73 56.5t-49 89t-18 125q0 109 27 187.5t73.5 129.5t108.5 75t131 24q56 0 105.5 -17.5
t87 -54.5t59.5 -94.5t22 -137.5q0 -98 -22 -171t-61 -123.5t-91.5 -78.5t-112.5 -36zM164 300q0 -60 13.5 -100.5t37 -65t54.5 -35.5t65 -11q44 0 82.5 17t67 54.5t45 96t17.5 142.5q0 60 -14 101t-37 66t-53.5 36t-63.5 11q-44 0 -82.5 -17t-67.5 -54.5t-46 -97t-18 -143.5
z" />
    <glyph glyph-name="uni01EB" unicode="&#x1eb;" horiz-adv-x="512" 
d="M281 -9q-23 -14 -37 -35t-14 -44q0 -31 28 -31q10 0 17.5 3t12.5 7l24 -54q-14 -13 -35 -19.5t-46 -6.5q-45 0 -68.5 20.5t-23.5 58.5q0 28 13.5 53.5t36.5 47.5q-76 14 -116 70t-40 144q0 66 17.5 119.5t49.5 91.5t77.5 58.5t101.5 20.5q97 0 149 -59t52 -159
q0 -58 -14 -106.5t-40 -86t-63 -61.5t-82 -32zM145 210q0 -63 24.5 -97t74.5 -34q57 0 90.5 50.5t33.5 141.5q0 64 -25.5 98.5t-73.5 34.5q-56 0 -90 -50.5t-34 -143.5z" />
    <glyph glyph-name="Aringacute" unicode="&#x1fa;" horiz-adv-x="619" 
d="M434 183h-260l-81 -183h-113l313 679q-40 29 -40 86q0 42 21 74.5t58 45.5l72 110h139l-107 -118q22 -14 34 -37.5t12 -52.5q0 -37 -16 -66t-45 -46l167 -675h-113zM372 823q-23 0 -35.5 -14.5t-12.5 -37.5q0 -20 10.5 -31.5t29.5 -11.5q23 0 35 15t12 38q0 20 -10.5 31
t-28.5 11zM414 272l-67 302l-134 -302h201z" />
    <glyph glyph-name="aringacute" unicode="&#x1fb;" horiz-adv-x="538" 
d="M298 528q-46 0 -74 29t-28 72q0 46 26.5 79t69.5 41l71 134h131l-114 -155q34 -28 34 -78q0 -52 -32.5 -87t-83.5 -35zM309 682q-20 0 -32.5 -12.5t-12.5 -33.5q0 -19 11 -29.5t29 -10.5t30.5 13.5t12.5 33.5q0 17 -10.5 28t-27.5 11zM454 131q-3 -27 4.5 -38t29.5 -11
l-9 -81q-7 -2 -20.5 -4t-28.5 -2q-40 0 -60.5 19.5t-19.5 53.5l-1 3q-23 -38 -59.5 -61t-92.5 -23q-79 0 -121.5 58t-42.5 156q0 64 16 118t46 93t72 61t93 22q88 0 125 -65l6 52h99zM365 312q-2 17 -8 33t-17.5 29.5t-28 21.5t-39.5 8q-30 0 -54 -14.5t-40 -40.5
t-24.5 -61.5t-8.5 -78.5q0 -61 22.5 -95.5t70.5 -34.5q39 0 68.5 25t43.5 67z" />
    <glyph glyph-name="AEacute" unicode="&#x1fc;" horiz-adv-x="806" 
d="M541 886h138l-130 -144h-103zM302 700h514l-11 -93h-369l53 -215h231l-11 -93h-196l49 -206h190l-10 -93h-273l-43 185h-252l-80 -185h-115zM404 275l-64 287l-124 -287h188z" />
    <glyph glyph-name="aeacute" unicode="&#x1fd;" horiz-adv-x="756" 
d="M442 548h-95l99 184h131zM426 229v-20q0 -131 103 -131q39 0 66 17.5t46 43.5l63 -53q-11 -17 -28.5 -34.5t-41.5 -32t-54 -23.5t-66 -9q-64 0 -107.5 26.5t-65.5 75.5q-38 -55 -85 -78t-104 -23q-67 0 -102.5 31.5t-35.5 86.5q0 70 49 109.5t151 39.5h104l7 62
q9 89 -74 89q-87 0 -87 -78q0 -19 5 -29h-98q-2 4 -4.5 14.5t-2.5 25.5q0 70 53.5 113t147.5 43q53 0 87.5 -18t54.5 -47q29 30 67.5 47.5t84.5 17.5q84 0 125.5 -50t41.5 -138q0 -32 -2.5 -48.5t-4.5 -29.5h-293zM544 406q-49 0 -74 -30.5t-35 -75.5h187q5 47 -14 76.5
t-64 29.5zM185 72q40 0 72.5 25.5t51.5 67.5l2 24l-102 -1q-42 0 -62 -17.5t-20 -46.5q0 -25 15.5 -38.5t42.5 -13.5z" />
    <glyph glyph-name="Oslashacute" unicode="&#x1fe;" horiz-adv-x="687" 
d="M401 742h-103l95 144h138zM599 616q29 -37 46 -89.5t17 -122.5q0 -108 -27 -186t-73 -128.5t-108 -74t-131 -23.5q-43 0 -82 9.5t-72 29.5l-35 -47h-100l75 101q-29 36 -45 87t-16 120q0 109 27 187.5t73.5 129.5t108.5 75t131 24q85 0 151 -39l35 47h99zM164 300
q0 -71 19 -115l292 397q-21 16 -46 23t-51 7q-44 0 -82.5 -17t-67.5 -54.5t-46 -97t-18 -143.5zM546 398q0 72 -20 118l-293 -398q21 -16 47 -23t54 -7q44 0 82.5 17t67 54.5t45 96t17.5 142.5z" />
    <glyph glyph-name="oslashacute" unicode="&#x1ff;" horiz-adv-x="512" 
d="M301 548h-95l99 184h131zM435 428q45 -59 45 -151q0 -65 -17.5 -118.5t-49.5 -91.5t-77 -59t-100 -21q-64 0 -108 26l-29 -39h-83l61 82q-44 56 -44 149q0 66 17.5 119.5t49.5 91.5t77.5 58.5t101.5 20.5q61 0 106 -25l28 38h81zM145 210q0 -31 6 -55l173 233
q-22 16 -55 16q-56 0 -90 -50.5t-34 -143.5zM368 271q0 34 -7 58l-173 -234q22 -16 56 -16q57 0 90.5 50.5t33.5 141.5z" />
    <glyph glyph-name="uni0218" unicode="&#x218;" horiz-adv-x="569" 
d="M269 -8q-94 0 -157.5 28t-100.5 88l81 70q31 -47 75.5 -69.5t113.5 -22.5q63 0 100.5 26.5t37.5 80.5q0 23 -7.5 40.5t-25.5 31t-47 24.5t-73 21q-41 10 -76.5 24t-61 36t-40 53t-14.5 74q0 99 67.5 155t187.5 56q43 0 82.5 -8.5t70 -28t48.5 -50t18 -75.5q0 -24 -3 -35
t-7 -22l-102 1q4 11 5.5 18t1.5 18q0 47 -33.5 67.5t-90.5 20.5q-68 0 -101.5 -27t-33.5 -75q0 -24 8 -40t26.5 -27.5t48 -20.5t71.5 -20q98 -25 145 -69.5t47 -130.5q0 -102 -70.5 -157t-190.5 -55zM186 -208q24 8 37 20.5t15 24.5q-49 14 -49 60q0 30 19.5 48.5t48.5 18.5
t47.5 -18.5t18.5 -53.5q0 -23 -8.5 -46t-24.5 -43t-37 -35.5t-47 -22.5z" />
    <glyph glyph-name="uni0219" unicode="&#x219;" horiz-adv-x="461" 
d="M202 -13q-60 0 -113 20t-85 68l71 70q29 -42 65 -55.5t76 -13.5q95 0 95 54q0 29 -29 42t-77 24q-27 6 -54 16.5t-48.5 27t-35 40.5t-13.5 59q0 74 52.5 115t150.5 41q80 0 127 -32.5t47 -94.5q0 -17 -4 -33t-9 -27h-99q4 8 6.5 19.5t2.5 21.5q0 32 -22 45t-59 13
q-45 0 -65.5 -15.5t-20.5 -41.5q0 -17 6.5 -28t20.5 -18.5t35.5 -13t50.5 -12.5q26 -6 51.5 -15t46 -24t33.5 -38t13 -56q0 -79 -58.5 -118.5t-157.5 -39.5zM134 -208q24 8 37 20.5t15 24.5q-49 14 -49 60q0 30 19.5 48.5t48.5 18.5t47.5 -18.5t18.5 -53.5q0 -23 -8.5 -46
t-24.5 -43t-37 -35.5t-47 -22.5z" />
    <glyph glyph-name="uni021A" unicode="&#x21a;" horiz-adv-x="534" 
d="M251 599h-199l11 101h507l-11 -101h-198l-62 -599h-110zM167 -208q24 8 37 20.5t15 24.5q-49 14 -49 60q0 30 19.5 48.5t48.5 18.5t47.5 -18.5t18.5 -53.5q0 -23 -8.5 -46t-24.5 -43t-37 -35.5t-47 -22.5z" />
    <glyph glyph-name="uni021B" unicode="&#x21b;" horiz-adv-x="401" 
d="M244 -6q-89 0 -125.5 47t-26.5 142l22 208h-84l10 91h88l13 140h106l-14 -140h166l-10 -91h-166l-21 -200q-10 -97 69 -97q20 0 37.5 7t30.5 17l40 -79q-23 -20 -60 -32.5t-75 -12.5zM145 -208q24 8 37 20.5t15 24.5q-49 14 -49 60q0 30 19.5 48.5t48.5 18.5t47.5 -18.5
t18.5 -53.5q0 -23 -8.5 -46t-24.5 -43t-37 -35.5t-47 -22.5z" />
    <glyph glyph-name="uni0232" unicode="&#x232;" horiz-adv-x="587" 
d="M222 853h277l-9 -86h-277zM245 287l-186 413h127l125 -310l191 310h126l-274 -412l-30 -288h-110z" />
    <glyph glyph-name="uni0233" unicode="&#x233;" horiz-adv-x="515" 
d="M172 679h265l-10 -85h-264zM186 -247q-75 0 -121 25.5t-63 70.5l77 57q17 -32 44 -47.5t72 -15.5q58 0 89.5 33t37.5 91l12 109q-24 -39 -64.5 -60.5t-91.5 -21.5q-146 0 -128 173l33 315h109l-31 -294q-10 -99 68 -99q19 0 37.5 9t34.5 25t26.5 37t13.5 45l29 277h110
l-53 -513q-11 -100 -73 -158t-168 -58z" />
    <glyph glyph-name="uni0237" unicode="&#x237;" horiz-adv-x="237" 
d="M-48 -247q-24 0 -40.5 4.5t-27.5 10.5q-12 7 -20 15l41 78q5 -4 12 -7q6 -2 14 -4t19 -2q75 0 86 106l56 528h108l-56 -533q-9 -89 -55 -142.5t-137 -53.5z" />
    <glyph glyph-name="uni0259" unicode="&#x259;" horiz-adv-x="472" 
d="M253 495q87 0 137 -52t50 -156q0 -67 -16.5 -122.5t-47.5 -95t-74.5 -61t-97.5 -21.5q-87 0 -132.5 50.5t-45.5 139.5q0 32 3 49t6 31h294v24q0 68 -23 95.5t-65 27.5q-37 0 -61 -16.5t-43 -43.5l-75 44q26 45 74 76t117 31zM212 76q42 0 70 26.5t39 83.5h-188
q-5 -49 14 -79.5t65 -30.5z" />
    <glyph glyph-name="uni0272" unicode="&#x272;" horiz-adv-x="538" 
d="M461 128q-6 -46 34 -46l-9 -81q-7 -2 -20.5 -3.5t-28.5 -1.5q-51 0 -72 28t-16 81l20 193q5 51 -15 76t-59 25q-44 0 -74 -32t-35 -86l-29 -281l-4 -35q-26 -188 -202 -188q-42 0 -73 11.5t-47 31.5l73 86q8 -11 23.5 -18t34.5 -7q34 0 53.5 20t27.5 64l4 35l38 357
q2 24 -6 34.5t-28 10.5l8 82q8 2 21.5 3.5t28.5 1.5q40 0 58 -20.5t20 -55.5v-2q21 38 58 61t90 23q78 0 116.5 -49.5t28.5 -140.5z" />
    <glyph glyph-name="circumflex" unicode="&#x2c6;" horiz-adv-x="346" 
d="M165 730h116l67 -181h-96l-38 103l-59 -103h-95z" />
    <glyph glyph-name="caron" unicode="&#x2c7;" horiz-adv-x="336" 
d="M74 730h96l38 -103l58 103h95l-104 -181h-116z" />
    <glyph glyph-name="breve" unicode="&#x2d8;" horiz-adv-x="321" 
d="M195 563q-39 0 -63 12t-37.5 32t-17 46.5t-0.5 56.5h83q-7 -64 43 -64q52 0 58 64h82q-3 -30 -12.5 -56.5t-27.5 -46.5t-44.5 -32t-63.5 -12z" />
    <glyph glyph-name="dotaccent" unicode="&#x2d9;" horiz-adv-x="186" 
d="M122 569q-32 0 -48.5 18.5t-16.5 45.5q0 31 20 54.5t57 23.5q32 0 48 -19.5t16 -45.5q0 -32 -20 -54.5t-56 -22.5z" />
    <glyph glyph-name="ring" unicode="&#x2da;" horiz-adv-x="253" 
d="M160 528q-47 0 -74.5 29t-27.5 72q0 52 32.5 87t84.5 35q46 0 73.5 -29t27.5 -72q0 -52 -32.5 -87t-83.5 -35zM166 596q18 0 30.5 13.5t12.5 33.5q0 17 -10.5 28t-28.5 11q-19 0 -31.5 -12.5t-12.5 -33.5q0 -40 40 -40z" />
    <glyph glyph-name="ogonek" unicode="&#x2db;" horiz-adv-x="243" 
d="M80 -188q-45 0 -68 20.5t-23 58.5q0 48 37 89t97 63l28 -42q-32 -11 -52 -35.5t-20 -52.5q0 -17 8 -24t21 -7q10 0 17.5 3t12.5 7l23 -54q-14 -13 -35 -19.5t-46 -6.5z" />
    <glyph glyph-name="tilde" unicode="&#x2dc;" horiz-adv-x="385" 
d="M85 564q-7 15 -7 42q0 39 24 65t69 26q21 0 37.5 -6t31 -13.5t27 -13.5t24.5 -6t19.5 6.5t7.5 19.5q0 12 -5 19h74q8 -19 8 -41q0 -39 -24.5 -66t-69.5 -27q-23 0 -40.5 6t-31.5 13.5t-25 13.5t-21 6q-28 0 -28 -26q0 -13 5 -18h-75z" />
    <glyph glyph-name="hungarumlaut" unicode="&#x2dd;" horiz-adv-x="416" 
d="M148 732h124l-122 -184h-87zM318 732h124l-123 -184h-87z" />
    <glyph glyph-name="gravecomb" unicode="&#x300;" 
d="M-193 732h128l60 -184h-92z" />
    <glyph glyph-name="acutecomb" unicode="&#x301;" 
d="M-112 732h131l-135 -184h-95z" />
    <glyph glyph-name="uni0302" unicode="&#x302;" 
d="M-186 730h116l67 -181h-96l-38 103l-59 -103h-95z" />
    <glyph glyph-name="tildecomb" unicode="&#x303;" 
d="M-311 564q-8 18 -8 42q0 39 24.5 65t69.5 26q21 0 37.5 -6t31 -13.5t27 -13.5t24.5 -6q11 0 18.5 6.5t7.5 19.5q0 5 -1 10.5t-3 8.5h74q7 -17 7 -41q0 -39 -24 -66t-69 -27q-23 0 -41 6t-31.5 13.5t-24.5 13.5t-21 6q-28 0 -28 -26q0 -12 4 -18h-74z" />
    <glyph glyph-name="uni0304" unicode="&#x304;" 
d="M-280 679h265l-10 -85h-264z" />
    <glyph glyph-name="uni0306" unicode="&#x306;" 
d="M-130 563q-39 0 -63.5 12t-37.5 32t-16.5 46.5t-0.5 56.5h82q-6 -64 44 -64q51 0 58 64h82q-3 -30 -12.5 -56.5t-27.5 -46.5t-44.5 -32t-63.5 -12z" />
    <glyph glyph-name="uni0307" unicode="&#x307;" 
d="M-50 569q-32 0 -48.5 18.5t-16.5 45.5q0 31 20 54.5t57 23.5q32 0 48 -19.5t16 -45.5q0 -32 -20 -54.5t-56 -22.5z" />
    <glyph glyph-name="uni0308" unicode="&#x308;" 
d="M-248 563q-32 0 -47.5 18t-15.5 45q0 30 19.5 52t55.5 22q30 0 45.5 -18.5t15.5 -43.5q0 -31 -19 -53t-54 -22zM-55 563q-31 0 -47 18t-16 45q0 30 19.5 52t55.5 22q31 0 46.5 -18.5t15.5 -43.5q0 -31 -19.5 -53t-54.5 -22z" />
    <glyph glyph-name="uni030A" unicode="&#x30a;" 
d="M-100 528q-47 0 -74.5 29t-27.5 72q0 52 32.5 87t84.5 35q46 0 73.5 -29t27.5 -72q0 -26 -8.5 -48t-24 -38.5t-37 -26t-46.5 -9.5zM-94 596q18 0 30.5 13.5t12.5 33.5q0 17 -10.5 28t-28.5 11q-19 0 -31.5 -12.5t-12.5 -33.5q0 -40 40 -40z" />
    <glyph glyph-name="uni030B" unicode="&#x30b;" 
d="M-265 732h124l-122 -184h-88zM-95 732h123l-122 -184h-87z" />
    <glyph glyph-name="uni030C" unicode="&#x30c;" 
d="M-262 730h96l38 -103l59 103h95l-105 -181h-116z" />
    <glyph glyph-name="uni0312" unicode="&#x312;" 
d="M-54 542q-29 0 -45 17t-16 47q0 24 8.5 47.5t23.5 44t35 36t44 23.5l23 -47q-23 -7 -38.5 -19.5t-17.5 -24.5q23 -1 37.5 -16.5t14.5 -38.5q0 -29 -20 -49t-49 -20z" />
    <glyph glyph-name="dotbelowcomb" unicode="&#x323;" 
d="M-133 -194q-32 0 -48.5 19t-16.5 46q0 31 20 54t58 23q31 0 47 -19.5t16 -45.5q0 -31 -20 -54t-56 -23z" />
    <glyph glyph-name="uni0326" unicode="&#x326;" 
d="M-204 -208q24 8 37 20.5t15 24.5q-49 14 -49 60q0 30 19.5 48.5t48.5 18.5t47.5 -18.5t18.5 -53.5q0 -23 -8.5 -46t-24.5 -43t-37.5 -35.5t-46.5 -22.5z" />
    <glyph glyph-name="uni0327" unicode="&#x327;" 
d="M-175 -210q-67 0 -102 35l43 53q23 -21 52 -21q35 0 35 28q0 16 -18 24.5t-47 10.5l38 84h67l-16 -39q26 -8 46.5 -27t20.5 -55q0 -48 -34.5 -70.5t-84.5 -22.5z" />
    <glyph glyph-name="uni0328" unicode="&#x328;" 
d="M-179 -188q-45 0 -68.5 20.5t-23.5 58.5q0 48 37.5 89t96.5 63l28 -42q-32 -11 -51.5 -35.5t-19.5 -52.5q0 -31 28 -31q10 0 17.5 3t12.5 7l24 -54q-14 -13 -35 -19.5t-46 -6.5z" />
    <glyph glyph-name="uni0335" unicode="&#x335;" 
d="M-290 400h290l-9 -88h-290z" />
    <glyph glyph-name="uni0336" unicode="&#x336;" 
d="M-626 586h638l-8 -78h-638z" />
    <glyph glyph-name="uni0337" unicode="&#x337;" 
d="M-318 342l291 164l34 -70l-293 -164z" />
    <glyph glyph-name="uni0338" unicode="&#x338;" 
d="M-58 509h81l-395 -534h-83z" />
    <glyph glyph-name="Wgrave" unicode="&#x1e80;" horiz-adv-x="901" 
d="M359 886h136l65 -144h-100zM62 700h125l57 -576l207 576h103l83 -576l181 576h119l-251 -700h-124l-77 539l-196 -539h-124z" />
    <glyph glyph-name="wgrave" unicode="&#x1e81;" horiz-adv-x="725" 
d="M348 548l-96 184h128l60 -184h-92zM740 482l-197 -482h-118l-41 295l-5 66l-20 -64l-110 -297h-118l-93 482h115l39 -285l11 -96l31 96l103 285h113l38 -284l10 -97l31 97l102 284h109z" />
    <glyph glyph-name="Wacute" unicode="&#x1e82;" horiz-adv-x="901" 
d="M536 886h138l-130 -144h-103zM62 700h125l57 -576l207 576h103l83 -576l181 576h119l-251 -700h-124l-77 539l-196 -539h-124z" />
    <glyph glyph-name="wacute" unicode="&#x1e83;" horiz-adv-x="725" 
d="M429 548h-95l99 184h131zM740 482l-197 -482h-118l-41 295l-5 66l-20 -64l-110 -297h-118l-93 482h115l39 -285l11 -96l31 96l103 285h113l38 -284l10 -97l31 97l102 284h109z" />
    <glyph glyph-name="Wdieresis" unicode="&#x1e84;" horiz-adv-x="901" 
d="M394 745q-30 0 -47 18.5t-17 45.5q0 35 21 56.5t53 21.5q30 0 47 -18.5t17 -46.5q0 -35 -21 -56t-53 -21zM615 745q-30 0 -47.5 17.5t-17.5 47.5q0 34 21.5 55.5t53.5 21.5q30 0 46.5 -18.5t16.5 -45.5q0 -36 -20 -57t-53 -21zM62 700h125l57 -576l207 576h103l83 -576
l181 576h119l-251 -700h-124l-77 539l-196 -539h-124z" />
    <glyph glyph-name="wdieresis" unicode="&#x1e85;" horiz-adv-x="725" 
d="M304 569q-32 0 -47.5 18t-15.5 45q0 30 19.5 52t55.5 22q30 0 45.5 -18.5t15.5 -43.5q0 -31 -19 -53t-54 -22zM497 569q-31 0 -47 18t-16 45q0 30 19.5 52t55.5 22q31 0 46.5 -18.5t15.5 -43.5q0 -31 -19.5 -53t-54.5 -22zM740 482l-197 -482h-118l-41 295l-5 66l-20 -64
l-110 -297h-118l-93 482h115l39 -285l11 -96l31 96l103 285h113l38 -284l10 -97l31 97l102 284h109z" />
    <glyph glyph-name="uni1E9E" unicode="&#x1e9e;" horiz-adv-x="630" 
d="M418 394q50 -10 83.5 -28.5t54 -43.5t29.5 -55t9 -62q0 -101 -63 -157t-172 -56q-59 0 -104 17t-68 49l67 76q42 -49 113 -49q58 0 88 29t30 80q0 24 -9 45t-31 37t-58 26.5t-89 14.5l7 86l181 183q-25 11 -55 17t-70 6q-63 0 -107 -37t-51 -106l-49 -466h-108l51 471
q6 54 28.5 98t59 74.5t84 47t102.5 16.5q74 0 129 -17.5t96 -47.5l-8 -80z" />
    <glyph glyph-name="uni1EA0" unicode="&#x1ea0;" horiz-adv-x="619" 
d="M475 0l-41 183h-260l-81 -183h-113l323 700h112l173 -700h-113zM414 272l-67 302l-134 -302h201zM284 -52q31 0 47 -19.5t16 -45.5q0 -31 -20 -54t-56 -23q-32 0 -48.5 19t-16.5 46q0 31 20 54t58 23z" />
    <glyph glyph-name="uni1EA1" unicode="&#x1ea1;" horiz-adv-x="537" 
d="M197 -13q-79 0 -121.5 58t-42.5 156q0 64 16 118t46 93t72 61t93 22q88 0 125 -65l6 52h99l-36 -351q-3 -27 4.5 -38t29.5 -11l-9 -81q-7 -2 -20.5 -4t-28.5 -2q-40 0 -60.5 19.5t-19.5 53.5l-1 3q-23 -38 -59.5 -61t-92.5 -23zM238 79q39 0 68.5 25t43.5 67l15 141
q-2 17 -8 33t-17.5 29.5t-28 21.5t-39.5 8q-30 0 -54 -14.5t-40 -40.5t-24.5 -61.5t-8.5 -78.5q0 -61 22.5 -95.5t70.5 -34.5zM226 -194q-32 0 -48.5 19t-16.5 46q0 31 20 54t58 23q31 0 47 -19.5t16 -45.5q0 -31 -20 -54t-56 -23z" />
    <glyph glyph-name="uni1EB8" unicode="&#x1eb8;" horiz-adv-x="550" 
d="M127 700h431l-11 -98h-320l-21 -198h273l-10 -98h-274l-21 -208h321l-11 -98h-431zM270 -194q-32 0 -48.5 19t-16.5 46q0 31 20 54t58 23q31 0 47 -19.5t16 -45.5q0 -31 -20 -54t-56 -23z" />
    <glyph glyph-name="uni1EB9" unicode="&#x1eb9;" horiz-adv-x="466" 
d="M241 78q40 0 68 15t54 48l61 -55q-38 -53 -90 -76t-115 -23q-89 2 -138.5 56.5t-49.5 154.5q0 66 19 120.5t53 93.5t80.5 61t101.5 22q74 0 114 -35.5t40 -95.5q0 -56 -26 -90.5t-68 -54t-95 -27.5t-107 -11q5 -52 30.5 -77.5t67.5 -25.5zM276 405q-48 0 -84 -40
t-47 -109q33 1 67 4.5t61 13.5t44 28.5t17 48.5q0 54 -58 54zM210 -52q31 0 47 -19.5t16 -45.5q0 -31 -20 -54t-56 -23q-32 0 -48.5 19t-16.5 46q0 31 20 54t58 23z" />
    <glyph glyph-name="uni1EBC" unicode="&#x1ebc;" horiz-adv-x="550" 
d="M207 745q-7 15 -7 42q0 39 25.5 65t68.5 26q21 0 38.5 -6t32.5 -13.5t28 -13.5t25 -6q26 0 26 28q0 11 -4 16h77q3 -8 4.5 -19.5t1.5 -22.5q0 -39 -25 -65.5t-73 -26.5q-22 0 -40 6t-32.5 13.5t-26.5 13.5t-23 6q-10 0 -17 -6.5t-7 -19.5q0 -9 4 -17h-76zM127 700h431
l-11 -98h-320l-21 -198h273l-10 -98h-274l-21 -208h321l-11 -98h-431z" />
    <glyph glyph-name="uni1EBD" unicode="&#x1ebd;" horiz-adv-x="466" 
d="M132 564q-8 18 -8 42q0 39 24.5 65t69.5 26q21 0 37.5 -6t31 -13.5t27 -13.5t24.5 -6q11 0 18.5 6.5t7.5 19.5q0 5 -1 10.5t-3 8.5h74q7 -17 7 -41q0 -39 -24 -66t-69 -27q-23 0 -41 6t-31.5 13.5t-24.5 13.5t-21 6q-28 0 -28 -26q0 -12 4 -18h-74zM439 364
q0 -56 -26 -90.5t-68 -54t-95 -27.5t-107 -11q5 -52 30.5 -77.5t67.5 -25.5q40 0 68 15t54 48l61 -55q-38 -53 -90 -76t-115 -23q-89 2 -138.5 56.5t-49.5 154.5q0 66 19 120.5t53 93.5t80.5 61t101.5 22q74 0 114 -35.5t40 -95.5zM145 256q33 1 67 4.5t61 13.5t44 28.5
t17 48.5q0 54 -58 54q-48 0 -84 -40t-47 -109z" />
    <glyph glyph-name="uni1ECA" unicode="&#x1eca;" horiz-adv-x="266" 
d="M127 700h110l-74 -700h-110zM94 -194q-32 0 -48.5 19t-16.5 46q0 31 20 54t58 23q31 0 47 -19.5t16 -45.5q0 -31 -20 -54t-56 -23z" />
    <glyph glyph-name="uni1ECB" unicode="&#x1ecb;" horiz-adv-x="245" 
d="M155 569q-32 0 -48.5 18.5t-16.5 45.5q0 31 20 54.5t57 23.5q32 0 48 -19.5t16 -45.5q0 -32 -20 -54.5t-56 -22.5zM140 -4q-54 0 -76 30t-17 84l39 372h111l-37 -349q-3 -28 4.5 -39t32.5 -11l-9 -81q-4 -2 -17.5 -4t-30.5 -2zM92 -194q-32 0 -48.5 19t-16.5 46
q0 31 20 54t58 23q31 0 47 -19.5t16 -45.5q0 -31 -20 -54t-56 -23z" />
    <glyph glyph-name="uni1ECC" unicode="&#x1ecc;" horiz-adv-x="687" 
d="M323 -8q-56 0 -106 17t-87.5 53t-59.5 93t-22 137q0 109 27 187.5t73.5 129.5t108.5 75t131 24q56 0 105.5 -17.5t87 -54.5t59.5 -94.5t22 -137.5q0 -108 -27 -186t-73 -128.5t-108 -74t-131 -23.5zM334 88q44 0 82.5 17t67 54.5t45 96t17.5 142.5q0 60 -14 101t-37 66
t-53.5 36t-63.5 11q-44 0 -82.5 -17t-67.5 -54.5t-46 -97t-18 -143.5q0 -60 13.5 -100.5t37 -65t54.5 -35.5t65 -11zM304 -194q-32 0 -48.5 19t-16.5 46q0 31 20 54t58 23q31 0 47 -19.5t16 -45.5q0 -31 -20 -54t-56 -23z" />
    <glyph glyph-name="uni1ECD" unicode="&#x1ecd;" horiz-adv-x="512" 
d="M236 -13q-99 0 -151 59t-52 159q0 66 17.5 119.5t49.5 91.5t77.5 58.5t101.5 20.5q97 0 149 -59t52 -159q0 -65 -17.5 -118.5t-49.5 -91.5t-77 -59t-100 -21zM244 79q57 0 90.5 50.5t33.5 141.5q0 64 -25.5 98.5t-73.5 34.5q-56 0 -90 -50.5t-34 -143.5q0 -63 24.5 -97
t74.5 -34zM217 -194q-32 0 -48.5 19t-16.5 46q0 31 20 54t58 23q31 0 47 -19.5t16 -45.5q0 -31 -20 -54t-56 -23z" />
    <glyph glyph-name="uni1EE4" unicode="&#x1ee4;" horiz-adv-x="648" 
d="M301 -6q-53 0 -98.5 14.5t-76.5 49t-45.5 90.5t-5.5 140l44 412h110l-44 -420q-9 -94 22 -141.5t104 -47.5q72 0 112 45.5t51 143.5l44 420h108l-43 -412q-9 -86 -34.5 -143t-63 -90.5t-84.5 -47t-100 -13.5zM286 -194q-32 0 -48.5 19t-16.5 46q0 31 20 54t58 23
q31 0 47 -19.5t16 -45.5q0 -31 -20 -54t-56 -23z" />
    <glyph glyph-name="uni1EE5" unicode="&#x1ee5;" horiz-adv-x="528" 
d="M188 -13q-75 0 -111.5 45t-27.5 130l34 320h109l-31 -300q-6 -55 14 -77t60 -22q25 0 44 10t32.5 26.5t21 36.5t9.5 39l30 287h110l-37 -354q-2 -23 4.5 -34.5t29.5 -11.5l-9 -82q-4 -1 -17 -3t-33 -2q-41 0 -61 20.5t-17 57.5l1 4q-22 -37 -57.5 -63.5t-97.5 -26.5z
M225 -194q-32 0 -48.5 19t-16.5 46q0 31 20 54t58 23q31 0 47 -19.5t16 -45.5q0 -31 -20 -54t-56 -23z" />
    <glyph glyph-name="Ygrave" unicode="&#x1ef2;" horiz-adv-x="587" 
d="M203 886h136l65 -144h-100zM245 287l-186 413h127l125 -310l191 310h126l-274 -412l-30 -288h-110z" />
    <glyph glyph-name="ygrave" unicode="&#x1ef3;" horiz-adv-x="515" 
d="M146 732h128l60 -184h-92zM186 -247q-75 0 -121 25.5t-63 70.5l77 57q17 -32 44 -47.5t72 -15.5q58 0 89.5 33t37.5 91l12 109q-24 -39 -64.5 -60.5t-91.5 -21.5q-146 0 -128 173l33 315h109l-31 -294q-10 -99 68 -99q19 0 37.5 9t34.5 25t26.5 37t13.5 45l29 277h110
l-53 -513q-11 -100 -73 -158t-168 -58z" />
    <glyph glyph-name="uni1EF8" unicode="&#x1ef8;" horiz-adv-x="587" 
d="M198 745q-7 15 -7 42q0 39 25.5 65t68.5 26q21 0 38.5 -6t32.5 -13.5t28 -13.5t25 -6q26 0 26 28q0 11 -4 16h77q3 -8 4.5 -19.5t1.5 -22.5q0 -39 -25 -65.5t-73 -26.5q-22 0 -40 6t-32.5 13.5t-26.5 13.5t-23 6q-10 0 -17 -6.5t-7 -19.5q0 -9 4 -17h-76zM245 287
l-186 413h127l125 -310l191 310h126l-274 -412l-30 -288h-110z" />
    <glyph glyph-name="uni1EF9" unicode="&#x1ef9;" horiz-adv-x="515" 
d="M146 564q-8 18 -8 42q0 39 24.5 65t69.5 26q21 0 37.5 -6t31 -13.5t27 -13.5t24.5 -6q11 0 18.5 6.5t7.5 19.5q0 5 -1 10.5t-3 8.5h74q7 -17 7 -41q0 -39 -24 -66t-69 -27q-23 0 -41 6t-31.5 13.5t-24.5 13.5t-21 6q-28 0 -28 -26q0 -12 4 -18h-74zM186 -247
q-75 0 -121 25.5t-63 70.5l77 57q17 -32 44 -47.5t72 -15.5q58 0 89.5 33t37.5 91l12 109q-24 -39 -64.5 -60.5t-91.5 -21.5q-146 0 -128 173l33 315h109l-31 -294q-10 -99 68 -99q19 0 37.5 9t34.5 25t26.5 37t13.5 45l29 277h110l-53 -513q-11 -100 -73 -158t-168 -58z
" />
    <glyph glyph-name="endash" unicode="&#x2013;" horiz-adv-x="521" 
d="M61 313h415l-9 -83h-415z" />
    <glyph glyph-name="emdash" unicode="&#x2014;" horiz-adv-x="846" 
d="M61 313h740l-9 -83h-740z" />
    <glyph glyph-name="quoteleft" unicode="&#x2018;" horiz-adv-x="217" 
d="M215 666q-26 -11 -44 -29t-20 -35q29 -1 44.5 -18t15.5 -43q0 -33 -22 -54.5t-52 -21.5q-31 0 -48.5 19.5t-17.5 53.5q0 57 30.5 106t87.5 69z" />
    <glyph glyph-name="quoteright" unicode="&#x2019;" horiz-adv-x="208" 
d="M71 506q26 11 44 29t20 35q-29 1 -44.5 18.5t-15.5 43.5q0 32 22 53.5t52 21.5q31 0 48.5 -19.5t17.5 -53.5q0 -57 -30.5 -106t-87.5 -69z" />
    <glyph glyph-name="quotesinglbase" unicode="&#x201a;" horiz-adv-x="228" 
d="M26 -70q26 11 44 29t20 35q-29 1 -44 18t-15 43q0 33 21.5 54.5t52.5 21.5q30 0 47.5 -20t17.5 -53q0 -57 -30.5 -106t-87.5 -69z" />
    <glyph glyph-name="quotedblleft" unicode="&#x201c;" horiz-adv-x="396" 
d="M211 666q-26 -11 -44.5 -29t-20.5 -35q29 0 44.5 -17.5t15.5 -43.5q0 -33 -22 -54t-52 -21q-31 0 -48.5 19.5t-17.5 52.5q0 57 30.5 106t87.5 69zM390 666q-26 -11 -44.5 -29t-20.5 -35q29 0 44.5 -17.5t15.5 -43.5q0 -33 -22 -54t-52 -21q-31 0 -48.5 19.5t-17.5 52.5
q0 57 30.5 106t87.5 69z" />
    <glyph glyph-name="quotedblright" unicode="&#x201d;" horiz-adv-x="393" 
d="M71 506q26 11 44 29t20 35q-29 1 -44.5 18.5t-15.5 43.5q0 32 22 53.5t52 21.5q31 0 48.5 -19.5t17.5 -53.5q0 -57 -30.5 -106t-87.5 -69zM250 506q26 11 44 29t20 35q-29 1 -44.5 18.5t-15.5 43.5q0 32 22 53.5t52 21.5q31 0 48.5 -19.5t17.5 -53.5q0 -57 -30.5 -106
t-87.5 -69z" />
    <glyph glyph-name="quotedblbase" unicode="&#x201e;" horiz-adv-x="407" 
d="M33 -70q26 11 44.5 29t20.5 35q-29 1 -44.5 18t-15.5 43q0 33 22 54.5t52 21.5t48 -20t18 -53q0 -57 -31 -106t-88 -69zM212 -70q26 11 44.5 29t20.5 35q-29 1 -44.5 18t-15.5 43q0 33 22 54.5t52 21.5t48 -20t18 -53q0 -57 -31 -106t-88 -69z" />
    <glyph glyph-name="dagger" unicode="&#x2020;" horiz-adv-x="389" 
d="M170 486h-108l8 71h107l17 165h100l-17 -165h109l-8 -71h-108l-55 -398h-73z" />
    <glyph glyph-name="daggerdbl" unicode="&#x2021;" horiz-adv-x="389" 
d="M155 278h-111l8 73h108l10 135h-108l8 71h107l17 165h100l-17 -165h109l-8 -71h-108l-18 -135h108l-8 -73h-112l-25 -187h-73z" />
    <glyph glyph-name="bullet" unicode="&#x2022;" horiz-adv-x="350" 
d="M174 173q-50 0 -79 29.5t-29 79.5q0 26 9 49t25.5 39.5t39 26t49.5 9.5q48 0 77 -30t29 -79q0 -54 -33.5 -89t-87.5 -35z" />
    <glyph glyph-name="ellipsis" unicode="&#x2026;" horiz-adv-x="544" 
d="M75 -6q-26 0 -41 15t-15 40q0 26 16.5 45t47.5 19q24 0 39.5 -15.5t15.5 -40.5q0 -26 -16 -44.5t-47 -18.5zM249 -6q-26 0 -41 15t-15 40q0 26 16.5 45t46.5 19q24 0 39.5 -15.5t15.5 -40.5q0 -26 -16 -44.5t-46 -18.5zM423 -6q-26 0 -41 15t-15 40q0 26 16.5 45t46.5 19
q24 0 39.5 -15.5t15.5 -40.5q0 -26 -16 -44.5t-46 -18.5z" />
    <glyph glyph-name="perthousand" unicode="&#x2030;" horiz-adv-x="893" 
d="M158 422q-51 0 -76.5 32t-25.5 89q0 75 34.5 118t97.5 43q53 0 79.5 -32t26.5 -89q0 -76 -35 -118.5t-101 -42.5zM419 700h77l-276 -700h-79zM164 480q32 0 46 27t14 72q0 29 -10 46t-33 17q-32 0 -45 -26t-13 -71q0 -30 9.5 -47.5t31.5 -17.5zM451 -4q-51 0 -77 32
t-26 89q0 75 34.5 118t97.5 43q52 0 78.5 -32t26.5 -89q0 -76 -35 -118.5t-99 -42.5zM727 -4q-51 0 -77 32t-26 89q0 75 34.5 118t97.5 43q53 0 79 -32t26 -89q0 -76 -34.5 -118.5t-99.5 -42.5zM457 55q31 0 45 27t14 71q0 29 -10 46t-32 17q-32 0 -45.5 -26t-13.5 -70
q0 -30 9.5 -47.5t32.5 -17.5zM733 55q32 0 45.5 27t13.5 71q0 29 -10 46t-32 17q-32 0 -45.5 -27t-13.5 -70q0 -29 9.5 -46.5t32.5 -17.5z" />
    <glyph glyph-name="guilsinglleft" unicode="&#x2039;" horiz-adv-x="281" 
d="M32 211l10 91l167 141l50 -62l-136 -126l109 -122l-62 -64z" />
    <glyph glyph-name="guilsinglright" unicode="&#x203a;" horiz-adv-x="280" 
d="M25 132l137 126l-111 122l63 63l139 -141l-10 -91l-167 -142z" />
    <glyph glyph-name="fraction" unicode="&#x2044;" horiz-adv-x="98" 
d="M133 726h82l-288 -726h-82z" />
    <glyph glyph-name="Euro" unicode="&#x20ac;" horiz-adv-x="626" 
d="M381 103q47 0 82.5 21t59.5 49l64 -71q-16 -19 -38 -37.5t-49.5 -32.5t-60 -23t-70.5 -9q-108 0 -175.5 59t-83.5 172h-79l9 85h66l3 50h-64l10 85h70q32 121 112 185t189 64q84 0 133.5 -31.5t72.5 -76.5l-97 -63q-15 26 -41 47t-75 21q-60 0 -104 -37t-67 -109h211
l-9 -85h-219l-3 -50h217l-9 -85h-202q13 -66 51 -97t96 -31z" />
    <glyph glyph-name="trademark" unicode="&#x2122;" horiz-adv-x="775" 
d="M179 645h-111l7 67h303l-7 -67h-106l-32 -307h-86zM402 712h81l75 -226l124 226h79l-40 -374h-71l24 231l-103 -182h-50l-60 182l-24 -231h-75z" />
    <glyph glyph-name="minus" unicode="&#x2212;" horiz-adv-x="462" 
d="M62 307h352l-9 -83h-351z" />
    <glyph glyph-name="uni2215" unicode="&#x2215;" horiz-adv-x="379" 
d="M337 726h107l-373 -726h-108z" />
    <glyph glyph-name="uni2219" unicode="&#x2219;" horiz-adv-x="298" 
d="M147 219q-22 0 -36.5 15t-14.5 37q0 26 18.5 44.5t44.5 18.5q22 0 36.5 -15t14.5 -38q0 -26 -18.5 -44t-44.5 -18z" />
    <glyph glyph-name="approxequal" unicode="&#x2248;" horiz-adv-x="483" 
d="M69 263q-3 5 -4 12q-2 6 -3.5 14.5t-1.5 20.5q0 21 7 41t20.5 35t33 24.5t45.5 9.5q27 0 50.5 -8.5t44.5 -18t40 -18t38 -8.5t28 10.5t9 27.5q0 8 -1 15t-3 12q-2 6 -4 11h73q2 -6 4 -13t3 -15t1 -18q0 -22 -6.5 -42t-19.5 -35.5t-32.5 -24.5t-45.5 -9q-31 0 -55.5 8
t-44.5 18t-37 18t-33 8q-20 0 -31.5 -11t-11.5 -28q0 -9 1.5 -15.5t3.5 -11.5q1 -5 4 -9h-72zM50 79q-3 5 -5 12t-3.5 15.5t-1.5 19.5q0 21 7 41t20.5 35.5t33 25t45.5 9.5q27 0 50.5 -8.5t44.5 -18t40.5 -18t38.5 -8.5q36 0 36 37q0 8 -1 14.5t-3 12.5t-4 11h74q2 -6 4 -13
q1 -7 2 -15t1 -17q0 -22 -6.5 -42t-19 -35.5t-31.5 -25t-45 -9.5q-32 0 -57 8t-45 18t-37 18t-33 8q-21 0 -32 -11t-11 -28q0 -8 1.5 -15t3.5 -11q2 -6 5 -10h-72z" />
    <glyph glyph-name="notequal" unicode="&#x2260;" horiz-adv-x="488" 
d="M144 117h-101l8 82h126l49 122h-162l8 82h187l34 82h92l-33 -82h98l-10 -82h-123l-47 -122h158l-8 -82h-183l-28 -69h-92z" />
    <glyph glyph-name="lessequal" unicode="&#x2264;" horiz-adv-x="436" 
d="M53 299l10 89l347 198l-10 -99l-243 -144l213 -143l-10 -99zM13 57h362l-8 -83h-363z" />
    <glyph glyph-name="greaterequal" unicode="&#x2265;" horiz-adv-x="437" 
d="M59 201l241 140l-212 145l11 98l305 -198l-9 -89l-348 -197zM22 55h363l-8 -82h-363z" />
    <glyph glyph-name="uniF8FF" unicode="&#xf8ff;" horiz-adv-x="1493" 
d="M794 522q-26 0 -43.5 17.5t-17.5 43.5t17.5 44t43.5 18t44 -18t18 -44t-18 -43.5t-44 -17.5zM142 270q0 57 1 108t2.5 91.5t3 70t2.5 44.5h100q2 -30 6 -114t4 -200h-119zM646 264q-82 0 -82 66q0 8 0.5 21.5t1.5 27.5t1.5 25t0.5 13h-22v79l119 30l1 -17h178
q3 -17 4.5 -45t3 -61t2 -68t0.5 -65h-118q0 92 3 147h-61l3 -65q4 -4 15 -4q5 0 10 1t8 4v-74q-8 -8 -27 -11.5t-41 -3.5zM370 265q-43 0 -67.5 27.5t-24.5 86.5q0 64 32.5 99.5t101.5 35.5q64 0 94 -30.5t30 -86.5v-127h-83l-8 61q-6 -31 -22.5 -48.5t-52.5 -17.5zM876 270
q0 30 0.5 65t2 68t3 61t4.5 45h80q2 -17 4 -39t2 -37q1 6 4 19.5t12 27t24 24t40 10.5q45 0 60 -26t17 -80l3 -138h-114q0 35 1 56.5t1 36.5t-2.5 22t-12.5 7q-12 0 -15 -8t-3 -21q0 -15 1.5 -36.5t1.5 -56.5h-114zM1270 265q-64 0 -93 33.5t-29 90.5q0 24 5.5 46.5t19.5 40
t38 28t61 10.5q36 0 59.5 -10.5t37 -27.5t19 -39t5.5 -46q0 -60 -29.5 -93t-93.5 -33zM408 345q24 0 24 30q0 26 -24 26q-22 0 -22 -26q0 -30 22 -30zM1270 345q23 0 23 30q0 26 -23 26q-21 0 -21 -26q0 -30 21 -30zM432 -50q-45 0 -63.5 6.5t-24.5 10.5v83q5 -3 21.5 -9.5
t48.5 -6.5q17 0 27.5 3.5t16.5 8t8 9.5t2 7q-5 -3 -15.5 -7t-33.5 -4q-90 0 -90 83v13h-55l3 -65q2 -2 5.5 -3t9.5 -1q8 0 12 1.5t6 3.5v-73q-4 -3 -17 -9t-51 -6q-46 0 -63.5 17.5t-17.5 53.5q0 6 0.5 17t1 23.5t1 24t0.5 16.5h-18v80l117 29l-1 -18h177v-119
q0 -16 3 -21.5t12 -5.5t12.5 6t3.5 21v119h104q2 -8 3.5 -23t3 -34t2.5 -40t1 -41q0 -79 -33 -114.5t-119 -35.5zM600 -44q0 128 4.5 194.5t5.5 87.5h78q1 -4 2 -14t2 -21.5t2 -22.5t1 -18q1 5 5 18.5t12.5 27.5t23.5 24.5t39 10.5q37 0 58.5 -28.5t21.5 -84.5
q0 -135 -137 -135q1 -11 1 -22.5v-16.5h-119zM1012 -5q-72 0 -106.5 31t-34.5 91q0 59 32.5 92.5t92.5 33.5q55 0 85.5 -29.5t30.5 -86.5q0 -8 -0.5 -18t-2.5 -17h-124q4 -6 15.5 -12t34.5 -6q14 0 29 3t26 9v-75q-8 -5 -27 -10.5t-51 -5.5zM1020 109q3 27 -17 27
q-23 0 -23 -27h40zM712 72q3 0 9 1.5t12 5.5t11 11t5 19q0 23 -20 23q-22 0 -22 -31q0 -12 2 -19.5t3 -9.5zM1140 -10q-11 0 -17.5 6t-6.5 17t6.5 17t17.5 6t17.5 -6t6.5 -17t-6.5 -17t-17.5 -6zM1140 -5q18 0 18 18t-18 18t-18 -18t18 -18zM1130 25h11q10 0 10 -7t-7 -7
l6 -9h-6l-4 9h-5v-9h-5v23zM1142 15q4 0 4 3t-4 3h-7v-6h7z" />
    <glyph glyph-name="Euro.osf" horiz-adv-x="515" 
d="M307 102q30 0 55 12t43 30l66 -60q-26 -36 -74.5 -60t-109.5 -24q-82 0 -134 41.5t-67 116.5h-61l7 67h49q0 20 3 38h-48l7 66h55q26 81 87 124t144 43q70 0 110.5 -21.5t63.5 -62.5l-90 -60q-12 20 -32 31.5t-56 11.5q-74 0 -106 -66h137l-7 -66h-148q-1 -9 -1.5 -18.5
t-0.5 -19.5h145l-6 -67h-128q24 -56 97 -56z" />
    <glyph glyph-name="Euro.sc" horiz-adv-x="514" 
d="M307 102q29 0 54 12t43 30l66 -60q-26 -36 -73 -60t-108 -24q-82 0 -135 41.5t-68 116.5h-62l7 67h50q0 20 3 38h-48l7 66h56q26 78 87.5 122.5t146.5 44.5q65 0 104.5 -21t62.5 -59l-86 -64q-12 20 -31.5 31.5t-51.5 11.5q-39 0 -66 -17.5t-44 -48.5h134l-7 -66h-147
q-3 -18 -3 -38h146l-7 -67h-128q24 -56 98 -56z" />
    <glyph glyph-name="IJacute" horiz-adv-x="746" 
d="M218 886h138l-130 -144h-103zM688 886h139l-131 -144h-102zM127 700h110l-74 -700h-110zM434 -6q-69 0 -113 23t-65 56l76 76q17 -23 40.5 -40.5t60.5 -17.5q95 0 109 128l51 481h109l-51 -489q-24 -217 -217 -217z" />
    <glyph glyph-name="a.sc" horiz-adv-x="528" 
d="M348 111h-197l-52 -111h-115l250 497h115l145 -497h-118zM327 193l-48 189l-89 -189h137z" />
    <glyph glyph-name="a.ss01" horiz-adv-x="493" 
d="M415 129q-6 -47 34 -47l-8 -81q-9 -2 -22.5 -4t-25.5 -2q-45 0 -63.5 21t-16.5 60q-23 -39 -64.5 -63.5t-104.5 -24.5q-62 0 -96 31t-34 88q0 67 49 107.5t151 40.5h104l7 61q9 90 -74 90q-86 0 -86 -78q0 -9 1 -16.5t3 -12.5h-98q-2 4 -4.5 14.5t-2.5 25.5
q0 70 53.5 113t147.5 43q97 0 137.5 -47t31.5 -136zM181 73q45 0 77 25.5t51 68.5l2 20h-102q-42 0 -62 -18.5t-20 -47.5q0 -23 14 -35.5t40 -12.5z" />
    <glyph glyph-name="aacute.sc" horiz-adv-x="528" 
d="M330 563h-95l99 184h131zM348 111h-197l-52 -111h-115l250 497h115l145 -497h-118zM327 193l-48 189l-89 -189h137z" />
    <glyph glyph-name="aacute.ss01" horiz-adv-x="493" 
d="M308 548h-95l99 184h131zM415 129q-6 -47 34 -47l-8 -81q-9 -2 -22.5 -4t-25.5 -2q-45 0 -63.5 21t-16.5 60q-23 -39 -64.5 -63.5t-104.5 -24.5q-62 0 -96 31t-34 88q0 67 49 107.5t151 40.5h104l7 61q9 90 -74 90q-86 0 -86 -78q0 -9 1 -16.5t3 -12.5h-98
q-2 4 -4.5 14.5t-2.5 25.5q0 70 53.5 113t147.5 43q97 0 137.5 -47t31.5 -136zM181 73q45 0 77 25.5t51 68.5l2 20h-102q-42 0 -62 -18.5t-20 -47.5q0 -23 14 -35.5t40 -12.5z" />
    <glyph glyph-name="abreve.sc" horiz-adv-x="528" 
d="M299 578q-39 0 -63.5 12t-37.5 32t-16.5 46.5t-0.5 56.5h82q-6 -64 44 -64q51 0 58 64h82q-3 -30 -12.5 -56.5t-27.5 -46.5t-44.5 -32t-63.5 -12zM348 111h-197l-52 -111h-115l250 497h115l145 -497h-118zM327 193l-48 189l-89 -189h137z" />
    <glyph glyph-name="abreve.ss01" horiz-adv-x="493" 
d="M278 563q-39 0 -63.5 12t-37.5 32t-16.5 46.5t-0.5 56.5h82q-6 -64 44 -64q51 0 58 64h82q-3 -30 -12.5 -56.5t-27.5 -46.5t-44.5 -32t-63.5 -12zM415 129q-6 -47 34 -47l-8 -81q-9 -2 -22.5 -4t-25.5 -2q-45 0 -63.5 21t-16.5 60q-23 -39 -64.5 -63.5t-104.5 -24.5
q-62 0 -96 31t-34 88q0 67 49 107.5t151 40.5h104l7 61q9 90 -74 90q-86 0 -86 -78q0 -9 1 -16.5t3 -12.5h-98q-2 4 -4.5 14.5t-2.5 25.5q0 70 53.5 113t147.5 43q97 0 137.5 -47t31.5 -136zM181 73q45 0 77 25.5t51 68.5l2 20h-102q-42 0 -62 -18.5t-20 -47.5
q0 -23 14 -35.5t40 -12.5z" />
    <glyph glyph-name="acircumflex.sc" horiz-adv-x="528" 
d="M248 564h-95l105 181h116l67 -181h-96l-38 103zM348 111h-197l-52 -111h-115l250 497h115l145 -497h-118zM327 193l-48 189l-89 -189h137z" />
    <glyph glyph-name="acircumflex.ss01" horiz-adv-x="493" 
d="M227 549h-95l105 181h116l67 -181h-96l-38 103zM415 129q-6 -47 34 -47l-8 -81q-9 -2 -22.5 -4t-25.5 -2q-45 0 -63.5 21t-16.5 60q-23 -39 -64.5 -63.5t-104.5 -24.5q-62 0 -96 31t-34 88q0 67 49 107.5t151 40.5h104l7 61q9 90 -74 90q-86 0 -86 -78q0 -9 1 -16.5
t3 -12.5h-98q-2 4 -4.5 14.5t-2.5 25.5q0 70 53.5 113t147.5 43q97 0 137.5 -47t31.5 -136zM181 73q45 0 77 25.5t51 68.5l2 20h-102q-42 0 -62 -18.5t-20 -47.5q0 -23 14 -35.5t40 -12.5z" />
    <glyph glyph-name="acute.case" horiz-adv-x="267" 
d="M176 886h139l-131 -144h-102z" />
    <glyph glyph-name="acutecomb.case" 
d="M-95 886h138l-130 -144h-103z" />
    <glyph glyph-name="adieresis.sc" horiz-adv-x="528" 
d="M205 584q-32 0 -47.5 18t-15.5 45q0 30 19.5 52t55.5 22q30 0 45.5 -18.5t15.5 -43.5q0 -31 -19 -53t-54 -22zM398 584q-31 0 -47 18t-16 45q0 30 19.5 52t55.5 22q31 0 46.5 -18.5t15.5 -43.5q0 -31 -19.5 -53t-54.5 -22zM348 111h-197l-52 -111h-115l250 497h115
l145 -497h-118zM327 193l-48 189l-89 -189h137z" />
    <glyph glyph-name="adieresis.ss01" horiz-adv-x="493" 
d="M184 569q-32 0 -47.5 18t-15.5 45q0 30 19.5 52t55.5 22q30 0 45.5 -18.5t15.5 -43.5q0 -31 -19 -53t-54 -22zM377 569q-31 0 -47 18t-16 45q0 30 19.5 52t55.5 22q31 0 46.5 -18.5t15.5 -43.5q0 -31 -19.5 -53t-54.5 -22zM415 129q-6 -47 34 -47l-8 -81q-9 -2 -22.5 -4
t-25.5 -2q-45 0 -63.5 21t-16.5 60q-23 -39 -64.5 -63.5t-104.5 -24.5q-62 0 -96 31t-34 88q0 67 49 107.5t151 40.5h104l7 61q9 90 -74 90q-86 0 -86 -78q0 -9 1 -16.5t3 -12.5h-98q-2 4 -4.5 14.5t-2.5 25.5q0 70 53.5 113t147.5 43q97 0 137.5 -47t31.5 -136zM181 73
q45 0 77 25.5t51 68.5l2 20h-102q-42 0 -62 -18.5t-20 -47.5q0 -23 14 -35.5t40 -12.5z" />
    <glyph glyph-name="ae.sc" horiz-adv-x="681" 
d="M233 497h435l-9 -90h-285l31 -115h185l-9 -88h-153l33 -113h165l-9 -91h-242l-30 113h-190l-53 -113h-119zM326 195l-48 187l-86 -187h134z" />
    <glyph glyph-name="aeacute.sc" horiz-adv-x="681" 
d="M458 747h131l-135 -184h-95zM233 497h435l-9 -90h-285l31 -115h185l-9 -88h-153l33 -113h165l-9 -91h-242l-30 113h-190l-53 -113h-119zM326 195l-48 187l-86 -187h134z" />
    <glyph glyph-name="agrave.sc" horiz-adv-x="528" 
d="M249 563l-96 184h128l60 -184h-92zM348 111h-197l-52 -111h-115l250 497h115l145 -497h-118zM327 193l-48 189l-89 -189h137z" />
    <glyph glyph-name="agrave.ss01" horiz-adv-x="493" 
d="M228 548l-96 184h128l60 -184h-92zM415 129q-6 -47 34 -47l-8 -81q-9 -2 -22.5 -4t-25.5 -2q-45 0 -63.5 21t-16.5 60q-23 -39 -64.5 -63.5t-104.5 -24.5q-62 0 -96 31t-34 88q0 67 49 107.5t151 40.5h104l7 61q9 90 -74 90q-86 0 -86 -78q0 -9 1 -16.5t3 -12.5h-98
q-2 4 -4.5 14.5t-2.5 25.5q0 70 53.5 113t147.5 43q97 0 137.5 -47t31.5 -136zM181 73q45 0 77 25.5t51 68.5l2 20h-102q-42 0 -62 -18.5t-20 -47.5q0 -23 14 -35.5t40 -12.5z" />
    <glyph glyph-name="amacron.sc" horiz-adv-x="528" 
d="M434 609h-264l9 85h265zM348 111h-197l-52 -111h-115l250 497h115l145 -497h-118zM327 193l-48 189l-89 -189h137z" />
    <glyph glyph-name="amacron.ss01" horiz-adv-x="493" 
d="M413 594h-264l9 85h265zM415 129q-6 -47 34 -47l-8 -81q-9 -2 -22.5 -4t-25.5 -2q-45 0 -63.5 21t-16.5 60q-23 -39 -64.5 -63.5t-104.5 -24.5q-62 0 -96 31t-34 88q0 67 49 107.5t151 40.5h104l7 61q9 90 -74 90q-86 0 -86 -78q0 -9 1 -16.5t3 -12.5h-98q-2 4 -4.5 14.5
t-2.5 25.5q0 70 53.5 113t147.5 43q97 0 137.5 -47t31.5 -136zM181 73q45 0 77 25.5t51 68.5l2 20h-102q-42 0 -62 -18.5t-20 -47.5q0 -23 14 -35.5t40 -12.5z" />
    <glyph glyph-name="ampersand.sc" horiz-adv-x="549" 
d="M476 -7q-25 8 -48 18.5t-46 22.5q-68 -47 -168 -47q-90 0 -138.5 38t-48.5 104q0 51 28 90t76 59q-16 38 -16 78q0 75 48 120t133 45q71 0 109 -31.5t38 -85.5q0 -20 -5.5 -39.5t-12.5 -31.5h-88q5 8 8.5 21.5t3.5 24.5q0 26 -16.5 40t-46.5 14q-35 0 -55.5 -17
t-20.5 -52q0 -34 18.5 -66.5t59.5 -71.5q14 -14 37 -34.5t52 -42.5q18 38 24 91h86q-7 -79 -41 -135q17 -9 35 -17t37 -14zM234 66q42 0 75 14q-25 18 -47 37t-42 39q-16 16 -30 31.5t-26 32.5q-20 -16 -28 -32.5t-8 -40.5q0 -36 26 -58.5t80 -22.5z" />
    <glyph glyph-name="aogonek.sc" horiz-adv-x="528" 
d="M495 -163q-14 -13 -35 -19.5t-46 -6.5q-45 0 -68.5 20.5t-23.5 58.5q0 30 16 58.5t44 51.5h-6l-28 111h-197l-52 -111h-115l250 497h115l145 -497h-10q-32 -11 -51.5 -35.5t-19.5 -52.5q0 -31 28 -31q10 0 17.5 3t12.5 7zM327 193l-48 189l-89 -189h137z" />
    <glyph glyph-name="aogonek.ss01" horiz-adv-x="493" 
d="M451 -163q-14 -13 -35 -19.5t-46 -6.5q-45 0 -68.5 20.5t-23.5 58.5q0 32 18 62t48 53q-34 19 -31 71q-23 -39 -64.5 -63.5t-104.5 -24.5q-62 0 -96 31t-34 88q0 67 49 107.5t151 40.5h104l7 61q9 90 -74 90q-86 0 -86 -78q0 -9 1 -16.5t3 -12.5h-98q-2 4 -4.5 14.5
t-2.5 25.5q0 70 53.5 113t147.5 43q97 0 137.5 -47t31.5 -136l-19 -183q-6 -47 34 -47l-8 -81h-1v-1q-32 -11 -51.5 -35.5t-19.5 -52.5q0 -31 28 -31q10 0 17.5 3t12.5 7zM181 73q45 0 77 25.5t51 68.5l2 20h-102q-42 0 -62 -18.5t-20 -47.5q0 -23 14 -35.5t40 -12.5z" />
    <glyph glyph-name="aring.sc" horiz-adv-x="528" 
d="M300 543q-47 0 -74.5 29t-27.5 72q0 52 32.5 87t84.5 35q46 0 73.5 -29t27.5 -72q0 -26 -8.5 -48t-24 -38.5t-37 -26t-46.5 -9.5zM310 697q-19 0 -31.5 -12.5t-12.5 -33.5q0 -40 40 -40q18 0 30.5 13.5t12.5 33.5q0 17 -10.5 28t-28.5 11zM348 111h-197l-52 -111h-115
l250 497h115l145 -497h-118zM327 193l-48 189l-89 -189h137z" />
    <glyph glyph-name="aring.ss01" horiz-adv-x="493" 
d="M278 528q-47 0 -74.5 29t-27.5 72q0 52 32.5 87t84.5 35q46 0 73.5 -29t27.5 -72q0 -26 -8.5 -48t-24 -38.5t-37 -26t-46.5 -9.5zM288 682q-19 0 -31.5 -12.5t-12.5 -33.5q0 -40 40 -40q18 0 30.5 13.5t12.5 33.5q0 17 -10.5 28t-28.5 11zM415 129q-6 -47 34 -47l-8 -81
q-9 -2 -22.5 -4t-25.5 -2q-45 0 -63.5 21t-16.5 60q-23 -39 -64.5 -63.5t-104.5 -24.5q-62 0 -96 31t-34 88q0 67 49 107.5t151 40.5h104l7 61q9 90 -74 90q-86 0 -86 -78q0 -9 1 -16.5t3 -12.5h-98q-2 4 -4.5 14.5t-2.5 25.5q0 70 53.5 113t147.5 43q97 0 137.5 -47
t31.5 -136zM181 73q45 0 77 25.5t51 68.5l2 20h-102q-42 0 -62 -18.5t-20 -47.5q0 -23 14 -35.5t40 -12.5z" />
    <glyph glyph-name="aringacute.sc" horiz-adv-x="532" 
d="M411 595q0 -35 -16 -63.5t-43 -43.5l142 -488h-118l-28 111h-197l-52 -111h-115l248 493q-18 14 -28.5 34.5t-10.5 46.5q0 45 24 77t64 42l83 126h139l-130 -142q38 -28 38 -82zM306 628q-20 0 -32.5 -13t-12.5 -34q0 -18 11 -29t29 -11t30.5 13.5t12.5 34.5q0 17 -10 28
t-28 11zM327 193l-48 189l-89 -189h137z" />
    <glyph glyph-name="aringacute.ss01" horiz-adv-x="493" 
d="M278 528q-47 0 -74.5 29t-27.5 72q0 45 25 78t67 41l72 135h131l-113 -154q36 -28 36 -79q0 -26 -8.5 -48t-24 -38.5t-37 -26t-46.5 -9.5zM284 596q18 0 30.5 13.5t12.5 33.5q0 17 -10.5 28t-28.5 11q-19 0 -31.5 -12.5t-12.5 -33.5q0 -40 40 -40zM415 129q-6 -47 34 -47
l-8 -81q-9 -2 -22.5 -4t-25.5 -2q-45 0 -63.5 21t-16.5 60q-23 -39 -64.5 -63.5t-104.5 -24.5q-62 0 -96 31t-34 88q0 67 49 107.5t151 40.5h104l7 61q9 90 -74 90q-86 0 -86 -78q0 -9 1 -16.5t3 -12.5h-98q-2 4 -4.5 14.5t-2.5 25.5q0 70 53.5 113t147.5 43q97 0 137.5 -47
t31.5 -136zM181 73q45 0 77 25.5t51 68.5l2 20h-102q-42 0 -62 -18.5t-20 -47.5q0 -23 14 -35.5t40 -12.5z" />
    <glyph glyph-name="atilde.sc" horiz-adv-x="528" 
d="M144 542q-7 15 -7 42q0 39 25.5 65t68.5 26q21 0 38.5 -6t32.5 -13.5t28 -13.5t25 -6q26 0 26 28q0 11 -4 16h77q3 -8 4.5 -19.5t1.5 -22.5q0 -39 -25 -65.5t-73 -26.5q-22 0 -40 6t-32.5 13.5t-26.5 13.5t-23 6q-10 0 -17 -6.5t-7 -19.5q0 -9 4 -17h-76zM348 111h-197
l-52 -111h-115l250 497h115l145 -497h-118zM327 193l-48 189l-89 -189h137z" />
    <glyph glyph-name="atilde.ss01" horiz-adv-x="493" 
d="M132 564q-8 18 -8 42q0 39 24.5 65t69.5 26q21 0 37.5 -6t31 -13.5t27 -13.5t24.5 -6q11 0 18.5 6.5t7.5 19.5q0 5 -1 10.5t-3 8.5h74q7 -17 7 -41q0 -39 -24 -66t-69 -27q-23 0 -41 6t-31.5 13.5t-24.5 13.5t-21 6q-28 0 -28 -26q0 -12 4 -18h-74zM415 129
q-6 -47 34 -47l-8 -81q-9 -2 -22.5 -4t-25.5 -2q-45 0 -63.5 21t-16.5 60q-23 -39 -64.5 -63.5t-104.5 -24.5q-62 0 -96 31t-34 88q0 67 49 107.5t151 40.5h104l7 61q9 90 -74 90q-86 0 -86 -78q0 -9 1 -16.5t3 -12.5h-98q-2 4 -4.5 14.5t-2.5 25.5q0 70 53.5 113t147.5 43
q97 0 137.5 -47t31.5 -136zM181 73q45 0 77 25.5t51 68.5l2 20h-102q-42 0 -62 -18.5t-20 -47.5q0 -23 14 -35.5t40 -12.5z" />
    <glyph glyph-name="b.sc" horiz-adv-x="506" 
d="M380 273q35 -10 59.5 -36t24.5 -76q0 -42 -16.5 -72.5t-45.5 -50t-68 -29t-84 -9.5h-208l52 497h202q81 0 123 -27.5t42 -84.5q0 -43 -21.5 -72t-59.5 -40zM184 294h85q39 0 59.5 19t20.5 50q0 55 -65 55h-87zM253 79q48 0 73 17.5t25 59.5q0 60 -79 60h-96l-15 -137h92z
" />
    <glyph glyph-name="braceleft.sc" horiz-adv-x="291" 
d="M219 -87q-33 -5 -62.5 0t-50.5 22t-32 47t-6 75l11 104q3 26 -11.5 37t-31.5 11h-8l8 82h8q18 0 34 11t19 37l11 104q5 45 22 75t42 47t56 22t62 0l-10 -89q-34 10 -56 -10.5t-27 -62.5l-11 -111q-2 -18 -7.5 -29.5t-12 -19t-13 -11t-10.5 -4.5q3 -1 8 -5.5t10.5 -12.5
t9 -20t1.5 -27l-12 -111q-5 -41 13.5 -62t54.5 -10z" />
    <glyph glyph-name="braceright.sc" horiz-adv-x="301" 
d="M81 588q33 5 62.5 0t51 -22t32.5 -47t6 -75l-11 -104q-3 -26 11.5 -37t31.5 -11h8l-9 -82h-8q-17 0 -33.5 -11t-19.5 -37l-11 -104q-4 -45 -21.5 -75t-42.5 -47t-55.5 -22t-62.5 0l10 89q35 -11 57 10t27 63l11 110q2 18 7.5 30t12 19t13 11t10.5 5q-3 1 -8 5t-10.5 12.5
t-8.5 20t-2 27.5l12 110q5 42 -13.5 62.5t-54.5 10.5z" />
    <glyph glyph-name="bracketleft.sc" horiz-adv-x="306" 
d="M111 595h199l-9 -84h-102l-55 -520h102l-9 -84h-199z" />
    <glyph glyph-name="bracketright.sc" horiz-adv-x="306" 
d="M8 -9h101l55 520h-102l10 84h199l-73 -688h-199z" />
    <glyph glyph-name="breve.case" horiz-adv-x="321" 
d="M212 742q-63 0 -93.5 40t-23.5 103h82q-3 -26 7.5 -43.5t36.5 -17.5q29 0 42 17.5t16 43.5h82q-7 -63 -43.5 -103t-105.5 -40z" />
    <glyph glyph-name="c.sc" horiz-adv-x="503" 
d="M257 -13q-101 0 -161 56t-60 171q0 64 18 118t52.5 93.5t84 62t113.5 22.5q38 0 70.5 -8.5t56 -25.5t37 -43.5t13.5 -61.5q0 -19 -3.5 -34t-8.5 -28h-104q7 17 7 40q0 29 -18 46.5t-61 17.5q-34 0 -60 -15.5t-43.5 -42t-26 -62t-8.5 -75.5q0 -71 32.5 -104t80.5 -33
q44 0 70 17.5t52 50.5l69 -57q-34 -50 -83 -77.5t-119 -27.5z" />
    <glyph glyph-name="cacute.sc" horiz-adv-x="503" 
d="M344 747h131l-135 -184h-95zM257 -13q-101 0 -161 56t-60 171q0 64 18 118t52.5 93.5t84 62t113.5 22.5q38 0 70.5 -8.5t56 -25.5t37 -43.5t13.5 -61.5q0 -19 -3.5 -34t-8.5 -28h-104q7 17 7 40q0 29 -18 46.5t-61 17.5q-34 0 -60 -15.5t-43.5 -42t-26 -62t-8.5 -75.5
q0 -71 32.5 -104t80.5 -33q44 0 70 17.5t52 50.5l69 -57q-34 -50 -83 -77.5t-119 -27.5z" />
    <glyph glyph-name="caron.alt" horiz-adv-x="486" 
d="M78 555q25 8 38.5 21.5t15.5 27.5q-50 14 -50 60q0 30 20 49t49 19t47 -19t18 -54q0 -24 -8.5 -48t-24.5 -44.5t-37.5 -36t-47.5 -23.5z" />
    <glyph glyph-name="caron.case" horiz-adv-x="336" 
d="M94 886h97l40 -73l58 73h96l-101 -144h-120z" />
    <glyph glyph-name="caroncomb.alt" 
d="M-90 555q25 8 38 21.5t15 27.5q-49 14 -49 60q0 30 20 49t49 19t47 -19t18 -54q0 -24 -8.5 -48t-24.5 -44.5t-37.5 -36t-47.5 -23.5z" />
    <glyph glyph-name="ccaron.sc" horiz-adv-x="503" 
d="M182 745h96l38 -103l59 103h95l-105 -181h-116zM257 -13q-101 0 -161 56t-60 171q0 64 18 118t52.5 93.5t84 62t113.5 22.5q38 0 70.5 -8.5t56 -25.5t37 -43.5t13.5 -61.5q0 -19 -3.5 -34t-8.5 -28h-104q7 17 7 40q0 29 -18 46.5t-61 17.5q-34 0 -60 -15.5t-43.5 -42
t-26 -62t-8.5 -75.5q0 -71 32.5 -104t80.5 -33q44 0 70 17.5t52 50.5l69 -57q-34 -50 -83 -77.5t-119 -27.5z" />
    <glyph glyph-name="ccedilla.sc" horiz-adv-x="503" 
d="M365 309q7 17 7 40q0 29 -18 46.5t-61 17.5q-34 0 -60 -15.5t-43.5 -42t-26 -62t-8.5 -75.5q0 -71 32.5 -104t80.5 -33q44 0 70 17.5t52 50.5l69 -57q-31 -46 -75 -73t-106 -31l-9 -23q26 -8 46.5 -27t20.5 -55q0 -48 -34.5 -70.5t-84.5 -22.5q-67 0 -102 35l43 53
q23 -21 52 -21q35 0 35 28q0 16 -18 24.5t-47 10.5l32 70q-82 11 -129 66t-47 158q0 64 18 118t52.5 93.5t84 62t113.5 22.5q38 0 70.5 -8.5t56 -25.5t37 -43.5t13.5 -61.5q0 -19 -3.5 -34t-8.5 -28h-104z" />
    <glyph glyph-name="ccircumflex.sc" horiz-adv-x="503" 
d="M269 745h116l67 -181h-96l-38 103l-59 -103h-95zM257 -13q-101 0 -161 56t-60 171q0 64 18 118t52.5 93.5t84 62t113.5 22.5q38 0 70.5 -8.5t56 -25.5t37 -43.5t13.5 -61.5q0 -19 -3.5 -34t-8.5 -28h-104q7 17 7 40q0 29 -18 46.5t-61 17.5q-34 0 -60 -15.5t-43.5 -42
t-26 -62t-8.5 -75.5q0 -71 32.5 -104t80.5 -33q44 0 70 17.5t52 50.5l69 -57q-34 -50 -83 -77.5t-119 -27.5z" />
    <glyph glyph-name="cdotaccent.sc" horiz-adv-x="503" 
d="M313 584q-32 0 -48.5 18.5t-16.5 45.5q0 31 20 54.5t57 23.5q32 0 48 -19.5t16 -45.5q0 -32 -20 -54.5t-56 -22.5zM257 -13q-101 0 -161 56t-60 171q0 64 18 118t52.5 93.5t84 62t113.5 22.5q38 0 70.5 -8.5t56 -25.5t37 -43.5t13.5 -61.5q0 -19 -3.5 -34t-8.5 -28h-104
q7 17 7 40q0 29 -18 46.5t-61 17.5q-34 0 -60 -15.5t-43.5 -42t-26 -62t-8.5 -75.5q0 -71 32.5 -104t80.5 -33q44 0 70 17.5t52 50.5l69 -57q-34 -50 -83 -77.5t-119 -27.5z" />
    <glyph glyph-name="cent.osf" horiz-adv-x="467" 
d="M261 97q32 0 56 13t41 30l67 -61q-22 -30 -59.5 -52t-86.5 -29l-8 -72h-95l8 77q-69 16 -108.5 70t-39.5 139q0 56 14.5 102.5t40.5 82t63.5 58.5t82.5 32l7 70h94l-7 -68q48 -6 79 -27t48 -55l-92 -60q-11 19 -30.5 31t-52.5 12q-62 0 -96 -48t-34 -125q0 -62 28 -91
t80 -29z" />
    <glyph glyph-name="cent.sc" horiz-adv-x="462" 
d="M281 99q23 5 41.5 16t32.5 25l68 -61q-23 -30 -60.5 -52t-86.5 -29l-8 -72h-94l7 77q-69 17 -108.5 70.5t-39.5 138.5q0 56 14.5 102.5t40.5 82t63.5 58.5t82.5 32l7 70h94l-7 -68q48 -6 79 -27t48 -55l-91 -60q-8 15 -20.5 25t-31.5 15zM150 216q0 -85 57 -110l30 277
q-42 -16 -64.5 -60t-22.5 -107z" />
    <glyph glyph-name="circumflex.case" horiz-adv-x="347" 
d="M179 886h120l70 -144h-97l-42 73l-56 -73h-96z" />
    <glyph glyph-name="currency.osf" horiz-adv-x="536" 
d="M15 75l86 79q-8 17 -12 37.5t-4 40.5q0 60 35 112l-66 78l63 58l65 -77q24 19 51.5 27.5t57.5 8.5q29 0 54 -9.5t44 -25.5l81 76l53 -58l-83 -77q15 -36 15 -80q0 -29 -8.5 -59t-25.5 -55l63 -70l-64 -58l-63 70q-23 -17 -50 -25t-56 -8q-30 0 -55 9.5t-45 25.5l-84 -77z
M261 148q21 0 40.5 8t34 22t23.5 35t9 46q0 39 -23.5 65.5t-64.5 26.5q-21 0 -40 -8t-33.5 -22t-23.5 -34.5t-9 -46.5q0 -38 22.5 -65t64.5 -27z" />
    <glyph glyph-name="currency.sc" horiz-adv-x="535" 
d="M16 76l86 81q-8 16 -12 35.5t-4 39.5q0 60 34 113l-65 77l61 56l64 -76q26 18 51.5 27t55.5 9q29 0 55.5 -10.5t45.5 -27.5l82 78l50 -56l-83 -79q16 -35 16 -78q0 -56 -34 -112l64 -72l-63 -56l-63 72q-23 -19 -50.5 -27t-56.5 -8t-55 10t-44 27l-85 -79zM261 147
q50 0 78.5 33t28.5 79q0 41 -22 67.5t-66 26.5q-51 0 -80 -33t-29 -80q0 -40 22.5 -66.5t67.5 -26.5z" />
    <glyph glyph-name="d.sc" horiz-adv-x="546" 
d="M94 497h168q53 0 98.5 -12t79 -38t53 -67.5t19.5 -100.5q0 -77 -25.5 -130.5t-67 -86.5t-94 -47.5t-106.5 -14.5h-177zM226 91q79 0 123 46.5t44 133.5q0 63 -33.5 99t-103.5 36h-60l-33 -315h63z" />
    <glyph glyph-name="dcaron.sc" horiz-adv-x="546" 
d="M176 745h96l38 -103l59 103h95l-105 -181h-116zM94 497h168q53 0 98.5 -12t79 -38t53 -67.5t19.5 -100.5q0 -77 -25.5 -130.5t-67 -86.5t-94 -47.5t-106.5 -14.5h-177zM226 91q79 0 123 46.5t44 133.5q0 63 -33.5 99t-103.5 36h-60l-33 -315h63z" />
    <glyph glyph-name="dcroat.sc" horiz-adv-x="596" 
d="M292 497q52 0 97.5 -12t79 -38t53 -67.5t19.5 -100.5q0 -77 -26 -130.5t-67.5 -86.5t-94 -47.5t-105.5 -14.5h-176l22 206h-68l8 87h69l21 204h168zM256 91q78 0 122.5 46t44.5 131q0 64 -34 101t-104 37h-60l-12 -113h102l-9 -87h-102l-12 -115h64z" />
    <glyph glyph-name="dieresis.case" horiz-adv-x="377" 
d="M128 745q-30 0 -47 18.5t-17 45.5q0 35 21 56.5t53 21.5q30 0 47 -18.5t17 -46.5q0 -35 -21 -56t-53 -21zM349 745q-30 0 -47.5 17.5t-17.5 47.5q0 34 21.5 55.5t53.5 21.5q30 0 46.5 -18.5t16.5 -45.5q0 -36 -20 -57t-53 -21z" />
    <glyph glyph-name="dollar.osf" horiz-adv-x="469" 
d="M175 0q-60 3 -104.5 25.5t-63.5 53.5l71 69q24 -33 61 -47.5t85 -14.5q45 0 72 15t27 44t-30 39t-77 19q-28 5 -57 12.5t-53 21t-39.5 35.5t-15.5 57q0 68 47 106.5t128 47.5l8 79h75l-8 -81q29 -3 57 -12.5t47.5 -27.5t27 -46t-4.5 -68l-95 -1q13 40 -11.5 56.5
t-70.5 16.5t-71 -14.5t-25 -42.5t30.5 -38t81.5 -19q29 -6 58 -13.5t51.5 -21t36.5 -35.5t14 -57q0 -66 -48 -107t-129 -48l-9 -86h-75z" />
    <glyph glyph-name="dollar.sc" horiz-adv-x="471" 
d="M334 326q9 30 -3.5 46.5t-39.5 22.5l-12 -112q28 -6 54.5 -13.5t47.5 -21.5t33.5 -35.5t12.5 -54.5q0 -68 -48 -108t-129 -47l-9 -86h-75l9 83q-60 5 -104.5 26.5t-63.5 52.5l71 69q19 -26 46.5 -40.5t62.5 -19.5l12 118q-26 5 -52.5 13t-47.5 21.5t-34 35t-13 54.5
q0 69 46.5 106.5t127.5 46.5l8 79h75l-8 -81q29 -3 57.5 -12.5t48 -27.5t27 -46t-4.5 -68zM155 343q0 -20 14 -30t40 -17l11 101q-65 -8 -65 -54zM323 145q0 20 -14 30t-39 17l-11 -104q30 5 47 18.5t17 38.5z" />
    <glyph glyph-name="dotaccent.case" horiz-adv-x="184" 
d="M145 743q-29 0 -46.5 19t-17.5 48q0 32 24 55t55 23q29 0 46.5 -19.5t17.5 -47.5q0 -32 -23 -55t-56 -23z" />
    <glyph glyph-name="dotlessi.sc" horiz-adv-x="247" 
d="M94 497h113l-52 -497h-113z" />
    <glyph glyph-name="dotlessi.ss01" horiz-adv-x="234" 
d="M88 482h110l-51 -482h-110z" />
    <glyph glyph-name="e.sc" horiz-adv-x="457" 
d="M94 497h349l-10 -92h-237l-12 -108h206l-10 -91h-205l-12 -114h238l-10 -92h-349z" />
    <glyph glyph-name="e.ss01" horiz-adv-x="475" 
d="M144 224v-15q0 -131 103 -131q41 0 66 15t48 47l63 -54q-29 -43 -73 -71t-117 -28q-95 0 -148 58t-53 158q0 66 16 119.5t47 92t75 59.5t100 21q83 0 129 -49.5t46 -138.5q0 -23 -2.5 -45t-6.5 -38h-293zM263 406q-50 0 -75.5 -32t-35.5 -76h188q5 48 -13.5 78t-63.5 30z
" />
    <glyph glyph-name="eacute.sc" horiz-adv-x="457" 
d="M316 747h131l-135 -184h-95zM94 497h349l-10 -92h-237l-12 -108h206l-10 -91h-205l-12 -114h238l-10 -92h-349z" />
    <glyph glyph-name="eacute.ss01" horiz-adv-x="475" 
d="M309 548h-95l99 184h131zM144 224v-15q0 -131 103 -131q41 0 66 15t48 47l63 -54q-29 -43 -73 -71t-117 -28q-95 0 -148 58t-53 158q0 66 16 119.5t47 92t75 59.5t100 21q83 0 129 -49.5t46 -138.5q0 -23 -2.5 -45t-6.5 -38h-293zM263 406q-50 0 -75.5 -32t-35.5 -76h188
q5 48 -13.5 78t-63.5 30z" />
    <glyph glyph-name="ebreve.sc" horiz-adv-x="457" 
d="M282 578q-39 0 -63.5 12t-37.5 32t-16.5 46.5t-0.5 56.5h82q-6 -64 44 -64q51 0 58 64h82q-3 -30 -12.5 -56.5t-27.5 -46.5t-44.5 -32t-63.5 -12zM94 497h349l-10 -92h-237l-12 -108h206l-10 -91h-205l-12 -114h238l-10 -92h-349z" />
    <glyph glyph-name="ebreve.ss01" horiz-adv-x="475" 
d="M278 563q-39 0 -63.5 12t-37.5 32t-16.5 46.5t-0.5 56.5h82q-6 -64 44 -64q51 0 58 64h82q-3 -30 -12.5 -56.5t-27.5 -46.5t-44.5 -32t-63.5 -12zM144 224v-15q0 -131 103 -131q41 0 66 15t48 47l63 -54q-29 -43 -73 -71t-117 -28q-95 0 -148 58t-53 158q0 66 16 119.5
t47 92t75 59.5t100 21q83 0 129 -49.5t46 -138.5q0 -23 -2.5 -45t-6.5 -38h-293zM263 406q-50 0 -75.5 -32t-35.5 -76h188q5 48 -13.5 78t-63.5 30z" />
    <glyph glyph-name="ecaron.sc" horiz-adv-x="457" 
d="M154 745h96l38 -103l59 103h95l-105 -181h-116zM94 497h349l-10 -92h-237l-12 -108h206l-10 -91h-205l-12 -114h238l-10 -92h-349z" />
    <glyph glyph-name="ecaron.ss01" horiz-adv-x="475" 
d="M218 549l-67 181h96l38 -103l59 103h95l-105 -181h-116zM144 224v-15q0 -131 103 -131q41 0 66 15t48 47l63 -54q-29 -43 -73 -71t-117 -28q-95 0 -148 58t-53 158q0 66 16 119.5t47 92t75 59.5t100 21q83 0 129 -49.5t46 -138.5q0 -23 -2.5 -45t-6.5 -38h-293zM263 406
q-50 0 -75.5 -32t-35.5 -76h188q5 48 -13.5 78t-63.5 30z" />
    <glyph glyph-name="ecircumflex.sc" horiz-adv-x="457" 
d="M240 745h116l67 -181h-96l-38 103l-59 -103h-95zM94 497h349l-10 -92h-237l-12 -108h206l-10 -91h-205l-12 -114h238l-10 -92h-349z" />
    <glyph glyph-name="ecircumflex.ss01" horiz-adv-x="475" 
d="M227 549h-95l105 181h116l67 -181h-96l-38 103zM144 224v-15q0 -131 103 -131q41 0 66 15t48 47l63 -54q-29 -43 -73 -71t-117 -28q-95 0 -148 58t-53 158q0 66 16 119.5t47 92t75 59.5t100 21q83 0 129 -49.5t46 -138.5q0 -23 -2.5 -45t-6.5 -38h-293zM263 406
q-50 0 -75.5 -32t-35.5 -76h188q5 48 -13.5 78t-63.5 30z" />
    <glyph glyph-name="edieresis.sc" horiz-adv-x="457" 
d="M187 584q-32 0 -47.5 18t-15.5 45q0 30 19.5 52t55.5 22q30 0 45.5 -18.5t15.5 -43.5q0 -31 -19 -53t-54 -22zM380 584q-31 0 -47 18t-16 45q0 30 19.5 52t55.5 22q31 0 46.5 -18.5t15.5 -43.5q0 -31 -19.5 -53t-54.5 -22zM94 497h349l-10 -92h-237l-12 -108h206l-10 -91
h-205l-12 -114h238l-10 -92h-349z" />
    <glyph glyph-name="edieresis.ss01" horiz-adv-x="475" 
d="M184 569q-32 0 -47.5 18t-15.5 45q0 30 19.5 52t55.5 22q30 0 45.5 -18.5t15.5 -43.5q0 -31 -19 -53t-54 -22zM377 569q-31 0 -47 18t-16 45q0 30 19.5 52t55.5 22q31 0 46.5 -18.5t15.5 -43.5q0 -31 -19.5 -53t-54.5 -22zM271 495q83 0 129 -49.5t46 -138.5
q0 -23 -2.5 -45t-6.5 -38h-293v-15q0 -131 103 -131q41 0 66 15t48 47l63 -54q-29 -43 -73 -71t-117 -28q-95 0 -148 58t-53 158q0 66 16 119.5t47 92t75 59.5t100 21zM340 298q5 48 -13.5 78t-63.5 30q-50 0 -75.5 -32t-35.5 -76h188z" />
    <glyph glyph-name="edotaccent.sc" horiz-adv-x="457" 
d="M284 584q-32 0 -48.5 18.5t-16.5 45.5q0 31 20 54.5t57 23.5q32 0 48 -19.5t16 -45.5q0 -32 -20 -54.5t-56 -22.5zM94 497h349l-10 -92h-237l-12 -108h206l-10 -91h-205l-12 -114h238l-10 -92h-349z" />
    <glyph glyph-name="edotaccent.ss01" horiz-adv-x="475" 
d="M281 569q-32 0 -48.5 18.5t-16.5 45.5q0 31 20 54.5t57 23.5q32 0 48 -19.5t16 -45.5q0 -32 -20 -54.5t-56 -22.5zM144 224v-15q0 -131 103 -131q41 0 66 15t48 47l63 -54q-29 -43 -73 -71t-117 -28q-95 0 -148 58t-53 158q0 66 16 119.5t47 92t75 59.5t100 21
q83 0 129 -49.5t46 -138.5q0 -23 -2.5 -45t-6.5 -38h-293zM263 406q-50 0 -75.5 -32t-35.5 -76h188q5 48 -13.5 78t-63.5 30z" />
    <glyph glyph-name="egrave.sc" horiz-adv-x="457" 
d="M135 747h128l60 -184h-92zM94 497h349l-10 -92h-237l-12 -108h206l-10 -91h-205l-12 -114h238l-10 -92h-349z" />
    <glyph glyph-name="egrave.ss01" horiz-adv-x="475" 
d="M228 548l-96 184h128l60 -184h-92zM144 224v-15q0 -131 103 -131q41 0 66 15t48 47l63 -54q-29 -43 -73 -71t-117 -28q-95 0 -148 58t-53 158q0 66 16 119.5t47 92t75 59.5t100 21q83 0 129 -49.5t46 -138.5q0 -23 -2.5 -45t-6.5 -38h-293zM263 406q-50 0 -75.5 -32
t-35.5 -76h188q5 48 -13.5 78t-63.5 30z" />
    <glyph glyph-name="eight.dnom" horiz-adv-x="379" 
d="M142 -9q-68 0 -103.5 24t-35.5 71q0 35 19.5 62.5t52.5 42.5q-16 13 -27 32t-11 47q0 52 38.5 86.5t110.5 34.5q56 0 90.5 -25t34.5 -70q0 -35 -17.5 -58t-40.5 -36q26 -12 39 -34t13 -51q0 -59 -42.5 -92.5t-120.5 -33.5zM197 221q14 9 26.5 23.5t12.5 38.5q0 23 -16 36
t-43 13q-31 0 -48.5 -14.5t-17.5 -37.5q0 -16 8 -28t27 -17zM149 50q37 0 58 14t21 43q0 20 -12 30.5t-33 16.5l-58 16q-16 -9 -31 -26.5t-15 -41.5q0 -27 19 -39.5t51 -12.5z" />
    <glyph glyph-name="eight.numr" horiz-adv-x="379" 
d="M142 312q-68 0 -103.5 24t-35.5 70q0 35 19.5 62.5t52.5 43.5q-16 12 -27 31.5t-11 47.5q0 52 38.5 86.5t110.5 34.5q56 0 90.5 -25t34.5 -70q0 -35 -17.5 -58.5t-40.5 -35.5q26 -12 39 -34t13 -51q0 -59 -42.5 -92.5t-120.5 -33.5zM197 541q14 9 26.5 24t12.5 39
q0 23 -16 35.5t-43 12.5q-31 0 -48.5 -14t-17.5 -37q0 -17 8 -29t27 -17zM149 370q37 0 58 14.5t21 43.5q0 20 -12 30.5t-33 16.5l-58 15q-16 -8 -31 -26t-15 -42q0 -27 19 -39.5t51 -12.5z" />
    <glyph glyph-name="eight.osf" horiz-adv-x="540" 
d="M414 361q42 -25 63.5 -63.5t21.5 -87.5q0 -102 -66.5 -159t-182.5 -57q-105 0 -161.5 44t-56.5 126q0 66 34.5 117.5t84.5 80.5q-30 23 -50 58t-20 82t16.5 84.5t47 64t73 41t94.5 14.5q46 0 83.5 -12t64 -34.5t41 -53.5t14.5 -70q0 -61 -27.5 -103.5t-73.5 -71.5z
M305 615q-52 0 -83 -25t-31 -79q0 -33 18.5 -56.5t50.5 -34.5l74 -26q39 23 55.5 56t16.5 70q0 45 -26.5 70t-74.5 25zM259 84q58 0 93.5 29t35.5 84q0 70 -74 96l-91 32q-34 -23 -57 -56.5t-23 -79.5q0 -48 28 -76.5t88 -28.5z" />
    <glyph glyph-name="eight.sc" horiz-adv-x="477" 
d="M362 262q69 -37 69 -113q0 -78 -58 -120t-158 -42q-91 0 -141 33t-50 96q0 48 26.5 82.5t68.5 55.5q-23 17 -36.5 43.5t-13.5 62.5q0 69 52 109.5t142 40.5q84 0 128 -35t44 -94q0 -76 -73 -119zM256 427q-38 0 -60.5 -16t-22.5 -50q0 -44 52 -59l54 -14q29 14 41.5 34
t12.5 42q0 30 -21 46.5t-56 16.5zM224 67q50 0 76.5 18t26.5 55q0 22 -14.5 37.5t-46.5 23.5l-77 21q-26 -14 -43 -35t-17 -50q0 -70 95 -70z" />
    <glyph glyph-name="eight.sinf" horiz-adv-x="365" 
d="M142 -143q-68 0 -103.5 24t-35.5 70q0 35 19.5 62.5t52.5 43.5q-16 12 -27 31.5t-11 47.5q0 52 38.5 86.5t110.5 34.5q56 0 90.5 -25t34.5 -70q0 -35 -17.5 -58.5t-40.5 -35.5q26 -12 39 -34t13 -51q0 -59 -42.5 -92.5t-120.5 -33.5zM197 86q14 9 26.5 24t12.5 39
q0 23 -16 35.5t-43 12.5q-31 0 -48.5 -14t-17.5 -37q0 -17 8 -29t27 -17zM149 -85q37 0 58 14.5t21 43.5q0 20 -12 30.5t-33 16.5l-58 15q-16 -8 -31 -26t-15 -42q0 -27 19 -39.5t51 -12.5z" />
    <glyph glyph-name="eight.sups" horiz-adv-x="379" 
d="M142 377q-68 0 -103.5 24t-35.5 70q0 35 19.5 62.5t52.5 43.5q-16 12 -27 31.5t-11 47.5q0 52 38.5 86.5t110.5 34.5q56 0 90.5 -25t34.5 -70q0 -35 -17.5 -58.5t-40.5 -35.5q26 -12 39 -34t13 -51q0 -59 -42.5 -92.5t-120.5 -33.5zM197 606q14 9 26.5 24t12.5 39
q0 23 -16 35.5t-43 12.5q-31 0 -48.5 -14t-17.5 -37q0 -17 8 -29t27 -17zM149 435q37 0 58 14.5t21 43.5q0 20 -12 30.5t-33 16.5l-58 15q-16 -8 -31 -26t-15 -42q0 -27 19 -39.5t51 -12.5z" />
    <glyph glyph-name="emacron.sc" horiz-adv-x="457" 
d="M162 694h265l-10 -85h-264zM94 497h349l-10 -92h-237l-12 -108h206l-10 -91h-205l-12 -114h238l-10 -92h-349z" />
    <glyph glyph-name="emacron.ss01" horiz-adv-x="475" 
d="M413 594h-264l9 85h265zM144 224v-15q0 -131 103 -131q41 0 66 15t48 47l63 -54q-29 -43 -73 -71t-117 -28q-95 0 -148 58t-53 158q0 66 16 119.5t47 92t75 59.5t100 21q83 0 129 -49.5t46 -138.5q0 -23 -2.5 -45t-6.5 -38h-293zM263 406q-50 0 -75.5 -32t-35.5 -76h188
q5 48 -13.5 78t-63.5 30z" />
    <glyph glyph-name="eng.sc" horiz-adv-x="553" 
d="M513 497l-52 -497h-1l-2 -21q-10 -98 -64 -150t-142 -52q-40 0 -70.5 11t-46.5 32l72 86q9 -11 23 -17.5t34 -6.5q34 0 57.5 22.5t28.5 72.5l3 30l-164 306l-8 18l-33 -331h-105l51 497h104l165 -307l12 -25l33 332h105z" />
    <glyph glyph-name="eng.ss01" horiz-adv-x="529" 
d="M337 495q78 0 115.5 -49t27.5 -141l-32 -305l-3 -21q-10 -98 -59.5 -150t-143.5 -52q-41 0 -72 11t-48 32l73 86q9 -11 24.5 -18t32.5 -7q37 0 57 22.5t26 72.5l3 24l31 298q5 50 -14.5 75.5t-59.5 25.5q-44 0 -73.5 -30.5t-34.5 -81.5l-30 -287h-110l38 357
q2 24 -6 34.5t-28 10.5l8 82q8 2 21.5 3.5t28.5 1.5q40 0 58 -21t19 -59v-2q22 40 60 64t91 24z" />
    <glyph glyph-name="eogonek.sc" horiz-adv-x="457" 
d="M196 405l-12 -108h206l-10 -91h-205l-12 -114h238l-10 -92q-32 -11 -51.5 -35.5t-19.5 -52.5q0 -31 28 -31q10 0 17.5 3t12.5 7l24 -54q-14 -13 -35 -19.5t-46 -6.5q-45 0 -68.5 20.5t-23.5 58.5q0 30 16 58.5t44 51.5h-247l52 497h349l-10 -92h-237z" />
    <glyph glyph-name="eogonek.ss01" horiz-adv-x="475" 
d="M144 224v-15q0 -131 103 -131q41 0 66 15t48 47l63 -54q-21 -32 -50.5 -56t-72.5 -35q-22 -14 -35 -34t-13 -43q0 -31 28 -31q10 0 17.5 3t12.5 7l24 -54q-14 -13 -35 -19.5t-46 -6.5q-45 0 -68.5 20.5t-23.5 58.5q0 25 10.5 48.5t30.5 44.5q-81 9 -125.5 65.5
t-44.5 148.5q0 66 16 119.5t47 92t75 59.5t100 21q83 0 129 -49.5t46 -138.5q0 -23 -2.5 -45t-6.5 -38h-293zM263 406q-50 0 -75.5 -32t-35.5 -76h188q5 48 -13.5 78t-63.5 30z" />
    <glyph glyph-name="eth.sc" horiz-adv-x="591" 
d="M292 497q52 0 97.5 -12t79 -38t53 -67.5t19.5 -100.5q0 -77 -26 -130.5t-67.5 -86.5t-94 -47.5t-105.5 -14.5h-176l22 206h-68l8 87h69l21 204h168zM256 91q78 0 122.5 46t44.5 131q0 64 -34 101t-104 37h-60l-12 -113h102l-9 -87h-102l-12 -115h64z" />
    <glyph glyph-name="exclam.sc" horiz-adv-x="234" 
d="M89 497h113l-51 -344h-87zM89 -15q-23 0 -38 15.5t-15 37.5q0 26 20 44.5t45 18.5q23 0 38 -15.5t15 -37.5q0 -26 -19.5 -44.5t-45.5 -18.5z" />
    <glyph glyph-name="exclamdown.sc" horiz-adv-x="241" 
d="M153 506q22 0 37 -15.5t15 -37.5q0 -26 -20 -44.5t-44 -18.5q-23 0 -38 15.5t-15 37.5q0 26 19.5 44.5t45.5 18.5zM153 -6h-114l51 344h88z" />
    <glyph glyph-name="f.sc" horiz-adv-x="438" 
d="M94 497h343l-10 -96h-232l-13 -126h194l-10 -94h-194l-19 -181h-111z" />
    <glyph glyph-name="fi.sc" horiz-adv-x="684" 
d="M94 497h343l-10 -96h-232l-13 -126h194l-10 -94h-194l-19 -181h-111zM532 497h111l-52 -497h-111z" />
    <glyph glyph-name="five.dnom" horiz-adv-x="357" 
d="M133 -10q-94 0 -132 61l57 48q16 -22 34 -31t46 -9q37 0 55.5 18.5t18.5 51.5q0 26 -13 41t-39 15q-24 0 -42 -8.5t-30 -19.5h-66l24 224h248l-7 -67h-182l-10 -94q14 11 34 19.5t52 8.5q51 0 79.5 -29t28.5 -82q0 -69 -43 -108t-113 -39z" />
    <glyph glyph-name="five.numr" horiz-adv-x="357" 
d="M133 312q-94 0 -133 61l57 48q17 -22 35 -31t46 -9q37 0 55.5 18.5t18.5 51.5q0 26 -13 41t-40 15q-23 0 -41 -8.5t-30 -19.5h-66l23 224h249l-7 -67h-182l-11 -94q14 11 34.5 19.5t52.5 8.5q51 0 79.5 -29t28.5 -82q0 -69 -43 -108t-113 -39z" />
    <glyph glyph-name="five.osf" horiz-adv-x="519" 
d="M219 -200q-164 0 -217 131l98 54q22 -46 52 -67t74 -21q59 0 96 37.5t37 112.5q0 58 -27.5 86t-73.5 28q-42 0 -70 -16t-46 -34h-105l41 385h407l-10 -99h-306l-21 -196q27 28 62 42.5t84 14.5q85 0 132 -51t47 -145q0 -61 -18 -110t-51.5 -82.5t-80.5 -51.5t-104 -18z
" />
    <glyph glyph-name="five.sc" horiz-adv-x="474" 
d="M208 -7q-75 0 -122.5 24.5t-68.5 66.5l77 65q23 -35 53 -49.5t71 -14.5q54 0 81 23t27 65q0 33 -20.5 50t-57.5 17q-30 0 -54 -8.5t-41 -20.5h-99l30 286h356l-9 -91h-263l-12 -114q53 36 132 36q70 0 108.5 -36t38.5 -103q0 -95 -59 -145.5t-168 -50.5z" />
    <glyph glyph-name="five.sinf" horiz-adv-x="344" 
d="M133 -143q-94 0 -133 61l57 48q17 -22 35 -31t46 -9q37 0 55.5 18.5t18.5 51.5q0 26 -13 41t-40 15q-23 0 -41 -8.5t-30 -19.5h-66l23 224h249l-7 -67h-182l-11 -94q14 11 34.5 19.5t52.5 8.5q51 0 79.5 -29t28.5 -82q0 -69 -43 -108t-113 -39z" />
    <glyph glyph-name="five.sups" horiz-adv-x="357" 
d="M133 377q-94 0 -133 61l57 48q17 -22 35 -31t46 -9q37 0 55.5 18.5t18.5 51.5q0 26 -13 41t-40 15q-23 0 -41 -8.5t-30 -19.5h-66l23 224h249l-7 -67h-182l-11 -94q14 11 34.5 19.5t52.5 8.5q51 0 79.5 -29t28.5 -82q0 -69 -43 -108t-113 -39z" />
    <glyph glyph-name="fiveeighths.alt" horiz-adv-x="615" 
d="M152 328q-21 0 -37 5t-27.5 11.5t-19 13.5t-10.5 10l39 47l21 -15t41 -10q22 0 34 11t12 26q0 13 -8.5 21t-26.5 8q-17 0 -28 -7.5t-15 -10.5h-56l17 166h188l-6 -56h-127l-5 -52q4 4 18 9t35 5q42 0 62.5 -20.5t20.5 -57.5q0 -43 -30 -73.5t-92 -30.5zM486 600h83
l-407 -501h-85zM450 75q-106 0 -106 68q0 20 13 41t42 31q-29 17 -29 55t29.5 60.5t79.5 22.5q45 0 69 -18t24 -48q0 -24 -12.5 -40t-28.5 -23q20 -8 30 -24t10 -36q0 -41 -33.5 -65t-87.5 -24zM484 242q10 3 15.5 13t5.5 20q0 14 -9 20.5t-23 6.5q-17 0 -26.5 -7.5
t-9.5 -21.5q0 -8 3.5 -14t13.5 -8zM456 124q23 0 35.5 9t12.5 25q0 21 -25 27l-36 9q-14 -5 -23 -16t-9 -24q0 -30 45 -30z" />
    <glyph glyph-name="fl.sc" horiz-adv-x="849" 
d="M94 497h343l-10 -96h-232l-13 -126h194l-10 -94h-194l-19 -181h-111zM532 497h111l-42 -398h214l-10 -99h-325z" />
    <glyph glyph-name="four.dnom" horiz-adv-x="368" 
d="M173 81h-180l6 57l143 244h85l-136 -232h95l8 83h76l-9 -83h49l-8 -69h-49l-7 -81h-80z" />
    <glyph glyph-name="four.numr" horiz-adv-x="368" 
d="M173 399h-181l6 57l143 244h85l-136 -232h95l9 83h75l-8 -83h48l-8 -69h-48l-8 -81h-80z" />
    <glyph glyph-name="four.osf" horiz-adv-x="563" 
d="M528 93l-10 -93h-96l-18 -164h-108l17 164h-318l10 91l336 407h134l-44 -405h97zM323 93l33 288l-234 -288h201z" />
    <glyph glyph-name="four.sc" horiz-adv-x="470" 
d="M250 97h-241l8 86l222 314h111l-220 -314h135l11 104h99l-11 -104h77l-9 -86h-77l-10 -97h-105z" />
    <glyph glyph-name="four.sinf" horiz-adv-x="356" 
d="M173 -56h-180l6 57l143 244h85l-136 -232h95l8 83h76l-9 -83h49l-8 -69h-49l-7 -81h-80z" />
    <glyph glyph-name="four.sups" horiz-adv-x="368" 
d="M173 464h-180l6 57l143 244h85l-136 -232h95l8 83h76l-9 -83h49l-8 -69h-49l-7 -81h-80z" />
    <glyph glyph-name="g.sc" horiz-adv-x="533" 
d="M264 -13q-115 0 -172 59t-57 168q0 68 19.5 122.5t56 93t88 59.5t114.5 21q87 0 134.5 -36t47.5 -100q0 -8 -1.5 -21.5t-6.5 -26.5h-104q1 4 1 8t1 12q2 32 -18 51t-61 19q-72 0 -113.5 -50.5t-41.5 -146.5q0 -69 31 -105t96 -36q33 0 58.5 6t39.5 16l8 76h-104l9 82h203
l-22 -206q-29 -25 -79.5 -45t-126.5 -20z" />
    <glyph glyph-name="g.ss01" horiz-adv-x="496" 
d="M191 -240q-109 0 -157.5 32t-48.5 88q0 25 8 45t20 34.5t27 24.5t29 17q-21 11 -35 29.5t-14 49.5q0 42 23.5 66t57.5 37q-17 19 -29 44t-12 73q0 45 16.5 81t45 61t67.5 38t85 13q22 0 40.5 -3.5t32.5 -8.5q11 0 26 4t28.5 15t24 30t13.5 49l92 -20q-3 -34 -15.5 -56
t-29.5 -36t-36 -20.5t-36 -8.5q19 -20 31.5 -50t12.5 -68q0 -94 -55.5 -143.5t-154.5 -49.5q-29 0 -50.5 4t-31.5 6q-22 0 -33.5 -11t-11.5 -27q0 -35 55 -35h125q79 0 120.5 -32.5t41.5 -96.5q0 -36 -14 -67.5t-45.5 -55.5t-83.5 -38t-129 -14zM256 211q52 0 76.5 29
t24.5 76q0 44 -24 67.5t-67 23.5q-51 0 -77 -28.5t-26 -76.5q0 -43 23.5 -67t69.5 -24zM204 -162q154 0 154 79q0 29 -17 42.5t-55 13.5h-101q-51 0 -74 -21.5t-23 -50.5q0 -33 26 -48t90 -15z" />
    <glyph glyph-name="gbreve.sc" horiz-adv-x="533" 
d="M310 578q-39 0 -63.5 12t-37.5 32t-16.5 46.5t-0.5 56.5h82q-6 -64 44 -64q51 0 58 64h82q-3 -30 -12.5 -56.5t-27.5 -46.5t-44.5 -32t-63.5 -12zM264 -13q-115 0 -172 59t-57 168q0 68 19.5 122.5t56 93t88 59.5t114.5 21q87 0 134.5 -36t47.5 -100q0 -8 -1.5 -21.5
t-6.5 -26.5h-104q1 4 1 8t1 12q2 32 -18 51t-61 19q-72 0 -113.5 -50.5t-41.5 -146.5q0 -69 31 -105t96 -36q33 0 58.5 6t39.5 16l8 76h-104l9 82h203l-22 -206q-29 -25 -79.5 -45t-126.5 -20z" />
    <glyph glyph-name="gbreve.ss01" horiz-adv-x="496" 
d="M276 563q-39 0 -63.5 12t-37.5 32t-16.5 46.5t-0.5 56.5h82q-6 -64 44 -64q51 0 58 64h82q-3 -30 -12.5 -56.5t-27.5 -46.5t-44.5 -32t-63.5 -12zM191 -240q-109 0 -157.5 32t-48.5 88q0 25 8 45t20 34.5t27 24.5t29 17q-21 11 -35 29.5t-14 49.5q0 42 23.5 66t57.5 37
q-17 19 -29 44t-12 73q0 45 16.5 81t45 61t67.5 38t85 13q22 0 40.5 -3.5t32.5 -8.5q11 0 26 4t28.5 15t24 30t13.5 49l92 -20q-3 -34 -15.5 -56t-29.5 -36t-36 -20.5t-36 -8.5q19 -20 31.5 -50t12.5 -68q0 -94 -55.5 -143.5t-154.5 -49.5q-29 0 -50.5 4t-31.5 6
q-22 0 -33.5 -11t-11.5 -27q0 -35 55 -35h125q79 0 120.5 -32.5t41.5 -96.5q0 -36 -14 -67.5t-45.5 -55.5t-83.5 -38t-129 -14zM256 211q52 0 76.5 29t24.5 76q0 44 -24 67.5t-67 23.5q-51 0 -77 -28.5t-26 -76.5q0 -43 23.5 -67t69.5 -24zM204 -162q154 0 154 79
q0 29 -17 42.5t-55 13.5h-101q-51 0 -74 -21.5t-23 -50.5q0 -33 26 -48t90 -15z" />
    <glyph glyph-name="gcaron.sc" horiz-adv-x="533" 
d="M182 745h96l38 -103l59 103h95l-105 -181h-116zM264 -13q-115 0 -172 59t-57 168q0 68 19.5 122.5t56 93t88 59.5t114.5 21q87 0 134.5 -36t47.5 -100q0 -8 -1.5 -21.5t-6.5 -26.5h-104q1 4 1 8t1 12q2 32 -18 51t-61 19q-72 0 -113.5 -50.5t-41.5 -146.5q0 -69 31 -105
t96 -36q33 0 58.5 6t39.5 16l8 76h-104l9 82h203l-22 -206q-29 -25 -79.5 -45t-126.5 -20z" />
    <glyph glyph-name="gcaron.ss01" horiz-adv-x="496" 
d="M149 730h96l38 -103l59 103h95l-105 -181h-116zM191 -240q-109 0 -157.5 32t-48.5 88q0 25 8 45t20 34.5t27 24.5t29 17q-21 11 -35 29.5t-14 49.5q0 42 23.5 66t57.5 37q-17 19 -29 44t-12 73q0 45 16.5 81t45 61t67.5 38t85 13q22 0 40.5 -3.5t32.5 -8.5q11 0 26 4
t28.5 15t24 30t13.5 49l92 -20q-3 -34 -15.5 -56t-29.5 -36t-36 -20.5t-36 -8.5q19 -20 31.5 -50t12.5 -68q0 -94 -55.5 -143.5t-154.5 -49.5q-29 0 -50.5 4t-31.5 6q-22 0 -33.5 -11t-11.5 -27q0 -35 55 -35h125q79 0 120.5 -32.5t41.5 -96.5q0 -36 -14 -67.5t-45.5 -55.5
t-83.5 -38t-129 -14zM256 211q52 0 76.5 29t24.5 76q0 44 -24 67.5t-67 23.5q-51 0 -77 -28.5t-26 -76.5q0 -43 23.5 -67t69.5 -24zM204 -162q154 0 154 79q0 29 -17 42.5t-55 13.5h-101q-51 0 -74 -21.5t-23 -50.5q0 -33 26 -48t90 -15z" />
    <glyph glyph-name="gcircumflex.sc" horiz-adv-x="533" 
d="M268 745h116l67 -181h-96l-38 103l-59 -103h-95zM264 -13q-115 0 -172 59t-57 168q0 68 19.5 122.5t56 93t88 59.5t114.5 21q87 0 134.5 -36t47.5 -100q0 -8 -1.5 -21.5t-6.5 -26.5h-104q1 4 1 8t1 12q2 32 -18 51t-61 19q-72 0 -113.5 -50.5t-41.5 -146.5q0 -69 31 -105
t96 -36q33 0 58.5 6t39.5 16l8 76h-104l9 82h203l-22 -206q-29 -25 -79.5 -45t-126.5 -20z" />
    <glyph glyph-name="gcircumflex.ss01" horiz-adv-x="496" 
d="M235 730h116l67 -181h-96l-38 103l-59 -103h-95zM191 -240q-109 0 -157.5 32t-48.5 88q0 25 8 45t20 34.5t27 24.5t29 17q-21 11 -35 29.5t-14 49.5q0 42 23.5 66t57.5 37q-17 19 -29 44t-12 73q0 45 16.5 81t45 61t67.5 38t85 13q22 0 40.5 -3.5t32.5 -8.5q11 0 26 4
t28.5 15t24 30t13.5 49l92 -20q-3 -34 -15.5 -56t-29.5 -36t-36 -20.5t-36 -8.5q19 -20 31.5 -50t12.5 -68q0 -94 -55.5 -143.5t-154.5 -49.5q-29 0 -50.5 4t-31.5 6q-22 0 -33.5 -11t-11.5 -27q0 -35 55 -35h125q79 0 120.5 -32.5t41.5 -96.5q0 -36 -14 -67.5t-45.5 -55.5
t-83.5 -38t-129 -14zM256 211q52 0 76.5 29t24.5 76q0 44 -24 67.5t-67 23.5q-51 0 -77 -28.5t-26 -76.5q0 -43 23.5 -67t69.5 -24zM204 -162q154 0 154 79q0 29 -17 42.5t-55 13.5h-101q-51 0 -74 -21.5t-23 -50.5q0 -33 26 -48t90 -15z" />
    <glyph glyph-name="gdotaccent.sc" horiz-adv-x="533" 
d="M312 584q-32 0 -48.5 18.5t-16.5 45.5q0 31 20 54.5t57 23.5q32 0 48 -19.5t16 -45.5q0 -32 -20 -54.5t-56 -22.5zM264 -13q-115 0 -172 59t-57 168q0 68 19.5 122.5t56 93t88 59.5t114.5 21q87 0 134.5 -36t47.5 -100q0 -8 -1.5 -21.5t-6.5 -26.5h-104q1 4 1 8t1 12
q2 32 -18 51t-61 19q-72 0 -113.5 -50.5t-41.5 -146.5q0 -69 31 -105t96 -36q33 0 58.5 6t39.5 16l8 76h-104l9 82h203l-22 -206q-29 -25 -79.5 -45t-126.5 -20z" />
    <glyph glyph-name="gdotaccent.ss01" horiz-adv-x="496" 
d="M279 569q-32 0 -48.5 18.5t-16.5 45.5q0 31 20 54.5t57 23.5q32 0 48 -19.5t16 -45.5q0 -32 -20 -54.5t-56 -22.5zM191 -240q-109 0 -157.5 32t-48.5 88q0 25 8 45t20 34.5t27 24.5t29 17q-21 11 -35 29.5t-14 49.5q0 42 23.5 66t57.5 37q-17 19 -29 44t-12 73
q0 45 16.5 81t45 61t67.5 38t85 13q22 0 40.5 -3.5t32.5 -8.5q11 0 26 4t28.5 15t24 30t13.5 49l92 -20q-3 -34 -15.5 -56t-29.5 -36t-36 -20.5t-36 -8.5q19 -20 31.5 -50t12.5 -68q0 -94 -55.5 -143.5t-154.5 -49.5q-29 0 -50.5 4t-31.5 6q-22 0 -33.5 -11t-11.5 -27
q0 -35 55 -35h125q79 0 120.5 -32.5t41.5 -96.5q0 -36 -14 -67.5t-45.5 -55.5t-83.5 -38t-129 -14zM256 211q52 0 76.5 29t24.5 76q0 44 -24 67.5t-67 23.5q-51 0 -77 -28.5t-26 -76.5q0 -43 23.5 -67t69.5 -24zM204 -162q154 0 154 79q0 29 -17 42.5t-55 13.5h-101
q-51 0 -74 -21.5t-23 -50.5q0 -33 26 -48t90 -15z" />
    <glyph glyph-name="germandbls.sc" horiz-adv-x="548" 
d="M371 279q75 -12 103.5 -48t28.5 -84q0 -78 -52.5 -117t-140.5 -39q-49 0 -79.5 9.5t-50.5 28.5l56 79q17 -13 35 -19.5t46 -6.5q39 0 57 16t18 43q0 22 -16 37.5t-58 21.5q-14 2 -29 2.5t-33 -0.5l4 81l116 111q-27 10 -70 10q-48 0 -85 -27.5t-43 -87.5l-30 -289h-112
l32 301q6 53 27 91.5t54 63.5t76 36.5t91 11.5q63 0 108 -14t74 -36l-7 -61z" />
    <glyph glyph-name="grave.case" horiz-adv-x="267" 
d="M97 886h136l64 -144h-100z" />
    <glyph glyph-name="gravecomb.case" 
d="M-176 886h136l65 -144h-100z" />
    <glyph glyph-name="h.sc" horiz-adv-x="559" 
d="M94 497h111l-20 -200h203l20 200h111l-52 -497h-111l21 199h-203l-21 -199h-111z" />
    <glyph glyph-name="h.ss01" horiz-adv-x="517" 
d="M111 726h110l-31 -300q18 27 51.5 48t82.5 21q44 0 73.5 -15t46 -41t22 -60.5t1.5 -73.5l-32 -305h-110l32 302q5 42 -13.5 69.5t-60.5 27.5q-25 0 -44 -10t-32.5 -25.5t-21 -34.5t-9.5 -37l-31 -292h-110z" />
    <glyph glyph-name="hbar.sc" horiz-adv-x="606" 
d="M587 352h-59l-37 -352h-111l21 200h-203l-21 -200h-111l37 352h-58l7 78h59l7 67h111l-7 -67h203l7 67h111l-7 -67h58zM417 352h-203l-5 -53h203z" />
    <glyph glyph-name="hbar.ss01" horiz-adv-x="517" 
d="M324 495q44 0 73.5 -15t46 -41t22 -60.5t1.5 -73.5l-32 -305h-110l32 302q5 42 -13.5 69.5t-60.5 27.5q-25 0 -44 -10t-32.5 -25.5t-21 -34.5t-9.5 -37l-31 -292h-110l59 562h-69l9 88h69l8 76h110l-8 -76h111l-9 -88h-111l-14 -136q18 27 51.5 48t82.5 21z" />
    <glyph glyph-name="hcircumflex.sc" horiz-adv-x="559" 
d="M275 745h116l67 -181h-96l-38 103l-59 -103h-95zM94 497h111l-20 -200h203l20 200h111l-52 -497h-111l21 199h-203l-21 -199h-111z" />
    <glyph glyph-name="hcircumflex.ss01" horiz-adv-x="517" 
d="M127 886h120l70 -144h-97l-42 73l-56 -73h-96zM111 726h110l-31 -300q18 27 51.5 48t82.5 21q44 0 73.5 -15t46 -41t22 -60.5t1.5 -73.5l-32 -305h-110l32 302q5 42 -13.5 69.5t-60.5 27.5q-25 0 -44 -10t-32.5 -25.5t-21 -34.5t-9.5 -37l-31 -292h-110z" />
    <glyph glyph-name="hungarumlaut.case" horiz-adv-x="419" 
d="M172 886h129l-117 -144h-91zM341 886h130l-118 -144h-90z" />
    <glyph glyph-name="i.loclTRK" horiz-adv-x="245" 
d="M155 569q-32 0 -48.5 18.5t-16.5 45.5q0 31 20 54.5t57 23.5q32 0 48 -19.5t16 -45.5q0 -32 -20 -54.5t-56 -22.5zM140 -4q-54 0 -76 30t-17 84l39 372h111l-37 -349q-3 -28 4.5 -39t32.5 -11l-9 -81q-4 -2 -17.5 -4t-30.5 -2z" />
    <glyph glyph-name="i.loclTRK.ss01" horiz-adv-x="234" 
d="M154 569q-32 0 -48.5 18.5t-16.5 45.5q0 31 20 54.5t57 23.5q32 0 48 -19.5t16 -45.5q0 -32 -20 -54.5t-56 -22.5zM88 482h110l-51 -482h-110z" />
    <glyph glyph-name="i.sc" horiz-adv-x="246" 
d="M94 497h111l-52 -497h-111z" />
    <glyph glyph-name="i.sc.loclTRK" horiz-adv-x="246" 
d="M161 584q-32 0 -48.5 18.5t-16.5 45.5q0 31 20 54.5t57 23.5q32 0 48 -19.5t16 -45.5q0 -32 -20 -54.5t-56 -22.5zM94 497h111l-52 -497h-111z" />
    <glyph glyph-name="i.ss01" horiz-adv-x="234" 
d="M154 569q-32 0 -48.5 18.5t-16.5 45.5q0 31 20 54.5t57 23.5q32 0 48 -19.5t16 -45.5q0 -32 -20 -54.5t-56 -22.5zM88 482h110l-51 -482h-110z" />
    <glyph glyph-name="iacute.sc" horiz-adv-x="246" 
d="M193 747h131l-135 -184h-95zM94 497h111l-52 -497h-111z" />
    <glyph glyph-name="iacute.ss01" horiz-adv-x="234" 
d="M186 732h131l-135 -184h-95zM88 482h110l-51 -482h-110z" />
    <glyph glyph-name="ibreve.sc" horiz-adv-x="246" 
d="M159 578q-39 0 -63.5 12t-37.5 32t-16.5 46.5t-0.5 56.5h82q-6 -64 44 -64q51 0 58 64h82q-3 -30 -12.5 -56.5t-27.5 -46.5t-44.5 -32t-63.5 -12zM94 497h111l-52 -497h-111z" />
    <glyph glyph-name="ibreve.ss01" horiz-adv-x="234" 
d="M151 563q-39 0 -63.5 12t-37.5 32t-16.5 46.5t-0.5 56.5h82q-6 -64 44 -64q51 0 58 64h82q-3 -30 -12.5 -56.5t-27.5 -46.5t-44.5 -32t-63.5 -12zM88 482h110l-51 -482h-110z" />
    <glyph glyph-name="icircumflex.sc" horiz-adv-x="246" 
d="M117 745h116l67 -181h-96l-38 103l-59 -103h-95zM94 497h111l-52 -497h-111z" />
    <glyph glyph-name="icircumflex.ss01" horiz-adv-x="234" 
d="M110 730h116l67 -181h-96l-38 103l-59 -103h-95zM88 482h110l-51 -482h-110z" />
    <glyph glyph-name="idieresis.sc" horiz-adv-x="246" 
d="M64 584q-32 0 -47.5 18t-15.5 45q0 30 19.5 52t55.5 22q30 0 45.5 -18.5t15.5 -43.5q0 -31 -19 -53t-54 -22zM257 584q-31 0 -47 18t-16 45q0 30 19.5 52t55.5 22q31 0 46.5 -18.5t15.5 -43.5q0 -31 -19.5 -53t-54.5 -22zM94 497h111l-52 -497h-111z" />
    <glyph glyph-name="idieresis.ss01" horiz-adv-x="234" 
d="M57 569q-32 0 -47.5 18t-15.5 45q0 30 19.5 52t55.5 22q30 0 45.5 -18.5t15.5 -43.5q0 -31 -19 -53t-54 -22zM250 569q-31 0 -47 18t-16 45q0 30 19.5 52t55.5 22q31 0 46.5 -18.5t15.5 -43.5q0 -31 -19.5 -53t-54.5 -22zM88 482h110l-51 -482h-110z" />
    <glyph glyph-name="igrave.sc" horiz-adv-x="246" 
d="M12 747h128l60 -184h-92zM94 497h111l-52 -497h-111z" />
    <glyph glyph-name="igrave.ss01" horiz-adv-x="234" 
d="M5 732h128l60 -184h-92zM88 482h110l-51 -482h-110z" />
    <glyph glyph-name="ij.sc" horiz-adv-x="638" 
d="M94 497h111l-52 -497h-111zM375 -13q-52 0 -86.5 17t-51.5 42l73 75q13 -15 29 -25.5t42 -10.5q34 0 53 20t23 57l36 335h111l-36 -335q-9 -86 -58.5 -130.5t-134.5 -44.5z" />
    <glyph glyph-name="ij.ss01" horiz-adv-x="471" 
d="M154 569q-32 0 -48.5 18.5t-16.5 45.5q0 31 20 54.5t57 23.5q32 0 48 -19.5t16 -45.5q0 -32 -20 -54.5t-56 -22.5zM390 569q-32 0 -48.5 18.5t-16.5 45.5q0 31 20 54.5t57 23.5q32 0 48 -19.5t16 -45.5q0 -32 -20 -54.5t-56 -22.5zM88 482h110l-51 -482h-110zM186 -247
q-24 0 -40.5 4.5t-27.5 10.5q-12 7 -20 15l41 78q5 -4 12 -7q6 -2 14 -4t19 -2q75 0 86 106l56 528h108l-56 -533q-9 -89 -55 -142.5t-137 -53.5z" />
    <glyph glyph-name="ijacute" horiz-adv-x="493" 
d="M188 732h130l-135 -184h-94zM443 732h131l-135 -184h-94zM140 -4q-54 0 -76 30t-17 84l39 372h111l-37 -349q-3 -28 4.5 -39t32.5 -11l-9 -81q-4 -2 -17.5 -4t-30.5 -2zM197 -247q-24 0 -40.5 4.5t-27.5 10.5q-12 7 -20 15l41 78q5 -4 12 -7q6 -2 14.5 -4t19.5 -2
q75 0 86 106l55 528h108l-55 -533q-10 -89 -56 -142.5t-137 -53.5z" />
    <glyph glyph-name="imacron.sc" horiz-adv-x="246" 
d="M39 694h265l-10 -85h-264zM94 497h111l-52 -497h-111z" />
    <glyph glyph-name="imacron.ss01" horiz-adv-x="234" 
d="M31 679h265l-10 -85h-264zM88 482h110l-51 -482h-110z" />
    <glyph glyph-name="iogonek.sc" horiz-adv-x="246" 
d="M109 -119q10 0 17.5 3t12.5 7l24 -54q-14 -13 -35 -19.5t-46 -6.5q-45 0 -68.5 20.5t-23.5 58.5q0 30 16 58.5t44 51.5h-8l52 497h111l-52 -497h-1q-32 -11 -51.5 -35.5t-19.5 -52.5q0 -31 28 -31z" />
    <glyph glyph-name="iogonek.ss01" horiz-adv-x="234" 
d="M166 711q32 0 48 -19.5t16 -45.5q0 -32 -20 -54.5t-56 -22.5q-32 0 -48.5 18.5t-16.5 45.5q0 31 20 54.5t57 23.5zM144 0q-32 -11 -51.5 -35.5t-19.5 -52.5q0 -31 28 -31q10 0 17.5 3t12.5 7l24 -54q-14 -13 -35 -19.5t-46 -6.5q-45 0 -68.5 20.5t-23.5 58.5
q0 30 16 58.5t44 51.5h-5l51 482h110l-51 -482h-3z" />
    <glyph glyph-name="itilde.sc" horiz-adv-x="246" 
d="M12 579q-8 18 -8 42q0 39 24.5 65t69.5 26q21 0 37.5 -6t31 -13.5t27 -13.5t24.5 -6q11 0 18.5 6.5t7.5 19.5q0 5 -1 10.5t-3 8.5h74q7 -17 7 -41q0 -39 -24 -66t-69 -27q-23 0 -41 6t-31.5 13.5t-24.5 13.5t-21 6q-28 0 -28 -26q0 -12 4 -18h-74zM94 497h111l-52 -497
h-111z" />
    <glyph glyph-name="itilde.ss01" horiz-adv-x="234" 
d="M5 564q-8 18 -8 42q0 39 24.5 65t69.5 26q21 0 37.5 -6t31 -13.5t27 -13.5t24.5 -6q11 0 18.5 6.5t7.5 19.5q0 5 -1 10.5t-3 8.5h74q7 -17 7 -41q0 -39 -24 -66t-69 -27q-23 0 -41 6t-31.5 13.5t-24.5 13.5t-21 6q-28 0 -28 -26q0 -12 4 -18h-74zM88 482h110l-51 -482
h-110z" />
    <glyph glyph-name="j.sc" horiz-adv-x="392" 
d="M129 -13q-52 0 -86.5 17t-51.5 42l73 75q13 -15 29 -25.5t42 -10.5q34 0 53 20t23 57l36 335h111l-36 -335q-9 -86 -58.5 -130.5t-134.5 -44.5z" />
    <glyph glyph-name="jcircumflex.sc" horiz-adv-x="392" 
d="M264 745h116l67 -181h-96l-38 103l-59 -103h-95zM129 -13q-52 0 -86.5 17t-51.5 42l73 75q13 -15 29 -25.5t42 -10.5q34 0 53 20t23 57l36 335h111l-36 -335q-9 -86 -58.5 -130.5t-134.5 -44.5z" />
    <glyph glyph-name="k.sc" horiz-adv-x="528" 
d="M353 242q21 -18 32 -44.5t21.5 -50.5t24.5 -41t41 -17h18l-10 -91q-12 -5 -50 -5q-40 0 -64 15.5t-38 38t-23.5 49.5t-20.5 49.5t-29 38t-49 15.5h-32l-21 -199h-111l52 497h111l-21 -204h40q25 0 51.5 10t50 34t41 63t23.5 97h108q-9 -93 -49 -156.5t-96 -98.5z" />
    <glyph glyph-name="k.ss01" horiz-adv-x="483" 
d="M374 132q17 -30 29.5 -39t35.5 -9h11l-9 -81q-4 -2 -17 -4.5t-29 -2.5q-43 0 -63.5 18t-38.5 53l-77 148l-54 -52l-17 -163h-110l76 726h110l-48 -439l193 195h126l-204 -197z" />
    <glyph glyph-name="kgreenlandic.sc" horiz-adv-x="528" 
d="M353 242q21 -18 32 -44.5t21.5 -50.5t24.5 -41t41 -17h18l-10 -91q-12 -5 -50 -5q-40 0 -64 15.5t-38 38t-23.5 49.5t-20.5 49.5t-29 38t-49 15.5h-32l-21 -199h-111l52 497h111l-21 -204h40q25 0 51.5 10t50 34t41 63t23.5 97h108q-9 -93 -49 -156.5t-96 -98.5z" />
    <glyph glyph-name="kgreenlandic.ss01" horiz-adv-x="483" 
d="M374 132q17 -30 29.5 -39t35.5 -9h11l-9 -81q-4 -2 -17 -4.5t-29 -2.5q-43 0 -63.5 18t-38.5 53l-77 147l-54 -53l-17 -161h-110l50 482h110l-22 -197l193 197h126l-203 -198z" />
    <glyph glyph-name="l.sc" horiz-adv-x="411" 
d="M94 497h111l-42 -398h214l-10 -99h-325z" />
    <glyph glyph-name="lacute.sc" horiz-adv-x="411" 
d="M203 747h131l-135 -184h-95zM94 497h111l-42 -398h214l-10 -99h-325z" />
    <glyph glyph-name="lcaron.sc" horiz-adv-x="440" 
d="M285 356q25 8 38 22t15 28q-49 12 -49 59q0 31 20 49.5t49 18.5t47 -18.5t18 -53.5q0 -24 -8.5 -48t-24.5 -44.5t-37.5 -36t-47.5 -23.5zM94 497h111l-42 -398h214l-10 -99h-325z" />
    <glyph glyph-name="ldot.sc" horiz-adv-x="445" 
d="M94 497h111l-42 -398h214l-10 -99h-325zM348 235q-29 0 -47 17t-18 46q0 30 19 51.5t54 21.5q28 0 45.5 -17.5t17.5 -46.5q0 -30 -18 -51t-53 -21z" />
    <glyph glyph-name="lslash.sc" horiz-adv-x="444" 
d="M406 99l-10 -99h-324l18 169l-48 -27l-32 71l90 50l24 234h111l-18 -167l84 47l34 -71l-128 -71l-14 -136h213z" />
    <glyph glyph-name="m.sc" horiz-adv-x="633" 
d="M94 497h115l104 -305l170 305h109l-52 -497h-100l37 326l-13 -27l-130 -237h-73l-78 239l-8 25l-34 -326h-99z" />
    <glyph glyph-name="m.ss01" horiz-adv-x="815" 
d="M85 357q2 24 -6 34.5t-28 10.5l8 82q8 2 21.5 3.5t27.5 1.5q75 0 78 -80v-3q18 34 54.5 61.5t94.5 27.5q57 0 90 -24.5t46 -68.5q17 36 56 64.5t96 28.5q44 0 73.5 -14.5t46 -40t22 -60.5t1.5 -75l-32 -305h-110l31 298q5 46 -12 73.5t-61 27.5q-45 0 -72 -32.5
t-32 -77.5l-30 -289h-110l31 298q5 46 -13 73.5t-62 27.5q-24 0 -43 -9.5t-32.5 -25.5t-21.5 -35.5t-10 -40.5l-30 -288h-110z" />
    <glyph glyph-name="macron.case" horiz-adv-x="362" 
d="M107 853h277l-9 -86h-277z" />
    <glyph glyph-name="n.sc" horiz-adv-x="553" 
d="M94 497h104l165 -307l12 -25l33 332h105l-52 -497h-104l-168 313l-8 18l-33 -331h-105z" />
    <glyph glyph-name="n.ss01" horiz-adv-x="529" 
d="M85 357q2 24 -6 34.5t-28 10.5l8 82q8 2 21.5 3.5t28.5 1.5q40 0 58 -21t19 -59v-2q22 40 60 64t91 24q78 0 115.5 -49t27.5 -141l-32 -305h-110l31 298q5 50 -14.5 75.5t-59.5 25.5q-44 0 -73.5 -30.5t-34.5 -81.5l-30 -287h-110z" />
    <glyph glyph-name="nacute.sc" horiz-adv-x="553" 
d="M345 747h131l-135 -184h-95zM94 497h104l165 -307l12 -25l33 332h105l-52 -497h-104l-168 313l-8 18l-33 -331h-105z" />
    <glyph glyph-name="nacute.ss01" horiz-adv-x="529" 
d="M335 732h131l-135 -184h-95zM85 357q2 24 -6 34.5t-28 10.5l8 82q8 2 21.5 3.5t28.5 1.5q40 0 58 -21t19 -59v-2q22 40 60 64t91 24q78 0 115.5 -49t27.5 -141l-32 -305h-110l31 298q5 50 -14.5 75.5t-59.5 25.5q-44 0 -73.5 -30.5t-34.5 -81.5l-30 -287h-110z" />
    <glyph glyph-name="napostrophe.sc" horiz-adv-x="644" 
d="M38 564q15 5 27 13q11 6 19.5 14t8.5 19q-27 1 -44.5 19t-17.5 45t18.5 45.5t44.5 18.5q29 0 49.5 -18.5t20.5 -56.5q0 -43 -14.5 -71.5t-32.5 -44.5t-33 -22.5t-17 -6.5zM165 497h103l165 -307l12 -25l34 332h104l-52 -497h-103l-168 313l-9 18l-33 -331h-104z" />
    <glyph glyph-name="napostrophe.ss01" horiz-adv-x="627" 
d="M41 522q26 11 44 29t20 35q-29 1 -44.5 18t-15.5 43q0 33 22 54.5t52 21.5q31 0 48.5 -19.5t17.5 -53.5q0 -57 -30.5 -106t-87.5 -69zM183 357q3 24 -5 34.5t-29 10.5l8 82q8 2 21.5 3.5t28.5 1.5q40 0 57.5 -21t19.5 -59l1 -2q22 40 59.5 64t90.5 24q78 0 115.5 -49
t27.5 -141l-32 -305h-110l31 298q6 50 -14 75.5t-60 25.5q-44 0 -73.5 -30.5t-34.5 -81.5l-30 -287h-110z" />
    <glyph glyph-name="ncaron.sc" horiz-adv-x="553" 
d="M183 745h96l38 -103l59 103h95l-105 -181h-116zM94 497h104l165 -307l12 -25l33 332h105l-52 -497h-104l-168 313l-8 18l-33 -331h-105z" />
    <glyph glyph-name="ncaron.ss01" horiz-adv-x="529" 
d="M173 730h96l38 -103l59 103h95l-105 -181h-116zM85 357q2 24 -6 34.5t-28 10.5l8 82q8 2 21.5 3.5t28.5 1.5q40 0 58 -21t19 -59v-2q22 40 60 64t91 24q78 0 115.5 -49t27.5 -141l-32 -305h-110l31 298q5 50 -14.5 75.5t-59.5 25.5q-44 0 -73.5 -30.5t-34.5 -81.5
l-30 -287h-110z" />
    <glyph glyph-name="nine.dnom" horiz-adv-x="378" 
d="M170 391q68 0 106 -43.5t38 -121.5q0 -110 -50.5 -171.5t-135.5 -63.5q-46 0 -76 16.5t-44 42.5l59 47q22 -36 66 -36q38 0 65.5 25.5t35.5 88.5q-23 -20 -48.5 -28.5t-51.5 -8.5q-56 0 -86.5 31.5t-30.5 79.5q0 33 11.5 59.5t32 44.5t48.5 28t61 10zM92 259
q0 -26 16 -40.5t44 -14.5q27 0 47 10.5t37 25.5q-3 47 -24.5 65t-50.5 18q-35 0 -52 -19t-17 -45z" />
    <glyph glyph-name="nine.numr" horiz-adv-x="378" 
d="M170 712q68 0 106 -43.5t38 -122.5q0 -110 -50.5 -171t-135.5 -63q-46 -1 -76 16t-44 43l59 47q21 -36 66 -36q38 0 65.5 25.5t35.5 88.5q-23 -20 -48.5 -28.5t-51.5 -8.5q-56 0 -86.5 31.5t-30.5 79.5q0 33 11.5 59.5t32 44.5t48.5 28t61 10zM92 579q0 -26 16 -40
t44 -14q27 0 47 10.5t37 25.5q-4 47 -25 64.5t-50 17.5q-35 0 -52 -19t-17 -45z" />
    <glyph glyph-name="nine.osf" horiz-adv-x="547" 
d="M283 500q109 0 165.5 -72.5t56.5 -208.5q0 -106 -20.5 -186.5t-59 -135t-93.5 -82t-124 -27.5q-72 0 -121.5 26.5t-72.5 78.5l84 63q22 -41 48 -57t73 -16q32 0 61 13.5t52 43t39 75t22 109.5q-35 -38 -75.5 -53.5t-91.5 -15.5q-42 0 -76.5 13.5t-59.5 39t-39 62
t-14 83.5q0 54 17 99.5t48.5 78.5t77.5 51t103 18zM260 150q46 0 79.5 19.5t57.5 48.5q-2 101 -36.5 145t-86.5 44q-57 0 -92.5 -37t-35.5 -105q0 -53 27.5 -84t86.5 -31z" />
    <glyph glyph-name="nine.sc" horiz-adv-x="488" 
d="M250 510q102 0 153.5 -57.5t51.5 -161.5q0 -145 -68 -224.5t-187 -79.5q-66 0 -109.5 22t-63.5 61l78 60q19 -32 42 -44t61 -12q54 0 92.5 37t46.5 125q-57 -54 -144 -54q-72 0 -116 37.5t-44 108.5q0 38 14 71.5t40.5 58t65 38.5t87.5 14zM147 337q0 -33 21 -52.5
t68 -19.5q33 0 61 12t51 33q-5 60 -33 85.5t-70 25.5q-44 0 -71 -22.5t-27 -61.5z" />
    <glyph glyph-name="nine.sinf" horiz-adv-x="364" 
d="M170 257q68 0 106 -43.5t38 -122.5q0 -110 -50.5 -171t-135.5 -63q-46 -1 -76 16t-44 43l59 47q21 -36 66 -36q38 0 65.5 25.5t35.5 88.5q-23 -20 -48.5 -28.5t-51.5 -8.5q-56 0 -86.5 31.5t-30.5 79.5q0 33 11.5 59.5t32 44.5t48.5 28t61 10zM92 124q0 -26 16 -40
t44 -14q27 0 47 10.5t37 25.5q-4 47 -25 64.5t-50 17.5q-35 0 -52 -19t-17 -45z" />
    <glyph glyph-name="nine.sups" horiz-adv-x="378" 
d="M170 777q68 0 106 -43.5t38 -122.5q0 -110 -50.5 -171t-135.5 -63q-46 -1 -76 16t-44 43l59 47q21 -36 66 -36q38 0 65.5 25.5t35.5 88.5q-23 -20 -48.5 -28.5t-51.5 -8.5q-56 0 -86.5 31.5t-30.5 79.5q0 33 11.5 59.5t32 44.5t48.5 28t61 10zM92 644q0 -26 16 -40
t44 -14q27 0 47 10.5t37 25.5q-4 47 -25 64.5t-50 17.5q-35 0 -52 -19t-17 -45z" />
    <glyph glyph-name="ntilde.sc" horiz-adv-x="553" 
d="M165 579q-8 18 -8 42q0 39 24.5 65t69.5 26q21 0 37.5 -6t31 -13.5t27 -13.5t24.5 -6q11 0 18.5 6.5t7.5 19.5q0 5 -1 10.5t-3 8.5h74q7 -17 7 -41q0 -39 -24 -66t-69 -27q-23 0 -41 6t-31.5 13.5t-24.5 13.5t-21 6q-28 0 -28 -26q0 -12 4 -18h-74zM94 497h104l165 -307
l12 -25l33 332h105l-52 -497h-104l-168 313l-8 18l-33 -331h-105z" />
    <glyph glyph-name="ntilde.ss01" horiz-adv-x="529" 
d="M154 564q-8 18 -8 42q0 39 24.5 65t69.5 26q21 0 37.5 -6t31 -13.5t27 -13.5t24.5 -6q11 0 18.5 6.5t7.5 19.5q0 5 -1 10.5t-3 8.5h74q7 -17 7 -41q0 -39 -24 -66t-69 -27q-23 0 -41 6t-31.5 13.5t-24.5 13.5t-21 6q-28 0 -28 -26q0 -12 4 -18h-74zM85 357q2 24 -6 34.5
t-28 10.5l8 82q8 2 21.5 3.5t28.5 1.5q40 0 58 -21t19 -59v-2q22 40 60 64t91 24q78 0 115.5 -49t27.5 -141l-32 -305h-110l31 298q5 50 -14.5 75.5t-59.5 25.5q-44 0 -73.5 -30.5t-34.5 -81.5l-30 -287h-110z" />
    <glyph glyph-name="o.sc" horiz-adv-x="568" 
d="M265 -13q-47 0 -89 13t-73.5 41t-49.5 71.5t-18 104.5q0 73 21.5 128t58 91.5t86 55t105.5 18.5q47 0 88.5 -13t73 -41t49.5 -72t18 -106q0 -72 -21 -126.5t-57.5 -91t-86 -55t-105.5 -18.5zM274 79q28 0 54 11t46.5 34.5t32.5 60t12 86.5q0 76 -35.5 111t-85.5 35
q-28 0 -55 -11.5t-47 -35t-32.5 -60t-12.5 -87.5q0 -75 35 -109.5t88 -34.5z" />
    <glyph glyph-name="oacute.sc" horiz-adv-x="568" 
d="M354 736h131l-135 -184h-95zM265 -13q-47 0 -89 13t-73.5 41t-49.5 71.5t-18 104.5q0 73 21.5 128t58 91.5t86 55t105.5 18.5q47 0 88.5 -13t73 -41t49.5 -72t18 -106q0 -72 -21 -126.5t-57.5 -91t-86 -55t-105.5 -18.5zM274 79q28 0 54 11t46.5 34.5t32.5 60t12 86.5
q0 76 -35.5 111t-85.5 35q-28 0 -55 -11.5t-47 -35t-32.5 -60t-12.5 -87.5q0 -75 35 -109.5t88 -34.5z" />
    <glyph glyph-name="obreve.sc" horiz-adv-x="568" 
d="M319 567q-39 0 -63.5 12t-37.5 32t-16.5 46.5t-0.5 56.5h82q-6 -64 44 -64q51 0 58 64h82q-3 -30 -12.5 -56.5t-27.5 -46.5t-44.5 -32t-63.5 -12zM265 -13q-47 0 -89 13t-73.5 41t-49.5 71.5t-18 104.5q0 73 21.5 128t58 91.5t86 55t105.5 18.5q47 0 88.5 -13t73 -41
t49.5 -72t18 -106q0 -72 -21 -126.5t-57.5 -91t-86 -55t-105.5 -18.5zM274 79q28 0 54 11t46.5 34.5t32.5 60t12 86.5q0 76 -35.5 111t-85.5 35q-28 0 -55 -11.5t-47 -35t-32.5 -60t-12.5 -87.5q0 -75 35 -109.5t88 -34.5z" />
    <glyph glyph-name="ocircumflex.sc" horiz-adv-x="568" 
d="M278 734h116l67 -181h-96l-38 103l-59 -103h-95zM265 -13q-47 0 -89 13t-73.5 41t-49.5 71.5t-18 104.5q0 73 21.5 128t58 91.5t86 55t105.5 18.5q47 0 88.5 -13t73 -41t49.5 -72t18 -106q0 -72 -21 -126.5t-57.5 -91t-86 -55t-105.5 -18.5zM274 79q28 0 54 11t46.5 34.5
t32.5 60t12 86.5q0 76 -35.5 111t-85.5 35q-28 0 -55 -11.5t-47 -35t-32.5 -60t-12.5 -87.5q0 -75 35 -109.5t88 -34.5z" />
    <glyph glyph-name="odieresis.sc" horiz-adv-x="568" 
d="M225 573q-32 0 -47.5 18t-15.5 45q0 30 19.5 52t55.5 22q30 0 45.5 -18.5t15.5 -43.5q0 -31 -19 -53t-54 -22zM418 573q-31 0 -47 18t-16 45q0 30 19.5 52t55.5 22q31 0 46.5 -18.5t15.5 -43.5q0 -31 -19.5 -53t-54.5 -22zM265 -13q-47 0 -89 13t-73.5 41t-49.5 71.5
t-18 104.5q0 73 21.5 128t58 91.5t86 55t105.5 18.5q47 0 88.5 -13t73 -41t49.5 -72t18 -106q0 -72 -21 -126.5t-57.5 -91t-86 -55t-105.5 -18.5zM274 79q28 0 54 11t46.5 34.5t32.5 60t12 86.5q0 76 -35.5 111t-85.5 35q-28 0 -55 -11.5t-47 -35t-32.5 -60t-12.5 -87.5
q0 -75 35 -109.5t88 -34.5z" />
    <glyph glyph-name="oe.sc" horiz-adv-x="813" 
d="M551 405l-12 -108h206l-10 -91h-205l-12 -114h238l-10 -92h-348l2 19q-61 -32 -135 -32q-47 0 -89 13t-73.5 41t-49.5 71.5t-18 104.5q0 73 21.5 128t58 91.5t86 55t105.5 18.5q40 0 76 -9t65 -29l3 25h348l-9 -92h-238zM274 79q28 0 54 11t46.5 34.5t32.5 60t12 86.5
q0 76 -35.5 111t-85.5 35q-28 0 -55 -11.5t-47 -35t-32.5 -60t-12.5 -87.5q0 -75 35 -109.5t88 -34.5z" />
    <glyph glyph-name="ograve.sc" horiz-adv-x="568" 
d="M173 736h128l60 -184h-92zM265 -13q-47 0 -89 13t-73.5 41t-49.5 71.5t-18 104.5q0 73 21.5 128t58 91.5t86 55t105.5 18.5q47 0 88.5 -13t73 -41t49.5 -72t18 -106q0 -72 -21 -126.5t-57.5 -91t-86 -55t-105.5 -18.5zM274 79q28 0 54 11t46.5 34.5t32.5 60t12 86.5
q0 76 -35.5 111t-85.5 35q-28 0 -55 -11.5t-47 -35t-32.5 -60t-12.5 -87.5q0 -75 35 -109.5t88 -34.5z" />
    <glyph glyph-name="ohungarumlaut.sc" horiz-adv-x="568" 
d="M257 736h124l-122 -184h-88zM427 736h123l-122 -184h-87zM265 -13q-47 0 -89 13t-73.5 41t-49.5 71.5t-18 104.5q0 73 21.5 128t58 91.5t86 55t105.5 18.5q47 0 88.5 -13t73 -41t49.5 -72t18 -106q0 -72 -21 -126.5t-57.5 -91t-86 -55t-105.5 -18.5zM274 79q28 0 54 11
t46.5 34.5t32.5 60t12 86.5q0 76 -35.5 111t-85.5 35q-28 0 -55 -11.5t-47 -35t-32.5 -60t-12.5 -87.5q0 -75 35 -109.5t88 -34.5z" />
    <glyph glyph-name="omacron.sc" horiz-adv-x="568" 
d="M199 683h265l-10 -85h-264zM265 -13q-47 0 -89 13t-73.5 41t-49.5 71.5t-18 104.5q0 73 21.5 128t58 91.5t86 55t105.5 18.5q47 0 88.5 -13t73 -41t49.5 -72t18 -106q0 -72 -21 -126.5t-57.5 -91t-86 -55t-105.5 -18.5zM274 79q28 0 54 11t46.5 34.5t32.5 60t12 86.5
q0 76 -35.5 111t-85.5 35q-28 0 -55 -11.5t-47 -35t-32.5 -60t-12.5 -87.5q0 -75 35 -109.5t88 -34.5z" />
    <glyph glyph-name="one.dnom" horiz-adv-x="257" 
d="M103 264q-10 -11 -33.5 -22t-58.5 -11l3 74q42 0 68 22.5t34 54.5h79l-40 -382h-79z" />
    <glyph glyph-name="one.numr" horiz-adv-x="310" 
d="M156 582q-10 -10 -33.5 -21.5t-58.5 -11.5l3 75q42 0 68 22.5t34 54.5h79l-40 -382h-79z" />
    <glyph glyph-name="one.osf" horiz-adv-x="322" 
d="M167 353q-17 -15 -47 -25.5t-87 -10.5l9 98q66 0 101 24.5t39 57.5h102l-52 -497h-102z" />
    </font>
</defs>
</svg>
